<svg xmlns="http://www.w3.org/2000/svg" width="100" height="100" viewBox="0 0 100 100">
  <g id="car_logo_bentley" transform="translate(-225 -160)">
    <g id="W_100_H_100" data-name="W 100 H 100" transform="translate(225 160)" fill="#f9f9f9" stroke="#f0f0f0" stroke-width="1" opacity="0">
      <rect width="100" height="100" stroke="none"/>
      <rect x="0.5" y="0.5" width="99" height="99" fill="none"/>
    </g>
    <g id="bentley" transform="translate(-140.969 -2304.288)">
      <path id="패스_792083" data-name="패스 792083" d="M375.97,2504.6s.593-.695.764-.889.3-.343.411-.456a.43.43,0,0,1,.353-.131c.109.011,1.271.137,1.584.172s1.688.1,2.234.1l2.291,0c.3,0,2.591-.129,3.1-.167s3.431-.076,4.137-.087,3.979.114,4.788.159,3.032.16,3.773.138,4.24-.172,4.936-.172,2.884.137,3.373.216a8.993,8.993,0,0,1,1.061.262s.934-.376,1.414-.535a18.863,18.863,0,0,1,5.687-.924,18.347,18.347,0,0,1,3.454.332,21.154,21.154,0,0,1,2.565.729c.433.172,1.356.592,1.356.592s.673-.2,1.242-.33a15.992,15.992,0,0,1,1.948-.3,14.571,14.571,0,0,1,1.517-.068c.616.011,2.087.159,2.5.2a19.819,19.819,0,0,0,2.381.148c.673-.007,2.84-.1,3.466-.137s4.387-.205,5.162-.216,4.172.194,4.857.227,2.119.1,2.564.092,1.938-.081,2.69-.16,2.365-.212,2.639-.229c.3-.016.433-.016.484.018s.525.489.718.706.388.484.461.57.108.12.086.164a3.271,3.271,0,0,1-.211.348.45.45,0,0,1-.16.125c-.062.035-.729.37-.946.462l-.786.33s.165.387.227.559a2.978,2.978,0,0,1,.154.628,1.356,1.356,0,0,1-.017.37c-.028.018-.364.212-.5.268s-.627.262-.843.32-.621.165-.621.165a4.2,4.2,0,0,1,.017.5,3.7,3.7,0,0,1-.057.6,1.586,1.586,0,0,1-.25.5,1.228,1.228,0,0,1-.382.261,4.751,4.751,0,0,1-.741.223c-.211.039-.5.086-.627.1s-.229.011-.229.011-.011.371-.028.535a3.852,3.852,0,0,1-.113.582,1.176,1.176,0,0,1-.275.45.792.792,0,0,1-.41.211,6.938,6.938,0,0,1-.73.137c-.255.028-.746.085-.911.1s-.337.017-.337.017-.125.461-.176.6a3.493,3.493,0,0,1-.314.6,3.3,3.3,0,0,1-.393.456,1.255,1.255,0,0,1-.324.216,4.079,4.079,0,0,1-.6.041c-.171,0-.689,0-.946-.017s-.536-.045-.711-.063a1.826,1.826,0,0,1-.268-.045s-.058.353-.075.445a3.187,3.187,0,0,1-.147.478,1.145,1.145,0,0,1-.229.364.582.582,0,0,1-.352.194,3.289,3.289,0,0,1-.553.063c-.131.006-.963.028-1.186.028s-.65-.005-.8-.011-.393,0-.393,0-.062.262-.109.411a3.7,3.7,0,0,1-.2.5,1.308,1.308,0,0,1-.228.336.462.462,0,0,1-.331.182,4.789,4.789,0,0,1-.649.035c-.229-.006-.73-.035-.964-.069s-.712-.126-.85-.166a2.572,2.572,0,0,1-.28-.1,2.724,2.724,0,0,1-.153.381,1.976,1.976,0,0,1-.314.433.926.926,0,0,1-.473.29,2.25,2.25,0,0,1-.632-.039c-.188-.028-.6-.119-.775-.166s-.623-.177-.724-.205a2.18,2.18,0,0,1-.229-.081,2.836,2.836,0,0,1-.2.348,2.343,2.343,0,0,1-.33.353,1.219,1.219,0,0,1-.394.223,1.906,1.906,0,0,1-.434-.028,4.546,4.546,0,0,1-.626-.161,3.622,3.622,0,0,1-.365-.137s-.216.628-.274.77-.336.724-.44.918c-.085.165-.548.917-.689,1.122-.171.251-.854,1.112-1.019,1.277s-.4.417-.548.57-.775.712-1.111.981a17.084,17.084,0,0,1-1.419,1c-.474.291-1.334.752-1.71.923s-.809.347-.809.347-.172.325-.261.531a5.817,5.817,0,0,1-.3.574.165.165,0,0,1-.2.046c-.086-.028-.5-.182-.65-.239s-.5-.2-.5-.2-.228.336-.309.462-.3.462-.341.5-.126.025-.176.007-.5-.261-.587-.314-.473-.273-.473-.273-.216.262-.33.417c-.092.125-.406.485-.434.513s-.074.023-.141,0a3.083,3.083,0,0,1-.348-.246c-.148-.108-.4-.308-.479-.358a1.3,1.3,0,0,1-.153-.12s-.285.28-.387.376-.353.342-.388.376l-.1.092a.119.119,0,0,1-.12.006,5.325,5.325,0,0,1-.484-.428c-.1-.1-.4-.393-.4-.393s-.358.262-.478.347-.439.337-.5.364a.147.147,0,0,1-.183-.044c-.045-.063-.387-.457-.45-.537s-.279-.336-.279-.336-.422.228-.592.314-.428.255-.473.273-.148.018-.182-.041-.255-.375-.342-.5c-.1-.143-.3-.45-.3-.45s-.388.142-.524.2-.547.216-.621.233-.183,0-.212-.057c-.04-.075-.319-.61-.377-.741s-.147-.326-.147-.326-.459-.182-.758-.319c-.325-.149-1.02-.49-1.311-.65s-.775-.449-1.066-.65-.958-.689-1.22-.917-1.151-1.111-1.362-1.35-.547-.645-.832-1.031a8.691,8.691,0,0,1-.689-1.123,11.166,11.166,0,0,1-.536-1.14c-.183-.45-.336-.866-.381-1.019a2.159,2.159,0,0,1-.058-.218s-.519.172-.883.257a4.233,4.233,0,0,1-1.146.183c-.369-.023-.438-.081-.53-.155a2.084,2.084,0,0,1-.331-.382,3.863,3.863,0,0,1-.244-.41s-.57.143-.792.194-.747.155-1.06.194a4.569,4.569,0,0,1-.861.057.852.852,0,0,1-.473-.234,1.643,1.643,0,0,1-.313-.359,5.1,5.1,0,0,1-.268-.5,1.31,1.31,0,0,1-.057-.183s-.655.011-.826.011-1.072,0-1.255-.011a7.782,7.782,0,0,1-.872-.08.694.694,0,0,1-.513-.325,1.842,1.842,0,0,1-.313-.568c-.075-.2-.132-.423-.132-.423s-.575-.006-.883-.039-.946-.108-1.293-.166a10.157,10.157,0,0,1-1.02-.2c-.142-.051-.222-.172-.347-.308a4.174,4.174,0,0,1-.365-.489c-.114-.172-.348-.52-.37-.57a1.092,1.092,0,0,0-.056-.108s-.593-.058-.855-.092-.645-.1-.821-.13a6.164,6.164,0,0,1-.741-.171.518.518,0,0,1-.28-.273,5.477,5.477,0,0,1-.228-.856c-.079-.324-.131-.586-.131-.586s-.479-.125-.861-.228-.49-.137-.753-.216a2.9,2.9,0,0,1-.66-.274c-.149-.1-.143-.28-.16-.382s-.057-.537-.069-.662-.006-.4-.006-.4-.951-.439-1.2-.547-.827-.388-.947-.445-.1-.182-.085-.279.1-.484.138-.673.1-.5.114-.536a.577.577,0,0,0,.016-.079s-.918-.462-1.145-.582-.872-.444-.958-.5-.119-.154-.159-.3-.058-.222-.058-.222" transform="translate(0 0)" fill="#231815" fill-rule="evenodd"/>
      <path id="패스_792084" data-name="패스 792084" d="M406.9,2512.526c.092-1.053,1.416-2.232,1.224-3.3a2.658,2.658,0,0,0-2.253-1.732c-.606-.095-2.6-.243-3.032-.257-.535-.017-1.978-.046-2.43-.052s-1.643-.012-2-.023a8.991,8.991,0,0,1-1.358-.114,11.6,11.6,0,0,1-1.54-.388c-.564-.17-1.014-.308-1.459-.4a12.542,12.542,0,0,0-1.4-.222c-.389-.034-1.152-.091-1.728-.1s-2,0-2.454.005-1.87.057-2.241.057-.771,0-.946.006-.137.1-.217.108-.513,0-.758,0-.428-.011-.514-.017-.211,0-.211,0a.087.087,0,0,0,.069.1,3.117,3.117,0,0,0,.376.046c.074.006.655.045.86.057s.56.011.783.029.621.017.884.022,1.323,0,1.711.011,1.119.012,1.477.023,1.21.046,1.877.126a15.222,15.222,0,0,1,1.881.319c.642.153,1.4.393,1.774.507s.885.251,1.151.308a2.443,2.443,0,0,1,.577.133c.069.055.069.119.029.2a2.017,2.017,0,0,0-.1.194c-.029.08-.058.142-.058.142h-.239a.191.191,0,0,0,.052-.1c.005-.052-.136-.137-.286-.166s-.826-.091-1-.114a11.928,11.928,0,0,0-1.216-.081c-.365.007-1.791-.011-2.156,0s-1.7-.017-2.036-.005-1.511,0-1.831-.006-1.061-.005-1.357-.005-1.3,0-1.654-.006-1.563-.034-1.8-.028-.9-.017-1.226-.022-1.466-.041-1.775-.041a4.72,4.72,0,0,1-.816-.057c-.119-.035-.769-.372-1.031-.5s-.759-.388-.9-.457-.268-.161-.308-.178-.222.161-.272.229-.144,0-.144,0,.627-.7.753-.844a1.876,1.876,0,0,1,.348-.37,2,2,0,0,1,.508-.006c.166.018,1.22.108,1.426.125s1.1.046,1.34.057,1.374.018,1.751.029,1.557.039,1.911.022,1.334-.108,1.637-.125,1.255-.086,1.7-.1,1.357,0,1.648-.022,1.443-.029,1.843-.029,1.523.046,1.9.058,2.02.1,2.447.119,2.55.1,3.017.108,1.163.035,1.534.011,2.15-.1,2.692-.119,1.962-.039,2.539-.022,1.961.155,2.43.211.929.177,1.06.182a.834.834,0,0,1,.416.086c.075.069.143.222.286.308s.341.119.41.211.075.28.114.36a1.9,1.9,0,0,1,.228.519,1.22,1.22,0,0,1-.113.678,3.721,3.721,0,0,1-.514.644c-.211.217-.53.451-.81.691a6.676,6.676,0,0,0-1,.946,1.983,1.983,0,0,0-.451.9c-.051.337-.022.537-.039.594a.821.821,0,0,1-.149.284c-.08.086-.427.491-.553.656s-.336.474-.388.553-.1.165-.1.165l-.08-.136a2.08,2.08,0,0,0,.192-.261c.066-.078.034-.321.07-.731" transform="translate(-0.619 -2.179)" fill="#fff" fill-rule="evenodd"/>
      <path id="패스_792085" data-name="패스 792085" d="M384.07,2514.521l.04-.211s.582,0,.758.006,1.238.045,1.609.045,1.523.034,1.8.023,1.837.023,2.174.023,1.967.006,2.3.012,2.2.016,2.493.016,1.826,0,2.185.006,1.9-.011,2.247-.011,1.238.016,1.432.011a2.454,2.454,0,0,0,.388-.034c.04-.011.165-.063.239-.028s.108.12.142.165a.721.721,0,0,0,.142.126.662.662,0,0,1,.172.137.438.438,0,0,0,.132.13c.08.064.1.092.068.126s-.149.188-.2.268-.069.165-.1.188a.763.763,0,0,1-.2.04s.1-.073.086-.142a.419.419,0,0,0-.382-.239,9.833,9.833,0,0,0-1.13.067c-.273.029-2.088.188-2.407.217s-2.834.206-3.262.24-2.418.155-2.8.183-1.871.1-2.332.13-1.529.074-1.934.092-1.209.034-1.357.023a1.6,1.6,0,0,1-.451-.142c-.1-.046-.747-.337-.929-.417a2.461,2.461,0,0,1-.56-.285c-.057-.074-.028-.194-.028-.284a.359.359,0,0,0-.109-.3c-.1-.086-.234-.183-.234-.183" transform="translate(-5.476 -8.13)" fill="#fff" fill-rule="evenodd"/>
      <path id="패스_792086" data-name="패스 792086" d="M390.248,2519.86v-.159a3.462,3.462,0,0,0,.41-.023c.143-.022.708-.022,1.083-.04s1.848-.081,2.31-.108,2.573-.144,2.966-.172,3.165-.217,3.553-.251,2.676-.216,3.036-.244,1.557-.154,1.984-.189a2.515,2.515,0,0,0,.56-.1c.069-.005.119-.046.188.034a2.023,2.023,0,0,0,.3.3c.086.058.353.228.359.313a.67.67,0,0,1-.115.274.715.715,0,0,0-.04.24l-.273.051a.824.824,0,0,0,.029-.1.238.238,0,0,0-.155-.194.89.89,0,0,0-.491-.039c-.188.039-1.044.188-1.393.244s-2.366.394-2.857.473-2.43.376-2.892.439-2.252.3-2.879.358-1.382.137-1.8.161a8.348,8.348,0,0,1-1.158.028c-.308-.034-.987-.246-1.284-.319a3.378,3.378,0,0,1-.816-.279.507.507,0,0,1-.136-.244.708.708,0,0,0-.24-.321c-.073-.034-.244-.131-.244-.131" transform="translate(-9.652 -11.006)" fill="#fff" fill-rule="evenodd"/>
      <path id="패스_792087" data-name="패스 792087" d="M398.045,2524.667a.951.951,0,0,0,.239,0,3.1,3.1,0,0,1,.383-.08c.148-.006.593-.023.838-.034s.964-.079,1.215-.1,1.443-.142,1.831-.193,2.514-.354,2.869-.4,2.133-.32,2.617-.406,2.11-.371,2.527-.451.918-.159,1.107-.2.314-.126.417-.1a2.738,2.738,0,0,1,.341.17c.132.063.331.126.439.166s.211.1.222.137a.537.537,0,0,1-.045.279.7.7,0,0,0-.091.234,1.425,1.425,0,0,0-.023.167l-.257.091s.04-.115,0-.171a.4.4,0,0,0-.257-.149,1.556,1.556,0,0,0-.308.058c-.119.04-1.66.5-1.905.571l-1.837.507c-.227.064-1.676.427-2.087.513s-1.928.394-2.3.463-1.8.251-2.167.273a4.458,4.458,0,0,1-.719.017c-.291-.017-.838-.086-1.186-.136s-.724-.126-.856-.154-.256-.052-.314-.205-.051-.269-.147-.377a1.113,1.113,0,0,0-.3-.252c-.08-.034-.206-.033-.223-.073a.425.425,0,0,1-.022-.16" transform="translate(-14.922 -13.8)" fill="#fff" fill-rule="evenodd"/>
      <path id="패스_792088" data-name="패스 792088" d="M407.518,2529.53s1.038-.108,1.272-.142,1.831-.263,2.214-.343,2.03-.438,2.327-.507,2.1-.537,2.458-.634,1.568-.438,1.893-.542,1.29-.393,1.4-.439a.749.749,0,0,1,.325-.114,4.849,4.849,0,0,1,.536.143,2.259,2.259,0,0,1,.463.137.185.185,0,0,1,.062.177c-.011.081-.006.5,0,.547s.115.137.115.137l-.273.108c-.058.023-.183.069-.183.069a.4.4,0,0,0,.011-.155.648.648,0,0,0-.217-.136.4.4,0,0,0-.217.04c-.119.04-.427.177-.581.246s-1.067.427-1.34.535-1.38.53-1.735.656-1.961.678-2.258.769-1.352.388-1.6.45a2.854,2.854,0,0,1-.576.126,12.647,12.647,0,0,1-1.335-.1c-.33-.045-1.26-.183-1.385-.223a.572.572,0,0,1-.28-.176.831.831,0,0,0-.261-.218,4.149,4.149,0,0,0-.377-.183c-.1-.039-.148-.056-.217-.085a1.551,1.551,0,0,1-.183-.063.145.145,0,0,1-.051-.08" transform="translate(-21.327 -16.583)" fill="#fff" fill-rule="evenodd"/>
      <path id="패스_792089" data-name="패스 792089" d="M420.774,2533.792a3.933,3.933,0,0,0,.434-.126c.1-.045.638-.21.81-.256s.782-.211,1.037-.3,1.454-.5,1.69-.575,1.659-.616,1.939-.724,1.865-.759,2.092-.851a4.256,4.256,0,0,0,.536-.24,2.306,2.306,0,0,1,.457-.205,2.281,2.281,0,0,1,.467-.062c.109.005.189-.006.234.045a.266.266,0,0,1,.057.206.527.527,0,0,0,.12.375,1.129,1.129,0,0,0,.411.183,3.265,3.265,0,0,0,.382.068.416.416,0,0,0,.1,0s-.324.193-.405.235l-.422.21s-.029-.085-.068-.1a1.087,1.087,0,0,0-.32-.006.879.879,0,0,0-.364.125c-.115.069-1.21.65-1.426.764s-1.895.988-2.122,1.091-1.306.632-1.484.712a1.337,1.337,0,0,1-.445.166c-.166.017-.541.023-.878.028s-1-.011-1.2-.022a2.7,2.7,0,0,1-.661-.08c-.16-.064-.183-.15-.28-.263a1.031,1.031,0,0,0-.37-.25.623.623,0,0,0-.274-.024c-.023.006-.04-.125-.04-.125" transform="translate(-30.301 -19.05)" fill="#fff" fill-rule="evenodd"/>
      <path id="패스_792090" data-name="패스 792090" d="M432.815,2537.338s1.306-.656,1.5-.741,2.151-1.084,2.4-1.221,1.678-.918,1.985-1.089.735-.4.8-.445a.906.906,0,0,1,.206-.143,1.247,1.247,0,0,1,.142-.04s.12.16.188.245a.711.711,0,0,0,.394.263,1.352,1.352,0,0,0,.365.016c.108-.011.3-.05.3-.05s-.472.457-.558.524-1.124.919-1.329,1.1-.958.77-1.13.907-.718.542-.837.6a4.149,4.149,0,0,1-.612.229c-.188.05-1.055.233-1.369.3s-.987.177-1.117.183a.552.552,0,0,1-.434-.115c-.114-.119-.177-.3-.325-.37a.645.645,0,0,0-.354-.109c-.206.028-.222-.046-.222-.046" transform="translate(-38.443 -21.216)" fill="#fff" fill-rule="evenodd"/>
      <path id="패스_792091" data-name="패스 792091" d="M444.518,2539.495s.708-.519.862-.646.792-.626.964-.763.923-.747,1.152-.935.912-.77,1.09-.93.529-.5.529-.5a.387.387,0,0,0,.086.188,1.062,1.062,0,0,0,.3.222,1.264,1.264,0,0,0,.5.068c.147-.005.29-.022.347-.022a.142.142,0,0,1,.155.125c0,.1.011.166.011.211a.2.2,0,0,0,.022.086l-1.049,1.163c-.2.229-.8.867-.987,1.06s-.667.713-.724.76-.225.009-.326-.052c-.13-.08-.25-.017-.41.023s-.445.125-.633.171a6.23,6.23,0,0,1-.741.143.444.444,0,0,1-.325-.091,1.706,1.706,0,0,0-.325-.3c-.086-.04-.189-.069-.233-.04s-.229.137-.264.058" transform="translate(-46.357 -22.609)" fill="#fff" fill-rule="evenodd"/>
      <path id="패스_792092" data-name="패스 792092" d="M455.171,2541.739s.684-.724.839-.884.981-1.055,1.158-1.249.479-.555.552-.646.132-.153.166-.153a2.781,2.781,0,0,0,.382-.041,2.178,2.178,0,0,1,.444-.062c.058.017.058.063.064.109s.011.541.017.7a3.376,3.376,0,0,1-.029.634c-.034.125-.411.861-.5,1.06s-.331.644-.365.73a.321.321,0,0,1-.086.136c-.029.03-.093-.073-.183-.182a.32.32,0,0,0-.388-.1c-.13.033-.866.227-1,.255a1.56,1.56,0,0,1-.48.069.339.339,0,0,1-.233-.2.269.269,0,0,0-.211-.161.5.5,0,0,1-.154-.022" transform="translate(-53.561 -24.626)" fill="#fff" fill-rule="evenodd"/>
      <path id="패스_792093" data-name="패스 792093" d="M465.47,2545.088s.17-.4.21-.479.1-.194.1-.194a2.711,2.711,0,0,0,.086.308,3.068,3.068,0,0,1,.172.313c.024.084.194.52.222.588a.485.485,0,0,1,.063.24.253.253,0,0,0,.012.17c.022.057.043.11.005.126-.058.023-.177.109-.216.125a.171.171,0,0,1-.194-.073c-.036-.052-.178-.063-.291-.155a.218.218,0,0,1-.1-.24,2.678,2.678,0,0,0,.028-.507c-.028-.074-.1-.222-.1-.222" transform="translate(-60.525 -28.489)" fill="#fff" fill-rule="evenodd"/>
      <path id="패스_792094" data-name="패스 792094" d="M454.766,2550.789s.211.268.349.262a.645.645,0,0,0,.238-.057.417.417,0,0,1,.234,0,.255.255,0,0,1,.12.206,1.131,1.131,0,0,0,.108.405c.075.166.365.758.536,1.038s.667.987.877,1.243.914,1.022,1.1,1.181,1.107.93,1.438,1.152a18.37,18.37,0,0,0,1.6.969c.479.241,1.072.519,1.226.577s.257.073.285.119a.514.514,0,0,0,.08.092l-.176.291-.155.246-.13-.062s.1-.081.062-.148a.4.4,0,0,0-.183-.2c-.108-.056-.576-.255-.782-.352s-1.106-.587-1.425-.792-1.107-.747-1.478-1.05a19.892,19.892,0,0,1-1.442-1.385,16,16,0,0,1-1-1.3c-.171-.261-.655-1.14-.758-1.374a1.554,1.554,0,0,0-.256-.479c-.1-.091-.125-.108-.166-.114l-.142-.018s-.029-.069-.081-.223c-.041-.12-.074-.239-.074-.239" transform="translate(-53.288 -32.807)" fill="#fff" fill-rule="evenodd"/>
      <path id="패스_792095" data-name="패스 792095" d="M457.817,2550.276a1.264,1.264,0,0,0,.349-.074c.153-.062.576-.183.747-.228s.371-.131.456-.155a.53.53,0,0,1,.2-.039c.052.011.081.039.136.119a1.794,1.794,0,0,0,.2.308.5.5,0,0,0,.359.155,1.583,1.583,0,0,0,.451-.091c.131-.057.377-.217.433-.246s.138-.091.166-.062.069.08.108.091a.248.248,0,0,1,.119.1c.023.04.377.564.571.8s.474.542.667.73.759.678.981.838.873.594,1.164.747.644.343.93.463.587.239.667.279a.779.779,0,0,1,.165.126c.058.046.091.1.069.16s-.325.53-.456.771-.37.621-.468.792-.353.588-.428.724-.269.45-.28.485-.062.029-.08,0,.069-.12.069-.233a.578.578,0,0,0-.131-.337,1.591,1.591,0,0,0-.353-.2c-.1-.046-.6-.285-.855-.416s-.758-.422-1.09-.639-.776-.513-1.061-.747-.69-.582-.94-.827a11.457,11.457,0,0,1-.93-1.05,11.131,11.131,0,0,1-.782-1.129c-.182-.325-.371-.73-.432-.8a.691.691,0,0,0-.286-.216,1.943,1.943,0,0,0-.262-.075c-.058,0-.159,0-.172-.051a.135.135,0,0,1,0-.075" transform="translate(-55.348 -32.123)" fill="#fff" fill-rule="evenodd"/>
      <path id="패스_792096" data-name="패스 792096" d="M439.705,2512.653s1.066-.005,1.38,0,1.221.006,1.318.006a1.918,1.918,0,0,1,.274.045l.1.012s.045.1.011.136a.961.961,0,0,0-.1.216c-.029.069-.006.144-.046.155s-.222.034-.222.034.029-.086-.022-.12a.578.578,0,0,0-.291-.074c-.11,0-.651.058-.822.074s-.656.081-.753.1a.562.562,0,0,1-.279-.028,2.83,2.83,0,0,1-.411-.194.428.428,0,0,0-.136-.086l-.109-.022.052-.137a.732.732,0,0,1,.063-.114" transform="translate(-43.025 -7.005)" fill="#fff" fill-rule="evenodd"/>
      <path id="패스_792097" data-name="패스 792097" d="M440.912,2515.657a1.188,1.188,0,0,1,.136-.183,3.384,3.384,0,0,1,.394-.131c.1-.029.588-.143.8-.194s.633-.126.826-.178a4.172,4.172,0,0,1,.434-.114.422.422,0,0,1,.216.075c.064.045.189.136.251.188s.125.137.108.182a.468.468,0,0,1-.08.126c-.033.046-.022.068-.033.12a.7.7,0,0,0-.013.136s-.169.052-.2.058-.074.017-.074.017.045-.12.011-.142a.659.659,0,0,0-.285-.126,2.516,2.516,0,0,0-.606.137c-.119.04-.57.16-.74.211a1.471,1.471,0,0,1-.463.114,1.12,1.12,0,0,1-.377-.125,1.971,1.971,0,0,1-.188-.1c-.04-.023-.125-.069-.125-.069" transform="translate(-43.918 -8.497)" fill="#fff" fill-rule="evenodd"/>
      <path id="패스_792098" data-name="패스 792098" d="M442.337,2518.962a.229.229,0,0,1,.064-.136,2.119,2.119,0,0,1,.256-.109c.069-.035.28-.1.5-.182s.639-.206.816-.257.56-.171.656-.211a.836.836,0,0,1,.314-.108,1.547,1.547,0,0,1,.382.085c.1.04.211.085.228.154a.339.339,0,0,1-.063.228.412.412,0,0,0-.063.154.685.685,0,0,0-.012.13.374.374,0,0,1-.137.07l-.119.027a.184.184,0,0,0-.039-.136.342.342,0,0,0-.291-.086c-.1.028-.468.177-.611.24s-.547.25-.685.308a.651.651,0,0,1-.377.086,1.414,1.414,0,0,1-.369-.086c-.108-.051-.251-.126-.3-.143a1.137,1.137,0,0,0-.149-.028" transform="translate(-44.882 -10.598)" fill="#fff" fill-rule="evenodd"/>
      <path id="패스_792099" data-name="패스 792099" d="M445.059,2521.909l.485-.234c.166-.08.792-.364.987-.456s.508-.245.577-.274a.765.765,0,0,1,.222-.086,1.784,1.784,0,0,1,.365.058c.1.022.247.039.28.1a.389.389,0,0,1,.034.234.7.7,0,0,0-.05.222c0,.052.022.177.022.177l-.147.08c-.075.04-.172.086-.172.086a.323.323,0,0,0-.086-.143.308.308,0,0,0-.274-.057c-.062.019-.433.234-.571.319s-.485.3-.541.337a.323.323,0,0,1-.28.1,1.075,1.075,0,0,1-.337-.08,2.6,2.6,0,0,1-.308-.2c-.044-.033-.216-.08-.216-.125s.011-.057.011-.057" transform="translate(-46.715 -12.559)" fill="#fff" fill-rule="evenodd"/>
      <path id="패스_792100" data-name="패스 792100" d="M447.847,2525.13s.491-.324.7-.45.724-.422.924-.531a3.135,3.135,0,0,1,.5-.269,4.529,4.529,0,0,1,.491-.011c.131,0,.222,0,.234.068a.62.62,0,0,1-.018.183c0,.057,0,.216,0,.216l-.987.776c-.159.125-.536.463-.558.469s-.149-.1-.3-.155a1.482,1.482,0,0,0-.3-.08,1.322,1.322,0,0,1-.256-.1.7.7,0,0,0-.194-.075.631.631,0,0,0-.211.041Z" transform="translate(-48.608 -14.594)" fill="#fff" fill-rule="evenodd"/>
      <path id="패스_792101" data-name="패스 792101" d="M451.525,2527.129s.245-.222.417-.371.695-.571.833-.685.485-.382.535-.421a.258.258,0,0,1,.171-.046c.063,0,.216-.045.285-.045s.188-.005.2.086a2.952,2.952,0,0,1,.052.336.381.381,0,0,0,.022.188.353.353,0,0,0,.045.063,1.419,1.419,0,0,1-.154.166c-.1.09-.394.37-.525.5s-.4.383-.5.485-.251.245-.251.245a.519.519,0,0,0-.126-.222.848.848,0,0,0-.422-.12c-.125-.005-.285-.126-.348-.143a.219.219,0,0,0-.136.022s-.08.023-.1-.034" transform="translate(-51.095 -15.739)" fill="#fff" fill-rule="evenodd"/>
      <path id="패스_792102" data-name="패스 792102" d="M455.365,2529.16l.673-.673c.131-.131.571-.541.674-.645a1.1,1.1,0,0,1,.3-.255c.114-.052.252-.12.313-.1s.109.108.138.2a.42.42,0,0,0,.273.269.93.93,0,0,0,.331.063c.075-.006.114-.012.114-.012l-.245.251c-.085.086-.336.33-.486.468s-.529.519-.638.622-.262.233-.262.233a.279.279,0,0,0-.08-.182.449.449,0,0,0-.37-.08.372.372,0,0,1-.28-.092c-.075-.062-.133-.126-.172-.131a.414.414,0,0,0-.155.052.619.619,0,0,1-.13.011" transform="translate(-53.692 -17.04)" fill="#fff" fill-rule="evenodd"/>
      <path id="패스_792103" data-name="패스 792103" d="M459.52,2531.13s.371-.348.553-.53.535-.525.689-.679.434-.417.434-.417a.256.256,0,0,0,.188.1c.133.011.258.035.354.041s.263.006.313-.046a.293.293,0,0,1,.12-.068s-.081.114-.177.24-.371.508-.525.742-.5.74-.559.837-.188.3-.227.36-.092.125-.092.125a.48.48,0,0,0-.08-.267c-.091-.161-.142-.166-.222-.19s-.108.012-.227-.05-.183-.183-.258-.2-.071-.028-.131,0a.157.157,0,0,1-.153.006" transform="translate(-56.502 -18.405)" fill="#fff" fill-rule="evenodd"/>
      <path id="패스_792104" data-name="패스 792104" d="M465.978,2530.42a1.464,1.464,0,0,0,.091.131c.045.057.109.12.1.166s-.216.457-.262.564-.194.593-.227.736a3.6,3.6,0,0,1-.133.462,1.7,1.7,0,0,0-.1.21l-.018.138a.757.757,0,0,1-.125.068l-.125.034v-.108c0-.046-.069-.131-.113-.211a.355.355,0,0,1-.035-.325c.052-.153.114-.336.172-.462s.1-.261.188-.473a3.207,3.207,0,0,1,.273-.536c.109-.16.16-.245.206-.308a.251.251,0,0,1,.108-.086" transform="translate(-60.212 -19.025)" fill="#fff" fill-rule="evenodd"/>
      <path id="패스_792105" data-name="패스 792105" d="M450.052,2512.806s.444-.022.769-.028a6.853,6.853,0,0,1,.953.034,5,5,0,0,0,.713.046c.136-.006.342-.023.674-.012s.924.03,1.318.086a6.149,6.149,0,0,1,1.071.246,3.193,3.193,0,0,1,1.1.582.91.91,0,0,1,.3.691,2.187,2.187,0,0,1-.228.764c-.091.177-.314.559-.353.626s-.383.389-.519.542-.582.633-.758.845-.313.38-.372.438a1.212,1.212,0,0,0-.136.166h-.057a.274.274,0,0,0,.052-.188.5.5,0,0,0-.178-.291c-.08-.047-.1-.058-.159-.042s-.1.042-.143.052-.074.017-.074.017.2-.222.291-.319.342-.326.427-.411a.447.447,0,0,1,.2-.137.6.6,0,0,0,.279.011.582.582,0,0,0,.286-.347.364.364,0,0,0-.136-.313.517.517,0,0,0-.291-.109.681.681,0,0,0-.269.069.4.4,0,0,1-.114.04s.006-.063.017-.16a.435.435,0,0,0-.092-.274.391.391,0,0,0-.279-.159c-.125-.017-.183.017-.228-.017s-.011-.108-.052-.2a.469.469,0,0,0-.222-.268.993.993,0,0,0-.28-.073c-.057,0-.057-.034-.057-.108a.66.66,0,0,0-.08-.349.792.792,0,0,0-.269-.166c-.08-.017-.136-.028-.136-.069a1.638,1.638,0,0,0,.051-.228.354.354,0,0,0-.125-.3c-.108-.075-.228-.114-.274-.189a.532.532,0,0,0-.147-.159.948.948,0,0,0-.189,0c-.069.006-.234.04-.354.058a.759.759,0,0,1-.246.028,1.2,1.2,0,0,0-.285-.069c-.092,0-.313.012-.462.028a2.8,2.8,0,0,1-.422.028.829.829,0,0,1-.3-.085,1.058,1.058,0,0,1-.182-.091.532.532,0,0,1-.086-.063.506.506,0,0,1,.017-.086.772.772,0,0,1,.04-.086" transform="translate(-50.061 -7.09)" fill="#fff" fill-rule="evenodd"/>
      <path id="패스_792106" data-name="패스 792106" d="M451.057,2515.063s.321-.135.542-.205.649-.177.837-.216a1.265,1.265,0,0,1,.4-.075.644.644,0,0,0,.218.017l.1-.011s.045.056.017.074-.033.039-.1.108a.6.6,0,0,1-.188.171c-.075.028-.247.068-.44.119s-.5.148-.61.178a.513.513,0,0,1-.307.028,2.688,2.688,0,0,1-.3-.064.126.126,0,0,0-.12.018.063.063,0,0,1-.063,0v-.079a.429.429,0,0,1,.006-.064" transform="translate(-50.774 -8.297)" fill="#fff" fill-rule="evenodd"/>
      <path id="패스_792107" data-name="패스 792107" d="M452.757,2517.287s.308-.166.565-.273.777-.3.885-.325a.5.5,0,0,1,.291-.029c.062.035.114.075.1.126a.534.534,0,0,1-.166.211c-.063.033-.427.233-.566.291a3.631,3.631,0,0,1-.529.222.789.789,0,0,1-.28-.045,1.308,1.308,0,0,0-.172-.052,1.092,1.092,0,0,0-.143,0,.162.162,0,0,0,.012-.057c0-.029,0-.069,0-.069" transform="translate(-51.916 -9.709)" fill="#fff" fill-rule="evenodd"/>
      <path id="패스_792108" data-name="패스 792108" d="M454.56,2519.712s.342-.2.457-.269.485-.245.643-.33a1.059,1.059,0,0,1,.423-.155c.091.006.171.046.183.091a.359.359,0,0,1-.041.217.793.793,0,0,1-.194.256c-.141.134-.245.2-.331.275a.935.935,0,0,1-.285.193c-.069.012-.177-.052-.234-.063a1.693,1.693,0,0,1-.268-.1.3.3,0,0,0-.16-.046c-.052.005-.2.04-.2.04Z" transform="translate(-53.143 -11.274)" fill="#fff" fill-rule="evenodd"/>
      <path id="패스_792109" data-name="패스 792109" d="M457.372,2521.8s.205-.188.348-.3.4-.291.529-.382a1.118,1.118,0,0,1,.262-.166.132.132,0,0,1,.109.04c.028.028.108.028.13.1s0,.125.024.165.079.029.09.063a.28.28,0,0,1,0,.1s-.285.222-.388.319a4.05,4.05,0,0,1-.308.279c-.039.024-.188-.062-.28-.1a1.73,1.73,0,0,0-.382-.108c-.08-.006-.136-.006-.136-.006" transform="translate(-55.049 -12.617)" fill="#fff" fill-rule="evenodd"/>
      <path id="패스_792110" data-name="패스 792110" d="M459.853,2523.417s.244-.228.365-.336.245-.223.335-.309.286-.222.286-.222.086.006.075.058.051.063.091.063a.8.8,0,0,1,.166-.011.092.092,0,0,1,.074.091c0,.063.005.119.029.125s.078-.006.085.018.012.062.012.062-.32.319-.456.446-.349.347-.377.382-.045.057-.045.057a.648.648,0,0,0-.16-.229.557.557,0,0,0-.268-.166.941.941,0,0,0-.211-.028" transform="translate(-56.727 -13.702)" fill="#fff" fill-rule="evenodd"/>
      <path id="패스_792111" data-name="패스 792111" d="M465.532,2525.646s.189-.234.355-.411l.4-.428a1.21,1.21,0,0,0,.114-.142,3.072,3.072,0,0,0-.132.372,2.946,2.946,0,0,0-.051.427,1.978,1.978,0,0,1-.063.324,1.356,1.356,0,0,0-.023.229s-.08.045-.136.073-.126.074-.126.074a.6.6,0,0,0-.079-.261.447.447,0,0,0-.154-.148.456.456,0,0,0-.148-.045Z" transform="translate(-60.537 -15.132)" fill="#fff" fill-rule="evenodd"/>
      <path id="패스_792112" data-name="패스 792112" d="M478.479,2504.292s.324-.119.529-.205,1.253-.447,1.575-.531c.394-.1,1.311-.324,1.865-.41a19.822,19.822,0,0,1,2.737-.206,20.589,20.589,0,0,1,2.208.125c.445.052,1.341.212,1.707.3s.974.245,1.317.359.878.3,1.084.388a3.374,3.374,0,0,1,.37.155c.033.033.04.086.147.137s.269.108.269.108a.51.51,0,0,1-.143.086c-.086.034-.194.091-.28.126a1.33,1.33,0,0,0-.171.085s0-.12-.045-.16a3.106,3.106,0,0,0-.582-.28c-.253-.095-.645-.234-1.022-.342s-1.049-.3-1.5-.382-.935-.165-1.374-.211-1.448-.125-1.973-.12-1.523.063-2.025.125-1.318.189-1.8.308-1.119.28-1.369.365a5.329,5.329,0,0,1-.65.216c-.1.006-.3-.022-.371-.022a.815.815,0,0,0-.177.011c-.039.011-.149.069-.194.046l-.136-.074" transform="translate(-69.327 -0.44)" fill="#fff" fill-rule="evenodd"/>
      <path id="패스_792113" data-name="패스 792113" d="M491.621,2512.548s-.119-.125-.183-.194-.091-.382-.166-.553a3.333,3.333,0,0,0-.5-.7,5.441,5.441,0,0,0-1.059-.855,9.409,9.409,0,0,0-1.763-.912,11.433,11.433,0,0,0-1.8-.576,15.056,15.056,0,0,0-2.772-.371,15.978,15.978,0,0,0-2.583.131,12.64,12.64,0,0,0-2.282.508,8.871,8.871,0,0,0-1.248.485c-.251.119-.856.421-1.078.571s-.576.393-.793.53-.258.249-.388.216a.344.344,0,0,1-.24-.216s.16-.194.315-.348.518-.462.746-.651.674-.57.747-.638.274-.308.274-.308.063.136.178.1a.873.873,0,0,0,.405-.341,1.555,1.555,0,0,0,.25-.9c-.045-.33-.091-.571-.182-.633a.971.971,0,0,0-.359-.182,1.015,1.015,0,0,1-.211-.017.67.67,0,0,1-.137-.092s.274-.1.393-.154.656-.245,1.016-.342.741-.194,1.2-.285,1.129-.2,1.665-.251,1.232-.1,1.643-.1,1.362.057,1.75.1,1.141.143,1.592.246,1.295.307,1.665.438a9.107,9.107,0,0,1,.861.313.519.519,0,0,0,.165.126.936.936,0,0,1,.137.075,2.821,2.821,0,0,0-.308.416,1.506,1.506,0,0,0,.652,1.841c.752.558,2.125,1.41,2.364,2.684a5.277,5.277,0,0,1,.041.83" transform="translate(-66.814 -2.155)" fill="#fff" fill-rule="evenodd"/>
      <path id="패스_792114" data-name="패스 792114" d="M521.333,2511.948a2.788,2.788,0,0,0-.513-1.181c-.2-.293-.33-.595-.558-.979a4.814,4.814,0,0,0-1.274-1.053,1.677,1.677,0,0,1-.716-1.091c0-.183-.092-.459-.312-.335a.794.794,0,0,1,.236-.277,3.528,3.528,0,0,1,.951-.547c.359-.131,1.221-.365,1.574-.445s1.352-.244,1.763-.28,1.129-.068,1.472-.068c.371,0,1.083.036,1.614.091.558.057,1.323.172,1.825.2s1.363.051,1.74.04,1.066-.04,1.443-.046,1.751-.052,2.207-.08,1.694-.1,2.156-.125,1.876-.052,2.281-.052,2.156.08,2.6.1,1.54.085,1.945.108.986.045,1.324.063,1.334-.011,1.551-.011.975-.006,1.391-.022,1.523-.1,1.928-.137,1.443-.142,1.773-.167a6.406,6.406,0,0,1,.8-.051.755.755,0,0,1,.354.183c.045.051.239.262.382.416a2.263,2.263,0,0,1,.308.382c.023.057.115.182.1.228s-.035.132-.086.161-.284.13-.284.13a.188.188,0,0,0-.092-.142.5.5,0,0,0-.32-.044c-.1.033-.433.176-.627.262a3.484,3.484,0,0,1-.661.251c-.147.016-.729.04-1.117.044s-1.524.012-2.014.03-2.15.028-2.5.034-1.871.022-2.356.022-1.842.028-2.281.024-2.384.029-2.812.022-1.643.007-1.967.012-.764.022-1.187.051-1.016.092-1.185.1a1.6,1.6,0,0,1-.48-.045.535.535,0,0,0-.137-.045c-.05-.006-.194-.028-.194-.028l-.033-.075s.188-.034.341-.068.285-.1.559-.161.963-.188,1.307-.245,1.888-.33,2.333-.388,1.6-.188,2.007-.216,1.558-.12,1.963-.142,1.317-.063,1.545-.058,1.009.022,1.317.04.474.018.474.018l.057-.2s-.325-.017-.6-.034-.98-.028-1.22-.028-1.107,0-1.437.022-.781-.036-1.158-.051c-.456-.017-1.488-.006-1.911.029s-1.614.147-1.99.194-1.67.233-2.264.343-1.517.29-1.951.371-.987.194-1.482.245-1.5.069-1.865.063-1.443-.029-1.985-.023-1.453.006-1.985.069a6.746,6.746,0,0,0-1.255.258,2.864,2.864,0,0,0-.74.33c-.189.136-.275.285-.269.336a.288.288,0,0,0,.022.085l.143.046s-.136.108-.216.177a.742.742,0,0,0-.194.364,5.359,5.359,0,0,0-.079.6.571.571,0,0,0,.023.3c.044.108.261.5.347.662s.313.53.376.638.182.263.268.394a2.4,2.4,0,0,1,.251.547,2.635,2.635,0,0,1,.018.4v.742a.52.52,0,0,1-.035.245c-.022.028-.091.085-.1.149s-.044.2-.062.28-.075.227-.075.227-.091-.183-.1-.205a1.94,1.94,0,0,0,.023-.388,12.979,12.979,0,0,1-.421-1.6" transform="translate(-96.048 -2.239)" fill="#fff" fill-rule="evenodd"/>
      <path id="패스_792115" data-name="패스 792115" d="M527.732,2513.779a1.117,1.117,0,0,1,.325-.3,3.383,3.383,0,0,1,.747-.349,9.58,9.58,0,0,1,1.3-.261c.342-.03,1.261-.035,1.562-.041s.88.011,1.073.005.467,0,.673,0,.6-.005.724-.005a3.461,3.461,0,0,1,.434.005c.068.017.194.04.211.092a.167.167,0,0,1,0,.153.284.284,0,0,0-.029.154v.053a.943.943,0,0,0-.081.05c-.039.029-.227.137-.227.137a.3.3,0,0,0-.034-.114.349.349,0,0,0-.222-.155c-.08-.016-.37-.033-.5-.039s-.427-.011-.547-.023-.177-.029-.234-.029a.223.223,0,0,0-.148.041c-.046.034-.063.068-.091.073a.743.743,0,0,1-.109-.006c-.022,0-.062.033.012.1a.738.738,0,0,0,.41.142c.143.024.342.057.491.086s.348.063.479.092a2.662,2.662,0,0,0,.3.039c.046.005.126.04.121.086a.473.473,0,0,1-.035.125.327.327,0,0,0-.011.149.088.088,0,0,1-.039.091c-.035.023-.177.074-.212.092a.215.215,0,0,1-.1.011s.017-.091,0-.114a.361.361,0,0,0-.177-.108c-.109-.034-.394-.109-.531-.137s-.371-.091-.524-.119-.258-.075-.3-.035-.057.075-.086.08-.075-.016-.1.011-.069.064-.041.1a.647.647,0,0,0,.234.133c.1.034.439.131.588.177s.405.148.541.177.28.073.309.148a.168.168,0,0,1-.029.193.3.3,0,0,0-.075.137c-.011.029-.028.1-.028.1s-.131.085-.158.1l-.126.052a.157.157,0,0,0,.005-.155c-.04-.1-.154-.153-.3-.228s-.451-.182-.565-.222-.484-.188-.57-.217a.559.559,0,0,0-.262-.045c-.081.017-.121.063-.1.1s.085.058.085.1,0,.085-.023.1a.18.18,0,0,0-.028.017,3.008,3.008,0,0,0,.326.193c.131.064.456.236.542.28s.353.172.416.217.194.12.171.183-.045.166-.057.2.012.063-.045.086-.269.08-.269.08a.333.333,0,0,0-.017-.08c-.011-.029-.051-.08-.165-.147s-.519-.309-.622-.36a3.464,3.464,0,0,1-.416-.24,2.757,2.757,0,0,0-.252-.2c-.05-.028-.154-.079-.222-.011s-.08.166-.046.205.11.109.11.109-.069.051-.058.08a2.377,2.377,0,0,0,.33.256c.137.1.5.344.588.405s.285.183.349.24.079.108.033.159a.326.326,0,0,0-.062.1s0,.069,0,.1a.238.238,0,0,1-.011.063.2.2,0,0,1-.1.04c-.073.011-.181.017-.181.017a.13.13,0,0,1-.017-.086c.005-.052-.043-.086-.121-.153-.1-.086-.371-.275-.507-.372a5.694,5.694,0,0,1-.468-.342c-.063-.069-.178-.234-.239-.286s-.148-.108-.222-.08-.155.086-.166.155-.023.119.022.154.108.075.108.1-.074.04-.057.08a3.77,3.77,0,0,0,.365.308c.108.091.479.383.57.463a1.358,1.358,0,0,1,.286.308.41.41,0,0,1-.017.25c-.029.04-.108.056-.183.069s-.172.023-.172.023.035-.086.017-.12a2.971,2.971,0,0,0-.3-.234c-.119-.1-.478-.4-.615-.513a1.3,1.3,0,0,1-.319-.349c-.047-.1-.126-.227-.24-.227a.348.348,0,0,0-.3.108c-.068.091-.068.189-.016.228s.141.1.113.113l-.1.064a1.941,1.941,0,0,1,.246.183c.16.136.434.359.536.456s.313.3.354.33a.317.317,0,0,1,.091.211.6.6,0,0,1-.04.211c-.022.04.007.068-.051.1a.542.542,0,0,1-.2.029.252.252,0,0,1-.075-.012s.1-.074.092-.109a.948.948,0,0,0-.206-.222c-.08-.069-.467-.4-.611-.53a1.775,1.775,0,0,1-.393-.461,1.58,1.58,0,0,0-.12-.388c-.073-.1-.238-.228-.313-.337a7.5,7.5,0,0,1-.433-.718,2.221,2.221,0,0,1-.262-.61,2.259,2.259,0,0,0-.041-.382c-.034-.063-.114-.16-.154-.16s-.172-.017-.172-.017" transform="translate(-102.633 -7.121)" fill="#fff" fill-rule="evenodd"/>
      <path id="패스_792116" data-name="패스 792116" d="M530.568,2524.542s.313.36.393.427a2.77,2.77,0,0,0,.3.2,2.233,2.233,0,0,1,.3.285c.052.063.177.183.171.256a.8.8,0,0,1-.108.319.356.356,0,0,1-.171.11.91.91,0,0,1-.159-.013s.125-.033.125-.085-.022-.1-.114-.188a1.8,1.8,0,0,1-.223-.256,3.12,3.12,0,0,1-.176-.269l-.069.022-.068.006s-.024-.217-.052-.336-.068-.225-.084-.28c-.024-.073-.058-.2-.058-.2" transform="translate(-104.548 -15.05)" fill="#fff" fill-rule="evenodd"/>
      <path id="패스_792117" data-name="패스 792117" d="M530.462,2531.3a1.811,1.811,0,0,0,.091-.263c.011-.073.052-.206.058-.239l.017-.091s.147.194.194.25.2.177.256.257.314.41.422.559.416.558.472.638.229.325.217.394a.831.831,0,0,1-.057.222c-.034.069-.069.142-.1.149s-.2.011-.2.011a.245.245,0,0,0,.045-.1.378.378,0,0,0-.176-.216,2.11,2.11,0,0,1-.348-.217c-.046-.052-.186-.422-.25-.553a5.318,5.318,0,0,0-.3-.541c-.086-.12-.142-.245-.177-.256s-.017.017-.069.022a.14.14,0,0,1-.091-.022" transform="translate(-104.477 -19.217)" fill="#fff" fill-rule="evenodd"/>
      <path id="패스_792118" data-name="패스 792118" d="M531.272,2529.735a1.366,1.366,0,0,0,.33.073,1.345,1.345,0,0,0,.24-.005.5.5,0,0,1,.2-.132.4.4,0,0,1,.348.074c.114.086.685.656.77.736s.457.438.571.546a2.23,2.23,0,0,1,.331.366c.033.074.05.137.022.177a.456.456,0,0,0-.086.12.815.815,0,0,1-.058.2.174.174,0,0,1-.147.075,1.311,1.311,0,0,1-.16-.011s.091-.052.091-.108a.207.207,0,0,0-.108-.178c-.08-.045-.165-.091-.286-.154a1.051,1.051,0,0,1-.3-.245c-.086-.1-.285-.365-.382-.473s-.331-.41-.439-.513a.782.782,0,0,0-.354-.228,1.181,1.181,0,0,0-.2-.035c-.029,0-.086.092-.075.114s-.056-.034-.113-.108-.194-.291-.194-.291" transform="translate(-105.025 -18.51)" fill="#fff" fill-rule="evenodd"/>
      <path id="패스_792119" data-name="패스 792119" d="M534.616,2528.45a.388.388,0,0,0,.022-.1c.006-.058.017-.131.047-.125a1.085,1.085,0,0,0,.268.073c.1,0,.109-.016.109-.016a.26.26,0,0,1,.17-.109,1.133,1.133,0,0,1,.2-.028.442.442,0,0,1,.223.04,4.815,4.815,0,0,1,.6.439c.131.1.662.519.81.638s.32.234.366.28.194.188.159.251a1.1,1.1,0,0,0-.126.205c-.016.069-.022.166-.033.2s-.092.058-.131.052-.155-.011-.155-.011a.268.268,0,0,0,.081-.091c.016-.047-.017-.1-.081-.144a1.818,1.818,0,0,0-.285-.17,3.006,3.006,0,0,1-.45-.331c-.148-.119-.536-.479-.622-.558a3.239,3.239,0,0,0-.422-.336,2.964,2.964,0,0,0-.342-.08l-.183-.041s-.05.074-.073.074c-.046,0-.04-.005-.04-.005s0,0-.034-.034a1.043,1.043,0,0,1-.08-.08" transform="translate(-107.287 -17.488)" fill="#fff" fill-rule="evenodd"/>
      <path id="패스_792120" data-name="패스 792120" d="M537.555,2526.328l.006-.1a.523.523,0,0,1,.17-.028.771.771,0,0,0,.3-.036.7.7,0,0,0,.183-.073c.073-.045.108-.057.183-.1s.056-.108.1-.114a.585.585,0,0,1,.222,0c.04.023.331.257.5.359s.69.422.884.542.484.279.582.364.161.132.154.212-.068.136-.1.2a1.507,1.507,0,0,0-.052.171c-.022.052-.04.1-.04.1l-.239.052a.156.156,0,0,0,.052-.119.264.264,0,0,0-.155-.183,2.184,2.184,0,0,0-.353-.1,2.155,2.155,0,0,1-.433-.269c-.12-.091-.422-.324-.565-.421a5.225,5.225,0,0,0-.449-.309,1.417,1.417,0,0,0-.4-.091c-.109-.006-.239.006-.261,0s-.058.12-.1.08a.707.707,0,0,0-.12-.08c-.056-.034-.063-.052-.063-.052" transform="translate(-109.274 -15.941)" fill="#fff" fill-rule="evenodd"/>
      <path id="패스_792121" data-name="패스 792121" d="M541.975,2523.874s.154-.011.188-.08a1.25,1.25,0,0,0,.033-.286c.012-.069.006-.108.035-.114s.1.045.176.052a.617.617,0,0,1,.286.062c.12.064.633.331.9.445s.8.394.969.457a1.434,1.434,0,0,1,.48.24.222.222,0,0,1,.016.228c-.045.074-.08.114-.062.166s.063.113.022.142a1.183,1.183,0,0,1-.2.057.429.429,0,0,1-.131.023.109.109,0,0,0,.045-.1.239.239,0,0,0-.188-.177c-.12-.028-.257-.034-.366-.062a1.41,1.41,0,0,1-.371-.171c-.166-.1-.5-.3-.679-.388s-.5-.262-.616-.336a.936.936,0,0,0-.211-.126.359.359,0,0,0-.171-.011.556.556,0,0,1-.16-.017" transform="translate(-112.263 -14.273)" fill="#fff" fill-rule="evenodd"/>
      <path id="패스_792122" data-name="패스 792122" d="M544.933,2521.268a1.484,1.484,0,0,0,.044-.194c.018-.1,0-.155.029-.166s.092.017.165.011a.364.364,0,0,1,.2.019c.052.028.3.125.428.17s.776.279.993.36l.781.285a1.336,1.336,0,0,1,.348.136.311.311,0,0,1,.114.251c-.005.114.017.148-.028.2s-.058.069-.062.1.039.1.011.132-.075.04-.177.056-.154.028-.154.028.085-.091.005-.165a.647.647,0,0,0-.291-.187c-.183-.069-.474-.189-.605-.24s-.7-.308-.855-.365a6.333,6.333,0,0,1-.6-.245.574.574,0,0,1-.194-.131c-.034-.046-.154-.062-.154-.062" transform="translate(-114.264 -12.591)" fill="#fff" fill-rule="evenodd"/>
      <path id="패스_792123" data-name="패스 792123" d="M547.112,2518.489s-.011-.279.028-.291.155.023.205.017a1.065,1.065,0,0,1,.326.029c.131.034.856.217,1.14.279s.666.155.907.194.4.041.45.126a.792.792,0,0,1,.041.365c-.006.1.022.3,0,.331a.778.778,0,0,1-.222.114c-.085.033-.12.051-.12.051a.2.2,0,0,0-.017-.176,1.07,1.07,0,0,0-.427-.206c-.148-.04-.576-.182-.81-.251s-.622-.2-.752-.234a1.471,1.471,0,0,1-.376-.131c-.092-.056-.189-.159-.228-.183a.6.6,0,0,0-.148-.034" transform="translate(-115.736 -10.758)" fill="#fff" fill-rule="evenodd"/>
      <path id="패스_792124" data-name="패스 792124" d="M548.722,2515.407l-.005-.108s.13-.125.166-.125a1.478,1.478,0,0,1,.268-.006c.142.012.752.085.993.125s.879.125,1.06.148.463,0,.553.029c.154.039.131.177.143.273a1.33,1.33,0,0,1,.016.285.614.614,0,0,1-.188.189,2.107,2.107,0,0,1-.233.148c-.052.028.016-.119-.04-.177a.569.569,0,0,0-.269-.108c-.143-.028-.371-.081-.508-.109s-.662-.13-.873-.17a2.9,2.9,0,0,1-.593-.132c-.143-.069-.234-.183-.313-.217a.747.747,0,0,0-.178-.045" transform="translate(-116.823 -8.707)" fill="#fff" fill-rule="evenodd"/>
      <path id="패스_792125" data-name="패스 792125" d="M549.938,2512.34a.946.946,0,0,1-.039-.144.23.23,0,0,1,.011-.056,2.19,2.19,0,0,0,.393-.017c.159-.03.633-.1.935-.149s.873-.147,1.061-.183a1.366,1.366,0,0,1,.5-.039.256.256,0,0,1,.148.194c.012.08.075.257.1.331s.081.189.069.223a1,1,0,0,1-.177.217c-.068.063-.234.222-.234.222a.347.347,0,0,0-.028-.211.538.538,0,0,0-.285-.217,4.791,4.791,0,0,0-.856-.073c-.188,0-.649.011-.866,0a1.527,1.527,0,0,1-.508-.085.544.544,0,0,0-.1-.04.115.115,0,0,0-.114.024" transform="translate(-117.621 -6.389)" fill="#fff" fill-rule="evenodd"/>
      <path id="패스_792126" data-name="패스 792126" d="M559.526,2513.962s.222-.24.28-.308.113-.155.152-.166a1.653,1.653,0,0,0,.28-.023,10.95,10.95,0,0,1,1.1-.041c.206-.005,1.624-.005,1.933-.005s2.316-.028,2.648-.023,1.785,0,2.155-.011,2.162,0,2.59-.017,2.657-.028,3.029-.04,2.092-.039,2.406-.045.935-.016,1.129-.027a3.613,3.613,0,0,1,.445-.024c.074.011.086.086.108.133s.132.393.183.546a2.282,2.282,0,0,1,.1.457c0,.1.04.217.017.24a1.657,1.657,0,0,1-.269.154c-.039.011-.091.022-.091.022a.145.145,0,0,0,.011-.125.4.4,0,0,0-.222-.153.693.693,0,0,0-.33.068,7.975,7.975,0,0,1-.828.234,3.221,3.221,0,0,1-.77.1c-.416.011-1.38,0-1.79-.011s-1.632-.052-2.208-.081l-2.5-.126c-.5-.022-2.025-.113-2.388-.136s-2.15-.13-2.522-.159-2.236-.143-2.538-.171-.952-.075-1.152-.086a4.157,4.157,0,0,1-.582-.062c-.1-.029-.1-.069-.183-.086a1.383,1.383,0,0,0-.188-.022" transform="translate(-124.146 -7.395)" fill="#fff" fill-rule="evenodd"/>
      <path id="패스_792127" data-name="패스 792127" d="M557.182,2518.555s.264-.161.377-.251.246-.175.275-.257a.418.418,0,0,0,.028-.125s.8.023.987.041,1.067.074,1.3.091,1.653.119,2.1.147,2.441.166,2.84.189,1.991.12,2.384.144,1.916.1,2.413.119,2.23.069,2.527.075,1.265.017,1.437.005.381-.028.5-.028.244.011.25.131a3.9,3.9,0,0,1-.068.787,1.532,1.532,0,0,1-.251.513,1.406,1.406,0,0,1-.216.144s.051-.108.017-.172a.33.33,0,0,0-.239-.149c-.086.005-.594.132-.844.16a8.385,8.385,0,0,1-.982.068c-.313,0-1.038-.034-1.4-.062s-1.357-.1-1.853-.153-1.848-.2-2.475-.274-1.894-.234-2.338-.291-1.895-.252-2.283-.308-1.426-.194-1.711-.241-1.181-.177-1.437-.211-.417-.068-.531-.068-.2-.011-.348,0a1.8,1.8,0,0,1-.194.011,1.458,1.458,0,0,1-.155-.011.3.3,0,0,1-.1-.022" transform="translate(-122.562 -10.573)" fill="#fff" fill-rule="evenodd"/>
      <path id="패스_792128" data-name="패스 792128" d="M555.072,2522.532a3.469,3.469,0,0,0,.336-.125c.12-.058.314-.108.371-.205s.069-.12.063-.183a.672.672,0,0,0-.022-.12s.376.023.524.034.862.12,1.084.149,1.312.2,1.609.24,2.31.319,2.7.371,2.116.273,2.435.308,2.258.251,2.561.279,1.392.131,1.767.159,1.182.075,1.529.08a4.692,4.692,0,0,1,.69.023c.092.029.161.091.143.155s-.091.61-.125.718a2.014,2.014,0,0,1-.143.394.561.561,0,0,1-.177.206,1.147,1.147,0,0,1-.119.057s.063-.12.028-.189a.435.435,0,0,0-.234-.194,5.363,5.363,0,0,0-.547.074c-.188.029-.535.069-.771.086s-.529.039-.678.033-.427-.033-.673-.068-1.146-.159-1.466-.212-1.368-.233-1.807-.313-2-.394-2.3-.463-1.46-.319-1.751-.388-1.557-.365-1.848-.438-1.1-.263-1.318-.314-.661-.16-.781-.183a.916.916,0,0,0-.36-.029c-.1.029-.314.092-.382.115a.261.261,0,0,1-.183.017.315.315,0,0,1-.16-.075" transform="translate(-121.135 -13.263)" fill="#fff" fill-rule="evenodd"/>
      <path id="패스_792129" data-name="패스 792129" d="M552.038,2525.871a2.6,2.6,0,0,0,.308-.033c.1-.023.342-.075.451-.108s.148-.053.16-.109-.012-.211.006-.274.045-.137.045-.137.234.052.331.058a5.628,5.628,0,0,1,.564.108c.138.034,1.7.427,1.945.491s2.031.5,2.338.56,1.762.382,2.088.449,2.486.468,2.846.525,1.59.25,1.882.28.713.073.8.1.165.057.147.16a2.688,2.688,0,0,1-.211.564,2.721,2.721,0,0,1-.3.52,1.853,1.853,0,0,1-.28.3c-.08.052-.108.068-.108.068a.282.282,0,0,0,.051-.171.309.309,0,0,0-.223-.177c-.1-.016-.325-.005-.547-.005a11.674,11.674,0,0,1-1.443-.115c-.569-.085-1.443-.227-2.03-.365s-1.427-.336-2.026-.508-1.584-.45-2.207-.66-1.419-.474-1.767-.6-1.369-.485-1.529-.547a1.312,1.312,0,0,0-.388-.1c-.119-.011-.268.017-.394,0a2.364,2.364,0,0,1-.347-.08c-.069-.022-.119-.039-.149-.092a.145.145,0,0,1-.017-.1" transform="translate(-119.083 -15.501)" fill="#fff" fill-rule="evenodd"/>
      <path id="패스_792130" data-name="패스 792130" d="M548.346,2529.714s.383-.091.577-.165a1.382,1.382,0,0,1,.56-.137,4.3,4.3,0,0,1,.8.233c.222.086,1.015.365,1.227.446s2.024.691,2.315.782,1.866.559,2.2.65,1.848.48,2.208.553.951.183,1.135.218.353.079.369.165a.548.548,0,0,1-.028.291c-.033.069-.091.291-.142.428a1.5,1.5,0,0,1-.193.394.553.553,0,0,1-.24.114.168.168,0,0,0,.075-.144.21.21,0,0,0-.109-.17.35.35,0,0,0-.2-.091c-.1-.006-.348.022-.542.033s-.861.011-1.123.011-.525.017-.719-.005a4.758,4.758,0,0,1-.735-.148c-.3-.085-1.049-.36-1.382-.49s-1.317-.571-1.579-.69-1.243-.606-1.568-.771-.787-.395-1.038-.531-.793-.434-.935-.5a1.819,1.819,0,0,0-.417-.143,1.934,1.934,0,0,1-.341-.114,1.651,1.651,0,0,0-.177-.057Z" transform="translate(-116.566 -18.343)" fill="#fff" fill-rule="evenodd"/>
      <path id="패스_792131" data-name="패스 792131" d="M544.487,2532.573s.4-.091.508-.13a1.089,1.089,0,0,1,.411-.074,3.611,3.611,0,0,1,.559.256c.176.1.958.514,1.209.645s1.283.661,1.517.775.993.491,1.265.611,1.221.541,1.49.65c.247.1.644.246.872.326s.519.165.655.205.377.1.394.165a.371.371,0,0,1-.028.251c-.045.1-.154.4-.206.5a1.679,1.679,0,0,1-.21.354c-.075.068-.109.1-.155.114s-.051.005-.051.005.085-.1.085-.142a.376.376,0,0,0-.12-.222.482.482,0,0,0-.234-.092c-.074,0-.308,0-.53-.022s-.588-.069-.855-.125a3.2,3.2,0,0,1-.674-.183c-.222-.1-.713-.354-.97-.5s-1.072-.65-1.329-.822-1.414-1-1.592-1.123-.6-.433-.77-.565a4.854,4.854,0,0,0-.513-.37c-.1-.046-.383-.149-.481-.189s-.2-.074-.233-.137a.347.347,0,0,1-.017-.154" transform="translate(-113.964 -20.341)" fill="#fff" fill-rule="evenodd"/>
      <path id="패스_792132" data-name="패스 792132" d="M540.553,2535.131a1.736,1.736,0,0,0,.319-.011,3.029,3.029,0,0,1,.366-.081.641.641,0,0,1,.3.028,3.624,3.624,0,0,1,.554.337c.148.12.77.6.964.741s1.129.8,1.317.935,1.038.7,1.266.833.65.394.855.513a4.482,4.482,0,0,1,.5.3c.063.064.142.125.08.269a5.18,5.18,0,0,1-.291.5,1.314,1.314,0,0,1-.233.238.509.509,0,0,1-.092.058s.1-.108.079-.183a.364.364,0,0,0-.176-.245,2.648,2.648,0,0,0-.513-.126c-.171-.039-.805-.194-1.049-.261a1.847,1.847,0,0,1-.605-.24c-.154-.114-.558-.49-.752-.668s-.606-.564-.839-.776-.713-.661-.883-.826-.639-.577-.72-.667-.272-.274-.33-.331-.1-.052-.136-.109a.209.209,0,0,1-.006-.165c.012-.023.034-.062.034-.062" transform="translate(-111.271 -22.146)" fill="#fff" fill-rule="evenodd"/>
      <path id="패스_792133" data-name="패스 792133" d="M536.234,2537.589l.051-.172a.347.347,0,0,0,.017-.091,2.2,2.2,0,0,0,.359-.011,1.611,1.611,0,0,1,.382-.052.271.271,0,0,1,.269.177,2.487,2.487,0,0,0,.416.5c.143.136.833.775,1.044.976s.877.832,1.113,1.043.551.49.637.576.286.28.332.337a.248.248,0,0,1-.018.256,1.88,1.88,0,0,1-.239.337,2.932,2.932,0,0,1-.251.194s.063-.125.046-.183a.494.494,0,0,0-.234-.205c-.092-.033-.483-.137-.656-.187a3.221,3.221,0,0,1-.65-.28c-.1-.08-.553-.621-.656-.747s-.5-.638-.632-.816-.44-.6-.606-.808-.421-.548-.49-.617a1.19,1.19,0,0,0-.142-.147.844.844,0,0,1-.092-.075" transform="translate(-108.382 -23.653)" fill="#fff" fill-rule="evenodd"/>
      <path id="패스_792134" data-name="패스 792134" d="M531.923,2538.836s.25.033.393.033.275-.016.337,0a.283.283,0,0,1,.205.08.992.992,0,0,1,.125.279c.029.075.485.718.56.821s.4.536.542.725.53.684.643.833.344.38.4.466.205.3.227.342-.033.108-.068.153a1.763,1.763,0,0,1-.172.194,1,1,0,0,1-.2.155c-.028.011.011-.08.017-.132s-.028-.116-.114-.182a1.756,1.756,0,0,0-.422-.211c-.132-.052-.407-.134-.593-.212a.883.883,0,0,1-.342-.205,5.6,5.6,0,0,1-.388-.645c-.109-.194-.428-.793-.508-.952a1.1,1.1,0,0,1-.131-.354,4.429,4.429,0,0,0-.052-.542.974.974,0,0,0-.2-.3.627.627,0,0,0-.114-.075,1.128,1.128,0,0,0-.126-.045s-.011-.125-.011-.153a.309.309,0,0,0-.011-.069" transform="translate(-105.466 -24.717)" fill="#fff" fill-rule="evenodd"/>
      <path id="패스_792135" data-name="패스 792135" d="M531.326,2544.627s.159.269.216.36a5.075,5.075,0,0,1,.28.433c.075.149.3.525.366.65a.742.742,0,0,1,.131.371,1.008,1.008,0,0,1-.153.347c-.035.063-.04.132-.121.194a.527.527,0,0,1-.205.085.315.315,0,0,0,.086-.153.436.436,0,0,0-.1-.234.778.778,0,0,0-.233-.194c-.1-.051-.309-.159-.331-.222a.322.322,0,0,1,.022-.257.771.771,0,0,0,.029-.462.761.761,0,0,0-.075-.218.209.209,0,0,0-.074-.074s.079-.291.1-.365Z" transform="translate(-104.953 -28.633)" fill="#fff" fill-rule="evenodd"/>
      <path id="패스_792136" data-name="패스 792136" d="M512.929,2554.718s.382-.142.559-.222.519-.227.741-.331.844-.445,1.107-.609a8.871,8.871,0,0,0,.873-.627c.275-.228.713-.633.89-.8a8.644,8.644,0,0,0,.719-.844c.125-.183.342-.525.342-.525l.479.24a2.4,2.4,0,0,0,.576.222,1.544,1.544,0,0,0,.393.028.346.346,0,0,0,.286-.131,1.449,1.449,0,0,0,.2-.337c.034-.085.086-.2.086-.2s.183.085.3.126l.552.194a2.394,2.394,0,0,1,.451.154c.086.063.109.108.1.171a1.408,1.408,0,0,1-.125.33c-.058.115-.274.571-.36.725s-.433.718-.61.969a12.843,12.843,0,0,1-.953,1.158,4.184,4.184,0,0,1-.621.541c-.154.08-.4.126-.564.228l-.867.542c-.227.143-.553.337-.787.457s-.816.41-.993.5-.417.188-.53.24a.683.683,0,0,1-.3.09.242.242,0,0,1-.194-.143c-.039-.073-.319-.553-.422-.741s-.494-.856-.57-.975a.491.491,0,0,0-.292-.257.6.6,0,0,0-.21-.062.47.47,0,0,1-.178-.017.156.156,0,0,1-.085-.086" transform="translate(-92.623 -32.663)" fill="#fff" fill-rule="evenodd"/>
      <path id="패스_792137" data-name="패스 792137" d="M508.9,2563.907s.313-.08.468-.13.325-.114.433-.137.154-.028.211.029a.717.717,0,0,1,.137.244c.028.08.349.633.455.822s.412.713.5.877.416.69.485.805.148.268.2.359.149.3.189.387.075.154.045.228-.217.411-.256.5-.217.4-.217.4a1.914,1.914,0,0,0-.062-.383.5.5,0,0,0-.188-.267c-.092-.063-.269-.1-.337-.154a.618.618,0,0,1-.216-.268c-.086-.171-.316-.79-.394-.987-.086-.216-.37-.935-.468-1.175a5.789,5.789,0,0,0-.331-.747.853.853,0,0,0-.33-.246,1.277,1.277,0,0,0-.171-.017c-.024,0-.1.012-.1.012Z" transform="translate(-89.893 -41.483)" fill="#fff" fill-rule="evenodd"/>
      <path id="패스_792138" data-name="패스 792138" d="M525.385,2550.976a.534.534,0,0,0,.21-.023,2,2,0,0,0,.343-.262,1.973,1.973,0,0,0,.274-.308.418.418,0,0,1,.056-.085s.058.016.058.056a5.237,5.237,0,0,1-.149.513c-.033.1-.152.417-.233.588s-.336.667-.428.832-.507.822-.678,1.056-.69.872-.849,1.05-.794.792-.947.941-1.271.884-1.487,1.015-.93.548-1.1.639-.667.33-.837.416a6.7,6.7,0,0,1-.725.32,1.059,1.059,0,0,1-.33-.011,1.176,1.176,0,0,0-.177-.013c-.035,0-.161.018-.161.018l-.051-.085s.416-.166.627-.268,1.118-.526,1.374-.674.793-.45,1.066-.633.93-.661,1.17-.873.924-.878,1.043-1.027.668-.656.793-.787a4.442,4.442,0,0,0,.5-.56,11.321,11.321,0,0,0,.6-1.009c.073-.172.158-.309.141-.382s-.022-.143-.044-.154-.149-.047-.149-.047l.052-.153.028-.091" transform="translate(-96.171 -32.474)" fill="#fff" fill-rule="evenodd"/>
      <path id="패스_792139" data-name="패스 792139" d="M505.075,2564.793a.8.8,0,0,0,.251-.035,3.878,3.878,0,0,1,.508-.166c.114-.011.285-.011.313.034a2.4,2.4,0,0,1,.12.3c.052.143.388,1,.468,1.227s.456,1.135.525,1.323.244.605.268.691a1.46,1.46,0,0,1,.086.382,2.434,2.434,0,0,1-.235.4c-.079.12-.359.5-.359.5a.487.487,0,0,1,.012-.194.3.3,0,0,0,.04-.194.7.7,0,0,0-.166-.28c-.086-.069-.246-.125-.332-.2a.525.525,0,0,1-.187-.355c-.064-.25-.223-.923-.273-1.123s-.258-1.146-.308-1.335a2.088,2.088,0,0,0-.172-.535.814.814,0,0,0-.291-.246.824.824,0,0,0-.159-.005c-.023,0-.064.005-.064.005Z" transform="translate(-87.309 -42.134)" fill="#fff" fill-rule="evenodd"/>
      <path id="패스_792140" data-name="패스 792140" d="M501.416,2565.308a3.1,3.1,0,0,0,.308-.044,2.184,2.184,0,0,1,.457-.075c.136,0,.268.034.291.119s.056.331.074.44.263,1.157.291,1.311.314,1.283.342,1.449.125.56.119.651a.828.828,0,0,1-.011.2,3.452,3.452,0,0,1-.273.335c-.086.086-.388.469-.388.469s-.028-.108.012-.161.125-.125.114-.211a.685.685,0,0,0-.165-.313c-.075-.069-.239-.154-.314-.234a.46.46,0,0,1-.131-.331c-.017-.188-.092-1.181-.114-1.505s-.092-1.232-.114-1.369a.625.625,0,0,0-.136-.359.608.608,0,0,0-.24-.155.743.743,0,0,0-.114-.023Z" transform="translate(-84.834 -42.541)" fill="#fff" fill-rule="evenodd"/>
      <path id="패스_792141" data-name="패스 792141" d="M497.6,2565.485a1.75,1.75,0,0,0,.28-.012,1.9,1.9,0,0,1,.432-.04c.16.006.332.045.343.131s.017.365.022.535.075,1.055.08,1.2.081,1.129.1,1.368.051.7.045.793-.005.206-.005.206-.262.274-.347.348-.394.336-.394.336a.863.863,0,0,1,.091-.187c.045-.057.086-.149.052-.205a2.838,2.838,0,0,0-.342-.361.5.5,0,0,1-.183-.3c-.011-.119.046-.912.081-1.243s.079-1.078.1-1.334a2.275,2.275,0,0,0,.012-.674.63.63,0,0,0-.2-.274.8.8,0,0,0-.172-.052Z" transform="translate(-82.25 -42.706)" fill="#fff" fill-rule="evenodd"/>
      <path id="패스_792142" data-name="패스 792142" d="M492.987,2565.314s.166,0,.246-.006a1.784,1.784,0,0,1,.285-.017,1.155,1.155,0,0,1,.331.033.208.208,0,0,1,.16.246c-.012.159-.052.725-.068.884s-.114,1.312-.114,1.42-.035.611-.046.776c-.008.127-.057.439-.069.559s-.074.319-.074.343a.215.215,0,0,1-.017.061,2.567,2.567,0,0,1-.285.206c-.075.034-.075-.04-.12-.085s-.108-.051-.217-.1a1.1,1.1,0,0,1-.348-.324.477.477,0,0,1-.052-.416c.046-.188.205-.839.258-1.073s.205-.883.256-1.113a5.788,5.788,0,0,0,.143-.713.433.433,0,0,0-.108-.308.339.339,0,0,0-.126-.092c-.045-.017-.092-.029-.092-.029Z" transform="translate(-78.855 -42.61)" fill="#fff" fill-rule="evenodd"/>
      <path id="패스_792143" data-name="패스 792143" d="M488.005,2564.73s.167.018.246.018a1.484,1.484,0,0,1,.37.016c.155.035.337.064.36.132a.413.413,0,0,1,.017.291c-.04.147-.308,1.26-.353,1.449s-.251,1.071-.286,1.22-.148.656-.183.77-.1.331-.114.354a1.092,1.092,0,0,1-.217.125c-.039.017-.1.045-.1.045s.063-.091.041-.148a.189.189,0,0,0-.172-.119c-.085,0-.182.068-.25.045a.4.4,0,0,1-.256-.257.453.453,0,0,1-.058-.359c.029-.143.383-.986.457-1.187s.394-1.027.474-1.226a2.5,2.5,0,0,0,.183-.541.534.534,0,0,0-.108-.251.175.175,0,0,0-.121-.058c-.022.006-.051-.017-.051-.017Z" transform="translate(-75.111 -42.231)" fill="#fff" fill-rule="evenodd"/>
      <path id="패스_792144" data-name="패스 792144" d="M482.929,2563.708a.884.884,0,0,0,.24.04,1.265,1.265,0,0,1,.382.035.652.652,0,0,1,.349.222c.028.075-.041.216-.12.394s-.45,1.163-.536,1.375-.463,1.157-.513,1.29-.217.529-.269.632-.091.2-.091.2l-.211.064s.057-.086.022-.137-.141-.16-.205-.165a.563.563,0,0,0-.222.04c-.091.034-.2.034-.239-.04a2.876,2.876,0,0,1-.166-.337.273.273,0,0,1,.006-.233c.056-.108.427-.792.507-.919s.513-.855.61-1.032.337-.582.383-.673.074-.166.041-.234-.036-.1-.075-.121a.608.608,0,0,0-.108-.028Z" transform="translate(-71.248 -41.54)" fill="#fff" fill-rule="evenodd"/>
      <path id="패스_792145" data-name="패스 792145" d="M494.1,2546.009H494c-1.248,0-2.662-.349-2.662-2.36s1.39-2.417,2.709-2.429c1.259.011,2.6.473,2.6,2.429a2.245,2.245,0,0,1-2.547,2.36" transform="translate(-78.021 -26.33)" fill="#231815" fill-rule="evenodd"/>
      <path id="패스_792146" data-name="패스 792146" d="M477.249,2532.173c-5.955,0-10.458-3.67-10.458-7.837s4.5-7.838,10.458-7.838,10.458,3.67,10.458,7.838-4.5,7.837-10.458,7.837" transform="translate(-61.426 -9.614)" fill="#fff" fill-rule="evenodd"/>
      <path id="패스_792147" data-name="패스 792147" d="M493.988,2525.184c1.44.012,2.411.6,2.411,2.191,0,1.666-1.015,2.2-2.411,2.211-1.333-.008-2.412-.485-2.412-2.211a2.136,2.136,0,0,1,2.412-2.191" transform="translate(-78.181 -15.485)" fill="#231815" fill-rule="evenodd"/>
      <path id="패스_792148" data-name="패스 792148" d="M490.243,2527.873c1.434-.814,1.729-1.637,1.62-2.6-.2-1.743-2.583-2.988-5.744-2.95-3.806.044-6.109,1.951-6.109,2.449s.754.625.754.894v5.243c.008.326-.709.688-.709,1.049s2.452,2.182,6.506,2.159c3.564-.02,5.611-1.514,5.63-3.3a3.265,3.265,0,0,0-1.949-2.917Z" transform="translate(-70.362 -13.551)" fill="#231815" fill-rule="evenodd"/>
      <path id="패스_792149" data-name="패스 792149" d="M477.979,2517.62c6.02,0,10.115,3.751,10.115,7.487s-4.095,7.488-10.115,7.488-10.112-3.75-10.112-7.488,4.093-7.487,10.112-7.487" transform="translate(-62.153 -10.365)" fill="#231815" fill-rule="evenodd"/>
      <path id="패스_792150" data-name="패스 792150" d="M486.17,2523.247c1.44.012,2.41.6,2.41,2.19,0,1.666-1.014,2.2-2.41,2.211-1.333-.008-2.412-.485-2.412-2.211a2.136,2.136,0,0,1,2.412-2.19m4.074,4.625c1.434-.813,1.729-1.637,1.62-2.6-.2-1.743-2.584-2.987-5.745-2.95-3.805.045-6.108,1.952-6.108,2.449s.754.626.754.894v5.244c.008.325-.709.688-.709,1.048,0,.375,2.452,2.182,6.506,2.159,3.564-.019,5.611-1.514,5.63-3.3a3.267,3.267,0,0,0-1.949-2.917Zm-3.8,5.359h-.1c-1.248,0-2.662-.349-2.662-2.36s1.39-2.416,2.709-2.429c1.259.011,2.6.473,2.6,2.429a2.245,2.245,0,0,1-2.547,2.36" transform="translate(-70.362 -13.549)" fill="#fff" fill-rule="evenodd"/>
    </g>
  </g>
</svg>
