<svg xmlns="http://www.w3.org/2000/svg" width="100" height="100" viewBox="0 0 100 100">
  <g id="car_logo_mg" transform="translate(-219 -155)">
    <g id="W_100_H_100" data-name="W 100 H 100" transform="translate(219 155)" fill="#f9f9f9" stroke="#f0f0f0" stroke-width="1" opacity="0">
      <rect width="100" height="100" stroke="none"/>
      <rect x="0.5" y="0.5" width="99" height="99" fill="none"/>
    </g>
    <g id="mg" transform="translate(-191.095 -1394.937)">
      <path id="패스_789295" data-name="패스 789295" d="M473.816,1573.313H449.38l-15.909,15.909v24.245l15.782,15.845h24.309l15.909-15.909v-24.309l-15.655-15.782Zm10.818,37.927L471.4,1624.476H451.544L438.307,1611.3v-19.918l13.236-13.173h20.109l12.982,13.046v19.981Z" transform="translate(-1.376 -1.376)" fill="#231815" fill-rule="evenodd"/>
      <path id="패스_789296" data-name="패스 789296" d="M461.922,1607.772l-3.375-6.871-5.031,4.708v16.859l4.84,4.9v-16.413l4.2,9.352,4.776-12.469v26.147h5.349v-39.824h-5.668l-5.095,13.614Z" transform="translate(-13.705 -14.197)" fill="#231815" fill-rule="evenodd"/>
      <path id="패스_789297" data-name="패스 789297" d="M513.032,1594.158v39.824h6.113l11.59-11.515v-8.4H521.82v4.835h3.311c.891-.127.955.891.318,1.654s-7.069,7.061-7.069,7.061h0v-27.1l7.514,7.825v1.908h4.84V1605.8l-11.463-11.642Z" transform="translate(-50.353 -14.197)" fill="#231815" fill-rule="evenodd"/>
    </g>
  </g>
</svg>
