<svg xmlns="http://www.w3.org/2000/svg" xmlns:xlink="http://www.w3.org/1999/xlink" width="100" height="100"><defs><linearGradient id="a" y1=".5" x2="2.225" y2=".5" gradientUnits="objectBoundingBox"><stop offset="0" stop-color="#adaeb0"/><stop offset=".105" stop-color="#a4a5a7"/><stop offset=".274" stop-color="#8c8d90"/><stop offset=".486" stop-color="#65676b"/><stop offset=".5" stop-color="#636569"/><stop offset=".617" stop-color="#848689"/><stop offset=".788" stop-color="#b0b0b3"/><stop offset=".922" stop-color="#cbcbcd"/><stop offset="1" stop-color="#d5d5d7"/></linearGradient><linearGradient id="b" x1="-1.233" y1=".5" x2=".992" y2=".5" xlink:href="#a"/><linearGradient id="c" y1=".5" x2=".994" y2=".5" gradientUnits="objectBoundingBox"><stop offset="0" stop-color="#636569"/><stop offset=".085" stop-color="#909194"/><stop offset=".174" stop-color="#b7b8ba"/><stop offset=".261" stop-color="#d6d7d8"/><stop offset=".346" stop-color="#ededed"/><stop offset=".427" stop-color="#fafafa"/><stop offset=".5" stop-color="#fff"/><stop offset=".569" stop-color="#f9fafa"/><stop offset=".651" stop-color="#ebebec"/><stop offset=".74" stop-color="#d3d3d5"/><stop offset=".833" stop-color="#b1b2b4"/><stop offset=".929" stop-color="#87888b"/><stop offset="1" stop-color="#636569"/></linearGradient><linearGradient id="d" x1=".008" y1=".512" x2=".991" y2=".488" gradientUnits="objectBoundingBox"><stop offset="0" stop-color="#ededee"/><stop offset=".006" stop-color="#e8e8e9"/><stop offset=".071" stop-color="#b8b9bb"/><stop offset=".133" stop-color="#939497"/><stop offset=".191" stop-color="#787a7e"/><stop offset=".242" stop-color="#686a6e"/><stop offset=".281" stop-color="#636569"/><stop offset=".387" stop-color="#6a6c70"/><stop offset=".55" stop-color="#808285"/><stop offset=".59" stop-color="#87898c"/><stop offset="1" stop-color="#636569"/></linearGradient></defs><path data-name="패스 791866" d="M50.003 38.539c7.154 0 24.426 14.872 26.591 16.761a.86.86 0 00.724.247c.539-.058.556-.887.556-.887s.127-1.888.127-3.789a7.808 7.808 0 00-1.863-4.5s-19.36-21.373-26.134-21.373-26.137 21.373-26.137 21.373a7.8 7.8 0 00-1.866 4.5c0 1.9.128 3.789.128 3.789s.016.83.555.887a.857.857 0 00.725-.247c2.166-1.889 19.439-16.761 26.594-16.761z" fill="#2d2a26"/><path data-name="패스 791867" d="M50.003 57.982c7.154 0 24.426 14.872 26.591 16.761a.858.858 0 00.724.251c.539-.062.556-.891.556-.891s.127-1.886.127-3.791a7.774 7.774 0 00-1.863-4.489s-19.36-21.38-26.134-21.38-26.137 21.38-26.137 21.38a7.769 7.769 0 00-1.866 4.489c0 1.9.128 3.791.128 3.791s.016.829.555.891a.855.855 0 00.725-.251c2.166-1.89 19.439-16.761 26.594-16.761z" fill="#2d2a26"/><path data-name="패스 791868" d="M127.756 3643.67a103.306 103.306 0 00-8.006 7.349c-.059 1.3.11 4.126.112 4.146 0 0 .017 1.017.745.364l.725-.644c7.826-7.158 15.863-13.424 22.3-16.213.461-.2 1.213-.334.822-.824-.215-.275-.981-.307-1.465-.279-6.674.383-14.929 5.886-15.232 6.1z" transform="translate(-97.375 -3600.613)" fill="url(#a)"/><path data-name="패스 791869" d="M218.291 3643.67a104.25 104.25 0 018.008 7.349c.058 1.3-.113 4.126-.114 4.146 0 0-.018 1.017-.746.364l-.727-.644c-7.825-7.158-15.863-13.424-22.3-16.213-.456-.2-1.208-.334-.82-.824.219-.275.984-.307 1.466-.279 6.676.383 14.927 5.886 15.233 6.1z" transform="translate(-148.668 -3600.613)" fill="url(#b)"/><path data-name="패스 791870" d="M127.756 3696.22a104.512 104.512 0 00-8.006 7.349c-.059 1.3.11 4.128.112 4.146 0 0 .017 1.021.745.366l.725-.644c7.826-7.159 15.863-13.425 22.3-16.213.461-.2 1.213-.33.822-.826-.215-.271-.981-.3-1.465-.276-6.674.381-14.929 5.882-15.232 6.1z" transform="translate(-97.375 -3633.636)" fill="url(#a)"/><path data-name="패스 791871" d="M218.291 3696.22a105.478 105.478 0 018.008 7.349c.058 1.3-.113 4.128-.114 4.146 0 0-.018 1.021-.746.366l-.727-.644c-7.825-7.159-15.863-13.425-22.3-16.213-.456-.2-1.208-.33-.82-.826.219-.271.984-.3 1.466-.276 6.676.381 14.927 5.882 15.233 6.1z" transform="translate(-148.668 -3633.636)" fill="url(#b)"/><path data-name="패스 791872" d="M173.265 3627.612c-.231-.262-19.329-21.262-25.866-21.262s-25.634 21-25.872 21.262a7.732 7.732 0 00-1.756 3.878 103.143 103.143 0 017.986-7.349s1.183-.991 2.957-2.334c3.937-2.974 10.885-7.621 16.684-7.621s12.742 4.647 16.679 7.621c1.781 1.344 2.963 2.335 2.962 2.334a104.08 104.08 0 017.987 7.349 7.724 7.724 0 00-1.761-3.878z" transform="translate(-97.396 -3580.999)" fill="url(#c)"/><path data-name="패스 791873" d="M173.265 3680.161c-.231-.255-19.329-21.258-25.866-21.258s-25.634 21-25.872 21.258a7.754 7.754 0 00-1.756 3.879 104.529 104.529 0 017.986-7.349s1.183-.99 2.957-2.332c3.937-2.97 10.885-7.617 16.684-7.617s12.742 4.647 16.679 7.617c1.781 1.342 2.963 2.334 2.962 2.332a105.491 105.491 0 017.987 7.349 7.746 7.746 0 00-1.761-3.879z" transform="translate(-97.396 -3614.108)" fill="url(#c)"/><path data-name="패스 791874" d="M219.863 3629.991c-10.745-12.323-22.469-21.8-25.823-21.967a.455.455 0 00-.491.454c-.005 4.049.234 4.763 3.023 5.851.387.148 10.835 3.285 23.283 16l.18.18z" transform="translate(-143.702 -3582.046)" fill="url(#d)"/><path data-name="패스 791875" d="M219.863 3682.542c-10.745-12.322-22.469-21.794-25.823-21.963a.453.453 0 00-.491.452c-.005 4.05.234 4.765 3.023 5.849.387.15 10.835 3.285 23.283 16l.18.177z" transform="translate(-143.702 -3615.156)" fill="url(#d)"/></svg>