<svg xmlns="http://www.w3.org/2000/svg" width="100" height="100" viewBox="0 0 100 100">
  <g id="car_logo_buick" transform="translate(-225 -160)">
    <g id="W_100_H_100" data-name="W 100 H 100" transform="translate(225 160)" fill="#f9f9f9" stroke="#f0f0f0" stroke-width="1" opacity="0">
      <rect width="100" height="100" stroke="none"/>
      <rect x="0.5" y="0.5" width="99" height="99" fill="none"/>
    </g>
    <g id="buick" transform="translate(-1097.115 -2276.113)">
      <path id="패스_791926" data-name="패스 791926" d="M1372.115,2516.112a28,28,0,1,0-28-28,28,28,0,0,0,28,28Z" transform="translate(0)" fill="#231815" fill-rule="evenodd"/>
      <path id="패스_791927" data-name="패스 791927" d="M1376.684,2518.111a25.43,25.43,0,1,0-25.431-25.43,25.431,25.431,0,0,0,25.431,25.43Z" transform="translate(-4.568 -4.569)" fill="#fff" fill-rule="evenodd"/>
      <path id="패스_791928" data-name="패스 791928" d="M1395.467,2489.938v3.866H1384.2v3.866h-11.265V2511.4c0,5.745,3.87,11.422,6.448,15.49,2.179-3.438,5.325-8.024,6.249-12.829a57.435,57.435,0,0,0,5.017,8.963c2.179-3.437,5.325-8.024,6.249-12.829a57.451,57.451,0,0,0,5.017,8.964c2.578-4.068,6.513-9.745,6.513-15.49v-13.735Z" transform="translate(-18.445 -17.089)" fill="#231815" fill-rule="evenodd"/>
      <path id="패스_791929" data-name="패스 791929" d="M1382.2,2540.26c1.747-2.921,4.367-7.138,4.367-11.263v-12.664h-8.674V2529c0,4.125,2.56,8.342,4.307,11.263Z" transform="translate(-21.08 -34.636)" fill="#fff" fill-rule="evenodd"/>
      <path id="패스_791930" data-name="패스 791930" d="M1387.216,2530.806a13.527,13.527,0,0,0,.042-2.28v-10.779h-7.449l7.407,13.059Z" transform="translate(-22.292 -35.873)" fill="#231815" fill-rule="evenodd"/>
      <path id="패스_791931" data-name="패스 791931" d="M1385.9,2543.871a31.171,31.171,0,0,1-2.8,5.552c-2.331-3.8-3.79-7.21-3.787-10.815V2532.4l6.582,11.472Z" transform="translate(-21.997 -44.856)" fill="#231815" fill-rule="evenodd"/>
      <path id="패스_791932" data-name="패스 791932" d="M1411.728,2529.521c1.747-2.921,4.367-7.138,4.367-11.263v-12.664h-8.674v12.664c0,4.125,2.56,8.342,4.307,11.263Z" transform="translate(-39.51 -28.02)" fill="#fff" fill-rule="evenodd"/>
      <path id="패스_791933" data-name="패스 791933" d="M1416.746,2520.069a13.529,13.529,0,0,0,.042-2.28V2507.01h-7.449l7.407,13.059Z" transform="translate(-40.734 -29.19)" fill="#231815" fill-rule="evenodd"/>
      <path id="패스_791934" data-name="패스 791934" d="M1415.433,2533.133a31.172,31.172,0,0,1-2.8,5.552c-2.331-3.8-3.79-7.21-3.786-10.815v-6.209l6.582,11.472Z" transform="translate(-40.448 -38.193)" fill="#231815" fill-rule="evenodd"/>
      <path id="패스_791935" data-name="패스 791935" d="M1441.258,2518.784c1.747-2.921,4.367-7.138,4.367-11.263v-12.664h-8.674v12.664c0,4.125,2.56,8.342,4.307,11.263Z" transform="translate(-57.94 -21.405)" fill="#fff" fill-rule="evenodd"/>
      <path id="패스_791936" data-name="패스 791936" d="M1446.276,2509.33a13.477,13.477,0,0,0,.042-2.28v-10.779h-7.449l7.407,13.059Z" transform="translate(-59.176 -22.506)" fill="#231815" fill-rule="evenodd"/>
      <path id="패스_791937" data-name="패스 791937" d="M1444.962,2522.4a31.178,31.178,0,0,1-2.795,5.552c-2.331-3.8-3.79-7.211-3.787-10.815v-6.209l6.582,11.472Z" transform="translate(-58.898 -31.53)" fill="#231815" fill-rule="evenodd"/>
      <path id="패스_791938" data-name="패스 791938" d="M1478.886,2587.969a1.975,1.975,0,1,1,1.98,1.98,1.975,1.975,0,0,1-1.98-1.98Z" transform="translate(-84.253 -78.568)" fill="#231815" fill-rule="evenodd"/>
      <path id="패스_791939" data-name="패스 791939" d="M1483.03,2588.392a1.734,1.734,0,1,0-1.732,1.742,1.732,1.732,0,0,0,1.732-1.742Z" transform="translate(-84.686 -78.991)" fill="#fff" fill-rule="evenodd"/>
      <path id="패스_791940" data-name="패스 791940" d="M1484.063,2590.619h-.32l-.631-1.018h-.5v1.018h-.269v-2.207h.962a1.02,1.02,0,0,1,.538.108.542.542,0,0,1,.248.476c0,.434-.3.594-.7.6l.667,1.018Z" transform="translate(-86.468 -80.112)" fill="#231815" fill-rule="evenodd"/>
      <path id="패스_791941" data-name="패스 791941" d="M1483.507,2589.739c.31,0,.791.052.791-.4,0-.341-.3-.382-.574-.382h-.631v.781Z" transform="translate(-86.946 -80.461)" fill="#fff" fill-rule="evenodd"/>
    </g>
  </g>
</svg>
