<svg xmlns="http://www.w3.org/2000/svg" width="100" height="100"><defs><clipPath id="a"><path data-name="사각형 299587" fill="none" d="M0 0h66v33.243H0z"/></clipPath></defs><g data-name="그룹 390832" transform="translate(17 33)" clip-path="url(#a)" fill="#231815"><path data-name="패스 789249" d="M52.855 19.704l-.919-.005-.552 1.678h.876a2.847 2.847 0 00.591-.105.85.85 0 00.421-.261 1.236 1.236 0 00.291-.475.746.746 0 000-.617c-.091-.142-.325-.216-.706-.219"/><path data-name="패스 789250" d="M39.881 14.19a2.012 2.012 0 00.976-.177 1.906 1.906 0 00.642-.624 6.758 6.758 0 00.677-1.445 3.341 3.341 0 00.3-1.819c-.111-.33-.428-.489-.959-.492h-.5l-1.631 4.557z"/><path data-name="패스 789251" d="M21.631 19.525l-.911-.005-.556 1.678h.872a2.892 2.892 0 00.591-.106.892.892 0 00.427-.261 1.3 1.3 0 00.29-.475.753.753 0 000-.617c-.1-.142-.333-.217-.714-.219"/><path data-name="패스 789252" d="M25.737 9.81l-1.791 3 1.449.008z"/><path data-name="패스 789253" d="M33.087 1.839C15.876 1.741 1.796 8.303 1.75 16.446S15.707 31.31 32.918 31.408s31.293-6.464 31.34-14.605S50.299 1.938 33.087 1.839m14.1 10.826l.594-1.727 5.687-.06-1.147 1.752-5.628 2.63 3.01-2.672zm-4.5-4.923a2.36 2.36 0 011.339.316 1.467 1.467 0 01.586.876 3.469 3.469 0 01.047 1.35 8.1 8.1 0 01-.42 1.617 9.5 9.5 0 01-.977 2.072 5.734 5.734 0 01-1.12 1.23 3.344 3.344 0 01-1.157.662 4.561 4.561 0 01-1.286.219l-3.021-.017 2.985-8.34zm-17.254-.1l2.215.012-.509 8.355-2.131-.006.169-1.378-2.319-.022-.816 1.379-2.077-.012zm-8.543-.049l2.031.012-2.247 6.284 3.169.018-.731 2.057-5.207-.03zM15.5 22.479l-5.687.065 1.146-1.752 5.63-2.633-3.005 2.677 2.511-.079zm9-2.312a3.741 3.741 0 01-.634 1.189 3.4 3.4 0 01-.928.8 2.847 2.847 0 01-.836.32 1.455 1.455 0 01.441.307 1.741 1.741 0 01.189.439 2.5 2.5 0 01.119.518l.21 2.4-2.346-.013-.273-2.53a1.393 1.393 0 00-.17-.638.55.55 0 00-.441-.2h-.189l-1.112 3.363-2.092-.012 2.744-8.27 3.475.02a3.445 3.445 0 011.4.214 1.019 1.019 0 01.571.755 2.417 2.417 0 01-.129 1.337m7.806 1.823a8.048 8.048 0 01-1.186 2.382 5.341 5.341 0 01-1.624 1.443 4.2 4.2 0 01-2.045.5 2.92 2.92 0 01-1.739-.455 2.089 2.089 0 01-.74-1.422 5.241 5.241 0 01.333-2.415 7.025 7.025 0 011.967-3.148 4.3 4.3 0 012.931-1.111 2.232 2.232 0 012.222 1.119 4.2 4.2 0 01-.118 3.108m.468-5.947l-.823-4.593-1.637 4.579-1.907-.011 2.982-8.34 1.9.011.824 4.627 1.645-4.613 1.916.011-2.982 8.34zm1.361 10.17l.2-8.285 2.18.013-.465 5.957 3.472-5.94 2.116.012-5.246 8.256zm12.554-3.437l-3.236-.019-.541 1.625 3.592.021-.618 1.877-5.682-.033 2.746-8.27 5.576.032-.584 1.768-3.487-.02-.438 1.311 3.241.019zm9.034-2.43a3.684 3.684 0 01-.634 1.189 3.352 3.352 0 01-.927.8 2.844 2.844 0 01-.835.32 1.454 1.454 0 01.441.307 1.93 1.93 0 01.189.439 2.528 2.528 0 01.119.518l.214 2.4-2.357-.013-.278-2.539a1.34 1.34 0 00-.162-.638.562.562 0 00-.449-.2h-.181l-1.121 3.374-2.088-.012 2.745-8.27 3.465.02a3.48 3.48 0 011.414.214 1.013 1.013 0 01.571.756 2.5 2.5 0 01-.131 1.336"/><path data-name="패스 789254" d="M29.556 19.696a1.685 1.685 0 00-1.192.545 4.509 4.509 0 00-.984 1.809 3.1 3.1 0 00-.217 1.8.822.822 0 00.849.556 1.688 1.688 0 001.222-.536 4.914 4.914 0 001-1.921 2.731 2.731 0 00.183-1.7.833.833 0 00-.862-.548"/><path data-name="패스 789255" d="M33.1 0C14.922-.1.052 7.286 0 16.436s14.731 16.7 32.908 16.8S65.948 25.967 66 16.814 51.276.1 33.1 0m-.184 32.275C15.139 32.175.686 25.061.735 16.441S15.318.875 33.093.977s32.231 7.212 32.181 15.832-14.587 15.569-32.36 15.467"/></g></svg>