<svg xmlns="http://www.w3.org/2000/svg" xmlns:xlink="http://www.w3.org/1999/xlink" width="100" height="100" viewBox="0 0 100 100">
  <defs>
    <clipPath id="clip-path">
      <rect id="사각형_299588" data-name="사각형 299588" width="66" height="41.035" transform="translate(0 0)" fill="none"/>
    </clipPath>
  </defs>
  <g id="car_logo_toyota" transform="translate(-219 -155)">
    <g id="W_100_H_100" data-name="W 100 H 100" transform="translate(219 155)" fill="#f9f9f9" stroke="#f0f0f0" stroke-width="1" opacity="0">
      <rect width="100" height="100" stroke="none"/>
      <rect x="0.5" y="0.5" width="99" height="99" fill="none"/>
    </g>
    <g id="toyota" transform="translate(236 185)">
      <g id="그룹_390833" data-name="그룹 390833" transform="translate(0 0)" clip-path="url(#clip-path)">
        <path id="패스_789256" data-name="패스 789256" d="M33,0C14.775,0,0,9.188,0,20.518S15.367,41.1,33,41.036A51.512,51.512,0,0,0,44.735,39.66C57.133,36.691,66,29.244,66,20.518,66,9.188,51.229,0,33,0M47.617,5.087c2.767,1.081,4.4,2.6,4.4,4.184,0,2.559-4.261,4.792-10.476,5.874C40.439,8.319,37.649,3.27,34.2,2.477a39.25,39.25,0,0,1,13.415,2.61M33.194,7.756c2.2,0,4.049,3.248,4.813,7.848A49.77,49.77,0,0,1,33,15.822c-1.6,0-3.15-.069-4.641-.21.767-4.6,2.639-7.856,4.834-7.856M18.089,5.208A36.9,36.9,0,0,1,32.277,2.463c-3.439.821-6.37,5.856-7.46,12.7C18.435,14.1,13.988,11.869,13.988,9.271c0-1.535,1.533-2.948,4.1-4.063M4.789,20.6a13.288,13.288,0,0,1,3.224-8.445c2.867,4.037,9.159,6.9,16.381,8.164-.013.4-.038.761-.038,1.075,0,7.58,2.057,14.093,5.025,17.178-13.8-1.211-24.592-8.8-24.592-17.972M33.194,32.641c-2.79,0-5.077-5.232-5.208-11.829A49.942,49.942,0,0,0,33,21.055a49.787,49.787,0,0,0,5.381-.3c-.119,6.622-2.389,11.886-5.188,11.886m11.195,4.55a39.711,39.711,0,0,1-7.293,1.35c2.966-3.078,4.932-9.578,4.932-17.145a6.1,6.1,0,0,0-.065-1.159c6.888-1.267,12.829-3.973,16.109-7.88A12.847,12.847,0,0,1,61.215,20.6c0,7.407-6.919,13.78-16.825,16.589" transform="translate(0 -0.001)" fill="#e50012"/>
      </g>
    </g>
  </g>
</svg>
