<svg xmlns="http://www.w3.org/2000/svg" xmlns:xlink="http://www.w3.org/1999/xlink" width="100" height="100" viewBox="0 0 100 100">
  <defs>
    <clipPath id="clip-path">
      <rect id="사각형_299587" data-name="사각형 299587" width="66" height="33.243" fill="none"/>
    </clipPath>
  </defs>
  <g id="car_logo_landrover" transform="translate(-219 -155)">
    <g id="W_100_H_100" data-name="W 100 H 100" transform="translate(219 155)" fill="#f9f9f9" stroke="#f0f0f0" stroke-width="1" opacity="0">
      <rect width="100" height="100" stroke="none"/>
      <rect x="0.5" y="0.5" width="99" height="99" fill="none"/>
    </g>
    <g id="landrover" transform="translate(236 188)">
      <g id="그룹_390832" data-name="그룹 390832" transform="translate(0 0)" clip-path="url(#clip-path)">
        <path id="패스_789249" data-name="패스 789249" d="M133.823,50.743l-.919-.005-.552,1.678.876,0a2.847,2.847,0,0,0,.591-.105.85.85,0,0,0,.421-.261,1.236,1.236,0,0,0,.291-.475.746.746,0,0,0,0-.617c-.091-.142-.325-.216-.706-.219" transform="translate(-80.968 -31.039)" fill="#231815"/>
        <path id="패스_789250" data-name="패스 789250" d="M101.943,29.363a2.012,2.012,0,0,0,.976-.177,1.906,1.906,0,0,0,.642-.624,6.758,6.758,0,0,0,.677-1.445,3.341,3.341,0,0,0,.3-1.819c-.111-.33-.428-.489-.959-.492l-.5,0-1.631,4.557Z" transform="translate(-62.062 -15.173)" fill="#231815"/>
        <path id="패스_789251" data-name="패스 789251" d="M53.405,50.284l-.911-.005-.556,1.678.872,0a2.892,2.892,0,0,0,.591-.106.892.892,0,0,0,.427-.261,1.3,1.3,0,0,0,.29-.475.753.753,0,0,0,0-.617c-.1-.142-.333-.217-.714-.219" transform="translate(-31.774 -30.759)" fill="#231815"/>
        <path id="패스_789252" data-name="패스 789252" d="M63.469,25.268l-1.791,3,1.449.008Z" transform="translate(-37.732 -15.458)" fill="#231815"/>
        <path id="패스_789253" data-name="패스 789253" d="M35.845,4.736C18.634,4.638,4.554,11.2,4.508,19.343S18.465,34.207,35.676,34.305,66.969,27.841,67.016,19.7,53.057,4.835,35.845,4.736m14.1,10.826.594-1.727,5.687-.06-1.147,1.752-5.628,2.63,3.01-2.672Zm-4.5-4.923a2.36,2.36,0,0,1,1.339.316,1.467,1.467,0,0,1,.586.876,3.469,3.469,0,0,1,.047,1.35,8.1,8.1,0,0,1-.42,1.617,9.5,9.5,0,0,1-.977,2.072A5.734,5.734,0,0,1,44.9,18.1a3.344,3.344,0,0,1-1.157.662,4.561,4.561,0,0,1-1.286.219l-3.021-.017,2.985-8.34Zm-17.254-.1,2.215.012-.509,8.355L27.766,18.9l.169-1.378L25.616,17.5,24.8,18.879l-2.077-.012Zm-8.543-.049,2.031.012-2.247,6.284,3.169.018-.731,2.057-5.207-.03ZM18.258,25.376l-5.687.065,1.146-1.752,5.63-2.633-3.005,2.677,2.511-.079Zm9-2.312a3.741,3.741,0,0,1-.634,1.189,3.4,3.4,0,0,1-.928.8,2.847,2.847,0,0,1-.836.32,1.455,1.455,0,0,1,.441.307,1.741,1.741,0,0,1,.189.439,2.5,2.5,0,0,1,.119.518l.21,2.4-2.346-.013L23.2,26.494a1.393,1.393,0,0,0-.17-.638.55.55,0,0,0-.441-.2H22.4l-1.112,3.363-2.092-.012,2.744-8.27,3.475.02a3.445,3.445,0,0,1,1.4.214,1.019,1.019,0,0,1,.571.755,2.417,2.417,0,0,1-.129,1.337m7.806,1.823a8.048,8.048,0,0,1-1.186,2.382,5.341,5.341,0,0,1-1.624,1.443,4.2,4.2,0,0,1-2.045.5,2.92,2.92,0,0,1-1.739-.455,2.089,2.089,0,0,1-.74-1.422,5.241,5.241,0,0,1,.333-2.415,7.025,7.025,0,0,1,1.967-3.148A4.3,4.3,0,0,1,32.96,20.66a2.232,2.232,0,0,1,2.222,1.119,4.2,4.2,0,0,1-.118,3.108m.468-5.947-.823-4.593-1.637,4.579-1.907-.011,2.982-8.34,1.9.011.824,4.627L38.516,10.6l1.916.011-2.982,8.34Zm1.361,10.17.2-8.285,2.18.013-.465,5.957,3.472-5.94,2.116.012L39.15,29.123Zm12.554-3.437-3.236-.019-.541,1.625,3.592.021-.618,1.877-5.682-.033,2.746-8.27,5.576.032L50.7,22.674l-3.487-.02-.438,1.311,3.241.019Zm9.034-2.43a3.684,3.684,0,0,1-.634,1.189,3.352,3.352,0,0,1-.927.8,2.844,2.844,0,0,1-.835.32,1.454,1.454,0,0,1,.441.307,1.93,1.93,0,0,1,.189.439,2.528,2.528,0,0,1,.119.518l.214,2.4-2.357-.013-.278-2.539a1.34,1.34,0,0,0-.162-.638.562.562,0,0,0-.449-.2h-.181L52.5,29.2l-2.088-.012,2.745-8.27,3.465.02a3.48,3.48,0,0,1,1.414.214,1.013,1.013,0,0,1,.571.756,2.5,2.5,0,0,1-.131,1.336" transform="translate(-2.758 -2.897)" fill="#231815"/>
        <path id="패스_789254" data-name="패스 789254" d="M72.261,50.73a1.685,1.685,0,0,0-1.192.545,4.509,4.509,0,0,0-.984,1.809,3.1,3.1,0,0,0-.217,1.8.822.822,0,0,0,.849.556,1.688,1.688,0,0,0,1.222-.536,4.914,4.914,0,0,0,1-1.921,2.731,2.731,0,0,0,.183-1.7.833.833,0,0,0-.862-.548" transform="translate(-42.705 -31.034)" fill="#231815"/>
        <path id="패스_789255" data-name="패스 789255" d="M33.1,0C14.922-.1.052,7.286,0,16.436s14.731,16.7,32.908,16.8S65.948,25.967,66,16.814,51.276.1,33.1,0m-.184,32.275C15.139,32.175.686,25.061.735,16.441S15.318.875,33.093.977,65.324,8.189,65.274,16.809,50.687,32.378,32.914,32.276" transform="translate(0 0)" fill="#231815"/>
      </g>
    </g>
  </g>
</svg>
