<svg xmlns="http://www.w3.org/2000/svg" width="100" height="100" viewBox="0 0 100 100">
  <g id="car_logo_lotus" transform="translate(-219 -155)">
    <g id="W_100_H_100" data-name="W 100 H 100" transform="translate(219 155)" fill="#f9f9f9" stroke="#f0f0f0" stroke-width="1" opacity="0">
      <rect width="100" height="100" stroke="none"/>
      <rect x="0.5" y="0.5" width="99" height="99" fill="none"/>
    </g>
    <g id="lotus" transform="translate(-500.463 -1395.305)">
      <path id="패스_789277" data-name="패스 789277" d="M770.473,1629.317a28,28,0,1,0-19.8-8.2,27.82,27.82,0,0,0,19.8,8.2Z" transform="translate(-1.008 -1.008)" fill="#231815" fill-rule="evenodd"/>
      <path id="패스_789278" data-name="패스 789278" d="M743.023,1601.654a27.79,27.79,0,1,1,8.139,19.65,27.608,27.608,0,0,1-8.139-19.65Z" transform="translate(-1.348 -1.347)" fill="#fff" fill-rule="evenodd"/>
      <path id="패스_789279" data-name="패스 789279" d="M773.042,1630.28a26.4,26.4,0,1,0-26.4-26.4,26.4,26.4,0,0,0,26.4,26.4Z" transform="translate(-3.577 -3.577)" fill="#231815" fill-rule="evenodd"/>
      <path id="패스_789280" data-name="패스 789280" d="M775.6,1625.8c6.664,0,18.228-2.336,22.215-6.664,3.73-4.05,2.191-7.928.117-10.757h0l-15.317-16.486h0a9.881,9.881,0,0,0-14.031,0h0l-15.317,16.486h0c-2.735,3.3-3.236,7.178.117,10.757,4.023,4.294,15.55,6.664,22.215,6.664Z" transform="translate(-6.283 -10.639)" fill="#fff" fill-rule="evenodd"/>
      <path id="패스_789281" data-name="패스 789281" d="M778.782,1626.822c6.045,0,16.119-2.545,20.149-6.045,3.64-3.161,2.757-7.106.106-9.757h0l-13.892-14.953h0a8.961,8.961,0,0,0-12.726,0h0l-13.893,14.953h0c-2.651,2.651-3.534,6.6.106,9.757,4.03,3.5,14.1,6.045,20.15,6.045Z" transform="translate(-9.463 -13.378)" fill="#231815" fill-rule="evenodd"/>
      <path id="패스_789282" data-name="패스 789282" d="M808.45,1650.987c-.689,0-2.492-.079-3.075-.159h0l-.477,1.06h0c-.186.4.318.583.53.371s1.379-.8,1.936-.345h0v5.064h0a.67.67,0,0,1-.57.636.405.405,0,0,0-.438.345c0,.186.107.318.5.345a31.741,31.741,0,0,0,3.182,0c.4,0,.5-.159.5-.345a.405.405,0,0,0-.437-.345.67.67,0,0,1-.57-.636h0v-5.064h0c.557-.451,1.723.132,1.935.345s.716.027.53-.371h0l-.477-1.06h0c-.583.08-2.386.159-3.075.159Z" transform="translate(-39.396 -48.705)" fill="#fff" fill-rule="evenodd"/>
      <path id="패스_789283" data-name="패스 789283" d="M824.733,1647.515a.382.382,0,0,0-.332.49c.053.133.225.212.464.239a.52.52,0,0,1,.451.437h0l1.14,3.9h0c.212.769,1.644,2.2,4.4,1.167s1.856-3.129,1.723-3.526h0l-.928-3.181h0a.7.7,0,0,1,.106-.769c.133-.186.106-.822-.5-.61-.371.132-1.007.318-1.246.4s-.45.583-.026.663.557.106.663.5h0l.928,3.182h0a1.638,1.638,0,0,1-1.008,2.227,1.75,1.75,0,0,1-2.254-.875h0l-.928-3.155h0c-.106-.451-.066-.742.2-.9s.318-.849-.212-.742-2.346.583-2.638.557Z" transform="translate(-51.41 -45.499)" fill="#fff" fill-rule="evenodd"/>
      <path id="패스_789284" data-name="패스 789284" d="M786.481,1647.479a3.838,3.838,0,0,0-5.25,1.379c-1.329,2.409-.424,4.348,1.909,5.462a3.625,3.625,0,0,0,5.17-1.617c.684-1.54,1.034-3.685-1.829-5.223Z" transform="translate(-24.479 -46.337)" fill="#fff" fill-rule="evenodd"/>
      <path id="패스_789285" data-name="패스 789285" d="M789.034,1650.105c-1.113-.5-2.147-.027-2.943,1.458s-.619,3.032.265,3.5c.9.477,2.015.424,3.022-1.432s.637-2.916-.345-3.526Z" transform="translate(-27.536 -48.141)" fill="#231815" fill-rule="evenodd"/>
      <path id="패스_789286" data-name="패스 789286" d="M766.39,1637.011c-.185-.225-.4-.212-.53-.053s-.053.345.106.53a.693.693,0,0,1,.067.848h0l-2.956,3.844h0a.643.643,0,0,1-.849.04c-.265-.2-.742.146-.345.437a48.746,48.746,0,0,0,4.932,3.274h0l1.219-1.127h0c.172-.172-.011-.571-.3-.371a2.028,2.028,0,0,1-3.022-1.14h0l2.877-3.751h0a.739.739,0,0,1,.875-.318c.252.106.358.013.424-.093a.322.322,0,0,0-.106-.424c-.279-.146-2.161-1.485-2.386-1.7Z" transform="translate(-12.859 -40.098)" fill="#fff" fill-rule="evenodd"/>
      <path id="패스_789287" data-name="패스 789287" d="M851.432,1638.767a6.048,6.048,0,0,1-1.326.345,7.277,7.277,0,0,0-1.882.716c-.557.345-1.962,1.67-1.14,3.287.45.8,1.458,1.3,3.632.636.769-.239,2.015-.61,2.254-.08s-.345,1.352-1.246,1.723a3.916,3.916,0,0,1-2.757,0c-.265-.159-.636.026-.424.345h0l.8,1.061h0a8.169,8.169,0,0,0,3.341-.822c.849-.5,2.545-1.909,1.75-3.633a2.118,2.118,0,0,0-2.784-1.087c-.345.106-3.1,1.007-3.314.371s.53-1.352,1.22-1.538a6.379,6.379,0,0,1,2.306-.106c.4.106.557-.159.345-.451h0l-.689-.742-.08-.027Z" transform="translate(-65.224 -41.284)" fill="#fff" fill-rule="evenodd"/>
      <path id="패스_789288" data-name="패스 789288" d="M803.744,1615.441a8.463,8.463,0,0,1-5.3,2.068c-2.414,0-6.674-.66-7.417-5.822h0l.771-1.177h1.252c0,.076-.008.153-.008.232a3.557,3.557,0,0,0,2.671,3.632h0v.166h0a.658.658,0,0,1-.69.716.3.3,0,0,0,.106.583h4.825c1.564,0,3.235-.875,3.208-2.837a3.158,3.158,0,0,0-2.28-2.943,1.845,1.845,0,0,0,1.432-1.829,2.412,2.412,0,0,0-2.492-2.148h-6.734c-.345,0-.358.146-.358.279,0,.159.132.2.185.278a.509.509,0,0,1-.093.517h0l-1.908,2.917h0c0-.013,0-.027,0-.04,0-6.39,5.567-6.416,6.363-6.469a12.816,12.816,0,0,1,5.886,1.591c.636.477.636-.053.53-.212a14.664,14.664,0,0,0-1.061-1.8c-.265-.371-.8-.424-.954-.212a.7.7,0,0,1-.954.265,14.516,14.516,0,0,0-4.322-.61c-1.75,0-7.582,1.538-7.609,7.4a10.288,10.288,0,0,0,.353,2.8h0l-.963,1.472h0a2.08,2.08,0,0,1-1.909,1.034c-.4,0-.5.531-.08.557h3.049c.415,0,.345-.543.08-.636a.385.385,0,0,1-.2-.61h0l.432-.66h0a8.558,8.558,0,0,0,8.463,4.849,8.976,8.976,0,0,0,6.469-2.757c.53-.583-.053-1.167-.742-.583Z" transform="translate(-27.744 -19.018)" fill="#fff" fill-rule="evenodd"/>
      <path id="패스_789289" data-name="패스 789289" d="M807.391,1623.472c0-.1,0-.191.006-.282h1.526v2.756h0a2.594,2.594,0,0,1-1.531-2.474Z" transform="translate(-40.955 -31.699)" fill="#231815" fill-rule="evenodd"/>
      <path id="패스_789290" data-name="패스 789290" d="M809.172,1618.415H807.8a2.3,2.3,0,0,1,1.376-1.52h0v1.52Z" transform="translate(-41.204 -27.825)" fill="#231815" fill-rule="evenodd"/>
      <path id="패스_789291" data-name="패스 789291" d="M804.515,1613.748h1.14c.4,0,.4.4.4.61h0v.044h0a3.523,3.523,0,0,0-2.48,2.077h-.846l1.788-2.731Z" transform="translate(-38.085 -25.889)" fill="#231815" fill-rule="evenodd"/>
      <path id="패스_789292" data-name="패스 789292" d="M817.387,1616.477a1.368,1.368,0,0,0,0-2.737h-1.949v2.734l1.949,0Z" transform="translate(-45.906 -25.884)" fill="#231815" fill-rule="evenodd"/>
      <path id="패스_789293" data-name="패스 789293" d="M815.438,1623.19h1.273c.822,0,2.784.371,2.784,2.333a2.452,2.452,0,0,1-2.678,2.333c-.742-.027-1.379-.053-1.379-.769h0v-3.9Z" transform="translate(-45.906 -31.699)" fill="#231815" fill-rule="evenodd"/>
    </g>
  </g>
</svg>
