<svg xmlns="http://www.w3.org/2000/svg" width="100" height="100"><defs><clipPath id="a"><path data-name="사각형 303033" fill="none" d="M0 0h76v29H0z"/></clipPath></defs><g data-name="그룹 397743" transform="translate(12 36)" clip-path="url(#a)"><path data-name="패스 803323" d="M38 0C16.9 0 0 6.437 0 14.5 0 22.513 17.05 29 38 29s38-6.512 38-14.5S58.95 0 38 0" fill="#003478"/><path data-name="패스 803324" d="M60.327 10.345c.049-.086 0-.149-.11-.149h-1.916c-.146 0-.22.013-.281.149-.219.435-2.9 4.527-3.4 5.321-.086.124-.183.1-.2-.038a1.7 1.7 0 00-1.084-1.277 2.752 2.752 0 00-1.435-.171 5.206 5.206 0 00-2.365 1.13c-1.047.806-1.937 1.848-3.107 2.63-.634.421-1.5.781-2.084.235a1.824 1.824 0 01.342-2.456.093.093 0 01.17.061 1.1 1.1 0 00.305 1.029 1.128 1.128 0 001.28.149 1.694 1.694 0 00.89-1.315 1.488 1.488 0 00-1.341-1.7 2.645 2.645 0 00-1.937.72 3.7 3.7 0 00-.768.855c-.061.1-.171.111-.159-.038.036-1.116-.427-1.736-1.329-1.761a3.4 3.4 0 00-2.035.844 18.719 18.719 0 00-1.8 1.872c-.073.075-.134.075-.158-.074a3.838 3.838 0 00-.536-1.96.448.448 0 00-.573-.149 3.891 3.891 0 00-.682.409.393.393 0 00-.122.433 5.2 5.2 0 01-.183 3.411 3.678 3.678 0 01-2.108 2.136 1.379 1.379 0 01-1.634-.447 2.9 2.9 0 01.476-3.162 6.016 6.016 0 012.742-1.96c.122-.05.146-.124.11-.224-.048-.173-.146-.4-.182-.508-.1-.248-.354-.3-.671-.26a5.607 5.607 0 00-2.06.708 7.249 7.249 0 00-2.974 3.733 4.007 4.007 0 01-.535 1.017 8.612 8.612 0 01-1.244 1.216.221.221 0 00-.048.26 3.015 3.015 0 00.475.645c.1.049.219-.025.268-.05a6.4 6.4 0 001.218-1.1c.086-.111.183-.063.232.1a2.729 2.729 0 001.727 1.871c1.585.545 3.23-.249 4.461-1.613a17.054 17.054 0 001.377-1.811 17.176 17.176 0 012.718-3.014c.438-.347.962-.607 1.218-.433.208.135.281.458-.06 1.091-1.219 2.27-3.023 4.949-3.352 5.594-.06.111-.012.2.11.2h1.853a.214.214 0 00.194-.124c.939-1.5 1.828-2.927 2.766-4.391.049-.086.1-.025.1.013a2.431 2.431 0 00.3 1.117 1.645 1.645 0 001.426.818 2.7 2.7 0 001.158-.248 4.263 4.263 0 00.951-.521c.145-.1.17.063.158.088a2.864 2.864 0 001.207 3.187c1.389.7 2.913-.286 3.79-1.166.085-.086.183-.075.183.111a1.693 1.693 0 00.438 1.017c.732.756 2.219.46 3.7-.719a19.026 19.026 0 002.865-2.94.135.135 0 000-.185c-.134-.149-.342-.311-.476-.447a.183.183 0 00-.207 0 25.036 25.036 0 01-2.962 2.766c-.4.286-1.06.521-1.34.124a.691.691 0 01.012-.657c.365-.855 5.935-9.476 6.228-9.985m-7.35 7.228c.012.063.1.124.182.162.025.013.049.038.012.1a7.175 7.175 0 01-.76 1.261 5.152 5.152 0 01-.951 1.053c-.56.472-1.34.981-1.986.645a.993.993 0 01-.4-.893 4.625 4.625 0 011.17-2.815c.914-1.141 1.926-1.737 2.584-1.414.682.334.463 1.141.159 1.773a.148.148 0 00-.012.124" fill="#fff"/><path data-name="패스 803325" d="M19.951 22.488a3.912 3.912 0 01-4.12-3.547 4.594 4.594 0 01.927-3.287 4.548 4.548 0 012.547-1.662.927.927 0 01.828.174.463.463 0 01-.073.756 4.327 4.327 0 00-1.889 1.773 2.2 2.2 0 00.11 2.245c.828 1.277 3.156 1.315 5.313-.733a17.723 17.723 0 001.5-1.55 34.373 34.373 0 002.535-3.3c.012-.025.025-.05.012-.063s-.025-.025-.06-.025a3.781 3.781 0 00-2.291.819.439.439 0 01-.634-.074.53.53 0 01.194-.7 8.2 8.2 0 013.692-1.167.217.217 0 00.159-.1c.524-.682.927-1.315 1.486-2.01A15.313 15.313 0 0132.04 8.19a7.853 7.853 0 011.792-1.191c.134-.075-.012-.162-.061-.162-2.84-.546-5.788-1.24-8.6-.185-1.95.744-2.8 2.319-2.4 3.374.293.744 1.256.868 2.158.421a5.039 5.039 0 001.935-1.751c.281-.435.854-.124.549.632-.828 1.972-2.4 3.535-4.314 3.6a2.543 2.543 0 01-2.685-2.681c.012-2.977 3.266-4.937 6.679-5.222 4.119-.347 8.019.769 12.114 1.277a25.751 25.751 0 009.287-.347.476.476 0 01.609.546c-.037.557-.452 1.091-1.486 1.662a7.514 7.514 0 01-3.7.868c-3.12.025-6.021-1.215-9.032-1.872 0 .137.037.3-.073.372a14.511 14.511 0 00-4.18 4.3c-.037.036-.012.074.048.074.878-.05 1.657-.074 2.474-.136.146-.013.146-.05.134-.149a2.082 2.082 0 01.634-1.8 1.274 1.274 0 011.67-.2 1.346 1.346 0 01.182 1.687 1.948 1.948 0 01-1.206.992s-.1.025-.085.111c.023.136.634.483.682.584a.283.283 0 01-.073.322.4.4 0 01-.293.149.575.575 0 01-.3-.111 2.974 2.974 0 01-.854-.7c-.085-.1-.122-.1-.316-.086-.89.049-2.268.185-3.193.309-.231.025-.256.075-.305.149a39.831 39.831 0 01-4.826 7 6.572 6.572 0 01-5.045 2.456m14.185-11.1c.025.124.074.149.134.136a1.408 1.408 0 00.78-.571c.171-.248.244-.607.085-.756a.445.445 0 00-.572.063 1.306 1.306 0 00-.427 1.128" fill="#fff"/><path data-name="패스 803326" d="M38 27.748c-20.109 0-36.415-5.929-36.415-13.235S17.891 1.278 38 1.278s36.415 5.924 36.415 13.235S58.109 27.748 38 27.748m0-25.379c-19.402 0-35.133 5.458-35.133 12.133S18.598 26.632 38 26.632s35.136-5.458 35.136-12.13S57.403 2.369 38 2.369" fill="#fff"/></g></svg>