<svg xmlns="http://www.w3.org/2000/svg" xmlns:xlink="http://www.w3.org/1999/xlink" width="100" height="100" viewBox="0 0 100 100">
  <defs>
    <clipPath id="clip-path">
      <rect id="사각형_301612" data-name="사각형 301612" width="60" height="29.065" fill="none"/>
    </clipPath>
  </defs>
  <g id="car_logo_oldsmobile" transform="translate(-225 -160)">
    <g id="W_100_H_100" data-name="W 100 H 100" transform="translate(225 160)" fill="#f9f9f9" stroke="#f0f0f0" stroke-width="1" opacity="0">
      <rect width="100" height="100" stroke="none"/>
      <rect x="0.5" y="0.5" width="99" height="99" fill="none"/>
    </g>
    <g id="oldsmobile" transform="translate(240 174.244)">
      <g id="그룹_393596" data-name="그룹 393596" transform="translate(5 21.756)" clip-path="url(#clip-path)">
        <path id="패스_793043" data-name="패스 793043" d="M36.319,21.756c-9.642,0-29.679,4.134-31.307,16.03-.376,5.383,8.14,9.642,9.518,10.143s2.879.75,5.509-1L52.723,26.64c5.635,2.5,8.891,5.071,9.142,8.828S55.1,45.926,35.192,45.548c-2.129-.126-2.317-.5-1.378-1.5,1.153-1.23,6.011-6.887,8.766-9.266.939-1,.251-1.628-1.127-.626L21.229,46.863c-1.441,1.064-.813,2.442.187,2.568a63.683,63.683,0,0,0,15.027,1.376c9.705-.188,28.3-4.882,28.551-15.4.251-5.509-7.013-9.642-9.266-10.518l1.94-1.064c1.5-.876.313-2.567-1.314-1.566L53.1,24.007c-5.258-1.5-10.266-2-16.779-2.251h0" transform="translate(-5 -21.756)" fill-rule="evenodd"/>
        <path id="패스_793044" data-name="패스 793044" d="M49.994,26.092a44.118,44.118,0,0,0-15.027-1.628c-7.262.376-22.792,3.757-24.669,12.4-.876,3.506,4.884,3.506,7.765,2.88,1.751-.379,19.91-6.387,31.931-13.649h0" transform="translate(-5.401 -21.959)" fill="#fff" fill-rule="evenodd"/>
        <path id="패스_793045" data-name="패스 793045" d="M57.212,23.129S25.592,41.1,19.456,44.1c-3.507,1.628-8.077-.126-8.953-.75S6.245,40.6,6.371,36.717s6.762-10.894,19.661-13.148c7.513-1.253,14.4-1.879,26.3.876l-.877.5c-5.01-1-11.521-2.5-19.911-1.5S12.007,27.2,8.125,35.216C6.245,40.1,13.008,41.6,18.769,39.849A195.671,195.671,0,0,0,56.9,22.692c.563-.378.938.124.312.437h0" transform="translate(-5.105 -21.814)" fill="#fff" fill-rule="evenodd"/>
        <path id="패스_793046" data-name="패스 793046" d="M18.06,45.938a6.519,6.519,0,0,0,2.567-.75L58.178,23.553l.016.064L21,45.5a11.968,11.968,0,0,0-2.38,1.379c-.5.5-1.628.689-1.879.061s.564-1.063,1.316-1Zm6.449,1.253a17.016,17.016,0,0,0,4.194-2.5c1.19-.878,11.145-8.142,14.088-10.333-1.252.814-16.216,10.457-17.217,11.081-1.127.629-3.258,1.691-3.319,2.381a15.1,15.1,0,0,0,2.254-.626h0" transform="translate(-5.9 -21.895)" fill="#fff" fill-rule="evenodd"/>
        <path id="패스_793047" data-name="패스 793047" d="M22.379,48.972c.125-1.191,2.129-.5,2.943-.377a89.219,89.219,0,0,0,12.461.877c7.89-.312,22.29-2.254,26.8-10.393a6.974,6.974,0,0,0,.626-5.134c.062,2.694-.188,5.574-4.258,8.328-4.486,3.036-11.9,6.825-28.3,5.7-2.756-.375-3.194-1.314-1.44-2.943s9.2-8.39,12.21-10.394c.689-.438.564,0,.063.438s-8.828,8.077-9.767,9.517-.126,2.317,1.566,2.443c2.567.061,11.584.438,19.848-2.632,2.817-1.125,8.7-3.5,9.454-8.2.768-4.8-5.948-9.267-9.017-10.081l1-.564c1.753.752,7.764,3.569,9.078,8.328C67,38.8,62.765,42.46,60.635,43.9s-9.267,6.2-25.171,6.449a85.661,85.661,0,0,1-10.643-1.126,4.529,4.529,0,0,0-2.442-.25h0" transform="translate(-6.337 -22.049)" fill="#fff" fill-rule="evenodd"/>
      </g>
    </g>
  </g>
</svg>
