<svg xmlns="http://www.w3.org/2000/svg" width="100" height="100" viewBox="0 0 100 100">
  <g id="car_logo_smart" transform="translate(-219 -161)">
    <g id="W_100_H_100" data-name="W 100 H 100" transform="translate(219 161)" fill="#f9f9f9" stroke="#f0f0f0" stroke-width="1" opacity="0">
      <rect width="100" height="100" stroke="none"/>
      <rect x="0.5" y="0.5" width="99" height="99" fill="none"/>
    </g>
    <g id="smart" transform="translate(-494.536 -2911.301)">
      <path id="패스_791892" data-name="패스 791892" d="M771.773,3135.377a15.053,15.053,0,0,1-9.429,3,12.371,12.371,0,1,1,0-24.742,14.139,14.139,0,0,1,9.429,3.141v-12.33a24.847,24.847,0,0,0-9.429-2.145,23.706,23.706,0,1,0,0,47.411,24.8,24.8,0,0,0,9.429-2.069v-12.265" transform="translate(0 0)" fill="gray"/>
      <path id="패스_791893" data-name="패스 791893" d="M843.443,3132.316v-20.533a50.322,50.322,0,0,1,14.973,19.634,2.844,2.844,0,0,1,.123.9v0a2.808,2.808,0,0,1-.123.9,50.3,50.3,0,0,1-14.973,19.634v-20.532" transform="translate(-70.003 -6.307)" fill="#f9c009"/>
    </g>
  </g>
</svg>
