<svg xmlns="http://www.w3.org/2000/svg" xmlns:xlink="http://www.w3.org/1999/xlink" width="100" height="100" viewBox="0 0 100 100">
  <defs>
    <clipPath id="clip-path">
      <rect id="사각형_299592" data-name="사각형 299592" width="66" height="36.324" fill="none"/>
    </clipPath>
  </defs>
  <g id="car_logo_daewoo" transform="translate(-219 -155)">
    <g id="W_100_H_100" data-name="W 100 H 100" transform="translate(219 155)" fill="#f9f9f9" stroke="#f0f0f0" stroke-width="1" opacity="0">
      <rect width="100" height="100" stroke="none"/>
      <rect x="0.5" y="0.5" width="99" height="99" fill="none"/>
    </g>
    <g id="daewoo" transform="translate(233.5 168.763)">
      <g id="그룹_390839" data-name="그룹 390839" transform="translate(2.5 18.237)" clip-path="url(#clip-path)">
        <path id="패스_789333" data-name="패스 789333" d="M35.5,18.237c18.223,0,33,8.133,33,18.162s-14.777,18.161-33,18.161S2.5,46.428,2.5,36.4s14.778-18.162,33-18.162M42.148,52c9.259-1.385,16.613-5.674,19.23-11.165.164-3.028-1.348-4.947-5.183-5.482C48.255,34.7,41.583,41.642,42.148,52M60.9,31.071c-3.655-6.26-13.57-10.75-25.225-10.75-12.3,0-22.668,5-25.777,11.812-.048.979.2,1.576.987,1.269,3.275-1.5,5.768-2.105,10.948-2.041,2.335-.358,6.846,7.2,8.263,11.526l1.758-.031c-.96-3.832-3.183-8.009-5.862-12.31.035-.747.982-1.011,2.345-1.055h4.1c1.582.074,2.09,1.061,2.11,2.462v11.02l.913.006.915-.006V31.954c.019-1.4.528-2.388,2.11-2.462h4.1c1.361.044,2.31.308,2.345,1.055-2.68,4.3-4.9,8.478-5.862,12.31l1.758.031C42.255,38.56,46.765,31,49.1,31.362c5.18-.064,7.673.543,10.948,2.041,1.046.408,1.137-.777.854-2.332M9.569,39.854c2.14,5.874,9.62,10.547,19.225,12.083.534-10.324-6.129-17.235-14.051-16.583-3.4.474-4.976,2.038-5.173,4.5" transform="translate(-2.5 -18.237)" fill="#68ada9" fill-rule="evenodd"/>
      </g>
    </g>
  </g>
</svg>
