<svg xmlns="http://www.w3.org/2000/svg" width="100" height="100" viewBox="0 0 100 100">
  <g id="car_logo_oullim" transform="translate(-219 -155)">
    <g id="W_100_H_100" data-name="W 100 H 100" transform="translate(219 155)" fill="#f9f9f9" stroke="#f0f0f0" stroke-width="1" opacity="0">
      <rect width="100" height="100" stroke="none"/>
      <rect x="0.5" y="0.5" width="99" height="99" fill="none"/>
    </g>
    <g id="oullim" transform="translate(-1414.015 1)">
      <path id="패스_12" data-name="패스 12" d="M1754.518,224.464a.509.509,0,0,1,.134.007v1.56l-.067.008h-.067A1.244,1.244,0,0,1,1754.518,224.464Z" transform="translate(-43.636 -21.185)" fill="#dadbdb"/>
      <path id="패스_13" data-name="패스 13" d="M1705.171,176.027a1.058,1.058,0,0,0,.007.134,1.251,1.251,0,0,1-1.578,0,1.036,1.036,0,0,0,.007-.134Z" transform="translate(-21.373 -0.012)" fill="#dadbdb"/>
      <path id="패스_14" data-name="패스 14" d="M1655.027,224.471a.509.509,0,0,1,.134-.007,1.243,1.243,0,0,1,0,1.574h-.067l-.067-.008Z" transform="translate(-0.012 -21.185)" fill="#dadbdb"/>
      <path id="패스_15" data-name="패스 15" d="M1655.265,204.967v-1.572c.684-15.125,11.984-26.445,27.082-27.131h1.569c15.1.686,26.4,12.006,27.082,27.131v1.572a27.87,27.87,0,0,1-55.257,4.4A28.707,28.707,0,0,1,1655.265,204.967Z" transform="translate(-0.116 -0.115)" fill="#676a6b"/>
      <path id="패스_16" data-name="패스 16" d="M1710.848,204.743a27.193,27.193,0,1,1-26.746-27.28A27.19,27.19,0,0,1,1710.848,204.743Z" transform="translate(-0.639 -0.637)" fill="#f2f5f4"/>
      <path id="패스_17" data-name="패스 17" d="M1715.548,181.524c10.123,2.772,16.558,9.233,19.041,19.383a24.57,24.57,0,0,1-2.609,18.128c-.2.359-.436.7-.655,1.042-.352.219-.6-.026-.825-.218-2.228-1.891-4.471-3.763-6.7-5.654a1.18,1.18,0,0,1-.479-.93c.593-4.971.14-9.961.273-14.94.033-1.246.015-2.493,0-3.74a2.069,2.069,0,0,0-2.363-2.343,23.962,23.962,0,0,0-5.749.268c-.269-.105-.261-.351-.292-.576-.029-.517.27-.97.291-1.478a1.92,1.92,0,0,1,.011-.246,10.41,10.41,0,0,0,.153-1.328c0-.163,0-.325,0-.488a11.618,11.618,0,0,0,.12-2.168,1.5,1.5,0,0,1-.061-.236,5.1,5.1,0,0,1-.05-.729c0-.2-.006-.405-.005-.608a2.281,2.281,0,0,0-.1-.849c-.07-.535-.127-1.072-.215-1.6C1715.293,181.974,1715.111,181.635,1715.548,181.524Z" transform="translate(-26.59 -2.412)" fill="#134e74"/>
      <path id="패스_18" data-name="패스 18" d="M1660.121,221.775a22.219,22.219,0,0,1-.878-7.671,25.214,25.214,0,0,1,3.691-12.205c.092-.152.211-.288.317-.432.3-.092.42.144.552.323,2.232,3.058,4.437,6.135,6.663,9.2a1.07,1.07,0,0,1,.187.425c.07,2.28.012,4.558.032,6.836a3.517,3.517,0,0,0,.086,1.078,12.289,12.289,0,0,1,.162,1.925c-.155.513-.617.534-1.029.634-.319.077-.655.065-.97.167-.415.1-.855.012-1.265.158a1.565,1.565,0,0,1-.255.05,14.216,14.216,0,0,0-2.071.108,1.521,1.521,0,0,1-.261.051c-.844.086-1.664-.252-2.509-.136-.17,0-.34-.007-.51-.02a5.684,5.684,0,0,0-.955-.149,2.175,2.175,0,0,1-.47-.07A1.368,1.368,0,0,1,1660.121,221.775Z" transform="translate(-1.84 -11.132)" fill="#134e74"/>
      <path id="패스_19" data-name="패스 19" d="M1669.688,238.267a.4.4,0,0,1,.147-.009,1.8,1.8,0,0,1,1.77.444c3.914,3.338,7.852,6.647,11.779,9.97,2.915,2.467,5.854,4.906,8.733,7.414.281.245.644.335.9.593a3.336,3.336,0,0,1-1.42.151.612.612,0,0,1-.443.056q-5.517-4.641-11.015-9.3-5.063-4.277-10.115-8.565C1669.8,238.826,1669.477,238.661,1669.688,238.267Z" transform="translate(-6.382 -27.205)" fill="#5c91b5"/>
      <path id="패스_20" data-name="패스 20" d="M1693.187,256.617c-.983.041-1.389-.836-2.008-1.326-1.968-1.557-3.864-3.205-5.781-4.826-1.522-1.287-3.031-2.591-4.554-3.878-1.937-1.636-3.886-3.26-5.825-4.895-1.109-.934-2.248-1.839-3.3-2.835A1.932,1.932,0,0,0,1670,238.2a7.747,7.747,0,0,1,2.2-.148c1.525,1.335,3.094,2.618,4.624,3.948a1.348,1.348,0,0,0,.766.35c.817.76,1.4,1.722,2.215,2.495a14.141,14.141,0,0,0,3.465,2.5,1.757,1.757,0,0,1,.885.606,8.42,8.42,0,0,0,2.174,2.058c2.285,1.984,4.644,3.881,6.909,5.887.279.247.65.315.9.581A1.714,1.714,0,0,1,1693.187,256.617Z" transform="translate(-6.549 -27.143)" fill="#598eb2"/>
      <path id="패스_21" data-name="패스 21" d="M1661.856,240.8a3.7,3.7,0,0,1-.487-1.4c.366-.146.589.11.819.305,4.892,4.146,9.805,8.269,14.691,12.422,1.5,1.278,3.021,2.54,4.526,3.817.391.332.941.591.95,1.235a3.891,3.891,0,0,1-1.251-.184c-2.729-2.117-5.3-4.418-7.95-6.634q-3.344-2.8-6.662-5.631C1664.949,243.417,1663.4,242.113,1661.856,240.8Z" transform="translate(-2.78 -27.716)" fill="#6b9fc3"/>
      <path id="패스_22" data-name="패스 22" d="M1682.116,256.378a24.247,24.247,0,0,0-3.28-2.952c-1.523-1.32-3.075-2.607-4.617-3.906-1.561-1.316-3.128-2.625-4.687-3.942-1.52-1.285-3.015-2.6-4.556-3.86a37.341,37.341,0,0,0-3.846-3.119,2.171,2.171,0,0,1-.308-1.074c.174,0,.356-.024.49.131a31.6,31.6,0,0,1,3.331,2.695c2.97,2.488,5.922,5,8.883,7.5,3.121,2.634,6.22,5.292,9.355,7.907.224.187.534.375.329.763A2.549,2.549,0,0,1,1682.116,256.378Z" transform="translate(-2.542 -26.917)" fill="#699dc0"/>
      <path id="패스_23" data-name="패스 23" d="M1673.572,210.164a36.061,36.061,0,0,1-2.55-3.4c-1.475-2.026-2.931-4.066-4.4-6.1a1.063,1.063,0,0,0-.245-.185,4.565,4.565,0,0,1,.827-1.238c.509-.217.627.255.814.505q2.295,3.078,4.5,6.219a9.769,9.769,0,0,1,1.249,1.765C1673.741,208.547,1674.031,209.386,1673.572,210.164Z" transform="translate(-4.967 -10.139)" fill="#175177"/>
      <path id="패스_24" data-name="패스 24" d="M1688.04,183.353a.614.614,0,0,1,.455-.17c.542-.184.743.252.976.567,1.294,1.757,2.563,3.533,3.841,5.3,2.511,3.475,5.036,6.94,7.529,10.427a1.441,1.441,0,0,1,.241.4.718.718,0,0,1-.365.691c-.562.1-.772-.35-1.023-.691-2.05-2.775-4.039-5.6-6.076-8.379-1.777-2.428-3.492-4.9-5.294-7.31C1688.14,183.946,1687.916,183.7,1688.04,183.353Z" transform="translate(-14.543 -3.117)" fill="#4e83a7"/>
      <path id="패스_25" data-name="패스 25" d="M1684.992,184.594a1.585,1.585,0,0,1,.758-.37,11.479,11.479,0,0,1,1.917,2.438q5.078,7.012,10.144,14.033a11.64,11.64,0,0,0,.988,1.2.852.852,0,0,1-.495.862c-.4.089-.543-.233-.72-.475-3.243-4.438-6.453-8.9-9.671-13.358q-1.274-1.766-2.551-3.531C1685.192,185.16,1684.891,184.963,1684.992,184.594Z" transform="translate(-13.209 -3.59)" fill="#477da1"/>
      <path id="패스_26" data-name="패스 26" d="M1729.4,238.241c.074.576.628.739.976,1.043,2.025,1.77,4.094,3.488,6.149,5.224a1.315,1.315,0,0,0,.693.329,6.114,6.114,0,0,1-.941,1.4c-.393.225-.642-.066-.885-.274q-3.013-2.581-6.066-5.115a1.73,1.73,0,0,1-.633-.771A2.774,2.774,0,0,1,1729.4,238.241Z" transform="translate(-32.486 -27.214)" fill="#175177"/>
      <path id="패스_27" data-name="패스 27" d="M1694.151,181.423a1.979,1.979,0,0,1,.929-.2q4.231,5.877,8.487,11.737a9.45,9.45,0,0,0,1.914,2.336.869.869,0,0,1,.114.249,3.468,3.468,0,0,1,.067.851q0,6.755,0,13.511c0,.4.086.842-.287,1.158-.277-.024-.268-.252-.317-.439a12.764,12.764,0,0,1-.023-1.582c-.005-.379-.023-.757,0-1.135-.021-.662-.02-1.324-.012-1.986.02-3.175-.041-6.351.029-9.527,0-.056-.027-.09-.094-.095-.358.071-.514-.188-.681-.417q-4.9-6.726-9.746-13.492C1694.328,182.11,1694.023,181.842,1694.151,181.423Z" transform="translate(-17.233 -2.279)" fill="#5c91b5"/>
      <path id="패스_28" data-name="패스 28" d="M1690.23,182.539a.96.96,0,0,1,.6-.183c.378-.087.485.232.641.446,3.534,4.883,7.083,9.755,10.587,14.66a4.249,4.249,0,0,1,.592.818.715.715,0,0,1-.362.692c-.488.1-.706-.258-.929-.567q-3.853-5.349-7.726-10.684c-1.021-1.412-2.033-2.83-3.065-4.234C1690.367,183.219,1690,182.972,1690.23,182.539Z" transform="translate(-15.49 -2.769)" fill="#5388ac"/>
      <path id="패스_29" data-name="패스 29" d="M1680.572,258.594a4.327,4.327,0,0,1-1.568-.44c-2.63-2.263-5.3-4.475-7.949-6.721q-3.229-2.74-6.462-5.474a8.638,8.638,0,0,0-.894-.617,7.216,7.216,0,0,1-.679-1.551c.38-.258.649.016.893.224q4.253,3.6,8.508,7.2,3.807,3.221,7.61,6.446C1680.324,257.9,1680.693,258.11,1680.572,258.594Z" transform="translate(-3.502 -29.607)" fill="#6fa4c7"/>
      <path id="패스_30" data-name="패스 30" d="M1683.591,256.621a.682.682,0,0,0-.308-.519q-3.243-2.718-6.49-5.431c-1.487-1.249-2.963-2.51-4.447-3.763-1.6-1.353-3.209-2.7-4.808-4.053-1.54-1.307-3.081-2.613-4.6-3.94-.425-.371-.973-.618-1.243-1.156l.478.032c1.107.185,1.752,1.071,2.531,1.721,3.7,3.093,7.378,6.221,11.066,9.333,2.736,2.31,5.462,4.631,8.207,6.93.251.21.651.419.4.883Z" transform="translate(-2.921 -27.019)" fill="#669bbe"/>
      <path id="패스_31" data-name="패스 31" d="M1697.195,180.8a1.661,1.661,0,0,1,.934-.139,1,1,0,0,1,1.253.495c2.352,3.261,4.724,6.508,7.049,9.789.323.455.824.807.912,1.417a.92.92,0,0,1-.549.709c-.544-.041-.777-.482-1.045-.849-2.49-3.417-4.948-6.858-7.439-10.275a2.507,2.507,0,0,0-.967-.985A.4.4,0,0,1,1697.195,180.8Z" transform="translate(-18.582 -2.003)" fill="#6599bd"/>
      <path id="패스_32" data-name="패스 32" d="M1684.52,184.88l8.108,11.18q2.39,3.3,4.778,6.6c.106.146.184.321.405.319.1.388-.08.6-.441.7-.331-.041-.449-.325-.611-.549-1.863-2.578-3.747-5.141-5.588-7.735-.241-.34-.549-.619-.8-.951-1.076-1.786-2.421-3.384-3.591-5.1-.949-1.395-2.075-2.666-2.893-4.151A1.132,1.132,0,0,1,1684.52,184.88Z" transform="translate(-12.733 -3.877)" fill="#457a9e"/>
      <path id="패스_33" data-name="패스 33" d="M1703.081,198.156a16.9,16.9,0,0,1-2.162-2.83c-3.124-4.292-6.216-8.607-9.323-12.911a1.036,1.036,0,0,0-.247-.184.6.6,0,0,1,.483-.147c.642-.162.878.353,1.132.738,1.033,1.56,2.178,3.039,3.274,4.552,2.418,3.342,4.806,6.707,7.269,10.019A.628.628,0,0,1,1703.081,198.156Z" transform="translate(-16.014 -2.643)" fill="#568bae"/>
      <path id="패스_34" data-name="패스 34" d="M1703.78,197.169a29.608,29.608,0,0,1-2.755-3.528c-1.57-2.11-3.08-4.265-4.612-6.4q-1.622-2.265-3.235-4.535c-.255-.358-.484-.743-.973-.825a2.491,2.491,0,0,1,1.11-.3c1.105,1.873,2.481,3.56,3.735,5.329,2.135,3.013,4.326,5.987,6.5,8.969.143.2.219.491.54.512C1704.312,196.778,1704.126,197.006,1703.78,197.169Z" transform="translate(-16.39 -2.436)" fill="#598eb2"/>
      <path id="패스_35" data-name="패스 35" d="M1680.228,257.824a10.56,10.56,0,0,0-2.517-2.379c-1.539-1.38-3.16-2.668-4.745-4q-2.941-2.469-5.877-4.944-1.748-1.478-3.474-2.983a1.493,1.493,0,0,0-.938-.5,2.6,2.6,0,0,1-.443-1.1c.789.069,1.158.766,1.687,1.189,1.859,1.488,3.643,3.068,5.463,4.6,1.937,1.636,3.885,3.261,5.824,4.9q3.088,2.6,6.164,5.219c.068.058.075.187.11.283A4.359,4.359,0,0,1,1680.228,257.824Z" transform="translate(-3.158 -28.837)" fill="#6da2c5"/>
      <path id="패스_36" data-name="패스 36" d="M1706,195.184a.53.53,0,0,1-.447-.26q-3.479-4.837-6.965-9.669c-.83-1.151-1.651-2.308-2.5-3.446a1.041,1.041,0,0,1-.266-.7,1.426,1.426,0,0,1,.773-.144l.025.038c2.162,2.931,4.262,5.906,6.413,8.845.937,1.281,1.82,2.6,2.817,3.838A1.191,1.191,0,0,1,1706,195.184Z" transform="translate(-17.978 -2.167)" fill="#5f94b7"/>
      <path id="패스_37" data-name="패스 37" d="M1687.552,183.518c.747,1.271,1.691,2.4,2.541,3.6,1.494,2.106,3.016,4.191,4.528,6.283q2.472,3.42,4.952,6.834a.823.823,0,0,0,.62.428c.1.4-.181.543-.466.682-.333-.016-.486-.269-.653-.5q-5.847-8.089-11.695-16.178a2.166,2.166,0,0,1-.494-.873A1.17,1.17,0,0,1,1687.552,183.518Z" transform="translate(-14.051 -3.282)" fill="#4d81a5"/>
      <path id="패스_38" data-name="패스 38" d="M1704.974,264.144c-1.036.021-1.46-.909-2.116-1.43-2.323-1.846-4.566-3.792-6.838-5.7q-.564-.474-1.112-.966c-.156-.14-.1-.27.063-.369a2.331,2.331,0,0,1,1.845.493,15.216,15.216,0,0,0,2.464,2.235c1.966,1.693,3.979,3.332,5.933,5.04a4.281,4.281,0,0,1,.668.529A1.574,1.574,0,0,1,1704.974,264.144Z" transform="translate(-17.537 -34.818)" fill="#568baf"/>
      <path id="패스_39" data-name="패스 39" d="M1733.938,250.58a3.69,3.69,0,0,1-.807.928c-.3.224-.481-.039-.664-.193-1.967-1.646-3.9-3.33-5.884-4.958a.918.918,0,0,1-.433-.783c.133-.4.2-.853.723-.966C1729.238,246.588,1731.584,248.59,1733.938,250.58Z" transform="translate(-31.32 -29.997)" fill="#21597e"/>
      <path id="패스_40" data-name="패스 40" d="M1722.066,260.669a4.182,4.182,0,0,1-1.119.614,21.587,21.587,0,0,1-2.458-1.988q-1.876-1.561-3.73-3.15c-.25-.214-.578-.392-.428-.816a1.82,1.82,0,0,1,1.126-.508c1.495,1.024,2.785,2.3,4.19,3.431.562.454,1.11.927,1.664,1.391C1721.644,259.922,1722.022,260.174,1722.066,260.669Z" transform="translate(-26.101 -34.467)" fill="#3c7297"/>
      <path id="패스_41" data-name="패스 41" d="M1707.943,192.283l-5.38-7.454c-.861-1.192-1.734-2.375-2.574-3.582a1.165,1.165,0,0,0-1.135-.65,3.377,3.377,0,0,1,1.425-.158l.109.026c.482.267.682.772.987,1.185,2.146,2.9,4.216,5.862,6.369,8.761a7.5,7.5,0,0,1,.511.956l.006.615C1708.3,192.236,1708.213,192.354,1707.943,192.283Z" transform="translate(-19.31 -1.938)" fill="#699dc0"/>
      <path id="패스_42" data-name="패스 42" d="M1734.48,249.852c-.7-.051-1.047-.651-1.514-1.025-1.79-1.437-3.52-2.947-5.273-4.429a.8.8,0,0,1-.281-.536.749.749,0,0,1,.48-.921,27.381,27.381,0,0,1,3.009,2.452c1.4,1.227,2.929,2.319,4.214,3.683A2.284,2.284,0,0,1,1734.48,249.852Z" transform="translate(-31.916 -29.267)" fill="#1d567b"/>
      <path id="패스_43" data-name="패스 43" d="M1686.653,184.017a26.819,26.819,0,0,1,2.339,3.079c3.391,4.672,6.748,9.368,10.123,14.052a2.537,2.537,0,0,0,.4.362c.087.171.122.316-.152.312-.63-.117-.794-.708-1.1-1.126q-5.8-7.966-11.563-15.957a6.336,6.336,0,0,1-.346-.606Z" transform="translate(-13.816 -3.5)" fill="#4a7fa3"/>
      <path id="패스_44" data-name="패스 44" d="M1668.669,197.45a3.334,3.334,0,0,1,.764-.939c.464-.067.62.313.823.592,1.207,1.658,2.415,3.315,3.6,4.986.271.38.616.7.87,1.094a3.873,3.873,0,0,1,0,1.6c-.488.465-.7-.073-.892-.309-.841-1.024-1.554-2.144-2.346-3.206C1670.546,200,1669.675,198.675,1668.669,197.45Z" transform="translate(-5.967 -8.965)" fill="#1d567b"/>
      <path id="패스_45" data-name="패스 45" d="M1680.035,187.156a3.378,3.378,0,0,1,1.073-.651c.313.074.447.343.613.57,1.5,2.058,3,4.115,4.482,6.19.2.281.6.552.315,1.005a1.7,1.7,0,0,1-1.068.045,1.736,1.736,0,0,1-.784-.727C1683.129,191.439,1681.557,189.315,1680.035,187.156Z" transform="translate(-11.018 -4.586)" fill="#3c7297"/>
      <path id="패스_46" data-name="패스 46" d="M1689.67,182.692a29.6,29.6,0,0,0,2.5,3.622c2.462,3.482,4.991,6.918,7.492,10.373.455.628.893,1.267,1.358,1.888a.92.92,0,0,0,.672.483c.123.321-.021.509-.312.624a28.531,28.531,0,0,1-2.467-3.274c-3.127-4.281-6.207-8.6-9.308-12.9a.98.98,0,0,0-.732-.526A1.522,1.522,0,0,1,1689.67,182.692Z" transform="translate(-14.927 -2.921)" fill="#5186aa"/>
      <path id="패스_47" data-name="패스 47" d="M1725.791,246.307a.772.772,0,0,0,.343.587q3.111,2.634,6.23,5.261a.86.86,0,0,0,.29.1c-.179.35-.527.526-.8.779a6.668,6.668,0,0,1-2.166-1.572c-1.287-1.045-2.537-2.137-3.809-3.2-.369-.309-.825-.575-.824-1.155C1725.2,246.748,1725.3,246.348,1725.791,246.307Z" transform="translate(-30.837 -30.739)" fill="#255c81"/>
      <path id="패스_48" data-name="패스 48" d="M1667.383,251.63a9.442,9.442,0,0,1-1.329-2.013c.367-.269.577.054.8.234,2.335,1.895,4.593,3.88,6.9,5.8q1.823,1.516,3.624,3.061c.433.37,1.015.65,1.074,1.331a9.441,9.441,0,0,1-2.345-1.08C1673.263,256.446,1670.4,253.944,1667.383,251.63Z" transform="translate(-4.826 -32.15)" fill="#75a9cc"/>
      <path id="패스_49" data-name="패스 49" d="M1707.371,264.446c-.856-.1-1.26-.855-1.845-1.322-1.958-1.563-3.852-3.206-5.768-4.82-.455-.383-.909-.768-1.352-1.164-.094-.084-.3-.184-.083-.357a1.921,1.921,0,0,1,1.409.141c1.859,1.68,3.823,3.239,5.721,4.877.723.625,1.448,1.248,2.192,1.85a.823.823,0,0,1,.368.651A.89.89,0,0,1,1707.371,264.446Z" transform="translate(-19.035 -35.291)" fill="#5388ac"/>
      <path id="패스_50" data-name="패스 50" d="M1675.686,203.8v-1.866c-.031-.042-.083-.086-.082-.13.057-1.559-1.088-2.515-1.862-3.644-.823-1.2-1.719-2.35-2.53-3.559a1.72,1.72,0,0,1,.6-.618c.446-.223.606.158.79.4.886,1.185,1.749,2.389,2.605,3.595.3.415.792.7.859,1.273.089,2.489.028,4.977.038,7.465q.016,4.122,0,8.243c0,.4.082.842-.277,1.167-.219-.245-.128-.543-.129-.818-.011-2.483-.013-4.966-.017-7.449q0-1.329,0-2.658A1.257,1.257,0,0,1,1675.686,203.8Z" transform="translate(-7.134 -7.839)" fill="#255c81"/>
      <path id="패스_51" data-name="패스 51" d="M1711.731,264.1a2.333,2.333,0,0,1-1.1.313c-.527-.068-.8-.516-1.154-.816-2-1.687-4-3.362-5.984-5.063-.305-.261-.842-.539-.669-.938.2-.456.765-.243,1.19-.169,2.194,1.723,4.278,3.58,6.419,5.367A4.194,4.194,0,0,1,1711.731,264.1Z" transform="translate(-21.041 -35.553)" fill="#4f84a8"/>
      <path id="패스_52" data-name="패스 52" d="M1735.458,248.505c-.65-.148-.987-.73-1.458-1.107-1.792-1.432-3.521-2.943-5.265-4.435a4.634,4.634,0,0,1-.5-.588c-.108-.339-.105-.631.322-.739,1.857,1.564,3.688,3.159,5.586,4.671.615.49,1.057,1.236,1.907,1.415A2.276,2.276,0,0,1,1735.458,248.505Z" transform="translate(-32.26 -28.698)" fill="#1a5479"/>
      <path id="패스_53" data-name="패스 53" d="M1677.957,259.262a23.506,23.506,0,0,0-3.216-2.9c-1.5-1.341-3.075-2.595-4.615-3.89q-2.074-1.744-4.139-3.5a.568.568,0,0,0-.429-.141,2.976,2.976,0,0,1-.643-1.1c.562-.106.908.272,1.272.584,3.542,3.036,7.133,6.016,10.68,9.046.766.655,1.507,1.346,2.331,1.935.15.107.272.25.167.462A3.92,3.92,0,0,1,1677.957,259.262Z" transform="translate(-4.328 -31.366)" fill="#73a7ca"/>
      <path id="패스_54" data-name="패스 54" d="M1683.251,185.435a9.129,9.129,0,0,1,1.57,1.988c1.571,2.105,3.072,4.262,4.6,6.4a1.668,1.668,0,0,1,.4.823.112.112,0,0,1,.041.125c-.016.04-.031.06-.046.06a12.812,12.812,0,0,1-1.781-1.047,2.2,2.2,0,0,0-.419-.824q-2.328-3.16-4.6-6.365a7.251,7.251,0,0,1-.6-.707A1.848,1.848,0,0,1,1683.251,185.435Z" transform="translate(-12.072 -4.119)" fill="#42779c"/>
      <path id="패스_55" data-name="패스 55" d="M1670.694,195.134c.82.511,1.161,1.411,1.721,2.13.887,1.139,1.729,2.313,2.577,3.482.385.531.116,1.147.176,1.721-.842-.445-1.149-1.342-1.689-2.036-1.007-1.3-1.926-2.666-2.9-3.994a4.021,4.021,0,0,0-.559-.524A2.775,2.775,0,0,1,1670.694,195.134Z" transform="translate(-6.611 -8.366)" fill="#21597f"/>
      <path id="패스_56" data-name="패스 56" d="M1668.412,253.269a3.068,3.068,0,0,1,1.632.987c2.1,1.726,4.162,3.5,6.231,5.262a2.622,2.622,0,0,1,.863,1.088,23.785,23.785,0,0,1-7.153-5.415C1669.421,254.586,1668.934,253.911,1668.412,253.269Z" transform="translate(-5.855 -33.79)" fill="#78adcf"/>
      <path id="패스_57" data-name="패스 57" d="M1674.216,205.664q0,.7,0,1.4a11.679,11.679,0,0,1-1.9-2.42c-1.365-1.841-2.7-3.7-4.041-5.562a.549.549,0,0,0-.433-.282,1.612,1.612,0,0,1,.464-.62c.86.281,1.076,1.146,1.546,1.762,1.269,1.663,2.453,3.39,3.687,5.08A5.025,5.025,0,0,0,1674.216,205.664Z" transform="translate(-5.608 -9.7)" fill="#1a5479"/>
      <path id="패스_58" data-name="패스 58" d="M1716.041,263.139a1.505,1.505,0,0,1-.786.309c-.254.149-.453,0-.629-.143-2.3-1.93-4.6-3.861-6.875-5.829a.306.306,0,0,1-.07-.137.236.236,0,0,1,.087-.206,2.147,2.147,0,0,1,1.146-.2c1.233.947,2.388,1.988,3.576,2.989q1.547,1.3,3.091,2.612A1.071,1.071,0,0,1,1716.041,263.139Z" transform="translate(-23.192 -35.383)" fill="#477da1"/>
      <path id="패스_59" data-name="패스 59" d="M1728.657,256.35a2.28,2.28,0,0,1-.775.627c-.509.044-.784-.352-1.1-.621-1.64-1.384-3.261-2.791-4.917-4.155-.278-.229-.585-.439-.646-.837a.778.778,0,0,1,.7-.686,53.568,53.568,0,0,1,4.248,3.481A24.231,24.231,0,0,1,1728.657,256.35Z" transform="translate(-29.146 -32.658)" fill="#2f658a"/>
      <path id="패스_60" data-name="패스 60" d="M1724.717,247.781c.283.854,1.115,1.187,1.715,1.72,1.612,1.436,3.3,2.787,4.959,4.171a1.541,1.541,0,0,1-.607.621c-.592-.009-.886-.508-1.262-.823-1.65-1.383-3.3-2.772-4.95-4.149a1.25,1.25,0,0,1-.579-.8C1724.124,248.171,1724.229,247.791,1724.717,247.781Z" transform="translate(-30.368 -31.383)" fill="#275f84"/>
      <path id="패스_61" data-name="패스 61" d="M1719.1,262.172a1.249,1.249,0,0,1-.721.339c-.713-.012-1.032-.64-1.49-1.011-1.667-1.348-3.279-2.764-4.931-4.13-.257-.212-.543-.424-.431-.833a.812.812,0,0,1,.808-.386c1.559,1.162,2.972,2.5,4.484,3.718.606.488,1.178,1.016,1.781,1.508C1718.852,261.579,1719.182,261.756,1719.1,262.172Z" transform="translate(-24.873 -35.045)" fill="#42779c"/>
      <path id="패스_62" data-name="패스 62" d="M1684.744,256.67c-.235-.863-1.075-1.155-1.653-1.673-1.536-1.38-3.147-2.679-4.729-4.008-1.542-1.3-3.089-2.587-4.629-3.887-1.521-1.284-3.032-2.579-4.552-3.863-1.558-1.317-3.127-2.622-4.683-3.943a9,9,0,0,0-1.957-1.494,2.344,2.344,0,0,1,.93.135c1.292.882,2.415,1.969,3.609,2.968,2.234,1.869,4.444,3.764,6.67,5.642q4.47,3.774,8.936,7.552c.8.67,1.614,1.314,2.36,2.04a1.108,1.108,0,0,0,.929.3c.292-.009.583-.006.875-.011a1.809,1.809,0,0,1,1.182.2l.477.024A11.615,11.615,0,0,1,1684.744,256.67Z" transform="translate(-3.292 -27.031)" fill="#6599bd"/>
      <path id="패스_63" data-name="패스 63" d="M1723.7,249.109a19.641,19.641,0,0,0,2.6,2.321c1.315,1.2,2.728,2.3,4.1,3.438a1.53,1.53,0,0,1-.568.492c-.332.186-.535-.05-.748-.234-1.628-1.408-3.281-2.787-4.928-4.175-.439-.37-1-.691-1.042-1.38C1723.208,249.292,1723.329,249.042,1723.7,249.109Z" transform="translate(-29.98 -31.959)" fill="#2a6186"/>
      <path id="패스_64" data-name="패스 64" d="M1726.2,258.288a2.817,2.817,0,0,1-.935.652c-2-1.67-3.969-3.385-5.978-5.05-.235-.195-.495-.389-.5-.745a.856.856,0,0,1,.825-.536c1.285,1.007,2.517,2.077,3.746,3.149A24.074,24.074,0,0,1,1726.2,258.288Z" transform="translate(-28.077 -33.501)" fill="#346a8f"/>
      <path id="패스_65" data-name="패스 65" d="M1718.239,253.579c1.182,1.241,2.6,2.219,3.86,3.368.746.678,1.553,1.287,2.332,1.929a.618.618,0,0,1,.23.477l-.457.293a.788.788,0,0,1-.764-.271c-1.868-1.613-3.79-3.164-5.644-4.793-.173-.152-.391-.272-.389-.549C1717.6,253.738,1717.817,253.465,1718.239,253.579Z" transform="translate(-27.469 -33.914)" fill="#366d92"/>
      <path id="패스_66" data-name="패스 66" d="M1726.836,257.942c-.64-.129-.916-.725-1.369-1.089-1.562-1.259-3.085-2.566-4.612-3.867a6.148,6.148,0,0,1-.607-.7c.034-.385.286-.485.624-.473a15.288,15.288,0,0,0,2.529,2.281c1.3,1.182,2.7,2.256,4.059,3.376A1.377,1.377,0,0,1,1726.836,257.942Z" transform="translate(-28.719 -33.156)" fill="#31688d"/>
      <path id="패스_67" data-name="패스 67" d="M1673.633,192.125l.752-.639c.29-.1.444.1.576.287,1.089,1.488,2.2,2.963,3.233,4.488a.444.444,0,0,1,.056.225,1.294,1.294,0,0,1-1.027.82c-1.082-1.533-2.2-3.039-3.291-4.567A1.178,1.178,0,0,1,1673.633,192.125Z" transform="translate(-8.198 -6.759)" fill="#2b6287"/>
      <path id="패스_68" data-name="패스 68" d="M1712.7,264.122c-.714-.578-1.437-1.145-2.141-1.736q-2.606-2.19-5.2-4.4a3.616,3.616,0,0,1-.358-.406c.227-.273.521-.222.815-.172a19.657,19.657,0,0,1,2.927,2.311c1.322,1.05,2.586,2.171,3.871,3.266.292.25.743.456.527.993A.519.519,0,0,1,1712.7,264.122Z" transform="translate(-22.014 -35.58)" fill="#4d81a6"/>
      <path id="패스_69" data-name="패스 69" d="M1679.064,259.284a21.213,21.213,0,0,0-2.428-2.151c-1.547-1.372-3.154-2.676-4.737-4.007q-2.316-1.946-4.634-3.889a10.282,10.282,0,0,0-2.65-1.981,1.145,1.145,0,0,1-.388-.634c.856-.051,1.242.686,1.775,1.121,2.346,1.911,4.642,3.882,6.955,5.832q3.085,2.6,6.167,5.2a1.584,1.584,0,0,1,.406.655A.568.568,0,0,1,1679.064,259.284Z" transform="translate(-4.028 -30.887)" fill="#73a7ca"/>
      <path id="패스_70" data-name="패스 70" d="M1704.139,257.367l-.946,0h-1.23a11.449,11.449,0,0,0,2.019,1.843c1.8,1.551,3.636,3.068,5.452,4.6a3.308,3.308,0,0,1,.351.408.884.884,0,0,1-.625.156c-1.237-1.085-2.462-2.183-3.714-3.251-1.47-1.253-2.964-2.476-4.443-3.718a.885.885,0,0,1-.15-.265,6.618,6.618,0,0,1,3.9.072c0,.042,0,.085,0,.126C1704.556,257.543,1704.348,257.468,1704.139,257.367Z" transform="translate(-20.188 -35.371)" fill="#5186aa"/>
      <path id="패스_71" data-name="패스 71" d="M1710.936,256.749a.737.737,0,0,0,.345.577q3.184,2.68,6.374,5.353a.307.307,0,0,0,.07.032,1.208,1.208,0,0,1-.672.29q-2.791-2.35-5.584-4.7a7.782,7.782,0,0,1-1.471-1.376A.613.613,0,0,1,1710.936,256.749Z" transform="translate(-24.21 -35.245)" fill="#457a9e"/>
      <path id="패스_72" data-name="패스 72" d="M1719.78,261.974a29.349,29.349,0,0,0-2.825-2.506c-1.28-1.156-2.7-2.15-3.9-3.4a.5.5,0,0,1,.783-.292c.29.643.93.927,1.424,1.355,1.534,1.33,3.1,2.629,4.639,3.949a5.156,5.156,0,0,1,.507.579A1.113,1.113,0,0,1,1719.78,261.974Z" transform="translate(-25.553 -34.847)" fill="#40759a"/>
      <path id="패스_73" data-name="패스 73" d="M1717.011,254.393q3.075,2.622,6.154,5.239a4.175,4.175,0,0,0,.593.357,1.766,1.766,0,0,1-.778.47,49.718,49.718,0,0,0-3.966-3.46l-2.629-2.291C1716.493,254.4,1716.679,254.254,1717.011,254.393Z" transform="translate(-27.02 -34.258)" fill="#396f94"/>
      <path id="패스_74" data-name="패스 74" d="M1673.045,192.641c1.3,1.521,2.365,3.218,3.561,4.817.053.07.024.2.033.3,0,.269.113.588-.306.662a39.569,39.569,0,0,1-2.96-3.858c-.325-.408-.472-1-1.087-1.138Z" transform="translate(-7.605 -7.275)" fill="#285f84"/>
      <path id="패스_75" data-name="패스 75" d="M1676.949,189.454a1.378,1.378,0,0,1,.626-.468c.388-.2.58.091.757.334q1.878,2.562,3.712,5.155c.167.236.417.487.186.828a1.019,1.019,0,0,1-.816.051,14.946,14.946,0,0,1-1.937-2.486C1678.611,191.749,1677.829,190.564,1676.949,189.454Z" transform="translate(-9.658 -5.64)" fill="#356b8f"/>
      <path id="패스_76" data-name="패스 76" d="M1707.768,180.38a2.433,2.433,0,0,1,.94.042c.646.353.918,1.026,1.324,1.577.869,1.18,1.72,2.374,2.589,3.554v-.005c.058.444.3,1.084-.114,1.265-.506.222-.716-.456-.977-.811q-1.61-2.193-3.19-4.41C1708.083,181.232,1707.664,180.921,1707.768,180.38Z" transform="translate(-23.211 -1.897)" fill="#77accf"/>
      <path id="패스_77" data-name="패스 77" d="M1682.759,194.9c-1.3-2.074-2.844-3.979-4.231-5.994a.553.553,0,0,0-.468-.239,1.536,1.536,0,0,1,.646-.459c.391-.072.557.228.734.47,1.364,1.862,2.7,3.743,4.056,5.612.146.2.42.445.094.733A.735.735,0,0,1,1682.759,194.9Z" transform="translate(-10.147 -5.327)" fill="#366d92"/>
      <path id="패스_78" data-name="패스 78" d="M1682.214,186.232c.787.15.943.92,1.33,1.426,1.425,1.864,2.78,3.781,4.132,5.7.123.175.533.358.209.7a.314.314,0,0,1-.462-.013l-5.484-7.658Z" transform="translate(-11.855 -4.467)" fill="#3f7599"/>
      <path id="패스_79" data-name="패스 79" d="M1678.753,196.013q-1.646-2.273-3.289-4.547a1.267,1.267,0,0,0-.5-.47,1.845,1.845,0,0,1,.788-.66,7.833,7.833,0,0,1,1.443,1.795c.709.919,1.357,1.885,2.049,2.819.2.275.518.547.291.964C1679.3,196.1,1679.047,196.231,1678.753,196.013Z" transform="translate(-8.785 -6.258)" fill="#2f658a"/>
      <path id="패스_80" data-name="패스 80" d="M1704.987,180.3q2.14,3.028,4.281,6.055c.1.143.212.343.416.283.23-.068.133-.3.145-.472.016-.232.008-.465.01-.7.309.784-.034,1.562-.021,2.343-.438.061-.562-.309-.748-.566-1.484-2.059-2.974-4.114-4.453-6.178a1.037,1.037,0,0,0-1.1-.537c-.2.007-.4.005-.6.007s-.422-.006-.633.009a1.59,1.59,0,0,1-.887-.2l-.019-.029A10.855,10.855,0,0,1,1704.987,180.3Z" transform="translate(-20.421 -1.814)" fill="#75a9cc"/>
      <path id="패스_81" data-name="패스 81" d="M1684.2,194.668q-2.214-3.082-4.434-6.16a4.128,4.128,0,0,0-.557-.532.853.853,0,0,1,.467-.316c.672.284.882.973,1.273,1.491,1.37,1.819,2.693,3.674,4.033,5.516A.526.526,0,0,1,1684.2,194.668Z" transform="translate(-10.652 -5.091)" fill="#396f94"/>
      <path id="패스_82" data-name="패스 82" d="M1680.142,195.632c-.7-1.346-1.746-2.457-2.573-3.718a12.993,12.993,0,0,1-1.2-1.783l.329-.264c.465,0,.566.434.759.7,1.226,1.677,2.547,3.287,3.627,5.067A.651.651,0,0,1,1680.142,195.632Z" transform="translate(-9.401 -6.054)" fill="#31688d"/>
      <path id="패스_83" data-name="패스 83" d="M1706.685,257.721l.616-.02a20.826,20.826,0,0,1,2.776,2.239c1.485,1.211,2.923,2.479,4.387,3.715a1.162,1.162,0,0,0,.356.135,1.882,1.882,0,0,1-.942.334c-.249-.885-1.111-1.2-1.7-1.742-1.583-1.445-3.269-2.779-4.9-4.169C1707.078,258.047,1706.787,257.993,1706.685,257.721Z" transform="translate(-22.753 -35.725)" fill="#4a7fa3"/>
      <path id="패스_84" data-name="패스 84" d="M1722.962,249.982c.381.945,1.3,1.377,1.991,2.008,1.318,1.2,2.709,2.313,4.065,3.469a.855.855,0,0,0,.537.279.562.562,0,0,1-.345.3,9.022,9.022,0,0,1-2.179-1.673c-1.453-1.143-2.837-2.372-4.245-3.571a2.653,2.653,0,0,1-.3-.354C1722.441,250.077,1722.578,249.9,1722.962,249.982Z" transform="translate(-29.701 -32.347)" fill="#2c6388"/>
      <path id="패스_85" data-name="패스 85" d="M1713.361,185.6c-.28.007-.388-.194-.527-.392-1.122-1.585-2.256-3.16-3.386-4.739a1.243,1.243,0,0,1,.791.108c1.125,1.349,2.124,2.792,3.109,4.243Z" transform="translate(-23.953 -1.947)" fill="#7bafd2"/>
      <path id="패스_86" data-name="패스 86" d="M1713.961,184.917a20.782,20.782,0,0,1-3.109-4.243l.778.069c.422.127.532.53.749.84.486.694.988,1.376,1.468,2.074.093.2-.016.43.091.629Z" transform="translate(-24.568 -2.04)" fill="#7cb1d4"/>
      <path id="패스_87" data-name="패스 87" d="M1714.4,183.721a14.917,14.917,0,0,1-2.167-2.924,9.539,9.539,0,0,1,2.025.41c-.157.793.286,1.543.17,2.333A.112.112,0,0,1,1714.4,183.721Z" transform="translate(-25.172 -2.094)" fill="#81b4d7"/>
      <path id="패스_88" data-name="패스 88" d="M1703.889,228.213l-.466.458-.637.568-.617.473-.76.53-.774.47-.619.316-1.083.482-.774.292a1.749,1.749,0,0,0-.775.279,2,2,0,0,0-.928.179l-1.236.167a34.478,34.478,0,0,1-3.861-.072l-1.369-.286-1.841-.633a16.1,16.1,0,0,1-6.562-5.545c-.589-.208-.624-.81-.871-1.259a8.338,8.338,0,0,1-.328-.77,10.289,10.289,0,0,0-.493-1.167,4.113,4.113,0,0,1-.29-2.008l-.2-1.859q0-7.8,0-15.592c0-.519.019-1.039.029-1.558l.3-.662.933-.742.77-.177h4.8l.457.013a3.349,3.349,0,0,1,1.688,1.136.938.938,0,0,1,.391.894q.011,7.939.006,15.877a4.118,4.118,0,0,0,.06,1.082,4.146,4.146,0,0,1,.086.523,4.682,4.682,0,0,0,4.353,3.83,9.036,9.036,0,0,0,1.5-.063,4.566,4.566,0,0,0,.917-.3,4.652,4.652,0,0,0,.516-.309,4.111,4.111,0,0,0,.62-.461,5.99,5.99,0,0,0,.6-.63,3.228,3.228,0,0,0,.438-.77,4.057,4.057,0,0,0,.441-.935c.094-.232.089-.512.322-.677a.933.933,0,0,0,.135-.6q-.008-7.589-.023-15.178c.063-.668-.356-1.353.066-2.009l.415-.666a.529.529,0,0,0,.314-.3,3.256,3.256,0,0,1,1.766-.438c1.389.019,2.778,0,4.166.007a2.179,2.179,0,0,1,2.448,2.427q-.005,8.207-.022,16.414c0,.889-.26,1.739-.334,2.616l-.609,1.913a1.437,1.437,0,0,0-.319.739,2.791,2.791,0,0,0-.476.916l-.6.976-.6.831-.625.753Z" transform="translate(-10.655 -10.553)" fill="#f2f5f4"/>
      <path id="패스_89" data-name="패스 89" d="M1701.416,180.48l.925-.012a39.665,39.665,0,0,1,2.475,3.363c1.423,1.908,2.808,3.843,4.2,5.774a.943.943,0,0,0,.642.383c.073.5-.3.906-.284,1.392-1.148-1.366-2.123-2.861-3.171-4.3Q1703.8,183.784,1701.416,180.48Z" transform="translate(-20.434 -1.951)" fill="#6ba0c3"/>
      <path id="패스_90" data-name="패스 90" d="M1705.213,180.466a1.043,1.043,0,0,1,1.081.46c1.552,2.274,3.2,4.486,4.815,6.716a2.006,2.006,0,0,0,.347.3q0,.24-.01.48c-.137.512-.4.473-.7.146a17.194,17.194,0,0,1-1.061-1.435c-1.433-1.933-2.814-3.9-4.235-5.846C1705.278,181.057,1704.991,180.824,1705.213,180.466Z" transform="translate(-22.063 -1.95)" fill="#72a7ca"/>
      <path id="패스_91" data-name="패스 91" d="M1704.72,180.466a20.632,20.632,0,0,0,2.089,3.04c1.155,1.642,2.363,3.248,3.52,4.888.247.35.4.32.624.03a6.173,6.173,0,0,1-.155,1.389c-.364.065-.5-.223-.663-.443q-2.945-4.064-5.881-8.135c-.159-.222-.374-.459-.159-.769Z" transform="translate(-21.569 -1.95)" fill="#6fa4c7"/>
      <path id="패스_92" data-name="패스 92" d="M1703.682,180.468a12.093,12.093,0,0,0,1.773,2.7c1.47,2.121,3.017,4.189,4.54,6.274a2.905,2.905,0,0,0,.391.37c0,.057-.007.116-.011.173-.315.387-.541.139-.72-.126-1.891-2.82-4.043-5.456-5.917-8.289a4.735,4.735,0,0,1-.678-1.1Z" transform="translate(-21.153 -1.951)" fill="#6ea2c5"/>
      <path id="패스_93" data-name="패스 93" d="M1716.078,185.845l.028-.181a1.191,1.191,0,0,1,.113.8C1716.025,186.291,1716.121,186.052,1716.078,185.845Z" transform="translate(-26.856 -4.219)" fill="#7bafd2"/>
      <path id="패스_94" data-name="패스 94" d="M1689.118,256.747l-1.253.012c-3.781-3.256-7.613-6.452-11.42-9.678-3.233-2.739-6.487-5.452-9.69-8.226a2.165,2.165,0,0,0-1.434-.492c-.147-.048-.307-.084-.29-.294.891-.084,1.766.143,2.654.139.158.684.823.913,1.268,1.3,2.837,2.444,5.735,4.817,8.6,7.232,1.916,1.615,3.8,3.271,5.712,4.89,1.813,1.535,3.647,3.047,5.474,4.564A.793.793,0,0,1,1689.118,256.747Z" transform="translate(-4.378 -27.146)" fill="#5f94b8"/>
      <path id="패스_95" data-name="패스 95" d="M1664.665,238.071l.307.137a24.462,24.462,0,0,1,3.328,2.681c3.336,2.768,6.637,5.579,9.942,8.383,2.653,2.25,5.343,4.456,7.952,6.757.214.189.576.324.367.733a1.08,1.08,0,0,1-.905-.334c-2.04-1.755-4.1-3.485-6.152-5.229-2.227-1.9-4.44-3.81-6.674-5.7-2.194-1.853-4.43-3.658-6.6-5.539a10.189,10.189,0,0,1-2.038-1.907Z" transform="translate(-4.013 -27.148)" fill="#6599bd"/>
      <path id="패스_96" data-name="패스 96" d="M1678.128,240.321c.444.647.588,1.45,1.081,2.071-.812.119-1.1-.647-1.6-1.009-1.118-.81-2.136-1.76-3.183-2.666-.225-.2-.507-.376-.518-.734a.422.422,0,0,1,.148-.008,1.473,1.473,0,0,1,1.544.378c.632.563,1.283,1.108,1.934,1.651A.938.938,0,0,0,1678.128,240.321Z" transform="translate(-8.319 -27.059)" fill="#568baf"/>
      <path id="패스_97" data-name="패스 97" d="M1678.243,240.205c-.086.452-.284.232-.467.075-.744-.637-1.528-1.236-2.218-1.927a1.614,1.614,0,0,0-1.39-.494c.389-.263.832-.112,1.249-.157a1.245,1.245,0,0,1,1.282.326c.409.321.732.731,1.123,1.071Z" transform="translate(-8.433 -26.942)" fill="#5489ad"/>
      <path id="패스_98" data-name="패스 98" d="M1678.789,238.668a2.216,2.216,0,0,1-1-.7,1.785,1.785,0,0,0-1.4-.7,5,5,0,0,1,1.338-.3c.235-.061.452-.092.566-.334Z" transform="translate(-9.405 -26.51)" fill="#5186aa"/>
      <path id="패스_99" data-name="패스 99" d="M1709.316,210.191l.312-.624.306-.624a60.463,60.463,0,0,0,.638-1.56l.326-.621v10.293c-.434.09-.641-.286-.917-.481-.9-.639-1.682-1.429-2.56-2.1a1.042,1.042,0,0,1-.374-.663.665.665,0,0,1,.414-.652c.264-.128.343-.391.459-.627l.477-.779a.309.309,0,0,0,.152-.312l.447-.625Z" transform="translate(-22.897 -13.451)" fill="#144e74"/>
      <path id="패스_100" data-name="패스 100" d="M1706.817,193.185q-.034,1-.067,2.009l-.133,0c.258-1.308-.822-2-1.424-2.853-2.559-3.639-5.2-7.218-7.822-10.815a.738.738,0,0,1-.132-.512c.5-.141.708.245.928.545,1.163,1.586,2.311,3.183,3.461,4.779,1.482,2.059,2.956,4.123,4.444,6.178A1.974,1.974,0,0,0,1706.817,193.185Z" transform="translate(-18.598 -2.174)" fill="#6296ba"/>
      <path id="패스_101" data-name="패스 101" d="M1706.31,219.168c.254.733.979,1.037,1.5,1.476a21.022,21.022,0,0,0,2.253,1.808q0,1.014,0,2.028a.341.341,0,0,1-.487-.038c-1.478-1.239-3.019-2.4-4.388-3.768a.5.5,0,0,1-.048-.211,1.938,1.938,0,0,1,.571-.872c.136-.151.225-.345.408-.455A.19.19,0,0,1,1706.31,219.168Z" transform="translate(-22.062 -18.854)" fill="#175177"/>
      <path id="패스_102" data-name="패스 102" d="M1708.536,229.783a1.528,1.528,0,0,1-.2.758c-.717.008-1.061-.6-1.52-.972-1.5-1.229-2.969-2.5-4.459-3.745a2.834,2.834,0,0,1-.774-.863c0-.451.326-.655.646-.867a.447.447,0,0,1,.223.005c2.033,1.709,4.128,3.349,6.042,5.2Z" transform="translate(-20.504 -21.022)" fill="#21597e"/>
      <path id="패스_103" data-name="패스 103" d="M1709.114,228.575a12.615,12.615,0,0,1-2.216-1.75c-1.2-.962-2.358-1.982-3.526-2.985a3.017,3.017,0,0,1-.341-.414c-.106-.242.1-.385.18-.568a.923.923,0,0,1,.473-.425.343.343,0,0,1,.206.061c1.521,1.53,3.253,2.817,4.892,4.211.119.1.235.2.348.312Z" transform="translate(-21.124 -20.301)" fill="#1e567b"/>
      <path id="패스_104" data-name="패스 104" d="M1709.755,226.7c-.637-.047-.947-.59-1.377-.934-1.179-.945-2.329-1.927-3.48-2.906-.209-.178-.458-.353-.458-.682-.044-.35.117-.5.463-.47q2.164,1.8,4.326,3.611c.159.134.295.294.527.29Q1709.755,226.151,1709.755,226.7Z" transform="translate(-21.752 -19.98)" fill="#1a5479"/>
      <path id="패스_105" data-name="패스 105" d="M1702.111,211.594c-.05.006-.1.01-.148.012-.379.078-.478-.247-.635-.461q-2.461-3.355-4.875-6.743c-.2-.276-.456-.5-.648-.772-.065-.3.026-.61-.062-.909l-.221-.743.022-.2a13.456,13.456,0,0,1,2.33,2.965c1.554,2.053,3.041,4.158,4.556,6.241Z" transform="translate(-17.835 -11.27)" fill="#42779c"/>
      <path id="패스_106" data-name="패스 106" d="M1687.166,256.848c-.174-.6-.75-.84-1.161-1.191-3.221-2.754-6.489-5.45-9.726-8.185-2.922-2.468-5.818-4.967-8.734-7.442a16.989,16.989,0,0,1-1.969-1.736c1.208-.26,1.767.755,2.489,1.343,2.708,2.2,5.361,4.477,8.025,6.735,2.23,1.891,4.44,3.807,6.671,5.7,1.5,1.27,3.029,2.506,4.528,3.777.326.276.735.513.813,1Z" transform="translate(-4.617 -27.235)" fill="#6297ba"/>
      <path id="패스_107" data-name="패스 107" d="M1704.973,231.3a1.572,1.572,0,0,1-.6.633c-.292.177-.49-.014-.685-.184-2.086-1.822-4.234-3.571-6.334-5.378-.265-.228-.5-.474-.871-.2-.2.059-.419.154-.5-.161,0-1.283,0-2.565,0-3.846.045-.471.334-.261.459-.11a9.113,9.113,0,0,1,1.779,2.615c-.207.519.022.834.429,1.173q3.038,2.53,6.045,5.1A.669.669,0,0,1,1704.973,231.3Z" transform="translate(-18.043 -20.06)" fill="#2a6186"/>
      <path id="패스_108" data-name="패스 108" d="M1700.985,225.541q2.92,2.482,5.842,4.962c.276.233.577.434.867.651a1.568,1.568,0,0,1-.445.94c-.546.229-.809-.251-1.111-.5q-2.211-1.83-4.39-3.7a5.873,5.873,0,0,1-1.631-1.632.547.547,0,0,1,.005-.22,1.385,1.385,0,0,1,.664-.549A.207.207,0,0,1,1700.985,225.541Z" transform="translate(-19.856 -21.636)" fill="#255c81"/>
      <path id="패스_109" data-name="패스 109" d="M1696.059,229.338l.461-.154a20.481,20.481,0,0,1,3.086,2.456c1.258,1.037,2.5,2.1,3.738,3.156.25.213.586.392.384.819a.774.774,0,0,1-.475.279c-.442.227-.75-.061-1.036-.308-1.585-1.37-3.231-2.67-4.784-4.074-.49-.443-1.175-.684-1.457-1.349C1696.01,229.888,1695.891,229.6,1696.059,229.338Z" transform="translate(-18.034 -23.253)" fill="#2f658a"/>
      <path id="패스_110" data-name="패스 110" d="M1699.847,226.67a20.653,20.653,0,0,0,3.017,2.745c1.133,1.04,2.368,1.97,3.554,2.954a.725.725,0,0,0,.474.229,1.158,1.158,0,0,1-.474.78,21.638,21.638,0,0,1-2.764-2.225c-1.289-1.028-2.539-2.1-3.794-3.172-.352-.3-.89-.583-.324-1.155C1699.622,226.741,1699.668,226.571,1699.847,226.67Z" transform="translate(-19.495 -22.141)" fill="#275e84"/>
      <path id="패스_111" data-name="패스 111" d="M1702.36,237.813a3.28,3.28,0,0,1-1.768.152c-1.325-1.077-2.606-2.205-3.926-3.29a1.836,1.836,0,0,1-.572-.622l-.054-.441a1.231,1.231,0,0,1-.053-.585c.362-.43.651-.094.912.116,1.347,1.083,2.652,2.216,3.97,3.334A8.537,8.537,0,0,1,1702.36,237.813Z" transform="translate(-18.034 -24.841)" fill="#346a8f"/>
      <path id="패스_112" data-name="패스 112" d="M1702.349,237.071a15.013,15.013,0,0,1-2.6-2.028c-1.082-.872-2.127-1.789-3.185-2.69a.73.73,0,0,0-.51-.141,1.447,1.447,0,0,1,0-1.091,35.013,35.013,0,0,1,3.541,2.856c1.045.836,2.054,1.717,3.071,2.586a.81.81,0,0,0,.575.178A1.528,1.528,0,0,1,1702.349,237.071Z" transform="translate(-18.026 -24.099)" fill="#31688d"/>
      <path id="패스_113" data-name="패스 113" d="M1704.157,235.414c-.017-.322-.248-.474-.473-.662q-3.263-2.72-6.5-5.464a1.736,1.736,0,0,1-.233-.3c.153-.309.329-.341.6-.105,1.84,1.588,3.673,3.184,5.546,4.732a5.929,5.929,0,0,0,1.7,1.311C1704.672,235.2,1704.347,235.219,1704.157,235.414Z" transform="translate(-18.466 -23.051)" fill="#2c6388"/>
      <path id="패스_114" data-name="패스 114" d="M1696.184,235.008A37.154,37.154,0,0,1,1699.82,238c.308.264.831.384.861.923A4.925,4.925,0,0,1,1696.184,235.008Z" transform="translate(-18.119 -25.797)" fill="#376d92"/>
      <path id="패스_115" data-name="패스 115" d="M1696.026,219.043q0,.545,0,1.091-.015.329-.03.659a3.062,3.062,0,0,1-.121-.6q0-8.369.023-16.738c.216.286.068.62.123.928a1.142,1.142,0,0,1,.215.8c0,.6.018,1.208.009,1.812-.034.323.016.647,0,.97-.032.415.022.83,0,1.245s.02.832,0,1.248c-.032.463.021.926,0,1.388-.027.418.017.835,0,1.252-.038.276.019.578-.215.8q0,2.1-.006,4.2Q1696.022,218.575,1696.026,219.043Z" transform="translate(-17.973 -12.009)" fill="#457a9e"/>
      <path id="패스_116" data-name="패스 116" d="M1696.136,208.349v-1.872c.291-.088.437.124.567.3,1.725,2.393,3.487,4.759,5.168,7.183a.334.334,0,0,1,.039.149l-.625.78c-.319.215-.49-.038-.633-.236C1699.139,212.561,1697.559,210.511,1696.136,208.349Z" transform="translate(-18.102 -13.317)" fill="#3c7297"/>
      <path id="패스_117" data-name="패스 117" d="M1701.91,213.523a24.764,24.764,0,0,1-2.478-3.254c-.988-1.292-1.909-2.635-2.854-3.958a1.165,1.165,0,0,0-.443-.424q0-.391,0-.783c.8.263.994,1.069,1.424,1.644,1.526,2.037,2.991,4.119,4.483,6.182a.7.7,0,0,0,.189.131Z" transform="translate(-18.102 -12.725)" fill="#3f7599"/>
      <path id="패스_118" data-name="패스 118" d="M1696.137,209.816a11.371,11.371,0,0,1,1.9,2.41c.945,1.251,1.855,2.53,2.768,3.806.129.18.249.325.483.329,0,.052,0,.1,0,.155a1.006,1.006,0,0,0-.463.47l-.155,0a9.137,9.137,0,0,1-1.538-1.915c-.855-1.135-1.644-2.318-2.5-3.45a5.861,5.861,0,0,1-.485-.874Z" transform="translate(-18.101 -14.785)" fill="#396f94"/>
      <path id="패스_119" data-name="패스 119" d="M1696.14,214.923v-1.249c.253-.083.4.085.517.25,1.206,1.75,2.569,3.391,3.689,5.2l-.31.467-.155,0c-.3.206-.522,0-.663-.2A31.737,31.737,0,0,1,1696.14,214.923Z" transform="translate(-18.099 -16.462)" fill="#346b8f"/>
      <path id="패스_120" data-name="패스 120" d="M1696.14,215.907q1.471,2.008,2.939,4.018c.213.292.39.612.8.655l-.628.779h-.154a.159.159,0,0,1-.206-.041c-.812-1.408-1.946-2.6-2.752-4.009Z" transform="translate(-18.098 -17.447)" fill="#31688d"/>
      <path id="패스_121" data-name="패스 121" d="M1700.345,218.176a19.187,19.187,0,0,1-2.165-2.776,30.1,30.1,0,0,0-2.041-2.676q0-.624,0-1.247a41.35,41.35,0,0,1,2.847,3.834,17.151,17.151,0,0,1,1.68,2.4Z" transform="translate(-18.099 -15.511)" fill="#366d92"/>
      <path id="패스_122" data-name="패스 122" d="M1696.141,221.38v-.78c.257-.073.379.117.5.274.63.814,1.21,1.664,1.8,2.505a.364.364,0,0,1,.029.492c0,.052,0,.1,0,.155l-.312.157A11.594,11.594,0,0,0,1696.141,221.38Z" transform="translate(-18.095 -19.491)" fill="#2c6388"/>
      <path id="패스_123" data-name="패스 123" d="M1698.473,222.916a20.583,20.583,0,0,0-2.333-3.271V218.4a13.3,13.3,0,0,1,1.845,2.33,18.239,18.239,0,0,1,1.113,1.72C1698.985,222.729,1698.7,222.786,1698.473,222.916Z" transform="translate(-18.096 -18.535)" fill="#2f658a"/>
    </g>
  </g>
</svg>
