<svg xmlns="http://www.w3.org/2000/svg" xmlns:xlink="http://www.w3.org/1999/xlink" width="100" height="100" viewBox="0 0 100 100">
  <defs>
    <clipPath id="clip-path">
      <rect id="사각형_301579" data-name="사각형 301579" width="56" height="55.999" fill="none"/>
    </clipPath>
  </defs>
  <g id="car_logo_lancia" transform="translate(-225 -160)">
    <g id="W_100_H_100" data-name="W 100 H 100" transform="translate(225 160)" fill="#f9f9f9" stroke="#f0f0f0" stroke-width="1" opacity="0">
      <rect width="100" height="100" stroke="none"/>
      <rect x="0.5" y="0.5" width="99" height="99" fill="none"/>
    </g>
    <g id="lancia" transform="translate(236.5 171.5)">
      <g id="그룹_393535" data-name="그룹 393535" transform="translate(10.5 12.5)" clip-path="url(#clip-path)">
        <path id="패스_792999" data-name="패스 792999" d="M36.422,64.423c-.557-.21-4.613-2.186-5.708-2.781A39.5,39.5,0,0,1,14,45.239a39.084,39.084,0,0,1-4.738-16.96c-.11-1.509-.055-6.492.09-8.25l.064-.768,1.1-.843a48.457,48.457,0,0,1,12.988-7.128,44.549,44.549,0,0,1,8.214-1.881,52.739,52.739,0,0,1,9.45-.045,39.769,39.769,0,0,1,13.144,3.859A49.231,49.231,0,0,1,63.5,19.07l.35.287.11,1.967a76.284,76.284,0,0,1-.145,8.955,40.258,40.258,0,0,1-1.6,7.856,28.469,28.469,0,0,1-2.248,5.686,39.313,39.313,0,0,1-7.616,10.605c-3.7,3.689-7.243,6.075-13.312,8.952-2.252,1.067-2.4,1.128-2.621,1.045M16.968,45c-.107-.175-.5-.926-.871-1.67A37.949,37.949,0,0,1,12.29,30.245a77.076,77.076,0,0,1-.164-8.346l.083-1.1-.268-.375c-.334-.464-.334-.5,0-.567a2.5,2.5,0,0,0,.743-.423A48.262,48.262,0,0,1,17.8,16.074c2.353-1.273,2.534-1.337,7.684-2.764,2.057-.57,3.806-.994,5.133-1.246.871-.165,1.27-.332.792-.332a.431.431,0,0,1-.317-.1c-.1-.162.23-.347,1.107-.62a5.427,5.427,0,0,0,.9-.336c.174-.167-.462-.21-1.562-.105A38.571,38.571,0,0,0,14.31,17.042l-2.572,1.72-1.134.758.39.36c.356.329.383.388.318.686-.113.507-.069,6.208.059,7.762a39.612,39.612,0,0,0,1.8,9.209,24.956,24.956,0,0,0,3.626,7.5c.35.423.438.4.17-.036m41.594-2.188a26.884,26.884,0,0,0,2.428-6.284A7.642,7.642,0,0,0,61.326,34a17.288,17.288,0,0,0-.486,1.679,36.565,36.565,0,0,1-2.9,8.046c-.392.792-.626,1.331-.519,1.2s.618-1.081,1.136-2.111M20.784,24.3c0-.051.083-.137.183-.191a1.534,1.534,0,0,0,.406-.46,12.323,12.323,0,0,1,.953-1.176,18.886,18.886,0,0,1,6.483-4.9A18.034,18.034,0,0,1,32.2,16.38a9.908,9.908,0,0,0,1.386-.436.609.609,0,0,1,.336-.094c.234-.007.231-.014-.075-.165s-.376-.148-1.343.052a19.059,19.059,0,0,0-9.677,5.334,17.241,17.241,0,0,0-2.354,3.035,4.5,4.5,0,0,1-.351.6c-.091.113-.1.168-.024.168s.111.071.111.158.117,0,.288-.239a1.9,1.9,0,0,0,.288-.49" transform="translate(-8.524 -8.523)" fill="#e6e7e8"/>
        <path id="패스_793000" data-name="패스 793000" d="M34.99,63.6a58.91,58.91,0,0,1-8.106-4.429A39.344,39.344,0,0,1,13.658,44.254,38.347,38.347,0,0,1,9.9,32.594a42.932,42.932,0,0,1-.489-8.722c.035-2.005.088-3.832.119-4.06.052-.388.115-.462.98-1.152a45.136,45.136,0,0,1,15.306-7.875,39.218,39.218,0,0,1,10.8-1.459A39.334,39.334,0,0,1,46.741,10.6a45.364,45.364,0,0,1,16.9,8.806c.3.243.364,7.595.092,10.366a39.92,39.92,0,0,1-1.69,8.487A34.8,34.8,0,0,1,57.2,48.287a34.48,34.48,0,0,1-4.889,6,41.37,41.37,0,0,1-11.557,8.095A42.042,42.042,0,0,1,36.6,64.3a17.046,17.046,0,0,1-1.612-.7m4.051-1.429a19.9,19.9,0,0,0,4.189-2.451L46.4,57.987l5.3-3.877,7.1-9.6,3.738-10.443.679-8.505-.391-5.642-5.585-4.21-6.867-3.252a41.564,41.564,0,0,0-9.444-2.4,49.579,49.579,0,0,0-8.028-.1,37.291,37.291,0,0,0-10.7,2.564,47.8,47.8,0,0,0-9.239,5.064c-2.489,1.668-2.592,1.75-2.656,2.1-.036.2-.095,1.481-.131,2.854-.212,8.1,1.15,15.008,4.13,20.958A40.858,40.858,0,0,0,36.547,63.248a9.174,9.174,0,0,0,2.494-1.077" transform="translate(-8.531 -8.529)" fill="#acafb2"/>
        <path id="패스_793001" data-name="패스 793001" d="M35.027,59.92a41.291,41.291,0,0,1-11.134-7.755,35.379,35.379,0,0,1-6.509-8.7c-3.276-5.973-4.537-12.615-3.973-20.933l.061-.9.92-.694a38.228,38.228,0,0,1,13.1-6.63,32.167,32.167,0,0,1,9.162-1.148,31.832,31.832,0,0,1,8.2.9,36.768,36.768,0,0,1,11.992,5.32,20.717,20.717,0,0,1,3.157,2.4c.048.114.091,1.976.1,4.14a32.419,32.419,0,0,1-.209,5.516A33.448,33.448,0,0,1,54.251,46.5,36.738,36.738,0,0,1,41.7,58.158c-1.021.585-4.6,2.495-4.845,2.582a9.824,9.824,0,0,1-1.823-.82" transform="translate(-8.665 -8.661)" fill="#01336b"/>
        <path id="패스_793002" data-name="패스 793002" d="M38.982,54.141a19.858,19.858,0,0,0,9.64-3.761,24.952,24.952,0,0,0,3.455-3.332,20.312,20.312,0,0,0,4.066-8.586,13.31,13.31,0,0,0,.267-3.694,15.613,15.613,0,0,0-.209-3.549,19.793,19.793,0,0,0-9.73-13.593A20.43,20.43,0,0,0,40.1,15.381a24.287,24.287,0,0,0-5.852-.1,19.789,19.789,0,0,0-12.206,6.587,19.435,19.435,0,0,0-4,18.275A19.792,19.792,0,0,0,28.4,52.337a21.5,21.5,0,0,0,6.285,1.8,26.163,26.163,0,0,0,4.3,0M34.014,51.7A17.462,17.462,0,0,1,20.77,41.122a15.823,15.823,0,0,1-1.216-5.861,15.518,15.518,0,0,1,.452-4.666A17.2,17.2,0,0,1,33.472,17.7c1.472-.285,1.575-.275,1.753.153a27.712,27.712,0,0,1,1.138,6.171c.154.293-.041,2.514.6,2.243.122-.076.184-.3.238-.861.388-4.01,1.014-7.335,1.469-7.8.117-.123.259-.12,1.119.019a17.007,17.007,0,0,1,9.379,4.868,15.657,15.657,0,0,1,3.065,4.133,16.559,16.559,0,0,1,1.992,8.648,15.509,15.509,0,0,1-.6,3.986A17.293,17.293,0,0,1,40.722,51.492c-.6.132-1.3.268-1.554.3l-.458.063-.154-.365a32.767,32.767,0,0,1-1.281-7.082c-.06-.686-.13-1.323-.156-1.415-.049-.171-.368-.232-.458-.088-.026.044-.159,1.059-.294,2.256-.406,3.59-.959,6.372-1.311,6.6-.154.1-.126.1-1.042-.055" transform="translate(-8.802 -8.73)" fill="#e6e7e8"/>
        <path id="패스_793003" data-name="패스 793003" d="M35.682,53.936c-.079-.018-.662-.076-1.3-.127a13.184,13.184,0,0,1-3.572-.851,4.527,4.527,0,0,1-1.347-.746,3.94,3.94,0,0,1,.8.262,10.729,10.729,0,0,0,4.456.939,6.847,6.847,0,0,1,2.151.234c.287.129.344.19.239.256a4.324,4.324,0,0,1-1.431.034M37.41,53.9c-.122-.077-.138-.554-.115-3.333.014-1.783.129-3.627.123-4.105a10.267,10.267,0,0,0-.115-2.447c.091-.027.2.079.216.3.069,1.089.126,5.9.452,7.835.2,1.2.488,1.279,1.844,1.346a11.782,11.782,0,0,0,4.349-.934,6.888,6.888,0,0,1,1.087-.355,4.875,4.875,0,0,1-1.725.868,15.3,15.3,0,0,1-3.959.812c-1.512.126-1.971.128-2.157.011" transform="translate(-9.223 -9.725)" fill="#8d9093"/>
        <path id="패스_793004" data-name="패스 793004" d="M37.583,26.174a6.832,6.832,0,0,0,.115-2.495,58.956,58.956,0,0,1-.034-7.305c.206-.207,2.527.042,4.1.44a15.892,15.892,0,0,1,3.982,1.5,7.024,7.024,0,0,1,1.992,1.291,11.174,11.174,0,0,1-1.376-.63,14.8,14.8,0,0,0-4.33-1.535c-.781-.162-1.75-.379-2.154-.483-.946-.241-1.188-.237-1.476.032-.21.194-.247.341-.331,1.271a6.664,6.664,0,0,0,.028,1.811,19.253,19.253,0,0,1-.516,6.1" transform="translate(-9.502 -8.769)" fill="#8d9093"/>
        <path id="패스_793005" data-name="패스 793005" d="M34.9,63.513a60.217,60.217,0,0,1-7.675-4.162A38.386,38.386,0,0,1,14.859,46.136a38.685,38.685,0,0,1-5.2-17.364c-.118-1.606-.058-7.945.082-8.778s.2-.209.115,1.2c-.527,8.61,1.005,16.9,4.248,22.971a38.516,38.516,0,0,0,11.6,13.554,74.214,74.214,0,0,0,9,5.273c1.553.79,1.924.943,2.184.9a11.283,11.283,0,0,0,1.535-.6,29.276,29.276,0,0,0,5.742-3.208c.239-.208,1.323-1.007,2.406-1.778s2.476-1.824,3.094-2.341a38.834,38.834,0,0,0,11.8-17.647,48.131,48.131,0,0,0,1.92-13.96,32.072,32.072,0,0,0-.242-4.68c-.049-.129-.012-.165.178-.165.215,0,.247.048.3.456a71.86,71.86,0,0,1,.149,7.274,39.974,39.974,0,0,1-1.782,10.874,28.625,28.625,0,0,1-2.249,5.716,40.689,40.689,0,0,1-8.619,11.6,41.582,41.582,0,0,1-10.329,6.848c-1.739.87-4.16,2.038-4.2,2.029-.006,0-.766-.36-1.69-.8m-.07-1.689a44.25,44.25,0,0,1-6.99-4.475c-.425-.391-.422-.389,1.067.54,1.437.9,3.337,1.938,5.537,3.034l2.086,1.04,1.32-.656a48.169,48.169,0,0,0,9.779-6.043,38.148,38.148,0,0,0,9.66-11.75,36.039,36.039,0,0,0,4.09-17.572,44.449,44.449,0,0,0-.294-5.335,40.165,40.165,0,0,0-6.029-4.2,48.781,48.781,0,0,0-7.776-3.475c-.816-.287-1.506-.545-1.535-.574a18.63,18.63,0,0,1,3.747.882,34.057,34.057,0,0,1,7.186,3.344c.994.618,3.844,2.692,4.684,3.409.2.173.232.313.322,1.513a76.593,76.593,0,0,1-.15,8.574,46.4,46.4,0,0,1-2.379,10.16,48.436,48.436,0,0,1-3,6.188c-.717,1.18-2.583,3.865-3.4,4.893a39.89,39.89,0,0,1-6.65,6.215c-1.152.725-6.031,3.238-8.058,4.15a13.5,13.5,0,0,0-1.406.706,1.878,1.878,0,0,1-.316.2c-.018,0-.69-.344-1.494-.762m1.988-9.115c-.123-.078-.139-.432-.112-2.42.035-2.57.2-3.508.211-1.228.012,1.833.124,2.977.3,3.11.2.146.287.536.125.536a.879.879,0,0,0-.255.047.357.357,0,0,1-.272-.045m-1.775-.1c-.077-.126.718-.126.911,0,.1.067,0,.093-.354.095a1.075,1.075,0,0,1-.557-.095m-12.039-30.1A10.87,10.87,0,0,1,24.845,20.6,18.442,18.442,0,0,1,30.65,17.32c1.854-.589,5.306-1.226,5.306-.98,0,.057-.015.1-.036.1a24.733,24.733,0,0,0-3.321.767,22.616,22.616,0,0,0-7.1,3.568,20.984,20.984,0,0,1-2.494,1.731m13.79-1.461a35.286,35.286,0,0,1-.092-4.461l.083-.288,1.048.033a16.042,16.042,0,0,1,3.826.646,8.655,8.655,0,0,1,2.066.841,1.253,1.253,0,0,1-.455-.095c-1.032-.314-4.74-1.19-5.274-1.246-.506-.053-.582-.039-.639.12a3.709,3.709,0,0,1-.213.448,7.971,7.971,0,0,0-.217,2.35c-.043,1.33-.093,1.926-.133,1.651M12.654,30.814c-.192-1.554-.284-2.759-.348-4.585a29.47,29.47,0,0,1,.227-5.3c.067-.066.164.008.3.227a1.09,1.09,0,0,1,.151.853,46.522,46.522,0,0,0-.237,8.1c.056.681.15,2.543-.095.707M61.66,18.578a10.028,10.028,0,0,1-1.812-1.39c-.009-.154.22-.055.885.383a9.426,9.426,0,0,1,1.8,1.555,9.716,9.716,0,0,1-.87-.548" transform="translate(-8.538 -8.632)" fill="#5f6269"/>
        <path id="패스_793006" data-name="패스 793006" d="M34.405,63.271a46.039,46.039,0,0,1-11.748-7.411A40.506,40.506,0,0,1,11.648,39.4,45.264,45.264,0,0,1,9.467,22.435,18.569,18.569,0,0,1,9.7,19.492a23.824,23.824,0,0,1,2.872-2.278,45.954,45.954,0,0,1,9.956-5.264,40.567,40.567,0,0,1,25.9-.782A46.689,46.689,0,0,1,62.475,18.6a8.954,8.954,0,0,0,1.022.748c.246.088.322,1.442.319,5.73a37.5,37.5,0,0,1-.579,8.058,36.6,36.6,0,0,1-1.247,5.14,35.508,35.508,0,0,1-4.865,10.065A38.633,38.633,0,0,1,41.657,61.874a44.114,44.114,0,0,1-5.066,2.34,18.628,18.628,0,0,1-2.186-.943m4.128-.351a13.888,13.888,0,0,0,2.788-1.531,19.089,19.089,0,0,1,1.632-1.064,43.42,43.42,0,0,0,9.4-7.2,39.168,39.168,0,0,0,6.358-8.72c3.054-5.562,4.5-12.035,4.522-20.243,0-1.529-.027-3.15-.07-3.6-.077-.8-.087-.822-.407-1.007-7.091-5.27-13.1-8.424-21.77-9.7a53.611,53.611,0,0,0-8.874,0,35.687,35.687,0,0,0-9.927,2.534,52.266,52.266,0,0,0-8.78,4.775c-1.134.751-2.326,1.526-2.649,1.721l-.587.356-.059.641c-.141,1.535-.182,5.983-.07,7.693.53,8.169,2.466,14.152,6.578,20.338a35.774,35.774,0,0,0,4.745,5.765C24.887,57.2,28.02,59.334,34.341,62.5c2.042,1.023,2.345,1.147,2.649,1.083.125-.027.819-.325,1.543-.663M34.75,61.827a47.767,47.767,0,0,1-7.569-4.87,32.407,32.407,0,0,1-3.416-3.117c0-.054.184.058.408.25a48.3,48.3,0,0,0,6.787,4.746c1.621.92,5.318,2.787,5.521,2.787s4.025-1.914,5.512-2.759A38.053,38.053,0,0,0,57.268,43.253a33.35,33.35,0,0,0,3.425-10.025,52.534,52.534,0,0,0,.54-9.329c-.124-2.26.448-2.864-1.419-4.274A41.993,41.993,0,0,0,43.638,12.03c-.916-.221-1.758-.438-1.87-.484-.349-.141.581-.112,1.781.055a32.02,32.02,0,0,1,13.938,5.253,45.178,45.178,0,0,1,4.077,3.087l.239.255v4.189a35.6,35.6,0,0,1-.628,8.517,39.561,39.561,0,0,1-4.7,13.048c-.6,1.021-2.215,3.406-3.336,4.925a41.583,41.583,0,0,1-6.661,6.566c-.693.494-5.91,3.155-8.2,4.184a6.966,6.966,0,0,0-1.467.788c-.163.3-.579.185-2.052-.585M12.928,28.959l.046,1.124a32.715,32.715,0,0,0,3,11.892,41.907,41.907,0,0,0,3.789,6.314L21,50.013a33.31,33.31,0,0,0,2.326,2.543c1,1,1.688,1.715,1.535,1.581a35.333,35.333,0,0,1-8.569-11.075,36.355,36.355,0,0,1-3.813-12.856,70.01,70.01,0,0,1-.053-9.423c.431-.752,5.069-3.846,7.409-4.94a21.98,21.98,0,0,1,2.9-1.125,5.369,5.369,0,0,1-1.036.559,40.565,40.565,0,0,0-6.328,3.805c-.475.337-1.241.84-1.7,1.117a3.419,3.419,0,0,0-.84.605Zm12.36,25.494c-.119-.153-.116-.155.037-.037s.211.2.131.2a.627.627,0,0,1-.168-.167" transform="translate(-8.531 -8.532)" fill="#8d9093"/>
        <path id="패스_793007" data-name="패스 793007" d="M34.84,59.727c-6.687-3.459-10.913-6.877-14.515-11.74a34.213,34.213,0,0,1-6.341-14.294A32.474,32.474,0,0,1,13.4,25.97c0-2.031.036-3.844.074-4.029.06-.29.218-.443,1.146-1.118A41.551,41.551,0,0,1,23.287,15.8,35.6,35.6,0,0,1,38.3,13.211c7.733.441,13.737,2.674,20.474,7.613,1.157.848,1.2.9,1.131,1.086-.042.11-.069.11-.158,0a4.592,4.592,0,0,0-.541-.436c-.238-.17-.8-.581-1.26-.915s-1-.706-1.2-.827-.605-.377-.894-.567a30.26,30.26,0,0,0-3.409-1.819,29.167,29.167,0,0,0-3.549-1.654c-.158-.038-.677-.206-1.151-.373a33.933,33.933,0,0,0-10.985-1.76,33.979,33.979,0,0,0-13.037,2.5c-1.11.458-3.6,1.7-4.642,2.314a35.11,35.11,0,0,0-4.994,3.5c-.245.328-.337,1.482-.345,4.351a35.076,35.076,0,0,0,2.684,14.25A39.748,39.748,0,0,0,27.053,54.419a19.3,19.3,0,0,0,2.226,1.723c.25.158.79.514,1.2.791a4.234,4.234,0,0,0,.875.5c.071,0,.13.043.13.1s.188.194.418.312a21.862,21.862,0,0,1,2.074,1.163,2.285,2.285,0,0,0,.69.347.287.287,0,0,1,.221.093,1.676,1.676,0,0,0,.462.286c.222.105.469.232.548.279s.349.182.6.3.432.251.4.3a.171.171,0,0,1-.121.087c-.037,0-.909-.437-1.937-.969m.288-5.031c-.132-.023-.715-.113-1.3-.2a7.53,7.53,0,0,1-1.314-.288,1.442,1.442,0,0,0-.528-.128,16.462,16.462,0,0,1-3.273-1.139c-.089-.043-.333-.159-.545-.258s-.658-.342-.994-.542a6.421,6.421,0,0,0-.658-.363A11.839,11.839,0,0,1,24.933,50.6a2.136,2.136,0,0,0-.47-.359,1.213,1.213,0,0,1-.351-.264,14.408,14.408,0,0,1-1.89-1.923,3.246,3.246,0,0,1,.747.63,19.821,19.821,0,0,0,20.024,4.531,19.185,19.185,0,0,0,10.094-7.771,19.274,19.274,0,0,0,2.32-16.98A20.221,20.221,0,0,0,45.3,16.883c-.344-.171-.571-.312-.5-.313a17.722,17.722,0,0,1,2.564,1.241.271.271,0,0,0,.21.1,1.337,1.337,0,0,1,.5.266,4.988,4.988,0,0,0,.628.407,24.536,24.536,0,0,1,4.43,4.267,19.565,19.565,0,0,1,3.923,13.671c-.073.923-.18,1.873-.236,2.111s-.15.648-.209.911a22.96,22.96,0,0,1-1.447,4.029,19.815,19.815,0,0,1-3.177,4.642,20.1,20.1,0,0,1-7.5,5.162,16.765,16.765,0,0,1-7,1.327c-1.162.017-2.219.014-2.35-.009m3.3-3.349a33.9,33.9,0,0,1-1.289-7.892c0-.669.154-.8.44-.359a5.943,5.943,0,0,1,.422,2.085,4.785,4.785,0,0,0,.093.863c.051.225.184,1.113.3,1.974a10.714,10.714,0,0,0,.824,3.387c.124.138.115.162-.08.214-.434.117-.564.067-.7-.272m-4.4.16c-.026-.043.078-.061.235-.038a.643.643,0,0,1,.283.078c0,.073-.47.036-.518-.041m-.512-.075a.191.191,0,0,1,.183-.009c.076.031.054.054-.058.059s-.157-.019-.126-.05m-1.178-.242a16.886,16.886,0,0,1-3.214-1.176,17.187,17.187,0,0,1,4.018-32.3c1.243-.254,1.821-.232,1.864.073.023.164-.007.2-.122.157a10.281,10.281,0,0,0-2.4.394c-.21.07-.686.223-1.055.339a21.764,21.764,0,0,0-3.959,1.951,17.009,17.009,0,0,0-7.22,10.806,20.393,20.393,0,0,0-.2,5.161,16.24,16.24,0,0,0,1.6,5.429,20.213,20.213,0,0,0,1.813,2.954,23.139,23.139,0,0,0,2.833,2.892,17.754,17.754,0,0,0,2.158,1.5.574.574,0,0,1,.281.192.569.569,0,0,0,.312.192.978.978,0,0,1,.4.185A1.866,1.866,0,0,0,30,50.2a1.362,1.362,0,0,1,.381.145,14.558,14.558,0,0,0,2.011.706c.317.09.661.2.768.246.339.147-.063.093-.816-.108m8.1-10.964c-.335-.146-1.364-1.067-1.283-1.149.029-.029.219.083.42.249a1.987,1.987,0,0,0,1.776.422c.991-.257,1.569-1,1.93-2.5a6.331,6.331,0,0,1,.274-.943c.035-.039.162,0,.282.082.194.136.215.222.2.788a2.791,2.791,0,0,1-.15.878,1.2,1.2,0,0,0-.126.456.392.392,0,0,1-.189.312.657.657,0,0,0-.245.411,1.9,1.9,0,0,1-1.145,1,3.314,3.314,0,0,1-1.738-.009m-15.928-.056a6.413,6.413,0,0,1-2.192-.187c-.158-.132-.158-.143.01-.21.1-.038,1.176-.072,2.4-.076,1.742,0,2.242-.035,2.326-.136a8.259,8.259,0,0,0,.376-1.439,7.912,7.912,0,0,1,.369-1.41,1.717,1.717,0,0,1,.764-.072l.662.028.029.3c.027.277.012.294-.253.255-.469-.07-.647.1-.819.784a5.872,5.872,0,0,0-.157.795,2.271,2.271,0,0,1-.37,1.091c-.238.3-.717.338-3.141.281m5.191.031c-.286-.076-.548-.337-.443-.442A15.421,15.421,0,0,1,31.5,39.65a19.5,19.5,0,0,0,2.264-.092.587.587,0,0,0,.118-.41c0-.331-.007-.337-.36-.306l-.359.031-.022-3.6a22.465,22.465,0,0,1,.071-3.44c.05.087.238.593.417,1.125.294.878.315,1.013.229,1.473a17.507,17.507,0,0,0-.041,2.367l.054,1.861.294.3c.387.4.4.841.034,1.081-.226.148-.526.173-2.279.187-1.11.01-2.106-.006-2.211-.034m6.931-.039c-.24-.14-.208-.28.066-.28a.4.4,0,0,0,.288-.086c.038-.062.157-7.828.151-9.814,0-.119.1-.171.359-.192.328-.027.362-.057.39-.342.03-.318.08-.362.267-.238a1.135,1.135,0,0,1,.325.582,1.876,1.876,0,0,1-.335.494l-.336.4.045,2.75c.053,3.24.056,2.737-.027,4.8-.064,1.593-.076,1.671-.293,1.847a.837.837,0,0,1-.9.079m7.338-.088c-.171-.1-.311-.234-.311-.287a9.429,9.429,0,0,1,2.146-.1c2.31,0,2.413-.022,2.345-.5-.022-.16-.1-.23-.294-.251s-.264-.086-.264-.21c0-.155.184-1.143.337-1.8.046-.2.1-.216.816-.216h.766v.333c0,.314-.015.33-.267.28-.413-.083-.675.2-.793.848-.092.5-.083.574.114.838a.6.6,0,0,1,.124.647c-.139.561-.305.6-2.487.6-1.745,0-1.947-.015-2.231-.189m5.732-.017-.335-.209.239-.07a10.965,10.965,0,0,1,1.5-.079c1.358-.011,1.378-.018,1.378-.546,0-.3.128-.294.377.021.263.334.251.5-.059.821-.256.268-.263.269-1.511.269-1.119,0-1.289-.023-1.589-.209M24.14,38.8c-.026-.066-.035-2.085-.021-4.485l.025-4.365.364-.03c.287-.024.384-.082.456-.27.05-.131.134-.212.187-.18.181.112.1.454-.193.784l-.29.329.013,2.9c.006,1.594.042,3.438.081,4.1.048.827.038,1.219-.034,1.268-.168.113-.538.084-.588-.046m7.273,0a15.418,15.418,0,0,1-.436-1.747c-.193-.9-.608-2.818-.924-4.27s-.6-2.87-.64-3.152c-.066-.494-.061-.511.125-.411a.815.815,0,0,1,.3.37c.129.328.74,2.752.974,3.866.378,1.8,1.05,4.448,1.259,4.961.07.169.106.324.082.346a.887.887,0,0,1-.737.038m14.407,0c-.025-.066-.035-2.106-.021-4.533l.025-4.412.318,0c.322,0,.494-.156.5-.442a.2.2,0,0,1,.384-.085.816.816,0,0,1-.2,1.015l-.293.28.028,4.1c.029,4.03.026,4.1-.162,4.15-.318.086-.531.061-.58-.066m5.77-.048c-.028-.093-.466-2.088-.974-4.437-.941-4.354-1.116-5.372-.923-5.372.164,0,.482.383.589.711s.441,1.843.576,2.619c.048.276.173.837.276,1.247s.239,1.006.3,1.322.178.856.259,1.2c.147.625.365,1.578.506,2.207a3.959,3.959,0,0,0,.146.5c.06.144.014.168-.317.168-.287,0-.4-.043-.439-.168m-11.053-.022a1.574,1.574,0,0,1-.714-.948,18.807,18.807,0,0,1-.158-2.315,18.234,18.234,0,0,1,.306-4.665c.246-.83.844-1.166,1.475-.83.346.183.677.643.553.767-.042.041-.117,0-.169-.092-.126-.227-.611-.215-.846.019-.434.434-.625,2.136-.556,4.955.054,2.229.1,2.458.541,2.86a.641.641,0,0,1,.2.264c0,.1-.367.095-.634-.014m7.54-2.987a31.569,31.569,0,0,1,.686-3.25,5.138,5.138,0,0,1,.221,1.079c.211,1.424.207,1.336.07,1.585s-.062.444.138.367a.089.089,0,0,1,.134.09c0,.089-.1.14-.264.141a4.895,4.895,0,0,0-.624.061c-.27.044-.36.026-.362-.073m-20.243-.06c-.01-.193.633-3.19.685-3.19a3.41,3.41,0,0,1,.181.85,2.59,2.59,0,0,1,.013,1.181,3.46,3.46,0,0,0-.129.781l-.019.45H28.2c-.2,0-.364-.032-.366-.071m7.4-3.733c-.494-1.2-.921-2.337-.95-2.516l-.053-.326.288.212a4.112,4.112,0,0,1,.843,1.477,9.545,9.545,0,0,0,.655,1.328,6.028,6.028,0,0,1,.15,1.843,11.315,11.315,0,0,1-.932-2.018m7.612.7c-.105-.077-.17-.155-.144-.173s.134-.079.239-.138c.177-.1.2-.233.24-1.6a9.694,9.694,0,0,1,.12-1.565c.04-.04.072.057.072.213,0,.359.154.515.509.515.265,0,.277.017.218.312-.034.172-.1.691-.138,1.154a2.246,2.246,0,0,1-.27,1.1.591.591,0,0,1-.847.178M31.981,30.172c-.156-.156-.145-.268.029-.268.079,0,.143.086.143.192,0,.223-.017.232-.172.076m3.933,0c-.169-.169-.141-.268.077-.268a.17.17,0,0,1,.192.192c0,.217-.1.246-.269.076m6.028-1.088c-.368-.26-.323-.294.158-.121.175.064.319.172.319.24,0,.175-.094.151-.477-.12m-4.985-2.532c-.112-.07-.115-.115-.017-.233a7.367,7.367,0,0,0,.256-1.685c.3-3.382,1.013-6.98,1.421-7.136a3.944,3.944,0,0,1,.934.091A17.086,17.086,0,0,1,50.3,23.956a4.781,4.781,0,0,1,.456.671l.113.24-.172-.224c-.095-.123-.366-.447-.6-.719s-.518-.6-.624-.736a19.383,19.383,0,0,0-3.258-2.663c-2.364-1.545-6.654-2.973-7.147-2.378a10.5,10.5,0,0,0-.77,3.17c-.242,1.766-.29,2.168-.389,3.31-.128,1.491-.154,1.59-.451,1.825-.274.215-.306.221-.5.1" transform="translate(-8.669 -8.661)" fill="#101a4b"/>
        <path id="패스_793008" data-name="패스 793008" d="M37.323,35.338l.025-4.958.358-.03c.326-.027.362-.058.389-.335l.029-.306-1-.03c-1.312-.04-1.33-.036-1.294.337.026.267.07.31.365.352l.336.048.026,2.237a14.491,14.491,0,0,1-.054,2.188c-.043-.027-.547-1.2-1.119-2.6l-1.04-2.55-1.257.026-1.256.027v.288c0,.264.03.291.36.318l.361.03-.025,4.527L32.5,39.435h-.863l-.994-4.606c-1.2-5.577-1.134-5.291-1.317-5.362-.4-.152-.452.012-1.32,3.987-.875,4.01-1.123,4.805-1.676,5.39a1.985,1.985,0,0,1-1.454.639h-.485l.025-4.533.025-4.532.336-.048c.3-.042.335-.08.335-.336v-.288H22.14l-.032.277c-.036.316.1.439.488.441h.265v9.018h-.233c-.4,0-.536.1-.536.389a.5.5,0,0,0,.072.315c.04.024,1.236.016,2.657-.018l2.586-.062.293-1.44.293-1.439.789-.028c.755-.026.791-.018.835.192.171.8.343,1.754.343,1.9,0,.127-.085.183-.312.206-.275.026-.312.063-.312.318v.288l2.3.026c2,.022,2.317.006,2.412-.125.2-.27.048-.512-.335-.544l-.35-.029-.025-3.544c-.014-1.948.01-3.578.052-3.62a38.12,38.12,0,0,1,1.551,3.592c2,4.972,1.778,4.5,2.091,4.466l.265-.03Zm-9.284,1c0-.231.716-3.478.771-3.478A27.77,27.77,0,0,1,29.5,36.34a2.2,2.2,0,0,1-.75.072,1.856,1.856,0,0,1-.715-.072m13.751,3.9c.823-.229,1.451-1.111,1.752-2.464.183-.825.146-.983-.239-.983-.349,0-.353.007-.587.922-.256,1-.574,1.526-1.009,1.669a1.185,1.185,0,0,1-1.513-.753c-.189-.413-.208-.64-.238-2.942-.047-3.533.163-4.828.841-5.178.891-.462,1.647.182,1.915,1.63.117.631.194.752.453.7.161-.031.184-.174.234-1.52.03-.818.037-1.541.014-1.607-.074-.214-.5-.138-.609.109l-.1.23-.464-.289a1.355,1.355,0,0,0-1.091-.249,1.65,1.65,0,0,0-1.026.323c-1.123.793-1.906,2.856-1.906,5.023,0,2.5.988,4.748,2.35,5.345a1.787,1.787,0,0,0,1.23.03M52.6,40.111c.215-.26.078-.481-.329-.533l-.378-.047-1.081-4.989c-.595-2.744-1.082-5-1.083-5.012a.872.872,0,0,0-.286-.024c-.335,0-.271-.194-.909,2.782-.244,1.134-.69,3.206-.993,4.606l-.548,2.542-.457.029-.457.029.024-4.538.025-4.538.336-.048c.3-.042.336-.08.336-.336v-.288H43.822v.288c0,.256.037.294.335.336l.336.048v9.018l-.336.047c-.3.043-.339.084-.365.361l-.031.314,2.285-.025,2.284-.026.03-.266c.026-.228-.01-.272-.264-.323-.162-.032-.293-.086-.291-.119s.1-.535.22-1.115l.215-1.055.785-.028c.75-.026.787-.017.832.192.173.81.342,1.755.342,1.909,0,.129-.069.182-.237.182a.4.4,0,0,0-.335.185c-.129.24-.127.253.051.432a6.748,6.748,0,0,0,2.915.012M48.306,36.2c.025-.119.187-.917.36-1.775a9.692,9.692,0,0,1,.385-1.559,10.82,10.82,0,0,1,.383,1.655c.173.91.334,1.709.359,1.775.033.09-.154.121-.744.121-.768,0-.788-.006-.743-.216" transform="translate(-8.969 -9.222)" fill="#fff"/>
        <path id="패스_793009" data-name="패스 793009" d="M53.617,23.616a14.683,14.683,0,0,1,.973,1.967c.269.606.595,1.331.721,1.61a5.328,5.328,0,0,1,.23.552c0,.026.178.461.394.967a11.86,11.86,0,0,1,.856,4.183,20.339,20.339,0,0,1-.79,7.27,11.684,11.684,0,0,1-1.078,2.484,8.122,8.122,0,0,1,.387-1.218,17.656,17.656,0,0,0,1.19-6.546,19.115,19.115,0,0,0-.916-6.3,18.252,18.252,0,0,0-2.394-4.592c-1.991-3.141-1.9-3.6.426-.373" transform="translate(-9.992 -8.945)" fill="#8d9093"/>
      </g>
    </g>
  </g>
</svg>
