<svg xmlns="http://www.w3.org/2000/svg" width="100" height="100"><g fill-rule="evenodd"><path data-name="패스 791926" d="M50 79.999a28 28 0 10-28-28 28 28 0 0028 28z" fill="#231815"/><path data-name="패스 791927" d="M50.001 77.429a25.43 25.43 0 10-25.431-25.43 25.431 25.431 0 0025.431 25.43z" fill="#fff"/><path data-name="패스 791928" d="M54.907 36.736v3.866H43.64v3.866H32.375v13.73c0 5.745 3.87 11.422 6.448 15.49 2.179-3.438 5.325-8.024 6.249-12.829a57.435 57.435 0 005.017 8.963c2.179-3.437 5.325-8.024 6.249-12.829a57.451 57.451 0 005.017 8.964c2.578-4.068 6.513-9.745 6.513-15.49V36.732z" fill="#231815"/><path data-name="패스 791929" d="M39.005 69.511c1.747-2.921 4.367-7.138 4.367-11.263V45.584h-8.674v12.667c0 4.125 2.56 8.342 4.307 11.263z" fill="#fff"/><path data-name="패스 791930" d="M42.809 58.82a13.527 13.527 0 00.042-2.28V45.761h-7.449l7.407 13.059z" fill="#231815"/><path data-name="패스 791931" d="M41.788 62.902a31.171 31.171 0 01-2.8 5.552c-2.331-3.8-3.79-7.21-3.787-10.815v-6.208l6.582 11.472z" fill="#231815"/><path data-name="패스 791932" d="M50.103 65.388c1.747-2.921 4.367-7.138 4.367-11.263V41.461h-8.674v12.664c0 4.125 2.56 8.342 4.307 11.263z" fill="#fff"/><path data-name="패스 791933" d="M53.897 54.766a13.529 13.529 0 00.042-2.28V41.707H46.49l7.407 13.059z" fill="#231815"/><path data-name="패스 791934" d="M52.87 58.827a31.172 31.172 0 01-2.8 5.552c-2.331-3.8-3.79-7.21-3.786-10.815v-6.209l6.582 11.472z" fill="#231815"/><path data-name="패스 791935" d="M61.203 61.266c1.747-2.921 4.367-7.138 4.367-11.263V37.339h-8.674v12.664c0 4.125 2.56 8.342 4.307 11.263z" fill="#fff"/><path data-name="패스 791936" d="M64.985 50.711a13.477 13.477 0 00.042-2.28V37.652h-7.449l7.407 13.059z" fill="#231815"/><path data-name="패스 791937" d="M63.949 54.757a31.178 31.178 0 01-2.795 5.552c-2.331-3.8-3.79-7.211-3.787-10.815v-6.209l6.582 11.472z" fill="#231815"/><path data-name="패스 791938" d="M72.518 73.288a1.975 1.975 0 111.98 1.98 1.975 1.975 0 01-1.98-1.98z" fill="#231815"/><path data-name="패스 791939" d="M76.229 73.288a1.734 1.734 0 10-1.732 1.742 1.732 1.732 0 001.732-1.742z" fill="#fff"/><path data-name="패스 791940" d="M75.48 74.394h-.32l-.631-1.018h-.5v1.018h-.269v-2.207h.962a1.02 1.02 0 01.538.108.542.542 0 01.248.476c0 .434-.3.594-.7.6l.667 1.018z" fill="#231815"/><path data-name="패스 791941" d="M74.446 73.165c.31 0 .791.052.791-.4 0-.341-.3-.382-.574-.382h-.631v.781z" fill="#fff"/></g></svg>