<svg xmlns="http://www.w3.org/2000/svg" width="100" height="100"><defs><clipPath id="a"><path data-name="사각형 299591" fill="none" d="M0 0h56v49.375H0z"/></clipPath></defs><path data-name="패스 789326" d="M22 60.263v4.149h4.045v9.968h5.729v-9.968h3.811v-4.149z" fill="#2062ab"/><path data-name="패스 789327" d="M39.494 60.263l-5.392 14.046h5.514l2.785-8.217 2.87 8.239h5.513l-5.46-14.068z" fill="#2062ab"/><path data-name="패스 789328" d="M49.453 60.024v4.16h4.053v9.957h5.725v-9.957h3.806v-4.16z" fill="#2062ab"/><path data-name="패스 789329" d="M66.709 60.024l-5.394 14.058h5.515l2.785-8.217 2.87 8.231H78l-5.458-14.072z" fill="#2062ab"/><g data-name="그룹 390838"><g data-name="그룹 390837" clip-path="url(#a)" fill="#2062ab" transform="translate(22 25)"><path data-name="패스 789330" d="M22.583 21.841l.823-3.878c.069-.2.689-3.9.689-3.9.052-.385.225-2.071.225-2.071a1.662 1.662 0 00-1.344-2 9.727 9.727 0 00-1.833-.133c-.767-.029-5.827.476-5.827.476-2.237.244-6.774 1.157-8.01 1.415a9.55 9.55 0 00-.285 2.334c0 6.2 5.983 11.457 14.287 13.342.178-.662.719-3.059.719-3.059l.556-2.523"/><path data-name="패스 789331" d="M29.044 13.984l-.021-4.578s.077-1.16.143-1.4a1.266 1.266 0 011.522-.948l2.737.135s4.266.413 4.387.436c0 0 5.484.827 6.041.972 0 0 2.773.527 4.06.843-2.868-5.5-10.681-9.443-19.86-9.443-9.2 0-17.019 3.953-19.874 9.462 1.253-.315 4.131-.861 4.131-.861.561-.145 6.045-.972 6.045-.972.12-.022 4.376-.436 4.376-.436l2.749-.135a1.255 1.255 0 011.514.948c.071.24.153 1.4.153 1.4l-.031 4.577-.027 4.822-.1 9.335c.357.01.7.016 1.059.016s.742-.006 1.113-.021l-.087-9.331-.035-4.822"/><path data-name="패스 789332" d="M35.015 9.857a9.792 9.792 0 00-1.828.131 1.659 1.659 0 00-1.344 2s.17 1.687.226 2.072c0 0 .617 3.7.685 3.9l.825 3.877.555 2.523s.532 2.368.709 3.036c8.283-1.883 14.233-7.139 14.233-13.315a9.284 9.284 0 00-.3-2.349c-1.327-.274-5.731-1.163-7.936-1.4 0 0-5.061-.5-5.827-.475"/></g></g></svg>