<svg xmlns="http://www.w3.org/2000/svg" xmlns:xlink="http://www.w3.org/1999/xlink" width="100" height="100" viewBox="0 0 100 100">
  <defs>
    <linearGradient id="linear-gradient" y1="0.5" x2="0.999" y2="0.5" gradientUnits="objectBoundingBox">
      <stop offset="0" stop-color="#57606b"/>
      <stop offset="0.007" stop-color="#606873"/>
      <stop offset="0.042" stop-color="#8a9098"/>
      <stop offset="0.078" stop-color="#aeb2b7"/>
      <stop offset="0.116" stop-color="#cbced1"/>
      <stop offset="0.157" stop-color="#e2e3e5"/>
      <stop offset="0.2" stop-color="#f2f3f3"/>
      <stop offset="0.249" stop-color="#fcfcfc"/>
      <stop offset="0.315" stop-color="#fff"/>
      <stop offset="0.627" stop-color="#fff"/>
      <stop offset="0.68" stop-color="#fff"/>
      <stop offset="1" stop-color="#57606b"/>
    </linearGradient>
    <linearGradient id="linear-gradient-2" x1="0" y1="0.5" x2="0.999" y2="0.5" xlink:href="#linear-gradient"/>
    <linearGradient id="linear-gradient-3" x1="0.523" y1="-0.056" x2="0.456" y2="0.985" gradientUnits="objectBoundingBox">
      <stop offset="0.152" stop-color="#fff"/>
      <stop offset="0.21" stop-color="#e0e2e4"/>
      <stop offset="0.335" stop-color="#9399a0"/>
      <stop offset="0.427" stop-color="#57606b"/>
      <stop offset="0.429" stop-color="#59626c"/>
      <stop offset="0.475" stop-color="#8b9199"/>
      <stop offset="0.52" stop-color="#b4b8bd"/>
      <stop offset="0.564" stop-color="#d5d7da"/>
      <stop offset="0.606" stop-color="#ecedee"/>
      <stop offset="0.645" stop-color="#fafafa"/>
      <stop offset="0.68" stop-color="#fff"/>
      <stop offset="1" stop-color="#57606b"/>
    </linearGradient>
    <linearGradient id="linear-gradient-4" x1="0.543" y1="0.017" x2="0.478" y2="1.058" gradientUnits="objectBoundingBox">
      <stop offset="0" stop-color="#fff"/>
      <stop offset="0.058" stop-color="#e0e2e4"/>
      <stop offset="0.183" stop-color="#9399a0"/>
      <stop offset="0.275" stop-color="#57606b"/>
      <stop offset="0.295" stop-color="#737b84"/>
      <stop offset="0.332" stop-color="#a5a9af"/>
      <stop offset="0.368" stop-color="#ccced2"/>
      <stop offset="0.4" stop-color="#e8e9ea"/>
      <stop offset="0.428" stop-color="#f9f9f9"/>
      <stop offset="0.449" stop-color="#fff"/>
      <stop offset="0.507" stop-color="#e4e5e7"/>
      <stop offset="0.627" stop-color="#b2b6bb"/>
      <stop offset="0.74" stop-color="#8a9098"/>
      <stop offset="0.844" stop-color="#6e767f"/>
      <stop offset="0.933" stop-color="#5d6570"/>
      <stop offset="1" stop-color="#57606b"/>
    </linearGradient>
    <linearGradient id="linear-gradient-5" x1="0.5" y1="1" x2="0.5" y2="0" xlink:href="#linear-gradient-3"/>
  </defs>
  <g id="car_logo_samsung" transform="translate(-219 -155)">
    <g id="W_100_H_100" data-name="W 100 H 100" transform="translate(219 155)" fill="#f9f9f9" stroke="#f0f0f0" stroke-width="1" opacity="0">
      <rect width="100" height="100" stroke="none"/>
      <rect x="0.5" y="0.5" width="99" height="99" fill="none"/>
    </g>
    <g id="samsung" transform="translate(-820.271 1.69)">
      <g id="그룹_1" data-name="그룹 1" transform="translate(1056.271 185.31)">
        <path id="패스_1" data-name="패스 1" d="M1082.314,217.409l1.19-1.674a.148.148,0,0,0,.011-.15.153.153,0,0,0-.128-.083l-2.109-.119c-9.492-.757-16.211-4.41-16.721-9.09a6.915,6.915,0,0,1,1.8-5.141c3.616-4.448,12.073-7.961,21.542-8.95,1.614-.168,3.241-.263,4.835-.282,1.148-.013,2.3.014,3.408.081a.151.151,0,0,0,.134-.067l4.236-6.4a.147.147,0,0,0,.006-.153.149.149,0,0,0-.134-.076c-2.459.059-4.976.221-7.482.484-15.6,1.629-29.094,6.879-34.376,13.375a8.46,8.46,0,0,0-2.222,6.272c.706,6.486,10.862,11.209,25.874,12.032A.149.149,0,0,0,1082.314,217.409Z" transform="translate(-1056.271 -185.31)" fill="url(#linear-gradient)"/>
        <path id="패스_2" data-name="패스 2" d="M1151.3,212.311c-.682-6.267-11.022-10.845-26.343-11.662a.151.151,0,0,0-.129.06l-1.195,1.627a.147.147,0,0,0,.109.235l1.833.131.8.055c9.485.7,16.19,4.222,16.683,8.754a6.587,6.587,0,0,1-1.751,4.862c-3.705,4.557-12.608,8.289-22.153,9.285-.051,0-5.6.4-8.017.4a.149.149,0,0,0-.122.063l-3.972,5.617a.146.146,0,0,0-.009.155.149.149,0,0,0,.135.078c2.457-.065,4.974-.231,7.481-.493,15.785-1.648,29.344-6.847,34.546-13.243A7.993,7.993,0,0,0,1151.3,212.311Z" transform="translate(-1085.336 -194.362)" fill="url(#linear-gradient-2)"/>
      </g>
      <path id="패스_3" data-name="패스 3" d="M1100.935,185.971c-2.394.058-4.858.218-7.369.486-20.787,2.217-36.893,11-35.974,19.625.7,6.6,11.184,11.192,25.387,11.986l1.174-1.686c-.707-.024-1.4-.065-2.086-.121-9.239-.753-16.1-4.319-16.63-9.289-.692-6.491,9.678-12.919,23.163-14.357,1.629-.174,3.228-.267,4.784-.285q1.726-.019,3.372.083Z" transform="translate(-0.71 -0.366)" fill="url(#linear-gradient-3)"/>
      <path id="패스_4" data-name="패스 4" d="M1111.532,227.014l-3.918,5.658c2.393-.065,4.857-.227,7.368-.5,20.787-2.217,36.916-10.787,36.026-19.142-.682-6.4-11.143-10.813-25.85-11.614l-1.179,1.639c1.218.1,1.914.135,2.6.187,9.234.7,16.08,4.134,16.594,8.95.67,6.29-10.229,12.977-23.713,14.415C1119.456,226.611,1113.948,227.014,1111.532,227.014Z" transform="translate(-29.397 -9.479)" fill="url(#linear-gradient-4)"/>
      <path id="패스_5" data-name="패스 5" d="M1124.211,211.28c-.5-4.712-7.216-8.073-16.269-8.758-.669-.051-1.351-.087-2.546-.183l.473-2.05q-1.612-.1-3.307-.081c-1.525.018-3.094.109-4.69.279-13.221,1.407-23.388,7.7-22.71,14.048.519,4.863,7.246,8.352,16.3,9.089q1,.082,2.045.118l-1.151,1.65.832.387c2.368,0,7.768-.394,7.768-.394C1114.183,223.978,1124.868,217.435,1124.211,211.28Zm-24.053,10.51a45.045,45.045,0,0,1-7.657.179c-7.819-.511-13.6-3.214-14.011-7.053-.536-5.014,8.3-10.064,19.728-11.281,1.381-.147,2.737-.231,4.054-.257,9.587-.188,17.144,2.724,17.615,7.131C1120.422,215.523,1111.589,220.573,1100.157,221.79Z" transform="translate(-10.438 -8.244)" fill="url(#linear-gradient-5)"/>
      <path id="패스_6" data-name="패스 6" d="M1110.685,257.851l.848.4-3.918,5.658Z" transform="translate(-28.773 -40.711)" fill="#2a3e49"/>
      <path id="패스_7" data-name="패스 7" d="M1144.745,200.4l.7.457-1.179,1.638Z" transform="translate(-49.285 -8.454)" fill="#2a3e49"/>
    </g>
  </g>
</svg>
