<svg xmlns="http://www.w3.org/2000/svg" width="100" height="100"><defs><clipPath id="a"><path data-name="사각형 301612" fill="none" d="M0 0h60v29.065H0z"/></clipPath></defs><g data-name="그룹 393596" transform="translate(20 36)" clip-path="url(#a)" fill-rule="evenodd"><path data-name="패스 793043" d="M31.319 0C21.677 0 1.64 4.134.012 16.03c-.376 5.383 8.14 9.642 9.518 10.143s2.879.75 5.509-1L47.723 4.884c5.635 2.5 8.891 5.071 9.142 8.828S50.1 24.17 30.192 23.792c-2.129-.126-2.317-.5-1.378-1.5 1.153-1.23 6.011-6.887 8.766-9.266.939-1 .251-1.628-1.127-.626L16.229 25.107c-1.441 1.064-.813 2.442.187 2.568a63.683 63.683 0 0015.027 1.376c9.705-.188 28.3-4.882 28.551-15.4.251-5.509-7.013-9.642-9.266-10.518l1.94-1.064c1.5-.876.313-2.567-1.314-1.566L48.1 2.251C42.842.751 37.834.251 31.321 0"/><path data-name="패스 793044" d="M44.593 4.133a44.118 44.118 0 00-15.027-1.628c-7.262.376-22.792 3.757-24.669 12.4-.876 3.506 4.884 3.506 7.765 2.88 1.751-.379 19.91-6.387 31.931-13.649" fill="#fff"/><path data-name="패스 793045" d="M52.107 1.315s-31.62 17.971-37.756 20.971c-3.507 1.628-8.077-.126-8.953-.75s-4.258-2.75-4.132-6.633S8.028 4.009 20.927 1.755c7.513-1.253 14.4-1.879 26.3.876l-.877.5c-5.01-1-11.521-2.5-19.911-1.5S6.902 5.386 3.02 13.402c-1.88 4.884 4.883 6.384 10.644 4.633A195.671 195.671 0 0051.795.878c.563-.378.938.124.312.437" fill="#fff"/><path data-name="패스 793046" d="M12.16 24.043a6.519 6.519 0 002.567-.75L52.278 1.658l.016.064L15.1 23.605a11.968 11.968 0 00-2.38 1.379c-.5.5-1.628.689-1.879.061s.564-1.063 1.316-1zm6.449 1.253a17.016 17.016 0 004.194-2.5c1.19-.878 11.145-8.142 14.088-10.333-1.252.814-16.216 10.457-17.217 11.081-1.127.629-3.258 1.691-3.319 2.381a15.1 15.1 0 002.254-.626" fill="#fff"/><path data-name="패스 793047" d="M16.042 26.923c.125-1.191 2.129-.5 2.943-.377a89.219 89.219 0 0012.461.877c7.89-.312 22.29-2.254 26.8-10.393a6.974 6.974 0 00.626-5.134c.062 2.694-.188 5.574-4.258 8.328-4.486 3.036-11.9 6.825-28.3 5.7-2.756-.375-3.194-1.314-1.44-2.943s9.2-8.39 12.21-10.394c.689-.438.564 0 .063.438s-8.828 8.077-9.767 9.517-.126 2.317 1.566 2.443c2.567.061 11.584.438 19.848-2.632 2.817-1.125 8.7-3.5 9.454-8.2.768-4.8-5.948-9.267-9.017-10.081l1-.564c1.753.752 7.764 3.569 9.078 8.328 1.354 4.915-2.881 8.575-5.011 10.015s-9.267 6.2-25.171 6.449a85.661 85.661 0 01-10.643-1.126 4.529 4.529 0 00-2.442-.25" fill="#fff"/></g></svg>