<svg xmlns="http://www.w3.org/2000/svg" xmlns:xlink="http://www.w3.org/1999/xlink" width="100" height="100" viewBox="0 0 100 100">
  <defs>
    <clipPath id="clip-path">
      <rect id="사각형_299586" data-name="사각형 299586" width="56" height="64.235" fill="none"/>
    </clipPath>
  </defs>
  <g id="car_logo_lamborghini" transform="translate(-219 -155)">
    <g id="W_100_H_100" data-name="W 100 H 100" transform="translate(219 155)" fill="#f9f9f9" stroke="#f0f0f0" stroke-width="1" opacity="0">
      <rect width="100" height="100" stroke="none"/>
      <rect x="0.5" y="0.5" width="99" height="99" fill="none"/>
    </g>
    <g id="lamborghini" transform="translate(241 175)">
      <g id="그룹_390831" data-name="그룹 390831" clip-path="url(#clip-path)">
        <path id="패스_789242" data-name="패스 789242" d="M26.348,64.293a53.176,53.176,0,0,1-5.554-4.271A58.6,58.6,0,0,1,11.706,50.2C5.941,42.356,2.375,33.228.816,22.321.073,17.118-.216,9.849.257,8.227A4.9,4.9,0,0,1,2.1,5.642,30.591,30.591,0,0,1,8.669,3.05,69.067,69.067,0,0,1,27.969.64C37.412.635,45.14,1.9,51.66,4.5c2.328.931,3.189,1.6,3.861,2.993l.442.916-.011,4.008c-.029,11.137-2.541,21.963-7.122,30.7a73.426,73.426,0,0,1-5.294,8.256,65.179,65.179,0,0,1-8.347,8.753,50.958,50.958,0,0,1-5.657,4.293,3.333,3.333,0,0,1-3.184-.125m1.959-.286a1.265,1.265,0,0,0-.551,0c-.151.04-.027.073.275.073s.427-.033.276-.073m-6.255-3.958a1,1,0,0,0-.276-.281c-.249-.2-.255-.194-.059.06s.335.352.335.22m-.944-.793a2.771,2.771,0,0,0-.433-.441l-.433-.389.381.441c.357.412.484.514.484.389m-2.2-2.112A10.906,10.906,0,0,0,17.813,56.1a8.153,8.153,0,0,0,.935,1.042,10.874,10.874,0,0,0,1.093,1.042,8.179,8.179,0,0,0-.935-1.042m-2.36-2.4A10.869,10.869,0,0,0,15.452,53.7a8.169,8.169,0,0,0,.935,1.042,10.88,10.88,0,0,0,1.092,1.042,8.159,8.159,0,0,0-.935-1.042m-1.416-1.575a2.765,2.765,0,0,0-.433-.441l-.433-.389.381.441c.357.412.484.514.484.389m-.944-1.125a1.771,1.771,0,0,0-.354-.361l-.354-.305.3.361c.282.339.408.434.408.305m-.63-.8a1.767,1.767,0,0,0-.354-.361l-.354-.305.3.361c.282.339.408.434.408.305m-.629-.807a1,1,0,0,0-.276-.281c-.249-.2-.255-.194-.059.061s.335.352.335.22m-.472-.641a1,1,0,0,0-.275-.281c-.25-.2-.255-.194-.06.06s.335.352.335.22m-.472-.641a1,1,0,0,0-.275-.281c-.249-.2-.255-.194-.059.061s.335.352.335.22m-2.2-3.306c-.093-.176-.2-.321-.247-.321s0,.144.09.321.2.32.247.32,0-.144-.09-.32m-.472-.8c-.093-.176-.2-.32-.247-.32s0,.144.09.32.2.321.247.321,0-.144-.09-.321m-.472-.8c-.093-.176-.2-.32-.247-.32s0,.144.09.32.2.321.247.321,0-.144-.09-.321m-1.45-2.8a11.1,11.1,0,0,0-.874-1.62,23.993,23.993,0,0,0,1.616,3.3,11.965,11.965,0,0,0-.742-1.677m-1.363-2.92c-.186-.325-.23-.221-.078.182.054.143.131.227.172.185s0-.207-.093-.368M21.138,10.788a.311.311,0,0,0-.3.013c-.052.053.041.091.207.084.183-.008.22-.046.095-.1M1.341,7.763c.054-.143.027-.207-.062-.151a.341.341,0,0,0-.156.249c0,.231.113.18.217-.1m53.6.106a1.439,1.439,0,0,0-.326-.521l-.326-.378.281.521c.292.54.371.621.371.378M17.676,5.5a.311.311,0,0,0-.3.013c-.052.053.041.091.206.084.183-.008.221-.046.1-.1m6.815-.211c.157-.176.249-.32.206-.32a1.248,1.248,0,0,0-.363.32c-.157.176-.249.321-.206.321a1.247,1.247,0,0,0,.363-.321m-3.983-.11a.312.312,0,0,0-.3.013c-.052.053.041.091.207.084.183-.008.221-.046.095-.1M39.391,2.131a.312.312,0,0,0-.3.013c-.052.053.041.091.207.084.183-.008.22-.046.1-.1m-1.259-.16a.312.312,0,0,0-.3.013c-.052.053.041.091.207.084.183-.008.22-.046.1-.1m-1.249-.157a.6.6,0,0,0-.393,0c-.108.045-.02.081.2.081s.3-.036.2-.081M21.295,1.651a.311.311,0,0,0-.3.013c-.052.053.041.091.207.084.183-.008.22-.046.095-.1m13.776,0a.885.885,0,0,0-.472.006c-.106.044.019.077.278.074s.347-.039.194-.08M24.292,1.484a4.117,4.117,0,0,0-.944,0c-.236.037-.005.066.514.065s.713-.031.43-.066m8.34,0a4.117,4.117,0,0,0-.944,0c-.236.037-.005.066.514.065s.713-.031.43-.066" transform="translate(-0.022 -0.529)" fill="#f7de9f"/>
        <path id="패스_789243" data-name="패스 789243" d="M26.648,64.449c-2.818-1.507-9.4-7.472-12.823-11.62C5.113,42.272.767,29.515.177,12.773.03,8.625.3,7.549,1.847,6.133c1.976-1.81,9.756-4.06,16.681-4.825,12.86-1.42,25.205-.087,34.023,3.675,2.465,1.051,3.421,2.451,3.55,5.2a94.69,94.69,0,0,1-.523,10.079C53.555,38.08,46.236,51.57,32.858,62.135c-2.8,2.214-3.472,2.607-4.545,2.672a2.552,2.552,0,0,1-1.665-.358m3.633-1.2A61.036,61.036,0,0,0,44.409,49.225,59.388,59.388,0,0,0,54.4,24.135c.969-5.719,1.38-13.963.8-15.95-.345-1.17-1.406-2.008-3.715-2.934C44.75,2.555,35.546,1.165,26.16,1.429,17.623,1.669,10.729,2.9,4.815,5.243A6.934,6.934,0,0,0,1.961,6.867,2.55,2.55,0,0,0,.9,8.994a69.524,69.524,0,0,0,.4,10.973c2.041,18.149,9.5,31.684,23.3,42.277,2.163,1.661,2.715,1.966,3.551,1.966.653,0,.921-.121,2.133-.958m-3.731.131c-.733-.454-2.8-2.051-4.4-3.4A56.535,56.535,0,0,1,4.29,33.422,71.883,71.883,0,0,1,1.458,19.637C1.195,17.246.884,10.39,1,9.628c.192-1.21.2-1.222.55-1.031.5.272.723-.05.391-.566-.2-.318-.225-.484-.094-.735.861-1.64,8.745-4.148,15.811-5.03a76.482,76.482,0,0,1,10.481-.573c8.474,0,14.866.9,20.99,2.958,2.768.93,4.437,1.674,4.884,2.177.278.313.279.348.015.8-.344.594-.229.795.457.795.571,0,.56-.018.769,1.259.13.787-.188,7.769-.468,10.283Q52.858,37.346,43.953,49.573A63.69,63.69,0,0,1,30.346,63l-1.127.791-.253-.368c-.215-.313-.349-.355-.895-.28a1.461,1.461,0,0,0-.816.33c-.153.214-.238.2-.705-.086M23.159,43.44c.277-.282.331-.71.09-.71a.158.158,0,0,0-.157.157c0,.086-.177.2-.393.258-.394.1-.485.24-.288.44.177.18.489.12.749-.145M19,41.358c0-.039-.071-.071-.157-.071a.164.164,0,0,0-.157.17c0,.093.071.125.157.071S19,41.4,19,41.358M30,40a5.139,5.139,0,0,0-.536-.8,4.191,4.191,0,0,0,.367.857c.233.471.474.829.536.8s-.1-.42-.368-.857m2.615-2.719c.056-.092-.055-.143-.26-.12-.282.031-.379-.061-.462-.441-.1-.449-.106-.453-.124-.072-.028.619.58,1.073.847.633m-3.555-2.464c.708-.136.959-.37.959-.891,0-.469-.458-1.259-.467-.806a2.731,2.731,0,0,1-.7.942,3.686,3.686,0,0,0-.776,1.01c-.073.282-.053.291.184.082a2.037,2.037,0,0,1,.8-.336m5.046-.257a2.412,2.412,0,0,1-1.946-.974,1.294,1.294,0,0,1,.428-2.162l.5-.221-.56-.006c-1.65-.018-1.677,2.3-.036,3.186a2.994,2.994,0,0,0,1.541.307l.944-.014Zm4.4-1.527c-.007-.176-.048-.231-.092-.12a.426.426,0,0,1-.381.2c-.166,0-.3.054-.3.12s.177.12.393.12c.293,0,.39-.082.381-.321M21.747,32.1a2.3,2.3,0,0,1,.847-.851,3.417,3.417,0,0,1,2.109.618c.619.431,1.421.535,1.68.216a.917.917,0,0,1,.622-.261c.4,0,.4-.014.108-.24a2.452,2.452,0,0,0-1.259-.238c-1.157,0-1.662-.24-1.984-.932l-.244-.525-.3.336c-.423.476-.923.359-1.026-.239l-.082-.481-.486.721a4.655,4.655,0,0,0-1,2.129c0,.847.37.755,1.016-.253Zm9.487-1.867c.161-.038-.019-1.1-.272-1.605-.237-.474-.434-.646-.826-.725-1.548-.312-1.93-.788-1.788-2.227.109-1.1.1-1.122-.744-1.761a2.946,2.946,0,0,1-.773-.841c-.225-.5-.452-.485-1.534.121-1.269.711-1.386.957-.809,1.7a3.318,3.318,0,0,1,.569,1.278c.06.381.194.681.3.681.29,0,.562.721.562,1.493,0,.57.109.8.691,1.482l.691.805,1.944-.2c1.069-.109,1.962-.2,1.983-.207m3.414-1.219c-.213-.577-.6-1.894-.865-2.925a20.356,20.356,0,0,0-1.194-3.359c-.68-1.407-.878-1.657-1.065-1.349a12.567,12.567,0,0,0,1.315,3.3,12.88,12.88,0,0,1,.87,2.494,9.3,9.3,0,0,0,.82,2.284,3.7,3.7,0,0,0,.455.6,6.342,6.342,0,0,0-.337-1.049m-3.729-8.3c-.816-.68-.4-1.181.6-.718.318.148.4.28.342.573-.046.246-.018.326.081.226.282-.288.049-.749-.525-1.034-1.031-.514-1.56.091-.752.86a2.291,2.291,0,0,0,.591.46c.056,0-.093-.168-.331-.367m6.578-.985a3.083,3.083,0,0,0,.227-.922,2.332,2.332,0,0,0-.974-1.579l-.362-.192.335.382a1.953,1.953,0,0,1,.448,2.394c-.149.293-.176.473-.07.473s.272-.25.4-.556M25.953,15.956c-.7-.433-.648-1.033.128-1.565a1.793,1.793,0,0,1,1.377-.326c.563.035.826-.009.826-.139,0-.105.336-.3.747-.432l.747-.241-.944.084a5.387,5.387,0,0,0-3.14,1.066c-.513.452-.591.6-.5.962a1.226,1.226,0,0,0,.536.666c.646.357.823.3.224-.074M5.288,11.993c-.052-3.148-.051-3.167.3-3.324.523-.235.426-.412-.12-.219L5,8.617v3.27c0,2.265.053,3.27.172,3.27s.157-.945.12-3.166m25.96,3.025c.163-.105.144-.153-.084-.214a.543.543,0,0,0-.491.138c-.161.176-.146.216.083.214a1.085,1.085,0,0,0,.492-.138M50.75,8.6c.241.093.361.1.272.013a1.553,1.553,0,0,0-.511-.261l-.354-.109.036,3.337.036,3.337.046-3.241.046-3.241ZM8.064,13.356c.1-.1.022-.116-.236-.04a4.627,4.627,0,0,0-1.416.622,4.6,4.6,0,0,0,1.652-.583m1.51-3.07c.67-2.953.7-3.034,1.162-3.24l.475-.211L10.8,6.829a.811.811,0,0,0-.571.194c-.157.2-1.621,6.356-1.6,6.735.021.419.287-.553.949-3.472m38.242,2.841c-.186-.325-.23-.221-.079.182.054.143.131.227.172.185s0-.207-.093-.368m-2.145-6.1c.212.041.348.013.3-.062a.658.658,0,0,0-.467-.137h-.384l.036,3.246.036,3.246.046-3.184.046-3.184Zm-34,5.34c-.059-.322-.143-.549-.186-.5a1.49,1.49,0,0,0,.029.665c.059.322.143.549.186.5a1.491,1.491,0,0,0-.029-.665M13.7,9.525c.03-3.085.032-3.1.384-3.154.195-.028.354-.127.354-.219s-.152-.126-.354-.071a3.063,3.063,0,0,1-.472.1,23.537,23.537,0,0,0-.118,3.315,28.074,28.074,0,0,0,.089,3.223A30.954,30.954,0,0,0,13.7,9.525M43.511,6.456c.4-.061.389-.068-.082-.09l-.511-.024.036,3.246.036,3.246.046-3.156.046-3.156ZM15.4,10.916a5.11,5.11,0,0,0-.457-1.132,7.453,7.453,0,0,0,.307,1.344c.2.708.405,1.218.457,1.132a4.056,4.056,0,0,0-.307-1.344m25.435-.687c-.032-.419-.059-.076-.059.761s.027,1.18.059.761a11.915,11.915,0,0,0,0-1.523M17.269,10.4a10.969,10.969,0,0,0-.058-1.643,14.358,14.358,0,0,0-.085,3.353,5.279,5.279,0,0,0,.143-1.71m2.2-1.736V5.56l.706-.108a5.7,5.7,0,0,1,1.259-.042c.3.036.493,0,.42-.069a4.1,4.1,0,0,0-1.377-.088L19.236,5.3l-.043,3.338c-.029,2.24.01,3.3.118,3.237a14.4,14.4,0,0,0,.161-3.208m19-2.982.429-.016-.393-.119A1.007,1.007,0,0,0,38,5.495a23.965,23.965,0,0,0-.082,3.3l.036,3.237L38,8.867,38.047,5.7ZM48.548,7.842c.418.088.417.085-.044-.129l-.472-.219-.079,1.948a16.578,16.578,0,0,0,0,2.189,7.811,7.811,0,0,0,.123-1.82l.044-2.06Zm-24.1,3.144c-.486-.589-.646-1.307-.63-2.836A3.937,3.937,0,0,1,24.713,5.3a2.033,2.033,0,0,1,.97-.245c.523,0,.583-.035.347-.175a1.424,1.424,0,0,0-1.566.465c-1.109,1.075-1.221,4.581-.183,5.722.519.57.652.506.168-.081M30,5.083c.683.032,1.159,0,1.059-.061A4.867,4.867,0,0,0,29.74,4.9L28.6,4.9l.036,3.326.036,3.326.046-3.263.046-3.263Zm1.034,5.426c-.148-.452-.3-.786-.347-.742a2.429,2.429,0,0,0,.189.9c.147.452.3.786.347.742a2.429,2.429,0,0,0-.189-.9m-9.35.229a1.568,1.568,0,0,0,.058-1.762c-.236-.3-.239-.3-.079.039.412.869.016,1.812-.763,1.816a1.318,1.318,0,0,0-.644.173c-.176.128-.064.151.445.091a2.1,2.1,0,0,0,.983-.358m11.844-.109a8.127,8.127,0,0,1-.211-3.894,1.734,1.734,0,0,1,1.744-1.487c.323.031.554,0,.513-.066a1.333,1.333,0,0,0-.707-.123,1.855,1.855,0,0,0-1.694,1.535,7.917,7.917,0,0,0,.137,3.875,2.1,2.1,0,0,0,.394.681c.05,0-.03-.234-.177-.521M11.1,10.851c.171-.111.165-.274-.036-.919l-.244-.785.089.731c.08.653.05.75-.278.911s-.339.181-.053.189a1.084,1.084,0,0,0,.523-.126m24.727-.171a1.4,1.4,0,0,0,.161-.521c0-.116-.094-.031-.205.19-.164.324-.314.4-.78.383-.318-.01-.54.044-.494.12.169.278,1.149.15,1.319-.172m-9.4-.491a4.409,4.409,0,0,0,.275-1.924c0-1.713-.306-2.46-1.036-2.533a.817.817,0,0,0-.68.191c-.171.209-.133.215.3.048s.526-.155.79.177a5.341,5.341,0,0,1,.074,4.143.6.6,0,0,1-.714.344c-.247-.037-.411,0-.365.073s.309.118.582.091c.388-.038.557-.172.772-.61m-9.22-4.33a1.2,1.2,0,0,1,.448-.2c.212-.052.154-.083-.176-.1L17,5.54,16.5,7.264a16.63,16.63,0,0,0-.484,1.964,6.177,6.177,0,0,0,.537-1.5,12.71,12.71,0,0,1,.66-1.868M36.044,8.544l.816-.059-.9-.03c-.894-.029-.9-.024-.883.411.018.366.033.381.089.088s.191-.361.883-.411m-13.5.053a.366.366,0,0,0-.271-.171c-.1,0-.093.092.032.244.216.265.409.206.239-.073m18.325-1.31v-1.3l.433.1c.321.076.372.06.2-.06a1.08,1.08,0,0,0-.511-.165c-.24,0-.275.165-.275,1.281V8.429l-.826-.063c-.643-.049-.7-.037-.275.056,1.3.28,1.259.314,1.259-1.135M21.527,7.81a1.145,1.145,0,0,0,.065-1.6c-.269-.25-.277-.25-.094,0,.256.348.168,1.264-.137,1.423a5.626,5.626,0,0,1-.787.28l-.551.157.573.016a1.5,1.5,0,0,0,.931-.279m9.59-.185a1.2,1.2,0,0,0,.068-1.511c-.358-.364-.44-.309-.155.1.547.8.2,1.393-.91,1.578l-.655.109.669.02a1.191,1.191,0,0,0,.983-.3m4.658-1.079c-.052-.053-.09.041-.083.21.008.187.045.225.1.1a.328.328,0,0,0-.012-.307" transform="translate(-0.117 -0.622)" fill="#f9ce5c"/>
        <path id="패스_789244" data-name="패스 789244" d="M26.679,64.492c-1.893-.919-6.846-5.091-10.15-8.548C7.515,46.512,2.485,35.355.639,20.7.394,18.75.012,12.889.01,11.056c0-2.971.927-4.784,2.957-5.765A50.5,50.5,0,0,1,12.833,2.2,84.484,84.484,0,0,1,32.975.9,62.052,62.052,0,0,1,50.09,4.1c3.579,1.26,4.652,1.988,5.448,3.695.408.875.411.909.382,4.408C55.8,26.58,52.066,39.264,44.985,49.353a64.014,64.014,0,0,1-13.127,13.47c-2.715,2.078-3.691,2.392-5.178,1.669M30.1,63.367A69.352,69.352,0,0,0,42.56,51.636a61.76,61.76,0,0,0,8.106-14.026,71.824,71.824,0,0,0,4.572-21.561,46.26,46.26,0,0,0,.016-7.326c-.093-.406-.08-.613.04-.653.231-.078-.3-.917-.581-.917a1.283,1.283,0,0,1-.586-.417c-1.481-1.617-9.1-3.887-16.038-4.781a95.778,95.778,0,0,0-18.568-.178C11.774,2.627,3.512,4.975,1.834,6.8c-.251.274-.509.465-.572.425-.814-.512-.8,7.108.018,13.71,1.8,14.5,6.976,25.716,16.19,35.116a55.48,55.48,0,0,0,9.325,7.862c1.141.653,1.669.565,3.308-.55m-2.971-.806c-.358-.212-1.379-.948-2.269-1.634a11.166,11.166,0,0,0-1.825-1.249,1.89,1.89,0,0,1-.72-.466l-.513-.466.59.431c.793.58.75.418-.067-.251-.361-.3-.6-.452-.541-.347.262.432-.2.145-.776-.487-.342-.372-.445-.535-.229-.362a29.91,29.91,0,0,0-2.208-2.409,68.132,68.132,0,0,1-6.518-7.853c-.9-1.314-1.141-1.6-.882-1.042l.187.4-.322-.4a.886.886,0,0,1-.248-.609c.041-.115.007-.167-.075-.115-.157.1-.678-.781-.543-.918a6.953,6.953,0,0,0-.7-1.533,64.411,64.411,0,0,1-3.011-6.483,10.691,10.691,0,0,0-.989-2.108c-.052.053-.057-.074-.012-.281.053-.246.033-.307-.059-.177-.2.283-.73-1.276-.6-1.754.082-.3.068-.322-.075-.128s-.155.116-.079-.321.06-.511-.084-.32-.168.2-.089-.052a7.045,7.045,0,0,0-.291-1.844A88.525,88.525,0,0,1,2.044,15.007C2.036,14.5,2,14.379,1.912,14.6c-.111.289-.127.283-.223-.08a6.564,6.564,0,0,1-.105-1.234c0-1.276-.311-1.112-.527.28a10.462,10.462,0,0,1-.081-2A15.9,15.9,0,0,1,1.073,9a.89.89,0,0,1,.585-.16Q2.508,8.835,2,7.8c-.22-.45-.211-.5.185-.906a8.512,8.512,0,0,1,2.7-1.41c.38-.1.379-.1-.039.145-.238.138-.433.321-.433.407,0,.2,0,.2.787-.085s1-.3.855-.063c-.07.116-.005.145.187.083a66.684,66.684,0,0,1,9.343-2.336,7.325,7.325,0,0,0,2.282-.541c-.173-.052.039-.059.472-.015.6.061.731.038.551-.1s-.029-.16.63-.1c.476.043,2.388.017,4.249-.059,6.274-.256,8.891-.312,8.7-.186a7.191,7.191,0,0,0,2.14.321,89.145,89.145,0,0,1,9.553,1.39,9.435,9.435,0,0,0,2.127.3c.31-.07.336-.052.143.1s-.176.168.1.088c.407-.116,1.185.057,1.074.239-.043.07.075.087.262.038.247-.066.306-.035.216.112s-.033.173.231.088c.227-.073.318-.055.255.05s.253.283.728.443a14.48,14.48,0,0,1,3.792,1.8c.935.9.972,1.089.937,4.641C54,15,53.7,19.9,53.427,21.9c-.085.63-.037.522.426-.962a7.236,7.236,0,0,1,.46-1.216,3.91,3.91,0,0,0,.287-1.042c.144-.824.147-.807.069.334a64.258,64.258,0,0,1-6.922,24.256A56.129,56.129,0,0,1,35.726,58.438l-1.021.872.716-.792a6.7,6.7,0,0,0,.972-1.374,6.266,6.266,0,0,1,.771-1.2l.515-.62-.543.49c-.3.269-1,.914-1.566,1.432-1.23,1.134-4.417,3.738-5.85,4.78-1.305.949-1.741,1.039-2.59.536M23.14,43.54c.668-.68.266-1.161-.508-.609-.283.2-.543.384-.577.4-.128.076.345.526.553.526a1.039,1.039,0,0,0,.531-.321m-4.152-2.41c.013-.262-.027-.476-.089-.476-.214,0-.522.781-.417,1.058.151.4.476.026.506-.582m11.531-.1c.289-.146.318-.213.142-.322a2.678,2.678,0,0,1-.556-.7c-.416-.7-.989-1.332-1.1-1.219a2.332,2.332,0,0,0,.429.9,1.811,1.811,0,0,1,.43,1.439c-.091.691.069,1.048.206.459a.966.966,0,0,1,.45-.557m8.354-.259a.974.974,0,0,0-.138-.418c-.173-.278-.4.044-.272.385.107.285.413.309.41.032m-6.292-3.5c0-.076-.141-.215-.315-.309a.58.58,0,0,1-.315-.406c0-.129-.071-.235-.157-.235-.27,0-.177.935.109,1.1s.678.078.678-.147M20.193,35.044l.086-.882-.244.561a5.039,5.039,0,0,0-.3,1.362c-.056.789-.053.794.158.321a5.53,5.53,0,0,0,.3-1.363m8.265,1.018c.04-.271.163-.318.809-.308.882.013,1.35-.315,1.511-1.06a.8.8,0,0,0-.228-.837,9.684,9.684,0,0,1-.941-1.6c-.69-1.408-.663-1.467.618-1.342.429.042.78.026.78-.035,0-.21.8-.483,1.422-.483.45,0,.675.088.817.32a.629.629,0,0,0,.434.316c.188,0,.18-.039-.038-.168-.49-.29-.291-.485.22-.216.381.2.445.293.275.4s-.114.141.174.139c.393,0,.393,0-.12-.478a1.46,1.46,0,0,0-1.151-.476,2.49,2.49,0,0,1-.942-.166c-.373-.2-.421-.716-.054-.572a5.536,5.536,0,0,0,.669.189l.418.091-.393-.352a3.042,3.042,0,0,0-.826-.508c-.519-.186-.565-.566-.09-.745.323-.122.316-.135-.118-.227a1.136,1.136,0,0,1-.736-.6c-.243-.443-.332-.49-.754-.4-.537.12-1.253-.249-1.253-.646a1.122,1.122,0,0,1,.331-.574l.331-.338-.3-.985c-.291-.943-.341-1-1.175-1.412-1.292-.634-1.336-1.164-.166-1.974a1.758,1.758,0,0,1,2.1-.074,2.059,2.059,0,0,1,1.083,1.887,3.757,3.757,0,0,0,.855,1.645,4.488,4.488,0,0,1,1.164,2.964c-.043.381-.14.481-.524.539-.415.063-.386.082.236.16.592.074.747.169.949.58.324.66,1.093,1.641,1.095,1.4a5.594,5.594,0,0,0-.326-1.042c-.18-.466-.572-1.785-.871-2.932a21.444,21.444,0,0,0-1.206-3.437c-.365-.744-.687-1.412-.716-1.483s.093-.129.27-.129c.522,0,1.408.926,2.08,2.175.662,1.228,1.195,1.724,1.764,1.642.3-.043.341-.142.316-.715a3.382,3.382,0,0,0-1-2.179c-.459-.292-.38-.441.23-.441.543,0,.855-.215.57-.394a11.026,11.026,0,0,0-1.322-.4,20.233,20.233,0,0,1-2.762-1.048,5.244,5.244,0,0,0-1.887-.648,5.837,5.837,0,0,0-1.144.852A14.514,14.514,0,0,1,25.5,22.348c-1.893.912-2.282,1.553-2.737,4.513a8.225,8.225,0,0,1-.384,1.763,16.318,16.318,0,0,0-2,2.848,1.664,1.664,0,0,0-.049,1.561.622.622,0,0,0,1.136.067c.364-.53.73-.285.619.414-.059.371-.029.569.087.569.279,0,.813-.615,1.062-1.223.3-.728.589-.817,1.314-.4a1.986,1.986,0,0,0,2.162.024c.219-.175.455-.282.525-.238.171.108.386-.249.386-.643,0-.432.489-.5.7-.1a.561.561,0,0,1-.023.644c-.278.454-.025.61.5.305l.447-.261.067.582c.06.522-.011.659-.685,1.328-.831.824-1.056,1.4-.785,2.008.2.456.545.429.615-.048m-6.1-3.353c0-.476.257-1.031.478-1.031s.188,1.021-.037,1.25c-.3.3-.441.228-.441-.219m2.122-2.1a2.189,2.189,0,0,1-.4-.645c-.207-.555-.576-.629-1.019-.2-.465.445-.645.324-.421-.282a13.714,13.714,0,0,0,.353-1.954c.3-2.369.966-2.759,1.5-.875a3.56,3.56,0,0,0,.47,1.09,1.528,1.528,0,0,1,.225.872,1.839,1.839,0,0,0,.63,1.384,6.421,6.421,0,0,1,.629.811,2.666,2.666,0,0,1-.854.07,1.585,1.585,0,0,1-1.115-.265Zm6.3-10.071c-.379-.318-.428-.426-.25-.546.436-.293,1.4.349,1.1.727-.237.291-.3.278-.846-.181M35.44,34.6c.154-.157-.043-.2-.947-.2-1.721,0-2.541-.573-2.541-1.774a1.066,1.066,0,0,1,2.074-.458c.088.258.227.469.308.469s.08-.128-.015-.31c-.266-.507-.191-.651.348-.671.383-.014.3-.054-.326-.16a5.108,5.108,0,0,1-1.131-.3,1.878,1.878,0,0,0-2.158.467c-.553.733.091,2.249,1.214,2.859a2.764,2.764,0,0,0,1.844.33,3.289,3.289,0,0,0,1.33-.253m3.186-1.021a1.321,1.321,0,0,1-.127-.508.46.46,0,0,0-.235-.4c-.133-.045-.176,0-.109.107s-.009.181-.2.181a.444.444,0,0,0-.4.24c-.068.18.025.24.367.24a.787.787,0,0,1,.555.16c.054.088.133.16.176.16s.029-.082-.032-.182M37.993,29.5c.118-.312-.058-1.51-.221-1.51-.25,0-.43,1.431-.208,1.657.172.176.328.122.429-.146m-16.266-.894a5.617,5.617,0,0,0,.624-1.162c0-.1-.177.136-.39.517s-.536.9-.717,1.162-.286.47-.235.47a5.194,5.194,0,0,0,.719-.987m16.749-3.537c-.111-.672-.351-.923-.56-.587a1.629,1.629,0,0,0,.133,1.549c.264.275.28.273.4-.036a2.221,2.221,0,0,0,.026-.927m-15.871.239c-.052-.053-.089.041-.083.21.008.187.045.225.1.1a.328.328,0,0,0-.012-.307m1.243-2.288c.157-.176.249-.321.206-.321a1.249,1.249,0,0,0-.364.321c-.157.176-.249.321-.206.321a1.247,1.247,0,0,0,.364-.321M37.7,19.28a2.476,2.476,0,0,0-2.132-2.6c-.545-.1-.545-.1.159.277,1.238.661,1.8,2.081,1.172,2.987a.628.628,0,0,0-.132.543c.168.276.815-.558.934-1.2m-9.447.856c.157-.176.249-.321.206-.321a1.247,1.247,0,0,0-.364.321c-.157.176-.249.32-.206.32a1.249,1.249,0,0,0,.363-.32m1.023-.882c.108-.132.16-.24.117-.24s-.167.108-.274.24-.161.24-.117.24.167-.108.275-.24M26.523,16.2c-1.359-.5-1.427-1.426-.141-1.926a1.993,1.993,0,0,1,1.7.031c.166.065.251.01.251-.164,0-.346.618-.57,1.623-.59.645-.013.733-.043.423-.144-1.613-.526-4.589.31-5.267,1.479l-.289.5.573.535a1.443,1.443,0,0,0,1.165.523l.592-.011ZM5.2,11.969c0-2.678.037-3.194.236-3.272s.236.285.236,2.708c0,3.111-.058,2.977,1.1,2.56.769-.277.944-.3.944-.1a3.686,3.686,0,0,1-1.188.58,4.576,4.576,0,0,0-1.126.5,5.716,5.716,0,0,0,1.253-.374c1.055-.386,1.2-.489,1.257-.885.071-.493.006-.494-1.12-.024-1.013.422-.983.506-.932-2.584.026-1.543.039-2.805.031-2.805s-.239.079-.511.176l-.5.176v3.36a12.331,12.331,0,0,0,.157,3.261A15.748,15.748,0,0,0,5.2,11.969M31.3,15.027c.157-.1.119-.16-.152-.232-.2-.053-.4-.033-.447.045a1.205,1.205,0,0,1-.635.209c-.441.054-.395.072.238.091a2.628,2.628,0,0,0,1-.112M50.238,11.7l-.046-3.145.439.111c.519.131.318-.137-.23-.306l-.354-.109v3.3a23.276,23.276,0,0,0,.118,3.3,21.125,21.125,0,0,0,.072-3.145M47.2,11.659a19.911,19.911,0,0,0-1.034-2.367,16.055,16.055,0,0,0,.747,2.128c.446,1.135.876,2.236.955,2.447s.18.347.223.3a18.038,18.038,0,0,0-.892-2.511Zm-37.67,1.3c.149-1.012.207-1.118.682-1.233.232-.056.54-.138.684-.182.21-.063.3.1.441.8l.179.877.479-.17c.556-.2.594.168-.376-3.665l-.672-2.655-.484.128c-.454.12-.5.2-.753,1.373-.148.685-.5,2.262-.788,3.506L8.4,14l.51-.16c.45-.141.523-.244.616-.879M9.032,13c-.051-.136-.058-.283-.015-.327s.116.068.162.247c.1.382-.011.441-.147.08m.115-.781c-.007-.169.03-.264.083-.21a.327.327,0,0,1,.013.307c-.05.128-.087.09-.1-.1m.315-1.443c-.007-.169.03-.264.083-.21a.328.328,0,0,1,.013.307c-.05.128-.087.09-.1-.1m.632-.374A8.3,8.3,0,0,1,10.3,9.156l.19-.8.2,1.107c.161.9.159,1.131-.009,1.24-.389.252-.6.143-.584-.3m-.475-.267c-.007-.169.03-.264.083-.21a.327.327,0,0,1,.012.307c-.05.128-.087.09-.1-.1m.245-.975c.178-1.073.38-1.542.277-.641A3.768,3.768,0,0,1,9.9,9.557c-.095.157-.109.017-.039-.4m.374-1.723c0-.189.114-.276.352-.268s.276.043.118.1a.856.856,0,0,0-.352.268c-.071.109-.116.069-.118-.1M45.327,10.14v-3.1l.433.071c.338.055.381.033.2-.1a1.2,1.2,0,0,0-.59-.173l-.354,0v3.206a13.459,13.459,0,0,0,.157,3.206,12.656,12.656,0,0,0,.157-3.1M14.1,12.6c.18,0,.227-.407.245-2.124a6.4,6.4,0,0,1,.091-1.723,31.1,31.1,0,0,0,1.144,3.737c.064.072.163-.145.218-.481s.345-1.369.644-2.294l.543-1.683-.092,2.1-.092,2.1.487-.073.487-.073.045-3.269.045-3.269h-.5c-.479,0-.508.04-.843,1.162-.191.639-.469,1.653-.619,2.253l-.272,1.091-.577-1.832c-.317-1.008-.577-1.913-.577-2.012,0-.2-.218-.224-.747-.079-.353.1-.354.111-.354,3.381,0,2.929.027,3.274.249,3.187a1.571,1.571,0,0,1,.472-.1M43,9.618l-.046-3.145.4.1c.22.056.4.037.4-.043s-.212-.177-.472-.216l-.472-.07V9.5a22.726,22.726,0,0,0,.118,3.259A21.153,21.153,0,0,0,43,9.618M40.722,10c-.032-.463-.058-.084-.058.842s.026,1.3.058.841a14.874,14.874,0,0,0,0-1.683m-19.461,1.63A1.768,1.768,0,0,0,22.634,9.81c.062-.762.023-.92-.312-1.262-.374-.381-.377-.4-.1-.751a1.879,1.879,0,0,0-.106-2.182c-.364-.371-.486-.4-1.692-.353l-1.3.047-.043,3.3-.043,3.3.829-.072a10.635,10.635,0,0,0,1.39-.215M19.993,9.8V8.755H20.6a.991.991,0,0,1,1.126,1.07c0,.632-.435,1.014-1.153,1.014h-.578Zm.063-2.068a3.3,3.3,0,0,1-.033-.919c.044-.626.094-.7.474-.75.682-.08,1.07.223,1.07.837s-.186.811-.911.951c-.364.07-.542.035-.6-.119M38.089,8.817c0-3.066.008-3.142.315-3.061.173.046.315.027.315-.043,0-.113-.521-.316-.826-.322a23.044,23.044,0,0,0-.118,3.284,14.082,14.082,0,0,0,.157,3.286,12.979,12.979,0,0,0,.157-3.145m10.351-.944c.424.082.424.081-.044-.143L47.923,7.5l-.045,1.851c-.04,1.666-.068,1.821-.276,1.548s-.218-.263-.069.177c.345,1.019.391.9.434-1.164l.044-2.126.428.083ZM35.886,11.544c.258-.161.285-.207.079-.133a8.863,8.863,0,0,1-.865.233c-.541.118-.543.12-.079.133a1.828,1.828,0,0,0,.865-.233m-9.629-.228c.632-.392.958-1.135,1.079-2.453.25-2.732-.976-4.621-2.517-3.877-.791.382-1.243,1.389-1.332,2.97-.164,2.889,1.086,4.406,2.77,3.36m-1.375-.946c-.647-.659-.656-3.4-.013-4.1.48-.52.87-.511,1.218.031.218.339.279.769.279,1.971s-.061,1.632-.279,1.971a.694.694,0,0,1-1.2.125m7.07.944c0-.072-.2-.717-.453-1.434l-.453-1.3.373-.249a2.185,2.185,0,0,0-.043-3.09c-.335-.269-.638-.329-1.648-.329H28.49V11.48h.393c.391,0,.394-.011.394-1.443V8.595l.433,0c.409,0,.458.085.882,1.493.443,1.472.455,1.49.9,1.423.251-.037.456-.127.456-.2m-.678-.114c-.037-.066-.259-.715-.494-1.443l-.427-1.322h-.616c-.389,0-.616-.074-.615-.2s.295-.209.872-.226A2.574,2.574,0,0,0,31.077,7.8a1.367,1.367,0,0,0-.324-2.071c-.467-.217-1.423-.239-1.546-.036a12.527,12.527,0,0,0-.119,1.919A7.374,7.374,0,0,1,28.971,9.3a14.2,14.2,0,0,1-.166-2.08l-.079-1.991h1.106c1.287,0,1.7.218,1.963,1.043a1.637,1.637,0,0,1-.486,1.886l-.461.368.464,1.4c.353,1.065.412,1.4.247,1.4a.353.353,0,0,1-.284-.12M29.341,7.573a3.847,3.847,0,0,1-.034-1c.047-.751.068-.783.558-.831,1.016-.1,1.728,1.25.951,1.8-.435.31-1.361.328-1.474.029m4.679,3.662c-.615-.527-.86-1.314-.873-2.8-.014-1.6.375-2.673,1.083-2.974a1.544,1.544,0,0,1,1.941.65c.1.176.18.225.183.108a1.6,1.6,0,0,0-.455-.681,1.292,1.292,0,0,0-1.08-.469c-1.363,0-1.987,1.17-1.895,3.552.064,1.641.4,2.626.981,2.865s.6.168.116-.25m1.6-.308c.551-.561.449-1.851-.147-1.851a.241.241,0,0,1-.217-.258c0-.169.086-.224.249-.16a2.082,2.082,0,0,0,.621.1c.337,0,.378.08.43.842l.058.842.029-1,.029-1h-.866c-.812,0-.865.024-.865.39,0,.306.093.4.433.441.38.044.426.11.377.532-.082.709-.306,1.042-.7,1.038-.584-.006-1.049-.5-1.2-1.281-.094-.49-.144-.582-.155-.289-.053,1.319,1.195,2.4,1.919,1.661m.865-.172c-.048-.049-.136.04-.2.2-.085.228-.067.247.088.09.108-.109.156-.238.107-.287m4.279-3.372c0-1.173.007-1.193.4-1.193.228,0,.361-.069.306-.16a.649.649,0,0,0-.481-.16c-.375,0-.384.03-.384,1.282,0,.924-.055,1.28-.2,1.273-.108-.005-.533-.066-.944-.135s-.747-.069-.747,0,.336.171.747.228.818.123.9.149c.326.1.393-.123.393-1.283M33.915,7.1a2.012,2.012,0,0,1,.406-.922c.168-.171.237-.312.152-.312-.278,0-.66.777-.727,1.477-.075.792.021.652.168-.243m1.971-.184a1.873,1.873,0,0,0-.544-.945c-.124-.049-.1.108.061.467.21.457.484.728.484.478m.63-.243c0-.085-.106-.114-.236-.063s-.236.121-.236.155.106.063.236.063.236-.07.236-.155M4.183,6.221c-.048-.049-.176,0-.282.109-.154.158-.136.177.088.09.155-.06.243-.15.194-.2" transform="translate(-0.008 -0.631)" fill="#d8a016"/>
        <path id="패스_789245" data-name="패스 789245" d="M27.628,64.083a3.745,3.745,0,0,1-1.841-.9,77.222,77.222,0,0,1-7.453-6.1c-.824-.774-2.636-2.635-3.272-3.362a67.359,67.359,0,0,1-7.4-10.44A44.75,44.75,0,0,1,5.4,38.638,64.381,64.381,0,0,1,.119,15.389C.025,13.669-.007,12.344,0,10.4A11.782,11.782,0,0,1,.093,8.168a5.774,5.774,0,0,1,.769-2.08A7.338,7.338,0,0,1,3.35,4.1a44.309,44.309,0,0,1,7.3-2.206c.773-.173,2.3-.485,2.816-.576l.709-.127c.238-.043.557-.095.709-.115s.4-.064.551-.1.435-.079.63-.1.6-.08.906-.122.631-.086.728-.1c.951-.114,1.259-.15,1.89-.218A82.6,82.6,0,0,1,30.129.032C31.477.079,34.537.255,34.78.3c.067.013.369.037.669.054s.8.061,1.1.1.79.095,1.083.128C39,.736,40.193.891,40.7.98c.184.032.671.113,1.083.179A39.5,39.5,0,0,1,52.378,4.153a6.128,6.128,0,0,1,2.178,1.472A4.876,4.876,0,0,1,55.8,8.012a67.911,67.911,0,0,1-.14,8.877,69.871,69.871,0,0,1-1.79,11.663A62.054,62.054,0,0,1,49.63,40.495a24.875,24.875,0,0,1-1.37,2.665c-.291.5-.537.92-.548.943s-.073.122-.138.221-.139.216-.165.26l-.216.36c-.093.154-.177.3-.185.321a.177.177,0,0,1-.04.06c-.013.011-.1.146-.2.3s-.241.382-.324.507a1.3,1.3,0,0,0-.151.267.062.062,0,0,1-.03.054,1.462,1.462,0,0,0-.246.389c0,.02-.026.047-.059.06s-.059.041-.059.064a2.241,2.241,0,0,1-.217.359,2.3,2.3,0,0,0-.217.357c0,.021-.027.049-.059.062a.1.1,0,0,0-.059.085c0,.034-.015.061-.033.061s-.058.049-.089.11a1.389,1.389,0,0,1-.086.15c-.132.177-.293.4-.58.82s-.58.823-.981,1.364A57.288,57.288,0,0,1,30.506,63.017,4.93,4.93,0,0,1,28.762,64a3.414,3.414,0,0,1-1.133.086m1.008-.363a4.734,4.734,0,0,0,1.676-.926,56.824,56.824,0,0,0,16.331-17.54,40.177,40.177,0,0,0,2.4-4.194,68.575,68.575,0,0,0,3.187-7.819,69.217,69.217,0,0,0,3.322-19.618c.063-1.719.051-5.048-.019-5.462a4.793,4.793,0,0,0-1.874-2.954A16.5,16.5,0,0,0,51.176,3.93a42.485,42.485,0,0,0-8.9-2.389C40.129,1.167,37.323.821,34.618.6L33.889.537C33.521.5,31.791.4,30.8.354c-1.9-.09-5.332-.043-7.738.1A73.87,73.87,0,0,0,5.122,3.734a9.162,9.162,0,0,0-2.44,1.1A4.41,4.41,0,0,0,.731,6.983c-.421,1.027-.5,1.9-.432,5A81.451,81.451,0,0,0,1.066,22.2,60.86,60.86,0,0,0,6.285,39.893,37.413,37.413,0,0,0,9.33,45.444c.416.667,1.548,2.377,2.016,3.046A53.224,53.224,0,0,0,22.158,60.022c1.187.968,4.012,3.112,4.489,3.408a3.687,3.687,0,0,0,.843.328,3.045,3.045,0,0,0,1.145-.04M27.577,62.1a9.526,9.526,0,0,1-1.907-1.331C18.8,55.366,14.915,51.134,11.041,44.823c-.519-.845-1.21-2.027-1.676-2.866s-1.946-3.974-2.687-5.691A57.176,57.176,0,0,1,2.171,16.528a54.369,54.369,0,0,1-.045-6.853A5.592,5.592,0,0,1,2.9,7.606,4.351,4.351,0,0,1,4.713,6.123a54.975,54.975,0,0,1,7.4-2.133A73.723,73.723,0,0,1,26.407,2.237c1.382-.039,3.784-.026,4.273.023.087.009.423.027.748.04A85.582,85.582,0,0,1,41.706,3.406a34.232,34.232,0,0,1,8.92,2.64l.983.468c1.332.629,1.941,1.6,2.142,3.414a77.781,77.781,0,0,1-.451,8.423c-.887,8.819-2.67,15.261-6.025,21.777a84.677,84.677,0,0,1-5.157,8.562c-2.807,4.007-5.527,6.807-11,11.328l-1.028.853c-.455.378-.946.768-1.092.868a1.736,1.736,0,0,1-1.421.362M17.37,47.775c.483-.224.643-.565.708-1.51.043-.629.165-.867.474-.933l.156-.033-.02-.379a11.191,11.191,0,0,1,.01-1.529,4.2,4.2,0,0,1,.436-.621,7,7,0,0,0,.934-1.369,5.6,5.6,0,0,0,.156-.77c.095-.649.054-.556.765-1.736.211-.35.528-.934.7-1.3a4.777,4.777,0,0,1,.468-.823c.082-.09.185-.2.228-.256a.275.275,0,0,1,.118-.093c.081,0,.315.252.4.433s.091.227.091,1.124c0,.934,0,.935.093,1.012a.35.35,0,0,0,.183.077c.089,0,.089,0-.021-.121-.161-.176-.2-.416-.169-1.1a1.832,1.832,0,0,0-.062-.845,1.3,1.3,0,0,1-.075-.393c.012-.123.022-.131.189-.143.2-.014.291-.082.4-.3a.87.87,0,0,0,.082-.5c-.006-.11-.036-.144-.211-.241a.646.646,0,0,1-.392-.6,8.075,8.075,0,0,1,.071-1.852c.072-.241.1-.245.387-.049A6.925,6.925,0,0,0,25,33.6a2.785,2.785,0,0,0,1.412.031A9.757,9.757,0,0,0,27.6,32.7c.135-.127.352-.31.482-.406s.306-.234.391-.307a.538.538,0,0,1,.245-.133,1.541,1.541,0,0,1,.645.267c.237.2.118.409-.458.79A3.772,3.772,0,0,0,27.737,34.2a17.1,17.1,0,0,0-.582,1.753,1.62,1.62,0,0,0,.259.7,5.465,5.465,0,0,1,.751,1.235,3.29,3.29,0,0,0,.113.354c.128.311-.026.484-.543.612-.2.049-.464.1-.587.117L26.924,39l.064.1c.054.084.068.089.1.035s.116-.063.484-.063a1.556,1.556,0,0,0,.657-.083l.208-.084.1.126c.111.14.749.808.749.783a7.484,7.484,0,0,0-.546-1.263c-.169-.32-.387-.752-.484-.962a5.734,5.734,0,0,0-.5-.818,3.544,3.544,0,0,1-.351-.541,1.579,1.579,0,0,1,.07-.82c.152-.436.273-.407.274.066,0,.344.045.448.423,1a4.49,4.49,0,0,1,.681,1.235,6.36,6.36,0,0,0,.675,1.272,3.626,3.626,0,0,1,.387,1.048.376.376,0,0,1-.133.236l-.133.131-.085-.109c-.046-.06-.1-.1-.111-.081a1,1,0,0,0-.043.286c-.016.255-.014.26.126.387s.143.142.143.371a.672.672,0,0,0,.262.607,2.156,2.156,0,0,0,.562.173l.438.089L31.094,42a2.316,2.316,0,0,0,.633-.772.446.446,0,0,0-.088-.456.755.755,0,0,1-.134-.179c-.08-.157-.011-.2.341-.2.286,0,.309-.007.4-.116a6.141,6.141,0,0,0,.528-1.178,1.667,1.667,0,0,0,.1-.667,1.687,1.687,0,0,1,.1-.681,1.205,1.205,0,0,0,0-.984,1.079,1.079,0,0,0-.494-.5c-.323-.205-.281-.334.16-.5.253-.1.381-.205.381-.321,0-.094,0-.094-.349-.072s-.349.022-.423-.088c-.217-.321-.342-.368-.566-.211a3.486,3.486,0,0,0-.789,1.453c0,.161.178.325.5.461a3.812,3.812,0,0,1,.4.186.619.619,0,0,1,.244.563,1.358,1.358,0,0,0,.041.357,1.449,1.449,0,0,1,.043.367.939.939,0,0,1-.119.509A3.783,3.783,0,0,1,31.219,40c-.141.054-.287-.062-.357-.285a.39.39,0,0,1,.034-.377,1.971,1.971,0,0,0,.163-1.205,3.863,3.863,0,0,0-.089-.678c-.081-.182-.211-.126-.484.209-.257.315-.424.448-.563.448s-.182-.136-.158-.458a3.159,3.159,0,0,1,.376-1.167,18.245,18.245,0,0,0,.662-1.761,3.83,3.83,0,0,0,.018-1.382.9.9,0,0,0-.26-.441,8.2,8.2,0,0,1-1.07-1.523c-.285-.547-.478-1.122-.375-1.122a4.53,4.53,0,0,1,.67.871c.219.371.334.466.529.439.143-.019.147-.016.17.127a2.811,2.811,0,0,0,.648,1.354,6.323,6.323,0,0,0,1.022.834,5.115,5.115,0,0,0,1.026.342,3.736,3.736,0,0,0,.976.081c.673,0,.826-.03.985-.192a1.083,1.083,0,0,1,.309-.163,3.49,3.49,0,0,0,.326-.135c.138-.073.243-.236.217-.335-.02-.078-.058-.086-.521-.109A3.818,3.818,0,0,1,33.937,33c-.155-.079-.4-.19-.548-.246a1.463,1.463,0,0,1-.895-.728c-.041-.133.039-.245.195-.275a.336.336,0,0,0,.159-.062.115.115,0,0,1,.088-.036c.168,0,.178-.051.091-.43-.1-.455-.106-.531-.006-.531.161,0,.277.1.5.435a5.091,5.091,0,0,0,.453.577c.2.206.24.231.382.231a.3.3,0,0,0,.183-.039.361.361,0,0,0-.057-.2.865.865,0,0,1-.08-.361A.412.412,0,0,1,34.523,31c.113-.131.139-.142.349-.142a.633.633,0,0,1,.589.332c.087.136.111.149.274.149a.517.517,0,0,0,.329-.106c.128-.09.165-.1.247-.062a.605.605,0,0,1,.192.2,1.7,1.7,0,0,0,.215.267c.111.107.135.113.332.088a.833.833,0,0,1,.315.013c.178.069.2.165.124.564-.063.335-.063.368,0,.534a1.215,1.215,0,0,0,.185.312c.134.152.136.159.2.664a2.535,2.535,0,0,1-.19,1.347l-.3.794a2.444,2.444,0,0,1-.255.518l-.112.137.161.124a2.228,2.228,0,0,1,.589,1.014,3.116,3.116,0,0,1,.353,1.251,2.066,2.066,0,0,1-.162.81c-.223.682-.229.944-.028,1.211a.729.729,0,0,1,.138.251,2.132,2.132,0,0,1-.216.431c-.492.827-.49,1.2.008,1.666a1.009,1.009,0,0,0,.635.352c.1-.011.106-.027.118-.233.014-.247.124-.412.262-.393.069.01.084.051.107.286.033.339.051.387.142.387a1.838,1.838,0,0,0,.822-.652l.06-.117-.17.12a2,2,0,0,0-.266.224.238.238,0,0,1-.369.024c-.139-.111-.162-.266-.086-.566.09-.351.061-.622-.077-.744-.09-.079-.149-.093-.409-.093a1.19,1.19,0,0,1-.36-.037c-.106-.068.015-.23.27-.361.369-.19.389-.324.072-.489-.211-.109-.262-.179-.263-.359a.524.524,0,0,1,.351-.48.463.463,0,0,0,.356-.483.723.723,0,0,0-.331-.636c-.388-.3-.377-.28-.377-.638,0-.26.014-.336.073-.4s.078-.158.095-.4a1.479,1.479,0,0,1,.1-.5c.13-.274.117-.344-.138-.729a1.738,1.738,0,0,1-.213-1.065,2.721,2.721,0,0,0-.036-.53,1.007,1.007,0,0,1,.062-.618c.115-.045.291.08.417.294.138.236.167.255.2.135s.225-.1.678.1a3.633,3.633,0,0,0,2.8.226,4.138,4.138,0,0,0,1.156-1.02c.153-.255.143-.26-.493-.238a3.544,3.544,0,0,1-1.457-.181,2.538,2.538,0,0,1-.986-.672,6.258,6.258,0,0,0-.588-.559,3.321,3.321,0,0,1-.429-.4.1.1,0,0,0-.086-.06,3.464,3.464,0,0,1-.945-.444c-.162-.107-.366-.233-.456-.279a8.162,8.162,0,0,0-2.032-.42l-.363-.027-.027-.146a2.056,2.056,0,0,0-.368-.822c-.2-.311-.238-.4-.239-.55A1.741,1.741,0,0,0,34.7,28.3a2.549,2.549,0,0,1-.3-.664,5.978,5.978,0,0,0-.238-.669,3.486,3.486,0,0,1-.312-1.136,4.767,4.767,0,0,0-.31-1.268A6.651,6.651,0,0,1,33.3,23.7a2.476,2.476,0,0,0-.492-1.225,2.92,2.92,0,0,1-.316-.564.7.7,0,0,0-.135-.259,3.456,3.456,0,0,1-.259-.381c-.084-.141-.193-.318-.243-.392a.552.552,0,0,1-.09-.246c0-.171.094-.221.39-.209.624.025,1.106.5,1.736,1.713a3.618,3.618,0,0,0,1.425,1.722,1,1,0,0,0,.465.142c.235,0,.321-.088.346-.357a2.9,2.9,0,0,0-.237-1.126,3.269,3.269,0,0,1-.182-.911c-.03-.5-.052-.526-.5-.683-.384-.135-.407-.206-.092-.287a1.21,1.21,0,0,1,1.008.26c.239.166.284.184.436.167s.212-.06.4-.234c.207-.2.225-.227.211-.359a.742.742,0,0,1,.23-.538c.116-.106.183-.271.319-.8a2.286,2.286,0,0,0-.143-1.768,6.105,6.105,0,0,0-1.885-1.524c-.558-.262-.585-.264-3.608-.3a30.561,30.561,0,0,1-5.307-.265c-.629-.217-1.082-.609-1.016-.88a.812.812,0,0,1,.438-.44c.351-.136.846-.039,1.809.354a5.013,5.013,0,0,0,2.439.417,4.814,4.814,0,0,0,1.808-.278c.067-.05.067-.055,0-.117a3.216,3.216,0,0,0-.643-.214c-.688-.179-1.063-.324-1.063-.41,0-.054.068-.059.522-.039a6.407,6.407,0,0,1,1.572.269,2.652,2.652,0,0,0,1.13.037c.137-.049.163-.151.062-.254a8.6,8.6,0,0,0-2.7-.982,9.177,9.177,0,0,0-2.309-.152,5.292,5.292,0,0,0-2.6.468,3.59,3.59,0,0,0-1.364,1.261c-.232.473-.076.789.591,1.2a3.668,3.668,0,0,0,1.595.509,30.974,30.974,0,0,0,5.1.249c1.326,0,2.383.014,2.52.037a3.26,3.26,0,0,1,1.138.414,3.022,3.022,0,0,1,.842,1.005,1,1,0,0,1,.144.581.806.806,0,0,1-.111.509,2,2,0,0,1-.619.7,2.04,2.04,0,0,1-1.156-.2,2.379,2.379,0,0,0-.866-.2,2.688,2.688,0,0,1-1.247-.373,12.7,12.7,0,0,0-2.393-.79,1.434,1.434,0,0,0-.891.18A4.643,4.643,0,0,0,28.171,19.2a5.408,5.408,0,0,1-1.4,1.123c-.709.345-2.733,1.5-2.921,1.67a6.212,6.212,0,0,0-.938,1.157,4.134,4.134,0,0,0-.513,2.237,2.6,2.6,0,0,1-.157,1.131,11.363,11.363,0,0,1-.994,1.742,17.16,17.16,0,0,0-1.018,1.711,4.6,4.6,0,0,0-.551,2.47l-.028.922-.143.423c-.078.233-.243.665-.364.962-.452,1.1-.443,1.043-.485,3.064l-.031,1.483-.165.332a6.341,6.341,0,0,1-.337.588,2.813,2.813,0,0,0-.36,1.526c-.034.4-.07.8-.081.888-.016.147-.077.232-.515.721-.834.932-1.154,1.418-1.154,1.754,0,.166-.012.188-.168.3a3.322,3.322,0,0,0-.879,1.023,1.124,1.124,0,0,0-.107.907c.116.227.193.19.518-.254l.289-.394.094.09a.3.3,0,0,1,.095.141,2.444,2.444,0,0,1-.159.384,1.393,1.393,0,0,0-.148.434c.015.135.152.155.976.145.583-.007.67-.017.847-.1ZM17,45.6a.978.978,0,0,1-.306-.7c.029-.155.067-.166.272-.079a.417.417,0,0,0,.515-.08c.194-.151.255-.168.33-.092s.058.2-.036.374l-.142.271A.63.63,0,0,1,17,45.6m1.27-3.783c-.087-.089-.1-.131-.1-.437a2.569,2.569,0,0,0-.019-.393.15.15,0,0,1,.019-.114c.032-.05.058-.039.159.07a.314.314,0,0,0,.284.13.341.341,0,0,0,.252-.085c.12-.115.212-.074.208.094a.962.962,0,0,1-.4.727c-.2.131-.279.133-.4.007m12.532-.36a.771.771,0,0,1-.229-.092,1.367,1.367,0,0,1-.091-.681c.083-.241.38-.13.454.17.043.174.049.18.2.18.174,0,.233.074.233.293,0,.122-.014.141-.123.163a.734.734,0,0,1-.44-.032M19.095,38.133c-.165-.074-.223-.271-.2-.688a1.184,1.184,0,0,1,.382-.885l.131-.09.1.119a.292.292,0,0,0,.195.119,1.35,1.35,0,0,0,.665-.384c.108-.1.3-.277.42-.386a.885.885,0,0,0,.346-.823c0-.532-.04-.643-.289-.871a.9.9,0,0,1-.35-.726c0-.344.165-.537.46-.537.163,0,.276.11.481.467.338.588.831.816,1.156.534.155-.135.206-.145.294-.056.051.051.062.169.062.638a4.059,4.059,0,0,0,.036.673c.025.066.107.126.258.188a.428.428,0,0,1,.326.511.452.452,0,0,1-.349.413c-.22.06-.383,0-1.057-.382a.567.567,0,0,0-.572-.036,1.961,1.961,0,0,0-.3.34,2.036,2.036,0,0,1-.592.542,2.2,2.2,0,0,0-.8.814c-.179.284-.393.524-.468.524a.685.685,0,0,0-.125.02.4.4,0,0,1-.2-.038m6.328-8.483a2.632,2.632,0,0,0-.453-.163.7.7,0,0,1-.473-.248c-.054-.084-.054-.119,0-.338a.622.622,0,0,0-.1-.632c-.07-.064-.139-.076-.424-.07a1.939,1.939,0,0,0-.512.07c-.095.035-.177.064-.182.064a2.431,2.431,0,0,1,.064-.528.358.358,0,0,1,.175-.235c.235-.148.268-.234.242-.636-.031-.483.03-.722.183-.725a.687.687,0,0,1,.181.15,1.036,1.036,0,0,1,.237.431c.153.477.219.581.366.582.235,0,.245.025.245.589a1.155,1.155,0,0,0,.448,1.125c.631.634.632.862,0,.566Zm6.4-3.22a2.335,2.335,0,0,1,0-.46l.026-.354-.112-.075c-.1-.066-.2-.075-.921-.076s-.829-.011-.966-.076l-.157-.075.118-.029a3.337,3.337,0,0,1,.492-.034,1.162,1.162,0,0,0,.784-.182c.512-.385.409-.861-.354-1.628-.475-.478-.558-.609-.541-.852l.012-.168.2.2a2.7,2.7,0,0,1,.334.441,16.37,16.37,0,0,0,1.2,1.674,1.463,1.463,0,0,1,.475,1.236.748.748,0,0,1-.441.538c-.109.021-.126.012-.149-.082m-.857-6.344a2.632,2.632,0,0,1-.19-.245c-.05-.074-.175-.232-.278-.352-.225-.261-.256-.354-.153-.458a.9.9,0,0,1,.746,0,1.019,1.019,0,0,1,.381.8l.024.294L31.38,20.1c-.089-.02-.125-.011-.143.035-.036.1-.158.074-.268-.048Zm-1.156-5.65a2.42,2.42,0,0,1-.264-.1c-.224-.1-.279-.213-.15-.32s.2-.092.4.012a1.285,1.285,0,0,0,.4.1.763.763,0,0,1,.387.121c.162.111.18.149.085.186a4.371,4.371,0,0,1-.863,0M21.706,45.754a1.925,1.925,0,0,0,.743-.873,2.56,2.56,0,0,1,.377-.561,1.245,1.245,0,0,0,.388-.731A4.1,4.1,0,0,1,23.8,42.37a2.257,2.257,0,0,1,.988-.956c.742-.405.786-.459.833-1.024a2.121,2.121,0,0,1,.091-.515,2.989,2.989,0,0,1,.746-.689l.233-.155H25.6a7.017,7.017,0,0,0-1.361.062,1.962,1.962,0,0,1-.461.05l-.191-.012-.245.621a5.932,5.932,0,0,0-.246.7,3.012,3.012,0,0,1-.2.744,4.863,4.863,0,0,1-.947,1,.718.718,0,0,1-.265.078.434.434,0,0,0-.359.269,1.232,1.232,0,0,1-.326.312,4.414,4.414,0,0,0-.9.844,1.824,1.824,0,0,0-.195.942c0,.427.083.8.18.8a1.426,1.426,0,0,0,.339-.2c.451-.322.543-.253.268.2a1.538,1.538,0,0,0-.157.307c0,.078.279.131.63.119a1.035,1.035,0,0,0,.536-.116m.386-2.186c-.253-.188-.488-.43-.488-.5,0-.04.093-.114.24-.189l.24-.123.16.107a.624.624,0,0,0,.653.064c.287-.111.318-.092.275.166a1.431,1.431,0,0,1-.083.305.82.82,0,0,1-.605.268.4.4,0,0,1-.391-.1m4.139.072c.089-.023.046-.032-.17-.035-.252,0-.287-.014-.276-.075.007-.039.1-.115.217-.17a1.536,1.536,0,0,0,.236-.134,1.158,1.158,0,0,0,.032-.349c0-.378.055-.458.353-.515.206-.039.3-.122.3-.27,0-.069-.042-.11-.174-.169-.217-.1-.292-.217-.191-.306l.4-.348c.288-.253.332-.309.379-.49a3.944,3.944,0,0,0,.157-.969c-.038-.107-.176-.257-.238-.257a.26.26,0,0,1-.131-.08q-.079-.08-.079-.027a3.281,3.281,0,0,1-.262.491c-.144.241-.333.588-.42.771a.924.924,0,0,1-.4.5,2.211,2.211,0,0,0-1.007,1.644c-.041.331-.014.549.066.549a.888.888,0,0,0,.265-.18.821.821,0,0,1,.276-.18c.061,0,.066.029.041.274l-.027.274.131.043a1,1,0,0,0,.525.011m12.3-13.811a2.112,2.112,0,0,0,.31-.346l.174-.241-.1-.125a6.772,6.772,0,0,1-.827-1.246,3.215,3.215,0,0,1-.216-.5c0-.1.122-.223.359-.375.535-.343.593-.487.616-1.526a6.212,6.212,0,0,0-.03-1,2.129,2.129,0,0,0-.491-.972l-.205-.23-.154.047a1.215,1.215,0,0,0-.573.55,1.569,1.569,0,0,0,.047,1.044,3.281,3.281,0,0,1,.121.782,3.838,3.838,0,0,1-.183,1.16,6.288,6.288,0,0,0-.22,1.695,1.678,1.678,0,0,0,.2,1.007.876.876,0,0,0,1.168.279M5.3,14.647c.363-.2,1.323-.608,2.115-.908l.679-.257v-.551a2.058,2.058,0,0,0-.036-.551c-.049,0-1.2.477-1.593.657a2.81,2.81,0,0,1-.345.144c-.019,0-.034-1.237-.034-2.825,0-1.554-.013-2.826-.03-2.826s-.289.121-.606.271l-.576.271L4.859,11.4c-.009,1.829-.01,3.34,0,3.357.031.065.2.024.444-.107m45.687-1.415c-.007-.788-.024-2.3-.039-3.369l-.027-1.936-.512-.218a3.359,3.359,0,0,0-.62-.218h-.108v6.683l.167.045c.092.025.371.134.62.242s.471.2.492.2a9.992,9.992,0,0,0,.027-1.429M48.809,8.97,48.814,7.1l-.443-.149c-.244-.082-.474-.166-.511-.187a.476.476,0,0,0-.187-.037h-.119l0,1.693c0,.931,0,1.716,0,1.743.028.223-.167-.216-.864-1.939A13.115,13.115,0,0,0,45.8,6.2a6.328,6.328,0,0,0-1-.236h-.121V12.7h.1c.082,0,.852.181,1.13.265.066.02.068-.085.044-2.036a16.865,16.865,0,0,1,.016-2.017c.022.022.457,1.068.966,2.323l.925,2.283.447.143.447.143.024-1.484c.013-.816.027-2.324.03-3.352M8.633,13.323a5.1,5.1,0,0,1,.506-.181c.214-.067.391-.126.394-.131s.091-.438.2-.961l.19-.952.181-.054a3.244,3.244,0,0,1,1.063-.232c.016.026.106.394.2.818s.182.785.2.8a2.747,2.747,0,0,0,.594-.105c.468-.111.567-.147.557-.2-.007-.037-.154-.558-.328-1.157S11.81,8.983,11.5,7.892s-.578-1.991-.587-2a2.454,2.454,0,0,0-.42.089c-.222.058-.448.11-.5.116-.1.011-.107.055-.578,2.2-.264,1.2-.622,2.821-.794,3.6-.31,1.4-.312,1.416-.23,1.45.115.047.116.047.248-.02m1.47-3.1c0-.064.394-2.029.419-2.092s.078.11.307,1.132l.169.751-.162.042c-.17.044-.546.148-.664.183-.038.011-.069,0-.069-.017M43.827,9.066l.024-3.334-.225-.046c-.124-.025-.411-.087-.639-.138a4.6,4.6,0,0,0-.482-.09c-.065,0-.069.147-.079,2.41-.01,2.333,0,4.278.03,4.3a12.131,12.131,0,0,0,1.324.251c.014-.013.035-1.524.048-3.357M13.869,11.959c.277-.055.509-.1.515-.1s.016-.762.022-1.693a7.452,7.452,0,0,1,.053-1.593c.023.055.288.772.587,1.593s.564,1.493.587,1.492c.127,0,.116.034.936-2.8.111-.386.218-.719.235-.739s.033.723.033,1.653.013,1.691.03,1.691c.047,0,.923-.116,1.056-.14l.12-.021L18.03,8.061c-.007-1.78-.023-3.3-.034-3.37-.02-.126-.029-.133-.146-.112a6.164,6.164,0,0,1-.992.1c-.055-.011-.107-.008-.116.007s-.257.81-.552,1.768-.555,1.8-.578,1.875-.049.125-.059.116-.265-.746-.568-1.636l-.566-1.663c-.011-.031-.159-.016-.482.049a5.513,5.513,0,0,1-.588.094l-.122,0L13.2,6.556c-.014.7-.026,2.211-.026,3.364,0,2.239-.01,2.1.164,2.136.014,0,.252-.04.529-.1ZM41.559,8.64l.01-3.352-.089-.019a10.624,10.624,0,0,0-1.074-.183h-.13l.022,1.3c.021,1.261.019,1.3-.053,1.3-.041,0-.367-.045-.724-.1s-.663-.1-.68-.1-.029-.6-.029-1.322V4.847l-.089-.019c-.175-.037-1-.144-1.1-.143h-.108V11.4l.62.082c.341.045.631.076.644.069s.015-.7,0-1.544l-.02-1.53.094.022c.052.012.382.063.734.112l.64.09v3.113l.128,0c.07,0,.349.044.62.095s.51.089.532.085.043-1.165.049-3.36Zm-6.082,2.638a1.586,1.586,0,0,0,1.173-1.147,4.8,4.8,0,0,0,.074-1.361V7.651H34.913v.194c0,.107-.011.332-.025.5l-.026.307h.767l-.014.534c-.013.5-.02.544-.118.7-.291.447-.893.368-1.244-.164-.255-.385-.266-.475-.266-2.168,0-1.491,0-1.527.086-1.687a.951.951,0,0,1,.476-.44c.059-.013.128-.03.154-.038a.7.7,0,0,1,.469.19,1.007,1.007,0,0,1,.318.612l.024.181H36.1c.669,0,.621.037.529-.406a1.848,1.848,0,0,0-1.846-1.518,1.982,1.982,0,0,0-1.924,1.488,11.545,11.545,0,0,0-.051,1.758c0,1.749.023,1.958.256,2.433a2.476,2.476,0,0,0,.759.858,2.58,2.58,0,0,0,.816.328,2.484,2.484,0,0,0,.84-.032m-14.9-.219c1.349-.115,1.437-.14,1.779-.512a2.252,2.252,0,0,0,.165-2.671.989.989,0,0,0-.506-.264c-.051,0-.018-.031.093-.087.594-.3.771-1.55.347-2.459a1.425,1.425,0,0,0-.689-.732l-.222-.1-.651.049c-.666.05-1.943.169-1.959.183s-.021,1.52-.036,3.368l-.027,3.361.371-.025c.2-.013.8-.062,1.336-.107m-.522-.947a8.3,8.3,0,0,1-.03-.959V8.224l.581-.023.581-.023.13.127a1.486,1.486,0,0,1,.236.348,1.044,1.044,0,0,1,.106.582.834.834,0,0,1-.11.551c-.167.289-.267.327-.914.344A3.078,3.078,0,0,1,20.057,10.113Zm.2-2.932-.227-.014.011-.87.011-.87.537-.011.537-.011.182.206a1,1,0,0,1-.092,1.51C21.031,7.212,20.889,7.221,20.253,7.18Zm5.693,3.738a1.8,1.8,0,0,0,1.483-1.551c.02-.161.032-1.015.027-1.9-.01-1.768-.017-1.826-.273-2.325a2.392,2.392,0,0,0-.8-.831,2.36,2.36,0,0,0-.914-.262,2.054,2.054,0,0,0-1.823,1.253c-.27.555-.284.7-.252,2.524.03,1.718.046,1.864.245,2.236a2.148,2.148,0,0,0,2.305.852M25.1,9.88a.9.9,0,0,1-.489-.4l-.1-.174-.008-1.677L24.5,5.948l.109-.225a.84.84,0,0,1,1.4-.221,1.1,1.1,0,0,1,.323.683c.018.135.038.876.045,1.647.012,1.393.011,1.4-.078,1.59A.98.98,0,0,1,25.1,9.88M32.2,10.887c0-.028-.257-.7-.571-1.5s-.571-1.468-.571-1.488.066-.048.146-.064c.584-.111.916-.693.916-1.6a2.3,2.3,0,0,0-.894-1.971c-.2-.12-.522-.151-2.049-.193l-.955-.027v6.73l.128.02c.07.011.346.023.612.026l.484.007-.006-1.435-.006-1.435.33-.012.33-.011.352,1.154c.194.635.4,1.3.454,1.474l.1.321.43.011c.237.006.457.018.489.026.141.034.276.02.276-.027Zm-2.77-3.863a8.892,8.892,0,0,1-.026-.937v-.91l.485-.028c.537-.031.694,0,.9.208a1.311,1.311,0,0,1-.033,1.572l-.137.122h-.583a3.809,3.809,0,0,1-.609-.027" transform="translate(0 0)" fill="#9f6b08"/>
        <path id="패스_789246" data-name="패스 789246" d="M27.063,72.279a63.959,63.959,0,0,1-6.8-5.533,56.682,56.682,0,0,1-9.715-12.061c-5.271-8.951-8.009-19.39-8.331-31.76-.094-3.612-.087-3.726.255-4.447.454-.956.862-1.237,3.025-2.082,5.97-2.334,12.272-3.414,20.9-3.582,9.745-.19,17.8.986,24.286,3.544,2.248.886,2.647,1.16,3.1,2.12.344.724.35.831.254,4.527-.528,20.313-7.5,35.379-21.714,46.948a25.482,25.482,0,0,1-3.972,2.824c-.222.07-.629-.087-1.294-.5M17.508,58.423c.247-.115.427-.409.561-.912a3.388,3.388,0,0,1,.441-1.032,2.932,2.932,0,0,0,.311-1.353,2.5,2.5,0,0,1,.67-1.841,5.692,5.692,0,0,0,.859-1.692,9.626,9.626,0,0,1,.5-1.4,17.191,17.191,0,0,1,1.777-3.126c.348,0,.626.76.626,1.711,0,.749.063,1.034.252,1.142.226.129.228.194.022.609a5.3,5.3,0,0,0-.342.936A2.655,2.655,0,0,1,22,53.077a6.874,6.874,0,0,0-1.168.953c-.579.573-.73.832-.728,1.25,0,.707.23,1.076.495.806.317-.323.461-.23.348.226-.1.411-.086.422.422.318a1.826,1.826,0,0,0,1.349-.873,2.923,2.923,0,0,1,.22-.511c.076-.132.368-.734.648-1.336A4.634,4.634,0,0,1,24.8,52.227a3.783,3.783,0,0,0,.931-1.144c.372-.906,1.454-1.68,1.454-1.04a4.681,4.681,0,0,1-1.054,1.964,3.281,3.281,0,0,0-.991,1.757c0,.371.22.484.393.2s.367-.171.282.16c-.069.269,0,.321.4.321A1.686,1.686,0,0,0,27.9,53.416a3.945,3.945,0,0,1,.406-1,1.239,1.239,0,0,0,.2-.913c-.106-.432.182-1.543.4-1.543a4.581,4.581,0,0,1,.879,1.843,2.2,2.2,0,0,0,.417.828c.288.323.413.341,1.828.26,1.464-.084,1.534-.1,1.913-.581a2.514,2.514,0,0,0,.482-1.462,3.8,3.8,0,0,1,1.872-2.954l.916-.655.226.359a11.106,11.106,0,0,1,.6,1.282,2.029,2.029,0,0,1,.172,1.716,2.879,2.879,0,0,0-.1,1.129,2.455,2.455,0,0,1-.175,1.126l-.279.791.372.4c.423.458.714.514.846.163.12-.318.415-.309.415.013,0,.341.309.216.664-.269.272-.371.275-.44.041-1.112a2.533,2.533,0,0,1-.178-.993,2.905,2.905,0,0,0-.086-.962,7.044,7.044,0,0,1,.031-2.931,2.03,2.03,0,0,0-.224-1.687,3.023,3.023,0,0,1-.327-.93,1.545,1.545,0,0,1,.662.172c1.526.611,2.718.472,3.442-.4l.429-.518-.929-.081c-1.056-.092-1.1-.116-2.219-1.11-.785-.7-.814-.756-.73-1.382a6.893,6.893,0,0,0-.179-1.876,3.147,3.147,0,0,1-.017-2.1,6.517,6.517,0,0,0,.25-1.346,5,5,0,0,0-.922-2.6,4.1,4.1,0,0,1-.639-1.238,4.935,4.935,0,0,0-.557-1.225c-.364-.547-.373-.612-.157-1.139a4.652,4.652,0,0,0,.229-1.44,1.71,1.71,0,0,0-.512-1.475c-.964-1.119-1.415-1.22-6.019-1.359-5.314-.16-6.151-.363-5.326-1.292.338-.38.889-.37,2.036.037a6.523,6.523,0,0,0,3.683.265c.77-.249.784-.236-.551-.518-.216-.046-.393-.164-.393-.262,0-.12.245-.145.747-.077,2.057.279,2.4.3,2.4.143,0-.26-1.382-.794-2.823-1.092-2.318-.478-4.552-.082-5.61,1-.65.662-.724,1.365-.182,1.725.682.453,1.8.591,5.8.719,3.659.116,4.1.161,4.734.474a1.652,1.652,0,0,1,1.1,1.632c-.017.617-.423,1.275-.785,1.275A19.076,19.076,0,0,1,32.1,29.2a11.371,11.371,0,0,0-1.85-.558c-.391,0-.85.308-2.21,1.478a15.256,15.256,0,0,1-2.32,1.581c-2.231,1.183-2.92,2.123-3.23,4.41a6.147,6.147,0,0,1-1.336,3.179,8.093,8.093,0,0,0-1.365,3.9,7.854,7.854,0,0,1-.491,2.244,7.88,7.88,0,0,0-.523,3.006,4.213,4.213,0,0,1-.436,2.35,5.253,5.253,0,0,0-.512,1.806,2.707,2.707,0,0,1-.884,1.978,4.589,4.589,0,0,0-.774,1.114,2.164,2.164,0,0,1-.476.746c-.6.7-.895,1.5-.645,1.75.133.135.24.091.422-.172.345-.5.543-.441.385.118-.091.322-.074.5.05.554a3.1,3.1,0,0,0,1.6-.253M29.551,24.795c-.442-.284-.021-.359.654-.116l.679.245-.551.01a1.781,1.781,0,0,1-.782-.139m-22.7-.2c1.22-.453,1.3-.51,1.3-.948a1.057,1.057,0,0,0-.054-.466c-.03,0-.466.144-.969.321s-.939.32-.969.32S6.1,22.565,6.1,21.022s-.025-2.805-.055-2.805a5.369,5.369,0,0,0-.551.176l-.5.176v3.368c0,3.143.018,3.36.275,3.256.152-.061.86-.328,1.574-.593m44.414-2.68V18.568l-.5-.176a5.354,5.354,0,0,0-.551-.176c-.03,0-.055,1.5-.055,3.343V24.9l.511.167c.281.092.529.175.551.184s.039-1.492.039-3.334m-2.4-.926-.043-3.315-.433-.118-.433-.118,0,1.789c0,2.051-.019,2.045-.961-.374-.691-1.773-.915-2.084-1.506-2.084h-.363V20.06c0,2.521.046,3.287.2,3.288a2.826,2.826,0,0,1,.546.1c.345.094.349.072.393-1.857l.044-1.952.86,2.187a11.451,11.451,0,0,0,1.1,2.331c.625.373.642.284.6-3.161M9.583,23.73a2.955,2.955,0,0,0,.208-.941c.121-.989.111-.977.894-1.126l.57-.109.19.809c.187.793.2.807.688.713a2.533,2.533,0,0,0,.562-.152c.079-.069-1.413-6.032-1.544-6.168a.917.917,0,0,0-.576.037c-.478.134-.487.155-1.069,2.743-.323,1.435-.685,3.027-.8,3.54l-.217.932.5-.109a3.653,3.653,0,0,0,.6-.168m.682-3.253c.052-.167.149-.618.216-1l.122-.7.207.859c.175.723.173.882-.009,1-.38.245-.639.168-.537-.159m33.758-.728a24.823,24.823,0,0,0-.118-3.344,3.3,3.3,0,0,0-.551-.173l-.433-.105v6.717l.433.067c.238.037.486.078.551.091a22.349,22.349,0,0,0,.118-3.253M14.31,22.623c.153-.06.2-.373.159-1.167-.028-.6-.028-1.372,0-1.722.047-.59.1-.5.663,1.195l.612,1.832.568-2.054.568-2.054.045,1.8c.038,1.548.079,1.787.288,1.7a1.8,1.8,0,0,1,.545-.1c.288,0,.3-.154.3-3.334V15.4l-.537.064c-.526.062-.545.092-.953,1.451-.229.763-.509,1.675-.622,2.028l-.206.641L15.23,17.9a13.97,13.97,0,0,0-.635-1.819.847.847,0,0,0-.611-.027l-.487.109v3.273c0,3.12.014,3.274.3,3.274a1.716,1.716,0,0,0,.511-.081m27.317-3.4-.043-3.326-.433-.051-.433-.051v2.59l-.669-.1c-1.1-.156-1.062-.107-1.062-1.506,0-.922-.056-1.288-.2-1.29a2.848,2.848,0,0,1-.551-.1l-.354-.1v6.735l.551.066.551.065V20.669c0-1.651-.052-1.589,1.141-1.387l.59.1v1.49c0,1.284.038,1.5.275,1.563.694.185.677.27.633-3.216m-19.8,2.308a1.962,1.962,0,0,0,1.025-1.859,1.365,1.365,0,0,0-.328-1.147c-.337-.344-.337-.349-.04-.846a1.833,1.833,0,0,0,.064-1.865c-.3-.585-1.056-.8-2.359-.659l-.944.1L19.2,18.594l-.043,3.343,1.144-.112a6.494,6.494,0,0,0,1.523-.3m-1.559-1.679c0-.834.041-.964.331-1.041a.971.971,0,0,1,1.065,1.482.856.856,0,0,1-.811.462l-.585.049Zm0-2.838v-.878h.519c.629,0,.9.243.9.814,0,.51-.215.71-.9.843l-.511.1ZM36.257,21.5a2.829,2.829,0,0,0,.684-2.208c0-.843-.012-.854-1.14-.965l-.748-.073V18.8c0,.471.052.541.394.541.317,0,.393.08.393.411,0,.95-.75,1.372-1.312.74-.771-.868-.6-4.175.231-4.444a.848.848,0,0,1,.923.673c0,.14.194.215.551.215.625,0,.695-.213.316-.96a1.618,1.618,0,0,0-1.575-.963c-1.351,0-1.962,1.026-1.956,3.286a4.517,4.517,0,0,0,.709,2.979,2.087,2.087,0,0,0,2.529.226m-9.734-.17a3.1,3.1,0,0,0,.695-.922,6.973,6.973,0,0,0,.018-4.466,1.941,1.941,0,0,0-1.553-1.254,2.212,2.212,0,0,0-1.634,1.138c-.731,1.326-.588,4.259.258,5.283a1.12,1.12,0,0,0,1.127.472,2.241,2.241,0,0,0,1.09-.251m-1.5-1.144A3.9,3.9,0,0,1,24.7,18.3c-.04-1.241,0-1.527.279-1.982.407-.664.918-.643,1.261.051a6.821,6.821,0,0,1-.041,3.815c-.356.553-.817.553-1.173,0m4.52-.1c0-1.354.014-1.412.337-1.363.268.041.436.337.823,1.454l.486,1.4h1.177l-.517-1.511-.517-1.511.422-.406a2,2,0,0,0,.457-2.051c-.245-.928-.862-1.252-2.386-1.253H28.615l-.045,3.3c-.025,1.815-.034,3.312-.019,3.326a2.765,2.765,0,0,0,.511.026h.485Zm.118-2.446a2.719,2.719,0,0,1-.118-1V15.77l.663.091c.942.129,1.341.792.87,1.448-.212.3-1.221.534-1.416.335M.146,22.064c0-.22.036-.311.079-.2a.631.631,0,0,1,0,.4c-.044.11-.079.02-.079-.2m.022-1.443c0-.485.03-.683.065-.441a3.6,3.6,0,0,1,0,.881c-.036.243-.065.044-.065-.441" transform="translate(-0.121 -10.573)" fill="#5c4b21"/>
        <path id="패스_789247" data-name="패스 789247" d="M37.87,73.379a66.859,66.859,0,0,1-11.406-10.8C18.269,52.248,14.389,40.624,13.807,24.665c-.155-4.241.06-4.762,2.364-5.745q9.037-3.854,23.217-3.85a65.391,65.391,0,0,1,17.545,1.978,38.665,38.665,0,0,1,6.807,2.407,2.884,2.884,0,0,1,1.24,2.079,94.382,94.382,0,0,1-.5,10.264C62.823,46.52,57.516,57.914,47.877,67.444c-3.1,3.061-7.785,6.834-8.494,6.834a6.064,6.064,0,0,1-1.513-.9M28.8,60.339a1.2,1.2,0,0,0,.613-.921,2.747,2.747,0,0,1,.4-.991,2.174,2.174,0,0,0,.292-1.385,2.018,2.018,0,0,1,.634-1.782,5.683,5.683,0,0,0,1.008-2.016,8.208,8.208,0,0,1,.684-1.683,15.129,15.129,0,0,0,.8-1.448,3.239,3.239,0,0,1,.63-1c.334,0,.554.561.521,1.33-.042.982.069,1.4.376,1.4.2,0,.2.064-.011.473a2.229,2.229,0,0,0-.24.671A3.374,3.374,0,0,1,33.3,54.9a6.848,6.848,0,0,0-.905.687c-.193.186-.505.464-.693.617-.319.26-.423.708-.347,1.484.046.463.282.664.508.433.3-.3.469-.225.283.128-.153.29-.12.32.348.32.592,0,1.54-.528,1.54-.858a19.479,19.479,0,0,1,1.5-3.047,2.77,2.77,0,0,1,.691-.6,2.355,2.355,0,0,0,.753-.9c.353-.8.819-1.324,1.173-1.324.158,0,.287.038.287.085a6.975,6.975,0,0,1-1.166,2.052,3.594,3.594,0,0,0-.955,1.877c.123.2.547.2.547-.006a.157.157,0,0,1,.152-.16c.084,0,.109.115.056.257-.138.366.209.524.834.38.819-.188,1.318-.585,1.318-1.048a1.818,1.818,0,0,1,.337-.868,1.193,1.193,0,0,0,.244-1.046C39.72,52.787,39.943,52,40.2,52c.182,0,.543.758.764,1.6.308,1.18.429,1.248,2.223,1.248,1.192,0,1.62-.057,1.761-.235.1-.129.323-.386.49-.572a1.87,1.87,0,0,0,.328-1.255,2.424,2.424,0,0,1,.563-1.68c.673-.953,1.984-1.915,2.275-1.669a5.205,5.205,0,0,1,.621,1.236c.379.965.4,1.13.23,1.75a3.141,3.141,0,0,0-.1,1.131,2.1,2.1,0,0,1-.138.986c-.313.764-.277,1.1.165,1.551.479.488.686.5.862.033l.137-.361.149.393.148.393.418-.425a1.14,1.14,0,0,0,.19-1.546,1.369,1.369,0,0,1-.137-.8,4.288,4.288,0,0,0-.111-1.318,5.328,5.328,0,0,1,0-2.281c.19-1.246.183-1.348-.134-1.951-.506-.961-.447-1.054.454-.705,1.362.527,2.8.308,3.361-.515.4-.576.33-.79-.21-.68a2.621,2.621,0,0,1-2.431-.906l-.894-.8-.081-1.4a45.948,45.948,0,0,1-.023-4.664c.04-1.411.038-1.42-.583-2.364a9.35,9.35,0,0,1-.882-1.715A3.89,3.89,0,0,0,49,33.332c-.333-.361-.337-.4-.1-.873a2.677,2.677,0,0,0-1.157-3.765l-.852-.483-4.026-.128c-5.106-.162-6.069-.35-5.67-1.109.261-.5.82-.518,2.185-.078a6.674,6.674,0,0,0,3.763.238c.576-.2.513-.465-.113-.465a1.36,1.36,0,0,1-.738-.249c-.286-.233-.266-.243.324-.163,1.926.262,2.6.29,2.6.107,0-.1-.3-.318-.669-.478-2.278-.987-5.165-1.094-6.817-.254-.839.427-1.641,1.262-1.641,1.708,0,.3.767.911,1.357,1.088a43.957,43.957,0,0,0,4.7.339c4.417.168,5.158.305,5.742,1.061a1.535,1.535,0,0,1-.041,1.894l-.358.424-1.227-.258a23.071,23.071,0,0,1-2.593-.757c-2.357-.861-2.369-.858-4.237.731a20.569,20.569,0,0,1-2.749,1.869c-2.241,1.248-2.693,1.966-3.039,4.832a4.939,4.939,0,0,1-.894,2,8.374,8.374,0,0,0-1.7,4.337,13.443,13.443,0,0,1-.615,2.763,6.868,6.868,0,0,0-.478,2.825,3.681,3.681,0,0,1-.383,2.164,5.087,5.087,0,0,0-.481,1.5,3.041,3.041,0,0,1-.936,2.311,5,5,0,0,0-.806,1.165,3.324,3.324,0,0,1-.562.9,1.716,1.716,0,0,0-.537,1.6c.094.246.157.22.5-.2l.4-.481-.1.6-.1.6h.676a2.5,2.5,0,0,0,1.179-.313ZM40.876,26.658c-.163-.269-.035-.283.557-.06l.551.207-.5.012a.844.844,0,0,1-.606-.159M16.784,40.414a95.309,95.309,0,0,1-1.465-13.185c-.256-5.228-.262-5.288-.556-5.745-.151-.235-.337-.426-.413-.426-.456,0,.139,9.093.9,13.786.437,2.69,1.418,6.733,1.634,6.733a2.835,2.835,0,0,0-.1-1.162M19.56,25.506a1.73,1.73,0,0,0-.054-.6c-.03,0-.466.144-.97.321a2.811,2.811,0,0,1-1,.239,25.2,25.2,0,0,1-.152-2.725,14.064,14.064,0,0,0-.2-2.643,2.459,2.459,0,0,0-.53.156l-.4.156v6.886l1.652-.594,1.652-.594ZM62.4,20.4a1.637,1.637,0,0,0-.554-.229l-.433-.109v6.766l.511.213.511.213.043-3.367A26.517,26.517,0,0,0,62.4,20.4Zm-2.088,2.592a26.081,26.081,0,0,0-.118-3.428,3.639,3.639,0,0,0-.645-.186l-.527-.115.055,1.619a8.4,8.4,0,0,1-.024,1.618,12.591,12.591,0,0,1-.749-1.723c-.821-2.109-.788-2.057-1.414-2.2l-.511-.113v3.37a26.2,26.2,0,0,0,.118,3.437,3.329,3.329,0,0,0,.551.173l.433.105V23.674a4.953,4.953,0,0,1,.131-1.726,22.96,22.96,0,0,1,.893,2.131c.741,1.927.954,2.225,1.612,2.259.151.008.2-.763.2-3.347m-39.84,2.862c.437-.155.51-.274.67-1.106.164-.852.22-.94.654-1.028.711-.145.714-.143.822.508.155.933.247,1.016.918.827a1.363,1.363,0,0,0,.583-.249c0-.047-.274-1.107-.608-2.357s-.7-2.653-.818-3.119c-.206-.83-.22-.845-.69-.745a1.831,1.831,0,0,0-.594.209c-.114.107-1.693,6.659-1.7,7.033,0,.245.127.25.757.026m1.191-3.7a5.159,5.159,0,0,0,.1-.743c0-.4.262,0,.365.556.076.418.036.519-.233.591-.29.077-.315.033-.229-.4m43.04.591c.01-1.155-.1-1.843-.289-1.843a1.109,1.109,0,0,0-.392.211c-.271.2-.272.285-.015,1.964.147.964.308,1.861.357,1.993.13.347.328-1.012.339-2.324m-9.427-1.1V18.212l-.5-.1a1.673,1.673,0,0,0-.529-.06c-.018.023-.079,1.531-.136,3.351l-.1,3.31.593.161c.326.088.611.168.633.177s.039-1.525.039-3.41m-29.779,3c.335-.091.355-.181.369-1.641l.015-1.544.511,1.565a16.068,16.068,0,0,0,.6,1.652c.047.048.229-.4.4-1l.552-1.892.234-.8L28.2,22.6l.016,1.618.59-.1.59-.1-.059-3.363c-.032-1.849-.078-3.385-.1-3.412a1.573,1.573,0,0,0-.565.089c-.51.135-.537.185-1.072,2.034l-.549,1.9-.572-1.745c-.564-1.722-.578-1.744-1.03-1.691a1.391,1.391,0,0,0-.568.16,29.283,29.283,0,0,0-.157,3.433c-.052,3.594-.084,3.46.778,3.225m27.576-3.416a26.174,26.174,0,0,0-.118-3.43,2.262,2.262,0,0,0-.59-.13l-.472-.056-.046,1.242c-.046,1.233-.049,1.242-.472,1.24-1.062-.005-1.118-.077-1.167-1.5l-.045-1.306-.511-.05-.511-.05V20.55c0,3.593-.009,3.554.794,3.554.265,0,.3-.155.341-1.482l.045-1.483.629.055a3.07,3.07,0,0,1,.748.13,5.869,5.869,0,0,1,.118,1.577v1.5l.511.065c.281.036.565.076.63.09a23.429,23.429,0,0,0,.118-3.331m-20.027,2.3a2.224,2.224,0,0,0,.849-3.045c-.254-.424-.265-.532-.078-.792a2.634,2.634,0,0,0-.036-2.138c-.38-.553-.945-.7-2.224-.578l-1.144.109v6.864l1.062-.106a7.225,7.225,0,0,0,1.57-.315m-1.467-1.093a3.3,3.3,0,0,1-.034-.922c.045-.633.091-.7.492-.751.618-.072.9.224.9.957,0,.524-.065.651-.4.782-.558.216-.85.2-.949-.066m-.064-3.528c0-.611.05-.717.381-.8.531-.136.864.031.977.487a.873.873,0,0,1-.91,1.018c-.424,0-.448-.037-.448-.7m15.8,4.689c.57-.264.881-1.064.881-2.265V20.3l-.73-.1c-1.146-.16-1.158-.155-1.158.459,0,.454.06.561.315.561.457,0,.462,1.213.006,1.361-.8.259-1.262-.638-1.264-2.448,0-1.345.316-2.119.87-2.119.319,0,.457.114.6.491.168.454.224.483.734.386a2.949,2.949,0,0,0,.6-.153,1.716,1.716,0,0,0-.178-.6,1.811,1.811,0,0,0-3.423-.214,6.891,6.891,0,0,0-.3,3.7c.265,1.3,1.071,2.165,2.02,2.165a3,3,0,0,0,1.034-.182m-9.571-.28c.7-.436,1.055-1.319,1.136-2.838.13-2.447-.635-3.913-2.042-3.913a1.346,1.346,0,0,0-1.154.531c-.694.707-.911,1.607-.837,3.48a3.927,3.927,0,0,0,.407,2.1,1.71,1.71,0,0,0,2.49.642m-1.256-1.067c-.807-.822-.665-4.144.192-4.479,1-.391,1.476,3.4.555,4.433-.318.358-.434.365-.748.046m7.144,1.239c0-.072-.211-.767-.469-1.545L42.7,20.533l.487-.565a1.407,1.407,0,0,0,.417-1.422c-.117-1.444-.9-1.974-2.915-1.976H39.7v6.893h1.259V22.02c0-1.923.262-1.926.941-.009.447,1.261.558,1.441.924,1.5.744.116.81.115.81-.017m-2.675-4.878v-.859l.545.065c.686.082.906.348.842,1.023-.047.5-.088.534-.719.581l-.669.049ZM15.62,20.056c.012-.212-.541-.129-.914.137l-.361.258.359.389.359.389.276-.527a3.317,3.317,0,0,0,.282-.647" transform="translate(-11.378 -12.453)" fill="#282928"/>
        <path id="패스_789248" data-name="패스 789248" d="M37.631,72.814c-11.063-8.477-17.9-18.885-21.077-32.064A79.057,79.057,0,0,1,14.505,23.4c0-3,.211-3.331,2.795-4.377,8.3-3.36,20.623-4.543,32.61-3.132,6.067.714,13.744,2.947,14.952,4.349.491.569.6.893.272.77a.785.785,0,0,0-.557.211c-.36.283-.36.287-.132,1.64.126.746.279,2.132.34,3.08a6.576,6.576,0,0,0,.23,1.723c.209,0,.312-1.14.349-3.847l.036-2.645.055,2.164a76.131,76.131,0,0,1-1.462,15A55.8,55.8,0,0,1,53.276,62.215c-3.378,4.332-11.92,12.1-13.3,12.1A8.988,8.988,0,0,1,37.631,72.814Zm3.8.2A37.9,37.9,0,0,0,47.8,67.554c3.177-3.277,5.017-5.463,5.653-6.717.194-.383.185-.457-.089-.71-.3-.274-.369-.218-2.473,1.9-2.63,2.645-4.448,4.14-4.448,3.656,0-.286-2.037-1.462-3.253-1.878a8.937,8.937,0,0,0-6.456.185l-.818.366-.262-.909c-.74-2.569-1.155-5.982-.76-6.245a4.675,4.675,0,0,0,.611-1.116,4.476,4.476,0,0,1,1.257-1.714,3.252,3.252,0,0,0,.964-1.227c.149-.529.845-1.192,1.142-1.087.256.09-.308,1.236-1.024,2.079a6.085,6.085,0,0,0-.835,1.252c-.182.448-.176.55.044.774s.263.234.37-.051.125-.272.209.092c.121.524.589.585,1.466.19.611-.276.7-.385.792-.951a1.7,1.7,0,0,1,.35-.851c.168-.142.236-.424.209-.862-.042-.683.132-1.533.314-1.533s.614.866.728,1.484a2.766,2.766,0,0,0,.419,1c.293.379.389.4,1.931.4h1.622l.448-.6a2.13,2.13,0,0,0,.473-1.437,3.7,3.7,0,0,1,1.75-2.933l.9-.654.256.346a6.669,6.669,0,0,1,.59,1.292c.261.739.3,1.04.174,1.375a6.5,6.5,0,0,0-.219,1.4c-.033.534-.107,1.231-.164,1.548-.091.5-.049.622.324.922.542.434.677.431.854-.017.1-.261.145-.286.152-.09.017.458.328.5.742.106.336-.322.381-.473.3-1.019-.052-.353-.155-1.11-.23-1.683a8.6,8.6,0,0,0-.252-1.328,6.728,6.728,0,0,1,.082-1.764c.19-1.409.184-1.509-.138-2.152-.461-.921-.431-1.065.16-.753a4.466,4.466,0,0,0,2.807.227c.514-.217,1.1-.866,1.1-1.216,0-.157-.19-.189-.747-.124a1.362,1.362,0,0,1-1.244-.288c-.273-.206-.787-.592-1.144-.856-.616-.457-.643-.513-.56-1.141a6.5,6.5,0,0,0-.172-1.824,5.77,5.77,0,0,1-.166-1.664c.052-.275.164-.846.25-1.269a4.33,4.33,0,0,0-.775-3.281,8.128,8.128,0,0,1-.8-1.561,4.823,4.823,0,0,0-.5-1.084c-.293-.426-.295-.474-.039-1.26a2.689,2.689,0,0,0-1.457-3.527c-.7-.348-1.015-.381-4.607-.487-3.454-.1-5.25-.274-5.677-.543-.293-.184-.14-.723.257-.907.338-.157.622-.113,1.77.277a6.3,6.3,0,0,0,3.855.256c.566-.228.439-.43-.351-.559a1.446,1.446,0,0,1-.721-.262c-.134-.221.2-.2,1.406.084.974.23,1.82.192,1.82-.081a6.691,6.691,0,0,0-2.462-1.03,10.511,10.511,0,0,0-4.6.01,3.578,3.578,0,0,0-2.133,1.757c-.132.536.309,1.052,1.135,1.33a44.313,44.313,0,0,0,4.992.4c4.682.216,5.109.3,5.655,1.092a1.563,1.563,0,0,1-.119,1.822c-.357.423-.382.428-1.219.239-.47-.106-1.778-.5-2.906-.873-1.59-.527-2.156-.65-2.518-.549a7.222,7.222,0,0,0-1.646,1.169,17.331,17.331,0,0,1-2.72,1.865c-2.169,1.164-2.834,2.07-3.1,4.224a7.664,7.664,0,0,1-1.506,3.6A6.894,6.894,0,0,0,31.657,45a9.81,9.81,0,0,1-.551,2.481,7.912,7.912,0,0,0-.551,3.1,3.915,3.915,0,0,1-.393,2.2,5.58,5.58,0,0,0-.482,1.578,3.139,3.139,0,0,1-1.007,2.4A3.966,3.966,0,0,0,27.88,58c0,.158-.068.287-.152.287-.264,0-.95,1.178-.95,1.631,0,.605.3.733.65.276l.292-.384-.1.521c-.084.453-.054.521.231.521.226,0,.46.236.755.761a41.259,41.259,0,0,0,8.084,9.6,19.42,19.42,0,0,0,3.545,2.464,5.731,5.731,0,0,0,1.19-.663M30.708,58.22a4.133,4.133,0,0,0,.139-1.209,1.768,1.768,0,0,1,.453-1.4,5.831,5.831,0,0,0,1.142-2.288,20.131,20.131,0,0,1,2.029-4.013c.328,0,.49.483.49,1.467,0,.811.061,1.117.244,1.221.4.228-.172,1.862-.906,2.587a12.278,12.278,0,0,1-1.891,1.654,1.17,1.17,0,0,0-.534.922c-.056.355-.158.645-.226.645a2.163,2.163,0,0,0-.611.417l-.486.417ZM41.57,26.868c-.195-.128-.181-.154.079-.147a2.031,2.031,0,0,1,.63.147c.288.126.282.139-.079.147a1.306,1.306,0,0,1-.63-.147m-22.286,20.4c-.295-.948-.851-3.022-1.236-4.609-1.319-5.437-1.761-9.1-2.215-18.377a5.8,5.8,0,0,0-.4-2.525c-.35-.586-.612-.644-.628-.138a73.354,73.354,0,0,0,2.679,21.062,49.217,49.217,0,0,0,2.221,6.309,7.325,7.325,0,0,0-.425-1.723m4.9-9.413a11.659,11.659,0,0,0,7.253-6.1c.164-.353.3-.677.31-.721s.146-.513.31-1.042a9.449,9.449,0,0,0,.3-2.885c.007-2.157-.108-2.8-.508-2.825-.15-.011.133-.08.628-.154,1.708-.255,2.325-.883,2.325-2.366a1.812,1.812,0,0,0-.3-1.17c-.283-.355-.285-.4-.039-.676a1.733,1.733,0,0,0,.263-1.1,1.279,1.279,0,0,0-.514-1.266c-.542-.493-1.245-.592-2.594-.365l-.59.1v2.13a18.1,18.1,0,0,1-.1,2.384.521.521,0,0,1-.472.253h-.377V19.735c0-2.3,0-2.324-.354-2.322-.917.006-.984.095-1.54,2.044l-.53,1.862L27.106,19.6l-.553-1.715-.556.1a3.653,3.653,0,0,0-.674.17,11.841,11.841,0,0,0-.118,2.286v2.217l-.416.106c-.229.059-.466.048-.528-.023a16.918,16.918,0,0,1-.6-2.032c-.268-1.047-.519-1.935-.558-1.974a1.441,1.441,0,0,0-.627.035l-.557.106-.414,1.787c-.748,3.233-.6,2.933-1.536,3.155a11.014,11.014,0,0,0-1.336.408l-.511.212V22.274c0-1.922-.029-2.162-.251-2.075-.138.054-.425.143-.637.2l-.387.1.06,3.627A29.658,29.658,0,0,0,18.186,33.3c.77,2.845,1.464,4.617,1.881,4.8a11.873,11.873,0,0,0,4.115-.248M22.277,22.447a2.036,2.036,0,0,0,.1-.593c0-.438.241-.178.376.406.087.375.052.441-.232.441-.24,0-.308-.071-.239-.254m10.009-.529c0-.668.05-.8.34-.873.547-.146.919.157.919.748,0,.641-.24.908-.818.908-.422,0-.44-.032-.44-.783m-5.717.515a.591.591,0,0,1-.1-.361c0-.208.035-.2.172.039.169.3.12.518-.072.322m2.123-.534c0-.22.036-.311.079-.2a.63.63,0,0,1,0,.4c-.044.11-.079.02-.079-.2m3.594-2.805c0-.718,0-.721.551-.721s.641.127.559.8a.9.9,0,0,1-.825.641c-.232,0-.285-.132-.285-.721M62.647,33.61a30.345,30.345,0,0,0,1.105-6.7,3.943,3.943,0,0,0-.309-1.564,6.055,6.055,0,0,1-.309-2.738l-.005-2.1-.546-.171-.546-.171-.044,1.947c-.042,1.844-.061,1.945-.359,1.9-.71-.107-.708-.1-.708-2.252V19.695l-.492-.1a5.391,5.391,0,0,0-.63-.1,4.581,4.581,0,0,0-.144,1.563l-.006,1.563-.717-1.763c-.394-.97-.763-1.81-.82-1.867a1.909,1.909,0,0,0-.615-.213l-.511-.11v2.1c0,2.081,0,2.1-.362,2.1-.659,0-.74-.262-.74-2.418,0-1.973-.01-2.036-.354-2.13-.921-.252-.9-.289-.9,2.082v2.183l-.354-.1a3.04,3.04,0,0,0-.472-.1,10.689,10.689,0,0,1-.118-2.227V17.931l-.492-.1a5.4,5.4,0,0,0-.63-.1,3.12,3.12,0,0,0-.138,1.282c0,1.383.009,1.372-.918,1.183l-.486-.1-.045-1.3-.045-1.3-.59-.05-.59-.05v6.877l.556.066a1.48,1.48,0,0,0,.629-.009,8.356,8.356,0,0,0,.074-1.491c0-1.53-.016-1.507.925-1.316l.492.1.01,1.222a46.05,46.05,0,0,0,.352,4.909,8.578,8.578,0,0,0,4.852,5.7,7.5,7.5,0,0,0,3.473.589c1.316-.017,1.376-.034,1.532-.428M58.337,23.141c-.165-.552-.2-.914-.089-.842.212.133.475,1.043.3,1.043a.267.267,0,0,1-.214-.2m-10.2.59c.506-.338.67-.862.67-2.145,0-1.218-.066-1.284-1.3-1.289-.584,0-.59,0-.59.639,0,.534.053.641.315.641.242,0,.315.107.315.461,0,.675-.366.929-.862.6s-.633-.836-.633-2.348c0-1.835.7-2.688,1.305-1.591.229.415.348.479.819.441.494-.04.548-.09.521-.487A1.991,1.991,0,0,0,46.36,17a2.464,2.464,0,0,0-1.465,1.761,6.4,6.4,0,0,0,.619,4.638,2.019,2.019,0,0,0,2.625.334m-9.588-.309a3.814,3.814,0,0,0,1.02-2.963c.04-2.348-.692-3.69-2.014-3.69-1.393,0-2.2,1.323-2.2,3.607a4.086,4.086,0,0,0,.975,3.124,1.857,1.857,0,0,0,2.219-.078m-1.564-1.147a4.314,4.314,0,0,1-.26-1.8c-.049-1.7.133-2.306.72-2.392s.868.861.789,2.56c-.067,1.433-.253,1.9-.756,1.9a.749.749,0,0,1-.492-.265m4.55.064c.061-1.874.317-1.864.986.04l.507,1.443h.687a2.9,2.9,0,0,0,.681-.04c0-.022-.238-.715-.523-1.539l-.517-1.5.444-.453a1.405,1.405,0,0,0,.444-1.259c0-1.662-.542-2.135-2.557-2.235l-1.377-.068v3.453c0,3.679-.006,3.653.787,3.59.384-.03.394-.066.439-1.433m.033-3.487c0-.8,0-.8.519-.8.625,0,.9.243.9.8s-.272.8-.9.8c-.518,0-.519,0-.519-.8M15.921,21.205a2.584,2.584,0,0,1,.4-.792c.32-.479.35-.6.151-.6a3.869,3.869,0,0,0-1.494.731,2.615,2.615,0,0,0,.34.552c.33.454.6.5.6.108M25.082,17.5a91,91,0,0,1,20.029-1.042c2.824.155,7.614.629,9.52.942.826.136,1.1.115.913-.071a49.955,49.955,0,0,0-5.791-1.1,72.507,72.507,0,0,0-11.871-.536A54.762,54.762,0,0,0,26.464,16.7c-2.671.53-4.921,1.194-4.044,1.194.141,0,1.339-.178,2.662-.4" transform="translate(-11.987 -12.653)" fill="#040404"/>
      </g>
    </g>
  </g>
</svg>
