<svg xmlns="http://www.w3.org/2000/svg" width="100" height="100" viewBox="0 0 100 100">
  <g id="car_logo_saturn" transform="translate(-225 -160)">
    <g id="W_100_H_100" data-name="W 100 H 100" transform="translate(225 160)" fill="#f9f9f9" stroke="#f0f0f0" stroke-width="1" opacity="0">
      <rect width="100" height="100" stroke="none"/>
      <rect x="0.5" y="0.5" width="99" height="99" fill="none"/>
    </g>
    <g id="saturn" transform="translate(-178.783 -2908.464)">
      <path id="패스_791897" data-name="패스 791897" d="M481.619,3107.571a27.67,27.67,0,0,1,5.186-15.106h22.639v1.089a89.428,89.428,0,0,0-27.825,14.017Z" transform="translate(-34.557 0)" fill="#ff361d" fill-rule="evenodd"/>
      <path id="패스_791898" data-name="패스 791898" d="M505.495,3143.366a27.835,27.835,0,0,1-23.279-23.937c1-.947,2.093-1.9,3.283-2.823,7.279-5.661,13.916-9.434,24.343-13.3v40.064Z" transform="translate(-34.955 -7.225)" fill="#ff361d" fill-rule="evenodd"/>
      <path id="패스_791899" data-name="패스 791899" d="M482.148,3179.441a30.021,30.021,0,0,1-17.479-22.027c-4.08,4.449-6.05,8.856-5.936,12.173.214,6.263,6.259,9.854,14.864,9.854Z" transform="translate(-19.296 -43.3)" fill="#ff361d" fill-rule="evenodd"/>
      <path id="패스_791900" data-name="패스 791900" d="M445.383,3109.287c0-.2,0-.413,0-.62a29.833,29.833,0,0,1,4.756-16.2h-19.6v38.8h1.079a14.982,14.982,0,0,1,.211-3.044c1.235-6.369,6.369-13.031,13.555-18.933Z" transform="translate(-0.503 0)" fill="#ff361d" fill-rule="evenodd"/>
      <path id="패스_791901" data-name="패스 791901" d="M436.913,3233.607v-1.539h-4.558a2.35,2.35,0,0,0-2.571,2.582,2.419,2.419,0,0,0,2.72,2.5h2.014a1.045,1.045,0,0,1,1.109,1.052,1.1,1.1,0,0,1-1.207,1.164h-4.4v1.6H434.6a2.611,2.611,0,0,0,2.825-2.8,2.5,2.5,0,0,0-2.673-2.616h-2.188a.878.878,0,0,1-.954-.972.913.913,0,0,1,1-.974Z" transform="translate(0 -93.07)" fill="#231815" fill-rule="evenodd"/>
      <path id="패스_791902" data-name="패스 791902" d="M458.293,3232.068h-2.051l-3.433,8.9h1.849l2.546-6.856,2.454,6.856H461.6l-3.307-8.9Z" transform="translate(-15.35 -93.07)" fill="#231815" fill-rule="evenodd"/>
      <path id="패스_791903" data-name="패스 791903" d="M482.771,3232.068h-7.355v1.537H478.2l0,7.361h1.793V3233.6h2.779l0-1.537Z" transform="translate(-30.422 -93.07)" fill="#231815" fill-rule="evenodd"/>
      <path id="패스_791904" data-name="패스 791904" d="M498.911,3236.987c0,1.381-.027,2.281.938,3.246a4.029,4.029,0,0,0,5.252,0c.961-.964.947-1.864.947-3.246v-3.418H508.5c.888,0,1.37.435,1.37,1.259,0,.9-.639,1.3-1.46,1.3h-1.151l2.707,4.838h2.066l-2.267-3.67a2.62,2.62,0,0,0,1.9-2.591,2.5,2.5,0,0,0-2.589-2.636h-4.852l0,5.87a1.638,1.638,0,0,1-1.738,1.623h0a1.649,1.649,0,0,1-1.741-1.623l0-5.87h-1.833v4.919Z" transform="translate(-46.085 -93.07)" fill="#231815" fill-rule="evenodd"/>
      <path id="패스_791905" data-name="패스 791905" d="M540.734,3240.965v-8.9h2.786l3.531,6.829v-6.829h1.8v8.9h-2.565l-3.736-7.154v7.154Z" transform="translate(-73.967 -93.07)" fill="#231815" fill-rule="evenodd"/>
      <path id="패스_791906" data-name="패스 791906" d="M570.2,3251.228a1.6,1.6,0,1,1,1.6,1.6,1.6,1.6,0,0,1-1.6-1.6Zm2.914,0a1.317,1.317,0,1,0-1.313,1.323,1.315,1.315,0,0,0,1.313-1.323Zm-1.653.108v.812h-.293v-1.879h.608c.344,0,.7.093.7.519a.433.433,0,0,1-.381.438v.007c.259.052.288.165.317.369a2.738,2.738,0,0,0,.111.546h-.374c-.022-.109-.052-.226-.064-.337a.689.689,0,0,0-.105-.4c-.072-.076-.17-.068-.273-.076Zm.31-.295c.278-.008.342-.123.342-.268s-.064-.211-.3-.211h-.355v.48Z" transform="translate(-93.611 -104.781)" fill="#231815" fill-rule="evenodd"/>
    </g>
  </g>
</svg>
