<svg xmlns="http://www.w3.org/2000/svg" width="100" height="100"><path data-name="패스 791837" d="M22.23 63.157h1.876c.294.671.559 1.38.776 1.992.123-.006.254-.02.388-.02s.244.013.39.02l-2.215-5.158h-.174l-2.3 5.158c.083-.006.156-.02.257-.02s.174.013.273.02c.207-.693.47-1.343.732-1.992m.947-2.2l.823 1.893h-1.631z" fill="#231815"/><path data-name="패스 791838" d="M28.525 64.919a1.332 1.332 0 01-1.2-.765h-.075a2.707 2.707 0 01-.133.656 1.887 1.887 0 001.2.426 1.686 1.686 0 001.827-1.679c0-1.581-2.33-1.034-2.33-2.387a.872.872 0 01.934-.862.939.939 0 01.911.638h.073a4.287 4.287 0 01.2-.6 1.634 1.634 0 00-1.058-.358 1.448 1.448 0 00-1.638 1.422c0 1.663 2.313 1.06 2.313 2.436a1.036 1.036 0 01-1.026 1.077" fill="#231815"/><path data-name="패스 791839" d="M32.507 60.448v4.715c.1 0 .21-.021.324-.021s.206.016.323.021v-4.715a12.137 12.137 0 011.544.093c-.007-.072-.023-.149-.023-.221s.016-.141.023-.226H30.89c0 .085.021.148.021.226s-.019.149-.021.221a12.956 12.956 0 011.617-.093" fill="#231815"/><path data-name="패스 791840" d="M40.75 62.511a2.525 2.525 0 00-2.792-2.526 2.584 2.584 0 00-2.741 2.64 2.515 2.515 0 002.726 2.611 2.627 2.627 0 002.807-2.725m-4.806.2c0-1.5.781-2.484 2.082-2.484a1.937 1.937 0 011.532.715 2.425 2.425 0 01.47 1.625 2.245 2.245 0 01-2.066 2.423 2.031 2.031 0 01-2.018-2.278" fill="#231815"/><path data-name="패스 791841" d="M42.66 61.174h.074l3.189 3.529c.154.164.306.348.385.445h.221v-5.054a1.439 1.439 0 01-.206.026 1.109 1.109 0 01-.206-.026v3.808h-.073l-3.514-3.808h-.286v5.054c.07-.006.131-.02.208-.02s.133.013.208.02z" fill="#231815"/><path data-name="패스 791842" d="M51.116 61.335c.506.961 1.017 1.925 1.49 2.9l.409.834h.083c.44-1.019 1.074-2.2 1.93-3.731.1.737.254 2.33.374 3.813.118-.006.234-.02.348-.02s.218.014.348.02c-.2-1.408-.4-3.226-.6-5.056h-.148c-.747 1.331-1.428 2.617-2.131 3.878-.79-1.31-1.5-2.7-2.091-3.878h-.187c-.076.783-.519 3.868-.71 5.056.092-.006.168-.02.265-.02.081 0 .165.014.26.02 0-.906.2-2.372.36-3.813" fill="#231815"/><path data-name="패스 791843" d="M58.27 63.157h1.876c.291.671.565 1.38.776 1.992.123-.006.254-.02.387-.02s.245.013.386.02l-2.219-5.158h-.165l-2.3 5.158c.083-.006.162-.02.258-.02s.169.013.271.02c.207-.693.469-1.343.731-1.992m.943-2.2l.824 1.893h-1.626z" fill="#231815"/><path data-name="패스 791844" d="M66.039 61.223c0-.747-.5-1.129-1.641-1.129h-1.565v5.056c.1-.007.207-.021.324-.021s.2.013.322.021v-2.468h.285l.587.692.871 1.129c.154.21.307.416.472.647.126-.007.276-.021.418-.021s.271.013.428.021l-.142-.186-.355-.411-1.523-1.928c.751-.135 1.519-.548 1.519-1.4m-1.61 1.146a4.16 4.16 0 01-.953.032v-2.03a6.692 6.692 0 011.092.01.86.86 0 01.809.93 1.072 1.072 0 01-.947 1.058" fill="#231815"/><path data-name="패스 791845" d="M68.444 60.448v4.715c.111 0 .213-.021.324-.021s.211.016.331.021v-4.715a12.286 12.286 0 011.541.093c-.006-.072-.022-.149-.022-.221s.016-.141.022-.226h-3.808c.006.085.019.148.019.226s-.012.149-.019.221a13.016 13.016 0 011.612-.093" fill="#231815"/><path data-name="패스 791846" d="M72.294 60.094c-.118.011-.223.026-.326.026a3.24 3.24 0 01-.325-.026v5.054c.108-.006.217-.02.325-.02s.207.013.326.02z" fill="#231815"/><path data-name="패스 791847" d="M75.158 61.174h.078l3.192 3.529c.151.164.3.348.384.445h.221v-5.054a1.487 1.487 0 01-.211.026 1.168 1.168 0 01-.2-.026v3.808h-.075l-3.5-3.808h-.3v5.054c.068-.006.135-.02.213-.02.058 0 .125.013.2.02z" fill="#231815"/><path data-name="패스 791848" d="M86.919 40H56.197a2.984 2.984 0 00-2.091.72 2.6 2.6 0 00-.764 1.315c0 .022-.05.122-.3.122h-6.079c-.26 0-.3-.1-.3-.117a2.678 2.678 0 00-.767-1.319 2.989 2.989 0 00-2.092-.72H13.077a1.184 1.184 0 00-.957.442.923.923 0 00.055 1c.007 0 .56.853.56.853a1.151 1.151 0 001.046.5.617.617 0 01.445.31l.576.922a1.6 1.6 0 001.376.829.626.626 0 01.456.3l.706 1.132c.2.375.494.506 1.019.659l12.855 3.444a1.051 1.051 0 01.615.567c.3.729.705 1.32 2.716 1.875l10.506 2.623a2.5 2.5 0 002.244-.428l2.459-2.147a.361.361 0 01.489 0c.008 0 2.461 2.147 2.461 2.147a2.5 2.5 0 002.248.428s10.505-2.623 10.516-2.623c2-.556 2.421-1.159 2.7-1.875a1.023 1.023 0 01.615-.567s1.945-.523 12.847-3.444c.533-.153.821-.284 1.026-.659l.7-1.12a.625.625 0 01.455-.313 1.623 1.623 0 001.391-.829c-.005 0 .571-.922.571-.922a.619.619 0 01.448-.31 1.1 1.1 0 001.033-.5l.573-.853a1.181 1.181 0 00.17-.578.811.811 0 00-.117-.417 1.18 1.18 0 00-.965-.448M53.9 42.151a2.034 2.034 0 01.607-1.061 2.407 2.407 0 011.686-.562h14.113a2.759 2.759 0 00-.752.774c-.165.277-.373.608-.614.981H53.85a1.422 1.422 0 00.054-.132m11.763 3.095v-.642l1.352.169c-.185.206-.373.41-.571.624-.35-.066-.614-.118-.781-.151m.44.5c-.142.139-.291.283-.44.437v-.518zm-.44-1.549v-.558l2.189.136c-.158.2-.335.41-.51.624zm0-.984v-.527h3c-.154.215-.319.446-.5.688zm-21.861-2.686a2.409 2.409 0 011.687.563 2.012 2.012 0 01.61 1.061.628.628 0 00.055.132H31.063a30.142 30.142 0 01-.619-.981 2.587 2.587 0 00-.75-.774zm-10.251 4.87c-.2-.214-.39-.417-.575-.624l1.348-.169v.644zm.773.268v.513a11.732 11.732 0 00-.432-.432c.177-.032.319-.061.432-.081M32.665 44.4c-.181-.214-.357-.419-.518-.624l2.181-.136v.558zm-.829-1.029c-.179-.239-.352-.47-.5-.685h2.991v.527zM13.82 42.284c-.384-.03-.468-.068-.592-.252 0 0-.51-.783-.554-.835a.656.656 0 01-.107-.331c.009-.187.15-.333.527-.337h15.312a2.17 2.17 0 011.651.966c.133.234.3.492.482.79zm2.078 1.982a.957.957 0 01-.593-.478c-.234-.374-.553-.923-.708-1.1h16.215c.154.225.327.465.506.717l-14.22.863a5.148 5.148 0 01-1.2 0m1.921 1.74l-.683-1.1a.816.816 0 00-.161-.21c.094-.008 14.65-.894 14.65-.894.165.214.337.438.53.661l-13.628 1.668c-.515.061-.674-.094-.708-.127m4.015 1.327c-1.414-.385-2.561-.687-3.048-.82l13.68-1.678c.192.216.382.433.59.658l-9.368 1.75a5.88 5.88 0 01-1.854.09m4.637 1.243c-1.044-.281-2.145-.575-3.186-.854a9.42 9.42 0 00.5-.072s6.788-1.28 9.612-1.811c.278.287.572.571.884.862l-6.282 1.768a3.3 3.3 0 01-1.523.106m4.894 1.313c-.136-.037-1.631-.44-3.545-.951a1.62 1.62 0 00.311-.082c0 .006 5.27-1.482 6.5-1.834.447.4.935.8 1.451 1.189l-3.4 1.449a2.48 2.48 0 01-1.323.228m12.541 1.629a21.674 21.674 0 01-2.3-.739c1.591-1.514 3.5-3.338 3.959-3.776h1.263zM47.339 47h1.059l-1.539 5.072a26.898 26.898 0 01-2.514-.45c1.124-1.732 2.614-4.04 2.994-4.623m-6.179 3.608a24.293 24.293 0 01-1.874-.87c1.813-1.19 3.716-2.428 4.184-2.738h1.474zm-2.3-1.095a21.053 21.053 0 01-1.943-1.215c1.441-.613 2.784-1.191 3.039-1.3h2.753zm-2.343-1.5c-.028-.024-.9-.7-1.277-1.015h3.667zm-2.434 4.13c-1.331-.46-1.531-.924-1.72-1.361a1.725 1.725 0 00-.326-.5 3.8 3.8 0 00.841-.257c-.009 0 1.8-.767 3.578-1.538a22.458 22.458 0 002.011 1.278l-3.172 2.079a1.7 1.7 0 01-1.212.3m3.807.978l-2.815-.7a2.635 2.635 0 00.489-.25s1.567-1.028 3.321-2.176a20.41 20.41 0 001.945.921l-1.846 1.766a1.5 1.5 0 01-1.094.442m3.9.973l-3.022-.753a2.54 2.54 0 00.54-.387s.872-.824 1.957-1.861a24.887 24.887 0 002.4.776l-.995 1.548c-.124.2-.532.727-.883.677m3.939.766a.869.869 0 01-.606.071l-2.65-.664a2.408 2.408 0 00.58-.646s.448-.694 1.055-1.639a23.944 23.944 0 002.633.482l-.513 1.688a1.268 1.268 0 01-.5.706m1.17-.211a1.406 1.406 0 01-.648.325 1.742 1.742 0 00.413-.737l.522-1.724c.655.073 1.326.121 2 .136l-2.289 2m2.883-2.4c-.847 0-1.668-.051-2.481-.131l1.558-5.123h.924zm-15-5.66s-.008 0-.008-.011v-3.9h30.459v3.9h-.012zm18.393.406h1.252l3.97 3.783a21.678 21.678 0 01-2.308.725zm2.47 4.623c-.813.189-1.65.335-2.513.45l-1.53-5.072h1.054zm-.592-4.623h1.48l4.19 2.738c-.617.322-1.239.608-1.877.87a1014.604 1014.604 0 01-3.783-3.608m2.232 0h2.747l3.044 1.3a20.733 20.733 0 01-1.945 1.215c-1.465-.961-3.01-1.97-3.846-2.513m3.8 0h3.663c-.375.343-1.256 1-1.28 1.015-.9-.377-1.765-.754-2.384-1.015m-10.869 5.254v-5.254h.917l1.558 5.123a23.643 23.643 0 01-2.475.131m2.5 2.064s-1.428-1.247-1.912-1.667c.681-.015 1.345-.07 2-.136l.528 1.729a1.684 1.684 0 00.409.732c-.4-.1-.516-.208-1.025-.659m2.157.615a.869.869 0 01-.609-.071 1.286 1.286 0 01-.5-.706l-.51-1.688a23.948 23.948 0 002.624-.482l1.066 1.644a2.372 2.372 0 00.574.641zm3.329-.837c-.352.05-.755-.472-.875-.668l-1-1.557a24.77 24.77 0 002.4-.776l1.953 1.861a2.679 2.679 0 00.547.387zm4.4-1.1l-.506.125a1.49 1.49 0 01-1.094-.442l-1.848-1.766a20.479 20.479 0 001.946-.921l3.329 2.178a2.483 2.483 0 00.48.247c-.738.189-2.308.578-2.308.578m5.019-2.213c-.188.437-.387.9-1.715 1.361a1.749 1.749 0 01-1.211-.295c-.005 0-1.487-.973-3.174-2.084a21.691 21.691 0 002.005-1.273l3.587 1.533a3.615 3.615 0 00.838.257 1.553 1.553 0 00-.33.5m1.006-.9a2.465 2.465 0 01-1.319-.228l-3.4-1.449c.515-.389 1-.786 1.452-1.181l6.5 1.832c.01 0 .133.041.306.076zm4.9-1.313a3.519 3.519 0 01-1.53-.1l-.007-.01-6.272-1.764c.312-.286.613-.579.891-.866l9.608 1.811c.016 0 .214.037.491.072zm4.644-1.243a5.9 5.9 0 01-1.862-.09s-6.417-1.2-9.368-1.757c.21-.218.4-.439.585-.65l13.684 1.678zm4.688-2.422s-.561.906-.676 1.095c-.032.027-.195.188-.714.127l-13.629-1.668c.193-.223.362-.447.534-.661l14.477.877c.017 0 .078.008.166.017a1.013 1.013 0 00-.157.213m2.415-2.057l-.584.934a.963.963 0 01-.6.478 5.153 5.153 0 01-1.2 0l-14.22-.863c.182-.252.358-.492.514-.717h16.208a.9.9 0 00-.123.168m2.044-1.658l-.552.835c-.108.151-.168.222-.594.252H69.465c.182-.3.341-.555.479-.79a2.137 2.137 0 011.647-.966h15.32a.541.541 0 01.476.189.257.257 0 01.047.148.673.673 0 01-.108.331" fill="#231815"/><path data-name="패스 791849" d="M36.641 43.388l-1.214 2.729h.336v-.02c.1-.326.226-.646.344-.952 0 0 .021-.043.03-.067h.943c.124.288.263.626.4 1.029l.01.011h.455l-1.182-2.73zm-.412 1.481c.025-.051.344-.811.384-.9.035.089.363.848.385.9z" fill="#231815"/><path data-name="패스 791850" d="M39.205 44.571c-.283-.116-.555-.219-.555-.545a.427.427 0 01.455-.427.459.459 0 01.452.319l.01.017h.067l.111-.338-.012-.015a.857.857 0 00-.559-.195c-.539 0-.878.3-.878.756 0 .475.349.608.659.736.281.107.542.208.542.535a.523.523 0 01-.512.535.662.662 0 01-.6-.39v-.01h-.07l-.088.374.015.006a1.018 1.018 0 00.642.231.9.9 0 00.973-.9c0-.438-.334-.567-.654-.692" fill="#231815"/><path data-name="패스 791851" d="M42.161 43.728v-.28h-2.026v.28h.029a6.536 6.536 0 01.818-.043v2.446h.385v-2.446a7.135 7.135 0 01.775.043z" fill="#231815"/><path data-name="패스 791852" d="M43.685 43.388a1.361 1.361 0 00-1.447 1.4 1.333 1.333 0 001.439 1.375 1.385 1.385 0 001.489-1.431 1.349 1.349 0 00-1.481-1.339m1.054 1.424a1.34 1.34 0 01-.34.872.952.952 0 01-.714.3 1.03 1.03 0 01-1.025-1.165c0-.776.412-1.265 1.062-1.265a.987.987 0 01.782.367 1.263 1.263 0 01.235.825z" fill="#231815"/><path data-name="패스 791853" d="M47.806 43.448v1.974c-.015-.014-1.828-1.974-1.828-1.974H45.8v2.669h.255v-2.068h.006l1.652 1.824.206.239.009.005h.139v-2.669h-.263z" fill="#231815"/><path data-name="패스 791854" d="M52.677 43.448h-.111l-.644 1.172s-.417.74-.45.812c-.4-.669-.755-1.365-1.061-1.972l-.007-.011h-.133l-.009.023c-.038.386-.263 2-.365 2.616v.03h.317v-.02c0-.381.073-.943.143-1.539 0 0 .027-.265.039-.369.047.09.553 1.043.735 1.442l.222.439h.071l.005-.013c.222-.51.542-1.1.964-1.867.066.464.146 1.381.188 1.908l.007.02h.4v-.03c-.091-.646-.191-1.5-.315-2.616z" fill="#231815"/><path data-name="패스 791855" d="M54.681 43.388h-.1l-1.22 2.729h.329l.009-.02a9.917 9.917 0 01.348-.96.219.219 0 00.025-.06h.944c.127.3.261.639.4 1.029l.006.011h.456l-1.173-2.729zm-.52 1.481c.025-.051.344-.8.381-.9.039.089.37.848.388.9z" fill="#231815"/><path data-name="패스 791856" d="M57.983 44.054c0-.41-.29-.606-.882-.606h-.829v2.668h.384v-1.28h.107c.011.015.308.359.308.359l.444.581.249.34h.5s-1.006-1.266-1.056-1.323c.482-.093.772-.37.772-.739m-1.327.587v-1.005a2.591 2.591 0 01.534 0 .426.426 0 01.406.459.53.53 0 01-.48.525 1.717 1.717 0 01-.46.016" fill="#231815"/><path data-name="패스 791857" d="M58.336 43.448v.279h.029a6.225 6.225 0 01.81-.046v2.448h.385v-2.448a6.041 6.041 0 01.772.046h.028v-.279h-2.024z" fill="#231815"/><path data-name="선 114726" fill="none" stroke="#040000" stroke-miterlimit="10" stroke-width=".216" d="M60.95 46.118v-2.664"/><path data-name="패스 791858" d="M63.865 45.422h-.011c-.011-.014-1.817-1.974-1.817-1.974h-.19v2.67h.267v-2.07h.007c.012.017 1.65 1.824 1.65 1.824l.206.239.151.006v-2.67h-.263z" fill="#231815"/></svg>