<svg xmlns="http://www.w3.org/2000/svg" width="100" height="100"><defs><clipPath id="a"><path data-name="사각형 299592" fill="none" d="M0 0h66v36.324H0z"/></clipPath></defs><g data-name="그룹 390839" transform="translate(17 32)" clip-path="url(#a)"><path data-name="패스 789333" d="M33 0c18.223 0 33 8.133 33 18.162S51.223 36.323 33 36.323 0 28.191 0 18.163 14.778.001 33 .001m6.648 33.762c9.259-1.385 16.613-5.674 19.23-11.165.164-3.028-1.348-4.947-5.183-5.482-7.94-.653-14.612 6.289-14.047 16.647M58.4 12.834c-3.655-6.26-13.57-10.75-25.225-10.75-12.3 0-22.668 5-25.777 11.812-.048.979.2 1.576.987 1.269 3.275-1.5 5.768-2.105 10.948-2.041 2.335-.358 6.846 7.2 8.263 11.526l1.758-.031c-.96-3.832-3.183-8.009-5.862-12.31.035-.747.982-1.011 2.345-1.055h4.1c1.582.074 2.09 1.061 2.11 2.462v11.02l.913.006.915-.006V13.717c.019-1.4.528-2.388 2.11-2.462h4.1c1.361.044 2.31.308 2.345 1.055-2.68 4.3-4.9 8.478-5.862 12.31l1.758.031c1.429-4.328 5.939-11.888 8.274-11.526 5.18-.064 7.673.543 10.948 2.041 1.046.408 1.137-.777.854-2.332M7.069 21.617c2.14 5.874 9.62 10.547 19.225 12.083.534-10.324-6.129-17.235-14.051-16.583-3.4.474-4.976 2.038-5.173 4.5" fill="#68ada9" fill-rule="evenodd"/></g></svg>