<svg xmlns="http://www.w3.org/2000/svg" xmlns:xlink="http://www.w3.org/1999/xlink" width="100" height="100" viewBox="0 0 100 100">
  <defs>
    <clipPath id="clip-path">
      <rect id="사각형_299368" data-name="사각형 299368" width="66" height="34" fill="none"/>
    </clipPath>
  </defs>
  <g id="car_logo_hyundai" transform="translate(-219 -155)">
    <g id="W_100_H_100" data-name="W 100 H 100" transform="translate(219 155)" fill="#f9f9f9" stroke="#f0f0f0" stroke-width="1" opacity="0">
      <rect width="100" height="100" stroke="none"/>
      <rect x="0.5" y="0.5" width="99" height="99" fill="none"/>
    </g>
    <g id="hyundai" transform="translate(236 188)">
      <g id="그룹_390314" data-name="그룹 390314" transform="translate(0 0)" clip-path="url(#clip-path)">
        <path id="패스_787721" data-name="패스 787721" d="M20.9,3.894c.689-.135,1.142-.132,1.3.041a.427.427,0,0,1,0,.526,2.751,2.751,0,0,1-.286.4C16.086,11.781,11.638,21.985,10.378,24.93c-.1.2-.192.406-.268.538a.669.669,0,0,1-.551.4,1.18,1.18,0,0,1-.693-.227C4.995,23.238,2.695,20.246,2.695,17c0-5.862,7.495-10.9,18.209-13.1m5.982,4.411c.549-1.282,1.5-4.026,3.674-5.112a5.42,5.42,0,0,1,2.2-.509c.165,0,.28,0,.326,0A56.925,56.925,0,0,1,49.6,4.989c.038.012.15.057.182.066.44.149.661.353.663.6a.753.753,0,0,1-.274.542c-.065.065-.166.153-.3.265-1.094.923-4.4,3.324-10.611,5.717a52.632,52.632,0,0,1-7.766,2.493c-1.676.355-7.888,1.307-4.608-6.368m29,.218a.665.665,0,0,1,.551-.4,1.193,1.193,0,0,1,.691.226c3.87,2.4,6.17,5.4,6.17,8.643,0,5.862-7.493,10.9-18.208,13.1-.687.135-1.141.133-1.3-.043a.428.428,0,0,1,0-.524,2.6,2.6,0,0,1,.286-.4c5.837-6.92,10.281-17.126,11.544-20.069.1-.2.192-.406.267-.54M39.209,25.662c-.547,1.282-1.5,4.024-3.672,5.112a5.483,5.483,0,0,1-2.2.51c-.161,0-.274,0-.328,0A57,57,0,0,1,16.5,28.978c-.037-.01-.146-.055-.179-.066-.441-.147-.664-.351-.664-.6a.751.751,0,0,1,.271-.54c.067-.067.168-.154.3-.269a38.664,38.664,0,0,1,10.612-5.716A52.541,52.541,0,0,1,34.6,19.3c1.676-.355,7.891-1.306,4.6,6.366M33,34c18.227,0,33-7.611,33-17S51.227,0,33,0,0,7.61,0,17,14.775,34,33,34" transform="translate(0 -0.001)" fill="#002f71"/>
      </g>
    </g>
  </g>
</svg>
