<svg xmlns="http://www.w3.org/2000/svg" width="100" height="100"><g fill-rule="evenodd"><path data-name="패스 792987" d="M44.088 46.002l-1.653 3.672-1.66-3.672h-5.686v7.907h4.482v-4.021l1.671 4.022h2.379l1.67-4.022v4.021h4.481v-7.907z"/><path data-name="패스 792988" d="M59.729 46.002l-1.655 3.672-1.656-3.672h-5.687v7.907h4.482v-4.021l1.67 4.022h2.38l1.671-4.022v4.021h4.481v-7.907z"/><path data-name="패스 792989" d="M16.986 46.002v2.9h-2.235v-2.9H10v7.907h4.751v-2.99h2.235v2.99h4.751v-7.907z"/><path data-name="패스 792990" d="M76.587 47.905v-1.9H66.398v7.904h10.189v-1.9h-5.439v-1.186h5.437v-1.732h-5.437v-1.186z"/><path data-name="패스 792991" d="M27.347 46.004v5.305c.01.682.458.853 1.07.853s1.054-.181 1.054-.867v-5.29h4.737v5.321c0 2.347-1.709 2.854-5.791 2.854s-5.807-.5-5.807-2.854v-5.322z"/><path data-name="패스 792992" d="M83.607 49.612c.887 0 1.311-.322 1.311-.977 0-.822-.535-1.041-1.316-1.041h-1.388v2.018zm1.323 4.295l-2.714-2.834v2.837h-4.752v-7.908h7.632c1.6 0 4.254-.043 4.112 2.6a2.942 2.942 0 01-2.378 2.349l3.171 2.957H84.93z"/></g></svg>