<svg xmlns="http://www.w3.org/2000/svg" width="100" height="100"><defs><clipPath id="a"><path data-name="패스 804098" d="M-443.557 86.09c-1.661.02-3.151.071-4.8.22a64.316 64.316 0 00-9.993 1.644 54.575 54.575 0 00-7 2.325c-.095.038-.141.054-.141.054s.278 17.415.493 26.044a24.335 24.335 0 001.34 7.451 36.085 36.085 0 003.814 7.727 30.734 30.734 0 005.907 6.618 26.5 26.5 0 002.806 2.1 35.438 35.438 0 004.792 2.479c.549.239 1.025.462 1.46.612a10.631 10.631 0 001.385.439 10.679 10.679 0 001.385-.439c.435-.15.911-.375 1.46-.612a35.367 35.367 0 004.791-2.479 26.416 26.416 0 002.807-2.1 30.7 30.7 0 005.9-6.618 36.045 36.045 0 003.816-7.727 24.393 24.393 0 001.34-7.451c.214-8.629.493-26.035.493-26.035a1.152 1.152 0 00-.133-.063 54.586 54.586 0 00-7-2.325 64.3 64.3 0 00-9.992-1.644c-1.651-.15-3.14-.2-4.8-.22z" transform="translate(465.487 -86.09)" fill="none"/></clipPath><clipPath id="c"><path data-name="사각형 304747" fill="none" d="M0 0h44v58H0z"/></clipPath><clipPath id="d"><path data-name="패스 804104" d="M-437.583 131.647a2.347 2.347 0 00-1.116 1.346 2.668 2.668 0 00.03 1.373c0 .018.025.057 0 .072-.185.074-.322.157-.5.23-.009 0-.056.015-.065-.01a1.547 1.547 0 01.205-1.771c.041-.036.064-.082-.019-.111a1.366 1.366 0 00-1.249.463 1.655 1.655 0 00-.276 1.584 2.245 2.245 0 00.234.628c.006.011.073.05.034.067-.129.1-.229.176-.354.276-.008.007-.032.019-.044 0a1.149 1.149 0 00-.682-.571.788.788 0 00-.747.209.884.884 0 00-.006 1.231.839.839 0 00.354.218c.014.007.039.029.011.047a1.405 1.405 0 00-.447.512.919.919 0 00.2.977.857.857 0 00.682.212 1.439 1.439 0 00.839-.751c0-.009.05-.042.072-.016a1.245 1.245 0 00.619.48.749.749 0 00.761-.156.852.852 0 00.261-.961 1.456 1.456 0 00-.473-.519c-.031-.024-.006-.084.056-.131a6.921 6.921 0 013.3-1.494 4.153 4.153 0 012.408.4 3.645 3.645 0 01.8.642c.031.018.117.048.147.018a.969.969 0 00.084-1.316 1.555 1.555 0 00-.484-.4.161.161 0 01-.018-.037 2.193 2.193 0 01.707-.945 3.158 3.158 0 01.694-.345c.052-.015.045-.045.018-.111-.3-.7-1.494-.731-2.055-.363a2.6 2.6 0 00-.815.953c-.012.023-.028.094-.061.076l-.5-.156c-.011 0-.011-.056-.006-.066a2.634 2.634 0 011.636-1.358c.036-.015.025-.048.018-.067-.258-.646-1.556-.591-2.188-.178a2.81 2.81 0 00-1.159 1.717c-.007.047.015.086-.016.094a2.849 2.849 0 01-.541.133.055.055 0 01-.054-.054 1.568 1.568 0 01.16-.944 4.835 4.835 0 01.759-.983.1.1 0 000-.145 1.145 1.145 0 00-.6-.169 1.147 1.147 0 00-.6.169m2.2-7.467a2.228 2.228 0 00-.921.986 6.546 6.546 0 00-.4 1.863.15.15 0 01-.09.085 6.918 6.918 0 00-.787.208.061.061 0 01-.054-.048 2.71 2.71 0 01.35-1.747 2.125 2.125 0 01.514-.632.092.092 0 00.025-.124.088.088 0 00-.066-.041 2.26 2.26 0 00-1.524.275 2.132 2.132 0 00-1.062 1.605 3.874 3.874 0 00.1 1.427c0 .016.014.065-.037.076-.179.087-.661.348-.835.431-.011.007-.042.014-.05-.013a1.409 1.409 0 00-.633-.862 1.211 1.211 0 00-1.047.052 1.313 1.313 0 00-.509.54.916.916 0 00.3 1.1c.015.014.04.046 0 .059-.21.117-.215.144-.374.389a1.047 1.047 0 00.12 1.079 1.078 1.078 0 001.518.3.971.971 0 00.128-.1c.009-.006.042.013.06.048a1.3 1.3 0 00.335.366 1.072 1.072 0 001.068 0 1 1 0 00.494-1 .92.92 0 00-.259-.634c-.029-.036 0-.057.08-.111a12.527 12.527 0 014.61-1.6 7.152 7.152 0 012.531.053 3.509 3.509 0 011.477.751 6.781 6.781 0 01.955.966.379.379 0 00.276-.059 1.621 1.621 0 00.034-1.243 3.859 3.859 0 00-.9-1.417.122.122 0 01-.009-.049c-.009-.075.035-.107.121-.19a2.837 2.837 0 011.322-.717c.065 0 .088-.051.047-.126a1.525 1.525 0 00-1.9-.717 2.172 2.172 0 00-1.067 1c-.014.027-.053.121-.087.091-.21-.019-.569-.074-.779-.094-.1-.006-.058-.1-.056-.109a1.788 1.788 0 01.455-.761 2.764 2.764 0 011.046-.763.051.051 0 00.043-.057.034.034 0 00-.007-.019 1.464 1.464 0 00-1.091-.55 1.879 1.879 0 00-1.452.571 3.053 3.053 0 00-.793 1.783c-.021.054-.047.08-.086.081a4.644 4.644 0 01-.656.063c-.033-.011-.032-.049-.03-.088a2.21 2.21 0 01.239-.977 3.556 3.556 0 011.291-1.4c.086-.06.091-.183.063-.2a2.1 2.1 0 00-.831-.172 2.112 2.112 0 00-1.2.373M-452.9 95.726a4.24 4.24 0 00-1.153 2.36.1.1 0 01-.094.088 13.6 13.6 0 00-1.59.3c-.017 0-.028-.025-.028-.041a2.384 2.384 0 01.607-1.419 8.176 8.176 0 011.158-.95.091.091 0 00-.029-.124 2.382 2.382 0 00-1.874.028 2.71 2.71 0 00-1.587 2.086 5.2 5.2 0 00-.066.987c0 .041-.069.042-.108.055-.579.186-1.187.4-1.669.568-.025.009-.091 0-.091-.023a2.862 2.862 0 01.411-1.578c.281-.469.807-.734 1.187-1.127.026-.03.065-.108.026-.124a2.263 2.263 0 00-2.644.9 3.421 3.421 0 00-.466 2.705c.02.085 0 .178-.046.2a4.278 4.278 0 01-.542.214h-.009a.06.06 0 01-.068-.048c-.22-.715-1.038-.575-1.405-.358a.878.878 0 00-.327 1.174v.005a.076.076 0 01-.026.1l-.015.007a1.076 1.076 0 00-.468 1.427.821.821 0 001.008.33 2.853 2.853 0 00.58-.311.062.062 0 01.067.01.39.39 0 00.035.047.909.909 0 001.3.143c.27-.2.374-.229.479-.587a.961.961 0 00-.212-.722c-.027-.025 0-.094.029-.111a22.379 22.379 0 019.866-2.585 5.451 5.451 0 013.4 1.331.174.174 0 00.147.076.232.232 0 00.126-.138A1.609 1.609 0 00-447.47 99a2.834 2.834 0 00-1.439-.826.065.065 0 01-.022-.092 2.285 2.285 0 01.786-.526 8.355 8.355 0 011.421-.121c.033 0 .083-.036.073-.069a1.43 1.43 0 00-1.241-.96 3.062 3.062 0 00-1.629.242 2.668 2.668 0 00-1.176 1.327.081.081 0 01-.077.048 28.375 28.375 0 00-1.4-.015c-.032 0-.081 0-.081-.035a2.281 2.281 0 01.6-1.241 4.64 4.64 0 011.6-.93c.044-.015.1-.087.067-.124a1.3 1.3 0 00-.471-.408 2.882 2.882 0 00-.746-.1 2.869 2.869 0 00-1.7.559m8.089 46.806c-.419-.143-.876-.363-1.4-.6a33.966 33.966 0 01-4.607-2.4 25.509 25.509 0 01-2.7-2.039 30.5 30.5 0 01-2.978-2.9h12.489v8.218c-.231-.078-.5-.177-.8-.282m-14.388-11.454q-.77-1.2-1.431-2.426h16.623v5.269h-13.08a26.908 26.908 0 01-2.112-2.843m20.889-7.687l.027-.019-.02.022zm-24.562.194q-.157-.458-.294-.916h13.786c.086.081.175.163.264.238a9.063 9.063 0 005.1 2.16v2.911h-16.98a33.544 33.544 0 01-1.881-4.393m-1.273-6.79h12.206v.217a7.656 7.656 0 001.97 5.044h-13.37a23.925 23.925 0 01-.806-5.261m29.282.215v-.419h12.047a23.775 23.775 0 01-1.281 7 35.2 35.2 0 01-3.668 7.5 29.706 29.706 0 01-5.68 6.419 25.293 25.293 0 01-2.7 2.037 34.036 34.036 0 01-4.607 2.4c-.528.231-.986.448-1.4.594-.453.155-.841.3-1.114.375v-.274l.008-17.545c.251-.006.494-.026.742-.055.014.035.036.135.073.241a.788.788 0 00.514.4.737.737 0 00.72-.259.859.859 0 00.911.161.563.563 0 00.413-.546 1.046 1.046 0 00-.078-.5l-.084-.159-.012.005a9.163 9.163 0 001.759-.99l.051-.015c.875-.226 4.4-1.518 6.562-1.548a7.564 7.564 0 013.825.941 6.6 6.6 0 011.606 1.346.127.127 0 00.087.075.083.083 0 00.078-.052 2.787 2.787 0 00.187-1.241c-.047-.679-.706-1.171-.9-1.373-.007-.007-.022-.049.045-.1a1.551 1.551 0 01.249-.205 2.277 2.277 0 011.322-.508c.069.008.046-.1.027-.183-.137-.6-.975-.991-1.857-.853a2.267 2.267 0 00-1.442 1c-.018.027-.1.067-.131.032a6.935 6.935 0 00-.868-.258c-.106-.026-.049-.106-.044-.119a2.412 2.412 0 01.714-.812 2.629 2.629 0 011.161-.539c.053 0 .053-.071.039-.094a1.3 1.3 0 00-.881-.726 1.95 1.95 0 00-1.837.335 3.372 3.372 0 00-1.045 1.617c-.032.05-.042.089-.084.08-.232-.049-.813-.019-.865-.054-.035-.017-.027-.069-.02-.108a2.205 2.205 0 01.522-.916 2.079 2.079 0 01.855-.687.136.136 0 00.049-.04.134.134 0 00-.026-.185 2.271 2.271 0 00-2.864.632 5.308 5.308 0 00-.718 1.675c0 .021-.04.085-.085.085l-1.193.269-.2.047-.022.022a8.031 8.031 0 001.14-3.932m.014-5.573v-.964h12.174c-.04 1.982-.081 3.848-.119 5.442h-12.062zm.01-3.062v-3.3h12.268c-.028 1.552-.059 3.118-.08 4.633h-12.187zm-8.424-9.34h20.8c-.028 1.649-.059 3.445-.094 5.279h-20.706zm-21.269-1.756l.033-.016a52.1 52.1 0 016.728-2.253 61.268 61.268 0 019.6-1.594 53.996 53.996 0 014.156-.206v11.1h-6.932c-.1-.01-.035-.055.034-.125a3.979 3.979 0 011.682-.751c.051 0 .068-.034 0-.13a2.08 2.08 0 00-2.188-.509 2.341 2.341 0 00-1.469 1.45.1.1 0 01-.091.075c-.342.027-.767.031-1.109.031-.056 0-.086-.077-.081-.135a1.77 1.77 0 01.808-1.162 2.566 2.566 0 011.219-.43.108.108 0 00.032-.015.1.1 0 00.018-.135 1.225 1.225 0 00-.249-.225 1.747 1.747 0 00-1.185-.183 2.5 2.5 0 00-2.229 2.318c-.024.145.015.176-.124.225-.263.091-.757.154-1.021.21-.048.007-.116-.1-.106-.151a3.177 3.177 0 01.573-1.255 2.391 2.391 0 01.8-.7c.062-.032.117-.1.062-.155-.594-.529-1.814.029-2.305.582a3.345 3.345 0 00-.645 2.189c0 .036.033.1 0 .111-.3.133-.618.249-.94.358-.029.01-.032-.064-.039-.1a2.274 2.274 0 01.345-1.626 1.578 1.578 0 01.574-.581c.025-.014.019-.042 0-.066-.27-.36-1.337-.1-1.664.225-.754.752-.7 1.48-.734 2.638 0 .056-.071.268-.13.3a1.306 1.306 0 01-.433.168c-.05.015-.054.033-.067-.017a1 1 0 00-.086-.2.906.906 0 00-1.256-.332.751.751 0 00-.088.069.868.868 0 00-.09 1.208c.035.042.045.084-.008.1l-.017.005a1.019 1.019 0 00-.63 1.279.791.791 0 00.7.5 1.454 1.454 0 00.87-.26.1.1 0 01.14.023.9.9 0 001.249.3c.379-.257.551-.66.267-1.346-.016-.038.048-.11.083-.13a15.3 15.3 0 017.391-2.118 4.139 4.139 0 011.074.246.24.24 0 01.053.02v2.262a.482.482 0 01-.078.058 2.413 2.413 0 00-1.016 1.322c-.01.043-.016.052-.084.059-.452.045-.936.115-1.39.15-.025.005-.074-.045-.066-.07a4.485 4.485 0 011.706-2.187.139.139 0 00.022-.159.859.859 0 00-.393-.225 2.526 2.526 0 00-2.1.871 3.464 3.464 0 00-.734 2.1c0 .054.007.14-.044.157-.291.094-.614.179-.917.267a.086.086 0 01-.088-.066 2.442 2.442 0 011.141-2.48c.119-.093-.089-.244-.241-.244a2.257 2.257 0 00-2.145 1.277 3.194 3.194 0 00-.072 1.906c.009.056.044.15-.013.164-.186.046-.624.218-.76.261-.05.016-.083-.008-.112-.075a2.553 2.553 0 01-.049-1.172 2.676 2.676 0 01.63-1.186c.019-.023.026-.076 0-.089a1.244 1.244 0 00-.888-.058 1.747 1.747 0 00-1.122.914 2.691 2.691 0 00.118 2.415c.02.048.042.141 0 .17l-.321.194c-.04.029-.076 0-.1-.039-.129-.188-.292-.485-.5-.577a.957.957 0 00-1.005.085.991.991 0 00-.279 1.037 2.08 2.08 0 00.232.365c.023.033 0 .085-.03.112-.139.125-.328.214-.441.335a.968.968 0 00-.024 1.135.848.848 0 001.061.3 3.852 3.852 0 00.543-.293c.065-.045.108-.125.163-.061a1.266 1.266 0 00.529.367.99.99 0 00.833-.15.739.739 0 00.394-.813 2.084 2.084 0 00-.336-.647c-.078-.083-.083-.079 0-.13a17.389 17.389 0 013.9-1.74 11.572 11.572 0 013.973-.5h.11l.009 4.685h-12.223c-.126-5.128-.272-13.25-.368-18.843m21.269-4.074a56.55 56.55 0 014.465.211 61.3 61.3 0 019.6 1.594 52.138 52.138 0 016.727 2.253l.033.016-.016 1.078h-20.815zm-21.369-2.108l.135-.054a52.138 52.138 0 016.727-2.253 61.3 61.3 0 019.6-1.6c1.587-.144 3.019-.194 4.616-.213h.136c1.6.019 3.029.069 4.616.213a61.3 61.3 0 019.6 1.6 52.139 52.139 0 016.727 2.253 1.5 1.5 0 01.135.061c0 .1-.036 2.3-.09 5.469a.213.213 0 00-.045-.023 52.144 52.144 0 00-6.727-2.254 61.3 61.3 0 00-9.6-1.593 56.26 56.26 0 00-4.609-.257h-.137c-1.6.019-3.035.112-4.622.257a61.312 61.312 0 00-9.6 1.6 52.3 52.3 0 00-6.727 2.254.281.281 0 00-.046.023c-.054-3.25-.089-5.483-.089-5.483m21.083-4.985c-1.66.021-3.15.07-4.8.22a64.176 64.176 0 00-9.991 1.645 54.379 54.379 0 00-7 2.324l-.142.054s.279 17.415.493 26.044a24.358 24.358 0 001.341 7.451 36.092 36.092 0 003.814 7.728 30.749 30.749 0 005.906 6.617 26.5 26.5 0 002.807 2.1 35.719 35.719 0 004.792 2.478c.548.236 1.024.462 1.46.612a10.479 10.479 0 001.385.439 10.619 10.619 0 001.385-.439c.431-.15.911-.373 1.459-.612a35.6 35.6 0 004.792-2.478 26.538 26.538 0 002.807-2.1 30.719 30.719 0 005.9-6.617 36.1 36.1 0 003.816-7.728 24.418 24.418 0 001.341-7.451c.213-8.629.492-26.035.492-26.035a1.494 1.494 0 00-.134-.063 54.378 54.378 0 00-7-2.324 64.156 64.156 0 00-9.991-1.645c-1.651-.148-3.141-.2-4.8-.22z" transform="translate(465.481 -86.109)" fill="none"/></clipPath><clipPath id="f"><path data-name="패스 804105" d="M-462.534 92.758v-.861c0-.041.047-.075.085-.085a24.945 24.945 0 012.824-.97c.085-.024.163.075.171.15a4.781 4.781 0 01.026.6c0 .11-.153.237-.257.268l-2.782.928a.057.057 0 01-.02 0c-.024 0-.053-.009-.053-.033m3.387-3.088a48.4 48.4 0 00-4.59 1.569.151.151 0 00-.073.125v3.523l.009.795s1.106-.427 1.344-.506c.032-.011.032-.042.032-.076l-.023-1.251c0-.035 0-.086.038-.1l3.813-1.206a.714.714 0 00.324-.242.574.574 0 00.121-.376l-.039-1.644a.654.654 0 00-.277-.472.84.84 0 00-.5-.162.868.868 0 00-.182.019m30.637-.17c-.017 0-.017.027-.017.043-.034 1.457-.069 2.807-.084 4.263 0 .032.015.073.043.081a51.486 51.486 0 015.066 1.682c.073.029.073-.03.073-.053.006-.331.021-.668.006-1a.1.1 0 00-.06-.079 38.647 38.647 0 00-3.9-1.3.064.064 0 01-.042-.061l.017-.435c0-.017.034-.022.051-.017 1.371.392 2.734.851 3.923 1.3.022.008.022-.023.022-.043.013-.376.02-.752 0-1.127a.067.067 0 00-.046-.062 49.305 49.305 0 00-3.846-1.257.055.055 0 01-.042-.045v-.462c0-.019.031-.03.05-.025 1.325.348 2.777.867 3.79 1.249.089.034.142.02.142-.065 0-.377.013-.4-.007-.779 0-.048-.007-.1-.052-.114a49.239 49.239 0 00-5.089-1.7zm-28.023 2.778a.32.32 0 01-.073-.242v-1.738a.343.343 0 01.095-.233.559.559 0 01.281-.143c.681-.132 1.573-.311 2.273-.415a.386.386 0 01.261.048.284.284 0 01.128.256l-.021 1.694a.3.3 0 01-.114.251.692.692 0 01-.281.113c-.672.14-1.652.325-2.342.458a.3.3 0 01-.06.007.243.243 0 01-.145-.049m3.419-3.951c-1.274.2-2.555.481-3.848.767a1.161 1.161 0 00-.54.344.782.782 0 00-.242.495l.011 2.686a1.056 1.056 0 00.249.639.559.559 0 00.477.264 87.64 87.64 0 013.834-.774 1.165 1.165 0 00.63-.4.886.886 0 00.23-.556l-.008-2.8a.681.681 0 00-.257-.476.706.706 0 00-.484-.194.48.48 0 00-.053 0m18.849 0c-.015.659-.1 3.5-.124 4.261v.063c.362.065.763.116 1.062.179.034.006.082-.018.082-.054 0-.5 0-1.074-.01-1.526 0-.033.016-.035.048-.029.873.159 1.721.334 2.587.525.019 0 .122.019.121.075-.006.52-.017.963-.03 1.483a.1.1 0 00.063.1c.341.079.666.163.99.239.084.021.1.006.1-.027.051-1.085.068-2.823.085-4.288 0-.021-.008-.049-.026-.054-.356-.084-.695-.172-1.06-.253-.033-.007-.052.05-.053.084-.037.536-.021 1.033-.064 1.569 0 .019 0 .028-.02.025-.869-.184-1.795-.383-2.658-.548-.023-.005-.013-.047-.012-.075.006-.526 0-1.044.008-1.57a.078.078 0 00-.06-.07c-.342-.062-.633-.11-.979-.165-.026 0-.051.034-.051.06m-17.4-.219zm12.8-.409a.953.953 0 00-.967.8l-.023 2.873a.747.747 0 00.56.7c1.432.138 2.84.268 4.441.518.023 0 .072-.018.072-.043v-1a.119.119 0 00-.065-.071c-1.065-.139-2.47-.332-3.727-.466a.178.178 0 01-.135-.167v-1.959c0-.083.113-.126.194-.119 1.241.1 2.479.336 3.719.472.032 0 .085-.017.086-.051l.023-.917a.087.087 0 00-.068-.08c-1.377-.205-2.43-.32-4.11-.492zm-11.75 2.35v-.982l.02-.01 2.608-.258a.179.179 0 01.2.151v.468a.411.411 0 01-.327.4l-2.493.25zm-1.049-1.941l-.006 4.351v.056l1.1-.147a.033.033 0 00.03-.036v-1.258l2.224-.245c.194-.037.424.111.6.4a2.163 2.163 0 01.267.816l1.1-.083c.023 0 .073 0 .068-.023a2.4 2.4 0 00-.723-1.6.762.762 0 00.462-.746 10.861 10.861 0 00-.05-1.357.754.754 0 00-.7-.592c-.993.018-3.147.3-4.369.456m6.669-.591c-.286.012-.677.262-.68.555l-.02 1.554c0 .32.406.569.717.576 1.085.025 2.044 0 3.092.076a.14.14 0 01.147.131l-.009.314a.1.1 0 01-.091.11h-.014c-1.223 0-2.5-.059-3.739.041-.064 0-.062-.012-.066.054l-.055.922v.075a37.418 37.418 0 014.418 0 .757.757 0 00.715-.633l.015-1.506c0-.309-.371-.539-.614-.555-1.036-.065-2.218-.03-3.273-.058a.112.112 0 01-.1-.119l.02-.348c0-.068.045-.089.11-.092 1.043-.038 2.6.013 3.666.047a.173.173 0 00.142-.168v-.754c0-.041-.073-.161-.146-.163a65.92 65.92 0 00-2.843-.072c-.469 0-.933.008-1.385.026" transform="translate(463.81 -87.491)" fill="none"/></clipPath><linearGradient id="b" x1="-16.204" y1="6.109" x2="-16.187" y2="6.109" gradientUnits="objectBoundingBox"><stop offset="0" stop-color="#fadea7"/><stop offset="1" stop-color="#efc060"/></linearGradient><linearGradient id="e" x1="-9.944" y1="5.22" x2="-9.934" y2="5.22" gradientUnits="objectBoundingBox"><stop offset="0" stop-color="#e1be78"/><stop offset=".34" stop-color="#fffad1"/><stop offset=".75" stop-color="#c69632"/><stop offset=".995" stop-color="#fcdc99"/><stop offset="1" stop-color="#fcdc99"/></linearGradient><linearGradient id="g" x1="-17.599" y1="42.839" x2="-17.581" y2="42.839" gradientUnits="objectBoundingBox"><stop offset="0" stop-color="#ffe3a8"/><stop offset="1" stop-color="#d2a249"/></linearGradient></defs><g data-name="그룹 398261"><g data-name="그룹 398260" clip-path="url(#a)" transform="translate(28 21)"><path data-name="사각형 304746" fill="url(#b)" d="M0 0h43.993v57.712H0z"/></g></g><g data-name="그룹 398263"><g data-name="그룹 398262" clip-path="url(#c)" transform="translate(28 21)"><path data-name="패스 804099" d="M21.472 48.51H8.983a30.626 30.626 0 002.978 2.9 25.256 25.256 0 002.7 2.036 33.988 33.988 0 004.607 2.4c.528.231.987.45 1.4.594.3.1.574.2.8.282V48.51zm0-9.534a9.059 9.059 0 01-5.1-2.163 5.904 5.904 0 01-.264-.238H2.319q.138.457.293.916a33.686 33.686 0 001.882 4.393h16.98zm21.335-14.6H30.635v.964l-.007 4.482H42.69c.036-1.6.077-3.462.116-5.446zm.212-11.438h-20.8v5.279h20.706c.034-1.832.066-3.629.094-5.279z" fill="#b12b28"/></g></g><g data-name="그룹 398265"><g data-name="그룹 398264" clip-path="url(#c)" fill-rule="evenodd" transform="translate(28 21)"><path data-name="패스 804100" d="M42.809 35.538c-.285 1.108-.661 2.191-.661 2.191a36.1 36.1 0 01-3.813 7.727 30.745 30.745 0 01-5.9 6.617 26.725 26.725 0 01-2.807 2.1 35.551 35.551 0 01-4.792 2.479c-.548.238-1.029.462-1.46.612a10.478 10.478 0 01-1.385.438 10.524 10.524 0 01-1.385-.438c-.435-.15-.911-.376-1.459-.612a35.492 35.492 0 01-4.792-2.479 26.527 26.527 0 01-2.807-2.1 31.47 31.47 0 01-5.057-5.386l.06.087a31.1 31.1 0 005.127 5.593 27.037 27.037 0 002.852 2.1 35.618 35.618 0 004.616 2.479c.545.241 1.029.451 1.459.612a8.445 8.445 0 001.386.442 10.894 10.894 0 001.385-.442c.434-.15.911-.375 1.459-.612a35.551 35.551 0 004.792-2.479 26.5 26.5 0 002.807-2.1 30.741 30.741 0 005.906-6.62 36.35 36.35 0 003.806-7.769 21.466 21.466 0 00.661-2.422z" fill="#613e18"/><path data-name="패스 804101" d="M43.181 5.247a1.365 1.365 0 00-.135-.061l-.038-.017a52.3 52.3 0 00-6.739-2.259 61.31 61.31 0 00-9.615-1.6c-1.589-.145-3.024-.195-4.623-.215h-.136c-1.6.02-3.034.075-4.623.22a61.324 61.324 0 00-9.617 1.6A51.61 51.61 0 00.97 5.168l-.031.017a.338.338 0 00-.1.045v-.331l.132-.056a51.613 51.613 0 016.685-2.254 61.317 61.317 0 019.617-1.6c1.589-.144 3.024-.194 4.623-.214h.131c1.6.02 3.033.07 4.623.214a61.467 61.467 0 019.617 1.6 52.3 52.3 0 016.737 2.258l.038.017a1.365 1.365 0 01.135.061z" fill="#613e18"/><path data-name="패스 804102" d="M21.457 7.328a57.632 57.632 0 00-4.155.2 60.735 60.735 0 00-9.618 1.6A54 54 0 00.96 11.381l-.019.011v-.31l.033-.015a52.284 52.284 0 016.73-2.264 61.385 61.385 0 019.6-1.594 53.446 53.446 0 014.155-.2z" fill="#613e18"/><path data-name="패스 804103" d="M37.001 40.072v.116c0 .083-.013.106-.073.126a2.821 2.821 0 00-1.321.712 1.064 1.064 0 00-.074.076l-.027-.027c-.007-.006-.009-.034-.01-.048-.009-.075.041-.131.127-.212a2.828 2.828 0 011.315-.691c.042 0 .061-.021.064-.052m-2.4-1.427a2.751 2.751 0 00-1.051.751 1.816 1.816 0 00-.45.773c0 .011-.028.075.016.1a2.12 2.12 0 01.422-.644 2.671 2.671 0 011.029-.751.1.1 0 00.062-.084l.021-.193a.048.048 0 01-.047.05zm-2.545-.59a3.553 3.553 0 00-1.291 1.4 2.213 2.213 0 00-.239.977c0 .039 0 .075.031.089a.081.081 0 00.023.007 2.6 2.6 0 01.211-.9 2.977 2.977 0 011.277-1.318.9.9 0 00.063-.388.185.185 0 01-.076.135zm-3.356.718a2.113 2.113 0 00-.514.632 2.738 2.738 0 00-.356 1.721 3.162 3.162 0 01.39-1.485 1.929 1.929 0 01.464-.617.646.646 0 00.059-.326.084.084 0 01-.042.074zm-5.337 4.52a.037.037 0 00.022-.046.035.035 0 00-.013-.017 1.086 1.086 0 01-.389-.72.953.953 0 00.293.835.681.681 0 01.086-.053zm11.151-11a2.167 2.167 0 00-.864.7 2.133 2.133 0 00-.5.913c-.008.034-.014.079.011.1a2.538 2.538 0 01.492-.795 2.066 2.066 0 01.855-.687c.08-.042.094-.134.093-.327a.124.124 0 01-.085.092zm3.326.565a2.55 2.55 0 00-1.157.517 2.458 2.458 0 00-.718.835c-.006.013-.058.086.03.115a2.706 2.706 0 01.661-.709 2.593 2.593 0 011.155-.539c.043-.009.066-.065.068-.092v-.175a.042.042 0 01-.04.055zm2.489 1.672c0 .036-.015.061-.05.056a2.2 2.2 0 00-1.295.476 2.065 2.065 0 00-.273.236c-.068.048-.054.09-.046.1a.653.653 0 00.073.066 2.192 2.192 0 01.205-.164 2.3 2.3 0 011.327-.516c.035-.007.062-.136.058-.253zm-14.741 4.332v.048a.588.588 0 01-.445.537.788.788 0 01-.872-.171.728.728 0 01-.714.263.792.792 0 01-.527-.384c-.038-.106-.06-.206-.074-.241h-.016c-.245.027-.49.045-.734.052v.226q.374-.01.747-.054a1.25 1.25 0 00.069.238.852.852 0 00.495.37.762.762 0 00.738-.254.861.861 0 00.911.172.605.605 0 00.411-.526 2.515 2.515 0 00.012-.272zm.63 6.506a1.046 1.046 0 01-1.054 0 1.344 1.344 0 01-.349-.36c-.019-.036-.052-.055-.06-.048a1.057 1.057 0 01-.828.277 1.129 1.129 0 01-.818-.476 1.245 1.245 0 01-.212-.693l-.012.025a1.383 1.383 0 00.239.872 1.036 1.036 0 00.756.489 1.131 1.131 0 00.854-.305c.009-.008.043.012.06.047a1.8 1.8 0 00.349.37 1.016 1.016 0 001.038.007 1.283 1.283 0 00.535-1.006 1 1 0 01-.5.8m7.672 1.611a3.219 3.219 0 00-.692.341 2.181 2.181 0 00-.707.946.106.106 0 00.017.037l.03.02a2.18 2.18 0 01.655-.826 3.218 3.218 0 01.693-.345c.023-.011.044-.139.043-.213 0 .018-.014.029-.038.037zm-1.752-1.052a.034.034 0 01-.023.031 2.464 2.464 0 00-1.637 1.357c0 .011-.006.064.006.067l.052.017a2.641 2.641 0 011.56-1.243c.034-.007.043-.135.044-.234zm-3.044-.251a4.184 4.184 0 00-.76.982 1.575 1.575 0 00-.159.944.056.056 0 00.03.048 1.487 1.487 0 01.169-.785 4.615 4.615 0 01.712-.948.98.98 0 00.037-.3.1.1 0 01-.029.051zm-2.655 1.083a1.486 1.486 0 00-.363 1.317 1.449 1.449 0 01.385-1.114 1.03 1.03 0 00.014-.257.086.086 0 01-.036.054m-1.349 2.685l.068-.054c.04-.016-.027-.056-.034-.067a2.247 2.247 0 01-.234-.628 2.842 2.842 0 01-.073-.568 4.074 4.074 0 00.073.724 3.1 3.1 0 00.2.593m1.322 2.618a.749.749 0 01-.761.156 1.252 1.252 0 01-.619-.481c-.021-.026-.067.007-.072.016a1.445 1.445 0 01-.838.752.863.863 0 01-.683-.213.779.779 0 01-.257-.589c0 .616.073.656.259.79a.912.912 0 00.709.211 1.433 1.433 0 00.839-.751c0-.008.05-.041.072-.015a1.261 1.261 0 00.619.48.749.749 0 00.761-.156 1.106 1.106 0 00.293-.826.951.951 0 01-.321.626zm-2.832-1.169c.036-.032.072-.064.109-.094s0-.04-.012-.047a.9.9 0 01-.6-.773 1.031 1.031 0 00.5.914zM2.131 15.586a.076.076 0 00.026-.1v-.005a.977.977 0 01-.1-.4v.011a2.412 2.412 0 00.081.494zm.661 11.925l.015-.013c.029-.027.054-.079.03-.112a2.1 2.1 0 01-.232-.365.706.706 0 01-.052-.277 1.981 1.981 0 00.065.5 1.082 1.082 0 00.174.265zm3.085.972v.019a.715.715 0 01-.406.609.98.98 0 01-.832.15 1.193 1.193 0 01-.514-.348c-.056-.064-.116 0-.181.043a3.813 3.813 0 01-.544.293.817.817 0 01-1.043-.278.991.991 0 01-.189-.553 1.4 1.4 0 00.184.76.85.85 0 001.062.3 3.708 3.708 0 00.544-.292c.065-.044.109-.125.164-.061a1.327 1.327 0 00.537.369.952.952 0 00.833-.15.706.706 0 00.387-.805zm-.83-5.881a.845.845 0 01-.407.7.86.86 0 01-1.2-.272l-.018-.029c-.013-.036-.127-.059-.171-.021a1.453 1.453 0 01-.869.261.792.792 0 01-.7-.5.737.737 0 01-.067-.274.988.988 0 00.058.433.835.835 0 00.69.556 1.529 1.529 0 00.894-.269.1.1 0 01.14.024.906.906 0 001.236.384c.305-.208.429-.4.417-.99zm-2.744-1.12l.045-.029c.03-.016.02-.063 0-.1a.789.789 0 01-.22-.532 1.2 1.2 0 00.169.648zm4.4 1.486a2.673 2.673 0 00-.63 1.185 2.9 2.9 0 00-.009.969 2.865 2.865 0 01.036-.737 2.641 2.641 0 01.607-1.17.2.2 0 00.012-.1v-.2a.094.094 0 01-.014.048zm2.764-.93a2.438 2.438 0 00-1.14 2.479 2.4 2.4 0 011.148-2.23c.035-.027.027-.2.027-.311a.079.079 0 01-.031.063zm1.4 1.717c-.009.025.057.075.083.071l.073-.007a4.587 4.587 0 011.576-2.028c.027-.02.025-.123.026-.167v-.15a.09.09 0 01-.038.075 4.571 4.571 0 00-1.718 2.207zm-3.976-6.391a1.571 1.571 0 00-.574.581 2.273 2.273 0 00-.345 1.626c.006.024.009.075.023.091a2.42 2.42 0 01.376-1.436 1.377 1.377 0 01.519-.56.03.03 0 00.017-.027v-.3a.031.031 0 01-.01.027zm2.939-.795a2.442 2.442 0 00-.815.711 3.166 3.166 0 00-.555 1.254.171.171 0 00.086.147 3.4 3.4 0 01.542-1.123 2.329 2.329 0 01.757-.736c.066-.033.077-.1.077-.176v-.171c.006.041-.041.072-.086.1zm3.5-.082a2.607 2.607 0 00-1.233.426 1.773 1.773 0 00-.808 1.16.138.138 0 00.093.139 1.977 1.977 0 01.785-1.016 2.472 2.472 0 011.178-.464c.063-.007.054-.088.054-.15v-.186a.089.089 0 01-.063.092zm1.4 1.693l.112-.075a3.684 3.684 0 011.37-.558c.052 0 .073-.031.073-.143v-.132c0 .019-.019.028-.044.03a3.977 3.977 0 00-1.681.752c-.07.069-.136.115-.035.124zm-7.08-7.369a5.7 5.7 0 00-1.2 1.127 2.845 2.845 0 00-.394 1.578c0 .018.029.026.055.027a2.942 2.942 0 01.412-1.327 7.127 7.127 0 011.155-1.161 1.2 1.2 0 00.021-.346.147.147 0 01-.044.1m3.84-.9a.047.047 0 01-.013.035 8.184 8.184 0 00-1.16.933 2.472 2.472 0 00-.624 1.438c0 .016.029.044.045.041l.039-.008a2.952 2.952 0 01.595-1.173 7.548 7.548 0 011.076-.926c.029-.028.023-.116.023-.15V9.91zm3.936-.226a4.248 4.248 0 00-1.6.911 2.466 2.466 0 00-.616 1.26c0 .024.042.031.067.034a2.55 2.55 0 01.563-1 4.642 4.642 0 011.6-.929c.043-.017.059-.075.062-.124V9.59a.125.125 0 01-.077.091zm3.325 1.61a8.326 8.326 0 00-1.417.136 1.98 1.98 0 00-.786.526.065.065 0 00.018.089l.139.041a1.866 1.866 0 01.621-.379 8.252 8.252 0 011.42-.121c.033 0 .079-.04.079-.075v-.262c0 .024-.05.033-.079.037zM5.134 16.657c-.106.357-.209.39-.479.587a1.055 1.055 0 01-.861.15 1.042 1.042 0 01-.473-.338.06.06 0 00-.067-.01 2.626 2.626 0 01-.58.3.827.827 0 01-1.008-.337.759.759 0 01-.043-.079l-.01-.028a1.292 1.292 0 01-.024-.075l-.006-.027-.018-.087v-.021c0-.036-.007-.073-.008-.109v.066a1.392 1.392 0 00.112.64.965.965 0 001.062.35 3.778 3.778 0 00.559-.323.063.063 0 01.067.01.927.927 0 001.309.238l.046-.035a.847.847 0 00.358-.42.954.954 0 00.074-.511.345.345 0 01-.011.054zm13.359-2.153a.231.231 0 01-.148.119.123.123 0 01-.132-.054 5.454 5.454 0 00-3.4-1.331 22.393 22.393 0 00-9.866 2.586c-.032.016-.057.085-.029.11a.534.534 0 01.11.155 22.386 22.386 0 019.842-2.574 5.449 5.449 0 013.4 1.331.168.168 0 00.147.075c.056-.014.092-.113.107-.164a2.718 2.718 0 00.037-.617 1.191 1.191 0 01-.068.359zm-5.04 5.466a4.141 4.141 0 00-1.074-.247 15.309 15.309 0 00-7.391 2.119c-.035.019-.1.091-.083.13a2.013 2.013 0 01.073.208.362.362 0 01.064-.059 15.291 15.291 0 017.39-2.118 3.657 3.657 0 011.02.239.3.3 0 01.053.02v-.281a.234.234 0 00-.053-.017zm.061 5.292v.051h-.109a11.617 11.617 0 00-3.973.481 17.255 17.255 0 00-3.905 1.757c-.082.051-.078.047 0 .13a.565.565 0 01.064.082 17.32 17.32 0 013.87-1.718 11.526 11.526 0 013.973-.505h.081zm13.647 12.011a9.189 9.189 0 01-1.745.984l.085.159.011.025a9.455 9.455 0 001.648-.942l.054-.016c.873-.225 4.4-1.518 6.562-1.548a7.581 7.581 0 013.824.941 6.64 6.64 0 011.606 1.346c.016.018.029.063.087.075a.082.082 0 00.078-.052 2.945 2.945 0 00.195-1.166 2.76 2.76 0 01-.195.94.082.082 0 01-.078.052c-.058-.01-.069-.075-.085-.091a6.554 6.554 0 00-1.608-1.328 7.6 7.6 0 00-3.822-.971c-2.162.03-5.657 1.333-6.533 1.559 0 0-.051.02-.082.029zm9.211 6.471a.384.384 0 01-.276.059 6.647 6.647 0 00-.942-.967 3.553 3.553 0 00-1.488-.751 7.142 7.142 0 00-2.529-.071 12.472 12.472 0 00-4.611 1.619c-.073.053-.109.075-.079.111s.052.066.073.1a12.586 12.586 0 014.6-1.593 7.216 7.216 0 012.53.053 3.507 3.507 0 011.478.751 6.735 6.735 0 01.956.966.384.384 0 00.276-.059 1.517 1.517 0 00.137-.619.9.9 0 01-.122.4zm-3.477 6.276c-.031.029-.117 0-.147-.018a3.7 3.7 0 00-.794-.643 4.154 4.154 0 00-2.409-.4 6.875 6.875 0 00-3.295 1.48c-.061.047-.088.119-.058.144l.082.066a6.986 6.986 0 013.3-1.491 4.146 4.146 0 012.409.4 3.616 3.616 0 01.794.642.162.162 0 00.148-.02.915.915 0 00.267-.751.87.87 0 01-.3.59" fill="#432918"/></g></g><g data-name="그룹 398267"><g data-name="그룹 398266" clip-path="url(#d)" transform="translate(28.006 21.019)"><path data-name="패스 804108" d="M0 0l72.073-.692L71.426 66l-72.073.692z" transform="rotate(-60 25.266 42.809)" fill="url(#e)"/></g></g><g data-name="그룹 398269"><g data-name="그룹 398268" clip-path="url(#f)" transform="translate(29.677 22.401)"><path data-name="사각형 304750" fill="url(#g)" d="M0 0h40.462v8.191H0z"/></g></g><g data-name="그룹 398271"><g data-name="그룹 398270" clip-path="url(#c)" transform="translate(28 21)"><path data-name="패스 804106" d="M3.009 5.946c-.038.012-.087.046-.087.087V5.81c0-.042.048-.075.086-.087a24.946 24.946 0 012.821-.966c.084-.024.165.075.172.146l.022.216c-.007-.072-.1-.173-.184-.151a25.1 25.1 0 00-2.831.977m4.29-.092a.569.569 0 01-.121.371.713.713 0 01-.324.242L3.04 7.658c-.031.01-.038.058-.038.092l.006.219c0-.035 0-.087.032-.1l3.813-1.195a.706.706 0 00.324-.242.564.564 0 00.121-.371v-.212zM3.025 9.008c0 .036 0 .066-.032.075-.239.08-1.35.512-1.35.512v.219s1.112-.427 1.35-.507c.032-.01.032-.041.032-.075zm8.742-5.543a.382.382 0 00-.26-.047c-.7.1-1.592.282-2.273.414a.56.56 0 00-.281.142.343.343 0 00-.095.233v.239a.341.341 0 01.095-.233.56.56 0 01.281-.142c.682-.132 1.573-.311 2.273-.414a.377.377 0 01.26.048.279.279 0 01.125.255v-.237a.283.283 0 00-.124-.261zm.526 3.188a86.088 86.088 0 00-3.832.773.563.563 0 01-.477-.264 1.06 1.06 0 01-.246-.6v.2a1.145 1.145 0 00.248.6c.152.182.331.31.476.277a86.611 86.611 0 013.834-.751 1.169 1.169 0 00.63-.4.878.878 0 00.23-.554v-.24a.876.876 0 01-.23.554 1.164 1.164 0 01-.632.4zm5.208-3.944l-2.614.257-.021.011v.24l.021-.01 2.614-.258a.179.179 0 01.205.148v.016-.24a.18.18 0 00-.19-.171h-.017zm1.441 1.052v-.269a.786.786 0 01-.463.761 1.4 1.4 0 01.156.141.743.743 0 00.3-.634zm.189 2.111l-1.1.083a2.123 2.123 0 00-.269-.815c-.177-.295-.406-.443-.6-.4l-2.228.245v.225l2.228-.246c.195-.036.424.112.6.4a2.127 2.127 0 01.269.816l1.1-.083c.023 0 .073 0 .068-.023v-.225c0 .024-.044.021-.068.022zm-4.223.4l-1.1.146v.226l1.1-.147a.032.032 0 00.03-.035V6.24a.033.033 0 01-.028.037zm9.824-3.481a.173.173 0 00.142-.168v-.226a.173.173 0 01-.142.169c-1.067-.034-2.627-.086-3.673-.047-.066 0-.108.023-.111.091l-.015.216c0-.068.059-.08.125-.082 1.048-.039 2.608.012 3.675.046zm-4.223 1.545c1.087.025 2.048 0 3.1.075.073.006.141.047.14.126l.008-.218a.141.141 0 00-.147-.132c-1.051-.072-2.012-.051-3.1-.075-.312-.007-.723-.257-.719-.576v.226c0 .317.408.567.72.573zm3.684 1.494a37.562 37.562 0 00-4.426 0v.226a37.565 37.565 0 014.426 0 .758.758 0 00.718-.633v-.225a.758.758 0 01-.716.632zm6.519-2.683c-1.241-.136-2.482-.37-3.726-.472-.081-.006-.195.036-.195.119v.225c0-.082.113-.125.195-.119 1.244.1 2.484.336 3.726.472.033 0 .085-.018.086-.051V3.1c0 .034-.052.054-.084.054zm-.061 3.344c-1.6-.25-3.012-.38-4.448-.518a.749.749 0 01-.561-.7v.237a.748.748 0 00.561.7c1.435.138 2.832.261 4.435.51.023 0 .073-.018.073-.042l.013-.218c0 .025-.047.046-.071.042zm4.359-.533v-.225c0-.06-.1-.075-.121-.075a63.935 63.935 0 00-2.592-.526c-.032-.006-.048 0-.047.029v.225c0-.033.012-.035.044-.029.874.159 1.724.335 2.592.526.022 0 .12.017.122.074zm-2.83.781c-.3-.062-.7-.114-1.064-.179v.191c.364.065.754.11 1.052.172.033.006.082-.018.082-.054l.01-.17a.073.073 0 01-.078.039zm3.857.814c-.324-.075-.649-.161-.991-.24a.1.1 0 01-.064-.1v.225a.1.1 0 00.064.1c.341.079.653.161.977.238.084.02.1 0 .1-.029l.013-.225c0 .035-.014.05-.1.029zm5.984-1.494c-1.014-.382-2.469-.9-3.8-1.25-.019 0-.051.006-.051.026v.22c0-.019.035-.029.054-.025 1.327.347 2.764.86 3.779 1.242.089.034.139.02.14-.065l.016-.194c-.007.066-.058.075-.139.044zm.074 1.768a49.619 49.619 0 00-3.93-1.3c-.018 0-.05 0-.051.018l-.011.218a.094.094 0 01.062-.01c1.373.392 2.726.849 3.917 1.3.02.007.022-.024.022-.043l.012-.226c0 .024 0 .049-.02.042zm-.074 1.645a51.583 51.583 0 00-5.076-1.683c-.027-.007-.042-.048-.042-.079v.225c0 .029.015.072.042.075a51.2 51.2 0 015.062 1.676c.073.027.073-.031.073-.054l.015-.2c0 .03-.015.064-.071.042z" fill="#432918" fill-rule="evenodd"/><path data-name="패스 804107" d="M41.995 5.576c0 .1 0 .263-.009.352h-.006l-.268-.1-.187-.075-.023-.009c-.465-.169-.909-.325-1.333-.465s-.824-.268-1.2-.376h-.018l-.33-.1-.341-.1-.289-.08v.836l.179.05.127.035.22.065.221.065a51.449 51.449 0 012.866.938l.112.039.255.088v.114c0 .1-.012.744-.012.744l-.015-.006-.245-.075-.172-.055c-.491-.178-1.01-.354-1.542-.526s-1.077-.338-1.616-.5l-.423-.125-.008.41-.006.4v.009l.169.053.332.1.325.1.132.042.131.041c.466.145.916.292 1.347.442s.886.29 1.276.442l.04.014.043.018.073.03.14.054a6.785 6.785 0 01-.02.785h-.009l-.246-.09-.048-.017-.048-.017c-.787-.293-1.573-.539-2.277-.77s-1.566-.507-2.209-.683v-.019c0-.355.015-1.029.027-1.663s.035-2.353.041-2.4c.069.011 1.556.446 2.271.683s1.441.492 2.15.761l.025.011.161.057.23.085v.385m-5.975-2.216c-.1-.029-.215-.056-.323-.082s-.311-.071-.412-.093V3.802c0 .13-.006.263-.012.4s-.013.27-.023.407v.094l-.007.17h-.007l-.2-.041-.148-.031-.122-.027-.121-.026a132.831 132.831 0 00-1.877-.39l-.046-.009-.044-.009-.235-.044-.233-.041-.062-.011.008-.472.006-.458V2.52l-.2-.031-.147-.024-.179-.03-.246-.036v.192c-.007.236-.018.569-.028.947L31.32 4.75c0 .12-.007.238-.012.352l-.013.332-.017.495c-.005.152-.009.392-.01.513v.009c.045.006.164.033.205.039l.118.021.2.035.308.049h.013v-.542s0-.128.008-.292.008-.364.008-.516V5.15v-.193c.019 0 .1.017.126.023l.029.006.033.006c.147.027.5.1.948.188s.975.2 1.464.3l.064.012.065.013.16.037.161.037h.011c0 .045 0 .248-.006.293v.243c0 .1 0 .188-.006.276s0 .174-.007.263v.311l-.006.164v.011l.248.059.17.041.146.037.238.056.007-.241v-.116c.017-.48.027-1.03.037-1.61s.016-1.189.022-1.784v-.211h-.008zM28.106 1.9c-.662-.076-1.191-.131-1.428-.157a.787.787 0 00-.572.2.716.716 0 00-.293.479c-.019.172-.007 1.4-.007 1.4l-.008 1.468a.617.617 0 00.037.219.469.469 0 00.109.17.605.605 0 00.283.155.787.787 0 00.175.025h.084c.588.057 1.215.117 1.858.186s1.253.132 1.91.225l.293.046.006-.4v-.348l-.342-.051-.258-.038h-.057c-.509-.067-1.016-.123-1.563-.191s-1.052-.135-1.576-.189a.124.124 0 01-.08-.043.132.132 0 01-.032-.087V2.793a.228.228 0 01.072-.2.378.378 0 01.221-.075c.34.027 3.263.428 3.727.493l.008-.37v-.427c-.629-.092-1.7-.212-2.565-.312m-9.212 3.1a2.139 2.139 0 01.2.761l-.923.057a2.988 2.988 0 00-.284-.782.751.751 0 00-.726-.451c-.4.046-2.366.252-2.374.259s0 1.289 0 1.289l-.426.058-.425.058V2.124s3.8-.443 4.219-.418.514.251.538.478a9.374 9.374 0 01.051 1.434.963.963 0 01-.442.611 2.464 2.464 0 01.591.77zm-1.014-2.133a.273.273 0 00-.081-.226.506.506 0 00-.3-.08l-2.737.278v1.244l1.315-.122 1.316-.121a.547.547 0 00.354-.164.509.509 0 00.136-.354zm-4.936.029c0 .193.017 2.582.017 2.774a.886.886 0 01-.639.771c-.356.07-3.464.7-3.747.751s-.638-.31-.638-.615l-.006-2.756c0-.305.325-.552.6-.621s3.554-.715 3.766-.758a.559.559 0 01.644.455zm-.868.736c0-.236-.1-.444-.45-.386a130.6 130.6 0 00-2.413.445c-.4.08-.559.235-.559.589v1.761c0 .251.153.438.408.39s2.414-.471 2.659-.526a.473.473 0 00.368-.492c0-.234-.013-1.656-.013-1.781zM24.351 3.3c-.316-.02-.662-.031-1.006-.036s-.7-.007-1.038-.008c-.216 0-1.382.009-1.405 0a.121.121 0 01-.062-.036.208.208 0 01-.044-.136 1.352 1.352 0 010-.154v-.151a2.283 2.283 0 01.02-.356c.023-.05.074-.075.189-.081.087 0 1.509.006 2.475.013h.35c.273-.007.6.017.84.012v-.719c-.424-.024-.71-.035-1.134-.046h-.077a75.794 75.794 0 00-.754-.018c-1.008-.015-2.1 0-2.22 0a.673.673 0 00-.318.133.34.34 0 00-.162.225l-.009.833-.01.833a.313.313 0 00.163.225.652.652 0 00.337.118l.537.009.522.005c.352 0 .724.007 1.1.015s.748.022 1.107.046a.159.159 0 01.166.115.982.982 0 01.006.251v.2a.571.571 0 01-.033.265c-.031.05-.1.066-.229.066-.007 0-.368-.007-.507-.007h-.446l-.523-.007h-.525c-.3 0-.595 0-.867.011s-.581.024-.807.04l-.028.719c.389-.019.809-.035 1.133-.044s.624-.012.891-.012.489 0 .706.011.42.015.632.024l.441.017.5.015a.553.553 0 00.316-.133.4.4 0 00.172-.274l.008-.79.007-.79a.4.4 0 00-.148-.255.481.481 0 00-.257-.141zm-17.252.916l.035 1.64a.4.4 0 01-.013.118.456.456 0 01-.115.2.513.513 0 01-.205.143L2.842 7.583l.022 1.392s-1 .367-1.054.381V7.395c0-.715-.025-2.028-.022-2.064s.022-.047.078-.067 1.268-.465 2.77-.993c.447-.157 1.49-.481 1.7-.519a.683.683 0 01.5.086.529.529 0 01.257.374zm-.9 1.256c0-.114-.02-.463-.03-.576a.36.36 0 00-.095-.2.286.286 0 00-.2-.094h-.049s-.889.259-1.366.424-1.683.636-1.683.636l.018 1.223 3.04-1a.6.6 0 00.24-.151.4.4 0 00.129-.263zM19.405 20.08v1.13a.652.652 0 01-.081.363.325.325 0 01-.294.134.339.339 0 01-.3-.134.637.637 0 01-.087-.363v-1.134a.15.15 0 00-.148-.151.148.148 0 00-.146.151v1.039a1.116 1.116 0 00.146.631.608.608 0 00.539.25.584.584 0 00.537-.25 1.159 1.159 0 00.132-.629v-1.041a.149.149 0 00-.146-.15.149.149 0 00-.148.15zm1.493.123a.143.143 0 00.142-.144.143.143 0 00-.142-.145h-.833a.143.143 0 00-.142.145.143.143 0 00.142.144h.272v1.643a.148.148 0 00.145.151.15.15 0 00.149-.15V20.2zm1.316 0a.143.143 0 00.142-.144.143.143 0 00-.142-.145h-.832a.142.142 0 00-.142.145.142.142 0 00.142.144h.271v1.643a.148.148 0 00.146.151.15.15 0 00.148-.15V20.2zm1.594.579h-.452c-.123 0-.138.064-.138.12a.136.136 0 00.121.15h.336v.093a.562.562 0 01-.394.586.376.376 0 01-.362-.247 1.3 1.3 0 01-.107-.547 1.219 1.219 0 01.128-.534.356.356 0 01.312-.24.389.389 0 01.311.215.124.124 0 00.165.048.111.111 0 00.073-.138.546.546 0 00-.553-.376.53.53 0 00-.52.3 1.427 1.427 0 00-.187.729 1.515 1.515 0 00.173.745.6.6 0 00.534.35.692.692 0 00.353-.1.973.973 0 00.351-.566 2.015 2.015 0 00.027-.368c0-.1-.024-.213-.172-.213zm4.849-.579a.143.143 0 00.142-.144.143.143 0 00-.141-.149h-.829a.142.142 0 00-.142.145.142.142 0 00.142.144h.271v1.643a.15.15 0 00.146.151.148.148 0 00.148-.15V20.2zm-1.711 1.027l.046-.017a.694.694 0 00.274-.18.577.577 0 00.169-.476.679.679 0 00-.254-.495.838.838 0 00-.49-.139h-.445a.143.143 0 00-.118.048.179.179 0 00-.039.116v1.746a.144.144 0 00.123.161h.024a.14.14 0 00.148-.132.137.137 0 000-.028v-.554h.276l.441.621a.152.152 0 00.13.068.125.125 0 00.142-.123.211.211 0 00-.053-.133zm-.572-.238v-.789h.353a.421.421 0 01.3.109.364.364 0 01.12.263.427.427 0 01-.436.418h-.035zm-1.175-.929a.259.259 0 00-.206-.172.24.24 0 00-.206.18l-.546 1.752a.143.143 0 00.023.125.149.149 0 00.1.067c.073 0 .14-.011.166-.106l.084-.308h.776l.09.3a.154.154 0 00.148.106.155.155 0 00.128-.06.19.19 0 00.007-.166zm.082 1.3h-.6L25 20.236l.336 1.127zm-8.626-.415a1.4 1.4 0 00-.63-.193.274.274 0 01-.222-.314v-.009a.335.335 0 01.353-.233.469.469 0 01.368.163c.08.1.226-.009.226-.091s-.143-.359-.573-.363a.743.743 0 00-.433.126.53.53 0 00-.238.394.608.608 0 00.163.472.579.579 0 00.4.166.511.511 0 01.454.236.255.255 0 01-.057.278.51.51 0 01-.346.121.553.553 0 01-.367-.15.2.2 0 00-.194-.064c-.1.036-.089.166-.081.189a.7.7 0 00.618.336.752.752 0 00.581-.212.594.594 0 00.159-.42.49.49 0 00-.192-.432zm1.306-.733a.144.144 0 00.142-.146.144.144 0 00-.142-.145h-.837a.144.144 0 00-.143.145.145.145 0 00.143.146h.271v1.644a.148.148 0 00.146.15.148.148 0 00.148-.15v-1.644zM6.032 12.284a2.991 2.991 0 011.065-1.26c.225-.145.234-.2.23-.219s-.04-.041-.344-.042a2.137 2.137 0 00-1.218.526 2.861 2.861 0 00-.864 1.421 5.681 5.681 0 00.037 1.921s-.77.368-1.028.517a1.652 1.652 0 00-.3-.579.751.751 0 00-.851-.094.623.623 0 00-.348.64 1.163 1.163 0 00.235.555 1.358 1.358 0 00-.555.348.852.852 0 00-.207.784.563.563 0 00.608.356 1.768 1.768 0 00.852-.458 4.213 4.213 0 00.345.37.714.714 0 00.441.15.792.792 0 00.363-.089.669.669 0 00.326-.646c-.037-.369-.38-.513-.361-.648a21.078 21.078 0 015.517-2.195 20.051 20.051 0 013.991-.645 6.051 6.051 0 012.545.265 4.055 4.055 0 011.8 1.026l.013.012a1.728 1.728 0 00-.936-1.509 3.353 3.353 0 00-1.5-.511 3.14 3.14 0 01.455-.607 2.014 2.014 0 011.045-.556 6.323 6.323 0 011.048-.062.8.8 0 00-.712-.495 2.385 2.385 0 00-1.2.112 2.907 2.907 0 00-1.515 1.587 17.6 17.6 0 00-2.13.011 3.683 3.683 0 01.616-1.63 2.98 2.98 0 011.459-.956.819.819 0 00.241-.122c-.12-.119-.282-.241-.88-.263a2.324 2.324 0 00-1.916 1.077 4.3 4.3 0 00-.6 1.917c-1.135.207-2.446.552-2.446.552a4.068 4.068 0 01.289-1.38 3.237 3.237 0 011.2-1.329s.2-.13.242-.169a.98.98 0 00-.493-.075 2.479 2.479 0 00-1.087.3 2.279 2.279 0 00-1.136 1.976c-.016.178.033.877 0 1.046a24.86 24.86 0 00-2.587.834 3.294 3.294 0 01.245-1.764m9.5 4.993s.287-.083.4-.122a.867.867 0 00-.2-.143 1.689 1.689 0 00-.84-.2 2.054 2.054 0 00-.868.186 2.493 2.493 0 00-1.153 1.487s-.674.021-.932.039l-.965.067a2.868 2.868 0 01.073-.5 2.4 2.4 0 01.465-.9 2.5 2.5 0 011.447-.854c.051-.012.1-.026.135-.036a1.1 1.1 0 00-.635-.186 2.438 2.438 0 00-2.388 2.291c-.011.08-.042.271-.042.271s-.478.109-.7.15a7.765 7.765 0 00-1.163.3 3.6 3.6 0 01.346-1.375 3.211 3.211 0 01.825-1.041 2.994 2.994 0 01.267-.207 1.516 1.516 0 00-.367-.051 1.759 1.759 0 00-1.627 1.153 4.939 4.939 0 00-.287 1.884c-.363.091-1.189.413-1.527.547a3.208 3.208 0 01.015-1.394 2.2 2.2 0 01.551-1.052 2.723 2.723 0 01.242-.225c-.022-.007-.093-.053-.427.023a1.783 1.783 0 00-1.25 1.236 7.893 7.893 0 00-.155 1.913c-.2.1-.87.411-.989.461a1.643 1.643 0 00-.178-.484.615.615 0 00-.51-.281.8.8 0 00-.345.085.449.449 0 00-.219.273.605.605 0 00.034.458 1.494 1.494 0 00.169.246c.049.062.152.214.152.214a1.726 1.726 0 00-.6.308.658.658 0 00-.2.85.536.536 0 00.5.3 1.283 1.283 0 00.883-.451s.235.361.269.417a.557.557 0 00.481.253.625.625 0 00.3-.075.7.7 0 00.328-.606.951.951 0 00-.244-.574l-.053-.075.483-.26a15.524 15.524 0 012.431-1.129 18.788 18.788 0 014.126-.985 4.816 4.816 0 01.873-.052 3.4 3.4 0 011.055.24v-1.493h.582a2.667 2.667 0 011.443-.9m-2.02 5.522v2.173a7.235 7.235 0 00-.687-.042 15.364 15.364 0 00-5.531 1.386 18.612 18.612 0 00-2.285 1.218 1.3 1.3 0 01.578.648.655.655 0 01-.7.842c-.5.017-.623-.431-.777-.6-.046.025-.465.433-.607.514a.815.815 0 01-.4.115.609.609 0 01-.5-.233.623.623 0 01-.12-.5.763.763 0 01.394-.507 2 2 0 00.412-.27c-.033-.143-.305-.376-.379-.575a.751.751 0 01.228-.805.637.637 0 01.734.021c.279.171.426.7.471.751.156-.108.623-.428.9-.629a3.6 3.6 0 01-.458-1.882c.146-1.009 1.151-1.693 1.649-1.448a2.388 2.388 0 00-.648 1.589 2.254 2.254 0 00.213 1.3s1.081-.439 1.478-.56a3.351 3.351 0 01-.061-2.2 1.987 1.987 0 011.782-1.1 2.69 2.69 0 00-1.047 2.96c.22-.053 1.464-.471 1.616-.518a3.153 3.153 0 01.621-2.114 2.266 2.266 0 011.523-.947 1.121 1.121 0 01.378.049c0 .051 0 .051-.1.117l-.073.049a6.34 6.34 0 00-1.317 1.476 2.408 2.408 0 00-.26 1.106v.048s.643-.119 1.138-.169.99-.06.99-.06a3.123 3.123 0 01.293-.621 2.744 2.744 0 01.547-.58zm20.66 9.411a1.8 1.8 0 00-.991.784c-.387.612-.53 1.295-.3 1.31.156.011.42 0 .481 0a7.739 7.739 0 01.82.038.255.255 0 00.143-.076 1.252 1.252 0 00.1-.172 3.407 3.407 0 011.176-1.69 1.242 1.242 0 01.759-.263 1.279 1.279 0 011.089.485c.1.143-.456-.133-1.311.764a3.077 3.077 0 00-.627.984c-.009.022.027.083.053.091.4.121 1.09.287 1.441.438a.168.168 0 00.212-.07 2.661 2.661 0 01.735-.762 1.89 1.89 0 011.064-.3l.074.009c.8.1.852.5.894.568s-.177.059-.276.083a2.468 2.468 0 00-1.405.894c-.053.1.156.268.156.268a1.676 1.676 0 01.821 1.728c-.015.122 0 .181-.109.181a1.182 1.182 0 01-.317-.244 10.047 10.047 0 00-1.123-.874 5.647 5.647 0 00-2.093-.838 9.638 9.638 0 00-1.726-.178 14 14 0 00-3.834.58c-.227.064-1.041.3-1.752.533l-.44.14.287-.257a10.28 10.28 0 00.882-.972l.2-.26.335-.084 1.44-.325a.409.409 0 00.3-.332 2.8 2.8 0 01.688-1.533 1.84 1.84 0 011.36-.88c.643-.047.9.177.8.231zM23.818 43.304a1.1 1.1 0 01-.414-.771.737.737 0 01.434-.684 1 1 0 01.889.08c.324.231.337.464.454.807a.126.126 0 00.04.02c.278-.144.769-.371 1.1-.562l.177-.1s.074-.023.046-.128a3.7 3.7 0 01-.168-1.119 2.524 2.524 0 01.4-1.179c.514-.9 1.492-.822 1.4-.736a2.988 2.988 0 00-.668 1.414 2.485 2.485 0 00.007.884c.019.131.03.291.109.335s.389-.121.582-.2c.244-.094.578-.136.8-.2.129-.036.092-.108.093-.137a4.093 4.093 0 01.643-2.3 2.053 2.053 0 011.414-.82c.205-.021.5.076.41.137a3.264 3.264 0 00-.348.259 3.575 3.575 0 00-.786.909 2.777 2.777 0 00-.261 1.636 4.925 4.925 0 001.316-.175.225.225 0 00.134-.159c.159-.52.332-1.5.867-1.864a1.534 1.534 0 01.923-.366c.249-.014.906.188.759.264a2.724 2.724 0 00-1.038.8 1.881 1.881 0 00-.377.955c-.041.194.168.247.168.247a9.248 9.248 0 011.074.138c.106.02.186-.123.211-.166a2.667 2.667 0 01.6-.694 1.35 1.35 0 01.847-.384c.664 0 .994.492.9.526a2.643 2.643 0 00-1.436.967c-.021.026-.081.059.018.15a3.2 3.2 0 011.106 2c0 .063.041.339-.054.382a6.582 6.582 0 00-1.474-1.339 5 5 0 00-2.463-.571 10.891 10.891 0 00-3.078.473 13.868 13.868 0 00-3.175 1.441.993.993 0 01.348.466.768.768 0 01-.228.918.629.629 0 01-.585.1c-.481-.068-.61-.57-.671-.728a.747.747 0 01-.338.391.7.7 0 01-1-.118.743.743 0 01-.045-.064.7.7 0 01.111-.937l.238-.209zm1.671 6.084a3.462 3.462 0 01-.215-.5 2.19 2.19 0 01-.128-1.148 1.094 1.094 0 01.982-.885 1.142 1.142 0 00-.284.951 2.385 2.385 0 00.3.967c.041.055.068.033.087.024a8.25 8.25 0 01.822-.4.058.058 0 00.022-.045 2.527 2.527 0 01.213-1.926 1.666 1.666 0 011.2-.858c.022 0 .33.01.348.127a2.444 2.444 0 00-.793 1 2.3 2.3 0 00-.081 1.26c0 .014.039.032.056.028.314-.087.619-.167.943-.237a.136.136 0 00.062-.065 2.924 2.924 0 01.865-1.565 2.118 2.118 0 011.176-.5c.562-.021.637.178.7.256.04.051-.118-.02-.384.094a2.6 2.6 0 00-.835.682 1.73 1.73 0 00-.394.9c0 .02.007.064.021.065a5.53 5.53 0 01.955.236.074.074 0 00.055-.017 3.582 3.582 0 01.69-.947 1.492 1.492 0 01.969-.393.983.983 0 01.615.195s.221.176.168.2a2 2 0 00-.984.633c-.38.455-.391.57-.416.676s-.017.15.095.225c.6.4.673.729.705.944.034.241-.111.576-.3.325a2.07 2.07 0 00-1-.721 4.843 4.843 0 00-1.742-.353 5.245 5.245 0 00-1.627.278 6.589 6.589 0 00-1.965 1c-.085.067-.172.133-.26.2a6.226 6.226 0 00-.532.45c-.073.075.053.118.11.151.69.312.709.785.528 1a.483.483 0 01-.593.087c-.523-.343-.425-.642-.656-.569-.159.05-.317.451-.44.594a.541.541 0 01-.75.1.626.626 0 01-.112-.849 4.456 4.456 0 01.408-.353c-.03-.021-.375-.246-.514-.368a.6.6 0 010-.831l.034-.033a.614.614 0 01.869.139l.006.007s.248.348.269.37.044.019.072-.006c.1-.087.626-.5.662-.525a.042.042 0 00.012-.053zm3.2-19.888a.623.623 0 01-.236 0 .318.318 0 01-.2-.13.513.513 0 01-.1-.2c0-.048.043-.088.081-.118a1.2 1.2 0 00.3-.332.869.869 0 00.1-.383c0-.023-.047-.035-.063-.019-.081.079-.133.2-.228.259a.47.47 0 01-.292.085.289.289 0 01-.189-.093.661.661 0 01-.1-.205c-.022-.063.074-.11.138-.124a.9.9 0 00.389-.12.449.449 0 00.177-.2.616.616 0 00.035-.206c0-.031.019-.05-.012-.04-.073.024-.122.068-.186.086a.461.461 0 01-.357-.022.923.923 0 01-.267-.315c-.016-.024 0-.072.024-.075.111-.024.209-.151.294-.3a.583.583 0 00.046-.1c.017-.043.068-.088.074-.109a.982.982 0 00.022-.272.338.338 0 00-.1-.2.074.074 0 00-.088 0c-.05.094-.02.216-.073.308a.921.921 0 01-.231.248c-.045.036-.11.084-.162.06a.337.337 0 01-.172-.226.543.543 0 01.069-.331 3.588 3.588 0 01.368-.593c.1-.136.213-.225.308-.375.066-.1.115-.309.028-.342s-.139.174-.216.22a3.425 3.425 0 00-.846.471 1.5 1.5 0 00-.252.544c-.039.106-.014.266-.057.369-.018.039-.1.076-.128.052a.761.761 0 01-.209-.339.446.446 0 01.018-.267c.014-.035-.014-.068-.039-.052a.57.57 0 00-.253.308.754.754 0 00.041.531 6.909 6.909 0 00.478.712c.125.216.287.445.4.652a.851.851 0 01.13.59 1.113 1.113 0 01-.309.561c-.02.012-.063.035-.081.02a6.084 6.084 0 00-.507-.438 2.039 2.039 0 00-.7-.289 4.485 4.485 0 00-.934-.007c-.327.01-.653.058-.98.047a2.214 2.214 0 01-.783-.106.877.877 0 01-.448-.395 1.127 1.127 0 01-.1-.618 1.186 1.186 0 01.147-.491.775.775 0 01.3-.319.66.66 0 01.478-.067.8.8 0 01.221.145 1.435 1.435 0 01.182.182c.008.01.051 0 .053-.012a1.372 1.372 0 00-.092-.663 2.866 2.866 0 00-.287-.459c-.011-.036.093-.033.128-.036a.753.753 0 01.493.151.832.832 0 01.242.26c.007.011.034 0 .034-.012a1.048 1.048 0 00-.251-.747.865.865 0 00-.31-.279c-.074-.027.054-.086.118-.087a.854.854 0 01.412.062.42.42 0 01.125.094.626.626 0 00.086.067c.024.014.05-.03.039-.058a.611.611 0 00-.092-.225 6.235 6.235 0 00-.66-.582.461.461 0 01-.074-.057 1.092 1.092 0 01-.147-.3c-.015-.041-.073-.08-.1-.138a.246.246 0 01.019-.173c.066-.131.13-.154.273-.219a1.5 1.5 0 01.333-.07c.034-.006.069.034.1.023s.028-.056-.025-.1a.79.79 0 00-.459-.15 1.346 1.346 0 00-.648.049 1.157 1.157 0 01-.5.15.683.683 0 01-.333-.067.275.275 0 01-.148-.19.752.752 0 01.092-.39.486.486 0 01.22-.194c.061-.032.1-.057.1-.1s-.089-.024-.121-.012a1.915 1.915 0 00-.554.221 2.318 2.318 0 00-.334.393.234.234 0 01-.08.059c-.038.017-.073.007-.115.023-.139.054-.281.126-.416.191s-.243.175-.38.225a1.134 1.134 0 01-.332.054h-.009c-.221-.021-.514-.019-.567.252a.126.126 0 00.058.142.645.645 0 00.123.061l.136.05a.172.172 0 01.084.049l.006.012v.039a.108.108 0 01-.1.069.514.514 0 01-.355-.047l-.025-.013a.116.116 0 00-.151.023 9.161 9.161 0 01-.749.562.313.313 0 00-.073.062.125.125 0 00-.028.057.167.167 0 000 .054c.01.061-.06.088-.106.1a.13.13 0 00-.1.12.461.461 0 00.008.132.153.153 0 00.173.13.138.138 0 00.048-.017c.066-.025.128-.047.2-.066a.1.1 0 01.1.017.057.057 0 01.012.015l.006.011v.012a.1.1 0 01-.011.057 1.053 1.053 0 01-.085.123c-.031.046-.054.112 0 .151a.228.228 0 00.306-.015.54.54 0 00.1-.151.249.249 0 01.126-.13.877.877 0 01.349-.075h.006a.414.414 0 01.24.063.117.117 0 01.05.057l.006.016v.037a.85.85 0 01-.1.236c-.022.051-.034.118-.058.184s-.06.134-.077.186-.031.057-.074.1c-.1.089-.249.179-.351.272a3.047 3.047 0 00-.477.593.821.821 0 00-.089.222v.007c-.037.19-.073.419-.294.292a5.515 5.515 0 01-.606-.395.861.861 0 01-.186-.2c-.192-.287-.429-.033-.555.175a9.153 9.153 0 01-.661.924.586.586 0 00-.092.157.762.762 0 01-.134.217.476.476 0 00-.095.314.882.882 0 01-.168.541.5.5 0 00-.134.331c0 .107 0 .214.006.321 0 .08.034.151.123.145a.23.23 0 00.06-.017 1.723 1.723 0 00.449-.257.465.465 0 00.055-.053.147.147 0 00.027-.167.146.146 0 00-.028-.041.387.387 0 00-.028-.029.185.185 0 01-.073-.1.134.134 0 01-.006-.027.343.343 0 01.008-.109c.011-.047.02-.094.026-.142a.21.21 0 01.072-.146c.074-.063.148-.121.222-.182a.328.328 0 00.09-.371.338.338 0 01-.019-.075.268.268 0 010-.039.355.355 0 01.072-.16c.049-.072.1-.141.148-.212a.513.513 0 01.308-.237.543.543 0 01.446.151 1.342 1.342 0 01.257.573 1.97 1.97 0 00.2.487.228.228 0 00.311.1.229.229 0 00.048-.033l.021-.012a.129.129 0 01.023-.012.106.106 0 01.121.053 2.009 2.009 0 00.2.211c.084.053.012.119-.057.118s-.115 0-.172 0a.347.347 0 00-.147.025 3.463 3.463 0 01-1.057.167.56.56 0 00-.07.007.139.139 0 00-.1.075l-.017.04c-.014.035-.025.07-.038.105a.364.364 0 000 .257 3.7 3.7 0 01.108 1.542.646.646 0 00.12.525.335.335 0 00.167.11.211.211 0 01.073.04.3.3 0 01.067.195.462.462 0 00.114.271 1.034 1.034 0 00.33.281l.043.017a.136.136 0 00.18-.071 1.19 1.19 0 00.11-.533.192.192 0 00-.148-.179l-.024-.007a.123.123 0 00-.084.03l-.008.006a.2.2 0 01-.046.018h-.049l-.022-.006a.082.082 0 01-.023-.012.266.266 0 01-.1-.126.5.5 0 01-.019-.324l.021-.094a.387.387 0 00.006-.15.5.5 0 00-.039-.151c-.037-.083-.048-.115-.117-.139l-.022-.009a.307.307 0 01-.086-.048l-.012-.015a.088.088 0 01-.008-.075 3.056 3.056 0 00.024-.732c0-.081-.018-.165.049-.226.165-.141.441-.028.613.038a4.11 4.11 0 00.692.183 1.561 1.561 0 001.08-.3c.029-.026.033-.033.065-.013.126.075.2.164.33.245a3.294 3.294 0 00.916.43 6.144 6.144 0 001.314-.012 1.111 1.111 0 01.322.07.059.059 0 01.04.06c-.012.164-.074.32-.074.484a.589.589 0 00.092.249c.038.075.064.18.11.252l.045.086a.907.907 0 01.016 1.1 4.071 4.071 0 01-.532.445 1.184 1.184 0 01-.615.243.623.623 0 00-.4.173 1.86 1.86 0 01-.42.337.225.225 0 00-.134.145 2.685 2.685 0 00-.165.571c-.023.112.057.15.154.136a2.038 2.038 0 00.477-.131.16.16 0 00.1-.2.124.124 0 00-.015-.033l-.051-.143a.168.168 0 01-.012-.043v-.034a.137.137 0 01.025-.045.372.372 0 01.095-.086.22.22 0 01.153-.04c.034.007.068.016.1.026a.438.438 0 00.526-.194l.04-.068a.587.587 0 01.147-.169 6.421 6.421 0 011.329-.669.129.129 0 00.09-.082.463.463 0 00-.008-.176 2.757 2.757 0 01-.009-.508c0-.117.045-.327.194-.331a.21.21 0 01.147.1 1.258 1.258 0 00.578.422c.068.024.135.049.2.079a.591.591 0 01.333.447.4.4 0 01-.067.308 7.853 7.853 0 00-.45.664.971.971 0 01-.278.3 5.246 5.246 0 00-.5.388 1 1 0 00-.313.338 7.417 7.417 0 00-.23.706c-.038.138.044.17.163.143a2.013 2.013 0 00.51-.21.274.274 0 00.065-.053.154.154 0 00.033-.1.338.338 0 00-.073-.172.2.2 0 01-.021-.233.186.186 0 01.1-.075c.128-.041.256-.075.385-.111a.777.777 0 00.448-.23.259.259 0 00.049-.1v-.01l.008-.03a2.138 2.138 0 01.984-1.269.212.212 0 00.1-.167.368.368 0 00-.022-.2l-.359-.571a1.092 1.092 0 01-.2-.5 1.271 1.271 0 01.138-.551 1.421 1.421 0 00.088-.15c.064-.143.187-.193.283-.323a3.094 3.094 0 00.269-.395 3.632 3.632 0 00.193-.563c.045-.147-.026-.309-.013-.461a.329.329 0 01.069-.154.543.543 0 01.25-.2.533.533 0 01.316.021c.189.055.313.13.506.175a.564.564 0 00.3-.018.59.59 0 00.275-.163c.028-.02.033-.078 0-.075zm-6.573-3.116a.424.424 0 01-.2.359.419.419 0 01-.2.042c-.073 0-.1-.116-.106-.286v-.193c0-.081 0-.155.01-.236 0-.055 0-.112.006-.167s0-.13 0-.195c-.007-.141 0-.284-.021-.423a3.028 3.028 0 00-.118-.5c-.031-.1-.067-.2-.108-.3-.02-.046-.057-.1-.077-.143a.386.386 0 00-.083-.111c-.049-.047-.119-.069-.163-.122-.016-.019 0-.044.021-.058a.505.505 0 01.587.075 1.234 1.234 0 01.441.872 4.963 4.963 0 01.008 1.383zM2.133 35.931h13.371a7.653 7.653 0 01-1.97-5.045v-.216H1.324a23.9 23.9 0 00.806 5.261zm19.329 6.6H4.838q.662 1.219 1.43 2.427A26.789 26.789 0 008.38 47.8h13.078zm21.439-23.58h-12.27v4.631h12.187c.021-1.51.051-3.077.079-4.629zm.138-7.8a.26.26 0 00-.033-.016 52.089 52.089 0 00-6.727-2.253 61.19 61.19 0 00-9.6-1.594 56.598 56.598 0 00-4.466-.211v5.152h20.813c0-.367.009-.726.018-1.076zm-13.164 7.635H14.2c-.031 0-.035.013-.035.045l.018 11.889a7.472 7.472 0 002.6 5.558 8.161 8.161 0 005.31 2.068 8.032 8.032 0 004.095-1.183 7.962 7.962 0 003.388-4.147 5.794 5.794 0 00.335-1.838l.006-12.354a.038.038 0 00-.042-.033m-.329 12.289a5.614 5.614 0 01-.321 1.768 7.64 7.64 0 01-3.232 3.989 7.611 7.611 0 01-3.9 1.137 7.744 7.744 0 01-5.064-1.988 7.205 7.205 0 01-2.479-5.35l-.017-11.43c0-.031 0-.044.033-.044h14.946a.035.035 0 01.039.032zm-4.531 7.35a7.678 7.678 0 01-1.628.437c.016.047.032.093.052.137a.306.306 0 00.3.206c.18.027.313-.1.446-.4.02-.024.1-.058.114-.029.14.236.464.451.684.332a.379.379 0 00.122-.516l-.014-.022z"/></g></g></svg>