<svg xmlns="http://www.w3.org/2000/svg" xmlns:xlink="http://www.w3.org/1999/xlink" width="100" height="100" viewBox="0 0 100 100"><defs><clipPath id="a"><rect width="100" height="100" fill="none"/></clipPath></defs><g clip-path="url(#a)"><g transform="translate(-219 -155)"><g transform="translate(219 155)" fill="#f9f9f9" stroke="#f0f0f0" stroke-width="1" opacity="0"><rect width="100" height="100" stroke="none"/><rect x="0.5" y="0.5" width="99" height="99" fill="none"/></g><path d="M1078.313-364.147a27.973,27.973,0,0,1,27.935,28.085,27.974,27.974,0,0,1-28.1,27.915,27.974,27.974,0,0,1-27.9-28.124A27.974,27.974,0,0,1,1078.313-364.147Zm10.43,10.418c-.266.284-.37.4-.477.507q-5.1,5.28-10.2,10.56a2.021,2.021,0,0,0,.487,3.43c1.509.871,3.027,1.727,4.545,2.583a2.089,2.089,0,0,0,2.959-.307c3.182-2.807,6.352-5.627,9.553-8.411a2.354,2.354,0,0,1,1.238-.478c1.017-.109,2.046-.118,3.1-.169-.046-.155-.062-.229-.09-.3-.06-.144-.118-.289-.191-.426-4.35-8.167-11.113-12.881-20.367-13.249-9.912-.394-17.4,4.08-22.218,12.748a22.192,22.192,0,0,0-2.481,14.429c.033.22.2.6.313.6,1.36.029,2.746.267,3.9-.844,6.824-6.572,13.681-13.11,20.5-19.688a2.86,2.86,0,0,1,2.451-1.007,21.169,21.169,0,0,0,2.342.017Zm-31.98,27.844a23.7,23.7,0,0,0,28.71,12.525c12.89-4.086,17.945-16.728,16.418-25.644-.555-.07-1.125-.117-1.686-.217a3.18,3.18,0,0,0-3.02,1.017q-10.2,10.293-20.436,20.548a1.565,1.565,0,0,1-1.5.513c-.924-.14-1.865-.171-2.8-.253-1.6-.141-3.2-.284-4.912-.437.223-.258.347-.418.488-.562q4.99-5.115,9.983-10.227a2.068,2.068,0,0,0-.457-3.554q-2.487-1.467-4.983-2.916c-1.356-.791-2.076-.695-3.191.411-2.791,2.769-5.575,5.545-8.387,8.292a1.832,1.832,0,0,1-1.071.481C1058.912-325.843,1057.9-325.886,1056.764-325.886Z" transform="translate(-809.248 541.147)"/></g></g></svg>