<svg xmlns="http://www.w3.org/2000/svg" width="100" height="100" viewBox="0 0 100 100">
  <g id="car_logo_scania" transform="translate(-219 -161)">
    <g id="W_100_H_100" data-name="W 100 H 100" transform="translate(219 161)" fill="#f9f9f9" stroke="#f0f0f0" stroke-width="1" opacity="0">
      <rect width="100" height="100" stroke="none"/>
      <rect x="0.5" y="0.5" width="99" height="99" fill="none"/>
    </g>
    <g id="scania" transform="translate(-1389.835 -2924.181)">
      <path id="패스_791876" data-name="패스 791876" d="M1689.42,3118.421a39.812,39.812,0,0,0,9.753-1.2l.4-.1.3.278a15.253,15.253,0,0,1,4.515,7.851l.089.4-.289.3a39.774,39.774,0,0,0-9.708,16.859l-.111.4-.4.122a15.476,15.476,0,0,1-4.548.678,15.232,15.232,0,0,1-4.559-.7l-.389-.122-.111-.389a39.919,39.919,0,0,0-9.731-16.848l-.289-.3.089-.4a15.361,15.361,0,0,1,4.559-7.873l.3-.278.4.1a40.146,40.146,0,0,0,9.73,1.223Z" transform="translate(-30.436 -2.216)" fill="#002968" fill-rule="evenodd"/>
      <path id="패스_791877" data-name="패스 791877" d="M1678.538,3126.437a13.251,13.251,0,1,1,3.881,9.364,13.163,13.163,0,0,1-3.881-9.364Z" transform="translate(-32.81 0)" fill="#002968" fill-rule="evenodd"/>
      <path id="패스_791878" data-name="패스 791878" d="M1680.11,3118.879a14.308,14.308,0,0,0-2.5,3.176,14,14,0,0,0-1.49,3.719,41.361,41.361,0,0,1,5.944,7.918,40.533,40.533,0,0,1,3.845,9.044,14.723,14.723,0,0,0,1.887.419,13.783,13.783,0,0,0,2.11.163,14.56,14.56,0,0,0,2.14-.156,14.055,14.055,0,0,0,1.846-.4,40.938,40.938,0,0,1,9.778-16.985,14.149,14.149,0,0,0-3.943-6.873,41.106,41.106,0,0,1-9.821,1.192,39.725,39.725,0,0,1-5.108-.333,42.306,42.306,0,0,1-4.691-.881Zm-3.222,2.756a15.125,15.125,0,0,1,2.816-3.525l.168-.155.219.055a41.679,41.679,0,0,0,4.815.92,38.92,38.92,0,0,0,5,.323,40.334,40.334,0,0,0,9.841-1.221l.22-.056.167.156a14.952,14.952,0,0,1,4.4,7.677l.05.221-.156.162a40.185,40.185,0,0,0-9.8,17.015l-.062.22-.219.067a14.8,14.8,0,0,1-2.188.5,15.345,15.345,0,0,1-2.261.166,14.644,14.644,0,0,1-2.235-.173,15.607,15.607,0,0,1-2.225-.514l-.219-.068-.062-.219a39.676,39.676,0,0,0-3.83-9.073,40.543,40.543,0,0,0-5.977-7.92l-.156-.162.05-.221a14.814,14.814,0,0,1,1.633-4.174Z" transform="translate(-30.926 -2.701)" fill="#e5e5e6"/>
      <path id="패스_791879" data-name="패스 791879" d="M1679.313,3126.875a12.912,12.912,0,1,1,3.782,9.127,12.881,12.881,0,0,1-3.782-9.127Zm4.374-8.543a12.075,12.075,0,1,0,8.535-3.537,12.049,12.049,0,0,0-8.535,3.537Z" transform="translate(-33.249 -0.438)" fill="#e5e5e6"/>
      <path id="패스_791880" data-name="패스 791880" d="M1693.756,3141.059a2.251,2.251,0,0,1,1.2.081,1.849,1.849,0,0,1,.9.7l.2.477-.475-.174a2.645,2.645,0,0,0-2.118.038,2.527,2.527,0,0,1-2.671-.246,1.738,1.738,0,0,1-.458-.53,4.174,4.174,0,0,1-.263-.533l-.293-.7.611.455a4.038,4.038,0,0,0,3.349.443l.012,0Z" transform="translate(-39.144 -15.317)" fill="#e5e5e6"/>
      <path id="패스_791881" data-name="패스 791881" d="M1701.294,3134.225a2.574,2.574,0,0,0-2.035.622,1.654,1.654,0,0,0-.423.623s-2.28-1.546-2.991,1.813c0,0,1.379-.99,2.168-.345a2.155,2.155,0,0,0,1.134.756c1,.267.89.467.934.679,0,0-.133.312-1,.856s-1.345.29-2.135.034c0,0-.055,1.167,1.512,1.145a3.285,3.285,0,0,0,.567-.011,2.112,2.112,0,0,0-1.168,2.724,3.2,3.2,0,0,1,1.357-.956,3.084,3.084,0,0,0,.656,4.57s0-2.068.767-2.7a8.778,8.778,0,0,1,.289,2.547,3.246,3.246,0,0,1-.278,1.2s3.191-.067,2.28-3.9a1.823,1.823,0,0,1,1.012,2.18,2.863,2.863,0,0,0,.978-4.382,1.55,1.55,0,0,1,1.413,1.291,3.555,3.555,0,0,0-1-4.626,1.433,1.433,0,0,1,1.479.556,3.346,3.346,0,0,0-1.768-2.68c-.389-.211.222-.834.067-1.179l-3.815-.812Z" transform="translate(-42.598 -11.962)" fill="#ce0037" fill-rule="evenodd"/>
      <path id="패스_791882" data-name="패스 791882" d="M1712.946,3135.9a1.568,1.568,0,1,1,.445,1.157l-.445-1.157Z" transform="translate(-52.285 -12.244)" fill="#ce0037" fill-rule="evenodd"/>
      <path id="패스_791883" data-name="패스 791883" d="M1714.1,3136.923a2.838,2.838,0,0,1,1.3-.7,1.813,1.813,0,0,1-1.167,1l-.133-.3Z" transform="translate(-52.936 -13.079)" fill="#e5e5e6" fill-rule="evenodd"/>
      <path id="패스_791884" data-name="패스 791884" d="M1706.258,3141.953a.628.628,0,0,0-.634-.089c.612.022.711.889,1.379.711a1.139,1.139,0,0,0,.334-.156c-.434.178-.789-.222-1.078-.467Z" transform="translate(-48.127 -16.251)" fill="#e5e5e6" fill-rule="evenodd"/>
      <path id="패스_791885" data-name="패스 791885" d="M1710.07,3144.227a1.953,1.953,0,0,0-.37-.843,1.986,1.986,0,0,0-.919-.594,5.388,5.388,0,0,1,.2,1.161,1.76,1.76,0,0,1-.24.952,1.457,1.457,0,0,1-.413.427,1.735,1.735,0,0,0,.1-.926,1.932,1.932,0,0,0-.647-1.025,4.152,4.152,0,0,1-.08.855,1.189,1.189,0,0,1-.448.7,1.3,1.3,0,0,0-.062-.963l-.378.2a.9.9,0,0,1-.016.749,2.771,2.771,0,0,1-.585.663c.765-.046,1.459-.126,1.815-.981a2.373,2.373,0,0,1-.625,1.47,2.218,2.218,0,0,0,1.679-.934,2.258,2.258,0,0,0,.3-1.49,2.971,2.971,0,0,1,.345,1.845,3.11,3.11,0,0,0,.9-2.105,2.727,2.727,0,0,0-.889-1.943l-.145.445a2.334,2.334,0,0,1,.477,2.338Z" transform="translate(-48.467 -16.048)" fill="#e5e5e6" fill-rule="evenodd"/>
      <path id="패스_791886" data-name="패스 791886" d="M1696,3142.974a1.868,1.868,0,0,0-.88-.035,4.8,4.8,0,0,1-3.077-.176,1.149,1.149,0,0,0,.279.3l.01.007.006.006a2.2,2.2,0,0,0,2.289.169,4.941,4.941,0,0,1,1.373-.27Z" transform="translate(-40.425 -16.791)" fill="#ce0037"/>
      <path id="패스_791887" data-name="패스 791887" d="M1704.116,3128.348c.267.445.7,1.034,1.245,1.034a1.239,1.239,0,0,0,1.156-.69.65.65,0,0,1-.356-.022.765.765,0,0,1-.445-.912.708.708,0,0,1,.879-.5.727.727,0,0,1,.322.2.77.77,0,0,1-.067-.567.928.928,0,0,1,.968-.634l-1.557,3.837h-5.138l-1.568-3.659a.922.922,0,0,1,.957.634.58.58,0,0,1-.066.49c.078-.089.2-.256.322-.3a.831.831,0,0,1,.923.6.675.675,0,0,1-.423.845,1.206,1.206,0,0,1-.445-.011,1.34,1.34,0,0,0,1.223.69c.545,0,.945-.59,1.212-1.034a.717.717,0,0,1-1.134-.59.722.722,0,0,1,.712-.734.662.662,0,0,1,.356.1.75.75,0,0,1-.222-.523.717.717,0,1,1,1.434,0,.789.789,0,0,1-.233.534.705.705,0,0,1,.367-.111.721.721,0,0,1,.712.734.712.712,0,0,1-.712.723,1.314,1.314,0,0,1-.422-.134Z" transform="translate(-44.698 -7.182)" fill="#e8b91e" fill-rule="evenodd"/>
      <path id="패스_791888" data-name="패스 791888" d="M1699.909,3135.794a1.464,1.464,0,0,0-.227,0,.379.379,0,0,1-.389.367.392.392,0,0,1-.39-.3,1.271,1.271,0,0,1-.212-.042.655.655,0,0,0,.506.562.592.592,0,0,0,.66-.467v0a1.125,1.125,0,0,1,.051-.12Zm-.74-.955a.742.742,0,0,0-.15.154l-.011.016-.015.014a1.9,1.9,0,0,0-.3.37,1,1,0,0,0,.719.026l.016,0a1.513,1.513,0,0,1,.984.111,1.054,1.054,0,0,1,.4.276l-.3.273s-.2-.222-.27-.023h0a.99.99,0,0,1-1.118.731,1.136,1.136,0,0,1-.865-1.148c-.3-.178-1.821-.945-2.494,1.234a1.856,1.856,0,0,1,1.971-.07l.024.02.014.019a1.927,1.927,0,0,0,1.016.677h0c1.016.271,1.047.524,1.078.779,0,.023.005.046.008.06l.014.064-.026.06s-.159.372-1.082.952h0a1.917,1.917,0,0,1-1.979.167c.106.275.4.637,1.242.625h.015a3.158,3.158,0,0,0,.533-.01l1.378-.148-1.273.549a1.921,1.921,0,0,0-1.152,2.124,2.932,2.932,0,0,1,1.207-.752l.637-.159-.427.5a2.833,2.833,0,0,0,.308,3.978,3.832,3.832,0,0,1,.824-2.407l.253-.21.083.319a9.056,9.056,0,0,1,.3,2.613,4.322,4.322,0,0,1-.156.935c.746-.144,2.414-.783,1.744-3.6l-.09-.376.364.13a1.951,1.951,0,0,1,1.188,1.975c.656-.477,1.914-1.75.556-3.866l-.211-.329.389.006a1.7,1.7,0,0,1,1.436.97,3.4,3.4,0,0,0-1.166-3.94l-.3-.267.391-.094a1.8,1.8,0,0,1,1.208.174,3.047,3.047,0,0,0-1.545-1.908l0,0-.013-.007a2.613,2.613,0,0,1-1.168.574l-.086-.41a3.084,3.084,0,0,0,1.9-1.892,2.983,2.983,0,0,0-2.141,1.072l-.326-.263a3.345,3.345,0,0,1,2.767-1.211l.234.027-.054.229a3.966,3.966,0,0,1-.817,1.568,3.568,3.568,0,0,1,1.779,2.8l.039.765-.423-.639a1.087,1.087,0,0,0-.811-.486,3.694,3.694,0,0,1,.684,4.552l-.258.41-.121-.469a1.446,1.446,0,0,0-.783-1.025,3.027,3.027,0,0,1-1.311,4.25l-.364.187.062-.405a1.766,1.766,0,0,0-.5-1.724c.6,3.621-2.564,3.688-2.573,3.688l-.383.013.2-.329a3.03,3.03,0,0,0,.249-1.1v-.008l0-.015a6.993,6.993,0,0,0-.19-2.057,5.63,5.63,0,0,0-.449,2.243l0,.446-.341-.286c-1.957-1.641-1.554-3.315-1.1-4.208a3.8,3.8,0,0,0-.613.569l-.232.276-.125-.339a2.164,2.164,0,0,1,.638-2.577c-1.625-.058-1.563-1.358-1.563-1.362l.011-.276.263.085.246.082a1.648,1.648,0,0,0,1.711-.092l0,0a3.177,3.177,0,0,0,.894-.719l0-.013c-.013-.113-.027-.226-.766-.423h0a2.389,2.389,0,0,1-1.235-.813c-.67-.508-1.892.367-1.9.369l-.436.307.111-.522c.406-1.918,1.294-2.361,2.048-2.348a2.545,2.545,0,0,1,1.053.28,2.423,2.423,0,0,1,.256-.356Z" transform="translate(-42.186 -11.987)" fill="#e5e5e6"/>
      <path id="패스_791889" data-name="패스 791889" d="M1692.119,3187.206h-6.7l-3.51,8.707.011-8.719h-4.506v11.7h7.883l.708-1.779h5.624l.808,1.779h4.4l-4.716-11.688Zm-19.982,6.283-4.76-6.294h-5.713v8.685l-3.587-8.674h-6.609l-2.768,6.95h-4.129a2.352,2.352,0,0,1-2.557,2.1,2.754,2.754,0,0,1-2.746-3.047c0-2.369.93-3.592,2.712-3.592a2.277,2.277,0,0,1,2.546,2.024h4.683l.011-.178c0-2.825-2.845-4.682-7.174-4.682-4.628,0-6.82,1.813-7.2,5.972a4.425,4.425,0,0,0-2.568-1.357l-1.749-.156-2.579-.045c-1.107-.022-1.738-.411-1.738-1.067,0-.746.642-1.157,1.815-1.157,1.351,0,1.893.5,1.893,1.735h4.926v-.156c0-2.413-2.325-3.748-6.543-3.748-4.683,0-6.974,1.29-6.974,3.9,0,2.235,1.683,3.436,4.9,3.525l1.915.045c1.406.044,2.037.389,2.037,1.134,0,.634-.885,1.234-1.8,1.234-1.605,0-2.447-.556-2.447-1.6h-5.1v.111c0,2.536,2.546,3.926,7.174,3.926,4.461,0,6.654-.979,7.362-3.3,1.428,2.447,3.288,3.337,6.908,3.337a7.282,7.282,0,0,0,4.993-1.412l-.476,1.19h4.351l.8-1.824h5.712l.764,1.8h7.461v-6.929l5.3,6.951h5.281v-11.688h-4.329v6.283Zm15.078.689,1.539-3.87,1.749,3.848-3.288.022Zm-34.076,0,1.55-3.992,1.771,3.992Z" transform="translate(0 -41.83)" fill="#002968" fill-rule="evenodd"/>
    </g>
  </g>
</svg>
