<svg xmlns="http://www.w3.org/2000/svg" width="100" height="100" viewBox="0 0 100 100">
  <g id="car_logo_daihatsu" transform="translate(-219 -155)">
    <g id="W_100_H_100" data-name="W 100 H 100" transform="translate(219 155)" fill="#f9f9f9" stroke="#f0f0f0" stroke-width="1" opacity="0">
      <rect width="100" height="100" stroke="none"/>
      <rect x="0.5" y="0.5" width="99" height="99" fill="none"/>
    </g>
    <g id="daihatsu" transform="translate(171 -38.392)">
      <g id="그룹_398272" data-name="그룹 398272" transform="translate(65 260.065)">
        <path id="path14" d="M101.681,302.6h.017l.017,0,.017,0,.009,0,.017,0,.017-.005.017,0,.009-.006.017-.007.009-.008.017-.009.008-.008.017-.01.009-.01.009-.01.017-.012.009-.012.009-.013.008-.013.009-.013.009-.014.009-.015.008-.015v-.015l.009-.017.009-.015v-.016l.009-.017v-9.492a.328.328,0,0,0-.309-.344H100a.328.328,0,0,0-.309.344v9.423a.327.327,0,0,0,.309.345Z" transform="translate(-79.672 -292.38)" fill="red"/>
        <path id="path16" d="M116.264,292.491h-1.615a.328.328,0,0,0-.309.344v3.922H110.93v-3.922a.327.327,0,0,0-.3-.344h-1.624a.334.334,0,0,0-.309.344v9.423a.333.333,0,0,0,.309.345h1.624a.326.326,0,0,0,.3-.345v-4.419h3.411v4.419a.327.327,0,0,0,.309.345h1.615a.327.327,0,0,0,.309-.345v-9.423A.328.328,0,0,0,116.264,292.491Z" transform="translate(-83.501 -292.38)" fill="red"/>
        <path id="path18" d="M65.3,292.49a.322.322,0,0,0-.3.344v9.419a.322.322,0,0,0,.3.343h3.973c2.346,0,4.188-1.439,4.188-5.064,0-3.57-1.816-5.043-4.145-5.043Zm1.933,1.095h1.5c1.822,0,2.405,1.21,2.405,3.948,0,2.767-.546,3.991-2.405,3.991h-1.5Z" transform="translate(-65 -292.379)" fill="red"/>
        <path id="path22" d="M84.981,292.49a.29.29,0,0,0-.237.193l-3.285,9.742c-.034.1.017.172.107.172h.988a.268.268,0,0,0,.236-.172l.816-2.489h3.543l.752,2.317a.515.515,0,0,0,.429.343h1.8c.163,0,.254-.134.193-.322l-3.285-9.441a.466.466,0,0,0-.408-.344Zm.386,2.017,1.418,4.356H83.95Z" transform="translate(-71.88 -292.379)" fill="red"/>
        <path id="path26" d="M128.3,292.49a.287.287,0,0,0-.237.172l-3.264,9.763c-.034.1,0,.172.086.172h1.01a.274.274,0,0,0,.236-.172l.816-2.489h3.543l.752,2.317a.505.505,0,0,0,.429.343h1.782c.163,0,.262-.152.193-.343l-3.264-9.419a.5.5,0,0,0-.43-.344Zm.408,2.017,1.418,4.356H127.29Z" transform="translate(-90.32 -292.379)" fill="red"/>
        <path id="path30" d="M146.486,292.506h-7.56a.173.173,0,0,0-.163.18v.729a.175.175,0,0,0,.163.189h2.689v8.659a.327.327,0,0,0,.309.345h1.632a.327.327,0,0,0,.309-.345V293.6h2.62a.185.185,0,0,0,.189-.189v-.729A.184.184,0,0,0,146.486,292.506Z" transform="translate(-96.232 -292.386)" fill="red"/>
        <path id="path32" d="M172.71,299.276v-6.59a.174.174,0,0,1,.172-.18h.979a.168.168,0,0,1,.163.18v6.268c0,.577.009.761-.017,1.113-.12,2-1.409,2.646-3.471,2.646-2.448,0-3.59-1.384-3.814-2.632a7.362,7.362,0,0,1-.095-1.409v-5.823a.322.322,0,0,1,.309-.343h1.615a.322.322,0,0,1,.309.343v6.571a3.583,3.583,0,0,0,.051.842,1.714,1.714,0,0,0,1.907,1.448,1.665,1.665,0,0,0,1.89-1.669Z" transform="translate(-108.025 -292.386)" fill="red"/>
        <path id="path34" d="M158.575,293.982h.017v.008h.069l.009-.008h.009v-.009h.009v-.009h.009v-.009l.008-.009h0l.009-.008v-.017l.009-.009V293.9l.009-.009v-.91c0-.12-.052-.163-.155-.215a3.312,3.312,0,0,0-.7-.257,6.673,6.673,0,0,0-1.615-.206,2.891,2.891,0,0,0-2.6,1.064,2.578,2.578,0,0,0-.438,2.043c.232,1.3,1.271,2.094,2.319,2.879.816.614,1.607,1.085,1.864,1.874a1.092,1.092,0,0,1-.206,1.076,1.581,1.581,0,0,1-1.186.383,5.368,5.368,0,0,1-2.233-.517c-.146-.074-.318-.158-.318-.158-.085-.037-.154.014-.154.111v.909a.252.252,0,0,0,.163.225s.112.046.223.083a7.173,7.173,0,0,0,2.337.355,3.336,3.336,0,0,0,2.663-1,2.642,2.642,0,0,0,.532-2.276c-.283-1.5-1.537-2.318-2.543-3.021-.756-.532-1.512-1.056-1.71-1.656a.994.994,0,0,1,.163-.919,1.524,1.524,0,0,1,1.22-.464,3.652,3.652,0,0,1,1.615.369A5.4,5.4,0,0,1,158.575,293.982Z" transform="translate(-102.395 -292.3)" fill="red"/>
      </g>
      <path id="polygon36" d="M65,255.009h66V216.392H65Z" transform="translate(0)" fill="red"/>
      <path id="path38" d="M88.179,234.681h1.2l1.225.017,2.521.034,2.6.087,2.656.1,2.691.14,2.7.191,2.7.209,2.668.262,2.62.3,2.549.331,1.241.174,1.216.209,1.187.191,1.156.226,1.123.227,1.087.244,1.049.244,1.005.279.963.279.916.279.865.314.814.314c.783.314,1.4.592,1.4,1.167,0,.8-1.721,1.358-3.307,1.864-6.225,1.96-17.343,4.238-33.623,5.409l-15.1-15.217c-1.464.035-2.685.087-3.591.156l15.6,15.721-4.233,6.226c25.212-4.021,36.614-8.044,41.677-10.39,1.085-.5,4.2-1.906,4.2-3.769,0-1.115-1.053-1.795-2.416-2.387-5.2-2.248-13.933-3.746-22.566-4.495-8.945-.889-20.858-1.133-27.44-1.063l14.054,14.163c2.768-.2,5.379-.436,7.851-.7Z" transform="translate(-3.227 -6.897)" fill="#fff"/>
    </g>
  </g>
</svg>
