<svg xmlns="http://www.w3.org/2000/svg" xmlns:xlink="http://www.w3.org/1999/xlink" width="100" height="100" viewBox="0 0 100 100">
  <defs>
    <clipPath id="clip-path">
      <rect id="사각형_301580" data-name="사각형 301580" width="56" height="53.455" fill="none"/>
    </clipPath>
  </defs>
  <g id="car_logo_acura" transform="translate(-225 -160)">
    <g id="W_100_H_100" data-name="W 100 H 100" transform="translate(225 160)" fill="#f9f9f9" stroke="#f0f0f0" stroke-width="1" opacity="0">
      <rect width="100" height="100" stroke="none"/>
      <rect x="0.5" y="0.5" width="99" height="99" fill="none"/>
    </g>
    <g id="acura" transform="translate(234.5 170.364)">
      <g id="그룹_393537" data-name="그룹 393537" transform="translate(12.5 13.636)" clip-path="url(#clip-path)">
        <path id="패스_793010" data-name="패스 793010" d="M48.229,66.529C61.182,64.462,68.5,56.563,68.5,40.373s-7.318-24.1-20.271-26.165a48.765,48.765,0,0,0-7.729-.571,48.79,48.79,0,0,0-7.73.571C19.827,16.275,12.5,24.174,12.5,40.373s7.327,24.089,20.27,26.156a48.829,48.829,0,0,0,7.73.562,48.8,48.8,0,0,0,7.729-.562m0-50.291c9.153,1.975,16.649,8.225,16.649,24.135,0,12.092-4.332,18.6-10.434,21.889L51,39.119l-2.771-7.8-5.6-15.789a34.668,34.668,0,0,1,5.6.711Zm-8.786-.758c.355-.009.7-.019,1.057-.019s.7.01,1.057.019l.309,19.288H39.134ZM16.121,40.373c0-15.908,7.5-22.16,16.649-24.135a34.7,34.7,0,0,1,5.606-.711L32.77,31.314,30,39.119,26.556,62.262c-6.1-3.294-10.435-9.8-10.435-21.889M32.77,64.5a24.386,24.386,0,0,1-5.616-1.919L32.77,50.929,38.852,38.3h3.294l6.083,12.625L53.845,62.58A24.386,24.386,0,0,1,48.229,64.5a39.323,39.323,0,0,1-15.459,0" transform="translate(-12.5 -13.636)" fill-rule="evenodd"/>
      </g>
    </g>
  </g>
</svg>
