<svg xmlns="http://www.w3.org/2000/svg" width="100" height="100"><defs><clipPath id="a"><path data-name="사각형 301577" fill="none" d="M0 0h60v38.647H0z"/></clipPath></defs><g data-name="그룹 393531" transform="translate(20 31.001)" clip-path="url(#a)"><path data-name="패스 792993" d="M8.185 16.94c.151.455.683.38 1.061.531a95.609 95.609 0 0010.462.455l15.086-.151 10.462-.228 5.231-.531c.455-.152 1.061-.077 1.288-.531a6.352 6.352 0 00-.909-.607c-.454-.454-.985 0-1.364.228-3.639 1.137-7.808 1.061-11.674 1.289l-16.376.152-7.429-.3a12.066 12.066 0 01-4.4-1.061 3.3 3.3 0 00-1.44.758" fill="#fff"/><path data-name="패스 792994" d="M50.563 6.251a28.351 28.351 0 00-15.01-5.155c-.076.076-.228-.076-.151.152 6.443 1.516 12.811 3.866 17.209 9.7.985 1.592 2.2 3.26 2.123 5.307a2.773 2.773 0 01-2.123 1.743c-3.109.455-6.444.455-9.628.607l-23.729.227-8.414-.076c-1.744-.076-3.79.076-5.156-1.061a1.85 1.85 0 01-.606-1.517c.91-4.321 4.473-8.187 8.339-10.462a39.255 39.255 0 0110.766-4.4.074.074 0 00-.077-.076 27.859 27.859 0 00-12.962 4.176C5.837 8.676.758 14.058 1.365 20.654h.149a17.34 17.34 0 012.8-8.111c.532-.606.986-1.441 1.744-1.744.076.077.152.152.152.228a14.243 14.243 0 00-2.73 10.917c2.123 9.4 12.206 14.177 20.848 15.541l.152-.152c-5.606-1.517-11.136-3.411-15.536-7.808-1.972-2.35-3.942-4.7-3.715-7.884 1.212-2.578 4.624-1.517 6.9-1.971l11.674-.077 14.329-.228h12.052c1.591 0 3.184 0 4.246 1.138a2.572 2.572 0 01.3 2.349c-1.82 6.6-8.794 11.069-14.707 12.964-1.441.605-2.881.909-4.321 1.44a24.273 24.273 0 004.776-.985c7.126-2.123 15.768-8.037 16.223-16.3a15.668 15.668 0 00-3.106-9.555c0-.228.228-.152.3-.152a14.161 14.161 0 014.473 9.552l.228.228v-.076c.379-5.687-3.335-10.462-8.036-13.722" fill="#fff"/><path data-name="패스 792995" d="M37.069.11c-1.441-.076-3.336-.454-4.246.835-.228.454.151.909.531 1.212 4.7 1.44 9.325 3.033 13.115 6.519 1.364 1.669 2.957 3.412 2.274 5.61-1.44 2.2-4.321 1.669-6.746 2.047l-13.647.38-13.343-.228a5.21 5.21 0 01-3.866-1.669c-.606-1.212 0-2.577.531-3.563 3.487-5.155 9.173-7.2 14.48-8.945.38-.228.758-.683.606-1.138A1.982 1.982 0 0024.712.109a30.825 30.825 0 00-12.661 3.412C5.683 6.857-.761 13.221.074 21.033c1.592 9.7 11.826 15.618 20.544 17.21 1.972.151 4.322.909 6.141-.152a.945.945 0 00.3-.985 1.657 1.657 0 00-.758-.683c-4.549-1.364-8.945-3.033-12.66-6.368-1.44-1.592-2.88-3.26-2.5-5.458a2.984 2.984 0 011.289-1.44c2.729-.986 5.913-.683 8.87-.91l10.841-.3 9.324.152c2.578.379 5.838-.531 7.353 1.894.532 1.213-.076 2.5-.682 3.564-3.487 5.079-9.022 7.05-14.252 8.794a1.088 1.088 0 00-.758 1.212c.985 1.592 3.335.758 4.927.683 8.567-1.289 17.74-6.216 21.227-14.935a13.08 13.08 0 00-1.97-12.132C52.31 4.356 44.952 1.096 37.068.11M14.022 17.243l7.429.3 16.376-.152c3.866-.228 8.035-.152 11.674-1.289.38-.228.91-.682 1.364-.228a6.352 6.352 0 01.909.607c-.227.454-.834.379-1.288.531l-5.231.531-10.461.236-15.086.151a95.609 95.609 0 01-10.462-.455c-.38-.151-.909-.076-1.061-.531a3.3 3.3 0 011.44-.765 12.066 12.066 0 004.4 1.061M58.6 19.973v.076l-.228-.228a14.161 14.161 0 00-4.472-9.553c-.076 0-.3-.076-.3.152a15.666 15.666 0 013.1 9.553c-.455 8.262-9.1 14.177-16.223 16.3a24.273 24.273 0 01-4.776.985c1.44-.531 2.88-.834 4.321-1.441 5.913-1.894 12.888-6.367 14.707-12.963a2.572 2.572 0 00-.3-2.349c-1.061-1.138-2.654-1.138-4.246-1.138H38.13l-14.33.226-11.674.077c-2.275.454-5.687-.607-6.9 1.971-.226 3.183 1.745 5.538 3.717 7.883 4.4 4.4 9.931 6.292 15.541 7.808l-.152.152C15.69 36.12 5.607 31.343 3.484 21.943a14.243 14.243 0 012.73-10.917c0-.076-.077-.151-.152-.228-.758.3-1.212 1.138-1.744 1.744a17.352 17.352 0 00-2.8 8.111h-.157c-.606-6.6 4.473-11.978 9.78-15.238A27.871 27.871 0 0124.1 1.248a.074.074 0 01.077.076 39.255 39.255 0 00-10.766 4.4c-3.862 2.27-7.424 6.136-8.335 10.455a1.85 1.85 0 00.606 1.517c1.366 1.137 3.412.986 5.156 1.061l8.414.076 23.729-.227c3.184-.152 6.519-.152 9.628-.607a2.773 2.773 0 002.123-1.743c.076-2.047-1.138-3.715-2.123-5.307-4.4-5.838-10.766-8.188-17.209-9.7-.077-.228.076-.077.151-.152a28.351 28.351 0 0115.01 5.155c4.7 3.26 8.414 8.036 8.036 13.722" fill="#000111"/></g></svg>