<svg xmlns="http://www.w3.org/2000/svg" width="100" height="100" viewBox="0 0 100 100">
  <g id="car_logo_cammsys" transform="translate(-219 -155)">
    <g id="W_100_H_100" data-name="W 100 H 100" transform="translate(219 155)" fill="#f9f9f9" stroke="#f0f0f0" stroke-width="1" opacity="0">
      <rect width="100" height="100" stroke="none"/>
      <rect x="0.5" y="0.5" width="99" height="99" fill="none"/>
    </g>
    <g id="cammsys" transform="translate(-1326.852 -937.178)">
      <g id="그룹_398341" data-name="그룹 398341" transform="translate(1555.853 1138.178)">
        <path id="패스_812087" data-name="패스 812087" d="M1613.888,1138.219h1.5c1.323,1.6,2.632,3.207,3.981,4.783.244.286.514,1.092,1.069.363,1.307-1.719,3.031-3.134,3.938-5.146h1.872a44.251,44.251,0,0,0,0,6.969h-1.872v-4.076c-1.2,1.392-2.777,2.365-3.37,4.076h-1.872a13.913,13.913,0,0,0-3.745-4.1v4.1h-1.5Z" transform="translate(-1592.542 -1138.204)" fill="#005087"/>
        <path id="패스_812088" data-name="패스 812088" d="M1662.21,1145.188h-1.873v-4.448c-1.279,1.711-2.7,2.8-3.37,4.448H1655.1c-.812-1.638-2.182-2.823-3.276-4.231l-.468.137v4.095h-1.5v-6.969h1.5l4.706,5.627,4.655-5.627h1.5Z" transform="translate(-1615.28 -1138.204)" fill="#005087"/>
        <path id="패스_812090" data-name="패스 812090" d="M1745.759,1145.188c.073-.8.443-1.127,1.328-1.094,1.863.072,3.731.026,5.6.016.751,0,1.575.063,1.547-1.055-.027-1.08-.842-1.049-1.593-1.062-1.43-.026-2.861,0-4.291-.041-1-.029-2.034-.073-2.394-1.29s.354-1.894,1.3-2.444h8.238c.029.874-.417,1.118-1.273,1.089-1.739-.058-3.481-.032-5.222,0-.584.009-1.372-.13-1.349.814s.842.732,1.4.757c1.179.052,2.362.015,3.543.024a4.25,4.25,0,0,1,3.277.988v3.3h-10.11Z" transform="translate(-1675.869 -1138.204)" fill="#005087"/>
        <path id="패스_812091" data-name="패스 812091" d="M1695.064,1138.219c.244.994-.337,1.1-1.139,1.082-1.678-.032-3.357-.025-5.035,0-.643.01-1.546-.17-1.515.845.027.877.865.715,1.446.733,1.491.046,2.987-.022,4.472.079.966.066,2.056.126,2.315,1.4a2.269,2.269,0,0,1-1.293,2.824H1685.7c-.184-.951.332-1.107,1.161-1.085,1.676.045,3.356.065,5.031-.009.8-.035,2.1.49,2.033-1.069-.066-1.455-1.309-.969-2.131-1.021-1.238-.079-2.484-.011-3.726-.048-.937-.028-1.984-.048-2.315-1.129a2.063,2.063,0,0,1,1.07-2.608Z" transform="translate(-1637.871 -1138.204)" fill="#005087"/>
        <path id="패스_812092" data-name="패스 812092" d="M1564.874,1138.193c.121.914-.352,1.119-1.2,1.088-1.483-.055-2.974.043-4.455-.032-1.3-.066-1.821.461-1.717,1.7a11.963,11.963,0,0,1,0,1.636c-.057,1.068.4,1.551,1.528,1.513,1.545-.051,3.1.029,4.641-.026.845-.03,1.319.172,1.2,1.087-2.664,0-5.328-.017-7.991.012-.659.007-1.08.061-1.026-.859a44.869,44.869,0,0,0,0-5.277c-.054-.92.367-.866,1.026-.859C1559.547,1138.21,1562.21,1138.193,1564.874,1138.193Z" transform="translate(-1555.853 -1138.178)" fill="#005087"/>
        <path id="패스_812097" data-name="패스 812097" d="M1591.031,1145.188c-1.168-1.58-2.354-3.149-3.5-4.747-.468-.655-.795-.806-1.322-.033-1.1,1.618-2.276,3.19-3.421,4.78h-1.872l5.242-6.969h1.5l4.868,6.969Z" transform="translate(-1571.525 -1138.204)" fill="#005087"/>
        <path id="패스_812099" data-name="패스 812099" d="M1718.658,1145.188a3.832,3.832,0,0,0-1.936-4.545,26.585,26.585,0,0,1-2.932-2.425h2.247c.71,1.162,1.99,1.715,2.928,2.634a.792.792,0,0,0,1.266,0c.93-.925,2.226-1.461,2.921-2.636h2.247a28.527,28.527,0,0,1-2.844,2.354,3.953,3.953,0,0,0-2.024,4.615Z" transform="translate(-1655.883 -1138.204)" fill="#005087"/>
        <path id="패스_812106" data-name="패스 812106" d="M1647.75,1138.219v6.969h-1.123a44.221,44.221,0,0,1,0-6.969Z" transform="translate(-1613.065 -1138.204)" fill="#f9fbfc"/>
      </g>
    </g>
  </g>
</svg>
