<svg xmlns="http://www.w3.org/2000/svg" xmlns:xlink="http://www.w3.org/1999/xlink" width="100" height="100" viewBox="0 0 100 100">
  <defs>
    <linearGradient id="linear-gradient" x1="0.5" y1="1" x2="0.5" gradientUnits="objectBoundingBox">
      <stop offset="0" stop-color="#666"/>
      <stop offset="0.5" stop-color="#8c8c8c"/>
      <stop offset="1" stop-color="#e6e6e6"/>
    </linearGradient>
    <linearGradient id="linear-gradient-2" x1="1" y1="0.5" x2="0" y2="0.5" gradientUnits="objectBoundingBox">
      <stop offset="0"/>
      <stop offset="0.35"/>
      <stop offset="0.6" stop-color="#ededed"/>
      <stop offset="1" stop-color="#ededed"/>
    </linearGradient>
    <linearGradient id="linear-gradient-3" x1="0.5" y1="1" x2="0.5" gradientUnits="objectBoundingBox">
      <stop offset="0"/>
      <stop offset="1" stop-color="#666"/>
    </linearGradient>
    <linearGradient id="linear-gradient-4" y1="0.5" x2="1" y2="0.5" gradientUnits="objectBoundingBox">
      <stop offset="0"/>
      <stop offset="0.15"/>
      <stop offset="0.5" stop-color="#ededed"/>
      <stop offset="1" stop-color="#ededed"/>
    </linearGradient>
    <linearGradient id="linear-gradient-5" x1="0.5" y1="1" x2="0.5" gradientUnits="objectBoundingBox">
      <stop offset="0"/>
      <stop offset="1" stop-color="gray"/>
    </linearGradient>
    <linearGradient id="linear-gradient-6" x1="0.106" y1="1.185" x2="0.894" y2="-0.185" gradientUnits="objectBoundingBox">
      <stop offset="0" stop-color="#666"/>
      <stop offset="1" stop-color="#e6e6e6"/>
    </linearGradient>
    <linearGradient id="linear-gradient-7" x1="0.5" y1="1" x2="0.5" gradientUnits="objectBoundingBox">
      <stop offset="0"/>
      <stop offset="1" stop-color="#4d4d4d"/>
    </linearGradient>
    <linearGradient id="linear-gradient-8" y1="0.5" x2="1" y2="0.5" gradientUnits="objectBoundingBox">
      <stop offset="0" stop-color="#ededed"/>
      <stop offset="1" stop-color="#ccc"/>
    </linearGradient>
    <linearGradient id="linear-gradient-9" x1="0.513" y1="0.529" x2="0.45" y2="0.471" gradientUnits="objectBoundingBox">
      <stop offset="0" stop-color="#4d4d4d"/>
      <stop offset="1"/>
    </linearGradient>
    <linearGradient id="linear-gradient-10" x1="0.5" x2="0.5" y2="1" gradientUnits="objectBoundingBox">
      <stop offset="0" stop-color="#ededed"/>
      <stop offset="1" stop-color="#d9d9d9"/>
    </linearGradient>
    <linearGradient id="linear-gradient-11" x1="0.531" y1="0.528" x2="0.469" y2="0.472" xlink:href="#linear-gradient-7"/>
    <linearGradient id="linear-gradient-12" x1="0.469" y1="0.528" x2="0.531" y2="0.472" xlink:href="#linear-gradient-7"/>
    <linearGradient id="linear-gradient-13" x1="0.5" x2="0.5" y2="1" gradientUnits="objectBoundingBox">
      <stop offset="0"/>
      <stop offset="1" stop-color="#ededed"/>
    </linearGradient>
    <linearGradient id="linear-gradient-15" x1="0" y1="0.5" x2="1" y2="0.5" xlink:href="#linear-gradient-7"/>
    <linearGradient id="linear-gradient-16" x1="0.5" y1="1" x2="0.5" gradientUnits="objectBoundingBox">
      <stop offset="0" stop-color="#bfbfbf"/>
      <stop offset="1" stop-color="#e6e6e6"/>
    </linearGradient>
    <linearGradient id="linear-gradient-17" x1="1" y1="0.5" x2="0" y2="0.5" xlink:href="#linear-gradient-13"/>
    <linearGradient id="linear-gradient-18" x1="0.485" y1="0.5" x2="0.53" y2="0.519" xlink:href="#linear-gradient-7"/>
    <linearGradient id="linear-gradient-19" x1="0" y1="0.5" x2="1" y2="0.5" xlink:href="#linear-gradient-10"/>
    <linearGradient id="linear-gradient-22" x1="0.346" y1="0.438" x2="0.654" y2="0.562" xlink:href="#linear-gradient-9"/>
    <linearGradient id="linear-gradient-24" x1="0.346" y1="0.562" x2="0.654" y2="0.438" xlink:href="#linear-gradient-7"/>
    <linearGradient id="linear-gradient-27" x1="1" y1="0.5" x2="0" y2="0.5" xlink:href="#linear-gradient-6"/>
    <linearGradient id="linear-gradient-29" y1="0.5" x2="1" y2="0.5" gradientUnits="objectBoundingBox">
      <stop offset="0" stop-color="#ededed"/>
      <stop offset="1" stop-color="#bfbfbf"/>
    </linearGradient>
    <linearGradient id="linear-gradient-33" x1="0.478" y1="0.524" x2="0.506" y2="0.476" xlink:href="#linear-gradient-7"/>
  </defs>
  <g id="car_logo_man" transform="translate(-219 -155)">
    <g id="W_100_H_100" data-name="W 100 H 100" transform="translate(219 155)" fill="#f9f9f9" stroke="#f0f0f0" stroke-width="1" opacity="0">
      <rect width="100" height="100" stroke="none"/>
      <rect x="0.5" y="0.5" width="99" height="99" fill="none"/>
    </g>
    <g id="man" transform="translate(-16.698 -32.234)">
      <path id="패스_804315" data-name="패스 804315" d="M256.326,255.234a29.578,29.578,0,1,1,58.743,0h3.444a33,33,0,1,0-65.633,0Z" transform="translate(0 0)" fill="url(#linear-gradient)"/>
      <path id="패스_804316" data-name="패스 804316" d="M255.46,256.674c-.085-.946-.129-1.909-.129-2.875a32.407,32.407,0,0,1,64.807,0c0,.967-.044,1.928-.129,2.875h-2.249q.138-1.419.139-2.875a30.167,30.167,0,0,0-60.328,0q0,1.456.139,2.875Z" transform="translate(-2.036 -2.037)" fill="none"/>
      <path id="패스_804317" data-name="패스 804317" d="M265.806,264.718a29.235,29.235,0,0,1-.175-3.2,29.818,29.818,0,0,1,59.628,0,29.137,29.137,0,0,1-.175,3.2l.365-.324q.138-1.417.139-2.871a30.147,30.147,0,0,0-60.287,0q0,1.454.139,2.871l.365.324Z" transform="translate(-9.747 -9.748)" fill="url(#linear-gradient-2)"/>
      <path id="패스_804318" data-name="패스 804318" d="M254.569,379.491l.3-.332h2.27l.369.332Z" transform="translate(-1.447 -124.521)" fill="url(#linear-gradient-3)"/>
      <path id="패스_804319" data-name="패스 804319" d="M319.177,255.871c.1-1.052.159-2.123.159-3.2a32.739,32.739,0,0,0-65.472,0c0,1.077.053,2.15.158,3.2l.3-.325c-.085-.947-.129-1.91-.129-2.877a32.41,32.41,0,0,1,64.813,0c0,.968-.044,1.929-.129,2.877l.3.325Z" transform="translate(-0.902 -0.902)" fill="url(#linear-gradient-4)"/>
      <path id="패스_804320" data-name="패스 804320" d="M531.724,379.49l.365-.332h2.27l.3.332Z" transform="translate(-216.388 -124.521)" fill="url(#linear-gradient-5)"/>
      <path id="패스_804321" data-name="패스 804321" d="M288.568,340.545l3.458-3.458h4.9v10.131H291.7V343.2l-3.136,3.136-3.136-3.136v4.021h-5.226V337.088h4.9l3.457,3.458Z" transform="translate(-21.274 -91.985)" fill="#b5b5b5"/>
      <path id="패스_804322" data-name="패스 804322" d="M290.612,343.436l-3.705-3.706h-4.058v8.933h4.028V343.8l3.735,3.735,3.735-3.735v4.867h4.028V339.73h-4.057l-3.706,3.706Z" transform="translate(-23.317 -94.029)" fill="url(#linear-gradient-6)"/>
      <path id="패스_804323" data-name="패스 804323" d="M332.116,379.479l.332-.332h4.028l.332.332Z" transform="translate(-61.593 -124.512)" fill="url(#linear-gradient-7)"/>
      <path id="패스_804324" data-name="패스 804324" d="M281.382,338.264l.332.332h4.058l.138-.332Z" transform="translate(-22.183 -92.675)" fill="#fff"/>
      <path id="패스_804325" data-name="패스 804325" d="M300.891,338.264l-.138.332,3.705,3.706v-.47l-3.568-3.568Z" transform="translate(-37.268 -92.745)" fill="url(#linear-gradient-8)"/>
      <path id="패스_804326" data-name="패스 804326" d="M317.1,341.832v.47l3.706-3.706-.138-.332-3.568,3.568Z" transform="translate(-49.947 -92.745)" fill="url(#linear-gradient-9)"/>
      <path id="패스_804327" data-name="패스 804327" d="M337.374,338.264l-.332.332h-4.057l-.138-.332Z" transform="translate(-62.159 -92.675)" fill="#fff"/>
      <path id="패스_804328" data-name="패스 804328" d="M351.689,338.264l-.332.332v8.933l.332.332v-9.6Z" transform="translate(-76.501 -92.895)" fill="url(#linear-gradient-10)"/>
      <path id="패스_804329" data-name="패스 804329" d="M332.116,362.87l.332-.332V357.67l-.332.8v4.4Z" transform="translate(-61.582 -107.903)"/>
      <path id="패스_804330" data-name="패스 804330" d="M317.1,361.875v-.47l3.735-3.735-.332.8-3.4,3.4Z" transform="translate(-49.947 -107.903)" fill="url(#linear-gradient-11)"/>
      <path id="패스_804331" data-name="패스 804331" d="M304.357,361.875v-.47l-3.735-3.735.333.8,3.4,3.4Z" transform="translate(-37.166 -107.903)" fill="url(#linear-gradient-12)"/>
      <path id="패스_804332" data-name="패스 804332" d="M300.955,362.87l-.333-.332V357.67l.333.8v4.4Z" transform="translate(-37.063 -107.903)" fill="url(#linear-gradient-13)"/>
      <path id="패스_804333" data-name="패스 804333" d="M286.075,379.479l-.333-.332h-4.028l-.332.332Z" transform="translate(-22.183 -124.512)" fill="url(#linear-gradient-7)"/>
      <path id="패스_804334" data-name="패스 804334" d="M281.382,338.264l.332.332v8.933l-.332.332v-9.6Z" transform="translate(-22.183 -92.895)" fill="url(#linear-gradient-15)"/>
      <g id="그룹_398273" data-name="그룹 398273" transform="translate(276.334 245.095)">
        <path id="패스_804335" data-name="패스 804335" d="M370.462,337.053l6.6,10.139h-5.391l-.734-1.135h-6.5l-.734,1.135h-5.392l6.6-10.139Zm-1.246,6.32-1.53-2.365-1.53,2.365Z" transform="translate(-358.311 -337.053)" fill="#b5b5b5" fill-rule="evenodd"/>
        <path id="패스_804336" data-name="패스 804336" d="M368.989,339.685l-5.822,8.946h3.967l.734-1.135h7.148l.734,1.135h3.966l-5.822-8.946Zm2.453,2.261L374.065,346h-5.248l2.624-4.055Z" transform="translate(-362.066 -339.089)" fill="url(#linear-gradient-16)"/>
        <path id="패스_804337" data-name="패스 804337" d="M390.723,349.66v.612l-2.013,3.111-.611.332,2.624-4.055Z" transform="translate(-381.348 -346.803)" fill="url(#linear-gradient-17)"/>
        <path id="패스_804338" data-name="패스 804338" d="M366.717,338.219l.18.332-5.822,8.946-.613.332,6.255-9.611Z" transform="translate(-359.974 -337.955)" fill="url(#linear-gradient-18)"/>
        <path id="패스_804339" data-name="패스 804339" d="M393.347,366.42l-.611-.332h-4.026l-.611.332Z" transform="translate(-381.348 -359.508)" fill="url(#linear-gradient-19)"/>
        <path id="패스_804340" data-name="패스 804340" d="M402.3,353.715l-.611-.332-2.013-3.111v-.612l2.624,4.055Z" transform="translate(-390.302 -346.803)" fill="url(#linear-gradient-15)"/>
        <path id="패스_804341" data-name="패스 804341" d="M365.222,379.491l-.181-.332h-3.967l-.613.332Z" transform="translate(-359.974 -369.616)" fill="url(#linear-gradient-7)"/>
        <path id="패스_804342" data-name="패스 804342" d="M380.85,375.618l-.181-.332.734-1.135.181.333-.734,1.134Z" transform="translate(-375.602 -365.743)" fill="url(#linear-gradient-22)"/>
        <path id="패스_804343" data-name="패스 804343" d="M390.874,374.483l.181-.333h-7.148l.181.333Z" transform="translate(-378.106 -365.743)" fill="url(#linear-gradient-7)"/>
        <path id="패스_804344" data-name="패스 804344" d="M414.648,374.483l.181-.333.734,1.135-.181.332-.734-1.134Z" transform="translate(-401.88 -365.743)" fill="url(#linear-gradient-24)"/>
        <path id="패스_804345" data-name="패스 804345" d="M422.646,379.491l-.613-.332h-3.967l-.181.332Z" transform="translate(-404.384 -369.616)" fill="url(#linear-gradient-7)"/>
        <path id="패스_804346" data-name="패스 804346" d="M416.932,347.83l-.613-.332-5.822-8.946.181-.332,6.254,9.611Z" transform="translate(-398.67 -337.955)" fill="url(#linear-gradient-19)"/>
        <path id="패스_804347" data-name="패스 804347" d="M388.06,338.219l.18.332h4.9l.181-.332Z" transform="translate(-381.318 -337.955)" fill="#fff"/>
      </g>
      <g id="그룹_398274" data-name="그룹 398274" transform="translate(295.725 245.103)">
        <path id="패스_804348" data-name="패스 804348" d="M456.61,337.088h5.226v10.131H456.61l-6.191-4.583v4.583h-5.227V337.088h5.187l6.232,4.623v-4.623Z" transform="translate(-445.192 -337.088)" fill="#b5b5b5"/>
        <path id="패스_804349" data-name="패스 804349" d="M459.255,339.73v5.215l-7.029-5.215h-4.389v8.933h4.029V343.49l6.988,5.173h4.43V339.73Z" transform="translate(-447.238 -339.132)" fill="url(#linear-gradient-27)"/>
        <path id="패스_804350" data-name="패스 804350" d="M446.37,338.264l.332.332v8.933l-.332.332v-9.6Z" transform="translate(-446.103 -337.997)" fill="url(#linear-gradient-15)"/>
        <path id="패스_804351" data-name="패스 804351" d="M446.37,338.264l.332.332h4.389l.11-.332Z" transform="translate(-446.103 -337.997)" fill="#fff"/>
        <path id="패스_804352" data-name="패스 804352" d="M473.9,343.15l.332.661L467.2,338.6l.11-.332,6.586,4.886Z" transform="translate(-462.214 -337.997)" fill="url(#linear-gradient-29)"/>
        <path id="패스_804353" data-name="패스 804353" d="M496.749,343.15l.332.661V338.6l-.332-.332v4.886Z" transform="translate(-485.064 -337.997)" fill="url(#linear-gradient-15)"/>
        <path id="패스_804354" data-name="패스 804354" d="M501.442,338.264l-.332.332h-4.028l-.332-.332Z" transform="translate(-485.064 -337.997)" fill="#fff"/>
        <path id="패스_804355" data-name="패스 804355" d="M516.322,338.264l-.332.332v8.933l.332.332v-9.6Z" transform="translate(-499.944 -337.997)" fill="url(#linear-gradient-19)"/>
        <path id="패스_804356" data-name="패스 804356" d="M495.96,379.479l.11-.332h4.43l.332.332Z" transform="translate(-484.454 -369.615)" fill="url(#linear-gradient-7)"/>
        <path id="패스_804357" data-name="패스 804357" d="M472.49,361.826l.11-.332-6.988-5.173.332.66,6.546,4.846Z" transform="translate(-460.984 -351.962)" fill="url(#linear-gradient-33)"/>
        <path id="패스_804358" data-name="패스 804358" d="M465.944,361.826l-.332-.332V356.32l.332.66v4.846Z" transform="translate(-460.984 -351.962)" fill="url(#linear-gradient-13)"/>
        <path id="패스_804359" data-name="패스 804359" d="M451.063,379.479l-.332-.332H446.7l-.332.332Z" transform="translate(-446.103 -369.615)" fill="url(#linear-gradient-7)"/>
      </g>
    </g>
  </g>
</svg>
