<svg xmlns="http://www.w3.org/2000/svg" width="100" height="100"><defs><clipPath id="a"><path data-name="사각형 299580" fill="none" d="M0 0h56v56.001H0z"/></clipPath></defs><g data-name="그룹 390828" clip-path="url(#a)" transform="translate(22 22)"><path data-name="패스 789231" d="M27.164 0H29.2a28.533 28.533 0 0112.032 3.283 28.092 28.092 0 0113.534 16.3 26.973 26.973 0 011.137 5.69 44.79 44.79 0 01.077 4.557 27.608 27.608 0 01-3.68 12.186A27.992 27.992 0 0129.18 56h-2.315a34 34 0 01-3.516-.383A27.949 27.949 0 01.062 29.14a11.962 11.962 0 01.011-2.5c-.018-.768.131-1.523.157-2.288l.057-.069A27.872 27.872 0 0111.667 5.25 28.166 28.166 0 0127.164 0m-1.657 2.709a6.641 6.641 0 01-.9.116c-.451.091-.909.139-1.359.236-.186.046-.374.081-.561.117-.153.041-.307.074-.462.108-.45.118-.9.223-1.342.383a9.361 9.361 0 01-.253.06c-.114.043-.228.086-.341.127l-.345.1-.177.118c.1.2.195.4.281.6.13.3.265.593.4.888.167.388.345.771.506 1.162.156.338.31.678.453 1.023.295.634.565 1.279.857 1.914 1.416 3.2 2.857 6.387 4.277 9.584.15.342.309.679.454 1.023s.307.681.457 1.022a2.534 2.534 0 00.587 1.013 2.141 2.141 0 00.536-.92c.172-.37.335-.743.5-1.117 1.542-3.461 3.1-6.918 4.637-10.382.15-.341.3-.681.454-1.022s.305-.682.454-1.023.3-.682.455-1.024l.492-1.117c.15-.342.306-.682.452-1.026.1-.208.19-.417.3-.621-.176-.067-.347-.145-.522-.211a11.75 11.75 0 01-.347-.115l-.253-.064c-.438-.156-.892-.256-1.34-.383a16.66 16.66 0 01-1.018-.231c-.455-.074-.913-.136-1.365-.23a6.371 6.371 0 01-.911-.116c-.567-.052-1.141-.021-1.705-.118-1.117-.058-2.23.075-3.344.119M15.46 5.964a26.816 26.816 0 00-8.7 8.283 3.1 3.1 0 00.321.773c.172.333.332.674.5 1.011.188.379.376.758.569 1.135 1.984 4.032 4.014 8.043 5.989 12.079.056.106.111.212.165.319.227.457.453.915.675 1.375q2.334 4.706 4.677 9.407a.411.411 0 00.427.273c.175-.323.331-.658.476-1 .125-.314.267-.621.4-.932.129-.3.253-.594.385-.89.133-.312.275-.619.4-.933.133-.294.261-.591.389-.888q1.489-3.42 3-6.833a.625.625 0 01.635-.4h4.557a.64.64 0 01.646.444c.991 2.262 1.989 4.52 2.971 6.786.13.3.258.594.392.889.128.313.268.622.4.931s.254.6.383.893c.294.631.524 1.294.871 1.9l.278.009c1.26-2.421 2.446-4.883 3.672-7.323 2.726-5.529 5.48-11.045 8.22-16.568.213-.4.392-.822.608-1.222a7.362 7.362 0 01.615-1.155c-.23-.281-.423-.586-.628-.883a26.563 26.563 0 00-8.13-7.48 1.172 1.172 0 00-.385-.157q-2.117 4.664-4.213 9.341c-.18.418-.377.827-.554 1.244-.133.3-.267.6-.405.89-.167.389-.344.774-.507 1.164q-.257.555-.5 1.114-1.443 3.225-2.9 6.442a3.586 3.586 0 01-.343.676.989.989 0 01-.721.2h-4.223a.7.7 0 01-.732-.4q-1.564-3.452-3.113-6.909-.247-.56-.5-1.116c-.166-.389-.345-.772-.517-1.157s-.33-.747-.5-1.12c-1.544-3.476-3.136-6.92-4.667-10.391-.129.056-.259.111-.383.18M51.746 19.14c-.507 1.112-1.083 2.192-1.612 3.294-.155.3-.308.606-.454.912s-.3.607-.446.912l-.174.326q-.08.176-.164.351l-.117.235c-.057.107-.113.217-.168.325-.088.2-.184.4-.279.592-1.855 3.756-3.749 7.495-5.6 11.253l-.113.227c-.08.15-.153.3-.228.458s-.152.3-.223.458-.152.3-.224.454c-.027.057-.083.172-.112.229-.054.106-.11.212-.165.317-.183.383-.377.759-.563 1.141-1.39 2.841-2.813 5.665-4.231 8.493a.889.889 0 01-1.272.442c-.468-.329-.581-.933-.819-1.418-.171-.37-.337-.743-.5-1.117-1.686-3.807-3.4-7.6-5.087-11.406-.149-.343-.308-.681-.453-1.026s-.314-.682-.439-1.036a.311.311 0 00-.436-.125 14.284 14.284 0 00-.594 1.3c-1.709 3.835-3.434 7.661-5.13 11.5l-.4.883c-.162.389-.342.771-.506 1.16a8.927 8.927 0 01-.486 1.016.887.887 0 01-1.031.339 1.113 1.113 0 01-.568-.588c-1.408-2.84-2.839-5.669-4.238-8.512-.072-.152-.147-.3-.221-.454-.145-.306-.3-.609-.452-.911l-.112-.23c-.072-.153-.15-.3-.227-.452l-.227-.454a20.662 20.662 0 00-.171-.368 70.21 70.21 0 01-.278-.546c-.113-.229-.223-.458-.342-.683-1.847-3.765-3.757-7.5-5.6-11.268-.027-.058-.084-.173-.112-.23-.128-.271-.264-.539-.4-.808s-.262-.523-.4-.781l-.161-.361c-.054-.119-.114-.212-.169-.318-.57-1.158-1.139-2.315-1.72-3.467a5.514 5.514 0 00-.445 1.144 25.172 25.172 0 001.665 19.265c.012.031.034.093.047.124.294.507.566 1.026.878 1.522A25.8 25.8 0 0018.259 51.43c.19.076.379.155.57.229.14.058.281.111.422.17.162.055.325.113.487.169l.342.124.342.108c.292.092.59.169.881.262.453.122.909.231 1.365.34.19.033.379.069.567.112s.382.073.572.119a23.78 23.78 0 002.753.285 13.3 13.3 0 002.835.006 21.3 21.3 0 002.86-.3c.19-.046.382-.077.575-.111s.378-.078.569-.113c.455-.111.912-.218 1.365-.34.291-.092.586-.172.877-.264.116-.042.231-.082.348-.122l.238-.065c.337-.129.677-.249 1.013-.382l.569-.233a25.793 25.793 0 0014.3-15.578 24.944 24.944 0 00-.367-16.709" fill="#001e50"/></g></svg>