<svg xmlns="http://www.w3.org/2000/svg" width="100" height="100"><defs><clipPath id="a"><path data-name="사각형 299588" fill="none" d="M0 0h66v41.035H0z"/></clipPath></defs><g data-name="그룹 390833" transform="translate(17 30)" clip-path="url(#a)"><path data-name="패스 789256" d="M33-.001c-18.225 0-33 9.188-33 20.518s15.367 20.582 33 20.518a51.512 51.512 0 0011.735-1.376C57.133 36.69 66 29.243 66 20.517 66 9.187 51.229-.001 33-.001m14.617 5.087c2.767 1.081 4.4 2.6 4.4 4.184 0 2.559-4.261 4.792-10.476 5.874C40.439 8.318 37.649 3.269 34.2 2.476a39.25 39.25 0 0113.415 2.61M33.194 7.755c2.2 0 4.049 3.248 4.813 7.848a49.77 49.77 0 01-5.007.218c-1.6 0-3.15-.069-4.641-.21.767-4.6 2.639-7.856 4.834-7.856M18.089 5.207a36.9 36.9 0 0114.188-2.745c-3.439.821-6.37 5.856-7.46 12.7-6.382-1.063-10.829-3.294-10.829-5.892 0-1.535 1.533-2.948 4.1-4.063M4.789 20.599a13.288 13.288 0 013.224-8.445c2.867 4.037 9.159 6.9 16.381 8.164-.013.4-.038.761-.038 1.075 0 7.58 2.057 14.093 5.025 17.178-13.8-1.211-24.592-8.8-24.592-17.972M33.194 32.64c-2.79 0-5.077-5.232-5.208-11.829a49.942 49.942 0 005.014.243 49.787 49.787 0 005.381-.3c-.119 6.622-2.389 11.886-5.188 11.886m11.195 4.55a39.711 39.711 0 01-7.293 1.35c2.966-3.078 4.932-9.578 4.932-17.145a6.1 6.1 0 00-.065-1.159c6.888-1.267 12.829-3.973 16.109-7.88a12.847 12.847 0 013.144 8.243c0 7.407-6.919 13.78-16.825 16.589" fill="#e50012"/></g></svg>