<svg xmlns="http://www.w3.org/2000/svg" width="100" height="100"><defs><clipPath id="a"><path data-name="사각형 299585" fill="none" d="M0 0h56v46.856H0z"/></clipPath></defs><g data-name="그룹 390830" clip-path="url(#a)" transform="translate(22 27)"><path data-name="패스 789235" d="M32.633 25.3a2.488 2.488 0 01-.3.011H26.6v1.334h5.833c.044 0 .389 0 .456-.011a1.9 1.9 0 001.733-1.966 1.871 1.871 0 00-1.644-1.945 4.348 4.348 0 00-.467-.022H28.7a1.93 1.93 0 01-.422-.033.558.558 0 01-.411-.566.57.57 0 01.422-.556 1.6 1.6 0 01.4-.033h5.5V20.2H28.6a3.678 3.678 0 00-.556.034 1.906 1.906 0 00-.022 3.767c.2.022.478.022.6.022h3.711a1.933 1.933 0 01.267.011.613.613 0 01.567.645.622.622 0 01-.533.622"/><path data-name="패스 789236" d="M21.766 25.3a2.382 2.382 0 01-.289.011h-5.744v1.334h5.833c.044 0 .389 0 .455-.011a1.9 1.9 0 001.733-1.966 1.871 1.871 0 00-1.644-1.945 4.348 4.348 0 00-.467-.022h-3.81a1.926 1.926 0 01-.422-.033.558.558 0 01-.411-.566.57.57 0 01.422-.556 1.6 1.6 0 01.4-.033h5.5V20.2h-5.589a3.673 3.673 0 00-.555.034 1.906 1.906 0 00-.022 3.767c.2.022.478.022.6.022h3.711a1.942 1.942 0 01.267.011.64.64 0 01.033 1.267"/><path data-name="사각형 299584" d="M11.3 20.156h1.444v6.523H11.3z"/><path data-name="패스 789237" d="M8.112 26.678v-6.522H6.667v4.867l-4.811-4.867H.001v6.522h1.444v-4.889l4.844 4.889z"/><path data-name="패스 789238" d="M54.566 20.156v4.867l-4.811-4.867h-1.859v6.522h1.444v-4.889l4.833 4.889h1.823v-6.522z"/><path data-name="패스 789239" d="M40.378 20.156l-4.067 6.523h1.756l.722-1.167h4.744l.722 1.167H46l-4.067-6.523zm2.411 4.122h-3.255l1.633-2.622z"/><path data-name="패스 789240" d="M8.034 16.456a21.148 21.148 0 0139.955 0l.022.067h6.367v-.767l-2.645-.311a2.581 2.581 0 01-2.422-1.822l-.111-.222a23.444 23.444 0 00-42.378.022l-.111.222a2.582 2.582 0 01-2.422 1.822l-2.644.311v.766H8z"/><path data-name="패스 789241" d="M48.011 30.32l-.022.067a21.15 21.15 0 01-39.955-.012l-.022-.066H1.655v.766l2.645.311a2.581 2.581 0 012.421 1.825l.111.222a23.44 23.44 0 0042.378.011l.111-.224a2.581 2.581 0 012.422-1.822l2.644-.311v-.767z"/></g></svg>