<svg xmlns="http://www.w3.org/2000/svg" width="100" height="100"><g fill-rule="evenodd"><path data-name="패스 791942" d="M10.173 50.346c0-11.167 17.77-20.221 39.829-20.221S89.83 39.178 89.83 50.346s-17.77 20.22-39.828 20.22-39.829-9.052-39.829-20.22z" fill="#fff"/><path data-name="패스 791943" d="M50.001 33.797c22.521 0 36.156 9.217 36.156 16.548S72.522 66.893 50.001 66.893s-36.156-9.217-36.156-16.548S27.48 33.797 50.001 33.797z" fill="#d70b24"/><path data-name="패스 791944" d="M50.001 29.953c22.037 0 40 9.045 40 20.392s-17.963 20.392-40 20.392-40-9.045-40-20.392 17.963-20.392 40-20.392zm0 .343c-22.081 0-39.657 9.06-39.657 20.049S27.92 70.394 50.001 70.394s39.656-9.061 39.656-20.049-17.576-20.049-39.656-20.049z" fill="#231815"/><path data-name="패스 791945" d="M86.328 50.346c0 7.509-13.824 16.72-36.327 16.72s-36.328-9.211-36.328-16.72 13.825-16.719 36.328-16.719 36.327 9.21 36.327 16.719zm-.343 0c0-7.154-13.444-16.376-35.984-16.376s-35.984 9.222-35.984 16.376 13.444 16.376 35.984 16.376 35.984-9.223 35.984-16.376z" fill="#231815"/><path data-name="패스 791946" d="M50.919 31.961a.918.918 0 11-.918-.918.917.917 0 01.918.918z" fill="#d70b24"/><path data-name="패스 791947" d="M47.883 31.987a.918.918 0 11-.949-.885.917.917 0 01.949.885z" fill="#d70b24"/><path data-name="패스 791948" d="M44.851 32.128a.918.918 0 11-.98-.852.918.918 0 01.98.852z" fill="#d70b24"/><path data-name="패스 791949" d="M41.825 32.377a.918.918 0 11-1.023-.8.918.918 0 011.023.8z" fill="#d70b24"/><path data-name="패스 791950" d="M38.815 32.771a.918.918 0 11-1.05-.763.917.917 0 011.05.763z" fill="#d70b24"/><path data-name="패스 791951" d="M35.823 33.284a.918.918 0 11-1.089-.707.918.918 0 011.089.707z" fill="#d70b24"/><path data-name="패스 791952" d="M32.859 33.943a.918.918 0 11-1.125-.649.918.918 0 011.125.649z" fill="#d70b24"/><path data-name="패스 791953" d="M29.934 34.757a.918.918 0 11-1.157-.589.918.918 0 011.157.589z" fill="#d70b24"/><path data-name="패스 791954" d="M27.063 35.742a.918.918 0 11-1.186-.528.918.918 0 011.186.528z" fill="#d70b24"/><path data-name="패스 791955" d="M24.239 36.897a.918.918 0 11-1.227-.423.918.918 0 011.227.423z" fill="#d70b24"/><path data-name="패스 791956" d="M21.528 38.259a.918.918 0 11-1.26-.314.918.918 0 011.26.314z" fill="#d70b24"/><path data-name="패스 791957" d="M18.96 39.873a.918.918 0 11-1.282-.2.917.917 0 011.282.2z" fill="#d70b24"/><path data-name="패스 791958" d="M16.561 41.732a.918.918 0 11-1.3 0 .918.918 0 011.3 0z" fill="#d70b24"/><path data-name="패스 791959" d="M14.478 43.939a.918.918 0 11-1.279.226.918.918 0 011.279-.226z" fill="#d70b24"/><path data-name="패스 791960" d="M12.844 46.504a.918.918 0 11-1.167.569.918.918 0 011.167-.569z" fill="#d70b24"/><path data-name="패스 791961" d="M50.92 68.729a.918.918 0 11-.918-.918.918.918 0 01.918.918z" fill="#d70b24"/><path data-name="패스 791962" d="M47.884 68.704a.918.918 0 11-.886-.95.918.918 0 01.886.95z" fill="#d70b24"/><path data-name="패스 791963" d="M44.852 68.562a.918.918 0 11-.852-.98.918.918 0 01.852.98z" fill="#d70b24"/><path data-name="패스 791964" d="M41.826 68.313a.918.918 0 11-.8-1.023.918.918 0 01.8 1.023z" fill="#d70b24"/><path data-name="패스 791965" d="M38.816 67.918a.918.918 0 11-.763-1.05.918.918 0 01.763 1.05z" fill="#d70b24"/><path data-name="패스 791966" d="M35.824 67.405a.918.918 0 11-.707-1.089.919.919 0 01.707 1.089z" fill="#d70b24"/><path data-name="패스 791967" d="M32.859 66.747a.918.918 0 11-.649-1.125.918.918 0 01.649 1.125z" fill="#d70b24"/><path data-name="패스 791968" d="M29.934 65.932a.918.918 0 11-.59-1.156.918.918 0 01.59 1.156z" fill="#d70b24"/><path data-name="패스 791969" d="M27.063 64.947a.918.918 0 11-.528-1.187.918.918 0 01.528 1.187z" fill="#d70b24"/><path data-name="패스 791970" d="M24.239 63.794a.918.918 0 11-.423-1.227.918.918 0 01.423 1.227z" fill="#d70b24"/><path data-name="패스 791971" d="M21.528 62.431a.918.918 0 11-.314-1.26.918.918 0 01.314 1.26z" fill="#d70b24"/><path data-name="패스 791972" d="M18.959 60.818a.918.918 0 11-.2-1.282.919.919 0 01.2 1.282z" fill="#d70b24"/><path data-name="패스 791973" d="M16.56 58.958a.918.918 0 110-1.3.918.918 0 010 1.3z" fill="#d70b24"/><path data-name="패스 791974" d="M14.476 56.75a.918.918 0 11.226-1.278.918.918 0 01-.226 1.278z" fill="#d70b24"/><path data-name="패스 791975" d="M12.843 54.186a.918.918 0 11.569-1.167.917.917 0 01-.569 1.167z" fill="#d70b24"/><path data-name="패스 791976" d="M12.041 51.262a.918.918 0 11.886-.95.918.918 0 01-.886.95z" fill="#d70b24"/><path data-name="패스 791977" d="M88.027 49.427a.918.918 0 11-.95.885.919.919 0 01.95-.885z" fill="#d70b24"/><path data-name="패스 791978" d="M87.758 52.45a.918.918 0 11-1.167.569.918.918 0 011.167-.569z" fill="#d70b24"/><path data-name="패스 791979" d="M86.58 55.246a.918.918 0 11-1.279.226.918.918 0 011.279-.226z" fill="#d70b24"/><path data-name="패스 791980" d="M84.742 57.66a.918.918 0 11-1.3 0 .917.917 0 011.3 0z" fill="#d70b24"/><path data-name="패스 791981" d="M82.529 59.741a.918.918 0 11-1.282-.2.918.918 0 011.282.2z" fill="#d70b24"/><path data-name="패스 791982" d="M80.049 61.486a.918.918 0 11-1.26-.314.917.917 0 011.26.314z" fill="#d70b24"/><path data-name="패스 791983" d="M77.415 62.989a.918.918 0 11-1.228-.423.918.918 0 011.228.423z" fill="#d70b24"/><path data-name="패스 791984" d="M74.654 64.289a.918.918 0 11-1.186-.528.918.918 0 011.186.528z" fill="#d70b24"/><path data-name="패스 791985" d="M71.815 65.365a.918.918 0 11-1.157-.589.918.918 0 011.157.589z" fill="#d70b24"/><path data-name="패스 791986" d="M68.917 66.272a.918.918 0 11-1.124-.649.918.918 0 011.124.649z" fill="#d70b24"/><path data-name="패스 791987" d="M65.976 67.023a.918.918 0 11-1.089-.707.918.918 0 011.089.707z" fill="#d70b24"/><path data-name="패스 791988" d="M63.002 67.631a.918.918 0 11-1.051-.763.918.918 0 011.051.763z" fill="#d70b24"/><path data-name="패스 791989" d="M60 68.089a.918.918 0 11-1.023-.8.919.919 0 011.023.8z" fill="#d70b24"/><path data-name="패스 791990" d="M56.983 68.434a.918.918 0 11-.98-.852.917.917 0 01.98.852z" fill="#d70b24"/><path data-name="패스 791991" d="M53.954 68.64a.918.918 0 11-.95-.886.918.918 0 01.95.886z" fill="#d70b24"/><path data-name="패스 791992" d="M49.084 31.961a.918.918 0 11.918.918.918.918 0 01-.918-.918z" fill="#d70b24"/><path data-name="패스 791993" d="M52.12 31.987a.918.918 0 11.885.949.918.918 0 01-.885-.949z" fill="#d70b24"/><path data-name="패스 791994" d="M55.153 32.128a.918.918 0 11.851.98.918.918 0 01-.851-.98z" fill="#d70b24"/><path data-name="패스 791995" d="M58.178 32.377a.918.918 0 11.8 1.023.918.918 0 01-.8-1.023z" fill="#d70b24"/><path data-name="패스 791996" d="M61.189 32.771a.918.918 0 11.763 1.05.918.918 0 01-.763-1.05z" fill="#d70b24"/><path data-name="패스 791997" d="M64.184 33.284a.918.918 0 11.707 1.089.918.918 0 01-.707-1.089z" fill="#d70b24"/><path data-name="패스 791998" d="M67.14 33.943a.918.918 0 11.649 1.125.917.917 0 01-.649-1.125z" fill="#d70b24"/><path data-name="패스 791999" d="M70.069 34.757a.918.918 0 11.59 1.157.918.918 0 01-.59-1.157z" fill="#d70b24"/><path data-name="패스 792000" d="M72.944 35.742a.918.918 0 11.528 1.186.919.919 0 01-.528-1.186z" fill="#d70b24"/><path data-name="패스 792001" d="M75.764 36.897a.918.918 0 11.423 1.227.918.918 0 01-.423-1.227z" fill="#d70b24"/><path data-name="패스 792002" d="M78.475 38.259a.918.918 0 11.314 1.26.917.917 0 01-.314-1.26z" fill="#d70b24"/><path data-name="패스 792003" d="M81.043 39.873a.918.918 0 11.2 1.282.919.919 0 01-.2-1.282z" fill="#d70b24"/><path data-name="패스 792004" d="M83.442 41.732a.918.918 0 110 1.3.918.918 0 010-1.3z" fill="#d70b24"/><path data-name="패스 792005" d="M85.525 43.939a.918.918 0 11-.225 1.279.918.918 0 01.225-1.279z" fill="#d70b24"/><path data-name="패스 792006" d="M87.158 46.504a.918.918 0 11-.569 1.167.918.918 0 01.569-1.167z" fill="#d70b24"/><path data-name="패스 792007" d="M20.501 56.744h3.966c1.658 0 2.825-1.769 2.825-3.225a2.8 2.8 0 00-1.408-2.627l-.3-.163.292-.178a3.023 3.023 0 001.114-2.32 2.958 2.958 0 00-1.911-2.772l.048-.135a3.219 3.219 0 01.836.427 4.154 4.154 0 01.435.361 9.524 9.524 0 01.723.718 7.094 7.094 0 01.547.694 3.343 3.343 0 01.571 1.8 3.254 3.254 0 01-1.092 2.386l-.046.032.518.518a3.091 3.091 0 01.922 2.352c0 1.5-1.2 3.374-2.974 3.374h-4.211l-1.052-1.05.2-.2zm3.206-1.473h-1.249v-3.815h1.405a1.54 1.54 0 011.32 1.277.818.818 0 00-.22-.03h-1.256v2.569zm0-5.294c-.047 0-.1.006-.146.006h-1.1V46.79h1.1a1.39 1.39 0 011.383 1.279 1.261 1.261 0 00-.283-.032h-.954v1.941z" fill="#fff"/><path data-name="패스 792008" d="M33.433 57.027a3.454 3.454 0 003.429-3.409v-8.233l.2-.2 1.053 1.05v8.478a3.6 3.6 0 01-3.578 3.558 4.358 4.358 0 01-2.565-.99 5.827 5.827 0 01-1.308-1.439c-.034-.073-.18-.314-.339-.638l.077-.021a3.472 3.472 0 003.035 1.841zm-1.209-11.839l1.053 1.05v8.478a1.258 1.258 0 00.03.273 1.361 1.361 0 01-1.279-1.37v-8.233l.2-.2z" fill="#fff"/><path data-name="패스 792009" d="M40.438 55.764c-.037-.078-.192-.333-.353-.674l.08-.025a3.509 3.509 0 003.116 1.963 3.073 3.073 0 003.405-3.409v-2.63l.2-.2 1.052 1.05v2.879a3.219 3.219 0 01-3.554 3.558 4.3 4.3 0 01-2.589-.99 6 6 0 01-1.353-1.519zm4.228-2.128l-1.053-1.05.2-.2h1.154v1.247zm-2.815-.017v-5.175a1.559 1.559 0 011.412-1.591 1.5 1.5 0 011.686 1.348 1.278 1.278 0 00-.573-.1 1.417 1.417 0 00-1.276 1.442v5.175a1.311 1.311 0 00.067.409 1.551 1.551 0 01-1.316-1.506zm4.04-7.9a5.9 5.9 0 01.937.868 5.584 5.584 0 01.662.96 4.153 4.153 0 01.445 1.991v.2h-2.048l-1.053-1.05.2-.2h1.654v-.047a3.032 3.032 0 00-1.989-3.2l.034-.144a3.917 3.917 0 011.16.624z" fill="#fff"/><path data-name="패스 792010" d="M53.397 52.887h-1.5l1.238-5.477c.078-.336.321-.327.385 0l.528 2.6-.649 2.872zm1.92 4.054l.2-.2h1.977l-2.615-11.367.147-.185 1.053 1.051 2.8 11.749h-2.507l-1.053-1.05zm-2.582-1.128l-.492 2.177h-2.45l-1.048-1.045.259-.2h2.018l.492-2.177h3.454l.253 1.247z" fill="#fff"/><path data-name="패스 792011" d="M60.729 56.967l.2-.2h1.957v-9.665h2.417v-1.717l.2-.2 1.053 1.05v2.11h-2.417v9.666h-2.35l-1.053-1.05zm-1.365-8.616l-1.052-1.05.2-.2h2.35v1.247z" fill="#fff"/><path data-name="패스 792012" d="M68.222 48.348l-1.053-1.05.2-.2h2.35v1.247zm6.132-3.16l1.053 1.05v2.11h-2.418v9.666h-2.35l-1.052-1.05.2-.2h1.956v-9.665h2.417v-1.717l.2-.2z" fill="#fff"/><path data-name="패스 792013" d="M78.65 45.188l1.053 1.05v11.753h-2.35l-1.053-1.05.2-.2h1.956v-11.36l.2-.2z" fill="#fff"/><path data-name="패스 792014" d="M27.214 48.232a3.424 3.424 0 00-.711-2.024 8.72 8.72 0 01.618.622 7.1 7.1 0 01.547.694 3.344 3.344 0 01.571 1.8 3.253 3.253 0 01-1.092 2.386l-.046.033.518.518a3.091 3.091 0 01.922 2.351c0 1.5-1.2 3.374-2.974 3.374h-4.21l-1.025-1.022h4.135c1.827 0 3.05-1.92 3.05-3.449a3.033 3.033 0 00-1.485-2.8 3.274 3.274 0 001.182-2.487zm-3.508 6.816h-1.02v-3.366h1.181a1.3 1.3 0 011.079 1.022h-1.235v2.344zm-.146-8.032a1.156 1.156 0 011.151 1.023h-1v1.715c-.047 0-.1.007-.146.007h-.878v-2.744z" fill="#a499c9"/><path data-name="패스 792015" d="M33.279 54.716v.045a1.136 1.136 0 01-1.026-1.142v-8.4l1.025 1.022v8.478zm-2.321 1.555a3.643 3.643 0 006.13-2.652v-8.4l1.025 1.022v8.478a3.6 3.6 0 01-3.579 3.558 4.357 4.357 0 01-2.565-.99 6.017 6.017 0 01-1.011-1.013z" fill="#a499c9"/><path data-name="패스 792016" d="M40.78 56.255a3.7 3.7 0 002.5.994 3.294 3.294 0 003.63-3.634v-2.8l1.025 1.022v2.878a3.219 3.219 0 01-3.554 3.558 4.3 4.3 0 01-2.59-.989 5.905 5.905 0 01-1.012-1.025zm2.861-3.646h1.1v1.023h-.074l-1.025-1.023zm-.358-5.535a1.273 1.273 0 011.427 1.049 1.062 1.062 0 00-.333-.027 1.417 1.417 0 00-1.275 1.442v5.175a1.3 1.3 0 00.011.17 1.327 1.327 0 01-1.036-1.267v-5.175a1.334 1.334 0 011.207-1.367zm1.58 1.64h2.048v-.273a3.769 3.769 0 00-.852-2.591 5.492 5.492 0 011.432 1.7 4.15 4.15 0 01.445 1.991v.2h-2.048l-1.025-1.022z" fill="#a499c9"/><path data-name="패스 792017" d="M53.449 52.662h-1.273l1.147-5.077.6 2.964-.478 2.113zm1.9 4.306h2.428l-2.7-11.725 1 1 2.8 11.749H56.37l-1.025-1.022zm-6.576 0h2.434l.492-2.177h3.09l.207 1.022h-2.258l-.492 2.177h-2.449l-1.025-1.022z" fill="#a499c9"/><path data-name="패스 792018" d="M60.758 56.991h2.35v-9.662h2.417v-2.11l1.025 1.022v2.11h-2.418v9.666h-2.35l-1.025-1.022zm-2.417-9.666h2.295v1.022h-1.269l-1.025-1.022z" fill="#a499c9"/><path data-name="패스 792019" d="M67.197 47.329h2.294v1.022h-1.27l-1.025-1.022zm2.417 9.666h2.35v-9.666h2.417v-2.11l1.025 1.022v2.11h-2.417v9.666h-2.35l-1.025-1.022z" fill="#a499c9"/><path data-name="패스 792020" d="M76.327 56.968h2.35V45.215l1.025 1.022V57.99h-2.35l-1.025-1.022z" fill="#a499c9"/><path data-name="패스 792021" d="M20.236 56.942l.244-.245h3.986c1.622 0 2.777-1.737 2.777-3.177a2.757 2.757 0 00-1.383-2.586l-.373-.2.363-.221a2.979 2.979 0 001.091-2.28 2.9 2.9 0 00-1.924-2.742l.08-.226a3.456 3.456 0 011.333.813 9.584 9.584 0 01.726.722 7.085 7.085 0 01.551.7 3.391 3.391 0 01.579 1.831 3.3 3.3 0 01-1.112 2.424l.479.479a3.14 3.14 0 01.936 2.386c0 1.52-1.215 3.422-3.021 3.422h-4.231l-1.1-1.1zm3.518-4.191v2.569h-1.345v-3.911h1.453a1.617 1.617 0 011.387 1.4.806.806 0 00-.287-.054zm0-4.666v1.937a1.914 1.914 0 01-.194.01h-1.151v-3.289h1.151a1.447 1.447 0 011.439 1.39 1.2 1.2 0 00-.339-.048z" fill="#231815"/><path data-name="패스 792022" d="M30.427 55.13a3.379 3.379 0 006.392-1.512v-8.253l.245-.245 1.1 1.1v8.5a3.651 3.651 0 01-3.626 3.606 4.4 4.4 0 01-2.594-1 5.832 5.832 0 01-1.322-1.457c-.036-.076-.2-.339-.363-.689l.169-.046zm1.557-9.764l.245-.245 1.1 1.1v8.5a1.2 1.2 0 00.044.325 1.412 1.412 0 01-1.388-1.422v-8.253z" fill="#231815"/><path data-name="패스 792023" d="M54.095 50.016l-.66 2.919h-1.6l1.251-5.535c.09-.389.4-.373.478.005l.529 2.611zm2.255 8.023l-1.1-1.1.244-.245h1.938l-2.607-11.332.195-.245 1.1 1.1 2.817 11.82zm-1.07-2.177h-2.507l-.492 2.177h-2.507l-1.1-1.1.315-.245h2l.492-2.178h3.53l.272 1.342z" fill="#231815"/><path data-name="패스 792024" d="M61.762 58.059l-1.1-1.1.245-.244h1.928v-9.666h2.418V45.36l.244-.245 1.1 1.1v2.177H64.18v9.666zm-.856-9.666h-1.561l-1.1-1.1.245-.244h2.417v1.342z" fill="#231815"/><path data-name="패스 792025" d="M69.764 48.395h-1.561l-1.1-1.1.245-.244h2.417v1.342zm4.346-3.03l.245-.245 1.1 1.1v2.177h-2.417v9.666h-2.417l-1.1-1.1.244-.244h1.929v-9.666h2.417v-1.689z" fill="#231815"/><path data-name="패스 792026" d="M78.406 45.365l.245-.245 1.1 1.1v11.821h-2.417l-1.1-1.1.244-.244h1.929V45.365z" fill="#231815"/><path data-name="패스 792027" d="M41.763 57.321a6.028 6.028 0 01-1.368-1.537c-.038-.081-.207-.357-.376-.723l.171-.055a3.461 3.461 0 003.091 1.974 3.026 3.026 0 003.357-3.362v-2.654l.245-.245 1.1 1.1v2.9a3.266 3.266 0 01-3.6 3.605 4.342 4.342 0 01-2.618-1zm3.249-3.639h-.366l-1.1-1.1.245-.245h1.222v1.342zm-1.774 1.5a1.6 1.6 0 01-1.435-1.562v-5.175a1.607 1.607 0 011.456-1.638 1.554 1.554 0 011.745 1.468 1.331 1.331 0 00-.624-.127 1.369 1.369 0 00-1.233 1.395v5.175a1.261 1.261 0 00.09.465zm1.458-10.143a3.964 3.964 0 011.224.646 5.973 5.973 0 01.945.875 5.635 5.635 0 01.667.968 4.2 4.2 0 01.451 2.014v.245h-2.115l-1.1-1.1.245-.245h1.626a2.98 2.98 0 00-2-3.169l.056-.237z" fill="#231815"/><path data-name="패스 792028" d="M22.653 51.652v3.422h1.209c.767 0 1.209-.842 1.209-1.71 0-.933-.583-1.711-1.209-1.711zm0-4.666v2.8h.906c.767 0 1.209-.532 1.209-1.4a1.246 1.246 0 00-1.209-1.4zm3.324 3.733a3 3 0 011.511 2.8c0 1.52-1.215 3.422-3.021 3.422h-4.231V45.12h3.928a3.058 3.058 0 013.022 3.111 3.211 3.211 0 01-1.209 2.488z" fill="#fff"/><path data-name="패스 792029" d="M34.639 53.618v-8.5h2.417v8.5a3.626 3.626 0 01-7.252 0v-8.5h2.417v8.5a1.209 1.209 0 002.417 0z" fill="#fff"/><path data-name="패스 792030" d="M44.767 53.616v-1.032h-1.222v-1.866h3.337v2.9a3.266 3.266 0 01-3.6 3.606 3.673 3.673 0 01-3.65-3.606v-5.173a3.672 3.672 0 013.65-3.605 3.266 3.266 0 013.6 3.605v.245h-2.115v-.245a1.324 1.324 0 00-1.487-1.395 1.363 1.363 0 00-1.233 1.395v5.174a1.354 1.354 0 001.233 1.322 1.272 1.272 0 001.487-1.322z" fill="#fff"/><path data-name="패스 792031" d="M54.387 52.689l-1.062-5.236-1.184 5.236zm-5.714 4.251l3.022-11.821h3.324l2.719 11.821h-2.489l-.442-2.178h-3.135l-.492 2.178z" fill="#fff"/><path data-name="패스 792032" d="M63.079 56.958h-2.417v-9.666h-2.417v-2.178h7.251v2.178h-2.417v9.666z" fill="#fff"/><path data-name="패스 792033" d="M71.936 56.958h-2.417v-9.666h-2.417v-2.178h7.252v2.178h-2.417v9.666z" fill="#fff"/><path data-name="패스 792034" d="M76.233 45.119h2.417V56.94h-2.417V45.119z" fill="#fff"/><path data-name="패스 792035" d="M50.68 39.857v1.985h1.965a.993.993 0 100-1.985zm0-3.079v1.769h1.965a.885.885 0 100-1.769zm-3.794 3.126v-1.825h1.093v.468h1.23v-1.769h-2.953v.594h-1.093v-1.688h7.482a2.086 2.086 0 011.569 3.46l-.029.033.031.031a2.194 2.194 0 01-1.571 3.725h-7.482v-1.687h1.093v.594h2.953v-1.983h-1.23v.468h-1.093v-.421z" fill="#a499c9"/><path data-name="패스 792036" d="M52.645 41.79a.945.945 0 000-1.89h-1.918v1.89zm0-3.294a.838.838 0 100-1.675h-1.918v1.675zm-4.618 1.4v.468h-1.188v-2.342h1.188v.469h1.134v-1.669h-2.857v.594h-1.189v-1.782h7.529a2.133 2.133 0 011.6 3.539 2.241 2.241 0 01-1.6 3.806h-7.529v-1.782h1.189v.594h2.857v-1.89z" fill="#231815"/></g></svg>