<svg xmlns="http://www.w3.org/2000/svg" width="100" height="100" viewBox="0 0 100 100">
  <g id="car_logo_smart_ev" data-name="car_logo_smart ev" transform="translate(-219 -155)">
    <g id="W_100_H_100" data-name="W 100 H 100" transform="translate(219 155)" fill="#f9f9f9" stroke="#f0f0f0" stroke-width="1" opacity="0">
      <rect width="100" height="100" stroke="none"/>
      <rect x="0.5" y="0.5" width="99" height="99" fill="none"/>
    </g>
    <g id="smart_ev" data-name="smart ev" transform="translate(-34 -46.667)">
      <g id="그룹_398342" data-name="그룹 398342" transform="translate(273 262.165)">
        <path id="패스_812107" data-name="패스 812107" d="M278.6,374.13h-3.418a.917.917,0,1,1,0-1.834h4.237a1.127,1.127,0,0,0,1.135-1.122v-.03a.09.09,0,0,0-.091-.089h-5.281a2.158,2.158,0,1,0,0,4.316H278.6a.917.917,0,1,1,0,1.833h-4.467A1.129,1.129,0,0,0,273,378.327v.029a.093.093,0,0,0,.093.091H278.6a2.159,2.159,0,1,0,0-4.317" transform="translate(-273 -370.497)" fill="#8e8e8f"/>
        <path id="패스_812108" data-name="패스 812108" d="M319.951,371.022a2.932,2.932,0,0,0-2.3,1.109,2.932,2.932,0,0,0-5.228,1.787V377.3a1.128,1.128,0,0,0,1.135,1.122h.034a.093.093,0,0,0,.087-.09v-4.415a1.671,1.671,0,0,1,3.342,0v3.394h0a1.128,1.128,0,0,0,1.134,1.111h.029a.091.091,0,0,0,.092-.085v-4.42a1.672,1.672,0,0,1,3.345,0V377.3h0a1.128,1.128,0,0,0,1.134,1.122l.036,0a.089.089,0,0,0,.085-.091v-4.412a2.915,2.915,0,0,0-2.928-2.9" transform="translate(-303.708 -370.472)" fill="#8e8e8f"/>
        <path id="패스_812109" data-name="패스 812109" d="M368.152,371.022a3.313,3.313,0,0,0-3.329,3.291V377.3a1.128,1.128,0,0,0,1.134,1.121h.034a.091.091,0,0,0,.088-.091v-4.017a2.073,2.073,0,0,1,4.147,0V377.3a1.126,1.126,0,0,0,1.135,1.121h.029a.092.092,0,0,0,.093-.091v-4.017a3.314,3.314,0,0,0-3.33-3.291" transform="translate(-344.534 -370.472)" fill="#8e8e8f"/>
        <path id="패스_812110" data-name="패스 812110" d="M441.813,371.149a.094.094,0,0,0-.095-.092h-6.285a1.129,1.129,0,0,0-1.136,1.122v.031a.092.092,0,0,0,.092.087h3.039v5.027a1.127,1.127,0,0,0,1.134,1.121h.034a.092.092,0,0,0,.088-.092V372.3h1.994a1.129,1.129,0,0,0,1.136-1.121Z" transform="translate(-398.659 -370.499)" fill="#8e8e8f"/>
        <path id="패스_812111" data-name="패스 812111" d="M403.352,372.3a.856.856,0,0,0-.857.856v5.2a.093.093,0,0,1-.092.093h-.029a1.122,1.122,0,0,1-1.122-1.122V373.16a2.1,2.1,0,0,1,2.1-2.1H406a2.1,2.1,0,1,1,0,4.2h-.369l2.773,2.781a.091.091,0,0,1,0,.141l0,0h0l-.022.018a1.3,1.3,0,0,1-1.71-.149s-2.1-2.117-2.106-2.121h0a1.118,1.118,0,0,1-.063-1.5l.056-.064a1.121,1.121,0,0,1,.793-.355h.694A.857.857,0,0,0,406,372.3Z" transform="translate(-372.915 -370.504)" fill="#8e8e8f"/>
        <path id="패스_812112" data-name="패스 812112" d="M491.279,385.452a.141.141,0,0,1-.14.14h-3.72v0a1.71,1.71,0,0,1-1.689-1.7v-.044a.14.14,0,0,1,.139-.14l3.72,0v0a1.711,1.711,0,0,1,1.688,1.7Z" transform="translate(-438.729 -380.351)" fill="#9bbd00"/>
        <path id="패스_812113" data-name="패스 812113" d="M380.25,384.607a.117.117,0,0,0-.115-.115h-3.771v0a1.393,1.393,0,0,0-1.376,1.385v.036a.113.113,0,0,0,.114.113h3.772a1.4,1.4,0,0,0,1.376-1.388Z" transform="translate(-352.453 -380.964)" fill="#9bbd00"/>
        <path id="패스_812114" data-name="패스 812114" d="M477.9,377.034a4.251,4.251,0,1,1,0-8.5h2.985a3.407,3.407,0,0,1,3.378,2.6l1.046,2.992,1.531-4.39c.239-.644.466-1.171,1.273-1.2h.947a.224.224,0,0,1,.224.225.217.217,0,0,1-.021.095l-2.723,7.776a.569.569,0,0,1-.575.405h-1.313a.571.571,0,0,1-.575-.405l-1.784-5.1c-.346-.922-.786-1.063-1.287-1.079-.036,0-3.272,0-3.29,0a2.343,2.343,0,0,0,.148,4.683l3.308.006A1.837,1.837,0,0,1,483,376.853v.041a.143.143,0,0,1-.142.141Z" transform="translate(-429.286 -368.533)" fill="#9bbd00"/>
      </g>
      <g id="그룹_398343" data-name="그룹 398343" transform="translate(275.559 232.667)">
        <path id="패스_812115" data-name="패스 812115" d="M429.11,319.592H415.7a2.652,2.652,0,0,0-2.351,1.614l-1.458,4.144,12.035,0a5.16,5.16,0,0,0,5.41-5.2v-.295a.247.247,0,0,0-.229-.265" transform="translate(-383.774 -300.377)" fill="#9bbd00"/>
        <path id="패스_812116" data-name="패스 812116" d="M444.277,276.341H430.87a2.654,2.654,0,0,0-2.352,1.615L427.06,282.1l12.035,0a5.161,5.161,0,0,0,5.411-5.2v-.3a.248.248,0,0,0-.229-.265" transform="translate(-395.587 -266.687)" fill="#9bbd00"/>
        <path id="패스_812117" data-name="패스 812117" d="M459.436,232.725H446.03a2.654,2.654,0,0,0-2.352,1.614l-1.458,4.144,12.035,0a5.161,5.161,0,0,0,5.411-5.2v-.3a.248.248,0,0,0-.229-.265" transform="translate(-407.396 -232.712)" fill="#9bbd00"/>
        <path id="패스_812118" data-name="패스 812118" d="M392.85,233.972a1.3,1.3,0,0,0-1.3-1.305H386.23a1.305,1.305,0,0,0-1.31,1.305,1.2,1.2,0,0,0,.055.373l3.91,11.212,3.91-11.212a1.2,1.2,0,0,0,.054-.373" transform="translate(-362.751 -232.667)" fill="#9bbd00"/>
        <path id="패스_812119" data-name="패스 812119" d="M328.538,319.592H315.131a.247.247,0,0,0-.229.265v.295a5.161,5.161,0,0,0,5.411,5.2l12.034,0-1.457-4.144a2.653,2.653,0,0,0-2.352-1.614" transform="translate(-308.199 -300.377)" fill="#9bbd00"/>
        <path id="패스_812120" data-name="패스 812120" d="M317.18,282.1l-1.458-4.144a2.654,2.654,0,0,0-2.352-1.615H299.964a.248.248,0,0,0-.229.265v.3a5.161,5.161,0,0,0,5.411,5.2Z" transform="translate(-296.385 -266.687)" fill="#9bbd00"/>
        <path id="패스_812121" data-name="패스 812121" d="M302.023,238.483l-1.458-4.144a2.652,2.652,0,0,0-2.352-1.614H284.807a.247.247,0,0,0-.229.265v.3a5.161,5.161,0,0,0,5.411,5.2Z" transform="translate(-284.578 -232.712)" fill="#9bbd00"/>
      </g>
    </g>
  </g>
</svg>
