<svg xmlns="http://www.w3.org/2000/svg" width="100" height="100"><g fill-rule="evenodd"><path data-name="패스 791921" d="M50 22a28 28 0 11-28 28 28.04 28.04 0 0128-28zm0 0" fill="#123164"/><path data-name="패스 791922" d="M28.315 49.527v1.142c.065-.193.108-.387.173-.582-.065-.194-.108-.366-.173-.56zm-.733 7.35h-.043V43.552h.043a20.421 20.421 0 016.6-14.356 23.552 23.552 0 0131.773 0 20.443 20.443 0 016.618 14.356h.022v13.321h-.044a20.349 20.349 0 01-6.6 14.1 23.492 23.492 0 01-31.773 0 20.351 20.351 0 01-6.6-14.1zm22.483-33.066a22.368 22.368 0 00-15.348 5.971 19.493 19.493 0 00-6.38 14.313 19.164 19.164 0 00.6 4.742 21.2 21.2 0 015.238-7.652 23.552 23.552 0 0131.773 0 20.927 20.927 0 015.238 7.652 19.167 19.167 0 00.6-4.742 19.5 19.5 0 00-6.38-14.313 22.369 22.369 0 00-15.348-5.971zM29.307 50.087a20 20 0 005.411 8.343 22.712 22.712 0 0030.7 0 9.136 9.136 0 000-16.684 22.771 22.771 0 00-30.7 0 20.132 20.132 0 00-5.411 8.342zm42.508-.56c-.065.194-.108.387-.172.56.064.194.107.388.172.561zm-.626 1.833a21.1 21.1 0 01-5.238 7.652 23.55 23.55 0 01-31.773 0 21.377 21.377 0 01-5.238-7.652 19 19 0 00-.6 4.72 19.538 19.538 0 006.38 14.334 22.708 22.708 0 0030.7 0A19.541 19.541 0 0071.8 56.08a18.993 18.993 0 00-.6-4.72zm0 0" fill="#fff"/><path data-name="패스 791923" d="M62.588 29.393a7.973 7.973 0 011.94 1.7 2.876 2.876 0 01.56 1.617.758.758 0 01-.215.625.912.912 0 01-.669.086 4.067 4.067 0 01.862 1.142 2.544 2.544 0 01.28 1.142c0 .561-.194.863-.6.884a3.747 3.747 0 01-1.832-.6 35.812 35.812 0 00-4.915-1.961c-.215-.065-.452-.108-.668-.172-.69-.151-1.38-.3-2.069-.41-.086-.237-.152-.5-.216-.733a40.216 40.216 0 00-2.781-.28c-.086.237-.151.474-.237.689h-1.336c-.453 0-.905.022-1.38.043-.453.022-.9.043-1.358.086-.065-.216-.151-.452-.216-.69-.927.13-1.854.259-2.781.453q-.108.38-.237.754c-.905.216-1.789.453-2.695.755.043-.151.108-.323.151-.474 0 .022-.021.022-.021.043a14.1 14.1 0 01-3.384 1.983 7.386 7.386 0 01-2.8 1.034c-.646.086-.97-.215-.992-.884q1.482-1.084 3.061-2.026c.022.173.151.237.345.237a2.5 2.5 0 00.8-.28 3.019 3.019 0 00.776-.5.629.629 0 00.259-.474.244.244 0 00-.237-.259 1.345 1.345 0 00-.668.151c-.647.237-1.272.518-1.9.819a4.088 4.088 0 01-1.767.56q-.583-.032-.582-.84a3.886 3.886 0 01.884-2.285 11.418 11.418 0 012.867-2.479 5.8 5.8 0 013.039-.97 1.256 1.256 0 011.077 1.293q-1.5.553-2.953 1.229c-.022-.216-.151-.3-.367-.3a2.081 2.081 0 00-.905.323 2.513 2.513 0 00-.668.539.662.662 0 00-.237.452c0 .13.065.194.173.194a4.447 4.447 0 00.8-.28c.755-.3 1.53-.56 2.284-.8a2.179 2.179 0 011.617.065 1.069 1.069 0 01.474.69c.28-.8.582-1.574.862-2.371s.56-1.6.841-2.371a33.621 33.621 0 013.211-.561c.324.884.647 1.767.97 2.63.345.905.668 1.789.992 2.673.367-.906.711-1.811 1.056-2.716.367-.884.711-1.768 1.078-2.652 1.056.108 2.134.259 3.212.453.323.948.646 1.918.97 2.867s.668 1.9.992 2.867v-5.195a34.007 34.007 0 015.26 2.478zm-2.738.086v.948c.582.237 1.143.518 1.7.8a2.6 2.6 0 00.711.3c.129 0 .172-.086.172-.259a.677.677 0 00-.151-.453 2.8 2.8 0 00-.733-.517c-.56-.3-1.121-.561-1.7-.819zm0 3.47q.905.355 1.811.776a2.707 2.707 0 00.8.3c.108-.021.172-.108.172-.323a.773.773 0 00-.194-.518 2.674 2.674 0 00-.776-.539c-.6-.28-1.207-.561-1.811-.8zm-6.984-2.264c.539.065 1.078.108 1.617.194-.13-.431-.259-.884-.389-1.314q-.224-.651-.41-1.315c-.129.409-.28.819-.409 1.229-.13.387-.28.8-.409 1.207zm-7.307.41l1.616-.259c-.129-.41-.259-.8-.388-1.207l-.388-1.229c-.151.453-.3.905-.431 1.358s-.28.905-.409 1.336zM58.104 72.18v-6.014c.625-.3 1.271-.625 1.918-.97v5.475c.28-.948.582-1.94.862-2.91.345-1.25.711-2.521 1.078-3.815q1.251-.916 2.436-1.919c.324.776.668 1.574.991 2.371.345.776.669 1.574 1.013 2.393-.69.625-1.4 1.207-2.091 1.767-.044-.172-.108-.344-.151-.517q-1.031.779-2.112 1.487c-.065.237-.129.5-.194.733-.6.366-1.229.711-1.832 1.034-.065.044-.151.065-.215.108-.582.281-1.143.517-1.7.776zM44.89 73.517c.108-.259.194-.5.3-.754a3.722 3.722 0 01-.345.258 2.965 2.965 0 01-2.328.129 4.372 4.372 0 01-2.479-1.789 4.226 4.226 0 01-.517-.97.759.759 0 01-.129.3.793.793 0 01-.6.431 4.032 4.032 0 01-2.565-.884 6.883 6.883 0 01-2.134-2.2 4.882 4.882 0 01-.733-2.479 47.56 47.56 0 002.307 1.9 1.294 1.294 0 00.259.625 2.05 2.05 0 00.625.582 1.247 1.247 0 00.582.259c.13 0 .194-.086.194-.237a.912.912 0 00-.172-.474 2.367 2.367 0 00-.518-.539q-.737-.641-1.444-1.315a6.19 6.19 0 01-1.337-1.854 4.553 4.553 0 01-.453-1.94c0-.841.216-1.228.69-1.163a6.351 6.351 0 012.156 1.358 13.537 13.537 0 012.306 2.2 3.664 3.664 0 01.819 2.048c0-.022.022-.043.022-.065a1.421 1.421 0 01.646-.755 3.231 3.231 0 012.479.28 5.871 5.871 0 012.393 1.445 3.278 3.278 0 01.647.991 3.792 3.792 0 01.259 1.229 67.515 67.515 0 01-2.2-.5 2.248 2.248 0 00-.324-.992 1.722 1.722 0 00-.776-.56.816.816 0 00-.927.086 1.5 1.5 0 00-.345 1.164 2.548 2.548 0 00.345 1.4 1.513 1.513 0 00.927.776.841.841 0 00.733-.065.942.942 0 00.367-.646q1.048.261 2.112.453c.087-.216.151-.409.237-.625.367-.949.711-1.919 1.078-2.867.819.086 1.617.129 2.436.151.345 1.013.668 1.983 1.013 2.953.3.884.6 1.746.906 2.629v-5.647a27.429 27.429 0 002.264-.28l.97 1.487c.3.5.626.97.949 1.445V67.09q.948-.294 1.875-.647v5.971q-1.075.378-2.177.668c-.345-.474-.69-.97-1.034-1.466s-.69-1.013-1.035-1.531v3.449c-.6.086-1.207.173-1.81.237v-.022c-.669.064-1.337.108-1.983.108a5.918 5.918 0 01-.173-.582c-.711 0-1.4-.021-2.112-.064a5.921 5.921 0 00-.172.582c-.69-.087-1.38-.173-2.069-.281zm-5.691-5.324a4.2 4.2 0 01.151-1.143 41.206 41.206 0 01-2.2-1.379 1.959 1.959 0 00-.28-.711 5.138 5.138 0 00-.69-.69.948.948 0 00-.517-.258c-.13-.021-.173.043-.173.193a.762.762 0 00.129.409 4.528 4.528 0 00.6.669c.561.561 1.164 1.078 1.746 1.574a5.365 5.365 0 011.229 1.336zm8.385 3.449c.41.021.819.043 1.229.043-.108-.345-.194-.69-.3-1.056q-.136-.532-.3-1.056c-.087.345-.215.689-.3 1.034zm14.917-4.01c.41-.3.819-.582 1.228-.905-.107-.3-.193-.582-.3-.884s-.193-.6-.3-.906l-.324 1.358c-.086.431-.194.884-.3 1.336zm-16.6-22.375l-.172-.129-.194-.108-.5-.194-.539-.107h-.517l-.539.129-.539.28-.5.409-.388.474-.237.5-.129.5-.022.517.043.474.043.237.28-.151.561-.3.582-.216.517-.065.517.065.453.173.323.237.28.324.108.172.259.022.733.194.647.259.28.151.323.216-.194.194-.5.452-.56.431-.539.28-.56.194-.517.065-.5-.022-.452-.108-.41-.194-.216-.151-.215-.151.043.194.086.431.151.452.216.366.3.3.41.259.475.151.539.022.625-.086.6-.194.3-.129.28-.108v.044l-.043.064-.194.173-.431.237-.5.3-.474.388-.388.5-.259.539-.129.625v.625l.108.561.086.28.108.28.129-.237.367-.539.5-.539.474-.409.367-.237.173-.108.065-.021h.043l.022.043-.022.043-.129.151-.345.366-.431.539-.345.625-.194.669v.775l.173.885.345.926.474.841.518.733.215.3.237.3.022-.323.065-.863.194-1.121.323-1.056.3-.819.086-.216.065-.065.022-.064.043-.022h.021l.022.022.022.021.021.086.022.108-.043.6-.021.56-.022.6v.669l-.021.647-.043.991-.065.582-.129.388-.129.345-.173.259.6-.173 1.056-.345.8-.323.56-.3.431-.345.345-.432.259-.582.129-.69v-.582l-.087-.453-.129-.452-.172-.5-.151-.517-.129-.453-.022-.129-.021-.108v-.064l.043-.021.043-.022.065.022.065.043.086.108.108.216.3.689.3.819.238.669.128.538.065.474.022.3v.086l.625-.56.949-.906.518-.6.28-.539.151-.582v-.647l-.151-.6-.259-.625-.323-.669-.281-.539-.043-.151-.065-.151v-.086l.022-.065.065-.043.065-.021h.065l.086.043.108.107.087.13.366.517.345.539.432.711.323.539.259-.6.388-.927.194-.668.043-.6-.086-.668-.237-.669-.3-.56-.389-.5-.539-.582-.474-.518-.193-.259-.022-.043v-.065l.043-.043.065-.022h.065l.108.022.13.086.194.151.431.388 1.1 1.1.366.453.151.237.108-.669.13-.991.022-.69-.065-.646-.172-.625-.345-.625-.539-.582-.6-.517-.3-.237.152-.216.323-.561.259-.6.194-.625.065-.345-.215-.021-.561-.021-.711.087-.754.215-.367.151-.41.172-.8-.043-.841-.065-.883-.043-.841-.021-.84.021h-.819l-.711.043-.992.087-.539.108-.323.129-.215.172-.086.108zm-7.027 2.91l.021.151v.173l.108.41.215.452.323.366.474.281.69.194.819.065.668-.043.56-.065.711-.108.8-.086.69-.043.582.043.453.13.215.086-.043-.172-.13-.41-.28-.5-.388-.366-.5-.216-.668-.108h-.8l-.992.043-1.056.108-.776.043h-.474l-.56-.151-.3-.107zm0 0" fill="#fff"/><path data-name="패스 791924" d="M45.925 44.155l.754-.086.754-.086.776-.065.8-.064.776-.043h1.6l.776.043.754.064.711.065.646.065.195-.539.237-.625.259-.668.323-.711.324-.69.323-.625.345-.6.323-.539.3-.517h-.668l-.5.086-.431.173-.345.237-.237.28-.108.28v.388l.086.28.108.324-.129-.087-.3-.172-.345-.086-.345.086-.323.172-.194.259-.065.367.022.345.129.323.237.216.28.108h.28l.259-.108.108-.087-.086.129-.3.259-.387.237-.539.151-.539.064-.518-.043-.5-.173-.409-.215-.323-.28-.216-.3-.086-.151.086.064.216.151.3.064h.323l.324-.129.258-.194.172-.3.044-.3-.044-.3-.151-.259-.237-.216-.3-.108-.345-.022-.323.087-.151.086-.173.064.108-.086.15-.258.13-.345v-.388l-.108-.345-.194-.237-.258-.172-.28-.043-.3.021-.259.151-.259.237-.13.345v.387l.108.367.108.194.129.172-.108-.064-.259-.129-.323-.065-.345.065-.3.151-.216.237-.129.259v.345l.151.345.215.28.323.151.345.043.323-.065.3-.108.129-.086-.108.129-.28.345-.366.3-.388.237-.5.13-.582.043-.561-.108-.474-.194-.475-.28-.215-.172.108.043.28.064.3-.022.323-.15.237-.281.13-.344-.065-.41-.194-.345-.237-.216-.323-.108h-.3l-.3.086-.259.129-.086.087.043-.108.108-.28.022-.367-.129-.345-.259-.344-.366-.3-.431-.194-.453-.107-.431-.021-.215.021.3.474.366.625.431.8.453.906.453.949.41.948zm0 0" fill="#d8b146"/><path data-name="패스 791925" d="M48.751 51.574l-.41.215.216 1.746.194-.129.474-.388.431-.5.194-.28.216-.3.021.345.043.711-.043.733-.086.754-.065.366-.064.366.151-.108.388-.259.474-.388.431-.561.345-.668.216-.754.129-.733.021-.711-.021-.366.3.561.3.582.3.625.3.626.108-.13.237-.345.259-.431.194-.539.086-.539-.021-.56-.173-.711-.129-.431-.152-.452-.366.194.065.194.152.431.107.388.064.366.022.345-.022.345-.086.323-.108.324-.043.15-.064.13-.28-.5-.647-1.056-.344-.539-.346-.5-.215.108.043.281.064.582.022.6-.043.626-.087.56-.129.517-.215.474-.28.453-.173.216-.173.215v-1.315l-.043-.841-.129-.733-.086-.344-.065-.324-.216.086-.086.28-.173.582-.237.453-.28.367-.172.151-.173.172zm3.707-3.837l-.215-.345.237-.237.647-.6.732-.582.776-.453.409-.194.432-.194-.108.194-.388.5-.668.625-.863.668-.474.3zm-5.626-1.638l-.5-.021.064.151.194.323.237.237.3.108.3.043.3-.065.281-.172.194-.237.086-.129.065-.129-.474-.021-.043.043-.13.151-.237.086-.281-.021-.194-.129-.086-.107zm-.41-.474l3.384.172-.065.474-.776-.043-.043.129-.151.324-.237.3-.3.237-.367.172-.409.065-.388-.021-.388-.108-.388-.237-.28-.345-.215-.388-.129-.323-.194-.259-.41-.259-.518-.173-.539-.021-.5.108-.431.215-.345.3-.259.366-.151.388-.086.41-.021.215.151-.108.431-.216.539-.151.582-.021.582.151.5.259.431.345.172.173.172.172.474.13.561.151-.021-.431 2.953.474v.5l-2.35-.323.194.107.432.3.237.216.28.237-.259.237-.474.5-.5.453-.56.431-.561.3-.56.194-.582.087-.6-.021-.3-.065-.345-.043.129.108.28.215.431.151.5.043.539-.064.517-.129.517-.194.259-.086.237-.108.151.194.215.323.065.194-.022.193-.086.173-.216.172-.41.258-.539.3-.474.366-.366.388-.259.431-.129.452-.021.216-.021.194.28-.237.6-.431.259-.194.237-.151.216-.108.172-.065.151-.044h.13l.129.044.086.043.172.173.043.151.022.129-.043.152-.086.172-.129.151-.129.151-.108.129-.345.432-.323.539-.237.582-.065.6.065.711.194.669.3.667.194.3.194.345.064-.388.194-.8.259-.8.28-.689.107-.259.108-.194.108-.129.108-.108.086-.065.108-.043.129-.022h.108l.086.044.108.065.086.086.086.108.043.108.043.129.022.151.021.216v.517l-.021 1.035-.043 1.034v.583l-.021.431-.043.539-.064.409-.022.151.409-.194.8-.367.647-.41.452-.409.259-.474.108-.539-.021-.582-.151-.6-.215-.754-.216-.668-.064-.193-.021-.194-.022-.13.022-.129.021-.151.064-.108.087-.108.086-.086.129-.064.108-.043h.129l.129.021.13.064.15.065.108.129.129.129.108.194.129.216.281.582.28.733.258.776.151.41.345-.3.539-.582.366-.518.194-.539.043-.56-.064-.41-.151-.344-.259-.539-.345-.668-.216-.474-.086-.215-.044-.152v-.15l.022-.13.043-.129.065-.129.086-.107.107-.086.108-.064.151-.043h.28l.129.043.129.064.151.108.151.15.3.366.281.388.517.733.086-.237.151-.56.086-.647-.065-.647-.258-.646-.474-.711-.6-.689-.474-.539-.259-.344-.086-.173-.021-.108.021-.151v-.129l.086-.107.086-.108.151-.065.172-.043h.216l.237.065.258.13.3.172.388.324.323.28.626.6.021-.345.022-.711-.022-.3-.065-.3-.064-.281-.129-.281-.237-.388-.3-.366-.345-.323-.366-.259-.3-.216-.28.237-.949.69-.906.582-.3.173-.323-.474.453-.259.841-.539.646-.474.5-.474.388-.5.323-.561.151-.323.129-.323-.237.021-.6.108-.8.28-.775.41-.647.452-.56.518-.259.3-.259.3-.389-.539.194-.216.5-.517.3-.259.3-.259-.258-.043-.646-.065-1.035-.043h-1.983l-1.1.064-.819.086-.41.086-.151.129-.043.065zm-6.833 3.448l.129.108.129.108.366.215.431.172.5.043.754-.086.884-.129.668-.087.711-.065.711.022.28.043.3.064-.086-.086-.344-.216-.69-.173-.863-.043-.948.065-.884.108-.625.065h-.56l-.539-.065zm0 0" fill="#b01842"/></g></svg>