<svg xmlns="http://www.w3.org/2000/svg" xmlns:xlink="http://www.w3.org/1999/xlink" width="100" height="100"><defs><linearGradient id="c" x1="-2.352" y1="5.888" x2="-3.363" y2="6.482" gradientUnits="objectBoundingBox"><stop offset="0" stop-color="#d3d3d3"/><stop offset=".368" stop-color="#4f4c4c"/><stop offset=".813" stop-color="#b0afaf"/><stop offset="1" stop-color="#231f20"/></linearGradient><linearGradient id="d" x1="-2.054" y1="28.408" x2="-1.87" y2="27.624" gradientUnits="objectBoundingBox"><stop offset="0" stop-color="#b2b1b1"/><stop offset=".2" stop-color="#b2b1b1"/><stop offset=".99" stop-color="#656263"/><stop offset="1" stop-color="#656263"/></linearGradient><linearGradient id="e" x1="-8.115" y1="41.015" x2="-8.733" y2="40.957" gradientUnits="objectBoundingBox"><stop offset="0" stop-color="#4f4c4c"/><stop offset=".359" stop-color="#fff"/><stop offset=".824" stop-color="#4f4c4c"/><stop offset="1" stop-color="#393536"/></linearGradient><linearGradient id="f" x1="-.742" y1="15.238" x2="-.656" y2="14.825" gradientUnits="objectBoundingBox"><stop offset="0" stop-color="#d3d3d3"/><stop offset=".368" stop-color="#b2b1b1"/><stop offset=".99" stop-color="#231f20"/><stop offset="1" stop-color="#231f20"/></linearGradient><linearGradient id="g" x1=".028" y1="5.184" x2="-.795" y2="4.22" gradientUnits="objectBoundingBox"><stop offset="0" stop-color="#918f90"/><stop offset=".121" stop-color="#9c9a9b"/><stop offset=".17" stop-color="#7b7979"/><stop offset=".308" stop-color="#918f90"/><stop offset=".473" stop-color="#f4f4f4"/><stop offset=".841" stop-color="#7f7d7e"/><stop offset=".962" stop-color="#4f4c4c"/><stop offset="1" stop-color="#4f4c4c"/></linearGradient><linearGradient id="l" x1="-2.142" y1="83.334" x2="-2.725" y2="84.058" gradientUnits="objectBoundingBox"><stop offset="0" stop-color="#f4f4f4"/><stop offset=".258" stop-color="#bdbcbc"/><stop offset=".648" stop-color="#f4f4f4"/><stop offset=".896" stop-color="#fff"/><stop offset="1" stop-color="#fff"/></linearGradient><linearGradient id="m" x1="20.431" y1="16.845" x2="21.809" y2="18.342" gradientUnits="objectBoundingBox"><stop offset="0" stop-color="#fff"/><stop offset=".069" stop-color="#e3e2e2"/><stop offset=".156" stop-color="#fff"/><stop offset=".33" stop-color="#d3d3d3"/><stop offset=".502" stop-color="#fff"/><stop offset=".98" stop-color="#bbbaba"/><stop offset="1" stop-color="#bbbaba"/></linearGradient><linearGradient id="n" x1="-.634" y1="4.376" x2=".028" y2="5.047" gradientUnits="objectBoundingBox"><stop offset="0" stop-color="#dedede"/><stop offset=".507" stop-color="#4f4c4c"/><stop offset="1" stop-color="#dedede"/></linearGradient><linearGradient id="o" x1="-.982" y1="7.633" x2="-1.636" y2="8.364" gradientUnits="objectBoundingBox"><stop offset="0" stop-color="#c8c7c8"/><stop offset=".1" stop-color="#fff"/><stop offset=".349" stop-color="#f0f0f0"/><stop offset=".538" stop-color="#fff"/><stop offset=".714" stop-color="#393536"/><stop offset=".841" stop-color="#fff"/><stop offset=".91" stop-color="#514e4f"/><stop offset="1" stop-color="#868484"/></linearGradient><linearGradient id="p" x1="-3.182" y1="12.781" x2="-2.883" y2="12.907" gradientUnits="objectBoundingBox"><stop offset="0" stop-color="#fff"/><stop offset=".521" stop-color="#cfcece"/><stop offset=".835" stop-color="#4f4c4c"/><stop offset="1" stop-color="#393536"/></linearGradient><linearGradient id="q" x1="-.322" y1="5.465" x2="-.249" y2="5.359" gradientUnits="objectBoundingBox"><stop offset="0" stop-color="#fff"/><stop offset=".209" stop-color="#fff"/><stop offset=".5" stop-color="#dedede"/><stop offset=".945" stop-color="#9c9a9b"/><stop offset="1" stop-color="#959494"/></linearGradient><linearGradient id="a" x1="-6.075" y1="28.505" x2="-5.392" y2="29.159" gradientUnits="objectBoundingBox"><stop offset="0" stop-color="#231f20"/><stop offset=".179" stop-color="#f4f4f4"/><stop offset=".579" stop-color="#444041"/><stop offset="1" stop-color="#231f20"/></linearGradient><linearGradient id="r" x1="-5.173" y1="17.851" x2="-4.488" y2="17.553" xlink:href="#a"/><linearGradient id="s" x1="-4.632" y1="52.023" x2="-3.89" y2="52.023" gradientUnits="objectBoundingBox"><stop offset="0" stop-color="#656263"/><stop offset=".286" stop-color="#d3d3d3"/><stop offset=".533" stop-color="#656263"/><stop offset=".758" stop-color="#393536"/><stop offset="1" stop-color="#231f20"/></linearGradient><linearGradient id="b" x1="-1.553" y1="18.195" x2="-.811" y2="18.195" gradientUnits="objectBoundingBox"><stop offset="0" stop-color="#231f20"/><stop offset=".179" stop-color="#9e9d9d"/><stop offset=".579" stop-color="#444041"/><stop offset="1" stop-color="#231f20"/></linearGradient><linearGradient id="t" x1="-4.205" y1="27.282" x2="-3.463" y2="27.282" xlink:href="#b"/><linearGradient id="u" x1="-2.383" y1="8.341" x2="-1.641" y2="8.341" xlink:href="#b"/><linearGradient id="v" x1="-1.801" y1="58.966" x2="-1.058" y2="58.966" gradientUnits="objectBoundingBox"><stop offset="0" stop-color="#7b7979"/><stop offset=".179" stop-color="#d3d3d3"/><stop offset="1" stop-color="#231f20"/></linearGradient><linearGradient id="w" x1="-5.076" y1="50.795" x2="-4.352" y2="50.795" gradientUnits="objectBoundingBox"><stop offset="0" stop-color="#444041"/><stop offset=".179" stop-color="#d3d3d3"/><stop offset="1" stop-color="#231f20"/></linearGradient><linearGradient id="x" x1="-7.374" y1="141.461" x2="-6.632" y2="141.461" gradientUnits="objectBoundingBox"><stop offset="0" stop-color="#7b7979"/><stop offset=".179" stop-color="#bdbcbc"/><stop offset="1" stop-color="#444041"/></linearGradient><linearGradient id="y" x1="-11.121" y1="117.103" x2="-11.015" y2="117.537" gradientUnits="objectBoundingBox"><stop offset="0" stop-color="#fff"/><stop offset=".115" stop-color="#eee"/><stop offset=".907" stop-color="#5a5758"/><stop offset="1" stop-color="#5a5758"/></linearGradient><linearGradient id="z" x1="-2.074" y1="12.047" x2="-1.331" y2="12.047" gradientUnits="objectBoundingBox"><stop offset="0" stop-color="#fff"/><stop offset=".98" stop-color="#231f20"/><stop offset="1" stop-color="#231f20"/></linearGradient><linearGradient id="A" x1="-1.51" y1="8.547" x2="-1.256" y2="7.872" gradientUnits="objectBoundingBox"><stop offset="0" stop-color="#e9e9e9"/><stop offset=".066" stop-color="#5a5758"/><stop offset=".352" stop-color="#918f90"/><stop offset=".604" stop-color="#b7b5b6"/><stop offset=".959" stop-color="#706d6e"/><stop offset="1" stop-color="#b2b1b1"/></linearGradient><radialGradient id="h" cx=".242" cy=".606" r=".806" gradientTransform="matrix(.982 0 0 1 -.034 0)" gradientUnits="objectBoundingBox"><stop offset="0" stop-color="#fff"/><stop offset=".467" stop-color="#fff"/><stop offset=".747" stop-color="#9c9a9b"/><stop offset=".846" stop-color="#7b7979"/><stop offset="1" stop-color="#4f4c4c"/></radialGradient><radialGradient id="i" cx=".968" cy=".438" r="1.512" gradientTransform="matrix(.627 0 0 .964 -2.398 2.628)" gradientUnits="objectBoundingBox"><stop offset="0" stop-color="#fff"/><stop offset=".228" stop-color="#fff"/><stop offset="1" stop-color="#231f20"/></radialGradient><radialGradient id="j" cx=".768" cy="-.298" r="1.813" gradientTransform="matrix(.592 0 0 1 -2.527 0)" gradientUnits="objectBoundingBox"><stop offset="0" stop-color="#fff"/><stop offset=".571" stop-color="#f7f7f7"/><stop offset=".863" stop-color="#231f20"/><stop offset="1" stop-color="#231f20"/></radialGradient><radialGradient id="k" cx=".735" cy=".186" r="2.602" gradientTransform="matrix(.646 0 0 1 -.982 0)" gradientUnits="objectBoundingBox"><stop offset="0" stop-color="#fff"/><stop offset=".253" stop-color="#fff"/><stop offset=".346" stop-color="#a7a6a6"/><stop offset=".412" stop-color="#7b7979"/><stop offset=".473" stop-color="#4f4c4c"/><stop offset="1" stop-color="#4f4c4c"/></radialGradient></defs><path d="M77.869 75.02c-1.081-3.223-5.438-11.314-8.863-15.867-.741-.993-.464-1.5-.067-1.823a28.449 28.449 0 003.177-3.149c1.524-1.742 1.891-3.711.813-6.561-1.072-2.823-4.613-9.532-5.357-11.755-.852-2.562-.938-3.7-.424-5.1.605-1.644 1.489-1.714 2.155-1.7a.711.711 0 01.627.557 9.291 9.291 0 00.761 3.493 10.8 10.8 0 004.94 5.324c.635.276.751-.218.695-.457s-1-3.931-1.709-6.709c-.74-2.91-1.112-3.542-1.77-4.16a5.765 5.765 0 00-3.992-1.477c-3.008.118-4.339 3.024-4.5 3.294-.143.242-.2.41-.5.2-.86-.6-3.373-2.7-3.6-4.012-.136-.778-.271-.885-1.047-1.188a44.814 44.814 0 00-8.54-2.73 4.884 4.884 0 00-2.577-.053 17.392 17.392 0 00-5.437 1.866 2.738 2.738 0 00-1.25 1.087 1.25 1.25 0 01-.642.526 28.626 28.626 0 00-3.44 1.407c-.455.265-.705.545-.471 1.06a15.086 15.086 0 002.174 3.284 3.792 3.792 0 001.336.527c.192.047.329.1.4-.042a1.228 1.228 0 01.493-.658 5.461 5.461 0 012.2-.73 1.316 1.316 0 01.923.11 3.077 3.077 0 01.914 1.262c.178.551.066.757-.242.886a9.667 9.667 0 01-2.305.426c-1.068.087-1.373-.209-1.448-.276a.189.189 0 00-.306-.008 2.175 2.175 0 01-.867.62c-.237.116-.364.367-.138.76.68 1.176 1.577 2.5 2.409 2.751.662.206 1.018-.01 1.762-.542.666-.481 1.1-.478 1.282-.344.2.15.6.49.5.83a12.124 12.124 0 01-1.6 2.29c-.215.274-.418.422-.8.237-.563-.269-9.111-4.7-10.254-5.149a9.2 9.2 0 00-3.287-.651 16.154 16.154 0 00-3.141.2 2.855 2.855 0 00-1.509.918 4.8 4.8 0 00-1.668 2.392 4.126 4.126 0 00.621 1.746.489.489 0 00.511.2 5.211 5.211 0 012.193-.3c.914.16 1.008.878 1.055 1.428a.37.37 0 00.381.3 3.413 3.413 0 011.591.323 14.756 14.756 0 012.664 1.9c.2.225.187.428-.195.466a37.45 37.45 0 00-6.576 1.257 4.89 4.89 0 00-2.644 1.528 11.535 11.535 0 00-1.264 3.136c-.175.952.846 2.136 1.118 2.4.184.179.309.29.634.112a7.1 7.1 0 012.859-1.1c.7-.04.981.62 1.148.861s.332.073.959-.1c1.111-.3 7.314-.186 9.5-.083a8.191 8.191 0 013.419.757 21.206 21.206 0 012.864 2.3s-2.45 4.108-3.769 6.544c-1.222 2.25-2.113 3.94-2.554 4.92a7.23 7.23 0 00-.662 3.164c.11 1.463.148 2.214.132 2.877-.019.584-.563.647-1.333.837-1.064.271-3.182.466-4.9.888-1.561.388-2.142.757-2.425 1.962a32.683 32.683 0 00-.579 4.355c-.018.436-.025.65.529.535.318-.062 1.237-.195 2.407-.28 1.448-.11 3.017-.089 4.228-.091 2.231-.013 8.816.371 9.26.415.562.056.676-.013.639-.406-.054-.518-.148-2.174-.172-3.16a3.589 3.589 0 01.715-2.958c.888-.966 7.6-8.449 7.971-8.833.325-.325.543-.672 1.041-.216s6.03 4.446 7.153 5.261a5.563 5.563 0 003.443 1.109c.912.017 1.166 1.607.39 1.757-.8.152-2.008.4-2.856.595a2.476 2.476 0 00-2.1 1.614 29.308 29.308 0 00-.719 4.716c-.011.227-.024.557.335.482a33.728 33.728 0 016.9-.335c3.137.1 6.185.356 6.612.381.462.033.507-.036.739-.4a15.593 15.593 0 012.606-2.827c.514-.418.524-.593.31-1.222M65.814 52.914a1.552 1.552 0 01-1.7-.334c-.39-.371-3.556-4.182-4.575-5.347a1.477 1.477 0 01.648-2.5c1.266-.461 3.537-1.19 4.168-1.523a1.564 1.564 0 001.023-1.32c.049-.65.056-1.379.058-1.622s.322-.44.484-.153c.111.2.68 1.312 1.373 2.594 1.037 1.926 2.345 4.334 2.77 5.369a2.258 2.258 0 01-.407 2.5 11.433 11.433 0 01-3.839 2.333" fill="#231f20"/><path d="M54.9 16.148c-2.389-.011-4.809 2.757-4.348 6.887a14.855 14.855 0 001.421 5.315c.373.806 4.45 8.571 4.639 9.393a2.5 2.5 0 01-.874 2.732 12.99 12.99 0 01-3.761 2.31 2.3 2.3 0 01-.726.135c-.252 0-.883-.087-2.076-1.556l5.27 7.031c-.673-.9-1.021-1.579-.9-2.173.121-.588 1.082-1.229 2.184-2.1a8.384 8.384 0 002.892-3.413 3.525 3.525 0 00.235-1.306 11.979 11.979 0 00-1.5-4.712c-1.054-2.232-4.04-7.105-4.949-10.52a8.925 8.925 0 01-.321-2.263c0-1.936.824-3.163 1.832-3.581a3.431 3.431 0 011.275-.261 2.456 2.456 0 011.1.236.821.821 0 01.325.765v.058c0 .06-.009.2-.009.418a9.077 9.077 0 001.034 4.247 8.882 8.882 0 003.913 3.686c.067.028-1.81-6.926-2.146-8.237-.39-1.53-1.468-3.062-4.485-3.091H54.9" transform="translate(14.447 9.906)" fill="url(#c)"/><path d="M25.231 30.368c.46.461-.34.436-2.769.645a27.483 27.483 0 00-6.271 1.2c-.952.359-1.529.613-1.91 1.487a15.14 15.14 0 00-.9 2.4.953.953 0 00.134.777c.092.146.32-4.488 6.3-4.793 5.29-.271 6.591-.825 5.558-1.837z" transform="translate(9.464 11.929)" fill="url(#d)"/><path d="M54.915 18.107a2.988 2.988 0 00-1.15.24c-.833.337-1.6 1.384-1.634 3.165l.01.406a9.642 9.642 0 01.327-1.781 2.325 2.325 0 012.2-1.864 1.015 1.015 0 01.854.313.868.868 0 01.269.547A8.653 8.653 0 0056.5 22.4c.041.108.084.216.129.32A9.6 9.6 0 0156 19.257c0-.22.01-.474.01-.476 0-.521-.57-.674-1.083-.674h-.008" transform="translate(14.705 10.077)" fill="url(#e)"/><path d="M25.437 30.556c.18.488-.534.373-2.963.584a27.6 27.6 0 00-6.274 1.184c-.956.36-1.531.612-1.913 1.49a15.4 15.4 0 00-.9 2.4 1 1 0 00.2.777c.253.4.415.487.786.273a6.778 6.778 0 012.488-.936 1.176 1.176 0 011.255.875c.071.257.42.124.479.109a8.924 8.924 0 011.921-.283c1.469-.107 7.2-.057 9.3-.009 1.892.045 9.343 5.89 9.454 5.92l.375-.758c-2.532-2.091-11.935-9.548-14.211-11.771z" transform="translate(9.466 12.057)" fill="url(#f)"/><path d="M17.912 22.6a1.942 1.942 0 00-1.325.539 8.156 8.156 0 00-1.713 1.684.9.9 0 00-.16.613 1.825 1.825 0 00.283.724c.091.107.215.157.473.088a8.864 8.864 0 012-.238 1.865 1.865 0 011.236.395 1.23 1.23 0 01.339.893.228.228 0 00.2.241c.35.048.731.048 1.137.136a10.362 10.362 0 014.108 2.449c2.774 2.47 6.224 6.165 9.532 8.711 1.675 1.283 4.419 2.892 5.325 3.767.166.162-.2.283-.47.148a19.825 19.825 0 00-2.024-1.321.81.81 0 00-.888.4 74.287 74.287 0 00-6.8 12 5.2 5.2 0 00-.493 2.214c.038.743.12 2.225.132 2.922.008.681-.165.955-1 1.084-1.542.229-4.967.823-5.84 1.03a1.793 1.793 0 00-1.462 1.176 17.632 17.632 0 00-.686 3.1c-.017.246.073.418.371.346a23.721 23.721 0 015.871-.5c2.676.057 7.444.51 8.061.564.214.017.471.02.468-.217-.006-.275-.073-1.519-.094-3.109-.017-1.587 1.418-2.752 3.4-4.737 1.992-1.994 6.8-6.56 6.978-6.718.12-.116.248-.227.006-.454-.336-.311-1.87-1.835-2.044-2.01-.087-.094-.283-.331-.206-.411.07-.085.255.051.492.239.928.727 11.084 8.611 11.791 8.918a7.024 7.024 0 001.812.5c.487.086.913.781.983 1.3.071.519.038 1.2-.71 1.383-.745.179-2.59.509-3.24.682a1.771 1.771 0 00-1.369 1.175 19.758 19.758 0 00-.652 2.865c-.008.436.111.47.458.387a12.471 12.471 0 012.871-.3c3.269-.112 8.242.295 8.882.344.219.02.4-.195.476-.326.692-1.153.5-1.447 1.427-2.177.483-.373.713-.447.41-1.11a71.969 71.969 0 00-10.6-16.965c-3-3.7-6.5-7.806-7.678-9.167l-14.106-7.773c-.836-.383-7.363-3.6-8.486-4.141a14.113 14.113 0 00-3.188-1.225 11.039 11.039 0 00-2.353-.238 16.432 16.432 0 00-1.935.123" transform="translate(9.582 12.397)" fill="url(#g)"/><path d="M31.868 16.775a41.98 41.98 0 00-4.551 1.6c-.052.034-.043.084-.017.144.023.053.285.506.285.506a1.219 1.219 0 00.51.52 3.314 3.314 0 00.837.323.148.148 0 00.176-.073 2.647 2.647 0 011.753-1.1 5.828 5.828 0 011.425-.207 2.012 2.012 0 011.2.479 4.141 4.141 0 011 1.684.915.915 0 01-.358 1.039 8.479 8.479 0 01-2.157.519 3.305 3.305 0 01-1.815-.2.135.135 0 00-.174.008 3.238 3.238 0 01-.552.415c-.07.04-.112.125-.047.257a8.929 8.929 0 001.445 1.939c.516.387.793.214 1.412-.129.622-.344 1.042-.763 1.685-.742a1.431 1.431 0 011.309 1.217 2.478 2.478 0 01-.687 1.78c-.3.474-.912 1.181-1.229 1.577a1.281 1.281 0 01-1.167.351s3.624 1.842 5.71 2.89c.825.419 2.122.03 3-1.617.205-.384 1.509-3.142 1.835-3.964a3.46 3.46 0 00.046-3.292 38.384 38.384 0 00-3.984-5.549 2.776 2.776 0 00-2.273-1 8.658 8.658 0 00-.491-.013 16.089 16.089 0 00-4.137.644" transform="translate(11.454 9.904)" fill="url(#h)"/><path d="M31.8 21.849a3.446 3.446 0 01-1.778-.185.14.14 0 00-.17.005 3.161 3.161 0 01-.543.385c-.066.035-.111.115-.043.236a7.678 7.678 0 001.365 1.8c.527.379.808.209 1.438-.127.632-.336 1.059-.746 1.712-.726l.13-1.865a8.561 8.561 0 01-2.113.479" transform="translate(11.529 10.75)" fill="url(#i)"/><path d="M27.438 18.369c-.05.033-.043.134-.017.187.023.048.272.46.272.46a1.113 1.113 0 00.483.472 3.581 3.581 0 00.746.308.148.148 0 00.176-.073 2.647 2.647 0 011.753-1.1 5.828 5.828 0 011.425-.207l-.514-1.5a41.036 41.036 0 00-4.323 1.452" transform="translate(11.297 9.973)" fill="url(#j)"/><path d="M34.162 26.194c-.3.473-.913 1.181-1.229 1.574a.89.89 0 01-.985.286s3.429 1.744 5.516 2.792c.825.419 2.075.134 2.954-1.515.2-.382 1.51-3.142 1.833-3.962l-7.4-1.008a2.615 2.615 0 01-.686 1.832" transform="translate(11.978 11.166)" fill="url(#k)"/><path d="M24.139 34.513c-.876.05-2.939.24-3.527.373a5.253 5.253 0 00-1.643 1.039c-.214.225-.21.414-.051.478a2.191 2.191 0 00.68-.013c.722-.063 2.688-.124 4.914-.126 1.155 0 2.412.011 3.4.024 1.032.014 1.778.027 1.829.023-.858-.934-1.587-2.069-1.877-2.083h-.024c-.41 0-3.464.272-3.705.285" transform="translate(9.941 12.365)" fill="url(#l)"/><path d="M28.842 48.807l.015-.04-.015.04a.212.212 0 01-.141-.2.532.532 0 01.178-.345 5.239 5.239 0 011.666-1.051c.595-.135 2.652-.324 3.531-.373.241-.013 3.289-.285 3.708-.287a.11.11 0 01.027 0 .6.6 0 01.323.212c.124.125.271.3.433.5.326.4.722.92 1.149 1.384l.061.065-.089.008h-.051c-.363 0-2.732-.049-4.873-.049h-.315c-2.227 0-4.191.066-4.91.127-.16.014-.344.038-.493.038a.6.6 0 01-.208-.028m.208-.059c.141 0 .323-.023.484-.037.726-.062 2.691-.122 4.919-.126h.315c2.057 0 4.324.043 4.82.048-.619-.686-1.164-1.459-1.515-1.809a.561.561 0 00-.266-.188h-.023c-.407 0-3.46.272-3.7.285-.876.05-2.94.239-3.52.372a5.192 5.192 0 00-1.623 1.025.472.472 0 00-.154.286.125.125 0 00.088.123.5.5 0 00.175.021" fill="#7f7d7e"/><path d="M33.035 14.187c-.8.484-.832 1.076-1.392 1.4-.557.324-1.837.615-3.181 1.215-.744.33-.747.385-.569.8.069.175.552 1.052.8 1.052a2.364 2.364 0 00.833-.238 38.839 38.839 0 015.155-1.629c2.346-.5 4.867-.544 5.764.4a38.729 38.729 0 014.478 6.061 3.618 3.618 0 01.167 3.476 39.209 39.209 0 01-2.575 5.428c-.489.707-1.08 1.1-2.495.524-1.517-.623-7.1-3.481-8.317-4.093-.822-.413-4.274-2.157-6.887-3.463a12.629 12.629 0 00-2.626-1.053 12.9 12.9 0 00-4.937-.111c-.435.072-.7.768-.685 1.051.017.232.465.2 1.009.172a7.072 7.072 0 01.875-.011 17.848 17.848 0 014.352.842c1.419.572 8.523 4.389 10.315 5.349 13.664 7.42 19.511 12.194 30.071 29.896.472.792.7 1.761-.047 1.983-1.081.314-5.585 1.17-6.948 1.616-1.146.376-1.3.466-1.465 1.03a8.891 8.891 0 00-.409 2.181c.029.106-.061.243.17.243 1.268 0 5.812 0 9.314.334.422.044.446.034.712-.368a13.652 13.652 0 012.315-2.44c.334-.248.109-.709.054-.86a83.013 83.013 0 00-7.7-13.639c-3.8-5.58-10.241-13.137-11.131-14.391-.87-1.231-1.211-2.616.6-3.186 1.185-.376 4.039-.965 5.207-1.291 1.136-.311 1.219-.678 1.314-1.555a44.381 44.381 0 00-.735-8.293 2.311 2.311 0 00-.961-1.369 23.918 23.918 0 01-2.84-2.631 6.619 6.619 0 01-1.611-3.025.708.708 0 00-.224-.359.931.931 0 00-.251-.185c-1.707-1.048-7.743-2.693-8.973-2.8a2.273 2.273 0 00-.234-.009 13.932 13.932 0 00-6.319 1.946" transform="translate(9.745 9.565)" fill="url(#m)"/><path d="M16.878 23.861c.424 0 1.412-.029 2.074.04a18.272 18.272 0 013.9.849c1.436.537 8.184 4.4 9.928 5.337a93.68 93.68 0 0113 8.395c5.732 4.436 10.68 9.58 16.883 20.017a2.03 2.03 0 01.375 1.093.853.853 0 01-.676.839c-1.068.309-5.447 1.257-6.744 1.686-1.1.373-1.3.608-1.462 1.1a5.826 5.826 0 01-.463 1.462 1.682 1.682 0 01-1.259.321c-.33 0-.5.018-.462-.334.032-.352.249-1.307.373-1.856a1.783 1.783 0 01.884-1.266 21.719 21.719 0 013.359-.829c1.019-.24 1.076-.7 1.057-1.434 0 .783-.283.973-1.308 1.194a15.082 15.082 0 00-3.362.818 2.073 2.073 0 00-.879 1.276 13.684 13.684 0 00-.547 2.76c.034.3.16.347.514.309.353-.038 1.234-.158 2.553-.205.392 0 .366-.457.361-.96a3.733 3.733 0 01.106-.993.971.971 0 01.642-.607c.733-.22 4.8-1.274 6.87-1.866.905-.26 1.285-.536 1.2-1.328-.072-.7-.734-1.728-1.913-3.5-1.186-1.785-2.675-4.223-4.658-6.919a55.325 55.325 0 00-11.294-11.8 78.019 78.019 0 00-8.964-5.73c-2.449-1.378-12.783-6.81-14.387-7.292a17.983 17.983 0 00-3.65-.683 18.128 18.128 0 00-1.919-.018c-.593 0-.384-.461-.3-.645-.062.13-.416.765.167.765" transform="translate(9.743 12.451)" fill="url(#n)"/><path d="M34.7 40.306c-.379.46-2.327 3.552-3.908 6.442-1.143 2.093-2.513 5.059-2.779 5.779a4.956 4.956 0 00-.264 1.994c.024.733.147 1.924.187 2.782.043.82-.166 1.183-1.02 1.337-.725.13-4.574.776-5.523 1.007a1.694 1.694 0 00-1.433 1.4 19.15 19.15 0 00-.471 2.314c-.008.292.029.351.3.314.273-.038.856-.089 1.092-.107.248-.017.2-.2.272-.461.07-.234.12-.626.262-1.232a1.5 1.5 0 011.168-1.32c.837-.248 4.624-.857 5.265-1.032.639-.178 1.049-.452 1.119-1.094.073-.635-.059-1.993-.077-3.1a4.812 4.812 0 01.62-2.924 99.5 99.5 0 017.8-11.374s-.248-.184-.561-.411a5.729 5.729 0 00-1.149-.72.79.79 0 00-.233-.039c-.245 0-.424.152-.662.445" transform="translate(10 13.914)" fill="url(#o)"/><path d="M33.105 56.365a7.727 7.727 0 00-.912 3.226 3.848 3.848 0 00.068.911 3.077 3.077 0 01.652-1.93 27.4 27.4 0 012.587-2.837c1.932-2 6.643-6.616 6.813-6.782.105-.107.232-.257-.028-.508-.468-.447-.712-.735-1.448-1.472-.448-.45-.76-.722-.743-.879-.017 0-5.268 5.9-6.987 10.271" transform="translate(12.01 14.458)" fill="url(#p)"/><path d="M16.9 23.8l45.36 36.6a.893.893 0 00.768-.732 1.743 1.743 0 00-.293-1.095C56.426 47.989 51.7 43.047 45.946 38.585c-1-.773-2-1.543-3.053-2.291a97.852 97.852 0 00-9.986-6.18c-1.111-.6-4.243-2.369-6.751-3.729-1.446-.785-2.686-1.433-3.209-1.641a17.355 17.355 0 00-3.9-.888 11.1 11.1 0 00-1.312-.061c-.268 0-.546 0-.829.005" transform="translate(9.774 12.512)" fill="url(#q)"/><path d="M45.182 14.383a1.452 1.452 0 01.311.227 1.154 1.154 0 01.365.6 5.956 5.956 0 001.448 2.709 22.632 22.632 0 002.733 2.471 3.152 3.152 0 01.607.493 8.922 8.922 0 01.516-1.721 2.218 2.218 0 01-.151.239.645.645 0 01-.485.265H50.5a.822.822 0 01-.481-.176c-.873-.651-3.319-2.553-3.671-4.166-.221-.756.057-.411-.73-.809-.219-.086-.429-.172-.646-.251.074.038.146.076.208.115" transform="translate(13.587 9.742)" fill="url(#a)"/><path d="M50.323 30.656c-1.15.316-3.987.895-5.08 1.235-.814.295-.919.553-.944.961a2.743 2.743 0 00.539 1.47c.423.6 2.476 2.937 4.762 5.813a8.284 8.284 0 00.593.666c-.085-.11-3.315-4.2-4.306-5.327a2.13 2.13 0 01-.609-1.359 1.959 1.959 0 011.362-1.727c1.229-.449 3.463-1.173 3.972-1.449.494-.285.641-.409.714-.746a2.745 2.745 0 01-1 .459" transform="translate(13.523 11.99)" fill="url(#r)"/><path d="M54.782 16.092a4.558 4.558 0 00-4.082 3.637 4.441 4.441 0 014.088-3.378c2.845 0 4.031 1.075 4.43 2.677-.5-2.206-2.384-2.938-4.268-2.938h-.172" transform="translate(14.581 9.901)" fill="url(#s)"/><path d="M37.034 55.287c-2.206 2.256-3.205 2.956-3.161 4.359.027.825.092 2.863.1 3.166a.525.525 0 01-.329.586 1.49 1.49 0 01-.619.092c-.6 0-6.409-.566-8.448-.566a21.344 21.344 0 00-4.838.49.85.85 0 01-.79-.251.788.788 0 01-.134-.4c-.043.4-.08.862-.08 1.062a23.279 23.279 0 012.346-.275c1.428-.113 3.044-.092 4.121-.092 1.079 0 9.073.414 9.1.415a64.072 64.072 0 01-.155-2.99l-.027-.886a3.162 3.162 0 01.84-2.294c.378-.411 1.852-2.045 3.411-3.782-.511.515-.972.989-1.335 1.362" transform="translate(9.934 15.141)" fill="url(#b)"/><path d="M41.714 49.081a1.14 1.14 0 01.6.322c.414.383 5.8 4.281 6.874 5.053a5.213 5.213 0 001.315.7 53.871 53.871 0 01-1.614-1.21 485.87 485.87 0 01-3.671-2.885 468.074 468.074 0 01-3.191-2.553.712.712 0 01-.309.569" transform="translate(13.235 14.294)" fill="url(#t)"/><path d="M54.164 44.03a1.514 1.514 0 00-.125.6 2.5 2.5 0 00.538 1.419c.258.364.507.724.746 1.071a77.684 77.684 0 017.34 13.331c.216.6.173.9-.023 1.169s-1.948 1.994-2.183 2.367a1.772 1.772 0 01-.312.391 1.227 1.227 0 01-.8.172c-2.88-.27-6.006-.385-7.574-.385-2.039 0-3.227.2-3.9.215a1.055 1.055 0 01-.668-.137.238.238 0 00-.018-.027c-.029.286-.048.5-.054.6a28.436 28.436 0 014.746-.317c.587 0 1.191.01 1.809.026 3.04.094 6.574.374 6.582.374A27.726 27.726 0 0163 61.877c.186-.147.257-.136.257-.279a2.087 2.087 0 00-.144-.533 76.5 76.5 0 00-8.457-15.076 2.5 2.5 0 01-.512-1.334 1.321 1.321 0 01.521-1.059c.222-.184.77-.651 1.487-1.365a7.651 7.651 0 00-1.989 1.8" transform="translate(14.268 14.12)" fill="url(#u)"/><path d="M20.076 36.84a11.647 11.647 0 00-1.943.267.651.651 0 01-.2.018c.029.049.077.141.1.178.03-.011.078-.029.169-.055a21.262 21.262 0 014.439-.317c1.958 0 4.1.014 5.2.067a8.326 8.326 0 013.508.792c1.039.58 3.293 2.142 3.4 2.048a51.449 51.449 0 00-2.758-1.835 8.115 8.115 0 00-2.583-1.214c-3.516-.055-3.516-.055-5.586-.055-1.611 0-3.142.061-3.75.107" transform="translate(9.864 12.698)" fill="url(#v)"/><path d="M18.48 27.646c.054.005.135 0 .235 0a3.068 3.068 0 011.4.227 24.7 24.7 0 013.517 2.488c.428.5.861.446.481.115a13.489 13.489 0 00-4.3-2.863 7.088 7.088 0 00-1.185-.129c-.29-.018-.27-.359-.354-.422.01.06.027.571.2.583" transform="translate(9.894 11.479)" fill="url(#w)"/><path d="M16.8 36.184a8.419 8.419 0 00-2.463.964c-.37.207-.531.212-.763-.042.108.258.287.412.449.359a11.029 11.029 0 012.918-1.051 1.189 1.189 0 01.574.1c-.132-.222-.276-.326-.672-.326H16.8" transform="translate(9.484 12.596)" fill="url(#x)"/><path d="M33.881 14.129c-.433.07-1.818.443-1.963.493a.5.5 0 00-.328.257 1.047 1.047 0 00-.1.633.265.265 0 00.395.151 72.47 72.47 0 012.31-.848.3.3 0 00.21-.178.844.844 0 00.045-.377c-.017-.134-.1-.174-.226-.174a2.618 2.618 0 00-.344.045" transform="translate(11.791 9.725)" fill="url(#y)"/><path d="M45.626 24.001c.191-.035.286-.016.3.089a.89.89 0 01-.007.22c-.012.057-.035.089-.13.125-.2.068-1.45.515-1.752.643-.278.116-.419.051-.444-.064a.7.7 0 01.067-.39.382.382 0 01.225-.171c.226-.082 1.39-.386 1.744-.451" fill="#231f20"/><path d="M36.037 15.929c-3.553.092-6.651 1.6-8.39 2.309a27.45 27.45 0 017.612-1.86c1.846-.113 2.587.043 3.263.8a39.676 39.676 0 014.084 5.713 3.057 3.057 0 01.421 1.644 5.272 5.272 0 01-.527 1.715c-.354.813-1.662 3.471-1.889 3.857-.952 1.65-1.866 1.593-2.837 1.369.05.027.5.237.9.4 1.131.463 1.846-.179 2.493-1.394.209-.378 1.6-3.314 1.931-4.161a4.452 4.452 0 00.456-1.733 4.329 4.329 0 00-.424-1.749 39.934 39.934 0 00-4.148-5.829 2.9 2.9 0 00-2.613-1.086h-.339" transform="translate(11.506 9.886)" fill="url(#z)"/><path d="M32.473 47.1c-1.261 2.007-3.079 5-3.364 5.661a4.52 4.52 0 00-.357 1.871l.1 3.259a1.453 1.453 0 01-.273.981 1.549 1.549 0 01-1 .44c-.749.108-4.281.653-5.252.851a1.8 1.8 0 00-1.541 1.259 6.479 6.479 0 00-.323 1.55.865.865 0 000 .184c-.027.358.1.338.1.338a62.655 62.655 0 016.521-.17c2.434.142 5.793.46 5.793.46s-3.535-.661-5.94-.81c-1.2-.072-2.594-.043-3.692-.013a9.2 9.2 0 01-1.928-.015 1.422 1.422 0 01-.058-.547c.04-.191.09-.409.157-.638a1.637 1.637 0 011.367-1.341c.893-.227 4.325-.795 4.976-.955.644-.162 1.06-.4 1.148-.926a6.851 6.851 0 00.045-.857c0-.69-.123-2.52-.119-2.634a4.76 4.76 0 01.808-2.938c1.141-1.9 5.434-8.424 7.57-10.689.136-.144.2-.266.435-.228a.617.617 0 01-.139-.047c-.037-.018-.208-.146-.433-.312a62.748 62.748 0 00-4.6 6.265" transform="translate(10.514 13.999)" fill="url(#A)"/></svg>