<svg xmlns="http://www.w3.org/2000/svg" xmlns:xlink="http://www.w3.org/1999/xlink" width="100" height="100" viewBox="0 0 100 100">
  <defs>
    <clipPath id="clip-path">
      <rect id="사각형_299599" data-name="사각형 299599" width="66" height="36.543" fill="none"/>
    </clipPath>
  </defs>
  <g id="car_logo_mclaren" transform="translate(-219 -155)">
    <g id="W_100_H_100" data-name="W 100 H 100" transform="translate(219 155)" fill="#f9f9f9" stroke="#f0f0f0" stroke-width="1" opacity="0">
      <rect width="100" height="100" stroke="none"/>
      <rect x="0.5" y="0.5" width="99" height="99" fill="none"/>
    </g>
    <g id="mclaren" transform="translate(232.5 168.325)">
      <g id="그룹_390849" data-name="그룹 390849" transform="translate(3.5 18.675)" clip-path="url(#clip-path)">
        <path id="패스_789339" data-name="패스 789339" d="M38.235,55.218C106.781,9.11,47.6,10.19,3.5,38.7c13.071-5.505,57.327-13.122,34.735,16.519" transform="translate(-3.5 -18.675)"/>
        <path id="패스_789340" data-name="패스 789340" d="M40.227,53.359c51.821-37.927,4.889-39.367-33.758-15.8,9.623-4.427,54.085-12.918,33.758,15.8" transform="translate(-3.587 -18.771)" fill="#ed1d24"/>
        <path id="패스_789341" data-name="패스 789341" d="M68.7,28.023c4.22-6.793-2.573-8.595-10.807-8.389,6.947.413,12.145,3.706,10.807,8.389" transform="translate(-5.1 -18.703)" fill="#fff"/>
      </g>
    </g>
  </g>
</svg>
