<svg xmlns="http://www.w3.org/2000/svg" width="100" height="100" viewBox="0 0 100 100">
  <g id="car_logo_chevrolet" transform="translate(-219 -155)">
    <g id="W_100_H_100" data-name="W 100 H 100" transform="translate(219 155)" fill="#f9f9f9" stroke="#f0f0f0" stroke-width="1" opacity="0">
      <rect width="100" height="100" stroke="none"/>
      <rect x="0.5" y="0.5" width="99" height="99" fill="none"/>
    </g>
    <g id="dodge" transform="translate(215 138.594)">
      <path id="패스_804109" data-name="패스 804109" d="M1990.364,60.409q2.563-.006,5.127,0c-.356.444-.742.863-1.109,1.3l-2.984,3.458c-.685.786-1.356,1.585-2.049,2.365,0-.036,0-.107,0-.142.407-.431.773-.9,1.17-1.338,1.4-1.615,2.789-3.237,4.188-4.851.193-.232.4-.452.581-.694-.834-.022-1.669-.006-2.5-.01h-2.234a.235.235,0,0,0-.209.085q-1.027,1.191-2.052,2.384a2.01,2.01,0,0,1-.369.38h-.078C1988.676,62.36,1989.526,61.389,1990.364,60.409Z" transform="translate(-1905.596)" fill="#dd4311"/>
      <path id="패스_804110" data-name="패스 804110" d="M1978.273,60.416q2.555,0,5.111,0a3.118,3.118,0,0,1-.334.416l-9.849,11.38c-.08.081-.143.225-.28.2-1.671-.005-3.341,0-5.012-.005.418-.516.867-1.008,1.3-1.514Q1973.74,65.654,1978.273,60.416Z" transform="translate(-1886.384 -0.008)" fill="#dd4311"/>
      <path id="패스_804111" data-name="패스 804111" d="M1905.2,62.843a.234.234,0,0,1,.209-.085h2.234c.834,0,1.669-.012,2.5.01-.18.243-.388.463-.581.694-1.4,1.614-2.79,3.236-4.188,4.851-.4.44-.763.907-1.17,1.338a.3.3,0,0,0-.151-.274,1.411,1.411,0,0,0-.52-.067c-1.339,0-2.678-.005-4.017-.006.208-.279.452-.529.673-.8,1.018-.007,2.037,0,3.055,0a.319.319,0,0,0,.327-.184,1.46,1.46,0,0,0,.037-.579.336.336,0,0,0-.232-.307,3.48,3.48,0,0,0-.782-.018c-.488,0-.977,0-1.464,0,.209-.234.409-.477.617-.712q.839,0,1.679,0a1.4,1.4,0,0,0,.357-.022.3.3,0,0,0,.2-.279,4.034,4.034,0,0,0,0-.5.323.323,0,0,0-.306-.288c-.3-.014-.6,0-.9-.006a2.018,2.018,0,0,0,.369-.38Q1904.171,64.032,1905.2,62.843Z" transform="translate(-1820.458 -2.265)" fill="#ce312a"/>
      <path id="패스_804112" data-name="패스 804112" d="M1983.269,62.786a.663.663,0,0,1,.24-.022c1.369,0,2.739,0,4.108,0,.179,0,.358,0,.537.011a5.048,5.048,0,0,1-.436.527q-1.941,2.236-3.878,4.475c-.361.429-.73.85-1.1,1.271-1.52,1.766-3.051,3.522-4.572,5.287-.094.094-.16.268-.319.249-1.6,0-3.194,0-4.79,0,.4-.488.837-.955,1.242-1.442Q1978.791,67.967,1983.269,62.786Z" transform="translate(-1891.349 -2.273)" fill="#ce312a"/>
      <path id="패스_804116" data-name="패스 804116" d="M447.3,142.278q1.389-.047,2.781,0c.214.032.432.008.645.045a13.552,13.552,0,0,1,2.567.386c.164.053.333.09.493.155.059.035.115.075.171.114-.091,0-.181.008-.271.01.136.064.27.132.408.191.086.039.172.08.257.123.048.024.1.049.143.075a2.663,2.663,0,0,1,.453.334c.034.032.067.066.1.1a1.085,1.085,0,0,0-.4.028.893.893,0,0,1-.065-.074c-.3-.035-.594.025-.889-.022-.238.019-.478,0-.716.027l-.025.1a2.02,2.02,0,0,0-.608-.441,5.746,5.746,0,0,0-1.865-.48,13.566,13.566,0,0,0-1.658-.08,12.44,12.44,0,0,0-2.2.158,5.038,5.038,0,0,0-1.268.37,2.027,2.027,0,0,0-.666.461l-.069.071c.014-.059.026-.119.039-.178a1.916,1.916,0,0,0-.7-.074,7.2,7.2,0,0,0-.759,0c-.112-.012-.194.085-.306.078q.016-.056.033-.111a.646.646,0,0,0-.343.175l-.086,0c0-.013.005-.038.007-.05.084-.084.168-.169.258-.247s.172-.127.261-.187a2.923,2.923,0,0,1,.262-.144A1.616,1.616,0,0,0,443.6,143c-.1-.012-.208-.025-.313-.033l.114-.054c.167-.063.335-.123.506-.176a10.194,10.194,0,0,1,1.117-.249,14.755,14.755,0,0,1,1.592-.171C446.843,142.283,447.071,142.31,447.3,142.278Z" transform="translate(-415.939 -78.908)" fill="#edf5fc"/>
      <path id="패스_804117" data-name="패스 804117" d="M1269.161,142.185c.852-.057,1.707-.056,2.56-.045h3.173c1.021,0,2.041-.015,3.062,0a.334.334,0,0,1,.3.126c.014.147.005.3.022.443-.016.121-.016.243-.022.364a.324.324,0,0,1-.268.124c-.566.009-1.131,0-1.7.01a.574.574,0,0,1-.246,0c-1.418-.015-2.836,0-4.253-.007-.242.027-.483-.008-.725.008-.166.03-.334.011-.5.025a5.815,5.815,0,0,0-1.513.275,1.536,1.536,0,0,0-.713.475.918.918,0,0,0-.1.885,1.1,1.1,0,0,0,.578.556,4.522,4.522,0,0,0,1.566.348.305.305,0,0,1-.173.039,7.031,7.031,0,0,1-.96-.154,2.525,2.525,0,0,1-.8-.367.942.942,0,0,1-.372-.894c.007-.03.021-.088.028-.118s.019-.072.032-.107a1.254,1.254,0,0,1,.677-.655,5.956,5.956,0,0,1,2.077-.351c.99-.009,1.98.006,2.969-.009.356.021.712,0,1.068.008.972,0,1.944,0,2.916,0,.126-.008.335-.008.353-.174a2.07,2.07,0,0,0-.035-.7l-.02-.013a1.257,1.257,0,0,0-.334-.03q-3.171,0-6.342,0c-.842,0-1.686-.012-2.525.066a8.8,8.8,0,0,0-2.409.494,3.286,3.286,0,0,0-.327.152,2.21,2.21,0,0,0-.317.185,2.125,2.125,0,0,0-.26.21,1.862,1.862,0,0,0-.171.183,1.594,1.594,0,0,0-.276,1.414,1.379,1.379,0,0,0,.067.194,2.174,2.174,0,0,0,1.155,1.03,7.911,7.911,0,0,0,2.4.545c.848.088,1.7.075,2.554.079q2.974,0,5.948,0a1.013,1.013,0,0,0,.587-.118.577.577,0,0,0,.2-.446c.038-.452.022-.907.023-1.36,0-.159.008-.319.009-.478-.014-.042-.025-.083-.039-.124a.6.6,0,0,0-.49-.216c-2.031-.022-4.062,0-6.092,0-.152-.009-.353.062-.352.243-.008.06-.014.121-.019.181a3.122,3.122,0,0,0,0,.375.213.213,0,0,0,.223.141c1.01.005,2.02-.008,3.03,0a2.684,2.684,0,0,1,.6.028c.126.029.188.152.245.257.006.059.008.118.011.177a.639.639,0,0,1-.1.385l-.032.008-.093-.044c.05-.037.112-.077.106-.149a1.29,1.29,0,0,0-.017-.434c-.052-.145-.23-.16-.361-.163h-3.422a.219.219,0,0,1-.226-.158,2.312,2.312,0,0,1,0-.716.367.367,0,0,1,.261-.2q2.921-.017,5.842-.009c.192.008.384,0,.576.012a.521.521,0,0,1,.405.325,3.256,3.256,0,0,1,.045.767c0,.422.007.845-.035,1.265a.6.6,0,0,1-.307.465,1.184,1.184,0,0,1-.541.093h-5.984a22.967,22.967,0,0,1-3.025-.135,7.761,7.761,0,0,1-1.7-.386,2.477,2.477,0,0,1-1.482-1.19,1.819,1.819,0,0,1,.014-1.407,2.38,2.38,0,0,1,1.331-1.087A9.367,9.367,0,0,1,1269.161,142.185Z" transform="translate(-1208.824 -78.796)" fill="#12120d"/>
      <path id="패스_804118" data-name="패스 804118" d="M1691.441,141.75a.8.8,0,0,1,.458-.114c.865-.017,1.73,0,2.6-.008,2.055,0,4.111-.008,6.166.007h1.26c.3.005.6-.008.9.007a.322.322,0,0,1,.306.288,4.034,4.034,0,0,1,0,.5.3.3,0,0,1-.2.279,1.4,1.4,0,0,1-.357.022q-.839,0-1.679,0-3.108,0-6.217,0a.333.333,0,0,0-.325.135,1.771,1.771,0,0,0-.018.511.833.833,0,0,0,.418.074c1.842-.01,3.683,0,5.525-.01.488.005.976,0,1.464,0a3.48,3.48,0,0,1,.782.018.336.336,0,0,1,.232.307,1.467,1.467,0,0,1-.037.579.32.32,0,0,1-.328.184c-1.018,0-2.036-.008-3.055,0-1.528,0-3.057,0-4.586,0a.451.451,0,0,0-.369.148.72.72,0,0,0-.059.483.161.161,0,0,0,.137.124,4.271,4.271,0,0,0,.795.035c1.136,0,2.272,0,3.408.007,1.339,0,2.678.01,4.017.006a1.409,1.409,0,0,1,.52.067.3.3,0,0,1,.151.274c0,.035,0,.107,0,.142,0,.122-.006.244-.013.366-.037.1-.081.216-.2.246a2.188,2.188,0,0,1-.34.012c-1.713,0-3.425,0-5.138,0h-5.728a1.057,1.057,0,0,1-.52-.111.544.544,0,0,1-.2-.265,3.678,3.678,0,0,1-.06-.9c-.022-.988,0-1.976.051-2.962A.712.712,0,0,1,1691.441,141.75Z" transform="translate(-1619.598 -78.308)" fill="#12110c"/>
      <path id="패스_804119" data-name="패스 804119" d="M16.7,144.412a2.238,2.238,0,0,1,.815-.081c2.077-.008,4.154.005,6.231.013.267.029.537.013.805.03.465.025.931.063,1.392.128a8.019,8.019,0,0,1,1.79.432,4.705,4.705,0,0,1-.9.06c-.2-.027-.4-.1-.6-.129A12.311,12.311,0,0,0,24.8,144.7c-.342-.032-.687-.012-1.03-.047-.372-.008-.745-.013-1.118,0a4.91,4.91,0,0,0-.564-.007c-.217.02-.433-.014-.649-.011-1.261,0-2.522,0-3.783,0a2.309,2.309,0,0,0-.708.058c-.134.05-.121.21-.117.327l-.414-.009c0-.077-.006-.155-.006-.232C16.391,144.6,16.55,144.476,16.7,144.412Z" transform="translate(-5.215 -80.907)" fill="#eee"/>
      <path id="패스_804120" data-name="패스 804120" d="M860.814,144.594a.844.844,0,0,1,.692-.271c1.766-.014,3.532,0,5.3,0a29.716,29.716,0,0,1,3.134.116,8.373,8.373,0,0,1,2.116.467.546.546,0,0,1-.348.058,3.4,3.4,0,0,0-.525.014,9.337,9.337,0,0,0-1.336-.23c-.313-.054-.631-.046-.945-.08-.348-.01-.7,0-1.043-.025s-.725.025-1.086-.012c-1.645-.011-3.29-.005-4.934-.008a1.6,1.6,0,0,0-.519.064c-.111.031-.117.166-.126.261-.137.008-.274.01-.41.008C860.784,144.836,860.8,144.715,860.814,144.594Z" transform="translate(-819.154 -80.896)" fill="#eee"/>
      <path id="패스_804121" data-name="패스 804121" d="M1309.469,145.287c.839-.078,1.683-.07,2.525-.066q3.17,0,6.342,0a1.259,1.259,0,0,1,.334.03c-.011.11-.1.162-.2.2l-.039.02a2.535,2.535,0,0,0-.006.314l-.049-.008c-.008-.09-.011-.18-.014-.27-.9-.013-1.8,0-2.693,0-1.167,0-2.334,0-3.5,0-.778.008-1.559-.029-2.333.052a10.037,10.037,0,0,0-1.97.3,6.157,6.157,0,0,0-.632-.011.3.3,0,0,1-.177-.06A8.8,8.8,0,0,1,1309.469,145.287Z" transform="translate(-1249.351 -81.765)" fill="#eee"/>
      <path id="패스_804122" data-name="패스 804122" d="M1696.085,144.631a2.692,2.692,0,0,1,.646-.05h5.984c1.478,0,2.957.01,4.435,0a.439.439,0,0,1,.3.08l.026.083c-.075.047-.153.086-.231.126l-.011.007c-.014.075-.022.15-.031.226q-.016-.111-.031-.222c-3.214-.008-6.43,0-9.643-.009-.407.015-.815-.007-1.222.013a.5.5,0,0,0-.119.339,3.841,3.841,0,0,1-.4,0c0-.058,0-.117.008-.174A.476.476,0,0,1,1696.085,144.631Z" transform="translate(-1624.071 -81.15)" fill="#eee"/>
      <path id="패스_804123" data-name="패스 804123" d="M1514.672,146.05l.02.013a2.076,2.076,0,0,1,.035.7c-.018.166-.227.165-.353.174-.972,0-1.944,0-2.916,0-.356,0-.713.013-1.069-.008a1.389,1.389,0,0,1,.38-.058c.479-.064.961-.088,1.443-.132.312-.042.628-.029.94-.074.2-.029.408-.021.612-.045a2.237,2.237,0,0,1,.595-.011c.134.021.2.156.315.213a2.518,2.518,0,0,0-.166-.25,1.69,1.69,0,0,1-.03-.324C1514.569,146.212,1514.661,146.16,1514.672,146.05Z" transform="translate(-1445.353 -82.567)" fill="#4a555d"/>
      <path id="패스_804124" data-name="패스 804124" d="M1782.811,146.93a.954.954,0,0,1,.058.713.272.272,0,0,0-.177-.055c-2.835.005-5.67,0-8.505,0a.721.721,0,0,1-.217-.044,1.178,1.178,0,0,1,.721-.138h2.235c.312.014.623-.028.936-.019h4.181a3.089,3.089,0,0,1,.562.023q0-.137,0-.275c.077-.04.156-.079.23-.126Z" transform="translate(-1699.434 -83.415)" fill="#424b53"/>
      <path id="패스_804125" data-name="패스 804125" d="M859.816,152.151a.35.35,0,0,1,.044-.141c-.012.121-.03.243-.035.365,0,.019,0,.057,0,.075,0,.041.005.082.009.123l.32,0,.072.083c-.006.279.005.559-.015.837-.007-.048-.014-.1-.021-.143a4.348,4.348,0,0,0,.009-.448c0-.048-.006-.095-.009-.142a3.266,3.266,0,0,0-.4,0C859.789,152.559,859.806,152.355,859.816,152.151Z" transform="translate(-818.199 -88.314)" fill="#778082"/>
      <path id="패스_804126" data-name="패스 804126" d="M1361.971,151.873a2.535,2.535,0,0,1,.006-.314l.039-.02a1.69,1.69,0,0,0,.03.324,2.519,2.519,0,0,1,.167.25c-.116-.057-.181-.192-.315-.213a2.237,2.237,0,0,0-.595.011c-.2.024-.409.016-.612.045-.312.045-.628.032-.939.074-.481.043-.964.067-1.443.132a1.386,1.386,0,0,0-.38.058c-.99.015-1.98,0-2.969.009a5.955,5.955,0,0,0-2.077.351,5.151,5.151,0,0,1-.654.01,3.2,3.2,0,0,1,1.724-.649,9.6,9.6,0,0,1,1.225-.084c2.078-.012,4.155,0,6.233-.008a4.949,4.949,0,0,1,.512.014Z" transform="translate(-1292.892 -87.86)" fill="#5b6d7a"/>
      <path id="패스_804127" data-name="패스 804127" d="M1708.116,152.731c3.214.012,6.429,0,9.643.009.01.074.021.148.031.222.008-.075.017-.151.031-.226l.011-.007c0,.092,0,.183,0,.275a3.09,3.09,0,0,0-.562-.023h-4.181c-.312-.009-.623.032-.936.019h-2.235a1.178,1.178,0,0,0-.721.138.618.618,0,0,0-.232.439,2.643,2.643,0,0,0,.014.547l-.065-.058a3.135,3.135,0,0,1-.016-.523l-.087-.04-.072.046c-.154-.093-.324.009-.488-.024a3.4,3.4,0,0,0-.78-.011c-.091.009-.181-.041-.271-.012a1.123,1.123,0,0,1-.4.013,4.2,4.2,0,0,0-.022-.434.5.5,0,0,1,.119-.339C1707.3,152.725,1707.709,152.746,1708.116,152.731Z" transform="translate(-1634.66 -89.008)" fill="#ecf5fc"/>
      <path id="패스_804128" data-name="패스 804128" d="M28.167,152.972a2.308,2.308,0,0,1,.708-.058c1.261,0,2.522,0,3.783,0,.217,0,.433.031.649.011a4.9,4.9,0,0,1,.564.007c.372-.014.745-.009,1.118,0,.342.035.687.015,1.03.047a12.321,12.321,0,0,1,1.435.162c.2.026.4.1.6.129.162.043.31.129.476.159l.127.021c.168.067.325.157.49.229a2.113,2.113,0,0,1,.49.328c.035.032.069.066.1.1a.482.482,0,0,1-.311-.074,5.166,5.166,0,0,1-.74,0,5.349,5.349,0,0,0-.829.013l-.044.145a1.3,1.3,0,0,0-.378-.364,1.722,1.722,0,0,0-.323-.178,5.2,5.2,0,0,0-1.763-.361c-.643-.058-1.29-.04-1.935-.043-.577,0-1.154.006-1.731-.01a6.91,6.91,0,0,0-1.181.066.629.629,0,0,0-.456.539l0,.067a.63.63,0,0,1-.2.022c-.595-.028-1.19.022-1.784-.008,0-.209,0-.418-.013-.627C28.046,153.182,28.033,153.022,28.167,152.972Z" transform="translate(-16.433 -89.184)" fill="#edf6fc"/>
      <path id="패스_804129" data-name="패스 804129" d="M872.285,152.964a1.6,1.6,0,0,1,.519-.064c1.645,0,3.29,0,4.934.008.362.037.724-.018,1.086.012s.7.015,1.043.025c.315.034.633.026.945.08a9.326,9.326,0,0,1,1.336.23,2.391,2.391,0,0,0,.4.122l.142.03c.125.05.249.106.375.156.066.029.132.058.2.09a2.727,2.727,0,0,1,.494.339,1.421,1.421,0,0,1,.225.246,1.237,1.237,0,0,1-.332-.191.566.566,0,0,0-.349-.044c-.157.012-.315,0-.473.006a6.589,6.589,0,0,1-.8-.008c-.012.087-.025.173-.039.259a1.482,1.482,0,0,0-.669-.577,4.462,4.462,0,0,0-1.64-.389c-1.175-.108-2.356-.037-3.534-.066-.276-.022-.551.011-.827.005a2.012,2.012,0,0,0-.8.086.827.827,0,0,0-.331.316.41.41,0,0,0-.086.2c-.021-.038-.019-.107-.07-.117a5.608,5.608,0,0,1-1.008-.009.738.738,0,0,1-.375.028,2.331,2.331,0,0,0-.413.032c-.012.1-.03.2-.051.3-.028-.283.02-.569-.034-.849C872.168,153.13,872.173,152.995,872.285,152.964Z" transform="translate(-830.123 -89.171)" fill="#ecf5fc"/>
      <path id="패스_804130" data-name="패스 804130" d="M1302.928,152.948c.775-.081,1.556-.044,2.334-.052,1.167,0,2.334,0,3.5,0,.9,0,1.8-.009,2.693,0,0,.09.006.18.014.27a4.946,4.946,0,0,0-.512-.014c-2.078.009-4.155,0-6.233.008a9.6,9.6,0,0,0-1.224.084,3.2,3.2,0,0,0-1.724.649l-.018.016-.112-.021.154-.191-.068-.02-.169.054c.015-.025.031-.051.047-.076a2.159,2.159,0,0,0-.455.063c-.214.038-.429-.1-.637-.013-.111.048-.228-.019-.341.011a1.191,1.191,0,0,1-.286.02,2.125,2.125,0,0,1,.251-.156,3.814,3.814,0,0,1,.4-.188c.142-.042.279-.1.42-.146A10.038,10.038,0,0,1,1302.928,152.948Z" transform="translate(-1242.439 -89.166)" fill="#ecf5fc"/>
      <path id="패스_804131" data-name="패스 804131" d="M15.6,157.3c.009-.126.016-.252.031-.378,0,.077,0,.154.006.232l.414.009c.01.209.012.418.013.627,0,.263,0,.527,0,.79v.062l-.052-.067c0-.131,0-.262,0-.393,0-.11.006-.219.007-.329s0-.231,0-.346c0-.067-.013-.134-.022-.2C15.861,157.307,15.73,157.305,15.6,157.3Z" transform="translate(-4.434 -93.047)" fill="#adb1b4"/>
      <path id="패스_804132" data-name="패스 804132" d="M1695.119,158.21a2.628,2.628,0,0,1,.033-.51c-.006.058-.008.116-.008.174s.007.121.012.182a1.461,1.461,0,0,1,.355.012,1.306,1.306,0,0,1,.035.434c-.009.207-.008.415-.02.622,0-.191-.007-.383,0-.574,0-.065,0-.129,0-.194,0-.049-.007-.1-.01-.147-.124-.006-.247,0-.37,0Z" transform="translate(-1623.425 -93.799)" fill="#80868b"/>
      <path id="패스_804133" data-name="패스 804133" d="M505.325,159.334a12.435,12.435,0,0,1,2.2-.158,13.556,13.556,0,0,1,1.658.08,5.745,5.745,0,0,1,1.865.48c-.122.04-.248-.017-.372.01-.19.046-.387-.046-.572.042a9.4,9.4,0,0,0-2-.261,13.768,13.768,0,0,0-2.52.128,4.28,4.28,0,0,0-1.5.487c-.057.013-.114.024-.171.034-.171-.046-.346.024-.519-.012a2.025,2.025,0,0,1,.666-.461A5.036,5.036,0,0,1,505.325,159.334Z" transform="translate(-474.645 -95.221)" fill="#566672"/>
      <path id="패스_804134" data-name="패스 804134" d="M753.179,159.14a3.848,3.848,0,0,1,.61.242,1.257,1.257,0,0,0-.3.074c-.138-.059-.272-.127-.408-.191.091,0,.181-.006.271-.01C753.294,159.215,753.238,159.175,753.179,159.14Z" transform="translate(-715.335 -95.186)" fill="#bbbec2"/>
      <path id="패스_804135" data-name="패스 804135" d="M305.64,161.18a4.707,4.707,0,0,0,.9-.06,2.047,2.047,0,0,1,.257.115c-.236.019-.472.009-.707.018l.029.087C305.95,161.31,305.8,161.223,305.64,161.18Z" transform="translate(-284.021 -97.095)" fill="#cccdcf"/>
      <path id="패스_804136" data-name="패스 804136" d="M1150.233,160.568l.015-.008.208.093a2.9,2.9,0,0,1-.7.035c0,.018.006.055.008.073a2.39,2.39,0,0,1-.4-.122,3.406,3.406,0,0,1,.525-.014A.545.545,0,0,0,1150.233,160.568Z" transform="translate(-1097.333 -96.555)" fill="#d2d3d7"/>
      <path id="패스_804137" data-name="패스 804137" d="M1297.989,160.982a3.279,3.279,0,0,1,.327-.152.3.3,0,0,0,.177.06,6.161,6.161,0,0,1,.632.011c-.14.049-.278.1-.42.146C1298.479,160.95,1298.226,161.034,1297.989,160.982Z" transform="translate(-1240.607 -96.815)" fill="#cbccce"/>
      <path id="패스_804138" data-name="패스 804138" d="M84,162.026a6.906,6.906,0,0,1,1.181-.066c.577.017,1.154.008,1.731.01.645,0,1.292-.015,1.935.043a5.2,5.2,0,0,1,1.763.361,1.985,1.985,0,0,1-.343-.013,1.909,1.909,0,0,0-.668.093,10.113,10.113,0,0,0-1.968-.154c-1.069.006-2.138-.014-3.207,0a.48.48,0,0,0-.479.294c-.025.046-.051.091-.077.136-.1.014-.208.029-.313.041,0-.07-.009-.139-.013-.209A.629.629,0,0,1,84,162.026Z" transform="translate(-69.926 -97.905)" fill="#5a6c79"/>
      <path id="패스_804139" data-name="패스 804139" d="M458.348,162.16c.1.008.209.021.313.033a1.615,1.615,0,0,1-.328.186l.012-.069-.236-.047A1.256,1.256,0,0,1,458.348,162.16Z" transform="translate(-430.996 -98.098)" fill="#babec1"/>
      <path id="패스_804140" data-name="패스 804140" d="M860.779,161.908c.137,0,.274,0,.41-.008.054.281.005.567.034.849a3.139,3.139,0,0,0,.012.619c.631.011,1.261,0,1.892,0,.007-.285,0-.571.014-.856a.41.41,0,0,1,.086-.2,1.32,1.32,0,0,0-.053.426c0,.1,0,.2,0,.3,0,.154-.015.308-.018.463-.642.013-1.284,0-1.926.006l-.02-.071-.049,0c0-.137,0-.273.007-.409.019-.279.009-.558.014-.837,0-.069,0-.138,0-.207l-.4,0C860.78,161.965,860.78,161.927,860.779,161.908Z" transform="translate(-819.154 -97.848)" fill="#dadadb"/>
      <path id="패스_804141" data-name="패스 804141" d="M927.587,161.982a2.012,2.012,0,0,1,.8-.086c.276.005.551-.028.827-.005,1.178.028,2.359-.043,3.534.066a4.463,4.463,0,0,1,1.64.389,3.664,3.664,0,0,0-.525-.028c-.292.035-.586.034-.878.049a11.341,11.341,0,0,0-1.752-.106c-1.057.006-2.115-.015-3.172,0a.387.387,0,0,0-.418.38q-.13.037-.261.064l-.051-.04-.127.056a1.322,1.322,0,0,1,.053-.426A.826.826,0,0,1,927.587,161.982Z" transform="translate(-883.184 -97.831)" fill="#5a6c79"/>
      <path id="패스_804142" data-name="패스 804142" d="M1695.789,162.53a3.85,3.85,0,0,0,.4,0c.013.145.023.289.022.434.006.339-.014.679,0,1.018l.017.108c.6-.005,1.2,0,1.8,0,.4,0,.794-.012,1.19.015q2.919,0,5.838,0c.557.006,1.114-.009,1.671.006l.038.065c-3.416.01-6.832,0-10.249.006a2.3,2.3,0,0,1-.339-.026l-.005-.032c-.007-.114-.008-.229,0-.343.012-.207.011-.415.02-.622a1.313,1.313,0,0,0-.035-.434,1.458,1.458,0,0,0-.354-.012C1695.8,162.651,1695.79,162.591,1695.789,162.53Z" transform="translate(-1624.071 -98.456)" fill="#b1b4b9"/>
      <path id="패스_804143" data-name="패스 804143" d="M1161.02,163.14c.053.022.1.045.158.071-.224.1-.475.013-.709.068l-.142-.03-.007-.073A2.9,2.9,0,0,0,1161.02,163.14Z" transform="translate(-1107.898 -99.042)" fill="#b2b6b9"/>
      <path id="패스_804144" data-name="패스 804144" d="M318.757,164.3a.681.681,0,0,1,.154.069,3.149,3.149,0,0,1-.705.057l-.127-.021-.029-.087C318.286,164.309,318.522,164.319,318.757,164.3Z" transform="translate(-295.984 -100.161)" fill="#a7abae"/>
      <path id="패스_804145" data-name="패스 804145" d="M860.84,164.22l.4,0c0,.069,0,.138,0,.207l-.071-.083-.32,0Q860.843,164.282,860.84,164.22Z" transform="translate(-819.213 -100.084)" fill="#abb0b3"/>
      <path id="패스_804146" data-name="패스 804146" d="M1767.539,164.519a.617.617,0,0,1,.232-.439.722.722,0,0,0,.217.044c2.835,0,5.67,0,8.505,0a.272.272,0,0,1,.177.055c-.035.072-.091.146-.18.138-.8.016-1.608-.009-2.411,0-1.97,0-3.94,0-5.909.008a.309.309,0,0,0-.311.21Q1767.7,164.526,1767.539,164.519Z" transform="translate(-1693.235 -99.949)" fill="#63686f"/>
      <path id="패스_804147" data-name="패스 804147" d="M454.257,165.08l.122-.06.236.047-.012.069a2.92,2.92,0,0,0-.262.144c.022-.034.043-.068.065-.1l-.166-.011C454.243,165.145,454.252,165.1,454.257,165.08Z" transform="translate(-427.265 -100.855)" fill="#969b9f"/>
      <path id="패스_804148" data-name="패스 804148" d="M1165.179,165.1a1.57,1.57,0,0,1,.27.154c-.2.033-.42-.034-.6.07-.126-.051-.249-.106-.375-.156C1164.7,165.113,1164.955,165.2,1165.179,165.1Z" transform="translate(-1111.9 -100.932)" fill="#8d9396"/>
      <path id="패스_804149" data-name="패스 804149" d="M1289.2,165.235a2.181,2.181,0,0,1,.317-.185c.237.052.49-.032.717.065a3.826,3.826,0,0,0-.4.188C1289.637,165.2,1289.41,165.277,1289.2,165.235Z" transform="translate(-1232.134 -100.884)" fill="#8c9295"/>
      <path id="패스_804150" data-name="패스 804150" d="M323.1,166.22a2.178,2.178,0,0,1,.351.218c-.188.034-.393-.03-.566.067-.166-.072-.323-.162-.491-.228A3.146,3.146,0,0,0,323.1,166.22Z" transform="translate(-300.168 -102.012)" fill="#80878a"/>
      <path id="패스_804151" data-name="패스 804151" d="M764.7,165.85l.147.078c-.067.015-.133.033-.2.051,0,.017,0,.05.006.067-.085-.043-.171-.084-.257-.123A1.258,1.258,0,0,1,764.7,165.85Z" transform="translate(-726.247 -101.655)" fill="#94999d"/>
      <path id="패스_804152" data-name="패스 804152" d="M15.6,167.41c.13.007.261.009.392.006.009.067.018.133.022.2a1.386,1.386,0,0,1-.414-.027c0-.032,0-.1,0-.128Z" transform="translate(-4.434 -103.159)" fill="#788083"/>
      <path id="패스_804153" data-name="패스 804153" d="M445.354,166.863a1.791,1.791,0,0,1,.285-.183c0,.022-.013.066-.018.088l.166.011c-.021.034-.043.068-.065.1-.088.061-.178.12-.261.187,0-.031-.008-.061-.011-.091l-.152-.015C445.318,166.929,445.335,166.9,445.354,166.863Z" transform="translate(-418.648 -102.455)" fill="#71787c"/>
      <path id="패스_804154" data-name="패스 804154" d="M771.557,168.01a1.018,1.018,0,0,1,.208.115c-.087.025-.173.051-.258.079-.047-.027-.1-.051-.143-.075l-.006-.067C771.425,168.043,771.49,168.025,771.557,168.01Z" transform="translate(-732.956 -103.737)" fill="#798084"/>
      <path id="패스_804155" data-name="패스 804155" d="M13.688,170.278c.006-.47,0-.94.049-1.408,0,.032,0,.1,0,.128a1.194,1.194,0,0,0,.03.332c.117.051.258,0,.381.041,0,.11,0,.219-.007.329-.041.249.013.507-.04.753-.082.107-.245.038-.359.027-.013.084-.027.168-.042.252l-.008.04A1.43,1.43,0,0,1,13.688,170.278Z" transform="translate(-2.57 -104.569)" fill="#424b53"/>
      <path id="패스_804157" data-name="패스 804157" d="M1175.473,169.38c.063.01.107.064.159.1-.178.11-.384-.018-.567.062-.065-.032-.131-.062-.2-.09C1175.053,169.346,1175.273,169.413,1175.473,169.38Z" transform="translate(-1121.924 -105.058)" fill="#72797f"/>
      <path id="패스_804158" data-name="패스 804158" d="M1281.979,170.4a2.127,2.127,0,0,1,.26-.21c.211.042.438-.031.637.068a2.138,2.138,0,0,0-.251.156c-.04.024-.078.049-.116.074C1282.363,170.361,1282.151,170.456,1281.979,170.4Z" transform="translate(-1225.174 -105.839)" fill="#656d73"/>
      <path id="패스_804161" data-name="패스 804161" d="M775.738,171.113l.01,0a2.442,2.442,0,0,1,.419.322.337.337,0,0,0-.234.093,2.662,2.662,0,0,0-.453-.334C775.565,171.164,775.651,171.138,775.738,171.113Z" transform="translate(-736.929 -106.726)" fill="#5a6369"/>
      <path id="패스_804162" data-name="패스 804162" d="M15.609,172.41a1.386,1.386,0,0,0,.414.027c0,.115,0,.231,0,.346-.124-.044-.264.01-.381-.041A1.194,1.194,0,0,1,15.609,172.41Z" transform="translate(-4.443 -107.98)" fill="#545d64"/>
      <path id="패스_804163" data-name="패스 804163" d="M252.248,173.08a1.982,1.982,0,0,0,.343.013,1.718,1.718,0,0,1,.323.178,4.045,4.045,0,0,0-.719.074,6.132,6.132,0,0,0-.615-.172A1.911,1.911,0,0,1,252.248,173.08Z" transform="translate(-231.91 -108.625)" fill="#525f69"/>
      <path id="패스_804164" data-name="패스 804164" d="M336.566,172.241h.013a2.6,2.6,0,0,1,.346.3.749.749,0,0,1-.373,0l-.062.1a2.111,2.111,0,0,0-.49-.328C336.174,172.211,336.378,172.275,336.566,172.241Z" transform="translate(-313.287 -107.816)" fill="#565f66"/>
      <path id="패스_804165" data-name="패스 804165" d="M436.569,172.077a1.485,1.485,0,0,1,.369-.317c-.019.032-.037.066-.054.1l.152.015c0,.03.007.061.011.091-.09.077-.174.162-.258.247q-.01-.064-.021-.128Z" transform="translate(-410.232 -107.353)" fill="#535c63"/>
      <path id="패스_804167" data-name="패스 804167" d="M1180.319,172.1c.182-.08.388.048.567-.062l.008,0a2,2,0,0,1,.345.3c-.114.148-.3-.029-.425.1A2.728,2.728,0,0,0,1180.319,172.1Z" transform="translate(-1127.178 -107.623)" fill="#545d64"/>
      <path id="패스_804168" data-name="패스 804168" d="M1695,171.86h.021c.006.047.013.095.02.142l.36,0c0,.065,0,.129,0,.194a1.105,1.105,0,0,1-.362.021c-.016-.062-.03-.124-.042-.187A.783.783,0,0,1,1695,171.86Z" transform="translate(-1623.306 -107.449)" fill="#515a61"/>
      <path id="패스_804169" data-name="패스 804169" d="M1695.72,171.731c.123-.005.246-.007.37,0,0,.049.006.1.01.147l-.36,0C1695.733,171.826,1695.726,171.778,1695.72,171.731Z" transform="translate(-1624.004 -107.32)" fill="#656c72"/>
      <path id="패스_804170" data-name="패스 804170" d="M1779.177,172.44a.333.333,0,0,1,.325-.135q3.108,0,6.217,0c-.208.235-.408.478-.617.712-1.842.006-3.683,0-5.525.01a.833.833,0,0,1-.418-.074A1.762,1.762,0,0,1,1779.177,172.44Z" transform="translate(-1704.427 -107.875)" fill="#fff"/>
      <path id="패스_804171" data-name="패스 804171" d="M859.577,172.758a3.266,3.266,0,0,1,.4,0c0,.048.006.095.009.142q-.21,0-.419,0C859.572,172.855,859.574,172.807,859.577,172.758Z" transform="translate(-817.987 -108.309)" fill="#5f676d"/>
      <path id="패스_804172" data-name="패스 804172" d="M1088.487,173.722a3.665,3.665,0,0,1,.525.028,1.482,1.482,0,0,1,.669.577c.012.02.024.04.037.059a2.161,2.161,0,0,1,.132.579c-.005.072.009.157-.04.217a2.191,2.191,0,0,1-.448-.014.929.929,0,0,0-.289-.842,3.1,3.1,0,0,0-1.465-.555C1087.9,173.756,1088.195,173.756,1088.487,173.722Z" transform="translate(-1037.809 -109.238)" fill="#4b555e"/>
      <path id="패스_804173" data-name="패스 804173" d="M1707.726,173.976c.09-.029.179.021.271.012a3.4,3.4,0,0,1,.78.011c.164.033.334-.069.488.024l.072-.046.087.04a3.1,3.1,0,0,0,.016.523l.065.058a1.126,1.126,0,0,0,.309.33c0,.019,0,.058,0,.077-.829,0-1.658-.006-2.486,0-.02-.339,0-.679-.005-1.018A1.121,1.121,0,0,0,1707.726,173.976Z" transform="translate(-1635.187 -109.481)" fill="#fbfcfe"/>
      <path id="패스_804174" data-name="패스 804174" d="M689.569,174.783c.185-.088.382,0,.572-.042.123-.027.249.03.372-.01a2.021,2.021,0,0,1,.608.441,1.152,1.152,0,0,1,.286.577l.01.067c.006.058.012.116.015.175a1.063,1.063,0,0,1-.086.332c-.18.038-.366.036-.547.066a.84.84,0,0,0-.045-.945A2.319,2.319,0,0,0,689.569,174.783Z" transform="translate(-654.114 -110.218)" fill="#4a555d"/>
      <path id="패스_804176" data-name="패스 804176" d="M1282.723,174.19c.208-.089.423.051.637.013a2.159,2.159,0,0,1,.456-.063c-.016.025-.032.05-.047.076l.169-.054.068.02-.154.191.112.021a1.345,1.345,0,0,0-.333.488l-.033.075a.723.723,0,0,0-.039.213q-1.065,0-2.129,0a1.218,1.218,0,0,1,.346-.715,1.706,1.706,0,0,1,.2-.16c.038-.026.076-.05.116-.074a1.192,1.192,0,0,0,.286-.02C1282.495,174.172,1282.612,174.238,1282.723,174.19Z" transform="translate(-1224.645 -109.648)" fill="#fbfcfe"/>
      <path id="패스_804178" data-name="패스 804178" d="M873.282,175.548a.738.738,0,0,0,.375-.028,5.6,5.6,0,0,0,1.008.009c.051.01.049.079.07.117-.017.285-.007.571-.014.856-.63,0-1.261.006-1.892,0a3.139,3.139,0,0,1-.012-.619c.021-.1.039-.2.051-.3A2.328,2.328,0,0,1,873.282,175.548Z" transform="translate(-830.749 -110.978)" fill="#fbfcfe"/>
      <path id="패스_804179" data-name="패스 804179" d="M1277.229,176.193a1.878,1.878,0,0,1,.171-.183c.172.056.384-.039.529.088a1.719,1.719,0,0,0-.2.16C1277.562,176.225,1277.393,176.228,1277.229,176.193Z" transform="translate(-1220.595 -111.45)" fill="#4f585f"/>
      <path id="패스_804180" data-name="패스 804180" d="M1767.334,176.27q.158.007.318.009c.005.169-.016.34.006.509.034.075.12.1.186.136l.074.037c-.047.024-.093.048-.138.074a.852.852,0,0,0-.116.093l.137.05c-.049-.009-.1-.018-.144-.03a1.131,1.131,0,0,1-.309-.33A2.626,2.626,0,0,1,1767.334,176.27Z" transform="translate(-1693.03 -111.701)" fill="#444e55"/>
      <path id="패스_804181" data-name="패스 804181" d="M859.376,176.874q.209,0,.42,0a4.313,4.313,0,0,1-.01.448c-.015-.074-.032-.147-.047-.22a1.671,1.671,0,0,0-.37-.009C859.371,177.019,859.373,176.947,859.376,176.874Z" transform="translate(-817.794 -112.282)" fill="#4f585f"/>
      <path id="패스_804182" data-name="패스 804182" d="M1694.2,176.69c.012.063.027.125.042.187a1.1,1.1,0,0,0,.362-.021c-.006.191,0,.382,0,.574,0,.114,0,.229,0,.343-.011.075-.024.15-.036.225a2.185,2.185,0,0,1-.357-.019c-.011.039-.022.079-.03.118l-.006.029a6.191,6.191,0,0,1-.007-.706A7.207,7.207,0,0,1,1694.2,176.69Z" transform="translate(-1622.501 -112.107)" fill="#414a53"/>
      <path id="패스_804183" data-name="패스 804183" d="M268.64,178.454a4.047,4.047,0,0,1,.719-.074,1.3,1.3,0,0,1,.378.364.987.987,0,0,1,.176.4c0,.021,0,.062,0,.082,0,.119,0,.238,0,.357a.689.689,0,0,0-.374.037.955.955,0,0,0-.167-.67A1.644,1.644,0,0,0,268.64,178.454Z" transform="translate(-248.355 -113.736)" fill="#4a545d"/>
      <path id="패스_804184" data-name="패스 804184" d="M82.841,178.8l0-.067c0,.07.009.139.013.209,0,.111.005.221.009.332a.547.547,0,0,0,.372-.085c-.007.48-.013.959-.02,1.439-.013-.057-.028-.113-.043-.169a1.481,1.481,0,0,1-.357.024c0-.139,0-.278,0-.417,0-.072,0-.145,0-.217,0-.039,0-.078,0-.116s0-.1,0-.15C82.833,179.32,82.832,179.058,82.841,178.8Z" transform="translate(-69.231 -114.074)" fill="#4a545d"/>
      <path id="패스_804185" data-name="패스 804185" d="M30.2,180.6a.63.63,0,0,0,.2-.022c-.008.261-.007.523-.014.784a7,7,0,0,1-.723.014c-.416,0-.831-.007-1.246.006.005-.263,0-.527,0-.79C29.007,180.624,29.6,180.574,30.2,180.6Z" transform="translate(-16.783 -115.856)" fill="#fcfdff"/>
      <path id="패스_804186" data-name="패스 804186" d="M84.2,179.756c.026-.045.052-.09.077-.136-.006.141-.005.283-.009.424a.548.548,0,0,1-.372.085c0-.111-.005-.221-.009-.332C83.995,179.785,84.1,179.77,84.2,179.756Z" transform="translate(-70.263 -114.931)" fill="#53616c"/>
      <path id="패스_804187" data-name="패스 804187" d="M349.671,180.51a.749.749,0,0,0,.373,0,1.479,1.479,0,0,1,.426,1.142,1.759,1.759,0,0,1-.337.05c-.106-.1-.033-.281-.061-.416l-.005.038a1.957,1.957,0,0,0-.074-.187,1.541,1.541,0,0,0-.282-.428c-.033-.035-.067-.068-.1-.1Z" transform="translate(-326.406 -115.789)" fill="#424b53"/>
      <path id="패스_804188" data-name="패스 804188" d="M424.772,180.53h.017l.2.007q.011.063.021.128c0,.012,0,.037-.007.05h-.035a1.87,1.87,0,0,0-.228.429l-.027.08-.022.076a.634.634,0,0,0,0,.291c-.08.1-.222.075-.334.1A1.556,1.556,0,0,1,424.772,180.53Z" transform="translate(-398.452 -115.809)" fill="#424b53"/>
      <path id="패스_804189" data-name="패스 804189" d="M788.05,180.142a.337.337,0,0,1,.234-.093,1.374,1.374,0,0,1,.506,1.222l-.266-.007a1.48,1.48,0,0,0-.047-.436,1.155,1.155,0,0,0-.155-.349,1.357,1.357,0,0,0-.172-.236C788.117,180.208,788.083,180.175,788.05,180.142Z" transform="translate(-749.046 -115.345)" fill="#424c53"/>
      <path id="패스_804190" data-name="패스 804190" d="M1194.464,180.2l.009-.006a1.487,1.487,0,0,1,.4,1.3c-.011-.045-.021-.089-.031-.133-.115,0-.229,0-.344-.006a1.324,1.324,0,0,0-.02-.345c-.019-.062-.04-.123-.063-.184a1.126,1.126,0,0,0-.155-.274,1.416,1.416,0,0,0-.225-.246C1194.161,180.167,1194.35,180.345,1194.464,180.2Z" transform="translate(-1140.403 -115.481)" fill="#424b53"/>
      <path id="패스_804191" data-name="패스 804191" d="M1342.84,180.354a5.144,5.144,0,0,0,.654-.01,1.253,1.253,0,0,0-.677.655c-.1-.016-.2-.027-.294-.034-.009-.027-.025-.08-.034-.107a1.347,1.347,0,0,1,.333-.488Z" transform="translate(-1283.503 -115.626)" fill="#4b555e"/>
      <path id="패스_804192" data-name="패스 804192" d="M435.539,180.915a.645.645,0,0,1,.343-.175c-.011.037-.023.074-.033.111.112.007.194-.09.306-.078a7.2,7.2,0,0,1,.759,0,1.916,1.916,0,0,1,.7.074c-.013.059-.025.119-.039.178-.068.1-.129.2-.187.31a.329.329,0,0,0-.11.194,4,4,0,0,1-.62,0c-.469,0-.939,0-1.408.007-.05-.046-.046-.129-.065-.192a1.871,1.871,0,0,1,.228-.429h.035Z" transform="translate(-408.903 -116.011)" fill="#fdfdff"/>
      <path id="패스_804193" data-name="패스 804193" d="M1268.008,182.494a1.594,1.594,0,0,1,.276-1.414c.164.035.333.032.5.066a1.218,1.218,0,0,0-.346.715c0,.032-.005.1-.007.13s0,.063-.006.095c-.006.091-.014.182-.02.273l-.1.049-.009-.064-.262.027Z" transform="translate(-1211.65 -116.339)" fill="#424b53"/>
      <path id="패스_804194" data-name="패스 804194" d="M858.454,182.76a1.67,1.67,0,0,1,.37.009c.016.074.033.147.048.22.007.047.014.095.021.143,0,.136-.006.272-.007.409,0,.054,0,.107,0,.161l-.059.1a.65.65,0,0,0-.409.07C858.431,183.5,858.422,183.131,858.454,182.76Z" transform="translate(-816.88 -117.953)" fill="#414a53"/>
      <path id="패스_804195" data-name="패스 804195" d="M299.124,183.738a5.343,5.343,0,0,1,.829-.013,5.164,5.164,0,0,0,.74,0,.482.482,0,0,0,.311.074,1.541,1.541,0,0,1,.282.428q.006.136.009.272c-.645.008-1.291,0-1.937,0a.777.777,0,0,0-.1-.216.988.988,0,0,0-.175-.4Z" transform="translate(-277.698 -118.875)" fill="#fcfdfe"/>
      <path id="패스_804196" data-name="패스 804196" d="M732.654,183.537c.237-.03.478-.008.716-.027.295.047.592-.013.889.022a.871.871,0,0,0,.065.074,1.086,1.086,0,0,1,.4-.028,1.347,1.347,0,0,1,.172.236,2.438,2.438,0,0,0,.081.376,4.823,4.823,0,0,1-.823.031c-.252.009-.5-.022-.756,0a3.693,3.693,0,0,1-.485-.005,1.152,1.152,0,0,0-.286-.577Z" transform="translate(-695.623 -118.681)" fill="#fdfdff"/>
      <path id="패스_804197" data-name="패스 804197" d="M927.189,183.08l.127-.056.051.04q.131-.027.261-.064c0,.068,0,.137,0,.205a.58.58,0,0,1-.094.176c-.114.012-.228,0-.342,0C927.188,183.282,927.188,183.181,927.189,183.08Z" transform="translate(-883.17 -118.189)" fill="#53616c"/>
      <path id="패스_804198" data-name="패스 804198" d="M1145.139,183.415a6.585,6.585,0,0,0,.8.008c.157-.007.315.006.473-.006a.566.566,0,0,1,.349.044,1.239,1.239,0,0,0,.332.191,1.118,1.118,0,0,1,.156.274c-.018.08,0,.234-.129.208-.589-.007-1.18.009-1.769-.007-.1-.112-.108-.279-.21-.392l-.037-.059C1145.115,183.587,1145.127,183.5,1145.139,183.415Z" transform="translate(-1093.228 -118.585)" fill="#fdfdff"/>
      <path id="패스_804199" data-name="패스 804199" d="M493.953,186.062c.172.036.347-.034.518.012.057-.01.114-.021.171-.034a1.062,1.062,0,0,0-.5.718.941.941,0,0,0,.42.827c-.208.029-.448.114-.635-.023-.039-.025-.078-.05-.115-.077-.03-.052-.06-.1-.087-.156a1.359,1.359,0,0,1-.127-.453l.016-.1a2.8,2.8,0,0,1,.081-.338c.058-.106.119-.21.187-.31Z" transform="translate(-465.207 -121.121)" fill="#4a555d"/>
      <path id="패스_804200" data-name="패스 804200" d="M926.989,188.866a.582.582,0,0,0,.095-.176c-.012.583-.035,1.167-.016,1.75-.016-.082-.036-.163-.055-.244l-.354.044a7.67,7.67,0,0,1-.03-.794c0-.039,0-.077,0-.116,0-.155.019-.308.018-.463C926.761,188.867,926.875,188.878,926.989,188.866Z" transform="translate(-882.628 -123.676)" fill="#4a545d"/>
      <path id="패스_804201" data-name="패스 804201" d="M15.01,192.623c.053-.246,0-.5.04-.753,0,.131,0,.262,0,.393,0,.081.009.162.015.243.667.009,1.334,0,2,.007,0,.072,0,.145,0,.217-.244.019-.488-.025-.732-.007-.305.017-.611,0-.915,0a.95.95,0,0,0-.3.046c-.078.065-.057.182-.065.272-.139.023-.278.04-.418.05-.009-.061-.018-.123-.026-.184.014-.084.028-.168.042-.252C14.765,192.661,14.928,192.73,15.01,192.623Z" transform="translate(-3.479 -126.741)" fill="#605f64"/>
      <path id="패스_804202" data-name="패스 804202" d="M742.552,191.96a1.153,1.153,0,0,1,.155.349c.006.057.009.115.01.173-.386.041-.776-.012-1.162.027-.3-.013-.6.013-.9,0-.026-.029-.05-.058-.074-.088l-.01-.067a3.693,3.693,0,0,0,.485.005c.252-.017.5.014.756,0a4.824,4.824,0,0,0,.823-.031A2.446,2.446,0,0,1,742.552,191.96Z" transform="translate(-703.276 -126.827)" fill="#d5d5d7"/>
      <path id="패스_804203" data-name="패스 804203" d="M1146.13,192.37c.1.113.113.28.21.392.589.016,1.179,0,1.769.007.125.026.111-.128.129-.208q.034.091.063.184c-.013.058-.026.116-.037.174a1.737,1.737,0,0,1-.48.03c-.507,0-1.014,0-1.521,0A2.161,2.161,0,0,0,1146.13,192.37Z" transform="translate(-1094.221 -127.223)" fill="#ceced0"/>
      <path id="패스_804204" data-name="패스 804204" d="M1779.973,194.371q3.97.007,7.94,0a.238.238,0,0,1,.23.112q-4.117,0-8.234,0c.045-.026.091-.05.138-.074Z" transform="translate(-1705.159 -129.15)" fill="#3d464d"/>
      <path id="패스_804205" data-name="패스 804205" d="M1341.579,194.785l.033-.075.034.107c.1.007.2.017.294.034-.012.035-.023.071-.032.107a1.626,1.626,0,0,0-.307-.02C1341.594,194.887,1341.586,194.836,1341.579,194.785Z" transform="translate(-1282.626 -129.478)" fill="#61676d"/>
      <path id="패스_804206" data-name="패스 804206" d="M1435.561,195.293c2.031-.006,4.062-.026,6.092,0a.6.6,0,0,1,.489.216.126.126,0,0,1-.126.062h-5.984c-.219,0-.437.006-.656-.005l-.168-.027C1435.208,195.355,1435.409,195.284,1435.561,195.293Z" transform="translate(-1372.882 -130.027)" fill="#eff1f5"/>
      <path id="패스_804207" data-name="패스 804207" d="M1283.221,197.013a.731.731,0,0,1,.038-.213q.01.076.022.152a1.62,1.62,0,0,1,.307.02c-.007.03-.022.088-.028.118-.03.1-.071.21-.179.241-.067-.022-.086-.1-.115-.152l-.018-.041c-.028.036-.054.073-.081.11-.685.011-1.372.007-2.057,0l-.031-.011c0-.032,0-.063.006-.095.273.02.547.007.821.009.2-.009.409.03.615.006.189-.018.38.006.569-.008.055,0,.09-.047.127-.081Z" transform="translate(-1224.306 -131.493)" fill="#858688"/>
      <path id="패스_804208" data-name="패스 804208" d="M1776.8,197.414q4.117,0,8.234,0l.054.016a1.367,1.367,0,0,1-.177.113l-.1.045c-.03.012-.056.027-.083.04a.948.948,0,0,0-.428-.044q-2.055,0-4.111,0a2.751,2.751,0,0,0-.531.021c-.567,0-1.134,0-1.7,0-.33-.008-.66.017-.988-.013l-.149-.037-.137-.05A.862.862,0,0,1,1776.8,197.414Z" transform="translate(-1702.047 -132.082)" fill="#eee"/>
      <path id="패스_804209" data-name="패스 804209" d="M305.98,197.89a1.948,1.948,0,0,1,.074.187c-.009.077-.018.154-.027.231-.671,0-1.341.006-2.012,0-.022-.091-.046-.182-.061-.274l0-.082a.777.777,0,0,1,.1.216c.645,0,1.291.005,1.937,0Q305.986,198.025,305.98,197.89Z" transform="translate(-282.392 -132.544)" fill="#9a999e"/>
      <path id="패스_804210" data-name="패스 804210" d="M434.457,197.224c.019.063.015.146.065.192.469-.01.939,0,1.408-.007a3.992,3.992,0,0,0,.62,0,.329.329,0,0,1,.11-.194,2.8,2.8,0,0,0-.081.338c-.7.006-1.4,0-2.094,0a1.42,1.42,0,0,1-.055-.248Z" transform="translate(-408.17 -131.888)" fill="#d8d8da"/>
      <path id="패스_804211" data-name="패스 804211" d="M1779.328,197.92a2.083,2.083,0,0,1-.021.654c-.042.125-.192.12-.3.123-1.057,0-2.114-.021-3.171,0h-4.4a.768.768,0,0,0-.429.135c.01-.03.021-.061.032-.091a1.315,1.315,0,0,1-.292-.021.382.382,0,0,1-.042-.125,1.288,1.288,0,0,1,.414-.244c.874-.017,1.748,0,2.621-.007q2.506,0,5.011,0a2.287,2.287,0,0,1,.338.043c.006-.118-.036-.258.057-.351A1.348,1.348,0,0,0,1779.328,197.92Z" transform="translate(-1696.29 -132.574)" fill="#4d555d"/>
      <path id="패스_804212" data-name="패스 804212" d="M433.652,199.9l.022-.076a1.42,1.42,0,0,0,.055.248c.7-.007,1.4,0,2.094,0l-.016.1c-.235.021-.471.007-.706.01-.445,0-.89,0-1.335,0C433.618,200.185,433.644,199.992,433.652,199.9Z" transform="translate(-407.413 -134.405)" fill="#969498"/>
      <path id="패스_804213" data-name="패스 804213" d="M1446.646,201.56c.014.041.026.082.039.124-.205.019-.413,0-.617.034-.931.025-1.864,0-2.8.013-1.053,0-2.106.012-3.158,0-.081-.033-.157-.075-.234-.112.218.012.437,0,.655.005h5.984A.127.127,0,0,0,1446.646,201.56Z" transform="translate(-1377.384 -136.082)" fill="#677178"/>
      <path id="패스_804214" data-name="패스 804214" d="M1710.044,200.62c.047.012.1.021.144.03l.149.037.026.049.016.031c.939.023,1.88-.014,2.819.02,1.466,0,2.932,0,4.4,0a.929.929,0,0,0,.5-.066c.027-.013.053-.029.083-.04a1.212,1.212,0,0,1-.02.265.158.158,0,0,1-.044-.054l-.038-.065c-.557-.016-1.114,0-1.671-.006q-2.919,0-5.838,0c-.4-.027-.793-.011-1.19-.015-.6,0-1.2,0-1.8,0l-.016-.108c.828-.009,1.657,0,2.486,0C1710.046,200.678,1710.045,200.639,1710.044,200.62Z" transform="translate(-1635.417 -135.176)" fill="#dbdbdd"/>
      <path id="패스_804215" data-name="패스 804215" d="M1717.282,201.105l.1-.045c-.094.093-.051.234-.057.351a2.3,2.3,0,0,0-.338-.043q-2.506,0-5.011,0c-.874,0-1.748-.009-2.622.007-.9.022-1.806.005-2.708.011l-.016-.092a2.3,2.3,0,0,0,.339.026c3.417-.007,6.833,0,10.249-.006a.156.156,0,0,0,.044.054A1.243,1.243,0,0,0,1717.282,201.105Z" transform="translate(-1634.521 -135.6)" fill="#858689"/>
      <path id="패스_804216" data-name="패스 804216" d="M29.646,202.354a7.011,7.011,0,0,0,.723-.014c0,.05,0,.1,0,.15-.645.011-1.29,0-1.935.006l-.031-.073v-.062C28.815,202.347,29.23,202.358,29.646,202.354Z" transform="translate(-16.772 -136.834)" fill="#dadadb"/>
      <path id="패스_804217" data-name="패스 804217" d="M292.327,201.82c.015.092.039.183.061.274.671.009,1.341,0,2.012,0,.009-.077.018-.154.027-.231l.005-.038c.028.135-.045.311.061.416a1.762,1.762,0,0,0,.337-.05,2.186,2.186,0,0,1-.147.607l-.027-.092a2.32,2.32,0,0,0-.3-.03c-.005-.025-.017-.075-.022-.1.021-.071.067-.171-.016-.221a1.449,1.449,0,0,0-.407-.016c-.457,0-.914-.008-1.371,0-.13-.006-.236.082-.359.107a2.757,2.757,0,0,1-.293.035,1.346,1.346,0,0,0,.061-.265.689.689,0,0,1,.374-.037C292.325,202.058,292.327,201.939,292.327,201.82Z" transform="translate(-270.767 -136.334)" fill="#605f65"/>
      <path id="패스_804218" data-name="패스 804218" d="M426.8,202.231a.633.633,0,0,1,0-.291c-.008.1-.034.288.114.273.445.006.89,0,1.335,0,.235,0,.471.01.706-.01a1.362,1.362,0,0,0,.126.453c-.614-.012-1.229,0-1.843-.008a.9.9,0,0,0-.306.032c-.048.1.037.191.079.273a1.448,1.448,0,0,0,.247.288,2.726,2.726,0,0,0,.589.4,6.408,6.408,0,0,0,1.464.511,13.21,13.21,0,0,0,1.314.217c.61.084,1.226.095,1.839.138.588.011,1.177.008,1.765,0a19.919,19.919,0,0,0,3.192-.33,5.606,5.606,0,0,0,1.7-.608,1.855,1.855,0,0,0,.433-.326,1.549,1.549,0,0,0,.323-.433.542.542,0,0,0,.035-.288c-.621-.009-1.243,0-1.864-.01a1.035,1.035,0,0,0-.255.032,1.06,1.06,0,0,0,.086-.332c.7-.011,1.408-.008,2.112,0-.016.161-.011.323-.024.484a.352.352,0,0,0,.208-.018l.017.133a1.956,1.956,0,0,1-.884.921,6.58,6.58,0,0,1-2.081.662,17.636,17.636,0,0,1-1.774.2c-.335.039-.673.018-1.007.052a24.875,24.875,0,0,1-4.971-.277,7.585,7.585,0,0,1-1.661-.49,2.222,2.222,0,0,1-1.277-1.186l.045-.119.227-.029A1.05,1.05,0,0,0,426.8,202.231Z" transform="translate(-400.563 -136.452)" fill="#65696f"/>
      <path id="패스_804219" data-name="패스 804219" d="M799.215,201.65a1.478,1.478,0,0,1,.047.436l.266.007a1.49,1.49,0,0,1-.114.445c-.006-.044-.011-.089-.017-.133a.351.351,0,0,1-.208.018c.013-.161.009-.323.024-.484,0-.039.008-.077.012-.116C799.224,201.765,799.221,201.707,799.215,201.65Z" transform="translate(-759.784 -136.17)" fill="#545b62"/>
      <path id="패스_804220" data-name="패스 804220" d="M1788,202.159a2.748,2.748,0,0,1,.531-.021q2.056,0,4.111,0a.946.946,0,0,1,.427.044.927.927,0,0,1-.5.066c-1.466,0-2.933,0-4.4,0-.939-.035-1.88,0-2.819-.02l-.016-.031c.812.025,1.625,0,2.438.012A.5.5,0,0,0,1788,202.159Z" transform="translate(-1710.394 -136.636)" fill="#b9babe"/>
      <path id="패스_804221" data-name="패스 804221" d="M26.96,202.77l.052.067.031.073c.645-.005,1.29.005,1.935-.006,0,.039,0,.078,0,.116-.667-.012-1.333,0-2-.007C26.969,202.932,26.963,202.851,26.96,202.77Z" transform="translate(-15.385 -137.249)" fill="#969497"/>
      <path id="패스_804222" data-name="패스 804222" d="M1136.463,202.79a1.341,1.341,0,0,1,.02.345q.171.006.344.006l.031.133a1.47,1.47,0,0,1-.106.4c-.013-.036-.024-.072-.035-.107-.1,0-.191.005-.286,0l-.041-.141a2.2,2.2,0,0,0-.513-.022c-.422,0-.843,0-1.265,0-.136,0-.262.066-.4.063s-.242-.007-.363,0a1.533,1.533,0,0,0,.087-.273,2.192,2.192,0,0,0,.448.014c.049-.06.035-.145.04-.217.507,0,1.014,0,1.521,0a1.739,1.739,0,0,0,.48-.03C1136.437,202.906,1136.449,202.848,1136.463,202.79Z" transform="translate(-1082.383 -137.269)" fill="#65656a"/>
      <path id="패스_804223" data-name="패스 804223" d="M1281.246,202.656q1.065-.005,2.129,0l0,.058c-.037.034-.072.082-.127.081-.19.014-.38-.01-.569.008-.205.024-.41-.016-.615-.007-.274,0-.548.01-.821-.009C1281.241,202.754,1281.244,202.689,1281.246,202.656Z" transform="translate(-1224.461 -137.136)" fill="#d2d2d2"/>
      <path id="패스_804224" data-name="패스 804224" d="M1434.708,202.39l.168.027c.078.037.154.079.235.112a2.427,2.427,0,0,0-.422.042C1434.693,202.511,1434.7,202.45,1434.708,202.39Z" transform="translate(-1372.381 -136.882)" fill="#444d54"/>
      <path id="패스_804225" data-name="패스 804225" d="M1784.63,202.47c.328.03.658.005.988.013.567,0,1.134,0,1.7,0a.5.5,0,0,1-.225.05c-.813-.013-1.626.012-2.438-.012Z" transform="translate(-1709.71 -136.959)" fill="#a1a5a8"/>
      <path id="패스_804226" data-name="패스 804226" d="M871.329,204.6l.049,0,.02.071c.642,0,1.284.008,1.926-.006,0,.039,0,.077,0,.116-.65-.012-1.3,0-1.951-.006l-.04-.016C871.33,204.707,871.329,204.654,871.329,204.6Z" transform="translate(-829.323 -139.013)" fill="#969497"/>
      <path id="패스_804227" data-name="패스 804227" d="M740.85,204.85c.024.03.049.059.074.088.3.009.6-.017.9,0,.386-.039.776.014,1.162-.027,0,.039-.008.077-.012.116-.7-.007-1.408-.009-2.111,0C740.862,204.966,740.856,204.908,740.85,204.85Z" transform="translate(-703.547 -139.254)" fill="#969498"/>
      <path id="패스_804228" data-name="패스 804228" d="M1340.627,205.1c.107-.031.149-.144.179-.241a.942.942,0,0,0,.372.894,2.523,2.523,0,0,0,.8.367,7.272,7.272,0,0,1-.995-.056l-.025-.019a1.479,1.479,0,0,1-.247-.262,1.71,1.71,0,0,1-.19-.35c-.027-.159-.1-.336-.009-.485C1340.541,205,1340.559,205.079,1340.627,205.1Z" transform="translate(-1281.552 -139.265)" fill="#4b555d"/>
      <path id="패스_804229" data-name="패스 804229" d="M1611.59,205.024c.2-.034.411-.014.616-.034,0,.159-.013.319-.009.478a.385.385,0,0,1-.347-.071c-.018-.106.043-.265-.058-.334C1611.724,205.047,1611.658,205.033,1611.59,205.024Z" transform="translate(-1542.906 -139.389)" fill="#4a535b"/>
      <path id="패스_804230" data-name="패스 804230" d="M1284.068,206.18l.018.041c-.1.15-.019.327.009.485a3.52,3.52,0,0,0-.721-.034c-.336,0-.672.005-1.008,0a1.818,1.818,0,0,0-.357.03c0-.024-.012-.071-.017-.095l-.038.05c-.011-.121-.018-.243-.025-.364.685.005,1.372.009,2.057,0C1284.014,206.253,1284.04,206.216,1284.068,206.18Z" transform="translate(-1225.127 -140.536)" fill="#656469"/>
      <path id="패스_804231" data-name="패스 804231" d="M1434.554,206.283a2.427,2.427,0,0,1,.422-.043l-.034.081c1.989.01,3.978,0,5.967.009a.282.282,0,0,0,.223-.062c.1.069.04.228.058.334,0,.044,0,.089,0,.133-.092-.137-.256-.055-.389-.066-.174-.012-.348.008-.52-.012-.188-.021-.374.033-.562.015s-.373,0-.559-.014a1.093,1.093,0,0,0-.353.024l-.071-.053a1.165,1.165,0,0,0-.784-.225c-.925,0-1.85,0-2.775,0a.63.63,0,0,0-.487.2c-.045.017-.091.03-.135.045A3.147,3.147,0,0,1,1434.554,206.283Z" transform="translate(-1372.246 -140.594)" fill="#656469"/>
      <path id="패스_804232" data-name="패스 804232" d="M1445.473,205.932c1.052.013,2.105,0,3.158,0,.932-.013,1.864.012,2.8-.013.068.009.134.023.2.039a.283.283,0,0,1-.223.062c-1.989-.007-3.978,0-5.967-.009Z" transform="translate(-1382.743 -140.285)" fill="#93959a"/>
      <path id="패스_804233" data-name="패스 804233" d="M1695.173,206.74l.005.032.016.092c0,.106-.022.21-.032.315v.041c-.131-.006-.263,0-.393-.012-.007-.048-.013-.1-.017-.144s.018-.079.03-.118a2.183,2.183,0,0,0,.357.019C1695.149,206.89,1695.162,206.815,1695.173,206.74Z" transform="translate(-1623.069 -141.076)" fill="#50575f"/>
      <path id="패스_804234" data-name="패스 804234" d="M858.883,209.07l.04.016a1.8,1.8,0,0,1-.06.3c-.008.071-.092.052-.14.052-.1-.007-.206-.022-.309-.031,0-.057,0-.114,0-.17a.649.649,0,0,1,.409-.07Z" transform="translate(-816.875 -143.322)" fill="#4f565e"/>
      <path id="패스_804235" data-name="패스 804235" d="M1269.975,208.97l.031.011c.006.121.013.243.024.364,0,.063,0,.125,0,.189-.136,0-.31-.1-.407.04a1.365,1.365,0,0,1-.067-.194l.021-.123.262-.027c0,.016.007.048.009.064l.1-.049C1269.961,209.152,1269.969,209.061,1269.975,208.97Z" transform="translate(-1213.203 -143.226)" fill="#575e65"/>
      <path id="패스_804236" data-name="패스 804236" d="M424.8,210.01a1.05,1.05,0,0,1,.011.324l-.227.029-.045.119a2.195,2.195,0,0,1-.075-.373C424.582,210.085,424.725,210.11,424.8,210.01Z" transform="translate(-398.569 -144.229)" fill="#4f575e"/>
      <path id="패스_804237" data-name="패스 804237" d="M858.9,209.52c.65.006,1.3-.006,1.951.006a7.671,7.671,0,0,0,.03.794l.354-.044c.019.081.039.162.055.244l.014.083a.99.99,0,0,1-.446,0c-.007-.124-.014-.249-.023-.373-.007-.085-.013-.17-.019-.255-.6-.023-1.2,0-1.8-.014a.149.149,0,0,0-.155.163c-.018.37,0,.741,0,1.111.012-.086.023-.172.031-.258,0,.126,0,.252.007.377l.108.117a4.261,4.261,0,0,0,.49.03c1.549.01,3.1,0,4.648-.005.432-.029.865,0,1.3-.024.385-.005.769.006,1.153-.03a13.624,13.624,0,0,0,1.657-.109,6.74,6.74,0,0,0,1.773-.447,1.589,1.589,0,0,0,.147-.072,1.385,1.385,0,0,0,.243-.18,1.776,1.776,0,0,0,.3-.334.981.981,0,0,0,.142-.376c.014.046.027.094.041.141.1,0,.191,0,.287,0,.012.036.023.071.035.107a1.9,1.9,0,0,1-1.052,1.039,7.944,7.944,0,0,1-2.278.5c-.957.092-1.919.091-2.88.1q-2.793.048-5.588.024a1.39,1.39,0,0,1-.83-.157.432.432,0,0,1-.181-.36c-.027-.485-.019-.972-.019-1.457.1.009.205.024.309.031.048,0,.132.019.14-.052A1.8,1.8,0,0,0,858.9,209.52Z" transform="translate(-816.853 -143.759)" fill="#656970"/>
      <path id="패스_804238" data-name="패스 804238" d="M1706.212,209.87c.9-.006,1.806.011,2.708-.011a1.29,1.29,0,0,0-.414.244,7.585,7.585,0,0,0-1.029-.034c-.375,0-.751-.027-1.125.009a.248.248,0,0,0-.171.107C1706.191,210.08,1706.208,209.976,1706.212,209.87Z" transform="translate(-1634.087 -144.083)" fill="#625f64"/>
      <path id="패스_804239" data-name="패스 804239" d="M1438.47,211a.63.63,0,0,1,.488-.2c.925,0,1.849,0,2.774,0a1.165,1.165,0,0,1,.784.225,2.509,2.509,0,0,1-.46.019c-1.07,0-2.139,0-3.209,0A.843.843,0,0,1,1438.47,211Z" transform="translate(-1376.025 -144.978)" fill="#404952"/>
      <path id="패스_804240" data-name="패스 804240" d="M27,215.466a.949.949,0,0,1,.3-.046c.3,0,.61.021.915,0,.244-.018.488.027.732.007,0,.139,0,.278,0,.417-.023-.055-.018-.158-.1-.156-.517-.013-1.035,0-1.552-.006a1.34,1.34,0,0,0-.247.01.415.415,0,0,0-.112.147l0-.105C26.938,215.648,26.917,215.531,27,215.466Z" transform="translate(-15.356 -149.444)" fill="#6f6e73"/>
      <path id="패스_804241" data-name="패스 804241" d="M1706.3,215.477c.374-.036.75,0,1.125-.009a7.586,7.586,0,0,1,1.029.034,1.41,1.41,0,0,0-.123.49c-.023-.046-.044-.092-.065-.137a4.9,4.9,0,0,0-.559.012c-.452.006-.9-.01-1.357-.008a.429.429,0,0,0-.221.081c0-.1,0-.209,0-.314l0-.041A.247.247,0,0,1,1706.3,215.477Z" transform="translate(-1634.036 -149.483)" fill="#747378"/>
      <path id="패스_804242" data-name="패스 804242" d="M289.214,216.212c.123-.025.229-.113.359-.107.457,0,.914.009,1.371,0a1.449,1.449,0,0,1,.407.016c.083.05.037.15.016.221-.017.04-.036.08-.055.119a1.4,1.4,0,0,0-.26-.032c-.747,0-1.495-.01-2.242.013a1.4,1.4,0,0,0,.111-.2A2.76,2.76,0,0,0,289.214,216.212Z" transform="translate(-267.798 -150.103)" fill="#727176"/>
      <path id="패스_804243" data-name="패스 804243" d="M1434.72,216.606c.044-.016.091-.028.135-.045a.842.842,0,0,0,.377.038c1.07,0,2.139,0,3.209,0a2.507,2.507,0,0,0,.459-.019l.071.053a1.334,1.334,0,0,1,.137.355c-.1.017-.194.031-.29.044-.057-.1-.118-.228-.245-.257a2.685,2.685,0,0,0-.6-.028c-1.01-.005-2.02.008-3.03,0A.213.213,0,0,1,1434.72,216.606Z" transform="translate(-1372.41 -150.544)" fill="#4e5f69"/>
      <path id="패스_804244" data-name="패스 804244" d="M1283.94,216.27a.386.386,0,0,0,.347.071c0,.453.015.908-.024,1.36a.577.577,0,0,1-.2.446,1.013,1.013,0,0,1-.587.118q-2.974,0-5.948,0c-.852,0-1.705.008-2.554-.079a7.908,7.908,0,0,1-2.4-.545,2.175,2.175,0,0,1-1.155-1.03c.1-.137.271-.043.407-.04,0-.063,0-.126,0-.189l.038-.05.017.095a.733.733,0,0,0,.15.364,1.868,1.868,0,0,0,.319.339,1.55,1.55,0,0,0,.486.275,5.666,5.666,0,0,0,.877.259,6.2,6.2,0,0,0,1.479.172c.088,0,.188-.014.26.051.368.04.739.02,1.108.025h7.137c.092.005.214-.011.224-.126a2.9,2.9,0,0,0,.04-.326,4.77,4.77,0,0,0-.018-1.056C1283.939,216.359,1283.939,216.314,1283.94,216.27Z" transform="translate(-1214.995 -150.266)" fill="#656971"/>
      <path id="패스_804245" data-name="패스 804245" d="M1694.261,215.76l.007-.029c0,.048.01.1.017.144.131.007.262.006.394.012,0,.1,0,.209,0,.314,0,.161,0,.322,0,.483a2.468,2.468,0,0,0,.025.607c.031.13.185.126.292.132h9.406c.5,0,.995-.009,1.492.009l.038,0c0-.084,0-.168.007-.252l.045-.024a1.615,1.615,0,0,0,.032.319.884.884,0,0,0,.128.166,1.045,1.045,0,0,0-.006-.569l.063-.05.023-.019a2.582,2.582,0,0,1-.032.645.157.157,0,0,1-.172.122h-10.81a1.875,1.875,0,0,1-.7-.069c-.2-.084-.239-.331-.253-.523C1694.253,216.707,1694.24,216.232,1694.261,215.76Z" transform="translate(-1622.587 -149.747)" fill="#656a70"/>
      <path id="패스_804246" data-name="패스 804246" d="M1479.236,217.695a1.093,1.093,0,0,1,.353-.024c.186.018.373,0,.559.014s.374-.036.562-.015c.172.021.347,0,.52.012.133.011.3-.071.389.066a4.755,4.755,0,0,1,.018,1.056,4.265,4.265,0,0,0-.054-.733c-.6-.02-1.2,0-1.8-.01a1,1,0,0,0-.313.022,1.029,1.029,0,0,0-.065.374c-.007.05-.015.1-.025.148a1.548,1.548,0,0,1-.1.2c-.326.014-.649-.032-.974-.027-.529,0-1.058-.021-1.588-.027a1.08,1.08,0,0,1-.235-.049c.594-.023,1.189,0,1.783-.007a3.3,3.3,0,0,0,.691-.03l.032-.008c.1-.024.213-.021.319-.043.076-.08.064-.211.076-.315,0-.083-.006-.165-.016-.247A1.334,1.334,0,0,0,1479.236,217.695Z" transform="translate(-1412.674 -151.609)" fill="#7a797e"/>
      <path id="패스_804247" data-name="패스 804247" d="M1766.7,217.12a1.413,1.413,0,0,1,.123-.49.385.385,0,0,0,.043.125,1.314,1.314,0,0,0,.292.021c-.011.03-.022.061-.032.091a1.018,1.018,0,0,0-.107.252,1.366,1.366,0,0,0,.007.382c-.1,0-.2,0-.3,0,0,.03-.011.091-.014.121l-.017-.056c0-.014-.009-.041-.013-.054A1.853,1.853,0,0,1,1766.7,217.12Z" transform="translate(-1692.406 -150.612)" fill="#64696f"/>
      <path id="패스_804248" data-name="패스 804248" d="M717.846,218.041a1.036,1.036,0,0,1,.256-.032c.621.007,1.243,0,1.864.01a.542.542,0,0,1-.035.288l-.075-.074c-.633,0-1.266,0-1.9,0-.155-.007-.276.117-.429.117s-.312,0-.468.016a1.5,1.5,0,0,0,.239-.256C717.481,218.077,717.666,218.079,717.846,218.041Z" transform="translate(-680.614 -151.94)" fill="#727176"/>
      <path id="패스_804249" data-name="패스 804249" d="M1130.944,219.913c.136,0,.261-.064.4-.063.422.008.843.006,1.265,0a2.2,2.2,0,0,1,.513.022.981.981,0,0,1-.142.376c-.019-.042-.037-.084-.054-.125a4.977,4.977,0,0,1-.751.013c-.395,0-.79-.018-1.184.017a1.351,1.351,0,0,0-.529-.06,1.481,1.481,0,0,0,.122-.183C1130.7,219.906,1130.823,219.912,1130.944,219.913Z" transform="translate(-1079.115 -153.715)" fill="#7a7b80"/>
      <path id="패스_804250" data-name="패스 804250" d="M1284.119,219.789a1.818,1.818,0,0,1,.357-.03c.336.008.672,0,1.009,0a3.514,3.514,0,0,1,.721.034,1.716,1.716,0,0,0,.19.35,1.6,1.6,0,0,0-.479-.027c-.348,0-.7,0-1.046,0a2.3,2.3,0,0,0-.6.034A.733.733,0,0,1,1284.119,219.789Z" transform="translate(-1227.237 -153.627)" fill="#7d7d82"/>
      <path id="패스_804251" data-name="패스 804251" d="M13.724,220.56l.008-.04c.008.061.017.123.026.184.14-.01.279-.027.418-.05l0,.105c0,.085.007.169.007.254a7.378,7.378,0,0,0,.017.866c.009.064.01.15.081.178a.788.788,0,0,0,.227.031c.753.025,1.507.01,2.261.015,1.057,0,2.115.005,3.171-.025.235,0,.469,0,.7-.005A21.634,21.634,0,0,0,22.874,222a7.791,7.791,0,0,0,2.4-.494,1.623,1.623,0,0,0,.478-.285,1.253,1.253,0,0,0,.368-.5c.019-.04.037-.079.055-.119.006.025.017.075.022.1a2.323,2.323,0,0,1,.3.03l.027.092a1.925,1.925,0,0,1-.488.643,3.058,3.058,0,0,1-1.2.559,13.878,13.878,0,0,1-3.012.358c-.781.012-1.563,0-2.343.032-1.646.005-3.293.028-4.94,0a1.041,1.041,0,0,1-.614-.145.426.426,0,0,1-.194-.365c-.01-.254,0-.508-.024-.761A2.989,2.989,0,0,1,13.724,220.56Z" transform="translate(-2.602 -154.364)" fill="#656971"/>
      <path id="패스_804252" data-name="패스 804252" d="M871.2,221.783a.149.149,0,0,1,.155-.162c.6.016,1.2-.009,1.8.014.006.085.013.17.019.255-.292,0-.584,0-.876,0s-.6-.03-.9,0c-.053.008-.127,0-.145.064a1.2,1.2,0,0,0-.025.483c0,.066,0,.131,0,.2-.008.086-.019.173-.031.258C871.192,222.524,871.177,222.153,871.2,221.783Z" transform="translate(-829.186 -155.423)" fill="#7e7f83"/>
      <path id="패스_804253" data-name="패스 804253" d="M437.089,221.652a.9.9,0,0,1,.306-.032c.614.01,1.229,0,1.843.008.027.053.057.1.087.156.018.035.038.07.057.106a1.554,1.554,0,0,0-.337-.053c-.405,0-.811-.007-1.217.006-.212.011-.425-.008-.636-.012-.006.024-.018.072-.023.1C437.126,221.843,437.041,221.748,437.089,221.652Z" transform="translate(-410.72 -155.421)" fill="#7b7c80"/>
      <path id="패스_804254" data-name="패스 804254" d="M1778.724,222.5a.45.45,0,0,1,.369-.148c1.528,0,3.057,0,4.585,0-.221.269-.465.519-.674.8-1.136,0-2.272,0-3.408-.007a4.268,4.268,0,0,1-.795-.035.161.161,0,0,1-.137-.124A.718.718,0,0,1,1778.724,222.5Z" transform="translate(-1703.944 -156.126)" fill="#fff"/>
      <path id="패스_804255" data-name="패스 804255" d="M27.01,222.94a.415.415,0,0,1,.112-.147,1.34,1.34,0,0,1,.247-.01c.517.01,1.035-.007,1.552.006.082,0,.077.1.1.156,0,.071,0,.141,0,.212-.013-.044-.028-.086-.043-.129a6.719,6.719,0,0,0-.781-.019c-.368,0-.737-.011-1.1.005-.027.059-.054.119-.078.18C27.017,223.109,27.012,223.024,27.01,222.94Z" transform="translate(-15.433 -156.541)" fill="#808085"/>
      <path id="패스_804256" data-name="패스 804256" d="M710.345,224.239c.153,0,.274-.125.429-.118.633,0,1.266,0,1.9,0l.075.074a1.548,1.548,0,0,1-.323.433c.024-.058.048-.117.071-.176-.289-.017-.578,0-.866-.023-.416.018-.833.026-1.248.006a7.373,7.373,0,0,0-.774-.005,2.137,2.137,0,0,0,.269-.18C710.033,224.24,710.189,224.247,710.345,224.239Z" transform="translate(-673.432 -157.833)" fill="#85878c"/>
      <path id="패스_804257" data-name="패스 804257" d="M284.569,225.233c.747-.023,1.495-.015,2.242-.013a1.4,1.4,0,0,1,.26.032,1.253,1.253,0,0,1-.368.5c0-.048-.006-.1-.009-.145-.631-.019-1.262-.009-1.892-.009l.083-.182c-.158,0-.316,0-.473,0A1.512,1.512,0,0,0,284.569,225.233Z" transform="translate(-263.557 -158.89)" fill="#8a8c91"/>
      <path id="패스_804258" data-name="패스 804258" d="M82.819,226.654a1.482,1.482,0,0,0,.357-.024c.015.056.03.112.043.169.006.087.01.174.019.26a1.435,1.435,0,0,0-.412,0v-.062c0-.043,0-.085-.006-.128C82.819,226.8,82.82,226.725,82.819,226.654Z" transform="translate(-69.231 -160.251)" fill="#5a636b"/>
      <path id="패스_804259" data-name="패스 804259" d="M499.52,226.15c.037.027.076.053.115.077.187.137.427.052.635.023a3.227,3.227,0,0,0,.832.38,7.16,7.16,0,0,1-.815.054l.191.146-.085.008-.052-.023c-.106-.058-.21-.119-.321-.168a2.13,2.13,0,0,1-.444-.391C499.557,226.22,499.538,226.185,499.52,226.15Z" transform="translate(-470.914 -159.789)" fill="#656e75"/>
      <path id="패스_804260" data-name="패스 804260" d="M1706.42,226.283c.452,0,.9.013,1.357.008a4.9,4.9,0,0,1,.559-.012c.021.046.042.092.065.137a1.845,1.845,0,0,0-.018.394c-.014-.062-.029-.125-.042-.187-.459-.028-.921.007-1.38-.011a4.366,4.366,0,0,0-.684.021.8.8,0,0,0-.075.214c0-.161,0-.322,0-.483A.43.43,0,0,1,1706.42,226.283Z" transform="translate(-1634.105 -159.909)" fill="#8d8e93"/>
      <path id="패스_804261" data-name="패스 804261" d="M439.693,227.42c.212,0,.424.023.636.012.405-.013.811,0,1.217-.006a1.552,1.552,0,0,1,.337.053,2.131,2.131,0,0,0,.444.391c-.173-.028-.3-.194-.483-.172-.632,0-1.264,0-1.9,0l-.032.1a1.446,1.446,0,0,1-.247-.288C439.676,227.492,439.687,227.444,439.693,227.42Z" transform="translate(-413.221 -161.013)" fill="#8d8e93"/>
      <path id="패스_804262" data-name="패스 804262" d="M1123.67,226.927a1.783,1.783,0,0,0,.245-.217,1.351,1.351,0,0,1,.529.06c.394-.034.789-.015,1.184-.017a4.978,4.978,0,0,0,.751-.013c.017.041.035.083.054.125a1.78,1.78,0,0,1-.3.334c.038-.071.074-.144.112-.216-.668-.011-1.337,0-2,0l.021-.1C1124.06,226.88,1123.867,226.924,1123.67,226.927Z" transform="translate(-1072.57 -160.329)" fill="#8d8e93"/>
      <path id="패스_804263" data-name="패스 804263" d="M872.074,228.854c.3-.03.6.008.9,0s.583,0,.876,0c.008.124.015.248.023.373l-.066-.1c-.446,0-.891,0-1.337,0a2.712,2.712,0,0,0-.534.049c-.009.054-.017.108-.024.163l-.007.063a1.2,1.2,0,0,1,.025-.483C871.947,228.853,872.022,228.862,872.074,228.854Z" transform="translate(-829.867 -162.385)" fill="#919498"/>
      <path id="패스_804264" data-name="패스 804264" d="M1548.76,228.34c.01.082.014.165.016.247-.1-.005-.2-.013-.3-.026,0-.059,0-.119-.011-.177C1548.566,228.371,1548.663,228.357,1548.76,228.34Z" transform="translate(-1482.061 -161.9)" fill="#656970"/>
      <path id="패스_804265" data-name="패스 804265" d="M27.157,229.009c.368-.016.737,0,1.1-.005a6.719,6.719,0,0,1,.781.019c.014.043.029.086.043.129s0,.085.006.128a.256.256,0,0,0-.144-.061c-.312-.018-.625.007-.938,0-.285-.012-.57.017-.856.007a3.468,3.468,0,0,0-.057.834,7.378,7.378,0,0,1-.017-.866C27.1,229.128,27.131,229.068,27.157,229.009Z" transform="translate(-15.496 -162.538)" fill="#8e9195"/>
      <path id="패스_804266" data-name="패스 804266" d="M1289.936,229.61a1.6,1.6,0,0,1,.479.027,1.491,1.491,0,0,0,.247.262,8.393,8.393,0,0,0-1.158-.023c-.268.008-.536-.005-.8-.019-.073-.011-.072.081-.092.127a1.884,1.884,0,0,1-.319-.339,2.3,2.3,0,0,1,.6-.034C1289.239,229.607,1289.587,229.614,1289.936,229.61Z" transform="translate(-1231.256 -163.12)" fill="#93959a"/>
      <path id="패스_804267" data-name="패스 804267" d="M1557.524,228.622a1,1,0,0,1,.313-.022c.6.011,1.2-.01,1.8.01a4.253,4.253,0,0,1,.054.733,2.952,2.952,0,0,1-.04.326c.01-.2.007-.392,0-.587a1.508,1.508,0,0,0-.023-.174,1.669,1.669,0,0,0-.384-.018c-.409.009-.817-.009-1.225,0-.191.005-.414-.047-.562.107A1.029,1.029,0,0,1,1557.524,228.622Z" transform="translate(-1490.726 -162.151)" fill="#919297"/>
      <path id="패스_804268" data-name="패스 804268" d="M277.738,230.58c.157,0,.315,0,.473,0l-.083.182c.631,0,1.262-.01,1.892.009,0,.048.006.1.009.145a1.623,1.623,0,0,1-.478.285l-.031-.123c-.443-.008-.886.012-1.329,0a1.222,1.222,0,0,1-.46-.047q.122-.074.237-.16a.66.66,0,0,0,.1-.145,3.585,3.585,0,0,1-.58.031A2.282,2.282,0,0,0,277.738,230.58Z" transform="translate(-256.885 -164.06)" fill="#a5aaaf"/>
      <path id="패스_804269" data-name="패스 804269" d="M699.776,232.452a7.377,7.377,0,0,1,.774.005c.415.02.833.012,1.248-.006.288.026.577.006.866.023q-.034.088-.071.175a1.855,1.855,0,0,1-.433.326.447.447,0,0,0,.1-.169,2.4,2.4,0,0,0-.562-.031c-.288-.009-.576.009-.864,0a2.524,2.524,0,0,0-.813.063l-.005-.05c.084-.06.169-.119.249-.186-.286.005-.572.036-.858.016C699.532,232.566,699.656,232.513,699.776,232.452Z" transform="translate(-663.599 -165.852)" fill="#9ca1a7"/>
      <path id="패스_804270" data-name="패스 804270" d="M1118.83,231.558c.2,0,.39-.047.588-.043l-.021.1-.057.053a5.8,5.8,0,0,0-.69,0C1118.711,231.634,1118.772,231.6,1118.83,231.558Z" transform="translate(-1067.73 -164.96)" fill="#b0b5b8"/>
      <path id="패스_804271" data-name="패스 804271" d="M1134.773,234.151c.667,0,1.336-.008,2,0-.037.072-.073.145-.112.216a1.389,1.389,0,0,1-.243.18.359.359,0,0,0,.083-.169,1.918,1.918,0,0,0-.488-.024c-.24.007-.479,0-.719,0a1.908,1.908,0,0,1-.7-.036c.038-.04.075-.079.115-.117Z" transform="translate(-1083.106 -167.5)" fill="#9ca1a6"/>
      <path id="패스_804272" data-name="패스 804272" d="M1546.109,234.47c.1.013.2.021.3.026-.011.1,0,.235-.075.315-.106.022-.214.019-.319.043A.637.637,0,0,0,1546.109,234.47Z" transform="translate(-1479.69 -167.81)" fill="#4e5860"/>
      <path id="패스_804273" data-name="패스 804273" d="M27.737,234.845c.285.009.57-.019.856-.007.312.011.626-.013.938,0a.255.255,0,0,1,.144.061v.062c0,.015,0,.045,0,.061v.018a1.634,1.634,0,0,0-.291-.024c-.55.015-1.1-.017-1.649.008q-.008.082-.015.165a2.183,2.183,0,0,0,.017.572.691.691,0,0,0,.249.124.786.786,0,0,1-.227-.031c-.071-.028-.072-.115-.081-.178A3.468,3.468,0,0,1,27.737,234.845Z" transform="translate(-16.079 -168.162)" fill="#9ca1a7"/>
      <path id="패스_804274" data-name="패스 804274" d="M271.764,234.691a3.587,3.587,0,0,0,.58-.031.661.661,0,0,1-.1.145,4.326,4.326,0,0,0-.694-.005C271.622,234.766,271.693,234.728,271.764,234.691Z" transform="translate(-251.16 -167.993)" fill="#cdcfd2"/>
      <path id="패스_804275" data-name="패스 804275" d="M446.552,235.121c.632-.005,1.264,0,1.9,0,.185-.022.31.144.483.172.111.049.215.11.321.168-.257.005-.512-.044-.769-.033a13.765,13.765,0,0,0-1.426.031c.017.056.035.113.053.169a2.727,2.727,0,0,1-.589-.4Z" transform="translate(-419.824 -168.431)" fill="#a2a7ad"/>
      <path id="패스_804276" data-name="패스 804276" d="M1113.318,235.334a5.8,5.8,0,0,1,.69,0c-.04.038-.078.077-.115.117l-.014,0c-.248-.079-.508.05-.76-.014Z" transform="translate(-1062.4 -168.626)" fill="#ced0d3"/>
      <path id="패스_804277" data-name="패스 804277" d="M1706.17,235.6a4.368,4.368,0,0,1,.684-.021c.46.018.921-.018,1.38.011.013.062.027.124.042.187,0,.014.01.041.013.054-.461-.041-.924,0-1.385-.028-.254.016-.508.008-.762.019a1.678,1.678,0,0,0,.021.556c.046.114.174.131.282.127q4.974,0,9.947,0c.3.006.61-.017.914.014l0,.044c-.5-.018-.995,0-1.492-.009h-9.406c-.107-.006-.261,0-.292-.132a2.474,2.474,0,0,1-.025-.607A.793.793,0,0,1,1706.17,235.6Z" transform="translate(-1634 -168.879)" fill="#a1a6ab"/>
      <path id="패스_804278" data-name="패스 804278" d="M1297.13,236.7c.021-.046.019-.138.092-.127.268.013.535.027.8.019a8.4,8.4,0,0,1,1.158.023l.025.019a2.042,2.042,0,0,0,.379.228c-.412-.013-.825.007-1.237,0-.249,0-.5-.009-.747,0,0,.027.009.082.013.109A1.55,1.55,0,0,1,1297.13,236.7Z" transform="translate(-1239.779 -169.838)" fill="#a5abb0"/>
      <path id="패스_804279" data-name="패스 804279" d="M1556.794,236.649c.147-.154.371-.1.562-.107.408-.009.817.009,1.225,0a1.67,1.67,0,0,1,.384.018,1.508,1.508,0,0,1,.023.174c-.7.009-1.394.016-2.089,0a.782.782,0,0,0-.129.066C1556.779,236.748,1556.787,236.7,1556.794,236.649Z" transform="translate(-1490.061 -169.802)" fill="#a1a6ac"/>
      <path id="패스_804280" data-name="패스 804280" d="M683.052,237.026c.286.02.572-.011.858-.016-.08.066-.165.125-.249.186l-.018,0c-.4-.079-.8.057-1.2.007C682.644,237.144,682.85,237.094,683.052,237.026Z" transform="translate(-647.242 -170.258)" fill="#c4c9cc"/>
      <path id="패스_804281" data-name="패스 804281" d="M872.454,236.75a2.713,2.713,0,0,1,.534-.049c.446.005.892,0,1.337,0l.066.1-.011.1c-.651.012-1.3-.02-1.951.013C872.437,236.858,872.446,236.8,872.454,236.75Z" transform="translate(-830.385 -169.96)" fill="#a2a7ad"/>
      <path id="패스_804282" data-name="패스 804282" d="M83.02,238.083a1.434,1.434,0,0,1,.412,0c.006.042.015.084.025.126-.144-.009-.33.062-.436-.068C83.021,238.128,83.02,238.1,83.02,238.083Z" transform="translate(-69.424 -171.279)" fill="#717a80"/>
      <path id="패스_804283" data-name="패스 804283" d="M99.666,238.009a4.33,4.33,0,0,1,.694.005q-.115.085-.237.16a4.434,4.434,0,0,1-1.477.434c-.446.043-.893.087-1.341.086-1.2,0-2.4.019-3.6-.005a1.37,1.37,0,0,1-.46-.1c.151-.106.344-.062.516-.086.467-.05.942-.051,1.405-.132.761-.008,1.523-.009,2.285-.011A6.765,6.765,0,0,0,99.666,238.009Z" transform="translate(-79.276 -171.203)" fill="#eeefee"/>
      <path id="패스_804284" data-name="패스 804284" d="M943.472,238.063c.252.064.512-.065.76.014a3.011,3.011,0,0,1-.289.191,4.717,4.717,0,0,1-1.737.426,9.968,9.968,0,0,1-1.187.057c-.986-.005-1.972.02-2.958,0a2.787,2.787,0,0,1-.931-.092.327.327,0,0,1,.175-.077c.685-.041,1.37-.1,2.054-.16.042-.007.085-.016.128-.025.823-.024,1.648.016,2.471-.045A5.809,5.809,0,0,0,943.472,238.063Z" transform="translate(-892.753 -171.263)" fill="#eeefee"/>
      <path id="패스_804285" data-name="패스 804285" d="M1354.8,238.28a7.271,7.271,0,0,0,.995.056,7.031,7.031,0,0,0,.96.154.3.3,0,0,0,.173-.039,4.568,4.568,0,0,1,.544.017l-.01.013c-.183,0-.365,0-.548,0l.1.059a2.267,2.267,0,0,1-.511.005c-.423,0-.847,0-1.27-.017l-.052-.022A2.049,2.049,0,0,1,1354.8,238.28Z" transform="translate(-1295.371 -171.483)" fill="#697278"/>
      <path id="패스_804286" data-name="패스 804286" d="M926.59,239.45a.991.991,0,0,0,.446,0,.365.365,0,0,0,.249.254c-.192-.021-.38.039-.571.033a.881.881,0,0,1-.136-.191Z" transform="translate(-882.582 -172.611)" fill="#858a91"/>
      <path id="패스_804287" data-name="패스 804287" d="M1126.17,238.971a3.008,3.008,0,0,0,.289-.191l.015,0a1.909,1.909,0,0,0,.7.036c.24,0,.479.008.719,0a1.92,1.92,0,0,1,.488.024.363.363,0,0,1-.083.169,1.591,1.591,0,0,1-.147.072c-.01-.026-.02-.053-.03-.079-.5-.017-.992,0-1.488-.01C1126.478,238.989,1126.315,239.048,1126.17,238.971Z" transform="translate(-1074.98 -171.965)" fill="#abb0b6"/>
      <path id="패스_804288" data-name="패스 804288" d="M28.865,239.917c.55-.026,1.1.007,1.649-.008a1.632,1.632,0,0,1,.291.024,1.237,1.237,0,0,0,.054.206l.016.036a.279.279,0,0,0-.218-.09c-.6,0-1.2,0-1.807,0Q28.856,240,28.865,239.917Z" transform="translate(-17.207 -173.051)" fill="#abb0b6"/>
      <path id="패스_804289" data-name="패스 804289" d="M83.06,240.141c.105.13.292.059.436.068a1.523,1.523,0,0,0,.108.135c-.163,0-.326.011-.488.02a1.236,1.236,0,0,1-.054-.206Z" transform="translate(-69.463 -173.277)" fill="#868e91"/>
      <path id="패스_804290" data-name="패스 804290" d="M520.819,239.535a7.163,7.163,0,0,0,.815-.054c.191.051.385.094.578.14-.316.076-.648.03-.962.106a2.23,2.23,0,0,0,.381.126,3.346,3.346,0,0,0,.361.084,13.635,13.635,0,0,0,2.795.183,11.71,11.71,0,0,0,2-.2,4.657,4.657,0,0,0,1.06-.343l.018,0,0,.05c-.2.092-.418.151-.625.235a4.683,4.683,0,0,1-.5.116,5.808,5.808,0,0,1-.941.143,8.962,8.962,0,0,1-.974.057,12.078,12.078,0,0,1-1.332-.013c-.376.013-.745-.065-1.119-.086a8.982,8.982,0,0,1-1.142-.265,1.89,1.89,0,0,1-.308-.126l.085-.008Z" transform="translate(-491.446 -172.641)" fill="#8c9298"/>
      <path id="패스_804291" data-name="패스 804291" d="M558.011,241.386c.4.05.805-.086,1.2-.007a4.654,4.654,0,0,1-1.06.343,11.709,11.709,0,0,1-2,.2,13.635,13.635,0,0,1-2.794-.183,1.629,1.629,0,0,1,.539-.066c.224-.027.45-.019.674-.046a2.675,2.675,0,0,0,.527-.049A13.5,13.5,0,0,0,558.011,241.386Z" transform="translate(-522.813 -174.446)" fill="#eeefee"/>
      <path id="패스_804292" data-name="패스 804292" d="M470.582,241.751a2.524,2.524,0,0,1,.813-.063c.288.008.576-.01.864,0a2.4,2.4,0,0,1,.561.031.446.446,0,0,1-.1.169,5.6,5.6,0,0,1-1.7.608,19.919,19.919,0,0,1-3.192.33c-.588.006-1.177.01-1.765,0-.613-.044-1.229-.055-1.839-.138a13.2,13.2,0,0,1-1.314-.217,6.408,6.408,0,0,1-1.464-.511c-.018-.056-.036-.113-.053-.169a13.765,13.765,0,0,1,1.426-.031c.257-.012.511.038.769.033l.052.023a1.9,1.9,0,0,0,.308.126,8.986,8.986,0,0,0,1.142.265c.374.021.744.1,1.119.086a12.072,12.072,0,0,0,1.332.013,8.963,8.963,0,0,0,.974-.057,5.8,5.8,0,0,0,.941-.143,4.685,4.685,0,0,0,.5-.116C470.164,241.9,470.379,241.843,470.582,241.751Z" transform="translate(-434.158 -174.765)" fill="#b4bbc1"/>
      <path id="패스_804293" data-name="패스 804293" d="M1319.291,241.91c.7.019,1.393.012,2.089,0,0,.2.007.392,0,.587-.01.115-.132.132-.224.126h-7.138c-.369-.005-.74.015-1.108-.025-.072-.065-.173-.048-.26-.051a6.2,6.2,0,0,1-1.479-.172,5.657,5.657,0,0,1-.877-.259c0-.027-.01-.082-.013-.109.249-.012.5,0,.747,0,.412.006.824-.014,1.237,0l.052.022c.126.05.24.17.386.142a6.757,6.757,0,0,1,.884-.019,5.453,5.453,0,0,1,.771.037l.041.06a10.859,10.859,0,0,0-1.3,0,7.047,7.047,0,0,0,1.279.148c.817.041,1.635.015,2.452.022.541,0,1.081,0,1.622,0a1.461,1.461,0,0,0,.355-.047l.083-.009a.44.44,0,0,0,.178-.194,1.582,1.582,0,0,0,.1-.2A.785.785,0,0,1,1319.291,241.91Z" transform="translate(-1252.454 -174.983)" fill="#b4bbc0"/>
      <path id="패스_804294" data-name="패스 804294" d="M1707.21,241.9c.254-.012.508,0,.762-.019.461.031.925-.013,1.385.028l.016.056c.035.1.1.248.23.227,3.02,0,6.039.007,9.059-.005h.017l.005.046c-3.04.012-6.08,0-9.12.006a1.023,1.023,0,0,0,.616.142c.624.009,1.249-.01,1.873.014.853,0,1.707,0,2.559.009,1.251-.006,2.5.021,3.752.008,0,.061,0,.123.009.185-.3-.031-.609-.008-.914-.014q-4.973,0-9.947,0c-.108,0-.237-.013-.282-.127A1.685,1.685,0,0,1,1707.21,241.9Z" transform="translate(-1635.068 -174.954)" fill="#b4bbc1"/>
      <path id="패스_804295" data-name="패스 804295" d="M1767.6,240.771c.1,0,.2,0,.3,0,.053.179.26.194.416.2,1.035,0,2.069.009,3.1.006.924.019,1.85-.01,2.774.019.818,0,1.637,0,2.456.009.083.007.19.017.223.108-3.019.012-6.039,0-9.059.005-.135.021-.2-.123-.23-.227C1767.594,240.862,1767.6,240.8,1767.6,240.771Z" transform="translate(-1693.284 -173.881)" fill="#4f585f"/>
      <path id="패스_804296" data-name="패스 804296" d="M872.237,242.183c.65-.033,1.3,0,1.951-.013a.876.876,0,0,0,.135.191c.191.006.379-.053.571-.033a7.011,7.011,0,0,0,.76.034,1.926,1.926,0,0,1-.3.058,8.785,8.785,0,0,0-.948.085.511.511,0,0,0,.161.124,2.789,2.789,0,0,0,.931.092c.986.019,1.972-.007,2.958,0a9.968,9.968,0,0,0,1.187-.057,4.717,4.717,0,0,0,1.737-.426c.144.077.308.018.462.027.5.008.992-.007,1.488.01.009.026.019.052.03.079a6.741,6.741,0,0,1-1.773.447,13.622,13.622,0,0,1-1.657.109c-.383.036-.768.024-1.153.03-.432.02-.865,0-1.3.025-1.549.009-3.1.015-4.648.005a4.26,4.26,0,0,1-.49-.03l-.108-.117c0-.126-.006-.252-.007-.377,0-.066,0-.131,0-.2Z" transform="translate(-830.192 -175.231)" fill="#b4bbc0"/>
      <path id="패스_804297" data-name="패스 804297" d="M36.3,243.554a4.433,4.433,0,0,0,1.477-.434,1.221,1.221,0,0,0,.46.047c.443.014.887-.006,1.329,0l.031.123a7.791,7.791,0,0,1-2.4.494c-.58-.023-1.161-.005-1.741-.01a.767.767,0,0,0-.484.084c-.234.006-.469.006-.7,0-1.057.03-2.114.021-3.171.025-.754,0-1.508.01-2.261-.015a.691.691,0,0,1-.249-.124,2.183,2.183,0,0,1-.017-.572c.6.007,1.2,0,1.807,0a.278.278,0,0,1,.218.09c.032.022.063.058.107.054a4.441,4.441,0,0,0,.512-.046c.088.014.176.027.264.034a3.274,3.274,0,0,1-.743.107c.051.041.1.082.155.118a1.37,1.37,0,0,0,.46.1c1.2.024,2.4,0,3.6.005C35.4,243.64,35.852,243.6,36.3,243.554Z" transform="translate(-16.927 -176.15)" fill="#b4bbc0"/>
      <path id="패스_804298" data-name="패스 804298" d="M1369,243.2a.353.353,0,0,1,.176.006c.125.018.253.012.378.028-.171,0-.342,0-.512-.006,0,.019.005.057.007.076.555-.007,1.11,0,1.664,0a1.081,1.081,0,0,0,.235.049c.529.007,1.058.027,1.588.027.325-.005.649.041.975.027a.441.441,0,0,1-.178.194l.026-.1c-.479-.025-.959-.007-1.439-.022-.361.008-.721-.036-1.081-.027-.456-.009-.912,0-1.367-.031-.223-.009-.447,0-.671,0a5.459,5.459,0,0,0-.771-.037,6.766,6.766,0,0,0-.884.019c-.146.028-.26-.092-.386-.142.423.014.847.015,1.27.017a2.265,2.265,0,0,0,.512-.005c.144-.006.289,0,.433,0l.016-.066Z" transform="translate(-1306.899 -176.217)" fill="#959ca0"/>
      <path id="패스_804299" data-name="패스 804299" d="M532.77,243.465c.314-.076.646-.03.962-.106.275.043.55.076.826.109-.354.017-.707.042-1.06.063a1.28,1.28,0,0,0-.348.06A2.234,2.234,0,0,1,532.77,243.465Z" transform="translate(-502.966 -176.379)" fill="#aeb1b6"/>
      <path id="패스_804300" data-name="패스 804300" d="M1413.47,243.83c.182,0,.365,0,.548,0l-.016.066c-.145,0-.289-.01-.434,0Z" transform="translate(-1351.926 -176.829)" fill="#31322f"/>
      <path id="패스_804301" data-name="패스 804301" d="M1430.631,244.16c.981,0,1.962,0,2.943,0,.2,0,.4.007.6-.011l.092.044a3.3,3.3,0,0,1-.69.03c-.594,0-1.189-.016-1.783.007-.555,0-1.109-.007-1.664,0,0-.019-.005-.057-.007-.076C1430.289,244.164,1430.46,244.164,1430.631,244.16Z" transform="translate(-1367.975 -177.141)" fill="#323230"/>
      <path id="패스_804302" data-name="패스 804302" d="M84.6,245.78c.163-.009.325-.025.488-.02.049.022.1.045.147.064a4.441,4.441,0,0,1-.512.046c-.044,0-.075-.032-.107-.054Z" transform="translate(-70.948 -178.693)" fill="#a0a5a9"/>
      <path id="패스_804303" data-name="패스 804303" d="M543.677,246.443c.353-.021.706-.046,1.06-.063.231.015.462.028.693.045a2.682,2.682,0,0,1-.526.049c-.224.027-.45.019-.674.046a1.629,1.629,0,0,0-.538.066,3.351,3.351,0,0,1-.361-.084A1.28,1.28,0,0,1,543.677,246.443Z" transform="translate(-513.144 -179.291)" fill="#d3d5d7"/>
      <path id="패스_804304" data-name="패스 804304" d="M933.607,247.608a1.933,1.933,0,0,0,.3-.058c.423.008.848-.007,1.271.005-.043.009-.086.018-.128.025-.684.059-1.368.119-2.054.16a.328.328,0,0,0-.175.077.512.512,0,0,1-.161-.124A8.775,8.775,0,0,1,933.607,247.608Z" transform="translate(-888.443 -180.42)" fill="#d1d3d6"/>
      <path id="패스_804305" data-name="패스 804305" d="M89.673,248.5c.445,0,.889,0,1.333.008-.463.081-.938.081-1.405.132-.172.024-.365-.02-.516.086-.054-.036-.1-.077-.155-.118A3.271,3.271,0,0,0,89.673,248.5Z" transform="translate(-75.121 -181.335)" fill="#d4d5d7"/>
      <path id="패스_804306" data-name="패스 804306" d="M1423.409,249.64c.223,0,.447-.005.671,0,.455.034.911.022,1.367.031.361-.009.72.035,1.082.027.479.015.96,0,1.439.022l-.026.1-.082.009a2.1,2.1,0,0,0-.607-.046c-.457,0-.914,0-1.37-.028-.811-.013-1.622-.008-2.431-.054Z" transform="translate(-1361.507 -182.434)" fill="#c8cace"/>
      <path id="패스_804307" data-name="패스 804307" d="M1388.479,250.595a10.859,10.859,0,0,1,1.3,0c.809.046,1.621.041,2.431.054.456.025.913.027,1.37.028a2.1,2.1,0,0,1,.606.046,1.46,1.46,0,0,1-.355.046c-.541,0-1.082,0-1.622,0-.817-.007-1.635.019-2.452-.022A7.049,7.049,0,0,1,1388.479,250.595Z" transform="translate(-1327.836 -183.326)" fill="#eeefee"/>
      <path id="패스_804308" data-name="패스 804308" d="M1772.909,251.626c3.04-.007,6.08.006,9.12-.006l-.063.05c-.051.03-.1.057-.153.084l-.045.024c-.008.084-.007.168-.008.252l-.037,0,0-.044c0-.062-.007-.124-.009-.185-1.251.013-2.5-.014-3.752-.008-.853-.009-1.706-.01-2.559-.009-.624-.025-1.249,0-1.873-.014A1.022,1.022,0,0,1,1772.909,251.626Z" transform="translate(-1698.411 -184.344)" fill="#eee"/>
      <path id="패스_804309" data-name="패스 804309" d="M2019.949,253.1c.052-.027.1-.054.154-.084a1.046,1.046,0,0,1,.006.569.878.878,0,0,1-.128-.166A1.606,1.606,0,0,1,2019.949,253.1Z" transform="translate(-1936.548 -185.694)" fill="#424b53"/>
      <path id="패스_804310" data-name="패스 804310" d="M206.5,261.351a.768.768,0,0,1,.484-.084c.581.005,1.161-.013,1.741.01A21.638,21.638,0,0,1,206.5,261.351Z" transform="translate(-188.454 -193.641)" fill="#9da4a8"/>
      <path id="패스_804311" data-name="패스 804311" d="M1779.109,275.354c1.713,0,3.426,0,5.138,0l-.012,0a.411.411,0,0,0-.229.152c-.826.976-1.672,1.935-2.5,2.909-.3.339-.6.674-.885,1.025-.045.054-.1.116-.175.105-1.358-.005-2.716,0-4.073,0-.245-.005-.49.014-.734-.013q1.788-2.069,3.576-4.14l-.088-.034Z" transform="translate(-1701.044 -207.237)" fill="#ce312a"/>
      <path id="패스_804312" data-name="패스 804312" d="M1774.414,275.512l.088.034q-1.792,2.067-3.576,4.14c.244.027.49.007.735.013,1.357,0,2.715,0,4.073,0,.078.011.129-.052.175-.105.284-.351.587-.686.885-1.025.827-.975,1.673-1.933,2.5-2.909a.411.411,0,0,1,.229-.152.931.931,0,0,1-.178.236q-1.387,1.608-2.775,3.216c-.242.275-.475.559-.723.828-1.7,0-3.4,0-5.1,0a1.1,1.1,0,0,1,.192-.257C1772.1,278.193,1773.253,276.848,1774.414,275.512Z" transform="translate(-1696.33 -207.387)" fill="#db4210"/>
    </g>
  </g>
</svg>
