<svg xmlns="http://www.w3.org/2000/svg" width="100" height="100"><g data-name="car_logo_smart ev"><g data-name="smart ev"><g data-name="그룹 398342"><path data-name="패스 812107" d="M25.6 64.131h-3.418a.917.917 0 110-1.834h4.237a1.127 1.127 0 001.135-1.122v-.03a.09.09 0 00-.091-.089h-5.281a2.158 2.158 0 100 4.316H25.6a.917.917 0 110 1.833h-4.467A1.129 1.129 0 0020 68.328v.029a.093.093 0 00.093.091H25.6a2.159 2.159 0 100-4.317" fill="#8e8e8f"/><path data-name="패스 812108" d="M36.243 61.048a2.932 2.932 0 00-2.3 1.109 2.932 2.932 0 00-5.228 1.787v3.382a1.128 1.128 0 001.135 1.122h.034a.093.093 0 00.087-.09v-4.415a1.671 1.671 0 013.342 0v3.394a1.128 1.128 0 001.134 1.111h.029a.091.091 0 00.092-.085v-4.42a1.672 1.672 0 013.345 0v3.383a1.128 1.128 0 001.134 1.122h.036a.089.089 0 00.085-.091v-4.412a2.915 2.915 0 00-2.928-2.9" fill="#8e8e8f"/><path data-name="패스 812109" d="M43.618 61.048a3.313 3.313 0 00-3.329 3.291v2.987a1.128 1.128 0 001.134 1.121h.034a.091.091 0 00.088-.091v-4.017a2.074 2.074 0 014.147 0v2.987a1.126 1.126 0 001.135 1.121h.029a.092.092 0 00.093-.091v-4.017a3.314 3.314 0 00-3.33-3.291" fill="#8e8e8f"/><path data-name="패스 812110" d="M63.154 61.148a.094.094 0 00-.095-.092h-6.285a1.129 1.129 0 00-1.136 1.122v.031a.092.092 0 00.092.087h3.039v5.027a1.127 1.127 0 001.134 1.121h.034a.092.092 0 00.088-.092v-6.053h1.994a1.129 1.129 0 001.136-1.121z" fill="#8e8e8f"/><path data-name="패스 812111" d="M50.437 62.294a.856.856 0 00-.857.856v5.2a.093.093 0 01-.092.093h-.029a1.122 1.122 0 01-1.122-1.122v-4.167a2.1 2.1 0 012.1-2.1h2.648a2.1 2.1 0 110 4.2h-.369l2.773 2.781a.091.091 0 010 .141l-.022.018a1.3 1.3 0 01-1.71-.149s-2.1-2.117-2.106-2.121a1.118 1.118 0 01-.063-1.5l.056-.064a1.121 1.121 0 01.793-.355h.694a.857.857 0 00-.046-1.711z" fill="#8e8e8f"/><path data-name="패스 812112" d="M72.55 65.599a.141.141 0 01-.14.14h-3.72a1.71 1.71 0 01-1.689-1.7v-.044a.14.14 0 01.139-.14h3.72a1.711 1.711 0 011.688 1.7z" fill="#9bbd00"/><path data-name="패스 812113" d="M47.797 64.141a.117.117 0 00-.115-.115h-3.771a1.393 1.393 0 00-1.376 1.385v.036a.113.113 0 00.114.113h3.772a1.4 1.4 0 001.376-1.388z" fill="#9bbd00"/><path data-name="패스 812114" d="M68.614 68.999a4.251 4.251 0 110-8.5h2.985a3.407 3.407 0 013.378 2.6l1.046 2.992 1.531-4.39c.239-.644.466-1.171 1.273-1.2h.947a.224.224 0 01.224.225.217.217 0 01-.021.095l-2.723 7.776a.569.569 0 01-.575.405h-1.313a.571.571 0 01-.575-.405l-1.784-5.1c-.346-.922-.786-1.063-1.287-1.079h-3.29a2.343 2.343 0 00.148 4.683l3.308.006a1.837 1.837 0 011.828 1.711v.041a.143.143 0 01-.142.141z" fill="#9bbd00"/></g><g data-name="그룹 398343" fill="#9bbd00"><path data-name="패스 812115" d="M67.895 50.215h-13.41a2.652 2.652 0 00-2.351 1.614l-1.458 4.144h12.035a5.16 5.16 0 005.41-5.2v-.295a.247.247 0 00-.229-.265"/><path data-name="패스 812116" d="M71.249 40.654H57.842a2.654 2.654 0 00-2.352 1.615l-1.458 4.144h12.035a5.161 5.161 0 005.411-5.2v-.3a.248.248 0 00-.229-.265"/><path data-name="패스 812117" d="M74.599 31.013H61.193a2.654 2.654 0 00-2.352 1.614l-1.458 4.144h12.035a5.161 5.161 0 005.411-5.2v-.3a.248.248 0 00-.229-.265"/><path data-name="패스 812118" d="M52.658 32.305a1.3 1.3 0 00-1.3-1.305h-5.32a1.305 1.305 0 00-1.31 1.305 1.2 1.2 0 00.055.373l3.91 11.212 3.91-11.212a1.2 1.2 0 00.054-.373"/><path data-name="패스 812119" d="M42.898 50.215H29.491a.247.247 0 00-.229.265v.295a5.161 5.161 0 005.411 5.2h12.034l-1.457-4.144a2.653 2.653 0 00-2.352-1.614"/><path data-name="패스 812120" d="M43.354 46.413l-1.458-4.144a2.654 2.654 0 00-2.352-1.615H26.138a.248.248 0 00-.229.265v.3a5.161 5.161 0 005.411 5.2z"/><path data-name="패스 812121" d="M40.004 36.771l-1.458-4.144a2.652 2.652 0 00-2.352-1.614H22.788a.247.247 0 00-.229.265v.3a5.161 5.161 0 005.411 5.2z"/></g></g></g></svg>