<svg xmlns="http://www.w3.org/2000/svg" xmlns:xlink="http://www.w3.org/1999/xlink" width="100" height="100" viewBox="0 0 100 100"><defs><clipPath id="a"><rect width="70" height="70" fill="none"/></clipPath><clipPath id="b"><rect width="44" height="44" transform="translate(0 0.492)" fill="none"/></clipPath><clipPath id="e"><rect width="36" height="36" transform="translate(-0.449 0.043)" fill="none"/></clipPath></defs><g transform="translate(-219 -155)"><g transform="translate(219 155)" fill="#f9f9f9" stroke="#f0f0f0" stroke-width="1" opacity="0"><rect width="100" height="100" stroke="none"/><rect x="0.5" y="0.5" width="99" height="99" fill="none"/></g><g transform="translate(234 170)" fill="#f9f9f9" stroke="#f0f0f0" stroke-width="1" opacity="0"><rect width="70" height="70" stroke="none"/><rect x="0.5" y="0.5" width="69" height="69" fill="none"/></g><g transform="translate(234 170)" clip-path="url(#a)"><g transform="translate(-234 -170)"><g transform="translate(234 170)" fill="#f9f9f9" stroke="#f0f0f0" stroke-width="1.5"><rect width="70" height="70" stroke="none"/><rect x="0.75" y="0.75" width="68.5" height="68.5" fill="none"/></g><g transform="translate(-4158 -23)"><g transform="translate(4427 227.508)"><g transform="translate(-22 -22)" clip-path="url(#b)"><g clip-path="url(#b)"><g opacity="0"><g clip-path="url(#b)"><rect width="44" height="44" transform="translate(0 0.492)" fill="#f0f"/></g></g><g transform="translate(4.449 4.449)" opacity="0"><g clip-path="url(#e)"><rect width="36" height="36" transform="translate(-0.449 0.043)" fill="#f0f"/></g></g><path d="M37.594,32.243H2V18.45L6.449,3.1H32.922l4.672,15.35Z" transform="translate(2.449 3.796)" fill="none" stroke="#d7d7d7" stroke-linejoin="round" stroke-width="2"/><path d="M28.828,8.6H2.8" transform="translate(3.429 10.532)" fill="none" stroke="#d7d7d7" stroke-linecap="round" stroke-linejoin="round" stroke-width="2"/></g><path d="M7.2,15.714,8.09,12.6H19.435l.89,3.114" transform="translate(8.817 15.43)" fill="none" stroke="#d7d7d7" stroke-linejoin="round" stroke-width="2"/><g clip-path="url(#b)"><path d="M8.674,18.425H2V16.2" transform="translate(2.449 19.839)" fill="none" stroke="#d7d7d7" stroke-linejoin="round" stroke-width="2"/><path d="M14.5,18.677h6.674v-2.67" transform="translate(18.369 19.594)" fill="none" stroke="#d7d7d7" stroke-linejoin="round" stroke-width="3"/><line x1="2.002" transform="translate(37.819 14.015)" fill="none" stroke="#d7d7d7" stroke-linecap="round" stroke-miterlimit="10" stroke-width="2"/><line x1="5.339" transform="translate(39.153 14.015)" fill="none" stroke="#d7d7d7" stroke-miterlimit="10" stroke-width="2"/><line x2="2.002" transform="translate(4.672 14.015)" fill="none" stroke="#d7d7d7" stroke-linecap="round" stroke-miterlimit="10" stroke-width="2"/><line x2="5.339" transform="translate(0 14.015)" fill="none" stroke="#d7d7d7" stroke-miterlimit="10" stroke-width="2"/><path d="M21.247,18.685H14.573v-2.67" transform="translate(-9.631 19.594)" fill="none" stroke="#d7d7d7" stroke-linejoin="round" stroke-width="3"/></g></g></g></g></g></g></g></svg>