<svg xmlns="http://www.w3.org/2000/svg" width="100" height="100" viewBox="0 0 100 100">
  <g id="car_logo_bugatti" transform="translate(-225 -160)">
    <g id="W_100_H_100" data-name="W 100 H 100" transform="translate(225 160)" fill="#f9f9f9" stroke="#f0f0f0" stroke-width="1" opacity="0">
      <rect width="100" height="100" stroke="none"/>
      <rect x="0.5" y="0.5" width="99" height="99" fill="none"/>
    </g>
    <g id="bugatti" transform="translate(-795.438 -2291.684)">
      <path id="패스_791942" data-name="패스 791942" d="M1030.846,2502.265c0-11.167,17.77-20.221,39.829-20.221s39.828,9.053,39.828,20.221-17.77,20.22-39.828,20.22-39.829-9.052-39.829-20.22Z" transform="translate(-0.235 -0.235)" fill="#fff" fill-rule="evenodd"/>
      <path id="패스_791943" data-name="패스 791943" d="M1075.714,2490.756c22.521,0,36.156,9.217,36.156,16.548s-13.635,16.548-36.156,16.548-36.156-9.217-36.156-16.548,13.635-16.548,36.156-16.548Z" transform="translate(-5.275 -5.275)" fill="#d70b24" fill-rule="evenodd"/>
      <path id="패스_791944" data-name="패스 791944" d="M1070.439,2481.637c22.037,0,40,9.045,40,20.392s-17.963,20.392-40,20.392-40-9.045-40-20.392,17.963-20.392,40-20.392Zm0,.343c-22.081,0-39.657,9.06-39.657,20.049s17.576,20.049,39.657,20.049,39.656-9.061,39.656-20.049-17.576-20.049-39.656-20.049Z" fill="#231815" fill-rule="evenodd"/>
      <path id="패스_791945" data-name="패스 791945" d="M1111.806,2507.07c0,7.509-13.824,16.72-36.327,16.72s-36.328-9.211-36.328-16.72,13.825-16.719,36.328-16.719,36.327,9.21,36.327,16.719Zm-.343,0c0-7.154-13.444-16.376-35.984-16.376s-35.984,9.222-35.984,16.376,13.444,16.376,35.984,16.376,35.984-9.223,35.984-16.376Z" transform="translate(-5.04 -5.04)" fill="#231815" fill-rule="evenodd"/>
      <path id="패스_791946" data-name="패스 791946" d="M1124.884,2485.14a.918.918,0,1,1-.918-.918.917.917,0,0,1,.918.918Z" transform="translate(-53.527 -1.495)" fill="#d70b24" fill-rule="evenodd"/>
      <path id="패스_791947" data-name="패스 791947" d="M1117.691,2485.245a.918.918,0,1,1-.949-.885.917.917,0,0,1,.949.885Z" transform="translate(-49.37 -1.574)" fill="#d70b24" fill-rule="evenodd"/>
      <path id="패스_791948" data-name="패스 791948" d="M1110.508,2485.625a.918.918,0,1,1-.98-.852.918.918,0,0,1,.98.852Z" transform="translate(-45.219 -1.813)" fill="#d70b24" fill-rule="evenodd"/>
      <path id="패스_791949" data-name="패스 791949" d="M1103.344,2486.282a.918.918,0,1,1-1.023-.8.918.918,0,0,1,1.023.8Z" transform="translate(-41.081 -2.221)" fill="#d70b24" fill-rule="evenodd"/>
      <path id="패스_791950" data-name="패스 791950" d="M1096.217,2487.26a.918.918,0,1,1-1.05-.763.917.917,0,0,1,1.05.763Z" transform="translate(-36.964 -2.805)" fill="#d70b24" fill-rule="evenodd"/>
      <path id="패스_791951" data-name="패스 791951" d="M1089.139,2488.542a.918.918,0,1,1-1.089-.707.918.918,0,0,1,1.089.707Z" transform="translate(-32.878 -3.574)" fill="#d70b24" fill-rule="evenodd"/>
      <path id="패스_791952" data-name="패스 791952" d="M1082.131,2490.168a.918.918,0,1,1-1.125-.649.918.918,0,0,1,1.125.649Z" transform="translate(-28.834 -4.541)" fill="#d70b24" fill-rule="evenodd"/>
      <path id="패스_791953" data-name="패스 791953" d="M1075.219,2492.162a.918.918,0,1,1-1.157-.589.918.918,0,0,1,1.157.589Z" transform="translate(-24.847 -5.721)" fill="#d70b24" fill-rule="evenodd"/>
      <path id="패스_791954" data-name="패스 791954" d="M1068.439,2494.563a.918.918,0,1,1-1.186-.528.918.918,0,0,1,1.186.528Z" transform="translate(-20.938 -7.137)" fill="#d70b24" fill-rule="evenodd"/>
      <path id="패스_791955" data-name="패스 791955" d="M1061.822,2497.383a.918.918,0,1,1-1.227-.423.918.918,0,0,1,1.227.423Z" transform="translate(-17.145 -8.802)" fill="#d70b24" fill-rule="evenodd"/>
      <path id="패스_791956" data-name="패스 791956" d="M1055.444,2500.709a.918.918,0,1,1-1.26-.314.918.918,0,0,1,1.26.314Z" transform="translate(-13.478 -10.766)" fill="#d70b24" fill-rule="evenodd"/>
      <path id="패스_791957" data-name="패스 791957" d="M1049.412,2504.624a.918.918,0,1,1-1.282-.2.917.917,0,0,1,1.282.2Z" transform="translate(-10.014 -13.067)" fill="#d70b24" fill-rule="evenodd"/>
      <path id="패스_791958" data-name="패스 791958" d="M1043.85,2509.18a.918.918,0,1,1-1.3,0,.918.918,0,0,1,1.3,0Z" transform="translate(-6.851 -15.764)" fill="#d70b24" fill-rule="evenodd"/>
      <path id="패스_791959" data-name="패스 791959" d="M1039.076,2514.551a.918.918,0,1,1-1.279.226.918.918,0,0,1,1.279-.226Z" transform="translate(-4.16 -18.928)" fill="#d70b24" fill-rule="evenodd"/>
      <path id="패스_791960" data-name="패스 791960" d="M1035.514,2520.787a.918.918,0,1,1-1.167.569.918.918,0,0,1,1.167-.569Z" transform="translate(-2.232 -22.599)" fill="#d70b24" fill-rule="evenodd"/>
      <path id="패스_791961" data-name="패스 791961" d="M1124.888,2572.26a.918.918,0,1,1-.918-.918.918.918,0,0,1,.918.918Z" transform="translate(-53.53 -51.847)" fill="#d70b24" fill-rule="evenodd"/>
      <path id="패스_791962" data-name="패스 791962" d="M1117.694,2572.156a.918.918,0,1,1-.886-.95.918.918,0,0,1,.886.95Z" transform="translate(-49.372 -51.768)" fill="#d70b24" fill-rule="evenodd"/>
      <path id="패스_791963" data-name="패스 791963" d="M1110.51,2571.775a.918.918,0,1,1-.852-.98.918.918,0,0,1,.852.98Z" transform="translate(-45.22 -51.529)" fill="#d70b24" fill-rule="evenodd"/>
      <path id="패스_791964" data-name="패스 791964" d="M1103.346,2571.118a.918.918,0,1,1-.8-1.023.918.918,0,0,1,.8,1.023Z" transform="translate(-41.082 -51.121)" fill="#d70b24" fill-rule="evenodd"/>
      <path id="패스_791965" data-name="패스 791965" d="M1096.219,2570.139a.918.918,0,1,1-.763-1.05.918.918,0,0,1,.763,1.05Z" transform="translate(-36.965 -50.537)" fill="#d70b24" fill-rule="evenodd"/>
      <path id="패스_791966" data-name="패스 791966" d="M1089.141,2568.857a.918.918,0,1,1-.707-1.089.919.919,0,0,1,.707,1.089Z" transform="translate(-32.879 -49.768)" fill="#d70b24" fill-rule="evenodd"/>
      <path id="패스_791967" data-name="패스 791967" d="M1082.132,2567.232a.918.918,0,1,1-.649-1.125.918.918,0,0,1,.649,1.125Z" transform="translate(-28.835 -48.801)" fill="#d70b24" fill-rule="evenodd"/>
      <path id="패스_791968" data-name="패스 791968" d="M1075.22,2565.236a.918.918,0,1,1-.59-1.156.918.918,0,0,1,.59,1.156Z" transform="translate(-24.848 -47.62)" fill="#d70b24" fill-rule="evenodd"/>
      <path id="패스_791969" data-name="패스 791969" d="M1068.439,2562.836a.918.918,0,1,1-.528-1.187.918.918,0,0,1,.528,1.187Z" transform="translate(-20.938 -46.205)" fill="#d70b24" fill-rule="evenodd"/>
      <path id="패스_791970" data-name="패스 791970" d="M1061.822,2560.018a.918.918,0,1,1-.423-1.227.918.918,0,0,1,.423,1.227Z" transform="translate(-17.145 -44.54)" fill="#d70b24" fill-rule="evenodd"/>
      <path id="패스_791971" data-name="패스 791971" d="M1055.444,2556.691a.918.918,0,1,1-.314-1.26.918.918,0,0,1,.314,1.26Z" transform="translate(-13.478 -42.576)" fill="#d70b24" fill-rule="evenodd"/>
      <path id="패스_791972" data-name="패스 791972" d="M1049.411,2552.777a.918.918,0,1,1-.2-1.282.919.919,0,0,1,.2,1.282Z" transform="translate(-10.014 -40.275)" fill="#d70b24" fill-rule="evenodd"/>
      <path id="패스_791973" data-name="패스 791973" d="M1043.848,2548.22a.918.918,0,1,1,0-1.3.918.918,0,0,1,0,1.3Z" transform="translate(-6.85 -37.578)" fill="#d70b24" fill-rule="evenodd"/>
      <path id="패스_791974" data-name="패스 791974" d="M1039.073,2542.849a.918.918,0,1,1,.226-1.278.918.918,0,0,1-.226,1.278Z" transform="translate(-4.159 -34.415)" fill="#d70b24" fill-rule="evenodd"/>
      <path id="패스_791975" data-name="패스 791975" d="M1035.511,2536.613a.918.918,0,1,1,.569-1.167.917.917,0,0,1-.569,1.167Z" transform="translate(-2.23 -30.743)" fill="#d70b24" fill-rule="evenodd"/>
      <path id="패스_791976" data-name="패스 791976" d="M1033.974,2529.617a.918.918,0,1,1,.886-.95.918.918,0,0,1-.886.95Z" transform="translate(-1.495 -26.671)" fill="#d70b24" fill-rule="evenodd"/>
      <path id="패스_791977" data-name="패스 791977" d="M1214.026,2527.782a.918.918,0,1,1-.95.885.919.919,0,0,1,.95-.885Z" transform="translate(-105.561 -26.671)" fill="#d70b24" fill-rule="evenodd"/>
      <path id="패스_791978" data-name="패스 791978" d="M1213.022,2534.877a.918.918,0,1,1-1.167.569.918.918,0,0,1,1.167-.569Z" transform="translate(-104.826 -30.743)" fill="#d70b24" fill-rule="evenodd"/>
      <path id="패스_791979" data-name="패스 791979" d="M1209.916,2541.345a.918.918,0,1,1-1.279.226.918.918,0,0,1,1.279-.226Z" transform="translate(-102.898 -34.415)" fill="#d70b24" fill-rule="evenodd"/>
      <path id="패스_791980" data-name="패스 791980" d="M1205.387,2546.922a.918.918,0,1,1-1.3,0,.917.917,0,0,1,1.3,0Z" transform="translate(-100.207 -37.578)" fill="#d70b24" fill-rule="evenodd"/>
      <path id="패스_791981" data-name="패스 791981" d="M1200.01,2551.7a.918.918,0,1,1-1.282-.2.918.918,0,0,1,1.282.2Z" transform="translate(-97.043 -40.275)" fill="#d70b24" fill-rule="evenodd"/>
      <path id="패스_791982" data-name="패스 791982" d="M1194.066,2555.746a.918.918,0,1,1-1.26-.314.917.917,0,0,1,1.26.314Z" transform="translate(-93.579 -42.576)" fill="#d70b24" fill-rule="evenodd"/>
      <path id="패스_791983" data-name="패스 791983" d="M1187.765,2559.213a.918.918,0,1,1-1.228-.423.918.918,0,0,1,1.228.423Z" transform="translate(-89.912 -44.54)" fill="#d70b24" fill-rule="evenodd"/>
      <path id="패스_791984" data-name="패스 791984" d="M1181.21,2562.178a.918.918,0,1,1-1.186-.528.918.918,0,0,1,1.186.528Z" transform="translate(-86.118 -46.205)" fill="#d70b24" fill-rule="evenodd"/>
      <path id="패스_791985" data-name="패스 791985" d="M1174.462,2564.669a.918.918,0,1,1-1.157-.589.918.918,0,0,1,1.157.589Z" transform="translate(-82.209 -47.62)" fill="#d70b24" fill-rule="evenodd"/>
      <path id="패스_791986" data-name="패스 791986" d="M1167.577,2566.757a.918.918,0,1,1-1.124-.649.918.918,0,0,1,1.124.649Z" transform="translate(-78.222 -48.801)" fill="#d70b24" fill-rule="evenodd"/>
      <path id="패스_791987" data-name="패스 791987" d="M1160.592,2568.475a.918.918,0,1,1-1.089-.707.918.918,0,0,1,1.089.707Z" transform="translate(-74.178 -49.768)" fill="#d70b24" fill-rule="evenodd"/>
      <path id="패스_791988" data-name="패스 791988" d="M1153.531,2569.852a.918.918,0,1,1-1.051-.763.918.918,0,0,1,1.051.763Z" transform="translate(-70.091 -50.537)" fill="#d70b24" fill-rule="evenodd"/>
      <path id="패스_791989" data-name="패스 791989" d="M1146.412,2570.894a.918.918,0,1,1-1.023-.8.919.919,0,0,1,1.023.8Z" transform="translate(-65.974 -51.121)" fill="#d70b24" fill-rule="evenodd"/>
      <path id="패스_791990" data-name="패스 791990" d="M1139.257,2571.647a.918.918,0,1,1-.98-.852.917.917,0,0,1,.98.852Z" transform="translate(-61.836 -51.529)" fill="#d70b24" fill-rule="evenodd"/>
      <path id="패스_791991" data-name="패스 791991" d="M1132.077,2572.092a.918.918,0,1,1-.95-.886.918.918,0,0,1,.95.886Z" transform="translate(-57.685 -51.768)" fill="#d70b24" fill-rule="evenodd"/>
      <path id="패스_791992" data-name="패스 791992" d="M1123.052,2485.14a.918.918,0,1,1,.918.918.918.918,0,0,1-.918-.918Z" transform="translate(-53.53 -1.495)" fill="#d70b24" fill-rule="evenodd"/>
      <path id="패스_791993" data-name="패스 791993" d="M1130.245,2485.245a.918.918,0,1,1,.885.949.918.918,0,0,1-.885-.949Z" transform="translate(-57.687 -1.574)" fill="#d70b24" fill-rule="evenodd"/>
      <path id="패스_791994" data-name="패스 791994" d="M1137.429,2485.625a.918.918,0,1,1,.851.98.918.918,0,0,1-.851-.98Z" transform="translate(-61.838 -1.813)" fill="#d70b24" fill-rule="evenodd"/>
      <path id="패스_791995" data-name="패스 791995" d="M1144.592,2486.282a.918.918,0,1,1,.8,1.023.918.918,0,0,1-.8-1.023Z" transform="translate(-65.976 -2.221)" fill="#d70b24" fill-rule="evenodd"/>
      <path id="패스_791996" data-name="패스 791996" d="M1151.719,2487.26a.918.918,0,1,1,.763,1.05.918.918,0,0,1-.763-1.05Z" transform="translate(-70.092 -2.805)" fill="#d70b24" fill-rule="evenodd"/>
      <path id="패스_791997" data-name="패스 791997" d="M1158.8,2488.542a.918.918,0,1,1,.707,1.089.918.918,0,0,1-.707-1.089Z" transform="translate(-74.178 -3.574)" fill="#d70b24" fill-rule="evenodd"/>
      <path id="패스_791998" data-name="패스 791998" d="M1165.8,2490.168a.918.918,0,1,1,.649,1.125.917.917,0,0,1-.649-1.125Z" transform="translate(-78.222 -4.541)" fill="#d70b24" fill-rule="evenodd"/>
      <path id="패스_791999" data-name="패스 791999" d="M1172.716,2492.162a.918.918,0,1,1,.59,1.157.918.918,0,0,1-.59-1.157Z" transform="translate(-82.209 -5.721)" fill="#d70b24" fill-rule="evenodd"/>
      <path id="패스_792000" data-name="패스 792000" d="M1179.5,2494.563a.918.918,0,1,1,.528,1.186.919.919,0,0,1-.528-1.186Z" transform="translate(-86.118 -7.137)" fill="#d70b24" fill-rule="evenodd"/>
      <path id="패스_792001" data-name="패스 792001" d="M1186.114,2497.383a.918.918,0,1,1,.423,1.227.918.918,0,0,1-.423-1.227Z" transform="translate(-89.912 -8.802)" fill="#d70b24" fill-rule="evenodd"/>
      <path id="패스_792002" data-name="패스 792002" d="M1192.492,2500.709a.918.918,0,1,1,.314,1.26.917.917,0,0,1-.314-1.26Z" transform="translate(-93.579 -10.766)" fill="#d70b24" fill-rule="evenodd"/>
      <path id="패스_792003" data-name="패스 792003" d="M1198.523,2504.624a.918.918,0,1,1,.2,1.282.919.919,0,0,1-.2-1.282Z" transform="translate(-97.042 -13.067)" fill="#d70b24" fill-rule="evenodd"/>
      <path id="패스_792004" data-name="패스 792004" d="M1204.086,2509.18a.918.918,0,1,1,0,1.3.918.918,0,0,1,0-1.3Z" transform="translate(-100.206 -15.764)" fill="#d70b24" fill-rule="evenodd"/>
      <path id="패스_792005" data-name="패스 792005" d="M1208.86,2514.551a.918.918,0,1,1-.225,1.279.918.918,0,0,1,.225-1.279Z" transform="translate(-102.897 -18.928)" fill="#d70b24" fill-rule="evenodd"/>
      <path id="패스_792006" data-name="패스 792006" d="M1212.421,2520.787a.918.918,0,1,1-.569,1.167.918.918,0,0,1,.569-1.167Z" transform="translate(-104.825 -22.599)" fill="#d70b24" fill-rule="evenodd"/>
      <path id="패스_792007" data-name="패스 792007" d="M1055.077,2529.463h3.966c1.658,0,2.825-1.769,2.825-3.225a2.8,2.8,0,0,0-1.408-2.627l-.3-.163.292-.178a3.023,3.023,0,0,0,1.114-2.32,2.958,2.958,0,0,0-1.911-2.772l.048-.135a3.219,3.219,0,0,1,.836.427,4.154,4.154,0,0,1,.435.361,9.524,9.524,0,0,1,.723.718,7.094,7.094,0,0,1,.547.694,3.343,3.343,0,0,1,.571,1.8,3.254,3.254,0,0,1-1.092,2.386l-.046.032.518.518a3.091,3.091,0,0,1,.922,2.352c0,1.5-1.2,3.374-2.974,3.374h-4.211l-1.052-1.05.2-.2Zm3.206-1.473h-1.249v-3.815h1.405a1.54,1.54,0,0,1,1.32,1.277.818.818,0,0,0-.22-.03h-1.256v2.569Zm0-5.294c-.047,0-.1.006-.146.006h-1.1v-3.193h1.1a1.39,1.39,0,0,1,1.383,1.279,1.261,1.261,0,0,0-.283-.032h-.954v1.941Z" transform="translate(-14.138 -21.035)" fill="#fff" fill-rule="evenodd"/>
      <path id="패스_792008" data-name="패스 792008" d="M1081.7,2529.56a3.454,3.454,0,0,0,3.429-3.409v-8.233l.2-.2,1.053,1.05v8.478a3.6,3.6,0,0,1-3.578,3.558,4.358,4.358,0,0,1-2.565-.99,5.827,5.827,0,0,1-1.308-1.439c-.034-.073-.18-.314-.339-.638l.077-.021a3.472,3.472,0,0,0,3.035,1.841Zm-1.209-11.839,1.053,1.05v8.478a1.258,1.258,0,0,0,.03.273,1.361,1.361,0,0,1-1.279-1.37v-8.233l.2-.2Z" transform="translate(-27.829 -20.849)" fill="#fff" fill-rule="evenodd"/>
      <path id="패스_792009" data-name="패스 792009" d="M1102.074,2528.175c-.037-.078-.192-.333-.353-.674l.08-.025a3.509,3.509,0,0,0,3.116,1.963,3.073,3.073,0,0,0,3.405-3.409V2523.4l.2-.2,1.052,1.05v2.879a3.219,3.219,0,0,1-3.554,3.558,4.3,4.3,0,0,1-2.589-.99,6,6,0,0,1-1.353-1.519Zm4.228-2.128-1.053-1.05.2-.2h1.154v1.247Zm-2.815-.017v-5.175a1.559,1.559,0,0,1,1.412-1.591,1.5,1.5,0,0,1,1.686,1.348,1.278,1.278,0,0,0-.573-.1,1.417,1.417,0,0,0-1.276,1.442v5.175a1.311,1.311,0,0,0,.067.409,1.551,1.551,0,0,1-1.316-1.506Zm4.04-7.9a5.9,5.9,0,0,1,.937.868,5.584,5.584,0,0,1,.662.96,4.153,4.153,0,0,1,.445,1.991v.2h-2.048l-1.053-1.05.2-.2h1.654v-.047a3.032,3.032,0,0,0-1.989-3.2l.034-.144a3.917,3.917,0,0,1,1.16.624Z" transform="translate(-41.198 -20.727)" fill="#fff" fill-rule="evenodd"/>
      <path id="패스_792010" data-name="패스 792010" d="M1126.89,2525.425h-1.5l1.238-5.477c.078-.336.321-.327.385,0l.528,2.6-.649,2.872Zm1.92,4.054.2-.2h1.977l-2.615-11.367.147-.185,1.053,1.051,2.8,11.749h-2.507l-1.053-1.05Zm-2.582-1.128-.492,2.177h-2.45l-1.048-1.045.259-.2h2.018l.492-2.177h3.454l.253,1.247Z" transform="translate(-53.055 -20.854)" fill="#fff" fill-rule="evenodd"/>
      <path id="패스_792011" data-name="패스 792011" d="M1147.324,2529.5l.2-.2h1.957v-9.665h2.417v-1.717l.2-.2,1.053,1.05v2.11h-2.417v9.666h-2.35l-1.053-1.05Zm-1.365-8.616-1.052-1.05.2-.2h2.35v1.247Z" transform="translate(-66.157 -20.849)" fill="#fff" fill-rule="evenodd"/>
      <path id="패스_792012" data-name="패스 792012" d="M1166.945,2520.881l-1.053-1.05.2-.2h2.35v1.247Zm6.132-3.16,1.053,1.05v2.11h-2.418v9.666h-2.35l-1.052-1.05.2-.2h1.956v-9.665h2.417v-1.717l.2-.2Z" transform="translate(-78.285 -20.849)" fill="#fff" fill-rule="evenodd"/>
      <path id="패스_792013" data-name="패스 792013" d="M1189.862,2517.721l1.053,1.05v11.753h-2.35l-1.053-1.05.2-.2h1.956v-11.36l.2-.2Z" transform="translate(-90.774 -20.849)" fill="#fff" fill-rule="evenodd"/>
      <path id="패스_792014" data-name="패스 792014" d="M1061.828,2522.164a3.424,3.424,0,0,0-.711-2.024,8.72,8.72,0,0,1,.618.622,7.1,7.1,0,0,1,.547.694,3.344,3.344,0,0,1,.571,1.8,3.253,3.253,0,0,1-1.092,2.386l-.046.033.518.518a3.091,3.091,0,0,1,.922,2.351c0,1.5-1.2,3.374-2.974,3.374h-4.21l-1.025-1.022h4.135c1.827,0,3.05-1.92,3.05-3.449a3.033,3.033,0,0,0-1.485-2.8,3.274,3.274,0,0,0,1.182-2.487Zm-3.508,6.816H1057.3v-3.366h1.181a1.3,1.3,0,0,1,1.079,1.022h-1.235v2.344Zm-.146-8.032a1.156,1.156,0,0,1,1.151,1.023h-1v1.715c-.047,0-.1.007-.146.007h-.878v-2.744Z" transform="translate(-14.176 -22.248)" fill="#a499c9" fill-rule="evenodd"/>
      <path id="패스_792015" data-name="패스 792015" d="M1082.417,2527.286v.045a1.136,1.136,0,0,1-1.026-1.142v-8.4l1.025,1.022v8.478Zm-2.321,1.555a3.643,3.643,0,0,0,6.13-2.652v-8.4l1.025,1.022v8.478a3.6,3.6,0,0,1-3.579,3.558,4.357,4.357,0,0,1-2.565-.99,6.017,6.017,0,0,1-1.011-1.013Z" transform="translate(-28.7 -20.886)" fill="#a499c9" fill-rule="evenodd"/>
      <path id="패스_792016" data-name="패스 792016" d="M1103.369,2529.7a3.7,3.7,0,0,0,2.5.994,3.294,3.294,0,0,0,3.63-3.634v-2.8l1.025,1.022v2.878a3.219,3.219,0,0,1-3.554,3.558,4.3,4.3,0,0,1-2.59-.989,5.905,5.905,0,0,1-1.012-1.025Zm2.861-3.646h1.1v1.023h-.074l-1.025-1.023Zm-.358-5.535a1.273,1.273,0,0,1,1.427,1.049,1.062,1.062,0,0,0-.333-.027,1.417,1.417,0,0,0-1.275,1.442v5.175a1.3,1.3,0,0,0,.011.17,1.327,1.327,0,0,1-1.036-1.267v-5.175a1.334,1.334,0,0,1,1.207-1.367Zm1.58,1.64h2.048v-.273a3.769,3.769,0,0,0-.852-2.591,5.492,5.492,0,0,1,1.432,1.7,4.15,4.15,0,0,1,.445,1.991v.2h-2.048l-1.025-1.022Z" transform="translate(-42.151 -21.761)" fill="#a499c9" fill-rule="evenodd"/>
      <path id="패스_792017" data-name="패스 792017" d="M1126.973,2525.273H1125.7l1.147-5.077.6,2.964-.478,2.113Zm1.9,4.306h2.428l-2.7-11.725,1,1,2.8,11.749h-2.507l-1.025-1.022Zm-6.576,0h2.434l.492-2.177h3.09l.207,1.022h-2.258l-.492,2.177h-2.449l-1.025-1.022Z" transform="translate(-53.086 -20.927)" fill="#a499c9" fill-rule="evenodd"/>
      <path id="패스_792018" data-name="패스 792018" d="M1147.391,2529.562h2.35V2519.9h2.417v-2.11l1.025,1.022v2.11h-2.418v9.666h-2.35l-1.025-1.022Zm-2.417-9.666h2.295v1.022H1146l-1.025-1.022Z" transform="translate(-66.195 -20.887)" fill="#a499c9" fill-rule="evenodd"/>
      <path id="패스_792019" data-name="패스 792019" d="M1165.958,2519.9h2.294v1.022h-1.27l-1.025-1.022Zm2.417,9.666h2.35V2519.9h2.417v-2.11l1.025,1.022v2.11h-2.417v9.666h-2.35l-1.025-1.022Z" transform="translate(-78.323 -20.887)" fill="#a499c9" fill-rule="evenodd"/>
      <path id="패스_792020" data-name="패스 792020" d="M1187.577,2529.539h2.35v-11.753l1.025,1.022v11.753h-2.35l-1.025-1.022Z" transform="translate(-90.812 -20.887)" fill="#a499c9" fill-rule="evenodd"/>
      <path id="패스_792021" data-name="패스 792021" d="M1054.72,2529.579l.244-.245h3.986c1.622,0,2.777-1.737,2.777-3.177a2.757,2.757,0,0,0-1.383-2.586l-.373-.2.363-.221a2.979,2.979,0,0,0,1.091-2.28,2.9,2.9,0,0,0-1.924-2.742l.08-.226a3.456,3.456,0,0,1,1.333.813,9.584,9.584,0,0,1,.726.722,7.085,7.085,0,0,1,.551.7,3.391,3.391,0,0,1,.579,1.831,3.3,3.3,0,0,1-1.112,2.424l.479.479a3.14,3.14,0,0,1,.936,2.386c0,1.52-1.215,3.422-3.021,3.422h-4.231l-1.1-1.1Zm3.518-4.191v2.569h-1.345v-3.911h1.453a1.617,1.617,0,0,1,1.387,1.4.806.806,0,0,0-.287-.054Zm0-4.666v1.937a1.914,1.914,0,0,1-.194.01h-1.151v-3.289h1.151a1.447,1.447,0,0,1,1.439,1.39,1.2,1.2,0,0,0-.339-.048Z" transform="translate(-14.046 -20.953)" fill="#231815" fill-rule="evenodd"/>
      <path id="패스_792022" data-name="패스 792022" d="M1078.6,2527.57a3.379,3.379,0,0,0,6.392-1.512v-8.253l.245-.245,1.1,1.1v8.5a3.651,3.651,0,0,1-3.626,3.606,4.4,4.4,0,0,1-2.594-1,5.832,5.832,0,0,1-1.322-1.457c-.036-.076-.2-.339-.363-.689l.169-.046Zm1.557-9.764.245-.245,1.1,1.1v8.5a1.2,1.2,0,0,0,.044.325,1.412,1.412,0,0,1-1.388-1.422v-8.253Z" transform="translate(-27.735 -20.756)" fill="#231815" fill-rule="evenodd"/>
      <path id="패스_792023" data-name="패스 792023" d="M1127.489,2522.457l-.66,2.919h-1.6l1.251-5.535c.09-.389.4-.373.478.005l.529,2.611Zm2.255,8.023-1.1-1.1.244-.245h1.938l-2.607-11.332.195-.245,1.1,1.1,2.817,11.82Zm-1.07-2.177h-2.507l-.492,2.177h-2.507l-1.1-1.1.315-.245h2l.492-2.178h3.53l.272,1.342Z" transform="translate(-52.956 -20.757)" fill="#231815" fill-rule="evenodd"/>
      <path id="패스_792024" data-name="패스 792024" d="M1148.265,2530.5l-1.1-1.1.245-.244h1.928v-9.666h2.418v-1.689l.244-.245,1.1,1.1v2.177h-2.417v9.666Zm-.856-9.666h-1.561l-1.1-1.1.245-.244h2.417v1.342Z" transform="translate(-66.065 -20.757)" fill="#231815" fill-rule="evenodd"/>
      <path id="패스_792025" data-name="패스 792025" d="M1168.395,2520.836h-1.561l-1.1-1.1.245-.244h2.417v1.342Zm4.346-3.03.245-.245,1.1,1.1v2.177h-2.417v9.666h-2.417l-1.1-1.1.244-.244h1.929v-9.666h2.417v-1.689Z" transform="translate(-78.193 -20.757)" fill="#231815" fill-rule="evenodd"/>
      <path id="패스_792026" data-name="패스 792026" d="M1189.525,2517.806l.245-.245,1.1,1.1v11.821h-2.417l-1.1-1.1.244-.244h1.929v-11.332Z" transform="translate(-90.681 -20.757)" fill="#231815" fill-rule="evenodd"/>
      <path id="패스_792027" data-name="패스 792027" d="M1103.308,2529.648a6.028,6.028,0,0,1-1.368-1.537c-.038-.081-.207-.357-.376-.723l.171-.055a3.461,3.461,0,0,0,3.091,1.974,3.026,3.026,0,0,0,3.357-3.362v-2.654l.245-.245,1.1,1.1v2.9a3.266,3.266,0,0,1-3.6,3.605,4.342,4.342,0,0,1-2.618-1Zm3.249-3.639h-.366l-1.1-1.1.245-.245h1.222v1.342Zm-1.774,1.5a1.6,1.6,0,0,1-1.435-1.562v-5.175a1.607,1.607,0,0,1,1.456-1.638,1.554,1.554,0,0,1,1.745,1.468,1.331,1.331,0,0,0-.624-.127,1.369,1.369,0,0,0-1.233,1.395v5.175a1.261,1.261,0,0,0,.09.465Zm1.458-10.143a3.964,3.964,0,0,1,1.224.646,5.973,5.973,0,0,1,.945.875,5.635,5.635,0,0,1,.667.968,4.2,4.2,0,0,1,.451,2.014v.245h-2.115l-1.1-1.1.245-.245h1.626a2.98,2.98,0,0,0-2-3.169l.056-.237Z" transform="translate(-41.107 -20.643)" fill="#231815" fill-rule="evenodd"/>
      <path id="패스_792028" data-name="패스 792028" d="M1057.137,2524.094v3.422h1.209c.767,0,1.209-.842,1.209-1.71,0-.933-.583-1.711-1.209-1.711Zm0-4.666v2.8h.906c.767,0,1.209-.532,1.209-1.4a1.246,1.246,0,0,0-1.209-1.4Zm3.324,3.733a3,3,0,0,1,1.511,2.8c0,1.52-1.215,3.422-3.021,3.422h-4.231v-11.821h3.928a3.058,3.058,0,0,1,3.022,3.111,3.211,3.211,0,0,1-1.209,2.488Z" transform="translate(-14.046 -20.758)" fill="#fff" fill-rule="evenodd"/>
      <path id="패스_792029" data-name="패스 792029" d="M1082.2,2526.059v-8.5h2.417v8.5a3.626,3.626,0,0,1-7.252,0v-8.5h2.417v8.5a1.209,1.209,0,0,0,2.417,0Z" transform="translate(-27.123 -20.757)" fill="#fff" fill-rule="evenodd"/>
      <path id="패스_792030" data-name="패스 792030" d="M1105.78,2525.671v-1.032h-1.222v-1.866h3.337v2.9a3.266,3.266,0,0,1-3.6,3.606,3.673,3.673,0,0,1-3.65-3.606V2520.5a3.672,3.672,0,0,1,3.65-3.605,3.266,3.266,0,0,1,3.6,3.605v.245h-2.115v-.245a1.324,1.324,0,0,0-1.487-1.395,1.363,1.363,0,0,0-1.233,1.395v5.174a1.354,1.354,0,0,0,1.233,1.322,1.272,1.272,0,0,0,1.487-1.322Z" transform="translate(-40.575 -20.371)" fill="#fff" fill-rule="evenodd"/>
      <path id="패스_792031" data-name="패스 792031" d="M1127.782,2525.131l-1.062-5.236-1.184,5.236Zm-5.714,4.251,3.022-11.821h3.324l2.719,11.821h-2.489l-.442-2.178h-3.135l-.492,2.178Z" transform="translate(-52.957 -20.758)" fill="#fff" fill-rule="evenodd"/>
      <path id="패스_792032" data-name="패스 792032" d="M1149.583,2529.4h-2.417v-9.666h-2.417v-2.178H1152v2.178h-2.417v9.666Z" transform="translate(-66.066 -20.758)" fill="#fff" fill-rule="evenodd"/>
      <path id="패스_792033" data-name="패스 792033" d="M1170.568,2529.4h-2.417v-9.666h-2.417v-2.178h7.252v2.178h-2.417v9.666Z" transform="translate(-78.194 -20.758)" fill="#fff" fill-rule="evenodd"/>
      <path id="패스_792034" data-name="패스 792034" d="M1187.352,2517.561h2.417v11.821h-2.417v-11.821Z" transform="translate(-90.681 -20.758)" fill="#fff" fill-rule="evenodd"/>
      <path id="패스_792035" data-name="패스 792035" d="M1119.266,2499.4v1.985h1.965a.993.993,0,1,0,0-1.985Zm0-3.079v1.769h1.965a.885.885,0,1,0,0-1.769Zm-3.794,3.126v-1.825h1.093v.468h1.23v-1.769h-2.953v.594h-1.093v-1.688h7.482a2.086,2.086,0,0,1,1.569,3.46l-.029.033.031.031a2.194,2.194,0,0,1-1.571,3.725h-7.482v-1.687h1.093v.594h2.953V2499.4h-1.23v.468h-1.093v-.421Z" transform="translate(-48.148 -7.859)" fill="#a499c9" fill-rule="evenodd"/>
      <path id="패스_792036" data-name="패스 792036" d="M1121.166,2501.268a.945.945,0,0,0,0-1.89h-1.918v1.89Zm0-3.294a.837.837,0,1,0,0-1.675h-1.918v1.675Zm-4.618,1.4v.468h-1.188V2497.5h1.188v.469h1.134V2496.3h-2.857v.594h-1.189v-1.782h7.529a2.133,2.133,0,0,1,1.6,3.539,2.241,2.241,0,0,1-1.6,3.806h-7.529v-1.782h1.189v.594h2.857v-1.89Z" transform="translate(-48.083 -7.794)" fill="#231815" fill-rule="evenodd"/>
    </g>
  </g>
</svg>
