<svg xmlns="http://www.w3.org/2000/svg" width="100" height="100"><defs><clipPath id="a"><path data-name="사각형 303213" fill="none" d="M0 0h37v56H0z"/></clipPath></defs><g data-name="그룹 398166"><g data-name="그룹 398165" clip-path="url(#a)" fill-rule="evenodd" transform="translate(31 22)"><path data-name="패스 804034" d="M1.767.096h33.411a1.753 1.753 0 011.722 1.77v52.355a1.753 1.753 0 01-1.722 1.77H1.767a1.752 1.752 0 01-1.721-1.77V1.868A1.747 1.747 0 011.767.096"/><path data-name="패스 804035" d="M31.926 52.112h-2.113v-.826h.418v-2.811h-.418v-.737h2.112v.728h-.409v2.811h.409zm.027-5.379c0 .116-.1.224-.3.305a2.208 2.208 0 01-.783.126 2.146 2.146 0 01-.766-.126c-.21-.081-.309-.18-.309-.305s.1-.216.309-.306a2.108 2.108 0 01.766-.126 2.2 2.2 0 01.774.126c.2.09.309.189.309.306m-2.86 3.394H27.8v-1.428a.313.313 0 00-.018-.116.076.076 0 00-.055-.018c-.082 0-.21.1-.4.288a2.685 2.685 0 00-.328.412v2.021h.409v.826h-2.076v-.826h.431v-2.811h-.428v-.737h1.667v.62a1.934 1.934 0 01.51-.378 1.557 1.557 0 01.774-.234.829.829 0 01.593.2.676.676 0 01.218.521zm-5.784 1.384v-1.528h-.638c-.165 0-.246.072-.246.216v1.059a.23.23 0 00.263.261h.62zm1.621.6h-2.8a.938.938 0 01-.729-.279.87.87 0 01-.246-.637v-.943c0-.5.318-.754.947-.754h1.22v-.942c0-.144-.064-.216-.191-.216h-.483a.188.188 0 00-.155.064.214.214 0 00-.055.134v.61h-1.287v-.547q0-.862 1.093-.862h1.394c.646 0 .966.3.966.889v2.658h.327zm-4.208-1.985h-1.293v-1.427a.308.308 0 00-.019-.116.074.074 0 00-.055-.018c-.081 0-.21.1-.4.288a2.745 2.745 0 00-.328.412v2.021h.41v.826h-2.074v-.826h.428v-2.811h-.428v-.737h1.667v.62a1.951 1.951 0 01.51-.378 1.56 1.56 0 01.775-.234.828.828 0 01.592.2.673.673 0 01.218.521zm-4.171 0h-1.294v-1.427a.289.289 0 00-.019-.116.074.074 0 00-.055-.018c-.081 0-.209.1-.4.288a2.746 2.746 0 00-.328.412v2.021h.41v.826h-2.077v-.826h.429v-2.811h-.429v-.737h1.667v.62a1.968 1.968 0 01.51-.378 1.563 1.563 0 01.775-.234.827.827 0 01.592.2.673.673 0 01.219.521zm-5.466-.35v-1.175c0-.171-.072-.251-.218-.251h-.692c-.155 0-.227.09-.227.26v1.168zm1.285.493H9.947v1.015c0 .153.081.234.246.234h.655c.155 0 .228-.081.228-.242v-.593h1.287v.539a.793.793 0 01-.3.656 1.27 1.27 0 01-.82.242H9.728a1.105 1.105 0 01-.8-.269.919.919 0 01-.264-.691v-2.514a.806.806 0 01.347-.692 1.284 1.284 0 01.746-.207h1.54c.711 0 1.066.306 1.066.926v1.6zm16.988-3.967v.826H7.177v1.644h.41v-.386h.628v1.545h-.628v-.369h-.41v1.733h.866v.827H4.991v-.826h.865v-4.159h-.865v-.835zm-8.116-6.7c-.1.359-.21.4-.711.61-.546.332-.838.718-.409.09l.291-.314c.283-.189.565-.513.83-.386m6.094-7.911c2.487-1.518.956-3 1.648-4.777-1.1 1.32.3 3.233-2 4.525-.665.269-.364.521.356.252m-2.587.637c-.263.269-.246.386-.172.907-.01.629-.2 1.069.127.4.045-.135.082-.269.127-.4.027-.341.164-.754-.082-.9m-4.454-3.43c.374.252.309.323-.018.656-.21.432-.037.781-.374.234l-.081-.305c.064-.242-.037-.548.473-.584m-.037 3.037a2.5 2.5 0 01-.619 1.67c-.146-.027-.282-.044-.419-.071-.218.08-.264.161-.146.242l.246.215a2.942 2.942 0 00-.072 2.138c.318.143.428.063.346-.243-.519-.8-.109-1.31.247-1.84.145.44-.292 1.2.045 1.311.328-.557.984-1.526.146-1.554a3.778 3.778 0 00.674-1.77c.019-.619-.282-.61-.447-.1m-1.968.772c.319.188.429.144.347-.126a5.3 5.3 0 00-1.166-1.311c-.273-.045-.346-.072-.227.071.382.574.774.9 1.047 1.365m-.574-2.128c-.537.215-2.633-1.86-2.787-1.967-.291-.485-.273-.71.064-.664a24.761 24.761 0 002.724 2.631m2.56-3.906c-.155 1.1-1.749-1.913-1.548-2.038-.146-.476.045-.593.318-.494a4.368 4.368 0 001.23 2.533m-8.462-2.257c-.1-.485 0-.557.474-.854.455-.466.565-1.005.438-.143-.055.143-.1.3-.156.439-.218.279-.364.728-.756.557m-.6-1.176c-.347-.01-.374-.037-.5-.386-.255-.359-.555-.935.256-.4l.273.162a.446.446 0 01-.027.62m-1.34-2.5c-.045.269-.072.288-.373.35-.328.161-.829.332-.292-.242.055-.064.11-.135.165-.2a.385.385 0 01.5.09m-1.3 3.287c.247.135.247.171.192.52.027.413-.01 1.024-.347.243-.045-.081-.081-.162-.127-.243a.493.493 0 01.282-.52m1.139 1.113a15.223 15.223 0 011.457.862c.483.234.729.018.51-.251-.82-.4-1.557-.97-1.968-.611m7.621-11.444a.264.264 0 01.282.234c0 .126-.036.233-.191.233a.383.383 0 01-.319-.322c.01-.126.073-.144.228-.144m-.98 6.483c-.045 1.1 1.758-1.948 1.868-2.065.146-.476.082-.656-.191-.557-.556.871-1.112 1.743-1.677 2.622m-1.362 1.143c-.118.1-.109.207.027.305.692-.063.857-.188 1.485.064.264.017.6-.171.347-.369-.51-.4-1.239-.107-1.859 0m-6.422 2.6a3.731 3.731 0 011.458-.026 4.411 4.411 0 001.193.153c-.246-.323-.428-.692-.692-1.006a8.09 8.09 0 01-.665-.7.591.591 0 00-.638-.08c-.246.188-.264.332-.373.62a1.549 1.549 0 01-.283 1.041m5.338-9.267a.228.228 0 01.2.269.274.274 0 01-.237.269.229.229 0 01-.2-.269.267.267 0 01.237-.269m-.684.53c-.064-.575-.045-.737.783-1.1a11.662 11.662 0 011.849-.485 1.237 1.237 0 01.883-.467c.01-.081.019-.171.036-.251a2.737 2.737 0 01-.683-.6 2.85 2.85 0 01.036-.288c.091.009.173.018.264.036-.036-.1-.064-.188-.1-.287.31.017.629.044.948.063v-.665c.027-.134.091-.17.191-.1.191.234.392.467.583.7.019-.252.073-.459.091-.71.01-.135.082-.171.228-.1.191.359.364.665.555 1.024a3.465 3.465 0 011.658.027 1.667 1.667 0 00-.127.224c.237.072.473.144.72.225a1.422 1.422 0 01-.037.188 5.426 5.426 0 011.758.44c-.382.107-.756.215-1.138.314-.21.1-.21.189 0 .288a4.38 4.38 0 012.177 1.428c-.019.063-.046.126-.064.188a3.411 3.411 0 00-2.214-.889c-.064.108-.018.215.128.315a4.448 4.448 0 002.377.988 3.172 3.172 0 01-1.949-.162c-.036.126-.11.252 0 .378a3.722 3.722 0 001.794.727c0 .064-.21.072-.21.135a3.367 3.367 0 01-1.739-.485.256.256 0 00-.165.287 9.48 9.48 0 001.531 1.9c-.064.018-.127.045-.191.063a10.071 10.071 0 01-1.631-1.364c-.055.126-.173.251 0 .377a13.685 13.685 0 011.798 1.973c-.027.135-.091.171-.191.1-.675-.656-.684-.61-1.631-.727.027.718 1.248.691 1.968 1.85-.055.018-.027.09-.082.117a1.357 1.357 0 00-1.366-.162c.282.189.565.378.847.575v.188a2.865 2.865 0 00-1.3-.188c.383.3.756.593 1.138.888.137.1.091.162-.127.189-.409-.135-.829-.279-1.239-.413.438.395.793.683 1.221 1.069.109.153.054.234-.055.251-.8-.476-.9-.673-1.785-.466v.35c.829 0 .737-.1 1.239.539a1.55 1.55 0 00-.847-.188 1.951 1.951 0 00.811 1.015c.829.62-1.1-.126-1.431-.574a3.807 3.807 0 00-1.111-.539 1.418 1.418 0 000 .952l1.2 1.94c.338.35.647.754.984 1.095.447.315.7.665 1.148.979 1.12.925 2.4 1.535 2.4 3.161 2.724.754 3.152-3.808 2.8-4.257-1.266-2.784-.392-4.912 1.4-6.124v.188a4.725 4.725 0 00-1.367 2.344c.055.207.046.494.328.413a6.047 6.047 0 011.3-1.14c.219.036.264.143.128.314a3.933 3.933 0 00-.948 2.344c.082.044.173.08.264.126.264-.288.519-.574.783-.854.2.081.218.2.064.35-.783.566.019 3.341-.164 4.347-.256 1.4-1.075 1.84-2.214 2.694a3.564 3.564 0 01-.064 2.343c-.091-.727.064-1.185-.555-1.589a4.041 4.041 0 01-.911 2.218c.3-.861.555-1.068.191-1.9a21.67 21.67 0 01-.492 1.3 7.249 7.249 0 00-.036-1.94l-.292.027c-.592 1.9-1.148 2.4-2.769 3.52-.228.144-.455.3-.684.44a2.065 2.065 0 00.165 1.464c.118.251.236.512.355.764 0 .592.027.565-.355 1.015-.319.116-.629.233-.948.35-.492.467-.974.935-1.466 1.392-.091.646-.127.493-.783.664.045.171.091.341.127.512a3.561 3.561 0 01-1.921.826c-.055-.081-.11-.171-.165-.251.137-.288.283-.575.419-.854.328-.395.583-.988 1.1-.988a2.483 2.483 0 01.037-.252c.21-.153.464-.3.674-.439.546-.512 1.029-1.015 1.576-1.526a.858.858 0 00.1-.575c-.1-.17-.2-.341-.291-.512-.11-.251-.219-.512-.328-.763-.127.017-.264.044-.392.063-.191.556-.036.593-.646.5-.529-.243-1.067-.486-1.594-.728l-1.366-.188a2.377 2.377 0 01-1.2-.315l-.783.027-.164.188c-.921.037-.7.064-1.421-.574-.118-.278-.347-.547-.464-.826a5.468 5.468 0 011.794-.063c.118.08.237.17.356.251a3.286 3.286 0 011.693.35l1.694.377c.247-.017.5-.044.747-.063.064-.134.127-.278.2-.413-.046-.17-.091-.341-.127-.5a2.046 2.046 0 01-.975-1.6 2.56 2.56 0 01-.6-.925c-.209-.979-.783-1.778.173-1.958.146-.26-.765-.745-1.038-.951-1.157-.916-2.359-1.617-2.505-3.144l-.72-.027c-.765.072-.719-.053-1.239-.539a3.854 3.854 0 01-1.63-1.05 1.805 1.805 0 00-.656-.288c-.319 0 .091 1.922-.027 2.165.337.332.364.261.328.727.309.359.474.449.519.916.046.117.082.234.127.35.62.126.428-.018.529.539a2.737 2.737 0 01-.01.79c-.045.162-.091.315-.127.476a1.918 1.918 0 01-.619-.314c-.438-.432-.474-.306-.392-.889-.264-.108-.283-.18-.455-.413 0 0 .1-.1-.127-.251-.374-.261-.292-.207-.292-.665v-.412c0-.162.127-.126-.036-.476a4.1 4.1 0 01-.292-.575c-.1-.207-.009-.574-.036-.637-.21-.566-.2-.754-.264-.727-.018.188-.045.377-.064.574v.251a9.524 9.524 0 01-.555.988c-.383.108-.62.171-.62-.412a1.846 1.846 0 01.264-1.2c.036-.134.064-.278.1-.413v-.439a2.9 2.9 0 01.556-1.9 6.671 6.671 0 00.683-1.742c.055-.54-.064-.575.419-.791.064-.323.847-.359 1.075-.224a3.879 3.879 0 01.455.377 6.843 6.843 0 011.758 1.267h.719c.21-.144.41-.3.62-.44.027-.261.883-.772 1.084-.656a4.639 4.639 0 011.284-1.753 6.789 6.789 0 011.339-2.111c.046-.215.2-.881-.091-.952-.382.117-1.448-.045-1.631-.35-.118 0-.155.054-.282.054-.119.036-.237.063-.356.1-.273.225-.327.081-.638.18-.191 0-.492.063-.555-.08-.118-.261.136-.225.3-.243.072-.017.155-.044.227-.063.356-.117.065-.134-.164-.251-.091.018-.173.044-.264.063h-.419c-.263-.1-.164-.063-.191-.368M1.794 7.795h33.429c.31.045.428.323.447.6l-.007 45.891a.526.526 0 01-.519.5H1.713a.566.566 0 01-.447-.592V8.307a.549.549 0 01.528-.512" fill="#fff000"/></g></g><path data-name="사각형 303214" fill="#009844" d="M32.302 23.339h34.34v2.204h-34.34z"/><path data-name="사각형 303215" fill="#fff" d="M32.302 25.553h34.34v2.204h-34.34z"/><path data-name="사각형 303216" fill="#e50012" d="M32.302 27.757h34.34v2.204h-34.34z"/></svg>