<svg xmlns="http://www.w3.org/2000/svg" width="100" height="100"><defs><clipPath id="a"><path data-name="사각형 299577" fill="none" d="M0 0h66v42.271H0z"/></clipPath></defs><g data-name="그룹 390824" transform="translate(17 29)" clip-path="url(#a)"><path data-name="패스 789109" d="M46.152 14.881v.114a13.674 13.674 0 01-26.579 4.525l-.125-.08-1.154.34a14.992 14.992 0 0029.2-4.515l-1.2-.49z"/><path data-name="패스 789110" d="M32.508.249a14.742 14.742 0 0114.046 10.284l.227-.011.048.012a14.995 14.995 0 00-29.308 4.182l.25-.04A14.742 14.742 0 0132.508.249"/><path data-name="패스 789111" d="M20.016 14.593a12.5 12.5 0 0123.905-4.7c.063.011.131.02.193.032l1.31.668h.026a13.672 13.672 0 00-26.616 4.228l.4.067z"/><path data-name="패스 789112" d="M32.509 27.501a12.5 12.5 0 01-11.218-7l-.28-.064-.048-.031a12.751 12.751 0 0024.284-4.853l-.261.194a12.5 12.5 0 01-12.477 11.754"/><path data-name="패스 789113" d="M46.829 10.534c.029.093.052.188.08.283 2.456.682 3.951 1.533 3.907 2.394l-1.113-.171s.378-.521-2.628-1.6c.04.165.081.332.115.5l.025.016.024.141.194.133c.67.262 1.043.542 1.036.822s-.351.5-.964.7l-.051.027v.013c.008.1.018.2.024.308 1.46-.455 1.367-1.137 1.367-1.137l.675.139a2.368 2.368 0 01-2.026 1.39c0 .167.011.334.011.5 0 .09 0 .18-.005.271l.114.046c2.465-.466 3.656-1.152 3.7-2.032.049-.994-1.68-1.977-4.479-2.744"/><path data-name="패스 789114" d="M47.491 14.492a4.63 4.63 0 01-1.012.036l.558-.309c.161-.037.3-.078.438-.119l-.024-.307-1.312.664v-.011c.007.144.015.287.016.431l.141-.106 1.2.49c0-.091.005-.18.005-.271 0-.169-.007-.335-.011-.5"/><path data-name="패스 789115" d="M46.55 10.533c.032.1.066.2.1.3l.241-.022.019.006c-.028-.095-.051-.189-.08-.283-.016 0-.031-.008-.048-.012z"/><path data-name="패스 789116" d="M46.187 11.311l1 .626c-.034-.169-.076-.335-.115-.5a27.809 27.809 0 00-.593-.205z"/><path data-name="패스 789117" d="M45.571 10.927l1.074-.1c-.029-.1-.063-.2-.1-.3l-1.092.067c.038.113.084.222.12.337"/><path data-name="패스 789118" d="M44.725 11.35l.311-.093.5-.32-.862.275c.015.046.032.092.046.139"/><path data-name="패스 789119" d="M45.573 10.93h-.012z"/><path data-name="패스 789120" d="M45.551 10.934l.028.019a.033.033 0 000-.012l-.022-.008z"/><path data-name="패스 789121" d="M46.186 11.312l.295-.08c-.269-.09-.556-.184-.871-.28z"/><path data-name="패스 789122" d="M45.549 10.931"/><path data-name="패스 789123" d="M44.115 9.923c-.062-.012-.13-.021-.193-.033.042.1.086.191.127.287l.074.012 1.426.742h.022c-.036-.115-.082-.224-.121-.337h-.026z"/><path data-name="패스 789124" d="M44.541 10.787c.05.14.094.282.138.424l.862-.275.008-.005c-.347-.052-.674-.1-1.008-.144"/><path data-name="패스 789125" d="M45.23 14.288c.006.11.012.223.015.334l.738.153c-.251.018-.485.032-.73.047 0 .059.008.116.008.172 0 .188-.006.375-.015.562l.9-.675c0-.144-.01-.287-.016-.431l-.03.016z"/><path data-name="패스 789126" d="M44.753 11.437l.283-.18-.311.093c.008.029.018.059.028.088"/><path data-name="패스 789127" d="M44.462 11.321a.2.2 0 01.094-.057c.017.039.033.082.048.122l.121-.036-.046-.139-.227.073c0 .012.007.025.011.037"/><path data-name="패스 789128" d="M44.455 11.283l.228-.073a9.991 9.991 0 00-.138-.424l-.27-.039c.063.176.125.355.18.535"/><path data-name="패스 789129" d="M45.012 14.994c0 .255-.01.506-.026.756l.261-.195c.008-.187.015-.374.015-.561 0-.057-.007-.114-.008-.172-.082.007-.163.011-.246.016v.156"/><path data-name="패스 789130" d="M45.208 14.472l-.212-.1v.2l.245.051c0-.111-.009-.224-.015-.334l-.038-.008.017.192"/><path data-name="패스 789131" d="M44.605 11.386c.015.038.031.076.045.116l.1-.065-.028-.088z"/><path data-name="패스 789132" d="M22.67 11.845c-.044.89 1.338 1.77 3.637 2.494.433.021.865.038 1.308.068 1.727.116 3.378.3 4.9.538l.483-.18c-6.39-.748-6.423-2.681-6.423-2.681l1.738.19c-.019.774 2.422 1.558 5.948 2.022l.521-.194c-3.63-.4-6.184-1.13-6.165-1.859.023-.957 4.487-1.552 9.969-1.33a52.2 52.2 0 013.968.306l1.4-.518c-17.781-2.457-17.375 1.346-17.375 1.346l-3.509-.149c.088-1.73 6.373-2.838 14.035-2.475a54.249 54.249 0 016.946.753c-.04-.1-.084-.191-.127-.287a53.8 53.8 0 00-6.774-.749c-7.909-.4-14.394.815-14.485 2.706"/><path data-name="패스 789133" d="M44.325 11.469l.106-.031a.176.176 0 01.031-.118c0-.012-.006-.025-.011-.037l-.427.136c.1.015.2.033.3.05"/><path data-name="패스 789134" d="M35.318 14.159l-.533-.056-.521.194c.136.018.272.037.412.054z"/><path data-name="패스 789135" d="M33.209 14.788a12.402 12.402 0 01-.211-.023l-.483.18.108.018z"/><path data-name="패스 789136" d="M44.451 11.279a11.575 11.575 0 00-.18-.535l-.32-.046-1.4.518c.514.06 1 .128 1.469.2z"/><path data-name="패스 789137" d="M44.964 14.234h-.021a45.4 45.4 0 01-6.442.152c-1.02-.042-2-.108-2.928-.2l-.695.188c1.152.135 2.4.238 3.715.295a45.353 45.353 0 006.281-.125l.126.027v-.2l-.022-.01c0-.045-.008-.086-.011-.13"/><path data-name="패스 789138" d="M33.382 14.806l-.58.185a36.659 36.659 0 014.589 1.016 50.294 50.294 0 007.541-.216l.055-.04c.015-.251.025-.5.025-.756v-.157a71 71 0 01-11.626-.031"/><path data-name="패스 789139" d="M44.436 11.487a.188.188 0 010-.049l-.106.031.11.018"/><path data-name="패스 789140" d="M34.778 14.362l.1.011.695-.188-.181-.018z"/><path data-name="패스 789141" d="M32.674 14.966l.128.021.579-.185-.073-.008z"/><path data-name="패스 789142" d="M32.678 14.97l.634-.172-.1-.01-.585.174.049.008"/><path data-name="패스 789143" d="M34.675 14.35l.1.012.614-.2-.074-.007z"/><path data-name="패스 789144" d="M14.749 16.905l.81-.065s-.22 1.04 2.379 1.692a20.01 20.01 0 01-.081-.352 9.287 9.287 0 01-1.063-.4c-.584-.269-.9-.545-.875-.809s.564-.777 1.63-1.016c-.01-.143-.016-.288-.021-.432-3.149.728-2.832 1.293-2.832 1.293l-1.126.041c.054-.835 1.553-1.49 3.945-1.887 0-.086 0-.17.006-.255-2.684.443-4.382 1.2-4.448 2.15-.06.88 2.311 2.226 5.195 2.923l.031-.01a13.084 13.084 0 01-.21-.681c-1.294-.385-3.076-1.1-3.34-2.193"/><path data-name="패스 789145" d="M18.815 18.722l-.385.1 1.023.614a5.658 5.658 0 01-.118-.392 1.543 1.543 0 01-.519-.326"/><path data-name="패스 789146" d="M19.453 19.44l.125.08-.04-.116z"/><path data-name="패스 789147" d="M18.24 18.713c-.04-.151-.074-.3-.107-.456h-.006c.029.117.049.185.049.185l-.234-.047q-.028-.1-.053-.2a.327.327 0 01-.032-.01c.026.118.053.235.081.352z"/><path data-name="패스 789148" d="M17.614 15.935v-.239l.168-.083c0-.05 0-.1-.005-.146l-.25.056c0 .145.01.289.021.432.019 0 .036-.01.055-.015z"/><path data-name="패스 789149" d="M18.089 19.099c.065.23.134.456.211.681l1.154-.34s-.6-.11-1.364-.341"/><path data-name="패스 789150" d="M17.751 14.933h.014c0-.086.005-.172.007-.26l-.25.04c0 .085-.006.169-.006.255l.235-.039"/><path data-name="패스 789151" d="M18.831 14.994v-.177l-.945-.16-.119.018c0 .088-.007.173-.007.26l1.067.224v-.165"/><path data-name="패스 789152" d="M17.807 15.839l1.019-.515h.006v-.049h-.153c-.326.062-.624.124-.9.186v.146l.018-.01v.236"/><path data-name="패스 789153" d="M18.24 18.713l.19.114.385-.1a2.951 2.951 0 00-.682-.466c.033.152.068.305.107.456"/><path data-name="패스 789154" d="M20.011 14.812c0-.073 0-.146.005-.219l-.785.291-.4-.067V15.159l.113.022z"/><path data-name="패스 789155" d="M19.986 15.897h.059c-.015-.213-.025-.43-.029-.647-.387.01-.781.019-1.186.032v.048l1.157.371v.2"/><path data-name="패스 789156" d="M20.618 19.595c-.346-.058-.688-.114-1.048-.178l.892-.228-.03-.085c.011.028.021.057.03.085l.131-.033.133.015c-.03-.085-.054-.172-.082-.26a.387.387 0 00-.093 0c-.018.007-.037.01-.054.015l.014.054-.972.419.04.116 1.385.889a12.738 12.738 0 01-.346-.814"/><path data-name="패스 789157" d="M21.291 20.503a12.295 12.295 0 01-.382-.861c-.1-.015-.195-.033-.291-.049.107.277.221.548.346.814l.048.031.28.064"/><path data-name="패스 789158" d="M28.106 16.206l.249.03 2.112-.631-.1-.012z"/><path data-name="패스 789159" d="M27.125 14.76q.515.036 1.019.081a25.543 25.543 0 01-1.838-.5 51.986 51.986 0 00-5.7.033l-.593.221c0 .073 0 .145-.005.218l.2-.068a51.757 51.757 0 016.919.016"/><path data-name="패스 789160" d="M25.983 16.003c.73.056 1.439.126 2.123.2l2.262-.612a75.591 75.591 0 00-10.352-.349c0 .217.015.434.029.647a47.466 47.466 0 015.938.111"/><path data-name="패스 789161" d="M21.577 19.002c-.442-.05-.779-.085-.934-.091.028.088.052.175.082.26l.3.036z"/><path data-name="패스 789162" d="M28.739 16.285l.125.015 1.045-.388z"/><path data-name="패스 789163" d="M30.665 15.631l-.2-.024-2.112.63c.129.015.258.03.384.048l1.175-.373z"/><path data-name="패스 789164" d="M41.684 18.784c.068-.976-1.588-1.971-4.292-2.778-.189-.008-.377-.014-.568-.023a61.06 61.06 0 01-1.885-.125c3.591.818 5.909 1.928 5.838 3l-3.5-.263s.514-2.042-6.517-2.951l-.847.27-1.045.388c4.041.526 6.936 1.41 6.864 2.189-.088.953-4.594 1.387-10.064.969-1.045-.081-2.919-.321-4.086-.455l-.551.205c1.032.128 1.89.278 3.937.441 5.729.458 11.014.038 11.114-1.023h1.191s-.341 3.651-16.36 1.012c.117.293.245.579.382.861a30.541 30.541 0 005.852.741c7.9.529 14.411-.572 14.54-2.46"/><path data-name="패스 789165" d="M29.909 15.912l.847-.27-.091-.011z"/><path data-name="패스 789166" d="M31.647 15.249h.013l.161-.048h.013z"/><path data-name="패스 789167" d="M31.647 15.25l.187-.052.686-.248a56.585 56.585 0 00-4.9-.538c-.444-.03-.875-.048-1.309-.068.56.178 1.177.345 1.839.5"/><path data-name="패스 789168" d="M31.683 15.253l.138-.052-.161.049h.023"/><path data-name="패스 789169" d="M31.822 15.201l.048-.014-.036.01z"/><path data-name="패스 789170" d="M31.87 15.187l.755-.225-.108-.017-.682.252z"/><path data-name="패스 789171" d="M34.938 15.859q.926.075 1.885.125c.192.01.379.015.568.023a36.672 36.672 0 00-4.589-1.015l-.917.292c1.091.168 2.115.362 3.053.576"/><path data-name="패스 789172" d="M31.87 15.187l-.048.014-.139.052.2.03.918-.292-.125-.021z"/><path data-name="패스 789173" d="M31.87 15.187l.8-.217-.049-.008z"/><path data-name="패스 789174" d="M19.408 19.029a.145.145 0 00-.025.015c-.011.011-.032 0-.049 0 .037.135.076.268.119.392l.085-.036c-.043-.127-.091-.249-.13-.375"/><path data-name="패스 789175" d="M18.831 15.326h-.006.006z"/><path data-name="패스 789176" d="M19.917 15.895h.069v-.2l-1.152-.369z"/><path data-name="패스 789177" d="M19.507 19.223c-.03-.066-.057-.134-.084-.2l-.015.008c.039.127.088.249.13.375l.972-.42-.014-.054a.863.863 0 01-.185.036z"/><path data-name="패스 789178" d="M19.423 19.02c.027.068.054.137.084.2l.8-.256c-.329.028-.692-.078-.888.054"/><path data-name="패스 789179" d="M19.381 18.917c-.04-.1-.076-.21-.109-.318l-.046.013c.034.148.07.3.109.437.017 0 .038.007.049 0l.025-.015c-.011-.038-.026-.073-.037-.11z"/><path data-name="패스 789180" d="M19.226 18.612l.046-.013a8.156 8.156 0 01-.206-.832c.045.283.1.569.16.846"/><path data-name="패스 789181" d="M20.346 18.308l-1.074.291c.033.108.07.215.109.318l1.036-.309c-.022-.087-.045-.189-.071-.3"/><path data-name="패스 789182" d="M19.986 15.892h-.069l-1.086-.57v.185c.021.38.081 1.3.231 2.254a8.273 8.273 0 00.206.832l1.074-.291a13.327 13.327 0 01-.359-2.413"/><path data-name="패스 789183" d="M19.381 18.917h-.009c.011.037.026.071.037.11l.015-.009-.043-.1"/><path data-name="패스 789184" d="M20.311 18.967a.89.89 0 00.185-.034c0-.007 0-.014-.006-.021z"/><path data-name="패스 789185" d="M19.381 18.918c.013.036.028.069.043.1.2-.132.559-.026.888-.054l.18-.057a15.751 15.751 0 01-.074-.3z"/><path data-name="패스 789186" d="M17.783 15.613l-.168.083v.239l.177-.088c0-.078 0-.157-.007-.234"/><path data-name="패스 789187" d="M17.942 18.393l.233.047s-.019-.068-.048-.185a9.558 9.558 0 01-.238-.064c.017.067.034.134.053.2"/><path data-name="패스 789188" d="M17.806 15.841v-.236l-.018.01c0 .077 0 .156.007.234z"/><path data-name="패스 789189" d="M17.791 15.847l-.177.089a10.067 10.067 0 00.275 2.255c.081.023.159.044.238.064a11.926 11.926 0 01-.3-1.947c-.014-.154-.028-.306-.037-.461"/><path data-name="패스 789190" d="M17.828 16.307c-.01-.152-.018-.308-.022-.468l-.015.007c.01.155.023.307.037.461"/><path data-name="패스 789191" d="M44.462 11.32l.028.1.114-.034c-.016-.04-.031-.083-.048-.122a.2.2 0 00-.094.057"/><path data-name="패스 789192" d="M44.996 14.373l.212.1s-.005-.07-.017-.192l-.2-.042c0 .046.007.09.009.136"/><path data-name="패스 789193" d="M44.491 11.419l.022.08.112.018.025-.016a2.354 2.354 0 00-.045-.117z"/><path data-name="패스 789194" d="M44.431 11.438l.059-.018c-.01-.033-.018-.066-.029-.1a.178.178 0 00-.031.118"/><path data-name="패스 789195" d="M44.964 14.234c0 .044.009.085.011.13l.022.01c0-.046-.007-.09-.009-.136z"/><path data-name="패스 789196" d="M44.436 11.487l.077.012-.022-.08-.059.018a.188.188 0 000 .049"/><path data-name="패스 789197" d="M44.987 14.238l.2.042a13.527 13.527 0 00-.472-2.571l-.136.037a12.5 12.5 0 01.4 2.492"/><path data-name="패스 789198" d="M44.513 11.5c.024.082.048.163.07.246l.136-.037a5.574 5.574 0 00-.07-.207l-.026.016-.112-.018"/><path data-name="패스 789199" d="M44.964 14.234h.023a12.465 12.465 0 00-.4-2.492l-.066.018a11.909 11.909 0 01.446 2.47"/><path data-name="패스 789200" d="M44.439 11.518s.031.09.08.246l.065-.018a17.65 17.65 0 00-.07-.246l-.077-.012v.031"/><path data-name="패스 789201" d="M47.239 12.096l-.024-.142-.025-.016.027.142z"/><path data-name="패스 789202" d="M47.451 13.792v-.012h-.005v.012"/><path data-name="패스 789203" d="M46.125 11.327l1.092.752a3.237 3.237 0 00-.027-.142l-1-.626z"/><path data-name="패스 789204" d="M46.138 14.45v.011l1.312-.664v-.016z"/><path data-name="패스 789205" d="M45.575 10.941a.042.042 0 010 .012l.546.375.062-.016-.576-.36-.036-.011"/><path data-name="패스 789206" d="M45.575 10.929z"/><path data-name="패스 789207" d="M47.449 13.781h.005a15.514 15.514 0 00-.216-1.683l-.022-.016a14.816 14.816 0 01.232 1.7"/><path data-name="패스 789208" d="M47.22 12.083l-1.092-.752-.413.112a13.572 13.572 0 01.426 3.01l1.311-.669a14.816 14.816 0 00-.232-1.7"/><path data-name="패스 789209" d="M45.712 11.44l.413-.112-.546-.375c.018.06.07.234.133.487"/><path data-name="패스 789210" d="M3.271 34.943l.529 1.153-.678 1.64h2.049l1.154-2.726 1.113 2.726h2.008s-1.093-2.519-1.438-3.174c-.38-.719-.488-.8-1.1-.8H4.941l-.516 1.1-.488-1.1H1.968L0 37.737h2.1z" fill="#231815"/><path data-name="패스 789211" d="M12.135 33.746h-2.05v4.37h2.05v-1.708h1.3v-.923h-1.3z" fill="#231815"/><path data-name="패스 789212" d="M23.701 35.973c.516 0 1.914-.556 1.914-1.126s-1.535-1.6-5.213-1.6-5.552.841-5.552 1.574 1.9 1.2 1.9 1.2v1.18h-2.633v.936h12.216v-.936h-2.632zm-2.2 1.222H18.99v-.881a8.527 8.527 0 001.221.081c.72 0 1.29-.053 1.29-.053zm-1.3-1.628c-1.127-.015-3.027-.1-3.027-.719 0-.665 1.955-.786 3.109-.786s3.082.149 3.068.813c-.014.61-2.078.707-3.15.693" fill="#231815"/><path data-name="패스 789213" d="M35.132 34.916v-.994h-7.646v.989h1.166l-1.446 6.226h2.168s1.408-5.9 1.433-6.048.1-.177.19-.177h.609c.178 0 .178.139.178.139l1.446 6.086h2.168l-1.484-6.224z" fill="#231815"/><path data-name="패스 789214" d="M38.531 33.749h-1.977v8.166h1.966v-4.351h1.318v-1.073h-1.307z" fill="#231815"/><path data-name="패스 789215" d="M47.795 36.635h4.04v-.9H43.37v-1.022h8.481v-.964H41.415s-.016.788-.016 1.66.275 1.228 1.453 1.228H45.6v.63h-5.008v.951h12.131v-.969h-4.928z" fill="#231815"/><path data-name="패스 789216" d="M61.3 34.955v-.953h-2.632v-.726h-2.294v.726h-2.682l.016.953h1.227l-1.55 6.186h2.2s1.453-5.976 1.486-6.12.194-.1.533-.113c.4-.016.324.064.372.161s1.469 6.072 1.469 6.072h2.165l-1.534-6.186z" fill="#231815"/><path data-name="패스 789217" d="M64.692 33.744h-2.019l.015 8.155h2v-4.327h1.309v-1h-1.309z" fill="#231815"/><path data-name="패스 789218" d="M6.799 38.233c-3.1 0-5.3 1.019-5.3 2.052s2.422 1.987 5.3 1.987 5.428-.92 5.428-1.987-2.326-2.052-5.428-2.052m0 3.085c-.807 0-3-.161-3-1.033s2.164-1.1 3-1.1 3.118.211 3.118 1.1-2.311 1.033-3.118 1.033" fill="#231815"/><path data-name="패스 789219" d="M20.162 38.631c-3.219 0-5.5.914-5.5 1.844s2.515 1.785 5.5 1.785 5.635-.828 5.635-1.785-2.414-1.844-5.635-1.844m.033 2.71c-.839 0-3.15-.082-3.15-.865s2.246-.924 3.118-.924 3.238.126 3.238.924-2.369.865-3.206.865" fill="#231815"/><path data-name="패스 789220" d="M46.654 38.602c-3.1 0-5.3.915-5.3 1.844s2.423 1.785 5.3 1.785 5.427-.827 5.427-1.785-2.326-1.844-5.427-1.844m0 2.772c-.808 0-3-.144-3-.929s2.164-.987 3-.987 3.118.189 3.118.987-2.311.929-3.118.929" fill="#231815"/><path data-name="패스 789221" d="M33.001 41.818z"/></g></svg>