<svg xmlns="http://www.w3.org/2000/svg" xmlns:xlink="http://www.w3.org/1999/xlink" width="10" height="14" viewBox="0 0 10 14">
  <defs>
    <clipPath id="clip-path">
      <rect id="사각형_300803" data-name="사각형 300803" width="10" height="14" transform="translate(351 361)" fill="red" opacity="0.464"/>
    </clipPath>
  </defs>
  <g id="마스크_그룹_198350" data-name="마스크 그룹 198350" transform="translate(-351 -361)" clip-path="url(#clip-path)">
    <path id="패스_788026" data-name="패스 788026" d="M49,14.91V50.08C49,58.319,56.159,65,65,65H197.24c8.83,0,16-6.681,16-14.92V8.38A9.041,9.041,0,0,1,214.9,4.359,25.908,25.908,0,0,1,217.76,1.29a.284.284,0,0,1,.03-.03A.762.762,0,0,0,218,.739.735.735,0,0,0,217.309,0H65C56.159,0,49,6.67,49,14.91" transform="translate(143 361)" fill="#3673ee"/>
  </g>
</svg>
