<svg xmlns="http://www.w3.org/2000/svg" width="335" height="197"><defs><clipPath id="a"><path data-name="사각형 260330" transform="translate(297 359)" fill="#fff" stroke="#707070" d="M0 0h58v197H0z"/></clipPath><clipPath id="b"><path data-name="사각형 260333" transform="translate(20 359)" fill="#fff" stroke="#707070" d="M0 0h277v197H0z"/></clipPath></defs><g data-name="그룹 403768"><g data-name="right BG" transform="translate(-20 -359)" clip-path="url(#a)"><path data-name="패스 687293" d="M355 540V375a16 16 0 00-16-16h-31.91c-1.158.037-2.626 1.155-3.927 2.994a7.123 7.123 0 01-1.988 1.881 7.6 7.6 0 01-5.489 1.057 7.33 7.33 0 01-4.686-2.938c-1.8-2.554-3.23-2.972-3.922-2.993H36a16 16 0 00-16 16v65h.023v39H20v61a16 16 0 0016 16h251.011c1.177 0 2.671-1.121 4-3a7.1 7.1 0 011.987-1.881 7.6 7.6 0 015.49-1.057 7.328 7.328 0 014.684 2.939c1.384 1.961 2.767 3 4 3H339A16 16 0 00355 540z" fill="#6257ff"/></g><g data-name="left BG" transform="translate(-20 -359)" clip-path="url(#b)"><path data-name="패스 687296" d="M355 540V375a16 16 0 00-16-16h-31.91c-1.158.037-2.626 1.155-3.927 2.994a7.123 7.123 0 01-1.988 1.881 7.6 7.6 0 01-5.489 1.057 7.33 7.33 0 01-4.686-2.938c-1.8-2.554-3.23-2.972-3.922-2.993H36a16 16 0 00-16 16v65h.023v39H20v61a16 16 0 0016 16h251.011c1.177 0 2.671-1.121 4-3a7.1 7.1 0 011.987-1.881 7.6 7.6 0 015.49-1.057 7.328 7.328 0 014.684 2.939c1.384 1.961 2.767 3 4 3H339A16 16 0 00355 540z" fill="#fff"/></g><g data-name="right line" transform="translate(-20 -359)" clip-path="url(#a)"><g data-name="패스 687295" fill="none" stroke-miterlimit="10"><path d="M355 540V375a16 16 0 00-16-16h-31.91c-1.158.037-2.626 1.155-3.927 2.994a7.123 7.123 0 01-1.988 1.881 7.6 7.6 0 01-5.489 1.057 7.33 7.33 0 01-4.686-2.938c-1.8-2.554-3.23-2.972-3.922-2.993H36a16 16 0 00-16 16v65h.023v39H20v61a16 16 0 0016 16h251.011c1.177 0 2.671-1.121 4-3a7.1 7.1 0 011.987-1.881 7.6 7.6 0 015.49-1.057 7.328 7.328 0 014.684 2.939c1.384 1.961 2.767 3 4 3H339A16 16 0 00355 540z"/><path d="M354 375c0-4.007-1.56-7.774-4.393-10.607A14.902 14.902 0 00339 360h-30.5v.001H307.11c-.677.031-1.903.836-3.132 2.574a8.117 8.117 0 01-2.265 2.144 8.598 8.598 0 01-6.208 1.197c-2.18-.4-4.067-1.588-5.32-3.345-1.637-2.318-2.79-2.555-3.123-2.57H126.276l-.012-.001H36c-4.007 0-7.774 1.56-10.607 4.393A14.902 14.902 0 0021 375v64h.023v41H21v60c0 4.007 1.56 7.774 4.393 10.607A14.902 14.902 0 0036 555h24.5v-.001h226.511c.678 0 1.924-.796 3.182-2.578a8.095 8.095 0 012.264-2.145 8.6 8.6 0 016.209-1.197c2.179.4 4.067 1.588 5.32 3.345 1.155 1.637 2.315 2.575 3.182 2.575l1 .001H339c4.007 0 7.774-1.56 10.607-4.393A14.902 14.902 0 00354 540V375m1 0v165c0 8.837-7.163 16-16 16h-31.832v-.001c-1.232 0-2.615-1.037-3.999-2.998-1.099-1.542-2.761-2.585-4.684-2.939a7.604 7.604 0 00-5.49 1.057 7.103 7.103 0 00-1.987 1.881c-1.326 1.878-2.82 2.999-3.997 2.999H61.5V556H36c-8.837 0-16-7.163-16-16v-61h.023v-39H20v-65c0-8.837 7.163-16 16-16h90.304l.012.001H287.08c.692.021 2.118.439 3.922 2.993 1.099 1.542 2.762 2.585 4.684 2.939a7.601 7.601 0 005.489-1.057 7.123 7.123 0 001.988-1.881c1.301-1.839 2.769-2.957 3.927-2.994h.41V359H339c8.837 0 16 7.163 16 16z" fill="#493cff"/></g></g><g data-name="left line" transform="translate(-20 -359)" clip-path="url(#b)"><g data-name="패스 687294" fill="none" stroke-miterlimit="10"><path d="M355 540V375a16 16 0 00-16-16h-31.91c-1.158.037-2.626 1.155-3.927 2.994a7.123 7.123 0 01-1.988 1.881 7.6 7.6 0 01-5.489 1.057 7.33 7.33 0 01-4.686-2.938c-1.8-2.554-3.23-2.972-3.922-2.993H36a16 16 0 00-16 16v65h.023v87H20v13a16 16 0 0016 16h251.011c1.177 0 2.671-1.121 4-3a7.1 7.1 0 011.987-1.881 7.6 7.6 0 015.49-1.057 7.328 7.328 0 014.684 2.939c1.384 1.961 2.767 3 4 3H339A16 16 0 00355 540z"/><path d="M354 375c0-4.007-1.56-7.774-4.393-10.607A14.902 14.902 0 00339 360h-30.5v.001H307.11c-.677.031-1.903.836-3.132 2.574a8.117 8.117 0 01-2.265 2.144 8.598 8.598 0 01-6.208 1.197c-2.18-.4-4.067-1.588-5.32-3.345-1.637-2.318-2.79-2.555-3.123-2.57H126.276l-.012-.001H36c-4.007 0-7.774 1.56-10.607 4.393A14.902 14.902 0 0021 375v64h.023v89H21v12c0 4.007 1.56 7.774 4.393 10.607A14.902 14.902 0 0036 555h24.5v-.001h226.511c.678 0 1.924-.796 3.182-2.578a8.095 8.095 0 012.264-2.145 8.6 8.6 0 016.209-1.197c2.179.4 4.067 1.588 5.32 3.345 1.155 1.637 2.315 2.575 3.182 2.575l1 .001H339c4.007 0 7.774-1.56 10.607-4.393A14.902 14.902 0 00354 540V375m1 0v165c0 8.837-7.163 16-16 16h-31.832v-.001c-1.232 0-2.615-1.037-3.999-2.998-1.099-1.542-2.761-2.585-4.684-2.939a7.604 7.604 0 00-5.49 1.057 7.103 7.103 0 00-1.987 1.881c-1.326 1.878-2.82 2.999-3.997 2.999H61.5V556H36c-8.837 0-16-7.163-16-16v-13h.023v-87H20v-65c0-8.837 7.163-16 16-16h90.304l.012.001H287.08c.692.021 2.118.439 3.922 2.993 1.099 1.542 2.762 2.585 4.684 2.939a7.601 7.601 0 005.489-1.057 7.123 7.123 0 001.988-1.881c1.301-1.839 2.769-2.957 3.927-2.994h.41V359H339c8.837 0 16 7.163 16 16z" fill="#999"/></g></g><path data-name="선 92602" fill="none" stroke="#6257ff" stroke-dasharray="4 2" d="M276.5 9.5v180"/></g></svg>