<svg xmlns="http://www.w3.org/2000/svg" xmlns:xlink="http://www.w3.org/1999/xlink" width="335" height="197" viewBox="0 0 335 197">
  <defs>
    <clipPath id="clip-path">
      <rect id="사각형_260330" data-name="사각형 260330" width="58" height="197" transform="translate(297 359)" fill="#fff" stroke="#707070" stroke-width="1"/>
    </clipPath>
    <clipPath id="clip-path-2">
      <rect id="사각형_260333" data-name="사각형 260333" width="277" height="197" transform="translate(20 359)" fill="#fff" stroke="#707070" stroke-width="1"/>
    </clipPath>
  </defs>
  <g id="BG" transform="translate(-20 -249)">
    <g id="right_BG" data-name="right BG" transform="translate(0 -110)" clip-path="url(#clip-path)">
      <path id="패스_687293" data-name="패스 687293" d="M973.5,282h-165a16,16,0,0,0-16,16v31.5h0v.41c.037,1.158,1.155,2.626,2.994,3.927a7.123,7.123,0,0,1,1.881,1.988,7.6,7.6,0,0,1,1.057,5.489A7.33,7.33,0,0,1,795.494,346c-2.554,1.8-2.972,3.23-2.993,3.922V575.5h0V601a16,16,0,0,0,16,16h65v-.023h39V617h61a16,16,0,0,0,16-16V575.5h0V349.989c0-1.177-1.121-2.671-3-4a7.1,7.1,0,0,1-1.881-1.987,7.6,7.6,0,0,1-1.057-5.49,7.328,7.328,0,0,1,2.939-4.684c1.961-1.384,3-2.767,3-4h0V298A16,16,0,0,0,973.5,282Z" transform="translate(637 -433.5) rotate(90)" fill="#f9f9f9" style="mix-blend-mode: luminosity;isolation: isolate"/>
    </g>
    <g id="left_BG" data-name="left BG" transform="translate(0 -110)" clip-path="url(#clip-path-2)">
      <path id="패스_687296" data-name="패스 687296" d="M973.5,282h-165a16,16,0,0,0-16,16v31.5h0v.41c.037,1.158,1.155,2.626,2.994,3.927a7.123,7.123,0,0,1,1.881,1.988,7.6,7.6,0,0,1,1.057,5.489A7.33,7.33,0,0,1,795.494,346c-2.554,1.8-2.972,3.23-2.993,3.922V575.5h0V601a16,16,0,0,0,16,16h65v-.023h39V617h61a16,16,0,0,0,16-16V575.5h0V349.989c0-1.177-1.121-2.671-3-4a7.1,7.1,0,0,1-1.881-1.987,7.6,7.6,0,0,1-1.057-5.49,7.328,7.328,0,0,1,2.939-4.684c1.961-1.384,3-2.767,3-4h0V298A16,16,0,0,0,973.5,282Z" transform="translate(637 -433.5) rotate(90)" fill="#fff"/>
    </g>
    <g id="right_line" data-name="right line" transform="translate(0 -110)" clip-path="url(#clip-path)">
      <g id="패스_687295" data-name="패스 687295" transform="translate(637 -433.5) rotate(90)" fill="none" stroke-miterlimit="10">
        <path d="M973.5,282h-165a16,16,0,0,0-16,16v31.5h0v.41c.037,1.158,1.155,2.626,2.994,3.927a7.123,7.123,0,0,1,1.881,1.988,7.6,7.6,0,0,1,1.057,5.489A7.33,7.33,0,0,1,795.494,346c-2.554,1.8-2.972,3.23-2.993,3.922V575.5h0V601a16,16,0,0,0,16,16h65v-.023h39V617h61a16,16,0,0,0,16-16V575.5h0V349.989c0-1.177-1.121-2.671-3-4a7.1,7.1,0,0,1-1.881-1.987,7.6,7.6,0,0,1-1.057-5.49,7.328,7.328,0,0,1,2.939-4.684c1.961-1.384,3-2.767,3-4h0V298A16,16,0,0,0,973.5,282Z" stroke="none"/>
        <path d="M 808.5 283 C 804.4931640625 283 800.7262573242188 284.5602416992188 797.8932495117188 287.3932495117188 C 795.0602416992188 290.2262573242188 793.5 293.9931640625 793.5 298 L 793.5 328.5 L 793.5009765625 328.5 L 793.5009765625 329.5 L 793.5009765625 329.890869140625 C 793.5321655273438 330.5673217773438 794.336669921875 331.7926025390625 796.0746459960938 333.0221557617188 C 796.9251098632812 333.627197265625 797.6466674804688 334.3893432617188 798.2189331054688 335.2870483398438 C 799.3910522460938 337.1238403320312 799.8163452148438 339.3286743164062 799.4164428710938 341.4951171875 C 799.0150756835938 343.674072265625 797.8281860351562 345.5624389648438 796.0709838867188 346.8147583007812 C 793.7529296875 348.4520874023438 793.5156860351562 349.6051025390625 793.5009765625 349.938232421875 L 793.5009765625 510.6730041503906 L 793.5009765625 510.6839904785156 L 793.5009765625 510.7237243652344 L 793.5 510.7357482910156 L 793.5 575.5 L 793.5 601 C 793.5 605.0068359375 795.0602416992188 608.773681640625 797.8932495117188 611.6068115234375 C 800.7262573242188 614.4397583007812 804.4931640625 616 808.5 616 L 872.5 616 L 872.5 615.9769897460938 L 873.5 615.9769897460938 L 912.5 615.9769897460938 L 913.5 615.9769897460938 L 913.5 616 L 973.5 616 C 977.5068359375 616 981.2737426757812 614.4397583007812 984.1067504882812 611.6068115234375 C 986.9397583007812 608.773681640625 988.5 605.0068359375 988.5 601 L 988.5 576.5 L 988.4990234375 576.5 L 988.4990234375 575.5 L 988.4990234375 349.989013671875 C 988.4990234375 349.3113403320312 987.7025756835938 348.065185546875 985.9205932617188 346.8070678710938 C 985.0681762695312 346.2011108398438 984.346435546875 345.4390258789062 983.7760009765625 344.5429077148438 C 982.6038818359375 342.7059326171875 982.1785888671875 340.5007934570312 982.5785522460938 338.333984375 C 982.9796142578125 336.1552124023438 984.16650390625 334.266845703125 985.9243774414062 333.0139770507812 C 987.5606079101562 331.8592529296875 988.4990234375 330.699462890625 988.4990234375 329.83203125 L 988.5 328.83203125 L 988.5 301.969970703125 L 988.5 298 C 988.5 293.9931640625 986.9397583007812 290.2262573242188 984.1067504882812 287.3932495117188 C 981.2737426757812 284.5602416992188 977.5068359375 283 973.5 283 L 969.9420166015625 283 L 912.5 283 L 873.5 283 L 812.0590209960938 283 L 808.5 283 M 808.5 282 L 812.0590209960938 282 L 873.5 282 L 912.5 282 L 969.9420166015625 282 L 973.5 282 C 982.3370361328125 282 989.5 289.1629638671875 989.5 298 L 989.5 301.969970703125 L 989.5 329.5 L 989.5 329.83203125 L 989.4990234375 329.83203125 C 989.4990234375 331.06396484375 988.4620361328125 332.447021484375 986.5009765625 333.8309936523438 C 984.958984375 334.9299926757812 983.916015625 336.592041015625 983.56201171875 338.5150146484375 C 983.2080078125 340.4329833984375 983.583984375 342.3829956054688 984.6190185546875 344.0050048828125 C 985.1199951171875 344.7919921875 985.7530517578125 345.4609985351562 986.5 345.9920043945312 C 988.3780517578125 347.3179931640625 989.4990234375 348.81201171875 989.4990234375 349.989013671875 L 989.4990234375 575.5 L 989.5 575.5 L 989.5 601 C 989.5 609.8369140625 982.3370361328125 617 973.5 617 L 912.5 617 L 912.5 616.9769897460938 L 873.5 616.9769897460938 L 873.5 617 L 808.5 617 C 799.6630249023438 617 792.5 609.8369140625 792.5 601 L 792.5 575.5 L 792.5 510.7019958496094 L 792.5 510.6960144042969 L 792.5009765625 510.6839904785156 L 792.5009765625 510.6730041503906 L 792.5009765625 349.9200439453125 C 792.52197265625 349.22802734375 792.9400024414062 347.802001953125 795.4940185546875 345.9979858398438 C 797.0360107421875 344.8989868164062 798.0789794921875 343.2359619140625 798.4329833984375 341.31396484375 C 798.7869873046875 339.39599609375 798.4110107421875 337.447021484375 797.3759765625 335.8250122070312 C 796.8729858398438 335.0360107421875 796.239990234375 334.3670043945312 795.4949951171875 333.8370361328125 C 793.656005859375 332.5360107421875 792.5380249023438 331.0679931640625 792.5009765625 329.9100341796875 L 792.5009765625 329.5 L 792.5 329.5 L 792.5 298 C 792.5 289.1629638671875 799.6630249023438 282 808.5 282 Z" stroke="none" fill="#d7d7d7"/>
      </g>
    </g>
    <g id="left_line" data-name="left line" transform="translate(0 -110)" clip-path="url(#clip-path-2)">
      <g id="패스_687294" data-name="패스 687294" transform="translate(637 -433.5) rotate(90)" fill="none" stroke-miterlimit="10">
        <path d="M973.5,282h-165a16,16,0,0,0-16,16v31.5h0v.41c.037,1.158,1.155,2.626,2.994,3.927a7.123,7.123,0,0,1,1.881,1.988,7.6,7.6,0,0,1,1.057,5.489A7.33,7.33,0,0,1,795.494,346c-2.554,1.8-2.972,3.23-2.993,3.922V575.5h0V601a16,16,0,0,0,16,16h65v-.023h87V617h13a16,16,0,0,0,16-16V575.5h0V349.989c0-1.177-1.121-2.671-3-4a7.1,7.1,0,0,1-1.881-1.987,7.6,7.6,0,0,1-1.057-5.49,7.328,7.328,0,0,1,2.939-4.684c1.961-1.384,3-2.767,3-4h0V298A16,16,0,0,0,973.5,282Z" stroke="none"/>
        <path d="M 808.5 283 C 804.4931640625 283 800.7262573242188 284.5602416992188 797.8932495117188 287.3932495117188 C 795.0602416992188 290.2262573242188 793.5 293.9931640625 793.5 298 L 793.5 328.5 L 793.5009765625 328.5 L 793.5009765625 329.5 L 793.5009765625 329.890869140625 C 793.5321655273438 330.5673217773438 794.336669921875 331.7926025390625 796.0746459960938 333.0221557617188 C 796.9251098632812 333.627197265625 797.6466674804688 334.3893432617188 798.2189331054688 335.2870483398438 C 799.3910522460938 337.1238403320312 799.8163452148438 339.3286743164062 799.4164428710938 341.4951171875 C 799.0150756835938 343.674072265625 797.8281860351562 345.5624389648438 796.0709838867188 346.8147583007812 C 793.7529296875 348.4520874023438 793.5156860351562 349.6051025390625 793.5009765625 349.938232421875 L 793.5009765625 510.6730041503906 L 793.5009765625 510.6839904785156 L 793.5009765625 510.7237243652344 L 793.5 510.7357482910156 L 793.5 575.5 L 793.5 601 C 793.5 605.0068359375 795.0602416992188 608.773681640625 797.8932495117188 611.6068115234375 C 800.7262573242188 614.4397583007812 804.4931640625 616 808.5 616 L 872.5 616 L 872.5 615.9769897460938 L 873.5 615.9769897460938 L 960.5 615.9769897460938 L 961.5 615.9769897460938 L 961.5 616 L 973.5 616 C 977.5068359375 616 981.2737426757812 614.4397583007812 984.1067504882812 611.6068115234375 C 986.9397583007812 608.773681640625 988.5 605.0068359375 988.5 601 L 988.5 576.5 L 988.4990234375 576.5 L 988.4990234375 575.5 L 988.4990234375 349.989013671875 C 988.4990234375 349.3113403320312 987.7025756835938 348.065185546875 985.9205932617188 346.8070678710938 C 985.0681762695312 346.2011108398438 984.346435546875 345.4390258789062 983.7760009765625 344.5429077148438 C 982.6038818359375 342.7059326171875 982.1785888671875 340.5007934570312 982.5785522460938 338.333984375 C 982.9796142578125 336.1552124023438 984.16650390625 334.266845703125 985.9243774414062 333.0139770507812 C 987.5606079101562 331.8592529296875 988.4990234375 330.699462890625 988.4990234375 329.83203125 L 988.5 328.83203125 L 988.5 301.969970703125 L 988.5 298 C 988.5 293.9931640625 986.9397583007812 290.2262573242188 984.1067504882812 287.3932495117188 C 981.2737426757812 284.5602416992188 977.5068359375 283 973.5 283 L 969.9420166015625 283 L 960.5 283 L 873.5 283 L 812.0590209960938 283 L 808.5 283 M 808.5 282 L 812.0590209960938 282 L 873.5 282 L 960.5 282 L 969.9420166015625 282 L 973.5 282 C 982.3370361328125 282 989.5 289.1629638671875 989.5 298 L 989.5 301.969970703125 L 989.5 329.5 L 989.5 329.83203125 L 989.4990234375 329.83203125 C 989.4990234375 331.06396484375 988.4620361328125 332.447021484375 986.5009765625 333.8309936523438 C 984.958984375 334.9299926757812 983.916015625 336.592041015625 983.56201171875 338.5150146484375 C 983.2080078125 340.4329833984375 983.583984375 342.3829956054688 984.6190185546875 344.0050048828125 C 985.1199951171875 344.7919921875 985.7530517578125 345.4609985351562 986.5 345.9920043945312 C 988.3780517578125 347.3179931640625 989.4990234375 348.81201171875 989.4990234375 349.989013671875 L 989.4990234375 575.5 L 989.5 575.5 L 989.5 601 C 989.5 609.8369140625 982.3370361328125 617 973.5 617 L 960.5 617 L 960.5 616.9769897460938 L 873.5 616.9769897460938 L 873.5 617 L 808.5 617 C 799.6630249023438 617 792.5 609.8369140625 792.5 601 L 792.5 575.5 L 792.5 510.7019958496094 L 792.5 510.6960144042969 L 792.5009765625 510.6839904785156 L 792.5009765625 510.6730041503906 L 792.5009765625 349.9200439453125 C 792.52197265625 349.22802734375 792.9400024414062 347.802001953125 795.4940185546875 345.9979858398438 C 797.0360107421875 344.8989868164062 798.0789794921875 343.2359619140625 798.4329833984375 341.31396484375 C 798.7869873046875 339.39599609375 798.4110107421875 337.447021484375 797.3759765625 335.8250122070312 C 796.8729858398438 335.0360107421875 796.239990234375 334.3670043945312 795.4949951171875 333.8370361328125 C 793.656005859375 332.5360107421875 792.5380249023438 331.0679931640625 792.5009765625 329.9100341796875 L 792.5009765625 329.5 L 792.5 329.5 L 792.5 298 C 792.5 289.1629638671875 799.6630249023438 282 808.5 282 Z" stroke="none" fill="#d7d7d7"/>
      </g>
    </g>
    <line id="선_92602" data-name="선 92602" y2="172" transform="translate(296.5 260.5)" fill="none" stroke="#e4e4e4" stroke-width="1" stroke-dasharray="4 2"/>
  </g>
</svg>
