<svg xmlns="http://www.w3.org/2000/svg" xmlns:xlink="http://www.w3.org/1999/xlink" width="335" height="245" viewBox="0 0 335 245">
  <defs>
    <clipPath id="clip-path">
      <rect id="사각형_260330" data-name="사각형 260330" width="58" height="245" transform="translate(297 359)" fill="#fff" stroke="#707070" stroke-width="1"/>
    </clipPath>
    <clipPath id="clip-path-2">
      <rect id="사각형_260333" data-name="사각형 260333" width="277" height="245" transform="translate(20 359)" fill="#fff" stroke="#707070" stroke-width="1"/>
    </clipPath>
  </defs>
  <g id="그룹_401799" data-name="그룹 401799" transform="translate(-20 -249)">
    <g id="BG">
      <g id="right_BG" data-name="right BG" transform="translate(0 -110)" clip-path="url(#clip-path)">
        <path id="패스_687293" data-name="패스 687293" d="M1021.5,282h-213a16,16,0,0,0-16,16v31.5h0v.41c.037,1.158,1.155,2.626,2.994,3.927a7.123,7.123,0,0,1,1.881,1.988,7.6,7.6,0,0,1,1.057,5.489A7.33,7.33,0,0,1,795.494,346c-2.554,1.8-2.972,3.23-2.993,3.922V575.5h0V601a16,16,0,0,0,16,16h65v-.023h87V617h61a16,16,0,0,0,16-16V575.5h0V349.989c0-1.177-1.121-2.671-3-4a7.1,7.1,0,0,1-1.881-1.987,7.6,7.6,0,0,1-1.057-5.49,7.328,7.328,0,0,1,2.939-4.684c1.961-1.384,3-2.767,3-4h0V298A16,16,0,0,0,1021.5,282Z" transform="translate(637 -433.5) rotate(90)" fill="#f9f9f9" style="mix-blend-mode: luminosity;isolation: isolate"/>
      </g>
      <g id="left_BG" data-name="left BG" transform="translate(0 -110)" clip-path="url(#clip-path-2)">
        <path id="패스_687296" data-name="패스 687296" d="M1021.5,282h-213a16,16,0,0,0-16,16v31.5h0v.41c.037,1.158,1.155,2.626,2.994,3.927a7.123,7.123,0,0,1,1.881,1.988,7.6,7.6,0,0,1,1.057,5.489A7.33,7.33,0,0,1,795.494,346c-2.554,1.8-2.972,3.23-2.993,3.922V575.5h0V601a16,16,0,0,0,16,16h65v-.023h87V617h61a16,16,0,0,0,16-16V575.5h0V349.989c0-1.177-1.121-2.671-3-4a7.1,7.1,0,0,1-1.881-1.987,7.6,7.6,0,0,1-1.057-5.49,7.328,7.328,0,0,1,2.939-4.684c1.961-1.384,3-2.767,3-4h0V298A16,16,0,0,0,1021.5,282Z" transform="translate(637 -433.5) rotate(90)" fill="#fff"/>
      </g>
      <g id="right_line" data-name="right line" transform="translate(0 -110)" clip-path="url(#clip-path)">
        <g id="패스_687295" data-name="패스 687295" transform="translate(637 -433.5) rotate(90)" fill="none" stroke-miterlimit="10">
          <path d="M1021.5,282h-213a16,16,0,0,0-16,16v31.5h0v.41c.037,1.158,1.155,2.626,2.994,3.927a7.123,7.123,0,0,1,1.881,1.988,7.6,7.6,0,0,1,1.057,5.489A7.33,7.33,0,0,1,795.494,346c-2.554,1.8-2.972,3.23-2.993,3.922V575.5h0V601a16,16,0,0,0,16,16h65v-.023h87V617h61a16,16,0,0,0,16-16V575.5h0V349.989c0-1.177-1.121-2.671-3-4a7.1,7.1,0,0,1-1.881-1.987,7.6,7.6,0,0,1-1.057-5.49,7.328,7.328,0,0,1,2.939-4.684c1.961-1.384,3-2.767,3-4h0V298A16,16,0,0,0,1021.5,282Z" stroke="none"/>
          <path d="M 808.5 283 C 804.4931640625 283 800.726318359375 284.5602416992188 797.893310546875 287.3932495117188 C 795.0601806640625 290.2262573242188 793.5 293.9931640625 793.5 298 L 793.5 328.5 L 793.5009765625 328.5 L 793.5009765625 329.5 L 793.5009765625 329.8907470703125 C 793.5322265625 330.5672607421875 794.336669921875 331.7926635742188 796.0745849609375 333.0221557617188 C 796.9251708984375 333.627197265625 797.646728515625 334.389404296875 798.218994140625 335.2870483398438 C 799.3909912109375 337.1238403320312 799.8162841796875 339.3286743164062 799.41650390625 341.4951171875 C 799.01513671875 343.674072265625 797.828125 345.5624389648438 796.0709228515625 346.8147583007812 C 793.7529296875 348.4520874023438 793.5157470703125 349.6051025390625 793.5009765625 349.938232421875 L 793.5009765625 510.6730041503906 L 793.5009765625 510.6839904785156 L 793.5009765625 510.7237243652344 L 793.5 510.7357482910156 L 793.5 575.5 L 793.5 601 C 793.5 605.0068359375 795.0601806640625 608.773681640625 797.893310546875 611.6068115234375 C 800.726318359375 614.4397583007812 804.4931640625 616 808.5 616 L 872.5 616 L 872.5 615.9769897460938 L 873.5 615.9769897460938 L 960.5 615.9769897460938 L 961.5 615.9769897460938 L 961.5 616 L 1021.5 616 C 1025.5068359375 616 1029.273681640625 614.4397583007812 1032.106689453125 611.6068115234375 C 1034.939697265625 608.773681640625 1036.5 605.0068359375 1036.5 601 L 1036.5 576.5 L 1036.4990234375 576.5 L 1036.4990234375 575.5 L 1036.4990234375 349.989013671875 C 1036.4990234375 349.3113403320312 1035.70263671875 348.065185546875 1033.920654296875 346.8070678710938 C 1033.068115234375 346.2011108398438 1032.346435546875 345.4390258789062 1031.776000976562 344.5429077148438 C 1030.603881835938 342.7059326171875 1030.178588867188 340.5007934570312 1030.57861328125 338.333984375 C 1030.979614257812 336.1552124023438 1032.16650390625 334.266845703125 1033.92431640625 333.0139770507812 C 1035.560546875 331.8592529296875 1036.4990234375 330.699462890625 1036.4990234375 329.83203125 L 1036.5 328.83203125 L 1036.5 301.969970703125 L 1036.5 298 C 1036.5 293.9931640625 1034.939697265625 290.2262573242188 1032.106689453125 287.3932495117188 C 1029.273681640625 284.5602416992188 1025.5068359375 283 1021.5 283 L 1017.942016601562 283 L 960.5 283 L 873.5 283 L 812.0590209960938 283 L 808.5 283 M 808.5 282 L 812.0590209960938 282 L 873.5 282 L 960.5 282 L 1017.942016601562 282 L 1021.5 282 C 1030.337036132812 282 1037.5 289.1629638671875 1037.5 298 L 1037.5 301.969970703125 L 1037.5 329.5 L 1037.5 329.83203125 L 1037.4990234375 329.83203125 C 1037.4990234375 331.06396484375 1036.462036132812 332.447021484375 1034.5009765625 333.8309936523438 C 1032.958984375 334.9299926757812 1031.916015625 336.592041015625 1031.56201171875 338.5150146484375 C 1031.2080078125 340.4329833984375 1031.583984375 342.3829956054688 1032.619018554688 344.0050048828125 C 1033.119995117188 344.7919921875 1033.753051757812 345.4609985351562 1034.5 345.9920043945312 C 1036.378051757812 347.3179931640625 1037.4990234375 348.81201171875 1037.4990234375 349.989013671875 L 1037.4990234375 575.5 L 1037.5 575.5 L 1037.5 601 C 1037.5 609.8369140625 1030.337036132812 617 1021.5 617 L 960.5 617 L 960.5 616.9769897460938 L 873.5 616.9769897460938 L 873.5 617 L 808.5 617 C 799.6630859375 617 792.5 609.8369140625 792.5 601 L 792.5 575.5 L 792.5 510.7019958496094 L 792.5 510.6960144042969 L 792.5009765625 510.6839904785156 L 792.5009765625 510.6730041503906 L 792.5009765625 349.9200439453125 C 792.52197265625 349.22802734375 792.93994140625 347.802001953125 795.4940185546875 345.9979858398438 C 797.0360107421875 344.8989868164062 798.0789794921875 343.2359619140625 798.4329833984375 341.31396484375 C 798.7869873046875 339.39599609375 798.4110107421875 337.447021484375 797.3759765625 335.8250122070312 C 796.873046875 335.0360107421875 796.239990234375 334.3670043945312 795.4949951171875 333.8370361328125 C 793.656005859375 332.5360107421875 792.5380859375 331.0679931640625 792.5009765625 329.9100341796875 L 792.5009765625 329.5 L 792.5 329.5 L 792.5 298 C 792.5 289.1629638671875 799.6630859375 282 808.5 282 Z" stroke="none" fill="#e4e4e4"/>
        </g>
      </g>
      <g id="left_line" data-name="left line" transform="translate(0 -110)" clip-path="url(#clip-path-2)">
        <g id="패스_687294" data-name="패스 687294" transform="translate(637 -433.5) rotate(90)" fill="none" stroke-miterlimit="10">
          <path d="M1021.5,282h-213a16,16,0,0,0-16,16v31.5h0v.41c.037,1.158,1.155,2.626,2.994,3.927a7.123,7.123,0,0,1,1.881,1.988,7.6,7.6,0,0,1,1.057,5.489A7.33,7.33,0,0,1,795.494,346c-2.554,1.8-2.972,3.23-2.993,3.922V575.5h0V601a16,16,0,0,0,16,16h65v-.023h87V617h61a16,16,0,0,0,16-16V575.5h0V349.989c0-1.177-1.121-2.671-3-4a7.1,7.1,0,0,1-1.881-1.987,7.6,7.6,0,0,1-1.057-5.49,7.328,7.328,0,0,1,2.939-4.684c1.961-1.384,3-2.767,3-4h0V298A16,16,0,0,0,1021.5,282Z" stroke="none"/>
          <path d="M 808.5 283 C 804.4931640625 283 800.726318359375 284.5602416992188 797.893310546875 287.3932495117188 C 795.0601806640625 290.2262573242188 793.5 293.9931640625 793.5 298 L 793.5 328.5 L 793.5009765625 328.5 L 793.5009765625 329.5 L 793.5009765625 329.8907470703125 C 793.5322265625 330.5672607421875 794.336669921875 331.7926635742188 796.0745849609375 333.0221557617188 C 796.9251708984375 333.627197265625 797.646728515625 334.389404296875 798.218994140625 335.2870483398438 C 799.3909912109375 337.1238403320312 799.8162841796875 339.3286743164062 799.41650390625 341.4951171875 C 799.01513671875 343.674072265625 797.828125 345.5624389648438 796.0709228515625 346.8147583007812 C 793.7529296875 348.4520874023438 793.5157470703125 349.6051025390625 793.5009765625 349.938232421875 L 793.5009765625 510.6730041503906 L 793.5009765625 510.6839904785156 L 793.5009765625 510.7237243652344 L 793.5 510.7357482910156 L 793.5 575.5 L 793.5 601 C 793.5 605.0068359375 795.0601806640625 608.773681640625 797.893310546875 611.6068115234375 C 800.726318359375 614.4397583007812 804.4931640625 616 808.5 616 L 872.5 616 L 872.5 615.9769897460938 L 873.5 615.9769897460938 L 960.5 615.9769897460938 L 961.5 615.9769897460938 L 961.5 616 L 1021.5 616 C 1025.5068359375 616 1029.273681640625 614.4397583007812 1032.106689453125 611.6068115234375 C 1034.939697265625 608.773681640625 1036.5 605.0068359375 1036.5 601 L 1036.5 576.5 L 1036.4990234375 576.5 L 1036.4990234375 575.5 L 1036.4990234375 349.989013671875 C 1036.4990234375 349.3113403320312 1035.70263671875 348.065185546875 1033.920654296875 346.8070678710938 C 1033.068115234375 346.2011108398438 1032.346435546875 345.4390258789062 1031.776000976562 344.5429077148438 C 1030.603881835938 342.7059326171875 1030.178588867188 340.5007934570312 1030.57861328125 338.333984375 C 1030.979614257812 336.1552124023438 1032.16650390625 334.266845703125 1033.92431640625 333.0139770507812 C 1035.560546875 331.8592529296875 1036.4990234375 330.699462890625 1036.4990234375 329.83203125 L 1036.5 328.83203125 L 1036.5 301.969970703125 L 1036.5 298 C 1036.5 293.9931640625 1034.939697265625 290.2262573242188 1032.106689453125 287.3932495117188 C 1029.273681640625 284.5602416992188 1025.5068359375 283 1021.5 283 L 1017.942016601562 283 L 960.5 283 L 873.5 283 L 812.0590209960938 283 L 808.5 283 M 808.5 282 L 812.0590209960938 282 L 873.5 282 L 960.5 282 L 1017.942016601562 282 L 1021.5 282 C 1030.337036132812 282 1037.5 289.1629638671875 1037.5 298 L 1037.5 301.969970703125 L 1037.5 329.5 L 1037.5 329.83203125 L 1037.4990234375 329.83203125 C 1037.4990234375 331.06396484375 1036.462036132812 332.447021484375 1034.5009765625 333.8309936523438 C 1032.958984375 334.9299926757812 1031.916015625 336.592041015625 1031.56201171875 338.5150146484375 C 1031.2080078125 340.4329833984375 1031.583984375 342.3829956054688 1032.619018554688 344.0050048828125 C 1033.119995117188 344.7919921875 1033.753051757812 345.4609985351562 1034.5 345.9920043945312 C 1036.378051757812 347.3179931640625 1037.4990234375 348.81201171875 1037.4990234375 349.989013671875 L 1037.4990234375 575.5 L 1037.5 575.5 L 1037.5 601 C 1037.5 609.8369140625 1030.337036132812 617 1021.5 617 L 960.5 617 L 960.5 616.9769897460938 L 873.5 616.9769897460938 L 873.5 617 L 808.5 617 C 799.6630859375 617 792.5 609.8369140625 792.5 601 L 792.5 575.5 L 792.5 510.7019958496094 L 792.5 510.6960144042969 L 792.5009765625 510.6839904785156 L 792.5009765625 510.6730041503906 L 792.5009765625 349.9200439453125 C 792.52197265625 349.22802734375 792.93994140625 347.802001953125 795.4940185546875 345.9979858398438 C 797.0360107421875 344.8989868164062 798.0789794921875 343.2359619140625 798.4329833984375 341.31396484375 C 798.7869873046875 339.39599609375 798.4110107421875 337.447021484375 797.3759765625 335.8250122070312 C 796.873046875 335.0360107421875 796.239990234375 334.3670043945312 795.4949951171875 333.8370361328125 C 793.656005859375 332.5360107421875 792.5380859375 331.0679931640625 792.5009765625 329.9100341796875 L 792.5009765625 329.5 L 792.5 329.5 L 792.5 298 C 792.5 289.1629638671875 799.6630859375 282 808.5 282 Z" stroke="none" fill="#e4e4e4"/>
        </g>
      </g>
      <line id="선_119666" data-name="선 119666" y2="221" transform="translate(296.5 260.5)" fill="none" stroke="#e4e4e4" stroke-width="1" stroke-dasharray="4 2"/>
    </g>
  </g>
</svg>
