<svg xmlns="http://www.w3.org/2000/svg" width="89.999" height="62"><defs><clipPath id="a"><path data-name="빼기 56" d="M13946 21744h0-54a8.01 8.01 0 01-8-8v-46a8.008 8.008 0 018-8h54a4 4 0 008 0h12a8.006 8.006 0 018 8v46a8.008 8.008 0 01-8 8h-12a4 4 0 10-8 0z" transform="translate(-13854 -21064)" fill="#fff" stroke="#d7d7d7"/></clipPath><clipPath id="b"><path data-name="사각형 185664" transform="translate(0 -.061)" fill="none" d="M0 0h10v10H0z"/></clipPath><clipPath id="c"><path data-name="사각형 185662" transform="translate(0 .43)" fill="none" d="M0 0h10v10H0z"/></clipPath></defs><g data-name="그룹 450250"><g data-name="빼기 57" fill="#fff"><path d="M61.541 61.5l-53.539-.002c-4.136 0-7.501-3.365-7.501-7.502V8.002C.501 3.865 3.866.5 8.002.5h53.523a4.661 4.661 0 001.288 2.768A4.41 4.41 0 0066 4.63c2.317 0 4.231-1.813 4.475-4.131h11.523c4.136 0 7.501 3.365 7.501 7.502v45.994c0 4.137-3.365 7.502-7.501 7.502h-11.54a4.665 4.665 0 00-1.318-2.687A4.418 4.418 0 0066 57.498a4.414 4.414 0 00-3.139 1.313 4.66 4.66 0 00-1.32 2.689z"/><path d="M61.122 61c.21-.959.686-1.84 1.385-2.543a4.91 4.91 0 016.986.002c.7.701 1.175 1.58 1.385 2.539h11.12c3.86 0 7.001-3.14 7.001-7.002V8.002c0-3.861-3.14-7.002-7.001-7.002H70.905C70.451 3.352 68.424 5.13 66 5.13a4.9 4.9 0 01-3.547-1.515A5.154 5.154 0 0161.093 1H8.003c-3.86 0-7.001 3.14-7.001 7.002v45.994c0 3.861 3.14 7.002 7.001 7.002l53.12.002m.88 1h-.001l-53.999-.002c-4.412 0-8.001-3.59-8.001-8.002V8.002C.001 3.59 3.59 0 8.002 0h53.997a4.18 4.18 0 001.173 2.92A3.911 3.911 0 0066 4.13c2.206 0 4.001-1.853 4.001-4.13h11.997c4.412 0 8.001 3.59 8.001 8.002v45.994c0 4.412-3.589 8.002-8.001 8.002h-12a4.179 4.179 0 00-1.213-2.834A3.916 3.916 0 0066 57.998a3.916 3.916 0 00-2.785 1.166 4.179 4.179 0 00-1.213 2.834V62z" fill="#d7d7d7"/></g><g data-name="마스크 그룹 622" transform="translate(-30 -618.002)" clip-path="url(#a)"><path data-name="사각형 252409" fill="#6955ff" d="M96 618h24v62H96z"/></g><text transform="rotate(90 27.5 48.5)" fill="#fff" font-size="5" font-family="MoebiusKorea-Bold, Moebius Korea" font-weight="700" letter-spacing=".05em" opacity=".777"><tspan x="0" y="0">DOWNLOAD</tspan></text><g data-name="그룹 214593" transform="translate(73 7.061)" opacity=".78" clip-path="url(#b)"><path data-name="패스 463082" d="M2.145 8.681h6.166a.431.431 0 010 .809H2.145z" fill="#fff"/><path data-name="선 61198" fill="none" stroke="#fff" stroke-linecap="round" d="M7.438 5.295l.809-.809"/><path data-name="패스 463083" d="M2.426 4.379l2.965 2.965 2.048-2.049" fill="none" stroke="#fff"/><path data-name="사각형 185663" fill="#fff" d="M4.959.605h.809v6.468h-.809z"/></g></g></svg>