<svg xmlns="http://www.w3.org/2000/svg" xmlns:xlink="http://www.w3.org/1999/xlink" width="335" height="215" viewBox="0 0 335 215"><defs><style>.a{fill:url(#a);}.b,.c{stroke:none;}.c{fill:#5633b1;}</style><linearGradient id="a" x1="-0.045" y1="1" x2="1.027" gradientUnits="objectBoundingBox"><stop offset="0" stop-color="#2d55a5"/><stop offset="0.724" stop-color="#573994"/><stop offset="1" stop-color="#682c8d"/></linearGradient></defs><g class="a"><path class="b" d="M 315 214 L 20 214 C 17.43458366394043 214 14.9464168548584 213.4977874755859 12.60462474822998 212.5072937011719 C 10.34224987030029 211.5503692626953 8.310208320617676 210.1802978515625 6.564958095550537 208.4350433349609 C 4.819708347320557 206.6897888183594 3.449625015258789 204.6577453613281 2.492708444595337 202.3953704833984 C 1.502208352088928 200.0535888671875 1 197.5654144287109 1 195 L 1 20 C 1 17.43458366394043 1.502208352088928 14.9464168548584 2.492708444595337 12.6046667098999 C 3.449625015258789 10.34229183197021 4.819708347320557 8.310250282287598 6.564958095550537 6.565000057220459 C 8.310208320617676 4.819708347320557 10.34224987030029 3.449625015258789 12.60462474822998 2.492708444595337 C 14.9464168548584 1.502208352088928 17.43458366394043 1 20 1 L 315 1 C 317.5654296875 1 320.0535888671875 1.502208352088928 322.3953857421875 2.492708444595337 C 324.6577453613281 3.449625015258789 326.6897888183594 4.819708347320557 328.4350280761719 6.565000057220459 C 330.1802978515625 8.310250282287598 331.5503845214844 10.34229183197021 332.5072937011719 12.6046667098999 C 333.497802734375 14.9464168548584 334 17.43458366394043 334 20 L 334 195 C 334 197.5654144287109 333.497802734375 200.0535888671875 332.5072937011719 202.3953704833984 C 331.5503845214844 204.6577453613281 330.1802978515625 206.6897888183594 328.4350280761719 208.4350433349609 C 326.6897888183594 210.1802978515625 324.6577453613281 211.5503692626953 322.3953857421875 212.5072937011719 C 320.0535888671875 213.4977874755859 317.5654296875 214 315 214 Z"/><path class="c" d="M 20 2 C 15.19204711914062 2 10.67181396484375 3.872314453125 7.2720947265625 7.272048950195312 C 3.872314453125 10.67181396484375 2 15.19200134277344 2 20 L 2 195 C 2 199.8079528808594 3.872314453125 204.3281860351562 7.2720947265625 207.7279052734375 C 10.67181396484375 211.127685546875 15.19204711914062 213 20 213 L 315 213 C 319.8079528808594 213 324.3281860351562 211.127685546875 327.7279052734375 207.7279052734375 C 331.127685546875 204.3281860351562 333 199.8079528808594 333 195 L 333 20 C 333 15.19200134277344 331.127685546875 10.67181396484375 327.7279052734375 7.272048950195312 C 324.3281860351562 3.872314453125 319.8079528808594 2 315 2 L 20 2 M 20 0 L 315 0 C 326.0456848144531 0 335 8.954269409179688 335 20 L 335 195 C 335 206.0456848144531 326.0456848144531 215 315 215 L 20 215 C 8.954315185546875 215 0 206.0456848144531 0 195 L 0 20 C 0 8.954269409179688 8.954315185546875 0 20 0 Z"/></g></svg>