<svg xmlns="http://www.w3.org/2000/svg" width="335" height="304"><defs><linearGradient id="a" y1=".07" x2="1.026" y2=".79" gradientUnits="objectBoundingBox"><stop offset="0" stop-color="#5d85fa"/><stop offset=".232" stop-color="#5581fa"/><stop offset=".877" stop-color="#4178fe"/><stop offset="1" stop-color="#3168ea"/></linearGradient><linearGradient id="b" y1=".07" x2="1.026" y2=".79" gradientUnits="objectBoundingBox"><stop offset="0" stop-color="#41d0bf"/><stop offset=".232" stop-color="#41d0bf"/><stop offset=".877" stop-color="#29d6c3"/><stop offset="1" stop-color="#29d6c3"/></linearGradient><clipPath id="c"><path data-name="패스 841493" d="M20 0h295c11.046 0 20 9.547 20 21.323v261.353c0 11.777-8.954 21.324-20 21.324H20c-11.046 0-20-9.547-20-21.324V21.323C0 9.547 8.954 0 20 0z" transform="translate(4991 2935)" stroke="#4977ea" fill="url(#a)"/></clipPath></defs><g data-name="그룹 444150"><g data-name="패스 788299" fill="url(#b)"><path d="M315 303.5H20c-2.629 0-5.179-.549-7.58-1.632a19.417 19.417 0 01-6.197-4.456 20.886 20.886 0 01-4.187-6.62A21.91 21.91 0 01.5 282.677V21.323c0-2.815.517-5.545 1.536-8.115a20.886 20.886 0 014.187-6.62 19.418 19.418 0 016.198-4.456A18.318 18.318 0 0120 .5h295c2.629 0 5.179.549 7.58 1.632a19.417 19.417 0 016.197 4.456 20.886 20.886 0 014.187 6.62 21.91 21.91 0 011.536 8.115v261.354a21.91 21.91 0 01-1.536 8.115 20.886 20.886 0 01-4.187 6.62 19.417 19.417 0 01-6.198 4.456A18.318 18.318 0 01315 303.5z"/><path d="M20 1c-2.557 0-5.038.534-7.374 1.587A18.92 18.92 0 006.587 6.93a20.387 20.387 0 00-4.086 6.462A21.412 21.412 0 001 21.323v261.353c0 2.752.505 5.42 1.501 7.932a20.387 20.387 0 004.086 6.462 18.92 18.92 0 006.04 4.343A17.822 17.822 0 0020 303h295c2.557 0 5.038-.534 7.374-1.587a18.92 18.92 0 006.039-4.343 20.386 20.386 0 004.086-6.462 21.411 21.411 0 001.501-7.932V21.323c0-2.751-.505-5.42-1.501-7.93a20.387 20.387 0 00-4.086-6.463 18.92 18.92 0 00-6.04-4.343A17.821 17.821 0 00315 1H20m0-1h295c11.046 0 20 9.547 20 21.323v261.353c0 11.777-8.954 21.324-20 21.324H20c-11.046 0-20-9.547-20-21.324V21.323C0 9.547 8.954 0 20 0z" fill="#36c9b9"/></g><g data-name="마스크 그룹 359638" transform="translate(-4991 -2935)" clip-path="url(#c)"><g data-name="그룹 400575" opacity=".25" style="mix-blend-mode:multiply;isolation:isolate" fill="#04a593"><path data-name="패스 788295" d="M5330.6 2980.507a98.55 98.55 0 00-124.615-3.188 4.99 4.99 0 00-1.313.064 4.535 4.535 0 01-3.879-.778c-3.77-2.866-5.268-11.207-5.497-13.906a4.971 4.971 0 00-9.908.808c.12 1.509 1.417 14.929 9.365 20.995a14.7 14.7 0 001.81 1.162q-1.992 2.006-3.892 4.144c-2.329.894-9.401 3.599-18.85-8.534a68.041 68.041 0 01-8.592-15.113 4.971 4.971 0 00-9.277 3.565 77.337 77.337 0 009.894 17.482c11.596 15.008 22.922 14.734 30.394 11.882l1.147-.44a4.971 4.971 0 001.984-1.396 88.471 88.471 0 11-21.424 55.412l.359-4.538a85.8 85.8 0 016.862-27.523l1.982-4.559-9.117-3.963-1.982 4.559a95.678 95.678 0 00-7.645 30.584 4.934 4.934 0 00-.216 1.14 99.596 99.596 0 00-.173 3.774l-.014.164.01-.003a98.336 98.336 0 00125.594 97.213 98.361 98.361 0 0036.992-169.007z"/><path data-name="패스 788296" d="M5261.287 3086.522a22.527 22.527 0 01-24.442-8.462l-2.38-3.298 6.593-4.762 2.38 3.298a14.371 14.371 0 0025.94-9.953l-.432-4.045 8.087-.873.432 4.046a22.526 22.526 0 01-14.314 23.425 22.79 22.79 0 01-1.864.624z"/><path data-name="패스 788297" d="M5276.233 3028.902l-1.32-3.443c-.005-.015-.014-.029-.02-.044l-5.708-14.876-9.278 3.56 5.724 14.919 1.32 3.443a4.971 4.971 0 006.006 3c.14-.04.278-.085.416-.138a4.97 4.97 0 002.86-6.421z"/><path data-name="패스 788298" d="M5224.584 3048.73l-1.762-4.593-.008-.029-5.274-13.744-9.278 3.56 5.284 13.77 1.762 4.592a4.972 4.972 0 006.005 2.999c.14-.04.279-.085.416-.14a4.969 4.969 0 002.855-6.416z"/></g></g></g></svg>