<svg xmlns="http://www.w3.org/2000/svg" width="39.502" height="38.5" viewBox="0 0 39.502 38.5"><defs><style>.a{fill:#c5c9d3;isolation:isolate;}.b,.d,.e{fill:none;}.b{stroke:#717888;}.b,.d{stroke-linejoin:round;}.c{fill:#fff;}.d,.e{stroke:#111;stroke-linecap:round;}</style></defs><g transform="translate(-192.669 -730.5)"><g transform="translate(193.169 731)"><circle class="a" cx="18.463" cy="18.463" r="18.463" transform="translate(2.076 1.074)"/><circle class="b" cx="18.463" cy="18.463" r="18.463" transform="translate(0 0)"/></g><g transform="translate(202.581 741.213)"><path class="c" d="M1988.4,2612.046l-2.817,1.744-4.042-6.777-4.042,6.777-5.211-3.224,2.456,7.468.95,3.9h5.847l5.946-.118.852-3.784,2.455-7.468Z" transform="translate(-1972.29 -2606.727)"/><path class="d" d="M1987.505,2611.865l-1.948,1.611-4.042-6.776-4.042,6.776-5.008-3.224,2.253,8.624h13.594l2.392-8.624" transform="translate(-1972.263 -2606.7)"/><path class="e" d="M2764.537,2637.771h12.323" transform="translate(-2761.449 -2622.3)"/></g></g></svg>