<svg xmlns="http://www.w3.org/2000/svg" xmlns:xlink="http://www.w3.org/1999/xlink" width="295" height="159" viewBox="0 0 295 159">
  <defs>
    <clipPath id="clip-path">
      <rect id="사각형_299516" data-name="사각형 299516" width="295" height="159" rx="20" fill="#ebd6cd"/>
    </clipPath>
  </defs>
  <g id="마스크_그룹_361" data-name="마스크 그룹 361" clip-path="url(#clip-path)">
    <g id="그룹_568193" data-name="그룹 568193" transform="translate(-247.726 -221.242) rotate(-16)" opacity="0.03" style="mix-blend-mode: multiply;isolation: isolate">
      <path id="패스_1409028" data-name="패스 1409028" d="M441.064,401.816A82.272,82.272,0,0,0,341.8,370.583a4.162,4.162,0,0,0-1.069-.249,3.786,3.786,0,0,1-2.933-1.517c-2.366-3.167-1.649-10.206-1.211-12.424a4.15,4.15,0,0,0-8.137-1.633c-.25,1.239-2.3,12.306,2.684,19a12.27,12.27,0,0,0,1.186,1.349q-2.06,1.151-4.077,2.43c-2.075.181-8.373.724-13.163-11.188a56.8,56.8,0,0,1-3.417-14.1,4.15,4.15,0,0,0-8.268.726,64.566,64.566,0,0,0,3.917,16.3c5.852,14.712,15,17.1,21.656,16.527l1.022-.089a4.15,4.15,0,0,0,1.914-.663A73.858,73.858,0,1,1,301.956,424.6l1.331-3.559a71.627,71.627,0,0,1,11.84-20.508l2.64-3.2-6.4-5.279-2.639,3.2a79.875,79.875,0,0,0-13.172,22.785,4.12,4.12,0,0,0-.437.866c-.358.99-.688,1.987-1.007,2.988l-.048.128.008,0a82.094,82.094,0,0,0,78.419,106.913,82.115,82.115,0,0,0,68.578-127.117Z" transform="translate(2.057 3.711)" fill="#111"/>
      <path id="패스_1409029" data-name="패스 1409029" d="M377.939,504.233a18.806,18.806,0,0,1-17.669-12.415l-1.152-3.194,6.387-2.3,1.152,3.194a12,12,0,0,0,23.107-2.019l.58-3.345,6.69,1.161-.58,3.346a18.805,18.805,0,0,1-16.877,15.5C379.029,504.209,378.482,504.233,377.939,504.233Z" transform="translate(-14.835 -29.579)" fill="#111"/>
      <path id="패스_1409030" data-name="패스 1409030" d="M414.368,448.729l-.267-3.067c0-.013,0-.026-.005-.039l-1.158-13.251-8.268.722,1.161,13.289h0l.267,3.067a4.15,4.15,0,0,0,4.129,3.789c.121,0,.243,0,.365-.015A4.149,4.149,0,0,0,414.368,448.729Z" transform="translate(-26.011 -16.875)" fill="#111"/>
      <path id="패스_1409031" data-name="패스 1409031" d="M353.4,454.063l-.357-4.089,0-.025-1.069-12.243-8.268.722,1.072,12.266h0v0l.357,4.089a4.151,4.151,0,0,0,4.129,3.788c.121,0,.243,0,.366-.016A4.148,4.148,0,0,0,353.4,454.063Z" transform="translate(-11.053 -18.184)" fill="#111"/>
    </g>
  </g>
</svg>
