<svg xmlns="http://www.w3.org/2000/svg" xmlns:xlink="http://www.w3.org/1999/xlink" width="335" height="304" viewBox="0 0 335 304">
  <defs>
    <linearGradient id="linear-gradient" y1="0.07" x2="1.026" y2="0.79" gradientUnits="objectBoundingBox">
      <stop offset="0" stop-color="#5d85fa"/>
      <stop offset="0.232" stop-color="#5581fa"/>
      <stop offset="0.877" stop-color="#4178fe"/>
      <stop offset="1" stop-color="#3168ea"/>
    </linearGradient>
    <clipPath id="clip-path">
      <path id="패스_841493" data-name="패스 841493" d="M20,0H315c11.046,0,20,9.547,20,21.323V282.676C335,294.453,326.046,304,315,304H20c-11.046,0-20-9.547-20-21.324V21.323C0,9.547,8.954,0,20,0Z" transform="translate(4991 2935)" stroke="#4977ea" stroke-width="1" fill="url(#linear-gradient)"/>
    </clipPath>
  </defs>
  <g id="마스크_그룹_359638" data-name="마스크 그룹 359638" transform="translate(-4991 -2935)" clip-path="url(#clip-path)">
    <g id="그룹_400575" data-name="그룹 400575" transform="translate(4764.276 2713.907) rotate(-16)" opacity="0.75" style="mix-blend-mode: multiply;isolation: isolate">
      <path id="패스_788295" data-name="패스 788295" d="M470.9,412.372a98.55,98.55,0,0,0-118.908-37.413,4.99,4.99,0,0,0-1.28-.3,4.535,4.535,0,0,1-3.514-1.817c-2.834-3.794-1.975-12.225-1.451-14.882A4.971,4.971,0,0,0,336,356.005c-.3,1.484-2.753,14.741,3.215,22.763a14.7,14.7,0,0,0,1.42,1.616q-2.468,1.379-4.884,2.911c-2.485.217-10.029.868-15.768-13.4A68.041,68.041,0,0,1,315.89,353a4.971,4.971,0,0,0-9.9.87,77.337,77.337,0,0,0,4.692,19.531c7.01,17.623,17.973,20.482,25.941,19.8l1.224-.107a4.971,4.971,0,0,0,2.292-.795,88.471,88.471,0,1,1-35.867,47.36l1.595-4.263a85.8,85.8,0,0,1,14.183-24.565l3.162-3.836-7.672-6.323-3.161,3.836A95.678,95.678,0,0,0,296.6,431.8a4.934,4.934,0,0,0-.523,1.037c-.428,1.186-.824,2.38-1.206,3.579l-.058.154.009,0a98.336,98.336,0,0,0,93.934,128.066A98.361,98.361,0,0,0,470.9,412.372Z" transform="translate(0 0)" fill="#4878f8"/>
      <path id="패스_788296" data-name="패스 788296" d="M381.663,508.206A22.527,22.527,0,0,1,360.5,493.335l-1.379-3.826,7.651-2.76,1.379,3.826a14.371,14.371,0,0,0,27.678-2.418l.7-4.007,8.014,1.39-.7,4.008a22.526,22.526,0,0,1-20.216,18.572C382.968,508.177,382.313,508.206,381.663,508.206Z" transform="translate(-6.612 -13.031)" fill="#4878f8"/>
      <path id="패스_788297" data-name="패스 788297" d="M416.287,451.965l-.32-3.674c0-.015-.005-.031-.006-.047l-1.387-15.873-9.9.865,1.39,15.918h0l.32,3.674a4.971,4.971,0,0,0,4.946,4.539c.145,0,.291-.005.438-.018A4.97,4.97,0,0,0,416.287,451.965Z" transform="translate(-10.987 -8.058)" fill="#4878f8"/>
      <path id="패스_788298" data-name="패스 788298" d="M355.319,457.3l-.428-4.9,0-.03-1.281-14.666-9.9.865,1.284,14.693h0v0l.428,4.9a4.972,4.972,0,0,0,4.946,4.538c.145,0,.291-.005.438-.019A4.969,4.969,0,0,0,355.319,457.3Z" transform="translate(-5.132 -8.57)" fill="#4878f8"/>
    </g>
  </g>
</svg>
