<svg xmlns="http://www.w3.org/2000/svg" width="12.12" height="28.405" viewBox="0 0 12.12 28.405">
  <path id="패스_1427986" data-name="패스 1427986" d="M2817.163,1297.99c.291.1.423.156.556.2a5.157,5.157,0,0,1,2.758,8.2,8.543,8.543,0,0,1-4.74,3.331,3.3,3.3,0,0,1-3.287-.888c0,2.229.022,4.437-.018,6.644-.009.472.475,1.185-.373,1.4a2.378,2.378,0,0,1-2.063-1.4,1.3,1.3,0,0,1,0-.223c.072-6.317-.165-12.636.135-18.951a8.715,8.715,0,0,1,1.55-4.928,5.167,5.167,0,0,1,3.859-2.366,3.727,3.727,0,0,1,3.9,2.037,4.661,4.661,0,0,1-.33,5.063A14.881,14.881,0,0,1,2817.163,1297.99Zm-1.83,10.291c1.3-.014,2.428-.2,3.089-1.249a5.342,5.342,0,0,0,.332-5.122,4.233,4.233,0,0,0-3.744-2.581c-.273-.031-.815.254-.793-.253.02-.443.031-1.087.773-1.157a2.973,2.973,0,0,0,2.7-2.569,4.334,4.334,0,0,0-1.039-4.344,2.312,2.312,0,0,0-3.9.8,6.031,6.031,0,0,0-.443,1.832c-.36,3.965-.129,7.937-.135,11.906,0,1.9.406,2.332,2.309,2.659C2814.807,1308.26,2815.144,1308.265,2815.332,1308.281Z" transform="translate(-2809.725 -1288.739)" fill="#fff" stroke="#fff" stroke-width="0.5"/>
</svg>
