<svg xmlns="http://www.w3.org/2000/svg" xmlns:xlink="http://www.w3.org/1999/xlink" width="224" height="102" viewBox="0 0 224 102">
  <defs>
    <clipPath id="clip-path">
      <path id="패스_1440412" data-name="패스 1440412" d="M19.953,0H242.047A.912.912,0,0,1,243,.864V101.136a.912.912,0,0,1-.953.864H19.953a.912.912,0,0,1-.953-.864V.864A.912.912,0,0,1,19.953,0Z" transform="translate(363 747.001) rotate(180)" fill="#fff"/>
    </clipPath>
  </defs>
  <g id="마스크_그룹_422691" data-name="마스크 그룹 422691" transform="translate(-120 -645.001)" clip-path="url(#clip-path)">
    <g id="그룹_577903" data-name="그룹 577903" transform="translate(-133.807 404.672) rotate(-16)" style="mix-blend-mode: luminosity;isolation: isolate">
      <path id="패스_1440408" data-name="패스 1440408" d="M384.9,381.946a51.629,51.629,0,0,0-62.295-19.6,2.61,2.61,0,0,0-.671-.156,2.376,2.376,0,0,1-1.841-.952c-1.485-1.988-1.035-6.4-.76-7.8a2.6,2.6,0,0,0-5.107-1.025c-.157.778-1.442,7.723,1.685,11.926a7.7,7.7,0,0,0,.744.847q-1.293.722-2.559,1.525c-1.3.114-5.254.455-8.261-7.021a35.642,35.642,0,0,1-2.144-8.85,2.6,2.6,0,0,0-5.189.456,40.522,40.522,0,0,0,2.458,10.232c3.673,9.232,9.416,10.73,13.59,10.371l.641-.056a2.6,2.6,0,0,0,1.2-.416A46.349,46.349,0,1,1,297.6,396.242l.835-2.233a44.949,44.949,0,0,1,7.43-12.869l1.657-2.01-4.019-3.313-1.656,2.01a50.126,50.126,0,0,0-8.266,14.3,2.586,2.586,0,0,0-.274.543c-.224.621-.432,1.247-.632,1.875l-.03.081,0,0a51.518,51.518,0,0,0,49.211,67.093A51.531,51.531,0,0,0,384.9,381.946Z" fill="#f8f8f8"/>
      <path id="패스_1440409" data-name="패스 1440409" d="M370.93,496.753a11.8,11.8,0,0,1-11.088-7.791l-.723-2,4.008-1.446.723,2a7.529,7.529,0,0,0,14.5-1.267l.364-2.1,4.2.728-.364,2.1a11.8,11.8,0,0,1-10.591,9.73C371.613,496.738,371.27,496.753,370.93,496.753Z" transform="translate(-36.244 -71.426)" fill="#f8f8f8"/>
      <path id="패스_1440410" data-name="패스 1440410" d="M410.756,442.637l-.168-1.925c0-.008,0-.016,0-.025l-.726-8.316-5.189.453.728,8.339h0l.168,1.925a2.6,2.6,0,0,0,2.591,2.378c.076,0,.152,0,.229-.01A2.6,2.6,0,0,0,410.756,442.637Z" transform="translate(-60.223 -44.169)" fill="#f8f8f8"/>
      <path id="패스_1440411" data-name="패스 1440411" d="M349.788,447.971l-.224-2.566,0-.016-.671-7.683-5.188.453.672,7.7h0l.224,2.566a2.6,2.6,0,0,0,2.591,2.377c.076,0,.152,0,.23-.01A2.6,2.6,0,0,0,349.788,447.971Z" transform="translate(-28.128 -46.977)" fill="#f8f8f8"/>
    </g>
  </g>
</svg>
