<svg xmlns="http://www.w3.org/2000/svg" xmlns:xlink="http://www.w3.org/1999/xlink" width="335" height="304" viewBox="0 0 335 304">
  <defs>
    <linearGradient id="linear-gradient" y1="0.07" x2="1.026" y2="0.79" gradientUnits="objectBoundingBox">
      <stop offset="0" stop-color="#5d85fa"/>
      <stop offset="0.232" stop-color="#5581fa"/>
      <stop offset="0.877" stop-color="#4178fe"/>
      <stop offset="1" stop-color="#3168ea"/>
    </linearGradient>
    <clipPath id="clip-path">
      <path id="패스_841493" data-name="패스 841493" d="M20,0H315c11.046,0,20,9.547,20,21.323V282.676C335,294.453,326.046,304,315,304H20c-11.046,0-20-9.547-20-21.324V21.323C0,9.547,8.954,0,20,0Z" transform="translate(4991 2935)" stroke="#4977ea" stroke-width="1" fill="url(#linear-gradient)"/>
    </clipPath>
  </defs>
  <g id="그룹_444150" data-name="그룹 444150" transform="translate(-20 -95)">
    <g id="패스_788299" data-name="패스 788299" transform="translate(20 95)" fill="url(#linear-gradient)">
      <path d="M 315 303.5 L 20 303.5 C 17.37137413024902 303.5 14.82129192352295 302.9510803222656 12.42062473297119 301.8684997558594 C 10.09937477111816 300.8217163085938 8.014041900634766 299.322509765625 6.222541809082031 297.4124450683594 C 4.428916454315186 295.5001220703125 3.020541667938232 293.2727355957031 2.036458253860474 290.7922058105469 C 1.016958355903625 288.2222595214844 0.5 285.4917602539063 0.5 282.676513671875 L 0.5 21.32349967956543 C 0.5 18.50824928283691 1.016958355903625 15.77775001525879 2.036458253860474 13.20779132843018 C 3.020541667938232 10.72725009918213 4.428916454315186 8.499875068664551 6.222541809082031 6.587541580200195 C 8.014041900634766 4.677499771118164 10.09937477111816 3.17829155921936 12.42062473297119 2.131500005722046 C 14.82129192352295 1.048916697502136 17.37137413024902 0.5 20 0.5 L 315 0.5 C 317.6286315917969 0.5 320.1787109375 1.048916697502136 322.5793762207031 2.131500005722046 C 324.900634765625 3.17829155921936 326.9859619140625 4.677499771118164 328.7774658203125 6.587541580200195 C 330.5710754394531 8.499875068664551 331.9794616699219 10.72725009918213 332.9635314941406 13.20779132843018 C 333.9830322265625 15.77775001525879 334.5 18.50824928283691 334.5 21.32349967956543 L 334.5 282.676513671875 C 334.5 285.4917602539063 333.9830322265625 288.2222595214844 332.9635314941406 290.7922058105469 C 331.9794616699219 293.2727355957031 330.5710754394531 295.5001220703125 328.7774658203125 297.4124450683594 C 326.9859619140625 299.322509765625 324.900634765625 300.8217163085938 322.5793762207031 301.8684997558594 C 320.1787109375 302.9510803222656 317.6286315917969 303.5 315 303.5 Z" stroke="none"/>
      <path d="M 20 1 C 17.44271850585938 1 14.9617919921875 1.534027099609375 12.62615966796875 2.5872802734375 C 10.36526489257813 3.60687255859375 8.333465576171875 5.067840576171875 6.587249755859375 6.92962646484375 C 4.836761474609375 8.795928955078125 3.4620361328125 10.97024536132813 2.501220703125 13.39218139648438 C 1.505096435546875 15.90316772460938 1 18.5716552734375 1 21.323486328125 L 1 282.6764526367188 C 1 285.4283447265625 1.505096435546875 288.0968017578125 2.501220703125 290.6077880859375 C 3.4620361328125 293.0297546386719 4.836761474609375 295.2040710449219 6.587249755859375 297.0703735351563 C 8.333465576171875 298.9321594238281 10.36526489257813 300.3931274414063 12.62615966796875 301.4127197265625 C 14.9617919921875 302.4659729003906 17.44271850585938 303 20 303 L 315 303 C 317.5572814941406 303 320.0381774902344 302.4659729003906 322.373779296875 301.4127197265625 C 324.634765625 300.3931274414063 326.6665344238281 298.9321594238281 328.4127502441406 297.0703735351563 C 330.1632080078125 295.2040710449219 331.5379638671875 293.0297546386719 332.4987487792969 290.6077880859375 C 333.4949035644531 288.0968017578125 334 285.4283447265625 334 282.6764526367188 L 334 21.323486328125 C 334 18.5716552734375 333.4949035644531 15.90316772460938 332.4987487792969 13.39218139648438 C 331.5379638671875 10.97024536132813 330.1632080078125 8.795928955078125 328.4127502441406 6.92962646484375 C 326.6665344238281 5.067840576171875 324.634765625 3.60687255859375 322.373779296875 2.5872802734375 C 320.0381774902344 1.534027099609375 317.5572814941406 1 315 1 L 20 1 M 20 0 L 315 0 C 326.045654296875 0 335 9.546844482421875 335 21.323486328125 L 335 282.6764526367188 C 335 294.4531555175781 326.045654296875 304 315 304 L 20 304 C 8.95428466796875 304 0 294.4531555175781 0 282.6764526367188 L 0 21.323486328125 C 0 9.546844482421875 8.95428466796875 0 20 0 Z" stroke="none" fill="#4977ea"/>
    </g>
    <g id="마스크_그룹_359638" data-name="마스크 그룹 359638" transform="translate(-4971 -2840)" clip-path="url(#clip-path)">
      <g id="그룹_400575" data-name="그룹 400575" transform="translate(4764.276 2713.907) rotate(-16)" opacity="0.25" style="mix-blend-mode: multiply;isolation: isolate">
        <path id="패스_788295" data-name="패스 788295" d="M470.9,412.372a98.55,98.55,0,0,0-118.908-37.413,4.99,4.99,0,0,0-1.28-.3,4.535,4.535,0,0,1-3.514-1.817c-2.834-3.794-1.975-12.225-1.451-14.882A4.971,4.971,0,0,0,336,356.005c-.3,1.484-2.753,14.741,3.215,22.763a14.7,14.7,0,0,0,1.42,1.616q-2.468,1.379-4.884,2.911c-2.485.217-10.029.868-15.768-13.4A68.041,68.041,0,0,1,315.89,353a4.971,4.971,0,0,0-9.9.87,77.337,77.337,0,0,0,4.692,19.531c7.01,17.623,17.973,20.482,25.941,19.8l1.224-.107a4.971,4.971,0,0,0,2.292-.795,88.471,88.471,0,1,1-35.867,47.36l1.595-4.263a85.8,85.8,0,0,1,14.183-24.565l3.162-3.836-7.672-6.323-3.161,3.836A95.678,95.678,0,0,0,296.6,431.8a4.934,4.934,0,0,0-.523,1.037c-.428,1.186-.824,2.38-1.206,3.579l-.058.154.009,0a98.336,98.336,0,0,0,93.934,128.066A98.361,98.361,0,0,0,470.9,412.372Z" transform="translate(0 0)" fill="#184bd2"/>
        <path id="패스_788296" data-name="패스 788296" d="M381.663,508.206A22.527,22.527,0,0,1,360.5,493.335l-1.379-3.826,7.651-2.76,1.379,3.826a14.371,14.371,0,0,0,27.678-2.418l.7-4.007,8.014,1.39-.7,4.008a22.526,22.526,0,0,1-20.216,18.572C382.968,508.177,382.313,508.206,381.663,508.206Z" transform="translate(-6.612 -13.031)" fill="#184bd2"/>
        <path id="패스_788297" data-name="패스 788297" d="M416.287,451.965l-.32-3.674c0-.015-.005-.031-.006-.047l-1.387-15.873-9.9.865,1.39,15.918h0l.32,3.674a4.971,4.971,0,0,0,4.946,4.539c.145,0,.291-.005.438-.018A4.97,4.97,0,0,0,416.287,451.965Z" transform="translate(-10.987 -8.058)" fill="#184bd2"/>
        <path id="패스_788298" data-name="패스 788298" d="M355.319,457.3l-.428-4.9,0-.03-1.281-14.666-9.9.865,1.284,14.693h0v0l.428,4.9a4.972,4.972,0,0,0,4.946,4.538c.145,0,.291-.005.438-.019A4.969,4.969,0,0,0,355.319,457.3Z" transform="translate(-5.132 -8.57)" fill="#184bd2"/>
      </g>
    </g>
  </g>
</svg>
