<svg xmlns="http://www.w3.org/2000/svg" xmlns:xlink="http://www.w3.org/1999/xlink" width="335" height="180" viewBox="0 0 335 180">
  <defs>
    <linearGradient id="linear-gradient" y1="0.567" x2="1" y2="0.561" gradientUnits="objectBoundingBox">
      <stop offset="0" stop-color="#5fcef7"/>
      <stop offset="1" stop-color="#0189ea"/>
    </linearGradient>
    <linearGradient id="linear-gradient-2" y1="0.07" x2="1.026" y2="0.79" gradientUnits="objectBoundingBox">
      <stop offset="0" stop-color="#5d85fa"/>
      <stop offset="0.232" stop-color="#5581fa"/>
      <stop offset="0.877" stop-color="#4178fe"/>
      <stop offset="1" stop-color="#3168ea"/>
    </linearGradient>
    <clipPath id="clip-path">
      <rect id="사각형_299511" data-name="사각형 299511" width="335" height="180" rx="20" transform="translate(20 87)" fill="url(#linear-gradient)"/>
    </clipPath>
    <clipPath id="clip-path-2">
      <rect id="사각형_299512" data-name="사각형 299512" width="20" height="20" fill="none"/>
    </clipPath>
    <clipPath id="clip-path-3">
      <rect id="사각형_299516" data-name="사각형 299516" width="335" height="180" rx="20" transform="translate(20 87)" fill="#8d756b"/>
    </clipPath>
  </defs>
  <g id="그룹_400583" data-name="그룹 400583" transform="translate(-20 -87)">
    <g id="패스_788299" data-name="패스 788299" transform="translate(20 87)" fill="url(#linear-gradient-2)">
      <path d="M 315 179.5 L 20 179.5 C 17.3672924041748 179.5 14.81358337402344 178.9844970703125 12.40987491607666 177.9677886962891 C 10.08787536621094 176.9856719970703 8.002416610717773 175.57958984375 6.211416721343994 173.7885894775391 C 4.420416831970215 171.9975891113281 3.014333248138428 169.9121246337891 2.032208442687988 167.5901184082031 C 1.015499949455261 165.1864166259766 0.5 162.6327056884766 0.5 160 L 0.5 20 C 0.5 17.3672924041748 1.015499949455261 14.81358337402344 2.032208442687988 12.40987491607666 C 3.014333248138428 10.08787536621094 4.420416831970215 8.002416610717773 6.211416721343994 6.211416721343994 C 8.002416610717773 4.420416831970215 10.08787536621094 3.014333248138428 12.40987491607666 2.032208442687988 C 14.81358337402344 1.015499949455261 17.3672924041748 0.5 20 0.5 L 315 0.5 C 317.6327209472656 0.5 320.1864318847656 1.015499949455261 322.5901184082031 2.032208442687988 C 324.9121398925781 3.014333248138428 326.9975891113281 4.420416831970215 328.78857421875 6.211416721343994 C 330.57958984375 8.002416610717773 331.9856567382813 10.08787536621094 332.9678039550781 12.40987491607666 C 333.9844970703125 14.81358337402344 334.5 17.3672924041748 334.5 20 L 334.5 160 C 334.5 162.6327056884766 333.9844970703125 165.1864166259766 332.9678039550781 167.5901184082031 C 331.9856567382813 169.9121246337891 330.57958984375 171.9975891113281 328.78857421875 173.7885894775391 C 326.9975891113281 175.57958984375 324.9121398925781 176.9856719970703 322.5901184082031 177.9677886962891 C 320.1864318847656 178.9844970703125 317.6327209472656 179.5 315 179.5 Z" stroke="none"/>
      <path d="M 20 1 C 17.4345703125 1 14.9464111328125 1.502212524414063 12.6046142578125 2.492706298828125 C 10.34225463867188 3.449630737304688 8.310211181640625 4.8197021484375 6.564971923828125 6.564956665039063 C 4.8197021484375 8.310211181640625 3.449615478515625 10.34225463867188 2.492706298828125 12.60462951660156 C 1.502197265625 14.9464111328125 1 17.43458557128906 1 20 L 1 160 C 1 162.5654144287109 1.502197265625 165.0535888671875 2.492706298828125 167.3953704833984 C 3.449615478515625 169.6577453613281 4.8197021484375 171.6897888183594 6.564971923828125 173.4350433349609 C 8.310211181640625 175.1802978515625 10.34225463867188 176.5503692626953 12.6046142578125 177.5072937011719 C 14.9464111328125 178.4977874755859 17.4345703125 179 20 179 L 315 179 C 317.5654296875 179 320.0535888671875 178.4977874755859 322.3953247070313 177.5072937011719 C 324.65771484375 176.5503692626953 326.6897583007813 175.1802978515625 328.4349975585938 173.4350433349609 C 330.1802978515625 171.6897888183594 331.5503845214844 169.6577453613281 332.5072937011719 167.3953704833984 C 333.497802734375 165.0535888671875 334 162.5654144287109 334 160 L 334 20 C 334 17.43458557128906 333.497802734375 14.9464111328125 332.5072937011719 12.60462951660156 C 331.5503845214844 10.34225463867188 330.1802978515625 8.310211181640625 328.4349975585938 6.564956665039063 C 326.6897583007813 4.8197021484375 324.65771484375 3.449630737304688 322.3953247070313 2.492706298828125 C 320.0535888671875 1.502212524414063 317.5654296875 1 315 1 L 20 1 M 20 0 L 315 0 C 326.045654296875 0 335 8.95428466796875 335 20 L 335 160 C 335 171.0457153320313 326.045654296875 180 315 180 L 20 180 C 8.95428466796875 180 0 171.0457153320313 0 160 L 0 20 C 0 8.95428466796875 8.95428466796875 0 20 0 Z" stroke="none" fill="#4977ea"/>
    </g>
    <g id="마스크_그룹_360" data-name="마스크 그룹 360" clip-path="url(#clip-path)">
      <g id="그룹_400571" data-name="그룹 400571" transform="translate(0 -12.747)" opacity="0.5">
        <g id="icon_smile_4cccd9_20" transform="translate(114 -88.253)">
          <g id="icon_smile_4cccd9_20-2" data-name="icon_smile_4cccd9_20" transform="translate(-10 -10)" clip-path="url(#clip-path-2)">
            <path id="패스_788269" data-name="패스 788269" d="M11,4.2a7.9,7.9,0,1,1-7.8,7.9h0A7.9,7.9,0,0,1,11,4.2" fill="#4cccd9"/>
            <path id="패스_788270" data-name="패스 788270" d="M2.3,7.3a7.6,7.6,0,0,1,1.4-2" fill="none" stroke="#2c9fac" stroke-linecap="square" stroke-linejoin="round" stroke-width="1.4"/>
            <path id="패스_788271" data-name="패스 788271" d="M3.7.7s0,3.1,1.9,3.1h.1A7.9,7.9,0,1,1,2.3,7.3" fill="none" stroke="#2c9fac" stroke-linecap="round" stroke-linejoin="round" stroke-width="1.5"/>
            <path id="패스_788272" data-name="패스 788272" d="M6.2,1.3S5.7,3,6.8,3.2" fill="none" stroke="#2c9fac" stroke-linecap="round" stroke-linejoin="round" stroke-width="1.5"/>
            <path id="패스_788273" data-name="패스 788273" d="M9.7,11.5a1.5,1.5,0,0,1-3,0" fill="none" stroke="#196e72" stroke-linecap="square" stroke-miterlimit="10" stroke-width="1.4"/>
            <line id="선_114060" data-name="선 114060" y2="0.3" transform="translate(10.5 8.7)" fill="none" stroke="#196e72" stroke-linecap="round" stroke-width="1.4"/>
            <line id="선_114061" data-name="선 114061" y2="1.4" transform="translate(10.5 7.3)" fill="none" stroke="#196e72" stroke-width="1.4"/>
            <line id="선_114062" data-name="선 114062" y2="0.4" transform="translate(5.9 8.6)" fill="none" stroke="#196e72" stroke-linecap="round" stroke-width="1.4"/>
            <line id="선_114063" data-name="선 114063" y2="1.3" transform="translate(5.9 7.3)" fill="none" stroke="#196e72" stroke-width="1.4"/>
          </g>
        </g>
      </g>
    </g>
    <g id="마스크_그룹_361" data-name="마스크 그룹 361" clip-path="url(#clip-path-3)" style="isolation: isolate">
      <g id="그룹_400575" data-name="그룹 400575" transform="translate(-226.817 -128.331) rotate(-16)" opacity="0.25" style="mix-blend-mode: multiply;isolation: isolate">
        <path id="패스_788295" data-name="패스 788295" d="M490.09,419.161a109.02,109.02,0,0,0-131.541-41.388,5.518,5.518,0,0,0-1.416-.33,5.017,5.017,0,0,1-3.887-2.01c-3.135-4.2-2.185-13.524-1.605-16.463a5.5,5.5,0,0,0-10.783-2.164c-.331,1.642-3.045,16.307,3.557,25.182a16.257,16.257,0,0,0,1.571,1.788q-2.73,1.525-5.4,3.22c-2.749.24-11.1.96-17.443-14.825a75.27,75.27,0,0,1-4.528-18.687,5.5,5.5,0,0,0-10.956.962,85.555,85.555,0,0,0,5.191,21.606c7.755,19.495,19.883,22.658,28.7,21.9l1.354-.118a5.5,5.5,0,0,0,2.536-.879,97.87,97.87,0,1,1-39.678,52.392l1.764-4.716a94.913,94.913,0,0,1,15.69-27.175l3.5-4.244-8.487-6.995-3.5,4.244a105.844,105.844,0,0,0-17.455,30.193,5.458,5.458,0,0,0-.579,1.147c-.474,1.312-.912,2.633-1.334,3.959l-.064.17.01,0A108.784,108.784,0,0,0,399.216,587.606,108.811,108.811,0,0,0,490.09,419.161Z" fill="#2a50b9"/>
        <path id="패스_788296" data-name="패스 788296" d="M384.058,510.762a24.921,24.921,0,0,1-23.413-16.451l-1.526-4.233,8.464-3.053,1.526,4.233a15.9,15.9,0,0,0,30.619-2.675l.769-4.433,8.865,1.538-.769,4.434a24.919,24.919,0,0,1-22.364,20.545C385.5,510.73,384.777,510.762,384.058,510.762Z" fill="#2a50b9"/>
        <path id="패스_788297" data-name="패스 788297" d="M417.521,454.047l-.354-4.064c0-.017-.006-.034-.007-.052l-1.534-17.559-10.956.957,1.538,17.609h0l.354,4.064a5.5,5.5,0,0,0,5.472,5.021c.16,0,.322-.006.484-.02A5.5,5.5,0,0,0,417.521,454.047Z" fill="#2a50b9"/>
        <path id="패스_788298" data-name="패스 788298" d="M356.553,459.381l-.473-5.418,0-.033-1.417-16.224-10.956.957,1.42,16.254h0v0l.473,5.418a5.5,5.5,0,0,0,5.472,5.02c.16,0,.322-.006.485-.021A5.5,5.5,0,0,0,356.553,459.381Z" fill="#2a50b9"/>
      </g>
    </g>
  </g>
</svg>
