<svg xmlns="http://www.w3.org/2000/svg" width="50" height="51" viewBox="0 0 50 51">
  <g id="그룹_567532" data-name="그룹 567532" transform="translate(-98 -107)">
    <rect id="사각형_421597" data-name="사각형 421597" width="50" height="51" transform="translate(98 107)" fill="#fff" opacity="0"/>
    <g id="그룹_447261" data-name="그룹 447261" transform="translate(90.279 103.159)">
      <g id="그룹_447260" data-name="그룹 447260">
        <path id="패스_853722" data-name="패스 853722" d="M47.6,28.969a12,12,0,0,1-12,12,4.808,4.808,0,0,1-.55-.02,6.117,6.117,0,0,1-.62.17,12.474,12.474,0,0,1-5.69-24.29,12.346,12.346,0,0,1,6.28.16c.193-.016.387-.023.58-.02A12.01,12.01,0,0,1,47.6,28.969Z" fill="#fff"/>
      </g>
      <path id="패스_315187" data-name="패스 315187" d="M37.953,18.189h-4a12.469,12.469,0,0,0,0,24.938h4a12.469,12.469,0,0,0,0-24.938Z" fill="#fddb2b"/>
      <line id="선_43568" data-name="선 43568" x1="2.828" y1="2.829" transform="translate(40.497 50.916)" fill="none" stroke="#111" stroke-linecap="round" stroke-linejoin="round" stroke-width="1.5"/>
      <line id="선_43569" data-name="선 43569" y1="2.829" x2="2.828" transform="translate(40.497 50.916)" fill="none" stroke="#111" stroke-linecap="round" stroke-linejoin="round" stroke-width="1.5"/>
      <circle id="타원_5538" data-name="타원 5538" cx="1.5" cy="1.5" r="1.5" transform="translate(9.116 28.232)" fill="none" stroke="#111" stroke-miterlimit="10" stroke-width="1.5"/>
      <line id="선_43570" data-name="선 43570" x1="2.829" y1="2.828" transform="translate(20.542 5.46)" fill="none" stroke="#111" stroke-linecap="round" stroke-linejoin="round" stroke-width="1.5"/>
      <line id="선_43571" data-name="선 43571" y1="2.828" x2="2.829" transform="translate(20.542 5.46)" fill="none" stroke="#111" stroke-linecap="round" stroke-linejoin="round" stroke-width="1.5"/>
      <line id="선_43572" data-name="선 43572" x1="2.21" y1="2.21" transform="translate(54.069 8.767)" fill="none" stroke="#111" stroke-linecap="round" stroke-linejoin="round" stroke-width="1.5"/>
      <line id="선_43573" data-name="선 43573" y1="2.21" x2="2.21" transform="translate(54.069 8.767)" fill="none" stroke="#111" stroke-linecap="round" stroke-linejoin="round" stroke-width="1.5"/>
      <circle id="타원_5540" data-name="타원 5540" cx="1" cy="1" r="1" transform="translate(29.189 10.216)" fill="#111"/>
      <circle id="타원_5541" data-name="타원 5541" cx="1" cy="1" r="1" transform="translate(8.721 6.966)" fill="#111"/>
      <circle id="타원_5542" data-name="타원 5542" cx="1" cy="1" r="1" transform="translate(45.188 3.841)" fill="#111"/>
      <path id="패스_315187-2" data-name="패스 315187-2" d="M35.708,16.36h-4A12.469,12.469,0,1,0,31.685,41.3h4.023a12.469,12.469,0,1,0,.023-24.938Z" fill="none" stroke="#333" stroke-linecap="round" stroke-linejoin="round" stroke-width="1.5"/>
      <line id="선_43563" data-name="선 43563" x2="4" transform="translate(44.177 28.829)" fill="none" stroke="#333" stroke-linecap="round" stroke-linejoin="round" stroke-width="1.5"/>
      <line id="선_43564" data-name="선 43564" x2="3.998" transform="translate(41.081 37.052)" fill="none" stroke="#333" stroke-linecap="round" stroke-linejoin="round" stroke-width="1.5"/>
      <line id="선_43565" data-name="선 43565" x2="4.001" transform="translate(43.482 32.94)" fill="none" stroke="#333" stroke-linecap="round" stroke-linejoin="round" stroke-width="1.5"/>
      <line id="선_43566" data-name="선 43566" x1="4" transform="translate(41.081 20.637)" fill="none" stroke="#333" stroke-linecap="round" stroke-linejoin="round" stroke-width="1.5"/>
      <line id="선_43567" data-name="선 43567" x1="4" transform="translate(43.494 24.749)" fill="none" stroke="#333" stroke-linecap="round" stroke-linejoin="round" stroke-width="1.5"/>
      <circle id="타원_5536" data-name="타원 5536" cx="12.473" cy="12.473" r="12.473" transform="translate(19.236 16.366)" fill="none" stroke="#333" stroke-linecap="round" stroke-linejoin="round" stroke-width="1.5"/>
      <g id="그룹_607730" data-name="그룹 607730" transform="translate(-88.89 -57.159)">
        <path id="패스_1489211" data-name="패스 1489211" d="M-3.706-8.745l.9,3.954q.273,1.19.53,2.588h.113a25,25,0,0,1,.5-2.588L-.7-8.745H1.7l.948,3.954Q2.917-3.7,3.174-2.2h.113A23.493,23.493,0,0,1,3.8-4.791L4.814-8.745H7.08L4.717-.9A1.492,1.492,0,0,1,3.126.225,1.388,1.388,0,0,1,1.631-.9L.956-3.424a23.642,23.642,0,0,1-.514-2.7H.361a25.5,25.5,0,0,1-.514,2.7L-.764-.9A1.418,1.418,0,0,1-2.307.225,1.482,1.482,0,0,1-3.882-.9L-6.165-8.745Z" transform="translate(119.557 90.7)" fill="#111"/>
        <g id="그룹_607730-2" data-name="그룹 607730" transform="translate(-0.43 -0.3)">
          <path id="패스_1489209" data-name="패스 1489209" d="M-9198.46,3081.6h7.078" transform="translate(9312 -2995.097)" fill="none" stroke="#111" stroke-width="1.5"/>
          <path id="패스_1489210" data-name="패스 1489210" d="M-9198.46,3081.6h7.078" transform="translate(9318.138 -2995.097)" fill="none" stroke="#111" stroke-linecap="round" stroke-width="1.5"/>
        </g>
      </g>
    </g>
  </g>
</svg>
