<svg xmlns="http://www.w3.org/2000/svg" width="48.974" height="50.965"><g data-name="그룹 447261" transform="translate(-8.366 -3.841)"><g data-name="그룹 447260"><path data-name="패스 853722" d="M47.6 28.969a12 12 0 01-12 12 4.808 4.808 0 01-.55-.02 6.117 6.117 0 01-.62.17 12.474 12.474 0 01-5.69-24.29 12.346 12.346 0 016.28.16c.193-.016.387-.023.58-.02a12.01 12.01 0 0112 12z" fill="#fff"/></g><path data-name="패스 315187" d="M37.953 18.189h-4a12.469 12.469 0 000 24.938h4a12.469 12.469 0 000-24.938z" fill="#fddb2b"/><path data-name="선 43568" fill="none" stroke="#111" stroke-linecap="round" stroke-linejoin="round" stroke-width="1.5" d="M43.325 53.745l-2.828-2.829"/><path data-name="선 43569" fill="none" stroke="#111" stroke-linecap="round" stroke-linejoin="round" stroke-width="1.5" d="M40.497 53.745l2.828-2.829"/><circle data-name="타원 5538" cx="1.5" cy="1.5" r="1.5" transform="translate(9.116 28.232)" fill="none" stroke="#111" stroke-miterlimit="10" stroke-width="1.5"/><path data-name="선 43570" fill="none" stroke="#111" stroke-linecap="round" stroke-linejoin="round" stroke-width="1.5" d="M23.371 8.288L20.542 5.46"/><path data-name="선 43571" fill="none" stroke="#111" stroke-linecap="round" stroke-linejoin="round" stroke-width="1.5" d="M20.542 8.288l2.829-2.828"/><path data-name="선 43572" fill="none" stroke="#111" stroke-linecap="round" stroke-linejoin="round" stroke-width="1.5" d="M56.279 10.977l-2.21-2.21"/><path data-name="선 43573" fill="none" stroke="#111" stroke-linecap="round" stroke-linejoin="round" stroke-width="1.5" d="M54.069 10.977l2.21-2.21"/><circle data-name="타원 5540" cx="1" cy="1" r="1" transform="translate(29.189 10.216)" fill="#111"/><circle data-name="타원 5541" cx="1" cy="1" r="1" transform="translate(8.721 6.966)" fill="#111"/><circle data-name="타원 5542" cx="1" cy="1" r="1" transform="translate(45.188 3.841)" fill="#111"/><path data-name="패스 315187-2" d="M35.708 16.36h-4a12.469 12.469 0 10-.023 24.94h4.023a12.469 12.469 0 10.023-24.938z" fill="none" stroke="#333" stroke-linecap="round" stroke-linejoin="round" stroke-width="1.5"/><path data-name="선 43563" fill="none" stroke="#333" stroke-linecap="round" stroke-linejoin="round" stroke-width="1.5" d="M44.177 28.829h4"/><path data-name="선 43564" fill="none" stroke="#333" stroke-linecap="round" stroke-linejoin="round" stroke-width="1.5" d="M41.081 37.052h3.998"/><path data-name="선 43565" fill="none" stroke="#333" stroke-linecap="round" stroke-linejoin="round" stroke-width="1.5" d="M43.482 32.94h4.001"/><path data-name="선 43566" fill="none" stroke="#333" stroke-linecap="round" stroke-linejoin="round" stroke-width="1.5" d="M45.081 20.637h-4"/><path data-name="선 43567" fill="none" stroke="#333" stroke-linecap="round" stroke-linejoin="round" stroke-width="1.5" d="M47.494 24.749h-4"/><circle data-name="타원 5536" cx="12.473" cy="12.473" r="12.473" transform="translate(19.236 16.366)" fill="none" stroke="#333" stroke-linecap="round" stroke-linejoin="round" stroke-width="1.5"/><path data-name="패스 481946" d="M31.265 22.777a7.639 7.639 0 013.136.528 2.852 2.852 0 011.648 2.848 3.609 3.609 0 01-.672 2.256 4.286 4.286 0 01-3.648 1.44q-1.183 0-1.184-.96a.785.785 0 01.384-.736 1.27 1.27 0 01.544-.16c.182-.011.368-.027.56-.048a1.56 1.56 0 001.484-1.631.923.923 0 00-.012-.129q0-1.584-2-1.584h-1.312v8.5q0 1.3-1.152 1.3-1.135 0-1.136-1.3v-10.32z" fill="#111"/></g></svg>