<svg xmlns="http://www.w3.org/2000/svg" width="65" height="61"><defs><clipPath id="a"><path data-name="사각형 335923" fill="none" d="M0 0h65v61H0z"/></clipPath></defs><g data-name="그룹 448774"><g data-name="그룹 448772" clip-path="url(#a)"><path data-name="패스 858797" d="M49.8 47l-17.6 3.2a1.5 1.5 0 01-1.7-1.2l-4-22.2a1.5 1.5 0 01.6-1.4l7.6-8.1A1.5 1.5 0 0136 17l10 4.9a1.5 1.5 0 011 1.1l4 22.2a1.5 1.5 0 01-1.2 1.8" fill="#4185f2"/><path data-name="패스 858798" d="M47.6 46.4L30 49.5a1.5 1.5 0 01-1.7-1.2l-4-22.2a1.5 1.5 0 01.6-1.4l7.6-8.1a1.5 1.5 0 011.3-.2l10 4.9a1.5 1.5 0 011 1.1l4 22.2a1.5 1.5 0 01-1.2 1.7z" fill="none" stroke="#111" stroke-miterlimit="10" stroke-width="1.5"/><path data-name="패스 858799" d="M41.1 44.5H23.2a1.5 1.5 0 01-1.4-1.5V20.5a1.5 1.5 0 01.8-1.3l8.9-6.6a1.5 1.5 0 011.3 0l8.9 6.6a1.5 1.5 0 01.8 1.3V43a1.5 1.5 0 01-1.5 1.5z" fill="#fff"/><path data-name="패스 858800" d="M43.1 45.5H25.2a1.5 1.5 0 01-1.4-1.5V21.5a1.5 1.5 0 01.8-1.3l8.9-6.6a1.5 1.5 0 011.3 0l8.9 6.6a1.5 1.5 0 01.8 1.3V44a1.5 1.5 0 01-1.5 1.5z" fill="#4185f2"/><path data-name="패스 858801" d="M41.1 44.5H23.2a1.5 1.5 0 01-1.4-1.5V20.5a1.5 1.5 0 01.8-1.3l8.9-6.6a1.5 1.5 0 011.3 0l8.9 6.6a1.5 1.5 0 01.8 1.3V43a1.5 1.5 0 01-1.5 1.5z" fill="none" stroke="#111" stroke-miterlimit="10" stroke-width="1.5"/><path data-name="패스 858802" d="M33 19c-3.2 0-5.9-3-5.9-6.8s2.6-6.8 5.9-6.8 5.9 3 5.9 6.8v2.6" fill="none" stroke="#111" stroke-linecap="round" stroke-miterlimit="10" stroke-width="1.5"/><path data-name="패스 858803" d="M32.4 18.1a2.652 2.652 0 10.1.1" fill="#fff"/><circle data-name="타원 10734" cx="3" cy="3" r="3" transform="translate(29.4 18.9)" fill="none" stroke="#111" stroke-width="1.5"/></g><text transform="translate(27.8 39)" fill="#111" font-size="15" font-family="MoebiusKorea-Bold, Moebius Korea" font-weight="700"><tspan x="0" y="0">c</tspan></text><g data-name="그룹 448773" clip-path="url(#a)"><path data-name="선 131004" fill="none" stroke="#111" stroke-linecap="round" stroke-linejoin="round" stroke-width="1.5" d="M44.1 59.5l-3-3"/><path data-name="선 131005" fill="none" stroke="#111" stroke-linecap="round" stroke-linejoin="round" stroke-width="1.5" d="M41.1 59.5l3-3"/><path data-name="패스 858804" d="M10 32.9a1.6 1.6 0 11-1.6 1.6 1.6 1.6 0 011.6-1.6z" fill="none" stroke="#111" stroke-miterlimit="10" stroke-width="1.5"/><path data-name="선 131006" fill="none" stroke="#111" stroke-linecap="round" stroke-linejoin="round" stroke-width="1.5" d="M23.3 4.1l-3-2.9"/><path data-name="선 131007" fill="none" stroke="#111" stroke-linecap="round" stroke-linejoin="round" stroke-width="1.5" d="M20.3 4.1l3-2.9"/><path data-name="선 131008" fill="none" stroke="#111" stroke-linecap="round" stroke-linejoin="round" stroke-width="1.5" d="M60.5 14.9l-2.3-2.3"/><path data-name="선 131009" fill="none" stroke="#111" stroke-linecap="round" stroke-linejoin="round" stroke-width="1.5" d="M58.2 14.9l2.3-2.3"/><path data-name="패스 858805" d="M9.1 10.8a1 1 0 11-1 1 1 1 0 011-1" fill="#111"/><path data-name="패스 858806" d="M47 7.5a1 1 0 11-1 1 1 1 0 011-1" fill="#111"/></g></g></svg>