<svg xmlns="http://www.w3.org/2000/svg" width="65" height="45"><defs><clipPath id="a"><path data-name="패스 840764" d="M10 0v36.4s10.6 7.1 23.4 6a49.7 49.7 0 0024.7-7V0z" fill="none"/></clipPath><clipPath id="b"><path data-name="사각형 318497" transform="translate(26.1 30)" fill="none" d="M0 0h9.8v10.46H0z"/></clipPath><clipPath id="c"><path data-name="사각형 318498" fill="none" d="M0 0h65v45H0z"/></clipPath></defs><g data-name="그룹 422883"><g data-name="그룹 422881" clip-path="url(#a)"><path data-name="패스 840753" d="M30.3 5.2a11.9 11.9 0 11-7.4 5.3 11.9 11.9 0 017.4-5.3" fill="#fff"/><path data-name="패스 840754" d="M32.1 6.9a11.9 11.9 0 11-7.4 5.3 11.9 11.9 0 017.4-5.3" fill="#fddb2b"/><path data-name="패스 840755" d="M30.3 5.2a11.9 11.9 0 11-7.4 5.3 11.9 11.9 0 017.4-5.3z" fill="none" stroke="#111" stroke-linecap="round" stroke-linejoin="round" stroke-width="1.5"/><path data-name="패스 840756" d="M30.3 13.7a11.9 11.9 0 11-7.4 5.3 11.9 11.9 0 017.4-5.3" fill="#fff"/><path data-name="패스 840757" d="M32.1 15.5a11.9 11.9 0 11-7.4 5.3 11.9 11.9 0 017.4-5.3" fill="#fddb2b"/><path data-name="패스 840758" d="M30.3 13.7a11.9 11.9 0 11-7.4 5.3 11.9 11.9 0 017.4-5.3z" fill="none" stroke="#111" stroke-linecap="round" stroke-linejoin="round" stroke-width="1.5"/><path data-name="패스 840759" d="M28.8 22.6a11 11 0 11-8.2 13.2 11 11 0 018.2-13.2" fill="#fff"/><path data-name="패스 840760" d="M36.5 25A10.5 10.5 0 1126 35.5 10.5 10.5 0 0136.5 25" fill="#fddb2b"/><path data-name="패스 840761" d="M30.5 24.3a11 11 0 11-8.2 13.2 11 11 0 018.2-13.2" fill="#fddb2b"/><path data-name="패스 840762" d="M34.8 22.3h-3.5a11 11 0 000 22h3.5a11 11 0 000-22z" fill="none" stroke="#111" stroke-linecap="round" stroke-linejoin="round" stroke-width="1.5"/><path data-name="선 126441" fill="none" stroke="#111" stroke-linecap="round" stroke-linejoin="round" stroke-width="1.5" d="M42.3 33.3h3.5"/><path data-name="선 126442" fill="none" stroke="#111" stroke-linecap="round" stroke-linejoin="round" stroke-width="1.5" d="M39.6 40.6h3.5"/><path data-name="선 126443" fill="none" stroke="#111" stroke-linecap="round" stroke-linejoin="round" stroke-width="1.5" d="M41.7 36.9h3.5"/><path data-name="선 126444" fill="none" stroke="#111" stroke-linecap="round" stroke-linejoin="round" stroke-width="1.5" d="M43.1 26.1h-3.5"/><path data-name="선 126445" fill="none" stroke="#111" stroke-linecap="round" stroke-linejoin="round" stroke-width="1.5" d="M45.2 29.7h-3.5"/><path data-name="패스 840763" d="M28.8 22.6a11 11 0 11-8.2 13.2h0a11 11 0 018.2-13.2z" fill="none" stroke="#111" stroke-linecap="round" stroke-linejoin="round" stroke-width="1.5"/><g data-name="그룹 422880"><g data-name="그룹 422879"><g data-name="그룹 422878" clip-path="url(#b)"><g data-name="그룹 422877" clip-path="url(#b)"><text transform="translate(26.1 38)" fill="#111" font-size="10" font-family="MoebiusKorea-Bold, Moebius Korea" font-weight="700"><tspan x="0" y="0">W</tspan></text></g></g></g></g><path data-name="선 126446" fill="none" stroke="#111" stroke-linecap="round" stroke-width="1.5" d="M25.4 33.5h10.9"/></g><g data-name="그룹 422882" clip-path="url(#c)"><path data-name="패스 840765" d="M58 33.8s-8.5 6.9-22.4 8.1C19.8 43.2 6.5 34 6.5 34" fill="none" stroke="#111" stroke-linecap="round" stroke-width="1.5"/></g></g></svg>