<svg xmlns="http://www.w3.org/2000/svg" xmlns:xlink="http://www.w3.org/1999/xlink" width="65" height="45" viewBox="0 0 65 45">
  <defs>
    <clipPath id="clip-path">
      <path id="패스_840764" data-name="패스 840764" d="M10,0V36.4s10.6,7.1,23.4,6a49.7,49.7,0,0,0,24.7-7V0Z" fill="none"/>
    </clipPath>
    <clipPath id="clip-path-2">
      <rect id="사각형_318497" data-name="사각형 318497" width="9.8" height="10.46" transform="translate(26.1 30)" fill="none"/>
    </clipPath>
    <clipPath id="clip-path-4">
      <rect id="사각형_318498" data-name="사각형 318498" width="65" height="45" fill="none"/>
    </clipPath>
  </defs>
  <g id="사용금액_65x45" transform="translate(32.5 22.5)">
    <g id="그룹_422883" data-name="그룹 422883" transform="translate(-32.5 -22.5)">
      <g id="그룹_422881" data-name="그룹 422881" clip-path="url(#clip-path)">
        <path id="패스_840753" data-name="패스 840753" d="M30.3,5.2a11.9,11.9,0,1,1-7.4,5.3,11.9,11.9,0,0,1,7.4-5.3" fill="#fff"/>
        <path id="패스_840754" data-name="패스 840754" d="M32.1,6.9a11.9,11.9,0,1,1-7.4,5.3,11.9,11.9,0,0,1,7.4-5.3" fill="#fddb2b"/>
        <path id="패스_840755" data-name="패스 840755" d="M30.3,5.2a11.9,11.9,0,1,1-7.4,5.3,11.9,11.9,0,0,1,7.4-5.3Z" fill="none" stroke="#111" stroke-linecap="round" stroke-linejoin="round" stroke-width="1.5"/>
        <path id="패스_840756" data-name="패스 840756" d="M30.3,13.7A11.9,11.9,0,1,1,22.9,19a11.9,11.9,0,0,1,7.4-5.3" fill="#fff"/>
        <path id="패스_840757" data-name="패스 840757" d="M32.1,15.5a11.9,11.9,0,1,1-7.4,5.3,11.9,11.9,0,0,1,7.4-5.3" fill="#fddb2b"/>
        <path id="패스_840758" data-name="패스 840758" d="M30.3,13.7A11.9,11.9,0,1,1,22.9,19a11.9,11.9,0,0,1,7.4-5.3Z" fill="none" stroke="#111" stroke-linecap="round" stroke-linejoin="round" stroke-width="1.5"/>
        <path id="패스_840759" data-name="패스 840759" d="M28.8,22.6a11,11,0,1,1-8.2,13.2h0a11,11,0,0,1,8.2-13.2" fill="#fff"/>
        <path id="패스_840760" data-name="패스 840760" d="M36.5,25A10.5,10.5,0,1,1,26,35.5,10.5,10.5,0,0,1,36.5,25" fill="#fddb2b"/>
        <path id="패스_840761" data-name="패스 840761" d="M30.5,24.3a11,11,0,1,1-8.2,13.2h0a11,11,0,0,1,8.2-13.2" fill="#fddb2b"/>
        <path id="패스_840762" data-name="패스 840762" d="M34.8,22.3H31.3a11,11,0,0,0,0,22h3.5a11,11,0,0,0,0-22Z" fill="none" stroke="#111" stroke-linecap="round" stroke-linejoin="round" stroke-width="1.5"/>
        <line id="선_126441" data-name="선 126441" x2="3.5" transform="translate(42.3 33.3)" fill="none" stroke="#111" stroke-linecap="round" stroke-linejoin="round" stroke-width="1.5"/>
        <line id="선_126442" data-name="선 126442" x2="3.5" transform="translate(39.6 40.6)" fill="none" stroke="#111" stroke-linecap="round" stroke-linejoin="round" stroke-width="1.5"/>
        <line id="선_126443" data-name="선 126443" x2="3.5" transform="translate(41.7 36.9)" fill="none" stroke="#111" stroke-linecap="round" stroke-linejoin="round" stroke-width="1.5"/>
        <line id="선_126444" data-name="선 126444" x1="3.5" transform="translate(39.6 26.1)" fill="none" stroke="#111" stroke-linecap="round" stroke-linejoin="round" stroke-width="1.5"/>
        <line id="선_126445" data-name="선 126445" x1="3.5" transform="translate(41.7 29.7)" fill="none" stroke="#111" stroke-linecap="round" stroke-linejoin="round" stroke-width="1.5"/>
        <path id="패스_840763" data-name="패스 840763" d="M28.8,22.6a11,11,0,1,1-8.2,13.2h0a11,11,0,0,1,8.2-13.2Z" fill="none" stroke="#111" stroke-linecap="round" stroke-linejoin="round" stroke-width="1.5"/>
        <g id="그룹_422880" data-name="그룹 422880" style="isolation: isolate">
          <g id="그룹_422879" data-name="그룹 422879" clip-path="url(#clip-path-2)">
            <g id="그룹_422878" data-name="그룹 422878" style="isolation: isolate">
              <g id="그룹_422877" data-name="그룹 422877" clip-path="url(#clip-path-2)">
                <text id="W" transform="translate(26.1 38)" fill="#111" font-size="10" font-family="MoebiusKorea-Bold, Moebius Korea" font-weight="700"><tspan x="0" y="0">W</tspan></text>
              </g>
            </g>
          </g>
        </g>
        <line id="선_126446" data-name="선 126446" x2="10.9" transform="translate(25.4 33.5)" fill="none" stroke="#111" stroke-linecap="round" stroke-width="1.5"/>
      </g>
      <g id="그룹_422882" data-name="그룹 422882" clip-path="url(#clip-path-4)">
        <path id="패스_840765" data-name="패스 840765" d="M58,33.8s-8.5,6.9-22.4,8.1C19.8,43.2,6.5,34,6.5,34" fill="none" stroke="#111" stroke-linecap="round" stroke-width="1.5"/>
      </g>
    </g>
  </g>
</svg>
