<svg xmlns="http://www.w3.org/2000/svg" width="20" height="20"><g data-name="그룹 349617"><g data-name="그룹 349616"><g data-name="그룹 24613" fill="none" stroke-linecap="round" stroke-linejoin="round"><path data-name="패스 128199" d="M15.242 12.249l3.033-3.036a.785.785 0 00.22-.678l-.925-5.78a.785.785 0 00-.632-.648l-5.924-1.093a.784.784 0 00-.7.217l-9.087 9.1a.784.784 0 000 1.109l.813.813" stroke="#000111" stroke-width="1.5"/><path data-name="패스 128200" d="M13.704 7.636a1.534 1.534 0 01-1.723-2.5.887.887 0 01.3-.209 1.535 1.535 0 011.723 2.5.884.884 0 01-.3.209z" stroke="#000111" stroke-width="1.5"/><path data-name="패스 128201" d="M10.108 14.841v-3.3h-3v3.3H4.602l4.011 4.007 4-4.007z" stroke="#111" stroke-width="1.3"/></g></g></g></svg>