<svg xmlns="http://www.w3.org/2000/svg" width="28" height="28"><defs><clipPath id="a"><path fill="none" d="M0 0h28v28H0z"/></clipPath><style>.g{fill:none}.b{clip-path:url(#a)}.g{stroke:#111;stroke-linejoin:round;stroke-linecap:round}</style></defs><g class="b"><path d="M14 0A14 14 0 110 14 14 14 0 0114 0" fill="#fddb2b"/><circle cx="13.5" cy="13.5" r="13.5" transform="translate(.5 .5)" stroke="#fccb3a" fill="none"/></g><g class="b"><path d="M19.1 13.6h-7.7a2.1 2.1 0 00-2.1 2.1v3.1a1 1 0 001 1h1.5a1 1 0 001-1h4.7a1 1 0 001 1H20a1 1 0 001-1v-3.1a2.1 2.1 0 00-2.1-2.1" fill="#fff"/><path stroke-linecap="square" stroke="#111" stroke-linejoin="round" fill="none" d="M12.1 8.6l-3.7 1.8"/><path class="g" d="M19.6 10.5L14 7.6l-1.9 1"/><path d="M18.1 13.6H9.9a2.1 2.1 0 00-2.1 2.1v3.1a1 1 0 001 1h1.5a1 1 0 001-1h5.2a1 1 0 001 1H19a1 1 0 001-1v-3.1a2.1 2.1 0 00-2.1-2.1m1 5.2h-1.3v-1h-7.2v1H8.8v-3.1a1 1 0 011-1H18a1 1 0 011 1zm-9-2.1h1.5v-1H9.9zm6.7 0h1.5v-1h-1.5z" fill="#111"/><path class="g" d="M10.1 13.8l.5-1.2a1.9 1.9 0 011.7-1.2h3.4a1.9 1.9 0 011.7 1.2l.5 1.2"/></g></svg>