<svg xmlns="http://www.w3.org/2000/svg" xmlns:xlink="http://www.w3.org/1999/xlink" width="114.919" height="74" viewBox="0 0 114.919 74">
  <defs>
    <clipPath id="clip-path">
      <rect id="사각형_352452" data-name="사각형 352452" width="50" height="50" fill="none"/>
    </clipPath>
    <clipPath id="clip-path-2">
      <rect id="사각형_352453" data-name="사각형 352453" width="45" height="45" fill="none"/>
    </clipPath>
  </defs>
  <g id="그룹_568558" data-name="그룹 568558" transform="translate(-37 -1903)">
    <g id="그룹_568550" data-name="그룹 568550" transform="translate(-144 -90)">
      <text id="up" transform="translate(212 2005)" fill="#111" font-size="13" font-family="MoebiusKorea-Bold, Moebius Korea" font-weight="700" letter-spacing="-0.03em"><tspan x="0" y="0">up</tspan></text>
    </g>
    <g id="icon_membership_g_fold_50" transform="translate(93 1911)">
      <g id="그룹_476471" data-name="그룹 476471">
        <g id="그룹_476470" data-name="그룹 476470" clip-path="url(#clip-path)">
          <g id="icon_membership_gold_40-2" data-name="icon membership gold 40-2">
            <path id="패스_861312" data-name="패스 861312" d="M4.75,5V33a5,5,0,0,0,2.5,4.375l14.25,8.25a5,5,0,0,0,5,0l14.25-8.25A5,5,0,0,0,43.25,33V5Z" fill="#fff"/>
            <path id="패스_861313" data-name="패스 861313" d="M6.375,7.75V33.375a5,5,0,0,0,2.5,4.25l14.25,8.125a5,5,0,0,0,5,0L42.5,37.625a5,5,0,0,0,2.5-4.25V7.75a1.125,1.125,0,0,0-1.125-1.125H7.5A1.125,1.125,0,0,0,6.375,7.75Z" fill="#fddb2b"/>
            <path id="패스_861314" data-name="패스 861314" d="M4.75,5V33a5,5,0,0,0,2.5,4.375l14.25,8.25a5,5,0,0,0,5,0l14.25-8.25A5,5,0,0,0,43.25,33V5Z" fill="none" stroke="#fccb3a" stroke-linejoin="round" stroke-width="1.25"/>
            <path id="패스_861315" data-name="패스 861315" d="M25.25,15.5a9.5,9.5,0,1,1-9.5,9.625h0a9.5,9.5,0,0,1,9.5-9.5" fill="#fff"/>
            <path id="패스_861316" data-name="패스 861316" d="M16.375,21a9.258,9.258,0,0,1,1.75-2.5" fill="none" stroke="#111" stroke-linecap="square" stroke-linejoin="round" stroke-width="1.25"/>
            <path id="패스_861317" data-name="패스 861317" d="M18.125,13s0,3.75,2.25,3.75H20.5a9.5,9.5,0,1,1-4.125,4.375" fill="none" stroke="#111" stroke-linecap="round" stroke-linejoin="round" stroke-width="1.25"/>
            <path id="패스_861318" data-name="패스 861318" d="M21.125,13.625S20.5,15.75,21.875,16" fill="none" stroke="#111" stroke-linecap="round" stroke-linejoin="round" stroke-width="1.25"/>
            <path id="패스_861319" data-name="패스 861319" d="M25.375,26.125a1.875,1.875,0,0,1-3.625,0" fill="none" stroke="#111" stroke-linecap="square" stroke-miterlimit="10" stroke-width="1.25"/>
            <line id="선_131687" data-name="선 131687" y2="0.375" transform="translate(26.375 22.625)" fill="none" stroke="#111" stroke-linecap="round" stroke-width="1.25"/>
            <line id="선_131688" data-name="선 131688" y2="1.625" transform="translate(26.375 21)" fill="none" stroke="#111" stroke-width="1.25"/>
            <line id="선_131689" data-name="선 131689" y2="0.5" transform="translate(20.75 22.5)" fill="none" stroke="#111" stroke-linecap="round" stroke-width="1.25"/>
            <line id="선_131690" data-name="선 131690" y2="1.5" transform="translate(20.75 21)" fill="none" stroke="#111" stroke-width="1.25"/>
            <path id="패스_861320" data-name="패스 861320" d="M31.25,14.5,28,13.625l2,3L28.125,19.75,31.5,18.375l2.375,2.875-.125-3.625L36.875,16l-3.125-.875-.5-3.5Z" fill="#fff"/>
            <path id="패스_861321" data-name="패스 861321" d="M31.25,14.5,28,13.625l2,3L28.125,19.75,31.5,18.375l2.375,2.875-.125-3.625L36.875,16l-3.125-.875-.5-3.5Z" fill="none" stroke="#111" stroke-linejoin="round" stroke-width="1.25"/>
          </g>
        </g>
      </g>
    </g>
    <g id="그룹_569034" data-name="그룹 569034" opacity="0.4" style="mix-blend-mode: luminosity;isolation: isolate">
      <g id="icon_membership_n_fold_50" transform="translate(37 1913)">
        <g id="그룹_476473" data-name="그룹 476473">
          <g id="그룹_476472" data-name="그룹 476472" clip-path="url(#clip-path-2)">
            <g id="icon_membership_silver_40-2" data-name="icon membership silver 40-2" transform="translate(4.14 4.923)">
              <path id="패스_861296" data-name="패스 861296" d="M22.079,5.5A17.454,17.454,0,1,1,4.625,22.954,17.454,17.454,0,0,1,22.079,5.5h0" transform="translate(-4.625 -5.5)" fill="#fff"/>
              <path id="패스_861297" data-name="패스 861297" d="M23.329,6.25A17.454,17.454,0,1,1,5.875,23.7,17.454,17.454,0,0,1,23.329,6.25h0" transform="translate(-4.756 -5.579)" fill="#c5c9d3"/>
              <path id="패스_861298" data-name="패스 861298" d="M22.079,5.5A17.454,17.454,0,1,1,4.625,22.954,17.454,17.454,0,0,1,22.079,5.5Z" transform="translate(-4.625 -5.5)" fill="none" stroke="#717888" stroke-linejoin="round" stroke-width="1.25"/>
              <path id="패스_861299" data-name="패스 861299" d="M24.253,15.5a8.5,8.5,0,1,1-8.5,8.615h0a8.5,8.5,0,0,1,8.5-8.5" transform="translate(-5.792 -6.549)" fill="#fff"/>
              <path id="패스_861300" data-name="패스 861300" d="M16.375,20.738A8.287,8.287,0,0,1,17.941,18.5" transform="translate(-5.858 -6.864)" fill="none" stroke="#111" stroke-linecap="square" stroke-linejoin="round" stroke-width="1.25"/>
              <path id="패스_861301" data-name="패스 861301" d="M17.849,13s0,3.357,2.014,3.357h.111a8.5,8.5,0,1,1-3.692,3.916" transform="translate(-5.765 -6.287)" fill="none" stroke="#111" stroke-linecap="round" stroke-linejoin="round" stroke-width="1.25"/>
              <path id="패스_861302" data-name="패스 861302" d="M21.11,13.625s-.559,1.9.671,2.126" transform="translate(-6.341 -6.352)" fill="none" stroke="#111" stroke-linecap="round" stroke-linejoin="round" stroke-width="1.25"/>
              <path id="패스_861303" data-name="패스 861303" d="M24.995,26.125a1.678,1.678,0,0,1-3.245,0" transform="translate(-6.422 -7.664)" fill="none" stroke="#111" stroke-linecap="square" stroke-miterlimit="10" stroke-width="1.25"/>
              <line id="선_131679" data-name="선 131679" y2="0.336" transform="translate(19.468 15.328)" fill="none" stroke="#111" stroke-linecap="round" stroke-width="1.25"/>
              <line id="선_131680" data-name="선 131680" y2="1.455" transform="translate(19.468 13.874)" fill="none" stroke="#111" stroke-width="1.25"/>
              <line id="선_131681" data-name="선 131681" y2="0.448" transform="translate(14.433 15.216)" fill="none" stroke="#111" stroke-linecap="round" stroke-width="1.25"/>
              <line id="선_131682" data-name="선 131682" y2="1.343" transform="translate(14.433 13.874)" fill="none" stroke="#111" stroke-width="1.25"/>
            </g>
          </g>
        </g>
      </g>
      <text id="일반" transform="translate(60 1974)" fill="#111" font-size="11" font-family="MoebiusKorea-Regular, Moebius Korea" letter-spacing="-0.03em" text-decoration="line-through"><tspan x="-9.735" y="0">일반</tspan></text>
    </g>
    <text id="골드" transform="translate(118 1974)" fill="#111" font-size="11" font-family="MoebiusKorea-Regular, Moebius Korea" letter-spacing="-0.03em"><tspan x="-9.735" y="0">골드</tspan></text>
    <g id="그룹_568549" data-name="그룹 568549" transform="translate(-246.897 1038.338)">
      <path id="패스_1409297" data-name="패스 1409297" d="M355.148,881.662a39.818,39.818,0,0,1,56.311,0" transform="translate(-44.562)" fill="none" stroke="#111" stroke-linecap="round" stroke-linejoin="round" stroke-width="1.3" stroke-dasharray="5 20 200"/>
    </g>
    <g id="그룹_568556" data-name="그룹 568556" transform="translate(133 1904)">
      <line id="선_143169" data-name="선 143169" y1="3.844" x2="3.844" transform="translate(9.747 4.409)" fill="none" stroke="#111" stroke-linecap="round" stroke-linejoin="round" stroke-width="1.5"/>
      <line id="선_143170" data-name="선 143170" y1="0.703" x2="2.625" transform="translate(15.375 17.297)" fill="none" stroke="#111" stroke-linecap="round" stroke-linejoin="round" stroke-width="1.5"/>
      <line id="선_143171" data-name="선 143171" y1="2.625" x2="0.703" transform="translate(0)" fill="none" stroke="#111" stroke-linecap="round" stroke-linejoin="round" stroke-width="1.5"/>
    </g>
    <path id="패스_1409307" data-name="패스 1409307" d="M1698.606,1349.213l3.314-4.506Z" transform="translate(-2034.291 2168.295) rotate(-45)" fill="#fff" stroke="#111" stroke-linecap="round" stroke-linejoin="round" stroke-width="1.3"/>
    <path id="패스_1409305" data-name="패스 1409305" d="M1698.606,1349.213l-3.314-4.506Z" transform="translate(-2034.291 2168.295) rotate(-45)" fill="none" stroke="#111" stroke-linecap="round" stroke-linejoin="round" stroke-width="1.3"/>
  </g>
</svg>
