<svg xmlns="http://www.w3.org/2000/svg" xmlns:xlink="http://www.w3.org/1999/xlink" width="20" height="20" viewBox="0 0 20 20"><defs><style>.a{fill:#ff9b9b;opacity:0;}.b{clip-path:url(#a);}.c,.e{fill:none;}.c{stroke:#111;stroke-width:1.5px;}.d{stroke:none;}</style><clipPath id="a"><rect class="a" width="20" height="20" transform="translate(263 20)"/></clipPath></defs><g transform="translate(-263 -20)"><g class="b"><g transform="translate(-1 -1)"><path class="c" d="M48.815,11.882A6.826,6.826,0,0,0,48.88,11a6.826,6.826,0,0,0-.065-.882l1.952-1.485a.446.446,0,0,0,.111-.576l-1.85-3.114a.465.465,0,0,0-.407-.225.443.443,0,0,0-.157.027l-2.3.9A6.808,6.808,0,0,0,44.6,4.763l-.352-2.385A.447.447,0,0,0,43.791,2h-3.7a.447.447,0,0,0-.453.378l-.352,2.385a7.159,7.159,0,0,0-1.564.882l-2.3-.9a.537.537,0,0,0-.167-.027.461.461,0,0,0-.4.225L33,8.057a.436.436,0,0,0,.111.576l1.952,1.485A6.947,6.947,0,0,0,35,11a6.947,6.947,0,0,0,.065.882l-1.952,1.485a.446.446,0,0,0-.111.576l1.85,3.114a.465.465,0,0,0,.407.225.443.443,0,0,0,.157-.027l2.3-.9a6.808,6.808,0,0,0,1.564.882l.352,2.385A.447.447,0,0,0,40.09,20h3.7a.447.447,0,0,0,.453-.378l.352-2.385a7.159,7.159,0,0,0,1.564-.882l2.3.9a.537.537,0,0,0,.167.027.461.461,0,0,0,.4-.225l1.85-3.114a.446.446,0,0,0-.111-.576Z" transform="translate(232.061 20)"/><g class="c" transform="translate(271 28)"><circle class="d" cx="3" cy="3" r="3"/><circle class="e" cx="3" cy="3" r="2.25"/></g></g></g></g></svg>