<svg xmlns="http://www.w3.org/2000/svg" xmlns:xlink="http://www.w3.org/1999/xlink" width="110" height="90.711" viewBox="0 0 110 90.711"><defs><style>.a,.ae,.ai,.aj,.ak,.am,.an,.aq,.ar,.as,.at,.au,.av,.ax,.ay,.az,.ba,.bd,.be,.bf,.bg,.bh,.bi,.bm,.bo,.bq,.br,.bs,.bt,.bu,.bv,.bw,.e,.j,.l,.m,.n,.o,.p,.q{fill:none;}.b,.x{isolation:isolate;}.c{clip-path:url(#a);}.d{fill:#fff;}.ae,.ai,.aj,.ak,.am,.as,.at,.au,.av,.ax,.ay,.az,.ba,.bd,.bf,.bg,.bm,.bq,.br,.bs,.bt,.bu,.bv,.bw,.e,.j,.l,.m,.n,.o,.p,.q{stroke:#222;}.ae,.ai,.ak,.am,.at,.au,.ax,.ay,.az,.ba,.bd,.bm,.br,.bs,.bt,.bu,.bv,.bw,.e,.j,.n,.o,.p{stroke-linejoin:round;}.e{stroke-width:1.225px;}.f{opacity:0.15;}.g{clip-path:url(#c);}.h{fill:#222;}.i{fill:#f4f4f4;}.j{stroke-width:0.612px;}.k{clip-path:url(#d);}.aj,.an,.aq,.ar,.as,.av,.be,.bf,.bg,.bh,.bi,.bo,.bq,.l,.m,.q{stroke-miterlimit:10;}.l{stroke-width:0.153px;}.m{stroke-width:0.153px;}.n{stroke-width:0.612px;}.o{stroke-width:0.306px;}.p{stroke-width:4px;}.q{stroke-width:0.153px;}.r{fill:#f2f2f2;}.s{fill:#e2e2e2;}.t{fill:#3673ee;}.u{opacity:0.1;}.v{clip-path:url(#f);}.w{clip-path:url(#g);}.x{opacity:0.2;mix-blend-mode:multiply;}.y{clip-path:url(#h);}.z{clip-path:url(#i);}.aa{fill:url(#j);}.ab{fill:#212020;}.ac{clip-path:url(#l);}.ad{fill:url(#m);}.ae{stroke-width:0.459px;}.af{opacity:0.18;}.ag{clip-path:url(#o);}.ah{fill:#f8483b;}.ai{stroke-width:0.459px;}.aj{stroke-width:0.459px;}.ak{stroke-width:0.459px;}.al{clip-path:url(#p);}.am{stroke-width:0.459px;}.an,.be,.bh,.bi,.bo{stroke:#000;}.an,.as,.bh,.bi,.bo{stroke-linecap:round;}.an{stroke-width:0.459px;}.ao{fill:#141c1e;}.ap{fill:#bcbcbc;}.aq,.ar{stroke:#111;}.aq{stroke-width:0.459px;}.ar{stroke-width:0.459px;}.as,.bg{stroke-width:0.459px;}.at{stroke-width:0.383px;}.au{stroke-width:0.459px;}.av{stroke-width:0.383px;}.aw{fill:#dbdbdb;}.ax{stroke-width:0.383px;}.ay{stroke-width:0.383px;}.az{stroke-width:0.383px;}.ba{stroke-width:0.383px;}.bb{opacity:0.3;}.bc{clip-path:url(#q);}.bd{stroke-width:0.765px;}.be{stroke-width:0.689px;}.bf{stroke-width:0.459px;}.bh{stroke-width:0.459px;}.bi{stroke-width:1.225px;}.bj{fill:#a3d8ff;}.bk{fill:#d1a900;}.bl{fill:#ffd100;}.bm{stroke-width:0.459px;}.bn{fill:#ffda34;}.bo{stroke-width:0.459px;}.bp{clip-path:url(#s);}.bq{stroke-width:0.153px;}.br{stroke-width:1.225px;}.bs{stroke-width:0.612px;}.bt{stroke-width:0.612px;}.bu{stroke-width:0.383px;}.bv{stroke-width:0.612px;}.bw{stroke-width:0.612px;}</style><clipPath id="a"><rect class="a" width="110" height="90.711"/></clipPath><clipPath id="c"><rect class="a" width="79.431" height="45.466"/></clipPath><clipPath id="d"><rect class="a" width="20.726" height="11.306"/></clipPath><clipPath id="f"><rect class="a" width="7.792" height="5.446"/></clipPath><clipPath id="g"><rect class="a" width="1.623" height="1.616"/></clipPath><clipPath id="h"><rect class="a" width="52.076" height="29.868"/></clipPath><clipPath id="i"><path class="a" d="M277.315,397.509a3.774,3.774,0,0,0,1.7,2.954c.934.536,1.7.107,1.7-.98a3.8,3.8,0,0,0-1.7-2.954,1.546,1.546,0,0,0-.765-.23c-.566,0-.949.444-.949,1.225" transform="translate(-277.3 -396.3)"/></clipPath><linearGradient id="j" x1="-12.439" y1="6.367" x2="-12.395" y2="6.367" gradientUnits="objectBoundingBox"><stop offset="0" stop-color="#c2c1c1"/><stop offset="1" stop-color="#dfdedd"/></linearGradient><clipPath id="l"><path class="a" d="M451.915,498.409a3.775,3.775,0,0,0,1.7,2.954c.934.536,1.7.107,1.7-.98a3.8,3.8,0,0,0-1.7-2.954,1.546,1.546,0,0,0-.765-.23c-.566,0-.949.444-.949,1.225" transform="translate(-451.9 -497.2)"/></clipPath><linearGradient id="m" x1="-20.269" y1="3.097" x2="-20.224" y2="3.097" xlink:href="#j"/><clipPath id="o"><rect class="a" width="14.818" height="8.11"/></clipPath><clipPath id="p"><rect class="a" width="54.097" height="29.323"/></clipPath><clipPath id="q"><rect class="a" width="10.134" height="5.653"/></clipPath><clipPath id="s"><rect class="a" width="13.593" height="7.917"/></clipPath></defs><g transform="translate(55 45.355)"><g class="b" transform="translate(-55 -45.355)"><g class="c"><g class="c"><path class="d" d="M102.363,147.521l-11.282,9.965-4.439,3.919h0l-1.393.811,1.393.8h0L56.058,180.907,7.9,153.093l1.393-.811L7.9,151.471l30.554-17.849h.015l15.69-13.884,8.894-.459a3.551,3.551,0,0,1,1.944.475l46.122,26.574a.383.383,0,0,1-.168.719Z" transform="translate(-6.691 -101.017)"/><path class="e" d="M102.363,147.521l-11.282,9.965-4.439,3.919h0l-1.393.811,1.393.8h0L56.058,180.907,7.9,153.093l1.393-.811L7.9,151.471l30.554-17.849h.015l15.69-13.884,8.894-.459a3.551,3.551,0,0,1,1.944.475l46.122,26.574a.383.383,0,0,1-.168.719Z" transform="translate(-6.691 -101.017)"/><g class="f" transform="translate(0.842 35.988)"><g class="g"><path class="h" d="M84.9,262.922,55.11,280.311a2.419,2.419,0,0,1-2.419,0l-47.04-27.14a.367.367,0,0,1,0-.643L36.067,235.2H36.1Z" transform="translate(-5.468 -235.185)"/></g></g><path class="i" d="M86.642,251.314,56.058,269.178,7.9,241.364l30.554-17.849h0l.031-.015,48.158,27.814Z" transform="translate(-6.691 -189.288)"/><path class="j" d="M86.642,251.314,56.058,269.178,7.9,241.364l30.554-17.849h0l.031-.015,48.158,27.814Z" transform="translate(-6.691 -189.288)"/><g class="f" transform="translate(84.253 45.938)"><g class="k"><path d="M571.72,301.041,552.479,311.8l-1.179-.689,11.282-9.965h0l9.031-.475a.2.2,0,0,1,.107.383" transform="translate(-551.162 -300.582)"/><path class="l" d="M571.72,301.067l-19.242,10.761-1.179-.689,11.282-9.965h0l9.031-.475a.2.2,0,0,1,.107.367Z" transform="translate(-551.162 -300.608)"/></g></g><path class="d" d="M527.918,369.589l-5.618,3.245h0l4.439-3.934,1.179.689Z" transform="translate(-442.349 -312.43)"/><path class="m" d="M527.918,369.589l-5.618,3.245h0l4.439-3.934,1.179.689Z" transform="translate(-442.349 -312.43)"/><path class="d" d="M86.642,240.714,56.058,258.578,7.9,230.764l30.554-17.849h0l.031-.015,48.158,27.814Z" transform="translate(-6.691 -180.31)"/><path class="n" d="M86.642,240.714,56.058,258.578,7.9,230.764l30.554-17.849h0l.031-.015,48.158,27.814Z" transform="translate(-6.691 -180.31)"/><path class="d" d="M207.6,136.084,223.306,122.2l48.173,27.783.015.015-11.282,9.965-4.439,3.919" transform="translate(-175.822 -103.494)"/><path class="j" d="M207.6,136.084,223.306,122.2l48.173,27.783.015.015-11.282,9.965-4.439,3.919" transform="translate(-175.822 -103.494)"/><path class="i" d="M255.773,240.7l-48.158-27.8H207.6" transform="translate(-175.822 -180.31)"/><path class="o" d="M255.773,240.7l-48.158-27.8H207.6" transform="translate(-175.822 -180.31)"/><line class="j" x1="0.015" y2="0.015" transform="translate(31.763 32.59)"/><line class="p" transform="translate(31.778 32.59)"/><line class="q" x1="5.296" y2="3.062" transform="translate(80.273 57.158)"/><path class="r" d="M310.1,119.722l8.909-.444a3.536,3.536,0,0,1,1.944.475l46.106,26.574a.383.383,0,0,1-.168.719l-8.6.459" transform="translate(-262.631 -101.016)"/><path class="n" d="M310.1,119.722l8.909-.444a3.536,3.536,0,0,1,1.944.475l46.106,26.574a.383.383,0,0,1-.168.719l-8.6.459" transform="translate(-262.631 -101.016)"/><line class="i" x1="48.188" y1="27.783" transform="translate(47.469 18.706)"/><line class="o" x1="48.188" y1="27.783" transform="translate(47.469 18.706)"/><path class="s" d="M145.619,365.925l-.689.4a1.5,1.5,0,0,1-1.5,0l-33.753-19.487a.429.429,0,0,1,0-.75l1.225-.7a.429.429,0,0,1,.429,0l34.289,19.793a.429.429,0,0,1,0,.75" transform="translate(-92.701 -292.464)"/><path class="s" d="M282.3,179.55l15.078-13.333-1.9-1.117L280.4,178.448Z" transform="translate(-237.478 -139.827)"/><path class="s" d="M393.8,159.925l-8.832.459L382.9,159.19l8.8-.49Z" transform="translate(-324.287 -134.407)"/><path class="s" d="M314.551,164.612c3.337-13.838-13.3-22.2-13.3-22.2l-.337-.184a.413.413,0,0,0-.49.077l-.628.628a.612.612,0,0,0,.122.964c3.245,1.913,16.624,10.608,11.955,21.492" transform="translate(-253.75 -120.42)"/><path class="s" d="M115.605,270.422l-2.005-1.163L138.551,254.9l1.99,1.163Z" transform="translate(-96.211 -215.881)"/></g><g class="c"><path class="t" d="M175.14,259.643h-.827l.031-1.531h1.347l.031,1.531h-.582m1.669-.031-.061-1.531,1.347-.077.122,1.531-1.393.092m-3.6-.015-1.424-.122.184-1.515,1.332.122Zm6.092-.153-.153-1.531,1.347-.153.2,1.515-1.393.168m-8.618-.138a14.479,14.479,0,0,1-1.424-.337l.429-1.47a12.06,12.06,0,0,0,1.271.291Zm-2.51-.7a7.534,7.534,0,0,1-1.347-.719l.857-1.271a6,6,0,0,0,1.072.566Zm-2.3-1.531a4.439,4.439,0,0,1-.873-1.393l1.424-.551a2.908,2.908,0,0,0,.582.918Zm-1.179-2.679c-.015-.168-.015-.321-.015-.49a6.337,6.337,0,0,1,.092-1.087l1.515.26a4.807,4.807,0,0,0-.077.811,2.71,2.71,0,0,0,.015.352Zm1.822-2.25-1.454-.475a11.841,11.841,0,0,1,.551-1.362l1.393.643a10.321,10.321,0,0,0-.475,1.194m.934-2.1-1.332-.75c.168-.306.352-.612.551-.934l.168-.276,1.3.8-.184.291c-.184.291-.352.582-.505.857m1.255-2.112-1.347-.735c.214-.4.413-.8.6-1.179l1.393.643c-.2.413-.413.842-.643,1.271m1.087-2.3-1.424-.566c.168-.413.306-.827.429-1.24l1.47.429c-.138.444-.291.9-.475,1.362m.75-2.465-1.5-.306a10.826,10.826,0,0,0,.184-1.271l1.531.138a12.355,12.355,0,0,1-.214,1.454m-1.286-2.541a8.678,8.678,0,0,0-.107-1.255l1.515-.245a10.225,10.225,0,0,1,.138,1.485Zm-.337-2.2a8.329,8.329,0,0,0-.444-1.179l1.393-.643a9.9,9.9,0,0,1,.52,1.393Zm-.9-2.051a9.692,9.692,0,0,0-.735-1.041l1.194-.964a11.219,11.219,0,0,1,.857,1.209Zm-1.408-1.806a12.311,12.311,0,0,0-.949-.873l.98-1.179a13.791,13.791,0,0,1,1.072.995Zm-1.76-1.5c-.352-.245-.719-.49-1.1-.719l.781-1.316c.413.245.827.505,1.209.781Zm-2.005-1.209a11.419,11.419,0,0,0-1.179-.52l.505-1.439a12.7,12.7,0,0,1,1.362.6Z" transform="translate(-136.948 -194.708)"/><g class="u" transform="translate(90.85 76.063)"><g class="v"><path class="h" d="M595.07,503.849a.735.735,0,1,1-.719-.75.735.735,0,0,1,.719.75" transform="translate(-593.586 -502.15)"/><path class="h" d="M602.16,498.207A1.179,1.179,0,1,1,601.011,497a1.179,1.179,0,0,1,1.148,1.209" transform="translate(-598.838 -496.982)"/><path class="h" d="M603.46,503.007a1.179,1.179,0,1,1-1.148-1.209,1.179,1.179,0,0,1,1.148,1.209" transform="translate(-599.939 -501.048)"/><path class="h" d="M619.1,501.856a2.1,2.1,0,1,1-.576-1.506,2.1,2.1,0,0,1,.576,1.506" transform="translate(-611.629 -499.269)"/><path class="h" d="M629.768,516.376a1.332,1.332,0,1,1-.363-.961,1.332,1.332,0,0,1,.363.961" transform="translate(-621.961 -512.227)"/></g></g><g class="u" transform="translate(102.346 78.956)"><g class="w"><path class="h" d="M670.223,516.623a.811.811,0,1,1-.781-.827.811.811,0,0,1,.781.827" transform="translate(-668.601 -515.797)"/></g></g><g class="x" transform="translate(40.825 54.495)"><g class="y"><path d="M267.067,365.508c-.49.276-.49.735,0,1.026l13.363,7.072,3.276,1.76-.031.7.873.505v.689l15.721,8.343a1.944,1.944,0,0,0,1.76,0l16.379-9.521a.531.531,0,0,0,0-1.01l-33.37-18.92a1.975,1.975,0,0,0-1.76,0Z" transform="translate(-266.7 -355.956)"/></g></g><path class="h" d="M585.034,469.9l.8.459-1.072,2.266L582.6,471.37" transform="translate(-493.418 -397.97)"/><path class="h" d="M268.827,381.126l1.791-1.026.475.26a8.666,8.666,0,0,1,3.888,6.429l.781.383a1.5,1.5,0,0,1-.291.214l-2.143,1.225a2.149,2.149,0,0,1-2.235-.184A6.871,6.871,0,0,1,268,383.07a2.194,2.194,0,0,1,.827-1.944" transform="translate(-226.976 -321.916)"/><path class="h" d="M268,387.341a6.779,6.779,0,0,0,3.092,5.342c1.714.98,3.092.184,3.092-1.776a6.8,6.8,0,0,0-3.092-5.342c-1.714-.98-3.092-.2-3.092,1.776" transform="translate(-226.976 -326.187)"/><path class="h" d="M269.1,389.479a6.309,6.309,0,0,0,2.847,4.929c1.577.918,2.847.168,2.847-1.638a6.336,6.336,0,0,0-2.847-4.944c-1.577-.918-2.847-.168-2.847,1.638" transform="translate(-227.907 -328.126)"/><path class="d" d="M273.5,395.834a4.68,4.68,0,0,0,2.128,3.674c1.179.674,2.128.122,2.128-1.225a4.68,4.68,0,0,0-2.128-3.674c-1.179-.674-2.128-.122-2.128,1.225" transform="translate(-231.634 -333.961)"/></g><g class="z" transform="translate(42.448 60.664)"><rect class="aa" width="3.414" height="4.718" transform="translate(0.015 0)"/></g><g class="c"><path class="ab" d="M266.955,377.792l-1.791,1.026a2.013,2.013,0,0,0-.8,1.592l-.674.2v-.153c-.168-2.342.765-3.873,3.276-2.648" transform="translate(-223.313 -319.608)"/><path class="h" d="M443.427,481.926l1.791-1.026.475.26a8.666,8.666,0,0,1,3.888,6.429l.781.383a1.5,1.5,0,0,1-.291.214l-2.143,1.225a2.15,2.15,0,0,1-2.235-.184,6.843,6.843,0,0,1-3.092-5.342,2.194,2.194,0,0,1,.827-1.944" transform="translate(-374.849 -407.286)"/><path class="h" d="M442.6,488.156a6.779,6.779,0,0,0,3.092,5.342c1.714.98,3.092.184,3.092-1.776a6.8,6.8,0,0,0-3.092-5.342c-1.714-.98-3.092-.184-3.092,1.776" transform="translate(-374.849 -411.572)"/><path class="h" d="M443.7,490.363a6.308,6.308,0,0,0,2.847,4.929c1.577.918,2.847.168,2.847-1.638a6.309,6.309,0,0,0-2.847-4.929c-1.577-.918-2.847-.168-2.847,1.638" transform="translate(-375.78 -413.581)"/><path class="d" d="M448.1,496.634a4.68,4.68,0,0,0,2.128,3.674c1.179.674,2.128.122,2.128-1.225a4.68,4.68,0,0,0-2.128-3.674c-1.179-.674-2.128-.122-2.128,1.225" transform="translate(-379.507 -419.331)"/></g><g class="ac" transform="translate(69.175 76.109)"><rect class="ad" width="3.414" height="4.718" transform="translate(0.015 -0.015)"/></g><g class="c"><path class="ab" d="M441.54,478.592l-1.776,1.026a2.013,2.013,0,0,0-.8,1.592l-.674.2v-.153c-.168-2.342.765-3.873,3.276-2.648" transform="translate(-371.186 -404.978)"/><path class="d" d="M265.023,287.919s-2.771,1.179-4.21,2.021c-1.133.674-4.623,2.847-6.23,3.934a3.444,3.444,0,0,0-1.179,1.378,7.868,7.868,0,0,0-.765,2.51,10.6,10.6,0,0,0,.551,4.531,5.035,5.035,0,0,0,.873,1.041,2.259,2.259,0,0,1-.015-.321c0-2.327,1.745-3.138,4.056-1.669a8.31,8.31,0,0,1,3.643,6.291,3.327,3.327,0,0,1-.015.4l.475.276,18.813,10.715v-.153c-.184-2.48.888-4.056,3.75-2.388a8.666,8.666,0,0,1,3.888,6.429l1.072.505c.888.352,1.653-.352,3.6-1.332s9.338-5.633,10.868-6.6,2.158-1.822,2.311-2.541a32.941,32.941,0,0,0,.291-3.827,3.628,3.628,0,0,0-.566-1.546,10.58,10.58,0,0,1,0-1.255,20.211,20.211,0,0,0-.23-2.51l-.536-.536a16.908,16.908,0,0,0-.765-2.572l-.077-.214a6.077,6.077,0,0,0-2.908-3.215l-18.981-9.889a5.48,5.48,0,0,0-3.873-.459,14.405,14.405,0,0,0-2.311.811l-4.807-1.194a9.768,9.768,0,0,0-5.342.8Z" transform="translate(-213.927 -242.593)"/><path class="ae" d="M265.023,287.919s-2.771,1.179-4.21,2.021c-1.133.674-4.623,2.847-6.23,3.934a3.444,3.444,0,0,0-1.179,1.378,7.868,7.868,0,0,0-.765,2.51,10.6,10.6,0,0,0,.551,4.531,5.035,5.035,0,0,0,.873,1.041,2.259,2.259,0,0,1-.015-.321c0-2.327,1.745-3.138,4.056-1.669a8.31,8.31,0,0,1,3.643,6.291,3.327,3.327,0,0,1-.015.4l.475.276,18.813,10.715v-.153c-.184-2.48.888-4.056,3.75-2.388a8.666,8.666,0,0,1,3.888,6.429l1.072.505c.888.352,1.653-.352,3.6-1.332s9.338-5.633,10.868-6.6,2.158-1.822,2.311-2.541a32.941,32.941,0,0,0,.291-3.827,3.628,3.628,0,0,0-.566-1.546,10.58,10.58,0,0,1,0-1.255,20.211,20.211,0,0,0-.23-2.51l-.536-.536a16.908,16.908,0,0,0-.765-2.572l-.077-.214a6.077,6.077,0,0,0-2.908-3.215l-18.981-9.889a5.48,5.48,0,0,0-3.873-.459,14.405,14.405,0,0,0-2.311.811l-4.807-1.194a9.768,9.768,0,0,0-5.342.8Z" transform="translate(-213.927 -242.593)"/><g class="af" transform="translate(48.158 45.019)"><g class="ag"><path class="h" d="M314.8,302.128a11.867,11.867,0,0,1,1.714-.674l3.092-1.929c1.531-.98,9.965-5.036,9.965-5.036L329.5,294l-.291.122-.429-.107-1.393.367c-2.434.612-3.077.781-7.026,2.832-3.643,1.883-5.97,3.812-5.541,4.9" transform="translate(-314.743 -294.015)"/></g></g><path class="h" d="M314.815,297.042a20.993,20.993,0,0,1,7.975-1.607c1.041-.765,2.786-2.005,4.914-3.352a41.682,41.682,0,0,1,7.332-3.567,17.511,17.511,0,0,0-1.745-.505,7.646,7.646,0,0,0-4.072,1.041l-.306-.077a41.329,41.329,0,0,0-8.863,3.873,17.732,17.732,0,0,0-5.25,4.179" transform="translate(-266.612 -243.91)"/><path class="ah" d="M596.926,399.624a4.58,4.58,0,0,1,.245.4,2.376,2.376,0,0,1-1.026,1.026h0l-.245-5.419.168-.429.612.551a20.126,20.126,0,0,1,.26,2.572,9.7,9.7,0,0,0,0,1.3" transform="translate(-504.682 -334.705)"/><path class="ai" d="M596.926,399.624a4.58,4.58,0,0,1,.245.4,2.376,2.376,0,0,1-1.026,1.026h0l-.245-5.419.168-.429.612.551a20.126,20.126,0,0,1,.26,2.572,9.7,9.7,0,0,0-.015,1.3Z" transform="translate(-504.682 -334.705)"/><path class="d" d="M596.807,409.086l-.107-2.266a4.776,4.776,0,0,0,.827-.52,9.83,9.83,0,0,1,.107,1.515c-.015.2-.015.413-.015.6a4.577,4.577,0,0,1-.811.674" transform="translate(-505.36 -344.105)"/><path class="aj" d="M596.807,409.086l-.107-2.266a4.776,4.776,0,0,0,.827-.52,9.83,9.83,0,0,1,.107,1.515c-.015.2-.015.413-.015.6a4.577,4.577,0,0,1-.811.674Z" transform="translate(-505.36 -344.105)"/><path class="ak" d="M481.962,438.09c.735-.276.214-1.47.214-1.47a2.326,2.326,0,0,0,.735.214,10.577,10.577,0,0,0,1.515-.444,15.2,15.2,0,0,1,.276,2.189c.061,1.3.184,1.393.184,1.393s4.21-2.281,5.863-3.306,4.087-2.51,5.664-3.536,1.776-1.47,1.913-1.913.306-3.322.306-3.322a2.269,2.269,0,0,0,.9-.995,2.95,2.95,0,0,1,.352,1.163,29.887,29.887,0,0,1-.291,3.827,4.528,4.528,0,0,1-2.311,2.541c-1.531.949-8.924,5.618-10.868,6.6s-2.694,1.684-3.6,1.332l-1.072-.505a8.02,8.02,0,0,0-1.148-3.536A4.974,4.974,0,0,0,481.962,438.09Z" transform="translate(-407.032 -361.552)"/><g class="af" transform="translate(38.743 51.54)"><g class="al"><path class="h" d="M307.039,350.768l-.689.49-.444.26-.23-5.327.23-.505-1.271-3.613-13.9,8.343a3.643,3.643,0,0,0-1.837-3.169L270.454,336.7a19.085,19.085,0,0,0-7.822,1.592l-4.546-.245-.612.352a5.771,5.771,0,0,1-2.388.765l-1.868.168a34.769,34.769,0,0,0,0,3.766,5.675,5.675,0,0,0,1.194,2.863c-.015-4.638,4.118-2.373,4.118-2.373,4.194,3.077,3.689,6.98,3.689,6.98l19.288,10.991c-.4-5.051,3.26-2.8,3.26-2.8a8.639,8.639,0,0,1,4.363,6.689l1.868.566s11.542-6.842,12.92-7.317a7.326,7.326,0,0,0,2.709-2.419l.4-1.087.23-3.536Zm-25.548,8.649-7.929-4.638v-.138a.321.321,0,0,1,.475-.276l7.822,4.409Z" transform="translate(-253.156 -336.7)"/></g></g><path class="ah" d="M488.937,460.249a14.716,14.716,0,0,1-.367-4.056c.031-1.148.674-1.056,1.026-1.148s1.531-.245,1.531-.245l.046,5.235a10.577,10.577,0,0,1-1.515.444,2.327,2.327,0,0,1-.735-.214" transform="translate(-413.777 -385.181)"/><path class="ak" d="M488.937,460.249a14.716,14.716,0,0,1-.367-4.056c.031-1.148.674-1.056,1.026-1.148s1.531-.245,1.531-.245l.046,5.235a10.577,10.577,0,0,1-1.515.444A2.326,2.326,0,0,1,488.937,460.249Z" transform="translate(-413.777 -385.181)"/><path class="d" d="M497.966,464.5v2.342c-.612.184-1.133.138-1.24-.031a3.544,3.544,0,0,1-.061-1.47c.077-.536.888-.719,1.271-.827" transform="translate(-420.602 -393.396)"/><path class="am" d="M497.966,464.5v2.342c-.612.184-1.133.138-1.24-.031a3.544,3.544,0,0,1-.061-1.47C496.741,464.806,497.583,464.622,497.966,464.5Z" transform="translate(-420.602 -393.396)"/><path class="an" d="M386.321,353.669c0-.75.031-2.22.061-3.23A5.327,5.327,0,0,0,383.6,345.6l-17.5-10.3" transform="translate(-310.059 -283.974)"/><path class="h" d="M522.183,382.092l.888,3.383a1.393,1.393,0,0,1-.643,1.607l-11.159,6.46a.505.505,0,0,1-.765-.429l-.107-4.424a.505.505,0,0,1,.245-.459l10.792-6.444a.505.505,0,0,1,.75.291" transform="translate(-432.267 -323.281)"/><path class="ao" d="M314.9,347.1h0" transform="translate(-266.697 -293.968)"/><path class="ap" d="M364.172,404.683l-2.342-1.347c-.122-.077-.23,0-.23.168v.811a.536.536,0,0,0,.23.429l2.342,1.347c.122.077.23,0,.23-.168v-.811a.536.536,0,0,0-.23-.429" transform="translate(-306.248 -341.57)"/><path class="aq" d="M364.172,404.683l-2.342-1.347c-.122-.077-.23,0-.23.168v.811a.536.536,0,0,0,.23.429l2.342,1.347c.122.077.23,0,.23-.168v-.811A.536.536,0,0,0,364.172,404.683Z" transform="translate(-306.248 -341.57)"/><path class="h" d="M364.172,404.283l-2.342-1.347c-.122-.077-.23,0-.23.168a.536.536,0,0,0,.23.429l2.342,1.347c.122.077.23,0,.23-.168a.536.536,0,0,0-.23-.429" transform="translate(-306.248 -341.231)"/><path class="ar" d="M364.172,404.283l-2.342-1.347c-.122-.077-.23,0-.23.168a.536.536,0,0,0,.23.429l2.342,1.347c.122.077.23,0,.23-.168A.536.536,0,0,0,364.172,404.283Z" transform="translate(-306.248 -341.231)"/><path class="h" d="M254.9,334h0l1.959-.245a4.638,4.638,0,0,0,1.929-.689l.26-.168a.4.4,0,0,0,.061-.612l-1.592-1.485-.964.643a3.444,3.444,0,0,0-1.179,1.378,7.1,7.1,0,0,0-.475,1.163" transform="translate(-215.881 -280.163)"/><path class="h" d="M355.015,286.457l-1.745.674a.964.964,0,0,1-.4.031l-2.572-.49a8.1,8.1,0,0,1,4.73-.214" transform="translate(-296.678 -242.371)"/><line class="d" x1="8.281" y1="4.699" transform="translate(59.255 69.711)"/><line class="as" x1="8.281" y1="4.699" transform="translate(59.255 69.711)"/><path class="d" d="M527.07,415.869l-11.45,6.613a.264.264,0,0,1-.26-.459l11.45-6.613a.264.264,0,0,1,.26.459" transform="translate(-436.357 -351.792)"/><path class="t" d="M254.4,368.229s1.209-4.638,6.031-1.561,2.985,6.261,7.24,8.19c3,1.362,7.991,2.388,11.695,3.7a32.022,32.022,0,0,0,7.026,1.577,4.452,4.452,0,0,1,3.919,2.832l.245,1.163a.9.9,0,0,0,1.133.689l.168-.046.934-.184s.49,3.674.6,3.628,12.032-6.643,13-8.312a6.027,6.027,0,0,0,.689-3.368.52.52,0,0,1,.138-.4l.811-.888.092.367a8.037,8.037,0,0,1,.2,3.092,4.683,4.683,0,0,1-2.067,3.643l-13.088,7.807a2.556,2.556,0,0,1-1.133.352,3.444,3.444,0,0,1-1.485-.23l-.077-.168a3.154,3.154,0,0,1-.214-.674,8.572,8.572,0,0,0-.964-2.572c-.964-1.684-2.817-4.194-5.159-3.949,0,0-1.944.122-1.515,3.46L263.34,375.21a8.48,8.48,0,0,0-4-6.919c-2.556-1.623-3.429.291-3.766,2.128a3.072,3.072,0,0,1-1.179-2.2" transform="translate(-215.458 -309.647)"/><path class="at" d="M254.4,368.229s1.209-4.638,6.031-1.561,2.985,6.261,7.24,8.19c3,1.362,7.991,2.388,11.695,3.7a32.021,32.021,0,0,0,7.026,1.577,4.452,4.452,0,0,1,3.919,2.832l.245,1.163a.9.9,0,0,0,1.133.689l.168-.046.934-.184s.49,3.674.6,3.628,12.032-6.643,13-8.312a6.026,6.026,0,0,0,.689-3.368.52.52,0,0,1,.138-.4l.811-.888.092.367a8.037,8.037,0,0,1,.2,3.092,4.683,4.683,0,0,1-2.067,3.643l-13.088,7.807a2.556,2.556,0,0,1-1.133.352,3.444,3.444,0,0,1-1.485-.23l-.077-.168a3.154,3.154,0,0,1-.214-.674,8.572,8.572,0,0,0-.964-2.572c-.964-1.684-2.817-4.194-5.159-3.949,0,0-1.944.122-1.515,3.46L263.34,375.21a8.48,8.48,0,0,0-4-6.919c-2.556-1.623-3.429.291-3.766,2.128A2.919,2.919,0,0,1,254.4,368.229Z" transform="translate(-215.458 -309.647)"/><path class="d" d="M509.842,445.753c-.551.138-.765-.031-.842-.306.2-.092,4.164-2.266,5.817-3.276s4.087-2.51,5.664-3.536,1.776-1.47,1.913-1.913a31.557,31.557,0,0,0,.168-3.322l.138.046a2.74,2.74,0,0,1,.26,1.148c0,.658-.168,2.48-.168,2.48a2.327,2.327,0,0,1-.995,1.515c-.9.643-5.189,3.46-7.792,4.96a28.218,28.218,0,0,1-4.164,2.22" transform="translate(-431.085 -367.057)"/><path class="au" d="M509.842,445.753c-.551.138-.765-.031-.842-.306.2-.092,4.164-2.266,5.817-3.276s4.087-2.51,5.664-3.536,1.776-1.47,1.913-1.913a31.557,31.557,0,0,0,.168-3.322l.138.046a2.74,2.74,0,0,1,.26,1.148c0,.658-.168,2.48-.168,2.48a2.327,2.327,0,0,1-.995,1.515c-.9.643-5.189,3.46-7.792,4.96A25.739,25.739,0,0,1,509.842,445.753Z" transform="translate(-431.085 -367.057)"/><path class="d" d="M596.908,474.194a1.619,1.619,0,0,1-.7,1.332c-.4.214-.7-.015-.7-.536a1.619,1.619,0,0,1,.7-1.332c.4-.214.7.015.7.536" transform="translate(-504.344 -401.085)"/><path class="av" d="M596.908,474.194a1.619,1.619,0,0,1-.7,1.332c-.4.214-.7-.015-.7-.536a1.619,1.619,0,0,1,.7-1.332C596.6,473.444,596.908,473.673,596.908,474.194Z" transform="translate(-504.344 -401.085)"/><path class="aw" d="M608.9,474.589a2.556,2.556,0,0,0-4.745-1.868,1.424,1.424,0,0,0-.184-.4v-.061a1.439,1.439,0,0,0-2.847-.291l-.276-.046a.9.9,0,1,0,.536,1.592,1.439,1.439,0,0,0,2.5.505,2.556,2.556,0,0,0,2.388,2.388,1.623,1.623,0,1,0,2.618-1.822" transform="translate(-508.064 -398.756)"/><path class="ax" d="M608.9,474.589a2.556,2.556,0,0,0-4.745-1.868,1.424,1.424,0,0,0-.184-.4v-.061a1.439,1.439,0,0,0-2.847-.291l-.276-.046a.9.9,0,1,0,.536,1.592,1.439,1.439,0,0,0,2.5.505,2.556,2.556,0,0,0,2.388,2.388,1.623,1.623,0,1,0,2.618-1.822Z" transform="translate(-508.064 -398.756)"/><path class="aw" d="M673.838,500.731a.918.918,0,1,1-.888-.934.919.919,0,0,1,.888.934" transform="translate(-569.134 -423.29)"/><path class="ay" d="M673.838,500.731a.918.918,0,1,1-.888-.934A.919.919,0,0,1,673.838,500.731Z" transform="translate(-569.134 -423.29)"/><path class="t" d="M439.492,402.923c0,1.133-.689,1.669-1.546,1.163a3.721,3.721,0,0,1-1.546-2.954,4.153,4.153,0,0,1,1.546-2.832,14.249,14.249,0,0,1,1.546,4.608" transform="translate(-369.598 -337.33)"/><path class="az" d="M439.492,402.923c0,1.133-.689,1.669-1.546,1.163a3.721,3.721,0,0,1-1.546-2.954,4.153,4.153,0,0,1,1.546-2.832A14.454,14.454,0,0,1,439.492,402.923Z" transform="translate(-369.598 -337.33)"/><path class="t" d="M417.078,420.536c0,.505-.306.735-.689.52a1.61,1.61,0,0,1-.689-1.3,1.856,1.856,0,0,1,.689-1.255,6.411,6.411,0,0,1,.689,2.036" transform="translate(-352.067 -354.438)"/><path class="ba" d="M417.078,420.536c0,.505-.306.735-.689.52a1.61,1.61,0,0,1-.689-1.3,1.856,1.856,0,0,1,.689-1.255A6.411,6.411,0,0,1,417.078,420.536Z" transform="translate(-352.067 -354.438)"/><path class="d" d="M268.561,361.645a9.707,9.707,0,0,1,6.414,5.4l-.26-.995a7.333,7.333,0,0,0-1.316-2.664,5.78,5.78,0,0,0-4-2.281,3.7,3.7,0,0,0-1.592.2,1.959,1.959,0,0,0-.612.352l-.2.168a1.24,1.24,0,0,1,.475-.153,3.337,3.337,0,0,1,1.1-.031" transform="translate(-226.129 -305.819)"/><path class="d" d="M267.114,364.8l-.214.168.49-.153" transform="translate(-226.044 -308.958)"/><path class="d" d="M332.921,376.913a1.637,1.637,0,0,1-.23.291.675.675,0,0,1-.7.23h0l-8.006-4.638-.077-.061V372.7a1.649,1.649,0,0,1-.077-.9Z" transform="translate(-274.232 -314.887)"/><path class="d" d="M383.274,348.167,365.227,337.5a.26.26,0,0,0-.26.444l17.895,10.547,1.424.842a4.292,4.292,0,0,0-1.026-1.163" transform="translate(-309.017 -285.819)"/><path class="d" d="M344.173,337.25s-.811-.475-3.873-.2a31.683,31.683,0,0,1,3.873-.383l.444.245Z" transform="translate(-288.208 -285.127)"/><path class="d" d="M438.917,400s-1.822,1.868-1.056,3.567A8.278,8.278,0,0,1,438.917,400" transform="translate(-370.676 -338.77)"/><path class="d" d="M646.733,480.466a.566.566,0,1,1-.566-.566.566.566,0,0,1,.566.566" transform="translate(-546.774 -406.439)"/><path class="d" d="M676.051,502.676a.276.276,0,1,1-.276-.276.275.275,0,0,1,.276.276" transform="translate(-572.098 -425.495)"/><path class="d" d="M618.174,475.837a.337.337,0,1,1-.337-.337.337.337,0,0,1,.337.337" transform="translate(-522.976 -402.713)"/><path class="d" d="M644.073,479.537a.337.337,0,1,1-.337-.337.337.337,0,0,1,.337.337" transform="translate(-544.911 -405.846)"/><g class="bb" transform="translate(69.42 51.311)"><g class="bc"><path class="h" d="M463.634,338.032c0,1.561-2.266,2.832-5.067,2.832s-5.067-1.271-5.067-2.832,2.266-2.832,5.067-2.832,5.067,1.271,5.067,2.832" transform="translate(-453.5 -335.2)"/></g></g><path class="h" d="M461.9,341.452c0,1.026-1.592,1.852-3.551,1.852s-3.551-.827-3.551-1.852,1.592-1.852,3.551-1.852,3.551.827,3.551,1.852" transform="translate(-385.181 -287.616)"/><path class="bd" d="M265.023,287.919s-2.771,1.179-4.21,2.021c-1.133.674-4.623,2.847-6.23,3.934a3.444,3.444,0,0,0-1.179,1.378,7.868,7.868,0,0,0-.765,2.51,10.6,10.6,0,0,0,.551,4.531,5.035,5.035,0,0,0,.873,1.041,2.259,2.259,0,0,1-.015-.321c0-2.327,1.745-3.138,4.056-1.669a8.31,8.31,0,0,1,3.643,6.291,3.327,3.327,0,0,1-.015.4l.475.276,18.813,10.715v-.153c-.184-2.48.888-4.056,3.75-2.388a8.666,8.666,0,0,1,3.888,6.429l1.072.505c.888.352,1.653-.352,3.6-1.332s9.338-5.633,10.868-6.6,2.158-1.822,2.311-2.541a32.941,32.941,0,0,0,.291-3.827,3.628,3.628,0,0,0-.566-1.546,10.58,10.58,0,0,1,0-1.255,20.211,20.211,0,0,0-.23-2.51l-.536-.536a16.908,16.908,0,0,0-.765-2.572l-.077-.214a6.077,6.077,0,0,0-2.908-3.215l-18.981-9.889a5.48,5.48,0,0,0-3.873-.459,14.405,14.405,0,0,0-2.311.811l-4.807-1.194a9.768,9.768,0,0,0-5.342.8Z" transform="translate(-213.927 -242.593)"/><path class="h" d="M333.542,355.111a4.272,4.272,0,0,0-.092.52c-.077.8-.291,2.771-.505,3.689-.122.536-.276.873-.52.827a1.867,1.867,0,0,1-.612-.23l-.995-.536-7.041-3.965a.521.521,0,0,1-.276-.444h0c0-.566.015-1.47.046-1.883s1.745-1.117,4.271-1.3a2.1,2.1,0,0,1,.536.046,15.625,15.625,0,0,1,4.623,2.266c.8.413.612.781.551,1.026" transform="translate(-273.98 -297.937)"/><line class="h" x2="18.583" y2="10.731" transform="translate(61.077 50.025)"/><path class="h" d="M416.014,336.657a.505.505,0,0,1-.459-.015L396.971,325.9c-.138-.077-.153-.2-.031-.26a.505.505,0,0,1,.459.015l18.583,10.731c.138.077.153.2.031.26" transform="translate(-336.108 -275.748)"/><line class="h" x2="18.583" y2="10.731" transform="translate(64.139 48.265)"/><path class="h" d="M436.014,325.141a.505.505,0,0,1-.459-.015L416.971,314.4c-.138-.077-.153-.2-.031-.26a.505.505,0,0,1,.459.015l18.583,10.731c.138.077.153.2.031.26" transform="translate(-353.047 -266.008)"/><line class="h" x2="18.583" y2="10.731" transform="translate(67.047 46.596)"/><path class="h" d="M455.014,314.241a.505.505,0,0,1-.459-.015L435.971,303.5c-.138-.077-.153-.2-.031-.26a.505.505,0,0,1,.459.015l18.583,10.731c.138.077.153.2.031.26" transform="translate(-369.138 -256.777)"/><path class="d" d="M444.1,311.2l1.7,5.863,1.332,1.255,1.454.153,1.5-.122,2.021-.949.367-.949,1.393-4.929-1.072.153-1.684.719-2.189.444-2.373-.321Z" transform="translate(-376.119 -263.563)"/><path class="be" d="M450.335,274.841c.107,2.143-2.3,4.026-5.373,4.179s-5.664-1.439-5.786-3.6,2.3-4.026,5.373-4.179S450.227,272.7,450.335,274.841Z" transform="translate(-371.945 -229.715)"/><path class="bf" d="M461.7,345.5a3.957,3.957,0,0,1-6.7.352" transform="translate(-385.351 -292.612)"/><line class="bg" x2="1.944" y2="6.046" transform="translate(67.721 47.193)"/><line class="bg" y1="6.812" x2="1.929" transform="translate(76.354 46.076)"/><path class="bh" d="M447,305.835s1.209,4.577,4.715,4.393,3.858-5.128,3.858-5.128" transform="translate(-378.575 -258.397)"/><path class="bi" d="M464.7,335.1a4.118,4.118,0,0,0,2.021.4,4.761,4.761,0,0,0,1.378-.276" transform="translate(-393.566 -283.804)"/><path class="bj" d="M439.48,251.478l1.791-1.99.6-.536-.184-.429,1.408-1.408,1.087-.26.934-.092,1.393-.781,1.362-.184,1.163.214.949.337.383.168.75-.689.719-.077.7-.153,1.209.321.475,1.209-.046.949-.168.7.551.643.413,1.163-.505.811-.827.643-.061.811-.291,1.072-1.087.046a3.015,3.015,0,0,0-.337.551,6.24,6.24,0,0,1-.321.628l-.689.4-1.332-.153h-.23l-.949.719-.964.429-1.24.49-1.531.276-2.189-.138a18.133,18.133,0,0,1-2.908-1.684,5.406,5.406,0,0,1-1.01-2.2l.291-.9Z" transform="translate(-371.376 -208.005)"/><path class="bk" d="M457.453,281.229l-.168.429-1.515,1.225-.383.582a3.827,3.827,0,0,1-1.087-.352,8.659,8.659,0,0,1,3.138-2.311Z" transform="translate(-384.758 -237.816)"/><path class="bl" d="M413.046,277.431,413,277.4h.046Z" transform="translate(-349.78 -234.937)"/><path class="bm" d="M454.557,250.776a1.5,1.5,0,0,1-.964.689,1.883,1.883,0,0,1,.061.49,1.638,1.638,0,0,1-1.546,1.73l-.26-.031a1.454,1.454,0,0,1-2.1,1.271,2.5,2.5,0,0,0-1.546.612h0a6.857,6.857,0,0,1-4.133,1.3c-3.184,0-5.771-1.929-5.771-4.3,0-1.745,1.393-3.245,3.4-3.919a1.76,1.76,0,0,1,.107-.995c.413-.98,1.714-1.408,3.107-1.117a3.737,3.737,0,0,1,2.985-1.255,4.194,4.194,0,0,1,2.357.674,3.032,3.032,0,0,1,.337-.306,2.306,2.306,0,0,1,3.245.138,1.979,1.979,0,0,1-.138,2.6A1.867,1.867,0,0,1,454.557,250.776Z" transform="translate(-371.207 -207.517)"/><path class="bn" d="M422.36,262.4a8.285,8.285,0,0,0-3.138,2.311,2.71,2.71,0,0,1-.566-.352h-.015a2.642,2.642,0,0,0-2.388-1.316c-.291.015-.566-.077-.857-.061a2.77,2.77,0,0,1-2.449-1.041h0l-.046-.26.077-1.1.964-.765.888-.475a4.626,4.626,0,0,1,1.791-.214,2.843,2.843,0,0,1,2.3,1.623l.23.321.658.107.551-.061.719.122.689.383.6.52Z" transform="translate(-349.695 -219.431)"/><path class="bk" d="M420.7,280.379l-.184.536-.765.475-.857-.168-1.117-1.209-.658-.459-1.362.168-1.225-.031-.735-.352-.367-.321-.23-1.316a3.252,3.252,0,0,0,2.449,1.041c.291,0,.735-.077,1.026-.092a2.847,2.847,0,0,1,2.5,1.148l.413.214c.23.2.321.26,1.087.383" transform="translate(-349.949 -235.191)"/><path class="bo" d="M458.6,286.337A4.536,4.536,0,0,1,462.611,283" transform="translate(-388.4 -239.68)"/><path class="h" d="M419.3,263.091c-.735.26-1.3-.52-1.776-.949a3.073,3.073,0,0,0-1.99-.689,9.82,9.82,0,0,1-2.419.015c-.8-.2-1.209-.582-1.209-1.255-.031-1.347,1.546-1.929,2.633-2.143a2.878,2.878,0,0,1,1.868.291,2.419,2.419,0,0,1,1.194,1.347.551.551,0,0,0,.321.367,1.011,1.011,0,0,0,.52,0,3.918,3.918,0,0,1,1.271-.031c.719.122,1.531.719,1.362,1.546-.046.26.352.367.4.107a1.718,1.718,0,0,0-.9-1.776,2.6,2.6,0,0,0-1.133-.321,7.565,7.565,0,0,0-1.225.092c-.122.015-.153.015-.214-.107a1.753,1.753,0,0,1-.092-.23,2.419,2.419,0,0,0-.245-.444,2.893,2.893,0,0,0-.719-.719,3.383,3.383,0,0,0-1.99-.6,5.327,5.327,0,0,0-1.776.444,2.676,2.676,0,0,0-1.577,1.5,1.653,1.653,0,0,0,.536,1.9,3.231,3.231,0,0,0,2.281.475c.781-.061,1.99-.23,2.755.459s1.286,1.424,2.22,1.1c.245-.092.138-.49-.107-.4" transform="translate(-348.502 -218.164)"/><path class="h" d="M411.431,274.844a3.765,3.765,0,0,0,.26,1.546,1.948,1.948,0,0,0,1.561.888,6.062,6.062,0,0,0,2.3-.092c.23-.046.321.122.444.276l.429.49a3.521,3.521,0,0,0,.765.719,2.082,2.082,0,0,0,.995.337,1.163,1.163,0,0,0,.9-.413c.184-.2-.107-.49-.291-.291a.765.765,0,0,1-.689.291,1.806,1.806,0,0,1-.811-.352,4.547,4.547,0,0,1-.7-.735l-.337-.383a1.148,1.148,0,0,0-.367-.337c-.291-.138-.674.046-.98.092a5.05,5.05,0,0,1-1.056.046,4.592,4.592,0,0,1-1.041-.184,1.172,1.172,0,0,1-.7-.429,3.926,3.926,0,0,1-.291-1.485.214.214,0,0,0-.413,0" transform="translate(-348.425 -232.625)"/></g><g class="c"><g class="f" transform="translate(19.67 39.432)"><g class="bp"><path d="M140.528,259.222c2.618,1.515,2.6,3.965-.031,5.5a10.459,10.459,0,0,1-9.506.015c-2.618-1.515-2.6-3.965.031-5.5a10.459,10.459,0,0,1,9.506-.015" transform="translate(-128.955 -258.013)"/><path class="bq" d="M140.528,259.222c2.618,1.515,2.6,3.965-.031,5.5a10.459,10.459,0,0,1-9.506.015c-2.618-1.515-2.6-3.965.031-5.5A10.459,10.459,0,0,1,140.528,259.222Z" transform="translate(-128.955 -258.013)"/></g></g><path class="d" d="M184.375,53.076,183.9,52.8a3.751,3.751,0,0,1,.475.276" transform="translate(-155.749 -44.718)"/><path class="br" d="M184.375,53.076,183.9,52.8A3.751,3.751,0,0,1,184.375,53.076Z" transform="translate(-155.749 -44.718)"/><path class="d" d="M112.85,58.263c0,5.3-3.75,16.241-8.358,24.416L100.558,80.4h-.015C96.119,77.872,92.2,70.922,92.2,65.626s3.75-11.726,8.358-14.389c2.189-1.271,4.194-1.454,5.679-.719l.475.276,3.444,1.99h0c1.653.8,2.679,2.709,2.679,5.5" transform="translate(-78.086 -42.42)"/><path class="e" d="M112.85,58.263c0,5.3-3.75,16.241-8.358,24.416L100.558,80.4h-.015C96.119,77.872,92.2,70.922,92.2,65.626s3.75-11.726,8.358-14.389c2.189-1.271,4.194-1.454,5.679-.719l.475.276,3.444,1.99h0C111.824,53.579,112.85,55.492,112.85,58.263Z" transform="translate(-78.086 -42.42)"/><path class="d" d="M109.756,52.768h0a4.378,4.378,0,0,0-2.051-.413,7.676,7.676,0,0,0-3.613,1.148c-4.608,2.664-8.358,9.123-8.358,14.4,0,3.812,2.036,8.5,4.837,11.741a13.673,13.673,0,0,0,3.521,3.031L100.158,80.4h-.015C95.719,77.872,91.8,70.922,91.8,65.626s3.735-11.726,8.358-14.389c2.189-1.271,4.194-1.454,5.679-.719l.475.276Z" transform="translate(-77.748 -42.42)"/><path class="bs" d="M109.756,52.768h0a4.378,4.378,0,0,0-2.051-.413,7.676,7.676,0,0,0-3.613,1.148c-4.608,2.664-8.358,9.123-8.358,14.4,0,3.812,2.036,8.5,4.837,11.741a13.673,13.673,0,0,0,3.521,3.031L100.158,80.4h-.015C95.719,77.872,91.8,70.922,91.8,65.626s3.735-11.726,8.358-14.389c2.189-1.271,4.194-1.454,5.679-.719l.475.276Z" transform="translate(-77.748 -42.42)"/><path class="d" d="M183.975,53.076,183.5,52.8a3.642,3.642,0,0,1,.475.276" transform="translate(-155.411 -44.718)"/><path class="bt" d="M183.975,53.076,183.5,52.8A3.642,3.642,0,0,1,183.975,53.076Z" transform="translate(-155.411 -44.718)"/><path class="t" d="M131.522,65.391a4.378,4.378,0,0,0-2.051-.413,7.676,7.676,0,0,0-3.613,1.148c-4.608,2.664-8.358,9.123-8.358,14.4,0,3.812,2.036,8.5,4.837,11.741a13.673,13.673,0,0,0,3.521,3.031c4.608-8.174,8.358-19.119,8.358-24.416,0-2.786-1.026-4.7-2.679-5.5m-5.664,6.49.4-.2c1.653-.735,2.939.138,2.939,2.1a7.561,7.561,0,0,1-3.322,5.74c-1.837,1.056-3,.367-3.276-1.255a3.7,3.7,0,0,1-.046-.643,7.292,7.292,0,0,1,3.337-5.74" transform="translate(-99.514 -55.028)"/><path class="bu" d="M131.522,65.391a4.378,4.378,0,0,0-2.051-.413,7.676,7.676,0,0,0-3.613,1.148c-4.608,2.664-8.358,9.123-8.358,14.4,0,3.812,2.036,8.5,4.837,11.741a13.673,13.673,0,0,0,3.521,3.031c4.608-8.174,8.358-19.119,8.358-24.416C134.216,68.086,133.175,66.187,131.522,65.391Zm-5.664,6.49.4-.2c1.653-.735,2.939.138,2.939,2.1a7.561,7.561,0,0,1-3.322,5.74c-1.837,1.056-3,.367-3.276-1.255a3.7,3.7,0,0,1-.046-.643A7.22,7.22,0,0,1,125.858,71.882Z" transform="translate(-99.514 -55.028)"/><path class="d" d="M157.041,109.467a7.317,7.317,0,0,1-3.322,5.74c-1.837,1.056-3,.367-3.276-1.255a3.7,3.7,0,0,1-.046-.643,7.292,7.292,0,0,1,3.337-5.74l.4-.2c1.653-.735,2.939.138,2.939,2.1" transform="translate(-127.375 -90.715)"/><path class="bv" d="M157.041,109.467a7.317,7.317,0,0,1-3.322,5.74c-1.837,1.056-3,.367-3.276-1.255a3.7,3.7,0,0,1-.046-.643,7.292,7.292,0,0,1,3.337-5.74l.4-.2C155.77,106.635,157.041,107.508,157.041,109.467Z" transform="translate(-127.375 -90.715)"/><path class="s" d="M157.3,109.467a7.317,7.317,0,0,1-3.322,5.74c-1.837,1.056-3,.367-3.276-1.255l.4-.2a7.333,7.333,0,0,0,3.337-5.74,3.7,3.7,0,0,0-.046-.643c1.653-.735,2.939.138,2.939,2.1" transform="translate(-127.632 -90.715)"/><path class="bw" d="M157.3,109.467a7.317,7.317,0,0,1-3.322,5.74c-1.837,1.056-3,.367-3.276-1.255l.4-.2a7.333,7.333,0,0,0,3.337-5.74,3.7,3.7,0,0,0-.046-.643C156.027,106.635,157.3,107.508,157.3,109.467Z" transform="translate(-127.632 -90.715)"/></g></g></g></g></svg>