<svg xmlns="http://www.w3.org/2000/svg" width="100" height="100"><defs><clipPath id="a"><path data-name="사각형 211592" fill="none" d="M0 0h100v100H0z"/></clipPath><clipPath id="b"><path data-name="사각형 211587" fill="none" d="M0 0h17.375v10.029H0z"/></clipPath><clipPath id="c"><path data-name="사각형 211588" fill="none" d="M0 0h43.042v34.652H0z"/></clipPath><clipPath id="d"><path data-name="사각형 211589" fill="none" d="M0 0h20.875v11.771H0z"/></clipPath><clipPath id="e"><path data-name="사각형 211590" fill="none" d="M0 0h9.688v6.137H0z"/></clipPath></defs><g data-name="null_100x100"><g data-name="Layer 1"><g data-name="그룹 255905" clip-path="url(#a)"><g data-name="그룹 255895" clip-path="url(#a)"><path data-name="패스 563364" d="M50 0A50 50 0 110 50 50.013 50.013 0 0150 0" fill="#f9f9f9"/><path data-name="패스 563365" d="M50 100a50 50 0 1150-50 50.066 50.066 0 01-50 50m0-99a49 49 0 1049 49A49.053 49.053 0 0050 1" fill="#f0f0f0"/></g><g data-name="그룹 255904" clip-path="url(#a)"><g data-name="그룹 255897"><g data-name="그룹 255896" clip-path="url(#b)" transform="translate(44.229 70.104)" opacity=".15"><path data-name="패스 563366" d="M16.5 9.542a5.505 5.505 0 01-4.958-.208L1.185 3.355C-.273 2.501-.44 1.23.831.501a5.505 5.505 0 014.958.208l10.354 5.979c1.458.854 1.625 2.125.354 2.854" fill="#222"/></g></g><g data-name="그룹 255899"><g data-name="그룹 255898" clip-path="url(#c)" transform="translate(43.708 42.188)" opacity=".15"><path data-name="패스 563367" d="M26.229 0l16.438 8.9a.729.729 0 01.021 1.271L0 34.671"/></g></g><path data-name="패스 563368" d="M79.333 44.938l4.188 2.1a.958.958 0 01.333 1.479c-11.6 12.792-25.1 20.625-40.146 28.563l-9.583-5.521-9.354-5.4-9.584-5.534 8.021-3.042" fill="#fff"/><path data-name="패스 563369" d="M79.333 44.938l4.188 2.1a.958.958 0 01.333 1.479c-11.6 12.792-25.1 20.625-40.146 28.563l-9.583-5.521-9.354-5.4-9.584-5.534 8.021-3.042" fill="none" stroke="#222" stroke-linejoin="round" stroke-width=".833"/><path data-name="패스 563370" d="M73.287 37.65l.875.5 8.354 4.833a1.354 1.354 0 01.458 1.9c-9.854 15.313-24.271 23.1-39.271 31.021l-9.583-5.521-9.354-5.4-9.579-5.525c18.625-6.9 33.333-16.646 40.042-32.208l9.583 5.521.458.271z" fill="#fff"/><path data-name="패스 563371" d="M73.287 37.65l.875.5 8.354 4.833a1.354 1.354 0 01.458 1.9c-9.854 15.313-24.271 23.1-39.271 31.021l-9.583-5.521-9.354-5.4-9.579-5.525c18.625-6.9 33.333-16.646 40.042-32.208l9.583 5.521.458.271z" fill="none" stroke="#222" stroke-linejoin="round" stroke-width=".833"/><g data-name="그룹 255901"><g data-name="그룹 255900" clip-path="url(#d)" transform="translate(31.458 62.063)" opacity=".15"><path data-name="패스 563372" d="M20.021 11.292a5.505 5.505 0 01-4.958-.208L1.206 3.355C-.252 2.501-.419 1.23.852.501A5.505 5.505 0 015.81.709l13.854 7.729c1.458.854 1.625 2.125.354 2.854" fill="#222"/></g></g><path data-name="패스 563373" d="M60.625 75.437L34.916 60.583l-3.458.167 1.646 3.1 25.708 14.833" fill="#fff"/><path data-name="패스 563374" d="M60.625 75.437L34.916 60.583l-3.458.167 1.646 3.1 25.708 14.833" fill="none" stroke="#222" stroke-linejoin="round" stroke-width=".833"/><path data-name="선 77271" fill="#fff" d="M54.917 74.292L33.75 62.063"/><path data-name="선 77272" fill="none" stroke="#222" stroke-linejoin="round" stroke-width=".833" d="M54.917 74.292L33.75 62.063"/><path data-name="패스 563375" d="M61 76.27a2.917 2.917 0 01-1.312 2.271c-.729.417-1.312.083-1.312-.75a2.917 2.917 0 011.313-2.271c.729-.417 1.313-.083 1.313.75" fill="#222"/><path data-name="패스 563376" d="M61 76.27a2.917 2.917 0 01-1.312 2.271c-.729.417-1.312.083-1.312-.75a2.917 2.917 0 011.313-2.271c.728-.418 1.311-.083 1.311.75z" fill="none" stroke="#222" stroke-linejoin="round" stroke-width=".833"/><path data-name="패스 563377" d="M35.687 61.042a.917.917 0 00-.937.083 2.917 2.917 0 00-1.312 2.292.9.9 0 00.4.854" fill="none" stroke="#222" stroke-linejoin="round" stroke-width=".833"/><path data-name="패스 563378" d="M56.792 73.229a.917.917 0 00-.937.083 2.917 2.917 0 00-1.333 2.292.9.9 0 00.4.854" fill="none" stroke="#222" stroke-linejoin="round" stroke-width=".833"/><path data-name="패스 563379" d="M32.896 60.729a.375.375 0 00-.375.042 1.146 1.146 0 00-.521.9.354.354 0 00.167.333" fill="none" stroke="#222" stroke-linejoin="round" stroke-width=".833"/><path data-name="패스 563380" d="M60.858 33.479v-3.042c0-5.729-4.9-10.375-10.958-10.375a10.654 10.654 0 00-10.942 10.375v3.042" fill="#fff"/><path data-name="패스 563381" d="M60.858 33.479v-3.042c0-5.729-4.9-10.375-10.958-10.375a10.654 10.654 0 00-10.942 10.375v3.042" fill="none" stroke="#000001" stroke-linejoin="round" stroke-width=".833"/><path data-name="패스 563382" d="M60.858 32.813c0 5.729-4.9 10.375-10.958 10.375a10.654 10.654 0 01-10.942-10.375c0-5.729 4.9-10.375 10.958-10.375s10.958 4.646 10.958 10.375" fill="#45d49a"/><path data-name="패스 563383" d="M60.858 32.813c0 5.729-4.9 10.375-10.958 10.375a10.654 10.654 0 01-10.942-10.375c0-5.729 4.9-10.375 10.958-10.375a10.654 10.654 0 0110.942 10.375z" fill="none" stroke="#000001" stroke-linejoin="round" stroke-width=".833"/><path data-name="패스 563384" d="M46.958 32.917l2.563 2.5 5.229-5.229" fill="none" stroke="#fff" stroke-linecap="round" stroke-linejoin="round" stroke-width="1.667"/><path data-name="선 77273" fill="none" stroke="#fff" stroke-linecap="square" stroke-linejoin="round" stroke-width="1.667" d="M46.229 32.208l.729.708"/><path data-name="패스 563385" d="M56.067 59.687l3.313 1.917-6.213 3.583-4.5-2.6" fill="none" stroke="#222" stroke-linejoin="bevel" stroke-width=".833"/><path data-name="패스 563386" d="M50.354 59.583L53.125 58l2.938 1.688" fill="none" stroke="#222" stroke-linecap="round" stroke-linejoin="bevel" stroke-width=".833"/><path data-name="패스 563387" d="M53.375 62.812l-.062-1.75-6.792-.229" fill="none" stroke="#222" stroke-linecap="round" stroke-linejoin="round" stroke-width="1.042"/><path data-name="선 77274" fill="none" stroke="#222" stroke-linecap="square" stroke-linejoin="round" stroke-width="1.042" d="M53.375 62.938v-.125"/><path data-name="패스 563388" d="M64.604 53.729l3.4 1.771-6.042 3.854-4.625-2.4" fill="none" stroke="#222" stroke-miterlimit="10" stroke-width=".833"/><path data-name="패스 563389" d="M58.896 53.896l2.708-1.729 3 1.563" fill="none" stroke="#222" stroke-linecap="round" stroke-miterlimit="10" stroke-width=".833"/><path data-name="패스 563390" d="M62.042 56.979l-.125-1.771-6.792.083" fill="none" stroke="#222" stroke-linecap="round" stroke-linejoin="round" stroke-width="1.042"/><path data-name="선 77275" fill="none" stroke="#222" stroke-linecap="square" stroke-linejoin="round" stroke-width="1.042" d="M62.063 57.104l-.021-.125"/><g data-name="그룹 255903"><g data-name="그룹 255902" clip-path="url(#e)" transform="translate(45.813 44.083)" opacity=".2"><path data-name="패스 563391" d="M9.604 1.354c.5 1.4-1.208 3.313-3.833 4.25S.604 6.187.104 4.771 1.312 1.459 3.937.521s5.167-.583 5.667.833"/></g></g></g></g></g></g></svg>