<svg xmlns="http://www.w3.org/2000/svg" width="20" height="20"><defs><clipPath id="a"><path fill="#d5d5d5" d="M0 0h20v20H0z"/></clipPath><clipPath id="b"><path fill="none" d="M0 0h20v20H0z"/></clipPath><style>.e,.f,.g{fill:none}.e,.f{stroke:#111}.e,.f,.g{stroke-miterlimit:10;stroke-width:1.5px}.f{stroke-linecap:round}.g{stroke:#000001}</style></defs><g clip-path="url(#a)"><g clip-path="url(#b)"><ellipse class="e" cx="6" cy="2.3" rx="6" ry="2.3" transform="translate(1 1.9)"/><path class="f" d="M4.8 10.1C2.6 9.7 1 8.9 1 7.9M4.8 14C2.6 13.7 1 12.8 1 11.8M7 18.2c-3.3 0-6-1-6-2.3M13 7.6V4.5"/><path class="g" d="M13 12.5V12M13 12.5V12"/><path d="M19.2 12A6.2 6.2 0 1113 5.8a6.2 6.2 0 016.2 6.2" fill="#fff"/><circle class="e" cx="6.2" cy="6.2" r="6.2" transform="translate(6.8 5.8)"/><path class="f" d="M1 4.2v11.7"/></g><text transform="translate(9.9 14.8)" fill="#111" font-size="6.61" font-family="MoebiusKorea-Bold,Moebius Korea" font-weight="700"><tspan x="0" y="0">\</tspan></text></g></svg>