<svg xmlns="http://www.w3.org/2000/svg" width="24" height="24"><defs><style>.b{fill:#ffc20e}</style></defs><g transform="translate(-222 -636)"><circle cx="12" cy="12" r="12" transform="translate(222 636)" fill="#34b458"/><path class="b" d="M236.348 641.288l-2.45 1.23-2.448-1.23 2.448 4.657z"/><path class="b" d="M237.375 644.887l-.039-.033 1.839-.735v-2.457l-3.194 1.295s-1.731 3.116-1.769 3.188a2.6 2.6 0 012.372 2.535 2.689 2.689 0 01-5.372 0 2.6 2.6 0 012.372-2.535l-1.767-3.187-3.191-1.295v2.457l1.836.735-.04.033a4.939 4.939 0 00-1.812 3.793 5.295 5.295 0 0010.576 0 4.942 4.942 0 00-1.811-3.794z"/></g></svg>