<svg xmlns="http://www.w3.org/2000/svg" width="100" height="100"><defs><clipPath id="clip-path"><path id="사각형_252973" data-name="사각형 252973" class="cls-1" d="M0 0h100v100H0z"/></clipPath><clipPath id="clip-path-4"><path id="사각형_252969" data-name="사각형 252969" class="cls-1" d="M0 0h59.063v36.731H0z"/></clipPath><clipPath id="clip-path-6"><path id="사각형_252971" data-name="사각형 252971" class="cls-1" d="M0 0h10.104v5.412H0z"/></clipPath><style>.cls-1,.cls-14,.cls-15,.cls-21,.cls-23{fill:none}.cls-2{clip-path:url(#clip-path)}.cls-8{fill:#222}.cls-9{fill:#fff}.cls-10{fill:#ddd}.cls-14,.cls-15{stroke:#222}.cls-21,.cls-23{stroke-linejoin:round}.cls-21{stroke-width:.833px}.cls-14,.cls-15{stroke-miterlimit:10;stroke-width:.625px}.cls-23{stroke-linecap:round;stroke:#fff}.cls-20{fill:#ea002c}.cls-21{stroke:#000001}.cls-23{stroke-width:1.667px}</style></defs><g id="그룹_334521" data-name="그룹 334521" class="cls-2"><g id="그룹_334514" data-name="그룹 334514" class="cls-2"><path id="패스_673498" data-name="패스 673498" d="M50 0A50 50 0 110 50 50.013 50.013 0 0150 0" fill="#f9f9f9"/><path id="패스_673499" data-name="패스 673499" d="M50 100a50 50 0 1150-50 50.066 50.066 0 01-50 50m0-99a49 49 0 1049 49A49.053 49.053 0 0050 1" fill="#f0f0f0"/></g><g id="그룹_334517" data-name="그룹 334517" class="cls-2"><path id="패스_673500" data-name="패스 673500" d="M299.408 190.1a38.934 38.934 0 003.917 1.563c.667.1 1.292 0 1.188-.458s-3.312-2.875-4.792-3.812a60.237 60.237 0 00-6.75-3.729 18.406 18.406 0 00-3.271-1.064s2.938 1.438 4.583 2.479a26.558 26.558 0 014.688 3.729 5.084 5.084 0 01.458 1.292" transform="translate(-229.346 -144.558)" fill="#141c1e"/><g id="그룹_334516" data-name="그룹 334516" transform="translate(20.667 44.854)" style="mix-blend-mode:multiply;isolation:isolate" opacity=".15"><g id="그룹_334515" data-name="그룹 334515" clip-path="url(#clip-path-4)"><path id="패스_673501" data-name="패스 673501" d="M157.16 225.658c-5.771-3.542-18.1-10.458-18.1-10.458l-39.191 23.417s-3.187 4.708 4.667 9.125c11.375 6.375 15.563 3.625 15.563 3.625L156.14 230.6s4.063-3.042 1.021-4.917" transform="translate(-99.223 -215.221)"/></g></g><path id="패스_673502" data-name="패스 673502" d="M222.063 337.321l-.792.792-.6.375L218 334.3l3.563.042z" transform="translate(-172.583 -264.654)"/><path id="패스_673503" data-name="패스 673503" class="cls-8" d="M195.779 333.259l-2.6-1.5a2.462 2.462 0 00-2.437.25 7.639 7.639 0 00-3.437 5.979 2.408 2.408 0 001.021 2.229l2.6 1.5a2.421 2.421 0 002.417-.25 7.638 7.638 0 003.438-5.979 2.408 2.408 0 00-1.021-2.229" transform="translate(-148.279 -262.468)"/><path id="패스_673504" data-name="패스 673504" class="cls-8" d="M206.775 341.189a7.638 7.638 0 01-3.437 5.979 2.423 2.423 0 01-2.417.25 2.452 2.452 0 01-1.021-2.229 7.639 7.639 0 013.438-5.979 2.46 2.46 0 012.438-.25 2.408 2.408 0 011.021 2.229" transform="translate(-158.254 -268.168)"/><path id="패스_673505" data-name="패스 673505" class="cls-8" d="M208.075 342.695a7.034 7.034 0 01-3.187 5.521 1.943 1.943 0 01-3.187-1.854 7.034 7.034 0 013.188-5.521 2.254 2.254 0 012.25-.229 2.221 2.221 0 01.938 2.063" transform="translate(-159.679 -269.486)"/><path id="패스_673506" data-name="패스 673506" class="cls-9" d="M210.824 347.681a5.083 5.083 0 01-2.312 4.021 1.448 1.448 0 01-2.312-1.354 5.083 5.083 0 012.313-4.021 1.448 1.448 0 012.313 1.354" transform="translate(-163.241 -273.952)"/><path id="패스_673507" data-name="패스 673507" class="cls-9" d="M211.216 348.582a4.854 4.854 0 01-2.208 3.833 1.383 1.383 0 01-2.208-1.292 4.854 4.854 0 012.208-3.833 1.383 1.383 0 012.208 1.292" transform="translate(-163.716 -274.728)"/><path id="패스_673508" data-name="패스 673508" class="cls-10" d="M212.479 347a1.377 1.377 0 011.021 1.5 4.792 4.792 0 01-2.167 3.771 1.521 1.521 0 01-1.333.188 1.482 1.482 0 001.542-.083 4.854 4.854 0 002.208-3.812 1.369 1.369 0 00-1.271-1.542" transform="translate(-166.25 -274.708)"/><path id="패스_673509" data-name="패스 673509" d="M33.062 51.87c-1.229 1.146-3.208 2.875-3.208 2.875l-3.729 2.583a9.9 9.9 0 00-3.646 4.342 18.1 18.1 0 00-1.667 3.208 12.458 12.458 0 00.25 3.479c-.021.1-.458 1.542 1.188 3.271s5.667 4.021 7.042 4.854 4.5 2.479 7.167 2.6a7.2 7.2 0 003.854-.687v-.042c.521-2.6 1.583-6.083 4.958-7.937 2.271-1.25 4.438-.458 3.438 2.958v.1l20.146-11.9c.438-2.479 2.375-6 4.583-7.271s3.792-.521 3.521 2.521a5.1 5.1 0 00.938-1.479 2.792 2.792 0 00.042-1.771 7.459 7.459 0 000-1.771 6.972 6.972 0 00-.958-1.937 18.344 18.344 0 00-1.021-2.521c-.417-.688-2.083-2.083-5.583-4.4a44.528 44.528 0 00-8.521-4.417 10.73 10.73 0 00-2.375-.479 5.231 5.231 0 00-1.75-.6 1.708 1.708 0 00-1.062.292 58.678 58.678 0 00-7.062 2.771 95.718 95.718 0 00-8.562 4.979c-1.458 1-4.312 3.229-6 4.625h0z" stroke-width=".625" stroke-linejoin="round" stroke="#222" fill="none"/><path id="패스_673510" data-name="패스 673510" d="M358.063 258.821l-.792.813-.6.354L354 255.8l3.563.063z" transform="translate(-280.25 -202.508)"/><path id="패스_673511" data-name="패스 673511" class="cls-8" d="M331.779 254.759l-2.6-1.5a2.462 2.462 0 00-2.437.25 7.638 7.638 0 00-3.437 5.979 2.408 2.408 0 001.021 2.229l2.6 1.5a2.421 2.421 0 002.417-.25 7.638 7.638 0 003.438-5.979 2.408 2.408 0 00-1.021-2.229" transform="translate(-255.946 -200.322)"/><path id="패스_673512" data-name="패스 673512" class="cls-8" d="M342.775 262.789a7.671 7.671 0 01-3.437 5.979 2.423 2.423 0 01-2.417.25 2.452 2.452 0 01-1.021-2.229 7.638 7.638 0 013.438-5.979 2.46 2.46 0 012.438-.25 2.408 2.408 0 011.021 2.229" transform="translate(-265.921 -206.101)"/><path id="패스_673513" data-name="패스 673513" class="cls-8" d="M344.075 264.195a7.034 7.034 0 01-3.187 5.521 1.943 1.943 0 01-3.187-1.854 7.034 7.034 0 013.188-5.521 2.254 2.254 0 012.25-.229 2.221 2.221 0 01.938 2.063" transform="translate(-267.346 -207.341)"/><path id="패스_673514" data-name="패스 673514" class="cls-9" d="M346.824 269.281a5.083 5.083 0 01-2.312 4.021 1.448 1.448 0 01-2.312-1.354 5.083 5.083 0 012.313-4.021 1.448 1.448 0 012.313 1.354" transform="translate(-270.907 -211.885)"/><path id="패스_673515" data-name="패스 673515" class="cls-9" d="M347.216 270.082a4.854 4.854 0 01-2.208 3.833 1.383 1.383 0 01-2.208-1.292 4.854 4.854 0 012.208-3.833 1.383 1.383 0 012.208 1.292" transform="translate(-271.382 -212.582)"/><path id="패스_673516" data-name="패스 673516" class="cls-10" d="M348.479 268.6a1.377 1.377 0 011.021 1.5 4.792 4.792 0 01-2.167 3.771 1.521 1.521 0 01-1.333.188 1.482 1.482 0 001.542-.083 4.854 4.854 0 002.208-3.833 1.369 1.369 0 00-1.271-1.542" transform="translate(-273.917 -212.642)"/><path id="패스_673517" data-name="패스 673517" class="cls-9" d="M160.368 236.531a1.98 1.98 0 00-.271-.9 1.2 1.2 0 00-1.25 0 1.485 1.485 0 00-.5 1.4 9.113 9.113 0 01.063 1.229" transform="translate(-125.347 -186.406)"/><path id="패스_673518" data-name="패스 673518" d="M35.021 50.125a1.98 1.98 0 00-.271-.9 1.2 1.2 0 00-1.25 0 1.485 1.485 0 00-.5 1.4 9.113 9.113 0 01.063 1.229" stroke-width=".625" stroke-linejoin="round" stroke="#222" fill="none"/><path id="패스_673519" data-name="패스 673519" class="cls-9" d="M111.761 194.146c-1.229 1.146-3.208 2.875-3.208 2.875l-3.729 2.583a9.9 9.9 0 00-3.646 4.333 18.105 18.105 0 00-1.667 3.208 12.459 12.459 0 00.25 3.479c-.021.1-.458 1.542 1.188 3.271s5.667 4.021 7.042 4.854 4.5 2.479 7.146 2.583a7.2 7.2 0 003.854-.687v-.045c.521-2.6 1.583-6.083 4.958-7.937 2.271-1.25 4.438-.458 3.438 2.958v.1l20.146-11.9c.438-2.479 2.375-6 4.583-7.271s3.792-.521 3.521 2.521a5.1 5.1 0 00.938-1.479 2.792 2.792 0 00.042-1.771 7.458 7.458 0 000-1.771 6.972 6.972 0 00-.958-1.937 18.346 18.346 0 00-1.021-2.521c-.417-.687-2.083-2.083-5.583-4.4a45.632 45.632 0 00-8.521-4.437 10.729 10.729 0 00-2.375-.479 5.231 5.231 0 00-1.75-.6 1.708 1.708 0 00-1.062.292 58.676 58.676 0 00-7.062 2.771 96.27 96.27 0 00-8.583 4.979c-1.458 1-4.312 3.229-6 4.625z" transform="translate(-78.72 -142.251)"/><path id="패스_673520" data-name="패스 673520" d="M33.041 51.895c-1.229 1.146-3.208 2.875-3.208 2.875l-3.729 2.583a9.9 9.9 0 00-3.646 4.333 18.105 18.105 0 00-1.667 3.208 12.459 12.459 0 00.25 3.479c-.021.1-.458 1.542 1.188 3.271s5.667 4.021 7.042 4.854 4.5 2.479 7.146 2.583a7.2 7.2 0 003.854-.687v-.045c.521-2.6 1.583-6.083 4.958-7.937 2.271-1.25 4.438-.458 3.438 2.958v.1l20.146-11.9c.438-2.479 2.375-6 4.583-7.271s3.792-.521 3.521 2.521a5.1 5.1 0 00.938-1.479 2.792 2.792 0 00.042-1.771 7.458 7.458 0 000-1.771 6.972 6.972 0 00-.958-1.937 18.346 18.346 0 00-1.021-2.521c-.417-.687-2.083-2.083-5.583-4.4a45.632 45.632 0 00-8.521-4.437 10.729 10.729 0 00-2.375-.479 5.231 5.231 0 00-1.75-.6 1.708 1.708 0 00-1.062.292 58.676 58.676 0 00-7.062 2.771 96.27 96.27 0 00-8.583 4.979c-1.458 1-4.312 3.229-6 4.625h0z" stroke-width=".833" stroke-linejoin="round" stroke="#222" fill="none"/><path id="패스_673521" data-name="패스 673521" class="cls-8" d="M157.007 239.108a3.312 3.312 0 002.458-1.1c.375-.417.813-.917 1.146-1.375.646-.875 3.667-5.917 5.146-8.021a.75.75 0 00-.271-1.1c-1.479-.771-4.646-2.479-6.25-3.479-2.1-1.333-5.458-3.625-5.458-3.625s-5.375 3.979-7.021 5.417-4.125 3.417-4.125 3.417a2.974 2.974 0 00.375 2.75c.958 1.542 3.542 3.4 5.667 4.521 1.75.938 5.5 2.583 8.313 2.6" transform="translate(-112.778 -174.483)"/><path id="패스_673522" data-name="패스 673522" class="cls-8" d="M159.425 329.4a.417.417 0 01-.042-.792l4.417-1.625c1.479-.521 3.771-1.5 4.479-1.75s1.229-.437 1.083.229a6.57 6.57 0 01-3.646 3.771 8.875 8.875 0 01-6.292.146" transform="translate(-125.967 -257.291)"/><path id="패스_673523" data-name="패스 673523" class="cls-14" d="M159.425 329.4a.417.417 0 01-.042-.792l4.417-1.625c1.479-.521 3.771-1.5 4.479-1.75s1.229-.437 1.083.229a6.57 6.57 0 01-3.646 3.771 8.988 8.988 0 01-6.291.167z" transform="translate(-125.967 -257.291)"/><path id="패스_673524" data-name="패스 673524" class="cls-8" d="M110.4 275.021h-.042a10.132 10.132 0 00-3.542 4.083l-.063.125a5.653 5.653 0 00-.312 2.438 4.433 4.433 0 001.208 2.229.188.188 0 00.333-.146 13.4 13.4 0 01-.021-3.771A19.119 19.119 0 01110.4 275" transform="translate(-84.232 -217.708)"/><path id="패스_673525" data-name="패스 673525" class="cls-15" d="M110.4 275.1h-.042a10.132 10.132 0 00-3.542 4.083l-.063.125a5.653 5.653 0 00-.312 2.438 4.433 4.433 0 001.208 2.229.187.187 0 00.333-.146 13.4 13.4 0 01-.021-3.771 20 20 0 012.439-4.958z" transform="translate(-84.232 -217.788)"/><path id="패스_673526" data-name="패스 673526" class="cls-8" d="M107.291 323.8a16.719 16.719 0 01-2.271-1.812 6.141 6.141 0 01-1.167-2.75c-.1-.625-.146-1.271.021-1.417s.708.458 1.354 1.063 1.833 1.542 1.833 1.542a3.23 3.23 0 00.875.938 33.961 33.961 0 003.4 2 4.733 4.733 0 002.042.563s1.542.625 2.708 1.021 2.4.6 2.458 1.229-.479 1.021-1.187 1.438a3.913 3.913 0 01-2.9.042 7.147 7.147 0 01-1.729-.729" transform="translate(-82.145 -251.587)"/><path id="패스_673527" data-name="패스 673527" class="cls-8" d="M256.161 224.371c-.312-.417-4.021.375-6.271 1.458a37.734 37.734 0 00-6.312 4.063c-1.333 1.083-4.875 6.708-5.917 8.4 0 0-1.333 2.188-.9 2.875s1.125.188 1.979-.333l.167-.1a.666.666 0 01.021-.312 21.5 21.5 0 011.854-1.875 1.215 1.215 0 011.292.083l8.875-5.875s3.563-2.875 4.583-4.9.938-3.083.6-3.479" transform="translate(-187.369 -177.537)"/><path id="패스_673528" data-name="패스 673528" class="cls-8" d="M252.917 249.517a1.238 1.238 0 011.146.021l7.6-5.042c-.271-1.271-1.083-4.771-1.646-6.4a41.151 41.151 0 00-4.208 2.9 31.283 31.283 0 00-3.809 5.125l.208 4.042a5.5 5.5 0 01.708-.646" transform="translate(-199.5 -188.496)"/><path id="패스_673529" data-name="패스 673529" class="cls-8" d="M239.593 284.167l.813-.875-.292-3.792c-.625.958-1.187 1.875-1.646 2.625s-1.167 2.271-.9 2.729a.458.458 0 00.417.271 3.03 3.03 0 001.187-.542l.188-.1.25-.146v-.125" transform="translate(-188.031 -221.271)"/><path id="패스_673530" data-name="패스 673530" class="cls-8" d="M303.475 225.063s-.062-.062-.375-.062a17.263 17.263 0 00-5.708 1.563l-.792.417c.354 1 1.292 3.771 1.958 6.042.833-.687 3.438-2.979 4.292-4.646s.938-2.917.625-3.312" transform="translate(-234.808 -178.125)"/><path id="패스_673531" data-name="패스 673531" class="cls-8" d="M299.6 189.071a63.984 63.984 0 00-6.646-3.75L290 184.3c.688.333 2.958 1.479 4.333 2.354a27.7 27.7 0 014.625 3.688 4.77 4.77 0 01.417 1.167 35.85 35.85 0 003.917 1.5l.417.042a.792.792 0 00.563-.146.146.146 0 00.021-.146c-.1-.375-3.083-2.667-4.667-3.687" transform="translate(-229.583 -145.904)"/><path id="패스_673532" data-name="패스 673532" class="cls-9" d="M244.6 292.315l2.479-1.125a.646.646 0 01.833.292l.25.521a1.667 1.667 0 01.125 1.25c-.1.354-.333.6-.562.521l-.917-.292a3.688 3.688 0 00-1.9-.1h-.021a.542.542 0 01-.292-1.042" transform="translate(-193.353 -230.482)"/><path id="패스_673533" data-name="패스 673533" d="M51.247 61.833l2.479-1.125a.646.646 0 01.833.292l.25.521a1.667 1.667 0 01.125 1.25c-.1.354-.333.6-.562.521L53.455 63a3.688 3.688 0 00-1.9-.1h-.021a.542.542 0 01-.292-1.042z" stroke-width=".625" stroke-miterlimit="10" stroke="#222" fill="none"/><path id="패스_673534" data-name="패스 673534" class="cls-15" d="M110.4 275.1h-.042a10.132 10.132 0 00-3.542 4.083l-.063.125a5.653 5.653 0 00-.312 2.438 4.433 4.433 0 001.208 2.229.187.187 0 00.333-.146 13.4 13.4 0 01-.021-3.771 20 20 0 012.439-4.958z" transform="translate(-84.232 -217.788)"/><path id="패스_673535" data-name="패스 673535" class="cls-14" d="M159.425 329.4a.417.417 0 01-.042-.792l4.417-1.625c1.479-.521 3.771-1.5 4.479-1.75s1.229-.437 1.083.229a6.57 6.57 0 01-3.646 3.771 8.988 8.988 0 01-6.291.167z" transform="translate(-125.967 -257.291)"/><path id="선_91407" data-name="선 91407" class="cls-9" transform="translate(57.188 59.375)" d="M0 7.229L12.229 0"/><path id="선_91408" data-name="선 91408" stroke-width=".625" stroke-linecap="round" stroke-linejoin="round" stroke="#222" fill="none" d="M57.188 66.604l12.229-7.229"/><path id="패스_673536" data-name="패스 673536" class="cls-8" d="M159.688 237.963a42.7 42.7 0 01-8.542-3.812c-3.25-1.958-4.937-3.75-5.646-4.958a1.834 1.834 0 01.188-.292c.021-.021 1.958-1.958 3.583-3.375s5.75-5.1 6.458-5.625c.542.375 3.958 2.667 5.854 3.854 1.583 1 4.75 2.688 6.229 3.479a.625.625 0 01.229.917l-.833 1.229q-2.062 3.188-4.271 6.271a6.042 6.042 0 01-3.229 2.313" transform="translate(-115.188 -174.088)"/><path id="패스_673537" data-name="패스 673537" d="M40.667 45.917c.542.375 3.813 2.563 5.708 3.75 1.583 1 4.75 2.688 6.229 3.479a.625.625 0 01.229.917L52 55.313q-2.062 3.188-4.271 6.271a6.042 6.042 0 01-3.229 2.313 42.7 42.7 0 01-8.542-3.813 17.617 17.617 0 01-5.854-5.25" stroke-width=".625" stroke-linecap="round" stroke-linejoin="round" stroke="#222" fill="none"/><path id="패스_673538" data-name="패스 673538" d="M24.813 70.354a16.313 16.313 0 005.5 3.188" stroke-width=".625" stroke="#fff" stroke-linecap="round" stroke-linejoin="round" fill="none"/><path id="패스_673539" data-name="패스 673539" class="cls-20" d="M256.862 113.9v.021l-.062.042z" transform="translate(-203.3 -90.171)"/><path id="선_91409" data-name="선 91409" class="cls-20" transform="translate(53.563 23.729)" d="M.021 0L0 .021"/><path id="선_91410" data-name="선 91410" class="cls-20" transform="translate(51.063 37.063)" d="M.021 0H0"/></g><g id="그룹_334520" data-name="그룹 334520" class="cls-2"><path id="패스_673540" data-name="패스 673540" class="cls-9" d="M235.688 92.892A10.859 10.859 0 11224.833 82.6c5.979 0 10.854 4.6 10.854 10.292" transform="translate(-169.417 -65.392)"/><path id="패스_673541" data-name="패스 673541" class="cls-21" d="M235.688 92.892A10.859 10.859 0 11224.833 82.6c5.98 0 10.855 4.6 10.855 10.292z" transform="translate(-169.417 -65.392)"/><path id="패스_673542" data-name="패스 673542" d="M235.688 104.092A10.859 10.859 0 11224.833 93.8c5.979 0 10.854 4.6 10.854 10.292" transform="translate(-169.417 -74.258)" fill="#45d49a"/><path id="패스_673543" data-name="패스 673543" class="cls-21" d="M235.688 104.092A10.859 10.859 0 11224.833 93.8c5.98 0 10.855 4.6 10.855 10.292z" transform="translate(-169.417 -74.258)"/><path id="선_91411" data-name="선 91411" class="cls-20" transform="translate(52.833 27.229)" d="M5.188 0L0 5.188"/><path id="선_91413" data-name="선 91413" class="cls-20" transform="translate(52.833 27.229)" d="M0 0l5.188 5.188"/><g id="그룹_334540" data-name="그룹 334540" transform="rotate(45 55.427 29.823)"><path id="선_91412" data-name="선 91412" class="cls-23" transform="rotate(90 15.396 42.625)" d="M5.188 0L0 5.188"/><path id="선_91414" data-name="선 91414" class="cls-23" transform="rotate(90 15.396 42.625)" d="M0 0l5.188 5.188"/></g><g id="그룹_334519" data-name="그룹 334519" transform="translate(51.042 41.313)" opacity=".2"><g id="그룹_334518" data-name="그룹 334518" clip-path="url(#clip-path-6)"><path id="패스_673544" data-name="패스 673544" d="M255.183 201.008c0 1.5-2.271 2.708-5.042 2.708s-5.042-1.208-5.042-2.708 2.271-2.708 5.042-2.708 5.042 1.208 5.042 2.708" transform="translate(-245.079 -198.3)"/></g></g></g></g></svg>