<svg xmlns="http://www.w3.org/2000/svg" width="38" height="38"><defs><clipPath id="a"><path data-name="사각형 127035" fill="none" d="M0 0h24v24H0z"/></clipPath></defs><g data-name="그룹 134216"><g data-name="그룹 124234"><g data-name="타원 4810" fill="#ffad00" stroke="#ff9300"><circle cx="19" cy="19" r="19" stroke="none"/><circle cx="19" cy="19" r="18.5" fill="none"/></g></g><g data-name="그룹 141869" transform="translate(7 7)" clip-path="url(#a)"><path data-name="패스 313007" d="M16.543 18.171a7.2 7.2 0 11-11.4-8.4" fill="none" stroke="#fff" stroke-miterlimit="10" stroke-width="1.286"/><circle data-name="타원 5471" cx="8.143" cy="8.143" r="8.143" transform="translate(5.057 2.571)" fill="none" stroke="#fff" stroke-miterlimit="10" stroke-width="1.286"/><path data-name="패스 313008" d="M12.943 7.201A4.971 4.971 0 0115 7.544a1.886 1.886 0 011.029 1.885 2.314 2.314 0 01-.429 1.457 2.743 2.743 0 01-2.4.943q-.771 0-.771-.6a.514.514 0 01.257-.514h.686a1.029 1.029 0 00.943-1.029q0-1.029-1.286-1.029h-.857v5.486q0 .857-.771.857t-.771-.857V7.201z" fill="#fff"/></g></g></svg>