<svg xmlns="http://www.w3.org/2000/svg" width="70" height="70"><defs><clipPath id="a"><path data-name="사각형 318434" fill="none" d="M0 0h70v70H0z"/></clipPath><clipPath id="b"><path data-name="사각형 318430" fill="none" d="M0 0h49.397v24.464H0z"/></clipPath><clipPath id="c"><path data-name="사각형 318431" fill="none" d="M0 0h6.732v29.075H0z"/></clipPath><clipPath id="d"><path data-name="사각형 318432" fill="none" d="M0 0h11.947v11.873H0z"/></clipPath></defs><g data-name="그룹 422789" clip-path="url(#a)"><g data-name="그룹 422788" clip-path="url(#a)"><g data-name="그룹 422783"><g data-name="그룹 422782" clip-path="url(#b)" transform="translate(17.197 34.802)" opacity=".2"><path data-name="패스 840272" d="M49.081 16.426a.618.618 0 01.012 1.073L38.01 23.834a4.433 4.433 0 01-1.225.537 2.893 2.893 0 01-2.158-.3c-2.38-1.353-11.048-6.475-11.877-6.988a1.843 1.843 0 01-.6-.572 1.493 1.493 0 00-1.692-.607l-6.452 1.995a22.237 22.237 0 01-4.643.922 10.778 10.778 0 01-4.993-.467l-3.733-2.1c-1.808-1.015.537-4.748 2.345-5.775l16.112-9.392a8.365 8.365 0 018.237-.023l3.733 2.1c1.727.968 9.088 5.973 7.828 7.432z"/></g></g><path data-name="패스 840273" d="M47.693 28.805v1.225l.373-.21v2.275l-.373.222v1.225l.373-.21v5.728a3.178 3.178 0 01-1.867 2.578l-17.22 9.94a9.935 9.935 0 01-8.995 0l-.093-.058a3.045 3.045 0 01-1.843-2.765h-.012v-3a3.212 3.212 0 001.867 2.555l.093.047a9.935 9.935 0 009 0l13.382-7.688v-10.85a1.388 1.388 0 00-2.077-1.2l-11.317 6.5a9.935 9.935 0 01-8.995 0l-.093-.047a3.2 3.2 0 01-1.867-2.555v-9.812l24.1-7.817 4.538 6.522a7.863 7.863 0 011.4 4.457v2.72z" fill="#e2e2e2"/><path data-name="패스 840274" d="M42.361 29.913v10.769l-13.382 7.677a9.935 9.935 0 01-8.995 0l-.093-.047a3.587 3.587 0 01-2.088-2.578V32.445a3.634 3.634 0 002.088 2.613l.093.047a9.935 9.935 0 008.995 0l11.212-6.44a1.447 1.447 0 012.158 1.248" fill="#3673ee"/><path data-name="패스 840275" d="M42.361 29.914v10.768l-13.382 7.677a9.935 9.935 0 01-8.995 0l-.093-.047a3.587 3.587 0 01-2.088-2.579V32.445a3.634 3.634 0 002.088 2.613l.093.047a9.935 9.935 0 008.995 0l11.212-6.44a1.447 1.447 0 012.17 1.248z" fill="none" stroke="#222" stroke-linejoin="round" stroke-width=".35"/><path data-name="패스 840276" d="M40.728 18.854L28.98 25.632a9.935 9.935 0 01-8.995 0l-.093-.047c-2.485-1.435-2.485-3.757 0-5.192l11.748-6.778a9.935 9.935 0 018.995 0l.093.047c2.485 1.435 2.485 3.757 0 5.192" fill="#fff"/><path data-name="패스 840277" d="M40.728 18.854L28.98 25.632a9.935 9.935 0 01-8.995 0l-.093-.047c-2.485-1.435-2.485-3.757 0-5.192l11.748-6.778a9.935 9.935 0 018.995 0l.093.047c2.485 1.435 2.485 3.757 0 5.192z" fill="none" stroke="#222" stroke-linejoin="round" stroke-width=".35"/><path data-name="패스 840278" d="M28.747 20.428a7.217 7.217 0 01-6.557 0 2.3 2.3 0 01-1.353-1.89v3.477a2.307 2.307 0 001.353 1.89 7.217 7.217 0 006.557 0 2.3 2.3 0 001.353-1.89v-3.477a2.307 2.307 0 01-1.353 1.89" fill="#bcbcbc"/><path data-name="패스 840279" d="M28.747 20.428a7.217 7.217 0 01-6.557 0 2.3 2.3 0 01-1.353-1.89v3.477a2.307 2.307 0 001.353 1.89 7.217 7.217 0 006.557 0 2.3 2.3 0 001.353-1.89v-3.477a2.274 2.274 0 01-1.353 1.89z" fill="none" stroke="#222" stroke-linejoin="round" stroke-width=".292"/><path data-name="패스 840280" d="M28.747 20.429a7.218 7.218 0 01-6.557 0c-1.808-1.05-1.808-2.742 0-3.78a7.253 7.253 0 016.557 0c1.808 1.05 1.808 2.742 0 3.78" fill="#bcbcbc"/><path data-name="패스 840281" d="M28.747 20.429a7.218 7.218 0 01-6.557 0c-1.808-1.05-1.808-2.742 0-3.78a7.253 7.253 0 016.557 0c1.812 1.05 1.82 2.729 0 3.78z" fill="none" stroke="#222" stroke-linejoin="round" stroke-width=".292"/><path data-name="패스 840282" d="M20.195 16.788v2.882a2.625 2.625 0 001.54 2.158 8.255 8.255 0 007.467 0 2.625 2.625 0 001.54-2.158v-2.882z" fill="#222"/><path data-name="패스 840283" d="M20.195 16.788v2.882a2.625 2.625 0 001.54 2.158 8.255 8.255 0 007.467 0 2.625 2.625 0 001.54-2.158v-2.882z" fill="none" stroke="#222" stroke-miterlimit="10" stroke-width=".35"/><path data-name="패스 840284" d="M29.201 18.935a8.255 8.255 0 01-7.467 0c-2.065-1.19-2.065-3.115 0-4.305a8.255 8.255 0 017.467 0c2.065 1.19 2.065 3.115 0 4.305" fill="#616161"/><path data-name="패스 840285" d="M29.201 18.935a8.255 8.255 0 01-7.467 0c-2.065-1.19-2.065-3.115 0-4.305a8.255 8.255 0 017.467 0c2.065 1.19 2.065 3.115 0 4.305z" fill="none" stroke="#222" stroke-miterlimit="10" stroke-width=".35"/><path data-name="패스 840286" d="M48.066 29.81v.572l-2.462 1.423c-.373.21-.677.093-.747-.268a.607.607 0 00.4-.093l2.438-1.4v-.434z" fill="#bcbcbc"/><path data-name="패스 840287" d="M48.066 29.81v.572l-2.462 1.423c-.373.21-.677.093-.747-.268a.607.607 0 00.4-.093l2.438-1.4v-.434z" fill="none" stroke="#222" stroke-linejoin="round" stroke-width=".35"/><path data-name="패스 840288" d="M47.693 28.805v1.225l-2.438 1.4a.214.214 0 11-.42-.07v-.023a1.68 1.68 0 01.758-1.318z" fill="#bcbcbc"/><path data-name="패스 840289" d="M47.693 28.805v1.225l-2.438 1.4a.214.214 0 11-.42-.07v-.023a1.68 1.68 0 01.758-1.318z" fill="none" stroke="#222" stroke-linejoin="round" stroke-width=".35"/><path data-name="패스 840290" d="M48.066 33.322v.572l-2.462 1.423c-.373.21-.677.093-.747-.268a.607.607 0 00.4-.093l2.438-1.4v-.434z" fill="#bcbcbc"/><path data-name="패스 840291" d="M48.066 33.322v.572l-2.462 1.423c-.373.21-.677.093-.747-.268a.607.607 0 00.4-.093l2.438-1.4v-.434z" fill="none" stroke="#222" stroke-linejoin="round" stroke-width=".35"/><path data-name="패스 840292" d="M47.693 32.305v1.225l-2.438 1.4a.214.214 0 11-.42-.07v-.023a1.68 1.68 0 01.758-1.318z" fill="#bcbcbc"/><path data-name="패스 840293" d="M47.693 32.305v1.225l-2.438 1.4a.214.214 0 11-.42-.07v-.023a1.68 1.68 0 01.758-1.318z" fill="none" stroke="#222" stroke-linejoin="round" stroke-width=".35"/><path data-name="패스 840294" d="M34.079 35.467a.385.385 0 00-.665.082c-.9 2.182-3.687 9.473.257 7.2 3.722-2.147 1.435-5.915.42-7.28" fill="#fff"/><path data-name="패스 840295" d="M29.517 29.88l-.117-.023.233-.093 7.782-4.492a1.855 1.855 0 00.852-1.47v-.42a.724.724 0 01.012.152v.56a1.587 1.587 0 01-.7 1.225l-7.782 4.492a.572.572 0 01-.28.082" fill="#3673ee"/><path data-name="패스 840296" d="M38.08 22.972a.828.828 0 01.035.257v.56a1.715 1.715 0 01-.77 1.342l-7.782 4.5a.712.712 0 01-.35.1h-.081a.4.4 0 00.4.292.7.7 0 00.35-.1l7.782-4.492a1.715 1.715 0 00.77-1.342v-.56c0-.315-.14-.5-.35-.548" fill="#222"/><path data-name="패스 840297" d="M38.115 23.24v.56a1.715 1.715 0 01-.77 1.342l-7.782 4.492a.63.63 0 01-.432.093.828.828 0 01-.035-.257v-.56a1.727 1.727 0 01.782-1.342l7.782-4.492a.63.63 0 01.432-.093.828.828 0 01.035.257" fill="#bcbcbc"/><path data-name="패스 840298" d="M38.115 23.24v.56a1.715 1.715 0 01-.77 1.342l-7.782 4.492a.63.63 0 01-.432.093.828.828 0 01-.035-.257v-.56a1.727 1.727 0 01.782-1.342l7.782-4.492a.63.63 0 01.432-.093.828.828 0 01.023.257z" fill="none" stroke="#222" stroke-linejoin="round" stroke-width=".292"/><path data-name="선 126345" fill="#fff" d="M47.892 24.243"/><path data-name="패스 840299" d="M36.144 12.53a9.2 9.2 0 014.492 1.073l.093.047a4.293 4.293 0 011.4 1.225l4.538 6.533a7.817 7.817 0 011.4 4.457v2.718l-.373.21v.805l.373.21v2.272l-.373.222v1.225-.432l.373.21V39.011a3.178 3.178 0 01-1.867 2.578l-17.22 9.987a9.935 9.935 0 01-8.983 0l-.093-.058a3.045 3.045 0 01-1.843-2.765h-.012v-26.05h.023a3.336 3.336 0 011.843-2.31l.373-.21a1.808 1.808 0 01-.07-.5v-2.895a2.625 2.625 0 011.54-2.158 8.3 8.3 0 017.467 0l.315.2 2.123-1.225a9.231 9.231 0 014.492-1.073M36.155 11.832a9.875 9.875 0 00-4.842 1.167l-1.762 1.015a8.925 8.925 0 00-8.155.012 3.208 3.208 0 00-1.89 2.765v3.01a4.1 4.1 0 00-2.112 2.625.7.7 0 00-.058.268V48.757a.7.7 0 00.012.1 3.833 3.833 0 002.205 3.267l.093.047a10.63 10.63 0 009.683 0l17.22-9.94a3.833 3.833 0 002.205-3.138V33.318a.7.7 0 00-.35-.607h.012a.7.7 0 00.338-.607v-2.3a.7.7 0 00-.35-.607.7.7 0 00.35-.607v-2.73a8.482 8.482 0 00-1.528-4.865l-4.527-6.522a4.97 4.97 0 00-1.633-1.435l-.093-.058a9.781 9.781 0 00-4.842-1.167" fill="#222"/><g data-name="그룹 422785"><g data-name="그룹 422784" clip-path="url(#c)" transform="translate(17.757 23.578)" opacity=".1"><path data-name="패스 840300" d="M.187 0s.28 2.777 6.545 3.127v25.947S.595 28.689.187 25.866.187.001.187.001" fill="#000001"/></g></g><path data-name="패스 840301" d="M53.165 56.128l-10.523-6.073a7.044 7.044 0 01-2.94-5.623c0-2.17 1.318-3.162 2.94-2.228l10.512 6.078a7.044 7.044 0 012.94 5.623c0 2.17-1.318 3.162-2.94 2.228" fill="#e3e3e3"/><path data-name="패스 840302" d="M53.165 56.128l-10.523-6.073a7.044 7.044 0 01-2.94-5.623c0-2.17 1.318-3.162 2.94-2.228l10.512 6.078a7.044 7.044 0 012.94 5.623c0 2.165-1.307 3.157-2.929 2.223z" fill="none" stroke="#222" stroke-linecap="round" stroke-linejoin="round" stroke-width=".35"/><path data-name="패스 840303" d="M64.32 50.96h.012l-.21.117a5.264 5.264 0 00.117-1.715v-.012a7.114 7.114 0 00-2.975-5.635L50.682 37.59a1.917 1.917 0 00-1.96-.152l1.237-.712a1.481 1.481 0 01.793-.222 2.357 2.357 0 011.167.35l10.523 6.078a7.044 7.044 0 012.94 5.623 2.561 2.561 0 01-1.062 2.4" fill="#686868"/><path data-name="패스 840304" d="M64.32 50.96h.012l-.21.117a5.264 5.264 0 00.117-1.715v-.012a7.114 7.114 0 00-2.975-5.635L50.682 37.59a1.917 1.917 0 00-1.96-.152h0l1.237-.712h0a1.481 1.481 0 01.793-.222 2.357 2.357 0 011.167.35l10.523 6.078a7.044 7.044 0 012.94 5.623 2.561 2.561 0 01-1.062 2.405z" fill="none" stroke="#222" stroke-miterlimit="10" stroke-width=".35"/><path data-name="패스 840305" d="M64.248 49.373a5.237 5.237 0 01-.128 1.715l-10.29 5.938-14.432-14.2 9.333-5.39a1.865 1.865 0 011.96.152l10.582 6.125a7.114 7.114 0 012.975 5.635z" fill="#fff"/><path data-name="패스 840306" d="M64.248 49.373a5.237 5.237 0 01-.128 1.715l-10.29 5.938-14.432-14.2 9.333-5.39h0a1.865 1.865 0 011.96.152l10.582 6.125a7.114 7.114 0 012.975 5.635z" fill="none" stroke="#222" stroke-linecap="round" stroke-linejoin="round" stroke-width=".35"/><path data-name="선 126346" fill="none" stroke="#222" stroke-linecap="round" stroke-linejoin="round" stroke-width=".35" d="M49.98 36.715l-.023.012"/><path data-name="선 126347" fill="none" stroke="#222" stroke-linecap="round" stroke-linejoin="round" stroke-width=".35" d="M64.423 50.913l-.093.058"/><path data-name="패스 840307" d="M51.87 56.898l-10.512-6.073a7.044 7.044 0 01-2.94-5.623c0-2.17 1.318-3.162 2.94-2.228l10.512 6.078a7.044 7.044 0 012.94 5.623c0 2.17-1.318 3.162-2.94 2.228" fill="#474747"/><path data-name="패스 840308" d="M51.87 56.898l-10.512-6.073a7.044 7.044 0 01-2.94-5.623c0-2.17 1.318-3.162 2.94-2.228l10.512 6.078a7.044 7.044 0 012.94 5.623c0 2.165-1.307 3.157-2.94 2.223z" fill="none" stroke="#222" stroke-miterlimit="10" stroke-width=".35"/><path data-name="패스 840309" d="M51.322 57.365l-10.617-6.137a7.1 7.1 0 01-2.975-5.67c0-2.182 1.33-3.2 2.975-2.24l10.617 6.137a7.1 7.1 0 012.975 5.67c0 2.182-1.33 3.2-2.975 2.24" fill="#616161"/><path data-name="패스 840310" d="M51.322 57.365l-10.617-6.137a7.1 7.1 0 01-2.975-5.67c0-2.182 1.33-3.2 2.975-2.24l10.617 6.137a7.1 7.1 0 012.975 5.67c0 2.181-1.33 3.185-2.975 2.24z" fill="none" stroke="#222" stroke-miterlimit="10" stroke-width=".35"/><path data-name="패스 840311" d="M48.731 37.45l-.093.058" fill="none" stroke="#222" stroke-linecap="round" stroke-linejoin="round" stroke-width=".35"/><path data-name="패스 840312" d="M49.964 55.719l-7.723-4.468a5.193 5.193 0 01-2.182-4.1c-.012-1.575.957-2.3 2.147-1.61l7.723 4.468a5.193 5.193 0 012.182 4.095c.012 1.575-.957 2.3-2.147 1.61" fill="#222"/><path data-name="패스 840313" d="M49.964 55.719l-7.723-4.468a5.193 5.193 0 01-2.182-4.1h0c-.012-1.575.957-2.3 2.147-1.61l7.723 4.468a5.193 5.193 0 012.182 4.095c.016 1.581-.953 2.304-2.147 1.615z" fill="none" stroke="#222" stroke-miterlimit="10" stroke-width=".35"/><path data-name="패스 840314" d="M43.365 49.49l-.9.677-1.575-2.555.747-.56.128-.093h.035a.759.759 0 01.7.1 2.363 2.363 0 011.062 1.843.828.828 0 01-.21.607" fill="#acacad"/><path data-name="패스 840315" d="M43.365 49.49h0l-.9.677-1.575-2.555.747-.56.128-.093h.035a.759.759 0 01.7.1 2.363 2.363 0 011.062 1.843.828.828 0 01-.197.588z" fill="none" stroke="#222" stroke-linecap="round" stroke-linejoin="round" stroke-width=".35"/><path data-name="패스 840316" d="M41.766 46.958l-.128.093a.479.479 0 01.128-.093" fill="#e3e3e3"/><path data-name="패스 840317" d="M41.766 46.958l-.128.093a.479.479 0 01.128-.093z" fill="none" stroke="#222" stroke-linecap="round" stroke-linejoin="round" stroke-width=".35"/><path data-name="패스 840318" d="M42.793 49.49c0 .677-.478.945-1.062.607a2.363 2.363 0 01-1.061-1.844c0-.677.478-.945 1.062-.607a2.363 2.363 0 011.062 1.843" fill="#fff"/><path data-name="패스 840319" d="M42.793 49.49c0 .677-.478.945-1.062.607a2.363 2.363 0 01-1.061-1.844c0-.677.478-.945 1.062-.607a2.363 2.363 0 011.061 1.844z" fill="none" stroke="#222" stroke-linecap="round" stroke-linejoin="round" stroke-width=".35"/><path data-name="패스 840320" d="M41.802 46.946h-.035l.035-.023z" fill="#e3e3e3"/><path data-name="패스 840321" d="M41.802 46.946h-.035l.035-.023z" fill="none" stroke="#222" stroke-linecap="round" stroke-linejoin="round" stroke-width=".35"/><path data-name="패스 840322" d="M50.785 53.818l-.9.677-1.575-2.555.747-.56.128-.093h.035a.759.759 0 01.7.105 2.363 2.363 0 011.062 1.843.829.829 0 01-.21.607" fill="#acacad"/><path data-name="패스 840323" d="M50.785 53.818h0l-.9.677-1.575-2.555.747-.56.128-.093h.035a.759.759 0 01.7.105 2.363 2.363 0 011.062 1.843.828.828 0 01-.197.583z" fill="none" stroke="#222" stroke-linecap="round" stroke-linejoin="round" stroke-width=".35"/><path data-name="패스 840324" d="M50.225 53.83c0 .677-.478.945-1.062.607a2.363 2.363 0 01-1.061-1.844c0-.677.478-.945 1.062-.607a2.363 2.363 0 011.062 1.843" fill="#fff"/><path data-name="패스 840325" d="M50.225 53.83c0 .677-.478.945-1.062.607a2.363 2.363 0 01-1.061-1.844c0-.677.478-.945 1.062-.607a2.363 2.363 0 011.061 1.844z" fill="none" stroke="#222" stroke-linecap="round" stroke-linejoin="round" stroke-width=".35"/><g data-name="그룹 422787"><g data-name="그룹 422786" clip-path="url(#d)" transform="translate(53.597 44.858)" opacity=".15"><path data-name="패스 840326" d="M0 5.938L10.383 0c1.785 2.345 2.193 4.34.408 5.81L.501 11.877c.665-1.12.992-2.38-.5-5.938" fill="#222"/></g></g><path data-name="패스 840327" d="M55.387 46.48a.983.983 0 001 .07q.187-.1.187-.233v-.408l-4.587-1.774v.385z" fill="#222"/><path data-name="패스 840328" d="M55.382 46.095a.983.983 0 001 .07q.443-.245-.128-.572l-3.407-1.972-.875.5z" fill="#f8483b"/><path data-name="패스 840329" d="M45.78 40.425l2.672.723 1.038-.6a1.167 1.167 0 01.863-.163c.082.023.315-.175.385-.14 0 .5.035.4 0 .5a.514.514 0 01-.257.292l-.07.035-1.038.6 1.517.618v.408c0 .093-.082.2-.257.3a.992.992 0 01-1.05-.012l-.082-.047-1.178-.677-1.493.9-.922-.537v-.385l1.505-.478-1.633-.945z" fill="#222"/><path data-name="패스 840330" d="M46.83 39.83l1.633.945 1.038-.6a1.167 1.167 0 01.863-.163.747.747 0 01.222.082q.21.117.175.28a.513.513 0 01-.257.292l-.07.035-1.038.6 1.248.723q.525.315 0 .607a.992.992 0 01-1.05-.012l-.082-.047-1.178-.677-1.505.875-.922-.537 1.505-.875-1.633-.945z" fill="#3673ee"/><path data-name="패스 840331" d="M50.762 36.505a2.357 2.357 0 011.167.35l10.512 6.078a7.044 7.044 0 012.94 5.623 2.561 2.561 0 01-1.062 2.4h.012l-.21.117-10.29 5.938h-.012l-.07.047a1.529 1.529 0 01-1.26.642 2.392 2.392 0 01-1.178-.362l-10.617-6.137a7.1 7.1 0 01-2.975-5.67 2.533 2.533 0 011.458-2.567 1.2 1.2 0 01.175-.152h.023l9.333-5.39 1.237-.712h.012a1.447 1.447 0 01.782-.21m0-.467a1.9 1.9 0 00-1.027.28l-1.225.712-9.31 5.378h-.047a1.063 1.063 0 00-.2.163 2.987 2.987 0 00-1.657 2.952 7.532 7.532 0 003.208 6.078l10.617 6.137a2.835 2.835 0 001.412.42 2 2 0 001.563-.747h.012l10.278-5.938.21-.117.4-.233-.023-.047a3.355 3.355 0 00.91-2.543 7.453 7.453 0 00-3.173-6.02l-10.512-6.073a2.812 2.812 0 00-1.4-.42" fill="#222"/><path data-name="패스 840332" d="M52.687 50.668l.6-.338s2.263 2.87 1.225 5.95l-.4-.058a7.073 7.073 0 00-1.423-5.553" fill="#222"/><path data-name="패스 840333" d="M21.397 21.606h-.1a.385.385 0 01-.385-.385v-3.558a.385.385 0 01.385-.385h.1a.385.385 0 01.385.385v3.558a.385.385 0 01-.385.385" fill="#616161"/><path data-name="패스 840334" d="M23.403 22.61h-.1a.385.385 0 01-.385-.385v-3.57a.385.385 0 01.385-.385h.1a.385.385 0 01.385.385v3.558a.385.385 0 01-.385.385" fill="#616161"/><path data-name="패스 840335" d="M25.41 22.878h-.1a.385.385 0 01-.385-.385v-3.57a.385.385 0 01.385-.385h.1a.385.385 0 01.385.385v3.558a.385.385 0 01-.385.385" fill="#616161"/><path data-name="패스 840336" d="M27.415 22.715h-.117a.385.385 0 01-.385-.385v-3.57a.385.385 0 01.385-.385h.1a.385.385 0 01.385.385v3.558a.385.385 0 01-.385.385" fill="#616161"/><path data-name="패스 840337" d="M29.412 21.781h-.1a.385.385 0 01-.385-.385v-3.558a.385.385 0 01.385-.385h.1a.385.385 0 01.385.385v3.558a.385.385 0 01-.385.385" fill="#616161"/></g></g></svg>