<svg xmlns="http://www.w3.org/2000/svg" xmlns:xlink="http://www.w3.org/1999/xlink" width="86" height="82.454" viewBox="0 0 86 82.454">
  <defs>
    <style>
      .cls-1, .cls-10, .cls-16, .cls-17, .cls-21, .cls-22, .cls-23, .cls-24, .cls-25, .cls-26, .cls-27, .cls-28, .cls-29, .cls-30, .cls-35, .cls-37, .cls-38, .cls-39, .cls-42, .cls-43, .cls-44, .cls-45, .cls-47, .cls-50, .cls-51, .cls-52, .cls-53, .cls-54, .cls-55, .cls-56, .cls-57, .cls-58, .cls-59, .cls-6, .cls-60, .cls-61, .cls-62, .cls-63, .cls-64, .cls-65, .cls-66, .cls-67, .cls-68, .cls-69, .cls-70, .cls-72, .cls-77, .cls-8 {
        fill: none;
      }

      .cls-2, .cls-5 {
        fill: #fff;
      }

      .cls-2 {
        stroke: #f0f0f0;
      }

      .cls-14, .cls-18, .cls-3 {
        isolation: isolate;
      }

      .cls-4 {
        clip-path: url(#clip-path);
      }

      .cls-10, .cls-16, .cls-17, .cls-21, .cls-22, .cls-23, .cls-24, .cls-26, .cls-27, .cls-28, .cls-29, .cls-30, .cls-35, .cls-37, .cls-38, .cls-39, .cls-42, .cls-43, .cls-44, .cls-45, .cls-47, .cls-50, .cls-51, .cls-52, .cls-53, .cls-54, .cls-55, .cls-56, .cls-57, .cls-58, .cls-59, .cls-6, .cls-60, .cls-61, .cls-62, .cls-63, .cls-64, .cls-65, .cls-66, .cls-67, .cls-68, .cls-69, .cls-70, .cls-72 {
        stroke: #222;
      }

      .cls-10, .cls-21, .cls-22, .cls-23, .cls-26, .cls-27, .cls-28, .cls-29, .cls-30, .cls-35, .cls-37, .cls-38, .cls-39, .cls-42, .cls-43, .cls-44, .cls-45, .cls-47, .cls-6, .cls-67, .cls-68, .cls-69, .cls-70, .cls-72, .cls-77, .cls-8 {
        stroke-miterlimit: 10;
      }

      .cls-7 {
        fill: #c1c1c1;
      }

      .cls-8 {
        stroke: #000;
        stroke-width: 0.5px;
      }

      .cls-79, .cls-9 {
        fill: #222;
      }

      .cls-10, .cls-58 {
        stroke-width: 0.5px;
      }

      .cls-11 {
        opacity: 0.1;
      }

      .cls-12 {
        clip-path: url(#clip-path-3);
      }

      .cls-13 {
        clip-path: url(#clip-path-4);
      }

      .cls-14 {
        opacity: 0.13;
      }

      .cls-14, .cls-18 {
        mix-blend-mode: multiply;
      }

      .cls-15 {
        clip-path: url(#clip-path-5);
      }

      .cls-16, .cls-17, .cls-24, .cls-25, .cls-50, .cls-51, .cls-52, .cls-53, .cls-54, .cls-55, .cls-56, .cls-57, .cls-58, .cls-59, .cls-60, .cls-61, .cls-62, .cls-63, .cls-64, .cls-65, .cls-66 {
        stroke-linejoin: round;
      }

      .cls-16, .cls-24 {
        stroke-width: 0.6px;
      }

      .cls-19 {
        clip-path: url(#clip-path-6);
      }

      .cls-20 {
        fill: #e5e5e5;
      }

      .cls-21 {
        stroke-width: 0.6px;
      }

      .cls-22 {
        stroke-width: 0.6px;
      }

      .cls-23 {
        stroke-width: 0.6px;
      }

      .cls-24, .cls-25, .cls-39, .cls-43, .cls-44, .cls-45, .cls-50, .cls-51, .cls-52, .cls-53, .cls-54, .cls-55, .cls-56, .cls-57, .cls-58, .cls-59, .cls-60, .cls-61, .cls-62, .cls-63, .cls-64, .cls-65, .cls-66, .cls-67, .cls-68, .cls-69 {
        stroke-linecap: round;
      }

      .cls-25 {
        stroke: #e2e2e2;
        stroke-width: 0.6px;
      }

      .cls-26 {
        stroke-width: 0.5px;
      }

      .cls-27, .cls-39 {
        stroke-width: 0.5px;
      }

      .cls-28, .cls-53 {
        stroke-width: 0.5px;
      }

      .cls-29, .cls-50 {
        stroke-width: 0.5px;
      }

      .cls-30 {
        stroke-width: 0.5px;
      }

      .cls-31 {
        fill: #111;
      }

      .cls-32 {
        clip-path: url(#clip-path-8);
      }

      .cls-33 {
        clip-path: url(#clip-path-10);
      }

      .cls-34 {
        fill: #0593d1;
      }

      .cls-35 {
        stroke-width: 0.5px;
      }

      .cls-36 {
        fill: #00a4ff;
      }

      .cls-37 {
        stroke-width: 0.5px;
      }

      .cls-38 {
        stroke-width: 0.5px;
      }

      .cls-40 {
        opacity: 0.2;
      }

      .cls-41 {
        clip-path: url(#clip-path-13);
      }

      .cls-42 {
        stroke-width: 0.2px;
      }

      .cls-43 {
        stroke-width: 0.5px;
      }

      .cls-44 {
        stroke-width: 0.5px;
      }

      .cls-45 {
        stroke-width: 0.5px;
      }

      .cls-46 {
        fill: #3673ee;
      }

      .cls-47 {
        stroke-width: 0.2px;
      }

      .cls-48 {
        opacity: 0.15;
      }

      .cls-49 {
        clip-path: url(#clip-path-15);
      }

      .cls-51 {
        stroke-width: 0.5px;
      }

      .cls-52 {
        stroke-width: 0.5px;
      }

      .cls-54, .cls-67 {
        stroke-width: 0.5px;
      }

      .cls-55 {
        stroke-width: 0.5px;
      }

      .cls-56 {
        stroke-width: 0.5px;
      }

      .cls-57 {
        stroke-width: 0.5px;
      }

      .cls-59 {
        stroke-width: 0.5px;
      }

      .cls-60 {
        stroke-width: 0.5px;
      }

      .cls-61 {
        stroke-width: 0.5px;
      }

      .cls-62 {
        stroke-width: 0.5px;
      }

      .cls-63 {
        stroke-width: 0.5px;
      }

      .cls-64 {
        stroke-width: 0.5px;
      }

      .cls-65 {
        stroke-width: 0.5px;
      }

      .cls-66 {
        stroke-width: 0.5px;
      }

      .cls-68 {
        stroke-width: 0.5px;
      }

      .cls-69 {
        stroke-width: 0.5px;
      }

      .cls-70 {
        stroke-width: 0.5px;
      }

      .cls-71 {
        clip-path: url(#clip-path-16);
      }

      .cls-72 {
        stroke-width: 0.2px;
      }

      .cls-73 {
        opacity: 0.3;
      }

      .cls-74 {
        fill: #0f67f5;
      }

      .cls-75 {
        fill: #3f4f5c;
      }

      .cls-76 {
        fill: #e2e1e0;
      }

      .cls-78, .cls-79 {
        stroke: none;
      }
    </style>
    <clipPath id="clip-path">
      <rect id="사각형_235182" data-name="사각형 235182" class="cls-1" width="80" height="80"/>
    </clipPath>
    <clipPath id="clip-path-3">
      <rect id="사각형_235164" data-name="사각형 235164" class="cls-1" width="1.88" height="5.723"/>
    </clipPath>
    <clipPath id="clip-path-4">
      <rect id="사각형_235169" data-name="사각형 235169" class="cls-1" width="35.591" height="40.098"/>
    </clipPath>
    <clipPath id="clip-path-5">
      <rect id="사각형_235166" data-name="사각형 235166" class="cls-1" width="55.606" height="34.571"/>
    </clipPath>
    <clipPath id="clip-path-6">
      <rect id="사각형_235167" data-name="사각형 235167" class="cls-1" width="53.946" height="29.482"/>
    </clipPath>
    <clipPath id="clip-path-8">
      <rect id="사각형_235170" data-name="사각형 235170" class="cls-1" width="1.88" height="5.725"/>
    </clipPath>
    <clipPath id="clip-path-10">
      <rect id="사각형_235172" data-name="사각형 235172" class="cls-1" width="17.955" height="12.195"/>
    </clipPath>
    <clipPath id="clip-path-13">
      <rect id="사각형_235175" data-name="사각형 235175" class="cls-1" width="10.897" height="5.629"/>
    </clipPath>
    <clipPath id="clip-path-15">
      <rect id="사각형_235177" data-name="사각형 235177" class="cls-1" width="2.099" height="3.719"/>
    </clipPath>
    <clipPath id="clip-path-16">
      <rect id="사각형_235180" data-name="사각형 235180" class="cls-1" width="4.979" height="31.09"/>
    </clipPath>
  </defs>
  <g id="그룹_334893" data-name="그룹 334893" transform="translate(-29 -391)">
    <g id="타원_7392" data-name="타원 7392" class="cls-2" transform="translate(72 422)">
      <circle class="cls-78" cx="21.5" cy="21.5" r="21.5"/>
      <circle class="cls-1" cx="21.5" cy="21.5" r="21"/>
    </g>
    <g id="셀프세차" transform="translate(69 431)">
      <g id="셀프세차-2" data-name="셀프세차" class="cls-3" transform="translate(-40 -40)">
        <g id="Layer_1" data-name="Layer 1">
          <g id="그룹_300263" data-name="그룹 300263" class="cls-4">
            <g id="그룹_300242" data-name="그룹 300242" class="cls-4">
              <path id="패스_620286" data-name="패스 620286" class="cls-5" d="M194.251,52.654c0,2.019-.62,3.479-1.62,4.219a3.237,3.237,0,0,1-2.079,1.9,2.859,2.859,0,0,1-1.98.78,4.519,4.519,0,0,1-2.239-.68L166.459,47.4c-3.119-1.8-5.659-6.638-5.659-10.817a5.085,5.085,0,0,1,2.639-4.859,2.859,2.859,0,0,1,1.979-.78l.5.04a2.759,2.759,0,0,1,1.56-.48,4.379,4.379,0,0,1,2.159.68l19.155,11.057c3.019,1.74,5.459,6.4,5.459,10.417" transform="translate(-128.648 -24.402)"/>
              <path id="패스_620287" data-name="패스 620287" class="cls-6" d="M194.251,52.654c0,2.019-.62,3.479-1.62,4.219a3.237,3.237,0,0,1-2.079,1.9,2.859,2.859,0,0,1-1.98.78,4.519,4.519,0,0,1-2.239-.68L166.459,47.4c-3.119-1.8-5.659-6.638-5.659-10.817a5.085,5.085,0,0,1,2.639-4.859,2.859,2.859,0,0,1,1.979-.78l.5.04a2.759,2.759,0,0,1,1.56-.48,4.379,4.379,0,0,1,2.159.68l19.155,11.057C191.812,43.977,194.251,48.635,194.251,52.654Z" transform="translate(-128.648 -24.402)"/>
              <path id="패스_620288" data-name="패스 620288" class="cls-7" d="M179.126,266.142c.38.22.44.56.1.76a1.46,1.46,0,0,1-1.32-.06c-.38-.22-.44-.56-.1-.76a1.46,1.46,0,0,1,1.32.06" transform="translate(-142.076 -212.776)"/>
              <path id="패스_620289" data-name="패스 620289" class="cls-8" d="M179.126,266.142c.38.22.44.56.1.76a1.46,1.46,0,0,1-1.32-.06c-.38-.22-.44-.56-.1-.76A1.46,1.46,0,0,1,179.126,266.142Z" transform="translate(-142.076 -212.776)"/>
              <path id="패스_620290" data-name="패스 620290" class="cls-9" d="M177.6,138.432V106h1.88v32.432" transform="translate(-142.089 -84.805)"/>
              <path id="패스_620291" data-name="패스 620291" class="cls-10" d="M177.6,138.432V106h1.88v32.432" transform="translate(-142.089 -84.805)"/>
              <g id="그룹_300241" data-name="그룹 300241" class="cls-11" transform="translate(35.331 20.395)">
                <g id="그룹_300240" data-name="그룹 300240" class="cls-12">
                  <path id="패스_620292" data-name="패스 620292" d="M176.7,107.019l1.88.7V102l-1.88,1.1Z" transform="translate(-176.7 -102)"/>
                </g>
              </g>
            </g>
            <g id="그룹_300247" data-name="그룹 300247" class="cls-13" transform="translate(26.153 29.592)">
              <g id="그룹_300244" data-name="그룹 300244" class="cls-14" transform="translate(8.658 0.48)">
                <g id="그룹_300243" data-name="그룹 300243" class="cls-15">
                  <path id="패스_620293" data-name="패스 620293" d="M228.62,160.337C223.2,157,211.585,150.5,211.585,150.5l-36.891,22.014s-3,4.439,4.4,8.578c10.7,6,14.656,3.4,14.656,3.4l33.911-19.535s3.839-2.859.96-4.619" transform="translate(-174.094 -150.48)"/>
                </g>
              </g>
              <path id="패스_620294" data-name="패스 620294" d="M294.419,270.039l-.74.76-.58.32-2.5-3.919,3.359.04Z" transform="translate(-258.648 -243.366)"/>
              <path id="패스_620295" data-name="패스 620295" class="cls-9" d="M268.558,266.15l-2.439-1.4a2.251,2.251,0,0,0-2.279.24,7.166,7.166,0,0,0-3.239,5.619,2.23,2.23,0,0,0,.96,2.1l2.439,1.4a2.251,2.251,0,0,0,2.279-.24,7.166,7.166,0,0,0,3.239-5.619,2.251,2.251,0,0,0-.96-2.1" transform="translate(-234.647 -241.237)"/>
              <path id="패스_620296" data-name="패스 620296" class="cls-9" d="M279.278,273.884a7.22,7.22,0,0,1-3.239,5.619,2.3,2.3,0,0,1-2.279.24,2.27,2.27,0,0,1-.96-2.1,7.22,7.22,0,0,1,3.239-5.619,2.3,2.3,0,0,1,2.279-.24,2.27,2.27,0,0,1,.96,2.1" transform="translate(-244.407 -246.871)"/>
              <path id="패스_620297" data-name="패스 620297" class="cls-9" d="M280.518,275.3a6.623,6.623,0,0,1-3,5.2,2.139,2.139,0,0,1-2.119.22,2.115,2.115,0,0,1-.9-1.96,6.623,6.623,0,0,1,3-5.2,2.139,2.139,0,0,1,2.119-.22,2.091,2.091,0,0,1,.88,1.94" transform="translate(-245.767 -248.124)"/>
              <path id="패스_620298" data-name="패스 620298" class="cls-5" d="M283.358,280.306a4.8,4.8,0,0,1-2.179,3.779,1.363,1.363,0,0,1-2.179-1.26,4.779,4.779,0,0,1,2.179-3.779,1.363,1.363,0,0,1,2.179,1.26" transform="translate(-249.366 -252.633)"/>
              <path id="패스_620299" data-name="패스 620299" class="cls-5" d="M283.758,281.176a4.559,4.559,0,0,1-2.079,3.6,1.3,1.3,0,0,1-2.079-1.2,4.559,4.559,0,0,1,2.079-3.6,1.3,1.3,0,0,1,2.079,1.2" transform="translate(-249.846 -253.383)"/>
              <path id="패스_620300" data-name="패스 620300" class="cls-9" d="M284.2,279.6a1.207,1.207,0,0,1,.9,1.32,4.2,4.2,0,0,1-1.919,3.319,1.32,1.32,0,0,1-1.18.16,1.3,1.3,0,0,0,1.36-.08,4.259,4.259,0,0,0,1.939-3.359,1.212,1.212,0,0,0-1.1-1.36" transform="translate(-251.768 -253.287)"/>
              <path id="패스_620301" data-name="패스 620301" class="cls-16" d="M186.045,129.246c-1.16,1.08-3.019,2.7-3.019,2.7l-3.5,2.439a9.522,9.522,0,0,0-3.439,4.079,17.256,17.256,0,0,0-1.58,3.019,11.32,11.32,0,0,0,.24,3.259,3.229,3.229,0,0,0,1.12,3.079c1.56,1.62,5.339,3.8,6.638,4.579a16.687,16.687,0,0,0,6.738,2.439,7.17,7.17,0,0,0,3.619-.64v-.04c.48-2.439,1.5-5.719,4.679-7.478,2.139-1.18,4.179-.42,3.239,2.8v.1l18.955-11.2c.42-2.339,2.219-5.639,4.3-6.858s3.559-.5,3.319,2.379a4.8,4.8,0,0,0,.88-1.38,2.639,2.639,0,0,0,.04-1.66,7.019,7.019,0,0,0,0-1.66,6.392,6.392,0,0,0-.9-1.82,16.839,16.839,0,0,0-.96-2.379c-.4-.66-1.96-1.96-5.259-4.139a41.085,41.085,0,0,0-8.038-4.159,10.1,10.1,0,0,0-2.239-.46,4.994,4.994,0,0,0-1.64-.56,1.6,1.6,0,0,0-1,.28,53.048,53.048,0,0,0-6.638,2.6,91.569,91.569,0,0,0-8.078,4.7c-1.38.94-4.059,3.039-5.659,4.359h0Z" transform="translate(-165.71 -122.148)"/>
              <path id="패스_620302" data-name="패스 620302" class="cls-5" d="M186.045,129.246c-1.16,1.08-3.019,2.7-3.019,2.7l-3.5,2.439a9.522,9.522,0,0,0-3.439,4.079,17.256,17.256,0,0,0-1.58,3.019,11.32,11.32,0,0,0,.24,3.259,3.229,3.229,0,0,0,1.12,3.079c1.56,1.62,5.339,3.8,6.638,4.579a16.687,16.687,0,0,0,6.738,2.439,7.17,7.17,0,0,0,3.619-.64v-.04c.48-2.439,1.5-5.719,4.679-7.478,2.139-1.18,4.179-.42,3.239,2.8v.1l18.955-11.2c.42-2.339,2.219-5.639,4.3-6.858s3.559-.5,3.319,2.379a4.8,4.8,0,0,0,.88-1.38,2.639,2.639,0,0,0,.04-1.66,7.019,7.019,0,0,0,0-1.66,6.392,6.392,0,0,0-.9-1.82,16.839,16.839,0,0,0-.96-2.379c-.4-.66-1.96-1.96-5.259-4.139a41.085,41.085,0,0,0-8.038-4.159,10.1,10.1,0,0,0-2.239-.46,4.994,4.994,0,0,0-1.64-.56,1.6,1.6,0,0,0-1,.28,53.048,53.048,0,0,0-6.638,2.6,91.569,91.569,0,0,0-8.078,4.7c-1.38.94-4.059,3.039-5.659,4.359h0Z" transform="translate(-165.71 -122.148)"/>
              <path id="패스_620303" data-name="패스 620303" class="cls-17" d="M186.045,129.246c-1.16,1.08-3.019,2.7-3.019,2.7l-3.5,2.439a9.522,9.522,0,0,0-3.439,4.079,17.256,17.256,0,0,0-1.58,3.019,11.32,11.32,0,0,0,.24,3.259,3.229,3.229,0,0,0,1.12,3.079c1.56,1.62,5.339,3.8,6.638,4.579a16.687,16.687,0,0,0,6.738,2.439,7.17,7.17,0,0,0,3.619-.64v-.04c.48-2.439,1.5-5.719,4.679-7.478,2.139-1.18,4.179-.42,3.239,2.8v.1l18.955-11.2c.42-2.339,2.219-5.639,4.3-6.858s3.559-.5,3.319,2.379a4.8,4.8,0,0,0,.88-1.38,2.639,2.639,0,0,0,.04-1.66,7.019,7.019,0,0,0,0-1.66,6.392,6.392,0,0,0-.9-1.82,16.839,16.839,0,0,0-.96-2.379c-.4-.66-1.96-1.96-5.259-4.139a41.085,41.085,0,0,0-8.038-4.159,10.1,10.1,0,0,0-2.239-.46,4.994,4.994,0,0,0-1.64-.56,1.6,1.6,0,0,0-1,.28,53.048,53.048,0,0,0-6.638,2.6,91.569,91.569,0,0,0-8.078,4.7c-1.38.94-4.059,3.039-5.659,4.359h0Z" transform="translate(-165.71 -122.148)"/>
              <g id="그룹_300246" data-name="그룹 300246" class="cls-18" transform="translate(8.718 3.419)">
                <g id="그룹_300245" data-name="그룹 300245" class="cls-19">
                  <path id="패스_620304" data-name="패스 620304" class="cls-20" d="M228.378,171.318l-.66,1.66s-.04-2.439-3.2-1.979-4.8,6.918-4.8,6.918l-18.935,11.1a2.123,2.123,0,0,0-1.54-3.2c-2.819-.64-5.239,4.059-5.239,4.059l-1.14,3.879-1.76.66s-3.219.52-3.739-.2h0c-4.259-1.9-8.238-3.959-11.2-6.558,0,0-.82-.12-1.32-1.7a20.266,20.266,0,0,1-.38-3.659,4.119,4.119,0,0,1,.04-1.28,18.062,18.062,0,0,1,1.58-3.019l.14-.3,1.12,4.919.5,1.44c-.74,1.18,6.738,5.479,10.177,6.438.36-1.22.7-2.239.7-2.239a20.014,20.014,0,0,0,4.059-.78c2.119-.66,3-3.8,3-3.8l6.138-3.639,1.52-.9,2.659.38.54-.48-.36-1.66,7.7-5.319c4.839-2.919,5.739-6.958,5.739-6.958l5.519.74-.7.9,2.179.88.92-.34.64,1.44Z" transform="translate(-174.432 -165.1)"/>
                </g>
              </g>
              <path id="패스_620305" data-name="패스 620305" class="cls-9" d="M230.194,173.2a3.119,3.119,0,0,0,2.319-1.04,16.6,16.6,0,0,0,1.08-1.28c.7-.94,4.3-6.978,5.319-8.2,0,0-4.619-2.419-6.618-3.659s-5.139-3.419-5.139-3.419-5.059,3.739-6.618,5.1-3.879,3.219-3.879,3.219a2.844,2.844,0,0,0,.36,2.6c.9,1.46,3.339,3.2,5.339,4.259,1.66.88,5.179,2.439,7.818,2.459" transform="translate(-199.362 -154.08)"/>
              <path id="패스_620306" data-name="패스 620306" class="cls-9" d="M233.222,262.247a.4.4,0,0,1-.04-.74l4.159-1.52c1.4-.5,3.559-1.4,4.2-1.64s1.16-.4,1.02.22a6.282,6.282,0,0,1-3.439,3.559,8.3,8.3,0,0,1-5.919.14" transform="translate(-212.527 -236.114)"/>
              <path id="패스_620307" data-name="패스 620307" class="cls-21" d="M233.222,262.247a.4.4,0,0,1-.04-.74l4.159-1.52c1.4-.5,3.559-1.4,4.2-1.64s1.16-.4,1.02.22a6.282,6.282,0,0,1-3.439,3.559A8.254,8.254,0,0,1,233.222,262.247Z" transform="translate(-212.527 -236.114)"/>
              <path id="패스_620308" data-name="패스 620308" class="cls-9" d="M184.957,208.94h-.04a9.191,9.191,0,0,0-3.319,3.839l-.06.12h0a5.207,5.207,0,0,0-.3,2.279,4.275,4.275,0,0,0,1.14,2.1.18.18,0,0,0,.3-.14,12.308,12.308,0,0,1-.02-3.539,18.05,18.05,0,0,1,2.3-4.7" transform="translate(-171.121 -196.723)"/>
              <path id="패스_620309" data-name="패스 620309" class="cls-22" d="M184.957,209.1h-.04a9.191,9.191,0,0,0-3.319,3.839l-.06.12h0a5.207,5.207,0,0,0-.3,2.279,4.275,4.275,0,0,0,1.14,2.1.18.18,0,0,0,.3-.14,12.308,12.308,0,0,1-.02-3.539A19.1,19.1,0,0,1,184.957,209.1Z" transform="translate(-171.121 -196.883)"/>
              <path id="패스_620310" data-name="패스 620310" class="cls-9" d="M181.889,256.653a14.655,14.655,0,0,1-2.139-1.72,5.968,5.968,0,0,1-1.1-2.579c-.1-.58-.14-1.2.02-1.32s.66.44,1.28,1,1.74,1.44,1.74,1.44a3.04,3.04,0,0,0,.82.88,31.936,31.936,0,0,0,3.2,1.88,4.69,4.69,0,0,0,1.92.54s1.44.58,2.539.96,2.239.56,2.319,1.16-.46.96-1.1,1.34a3.744,3.744,0,0,1-2.739.04,6.737,6.737,0,0,1-1.62-.68" transform="translate(-169.012 -230.42)"/>
              <path id="패스_620311" data-name="패스 620311" class="cls-9" d="M327.317,159.395c-.3-.38-3.8.36-5.9,1.38a35.609,35.609,0,0,0-5.938,3.819c-1.24,1.02-4.579,6.318-5.559,7.918,0,0-1.24,2.059-.84,2.719s1.06.18,1.86-.32l.16-.1a.62.62,0,0,1,.02-.3,19.779,19.779,0,0,1,1.74-1.76,1.175,1.175,0,0,1,1.22.08l8.338-5.559s3.339-2.7,4.319-4.6.88-2.9.58-3.279" transform="translate(-273.371 -157.036)"/>
              <path id="패스_620312" data-name="패스 620312" class="cls-9" d="M324.78,183.557a1.18,1.18,0,0,1,1.08.02l7.158-4.759c-.26-1.2-1.02-4.5-1.56-6.018a38.725,38.725,0,0,0-3.959,2.719,30.469,30.469,0,0,0-3.6,4.819l.22,3.819a5.184,5.184,0,0,1,.66-.6" transform="translate(-285.29 -167.841)"/>
              <path id="패스_620313" data-name="패스 620313" class="cls-9" d="M311.664,217.8l.76-.82-.26-3.579c-.58.9-1.12,1.76-1.56,2.479s-1.1,2.139-.84,2.559a.44.44,0,0,0,.38.24,2.758,2.758,0,0,0,1.12-.5l.16-.1.22-.14v-.12" transform="translate(-273.934 -200.323)"/>
              <path id="패스_620314" data-name="패스 620314" class="cls-5" d="M316.8,225.953l2.339-1.06a.6.6,0,0,1,.78.28l.24.48a1.559,1.559,0,0,1,.12,1.18c-.1.34-.3.56-.54.48l-.86-.28a3.459,3.459,0,0,0-1.8-.1h-.02a.52.52,0,0,1-.28-.98" transform="translate(-279.367 -209.477)"/>
              <path id="패스_620315" data-name="패스 620315" class="cls-23" d="M316.8,225.953l2.339-1.06a.6.6,0,0,1,.78.28l.24.48a1.559,1.559,0,0,1,.12,1.18c-.1.34-.3.56-.54.48l-.86-.28a3.459,3.459,0,0,0-1.8-.1h-.02a.52.52,0,0,1-.28-.98Z" transform="translate(-279.367 -209.477)"/>
              <path id="패스_620316" data-name="패스 620316" class="cls-5" d="M261.34,265.82a.72.72,0,1,1-.72-.72.72.72,0,0,1,.72.72" transform="translate(-234.087 -241.686)"/>
              <path id="패스_620317" data-name="패스 620317" class="cls-5" d="M250.839,267.51a1.02,1.02,0,1,1-1.44,0,1.02,1.02,0,0,1,1.44,0" transform="translate(-225.446 -243.376)"/>
              <path id="패스_620318" data-name="패스 620318" class="cls-22" d="M184.957,209.1h-.04a9.191,9.191,0,0,0-3.319,3.839l-.06.12h0a5.207,5.207,0,0,0-.3,2.279,4.275,4.275,0,0,0,1.14,2.1.18.18,0,0,0,.3-.14,12.308,12.308,0,0,1-.02-3.539A19.1,19.1,0,0,1,184.957,209.1Z" transform="translate(-171.121 -196.883)"/>
              <path id="패스_620319" data-name="패스 620319" class="cls-21" d="M233.222,262.247a.4.4,0,0,1-.04-.74l4.159-1.52c1.4-.5,3.559-1.4,4.2-1.64s1.16-.4,1.02.22a6.282,6.282,0,0,1-3.439,3.559A8.254,8.254,0,0,1,233.222,262.247Z" transform="translate(-212.527 -236.114)"/>
              <path id="패스_620320" data-name="패스 620320" class="cls-9" d="M232.857,171.756a40.557,40.557,0,0,1-8.038-3.579A15.3,15.3,0,0,1,219.5,163.5a1.739,1.739,0,0,1,.18-.28c.02-.02,1.8-1.76,3.179-3.259a68.37,68.37,0,0,1,6.4-5.259c.52.36,3.6,2.559,5.379,3.679,1.48.94,4.459,2.539,5.859,3.279a.58.58,0,0,1,.2.86l-.78,1.16q-1.939,3-4.019,5.9a5.7,5.7,0,0,1-3.039,2.179" transform="translate(-201.765 -153.36)"/>
              <path id="패스_620321" data-name="패스 620321" class="cls-24" d="M228.517,155.5c.52.36,3.6,2.419,5.379,3.539,1.48.94,4.459,2.539,5.859,3.279a.58.58,0,0,1,.2.86l-.78,1.16q-1.94,3-4.019,5.9a5.7,5.7,0,0,1-3.019,2.159,40.559,40.559,0,0,1-8.038-3.579,16.377,16.377,0,0,1-5.5-4.919" transform="translate(-201.044 -154)"/>
              <path id="패스_620322" data-name="패스 620322" class="cls-25" d="M193.6,270.5a15.594,15.594,0,0,0,5.179,3" transform="translate(-181.043 -246.006)"/>
              <rect id="사각형_235168" data-name="사각형 235168" class="cls-9" width="2.479" height="2.683" transform="translate(34.131 4.899)"/>
            </g>
            <g id="그룹_300250" data-name="그룹 300250" class="cls-4">
              <path id="패스_620323" data-name="패스 620323" class="cls-9" d="M308.42,342.741c.4.22.44.58.1.78a1.5,1.5,0,0,1-1.34-.06c-.4-.22-.44-.58-.1-.78a1.5,1.5,0,0,1,1.34.06" transform="translate(-245.496 -274.059)"/>
              <path id="패스_620324" data-name="패스 620324" class="cls-26" d="M308.42,342.741c.4.22.44.58.1.78a1.5,1.5,0,0,1-1.34-.06c-.4-.22-.44-.58-.1-.78A1.5,1.5,0,0,1,308.42,342.741Z" transform="translate(-245.496 -274.059)"/>
              <path id="패스_620325" data-name="패스 620325" class="cls-9" d="M306.8,198.971V162.5h1.88v36.471" transform="translate(-245.456 -130.008)"/>
              <path id="패스_620326" data-name="패스 620326" class="cls-27" d="M306.8,198.971V162.5h1.88v36.471" transform="translate(-245.456 -130.008)"/>
              <path id="패스_620327" data-name="패스 620327" class="cls-9" d="M202.314,56.87,183.159,45.812c-3.019-1.74-5.459-6.4-5.459-10.417s2.459-5.859,5.459-4.119l19.155,11.057c3.019,1.74,5.459,6.4,5.459,10.417s-2.439,5.859-5.459,4.119" transform="translate(-142.169 -24.498)"/>
              <path id="패스_620328" data-name="패스 620328" class="cls-28" d="M202.314,56.87,183.159,45.812c-3.019-1.74-5.459-6.4-5.459-10.417s2.459-5.859,5.459-4.119l19.155,11.057c3.019,1.74,5.459,6.4,5.459,10.417S205.333,58.609,202.314,56.87Z" transform="translate(-142.169 -24.498)"/>
              <path id="패스_620329" data-name="패스 620329" class="cls-20" d="M192.333,60.07,172.459,48.593c-3.119-1.8-5.659-6.658-5.659-10.817s2.539-6.078,5.659-4.279l19.875,11.477c3.119,1.8,5.659,6.658,5.659,10.817s-2.539,6.078-5.659,4.279" transform="translate(-133.448 -26.258)"/>
              <path id="패스_620330" data-name="패스 620330" class="cls-29" d="M192.333,60.07,172.459,48.593c-3.119-1.8-5.659-6.658-5.659-10.817s2.539-6.078,5.659-4.279l19.875,11.477c3.119,1.8,5.659,6.658,5.659,10.817S195.473,61.869,192.333,60.07Z" transform="translate(-133.448 -26.258)"/>
              <path id="패스_620331" data-name="패스 620331" class="cls-5" d="M186.333,63.37,166.459,51.893c-3.119-1.8-5.659-6.658-5.659-10.817S163.339,35,166.459,36.8l19.875,11.477c3.119,1.8,5.659,6.658,5.659,10.817s-2.539,6.078-5.659,4.279" transform="translate(-128.648 -28.898)"/>
              <path id="패스_620332" data-name="패스 620332" class="cls-30" d="M186.333,63.37,166.459,51.893c-3.119-1.8-5.659-6.658-5.659-10.817S163.339,35,166.459,36.8l19.875,11.477c3.119,1.8,5.659,6.658,5.659,10.817S189.453,65.189,186.333,63.37Z" transform="translate(-128.648 -28.898)"/>
              <path id="패스_620333" data-name="패스 620333" class="cls-7" d="M186.1,63.8l2.4.8v5.779l-1.28-.74V65.6l-1.12-.32Z" transform="translate(-148.889 -51.043)"/>
              <path id="패스_620334" data-name="패스 620334" class="cls-7" d="M203.24,77.438a4,4,0,0,0,.44-.42.76.76,0,0,0,.16-.52,1.02,1.02,0,0,0-.1-.44.8.8,0,0,0-.34-.36.26.26,0,0,0-.36.02.72.72,0,0,0-.14.5l-1.3-.76a2.219,2.219,0,0,1,.2-1.02.88.88,0,0,1,.62-.5,1.616,1.616,0,0,1,1.04.26,3.3,3.3,0,0,1,.96.82,4,4,0,0,1,.6,1.06,2.939,2.939,0,0,1,.2,1.04,1.28,1.28,0,0,1-.18.72,1.1,1.1,0,0,1-.46.38l-.76.34,1.56.9v1.68L201.4,78.858Z" transform="translate(-161.13 -59.143)"/>
              <path id="패스_620335" data-name="패스 620335" class="cls-7" d="M237.079,94.019a2.379,2.379,0,0,1,.24,1.06q0,.84-.46.92a2.158,2.158,0,0,1-1.3-.4l-1.96-1.14V88.8l1.84,1.06a3.978,3.978,0,0,1,.84.64,3.1,3.1,0,0,1,.6.82,2.12,2.12,0,0,1,.22.94,1.02,1.02,0,0,1-.16.62.58.58,0,0,1-.42.24,3.739,3.739,0,0,1,.6.88m-1.84-2.039q.22.14.34.06a.275.275,0,0,0,.1-.28.76.76,0,0,0-.44-.68l-.34-.2v.88Zm-.34,1.9.46.26.28.12a.22.22,0,0,0,.2-.02q.08-.06.08-.28a.62.62,0,0,0-.16-.46,1.859,1.859,0,0,0-.4-.3l-.46-.26Z" transform="translate(-186.892 -71.045)"/>
              <path id="패스_620336" data-name="패스 620336" class="cls-7" d="M254.32,110.359l-1.52-.88,2.4-4.679,2.4,7.438-1.52-.88-.3-.9-1.16-.66Zm1.24-1.28-.36-1.3-.36.88Z" transform="translate(-202.253 -83.845)"/>
              <path id="패스_620337" data-name="패스 620337" class="cls-7" d="M278.719,114.959,277.2,117.5v2.219l-1.36-.78v-2.2L274.3,112.4l1.56.9.66,2.2.66-1.44Z" transform="translate(-219.454 -89.926)"/>
              <path id="패스_620338" data-name="패스 620338" class="cls-31" d="M184.1,63.8l2.4.8v5.779l-1.28-.74V65.6l-1.12-.32Z" transform="translate(-147.289 -51.043)"/>
              <path id="패스_620339" data-name="패스 620339" class="cls-31" d="M201.22,77.438a4.04,4.04,0,0,0,.44-.42.76.76,0,0,0,.16-.52,1.02,1.02,0,0,0-.1-.44.78.78,0,0,0-.34-.36.26.26,0,0,0-.36.02.72.72,0,0,0-.14.5l-1.3-.76a2.219,2.219,0,0,1,.2-1.02.88.88,0,0,1,.62-.5,1.616,1.616,0,0,1,1.04.26,3.3,3.3,0,0,1,.96.82,4,4,0,0,1,.6,1.06,2.939,2.939,0,0,1,.2,1.04,1.28,1.28,0,0,1-.18.72,1.1,1.1,0,0,1-.46.38l-.76.34,1.56.9v1.68L199.4,78.858Z" transform="translate(-159.53 -59.143)"/>
              <path id="패스_620340" data-name="패스 620340" class="cls-31" d="M235.079,94.019a2.379,2.379,0,0,1,.24,1.06q0,.84-.46.92a2.158,2.158,0,0,1-1.3-.4l-1.96-1.14V88.8l1.84,1.06a3.979,3.979,0,0,1,.84.64,3.1,3.1,0,0,1,.6.82,2.119,2.119,0,0,1,.22.94,1.02,1.02,0,0,1-.16.62.58.58,0,0,1-.42.24,3.739,3.739,0,0,1,.6.88m-1.84-2.039q.24.14.34.06a.34.34,0,0,0,.1-.28.76.76,0,0,0-.44-.68l-.34-.2v.88Zm-.34,1.9.46.26.28.12a.22.22,0,0,0,.2-.02q.08-.06.08-.28a.62.62,0,0,0-.16-.46,1.859,1.859,0,0,0-.4-.3l-.46-.26Z" transform="translate(-185.292 -71.045)"/>
              <path id="패스_620341" data-name="패스 620341" class="cls-31" d="M252.32,110.359l-1.52-.88,2.4-4.679,2.4,7.438-1.52-.88-.3-.9-1.16-.66Zm1.24-1.28-.36-1.3-.36.88Z" transform="translate(-200.653 -83.845)"/>
              <path id="패스_620342" data-name="패스 620342" class="cls-31" d="M276.719,114.959,275.2,117.5v2.219l-1.36-.78v-2.2L272.3,112.4l1.54.9.68,2.2.66-1.44Z" transform="translate(-217.854 -89.926)"/>
              <g id="그룹_300249" data-name="그룹 300249" class="cls-11" transform="translate(61.344 33.691)">
                <g id="그룹_300248" data-name="그룹 300248" class="cls-32">
                  <path id="패스_620343" data-name="패스 620343" d="M306.8,173.519l1.88.7V168.5l-1.88,1.12Z" transform="translate(-306.8 -168.5)"/>
                </g>
              </g>
            </g>
            <g id="그룹_300253" data-name="그룹 300253" class="cls-4">
              <g id="그룹_300252" data-name="그룹 300252" class="cls-11" transform="translate(35.311 39.97)">
                <g id="그룹_300251" data-name="그룹 300251" class="cls-33">
                  <path id="패스_620344" data-name="패스 620344" class="cls-31" d="M192.5,208.236c-.16,1.1.54,1.36.18,2.1a.7.7,0,0,1-.14.22c-.46.46-1.58.22-3.539.96-1.2.46-1.32.74-1.879.7-1.38-.1-2.239-1.92-2.7-2.7-.98-1.66-2.639-4.139-7.518-5.339a.42.42,0,0,1,.08-.82l8.078.06a5.9,5.9,0,0,0,3.559-1.18c.48-.42,1.2-1.42,1.78-1.7s2.439-.88,3.4-.12.86,4.4-.48,6.2a3.4,3.4,0,0,0-.82,1.62" transform="translate(-176.606 -200.018)"/>
                </g>
              </g>
              <path id="패스_620345" data-name="패스 620345" class="cls-34" d="M188.108,222.147c-.46.46-1.58.22-3.539.96-1.2.46-1.32.74-1.88.7-1.38-.1-2.239-1.92-2.7-2.7-.98-1.66-3.059-3.6-7.918-4.8a.42.42,0,0,1-.3-.48c.12.02.44-.38.58-.34,8.758,1.74,13.776,4.219,15.336,5.419.38.28.44,1.26.44,1.26" transform="translate(-137.421 -172.4)"/>
              <path id="패스_620346" data-name="패스 620346" class="cls-35" d="M188.108,222.147c-.46.46-1.58.22-3.539.96-1.2.46-1.32.74-1.88.7-1.38-.1-2.239-1.92-2.7-2.7-.98-1.66-3.059-3.6-7.918-4.8a.42.42,0,0,1-.3-.48c.12.02.44-.38.58-.34,8.758,1.74,13.776,4.219,15.336,5.419C188.028,221.187,188.108,222.147,188.108,222.147Z" transform="translate(-137.421 -172.4)"/>
              <path id="패스_620347" data-name="패스 620347" class="cls-36" d="M171.7,200.437a.42.42,0,0,1,.38-.34l8.478-.48a5.9,5.9,0,0,0,3.559-1.18c.48-.42,1.2-1.42,1.78-1.7s2.439-.88,3.4-.12.86,4.4-.48,6.2a3.4,3.4,0,0,0-.82,1.62c-.16,1.1.54,1.36.18,2.1a.7.7,0,0,1-.14.22" transform="translate(-137.369 -157.008)"/>
              <path id="패스_620348" data-name="패스 620348" class="cls-37" d="M171.7,200.437a.42.42,0,0,1,.38-.34l8.478-.48a5.9,5.9,0,0,0,3.559-1.18c.48-.42,1.2-1.42,1.78-1.7s2.439-.88,3.4-.12.86,4.4-.48,6.2a3.4,3.4,0,0,0-.82,1.62c-.16,1.1.54,1.36.18,2.1a.7.7,0,0,1-.14.22" transform="translate(-137.369 -157.008)"/>
              <path id="패스_620349" data-name="패스 620349" class="cls-5" d="M238.574,200.592a5.533,5.533,0,0,0-4.119,2.019.08.08,0,0,0,.08.12l4.039-2.039a.06.06,0,0,0-.02-.1" transform="translate(-187.567 -160.482)"/>
              <path id="패스_620350" data-name="패스 620350" class="cls-5" d="M196.951,225.23a41.847,41.847,0,0,1,9.378,3.6s-13.6-4.8-9.378-3.6" transform="translate(-156.922 -180.041)"/>
            </g>
            <g id="그룹_300254" data-name="그룹 300254" class="cls-4">
              <path id="패스_620351" data-name="패스 620351" class="cls-9" d="M159.292,214.363l-1.8-.46a.34.34,0,1,1,.16-.66l1.8.46a.34.34,0,0,1-.16.66" transform="translate(-125.781 -170.594)"/>
              <path id="패스_620352" data-name="패스 620352" class="cls-9" d="M144.86,208.021l-.3-.32a1.22,1.22,0,0,0-1.28-.34l-.38.12" transform="translate(-114.327 -165.852)"/>
              <path id="패스_620353" data-name="패스 620353" class="cls-38" d="M112.1,240.6c1.64,9.8,6.318,16.776,11.717,17.516a7.519,7.519,0,0,0,3.219-.3" transform="translate(-89.686 -192.492)"/>
              <path id="패스_620354" data-name="패스 620354" class="cls-39" d="M165.3,299.8c.08.3.58.56,1.12.54s1.1-.34,1-.72a1.97,1.97,0,0,0-1.74-.86c-.82,0-1.72.52-1.54,1.12a3.055,3.055,0,0,0,2.719,1.34c1.62-.02,2.7-.8,2.419-1.74s-2.259-2.1-4.259-2.079c-2.519.04-4.2,1.26-3.779,2.739.54,1.84,3.519,3.3,6.658,3.259,3.939-.06,6.578-1.96,5.9-4.279l-.16-.38" transform="translate(-128.951 -237.934)"/>
            </g>
            <g id="그룹_300257" data-name="그룹 300257" class="cls-4">
              <g id="그룹_300256" data-name="그룹 300256" class="cls-40" transform="translate(16.896 63.504)">
                <g id="그룹_300255" data-name="그룹 300255" class="cls-41">
                  <path id="패스_620355" data-name="패스 620355" class="cls-9" d="M95.477,320.319c0,1.56-2.439,2.819-5.439,2.819s-5.439-1.26-5.439-2.819,2.439-2.819,5.439-2.819,5.439,1.26,5.439,2.819" transform="translate(-84.58 -317.52)"/>
                </g>
              </g>
              <path id="패스_620356" data-name="패스 620356" class="cls-5" d="M123,203.119l.74-.56.34-.82-.44-.98-.16-.36h.2l3.059,1.46,1.8.66h.74l.42-.08.66.58s.22.4.06.5l.56.6-1.54.8-.58-.3-.66-.86-3.879-.12Z" transform="translate(-98.406 -160.33)"/>
            </g>
            <g id="그룹_300262" data-name="그룹 300262" class="cls-4">
              <path id="패스_620357" data-name="패스 620357" class="cls-9" d="M101.039,321.46a1.04,1.04,0,0,1-.44.84h-.04l-3.119,1.959h-.02a1.32,1.32,0,0,1-.62.16,1.137,1.137,0,0,1-1.2-1.02V321.36a1.48,1.48,0,0,1,.2-.74h.02l.08.54h0a.933.933,0,0,0,1.84-.08l.04-.28h.04l1.74-.4h.26a1.163,1.163,0,0,1,1.22,1.08" transform="translate(-76.485 -256.336)"/>
              <path id="패스_620358" data-name="패스 620358" class="cls-42" d="M101.039,321.457a1.04,1.04,0,0,1-.44.84h-.04l-3.119,1.959h-.02a1.32,1.32,0,0,1-.62.16,1.137,1.137,0,0,1-1.2-1.02v-2.039a1.48,1.48,0,0,1,.2-.74h.02l.08.54h0a.933.933,0,0,0,1.84-.08l.04-.28h.04l1.74-.4h.26A1.122,1.122,0,0,1,101.039,321.457Z" transform="translate(-76.485 -256.334)"/>
              <path id="패스_620359" data-name="패스 620359" class="cls-43" d="M120,213.5l1.16.34a4.139,4.139,0,0,0,1.08.18l4.079.16a.48.48,0,0,0,.2-.6" transform="translate(-96.006 -170.811)"/>
              <path id="패스_620360" data-name="패스 620360" class="cls-44" d="M120.5,198l2.679,1.32,3.479,1.38.78-.18a.46.46,0,0,1,.42.12l.56.54" transform="translate(-96.406 -158.41)"/>
              <path id="패스_620361" data-name="패스 620361" class="cls-45" d="M148.6,216.02l.84.98a.58.58,0,0,0,.7.12l1.18-.66a.16.16,0,0,0,0-.28l-.66-.38" transform="translate(-118.888 -172.651)"/>
              <path id="패스_620362" data-name="패스 620362" class="cls-46" d="M83.8,239.6,83,254.136a.959.959,0,0,1-.04.3h0a1.26,1.26,0,0,1-2.339-.06h0a.979.979,0,0,1-.02-.24l-.14-1.26c0,.06.04.16.04.22h0a1.3,1.3,0,0,1-2.459.02v-.18h0L76.84,239.5l-.04-.4.18.22c.1,1.2,1.72,1.9,3.519,1.9s3.119-.86,3.339-1.98Z" transform="translate(-61.444 -191.292)"/>
              <line id="선_85432" data-name="선 85432" class="cls-5" x1="0.14" y1="3.139" transform="translate(15.216 39.97)"/>
              <path id="패스_620363" data-name="패스 620363" class="cls-5" d="M85.419,309.1l-.16,1.98a.894.894,0,0,1-.94.82.92.92,0,0,1-.92-.64h0v-.14l-.4-2a1.3,1.3,0,0,0,2.459-.02" transform="translate(-66.404 -247.296)"/>
              <path id="패스_620364" data-name="패스 620364" class="cls-9" d="M86.972,314.8h0l.2,1.2h-.02a1.48,1.48,0,0,0-.2.74v1.56h-.1a1.3,1.3,0,0,1-.78.24,1.139,1.139,0,0,1-1.2-1.04h0v-.14a7.517,7.517,0,0,1-.06-1.68h.02a.92.92,0,0,0,.92.64.881.881,0,0,0,.94-.82" transform="translate(-67.837 -251.856)"/>
              <path id="패스_620365" data-name="패스 620365" class="cls-47" d="M86.972,314.8h0l.2,1.2h-.02a1.48,1.48,0,0,0-.2.74v1.56h-.1a1.3,1.3,0,0,1-.78.24,1.139,1.139,0,0,1-1.2-1.04h0v-.14a7.517,7.517,0,0,1-.06-1.68h.02a.92.92,0,0,0,.92.64.881.881,0,0,0,.94-.82" transform="translate(-67.837 -251.856)"/>
              <path id="패스_620366" data-name="패스 620366" class="cls-5" d="M79.589,194.157l.08.88c-.22,1.12-1.9,2.239-3.6,2.239s-3.279-.96-3.359-2.159h-.04l-.24-4.659h0a5.619,5.619,0,0,1-1.08-3.7v-.34a2.259,2.259,0,0,1,1.86-2.079l.76-.14.46.18c-.04.48-.22.92,1.14,1.04s1.56-.12,1.8-.54a.36.36,0,0,1,.36-.18h.06l.08.04,3.519,2.379.28.18a1.62,1.62,0,0,1-1.04,2.859h-.02l-.72-.28h0l-.4-.18Z" transform="translate(-57.075 -147.369)"/>
              <g id="그룹_300259" data-name="그룹 300259" class="cls-48" transform="translate(20.255 41.689)">
                <g id="그룹_300258" data-name="그룹 300258" class="cls-49">
                  <path id="패스_620367" data-name="패스 620367" class="cls-9" d="M101.3,208.535h0a3.3,3.3,0,0,1,2.1.5v3.2Z" transform="translate(-101.3 -208.515)"/>
                </g>
              </g>
              <path id="패스_620368" data-name="패스 620368" class="cls-9" d="M89.5,261l.94,1.08-.2-1.02Z" transform="translate(-71.605 -208.813)"/>
              <line id="선_85433" data-name="선 85433" class="cls-50" x1="0.04" y1="0.02" transform="translate(24.594 39.95)"/>
              <path id="패스_620369" data-name="패스 620369" class="cls-51" d="M121.88,199.08l-.28-.18Z" transform="translate(-97.286 -159.13)"/>
              <path id="패스_620370" data-name="패스 620370" class="cls-52" d="M102.2,208.359c.66-.16,1.16.26,1.78.52" transform="translate(-81.765 -166.669)"/>
              <line id="선_85434" data-name="선 85434" class="cls-53" y1="15.156" x2="1.04" transform="translate(21.535 47.688)"/>
              <line id="선_85435" data-name="선 85435" class="cls-54" x1="1.26" y1="13.736" transform="translate(15.276 47.808)"/>
              <line id="선_85436" data-name="선 85436" class="cls-50" x1="0.14" y1="3.139" transform="translate(15.216 39.97)"/>
              <path id="패스_620371" data-name="패스 620371" class="cls-55" d="M84.872,321.72v-.14a7.5,7.5,0,0,1-.06-1.68" transform="translate(-67.836 -255.936)"/>
              <path id="패스_620372" data-name="패스 620372" class="cls-56" d="M83.718,234.3a1.839,1.839,0,0,1,.08.5,1.719,1.719,0,0,1-.04.34c-.24,1.26-1.76,2.219-3.619,2.219S76.6,236.3,76.5,234.94v-.14" transform="translate(-61.204 -187.452)"/>
              <path id="패스_620373" data-name="패스 620373" class="cls-57" d="M97.539,314.3a1.15,1.15,0,0,1-1.22,1.08A1.248,1.248,0,0,1,95,314.3" transform="translate(-76.005 -251.456)"/>
              <path id="패스_620374" data-name="패스 620374" class="cls-58" d="M85.139,308.46a1.26,1.26,0,0,1-1.18.74,1.19,1.19,0,0,1-1.26-1.1" transform="translate(-66.164 -246.496)"/>
              <path id="패스_620375" data-name="패스 620375" class="cls-59" d="M86.66,318.4a.906.906,0,0,1-.98.82.921.921,0,0,1-.98-.72" transform="translate(-67.764 -254.736)"/>
              <path id="패스_620376" data-name="패스 620376" class="cls-60" d="M99.04,323.8a.933.933,0,0,1-1.84.08" transform="translate(-77.765 -259.056)"/>
              <path id="패스_620377" data-name="패스 620377" class="cls-61" d="M97.44,335.4a1.32,1.32,0,0,1-.62.16,1.163,1.163,0,0,1-1.22-1.08.979.979,0,0,1,.02-.18" transform="translate(-76.485 -267.457)"/>
              <path id="패스_620378" data-name="패스 620378" class="cls-62" d="M116,320.4h.16a1.163,1.163,0,0,1,1.22,1.08,1.04,1.04,0,0,1-.44.82" transform="translate(-92.806 -256.336)"/>
              <path id="패스_620379" data-name="패스 620379" class="cls-63" d="M87.1,329.1a1.3,1.3,0,0,1-.78.24,1.172,1.172,0,0,1-1.22-1.04" transform="translate(-68.084 -262.657)"/>
              <line id="선_85437" data-name="선 85437" class="cls-53" x1="0.22" y2="1.6" transform="translate(21.275 63.144)"/>
              <path id="패스_620380" data-name="패스 620380" class="cls-64" d="M90.96,271.236l-.36-10.077a.68.68,0,0,0-.7-.66" transform="translate(-71.925 -208.412)"/>
              <line id="선_85438" data-name="선 85438" class="cls-53" y1="1.96" x2="3.119" transform="translate(20.975 65.983)"/>
              <line id="선_85439" data-name="선 85439" class="cls-53" x1="1.76" y2="0.38" transform="translate(21.335 64.084)"/>
              <path id="패스_620381" data-name="패스 620381" class="cls-65" d="M95.6,324.7V322.64a1.5,1.5,0,0,1,.14-.64" transform="translate(-76.485 -257.616)"/>
              <line id="선_85440" data-name="선 85440" class="cls-66" x1="0.42" y1="2.119" transform="translate(16.536 61.704)"/>
              <line id="선_85441" data-name="선 85441" class="cls-53" y1="2.099" x2="0.08" transform="translate(18.895 61.704)"/>
              <path id="패스_620382" data-name="패스 620382" class="cls-66" d="M72.346,195.417l.08-4.379h0a5.619,5.619,0,0,1-1.08-3.719v-.34a2.259,2.259,0,0,1,1.86-2.079h1.2c.22.4-.3.84,1.04.94a2.26,2.26,0,0,0,1.9-.44c.6-.3,4.019,2.259,4.019,2.259l.28.18a1.62,1.62,0,0,1,.5,1.7,1.46,1.46,0,0,1-2.039.92l-.84-.36.28,4.579" transform="translate(-57.07 -147.929)"/>
              <line id="선_85442" data-name="선 85442" class="cls-5" x1="0.06" y1="0.72" transform="translate(20.215 36.651)"/>
              <line id="선_85443" data-name="선 85443" class="cls-67" x1="0.06" y1="0.72" transform="translate(20.215 36.651)"/>
              <path id="패스_620383" data-name="패스 620383" class="cls-9" d="M99.976,174.976l-.28-.04a.58.58,0,0,1-.52-.66l.16-1.28a.58.58,0,0,1,.66-.52l.28.04a.58.58,0,0,1,.52.66l-.16,1.28a.58.58,0,0,1-.66.52" transform="translate(-79.341 -137.985)"/>
              <path id="패스_620384" data-name="패스 620384" class="cls-9" d="M98.348,147.535a1.7,1.7,0,1,0,1.88-1.48,1.7,1.7,0,0,0-1.88,1.48" transform="translate(-78.673 -116.843)"/>
              <path id="패스_620385" data-name="패스 620385" class="cls-5" d="M88.939,157.937l.3.04a1.34,1.34,0,0,0,1.5-1.18l.4-3.279a1.8,1.8,0,0,0-3.559-.42l-.56,4.619-.12.76" transform="translate(-69.524 -121.346)"/>
              <path id="패스_620386" data-name="패스 620386" class="cls-68" d="M88.939,157.937l.3.04a1.34,1.34,0,0,0,1.5-1.18l.4-3.279a1.8,1.8,0,0,0-3.559-.42l-.56,4.619-.12.76" transform="translate(-69.524 -121.346)"/>
              <rect id="사각형_235178" data-name="사각형 235178" class="cls-9" width="0.94" height="2.883" transform="translate(19.545 30.744) rotate(-53.2)"/>
              <rect id="사각형_235179" data-name="사각형 235179" class="cls-9" width="1.74" height="0.682" transform="translate(19.49 31.612) rotate(-53.2)"/>
              <path id="패스_620387" data-name="패스 620387" class="cls-9" d="M85.889,156.639l1.979.24.38-3.119-3.039-.36-.24,2.039a1.08,1.08,0,0,0,.94,1.2" transform="translate(-67.973 -122.728)"/>
              <path id="패스_620388" data-name="패스 620388" class="cls-5" d="M98.4,164.883a.6.6,0,0,0-.14,1.2" transform="translate(-78.188 -131.912)"/>
              <path id="패스_620389" data-name="패스 620389" class="cls-69" d="M98.4,164.883a.6.6,0,0,0-.14,1.2" transform="translate(-78.188 -131.912)"/>
              <path id="패스_620390" data-name="패스 620390" class="cls-9" d="M86.054,148.133a1.58,1.58,0,1,0,.594-1.055,1.58,1.58,0,0,0-.594,1.055" transform="translate(-68.839 -117.401)"/>
              <path id="패스_620391" data-name="패스 620391" class="cls-9" d="M107.634,167.555h0a.16.16,0,0,1-.14-.18l.1-.88a.171.171,0,1,1,.34.04l-.1.88a.16.16,0,0,1-.18.14" transform="translate(-86 -133.084)"/>
              <path id="패스_620392" data-name="패스 620392" class="cls-70" d="M107.634,167.555h0a.16.16,0,0,1-.14-.18l.1-.88a.171.171,0,1,1,.34.04l-.1.88a.16.16,0,0,1-.2.14Z" transform="translate(-86 -133.084)"/>
              <line id="선_85444" data-name="선 85444" class="cls-9" x1="1.78" y1="0.78" transform="translate(19.935 32.732)"/>
              <line id="선_85445" data-name="선 85445" class="cls-28" x1="1.78" y1="0.78" transform="translate(19.935 32.732)"/>
              <g id="그룹_300261" data-name="그룹 300261" class="cls-48" transform="translate(14.236 33.511)">
                <g id="그룹_300260" data-name="그룹 300260" class="cls-71">
                  <path id="패스_620393" data-name="패스 620393" class="cls-9" d="M74.834,167.6l.24,4.479-.66,11.757s-.22,1.62.66,2.339l.54.66.3,9.418.24,1.3-1.3,1.14h-.7a22.069,22.069,0,0,1-1.06-7.138l-.88-10.577v-4.1A4.057,4.057,0,0,1,71.2,173.4a2.243,2.243,0,0,1,2.239-2.339l.96-.12Z" transform="translate(-71.175 -167.6)"/>
                </g>
              </g>
              <path id="패스_620394" data-name="패스 620394" class="cls-5" d="M98.139,315.56l-.18,1.32-.04.28a.933.933,0,0,1-1.84.08h0L96,316.7l-.2-1.2a1.26,1.26,0,0,0,2.339.06" transform="translate(-76.645 -252.416)"/>
              <path id="패스_620395" data-name="패스 620395" class="cls-72" d="M98.139,315.56l-.18,1.32-.04.28a.933.933,0,0,1-1.84.08h0L96,316.7l-.2-1.2a1.26,1.26,0,0,0,2.339.06Z" transform="translate(-76.645 -252.416)"/>
            </g>
          </g>
        </g>
      </g>
    </g>
    <g id="안전대_37x38" data-name="안전대 37x38" transform="translate(-510.223 423.227)">
      <path id="패스_338161" data-name="패스 338161" class="cls-73" d="M625.232,58c0,.459-.1.835-.229.835v.005l-4.744.693-3.742,2.479a1.649,1.649,0,0,1-1.683-.082l-4.773-3.162c-.5-.333-.552-.835-.119-1.119l5.011-3.325a1.658,1.658,0,0,1,1.688.082l2.895,1.917,5.468.825v.016C625.132,57.162,625.232,57.534,625.232,58Z" transform="translate(-2.009 -12.976)"/>
      <path id="패스_330370" data-name="패스 330370" class="cls-74" d="M605.227,58.158a.453.453,0,0,1,0-.055V56.411h2.48l3.611-2.085a2.153,2.153,0,0,1,1.938.08l3.472,2h2.48V58.17h0a.563.563,0,0,1-.333.519l-5.758,3.324a2.155,2.155,0,0,1-1.938-.08L605.7,58.77a.823.823,0,0,1-.472-.6h0Z" transform="translate(-0.002 -12.977)"/>
      <path id="패스_330371" data-name="패스 330371" class="cls-74" d="M613.115,58.793l5.758-3.324c.5-.287.437-.788-.139-1.119l-5.479-3.163a2.153,2.153,0,0,0-1.938-.08l-5.758,3.324c-.5.287-.437.788.139,1.119l5.479,3.163A2.155,2.155,0,0,0,613.115,58.793Z" transform="translate(0 -11.516)"/>
      <path id="패스_330372" data-name="패스 330372" class="cls-75" d="M621.663,58.888l.431-3.17h2.7l1.407.812c.574.331.636.832.139,1.119l-2.146,1.239Z" transform="translate(-8.821 -13.154)"/>
      <path id="패스_330373" data-name="패스 330373" class="cls-5" d="M611.412,55.68l.313-2.486h6.565l.313,2.485a1.244,1.244,0,0,1,.038.3h0a1.806,1.806,0,0,1-1.065,1.484,5.681,5.681,0,0,1-5.14,0C611.594,56.98,611.252,56.313,611.412,55.68Z" transform="translate(-3.388 -12.001)"/>
      <path id="패스_330374" data-name="패스 330374" class="cls-76" d="M621.166,53.194h1.57l.313,2.485a1.244,1.244,0,0,1,.038.3h0a1.806,1.806,0,0,1-1.065,1.484,4,4,0,0,1-.587.273Z" transform="translate(-8.333 -11.962)"/>
      <path id="패스_330375" data-name="패스 330375" class="cls-74" d="M612.052,50.6l.317-2.515h5.862l.317,2.515a1.117,1.117,0,0,1,.035.273h0a1.631,1.631,0,0,1-.962,1.34,5.133,5.133,0,0,1-4.641,0C612.217,51.775,611.907,51.172,612.052,50.6Z" transform="translate(-3.709 -9.248)"/>
      <path id="패스_330376" data-name="패스 330376" class="cls-75" d="M620.862,48.085h1.384l.317,2.515a1.123,1.123,0,0,1,.035.273h0a1.631,1.631,0,0,1-.962,1.34,3.592,3.592,0,0,1-.514.242Z" transform="translate(-8.164 -9.222)"/>
      <path id="패스_330377" data-name="패스 330377" class="cls-5" d="M612.663,45.765h0a.981.981,0,0,1,.031-.246l.321-2.545h5.157l.321,2.545a1.037,1.037,0,0,1,.031.246h0a1.457,1.457,0,0,1-.858,1.2,4.58,4.58,0,0,1-4.144,0,1.456,1.456,0,0,1-.858-1.2Z" transform="translate(-4.028 -6.506)"/>
      <path id="패스_330378" data-name="패스 330378" class="cls-76" d="M620.558,42.975h1.2l.321,2.545a1.034,1.034,0,0,1,.031.246h0a1.457,1.457,0,0,1-.858,1.2,3.238,3.238,0,0,1-.442.209Z" transform="translate(-7.995 -6.49)"/>
      <path id="패스_330379" data-name="패스 330379" class="cls-74" d="M613.334,40.439l.325-2.574h4.453l.325,2.574a.891.891,0,0,1,.027.218h0a1.281,1.281,0,0,1-.755,1.053,4.03,4.03,0,0,1-3.647,0C613.463,41.362,613.221,40.888,613.334,40.439Z" transform="translate(-4.344 -3.775)"/>
      <path id="패스_330380" data-name="패스 330380" class="cls-75" d="M621.267,37.865l.325,2.574a.891.891,0,0,1,.027.218h0a1.281,1.281,0,0,1-.755,1.053,2.83,2.83,0,0,1-.37.176l-.239-4.019Z" transform="translate(-7.827 -3.766)"/>
      <path id="패스_330381" data-name="패스 330381" class="cls-5" d="M613.951,35.55h0a.751.751,0,0,1,.021-.164l.331-2.621h3.75l.331,2.621a.776.776,0,0,1,.021.167h0a1.107,1.107,0,0,1-.652.909,3.482,3.482,0,0,1-3.149,0,1.106,1.106,0,0,1-.652-.909Z" transform="translate(-4.658 -0.904)"/>
      <path id="패스_330382" data-name="패스 330382" class="cls-76" d="M620.819,32.755l.331,2.621a.776.776,0,0,1,.021.167h0a1.107,1.107,0,0,1-.652.909,2.434,2.434,0,0,1-.3.143l-.176-2.965v-.874Z" transform="translate(-7.705 -0.9)"/>
      <ellipse id="타원_4800" data-name="타원 4800" class="cls-5" cx="1.875" cy="1.082" rx="1.875" ry="1.082" transform="translate(609.626 30.773)"/>
      <path id="패스_330383" data-name="패스 330383" class="cls-75" d="M626.29,60.062l1.429-1.758h1.051v1.759h0a.563.563,0,0,1-.333.519l-2.147,1.239Z" transform="translate(-11.057 -14.871)"/>
      <path id="패스_338162" data-name="패스 338162" class="cls-5" d="M612.022,53.5l-.088.049.044-.344A1.1,1.1,0,0,0,612.022,53.5Z" transform="translate(-3.047 -11.601)"/>
      <g id="패스_338163" data-name="패스 338163" class="cls-77" transform="translate(-0.001 0)">
        <path class="cls-78" d="M616.89,44.074a.9.9,0,0,0-.018-.1c-.009-.024-.023-.053-.032-.077a.694.694,0,0,0-.1-.14,1.064,1.064,0,0,0-.241-.2l-1.171-.716-1.491-.914-.036-.31a.857.857,0,0,0-.032-.242l-.264-2.23a1.215,1.215,0,0,0-.023-.218l-.269-2.25v0a.853.853,0,0,0-.022-.189l-.273-2.279v0a.525.525,0,0,0-.019-.15l-.183-1.552-.09-.766v0c0-.527-.7-.958-1.563-.958s-1.568.431-1.568.958v0l-.278,2.322a.784.784,0,0,0-.014.145v0l-.273,2.279a.894.894,0,0,0-.023.189l-.264,2.255a.87.87,0,0,0-.027.218l-.264,2.23a1.1,1.1,0,0,0-.032.242v0a1.033,1.033,0,0,0,.036.261l-.073.044-2.779,1.7a.519.519,0,0,0-.278.46v1.548l0,.01a.716.716,0,0,0,.392.532l4.57,2.8a1.7,1.7,0,0,0,1.618.073l3.017-1.848,1.791-1.1a.5.5,0,0,0,.278-.46V44.108A.075.075,0,0,0,616.89,44.074Z"/>
        <path class="cls-79" d="M 611.0703735351562 49.22768783569336 C 611.32177734375 49.22769165039062 611.5733032226562 49.17131042480469 611.8089599609375 49.05718612670898 L 614.8256225585938 47.20892715454102 L 616.616455078125 46.11061477661133 C 616.7850341796875 46.03320693969727 616.8944702148438 45.84934616088867 616.8944702148438 45.65096664428711 L 616.8944702148438 44.15107727050781 L 616.8944702148438 44.14140701293945 L 616.8944702148438 44.10753631591797 C 616.8944702148438 44.093017578125 616.8944702148438 44.08334732055664 616.889892578125 44.07366561889648 C 616.8848876953125 44.039794921875 616.8803100585938 44.01076507568359 616.8716430664062 43.97689437866211 C 616.862548828125 43.95270538330078 616.848876953125 43.92367553710938 616.8397216796875 43.89948654174805 C 616.8124389648438 43.85109710693359 616.7805786132812 43.80271530151367 616.7390747070312 43.7591667175293 C 616.6757202148438 43.68659591674805 616.5977783203125 43.62369537353516 616.4979858398438 43.56079483032227 L 615.326904296875 42.8447151184082 L 613.8363037109375 41.93026733398438 L 613.80029296875 41.6206169128418 C 613.80029296875 41.53835678100586 613.7911987304688 41.45610427856445 613.7683715820312 41.37869644165039 L 613.5040893554688 39.1482048034668 C 613.5040893554688 39.07563781738281 613.4945068359375 39.00305557250977 613.4812622070312 38.93048477172852 L 613.2120361328125 36.68064498901367 L 613.2120361328125 36.67580413818359 C 613.2120361328125 36.60806655883789 613.203369140625 36.55000686645508 613.189697265625 36.48710632324219 L 612.9163208007812 34.20823669433594 L 612.9163208007812 34.20339584350586 C 612.9163208007812 34.15017700195312 612.9116821289062 34.1017951965332 612.8975830078125 34.05341720581055 L 612.7147827148438 32.50141525268555 L 612.6246337890625 31.73583602905273 L 612.6246337890625 31.73099517822266 C 612.6246337890625 31.20361518859863 611.9228515625 30.77299499511719 611.0615844726562 30.77299499511719 C 610.19580078125 30.77299499511719 609.4940795898438 31.20361518859863 609.4940795898438 31.73099517822266 L 609.4940795898438 31.73583602905273 L 609.216064453125 34.05824661254883 C 609.2069702148438 34.10663604736328 609.202392578125 34.15501403808594 609.202392578125 34.20339584350586 L 609.202392578125 34.20823669433594 L 608.928955078125 36.48710632324219 C 608.9153442382812 36.55000686645508 608.90576171875 36.61290740966797 608.90576171875 36.67580413818359 L 608.6419067382812 38.93048477172852 C 608.6232299804688 39.00305557250977 608.6146240234375 39.07563781738281 608.6146240234375 39.1482048034668 L 608.3502807617188 41.37869644165039 C 608.33203125 41.46094512939453 608.318359375 41.53835678100586 608.318359375 41.6206169128418 L 608.318359375 41.62545776367188 C 608.318359375 41.7125358581543 608.33203125 41.79963684082031 608.3547973632812 41.88672637939453 L 608.281494140625 41.93026733398438 L 605.5022583007812 43.63337707519531 C 605.3062744140625 43.7591667175293 605.2151489257812 43.92367553710938 605.2242431640625 44.093017578125 L 605.2242431640625 45.64129638671875 L 605.2288208007812 45.65096664428711 C 605.269775390625 45.88804626464844 605.4156494140625 46.08642578125 605.6206665039062 46.18319702148438 L 610.1907958984375 48.9846076965332 C 610.4649047851562 49.14586639404297 610.7675170898438 49.22768402099609 611.0703735351562 49.22768783569336 M 611.0704345703125 50.22768402099609 C 610.587158203125 50.22768402099609 610.107666015625 50.09588623046875 609.6837768554688 49.84652709960938 L 609.6759033203125 49.84192657470703 L 609.668212890625 49.83717727661133 L 605.1339111328125 47.0577507019043 C 604.7139892578125 46.83831787109375 604.4042358398438 46.44652938842773 604.2786865234375 45.98115539550781 L 604.2242431640625 45.86613464355469 L 604.2242431640625 45.64129638671875 L 604.2242431640625 44.1118049621582 C 604.2090454101562 43.59069442749023 604.4829711914062 43.0993537902832 604.9620971679688 42.79181671142578 L 604.9708862304688 42.78618621826172 L 604.979736328125 42.78073501586914 L 607.34130859375 41.33358383178711 C 607.3478393554688 41.29109954833984 607.355224609375 41.25155258178711 607.3626708984375 41.21518325805664 L 607.6159057617188 39.0782470703125 C 607.619873046875 38.97089385986328 607.6329956054688 38.86431121826172 607.655029296875 38.7598762512207 L 607.9073486328125 36.60394668579102 C 607.9112548828125 36.5152702331543 607.92236328125 36.42401885986328 607.94091796875 36.32772064208984 L 608.2037353515625 34.13727188110352 C 608.2066040039062 34.06118011474609 608.2141723632812 33.98657989501953 608.226318359375 33.91296768188477 L 608.4957275390625 31.66250991821289 C 608.5218505859375 31.07890701293945 608.8594970703125 30.55111312866211 609.4312133789062 30.20125579833984 C 609.8825073242188 29.92508506774902 610.4615478515625 29.77299499511719 611.0615844726562 29.77299499511719 C 611.6599731445312 29.77299499511719 612.2378540039062 29.92524528503418 612.6887817382812 30.20170593261719 C 613.2622680664062 30.55332374572754 613.5999145507812 31.08416175842285 613.6233520507812 31.66605949401855 L 613.7079467773438 32.38446426391602 L 613.8838500976562 33.8780632019043 C 613.9014892578125 33.96178817749023 613.911865234375 34.04809951782227 613.9151611328125 34.13880157470703 L 614.1776733398438 36.3268928527832 C 614.1919555664062 36.40067672729492 614.2066040039062 36.49700927734375 614.2108154296875 36.61096954345703 L 614.4708862304688 38.78414535522461 C 614.4889526367188 38.88969039916992 614.4993286132812 38.98523712158203 614.5028076171875 39.07822799682617 L 614.753662109375 41.19577789306641 C 614.7642211914062 41.24167251586914 614.7730102539062 41.28844451904297 614.7799682617188 41.33599853515625 L 615.8497924804688 41.99233627319336 L 617.0196533203125 42.70764541625977 L 617.0254516601562 42.71119689941406 L 617.03125 42.71482467651367 C 617.2095336914062 42.82723617553711 617.356201171875 42.94888305664062 617.4788818359375 43.08623504638672 C 617.5656127929688 43.17999649047852 617.6416015625 43.28561401367188 617.7108154296875 43.40839767456055 L 617.748046875 43.47444534301758 L 617.7717895507812 43.53707122802734 L 617.7747192382812 43.54389572143555 C 617.78662109375 43.57175445556641 617.7982177734375 43.59980773925781 617.8077392578125 43.62513732910156 L 617.826904296875 43.6761360168457 L 617.8403930664062 43.72891616821289 C 617.8543090820312 43.78334426879883 617.863525390625 43.83044815063477 617.8704833984375 43.87198257446289 C 617.8944702148438 43.98290252685547 617.8944702148438 44.06938171386719 617.8944702148438 44.10753631591797 L 617.8944702148438 44.14140701293945 L 617.8944702148438 44.15107727050781 L 617.8944702148438 45.65096664428711 C 617.8944702148438 46.21562576293945 617.5863037109375 46.73095321655273 617.10302734375 46.98527145385742 L 615.3484497070312 48.06137466430664 L 612.3313598632812 49.90986633300781 L 612.289306640625 49.93566513061523 L 612.2448120117188 49.95719528198242 C 611.8742065429688 50.13667678833008 611.4791259765625 50.22768402099609 611.0704345703125 50.22768402099609 Z"/>
      </g>
    </g>
  </g>
</svg>
