<svg xmlns="http://www.w3.org/2000/svg" width="110" height="90.711"><defs><clipPath id="a"><path data-name="사각형 215523" fill="none" d="M0 0h110v90.711H0z"/></clipPath><clipPath id="b"><path data-name="사각형 215515" fill="none" d="M0 0h79.431v45.466H0z"/></clipPath><clipPath id="c"><path data-name="사각형 215516" fill="none" d="M0 0h20.726v11.306H0z"/></clipPath><clipPath id="d"><path data-name="사각형 215517" fill="none" d="M0 0h29.972v13.708H0z"/></clipPath><clipPath id="e"><path data-name="사각형 215518" fill="none" d="M0 0h12.506v13.748H0z"/></clipPath><clipPath id="f"><path data-name="사각형 215519" fill="none" d="M0 0h38.376v22.501H0z"/></clipPath><clipPath id="g"><path data-name="사각형 215520" fill="none" d="M0 0h7.792v33.664H0z"/></clipPath><clipPath id="h"><path data-name="사각형 215521" fill="none" d="M0 0h13.593v7.917H0z"/></clipPath></defs><g data-name="오일교체서비스란? 111x92"><g data-name="그룹 271977" clip-path="url(#a)"><g data-name="그룹 271976" clip-path="url(#a)"><path data-name="패스 566921" d="M95.672 46.504L84.39 56.469l-4.439 3.919-1.393.811 1.393.8L49.367 79.89 1.209 52.076l1.393-.811-1.393-.811 30.554-17.849h.015l15.69-13.884 8.894-.459a3.551 3.551 0 011.944.475l46.122 26.574a.383.383 0 01-.168.719z" fill="#fff"/><path data-name="패스 566922" d="M95.672 46.504L84.39 56.469l-4.439 3.919h0l-1.393.811 1.393.8h0L49.367 79.89 1.209 52.076l1.393-.811-1.393-.811 30.554-17.849h.015l15.69-13.884 8.894-.459a3.551 3.551 0 011.944.475l46.122 26.574a.383.383 0 01-.168.719z" fill="none" stroke="#222" stroke-linejoin="round" stroke-width="1.225"/><g data-name="그룹 271963"><g data-name="그룹 271962" clip-path="url(#b)" transform="translate(.842 35.988)" opacity=".15"><path data-name="패스 566923" d="M79.432 27.737l-29.79 17.389a2.419 2.419 0 01-2.419 0L.183 17.986a.367.367 0 010-.643L30.599.015h.033z" fill="#222"/></g></g><path data-name="패스 566924" d="M79.951 62.026L49.367 79.89 1.209 52.076l30.554-17.849.031-.015 48.158 27.814z" fill="#f4f4f4"/><path data-name="패스 566925" d="M79.951 62.026L49.367 79.89 1.209 52.076l30.554-17.849h0l.031-.015 48.158 27.814z" fill="none" stroke="#222" stroke-linejoin="round" stroke-width=".612"/><g data-name="그룹 271965"><g data-name="그룹 271964" clip-path="url(#c)" transform="translate(84.253 45.938)" opacity=".15"><path data-name="패스 566926" d="M20.558.459L1.317 11.218l-1.179-.689L11.42.564l9.031-.475a.2.2 0 01.107.383"/><path data-name="패스 566927" d="M20.558.459L1.316 11.22l-1.179-.689L11.419.566h0L20.45.091a.2.2 0 01.107.367z" fill="none" stroke="#222" stroke-miterlimit="10" stroke-width=".153"/></g></g><path data-name="패스 566928" d="M85.569 57.159l-5.618 3.245 4.439-3.934 1.179.689z" fill="#fff"/><path data-name="패스 566929" d="M85.569 57.159l-5.618 3.245h0l4.439-3.934 1.179.689z" fill="none" stroke="#222" stroke-miterlimit="10" stroke-width=".153"/><path data-name="패스 566930" d="M79.951 60.404L49.367 78.268 1.209 50.454l30.554-17.849.031-.015 48.158 27.814z" fill="#fff"/><path data-name="패스 566931" d="M79.951 60.404L49.367 78.268 1.209 50.454l30.554-17.849h0l.031-.015 48.158 27.814z" fill="none" stroke="#222" stroke-linejoin="round" stroke-width=".612"/><path data-name="패스 566932" d="M31.778 32.59l15.706-13.884 48.173 27.783.015.015-11.282 9.965-4.439 3.919" fill="#fff"/><path data-name="패스 566933" d="M31.778 32.59l15.706-13.884 48.173 27.783.015.015-11.282 9.965-4.439 3.919" fill="none" stroke="#222" stroke-linejoin="round" stroke-width=".612"/><path data-name="패스 566934" d="M79.951 60.39l-48.158-27.8h-.015" fill="#f4f4f4"/><path data-name="패스 566935" d="M79.951 60.39l-48.158-27.8h-.015" fill="none" stroke="#222" stroke-linejoin="round" stroke-width=".306"/><path data-name="선 78305" fill="none" stroke="#222" stroke-linejoin="round" stroke-width=".612" d="M31.778 32.59l-.015.015"/><path data-name="선 78306" fill="none" stroke="#222" stroke-linejoin="round" stroke-width="4" d="M31.778 32.59h0"/><path data-name="선 78307" fill="none" stroke="#222" stroke-miterlimit="10" stroke-width=".153" d="M85.569 57.158l-5.296 3.062"/><path data-name="패스 566936" d="M47.469 18.706l8.909-.444a3.536 3.536 0 011.944.475l46.106 26.574a.383.383 0 01-.168.719l-8.6.459" fill="#f2f2f2"/><path data-name="패스 566937" d="M47.469 18.706l8.909-.444a3.536 3.536 0 011.944.475l46.106 26.574a.383.383 0 01-.168.719l-8.6.459" fill="none" stroke="#222" stroke-linejoin="round" stroke-width=".612"/><path data-name="선 78308" fill="#f4f4f4" d="M95.657 46.489L47.469 18.706"/><path data-name="선 78309" fill="none" stroke="#222" stroke-linejoin="round" stroke-width=".306" d="M95.657 46.489L47.469 18.706"/><path data-name="패스 566938" d="M36.599 64.123l-.689.4a1.5 1.5 0 01-1.5 0L16.975 54.374a.429.429 0 010-.75l1.225-.7a.429.429 0 01.429 0l17.97 10.449a.429.429 0 010 .75" fill="#e2e2e2"/><path data-name="패스 566939" d="M44.682 39.846l15.216-13.455-1.9-1.117-15.229 13.47z" fill="#e2e2e2"/><path data-name="패스 566940" d="M69.513 25.518l-8.832.459-2.068-1.194 8.8-.49z" fill="#e2e2e2"/><path data-name="패스 566941" d="M60.801 44.192c3.337-13.838-13.3-22.2-13.3-22.2l-.337-.184a.413.413 0 00-.49.077l-.628.628a.612.612 0 00.122.964c3.245 1.913 16.624 10.608 11.955 21.492" fill="#e2e2e2"/><path data-name="패스 566942" d="M19.394 54.541l-2.005-1.163 24.936-14.344 2.005 1.148z" fill="#e2e2e2"/><path data-name="패스 566943" d="M93.1 45.402l1.669 2.266 1.026-1.179z" fill="#222"/><path data-name="패스 566944" d="M36.263 64.873l-1.424-.122.184-1.515 1.332.122zm-2.526-.291a14.47 14.47 0 01-1.424-.337l.429-1.47a12.061 12.061 0 001.271.291zm-2.51-.7a7.529 7.529 0 01-1.347-.719l.857-1.271a6 6 0 001.072.566zm-2.3-1.531a4.439 4.439 0 01-.873-1.393l1.424-.551a2.909 2.909 0 00.582.918zm-1.163-2.648c-.015-.168-.015-.321-.015-.49a6.337 6.337 0 01.092-1.087l1.515.26a4.807 4.807 0 00-.077.811 2.71 2.71 0 00.015.352zm1.822-2.25l-1.454-.475a11.844 11.844 0 01.551-1.362l1.393.643a10.32 10.32 0 00-.475 1.194m.934-2.1l-1.332-.75c.168-.306.352-.612.551-.934l.168-.276 1.3.8-.184.291c-.184.291-.352.582-.505.857m1.255-2.112l-1.347-.735c.214-.4.413-.8.6-1.179l1.393.643c-.2.413-.413.842-.643 1.271m1.087-2.3l-1.424-.566c.168-.413.306-.827.429-1.24l1.47.429c-.138.444-.291.9-.475 1.362m.75-2.465l-1.5-.306a10.826 10.826 0 00.184-1.271l1.531.138a12.354 12.354 0 01-.214 1.454m-1.286-2.541a8.678 8.678 0 00-.107-1.255l1.515-.245a10.225 10.225 0 01.138 1.485zm-.337-2.2a8.33 8.33 0 00-.444-1.179l1.393-.643a9.9 9.9 0 01.52 1.393zm-.9-2.051a9.692 9.692 0 00-.735-1.041l1.194-.964a11.219 11.219 0 01.857 1.209zm-1.408-1.806a12.311 12.311 0 00-.949-.873l.98-1.179a13.791 13.791 0 011.072.995zm-1.76-1.5c-.352-.245-.719-.49-1.1-.719l.781-1.316c.413.245.827.505 1.209.781zm-2.005-1.209a11.423 11.423 0 00-1.179-.52l.505-1.439a12.706 12.706 0 011.362.6z" fill="#3673ee"/><g data-name="그룹 271967"><g data-name="그룹 271966" clip-path="url(#d)" transform="translate(39.218 62.332)" opacity=".2"><path data-name="패스 566945" d="M.003 3.536a2.329 2.329 0 001.056 1.975c1.117.689 14.037 8.036 14.037 8.036a3.167 3.167 0 003.184-.689l11.695-7.1L13.409 0z"/></g></g><path data-name="패스 566946" d="M55.582 72.742l-12.169-7.041a8.152 8.152 0 01-3.414-6.51c0-2.51 1.531-3.659 3.414-2.572l12.169 7.041a8.152 8.152 0 013.414 6.506c0 2.51-1.531 3.659-3.414 2.572" fill="#e3e3e3"/><path data-name="패스 566947" d="M55.582 72.742l-12.169-7.041a8.152 8.152 0 01-3.414-6.51c0-2.51 1.531-3.659 3.414-2.572l12.169 7.041a8.152 8.152 0 013.414 6.506c.003 2.515-1.546 3.663-3.414 2.576z" fill="none" stroke="#222" stroke-linecap="round" stroke-linejoin="round" stroke-width=".459"/><path data-name="패스 566948" d="M68.501 66.772l-.245.138-.168-.291a4.286 4.286 0 00.306-1.7v-.015a8.166 8.166 0 00-3.444-6.521l-12.261-7.087a2.162 2.162 0 00-2.266-.168l1.439-.827a1.714 1.714 0 01.918-.26 2.725 2.725 0 011.347.413l12.169 7.041a8.152 8.152 0 013.414 6.506 2.971 2.971 0 01-1.225 2.786" fill="#686868"/><path data-name="패스 566949" d="M68.501 66.772h0l-.245.138-.168-.291a4.286 4.286 0 00.306-1.7v-.015a8.166 8.166 0 00-3.444-6.521l-12.261-7.087a2.162 2.162 0 00-2.266-.168h0l1.439-.827h0a1.714 1.714 0 01.918-.26 2.725 2.725 0 011.347.413l12.169 7.041a8.152 8.152 0 013.414 6.506 2.956 2.956 0 01-1.209 2.771z" fill="none" stroke="#222" stroke-miterlimit="10" stroke-width=".459"/><path data-name="패스 566950" d="M68.409 64.935a4.3 4.3 0 01-.306 1.7l.168.291-11.925 6.873-16.715-16.457 10.807-6.23a2.162 2.162 0 012.266.168l12.261 7.087a8.208 8.208 0 013.444 6.521z" fill="#fff"/><path data-name="패스 566951" d="M68.409 64.935a4.3 4.3 0 01-.306 1.7l.168.291-11.925 6.873-16.715-16.457 10.807-6.23h0a2.162 2.162 0 012.266.168l12.261 7.087a8.208 8.208 0 013.444 6.521z" fill="none" stroke="#222" stroke-linecap="round" stroke-linejoin="round" stroke-width=".459"/><path data-name="선 78310" fill="none" stroke="#222" stroke-linecap="round" stroke-linejoin="round" stroke-width=".459" d="M51.893 50.27l-.031.015"/><path data-name="선 78311" fill="none" stroke="#222" stroke-linecap="round" stroke-linejoin="round" stroke-width=".459" d="M68.608 66.726l-.107.046"/><path data-name="패스 566952" d="M54.082 73.645l-12.17-7.041a8.152 8.152 0 01-3.413-6.51c0-2.51 1.531-3.659 3.414-2.572l12.17 7.041a8.152 8.152 0 013.414 6.506c0 2.51-1.531 3.659-3.414 2.572" fill="#474747"/><path data-name="패스 566953" d="M54.082 73.645l-12.17-7.041a8.152 8.152 0 01-3.413-6.51c0-2.51 1.531-3.659 3.414-2.572l12.17 7.041a8.152 8.152 0 013.414 6.506c.002 2.515-1.532 3.663-3.415 2.576z" fill="none" stroke="#222" stroke-miterlimit="10" stroke-width=".459"/><path data-name="패스 566954" d="M53.454 74.18l-12.292-7.1a8.254 8.254 0 01-3.444-6.567c0-2.526 1.546-3.689 3.444-2.6l12.292 7.1a8.254 8.254 0 013.444 6.567c0 2.526-1.546 3.689-3.444 2.6" fill="#616161"/><path data-name="패스 566955" d="M53.454 74.18l-12.292-7.1a8.254 8.254 0 01-3.444-6.567c0-2.526 1.546-3.689 3.444-2.6l12.292 7.1a8.254 8.254 0 013.444 6.567c0 2.523-1.546 3.687-3.444 2.6z" fill="none" stroke="#222" stroke-miterlimit="10" stroke-width=".459"/><path data-name="패스 566956" d="M50.438 51.127l-.107.077" fill="none" stroke="#222" stroke-linecap="round" stroke-linejoin="round" stroke-width=".459"/><path data-name="패스 566957" d="M51.878 72.282l-8.94-5.174a6.027 6.027 0 01-2.525-4.745c-.015-1.822 1.1-2.664 2.48-1.852l8.94 5.159a6.027 6.027 0 012.526 4.745c.015 1.822-1.1 2.664-2.48 1.852" fill="#3a3a3a"/><path data-name="패스 566958" d="M51.878 72.282l-8.94-5.174a6.027 6.027 0 01-2.525-4.745c-.015-1.822 1.1-2.664 2.48-1.852l8.94 5.159a6.027 6.027 0 012.526 4.745c.014 1.821-1.104 2.663-2.481 1.867z" fill="none" stroke="#222" stroke-miterlimit="10" stroke-width=".459"/><path data-name="패스 566959" d="M44.224 65.073l-1.041.781-1.822-2.97.857-.643.153-.107h.046a.9.9 0 01.811.122 2.755 2.755 0 011.24 2.128.964.964 0 01-.245.7" fill="#acacad"/><path data-name="패스 566960" d="M44.224 65.073h0l-1.041.781-1.822-2.97.857-.643.153-.107h.046a.9.9 0 01.811.122 2.755 2.755 0 011.24 2.128.964.964 0 01-.244.689z" fill="none" stroke="#222" stroke-linecap="round" stroke-linejoin="round" stroke-width=".459"/><path data-name="패스 566961" d="M42.387 62.133l-.153.107.153-.107" fill="#e3e3e3"/><path data-name="패스 566962" d="M42.387 62.133l-.153.107z" fill="none" stroke="#222" stroke-linecap="round" stroke-linejoin="round" stroke-width=".459"/><path data-name="패스 566963" d="M43.565 65.057c0 .781-.551 1.1-1.24.7a2.714 2.714 0 01-1.24-2.128c0-.781.551-1.1 1.24-.7a2.714 2.714 0 011.24 2.128" fill="#fff"/><path data-name="패스 566964" d="M43.565 65.057c0 .781-.551 1.1-1.24.7a2.714 2.714 0 01-1.24-2.128c0-.781.551-1.1 1.24-.7a2.714 2.714 0 011.24 2.128z" fill="none" stroke="#222" stroke-linecap="round" stroke-linejoin="round" stroke-width=".459"/><path data-name="패스 566965" d="M42.417 62.118h-.046l.031-.031z" fill="#e3e3e3"/><path data-name="패스 566966" d="M42.417 62.118h-.046l.031-.031z" fill="none" stroke="#222" stroke-linecap="round" stroke-linejoin="round" stroke-width=".459"/><path data-name="패스 566967" d="M52.827 70.078l-1.041.781-1.822-2.97.857-.643.153-.107h.046a.9.9 0 01.811.122 2.755 2.755 0 011.24 2.128.964.964 0 01-.245.7" fill="#acacad"/><path data-name="패스 566968" d="M52.827 70.078h0l-1.041.781-1.822-2.97.857-.643.153-.107h.046a.9.9 0 01.811.122 2.755 2.755 0 011.24 2.128.964.964 0 01-.244.689z" fill="none" stroke="#222" stroke-linecap="round" stroke-linejoin="round" stroke-width=".459"/><path data-name="패스 566969" d="M52.168 70.093c0 .781-.551 1.1-1.24.7a2.714 2.714 0 01-1.24-2.128c0-.781.551-1.1 1.24-.7a2.714 2.714 0 011.24 2.128" fill="#fff"/><path data-name="패스 566970" d="M52.168 70.093c0 .781-.551 1.1-1.24.7a2.714 2.714 0 01-1.24-2.128c0-.781.551-1.1 1.24-.7a2.714 2.714 0 011.24 2.128z" fill="none" stroke="#222" stroke-linecap="round" stroke-linejoin="round" stroke-width=".459"/><g data-name="그룹 271969"><g data-name="그룹 271968" clip-path="url(#e)" transform="translate(56.087 59.699)" opacity=".15"><path data-name="패스 566971" d="M0 6.873L12.017 0l.475 6.735L.567 13.746c.765-1.3 1.148-2.755-.582-6.873" fill="#222"/></g></g><path data-name="패스 566972" d="M59.087 62.776a1.1 1.1 0 001.148.077q.214-.122.214-.276v-.475l-5.311-2.051v.444z" fill="#222"/><path data-name="패스 566973" d="M59.087 62.333a1.1 1.1 0 001.148.077q.505-.291-.153-.658l-3.934-2.282-1.01.582z" fill="#f8483b"/><path data-name="패스 566974" d="M47.989 55.781l3.092.842 1.209-.689a1.347 1.347 0 01.995-.184c.092.015.367-.2.444-.153 0 .582.031.459 0 .582a.582.582 0 01-.291.337l-.077.046-1.209.689 1.745.719v.475c0 .122-.092.23-.291.352a1.148 1.148 0 01-1.209-.015l-.092-.046-1.362-.781-1.745 1.01-1.072-.612v-.444l1.745-.566-1.883-1.087z" fill="#222"/><path data-name="패스 566975" d="M49.198 55.077l1.883 1.087 1.209-.689a1.347 1.347 0 01.995-.184l.245.092q.245.138.2.321a.582.582 0 01-.291.337l-.077.046-1.209.689 1.454.842q.6.352 0 .7a1.148 1.148 0 01-1.209-.015l-.092-.046-1.362-.781-1.745 1.01-1.072-.612 1.745-1.01-1.883-1.087z" fill="#3673ee"/><path data-name="패스 566976" d="M52.796 50.025a2.725 2.725 0 011.347.413l12.169 7.041a8.152 8.152 0 013.414 6.506 2.971 2.971 0 01-1.225 2.786l-.245.138-11.909 6.873-.092.046a1.776 1.776 0 01-1.454.75 2.771 2.771 0 01-1.362-.413l-12.292-7.1a8.255 8.255 0 01-3.444-6.567 2.933 2.933 0 011.684-2.97 1.408 1.408 0 01.2-.168h.031l10.807-6.23 1.439-.827h.015a1.668 1.668 0 01.9-.245m0-.612a2.266 2.266 0 00-1.24.337l-1.424.827-10.777 6.23h-.061a1.269 1.269 0 00-.245.184 3.521 3.521 0 00-1.942 3.473c0 2.771 1.638 5.893 3.75 7.1l12.292 7.1a3.352 3.352 0 001.669.49 2.388 2.388 0 001.867-.888l11.909-6.858.245-.138.52-.306-.046-.077a3.958 3.958 0 001.041-2.954 8.741 8.741 0 00-3.72-7.041l-12.169-7.041a3.322 3.322 0 00-1.653-.49" fill="#222"/><path data-name="패스 566977" d="M55.031 66.435l.689-.383s2.633 3.337 1.424 6.888l-.459-.061a8.19 8.19 0 00-1.654-6.427" fill="#222"/><g data-name="그룹 271971"><g data-name="그룹 271970" clip-path="url(#f)" transform="translate(61.23 57.556)" opacity=".2"><path data-name="패스 566978" d="M15.431 21.232L36.816 9.047a3.092 3.092 0 00-.015-5.388l-4.317-2.434a9.69 9.69 0 00-9.537.031L1.561 13.44a3.092 3.092 0 00.015 5.388l4.317 2.434a9.69 9.69 0 009.537-.031"/></g></g><path data-name="패스 566979" d="M97.356 50.603v1.424l.429-.245v2.633l-.429.26v1.428l.429-.245v6.628a3.628 3.628 0 01-2.158 2.985l-19.93 11.511a11.543 11.543 0 01-10.409 0l-.107-.061c-1.531-.873-2.235-2.051-2.143-3.2h-.017v-3.475a3.683 3.683 0 002.158 2.954l.107.061a11.543 11.543 0 0010.409 0l15.491-8.894V49.015l-15.491 8.909a11.543 11.543 0 01-10.409 0l-.107-.061a3.715 3.715 0 01-2.158-2.96V43.55l27.906-9.047 5.25 7.547a9.093 9.093 0 011.623 5.159v3.153z" fill="#e2e2e2"/><path data-name="패스 566980" d="M91.187 49.015v15.353l-15.491 8.894a11.543 11.543 0 01-10.409 0l-.107-.061c-1.408-.811-2.388-1.913-2.419-2.985V54.832c.015 1.072.995 2.2 2.419 3.016l.107.061a11.543 11.543 0 0010.409 0z" fill="#3673ee"/><path data-name="패스 566981" d="M91.187 49.015v15.353l-15.491 8.894a11.543 11.543 0 01-10.409 0l-.107-.061c-1.408-.811-2.388-1.913-2.419-2.985V54.832c.015 1.072.995 2.2 2.419 3.016l.107.061a11.543 11.543 0 0010.409 0z" fill="none" stroke="#222" stroke-linejoin="round" stroke-width=".459"/><path data-name="패스 566982" d="M89.304 39.095l-13.608 7.837a11.543 11.543 0 01-10.409 0l-.107-.061c-2.878-1.653-2.878-4.347 0-6.016l13.608-7.837a11.543 11.543 0 0110.409 0l.107.061c2.878 1.653 2.878 4.347 0 6.016" fill="#fff"/><path data-name="패스 566983" d="M89.304 39.095l-13.608 7.837a11.543 11.543 0 01-10.409 0l-.107-.061c-2.878-1.653-2.878-4.347 0-6.016l13.608-7.837a11.543 11.543 0 0110.409 0l.107.061c2.878 1.669 2.878 4.348 0 6.016z" fill="none" stroke="#222" stroke-linejoin="round" stroke-width=".459"/><path data-name="패스 566984" d="M75.42 40.917a8.4 8.4 0 01-7.593 0 2.691 2.691 0 01-1.576-2.189v4.026a2.64 2.64 0 001.577 2.189 8.4 8.4 0 007.593 0 2.691 2.691 0 001.577-2.189v-4.026a2.64 2.64 0 01-1.577 2.189" fill="#bcbcbc"/><path data-name="패스 566985" d="M75.42 40.917a8.4 8.4 0 01-7.593 0 2.691 2.691 0 01-1.576-2.189v4.026a2.64 2.64 0 001.577 2.189 8.4 8.4 0 007.593 0 2.691 2.691 0 001.577-2.189v-4.026a2.659 2.659 0 01-1.578 2.189z" fill="none" stroke="#222" stroke-linejoin="round" stroke-width=".383"/><path data-name="패스 566986" d="M75.42 40.917a8.4 8.4 0 01-7.593 0c-2.1-1.209-2.1-3.169 0-4.378a8.4 8.4 0 017.593 0c2.1 1.209 2.1 3.169 0 4.378" fill="#bcbcbc"/><path data-name="패스 566987" d="M75.42 40.917a8.4 8.4 0 01-7.593 0c-2.1-1.209-2.1-3.169 0-4.378a8.4 8.4 0 017.593 0c2.098 1.209 2.098 3.169 0 4.378z" fill="none" stroke="#222" stroke-linejoin="round" stroke-width=".383"/><path data-name="패스 566988" d="M65.516 36.692v3.337a3.037 3.037 0 001.791 2.5 9.534 9.534 0 008.633 0 3.037 3.037 0 001.791-2.5v-3.337z" fill="#474747"/><path data-name="패스 566989" d="M65.516 36.692v3.337a3.037 3.037 0 001.791 2.5 9.534 9.534 0 008.633 0 3.037 3.037 0 001.791-2.5v-3.337z" fill="none" stroke="#222" stroke-miterlimit="10" stroke-width=".459"/><path data-name="패스 566990" d="M75.956 39.188a9.534 9.534 0 01-8.633 0c-2.373-1.378-2.388-3.613 0-4.99a9.534 9.534 0 018.633 0c2.373 1.378 2.388 3.613 0 4.99" fill="#616161"/><path data-name="패스 566991" d="M75.956 39.188a9.534 9.534 0 01-8.633 0c-2.373-1.378-2.388-3.613 0-4.99a9.534 9.534 0 018.633 0c2.373 1.377 2.373 3.616 0 4.99z" fill="none" stroke="#222" stroke-miterlimit="10" stroke-width=".459"/><path data-name="패스 566992" d="M97.78 51.786v.658l-2.847 1.638c-.429.245-.781.107-.857-.321a.7.7 0 00.459-.107l2.817-1.623v-.49z" fill="#3673ee"/><path data-name="패스 566993" d="M97.78 51.786v.658l-2.847 1.638c-.429.245-.781.107-.857-.321a.7.7 0 00.459-.107l2.817-1.623v-.49z" fill="none" stroke="#222" stroke-linejoin="round" stroke-width=".459"/><path data-name="패스 566994" d="M97.356 50.607v1.424l-2.817 1.623a.245.245 0 11-.474-.077 1.944 1.944 0 01.888-1.531z" fill="#bcbcbc"/><path data-name="패스 566995" d="M97.356 50.607v1.424l-2.817 1.623a.245.245 0 11-.474-.077h0a1.944 1.944 0 01.888-1.531z" fill="none" stroke="#222" stroke-linejoin="round" stroke-width=".459"/><path data-name="패스 566996" d="M97.78 55.842v.658l-2.847 1.638c-.429.245-.781.107-.857-.321a.7.7 0 00.459-.107l2.817-1.607v-.49z" fill="#bcbcbc"/><path data-name="패스 566997" d="M97.78 55.842v.658l-2.847 1.638c-.429.245-.781.107-.857-.321a.7.7 0 00.459-.107l2.817-1.607v-.49z" fill="none" stroke="#222" stroke-linejoin="round" stroke-width=".459"/><path data-name="패스 566998" d="M97.356 54.679v1.424l-2.817 1.623a.245.245 0 11-.474-.077 1.944 1.944 0 01.888-1.531z" fill="#bcbcbc"/><path data-name="패스 566999" d="M97.356 54.679v1.424l-2.817 1.623a.245.245 0 11-.474-.077h0a1.944 1.944 0 01.888-1.531z" fill="none" stroke="#222" stroke-linejoin="round" stroke-width=".459"/><path data-name="패스 567000" d="M81.25 56.607s-6.506 14.756 0 10.991 0-10.991 0-10.991" fill="#fff"/><path data-name="패스 567001" d="M80.472 64.982a2.587 2.587 0 01-.9 1.944c-.413.184-.689-.4-.612-1.286a2.587 2.587 0 01.9-1.944c.413-.184.689.4.612 1.286" fill="#3673ee"/><path data-name="패스 567002" d="M76.323 51.831h-.061l.2-.092 9.016-5.2a2.2 2.2 0 00.964-1.439v.046a1.806 1.806 0 01-.8 1.393l-9.016 5.2a.627.627 0 01-.306.092" fill="#3673ee"/><path data-name="패스 567003" d="M86.227 43.871a.964.964 0 01.046.306v.643a1.99 1.99 0 01-.9 1.561l-9.016 5.2a.826.826 0 01-.4.122h-.093a.459.459 0 00.459.337.811.811 0 00.4-.122l9.016-5.2a1.99 1.99 0 00.9-1.561v-.643c0-.352-.153-.582-.4-.628" fill="#222"/><path data-name="패스 567004" d="M86.273 44.162v.643a1.99 1.99 0 01-.9 1.561l-9.016 5.2a.735.735 0 01-.505.107.964.964 0 01-.046-.306v-.643a1.99 1.99 0 01.9-1.561l9.016-5.2a.719.719 0 01.49-.107.965.965 0 01.046.306" fill="#bcbcbc"/><path data-name="패스 567005" d="M86.273 44.162v.643a1.99 1.99 0 01-.9 1.561l-9.016 5.2a.735.735 0 01-.505.107.964.964 0 01-.046-.306v-.643a1.99 1.99 0 01.9-1.561l9.016-5.2a.719.719 0 01.49-.107.966.966 0 01.061.306z" fill="none" stroke="#222" stroke-linejoin="round" stroke-width=".383"/><path data-name="선 78312" fill="#fff" d="M97.601 45.341h-.015"/><path data-name="패스 567006" d="M83.992 31.778a10.679 10.679 0 015.2 1.24l.107.061a4.975 4.975 0 011.623 1.424l5.25 7.547a9.062 9.062 0 011.623 5.174v3.136l-.429.245v.918l.429.245v2.633l-.429.26v1.424-.49l.429.245V62.46a3.66 3.66 0 01-2.158 2.985L75.691 76.987a11.543 11.543 0 01-10.409 0l-.107-.061c-1.531-.873-2.235-2.051-2.143-3.2h-.015V43.555h.031a3.894 3.894 0 012.128-2.679l.429-.245a2.1 2.1 0 01-.077-.582v-3.352a3.037 3.037 0 011.791-2.5 9.6 9.6 0 018.633 0l.367.23 2.465-1.424a10.679 10.679 0 015.2-1.24M83.992 30.86a11.609 11.609 0 00-5.664 1.362l-1.99 1.148a10.444 10.444 0 00-9.491.046 3.825 3.825 0 00-2.25 3.276v3.429a4.8 4.8 0 00-2.434 3.061.919.919 0 00-.061.352V73.705a.918.918 0 00.015.122 4.519 4.519 0 002.6 3.873l.107.061a11.442 11.442 0 005.664 1.362 11.609 11.609 0 005.664-1.362l19.952-11.51c2.22-1.286 2.587-2.863 2.618-3.72v-6.689a.937.937 0 010-1.439v-2.618a.9.9 0 010-1.408v-3.153a9.934 9.934 0 00-1.776-5.694l-5.266-7.547a5.863 5.863 0 00-1.929-1.7l-.107-.061a11.442 11.442 0 00-5.664-1.362" fill="#222"/><g data-name="그룹 271973"><g data-name="그룹 271972" clip-path="url(#g)" transform="translate(62.7 44.56)" opacity=".1"><path data-name="패스 567007" d="M.215 0s.337 3.215 7.577 3.628v30.033s-7.118-.444-7.577-3.72 0-29.942 0-29.942" fill="#000001"/></g></g><g data-name="그룹 271975"><g data-name="그룹 271974" clip-path="url(#h)" transform="translate(19.67 39.432)" opacity=".15"><path data-name="패스 567008" d="M11.573 1.209c2.618 1.515 2.6 3.965-.031 5.5a10.459 10.459 0 01-9.506.015c-2.618-1.515-2.6-3.965.031-5.5a10.459 10.459 0 019.506-.015"/><path data-name="패스 567009" d="M11.573 1.209c2.618 1.515 2.6 3.965-.031 5.5a10.459 10.459 0 01-9.506.015c-2.618-1.515-2.6-3.965.031-5.5a10.459 10.459 0 019.506-.015z" fill="none" stroke="#222" stroke-miterlimit="10" stroke-width=".153"/></g></g><path data-name="패스 567010" d="M28.626 8.358l-.475-.276a3.751 3.751 0 01.475.276" fill="#fff"/><path data-name="패스 567011" d="M28.626 8.358l-.475-.276a3.751 3.751 0 01.475.276z" fill="none" stroke="#222" stroke-linejoin="round" stroke-width="1.225"/><path data-name="패스 567012" d="M34.764 15.843c0 5.3-3.75 16.241-8.358 24.416l-3.934-2.279h-.015c-4.424-2.528-8.343-9.478-8.343-14.774s3.75-11.726 8.358-14.389c2.189-1.271 4.194-1.454 5.679-.719l.475.276 3.444 1.99c1.653.8 2.679 2.709 2.679 5.5" fill="#fff"/><path data-name="패스 567013" d="M34.764 15.843c0 5.3-3.75 16.241-8.358 24.416l-3.934-2.279h-.015c-4.424-2.528-8.343-9.478-8.343-14.774s3.75-11.726 8.358-14.389c2.189-1.271 4.194-1.454 5.679-.719l.475.276 3.444 1.99h0c1.668.795 2.694 2.708 2.694 5.479z" fill="none" stroke="#222" stroke-linejoin="round" stroke-width="1.225"/><path data-name="패스 567014" d="M32.008 10.348a4.378 4.378 0 00-2.051-.413 7.676 7.676 0 00-3.613 1.148c-4.608 2.664-8.358 9.123-8.358 14.4 0 3.812 2.036 8.5 4.837 11.741a13.673 13.673 0 003.521 3.031L22.41 37.98h-.015c-4.424-2.528-8.343-9.478-8.343-14.774S17.787 11.48 22.41 8.817c2.189-1.271 4.194-1.454 5.679-.719l.475.276z" fill="#fff"/><path data-name="패스 567015" d="M32.008 10.348h0a4.378 4.378 0 00-2.051-.413 7.676 7.676 0 00-3.613 1.148c-4.608 2.664-8.358 9.123-8.358 14.4 0 3.812 2.036 8.5 4.837 11.741a13.673 13.673 0 003.521 3.031L22.41 37.98h-.015c-4.424-2.528-8.343-9.478-8.343-14.774S17.787 11.48 22.41 8.817c2.189-1.271 4.194-1.454 5.679-.719l.475.276z" fill="none" stroke="#222" stroke-linejoin="round" stroke-width=".612"/><path data-name="패스 567016" d="M28.564 8.358l-.475-.276a3.642 3.642 0 01.475.276" fill="#fff"/><path data-name="패스 567017" d="M28.564 8.358l-.475-.276a3.642 3.642 0 01.475.276z" fill="none" stroke="#222" stroke-linejoin="round" stroke-width=".612"/><path data-name="패스 567018" d="M32.008 10.363a4.378 4.378 0 00-2.051-.413 7.676 7.676 0 00-3.613 1.148c-4.608 2.664-8.358 9.123-8.358 14.4 0 3.812 2.036 8.5 4.837 11.741a13.673 13.673 0 003.521 3.031c4.608-8.174 8.358-19.119 8.358-24.416 0-2.786-1.026-4.7-2.679-5.5m-5.664 6.49l.4-.2c1.653-.735 2.939.138 2.939 2.1a7.561 7.561 0 01-3.322 5.74c-1.837 1.056-3 .367-3.276-1.255a3.7 3.7 0 01-.046-.643 7.292 7.292 0 013.337-5.74" fill="#3673ee"/><path data-name="패스 567019" d="M32.008 10.363a4.378 4.378 0 00-2.051-.413 7.676 7.676 0 00-3.613 1.148c-4.608 2.664-8.358 9.123-8.358 14.4 0 3.812 2.036 8.5 4.837 11.741a13.673 13.673 0 003.521 3.031c4.608-8.174 8.358-19.119 8.358-24.416 0-2.796-1.041-4.695-2.694-5.491zm-5.664 6.49l.4-.2c1.653-.735 2.939.138 2.939 2.1a7.561 7.561 0 01-3.322 5.74c-1.837 1.056-3 .367-3.276-1.255a3.7 3.7 0 01-.046-.643 7.22 7.22 0 013.305-5.741z" fill="none" stroke="#222" stroke-linejoin="round" stroke-width=".383"/><path data-name="패스 567020" d="M29.666 18.752a7.317 7.317 0 01-3.322 5.74c-1.837 1.056-3 .367-3.276-1.255a3.7 3.7 0 01-.046-.643 7.292 7.292 0 013.337-5.74l.4-.2c1.653-.735 2.939.138 2.939 2.1" fill="#fff"/><path data-name="패스 567021" d="M29.666 18.752a7.317 7.317 0 01-3.322 5.74c-1.837 1.056-3 .367-3.276-1.255a3.7 3.7 0 01-.046-.643 7.292 7.292 0 013.337-5.74l.4-.2c1.636-.734 2.907.139 2.907 2.098z" fill="none" stroke="#222" stroke-linejoin="round" stroke-width=".612"/><path data-name="패스 567022" d="M29.668 18.752a7.317 7.317 0 01-3.322 5.74c-1.837 1.056-3 .367-3.276-1.255l.4-.2a7.333 7.333 0 003.337-5.74 3.7 3.7 0 00-.046-.643c1.653-.735 2.939.138 2.939 2.1" fill="#e2e2e2"/><path data-name="패스 567023" d="M29.668 18.752a7.317 7.317 0 01-3.322 5.74c-1.837 1.056-3 .367-3.276-1.255l.4-.2a7.333 7.333 0 003.337-5.74 3.7 3.7 0 00-.046-.643c1.634-.734 2.907.139 2.907 2.098z" fill="none" stroke="#222" stroke-linejoin="round" stroke-width=".612"/></g></g></g></svg>