<svg xmlns="http://www.w3.org/2000/svg" xmlns:xlink="http://www.w3.org/1999/xlink" width="124.49" height="98.11"><defs><clipPath id="e"><path data-name="사각형 235353" fill="none" d="M0 0h91.111v91.111H0z"/></clipPath><clipPath id="f"><path data-name="사각형 235341" fill="none" d="M0 0h10.364v7.234H0z"/></clipPath><clipPath id="g"><path data-name="사각형 235342" fill="none" d="M0 0h2.141v2.146H0z"/></clipPath><clipPath id="h"><path data-name="사각형 235343" fill="none" d="M0 0h69.176v39.677H0z"/></clipPath><clipPath id="i"><path data-name="패스 621247" d="M31 201.017a5 5 0 002.278 3.918c1.253.706 2.278.137 2.278-1.321a4.954 4.954 0 00-2.278-3.895 2.05 2.05 0 00-1-.319c-.752 0-1.253.592-1.253 1.617" transform="translate(-31 -199.4)" fill="none"/></clipPath><clipPath id="j"><path data-name="패스 621253" d="M186.9 290.94a5.032 5.032 0 002.255 3.918c1.23.706 2.278.137 2.278-1.321a4.96 4.96 0 00-2.278-3.918 2.049 2.049 0 00-1-.319c-.752 0-1.253.592-1.253 1.617" transform="translate(-186.9 -289.3)" fill="none"/></clipPath><clipPath id="l"><path data-name="사각형 235349" fill="none" d="M0 0h19.68v10.774H0z"/></clipPath><clipPath id="m"><path data-name="사각형 235350" fill="none" d="M0 0h71.864v38.955H0z"/></clipPath><clipPath id="n"><path data-name="사각형 235351" fill="none" d="M0 0h13.462v7.51H0z"/></clipPath><linearGradient id="b" x1=".953" y1=".938" x2="0" y2=".048" gradientUnits="objectBoundingBox"><stop offset="0" stop-color="#5c8eff"/><stop offset="1" stop-color="#3472ff"/></linearGradient><linearGradient id="c" x1="-1.558" y1="7.29" x2="-1.508" y2="7.29" gradientUnits="objectBoundingBox"><stop offset="0" stop-color="#c2c1c1"/><stop offset="1" stop-color="#dfdedd"/></linearGradient><linearGradient id="k" x1="-9.392" y1="4.017" x2="-9.342" y2="4.017" xlink:href="#c"/><filter id="a" x="29" y="4" width="64.49" height="64.49" filterUnits="userSpaceOnUse"><feOffset dy="6"/><feGaussianBlur stdDeviation="3" result="blur"/><feFlood flood-color="#3673ee" flood-opacity=".102"/><feComposite operator="in" in2="blur"/><feComposite in="SourceGraphic"/></filter><filter id="d" x="60" y="0" width="64.49" height="64.49" filterUnits="userSpaceOnUse"><feOffset dy="6"/><feGaussianBlur stdDeviation="3" result="blur-2"/><feFlood flood-color="#3673ee" flood-opacity=".102"/><feComposite operator="in" in2="blur-2"/><feComposite in="SourceGraphic"/></filter><filter id="o" x="72.561" y="20.082" width="21.97" height="23.97" filterUnits="userSpaceOnUse"><feOffset dx="2" dy="4"/><feGaussianBlur result="blur-3"/><feFlood flood-opacity=".078"/><feComposite operator="in" in2="blur-3"/><feComposite in="SourceGraphic"/></filter></defs><g data-name="그룹 403767" opacity=".8" fill="#111"><g data-name="그룹 403742"><path data-name="패스 807307" d="M7.033 40.559l-2.6 1.5-4.434-2.56 2.6-1.5z"/><path data-name="패스 807308" d="M14.586 44.923l-2.6 1.5-4.434-2.56 2.6-1.5z"/><path data-name="패스 807309" d="M22.14 49.279l-2.6 1.5-4.434-2.56 2.6-1.5z"/><path data-name="패스 807310" d="M29.693 53.643l-2.6 1.5-4.434-2.56 2.6-1.5z"/><path data-name="패스 807311" d="M37.247 58.003l-2.6 1.5-4.434-2.56 2.6-1.5z"/><path data-name="패스 807312" d="M44.801 62.365l-2.6 1.5-4.434-2.56 2.6-1.5z"/></g><g data-name="그룹 403759"><path data-name="패스 807307" d="M65.033 77.559l-2.6 1.5-4.434-2.56 2.6-1.5z"/><path data-name="패스 807308" d="M72.586 81.923l-2.6 1.5-4.434-2.56 2.6-1.5z"/><path data-name="패스 807309" d="M80.14 86.279l-2.6 1.5-4.434-2.56 2.6-1.5z"/><path data-name="패스 807310" d="M87.693 90.643l-2.6 1.5-4.434-2.56 2.6-1.5z"/><path data-name="패스 807311" d="M95.247 95.003l-2.6 1.5-4.434-2.56 2.6-1.5z"/></g></g><g data-name="그룹 403758"><g filter="url(#d)"><g data-name="사각형 311717" transform="translate(69 3)" stroke="rgba(54,115,238,0.3)" fill="url(#b)"><rect width="46.49" height="46.49" rx="23.245" stroke="none"/><rect x=".5" y=".5" width="45.49" height="45.49" rx="22.745" fill="none"/></g></g><path data-name="사각형 311719" fill="none" d="M44.313 19.969H61.36V42.13H44.313z"/><g data-name="Layer 1"><g data-name="그룹 300516" clip-path="url(#e)" transform="translate(18.999 6.999)"><g data-name="그룹 300504" clip-path="url(#e)"><g data-name="그룹 300499"><g data-name="그룹 300498" clip-path="url(#f)" fill="#222" transform="translate(71.34 65.896)" opacity=".1"><path data-name="패스 621234" d="M1.959 2.231a.979.979 0 11-.957-1 .979.979 0 01.957 1"/><path data-name="패스 621235" d="M4.419 1.617A1.572 1.572 0 112.893 0a1.572 1.572 0 011.526 1.617"/><path data-name="패스 621236" d="M4.67 2.597A1.572 1.572 0 113.144.98 1.572 1.572 0 014.67 2.597"/><path data-name="패스 621237" d="M9.908 3.44A2.8 2.8 0 117.198.57a2.8 2.8 0 012.71 2.87"/><path data-name="패스 621238" d="M10.364 5.512A1.777 1.777 0 118.633 3.69a1.777 1.777 0 011.731 1.822"/></g></g><g data-name="그룹 300501"><g data-name="그룹 300500" clip-path="url(#g)" transform="translate(86.601 69.723)" opacity=".1"><path data-name="패스 621239" d="M2.164 1.116A1.071 1.071 0 111.116.023a1.071 1.071 0 011.048 1.093" fill="#222"/></g></g><g data-name="그룹 300503"><g data-name="그룹 300502" clip-path="url(#h)" transform="translate(5.649 37.469)" opacity=".2"><path data-name="패스 621240" d="M.478 12.714a.727.727 0 000 1.367L44.6 39.406a2.6 2.6 0 002.346 0L68.7 26.741a.711.711 0 000-1.344L24.349.274a2.62 2.62 0 00-2.346 0z"/><path data-name="패스 621241" d="M.478 12.714a.727.727 0 000 1.367L44.6 39.406a2.6 2.6 0 002.346 0L68.7 26.741a.711.711 0 000-1.344L24.349.274a2.62 2.62 0 00-2.346 0z"/></g></g></g><path data-name="패스 621242" d="M72.364 60.384l1.048.615-1.435 3.007-2.847-1.663" fill="#222"/><g data-name="그룹 300505" clip-path="url(#e)"><path data-name="패스 621243" d="M6.242 43.483l2.369-1.367.638.342A11.57 11.57 0 0114.42 51l1.048.5a1.985 1.985 0 01-.387.273l-2.847 1.64a2.8 2.8 0 01-2.961-.251 9.076 9.076 0 01-4.1-7.107 2.983 2.983 0 011.093-2.6" fill="#222"/><path data-name="패스 621244" d="M5.148 46.079a9.111 9.111 0 004.1 7.107c2.255 1.321 4.1.251 4.1-2.369a9.111 9.111 0 00-4.1-7.107c-2.255-1.321-4.1-.251-4.1 2.369" fill="#222"/><path data-name="패스 621245" d="M5.376 46.33a8.314 8.314 0 003.781 6.537c2.1 1.207 3.781.228 3.781-2.187a8.314 8.314 0 00-3.781-6.537c-2.1-1.207-3.781-.228-3.781 2.187" fill="#222"/><path data-name="패스 621246" d="M6.264 47.036a6.164 6.164 0 002.824 4.874c1.572.888 2.824.159 2.824-1.617a6.2 6.2 0 00-2.824-4.874c-1.572-.888-2.824-.159-2.824 1.64" fill="#fff"/></g><g data-name="그룹 300506" transform="translate(7.061 45.419)" clip-path="url(#i)"><path data-name="사각형 235346" fill="url(#c)" d="M0 0h4.533v6.266H0z"/></g><g data-name="그룹 300507" clip-path="url(#e)"><path data-name="패스 621248" d="M8.61 42.116l-2.369 1.367a2.692 2.692 0 00-1.071 2.1l-.888.251v-.208c-.228-3.121 1.025-5.148 4.351-3.531" fill="#212020"/><path data-name="패스 621249" d="M41.752 63.983l2.369-1.367.638.342A11.57 11.57 0 0149.93 71.5l1.048.5a1.979 1.979 0 01-.387.273l-2.847 1.64a2.8 2.8 0 01-2.961-.251 9.076 9.076 0 01-4.1-7.107 2.983 2.983 0 011.093-2.6" fill="#222"/><path data-name="패스 621250" d="M40.658 66.579a9.111 9.111 0 004.1 7.107c2.255 1.321 4.1.251 4.1-2.369a9.111 9.111 0 00-4.1-7.107c-2.255-1.321-4.1-.251-4.1 2.369" fill="#222"/><path data-name="패스 621251" d="M40.886 66.83a8.315 8.315 0 003.781 6.537c2.1 1.207 3.781.228 3.781-2.187a8.314 8.314 0 00-3.781-6.537c-2.1-1.207-3.781-.228-3.781 2.187" fill="#222"/><path data-name="패스 621252" d="M41.752 67.536a6.164 6.164 0 002.824 4.874c1.572.888 2.824.159 2.824-1.617a6.2 6.2 0 00-2.824-4.874c-1.572-.888-2.824-.159-2.824 1.64" fill="#fff"/></g><g data-name="그룹 300508" transform="translate(42.572 65.896)" clip-path="url(#j)"><path data-name="사각형 235348" transform="translate(0 .023)" fill="url(#k)" d="M0 0h4.533v6.268H0z"/></g><g data-name="그룹 300515" clip-path="url(#e)"><path data-name="패스 621254" d="M44.121 62.638l-2.369 1.367a2.692 2.692 0 00-1.071 2.1l-.888.251v-.2c-.228-3.121 1.025-5.148 4.351-3.531" fill="#212020"/><path data-name="패스 621255" d="M18.518 25.056s-3.667 1.572-5.581 2.688c-1.5.888-6.127 3.781-8.268 5.216a4.578 4.578 0 00-1.572 1.822 10.455 10.455 0 00-1 3.326 13.95 13.95 0 00.729 6.013 6.674 6.674 0 001.162 1.389 2.9 2.9 0 01-.023-.433c0-3.075 2.323-4.168 5.4-2.232a11.029 11.029 0 014.829 8.359 3.859 3.859 0 01-.023.524l.615.364 25.01 14.236v-.2c-.251-3.3 1.184-5.4 4.988-3.189a11.57 11.57 0 015.171 8.542l1.435.661c1.184.456 2.209-.456 4.761-1.754s12.414-7.494 14.441-8.769 2.87-2.437 3.075-3.394a43.452 43.452 0 00.387-5.079 4.838 4.838 0 00-.752-2.05 14.051 14.051 0 010-1.686 25.992 25.992 0 00-.3-3.348l-.706-.706a24.159 24.159 0 00-1-3.417l-.114-.3a8.086 8.086 0 00-3.872-4.259L42.047 24.349a7.289 7.289 0 00-5.148-.592 19.111 19.111 0 00-3.075 1.071l-6.4-1.594a12.916 12.916 0 00-7.084 1.048z" fill="#fff"/><path data-name="패스 621256" d="M18.518 25.056s-3.667 1.572-5.581 2.688c-1.5.888-6.127 3.781-8.268 5.216a4.578 4.578 0 00-1.572 1.822 10.455 10.455 0 00-1 3.326 13.95 13.95 0 00.729 6.013 6.674 6.674 0 001.162 1.389 2.9 2.9 0 01-.023-.433c0-3.075 2.323-4.168 5.4-2.232a11.029 11.029 0 014.829 8.359 3.859 3.859 0 01-.023.524l.615.364 25.01 14.236v-.2c-.251-3.3 1.184-5.4 4.988-3.189a11.57 11.57 0 015.171 8.542l1.435.661c1.184.456 2.209-.456 4.761-1.754s12.414-7.494 14.441-8.769 2.87-2.437 3.075-3.394a43.452 43.452 0 00.387-5.079 4.838 4.838 0 00-.752-2.05 14.051 14.051 0 010-1.686 25.992 25.992 0 00-.3-3.348l-.706-.706a24.159 24.159 0 00-1-3.417l-.114-.3a8.086 8.086 0 00-3.872-4.259L42.047 24.349a7.289 7.289 0 00-5.148-.592 19.111 19.111 0 00-3.075 1.071l-6.4-1.594a12.916 12.916 0 00-7.084 1.048z" fill="none" stroke="#222" stroke-linejoin="round" stroke-width=".683"/><g data-name="그룹 300510"><g data-name="그룹 300509" clip-path="url(#l)" transform="translate(14.623 24.646)" opacity=".18"><path data-name="패스 621257" d="M.068 10.774a15.719 15.719 0 012.278-.888l4.123-2.551C8.496 6.035 19.703.661 19.703.661l-.114-.638-.387.182-.569-.137-1.845.478c-3.234.82-4.077 1.048-9.339 3.758C2.597 6.787-.5 9.338.069 10.773" fill="#222"/></g></g><path data-name="패스 621258" d="M14.669 35.419c3.781-1.868 8.974-2.1 10.592-2.118 1.367-1.025 3.69-2.665 6.537-4.464a55.417 55.417 0 019.749-4.738c-.524-.137-1.913-.638-2.323-.683a10.053 10.053 0 00-5.4 1.389l-.41-.091a53.765 53.765 0 00-11.753 5.148c-4.259 2.551-6.036 4.351-6.97 5.558" fill="#222"/><path data-name="패스 621259" d="M73.185 51.091a6.1 6.1 0 01.342.524 3.185 3.185 0 01-1.367 1.367l-.342-7.2.2-.569.82.729a25.488 25.488 0 01.342 3.417 12.952 12.952 0 000 1.731" fill="#f8483b"/><path data-name="패스 621260" d="M73.185 51.091a6.1 6.1 0 01.342.524 3.185 3.185 0 01-1.367 1.367h0l-.342-7.2.2-.569.82.729a25.488 25.488 0 01.342 3.417 12.952 12.952 0 00.005 1.732z" fill="none" stroke="#222" stroke-linejoin="round" stroke-width=".683"/><path data-name="패스 621261" d="M72.138 51.159l-.137-3.007a6.349 6.349 0 001.093-.706 13.068 13.068 0 01.159 2c-.023.273-.023.547-.023.8a6.081 6.081 0 01-1.071.911" fill="#fff"/><path data-name="패스 621262" d="M72.138 51.159l-.137-3.007a6.349 6.349 0 001.093-.706 13.068 13.068 0 01.159 2c-.023.273-.023.547-.023.8a6.081 6.081 0 01-1.092.913z" fill="none" stroke="#222" stroke-miterlimit="10" stroke-width=".683"/><path data-name="패스 621263" d="M50.202 66.511c.979-.364.3-1.959.3-1.959a3.1 3.1 0 00.979.3 14.321 14.321 0 002-.569 20.2 20.2 0 01.364 2.893c.091 1.731.251 1.845.251 1.845s5.6-3.029 7.79-4.373 5.444-3.348 7.517-4.715 2.346-1.959 2.528-2.551.41-4.419.41-4.419a2.938 2.938 0 001.184-1.321 3.782 3.782 0 01.456 1.549 43.07 43.07 0 01-.387 5.079c-.2.934-1.048 2.118-3.075 3.394s-11.867 7.471-14.441 8.769-3.576 2.232-4.761 1.754l-1.435-.661a10.888 10.888 0 00-1.526-4.692 6.606 6.606 0 001.845-.319z" fill="none" stroke="#222" stroke-linejoin="round" stroke-width=".683"/><g data-name="그룹 300512"><g data-name="그룹 300511" clip-path="url(#m)" transform="translate(2.118 33.301)" opacity=".18"><path data-name="패스 621264" d="M71.568 18.7l-.911.661-.592.342-.319-7.084.319-.683-1.686-4.783-18.45 11.093c0-1.733-1.638-2.546-3.144-3.4L22.122.181c-6.287.023-9.554 1.937-9.554 1.937L6.537 1.8l-.8.478a7.653 7.653 0 01-3.166 1l-2.483.228a46.1 46.1 0 000 5.011 7.543 7.543 0 001.572 3.8c-.023-6.15 5.489-3.143 5.489-3.143 5.581 4.077 4.92 9.293 4.92 9.293l25.625 14.6c-.547-6.719 4.328-3.736 4.328-3.736a11.5 11.5 0 015.808 8.883l2.483.752s15.329-9.088 17.152-9.7 3.6-3.212 3.6-3.212l.524-1.458.319-4.692zM37.629 30.18l-10.523-6.173v-.182a.433.433 0 01.638-.364l10.387 5.877z" fill="#222"/></g></g><path data-name="패스 621265" d="M50.498 64.552a19.328 19.328 0 01-.478-5.4c.046-1.526.911-1.412 1.367-1.526s2.05-.342 2.05-.342l.068 6.947a14.32 14.32 0 01-2 .569 3.1 3.1 0 01-.979-.3" fill="#f8483b"/><path data-name="패스 621266" d="M50.498 64.552a19.328 19.328 0 01-.478-5.4c.046-1.526.911-1.412 1.367-1.526s2.05-.342 2.05-.342l.068 6.947a14.32 14.32 0 01-2 .569 3.1 3.1 0 01-1.007-.248z" fill="none" stroke="#222" stroke-linejoin="round" stroke-width=".683"/><path data-name="패스 621267" d="M53.436 59.291v3.1c-.82.251-1.5.182-1.64-.046a4.694 4.694 0 01-.068-1.959c.114-.706 1.184-.957 1.686-1.116" fill="#fff"/><path data-name="패스 621268" d="M53.436 59.291v3.1c-.82.251-1.5.182-1.64-.046a4.693 4.693 0 01-.068-1.959c.119-.708 1.185-.936 1.708-1.095z" fill="none" stroke="#222" stroke-linejoin="round" stroke-width=".683"/><path data-name="패스 621270" d="M70.087 42.959l1.162 4.51a1.845 1.845 0 01-.843 2.141l-14.828 8.587a.683.683 0 01-1.025-.569l-.159-5.877a.683.683 0 01.342-.592l14.35-8.564a.683.683 0 011 .387" fill="#222"/><path data-name="패스 621271" d="M14.669 35.419" fill="#141c1e"/><path data-name="패스 621272" d="M27.584 48.676l-3.1-1.8c-.159-.091-.3 0-.3.228v1.071a.729.729 0 00.3.569l3.1 1.8c.159.091.3 0 .3-.228v-1.071a.729.729 0 00-.3-.569" fill="#bcbcbc"/><path data-name="패스 621273" d="M27.584 48.676l-3.1-1.8c-.159-.091-.3 0-.3.228v1.071a.729.729 0 00.3.569l3.1 1.8c.159.091.3 0 .3-.228v-1.071a.729.729 0 00-.3-.569z" fill="none" stroke="#111" stroke-miterlimit="10" stroke-width=".683"/><path data-name="패스 621274" d="M27.584 48.608l-3.1-1.8c-.159-.091-.3 0-.3.228a.729.729 0 00.3.569l3.1 1.8c.159.091.3 0 .3-.228a.729.729 0 00-.3-.569" fill="#222"/><path data-name="패스 621275" d="M27.584 48.608l-3.1-1.8c-.159-.091-.3 0-.3.228a.729.729 0 00.3.569l3.1 1.8c.159.091.3 0 .3-.228a.729.729 0 00-.3-.569z" fill="none" stroke="#111" stroke-miterlimit="10" stroke-width=".683"/><path data-name="패스 621276" d="M2.483 36.354l2.619-.319a6.173 6.173 0 002.574-.911l.342-.228a.524.524 0 00.068-.82l-2.118-1.959-1.3.866a4.579 4.579 0 00-1.572 1.822 9.453 9.453 0 00-.615 1.549" fill="#222"/><path data-name="패스 621277" d="M28.154 23.416l-2.323.888a1.275 1.275 0 01-.547.046l-3.417-.661a10.718 10.718 0 016.287-.3" fill="#222"/><path data-name="선 85582" fill="#fff" d="M40.363 63.687l-11.002-6.241"/><path data-name="선 85583" fill="none" stroke="#222" stroke-linecap="round" stroke-miterlimit="10" stroke-width=".683" d="M40.363 63.687l-11.002-6.241"/><path data-name="패스 621278" d="M71.158 49.952l-15.216 8.792a.352.352 0 01-.342-.615l15.214-8.792a.352.352 0 11.342.615" fill="#fff"/><path data-name="패스 621279" d="M2.369 42.663s1.617-6.15 8.018-2.073 3.986 8.314 9.612 10.888c3.986 1.8 10.614 3.166 15.534 4.92a42.529 42.529 0 009.339 2.1 5.909 5.909 0 015.216 3.758l.319 1.549a1.207 1.207 0 001.5.911l.228-.068 1.23-.251s.661 4.9.8 4.806 15.99-8.838 17.266-11.047a8.111 8.111 0 00.934-4.464.706.706 0 01.182-.524l1.071-1.162.114.478a10.683 10.683 0 01.273 4.123c-.228 1.754-.911 3.849-2.756 4.852l-17.38 10.36a3.393 3.393 0 01-1.5.478 4.578 4.578 0 01-1.959-.3l-.114-.228a4.189 4.189 0 01-.3-.888 11.389 11.389 0 00-1.276-3.417c-1.276-2.232-3.736-5.558-6.856-5.262 0 0-2.6.159-2 4.6L14.259 51.934a11.275 11.275 0 00-5.307-9.179c-3.394-2.141-4.556.387-4.988 2.824a4.125 4.125 0 01-1.572-2.916" fill="#3673ee"/><path data-name="패스 621280" d="M2.369 42.663s1.617-6.15 8.018-2.073 3.986 8.314 9.612 10.888c3.986 1.8 10.614 3.166 15.534 4.92a42.529 42.529 0 009.339 2.1 5.909 5.909 0 015.216 3.758l.319 1.549a1.207 1.207 0 001.5.911l.228-.068 1.23-.251s.661 4.9.8 4.806 15.99-8.838 17.266-11.047a8.111 8.111 0 00.934-4.464.706.706 0 01.182-.524l1.071-1.162.114.478a10.683 10.683 0 01.273 4.123c-.228 1.754-.911 3.849-2.756 4.852l-17.38 10.36a3.393 3.393 0 01-1.5.478 4.578 4.578 0 01-1.959-.3l-.114-.228a4.189 4.189 0 01-.3-.888 11.389 11.389 0 00-1.276-3.417c-1.276-2.232-3.736-5.558-6.856-5.262 0 0-2.6.159-2 4.6L14.259 51.934a11.275 11.275 0 00-5.307-9.179c-3.394-2.141-4.556.387-4.988 2.824a3.955 3.955 0 01-1.595-2.916z" fill="none" stroke="#222" stroke-linejoin="round" stroke-width=".569"/><path data-name="패스 621281" d="M55.282 69.381c-.729.182-1-.046-1.116-.41.273-.137 5.535-3.007 7.722-4.351s5.444-3.348 7.517-4.715 2.346-1.959 2.528-2.551a42.866 42.866 0 00.228-4.419l.182.068a3.646 3.646 0 01.342 1.526c0 .866-.228 3.28-.228 3.28a3.075 3.075 0 01-1.321 2c-1.184.866-6.9 4.6-10.341 6.583s-4.783 2.756-5.535 2.938" fill="#fff"/><path data-name="패스 621282" d="M55.282 69.381c-.729.182-1-.046-1.116-.41.273-.137 5.535-3.007 7.722-4.351s5.444-3.348 7.517-4.715 2.346-1.959 2.528-2.551a42.866 42.866 0 00.228-4.419l.182.068a3.646 3.646 0 01.342 1.526c0 .866-.228 3.28-.228 3.28a3.075 3.075 0 01-1.321 2c-1.184.866-6.9 4.6-10.341 6.583s-4.784 2.806-5.513 2.989z" fill="none" stroke="#222" stroke-linejoin="round" stroke-width=".683"/><path data-name="패스 621283" d="M73.618 61.956a2.2 2.2 0 01-.934 1.777c-.524.3-.934-.023-.934-.706a2.2 2.2 0 01.934-1.777c.524-.3.934.023.934.706" fill="#fff"/><path data-name="패스 621284" d="M73.618 61.956a2.2 2.2 0 01-.934 1.777c-.524.3-.934-.023-.934-.706a2.2 2.2 0 01.934-1.777c.524-.296.934.022.934.706z" fill="none" stroke="#222" stroke-miterlimit="10" stroke-width=".569"/><path data-name="패스 621285" d="M84.597 65.575a3.394 3.394 0 00-6.31-2.483 1.89 1.89 0 00-.251-.524v-.093a1.913 1.913 0 00-3.781-.387l-.364-.068a1.184 1.184 0 10.706 2.118 1.913 1.913 0 003.326.683 3.394 3.394 0 003.189 3.166 2.164 2.164 0 103.462-2.412" fill="#dbdbdb"/><path data-name="패스 621286" d="M84.597 65.575a3.394 3.394 0 00-6.31-2.483 1.89 1.89 0 00-.251-.524v-.093a1.913 1.913 0 00-3.781-.387l-.364-.068a1.184 1.184 0 10.706 2.118 1.913 1.913 0 003.326.683 3.394 3.394 0 003.189 3.166 2.164 2.164 0 103.462-2.412z" fill="none" stroke="#222" stroke-linejoin="round" stroke-width=".569"/><path data-name="패스 621287" d="M89.744 67.695a1.207 1.207 0 11-.329-.875 1.207 1.207 0 01.329.875" fill="#dbdbdb"/><path data-name="패스 621288" d="M89.744 67.695a1.207 1.207 0 11-.329-.875 1.207 1.207 0 01.329.875z" fill="none" stroke="#222" stroke-linejoin="round" stroke-width=".569"/><path data-name="패스 621293" d="M7.039 38.995c6.173 1.389 8.519 7.175 8.519 7.175l-.364-1.321a9.749 9.749 0 00-1.731-3.531 7.665 7.665 0 00-5.307-3.029 4.92 4.92 0 00-2.118.251 2.6 2.6 0 00-.8.478l-.273.228a1.641 1.641 0 01.615-.182 4.442 4.442 0 011.458-.046" fill="#fff"/><path data-name="패스 621294" d="M5.22 39.018l-.3.228.638-.205" fill="#fff"/><path data-name="패스 621295" d="M28.609 47.242a2.186 2.186 0 01-.319.387.907.907 0 01-.934.319L16.74 41.775l-.114-.091v-.046a2.192 2.192 0 01-.114-1.207z" fill="#fff"/><path data-name="패스 621296" d="M49.291 47.674L25.329 33.483a.342.342 0 10-.342.592l23.78 14.008 1.891 1.116a5.566 5.566 0 00-1.367-1.549" fill="#fff"/><path data-name="패스 621297" d="M24.987 34.076s-1.093-.638-5.148-.251a43.794 43.794 0 015.148-.524l.592.319z" fill="#fff"/><path data-name="패스 621299" d="M83.432 63.163a.752.752 0 11-.752-.752.752.752 0 01.752.752" fill="#fff"/><path data-name="패스 621300" d="M88.742 67.353a.364.364 0 11-.365-.365.364.364 0 01.365.365" fill="#fff"/><path data-name="패스 621301" d="M77.126 61.979a.433.433 0 11-.433-.433.433.433 0 01.433.433" fill="#fff"/><path data-name="패스 621302" d="M82.365 62.73a.433.433 0 11-.433-.433.433.433 0 01.433.433" fill="#fff"/><g data-name="그룹 300514"><g data-name="그룹 300513" clip-path="url(#n)" transform="translate(42.868 33.005)" opacity=".3"><path data-name="패스 621303" d="M13.484 3.758c0 2.073-3.007 3.758-6.742 3.758S0 5.83 0 3.758 3.007 0 6.742 0s6.742 1.686 6.742 3.758" fill="#222"/></g></g><path data-name="패스 621304" d="M52.571 36.353c0 1.367-2.118 2.46-4.715 2.46s-4.715-1.093-4.715-2.46 2.118-2.46 4.715-2.46 4.715 1.093 4.715 2.46" fill="#222"/><path data-name="패스 621305" d="M18.518 25.056s-3.667 1.572-5.581 2.688c-1.5.888-6.127 3.781-8.268 5.216a4.578 4.578 0 00-1.572 1.822 10.455 10.455 0 00-1 3.326 13.95 13.95 0 00.729 6.013 6.674 6.674 0 001.162 1.389 2.9 2.9 0 01-.023-.433c0-3.075 2.323-4.168 5.4-2.232a11.029 11.029 0 014.829 8.359 3.859 3.859 0 01-.023.524l.615.364 25.01 14.236v-.2c-.251-3.3 1.184-5.4 4.988-3.189a11.57 11.57 0 015.171 8.542l1.435.661c1.184.456 2.209-.456 4.761-1.754s12.414-7.494 14.441-8.769 2.87-2.437 3.075-3.394a43.452 43.452 0 00.387-5.079 4.838 4.838 0 00-.752-2.05 14.051 14.051 0 010-1.686 25.992 25.992 0 00-.3-3.348l-.706-.706a24.159 24.159 0 00-1-3.417l-.114-.3a8.086 8.086 0 00-3.872-4.259L42.047 24.349a7.289 7.289 0 00-5.148-.592 19.111 19.111 0 00-3.075 1.071l-6.4-1.594a12.916 12.916 0 00-7.084 1.048z" fill="none" stroke="#222" stroke-linejoin="round" stroke-width="1.139"/><path data-name="패스 621306" d="M29.771 40.795s-.688 5.067-.8 5.581c-.159.706-.364 1.162-.683 1.093a2.484 2.484 0 01-.82-.319l-1.321-.706-9.339-5.262a.683.683 0 01-.364-.592c0-.752.023-1.959.046-2.506s2.323-1.481 5.672-1.731a2.757 2.757 0 01.729.068 18.6 18.6 0 016.15 3.007 1.47 1.47 0 01.729 1.367" fill="#222"/><path data-name="선 85584" fill="#222" d="M31.798 31.297l24.668 14.259"/><path data-name="패스 621307" d="M56.808 45.737a.683.683 0 01-.615-.023L31.502 31.455c-.182-.114-.2-.251-.046-.342a.683.683 0 01.615.023l24.691 14.259c.182.114.2.251.046.342" fill="#222"/><path data-name="선 85585" fill="#222" d="M35.852 28.951L60.543 43.21"/><path data-name="패스 621308" d="M60.862 43.391a.683.683 0 01-.615-.023L35.579 29.109c-.182-.114-.2-.251-.046-.342a.683.683 0 01.615.023l24.668 14.259c.182.114.205.251.046.342" fill="#222"/><path data-name="선 85586" fill="#222" d="M39.702 26.741l24.691 14.236"/><path data-name="패스 621309" d="M64.711 41.182a.683.683 0 01-.615-.023L39.428 26.9c-.182-.114-.2-.251-.046-.342a.683.683 0 01.615.023l24.691 14.236c.182.114.2.251.046.342" fill="#222"/><path data-name="패스 621310" d="M40.954 28.131l2.255 7.79 1.777 1.663 1.936.205 1.982-.159 2.688-1.276.5-1.253 1.845-6.56-1.435.205-2.232.957-2.893.592-3.166-.433z" fill="#e8e9eb"/><path data-name="패스 621311" d="M54.803 24.782c.159 2.847-3.052 5.353-7.129 5.558s-7.539-1.913-7.676-4.783 3.052-5.353 7.129-5.558 7.517 1.936 7.676 4.783z" fill="none" stroke="#000" stroke-miterlimit="10" stroke-width="1.025"/><path data-name="패스 621312" d="M52.093 35.101c-.41 1.412-2.187 2.6-4.328 2.711s-4.032-.843-4.578-2.232" fill="none" stroke="#222" stroke-miterlimit="10" stroke-width=".683"/><path data-name="선 85587" fill="none" stroke="#222" stroke-miterlimit="10" stroke-width=".683" d="M40.613 27.538l2.574 8.018"/><path data-name="선 85588" fill="none" stroke="#222" stroke-miterlimit="10" stroke-width=".683" d="M52.093 35.101l2.551-9.043"/><path data-name="패스 621313" d="M41.547 27.857s1.594 6.082 6.264 5.831 5.125-6.81 5.125-6.81" fill="none" stroke="#222" stroke-linecap="round" stroke-miterlimit="10" stroke-width=".683"/><path data-name="패스 621314" d="M45.146 32.982a5.467 5.467 0 002.688.5 6.333 6.333 0 001.822-.364" fill="none" stroke="#222" stroke-linecap="round" stroke-miterlimit="10" stroke-width="1.822"/><path data-name="패스 621315" d="M41.116 22.573l2.392-2.619.8-.706-.228-.569 1.868-1.868 1.458-.342 1.23-.114 1.845-1.025 1.8-.251 1.549.273 1.253.433.5.228 1-.911.957-.114.934-.205 1.594.433.638 1.594-.068 1.253-.228.934.752.843.547 1.549-.661 1.071-1.093.866-.068 1.071-.387 1.412-1.458.068a4.01 4.01 0 00-.433.729 8.217 8.217 0 01-.433.843l-.911.547-1.754-.205h-.342l-1.253.957-1.276.569-1.663.661-2.027.364-2.916-.182a24.643 24.643 0 01-3.872-2.255 7.055 7.055 0 01-1.344-2.938l.387-1.184z" fill="#fff"/><path data-name="패스 621316" d="M47.218 22.505l-.228.569-2.027 1.64-.5.774a5.08 5.08 0 01-1.458-.478 11.053 11.053 0 014.168-3.052z" fill="#d1a900"/><path data-name="패스 621317" d="M34.691 21.298l-.046-.046h.046z" fill="#ffd100"/><path data-name="패스 621320" d="M63.026 25.579a1.115 1.115 0 00-1.686-.456 1.593 1.593 0 00-.41 1.868 2.847 2.847 0 001.435 1.389c.5.251 1.207.364 1.572-.091a1.116 1.116 0 00.2-.638 2.278 2.278 0 00-.979-1.982" fill="#fff"/><path data-name="패스 621321" d="M63.322 25.511a1.412 1.412 0 00-1.845-.8 1.769 1.769 0 00-.957 2.05 3.074 3.074 0 001.708 1.913 2.164 2.164 0 001.207.228 1.116 1.116 0 00.934-.8 2.536 2.536 0 00-1.071-2.665.302.302 0 00-.3.524 1.982 1.982 0 01.82 1.64c0 .273-.068.569-.342.661a1.253 1.253 0 01-.82-.091 2.574 2.574 0 01-1.412-1.253 1.315 1.315 0 01.25-1.526.794.794 0 011.253.251.307.307 0 10.592-.159"/><path data-name="패스 621322" d="M61.363 22.3a1.982 1.982 0 01-1.276.911 2.505 2.505 0 01.091.638 2.179 2.179 0 01-2.05 2.3h-.342a1.913 1.913 0 01-2.8 1.686 3.383 3.383 0 00-2.05.82h0a9.067 9.067 0 01-5.489 1.731c-4.237 0-7.676-2.551-7.676-5.717 0-2.323 1.845-4.3 4.51-5.193a2.346 2.346 0 01.137-1.321c.547-1.3 2.278-1.868 4.123-1.5a4.947 4.947 0 013.963-1.686 5.58 5.58 0 013.143.888l.456-.41a3.077 3.077 0 014.328.182 2.608 2.608 0 01-.182 3.462 2.48 2.48 0 011.114 3.209z" fill="none" stroke="#222" stroke-linejoin="round"/><path data-name="패스 621323" d="M47.195 21.935a11.053 11.053 0 00-4.168 3.052 3.6 3.6 0 01-.752-.456h-.023a3.471 3.471 0 00-3.166-1.754c-.387.023-.752-.114-1.139-.091a3.731 3.731 0 01-3.257-1.389l-.068-.341.091-1.481 1.276-1.025 1.184-.638a6.034 6.034 0 012.369-.3c.911.182 2.551.683 3.052 2.141l.3.433.866.137.729-.091.957.159.911.524.8.706z" fill="#ffda34"/><path data-name="패스 621324" d="M44.645 24.873l-.251.706-1.025.638-1.139-.228-1.5-1.617-.866-.615-1.8.228-1.617-.046-.979-.456-.478-.433-.3-1.754a4.343 4.343 0 003.257 1.389c.387 0 .979-.114 1.367-.114a3.811 3.811 0 013.326 1.526l.547.273c.319.273.433.342 1.458.524" fill="#d1a900"/><path data-name="패스 621325" d="M43.916 26.832a6.03 6.03 0 015.33-4.419" fill="none" stroke="#222" stroke-linecap="round" stroke-miterlimit="10" stroke-width=".683"/><path data-name="패스 621326" d="M44.694 24.486c-.979.342-1.731-.729-2.346-1.3a4.016 4.016 0 00-2.619-.911 14.65 14.65 0 01-3.166.046c-1.048-.228-1.617-.752-1.64-1.686 0-1.777 2.073-2.506 3.508-2.779a3.8 3.8 0 012.46.41 3.234 3.234 0 011.549 1.8c.205.524.615.569 1.093.478a5.171 5.171 0 011.731-.046c.911.182 1.959.934 1.754 2-.068.387.524.547.592.159a2.315 2.315 0 00-1.162-2.369 3.393 3.393 0 00-1.5-.456 10.585 10.585 0 00-1.708.114c-.569.046-.251-.205-.342-.41a3.277 3.277 0 00-.342-.638 3.873 3.873 0 00-.957-.934 4.533 4.533 0 00-2.642-.774 7.084 7.084 0 00-2.414.615 3.541 3.541 0 00-2.1 2.027 2.232 2.232 0 00.706 2.506 4.349 4.349 0 003.052.661c1.048-.068 2.642-.319 3.667.592s1.708 1.913 2.984 1.481c.364-.137.205-.729-.159-.592" fill="#222"/><path data-name="패스 621327" d="M34.327 20.933a5.079 5.079 0 00.342 2.05 2.588 2.588 0 002.164 1.23 7.016 7.016 0 001.549.091c.524-.023 1.025-.159 1.526-.228s.387.205.524.387l.524.592a4.92 4.92 0 001.048 1 1.942 1.942 0 002.574-.091c.273-.3-.159-.729-.433-.433a.979.979 0 01-.957.364 2.437 2.437 0 01-1.071-.5 7.537 7.537 0 01-.888-.957c-.251-.3-.524-.752-.888-.911a2.114 2.114 0 00-1.184.091 6.673 6.673 0 01-1.435.091 6.082 6.082 0 01-1.412-.228 1.6 1.6 0 01-.934-.524 4.781 4.781 0 01-.387-1.982.319.319 0 00-.615 0" fill="#222"/></g></g></g><g data-name="그룹 403755"><g transform="matrix(1 0 0 1 0 -.001)" filter="url(#o)"><path data-name="패스 132435" d="M76.519 36.3a4.187 4.187 0 01-.683-7.618 2.578 2.578 0 01.094-.338 3.589 3.589 0 011.232-1.709l.001-.004a4.13 4.13 0 01.131-2.248 4.19 4.19 0 017.923 2.728c-.02.055-.04.113-.063.166a3.149 3.149 0 011.02 3.487 3.251 3.251 0 01-.314.656 3.383 3.383 0 01.317.735 2.095 2.095 0 11.443 3.749 2.042 2.042 0 01-1.054-.817 3.148 3.148 0 01-3.42.938 3.116 3.116 0 01-1.24-.793 4.2 4.2 0 01-4.387 1.069z" fill="#fff" opacity=".859"/></g><g data-name="그룹 25744"><g data-name="그룹 403756"><path data-name="패스 132511" d="M96.6 32.665a1.571 1.571 0 11-.974-1.997 1.571 1.571 0 01.974 1.997" fill="#fff"/><path data-name="패스 132513" d="M85.225 26.112a4.19 4.19 0 11-2.598-5.325 4.19 4.19 0 012.598 5.325" fill="#fff"/><path data-name="패스 132514" d="M81.848 33.705a4.19 4.19 0 11-2.598-5.326 4.19 4.19 0 012.598 5.326" fill="#fff"/><path data-name="패스 132515" d="M86.15 34.078a3.142 3.142 0 11-1.948-3.994 3.142 3.142 0 011.948 3.994" fill="#fff"/><path data-name="사각형 37487" fill="none" d="M96.988 26.732l-5.115 14.855-19.311-6.65 5.115-14.855z"/></g></g></g><path data-name="패스 807334" d="M72.063 35.619s3.142-1.914 2.741-3.463" fill="none" stroke="#222" stroke-linecap="round" stroke-width=".7"/><path data-name="패스 807335" d="M73.643 34.578s3.707 3.533 7.248.455a3.478 3.478 0 004.66.141" fill="none" stroke="#222" stroke-width=".7"/></g><path data-name="패스 807332" d="M90.501 36a1.5 1.5 0 111.5-1.5 1.5 1.5 0 01-1.5 1.5z" fill="#fff" opacity=".7"/><path data-name="패스 807333" d="M85.138 36.09c-1.72 0-3.114-.767-3.114-1.713s1.394-1.713 3.114-1.713 3.114.767 3.114 1.713-1.394 1.713-3.114 1.713z" fill="#fff" opacity=".7"/></svg>