<svg xmlns="http://www.w3.org/2000/svg" xmlns:xlink="http://www.w3.org/1999/xlink" width="100" height="100" viewBox="0 0 100 100">
  <defs>
    <style>
      .cls-1, .cls-12, .cls-13, .cls-14, .cls-15, .cls-16, .cls-17, .cls-18, .cls-19, .cls-20, .cls-22, .cls-24, .cls-26, .cls-27, .cls-28 {
        fill: none;
      }

      .cls-2, .cls-7 {
        isolation: isolate;
      }

      .cls-3 {
        clip-path: url(#clip-path);
      }

      .cls-4 {
        fill: #f9f9f9;
      }

      .cls-5 {
        fill: #f0f0f0;
      }

      .cls-6 {
        fill: #141c1e;
      }

      .cls-7 {
        opacity: 0.15;
        mix-blend-mode: multiply;
      }

      .cls-8 {
        clip-path: url(#clip-path-4);
      }

      .cls-9 {
        fill: #222;
      }

      .cls-10 {
        fill: #fff;
      }

      .cls-11 {
        fill: #ddd;
      }

      .cls-12, .cls-13, .cls-14, .cls-15, .cls-16, .cls-17, .cls-18, .cls-19, .cls-22, .cls-24, .cls-26, .cls-27, .cls-28 {
        stroke: #222;
      }

      .cls-12, .cls-13, .cls-14, .cls-18, .cls-19, .cls-20, .cls-22, .cls-24, .cls-26, .cls-27, .cls-28 {
        stroke-linejoin: round;
      }

      .cls-12 {
        stroke-width: 0.625px;
      }

      .cls-13 {
        stroke-width: 0.625px;
      }

      .cls-14 {
        stroke-width: 0.833px;
      }

      .cls-15, .cls-16, .cls-17 {
        stroke-miterlimit: 10;
      }

      .cls-15 {
        stroke-width: 0.625px;
      }

      .cls-16 {
        stroke-width: 0.625px;
      }

      .cls-17 {
        stroke-width: 0.625px;
      }

      .cls-18, .cls-19, .cls-20, .cls-22, .cls-24, .cls-26, .cls-27, .cls-28 {
        stroke-linecap: round;
      }

      .cls-18 {
        stroke-width: 0.625px;
      }

      .cls-19 {
        stroke-width: 0.625px;
      }

      .cls-20 {
        stroke: #fff;
        stroke-width: 0.625px;
      }

      .cls-21 {
        fill: #ea002c;
      }

      .cls-22 {
        stroke-width: 0.833px;
      }

      .cls-23 {
        fill: #fddb2b;
      }

      .cls-24 {
        stroke-width: 0.833px;
      }

      .cls-25 {
        fill: #478cfc;
      }

      .cls-26 {
        stroke-width: 0.833px;
      }

      .cls-27 {
        stroke-width: 1.25px;
      }

      .cls-28 {
        stroke-width: 0.833px;
      }
    </style>
    <clipPath id="clip-path">
      <rect id="사각형_252200" data-name="사각형 252200" class="cls-1" width="100" height="100"/>
    </clipPath>
    <clipPath id="clip-path-4">
      <rect id="사각형_252198" data-name="사각형 252198" class="cls-1" width="59.063" height="36.731"/>
    </clipPath>
  </defs>
  <g id="null_100x100" transform="translate(50 50)">
    <g id="그룹_333674" data-name="그룹 333674" class="cls-2" transform="translate(-50 -50)">
      <g id="Layer_1" data-name="Layer 1">
        <g id="그룹_333673" data-name="그룹 333673" class="cls-3">
          <g id="그룹_333669" data-name="그룹 333669" class="cls-3">
            <path id="패스_672199" data-name="패스 672199" class="cls-4" d="M50,0A50,50,0,1,1,0,50,50.013,50.013,0,0,1,50,0"/>
            <path id="패스_672200" data-name="패스 672200" class="cls-5" d="M50,100a50,50,0,1,1,50-50,50.066,50.066,0,0,1-50,50M50,1A49,49,0,1,0,99,50,49.053,49.053,0,0,0,50,1"/>
          </g>
          <g id="그룹_333672" data-name="그룹 333672" class="cls-3">
            <path id="패스_672201" data-name="패스 672201" class="cls-6" d="M287.408,194.1a38.934,38.934,0,0,0,3.917,1.563c.667.1,1.292,0,1.188-.458s-3.312-2.875-4.792-3.812a60.234,60.234,0,0,0-6.75-3.729A18.407,18.407,0,0,0,277.7,186.6s2.938,1.438,4.583,2.479a26.559,26.559,0,0,1,4.688,3.729,5.083,5.083,0,0,1,.458,1.292" transform="translate(-219.846 -147.725)"/>
            <g id="그룹_333671" data-name="그룹 333671" class="cls-7" transform="translate(18.167 45.688)">
              <g id="그룹_333670" data-name="그룹 333670" class="cls-8">
                <path id="패스_672202" data-name="패스 672202" d="M145.16,229.658c-5.771-3.542-18.1-10.458-18.1-10.458L87.869,242.617s-3.187,4.708,4.667,9.125c11.375,6.375,15.562,3.625,15.562,3.625L144.14,234.6s4.063-3.042,1.021-4.917" transform="translate(-87.223 -219.221)"/>
              </g>
            </g>
            <path id="패스_672203" data-name="패스 672203" d="M210.063,341.321l-.792.792-.6.375L206,338.3l3.563.042Z" transform="translate(-163.083 -267.821)"/>
            <path id="패스_672204" data-name="패스 672204" class="cls-9" d="M183.779,337.259l-2.6-1.5a2.462,2.462,0,0,0-2.437.25,7.638,7.638,0,0,0-3.437,5.979,2.408,2.408,0,0,0,1.021,2.229l2.6,1.5a2.421,2.421,0,0,0,2.417-.25,7.638,7.638,0,0,0,3.438-5.979,2.408,2.408,0,0,0-1.021-2.229" transform="translate(-138.779 -265.634)"/>
            <path id="패스_672205" data-name="패스 672205" class="cls-9" d="M194.775,345.189a7.638,7.638,0,0,1-3.437,5.979,2.423,2.423,0,0,1-2.417.25,2.452,2.452,0,0,1-1.021-2.229,7.638,7.638,0,0,1,3.438-5.979,2.46,2.46,0,0,1,2.438-.25,2.408,2.408,0,0,1,1.021,2.229" transform="translate(-148.754 -271.334)"/>
            <path id="패스_672206" data-name="패스 672206" class="cls-9" d="M196.075,346.695a7.034,7.034,0,0,1-3.187,5.521,1.943,1.943,0,0,1-3.187-1.854,7.034,7.034,0,0,1,3.188-5.521,2.254,2.254,0,0,1,2.25-.229,2.221,2.221,0,0,1,.938,2.063" transform="translate(-150.179 -272.653)"/>
            <path id="패스_672207" data-name="패스 672207" class="cls-10" d="M198.824,351.681a5.083,5.083,0,0,1-2.312,4.021,1.448,1.448,0,0,1-2.312-1.354,5.083,5.083,0,0,1,2.313-4.021,1.448,1.448,0,0,1,2.313,1.354" transform="translate(-153.741 -277.118)"/>
            <path id="패스_672208" data-name="패스 672208" class="cls-10" d="M199.216,352.582a4.854,4.854,0,0,1-2.208,3.833,1.383,1.383,0,0,1-2.208-1.292,4.854,4.854,0,0,1,2.208-3.833,1.383,1.383,0,0,1,2.208,1.292" transform="translate(-154.216 -277.895)"/>
            <path id="패스_672209" data-name="패스 672209" class="cls-11" d="M200.479,351a1.377,1.377,0,0,1,1.021,1.5,4.792,4.792,0,0,1-2.167,3.771,1.521,1.521,0,0,1-1.333.188,1.482,1.482,0,0,0,1.542-.083,4.854,4.854,0,0,0,2.208-3.812,1.369,1.369,0,0,0-1.271-1.542" transform="translate(-156.75 -277.875)"/>
            <path id="패스_672210" data-name="패스 672210" class="cls-12" d="M99.861,198.2c-1.229,1.146-3.208,2.875-3.208,2.875l-3.729,2.583A9.9,9.9,0,0,0,89.278,208a18.1,18.1,0,0,0-1.667,3.208,12.458,12.458,0,0,0,.25,3.479c-.021.1-.458,1.542,1.188,3.271s5.667,4.021,7.042,4.854,4.5,2.479,7.167,2.6a7.2,7.2,0,0,0,3.854-.687v-.042c.521-2.6,1.583-6.083,4.958-7.937,2.271-1.25,4.438-.458,3.438,2.958v.1l20.146-11.9c.438-2.479,2.375-6,4.583-7.271s3.792-.521,3.521,2.521a5.1,5.1,0,0,0,.938-1.479,2.792,2.792,0,0,0,.042-1.771,7.459,7.459,0,0,0,0-1.771,6.971,6.971,0,0,0-.958-1.938,18.344,18.344,0,0,0-1.021-2.521c-.417-.687-2.083-2.083-5.583-4.4a44.528,44.528,0,0,0-8.521-4.417,10.73,10.73,0,0,0-2.375-.479,5.231,5.231,0,0,0-1.75-.6,1.708,1.708,0,0,0-1.062.292,58.679,58.679,0,0,0-7.062,2.771,95.722,95.722,0,0,0-8.562,4.979c-1.458,1-4.312,3.229-6,4.625h0Z" transform="translate(-69.299 -145.496)"/>
            <path id="패스_672211" data-name="패스 672211" d="M346.063,262.821l-.792.813-.6.354L342,259.8l3.563.063Z" transform="translate(-270.75 -205.675)"/>
            <path id="패스_672212" data-name="패스 672212" class="cls-9" d="M319.779,258.759l-2.6-1.5a2.462,2.462,0,0,0-2.437.25,7.639,7.639,0,0,0-3.437,5.979,2.408,2.408,0,0,0,1.021,2.229l2.6,1.5a2.421,2.421,0,0,0,2.417-.25,7.638,7.638,0,0,0,3.438-5.979,2.408,2.408,0,0,0-1.021-2.229" transform="translate(-246.446 -203.489)"/>
            <path id="패스_672213" data-name="패스 672213" class="cls-9" d="M330.775,266.789a7.671,7.671,0,0,1-3.437,5.979,2.423,2.423,0,0,1-2.417.25,2.452,2.452,0,0,1-1.021-2.229,7.638,7.638,0,0,1,3.438-5.979,2.46,2.46,0,0,1,2.438-.25,2.408,2.408,0,0,1,1.021,2.229" transform="translate(-256.421 -209.268)"/>
            <path id="패스_672214" data-name="패스 672214" class="cls-9" d="M332.075,268.195a7.034,7.034,0,0,1-3.187,5.521,1.943,1.943,0,0,1-3.187-1.854,7.034,7.034,0,0,1,3.188-5.521,2.254,2.254,0,0,1,2.25-.229,2.221,2.221,0,0,1,.938,2.063" transform="translate(-257.846 -210.507)"/>
            <path id="패스_672215" data-name="패스 672215" class="cls-10" d="M334.824,273.281a5.083,5.083,0,0,1-2.312,4.021,1.448,1.448,0,0,1-2.312-1.354,5.083,5.083,0,0,1,2.313-4.021,1.448,1.448,0,0,1,2.313,1.354" transform="translate(-261.407 -215.052)"/>
            <path id="패스_672216" data-name="패스 672216" class="cls-10" d="M335.216,274.082a4.854,4.854,0,0,1-2.208,3.833,1.383,1.383,0,0,1-2.208-1.292,4.854,4.854,0,0,1,2.208-3.833,1.383,1.383,0,0,1,2.208,1.292" transform="translate(-261.882 -215.749)"/>
            <path id="패스_672217" data-name="패스 672217" class="cls-11" d="M336.479,272.6a1.377,1.377,0,0,1,1.021,1.5,4.792,4.792,0,0,1-2.167,3.771,1.521,1.521,0,0,1-1.333.188,1.482,1.482,0,0,0,1.542-.083,4.854,4.854,0,0,0,2.208-3.833,1.369,1.369,0,0,0-1.271-1.542" transform="translate(-264.417 -215.808)"/>
            <path id="패스_672218" data-name="패스 672218" class="cls-10" d="M148.368,240.531a1.981,1.981,0,0,0-.271-.9,1.2,1.2,0,0,0-1.25,0,1.485,1.485,0,0,0-.5,1.4,9.113,9.113,0,0,1,.063,1.229" transform="translate(-115.847 -189.573)"/>
            <path id="패스_672219" data-name="패스 672219" class="cls-13" d="M148.368,240.531a1.981,1.981,0,0,0-.271-.9,1.2,1.2,0,0,0-1.25,0,1.485,1.485,0,0,0-.5,1.4,9.113,9.113,0,0,1,.063,1.229" transform="translate(-115.847 -189.573)"/>
            <path id="패스_672220" data-name="패스 672220" class="cls-10" d="M99.761,198.146c-1.229,1.146-3.208,2.875-3.208,2.875L92.824,203.6a9.9,9.9,0,0,0-3.646,4.333,18.105,18.105,0,0,0-1.667,3.208,12.459,12.459,0,0,0,.25,3.479c-.021.1-.458,1.542,1.188,3.271s5.667,4.021,7.042,4.854,4.5,2.479,7.146,2.583a7.2,7.2,0,0,0,3.854-.687V224.6c.521-2.6,1.583-6.083,4.958-7.937,2.271-1.25,4.438-.458,3.438,2.958v.1l20.146-11.9c.438-2.479,2.375-6,4.583-7.271s3.792-.521,3.521,2.521a5.1,5.1,0,0,0,.938-1.479,2.792,2.792,0,0,0,.042-1.771,7.457,7.457,0,0,0,0-1.771,6.972,6.972,0,0,0-.958-1.937,18.346,18.346,0,0,0-1.021-2.521c-.417-.687-2.083-2.083-5.583-4.4a45.632,45.632,0,0,0-8.521-4.437,10.73,10.73,0,0,0-2.375-.479,5.231,5.231,0,0,0-1.75-.6,1.708,1.708,0,0,0-1.062.292,58.679,58.679,0,0,0-7.062,2.771,96.27,96.27,0,0,0-8.583,4.979c-1.458,1-4.312,3.229-6,4.625h0Z" transform="translate(-69.22 -145.417)"/>
            <path id="패스_672221" data-name="패스 672221" class="cls-14" d="M99.761,198.146c-1.229,1.146-3.208,2.875-3.208,2.875L92.824,203.6a9.9,9.9,0,0,0-3.646,4.333,18.105,18.105,0,0,0-1.667,3.208,12.459,12.459,0,0,0,.25,3.479c-.021.1-.458,1.542,1.188,3.271s5.667,4.021,7.042,4.854,4.5,2.479,7.146,2.583a7.2,7.2,0,0,0,3.854-.687V224.6c.521-2.6,1.583-6.083,4.958-7.937,2.271-1.25,4.438-.458,3.438,2.958v.1l20.146-11.9c.438-2.479,2.375-6,4.583-7.271s3.792-.521,3.521,2.521a5.1,5.1,0,0,0,.938-1.479,2.792,2.792,0,0,0,.042-1.771,7.457,7.457,0,0,0,0-1.771,6.972,6.972,0,0,0-.958-1.937,18.346,18.346,0,0,0-1.021-2.521c-.417-.687-2.083-2.083-5.583-4.4a45.632,45.632,0,0,0-8.521-4.437,10.73,10.73,0,0,0-2.375-.479,5.231,5.231,0,0,0-1.75-.6,1.708,1.708,0,0,0-1.062.292,58.679,58.679,0,0,0-7.062,2.771,96.27,96.27,0,0,0-8.583,4.979c-1.458,1-4.312,3.229-6,4.625h0Z" transform="translate(-69.22 -145.417)"/>
            <path id="패스_672222" data-name="패스 672222" class="cls-9" d="M145.007,243.108a3.312,3.312,0,0,0,2.458-1.1c.375-.417.813-.917,1.146-1.375.646-.875,3.667-5.917,5.146-8.021a.75.75,0,0,0-.271-1.1c-1.479-.771-4.646-2.479-6.25-3.479-2.1-1.333-5.458-3.625-5.458-3.625s-5.375,3.979-7.021,5.417-4.125,3.417-4.125,3.417a2.974,2.974,0,0,0,.375,2.75c.958,1.542,3.542,3.4,5.667,4.521,1.75.938,5.5,2.583,8.313,2.6" transform="translate(-103.278 -177.65)"/>
            <path id="패스_672223" data-name="패스 672223" class="cls-9" d="M147.425,333.4a.417.417,0,0,1-.042-.792l4.417-1.625c1.479-.521,3.771-1.5,4.479-1.75s1.229-.437,1.083.229a6.57,6.57,0,0,1-3.646,3.771,8.875,8.875,0,0,1-6.292.146" transform="translate(-116.467 -260.458)"/>
            <path id="패스_672224" data-name="패스 672224" class="cls-15" d="M147.425,333.4a.417.417,0,0,1-.042-.792l4.417-1.625c1.479-.521,3.771-1.5,4.479-1.75s1.229-.437,1.083.229a6.57,6.57,0,0,1-3.646,3.771A8.988,8.988,0,0,1,147.425,333.4Z" transform="translate(-116.467 -260.458)"/>
            <path id="패스_672225" data-name="패스 672225" class="cls-9" d="M98.4,279.021h-.042a10.132,10.132,0,0,0-3.542,4.083l-.063.125h0a5.653,5.653,0,0,0-.312,2.438,4.433,4.433,0,0,0,1.208,2.229.188.188,0,0,0,.333-.146,13.4,13.4,0,0,1-.021-3.771A19.119,19.119,0,0,1,98.4,279" transform="translate(-74.732 -220.875)"/>
            <path id="패스_672226" data-name="패스 672226" class="cls-16" d="M98.4,279.1h-.042a10.132,10.132,0,0,0-3.542,4.083l-.063.125h0a5.653,5.653,0,0,0-.312,2.438,4.433,4.433,0,0,0,1.208,2.229.188.188,0,0,0,.333-.146,13.4,13.4,0,0,1-.021-3.771A20,20,0,0,1,98.4,279.1Z" transform="translate(-74.732 -220.954)"/>
            <path id="패스_672227" data-name="패스 672227" class="cls-9" d="M95.291,327.8a16.719,16.719,0,0,1-2.271-1.812,6.141,6.141,0,0,1-1.167-2.75c-.1-.625-.146-1.271.021-1.417s.708.458,1.354,1.063,1.833,1.542,1.833,1.542a3.229,3.229,0,0,0,.875.938,33.961,33.961,0,0,0,3.4,2,4.733,4.733,0,0,0,2.042.563s1.542.625,2.708,1.021,2.4.6,2.458,1.229-.479,1.021-1.187,1.438a3.913,3.913,0,0,1-2.9.042,7.147,7.147,0,0,1-1.729-.729" transform="translate(-72.645 -254.754)"/>
            <path id="패스_672228" data-name="패스 672228" class="cls-9" d="M244.161,228.371c-.312-.417-4.021.375-6.271,1.458a37.734,37.734,0,0,0-6.312,4.063c-1.333,1.083-4.875,6.708-5.917,8.4,0,0-1.333,2.188-.9,2.875s1.125.188,1.979-.333l.167-.1a.667.667,0,0,1,.021-.312,21.5,21.5,0,0,1,1.854-1.875,1.215,1.215,0,0,1,1.292.083l8.875-5.875s3.563-2.875,4.583-4.9.938-3.083.6-3.479" transform="translate(-177.869 -180.704)"/>
            <path id="패스_672229" data-name="패스 672229" class="cls-9" d="M240.917,253.517a1.238,1.238,0,0,1,1.146.021l7.6-5.042c-.271-1.271-1.083-4.771-1.646-6.4a41.127,41.127,0,0,0-4.208,2.9A31.282,31.282,0,0,0,240,250.121l.208,4.042a5.5,5.5,0,0,1,.708-.646" transform="translate(-190 -191.662)"/>
            <path id="패스_672230" data-name="패스 672230" class="cls-9" d="M227.593,288.167l.813-.875-.292-3.792c-.625.958-1.187,1.875-1.646,2.625s-1.167,2.271-.9,2.729a.458.458,0,0,0,.417.271,3.03,3.03,0,0,0,1.187-.542l.188-.1.25-.146v-.125" transform="translate(-178.531 -224.438)"/>
            <path id="패스_672231" data-name="패스 672231" class="cls-9" d="M291.475,229.063s-.062-.062-.375-.062a17.263,17.263,0,0,0-5.708,1.563l-.792.417c.354,1,1.292,3.771,1.958,6.042.833-.687,3.438-2.979,4.292-4.646s.938-2.917.625-3.312" transform="translate(-225.308 -181.292)"/>
            <path id="패스_672232" data-name="패스 672232" class="cls-9" d="M287.6,193.071a63.984,63.984,0,0,0-6.646-3.75L278,188.3c.688.333,2.958,1.479,4.333,2.354a27.7,27.7,0,0,1,4.625,3.688,4.77,4.77,0,0,1,.417,1.167,35.847,35.847,0,0,0,3.917,1.5l.417.042a.792.792,0,0,0,.563-.146.146.146,0,0,0,.021-.146c-.1-.375-3.083-2.667-4.667-3.687" transform="translate(-220.083 -149.071)"/>
            <path id="패스_672233" data-name="패스 672233" class="cls-10" d="M232.6,296.315l2.479-1.125a.646.646,0,0,1,.833.292l.25.521a1.667,1.667,0,0,1,.125,1.25c-.1.354-.333.6-.562.521l-.917-.292a3.687,3.687,0,0,0-1.9-.1h-.021a.542.542,0,0,1-.292-1.042" transform="translate(-183.853 -233.649)"/>
            <path id="패스_672234" data-name="패스 672234" class="cls-17" d="M232.6,296.315l2.479-1.125a.646.646,0,0,1,.833.292l.25.521a1.667,1.667,0,0,1,.125,1.25c-.1.354-.333.6-.562.521l-.917-.292a3.687,3.687,0,0,0-1.9-.1h-.021a.542.542,0,0,1-.292-1.042Z" transform="translate(-183.853 -233.649)"/>
            <path id="패스_672235" data-name="패스 672235" class="cls-16" d="M98.4,279.1h-.042a10.132,10.132,0,0,0-3.542,4.083l-.063.125h0a5.653,5.653,0,0,0-.312,2.438,4.433,4.433,0,0,0,1.208,2.229.188.188,0,0,0,.333-.146,13.4,13.4,0,0,1-.021-3.771A20,20,0,0,1,98.4,279.1Z" transform="translate(-74.732 -220.954)"/>
            <path id="패스_672236" data-name="패스 672236" class="cls-15" d="M147.425,333.4a.417.417,0,0,1-.042-.792l4.417-1.625c1.479-.521,3.771-1.5,4.479-1.75s1.229-.437,1.083.229a6.57,6.57,0,0,1-3.646,3.771A8.988,8.988,0,0,1,147.425,333.4Z" transform="translate(-116.467 -260.458)"/>
            <line id="선_91173" data-name="선 91173" class="cls-10" y1="7.229" x2="12.229" transform="translate(54.688 60.208)"/>
            <line id="선_91174" data-name="선 91174" class="cls-18" y1="7.229" x2="12.229" transform="translate(54.688 60.208)"/>
            <path id="패스_672237" data-name="패스 672237" class="cls-9" d="M147.688,241.963a42.7,42.7,0,0,1-8.542-3.812c-3.25-1.958-4.937-3.75-5.646-4.958a1.833,1.833,0,0,1,.188-.292c.021-.021,1.958-1.958,3.583-3.375s5.75-5.1,6.458-5.625c.542.375,3.958,2.667,5.854,3.854,1.583,1,4.75,2.688,6.229,3.479a.625.625,0,0,1,.229.917l-.833,1.229q-2.062,3.188-4.271,6.271a6.042,6.042,0,0,1-3.229,2.313" transform="translate(-105.688 -177.254)"/>
            <path id="패스_672238" data-name="패스 672238" class="cls-19" d="M143.063,224.4c.542.375,3.813,2.563,5.708,3.75,1.583,1,4.75,2.688,6.229,3.479a.625.625,0,0,1,.229.917l-.833,1.25q-2.062,3.188-4.271,6.271a6.042,6.042,0,0,1-3.229,2.313,42.7,42.7,0,0,1-8.542-3.812,17.618,17.618,0,0,1-5.854-5.25" transform="translate(-104.896 -177.65)"/>
            <path id="패스_672239" data-name="패스 672239" class="cls-20" d="M107.1,341.7a16.313,16.313,0,0,0,5.5,3.188" transform="translate(-84.787 -270.513)"/>
            <path id="패스_672240" data-name="패스 672240" class="cls-21" d="M244.863,117.9v.021l-.062.042Z" transform="translate(-193.8 -93.338)"/>
            <line id="선_91175" data-name="선 91175" class="cls-21" x1="0.021" y2="0.021" transform="translate(51.063 24.563)"/>
            <line id="선_91176" data-name="선 91176" class="cls-21" x1="0.021" transform="translate(48.563 37.896)"/>
            <path id="패스_672241" data-name="패스 672241" class="cls-21" d="M251.207,89.4c-.312,3.229-2.583,5.667-5.1,5.438s-4.312-3.042-4.021-6.292,2.6-5.667,5.125-5.417,4.313,3.042,4.021,6.292" transform="translate(-191.623 -65.799)"/>
            <path id="패스_672242" data-name="패스 672242" class="cls-22" d="M251.207,89.4c-.312,3.229-2.583,5.667-5.1,5.438s-4.312-3.042-4.021-6.292,2.6-5.667,5.125-5.417S251.519,86.174,251.207,89.4Z" transform="translate(-191.623 -65.799)"/>
            <path id="패스_672243" data-name="패스 672243" class="cls-23" d="M302.16,141.334c-3.792.521-7.208-1.4-7.6-4.271s2.354-5.667,6.146-6.187,7.208,1.4,7.6,4.271-2.354,5.667-6.146,6.188" transform="translate(-233.16 -103.542)"/>
            <path id="패스_672244" data-name="패스 672244" class="cls-24" d="M302.16,141.334c-3.792.521-7.208-1.4-7.6-4.271s2.354-5.667,6.146-6.187,7.208,1.4,7.6,4.271S305.952,140.792,302.16,141.334Z" transform="translate(-233.16 -103.542)"/>
            <path id="패스_672245" data-name="패스 672245" class="cls-25" d="M273.941,84.738c-2.479,4.167-7.708,5.271-10.354,4.271-2.542-1.979-3.875-7.083-1.4-11.25s7.125-5.979,10.375-4.062,3.875,6.875,1.4,11.042" transform="translate(-206.525 -57.738)"/>
            <path id="패스_672246" data-name="패스 672246" class="cls-26" d="M273.941,84.738c-2.479,4.167-7.708,5.271-10.354,4.271-2.542-1.979-3.875-7.083-1.4-11.25s7.125-5.979,10.375-4.062S276.421,80.572,273.941,84.738Z" transform="translate(-206.525 -57.738)"/>
            <path id="패스_672247" data-name="패스 672247" class="cls-27" d="M230.3,150.9s-7.562,7.979-11.4,15.938" transform="translate(-173.296 -119.462)"/>
            <path id="패스_672248" data-name="패스 672248" class="cls-28" d="M267.783,145.821a65.393,65.393,0,0,1-9.583,1.271l.479-5.292" transform="translate(-204.408 -112.258)"/>
          </g>
        </g>
      </g>
    </g>
  </g>
</svg>
