<svg xmlns="http://www.w3.org/2000/svg" width="43.132" height="16"><defs><style>.a{fill:#111}</style></defs><path class="a" d="M21.598 2.869h3.492a4.411 4.411 0 011.435.21 2.786 2.786 0 011.008.583 2.34 2.34 0 01.6.888 3.1 3.1 0 01.2 1.112v.285a2.972 2.972 0 01-.21 1.119 2.626 2.626 0 01-.615.916 2.932 2.932 0 01-1.008.624 3.9 3.9 0 01-1.4.23h-2.151v3.811h-1.342zm1.342 1.167V7.67h1.926q2.115 0 2.115-1.749v-.244a1.481 1.481 0 00-.508-1.241 2.314 2.314 0 00-1.458-.4zM31.768 12.755a2.674 2.674 0 01-1.783-.556 1.9 1.9 0 01-.658-1.532v-.366a2.022 2.022 0 01.637-1.546 2.956 2.956 0 012.061-.6h1.885v-.434a1.507 1.507 0 00-.359-1.105 1.613 1.613 0 00-1.173-.359 2.894 2.894 0 00-1.132.2 6.246 6.246 0 00-1 .542l-.651-.977a6.263 6.263 0 011.22-.658 4.13 4.13 0 011.573-.278 3.931 3.931 0 011.139.156 2.558 2.558 0 01.888.461 2.146 2.146 0 01.583.746 2.289 2.289 0 01.21 1v5.194h-1.253v-.9h-.014a1.422 1.422 0 01-.291.373 2.108 2.108 0 01-.4.292 2.771 2.771 0 01-.644.251 3.419 3.419 0 01-.838.096zm2.143-3.485h-1.856a1.642 1.642 0 00-1.105.3 1.054 1.054 0 00-.332.827v.19a.865.865 0 00.38.787 1.643 1.643 0 00.908.244 2.776 2.776 0 00.848-.115 2.133 2.133 0 00.658-.346 1.179 1.179 0 00.387-.468 1.735 1.735 0 00.115-.685zM39.796 11.155l1.953-5.927h1.383l-3.851 10.483-1.193-.421.963-2.536-2.7-7.527h1.424l1.966 5.927z"/><g><path fill="#00c73c" d="M0 0h16v16H0z"/><path d="M9.515 11.674l-2.76-4.055v4.055H3.877V3.841h2.918l2.76 4.054V3.841h2.877v7.833z" fill="#fff"/></g></svg>