<svg xmlns="http://www.w3.org/2000/svg" width="16" height="16"><defs><clipPath id="a"><path fill="none" d="M0 0h16v16H0z"/></clipPath><style>.e{fill:none}.b{clip-path:url(#a)}.c{opacity:0}.d{fill:#f0f}.e{stroke:#111;stroke-linejoin:round;stroke-width:1.5px}</style></defs><g class="b"><g class="b"><g class="c"><g class="b"><path class="d" d="M0 0h16v16H0z"/></g></g><path class="e" d="M4.8 11.2L2 8.4a3.606 3.606 0 015.1-5.1l.9.9.9-.9A3.606 3.606 0 1114 8.4l-6 6z"/></g></g><g class="c"><g class="b"><g class="b"><g class="c"><g class="b"><path class="d" d="M0 0h16v16H0z"/></g></g><path d="M4.8 11.2L2 8.4a3.606 3.606 0 015.1-5.1l.9.9.9-.9A3.606 3.606 0 1114 8.4l-6 6z" fill="#111"/><path class="e" d="M4.8 11.2L2 8.4a3.606 3.606 0 015.1-5.1l.9.9.9-.9A3.606 3.606 0 1114 8.4l-6 6z"/></g></g></g></svg>