<svg xmlns="http://www.w3.org/2000/svg" xmlns:xlink="http://www.w3.org/1999/xlink" width="20" height="20" viewBox="0 0 20 20"><defs><style>.a{fill:none;}.b{clip-path:url(#a);}.c{opacity:0;}.d{fill:#d0f;}.e{fill:#111;}.f{fill:#999;}.g{fill:#fff;}</style><clipPath id="a"><rect class="a" width="20" height="20"/></clipPath></defs><g transform="translate(10 10)"><g class="b" transform="translate(-10 -10)"><g class="b"><g class="c"><g class="b"><rect class="d" width="20" height="20"/></g></g><path class="e" d="M17.2,2l1.1,1.1L3.9,17.4a.778.778,0,0,1-1.1-1.1Z"/><path class="e" d="M17.4,17.4h0a.8.8,0,0,1-1.1,0L2,3.1,3.1,2,17.4,16.3a.8.8,0,0,1,0,1.1"/></g></g></g><g class="c" transform="translate(10 10)"><g class="b" transform="translate(-10 -10)"><g class="b"><g class="c"><g class="b"><rect class="d" width="20" height="20"/></g></g><path class="f" d="M17.2,2l1.1,1.1L3.9,17.4a.778.778,0,0,1-1.1-1.1Z"/><path class="f" d="M17.4,17.4h0a.8.8,0,0,1-1.1,0L2,3.1,3.1,2,17.4,16.3a.8.8,0,0,1,0,1.1"/></g></g></g><g class="c" transform="translate(10 10)"><g class="b" transform="translate(-10 -10)"><g class="b"><g class="c"><g class="b"><rect class="d" width="20" height="20"/></g></g><path class="g" d="M17.2,2l1.1,1.1L3.9,17.4a.778.778,0,0,1-1.1-1.1Z"/><path class="g" d="M17.4,17.4h0a.8.8,0,0,1-1.1,0L2,3.1,3.1,2,17.4,16.3a.8.8,0,0,1,0,1.1"/></g></g></g></svg>