<svg xmlns="http://www.w3.org/2000/svg" width="24" height="24"><defs><clipPath id="a"><path data-name="사각형 293011" fill="none" d="M0 0h24v24H0z"/></clipPath></defs><g data-name="icon_mymuffino_on_24" clip-path="url(#a)"><g data-name="그룹 382466" clip-path="url(#a)"><path data-name="패스 776807" d="M17.4 9.7a8.2 8.2 0 11-8.2-8.2 8.2 8.2 0 018.2 8.2" fill="#cbdbfa"/><path data-name="선 110512" fill="none" stroke="#3673ee" stroke-linecap="round" stroke-width="1.5" d="M21.8 3.2h1.4"/><path data-name="선 110513" fill="none" stroke="#3673ee" stroke-width="1.5" d="M14 3.2h7.8"/><path data-name="선 110514" fill="none" stroke="#3673ee" stroke-linecap="round" stroke-miterlimit="10" stroke-width="1.5" d="M21.8 10h1.4"/><path data-name="선 110515" fill="none" stroke="#3673ee" stroke-miterlimit="10" stroke-width="1.5" d="M17.4 10h4.4"/><path data-name="선 110516" fill="none" stroke="#3673ee" stroke-linecap="round" stroke-width="1.5" d="M21.8 16.6h1.4"/><path data-name="선 110517" fill="none" stroke="#3673ee" stroke-width="1.5" d="M17 16.6h4.8"/><circle data-name="타원 9434" cx="8.2" cy="8.2" r="8.2" transform="translate(1 1.5)" fill="none" stroke="#3673ee" stroke-miterlimit="10" stroke-width="1.5"/><path data-name="선 110518" fill="none" stroke="#3673ee" stroke-miterlimit="10" stroke-width="1.8" d="M4 7.1h1.7"/><path data-name="선 110519" fill="none" stroke="#3673ee" stroke-miterlimit="10" stroke-width="1.8" d="M10.8 7.1h1.7"/><path data-name="패스 776808" d="M9.9 9.7a1.6 1.6 0 11-3.2 0" fill="none" stroke="#3673ee" stroke-miterlimit="10" stroke-width="1.5"/><path data-name="선 110520" fill="none" stroke="#3673ee" stroke-linecap="round" stroke-miterlimit="10" stroke-width="1.5" d="M17.7 22.5h5.5"/><path data-name="선 110521" fill="none" stroke="#3673ee" stroke-miterlimit="10" stroke-width="1.5" d="M2.5 22.5h15.2"/></g></g></svg>