<svg xmlns="http://www.w3.org/2000/svg" xmlns:xlink="http://www.w3.org/1999/xlink" width="28" height="28" viewBox="0 0 28 28">
  <defs>
    <clipPath id="clip-path">
      <rect id="사각형_290776" data-name="사각형 290776" width="28" height="28" fill="none"/>
    </clipPath>
  </defs>
  <g id="식당" transform="translate(14 14)">
    <g id="그룹_380092" data-name="그룹 380092" transform="translate(-14 -14)" clip-path="url(#clip-path)">
      <g id="그룹_380091" data-name="그룹 380091" clip-path="url(#clip-path)">
        <g id="그룹_380090" data-name="그룹 380090" opacity="0">
          <g id="그룹_380089" data-name="그룹 380089" clip-path="url(#clip-path)">
            <rect id="사각형_290773" data-name="사각형 290773" width="28" height="28" fill="#f0f"/>
          </g>
        </g>
        <path id="패스_769936" data-name="패스 769936" d="M19.8,10.2a6.5,6.5,0,0,1-2.2-.4H9.2a6.5,6.5,0,0,1,12.3-.1,2.6,2.6,0,0,1-1.8.6" fill="#ff8d8d"/>
        <path id="패스_769937" data-name="패스 769937" d="M15.4,5.7A6,6,0,0,1,21,9.4a2.5,2.5,0,0,1-1.2.3,6,6,0,0,1-2-.4H10a6,6,0,0,1,5.5-3.5h0m0-1a7,7,0,0,0-6.8,5.5h8.8a6.9,6.9,0,0,0,2.3.5,2.8,2.8,0,0,0,2.4-1,7,7,0,0,0-6.7-5h0Z" fill="#ff8d8d"/>
        <path id="패스_769938" data-name="패스 769938" d="M8.5,22.2v4h10v-4" fill="none" stroke="#111" stroke-linejoin="round" stroke-width="1.5"/>
        <path id="패스_769939" data-name="패스 769939" d="M23,11v3.2a9.5,9.5,0,1,1-19,0v-3h9" fill="none" stroke="#111" stroke-linejoin="round" stroke-width="1.5"/>
        <path id="패스_769940" data-name="패스 769940" d="M15.4,11.2c3.5,1.3,4.7-.5,4.7-.5a7,7,0,0,0-13.6.5" fill="none" stroke="#111" stroke-linecap="round" stroke-linejoin="round" stroke-width="1.5"/>
        <line id="선_108660" data-name="선 108660" y1="4.3" x2="5.4" transform="translate(20 4.7)" fill="none" stroke="#111" stroke-linejoin="round" stroke-width="1.5"/>
        <line id="선_108661" data-name="선 108661" y1="5.2" x2="4.5" transform="translate(18 1.8)" fill="none" stroke="#111" stroke-linejoin="round" stroke-width="1.5"/>
      </g>
    </g>
  </g>
</svg>
