<svg xmlns="http://www.w3.org/2000/svg" width="16" height="16"><defs><clipPath id="a"><path data-name="사각형 213230" fill="none" d="M0 0h16v16H0z"/></clipPath></defs><g data-name="그룹 277383" clip-path="url(#a)"><g data-name="그룹 277386" fill="#111"><path data-name="패스 482041" d="M8 4.961a3.638 3.638 0 013.636 3.636 3.588 3.588 0 01-.2 1.126l2.319 2.1a8.631 8.631 0 002.241-3.23 8.592 8.592 0 00-11.147-4.85l1.687 1.531A3.607 3.607 0 018 4.961z"/><path data-name="패스 482042" d="M8 6.416c-.063 0-.123.013-.185.019L10.18 8.58A2.178 2.178 0 008 6.416z"/><path data-name="패스 482043" d="M14.426 13.905L2.408 2.997l-.733.809L2.85 4.874A8.626 8.626 0 000 8.597a8.585 8.585 0 0011.919 4.5l1.774 1.61zM8 12.234a3.638 3.638 0 01-3.636-3.637 3.562 3.562 0 01.529-1.869L6.008 7.74a2.121 2.121 0 00-.19.857A2.179 2.179 0 008 10.78a2.156 2.156 0 001.054-.276l1.105 1a3.581 3.581 0 01-2.159.73z"/></g></g></svg>