<svg xmlns="http://www.w3.org/2000/svg" xmlns:xlink="http://www.w3.org/1999/xlink" width="20" height="20" viewBox="0 0 20 20"><defs><style>.a,.c{fill:#fff;}.a{stroke:#707070;}.b{clip-path:url(#a);}.c{stroke:#111;stroke-linecap:round;stroke-width:1.5px;}.d{fill:#111;font-size:10px;font-family:MoebiusKorea-Bold, Moebius Korea;font-weight:700;letter-spacing:-0.03em;}</style><clipPath id="a"><rect class="a" width="20" height="20" transform="translate(100 94)"/></clipPath></defs><g class="b" transform="translate(-100 -94)"><g transform="translate(100 94)"><path class="c" d="M7.114,18H4.972a.9.9,0,0,1-.8-.514l-4.058-8a1.084,1.084,0,0,1,0-.971l4.058-8A.9.9,0,0,1,4.972,0h8.057a.9.9,0,0,1,.8.514l4.058,8a1.084,1.084,0,0,1,0,.971l-4.058,8a.9.9,0,0,1-.8.514H11.675" transform="translate(19 1) rotate(90)"/><text class="d" transform="translate(7 14)"><tspan x="0" y="0">P</tspan></text></g></g></svg>