<svg xmlns="http://www.w3.org/2000/svg" width="28" height="28"><defs><clipPath id="a"><path fill="none" d="M0 0h28v28H0z"/></clipPath><style>.b{clip-path:url(#a)}</style></defs><g class="b"><g class="b"><path d="M7.4 10.4h16.3a.4.4 0 01.4.4v.6a3.3 3.3 0 01-3.3 3.3H8.9A1.9 1.9 0 017 12.8v-2a.4.4 0 01.4-.4" fill="#56c6e4"/><path d="M15.1 22.1v3.2a1 1 0 01-1 1h-.2a1 1 0 01-1-1v-3.2" stroke="#111" stroke-width="1.5" fill="none"/><path d="M24.6 13.8v5.1a2.6 2.6 0 01-2.6 2.6H6a2.6 2.6 0 01-2.6-2.6v-5.4H2.2V9.1h23.6v1.8a2.6 2.6 0 01-2.6 2.6H11.7" stroke-linejoin="round" stroke-linecap="round" stroke="#111" stroke-width="1.5" fill="none"/><path d="M16.4 4.9a2.85 2.85 0 00-5.7 0v3.8" stroke-linecap="round" stroke="#111" stroke-width="1.5" fill="none"/></g></g></svg>