<svg xmlns="http://www.w3.org/2000/svg" width="28" height="28"><defs><clipPath id="a"><path fill="none" d="M0 0h28v28H0z"/></clipPath><style>.c{fill:none}.b{clip-path:url(#a)}.c{stroke:#111;stroke-linejoin:round;stroke-width:1.5px}</style></defs><g class="b"><path class="c" d="M27 27.2V9.4L15.8 2a3.3 3.3 0 00-3.7 0L1 9.4v17.8"/></g><g class="b"><path class="c" d="M14 25.1h4.7v1.7h2.6a1.6 1.6 0 001.6-1.6v-5.6a2.3 2.3 0 00-2.3-2.3H7.5a2.3 2.3 0 00-2.3 2.3v5.6a1.6 1.6 0 001.6 1.6h2.5v-1.7zM7.8 21.2h2.3M17.9 21.2h2.3"/><path d="M12.2 13.5h-.4a4.7 4.7 0 00-4.1 2.3l-.9 1.5" stroke-linecap="round" stroke="#111" stroke-linejoin="round" stroke-width="1.5" fill="none"/><path d="M24.7 15.1a3.9 3.9 0 01-3.8 3.9 3.8 3.8 0 01-2.7-1.1 3.9 3.9 0 010-5.4l2.7-2.7 2.7 2.7a3.9 3.9 0 011.1 2.7" fill="#56c6e4"/><path d="M21.9 11.7l-3-2.9-3 2.9a4.2 4.2 0 106 0m-1.2 4.8a2.546 2.546 0 11-3.6-3.6l1.8-1.7 1.8 1.8a2.5 2.5 0 010 3.6" fill="#111"/></g></svg>