<svg xmlns="http://www.w3.org/2000/svg" width="20" height="18" viewBox="0 0 20 18"><defs><style>.a{fill:#222;}.b{fill:#fff;}</style></defs><path class="a" d="M10,0C4.478,0,0,3.468,0,7.746c0,2.784,1.9,5.224,4.744,6.59-.21.764-.758,2.771-.866,3.2-.136.533.2.525.418.382.172-.112,2.74-1.822,3.848-2.561A12.806,12.806,0,0,0,10,15.489c5.522,0,10-3.468,10-7.746S15.522,0,10,0Z"/><g transform="translate(2.62 6.183)"><path class="b" d="M16.728,30.92l-3.17,0c-.612,0-.61,1.024,0,1.024H14.6s.006,2.838,0,3.506c0,.486,1.084.482,1.082-.006l0-3.506h1.038A.512.512,0,0,0,16.728,30.92Z" transform="translate(-13.1 -30.919)"/><path class="b" d="M32.259,31.227c-.156-.334-1.048-.494-1.272,0-.256.564-1.182,3.232-1.49,3.94-.222.512.736.928.958.416l.208-.73h1.908s-.066.03.188.7c.206.542,1.2.166.99-.376C33.457,34.4,32.445,31.623,32.259,31.227Zm-1.25,2.67.628-1.818.58,1.818Z" transform="translate(-26.191 -30.913)"/><path class="b" d="M55.23,34.76c-.49,0-1.384-.006-1.384-.006s0-2.7,0-3.358c0-.636-1.13-.634-1.128,0,0,.906.006,3.828.006,3.828s-.084.582.414.582,1.6-.006,2.092-.006S55.72,34.76,55.23,34.76Z" transform="translate(-44.796 -30.919)"/><path class="b" d="M71.952,35.07l-1.46-1.922s.99-1.072,1.382-1.46c.228-.226-.478-.936-.706-.71L69.4,32.75s.014-.976,0-1.514c-.012-.424-1.076-.394-1.064.028.01.4-.012,3.992-.012,4.258,0,.42,1.07.42,1.07,0V34.108l.314-.252,1.374,1.874C71.356,36.1,72.23,35.436,71.952,35.07Z" transform="translate(-57.276 -30.928)"/></g></svg>