<svg xmlns="http://www.w3.org/2000/svg" width="20" height="20" viewBox="0 0 20 20"><defs><style>.a{fill:rgba(0,0,0,0);}.b,.e{fill:none;}.b,.c{stroke:#111;}.b{stroke-width:1.5px;}.c{fill:#fff;}.d{stroke:none;}</style></defs><rect class="a" width="20" height="20"/><path class="b" d="M-24.634,30.49a11.36,11.36,0,0,1-3.57-.57,1.115,1.115,0,0,0-.31-.05,1.024,1.024,0,0,0-.71.29l-1.706,1.706a15.082,15.082,0,0,1-6.552-6.621l1.668-1.675a.982.982,0,0,0,.25-1.01,11.36,11.36,0,0,1-.57-3.57,1,1,0,0,0-1-1h-3.5a1,1,0,0,0-1,1,17,17,0,0,0,17,17,1,1,0,0,0,1-1v-3.5A1,1,0,0,0-24.634,30.49Z" transform="translate(42.634 -16.99)"/><g class="c" transform="translate(10 7)"><circle class="d" cx="1" cy="1" r="1"/><circle class="e" cx="1" cy="1" r="0.5"/></g><g class="c" transform="translate(13 7)"><circle class="d" cx="1" cy="1" r="1"/><circle class="e" cx="1" cy="1" r="0.5"/></g><g class="c" transform="translate(16 7)"><circle class="d" cx="1" cy="1" r="1"/><circle class="e" cx="1" cy="1" r="0.5"/></g></svg>