<svg id="Layer_1" data-name="Layer 1" xmlns="http://www.w3.org/2000/svg" width="100" height="100"><defs><clipPath id="clip-path"><path id="사각형_252782" data-name="사각형 252782" class="cls-1" d="M0 0h100v100H0z"/></clipPath><clipPath id="clip-path-3"><path id="사각형_252777" data-name="사각형 252777" class="cls-1" d="M0 0h58.208v20.688H0z"/></clipPath><clipPath id="clip-path-6"><path id="사각형_252780" data-name="사각형 252780" class="cls-1" d="M0 0h10.104v5.412H0z"/></clipPath><style>.cls-1,.cls-18,.cls-24,.cls-9{fill:none}.cls-2{clip-path:url(#clip-path)}.cls-7{fill:#222}.cls-8{fill:#fff}.cls-18,.cls-24,.cls-9{stroke:#222}.cls-9{stroke-linecap:round}.cls-24,.cls-9{stroke-linejoin:round}.cls-9{stroke-width:.833px}.cls-17{fill:#ea002c}.cls-18{stroke-miterlimit:10;stroke-width:.208px}.cls-24{stroke-width:.625px}</style></defs><g id="그룹_334297" data-name="그룹 334297" class="cls-2"><g id="그룹_334349" data-name="그룹 334349"><g id="그룹_334350" data-name="그룹 334350"><path id="패스_673076" data-name="패스 673076" d="M50 0A50 50 0 110 50 50.013 50.013 0 0150 0" fill="#f9f9f9"/><path id="패스_673077" data-name="패스 673077" d="M50 100a50 50 0 1150-50 50.066 50.066 0 01-50 50m0-99a49 49 0 1049 49A49.053 49.053 0 0050 1" fill="#f0f0f0"/><path id="사각형_252776" data-name="사각형 252776" class="cls-1" d="M0 0h100v100H0z"/></g></g><g id="그룹_334292" data-name="그룹 334292" class="cls-2"><g id="그룹_334291" data-name="그룹 334291" transform="translate(18.208 56.354)" opacity=".15"><g id="그룹_334290" data-name="그룹 334290" clip-path="url(#clip-path-3)"><path id="패스_673078" data-name="패스 673078" class="cls-7" d="M87.4 288.028s2.042 3.75 4.958 2.979 19.875-11.292 19.875-11.292a3.529 3.529 0 002.333-.417s5.542 4.833 17.646 3.417c8-.937 11.354-4.187 12.688-6.292a4.125 4.125 0 00.313-4.042 8.437 8.437 0 00-1.729-1.917c-1.333-.833-44.313 7.042-44.313 7.042z" transform="translate(-87.4 -270.424)"/></g></g></g><g id="그룹_334293" data-name="그룹 334293" class="cls-2"><path id="패스_673079" data-name="패스 673079" class="cls-8" d="M225.962 229.367a12.027 12.027 0 01-4.458 4.146c-7.313 4.229-19.208 4.208-26.562-.042a12.158 12.158 0 01-4.542-4.229 12.027 12.027 0 014.458-4.146c7.313-4.229 19.208-4.208 26.563.042a12.158 12.158 0 014.542 4.229" transform="translate(-150.733 -175.7)"/><path id="패스_673080" data-name="패스 673080" class="cls-9" d="M225.962 229.367a12.027 12.027 0 01-4.458 4.146c-7.313 4.229-19.208 4.208-26.562-.042a12.158 12.158 0 01-4.542-4.229 12.027 12.027 0 014.458-4.146c7.313-4.229 19.208-4.208 26.563.042a12.326 12.326 0 014.541 4.229z" transform="translate(-150.733 -175.7)"/><path id="패스_673081" data-name="패스 673081" class="cls-8" d="M222.983 240.587v6.354c-.042 2.729-1.854 5.458-5.458 7.542-7.312 4.229-19.208 4.208-26.562-.042-3.687-2.125-5.542-4.917-5.542-7.708h-.021V240.4h.021a6.833 6.833 0 001 3.458 12.158 12.158 0 004.542 4.229c7.354 4.25 19.25 4.271 26.563.042a11.867 11.867 0 004.458-4.146 6.833 6.833 0 001-3.4" transform="translate(-146.775 -190.317)"/><path id="패스_673082" data-name="패스 673082" class="cls-9" d="M222.983 240.587v6.354c-.042 2.729-1.854 5.458-5.458 7.542-7.312 4.229-19.208 4.208-26.562-.042-3.687-2.125-5.542-4.917-5.542-7.708h-.021V240.4h.021a6.833 6.833 0 001 3.458 12.158 12.158 0 004.542 4.229c7.354 4.25 19.25 4.271 26.563.042a11.867 11.867 0 004.458-4.146 6.833 6.833 0 00.999-3.396z" transform="translate(-146.775 -190.317)"/><path id="패스_673083" data-name="패스 673083" d="M76.208 50.27v-.167a.042.042 0 000-.021" stroke-width=".838" stroke-linejoin="round" stroke-linecap="round" stroke="#222" fill="none"/><path id="패스_673084" data-name="패스 673084" class="cls-8" d="M223.062 199.342a.042.042 0 010 .021v.167a6.833 6.833 0 01-1 3.4 12.027 12.027 0 01-4.458 4.146c-7.312 4.229-19.208 4.208-26.562-.042a12.159 12.159 0 01-4.542-4.234 6.833 6.833 0 01-1-3.458c-.021-2.771 1.813-5.542 5.458-7.646 7.313-4.229 19.208-4.208 26.563.042 3.646 2.1 5.5 4.854 5.542 7.6" transform="translate(-146.853 -149.259)"/><path id="패스_673085" data-name="패스 673085" d="M76.209 50.083a.042.042 0 010 .021v.167a6.833 6.833 0 01-1 3.4 12.027 12.027 0 01-4.458 4.146c-7.312 4.229-19.208 4.208-26.562-.042a12.159 12.159 0 01-4.542-4.234 6.833 6.833 0 01-1-3.458c-.021-2.771 1.813-5.542 5.458-7.646 7.313-4.229 19.208-4.208 26.563.042 3.645 2.104 5.499 4.854 5.541 7.604z" stroke-width=".833" stroke-linejoin="round" stroke-linecap="round" stroke="#222" fill="none"/><path id="패스_673086" data-name="패스 673086" d="M232.163 206.4a15.147 15.147 0 00-2.292-1.6c-7.354-4.25-19.25-4.271-26.562-.042a15.084 15.084 0 00-2.209 1.542c.417-1.771 1.9-3.458 4.417-4.812 6.083-3.25 16-3.229 22.125.042 2.583 1.375 4.083 3.1 4.5 4.875" transform="translate(-159.204 -157.591)" fill="#b2b5b7"/><path id="패스_673087" data-name="패스 673087" d="M72.959 48.809a15.147 15.147 0 00-2.292-1.6c-7.354-4.25-19.25-4.271-26.562-.042a15.084 15.084 0 00-2.209 1.542c.417-1.771 1.9-3.458 4.417-4.812 6.083-3.25 16-3.229 22.125.042 2.604 1.353 4.104 3.082 4.521 4.87z" stroke-width=".833" stroke-linejoin="round" stroke="#222" fill="none"/><path id="패스_673088" data-name="패스 673088" d="M227.359 222.88c-6.083 3.25-16 3.229-22.125-.042-3.583-1.917-5.083-4.521-4.5-7a15.085 15.085 0 012.208-1.542c7.313-4.229 19.208-4.208 26.563.042a15.146 15.146 0 012.292 1.6c.583 2.458-.9 5.042-4.417 6.917" transform="translate(-158.818 -167.15)" fill="#e2e2e2"/><path id="패스_673089" data-name="패스 673089" d="M68.541 55.73c-6.083 3.25-16 3.229-22.125-.042-3.583-1.917-5.083-4.521-4.5-7a15.085 15.085 0 012.208-1.542c7.313-4.229 19.208-4.208 26.563.042a15.146 15.146 0 012.292 1.6h0c.562 2.483-.897 5.062-4.438 6.942z" stroke-width=".833" stroke-linejoin="round" stroke="#222" fill="none"/><path id="패스_673090" data-name="패스 673090" class="cls-8" d="M345.058 259.8c-.042 2.729-1.854 5.458-5.458 7.542" transform="translate(-268.85 -205.675)"/><path id="패스_673091" data-name="패스 673091" d="M76.208 54.125c-.042 2.729-1.854 5.458-5.458 7.542" stroke-width=".833" stroke-linejoin="round" stroke-linecap="round" stroke="#222" fill="none"/><path id="패스_673092" data-name="패스 673092" class="cls-17" d="M339.4 163.3v.021l-.1.042z" transform="translate(-268.612 -129.279)"/><path id="패스_673093" data-name="패스 673093" class="cls-7" d="M339.4 163.3l-.1.063.1-.042z" transform="translate(-268.612 -129.279)"/><path id="선_91340" data-name="선 91340" class="cls-18" transform="translate(70.792 34.021)" d="M.021 0L0 .021"/><path id="선_91341" data-name="선 91341" class="cls-18" transform="translate(67.75 37.688)" d="M.021 0L0 .021"/><path id="선_91342" data-name="선 91342" stroke-width=".625" stroke-linejoin="round" stroke="#222" fill="none" d="M21.917 75.604l-.292.167"/><path id="패스_673094" data-name="패스 673094" class="cls-8" d="M185 264.17a2.622 2.622 0 011.729-1.812c1.354-.333 4.167 1.583 4.542 4.625s.354 5.188-1.771 4.938-3.125-5.417-3.125-5.417z" transform="translate(-146.458 -207.67)"/><path id="패스_673095" data-name="패스 673095" class="cls-7" d="M86.514 282.9s-1.979 1.563-.5 4.458 3.271 2.646 3.271 2.646l21.646-12.583s1.333-1.687-.687-5.1-4.417-.562-4.417-.562z" transform="translate(-67.66 -214.256)"/><path id="패스_673096" data-name="패스 673096" d="M21.913 75.584a1.6 1.6 0 01-1.625-.125 5.954 5.954 0 01-2.479-4.729c0-1.1.417-1.854 1.042-2.083" stroke-width=".625" stroke-miterlimit="10" stroke="#222" fill="none"/><path id="패스_673097" data-name="패스 673097" d="M30.854 70.458l-.229.146z" stroke-width=".625" stroke-miterlimit="10" stroke="#222" fill="none"/><path id="패스_673098" data-name="패스 673098" d="M39.292 56.875l-.625.375h-.042a.459.459 0 01.021-.167 4 4 0 01.25-1.125 8.828 8.828 0 00.396.917z" stroke-width=".625" stroke-miterlimit="10" stroke="#222" fill="none"/><path id="패스_673099" data-name="패스 673099" d="M38.667 57.25l-.042-.125" stroke-width=".625" stroke-linejoin="round" stroke="#222" fill="none"/><path id="패스_673100" data-name="패스 673100" class="cls-24" d="M100.938 316.239a3.729 3.729 0 01-.042.625 1.87 1.87 0 01-.771 1.354l-.083.042-6.479 3.729a2.205 2.205 0 00.854-2 5.928 5.928 0 00-2.479-4.729 1.613 1.613 0 00-1.437-.208l6.313-3.646a1.528 1.528 0 011.521.042l.125.063a5.9 5.9 0 012.478 4.728z" transform="translate(-71.646 -246.385)"/><path id="패스_673101" data-name="패스 673101" class="cls-24" d="M127.137 309.932a2.291 2.291 0 01-.75 1.917l-.229.146-2.146 1.229a1.83 1.83 0 00.771-1.354 3.73 3.73 0 00.042-.625 5.928 5.928 0 00-2.479-4.729l-.125-.062a1.528 1.528 0 00-1.521-.042l2.292-1.312a1.583 1.583 0 011.646.1 5.858 5.858 0 012.499 4.732z" transform="translate(-95.554 -241.39)"/><path id="패스_673102" data-name="패스 673102" d="M43.75 61.521a2.917 2.917 0 01-.312 1.438 1.437 1.437 0 01-.521.563l-.792.458-11.271 6.479a2.291 2.291 0 00.75-1.917 5.928 5.928 0 00-2.479-4.729 1.539 1.539 0 00-1.646-.1h0l11.146-6.417h.063l.625-.354.333-.187a1.583 1.583 0 011.646.1 5.937 5.937 0 012.458 4.563z" stroke-width=".625" stroke-linejoin="round" stroke="#222" fill="none"/><path id="패스_673103" data-name="패스 673103" d="M45.187 61.375a4.876 4.876 0 01-.062.833 2.9 2.9 0 01-.6 1.458 1.9 1.9 0 01-2.417.333l.792-.458a1.438 1.438 0 00.542-.562 2.917 2.917 0 00.313-1.437v-.167a5.937 5.937 0 00-2.458-4.562 1.639 1.639 0 00-1.646-.125l-.333.188a8.827 8.827 0 01-.437-.875 1.86 1.86 0 012.646-1.1l.4.188a5.375 5.375 0 011.438 1.271 8.423 8.423 0 011.822 5.015z" stroke-width=".833" stroke-linejoin="round" stroke="#222" fill="none"/></g><g id="그룹_334296" data-name="그룹 334296" class="cls-2"><path id="패스_673104" data-name="패스 673104" class="cls-8" d="M242.108 114.592a10.87 10.87 0 11-10.854-10.292 10.578 10.578 0 0110.854 10.292" transform="translate(-174.483 -82.571)"/><path id="패스_673105" data-name="패스 673105" d="M67.625 32.021a10.87 10.87 0 11-10.854-10.292c6 0 10.854 4.625 10.854 10.292z" stroke="#000001" stroke-width=".833" stroke-linejoin="round" fill="none"/><path id="선_91343" data-name="선 91343" class="cls-17" transform="translate(54.167 31.771)" d="M5.188 0L0 5.188"/><path id="선_91345" data-name="선 91345" class="cls-17" transform="translate(54.167 31.771)" d="M0 0l5.188 5.188"/><g id="그룹_334295" data-name="그룹 334295" transform="translate(51.708 46.896)" opacity=".2"><g id="그룹_334294" data-name="그룹 334294" clip-path="url(#clip-path-6)"><path id="패스_673108" data-name="패스 673108" d="M258.383 227.808c0 1.5-2.271 2.708-5.042 2.708s-5.042-1.208-5.042-2.708 2.271-2.708 5.042-2.708 5.042 1.208 5.042 2.708" transform="translate(-248.279 -225.1)"/></g></g><path id="패스_673292" data-name="패스 673292" d="M209.317 102.575c0 5.729-4.9 10.375-10.958 10.375S187.4 108.3 187.4 102.575 192.317 92.2 198.358 92.2s10.958 4.646 10.958 10.375" transform="translate(-141.358 -67.992)" fill="#45d49a"/><path id="패스_673293" data-name="패스 673293" d="M54.042 34.687l2.563 2.521 5.229-5.229" stroke-width="1.667" stroke="#fff" stroke-linejoin="round" stroke-linecap="round" fill="none"/><path id="선_91365" data-name="선 91365" stroke-linecap="square" stroke-width="1.667" stroke="#fff" stroke-linejoin="round" fill="none" d="M53.313 33.979l.729.708"/><path id="패스_673107" data-name="패스 673107" d="M67.625 34.375a10.87 10.87 0 11-10.854-10.292 10.578 10.578 0 0110.854 10.292z" stroke-width=".833" stroke="#000001" stroke-linejoin="round" fill="none"/></g></g></svg>