<svg xmlns="http://www.w3.org/2000/svg" xmlns:xlink="http://www.w3.org/1999/xlink" width="42" height="42" viewBox="0 0 42 42">
  <defs>
    <clipPath id="clip-path">
      <rect id="사각형_338979" data-name="사각형 338979" width="42" height="42" transform="translate(57 186)" fill="red" opacity="0.338"/>
    </clipPath>
  </defs>
  <g id="마스크_그룹_359641" data-name="마스크 그룹 359641" transform="translate(-57 -186)" clip-path="url(#clip-path)">
    <rect id="사각형_224859" data-name="사각형 224859" width="335" height="115" transform="translate(20 171)" fill="#f9f9f9" opacity="0.5"/>
    <g id="그룹_279832" data-name="그룹 279832" transform="translate(-13950.906 1950.543)">
      <g id="그룹_260104" data-name="그룹 260104" transform="translate(14010.627 -1763.543)">
        <path id="패스_580160" data-name="패스 580160" d="M2040.955,2703.648v15.137a4.6,4.6,0,0,0,2.333,3.993l13.268,7.568a4.71,4.71,0,0,0,4.666,0l13.269-7.568a4.6,4.6,0,0,0,2.333-3.993v-15.137a4.6,4.6,0,0,0-2.333-3.993l-13.269-7.568a4.714,4.714,0,0,0-4.666,0l-13.268,7.568A4.6,4.6,0,0,0,2040.955,2703.648Z" transform="translate(-2039.551 -2690.354)" fill="#a5a5ff" style="isolation: isolate"/>
        <path id="패스_580161" data-name="패스 580161" d="M2038.192,2702.376v15.137a4.6,4.6,0,0,0,2.333,3.992l13.269,7.569a4.714,4.714,0,0,0,4.667,0l13.268-7.569a4.6,4.6,0,0,0,2.333-3.992v-15.137a4.6,4.6,0,0,0-2.333-3.993l-13.268-7.569a4.717,4.717,0,0,0-4.667,0l-13.269,7.569A4.6,4.6,0,0,0,2038.192,2702.376Z" transform="translate(-2038.192 -2690.196)" fill="none" stroke="#6955ff" stroke-linejoin="round" stroke-width="1"/>
      </g>
      <g id="그룹_279820" data-name="그룹 279820" transform="translate(14020.343 -1754.646)">
        <path id="패스_581203" data-name="패스 581203" d="M18.506,11.4A8.122,8.122,0,1,1,10.5,19.522h0a8.122,8.122,0,0,1,8.006-8.006" transform="translate(-10.325 -6.875)" fill="#fff"/>
        <path id="패스_581204" data-name="패스 581204" d="M10.9,15.689A7.89,7.89,0,0,1,12.408,13.6" transform="translate(-10.261 -6.522)" fill="none" stroke="#111" stroke-linecap="square" stroke-linejoin="round" stroke-width="1"/>
        <path id="패스_581205" data-name="패스 581205" d="M12.5,9.5s0,3.133,1.973,3.133h.116A8.122,8.122,0,1,1,11.1,16.346" transform="translate(-10.349 -7.179)" fill="none" stroke="#111" stroke-linecap="round" stroke-linejoin="round" stroke-width="1"/>
        <path id="패스_581206" data-name="패스 581206" d="M14.414,10s-.464,1.856.58,1.973" transform="translate(-9.714 -7.099)" fill="none" stroke="#111" stroke-linecap="round" stroke-linejoin="round" stroke-width="1"/>
        <path id="패스_581207" data-name="패스 581207" d="M17.933,19.1a1.624,1.624,0,0,1-3.133,0" transform="translate(-9.635 -5.64)" fill="none" stroke="#111" stroke-linecap="square" stroke-miterlimit="10" stroke-width="1"/>
        <line id="선_42859" data-name="선 42859" y2="0.348" transform="translate(9.226 10.559)" fill="none" stroke="#111" stroke-linecap="round" stroke-width="1"/>
        <line id="선_42860" data-name="선 42860" y2="1.392" transform="translate(9.226 9.166)" fill="none" stroke="#111" stroke-width="1"/>
        <line id="선_42861" data-name="선 42861" y2="0.464" transform="translate(4.352 10.443)" fill="none" stroke="#111" stroke-linecap="round" stroke-width="1"/>
        <line id="선_42862" data-name="선 42862" y2="1.276" transform="translate(4.352 9.166)" fill="none" stroke="#111" stroke-width="1"/>
        <path id="패스_581208" data-name="패스 581208" d="M27.715,11.909,24.93,15.854,18.2,11.561,20.4,7.5l1.044,2.785L24.7,8.892l.116,3.481Z" transform="translate(-9.09 -7.5)" fill="#fff"/>
        <path id="패스_581209" data-name="패스 581209" d="M27.715,11.909,24.93,15.854,18.2,11.561,20.4,7.5l1.044,2.785L24.7,8.892l.116,3.481Z" transform="translate(-9.09 -7.5)" fill="none" stroke="#111" stroke-linejoin="round" stroke-width="1"/>
      </g>
    </g>
  </g>
</svg>
