<svg xmlns="http://www.w3.org/2000/svg" width="28" height="28"><defs><clipPath id="clip-path"><path id="사각형_240137" data-name="사각형 240137" fill="none" d="M0 0h28v28H0z"/></clipPath><style>.cls-7,.cls-8{fill:none}.cls-2{clip-path:url(#clip-path)}.cls-3{opacity:0}.cls-4{fill:#f0f}.cls-5{fill:#fff}.cls-7,.cls-8{stroke:#111;stroke-width:1.5px}.cls-8{stroke-linecap:round}.cls-7{stroke-linecap:square}</style></defs><g id="이용약관2_28x28" transform="translate(14 14)"><g id="이용약관2_28x28-2" data-name="이용약관2_28x28" class="cls-2" transform="translate(-14 -14)"><g id="그룹_310379" data-name="그룹 310379" class="cls-2"><g id="그룹_310376" data-name="그룹 310376" class="cls-3"><g id="그룹_310375" data-name="그룹 310375" class="cls-2"><path id="사각형_240132" data-name="사각형 240132" class="cls-4" d="M0 0h28v28H0z"/></g></g><path id="패스_640165" data-name="패스 640165" class="cls-5" d="M11.3 17.2l1.3-1.7a1 1 0 00.2-.6V4.3a1 1 0 00-1-1H8.2V15a1.1 1.1 0 00.2.7l1.3 1.5a1 1 0 001.4.2l.2-.2"/><path id="패스_640166" data-name="패스 640166" class="cls-5" d="M17.8 6.2h6.3a.7.7 0 01.7.7v18.7a.7.7 0 01-.7.7H11.5A4.5 4.5 0 017 21.8V7.6a1.5 1.5 0 011.4-1.4z"/><path id="패스_640167" data-name="패스 640167" d="M15.6 4.4h7v20H9.3a4.5 4.5 0 01-4.5-4.5V4.4h3.9" stroke-linejoin="round" stroke-linecap="round" stroke="#111" stroke-width="1.5" fill="none"/><path id="선_88129" data-name="선 88129" class="cls-7" transform="translate(10.8 15.3)" d="M1.3 0H0"/><path id="선_88130" data-name="선 88130" class="cls-8" transform="translate(12.1 15.3)" d="M4.6 0H0"/><path id="패스_640168" data-name="패스 640168" d="M10.3 14.3l1.7-2.1V2.6H8.7v9.7z" stroke-linejoin="round" stroke="#111" stroke-width="1.5" fill="none"/><path id="선_88131" data-name="선 88131" class="cls-7" transform="translate(10.8 18.6)" d="M1.9 0H0"/><path id="선_88132" data-name="선 88132" class="cls-8" transform="translate(12.7 18.6)" d="M4 0H0"/><g id="그룹_310378" data-name="그룹 310378" class="cls-3"><g id="그룹_310377" data-name="그룹 310377" class="cls-2"><path id="사각형_240134" data-name="사각형 240134" class="cls-4" d="M0 0h28v28H0z"/></g></g></g></g></g></svg>