<svg xmlns="http://www.w3.org/2000/svg" width="72" height="90.652"><defs><clipPath id="clip-path"><path id="사각형_96440" data-name="사각형 96440" class="cls-1" d="M0 0h72v74.333H0z"/></clipPath><clipPath id="clip-path-3"><path id="사각형_96437" data-name="사각형 96437" class="cls-1" d="M0 0h71.676v44.574H0z"/></clipPath><clipPath id="clip-path-4"><path id="사각형_96438" data-name="사각형 96438" class="cls-1" d="M0 0h69.578v38.013H0z"/></clipPath><style>.cls-1,.cls-10,.cls-11,.cls-12,.cls-17,.cls-25,.cls-27,.cls-28,.cls-7,.cls-9{fill:none}.cls-2{fill:#3673ee}.cls-4{clip-path:url(#clip-path)}.cls-5{fill:#fff}.cls-10,.cls-11,.cls-12,.cls-17,.cls-25,.cls-28,.cls-7,.cls-9{stroke:#222}.cls-10,.cls-11,.cls-12,.cls-25,.cls-7,.cls-9{stroke-miterlimit:10}.cls-10,.cls-11,.cls-12,.cls-17,.cls-27,.cls-28,.cls-7,.cls-9{stroke-width:1.249px}.cls-15{fill:#222}.cls-16{fill:#ddd}.cls-17,.cls-27,.cls-28{stroke-linejoin:round}.cls-25{stroke-width:1.249px}.cls-27{stroke:#f8483b}.cls-27,.cls-28{stroke-linecap:round}</style></defs><g id="그룹_335946" data-name="그룹 335946" transform="translate(-54 -629)"><g id="그룹_303225" data-name="그룹 303225" transform="rotate(20 -944.411 -92.585)"><path id="패스_627160" data-name="패스 627160" class="cls-2" d="M278.017 701.219c-.731-.641-2.184-.179-3.247 1.033s-1.331 2.713-.6 3.354 2.185.179 3.247-1.033 1.33-2.714.6-3.354z" transform="translate(0 -398.076)"/><path id="패스_627161" data-name="패스 627161" class="cls-2" d="M352.592 289.382c-1.154.527-1.944.489-2.347.057-.586-.627-.137-1.877.221-3.107 1.133-3.894-1.888-4.146-5.543-2.357-2.152 1.053-4.286 2.4-6.227 1.993-2.17-.45.043-3.273-1.7-4.838-1.162-1.044-5-1.443-9.435 4.356a37.23 37.23 0 01-2.482 3.014c-1.1 1.169-2.361 1.093-2.575-.339-.113-.756-.783-1.372-2.769-.869a13.3 13.3 0 00-5.974 4.121c-4.27 4.658-5.506 10.384-.91 9.906 2.361-.245 2.353 1.308 2.163 4.655-.11 1.944.648 3.633 1.955 4.249 4.11 1.934 8.861-2 10.711-2.731 1.459-.578 2.778-.7 2.762.368-.032 2.166 3.512 1.76 6.838-.268a3.9 3.9 0 015.865 1.525c1.135 2.608 6.468 1.032 8.842-2.494 2.695-4 2-6.43 1.948-8.349-.041-1.547-.062-2.041 1.557-4.492 2.47-3.734-.005-5.721-2.9-4.4z" transform="translate(-34.254)"/><path id="패스_627162" data-name="패스 627162" class="cls-2" d="M1170.222 556.144a1.977 1.977 0 10-.207 2.324 1.691 1.691 0 00.207-2.324z" transform="translate(-846.105 -260.733)"/></g><g id="아트웍_1" data-name="아트웍 1" transform="translate(54 629)" style="isolation:isolate"><g id="Layer_1" data-name="Layer 1"><g id="그룹_99701" data-name="그룹 99701" class="cls-4"><g id="그룹_99700" data-name="그룹 99700" class="cls-4"><path id="패스_297757" data-name="패스 297757" class="cls-5" d="M61.274 197.907c1 .574.974 1.5 0 2.073a3.971 3.971 0 01-3.6 0c-1-.574-.974-1.5 0-2.073a3.971 3.971 0 013.6 0" transform="translate(-42.718 -148.159)"/><path id="패스_297758" data-name="패스 297758" d="M18.556 49.748c1 .574.974 1.5 0 2.073a3.971 3.971 0 01-3.6 0c-1-.574-.974-1.5 0-2.073a3.971 3.971 0 013.6 0z" stroke-width="1.249" stroke-miterlimit="10" stroke="#222" fill="none"/><path id="패스_297759" data-name="패스 297759" class="cls-5" d="M57 177.641V169.2h5.07v8.441" transform="translate(-42.765 -126.944)"/><path id="패스_297760" data-name="패스 297760" class="cls-7" d="M57 177.641V169.2h5.07v8.441" transform="translate(-42.765 -126.944)"/><path id="패스_297761" data-name="패스 297761" class="cls-2" d="M51.333 19.8v34.989h-.125a4.134 4.134 0 01-2.323 2.972 12.354 12.354 0 01-11.188.025 4.093 4.093 0 01-2.3-2.972V19.9z" transform="translate(-26.559 -14.855)"/><path id="패스_297762" data-name="패스 297762" class="cls-7" d="M51.333 19.8v34.989h-.125a4.134 4.134 0 01-2.323 2.972 12.354 12.354 0 01-11.188.025 4.093 4.093 0 01-2.3-2.972V19.9z" transform="translate(-26.559 -14.855)"/><path id="패스_297763" data-name="패스 297763" class="cls-5" d="M35.5 159.375" transform="translate(-26.634 -119.441)"/><path id="패스_297764" data-name="패스 297764" d="M8.866 39.934h0z" stroke-width="1.249" stroke-miterlimit="10" stroke="#222" fill="none"/><path id="패스_297765" data-name="패스 297765" class="cls-5" d="M49 2.814c3.072 1.773 3.072 4.67-.025 6.468a12.354 12.354 0 01-11.188.025c-3.072-1.773-3.072-4.67.025-6.468A12.354 12.354 0 0149 2.814" transform="translate(-26.625 -1.116)"/><path id="패스_297766" data-name="패스 297766" class="cls-9" d="M49 2.814c3.072 1.773 3.072 4.67-.025 6.468a12.354 12.354 0 01-11.188.025c-3.072-1.773-3.072-4.67.025-6.468A12.354 12.354 0 0149 2.814z" transform="translate(-26.625 -1.116)"/><path id="패스_297767" data-name="패스 297767" class="cls-5" d="M57.571 10.89c1.623.949 1.623 2.472-.025 3.4a6.533 6.533 0 01-5.894 0c-1.623-.949-1.623-2.472.025-3.4a6.533 6.533 0 015.894 0" transform="translate(-37.841 -7.643)"/><path id="패스_297768" data-name="패스 297768" class="cls-10" d="M57.571 10.89c1.623.949 1.623 2.472-.025 3.4a6.533 6.533 0 01-5.894 0c-1.623-.949-1.623-2.472.025-3.4a6.533 6.533 0 015.894 0z" transform="translate(-37.841 -7.643)"/><path id="패스_297769" data-name="패스 297769" class="cls-5" d="M58.618 7.115c1.448.824 1.424 2.173-.025 3.022a5.666 5.666 0 01-5.22 0c-1.448-.849-1.424-2.173.025-3.022a5.741 5.741 0 015.22 0" transform="translate(-39.238 -4.867)"/><path id="패스_297770" data-name="패스 297770" class="cls-9" d="M58.618 7.115c1.448.824 1.424 2.173-.025 3.022a5.666 5.666 0 01-5.22 0c-1.448-.849-1.424-2.173.025-3.022a5.741 5.741 0 015.22 0z" transform="translate(-39.238 -4.867)"/><path id="패스_297771" data-name="패스 297771" class="cls-5" d="M51.024 12.7a2.805 2.805 0 00-.624 1.723" transform="translate(-37.813 -9.528)"/><path id="패스_297772" data-name="패스 297772" class="cls-11" d="M51.024 12.7a2.805 2.805 0 00-.624 1.723" transform="translate(-37.813 -9.528)"/><path id="패스_297773" data-name="패스 297773" class="cls-5" d="M81.4 12.7a2.805 2.805 0 01.624 1.723" transform="translate(-61.071 -9.528)"/><path id="패스_297774" data-name="패스 297774" class="cls-11" d="M81.4 12.7a2.805 2.805 0 01.624 1.723" transform="translate(-61.071 -9.528)"/><path id="패스_297775" data-name="패스 297775" class="cls-9" d="M35.2 64.6c-.025 1.2.749 2.4 2.323 3.322a12.409 12.409 0 0011.286-.022 3.974 3.974 0 002.348-3.3" transform="translate(-26.407 -48.467)"/><path id="패스_297776" data-name="패스 297776" class="cls-10" d="M35.2 114.3c-.025 1.2.749 2.4 2.323 3.322a12.409 12.409 0 0011.288-.025 3.974 3.974 0 002.348-3.3" transform="translate(-26.407 -85.755)"/><path id="패스_297777" data-name="패스 297777" class="cls-5" d="M143.843 21.266a1.923 1.923 0 01-2.572 1.823 3.272 3.272 0 11-.974-2.9 1.923 1.923 0 013.546 1.074" transform="translate(-101.112 -14.473)"/><path id="패스_297778" data-name="패스 297778" class="cls-9" d="M143.843 21.266a1.923 1.923 0 01-2.572 1.823 3.272 3.272 0 11-.974-2.9 1.923 1.923 0 013.546 1.074z" transform="translate(-101.112 -14.473)"/><path id="패스_297779" data-name="패스 297779" class="cls-5" d="M92 36.745a4.345 4.345 0 104.345-4.345A4.345 4.345 0 0092 36.745" transform="translate(-69.024 -24.308)"/><path id="패스_297780" data-name="패스 297780" class="cls-12" d="M92 36.745a4.345 4.345 0 104.345-4.345A4.345 4.345 0 0092 36.745z" transform="translate(-69.024 -24.308)"/><path id="패스_297781" data-name="패스 297781" class="cls-5" d="M60.731 110.665a5.869 5.869 0 01-11.738 0 6.019 6.019 0 01.125-1.2 4.445 4.445 0 01-1.923.425 4.5 4.5 0 114.5-4.5v.325a5.869 5.869 0 019.041 4.945" transform="translate(-32.036 -75.701)"/><path id="패스_297782" data-name="패스 297782" class="cls-12" d="M60.731 110.665a5.869 5.869 0 01-11.738 0 6.019 6.019 0 01.125-1.2 4.445 4.445 0 01-1.923.425 4.5 4.5 0 114.5-4.5v.325a5.869 5.869 0 019.041 4.945z" transform="translate(-32.036 -75.701)"/><path id="패스_297783" data-name="패스 297783" class="cls-5" d="M40.917 43.354a4.5 4.5 0 006.668 5.594 5.869 5.869 0 10.824-6.618l-.05-.05a4.5 4.5 0 10-7.442 1.074" transform="translate(-29.853 -26.921)"/><path id="패스_297784" data-name="패스 297784" class="cls-7" d="M40.917 43.354a4.5 4.5 0 006.668 5.594 5.869 5.869 0 10.824-6.618l-.05-.05a4.5 4.5 0 10-7.442 1.074z" transform="translate(-29.853 -26.921)"/><g id="그룹_99697" data-name="그룹 99697" transform="translate(.3 29.769)" style="mix-blend-mode:multiply;isolation:isolate" opacity=".15"><g id="그룹_99696" data-name="그룹 99696" clip-path="url(#clip-path-3)"><path id="패스_297785" data-name="패스 297785" d="M71.519 131.887c-6.993-4.3-21.977-12.687-21.977-12.687L1.991 147.6s-3.846 5.719 5.669 11.064c13.811 7.717 18.88 4.4 18.88 4.4l43.76-25.233s4.945-3.671 1.249-5.969" transform="translate(-1.217 -119.2)"/></g></g><path id="패스_297786" data-name="패스 297786" d="M126.42 243.346l-.949.974-.749.449-3.222-5.069 4.321.05z" transform="translate(-91.157 -179.837)"/><path id="패스_297787" data-name="패스 297787" class="cls-15" d="M100.614 238.979l-3.172-1.8a2.936 2.936 0 00-2.947.3 9.265 9.265 0 00-4.2 7.242 2.938 2.938 0 001.249 2.722l3.147 1.8a3 3 0 002.947-.3 9.239 9.239 0 004.171-7.242 2.979 2.979 0 00-1.224-2.722" transform="translate(-67.748 -177.742)"/><path id="패스_297788" data-name="패스 297788" class="cls-15" d="M111.291 247.1a9.2 9.2 0 01-4.2 7.242 2.559 2.559 0 01-4.2-2.422 9.239 9.239 0 014.171-7.242 2.542 2.542 0 014.171 2.422" transform="translate(-77.202 -183.144)"/><path id="패스_297789" data-name="패스 297789" class="cls-15" d="M112.642 248.552a8.57 8.57 0 01-3.871 6.718 2.69 2.69 0 01-2.722.275 2.738 2.738 0 01-1.149-2.522 8.57 8.57 0 013.871-6.718 2.69 2.69 0 012.722-.275 2.738 2.738 0 011.149 2.522" transform="translate(-78.702 -184.394)"/><path id="패스_297790" data-name="패스 297790" class="cls-5" d="M115.19 253.608a6.169 6.169 0 01-2.8 4.87 1.75 1.75 0 01-2.8-1.648 6.169 6.169 0 012.8-4.845 1.75 1.75 0 012.8 1.648" transform="translate(-82.225 -188.8)"/><path id="패스_297791" data-name="패스 297791" class="cls-5" d="M115.543 254.459a5.869 5.869 0 01-2.672 4.645 1.669 1.669 0 01-2.672-1.548 5.869 5.869 0 012.672-4.645 1.669 1.669 0 012.672 1.548" transform="translate(-82.678 -189.502)"/><path id="패스_297792" data-name="패스 297792" class="cls-16" d="M116.322 252.5a1.678 1.678 0 011.249 1.823 5.819 5.819 0 01-2.647 4.6 1.848 1.848 0 01-1.623.225 1.821 1.821 0 001.873-.1 5.869 5.869 0 002.672-4.645 1.65 1.65 0 00-1.523-1.873" transform="translate(-85.004 -189.441)"/><path id="패스_297793" data-name="패스 297793" class="cls-17" d="M16.511 100.768c-1.5 1.374-3.9 3.5-3.9 3.5l-4.52 3.147a12.051 12.051 0 00-4.445 5.27 22.311 22.311 0 00-2.023 3.9c-.325 1.224.325 4.1.3 4.2s-.574 1.873 1.448 3.971 6.893 4.895 8.566 5.894 5.444 3.022 8.666 3.147a9.087 9.087 0 004.67-.824v-.05c.624-3.147 1.923-7.392 6.019-9.64 2.747-1.523 5.394-.549 4.2 3.6v.125l24.45-14.435c.524-3 2.872-7.292 5.544-8.841s4.6-.624 4.271 3.072a6.193 6.193 0 001.149-1.8 3.4 3.4 0 00.05-2.148 9.064 9.064 0 000-2.148 8.244 8.244 0 00-1.149-2.348 21.935 21.935 0 00-1.225-3.06c-.5-.824-2.522-2.522-6.768-5.319a54.953 54.953 0 00-10.339-5.369 13.012 13.012 0 00-2.872-.6 6.488 6.488 0 00-2.123-.724 2.073 2.073 0 00-1.3.35 67.426 67.426 0 00-8.566 3.371c-3.272 1.7-8.067 4.445-10.414 6.044-1.773 1.224-5.245 3.9-7.292 5.619z" transform="translate(-1.152 -62.482)"/><path id="패스_297794" data-name="패스 297794" d="M264.02 163.871l-.924.974-.749.425-3.247-5.07 4.345.075z" transform="translate(-194.392 -120.192)"/><path id="패스_297795" data-name="패스 297795" class="cls-15" d="M238.289 159.579l-3.147-1.8a2.936 2.936 0 00-2.947.3 9.265 9.265 0 00-4.2 7.242 2.938 2.938 0 001.249 2.722l3.147 1.8a3 3 0 002.947-.3 9.265 9.265 0 004.2-7.242 2.979 2.979 0 00-1.224-2.722" transform="translate(-171.059 -118.172)"/><path id="패스_297796" data-name="패스 297796" class="cls-15" d="M249.066 167.7a9.239 9.239 0 01-4.171 7.242 2.559 2.559 0 01-4.2-2.423 9.239 9.239 0 014.171-7.242 2.541 2.541 0 014.171 2.422" transform="translate(-180.587 -123.574)"/><path id="패스_297797" data-name="패스 297797" class="cls-15" d="M250.342 169.152a8.57 8.57 0 01-3.871 6.718 2.69 2.69 0 01-2.722.275 2.738 2.738 0 01-1.149-2.522 8.57 8.57 0 013.871-6.718 2.69 2.69 0 012.722-.275 2.738 2.738 0 011.149 2.522" transform="translate(-182.013 -124.823)"/><path id="패스_297798" data-name="패스 297798" class="cls-5" d="M252.89 174.133a6.169 6.169 0 01-2.8 4.87 1.75 1.75 0 01-2.8-1.648 6.169 6.169 0 012.8-4.87 1.75 1.75 0 012.8 1.648" transform="translate(-185.535 -129.154)"/><path id="패스_297799" data-name="패스 297799" class="cls-5" d="M253.143 174.959a5.869 5.869 0 01-2.672 4.645 1.669 1.669 0 01-2.672-1.548 5.869 5.869 0 012.672-4.645 1.669 1.669 0 012.672 1.548" transform="translate(-185.913 -129.856)"/><path id="패스_297800" data-name="패스 297800" class="cls-16" d="M254.022 173.1a1.678 1.678 0 011.249 1.823 5.819 5.819 0 01-2.647 4.6 1.823 1.823 0 01-1.623.225 1.821 1.821 0 001.873-.1 5.869 5.869 0 002.671-4.648 1.65 1.65 0 00-1.523-1.873" transform="translate(-188.315 -129.87)"/><path id="패스_297801" data-name="패스 297801" class="cls-5" d="M63.5 140.944a2.1 2.1 0 00-.35-1.074 1.485 1.485 0 00-1.523 0 1.749 1.749 0 00-.6 1.7 8.192 8.192 0 01.075 1.5" transform="translate(-45.766 -104.781)"/><path id="패스_297802" data-name="패스 297802" d="M17.734 36.163a2.1 2.1 0 00-.35-1.074 1.485 1.485 0 00-1.523 0 1.749 1.749 0 00-.6 1.7 8.192 8.192 0 01.075 1.5" stroke-width="2.082" stroke-linejoin="round" stroke="#222" fill="none"/><path id="패스_297803" data-name="패스 297803" class="cls-5" d="M16.511 100.768c-1.5 1.374-3.9 3.5-3.9 3.5l-4.52 3.147a12.051 12.051 0 00-4.445 5.27 22.311 22.311 0 00-2.023 3.9c-.325 1.224.325 4.1.3 4.2s-.574 1.873 1.448 3.971 6.893 4.895 8.566 5.894 5.444 3.022 8.666 3.147a9.087 9.087 0 004.67-.824v-.05c.624-3.147 1.923-7.392 6.019-9.64 2.747-1.523 5.394-.549 4.2 3.6v.125l24.45-14.435c.524-3 2.872-7.292 5.544-8.841s4.6-.624 4.271 3.072a6.193 6.193 0 001.149-1.8 3.4 3.4 0 00.05-2.148 9.064 9.064 0 000-2.148 8.244 8.244 0 00-1.149-2.348 21.935 21.935 0 00-1.225-3.06c-.5-.824-2.522-2.522-6.768-5.319a54.953 54.953 0 00-10.339-5.369 13.012 13.012 0 00-2.872-.6 6.488 6.488 0 00-2.123-.724 2.073 2.073 0 00-1.3.35 67.426 67.426 0 00-8.566 3.371c-3.272 1.7-8.067 4.445-10.414 6.044-1.773 1.224-5.245 3.9-7.292 5.619z" transform="translate(-1.152 -62.482)"/><path id="패스_297804" data-name="패스 297804" class="cls-17" d="M16.511 100.768c-1.5 1.374-3.9 3.5-3.9 3.5l-4.52 3.147a12.051 12.051 0 00-4.445 5.27 22.311 22.311 0 00-2.023 3.9c-.325 1.224.325 4.1.3 4.2s-.574 1.873 1.448 3.971 6.893 4.895 8.566 5.894 5.444 3.022 8.666 3.147a9.087 9.087 0 004.67-.824v-.05c.624-3.147 1.923-7.392 6.019-9.64 2.747-1.523 5.394-.549 4.2 3.6v.125l24.45-14.435c.524-3 2.872-7.292 5.544-8.841s4.6-.624 4.271 3.072a6.193 6.193 0 001.149-1.8 3.4 3.4 0 00.05-2.148 9.064 9.064 0 000-2.148 8.244 8.244 0 00-1.149-2.348 21.935 21.935 0 00-1.225-3.06c-.5-.824-2.522-2.522-6.768-5.319a54.953 54.953 0 00-10.339-5.369 13.012 13.012 0 00-2.872-.6 6.488 6.488 0 00-2.123-.724 2.073 2.073 0 00-1.3.35 67.426 67.426 0 00-8.566 3.371c-3.272 1.7-8.067 4.445-10.414 6.044-1.773 1.224-5.245 3.9-7.292 5.619z" transform="translate(-1.152 -62.482)"/><g id="그룹_99699" data-name="그룹 99699" transform="translate(.375 33.54)" style="mix-blend-mode:multiply;isolation:isolate"><g id="그룹_99698" data-name="그룹 99698" clip-path="url(#clip-path-4)"><path id="패스_297805" data-name="패스 297805" d="M71.027 142.467l-.874 2.123s-.05-3.147-4.121-2.547-6.194 8.916-6.194 8.916l-24.425 14.31s1.648-3.3-1.973-4.121-6.768 5.22-6.768 5.22l-1.472 4.994-2.273.849s-4.146.674-4.82-.25c-5.494-2.447-10.614-5.12-14.435-8.441 0 0-1.074-.175-1.7-2.2a27.579 27.579 0 01-.5-4.72 5.319 5.319 0 01.05-1.648 23.79 23.79 0 012.048-3.846l.175-.4 1.455 6.346.649 1.848c-.949 1.523 8.691 7.068 13.111 8.316.45-1.548.9-2.9.9-2.9a25.822 25.822 0 005.245-1c2.722-.849 3.871-4.895 3.871-4.895l7.917-4.7 1.948-1.149 3.421.475.7-.624-.475-2.123 9.915-6.843c6.219-3.771 7.392-8.966 7.392-8.966l7.118.949-.9 1.174 2.8 1.149 1.174-.425.814 1.862z" transform="translate(-1.45 -134.45)" fill="#e5e5e5"/></g></g><path id="패스_297806" data-name="패스 297806" class="cls-15" d="M62.774 147.1a4.021 4.021 0 003-1.349c.45-.5.974-1.1 1.374-1.648.8-1.074 4.47-7.193 6.244-9.74a.924.924 0 00-.325-1.349c-1.773-.949-5.644-3.022-7.567-4.221-2.547-1.6-6.618-4.4-6.618-4.4s-6.518 4.82-8.516 6.568-4.995 4.146-4.995 4.146a3.668 3.668 0 00.45 3.347c1.149 1.873 4.3 4.121 6.893 5.494 2.123 1.124 6.668 3.147 10.09 3.172" transform="translate(-33.879 -93.332)"/><path id="패스_297807" data-name="패스 297807" d="M204.963 96.316a46.669 46.669 0 004.7 1.873c.8.125 1.548 0 1.424-.549s-3.971-3.446-5.744-4.57a76.858 76.858 0 00-8.117-4.5 22.065 22.065 0 00-3.926-1.27s3.521 1.723 5.494 2.972a31.834 31.834 0 015.619 4.47 6.093 6.093 0 01.549 1.548" transform="translate(-145.025 -65.498)" fill="#141c1e"/><path id="패스_297808" data-name="패스 297808" d="M263.894 134.046l-.15-.225a21.933 21.933 0 00-1.224-3.047l-.125-.175a1.649 1.649 0 01-.175.549 14.755 14.755 0 01-1.6 1.374c-.325.25-.874.974-.325 1.473s2.847 1 3.3.624a1 1 0 00.3-.6" transform="translate(-195.116 -97.984)" fill="#f8483b"/><path id="패스_297809" data-name="패스 297809" d="M68.778 36.062l-.15-.225a21.933 21.933 0 00-1.224-3.047l-.125-.175a1.649 1.649 0 01-.175.549 14.755 14.755 0 01-1.6 1.374c-.325.25-.874.974-.325 1.473s2.847 1 3.3.624a1 1 0 00.299-.573z" stroke-width="1.249" stroke-linejoin="round" stroke="#222" fill="none"/><path id="패스_297810" data-name="패스 297810" class="cls-15" d="M62.186 235.59a.5.5 0 01-.05-.949l5.344-1.973c1.8-.649 4.6-1.8 5.419-2.123s1.5-.524 1.324.275a8.114 8.114 0 01-4.445 4.6 10.583 10.583 0 01-7.617.175" transform="translate(-46.378 -172.755)"/><path id="패스_297811" data-name="패스 297811" class="cls-25" d="M62.186 235.59a.5.5 0 01-.05-.949l5.344-1.973c1.8-.649 4.6-1.8 5.419-2.123s1.5-.524 1.324.275a8.114 8.114 0 01-4.445 4.6 10.516 10.516 0 01-7.592.17z" transform="translate(-46.378 -172.755)"/><path id="패스_297812" data-name="패스 297812" class="cls-15" d="M13.4 179.7h-.05a12.225 12.225 0 00-4.3 4.945l-.075.15a7.2 7.2 0 00-.4 2.947 5.064 5.064 0 001.473 2.7.225.225 0 00.4-.175 16.43 16.43 0 01-.025-4.57A23.978 23.978 0 0113.4 179.7" transform="translate(-6.405 -134.822)"/><path id="패스_297813" data-name="패스 297813" class="cls-7" d="M13.4 179.7h-.05a12.225 12.225 0 00-4.3 4.945l-.075.15a7.2 7.2 0 00-.4 2.947 5.064 5.064 0 001.473 2.7.225.225 0 00.4-.175 16.43 16.43 0 01-.025-4.57A23.978 23.978 0 0113.4 179.7z" transform="translate(-6.405 -134.822)"/><path id="패스_297814" data-name="패스 297814" class="cls-15" d="M10.011 230.356a19.8 19.8 0 01-2.772-2.2 7.633 7.633 0 01-1.424-3.322c-.15-.749-.2-1.548.025-1.7s.849.549 1.648 1.3 2.223 1.873 2.223 1.873a3.921 3.921 0 001.074 1.149 41.269 41.269 0 004.121 2.373 5.506 5.506 0 002.472.674s1.873.749 3.3 1.224 2.9.724 2.972 1.5-.574 1.249-1.424 1.723a4.817 4.817 0 01-3.526.05 8.691 8.691 0 01-2.1-.874" transform="translate(-4.267 -167.397)"/><path id="패스_297815" data-name="패스 297815" class="cls-15" d="M164.035 128.4c-.4-.5-4.895.475-7.592 1.773a47.542 47.542 0 00-7.667 4.92c-1.623 1.3-5.919 8.142-7.168 10.189 0 0-1.6 2.647-1.1 3.5s1.374.225 2.4-.4l.2-.125a.8.8 0 01.025-.375 26.372 26.372 0 012.248-2.273 1.5 1.5 0 011.573.1l10.764-7.168s4.321-3.446 5.569-5.894 1.124-3.746.749-4.221" transform="translate(-105.346 -96.233)"/><path id="패스_297816" data-name="패스 297816" class="cls-15" d="M156.849 156.161a1.485 1.485 0 011.374.025l9.215-6.119c-.35-1.548-1.3-5.794-2-7.767a49.983 49.983 0 00-5.095 3.521c-.924.749-2.847 3.5-4.645 6.219l.275 4.92a6.642 6.642 0 01.849-.774" transform="translate(-116.815 -106.762)"/><path id="패스_297817" data-name="패스 297817" class="cls-15" d="M143.661 189.794l.974-1.074-.35-4.62c-.749 1.149-1.449 2.273-2 3.2s-1.424 2.772-1.1 3.3a.549.549 0 00.5.325 3.71 3.71 0 001.448-.649l.225-.125.3-.175v-.15" transform="translate(-105.875 -138.123)"/><path id="패스_297818" data-name="패스 297818" class="cls-15" d="M209.266 129.075s-.075-.075-.45-.075a21.455 21.455 0 00-6.943 1.9l-.974.5c.425 1.2 1.573 4.6 2.373 7.317 1-.849 4.171-3.6 5.22-5.619s1.149-3.546.774-4.021" transform="translate(-150.727 -96.783)"/><path id="패스_297819" data-name="패스 297819" class="cls-15" d="M205.963 93.669a71.906 71.906 0 00-8.067-4.545L194.3 87.9c.824.4 3.6 1.8 5.245 2.847s5.245 3.821 5.619 4.47a5.794 5.794 0 01.5 1.424 41.053 41.053 0 004.745 1.823l.5.05a.949.949 0 00.674-.175.175.175 0 00.025-.175c-.125-.45-3.746-3.247-5.669-4.47" transform="translate(-145.775 -65.948)"/><path id="패스_297820" data-name="패스 297820" class="cls-5" d="M148.769 197.347l3.022-1.374a.774.774 0 011.024.35l.325.624a2.023 2.023 0 01.15 1.5c-.125.425-.4.724-.7.624l-1.124-.35a4.47 4.47 0 00-2.3-.125h-.025a.674.674 0 01-.35-1.274" transform="translate(-111.358 -146.974)"/><path id="패스_297821" data-name="패스 297821" d="M37.411 50.373l3.022-1.374a.774.774 0 011.024.35l.325.624a2.023 2.023 0 01.15 1.5c-.125.425-.4.724-.7.624l-1.124-.35a4.47 4.47 0 00-2.3-.125h-.025a.674.674 0 01-.35-1.274z" stroke-width="1.249" stroke-miterlimit="10" stroke="#222" fill="none"/><path id="선_37779" data-name="선 37779" class="cls-27" transform="translate(18.281 59.164)" d="M0 2.922L7.917 0"/><path id="패스_297822" data-name="패스 297822" class="cls-5" d="M91.648 238.424a.924.924 0 11-.924-.924.924.924 0 01.924.924" transform="translate(-67.373 -178.187)"/><path id="패스_297823" data-name="패스 297823" class="cls-5" d="M80.81 240.134a1.324 1.324 0 11-.937-.388 1.324 1.324 0 01.937.388" transform="translate(-58.933 -179.871)"/><path id="선_37780" data-name="선 37780" class="cls-27" transform="translate(3.122 49.074)" d="M0 3.172L.649 0"/><path id="패스_297824" data-name="패스 297824" class="cls-5" d="M11.235 201.727a1.039 1.039 0 01-.275 1.4 1.013 1.013 0 01-1.3-.574 1.039 1.039 0 01.275-1.4 1.013 1.013 0 011.3.574" transform="translate(-7.139 -150.855)"/><path id="패스_297825" data-name="패스 297825" class="cls-5" d="M14.78 194.99a.474.474 0 01-.125.674.5.5 0 01-.624-.275.475.475 0 01.125-.674.5.5 0 01.624.275" transform="translate(-10.46 -146.066)"/><path id="패스_297826" data-name="패스 297826" class="cls-7" d="M13.4 179.7h-.05a12.225 12.225 0 00-4.3 4.945l-.075.15a7.2 7.2 0 00-.4 2.947 5.064 5.064 0 001.473 2.7.225.225 0 00.4-.175 16.43 16.43 0 01-.025-4.57A23.978 23.978 0 0113.4 179.7z" transform="translate(-6.405 -134.822)"/><path id="패스_297827" data-name="패스 297827" class="cls-25" d="M62.186 235.59a.5.5 0 01-.05-.949l5.344-1.973c1.8-.649 4.6-1.8 5.419-2.123s1.5-.524 1.324.275a8.114 8.114 0 01-4.445 4.6 10.516 10.516 0 01-7.592.17z" transform="translate(-46.378 -172.755)"/><path id="선_37781" data-name="선 37781" class="cls-5" transform="translate(44.604 47.401)" d="M0 8.766L14.86 0"/><path id="선_37782" data-name="선 37782" class="cls-28" transform="translate(44.604 47.401)" d="M0 8.766L14.86 0"/><path id="패스_297828" data-name="패스 297828" class="cls-15" d="M65.232 145.727a53.02 53.02 0 01-10.364-4.62c-3.946-2.373-5.994-4.545-6.868-6.019a2.247 2.247 0 01.225-.35c.025-.025 2.373-2.373 4.345-4.1s6.968-6.194 7.842-6.843c.674.45 4.8 3.247 7.093 4.7 1.923 1.2 5.769 3.272 7.567 4.221a.749.749 0 01.275 1.1l-1 1.5q-2.5 3.871-5.17 7.617a7.343 7.343 0 01-3.946 2.8" transform="translate(-36.012 -92.882)"/><path id="패스_297829" data-name="패스 297829" class="cls-28" d="M59.912 124.4c.674.45 4.62 3.122 6.943 4.57 1.923 1.2 5.769 3.272 7.567 4.221a.749.749 0 01.275 1.1l-1 1.5q-2.5 3.871-5.17 7.617a7.342 7.342 0 01-3.971 2.772 53.02 53.02 0 01-10.364-4.62 21.058 21.058 0 01-7.093-6.343" transform="translate(-35.337 -93.332)"/><path id="패스_297830" data-name="패스 297830" d="M5.319 60.712a19.427 19.427 0 006.693 3.846" stroke="#fff" stroke-width="1.249" stroke-linecap="round" stroke-linejoin="round" fill="none"/><path id="패스_297831" data-name="패스 297831" d="M41.482 36.836s4.071-3.6 12.512-6.418" stroke-width=".833" stroke-linecap="round" stroke-linejoin="round" stroke="#222" fill="none"/><path id="패스_297832" data-name="패스 297832" d="M30.743 29.644s4.071-3.6 12.512-6.418" stroke-width=".833" stroke-linecap="round" stroke-linejoin="round" stroke="#222" fill="none"/><path id="패스_297833" data-name="패스 297833" class="cls-5" d="M156.943 103.472a3.272 3.272 0 11-3.272-3.272 3.272 3.272 0 013.272 3.272" transform="translate(-112.839 -75.176)"/><circle id="타원_4410" data-name="타원 4410" class="cls-7" cx="3.272" cy="3.272" r="3.272" transform="translate(37.561 25.024)"/><path id="패스_297834" data-name="패스 297834" class="cls-5" d="M152.738 120.169a5.869 5.869 0 11-5.869-5.869 5.869 5.869 0 015.869 5.869" transform="translate(-105.787 -85.755)"/><path id="패스_297835" data-name="패스 297835" class="cls-12" d="M152.738 120.169a5.869 5.869 0 11-5.869-5.869 5.869 5.869 0 015.869 5.869z" transform="translate(-105.787 -85.755)"/><path id="패스_297836" data-name="패스 297836" class="cls-5" d="M201.438 202.369a5.869 5.869 0 11-5.869-5.869 5.869 5.869 0 015.869 5.869" transform="translate(-142.324 -147.426)"/><path id="패스_297837" data-name="패스 297837" class="cls-12" d="M201.438 202.369a5.869 5.869 0 11-5.869-5.869 5.869 5.869 0 015.869 5.869z" transform="translate(-142.324 -147.426)"/><path id="패스_297838" data-name="패스 297838" class="cls-5" d="M170.238 147.769a5.869 5.869 0 11-5.869-5.869 5.869 5.869 0 015.869 5.869" transform="translate(-118.916 -106.462)"/><path id="패스_297839" data-name="패스 297839" class="cls-9" d="M170.238 147.769a5.869 5.869 0 11-5.869-5.869 5.869 5.869 0 015.869 5.869z" transform="translate(-118.916 -106.462)"/><path id="패스_297840" data-name="패스 297840" class="cls-5" d="M155.491 183.4a4.5 4.5 0 11-4.5-4.5 4.5 4.5 0 014.5 4.5" transform="translate(-109.913 -134.221)"/><circle id="타원_4411" data-name="타원 4411" class="cls-7" cx="4.495" cy="4.495" r="4.495" transform="translate(36.587 44.679)"/><path id="패스_297841" data-name="패스 297841" class="cls-5" d="M207.091 128.4a4.5 4.5 0 11-4.5-4.5 4.5 4.5 0 014.5 4.5" transform="translate(-148.626 -92.957)"/><path id="패스_297842" data-name="패스 297842" class="cls-9" d="M207.091 128.4a4.5 4.5 0 11-4.5-4.5 4.5 4.5 0 014.5 4.5z" transform="translate(-148.626 -92.957)"/><path id="패스_297843" data-name="패스 297843" class="cls-5" d="M204.291 148a4.5 4.5 0 11-4.5-4.5 4.5 4.5 0 014.5 4.5" transform="translate(-146.526 -107.662)"/><circle id="타원_4412" data-name="타원 4412" class="cls-7" cx="4.495" cy="4.495" r="4.495" transform="translate(48.749 35.838)"/><path id="패스_297844" data-name="패스 297844" class="cls-5" d="M189.174 263.507c1 .574.974 1.5 0 2.073a3.971 3.971 0 01-3.6 0c-1-.574-.974-1.5 0-2.073a3.971 3.971 0 013.6 0" transform="translate(-138.676 -197.376)"/><path id="패스_297845" data-name="패스 297845" d="M50.498 66.131c1 .574.974 1.5 0 2.073a3.971 3.971 0 01-3.6 0c-1-.574-.974-1.5 0-2.073a3.971 3.971 0 013.6 0z" stroke-width="1.249" stroke-miterlimit="10" stroke="#222" fill="none"/><path id="패스_297846" data-name="패스 297846" class="cls-5" d="M184.9 243.241V234.8h5.07v8.441" transform="translate(-138.723 -176.161)"/><path id="패스_297847" data-name="패스 297847" d="M46.177 67.08v-8.441h5.07v8.441" stroke-width="1.249" stroke-miterlimit="10" stroke="#222" fill="none"/><path id="패스_297848" data-name="패스 297848" class="cls-2" d="M179.233 85.4v34.989h-.125a4.2 4.2 0 01-2.323 2.972 12.354 12.354 0 01-11.188.025 4.093 4.093 0 01-2.3-2.972V85.5z" transform="translate(-122.517 -64.072)"/><path id="패스_297849" data-name="패스 297849" class="cls-12" d="M179.233 85.4v34.989h-.125a4.2 4.2 0 01-2.323 2.972 12.354 12.354 0 01-11.188.025 4.093 4.093 0 01-2.3-2.972V85.5z" transform="translate(-122.517 -64.072)"/><path id="패스_297850" data-name="패스 297850" class="cls-5" d="M163.3 224.975" transform="translate(-122.517 -168.658)"/><path id="패스_297851" data-name="패스 297851" d="M40.783 56.317h0z" stroke-width="1.249" stroke-miterlimit="10" stroke="#222" fill="none"/><path id="패스_297852" data-name="패스 297852" class="cls-5" d="M176.9 68.414c3.072 1.773 3.072 4.67-.025 6.468a12.354 12.354 0 01-11.188.025c-3.072-1.773-3.072-4.67.025-6.468a12.354 12.354 0 0111.188-.025" transform="translate(-122.583 -50.333)"/><path id="패스_297853" data-name="패스 297853" d="M54.317 18.081c3.072 1.773 3.072 4.67-.025 6.468a12.354 12.354 0 01-11.188.025c-3.072-1.773-3.072-4.67.025-6.468a12.354 12.354 0 0111.188-.025z" stroke-width="1.249" stroke-miterlimit="10" stroke="#222" fill="none"/><path id="패스_297854" data-name="패스 297854" class="cls-5" d="M185.371 76.39c1.623.949 1.623 2.472-.025 3.4a6.533 6.533 0 01-5.894 0c-1.623-.949-1.623-2.472.025-3.4a6.533 6.533 0 015.894 0" transform="translate(-133.724 -56.785)"/><path id="패스_297855" data-name="패스 297855" class="cls-12" d="M185.371 76.418c1.623.949 1.623 2.472-.025 3.4a6.533 6.533 0 01-5.894 0c-1.623-.949-1.623-2.472.025-3.4a6.612 6.612 0 015.894 0z" transform="translate(-133.724 -56.813)"/><path id="패스_297856" data-name="패스 297856" class="cls-5" d="M186.518 72.687c1.448.824 1.424 2.173-.025 3.022a5.666 5.666 0 01-5.22 0c-1.448-.849-1.424-2.173.025-3.022a5.666 5.666 0 015.22 0" transform="translate(-135.197 -54.056)"/><path id="패스_297857" data-name="패스 297857" d="M51.321 18.631c1.448.824 1.424 2.173-.025 3.022a5.666 5.666 0 01-5.22 0c-1.448-.849-1.424-2.173.025-3.022a5.666 5.666 0 015.22 0z" stroke-width="1.249" stroke-miterlimit="10" stroke="#222" fill="none"/><path id="패스_297858" data-name="패스 297858" class="cls-5" d="M178.924 78.3a2.805 2.805 0 00-.624 1.723" transform="translate(-133.771 -58.745)"/><path id="패스_297859" data-name="패스 297859" d="M45.153 19.555a2.805 2.805 0 00-.624 1.723" stroke-width="1.249" stroke-miterlimit="10" stroke="#222" fill="none"/><path id="패스_297860" data-name="패스 297860" class="cls-5" d="M209.3 78.3a2.8 2.8 0 01.624 1.723" transform="translate(-157.029 -58.745)"/><path id="패스_297861" data-name="패스 297861" d="M52.271 19.555a2.8 2.8 0 01.624 1.723" stroke-width="1.249" stroke-miterlimit="10" stroke="#222" fill="none"/><path id="패스_297862" data-name="패스 297862" class="cls-10" d="M163 130.2c-.025 1.2.749 2.4 2.323 3.322a12.409 12.409 0 0011.288-.025 3.974 3.974 0 002.348-3.3" transform="translate(-122.291 -97.684)"/><path id="패스_297863" data-name="패스 297863" class="cls-10" d="M163 179.9c-.025 1.2.749 2.4 2.323 3.322a12.409 12.409 0 0011.288-.025 3.974 3.974 0 002.348-3.3" transform="translate(-122.291 -134.972)"/></g></g></g></g></g></svg>