<svg xmlns="http://www.w3.org/2000/svg" xmlns:xlink="http://www.w3.org/1999/xlink" width="28" height="28" viewBox="0 0 28 28"><defs><style>.a,.f,.g{fill:none;}.b{clip-path:url(#a);}.c{opacity:0;}.d{fill:#f0f;}.e{fill:#ff8d8d;}.f,.g{stroke:#111;stroke-linejoin:round;stroke-width:1.5px;}.f{stroke-linecap:square;}.g{stroke-linecap:round;}</style><clipPath id="a"><rect class="a" width="28" height="28"/></clipPath></defs><g transform="translate(14 14)"><g class="b" transform="translate(-14 -14)"><g class="b"><g class="c"><g class="b"><rect class="d" width="28" height="28"/></g></g><path class="e" d="M10,1h3a3,3,0,0,1,0,6H10a3,3,0,1,1,0-6"/><path class="f" d="M9.5,2.2h2a2.5,2.5,0,1,1,0,5h-4A2.5,2.5,0,0,1,5.4,3.3"/><line class="g" x2="1.7" transform="translate(7.8 2.2)"/><rect class="g" width="20" height="5" transform="translate(4.5 9.7)"/><path class="g" d="M11,26.2v-5h8v5"/><path class="g" d="M24,15.2v11H5v-11"/><line class="g" y2="1.8" transform="translate(9.5 7.2)"/></g></g></g></svg>