<svg xmlns="http://www.w3.org/2000/svg" width="28" height="28"><defs><clipPath id="a"><path data-name="사각형 290766" fill="none" d="M0 0h28v28H0z"/></clipPath></defs><g data-name="그룹 380083" clip-path="url(#a)"><g data-name="그룹 380082" clip-path="url(#a)"><path data-name="패스 769928" d="M23.4 7.4a1.8 1.8 0 11-1.8 1.8 1.8 1.8 0 011.8-1.8z" fill="none" stroke="#111" stroke-width="1.5"/><path data-name="패스 769929" d="M21.6 9.2v13.9h-1.7a1.8 1.8 0 01-1.9-1.8V7.5a3.1 3.1 0 00-3-3.1H5.8a3.1 3.1 0 00-3.1 3.1h0v14.6A3.3 3.3 0 006 25.4h12.3" fill="none" stroke="#111" stroke-linejoin="round" stroke-width="1.5"/><path data-name="선 108655" fill="none" stroke="#111" stroke-linecap="round" stroke-width="1.5" d="M25.2 4.8L22.1 8"/><path data-name="선 108656" fill="none" stroke="#111" stroke-linecap="round" stroke-width="1.5" d="M11.1 15h1.5"/><path data-name="선 108657" fill="none" stroke="#111" stroke-width="1.5" d="M7 15h5.6"/><path data-name="패스 769930" d="M9 9h5a1 1 0 011 1v2a1 1 0 01-1 1H9a1 1 0 01-1-1v-2a1 1 0 011-1" fill="#ff8d8d"/><path data-name="패스 769931" d="M7 8.8h6a.3.3 0 01.3.3v3a.3.3 0 01-.2.3H7a.2.2 0 01-.2-.2V9a.2.2 0 01.2-.3z" fill="none" stroke="#111" stroke-width="1.5"/></g></g></svg>