<svg xmlns="http://www.w3.org/2000/svg" width="16" height="16" viewBox="0 0 16 16"><defs><style>.a{fill:#ed007b;opacity:0;}.b,.e{fill:none;}.b{stroke:#666;}.c{fill:#666;}.d{stroke:none;}</style></defs><rect class="a" width="16" height="16"/><g transform="translate(-0.047)"><g class="b" transform="translate(0.047)"><circle class="d" cx="8" cy="8" r="8"/><circle class="e" cx="8" cy="8" r="7.5"/></g></g><path class="c" d="M2.331-7.546a.646.646,0,0,1-.2.473.646.646,0,0,1-.473.2.628.628,0,0,1-.467-.2A.655.655,0,0,1,1-7.546a.655.655,0,0,1,.193-.473.628.628,0,0,1,.467-.2.649.649,0,0,1,.478.193A.649.649,0,0,1,2.331-7.546Zm.795,5.558V-1H.274v-.988h.881V-4.651H.274v-.994H2.267v3.657Z" transform="translate(6.226 12.218)"/></svg>