<svg xmlns="http://www.w3.org/2000/svg" xmlns:xlink="http://www.w3.org/1999/xlink" width="16" height="16" viewBox="0 0 16 16"><defs><style>.a,.c,.d,.g,.h{fill:none;}.b{clip-path:url(#a);}.c,.d{stroke:#666;}.c,.g{stroke-linecap:round;}.c,.d,.g,.h{stroke-miterlimit:10;stroke-width:1.5px;}.e{opacity:0;}.f{fill:#f0f;}.g,.h{stroke:#111;}</style><clipPath id="a"><rect class="a" width="16" height="16"/></clipPath></defs><g transform="translate(8 8)"><g class="b" transform="translate(-8 -8)"><path class="c" d="M7.6,4.9,2.8,9.7a2.8,2.8,0,0,0,3.9,3.9l4.5-4.5a1.1,1.1,0,0,0,0-1.5l-.4-.4a1.1,1.1,0,0,0-1.5,0l-4,4"/><path class="d" d="M13.2,7A2.8,2.8,0,0,0,9.3,3.1L7.6,4.9"/></g></g><g transform="translate(8 8)"><g class="b" transform="translate(-8 -8)"><g class="b"><g class="e"><g class="b"><rect class="f" width="16" height="16"/></g></g><path class="g" d="M7.6,4.9,2.8,9.7a2.8,2.8,0,0,0,3.9,3.9l4.5-4.5a1.1,1.1,0,0,0,0-1.5l-.4-.4a1.1,1.1,0,0,0-1.5,0l-4,4"/><path class="h" d="M13.2,7A2.8,2.8,0,0,0,9.3,3.1L7.6,4.9"/></g></g></g></svg>