<svg xmlns="http://www.w3.org/2000/svg" width="28" height="28"><defs><clipPath id="clip-path"><path id="사각형_239095" data-name="사각형 239095" fill="none" d="M0 0h28v28H0z"/></clipPath><style>.cls-10,.cls-8{fill:none}.cls-2{clip-path:url(#clip-path)}.cls-8{stroke:#111}.cls-10{stroke-miterlimit:10}.cls-10,.cls-8{stroke-width:1.5px}.cls-10{stroke:#000}</style></defs><g id="전화문의_28x28" transform="translate(14 14)"><g id="그룹_309246" data-name="그룹 309246" class="cls-2" transform="translate(-14 -14)"><path id="사각형_239091" data-name="사각형 239091" fill="#fddb2b" d="M0 0h28v28H0z"/><g id="그룹_309245" data-name="그룹 309245" class="cls-2"><path id="패스_638102" data-name="패스 638102" d="M26.6 14.9A10.8 10.8 0 1115.8 4.1a10.8 10.8 0 0110.8 10.8" fill="#fff"/><path id="패스_638103" data-name="패스 638103" d="M14.5 13a2.2 2.2 0 01-4.4 0" stroke-width="1.5" stroke-miterlimit="10" stroke-linecap="square" stroke="#111" fill="none"/><path id="선_87642" data-name="선 87642" class="cls-8" transform="translate(15.9 7.9)" d="M0 0v2.5"/><path id="선_87643" data-name="선 87643" class="cls-8" transform="translate(8.2 7.9)" d="M0 0v2.5"/><path id="패스_638104" data-name="패스 638104" d="M10.1 23.9a10.9 10.9 0 01-6.6-9.2 11.2 11.2 0 01.7-5.1 10.6 10.6 0 0113.9-6.1 11 11 0 016.6 11.2 11.2 11.2 0 01-.7 3 10.7 10.7 0 01-10 6.9s-2.4 0-2.8-3.7" stroke-linejoin="round" stroke-width="1.5" stroke="#111" fill="none"/><path id="패스_638105" data-name="패스 638105" class="cls-10" d="M3.6 15.2a2.8 2.8 0 110-5.6"/><path id="패스_638106" data-name="패스 638106" class="cls-10" d="M24.7 15.2a2.7 2.7 0 100-5.4"/><path id="패스_638107" data-name="패스 638107" class="cls-8" d="M13.5 18.7v2a1.25 1.25 0 11-2.5 0v-2a1.3 1.3 0 012.5 0z"/></g></g></g></svg>