<svg xmlns="http://www.w3.org/2000/svg" xmlns:xlink="http://www.w3.org/1999/xlink" width="20" height="20" viewBox="0 0 20 20"><defs><style>.a{fill:#d5d5d5;}.b,.g,.h,.i{fill:none;}.c{clip-path:url(#a);}.d{clip-path:url(#b);}.e{opacity:0;}.f{fill:red;}.g,.h,.i{stroke:#111;stroke-width:1.5px;}.g,.h{stroke-linecap:round;}.g{stroke-linejoin:round;}.h,.i{stroke-miterlimit:10;}</style><clipPath id="a"><rect class="a" width="20" height="20"/></clipPath><clipPath id="b"><rect class="b" width="20" height="20"/></clipPath></defs><g class="c"><g transform="translate(10 10)"><g class="d" transform="translate(-10 -10)"><g class="d"><g class="e"><g class="d"><rect class="f" width="20" height="20"/></g></g><path class="g" d="M14.4,5.5a6.6,6.6,0,0,0-12.5,3c0,4.4,5.9,9.5,5.9,9.5H9.3l.7-.7"/><path class="h" d="M8.5,11.6A2.9,2.9,0,1,1,11,7.2"/><path class="i" d="M18.1,12.3a3.7,3.7,0,1,0-5.6,3.1l1.9,2,1.9-2a3.7,3.7,0,0,0,1.8-3.1Z"/><line class="h" x2="0.5" transform="translate(14.6 12.2)"/><line class="i" x2="1" transform="translate(13.6 12.2)"/></g></g></g></g></svg>