<svg xmlns="http://www.w3.org/2000/svg" xmlns:xlink="http://www.w3.org/1999/xlink" width="100" height="100" viewBox="0 0 100 100">
  <defs>
    <clipPath id="clip-path">
      <rect id="사각형_59828" data-name="사각형 59828" width="100" height="100" transform="translate(138 80)" fill="#d5d5d5"/>
    </clipPath>
    <clipPath id="clip-path-2">
      <rect id="사각형_434368" data-name="사각형 434368" width="100" height="100" fill="none"/>
    </clipPath>
    <clipPath id="clip-path-5">
      <rect id="사각형_434363" data-name="사각형 434363" width="43.042" height="34.652" fill="none"/>
    </clipPath>
    <clipPath id="clip-path-6">
      <rect id="사각형_434366" data-name="사각형 434366" width="9.688" height="6.137" fill="none"/>
    </clipPath>
  </defs>
  <g id="마스크_그룹_270" data-name="마스크 그룹 270" transform="translate(-138 -80)" clip-path="url(#clip-path)">
    <g id="null_100x100" transform="translate(188 130)">
      <g id="그룹_586968" data-name="그룹 586968" transform="translate(-50 -50)" style="isolation: isolate">
        <g id="Layer_1" data-name="Layer 1">
          <g id="그룹_586967" data-name="그룹 586967" clip-path="url(#clip-path-2)">
            <g id="그룹_586961" data-name="그룹 586961" clip-path="url(#clip-path-2)">
              <path id="패스_1458076" data-name="패스 1458076" d="M50,0A50,50,0,1,1,0,50,50.013,50.013,0,0,1,50,0" fill="#f9f9f9"/>
              <path id="패스_1458077" data-name="패스 1458077" d="M50,100a50,50,0,1,1,50-50,50.066,50.066,0,0,1-50,50M50,1A49,49,0,1,0,99,50,49.053,49.053,0,0,0,50,1" fill="#f0f0f0"/>
            </g>
            <g id="그룹_586966" data-name="그룹 586966" clip-path="url(#clip-path-2)">
              <g id="그룹_586963" data-name="그룹 586963" transform="translate(43.708 42.188)" opacity="0.15">
                <g id="그룹_586962" data-name="그룹 586962" clip-path="url(#clip-path-5)">
                  <path id="패스_1458078" data-name="패스 1458078" d="M236.029,202.5l16.438,8.9a.729.729,0,0,1,.021,1.271l-42.688,24.5" transform="translate(-209.8 -202.5)"/>
                </g>
              </g>
              <path id="패스_1458079" data-name="패스 1458079" d="M137.046,215.7l4.188,2.1a.958.958,0,0,1,.333,1.479c-11.6,12.792-25.1,20.625-40.146,28.563l-9.583-5.521c2.229-1.292,1.958-3.542-.625-5.042s-6.5-1.646-8.729-.354L72.9,231.387l8.021-3.042" transform="translate(-57.713 -170.762)" fill="#fff"/>
              <path id="패스_1458080" data-name="패스 1458080" d="M137.046,215.7l4.188,2.1a.958.958,0,0,1,.333,1.479c-11.6,12.792-25.1,20.625-40.146,28.563l-9.583-5.521c2.229-1.292,1.958-3.542-.625-5.042s-6.5-1.646-8.729-.354L72.9,231.387l8.021-3.042" transform="translate(-57.713 -170.762)" fill="none" stroke="#222" stroke-linejoin="round" stroke-width="0.833"/>
              <path id="패스_1458081" data-name="패스 1458081" d="M140.712,148.425c-9.875,15.313-24.292,23.1-39.292,31.021l-9.583-5.521c2.229-1.292,1.958-3.542-.625-5.042s-6.479-1.646-8.729-.354L72.9,163.008c18.625-6.9,33.333-16.646,40.042-32.208l9.583,5.521.458.271c-.333,3.292-.042,6.625,3.188,7.167,1.479.25,3.833-1.271,4.854-2.542l.875.5,8.354,4.833a1.354,1.354,0,0,1,.458,1.9" transform="translate(-57.713 -103.55)" fill="#fff"/>
              <path id="패스_1458082" data-name="패스 1458082" d="M140.712,148.425c-9.875,15.313-24.292,23.1-39.292,31.021l-9.583-5.521c2.229-1.292,1.958-3.542-.625-5.042s-6.479-1.646-8.729-.354L72.9,163.008c18.625-6.9,33.333-16.646,40.042-32.208l9.583,5.521.458.271c-.333,3.292-.042,6.625,3.188,7.167,1.479.25,3.833-1.271,4.854-2.542l.875.5,8.354,4.833a1.354,1.354,0,0,1,.458,1.875Z" transform="translate(-57.713 -103.55)" fill="none" stroke="#222" stroke-linejoin="round" stroke-width="0.833"/>
              <line id="선_169492" data-name="선 169492" x2="26.792" y2="15.479" transform="translate(26.479 54.896)" fill="#fff"/>
              <rect id="사각형_434364" data-name="사각형 434364" width="0.625" height="0.833" transform="translate(26.309 55.168) rotate(-60)"/>
              <path id="패스_1458083" data-name="패스 1458083" d="M159.375,281.7l-1.5-.854.313-.542,1.5.854Zm-3-1.729-1.5-.854.313-.542,1.5.854Zm-2.979-1.729-1.5-.854.313-.542,1.5.854Zm-2.979-1.729-1.5-.854.313-.542,1.5.854Zm-2.979-1.729-1.5-.854.313-.542,1.5.854Zm-2.979-1.729-1.5-.854.313-.542,1.5.854Zm-2.979-1.729-1.5-.854.313-.542,1.5.854ZM138.5,269.6l-1.5-.854.313-.542,1.5.854Z" transform="translate(-108.458 -212.325)"/>
              <rect id="사각형_434365" data-name="사각형 434365" width="0.625" height="0.833" transform="translate(52.395 70.235) rotate(-60)"/>
              <path id="패스_1458084" data-name="패스 1458084" d="M236.619,233.557a9.749,9.749,0,0,0,3,.125,6.479,6.479,0,0,0,2.458-.771,3.487,3.487,0,0,0,1.542-1.5,2.312,2.312,0,0,0,.146-1.6l2.229,1.292a.646.646,0,0,1,.313.688,2.729,2.729,0,0,1-.437.979,5.272,5.272,0,0,1-1.708,1.4,9.458,9.458,0,0,1-2.792,1.042,13.458,13.458,0,0,1-3.229.271,14.52,14.52,0,0,1-3.354-.521,13.27,13.27,0,0,1-3.167-1.312,8.208,8.208,0,0,1-2.271-1.812,3.646,3.646,0,0,1-.9-1.937,2.875,2.875,0,0,1,.479-1.875,5.084,5.084,0,0,1,1.813-1.6,8.875,8.875,0,0,1,2.417-.979,11.127,11.127,0,0,1,1.792-.25,2.375,2.375,0,0,1,1.333.313l2,1.146a11.625,11.625,0,0,0-2.771.083,7.229,7.229,0,0,0-2.583.9,2.824,2.824,0,0,0-1.333,1.417,2,2,0,0,0,.188,1.729,4.937,4.937,0,0,0,1.9,1.708,9.229,9.229,0,0,0,2.938,1.083" transform="translate(-180.849 -178.266)" fill="#222"/>
              <path id="패스_1458085" data-name="패스 1458085" d="M209.608,107.892A10.87,10.87,0,1,1,198.754,97.6a10.578,10.578,0,0,1,10.854,10.292" transform="translate(-148.754 -77.267)" fill="#fff"/>
              <path id="패스_1458086" data-name="패스 1458086" d="M209.608,107.892A10.87,10.87,0,1,1,198.754,97.6,10.578,10.578,0,0,1,209.608,107.892Z" transform="translate(-148.754 -77.267)" fill="none" stroke="#000001" stroke-linejoin="round" stroke-width="0.833"/>
              <g id="그룹_586965" data-name="그룹 586965" transform="translate(45.812 44.083)" opacity="0.2">
                <g id="그룹_586964" data-name="그룹 586964" clip-path="url(#clip-path-6)">
                  <path id="패스_1458087" data-name="패스 1458087" d="M229.57,212.95c.5,1.4-1.208,3.313-3.833,4.25s-5.167.583-5.667-.833,1.208-3.312,3.833-4.25,5.167-.583,5.667.833" transform="translate(-219.966 -211.596)"/>
                </g>
              </g>
              <path id="패스_1458088" data-name="패스 1458088" d="M209.608,119.092A10.87,10.87,0,1,1,198.754,108.8a10.578,10.578,0,0,1,10.854,10.292" transform="translate(-148.754 -86.133)" fill="#3982f7"/>
              <path id="패스_1458089" data-name="패스 1458089" d="M209.608,119.092A10.87,10.87,0,1,1,198.754,108.8,10.578,10.578,0,0,1,209.608,119.092Z" transform="translate(-148.754 -86.133)" fill="none" stroke="#000001" stroke-linejoin="round" stroke-width="0.833"/>
              <path id="패스_1458090" data-name="패스 1458090" d="M238.485,172.367a.979.979,0,0,0-1.354,0,.958.958,0,1,0,1.354,0" transform="translate(-187.506 -136.242)" fill="#fff"/>
              <path id="패스_1458091" data-name="패스 1458091" d="M235.886,135.1a1.437,1.437,0,0,0-1.417,1.75l.438,4.021a.958.958,0,0,0,1.917,0l.438-4.021a1.438,1.438,0,0,0-1.4-1.75" transform="translate(-185.594 -106.954)" fill="#fff"/>
            </g>
          </g>
        </g>
      </g>
    </g>
  </g>
</svg>
