<svg xmlns="http://www.w3.org/2000/svg" width="48" height="54" viewBox="0 0 48 54">
  <g id="그룹_577354" data-name="그룹 577354" transform="translate(-36 -267)">
    <g id="사각형_427851" data-name="사각형 427851" transform="translate(36 267)" fill="red" stroke="red" stroke-width="1" opacity="0">
      <rect width="48" height="54" stroke="none"/>
      <rect x="0.5" y="0.5" width="47" height="53" fill="none"/>
    </g>
    <g id="그룹_577342" data-name="그룹 577342" transform="translate(0.5 81)">
      <g id="그룹_577333" data-name="그룹 577333" transform="translate(0 -2)">
        <path id="패스_1440296" data-name="패스 1440296" d="M322,411.576a6.321,6.321,0,0,0-3.117-5.454l-2.772-1.6-14.994-8.682a6.237,6.237,0,0,0-6.234,0l-13.45,7.788-4.315,2.5A6.234,6.234,0,0,0,274,411.577V415h0v15.423a6.215,6.215,0,0,0,.72,2.941c.036.068.063.141.1.208s.072.1.1.157a6.2,6.2,0,0,0,2.191,2.148l.517.3,17.249,9.986a6.232,6.232,0,0,0,6.234,0l14.072-8.147,3.693-2.139A6.231,6.231,0,0,0,322,430.423V427h0Z" transform="translate(-238.5 -206.002)" fill="#fff"/>
        <path id="패스_1440287" data-name="패스 1440287" d="M320,410.576a6.321,6.321,0,0,0-3.117-5.454l-2.772-1.6-12.994-8.586a6.237,6.237,0,0,0-6.234,0l-13.45,7.79-4.315,2.5A5.309,5.309,0,0,0,274,410.577V414h0v14.423a6.215,6.215,0,0,0,.72,2.941c.036.068.063.141.1.208s.072.1.1.157a6.2,6.2,0,0,0,2.191,2.148l.517.3,17.249,9.986c1.929,1.114,4.3-.886,6.234-2l12.072-6.147,3.693-2.139A6.231,6.231,0,0,0,320,428.423V425h0Z" transform="translate(-236.5 -204.002)" fill="#a5a5ff"/>
        <g id="패스_1440288" data-name="패스 1440288" transform="translate(-238.5 -206.002)" fill="none" stroke-linecap="round" stroke-linejoin="round" stroke-miterlimit="10">
          <path d="M322,411.576a6.321,6.321,0,0,0-3.117-5.454l-2.772-1.6-14.994-8.682a6.237,6.237,0,0,0-6.234,0l-13.45,7.788-4.315,2.5A6.234,6.234,0,0,0,274,411.577V415h0v15.423a6.215,6.215,0,0,0,.72,2.941c.036.068.063.141.1.208s.072.1.1.157a6.2,6.2,0,0,0,2.191,2.148l.517.3,17.249,9.986a6.232,6.232,0,0,0,6.234,0l14.072-8.147,3.693-2.139A6.231,6.231,0,0,0,322,430.423V427h0Z" stroke="none"/>
          <path d="M 298 396.2512512207031 C 297.1263122558594 396.2512512207031 296.2644958496094 396.4820251464844 295.5093688964844 396.9177551269531 L 282.0592651367188 404.7057800292969 L 277.7429504394531 407.2045593261719 C 276.1898498535156 408.1011657714844 275.2349853515625 409.7723083496094 275.2509460449219 411.5658569335938 C 275.2509765625 411.569580078125 275.2510070800781 411.5733032226563 275.2510070800781 411.5769958496094 L 275.2510070800781 415 C 275.2510070800781 415.0169677734375 275.2506713867188 415.0338439941406 275.25 415.0506591796875 L 275.25 430.4230041503906 C 275.25 430.4266052246094 275.2499694824219 430.43017578125 275.2499389648438 430.4337768554688 C 275.2430419921875 431.2362060546875 275.4420166015625 432.0475769042969 275.8254699707031 432.780517578125 C 275.8589477539063 432.8438720703125 275.8843383789063 432.8997497558594 275.9029541015625 432.9406433105469 C 275.9036560058594 432.9421997070313 275.9043579101563 432.9437561035156 275.9050598144531 432.9453125 C 275.9269409179688 432.9765625 275.9559020996094 433.0181579589844 275.9872741699219 433.0685424804688 C 275.989013671875 433.0713806152344 275.9907836914063 433.07421875 275.9925231933594 433.0770874023438 C 276.429931640625 433.7926940917969 277.0347595214844 434.386474609375 277.7443542480469 434.7958374023438 L 278.2602844238281 435.09521484375 L 295.5081176757813 445.0805358886719 C 296.2648010253906 445.5175170898438 297.12646484375 445.7485046386719 298 445.7485046386719 C 298.8735046386719 445.7485046386719 299.7351989746094 445.5175170898438 300.4906921386719 445.0812072753906 L 314.5625 436.934326171875 L 318.2574462890625 434.7942199707031 C 319.810302734375 433.8985595703125 320.7650146484375 432.2278747558594 320.7490539550781 430.4341430664063 C 320.7490234375 430.430419921875 320.7489929199219 430.4266967773438 320.7489929199219 430.4230041503906 L 320.7489929199219 427 C 320.7489929199219 426.9830322265625 320.7493286132813 426.9661560058594 320.75 426.9493408203125 L 320.75 411.5759887695313 C 320.75 411.5724182128906 320.7500305175781 411.56884765625 320.7500610351563 411.5652770996094 C 320.7585754394531 410.5690307617188 320.4608459472656 409.5934753417969 319.8890380859375 408.7439880371094 C 319.4526062011719 408.0956420898438 318.9037170410156 407.5776062011719 318.2569274902344 407.2039184570313 L 315.484619140625 405.5997314453125 L 300.4922790527344 396.918701171875 C 299.7355041503906 396.4820251464844 298.8736877441406 396.2512512207031 298 396.2512512207031 M 298 395.0012512207031 C 299.0762329101563 395.0012512207031 300.1524963378906 395.2794799804688 301.1170043945313 395.8359985351563 L 316.1109924316406 404.5180053710938 L 318.8829956054688 406.1220092773438 C 319.718994140625 406.6050109863281 320.4049987792969 407.2720031738281 320.9259948730469 408.0459899902344 C 321.6180114746094 409.0740051269531 322.010986328125 410.2950134277344 322 411.5759887695313 L 322 427 L 321.9989929199219 427 L 321.9989929199219 430.4230041503906 C 322.0190124511719 432.6700134277344 320.8290100097656 434.7539978027344 318.8819885253906 435.8770141601563 L 315.1889953613281 438.0159912109375 L 301.1170043945313 446.1629943847656 C 300.1524963378906 446.7200012207031 299.0762329101563 446.9985046386719 298 446.9985046386719 C 296.9237670898438 446.9985046386719 295.8475036621094 446.7200012207031 294.8829956054688 446.1629943847656 L 277.6340026855469 436.177001953125 L 277.1170043945313 435.8770141601563 C 276.2000122070313 435.3479919433594 275.4590148925781 434.6010131835938 274.9259948730469 433.72900390625 C 274.8930053710938 433.6759948730469 274.8529968261719 433.6260070800781 274.8210144042969 433.5719909667969 C 274.7829895019531 433.5050048828125 274.7560119628906 433.4320068359375 274.7200012207031 433.364013671875 C 274.2520141601563 432.4710083007813 273.9909973144531 431.4670104980469 274 430.4230041503906 L 274 415 L 274.0010070800781 415 L 274.0010070800781 411.5769958496094 C 273.9809875488281 409.3299865722656 275.1709899902344 407.2460021972656 277.1180114746094 406.1220092773438 L 281.4330139160156 403.6239929199219 L 294.8829956054688 395.8359985351563 C 295.8475036621094 395.2794799804688 296.9237670898438 395.0012512207031 298 395.0012512207031 Z" stroke="none" fill="#7c78ff"/>
        </g>
      </g>
    </g>
    <g id="그룹_577345" data-name="그룹 577345" transform="translate(48.6 278.631)">
      <g id="그룹_577334" data-name="그룹 577334" transform="translate(0 0)">
        <path id="패스_694100" data-name="패스 694100" d="M25.162,15.4A11.46,11.46,0,1,1,13.8,26.958v-.2A11.46,11.46,0,0,1,25.162,15.4" transform="translate(-13.555 -10.141)" fill="#fff"/>
        <path id="패스_694101" data-name="패스 694101" d="M14.5,22.136A11.17,11.17,0,0,1,16.655,19.1" transform="translate(-13.569 -10.217)" fill="none" stroke="#111" stroke-linecap="square" stroke-linejoin="round" stroke-width="1.55"/>
        <path id="패스_694102" data-name="패스 694102" d="M16.538,12.3s0,4.408,2.743,4.408h.2A11.459,11.459,0,1,1,14.578,22" transform="translate(-13.549 -10.078)" fill="none" stroke="#111" stroke-linecap="round" stroke-linejoin="round" stroke-width="1.55"/>
        <path id="패스_694103" data-name="패스 694103" d="M20.4,13.2s-.686,2.547.882,2.841" transform="translate(-13.687 -10.096)" fill="none" stroke="#111" stroke-linecap="round" stroke-linejoin="round" stroke-width="1.55"/>
        <path id="패스_694104" data-name="패스 694104" d="M25.408,28.4A2.253,2.253,0,0,1,21,28.4" transform="translate(-13.702 -10.408)" fill="none" stroke="#111" stroke-linecap="square" stroke-miterlimit="10" stroke-width="1.55"/>
        <line id="선_92998" data-name="선 92998" y2="1.959" transform="translate(12.979 11.919)" fill="none" stroke="#111" stroke-width="1.55"/>
        <line id="선_92999" data-name="선 92999" y2="1.763" transform="translate(6.22 11.919)" fill="none" stroke="#111" stroke-width="1.55"/>
        <path id="패스_694105" data-name="패스 694105" d="M38.775,15.154,35.6,19.569,28,14.712l2.561-4.681,1.148,3.179,3.709-1.59.176,4.063Z" transform="translate(-13.846 -10.031)" fill="#fff"/>
        <path id="패스_694106" data-name="패스 694106" d="M38.775,15.154,35.6,19.569,28,14.712l2.561-4.681,1.148,3.179,3.709-1.59.176,4.063Z" transform="translate(-13.846 -10.031)" fill="none" stroke="#111" stroke-linejoin="round" stroke-width="1.55"/>
        <line id="선_93000" data-name="선 93000" y2="0.49" transform="translate(12.979 13.878)" fill="none" stroke="#111" stroke-linecap="round" stroke-width="1.55"/>
        <line id="선_93001" data-name="선 93001" y2="0.686" transform="translate(6.22 13.682)" fill="none" stroke="#111" stroke-linecap="round" stroke-width="1.55"/>
      </g>
    </g>
  </g>
</svg>
