<svg xmlns="http://www.w3.org/2000/svg" xmlns:xlink="http://www.w3.org/1999/xlink" width="38" height="38" viewBox="0 0 38 38">
  <defs>
    <filter id="타원_2356" x="0" y="0" width="38" height="38" filterUnits="userSpaceOnUse">
      <feOffset dy="3" input="SourceAlpha"/>
      <feGaussianBlur stdDeviation="3" result="blur"/>
      <feFlood flood-opacity="0.161"/>
      <feComposite operator="in" in2="blur"/>
      <feComposite in="SourceGraphic"/>
    </filter>
    <clipPath id="clip-path">
      <rect id="사각형_155888" data-name="사각형 155888" width="12" height="12" fill="none"/>
    </clipPath>
  </defs>
  <g id="그룹_204331" data-name="그룹 204331" transform="translate(-299 -320)">
    <g transform="matrix(1, 0, 0, 1, 299, 320)" filter="url(#타원_2356)">
      <circle id="타원_2356-2" data-name="타원 2356" cx="10" cy="10" r="10" transform="translate(9 6)" fill="#111"/>
    </g>
    <g id="icon_plus_12" transform="translate(312 330)">
      <g id="__black_12x12" data-name="+_black_12x12" transform="translate(6 6)">
        <g id="그룹_198703" data-name="그룹 198703" transform="translate(-6 -6)" clip-path="url(#clip-path)">
          <g id="그룹_198702" data-name="그룹 198702" clip-path="url(#clip-path)">
            <g id="그룹_198701" data-name="그룹 198701" opacity="0">
              <g id="그룹_198700" data-name="그룹 198700" clip-path="url(#clip-path)">
                <rect id="사각형_155885" data-name="사각형 155885" width="12" height="12" fill="#ff00e7"/>
              </g>
            </g>
            <path id="패스_406640" data-name="패스 406640" d="M5.4,1.6H6.9V9.9a.8.8,0,0,1-.8.8h0a.8.8,0,0,1-.8-.8Z" fill="#3673ee"/>
            <path id="패스_406641" data-name="패스 406641" d="M10.7,6.1h0a.8.8,0,0,1-.8.8H1.6V5.4H9.9a.8.8,0,0,1,.8.8" fill="#3673ee"/>
          </g>
        </g>
      </g>
    </g>
  </g>
</svg>
