<svg xmlns="http://www.w3.org/2000/svg" xmlns:xlink="http://www.w3.org/1999/xlink" width="24" height="24" viewBox="0 0 24 24"><defs><style>.a{fill:none;}.b{clip-path:url(#a);}.c{opacity:0;}.d{fill:#ff00f3;}.e{fill:#111;}</style><clipPath id="a"><rect class="a" width="24" height="24"/></clipPath></defs><g transform="translate(12 12)"><g class="b" transform="translate(-12 -12)"><g class="b"><g class="c"><g class="b"><rect class="d" width="24" height="24"/></g></g></g><g class="b"><path class="e" d="M21,.8H4a.8.8,0,0,0-.7.8V15.8H2a.8.8,0,0,0-.7.8v1c0,5.7,3.7,5.8,3.8,5.8h8a.711.711,0,0,0,.6-1.2l-.5-.2H5c-.1,0-2.3-.1-2.3-4.2v-.2H14.3v.3A6.5,6.5,0,0,0,15.6,22,3.5,3.5,0,0,0,18,23.3a3.8,3.8,0,0,0,3.8-3.7V1.5A.8.8,0,0,0,21,.8m-.7,18.8A2.3,2.3,0,0,1,18,21.8c-.1,0-2.3-.1-2.3-4.2v-1a.8.8,0,0,0-.7-.7H4.8V2.3H20.3Z"/><path class="e" d="M13.8,5a.8.8,0,0,1-.7.8H7V4.3h6a.8.8,0,0,1,.8.8"/><path class="e" d="M13.8,8a.8.8,0,0,1-.7.8H7V7.3h6a.8.8,0,0,1,.8.8"/><path class="e" d="M11.8,11a.8.8,0,0,1-.7.8H7V10.3h4a.8.8,0,0,1,.8.8"/></g></g></g></svg>