<svg xmlns="http://www.w3.org/2000/svg" width="47" height="47" viewBox="0 0 47 47">
  <g id="그룹_573765" data-name="그룹 573765" transform="translate(-206 -1165)">
    <circle id="타원_13245" data-name="타원 13245" cx="23.5" cy="23.5" r="23.5" transform="translate(206 1165)" fill="rgba(54,115,238,0.1)"/>
    <g id="그룹_572050" data-name="그룹 572050" transform="translate(-1)">
      <path id="합치기_231" data-name="합치기 231" d="M-14043.055-5963.864c-.017-.014-.032-.028-.047-.043l-3.534-3.537-4.947-4.948a2,2,0,0,1,0-2.828l2.119-2.123a2,2,0,0,1,2.828,0l4.242,4.243,8.486-8.486a2,2,0,0,1,2.828,0l2.119,2.123a2,2,0,0,1,0,2.828l-12.724,12.728-.047.043-.662.662Z" transform="translate(14272.723 7163.479)" fill="#fff"/>
      <g id="합치기_230" data-name="합치기 230" transform="translate(14270.723 7161.479)" fill="none">
        <path d="M-14043.055-5963.864c-.017-.014-.032-.028-.047-.043l-3.534-3.537-4.947-4.948a2,2,0,0,1,0-2.828l2.119-2.123a2,2,0,0,1,2.828,0l4.242,4.243,8.486-8.486a2,2,0,0,1,2.828,0l2.119,2.123a2,2,0,0,1,0,2.828l-12.724,12.728-.047.043-.662.662Z" stroke="none"/>
        <path d="M -14042.392578125 -5965.3193359375 L -14030.0205078125 -5977.69580078125 C -14029.8916015625 -5977.82421875 -14029.8720703125 -5977.97314453125 -14029.8720703125 -5978.05078125 C -14029.873046875 -5978.14404296875 -14029.8984375 -5978.2802734375 -14030.017578125 -5978.3994140625 L -14030.01953125 -5978.4013671875 L -14030.021484375 -5978.4033203125 L -14032.1376953125 -5980.5234375 C -14032.2666015625 -5980.6513671875 -14032.4169921875 -5980.67041015625 -14032.494140625 -5980.67041015625 C -14032.572265625 -5980.67041015625 -14032.720703125 -5980.6513671875 -14032.8466796875 -5980.525390625 L -14041.3330078125 -5972.03955078125 L -14042.3935546875 -5970.978515625 L -14043.4541015625 -5972.03955078125 L -14047.6943359375 -5976.28076171875 C -14047.8232421875 -5976.4091796875 -14047.97265625 -5976.42822265625 -14048.05078125 -5976.42822265625 C -14048.1279296875 -5976.42822265625 -14048.2763671875 -5976.4091796875 -14048.40234375 -5976.28369140625 L -14050.521484375 -5974.16064453125 L -14050.5234375 -5974.15869140625 L -14050.525390625 -5974.15673828125 C -14050.64453125 -5974.03759765625 -14050.669921875 -5973.9013671875 -14050.6708984375 -5973.80810546875 C -14050.6708984375 -5973.73046875 -14050.6513671875 -5973.58154296875 -14050.5224609375 -5973.45263671875 L -14045.57421875 -5968.50390625 L -14042.392578125 -5965.3193359375 M -14042.392578125 -5963.20166015625 L -14043.0546875 -5963.86376953125 C -14043.0712890625 -5963.8779296875 -14043.0869140625 -5963.89208984375 -14043.1015625 -5963.90673828125 L -14046.6357421875 -5967.44384765625 L -14051.5830078125 -5972.39208984375 C -14052.3662109375 -5973.1748046875 -14052.3662109375 -5974.44091796875 -14051.5830078125 -5975.22021484375 L -14049.4638671875 -5977.34326171875 C -14049.07421875 -5977.73291015625 -14048.5625 -5977.92822265625 -14048.05078125 -5977.92822265625 C -14047.5390625 -5977.92822265625 -14047.0263671875 -5977.73291015625 -14046.6357421875 -5977.34326171875 L -14042.3935546875 -5973.10009765625 L -14033.9072265625 -5981.5859375 C -14033.517578125 -5981.9755859375 -14033.005859375 -5982.17041015625 -14032.494140625 -5982.17041015625 C -14031.982421875 -5982.17041015625 -14031.470703125 -5981.9755859375 -14031.0791015625 -5981.5859375 L -14028.9599609375 -5979.462890625 C -14028.1767578125 -5978.68359375 -14028.1767578125 -5977.41748046875 -14028.9599609375 -5976.634765625 L -14041.68359375 -5963.90673828125 C -14041.69921875 -5963.8916015625 -14041.71484375 -5963.87744140625 -14041.73046875 -5963.86376953125 L -14042.392578125 -5963.20166015625 Z" stroke="none" fill="#3673ee"/>
      </g>
      <path id="패스_1428263" data-name="패스 1428263" d="M-.476,0H2.858V2.424H-.476Z" transform="translate(228.64 1195.816) rotate(-45)" fill="#fff"/>
    </g>
  </g>
</svg>
