<svg xmlns="http://www.w3.org/2000/svg" width="100" height="100"><defs><clipPath id="a"><path data-name="사각형 59828" transform="translate(138 80)" fill="#d5d5d5" d="M0 0h100v100H0z"/></clipPath><clipPath id="b"><path data-name="사각형 248649" fill="none" d="M0 0h100v100H0z"/></clipPath><clipPath id="c"><path data-name="사각형 248646" fill="none" d="M0 0h3413.125v3413.125H0z"/></clipPath><clipPath id="d"><path data-name="사각형 248647" fill="none" d="M0 0h10.104v5.412H0z"/></clipPath></defs><g data-name="마스크 그룹 271" transform="translate(-138 -80)" clip-path="url(#a)"><g data-name="그룹 329096"><g data-name="Layer 1"><g data-name="그룹 329095" clip-path="url(#b)" transform="translate(138 80)"><g data-name="그룹 329089" clip-path="url(#b)"><path data-name="패스 658629" d="M50 0A50 50 0 110 50 50.013 50.013 0 0150 0" fill="#f9f9f9"/><path data-name="패스 658630" d="M50 100a50 50 0 1150-50 50.066 50.066 0 01-50 50m0-99a49 49 0 1049 49A49.053 49.053 0 0050 1" fill="#f0f0f0"/></g><g data-name="그룹 329094" clip-path="url(#b)"><g data-name="그룹 329091"><g data-name="그룹 329090" clip-path="url(#c)" fill="#222" transform="translate(-1646.167 -1640.604)" opacity=".15"><path data-name="패스 658631" d="M1679.959 1688.854v6.208l-6.271 3.667c-3.417 1.979-5.4 4.9-5.4 8.021s1.979 6.083 5.438 8.083a22.505 22.505 0 0011.042 2.688 22.193 22.193 0 0010.938-2.646l3.9-2.292 3.165-2.329 2.833 1.625a1.437 1.437 0 001.438 0l15.229-8.792c2.208-1.271 3.313-2.9 3.271-4.437v-7.708zm18.188 18.75a.292.292 0 01-.1-.1l-.771-.438-4.5 2.688c-4.333 2.5-11.687 2.479-16.062-.042-1.562-.9-2.479-2-2.479-2.958s.917-2.021 2.438-2.9l7.417-4.333.063-.042 13.125 7.583 1.333-.792c.354-.187-.771.792-.562 1.229l.125.083.208.125-.229-.083"/><path data-name="패스 658632" d="M1698.021 1707.5l-.771-.437 1.333-.792c.333-.187-.771.792-.562 1.229"/></g></g><path data-name="패스 658633" d="M79.183 49.063v7.708c.042 1.542-1.083 3.167-3.271 4.438L60.683 70a1.438 1.438 0 01-1.437 0L33.583 55.208V47" fill="#e2e2e2"/><path data-name="패스 658634" d="M79.183 49.063v7.708c.042 1.542-1.083 3.167-3.271 4.438L60.683 70a1.438 1.438 0 01-1.437 0L33.583 55.208V47" fill="none" stroke="#222" stroke-linecap="round" stroke-miterlimit="10" stroke-width=".833"/><path data-name="패스 658635" d="M62.521 37.229l14.354 8.293c3.438 1.979 3 5.438-.958 7.729l-15.229 8.792a1.438 1.438 0 01-1.437 0L33.772 47.356a.4.4 0 010-.687l15.357-8.857c3.958-2.292 9.958-2.542 13.4-.562" fill="#fff"/><path data-name="패스 658636" d="M62.521 37.229l14.354 8.292c3.438 1.979 3 5.438-.958 7.729l-15.229 8.792a1.438 1.438 0 01-1.437 0l-25.48-14.688a.4.4 0 010-.687l15.354-8.854c3.958-2.313 9.958-2.563 13.396-.584z" fill="none" stroke="#222" stroke-linecap="round" stroke-miterlimit="10" stroke-width=".833"/><path data-name="패스 658637" d="M61.75 47.479l-2.1.9-2.146-1.25-2.792 2.333a4.229 4.229 0 00-2.146.5 2.083 2.083 0 00-.583.458c-.979-.708-.917-1.75.229-2.417a4.521 4.521 0 012.292-.521L57.458 45z" fill="#e2e2e2"/><path data-name="패스 658638" d="M61.75 47.479l-2.1.9-2.146-1.25-2.792 2.333a4.229 4.229 0 00-2.146.5 2.083 2.083 0 00-.583.458c-.979-.708-.917-1.75.229-2.417a4.521 4.521 0 012.292-.521L57.458 45z" fill="none" stroke="#222" stroke-linecap="square" stroke-linejoin="round" stroke-width=".833"/><path data-name="패스 658639" d="M59.646 48.375l-2.083.875a1.188 1.188 0 01-.271.792l-.083.1a2.312 2.312 0 01-.562.438 4.9 4.9 0 01-4.437 0l-.229-.146a2.083 2.083 0 01.583-.458 4.229 4.229 0 012.146-.5l2.792-2.354z" fill="#222"/><path data-name="패스 658640" d="M59.646 48.375l-2.083.875a1.188 1.188 0 01-.271.792l-.083.1a2.312 2.312 0 01-.562.438 4.9 4.9 0 01-4.437 0l-.229-.146a2.083 2.083 0 01.583-.458 4.229 4.229 0 012.146-.5l2.792-2.354z" fill="none" stroke="#222" stroke-linecap="square" stroke-linejoin="round" stroke-width=".833"/><path data-name="패스 658641" d="M76.896 48.542c0 .75-.979 1.375-2.187 1.375s-2.187-.6-2.187-1.375.979-1.375 2.188-1.375 2.186.625 2.186 1.375z" fill="none" stroke="#222" stroke-linecap="round" stroke-miterlimit="10" stroke-width=".833"/><path data-name="패스 658642" d="M76.896 47.958c0 .75-.979 1.375-2.187 1.375s-2.187-.6-2.187-1.375.979-1.375 2.188-1.375 2.188.6 2.188 1.375" fill="#fff"/><path data-name="패스 658643" d="M76.896 47.958c0 .75-.979 1.375-2.187 1.375s-2.187-.6-2.187-1.375.979-1.375 2.188-1.375 2.186.6 2.186 1.375z" fill="none" stroke="#222" stroke-linecap="round" stroke-miterlimit="10" stroke-width=".833"/><path data-name="패스 658644" d="M58.771 38.542c0 .75-.979 1.375-2.187 1.375s-2.187-.6-2.187-1.375.979-1.375 2.188-1.375 2.186.625 2.186 1.375z" fill="none" stroke="#222" stroke-linecap="round" stroke-miterlimit="10" stroke-width=".833"/><path data-name="패스 658645" d="M58.771 37.937c0 .75-.979 1.375-2.187 1.375s-2.187-.6-2.187-1.375.979-1.375 2.188-1.375 2.188.6 2.188 1.375" fill="#fff"/><path data-name="패스 658646" d="M58.771 37.937c0 .75-.979 1.375-2.187 1.375s-2.187-.6-2.187-1.375.979-1.375 2.188-1.375 2.186.625 2.186 1.375z" fill="none" stroke="#222" stroke-linecap="round" stroke-miterlimit="10" stroke-width=".833"/><path data-name="패스 658647" d="M60.959 30.271v-3.042c0-5.729-4.9-10.375-10.958-10.375S39.042 21.5 39.042 27.229v3.042" fill="#fff"/><path data-name="패스 658648" d="M60.959 30.271v-3.042c0-5.729-4.9-10.375-10.958-10.375S39.042 21.5 39.042 27.229v3.042" fill="none" stroke="#000001" stroke-linejoin="round" stroke-width=".833"/><path data-name="패스 658649" d="M60.959 29.583c0 5.729-4.9 10.375-10.958 10.375s-10.959-4.65-10.959-10.375S43.959 19.208 50 19.208s10.958 4.646 10.958 10.375" fill="#45d49a"/><path data-name="패스 658650" d="M60.959 29.583c0 5.729-4.9 10.375-10.958 10.375s-10.959-4.65-10.959-10.375S43.959 19.208 50 19.208s10.959 4.646 10.959 10.375z" fill="none" stroke="#000001" stroke-linejoin="round" stroke-width=".833"/><path data-name="패스 658651" d="M47.042 29.687l2.563 2.521 5.229-5.229" fill="none" stroke="#fff" stroke-linecap="round" stroke-linejoin="round" stroke-width="1.667"/><path data-name="선 89594" fill="none" stroke="#fff" stroke-linecap="square" stroke-linejoin="round" stroke-width="1.667" d="M46.313 28.979l.729.708"/><g data-name="그룹 329093"><g data-name="그룹 329092" clip-path="url(#d)" transform="translate(44.958 42.354)" opacity=".2"><path data-name="패스 658652" d="M10.083 2.708c0 1.5-2.271 2.708-5.042 2.708S-.001 4.208-.001 2.708 2.27 0 5.041 0s5.042 1.208 5.042 2.708"/></g></g><path data-name="패스 658653" d="M58.771 65.833a2.146 2.146 0 01-.937 2.021 2.267 2.267 0 01-2.229-.229 6.964 6.964 0 01-3.167-5.458c0-2 1.167-2.646 2.708-2.021l.458.229a6.964 6.964 0 013.167 5.458" fill="#e2e2e2"/><path data-name="패스 658654" d="M58.771 65.833a2.146 2.146 0 01-.937 2.021 2.267 2.267 0 01-2.229-.229 6.964 6.964 0 01-3.167-5.458c0-2 1.167-2.646 2.708-2.021l.458.229a6.932 6.932 0 013.167 5.458z" fill="none" stroke="#222" stroke-linecap="square" stroke-linejoin="round" stroke-width=".833"/><path data-name="패스 658655" d="M39.895 55a2.146 2.146 0 01-.937 2.021 2.265 2.265 0 01-2.229-.229 6.964 6.964 0 01-3.167-5.458c0-2 1.167-2.646 2.708-2.021l.458.229A6.964 6.964 0 0139.895 55" fill="#e2e2e2"/><path data-name="패스 658656" d="M39.895 55a2.146 2.146 0 01-.937 2.021 2.265 2.265 0 01-2.229-.229 6.964 6.964 0 01-3.167-5.458c0-2 1.167-2.646 2.708-2.021l.458.229A7 7 0 0139.895 55z" fill="none" stroke="#222" stroke-linecap="square" stroke-linejoin="round" stroke-width=".833"/><path data-name="패스 658657" d="M35.208 50.583a1.508 1.508 0 011.479.167 4.61 4.61 0 012.1 3.625 1.436 1.436 0 01-.562 1.313h-.042l-.125.083-7.437 4.354c-1.521.875-2.437 1.958-2.437 2.9s.938 2.063 2.479 2.958c4.375 2.521 11.729 2.542 16.062.042l7.292-4.521a1.508 1.508 0 011.479.167 4.61 4.61 0 012.1 3.625 1.436 1.436 0 01-.562 1.313h-.042L49.7 71.13a22.249 22.249 0 01-10.929 2.637 22.562 22.562 0 01-11.042-2.687c-3.458-2-5.458-4.937-5.458-8.083s1.958-6.042 5.4-8.021l7.417-4.333z" fill="#222"/></g></g></g></g></g></svg>