<svg xmlns="http://www.w3.org/2000/svg" xmlns:xlink="http://www.w3.org/1999/xlink" width="65" height="70" viewBox="0 0 65 70">
  <defs>
    <clipPath id="clip-path">
      <rect id="사각형_358967" data-name="사각형 358967" width="65" height="70" fill="none"/>
    </clipPath>
    <clipPath id="clip-path-3">
      <rect id="사각형_358965" data-name="사각형 358965" width="42.9" height="7.29" transform="translate(16.3 58.4)" fill="none"/>
    </clipPath>
    <clipPath id="clip-path-4">
      <rect id="사각형_358964" data-name="사각형 358964" width="42.9" height="7.27" transform="translate(16.3 58.4)" fill="none"/>
    </clipPath>
  </defs>
  <g id="사용금액_65x45" transform="translate(32.5 35)">
    <g id="그룹_484344" data-name="그룹 484344" transform="translate(-32.5 -35)" clip-path="url(#clip-path)">
      <g id="그룹_484343" data-name="그룹 484343" clip-path="url(#clip-path)">
        <path id="패스_889224" data-name="패스 889224" d="M39.6,49.1a35.5,35.5,0,0,1-10.5,3.6,6.1,6.1,0,0,1-4.1-.8C15.1,46,8.5,42.4,6,41a.5.5,0,0,1,.1-.9,70.2,70.2,0,0,0,10.5-3.8Z" fill="#f9e785"/>
        <path id="패스_889225" data-name="패스 889225" d="M58.9,17.5S57.2,39.6,39.6,49.1l-23-12.8c7.8-3.6,17-9.6,18.5-18.8a1,1,0,0,1,1.2-.8c15.6,3.5,22.6.7,22.6.7" fill="#fddb2b"/>
        <path id="패스_889226" data-name="패스 889226" d="M4.1,42.2s29.7-7,31.3-24.7c16.8,4.1,24.5,1,24.5,1S57.4,51.6,26.7,55.2C12.3,46.5,4.1,42.2,4.1,42.2Z" fill="none" stroke="#333" stroke-linecap="round" stroke-linejoin="round" stroke-width="1.5"/>
        <path id="패스_889227" data-name="패스 889227" d="M36,32.7,33.2,36,32,37.3l-.3.4.5-.3.6-.4,1.1-.6,4.7-2.6,1.6.7-2.8,3.4-1.2,1.4-.2.2,2.2-1.3,4.7-2.6,1.5.6L36,40.6a2,2,0,0,1-1.8.2q-.8-.3-.3-1L36,37.2l.2-.2.2-.3.5-.6.2-.2.2-.2-1.7,1-.3.2-3.6,1.9a2,2,0,0,1-1.8.2.8.8,0,0,1-.5-.4c-.1-.2,0-.3.2-.6l4.8-6Z" fill="#111"/>
        <line id="선_136813" data-name="선 136813" x2="11.3" y2="4.5" transform="translate(30.5 34.2)" fill="none" stroke="#111" stroke-linecap="round" stroke-width="1.5"/>
        <circle id="타원_11407" data-name="타원 11407" cx="1.5" cy="1.5" r="1.5" transform="translate(8.1 29.1)" fill="none" stroke="#111" stroke-miterlimit="10" stroke-width="1.5"/>
        <line id="선_136814" data-name="선 136814" x1="2.8" y1="2.8" transform="translate(19.5 6.4)" fill="none" stroke="#111" stroke-linecap="round" stroke-linejoin="round" stroke-width="1.5"/>
        <line id="선_136815" data-name="선 136815" y1="2.8" x2="2.8" transform="translate(19.5 6.4)" fill="none" stroke="#111" stroke-linecap="round" stroke-linejoin="round" stroke-width="1.5"/>
        <line id="선_136816" data-name="선 136816" x1="2.2" y1="2.2" transform="translate(53 9.7)" fill="none" stroke="#111" stroke-linecap="round" stroke-linejoin="round" stroke-width="1.5"/>
        <line id="선_136817" data-name="선 136817" y1="2.2" x2="2.2" transform="translate(53 9.7)" fill="none" stroke="#111" stroke-linecap="round" stroke-linejoin="round" stroke-width="1.5"/>
        <path id="패스_889228" data-name="패스 889228" d="M29.1,11.1a1,1,0,1,1-1,1,1,1,0,0,1,1-1" fill="#111"/>
        <path id="패스_889229" data-name="패스 889229" d="M8.7,7.9a1,1,0,1,1-1,1,1,1,0,0,1,1-1" fill="#111"/>
        <path id="패스_889230" data-name="패스 889230" d="M45.1,4.7a1,1,0,1,1-1,1,1,1,0,0,1,1-1" fill="#111"/>
        <g id="그룹_484342" data-name="그룹 484342" opacity="0.67">
          <g id="그룹_484341" data-name="그룹 484341" clip-path="url(#clip-path-3)">
            <g id="그룹_484340" data-name="그룹 484340" clip-path="url(#clip-path-4)">
              <path id="패스_889231" data-name="패스 889231" d="M16.4,61.2l10.8,3.4a20.8,20.8,0,0,0,8.5.9L58.9,63a.3.3,0,0,0,0-.6l-16-3.6a17.7,17.7,0,0,0-5.9-.3L16.5,60.8a.2.2,0,0,0-.2.2v.2Z" fill="#d2d9ce"/>
            </g>
          </g>
        </g>
        <path id="패스_889232" data-name="패스 889232" d="M35.8,46.5l-1.3.8-2-1.1,1.3-.8Zm-3.9-2.2-1.3.8-2-1.1,1.3-.8ZM28,42.1l-1.3.8-2-1.1L26,41Zm-4-2.2-1.3.8-2-1.1,1.3-.8Z" fill="#111"/>
      </g>
    </g>
  </g>
</svg>
