<svg xmlns="http://www.w3.org/2000/svg" xmlns:xlink="http://www.w3.org/1999/xlink" width="40" height="40" viewBox="0 0 40 40">
  <defs>
    <clipPath id="clip-path">
      <rect id="사각형_259388" data-name="사각형 259388" width="40" height="40" fill="none"/>
    </clipPath>
  </defs>
  <g id="illust_member_" transform="translate(20 20)">
    <g id="그룹_347095" data-name="그룹 347095" transform="translate(-20 -20)" clip-path="url(#clip-path)">
      <path id="패스_698348" data-name="패스 698348" d="M3.8,4V26.4a4,4,0,0,0,2,3.5l11.4,6.6a4,4,0,0,0,4,0l11.4-6.6a4,4,0,0,0,2-3.5V4Z" fill="#fff"/>
      <path id="패스_698349" data-name="패스 698349" d="M5.1,6.2V26.7a4,4,0,0,0,2,3.4l11.4,6.5a4,4,0,0,0,4,0L34,30.1a4,4,0,0,0,2-3.4V6.2a.9.9,0,0,0-.9-.9H6A.9.9,0,0,0,5.1,6.2Z" fill="#fddb2b"/>
      <path id="패스_698350" data-name="패스 698350" d="M3.8,4V26.4a4,4,0,0,0,2,3.5l11.4,6.6a4,4,0,0,0,4,0l11.4-6.6a4,4,0,0,0,2-3.5V4Z" fill="none" stroke="#fccb3a" stroke-linejoin="round" stroke-width="1"/>
      <path id="패스_698351" data-name="패스 698351" d="M20.2,12.4a7.6,7.6,0,1,1-7.6,7.7h0a7.6,7.6,0,0,1,7.6-7.6" fill="#fff"/>
      <path id="패스_698352" data-name="패스 698352" d="M13.1,16.8a7.4,7.4,0,0,1,1.4-2" fill="none" stroke="#111" stroke-linecap="square" stroke-linejoin="round" stroke-width="1"/>
      <path id="패스_698353" data-name="패스 698353" d="M14.5,10.4s0,3,1.8,3h.1a7.6,7.6,0,1,1-3.3,3.5" fill="none" stroke="#111" stroke-linecap="round" stroke-linejoin="round" stroke-width="1"/>
      <path id="패스_698354" data-name="패스 698354" d="M16.9,10.9s-.5,1.7.6,1.9" fill="none" stroke="#111" stroke-linecap="round" stroke-linejoin="round" stroke-width="1"/>
      <path id="패스_698355" data-name="패스 698355" d="M20.3,20.9a1.5,1.5,0,0,1-2.9,0" fill="none" stroke="#111" stroke-linecap="square" stroke-miterlimit="10" stroke-width="1"/>
      <line id="선_95184" data-name="선 95184" y2="0.3" transform="translate(21.1 18.1)" fill="none" stroke="#111" stroke-linecap="round" stroke-width="1"/>
      <line id="선_95185" data-name="선 95185" y2="1.3" transform="translate(21.1 16.8)" fill="none" stroke="#111" stroke-width="1"/>
      <line id="선_95186" data-name="선 95186" y2="0.4" transform="translate(16.6 18)" fill="none" stroke="#111" stroke-linecap="round" stroke-width="1"/>
      <line id="선_95187" data-name="선 95187" y2="1.2" transform="translate(16.6 16.8)" fill="none" stroke="#111" stroke-width="1"/>
      <path id="패스_698356" data-name="패스 698356" d="M25,11.6l-2.6-.7L24,13.3l-1.5,2.5,2.7-1.1L27.1,17,27,14.1l2.5-1.3L27,12.1l-.4-2.8Z" fill="#fff"/>
      <path id="패스_698357" data-name="패스 698357" d="M25,11.6l-2.6-.7L24,13.3l-1.5,2.5,2.7-1.1L27.1,17,27,14.1l2.5-1.3L27,12.1l-.4-2.8Z" fill="none" stroke="#111" stroke-linejoin="round" stroke-width="1"/>
    </g>
  </g>
</svg>
