<svg xmlns="http://www.w3.org/2000/svg" width="70" height="70"><defs><clipPath id="a"><path data-name="사각형 318455" fill="none" d="M0 0h70v70H0z"/></clipPath><clipPath id="b"><path data-name="사각형 318451" fill="none" d="M0 0h50.587v21.226H0z"/></clipPath><clipPath id="c"><path data-name="사각형 318452" fill="none" d="M0 0h9.753v5.817H0z"/></clipPath><clipPath id="d"><path data-name="사각형 318453" fill="none" d="M0 0h5.577v3.513H0z"/></clipPath></defs><g data-name="그룹 422816" clip-path="url(#a)"><g data-name="그룹 422815" clip-path="url(#a)"><g data-name="그룹 422810"><g data-name="그룹 422809" clip-path="url(#b)" transform="translate(14.338 38.92)" opacity=".2"><path data-name="패스 840417" d="M50.598 3.792v2.03l-9.415 2.112-21.758 12.39s-1.143.455-1.458.28c0 0-.91.98-1.867.478S3.372 13.782.268 11.994a.525.525 0 01-.023-.887l1.937-1.248L40.962.001l1.937 2.952s.91 1.318 1.365 2.112l.093.175z"/></g></g><path data-name="패스 840418" d="M15.505 31.547l7.3-2.672c.665-.245 1.622.257 2.322 1.213l.14.21.922 1.412 1.1 1.657 5.3 8.05 8.062-4.655-.712-.42a4.111 4.111 0 01-1.867-3.208V18.515z" fill="#e2e2e2"/><path data-name="패스 840419" d="M15.505 31.547h0l7.3-2.672c.665-.245 1.622.257 2.322 1.213l.14.21.922 1.412 1.1 1.657 5.3 8.05h0l8.062-4.655-.712-.42a4.111 4.111 0 01-1.867-3.208V18.515z" fill="none" stroke="#222" stroke-linejoin="round" stroke-width=".35"/><path data-name="패스 840420" d="M16.66 39.748l21.525-12.67v13.137L21 49.257z" fill="#222"/><path data-name="패스 840421" d="M55.055 43.855a1.027 1.027 0 00.758-.117 1.3 1.3 0 00.525-1.178V27.708l-1.178.688v14.84a1.9 1.9 0 01-.093.618" fill="#e2e2e2"/><path data-name="패스 840422" d="M55.055 43.855a1.027 1.027 0 00.758-.117 1.3 1.3 0 00.525-1.178V27.708h0l-1.178.688v14.84a1.9 1.9 0 01-.105.619z" fill="none" stroke="#222" stroke-linejoin="round" stroke-width=".35"/><path data-name="패스 840423" d="M39.247 17.85v14.618a4.08 4.08 0 001.867 3.208l.712.408 13.335-7.7 1.178-.688-7.3-11.107c-.712-1.085-1.75-1.68-2.462-1.423z" fill="#fff"/><path data-name="패스 840424" d="M39.247 17.85v14.618a4.08 4.08 0 001.867 3.208l.712.408 13.335-7.7 1.178-.688-7.3-11.107c-.712-1.085-1.75-1.68-2.462-1.423z" fill="none" stroke="#222" stroke-linejoin="round" stroke-width=".35"/><path data-name="패스 840425" d="M13.627 21.677l-.642.583.093.012 1.528-1.377-.222-1.972-.968-.98-.84-.852h0l-.98.782v.012h0l1.808 1.832z" fill="none" stroke="#222" stroke-linejoin="round" stroke-width=".35"/><path data-name="패스 840426" d="M9.485 19.822l1.657 2.03 1.843.408.093.023 1.528-1.377-.222-1.972-.968-.98-.84-.852a4.072 4.072 0 014.55 5.518l10.512 11.678a1.785 1.785 0 01-.782 2.893 1.785 1.785 0 01-1.75-.373l-.128-.128-.677-.758-9.625-10.7-.2-.222a4 4 0 01-1 .152h-.233a4.06 4.06 0 01-3.745-5.332m16.088 16.1l.28.047.455.07.548-.5v-.182l-.035-.548-.607-.432-.152.047-.56.163-.245.6-.035.093z" fill="#fff"/><path data-name="패스 840427" d="M9.485 19.822l1.657 2.03 1.843.408.093.023 1.528-1.377-.222-1.972-.968-.98-.84-.852a4.072 4.072 0 014.55 5.518l10.512 11.678a1.785 1.785 0 01-.782 2.893h0a1.785 1.785 0 01-1.75-.373l-.128-.128-.677-.758-9.625-10.7-.2-.222a4 4 0 01-1 .152h-.233a4.06 4.06 0 01-3.745-5.332zm16.1 16.112l.28.047.455.07.548-.5v-.186h0l-.035-.548-.607-.432-.152.047-.56.163-.245.6-.035.093z" fill="none" stroke="#222" stroke-linejoin="round" stroke-width=".35"/><path data-name="패스 840428" d="M25.841 35.595l.023.385.455.07.548-.49-.012-.2-.023-.548-.618-.432-.152.047-.56.163-.245.6z" fill="#e2e2e2"/><path data-name="패스 840429" d="M25.841 35.595l.023.385.455.07.548-.49-.012-.2h0l-.023-.548-.618-.432-.152.047-.56.163-.245.6z" fill="none" stroke="#222" stroke-linejoin="round" stroke-width=".35"/><path data-name="패스 840430" d="M25.223 35.28l.362.653.28.047-.023-.385-.583-.408z" fill="#222"/><path data-name="패스 840431" d="M25.223 35.28l.362.653.28.047-.023-.385-.583-.408z" fill="none" stroke="#222" stroke-linejoin="round" stroke-width=".35"/><path data-name="패스 840432" d="M9.345 24.593a4.072 4.072 0 004.142 1.19l10.512 11.678a1.785 1.785 0 002.52.128 1.762 1.762 0 00.338-.42 1.785 1.785 0 01-1.75-.373l-.128-.128-.677-.758-9.625-10.7-.2-.222a4 4 0 01-1 .152h-.233a4.072 4.072 0 01-3.745-5.332l-.98.782a4.072 4.072 0 00.84 3.99" fill="#e2e2e2"/><path data-name="패스 840433" d="M9.345 24.593a4.072 4.072 0 004.142 1.19l10.511 11.679a1.785 1.785 0 002.52.128 1.761 1.761 0 00.338-.42 1.785 1.785 0 01-1.75-.373l-.128-.128-.68-.759-9.625-10.7-.2-.222a4 4 0 01-1 .152h-.233a4.072 4.072 0 01-3.742-5.33l-.98.782a4.072 4.072 0 00.827 4.001z" fill="none" stroke="#222" stroke-linejoin="round" stroke-width=".35"/><path data-name="선 126358" fill="none" stroke="#222" stroke-linejoin="round" stroke-width=".35" d="M12.577 17.092v-.012"/><path data-name="패스 840434" d="M16.368 22.552l-.77-.957-2.018 1.633.793.98z" fill="none" stroke="#222" stroke-linejoin="round" stroke-width=".35"/><path data-name="선 126359" fill="none" stroke="#222" stroke-linejoin="round" stroke-width=".35" d="M15.89 23.053l-.782-.968"/><path data-name="선 126360" fill="none" stroke="#222" stroke-linejoin="round" stroke-width=".35" d="M15.365 23.461l-.782-.968"/><path data-name="선 126361" fill="none" stroke="#222" stroke-linejoin="round" stroke-width=".35" d="M14.899 23.859l-.782-.957"/><path data-name="패스 840435" d="M38.057 18.515v14.618a4.093 4.093 0 001.867 3.208l.712.42 1.167-.677 13.335-7.7-6.487-9.858-.817-1.26c-.712-1.085-1.75-1.68-2.462-1.423l-6.125 2.24-1.178.432z" fill="#cacaca"/><path data-name="패스 840436" d="M38.057 18.515v14.618a4.093 4.093 0 001.867 3.208l.712.42 1.167-.677 13.335-7.7h0l-6.487-9.858-.817-1.26c-.712-1.085-1.75-1.68-2.462-1.423l-6.125 2.24-1.178.432z" fill="none" stroke="#222" stroke-linejoin="round" stroke-width=".35"/><path data-name="패스 840437" d="M47.554 38.297l-3.372-.8 2.322.1 3.372.805z" fill="#fff"/><path data-name="패스 840438" d="M47.554 38.297l-3.372-.8 2.322.1 3.372.805z" fill="none" stroke="#222" stroke-linejoin="round" stroke-width=".35"/><path data-name="패스 840439" d="M41.148 47.833l.222.047-.082.047z" fill="#fff"/><path data-name="패스 840440" d="M41.148 47.833l.222.047-.082.047z" fill="none" stroke="#222" stroke-linejoin="round" stroke-width=".35"/><path data-name="패스 840441" d="M44.567 33.694l-3.372-.8 1.948-2.182 3.372.8z" fill="#c6c6c6"/><path data-name="패스 840442" d="M44.567 33.694l-3.372-.8 1.948-2.182 3.372.8z" fill="none" stroke="#222" stroke-linejoin="round" stroke-width=".35"/><path data-name="패스 840443" d="M37.695 50.015l-.023.012-1.26.735-.152-1.073v-.012z" fill="#fff"/><path data-name="패스 840444" d="M37.695 50.015l-.023.012-1.26.735-.152-1.073v-.012z" fill="none" stroke="#222" stroke-linejoin="round" stroke-width=".35"/><path data-name="패스 840445" d="M45.08 39.83" fill="#e2e2e2"/><path data-name="패스 840447" d="M45.08 39.97" fill="#e2e2e2"/><path data-name="패스 840449" d="M45.08 39.818" fill="#e2e2e2"/><path data-name="패스 840451" d="M45.08 39.83" fill="#e2e2e2"/><path data-name="패스 840453" d="M45.08 39.982" fill="#e2e2e2"/><path data-name="패스 840455" d="M45.115 40.635" fill="#e2e2e2"/><path data-name="패스 840457" d="M45.115 40.623l-.035-.653.035.653" fill="#e2e2e2"/><path data-name="패스 840458" d="M45.115 40.623l-.035-.653z" fill="none" stroke="#222" stroke-linejoin="round" stroke-width=".35"/><path data-name="패스 840459" d="M45.08 39.795" fill="#e2e2e2"/><path data-name="패스 840461" d="M45.127 40.682" fill="#e2e2e2"/><path data-name="패스 840463" d="M45.115 40.682c-.1-2.065-1.155-3.582-2.578-3.92l-3.372-.8a2.7 2.7 0 01.84.362 3.174 3.174 0 01.712.642 4.014 4.014 0 01.548.875 5.1 5.1 0 01.362 1.085 6.3 6.3 0 01.128 1.307 7.21 7.21 0 01-.642 2.963 6.464 6.464 0 01-.747 1.26 5.11 5.11 0 01-.992.992 3.686 3.686 0 01-1.248.618l-.175.035-.362.047a2.707 2.707 0 01-.5-.012l-.327-.058 3.372.8.327.058a2.707 2.707 0 00.5.012l.362-.047a3.547 3.547 0 001.3-.56 4.493 4.493 0 00.455-.362 5.542 5.542 0 00.9-1.05 6.745 6.745 0 00.677-1.318 7.234 7.234 0 00.4-1.47 7.025 7.025 0 00.082-1.447" fill="#e2e2e2"/><path data-name="패스 840464" d="M45.115 40.682c-.1-2.065-1.155-3.582-2.578-3.92l-3.372-.8a2.7 2.7 0 01.84.362 3.174 3.174 0 01.712.642 4.014 4.014 0 01.548.875 5.1 5.1 0 01.362 1.085 6.3 6.3 0 01.128 1.307 7.21 7.21 0 01-.642 2.963 6.464 6.464 0 01-.747 1.26 5.11 5.11 0 01-.992.992 3.686 3.686 0 01-1.248.618l-.175.035-.362.047a2.707 2.707 0 01-.5-.012l-.327-.058 3.372.8.327.058a2.707 2.707 0 00.5.012l.362-.047a3.547 3.547 0 001.3-.56 4.493 4.493 0 00.455-.362 5.542 5.542 0 00.9-1.05 6.745 6.745 0 00.677-1.318 7.234 7.234 0 00.4-1.47 7.024 7.024 0 00.06-1.459z" fill="none" stroke="#222" stroke-linejoin="round" stroke-width=".35"/><path data-name="패스 840465" d="M45.115 40.635v.047-.047" fill="#e2e2e2"/><path data-name="패스 840466" d="M45.115 40.635v.047h0z" fill="none" stroke="#222" stroke-linejoin="round" stroke-width=".35"/><path data-name="패스 840467" d="M45.08 39.795" fill="#e2e2e2"/><path data-name="패스 840469" d="M45.08 39.807" fill="#e2e2e2"/><path data-name="패스 840473" d="M45.08 39.783" fill="#e2e2e2"/><path data-name="패스 840475" d="M40.005 32.422l-.338-.07 3.372.8.338.07z" fill="#fff"/><path data-name="패스 840476" d="M40.005 32.422l-.338-.07 3.372.8.338.07z" fill="none" stroke="#222" stroke-linejoin="round" stroke-width=".35"/><path data-name="패스 840477" d="M37.672 50.028l-1.412-.338-.338-.082a4.434 4.434 0 01-1.085-.42l-.105-.058.117.023 3.057.723" fill="#fff"/><path data-name="패스 840478" d="M37.672 50.028l-1.412-.338-.338-.082a4.434 4.434 0 01-1.085-.42l-.105-.058.117.023 3.057.723" fill="none" stroke="#222" stroke-linejoin="round" stroke-width=".35"/><path data-name="패스 840479" d="M39.679 33.845l-3.372-.805.443-3.185 3.372.793z" fill="#e2e2e2"/><path data-name="패스 840480" d="M39.679 33.845l-3.372-.805.443-3.185 3.372.793z" fill="none" stroke="#222" stroke-linejoin="round" stroke-width=".35"/><path data-name="패스 840481" d="M40.122 30.649l-3.372-.794 2.5-.513 3.372.805z" fill="#fff"/><path data-name="패스 840482" d="M40.122 30.649l-3.372-.794 2.5-.513 3.372.805z" fill="none" stroke="#222" stroke-linejoin="round" stroke-width=".35"/><path data-name="패스 840483" d="M36.306 33.04a6.936 6.936 0 00-.723.467 5.234 5.234 0 00-.56.467l-.245.222 3.372.8.245-.222q.28-.245.56-.467a6.959 6.959 0 01.723-.467z" fill="#e2e2e2"/><path data-name="패스 840484" d="M36.306 33.04a6.936 6.936 0 00-.723.467 5.234 5.234 0 00-.56.467l-.245.222 3.372.8.245-.222q.28-.245.56-.467a6.959 6.959 0 01.723-.467z" fill="none" stroke="#222" stroke-linejoin="round" stroke-width=".35"/><path data-name="패스 840485" d="M34.405 50.12l-3.372-.8 1.342-2.87 3.372.8z" fill="#fff"/><path data-name="패스 840486" d="M34.405 50.12l-3.372-.8 1.342-2.87 3.372.8z" fill="none" stroke="#222" stroke-linejoin="round" stroke-width=".35"/><path data-name="패스 840487" d="M35.455 51.315l-.782.455-1.89-.443-1.75-2.012 3.372.8z" fill="#fff"/><path data-name="패스 840488" d="M35.455 51.315l-.782.455-1.89-.443-1.75-2.012 3.372.8z" fill="none" stroke="#222" stroke-linejoin="round" stroke-width=".35"/><path data-name="패스 840489" d="M35.117 45.337l-3.372-.8a8.645 8.645 0 00.63 1.913l3.372.8a8.633 8.633 0 01-.63-1.913" fill="#fff"/><path data-name="패스 840490" d="M35.117 45.337l-3.372-.8a8.645 8.645 0 00.63 1.913l3.372.8a8.633 8.633 0 01-.63-1.913z" fill="none" stroke="#222" stroke-linejoin="round" stroke-width=".35"/><path data-name="패스 840491" d="M32.399 37.858l-.14.362q-.187.513-.327 1.05t-.175.77l3.372.8q.082-.385.175-.77t.327-1.05l.14-.362z" fill="#e2e2e2"/><path data-name="패스 840492" d="M32.399 37.858l-.14.362q-.187.513-.327 1.05t-.175.77l3.372.8q.082-.385.175-.77t.327-1.05l.14-.362z" fill="none" stroke="#222" stroke-linejoin="round" stroke-width=".35"/><path data-name="패스 840493" d="M35.768 38.664l-3.372-.8-1.328-2.327 3.372.793z" fill="#e2e2e2"/><path data-name="패스 840494" d="M35.768 38.664l-3.372-.8-1.328-2.327 3.372.793z" fill="none" stroke="#222" stroke-linejoin="round" stroke-width=".35"/><path data-name="패스 840495" d="M34.44 36.33l-3.372-.793 1.773-2.718 3.372.793z" fill="#e2e2e2"/><path data-name="패스 840496" d="M34.44 36.33l-3.372-.793 1.773-2.718 3.372.793z" fill="none" stroke="#222" stroke-linejoin="round" stroke-width=".35"/><path data-name="패스 840497" d="M32.806 45.232l-3.383-.8.012-3.337 3.372.793z" fill="#fff"/><path data-name="패스 840498" d="M32.806 45.232l-3.383-.8.012-3.337 3.372.793z" fill="none" stroke="#222" stroke-linejoin="round" stroke-width=".35"/><path data-name="패스 840499" d="M47.553 38.302a8.632 8.632 0 00-.63-1.913l1.342-2.87-1.762-2.007-1.937 2.182a4.48 4.48 0 00-1.528-.537l-.42-3.01-2.5.513-.443 3.185A7.49 7.49 0 0038.147 35l-1.937-1.388-1.773 2.718 1.33 2.333-.093.245v.035l-.07.2-.035.093-.07.21v.023l-.058.2-.093.35-.035.128-.035.128-.047.187-.035.175-.047.21-2.322 1.05v3.337l2.31.105a8.564 8.564 0 00.63 1.913l-.9 1.913v.023l-.432.922 1.05 1.19.957-.56 1.26-.735h.012l.21-.128 3.383-1.96.082-.047 5.67-3.29a12.228 12.228 0 00.5-1.8l2.322-1.05v-3.323zm-2.423 2.765v.292c0 .07-.012.152-.012.222s-.012.093-.012.14l-.023.21-.023.163-.023.128-.07.373-.047.175-.047.163v.047l-.023.082-.035.117-.035.117-.035.117-.047.117-.047.117-.047.128h-.012l-.117.268-.07.152-.082.152-.093.175-.058.093-.128.21-.07.093-.07.093-.07.093-.07.093-.105.128h-.029l-.093.117-.082.093-.257.257-.117.105-.2.163-.07.058-.2.14-.152.093-.152.093h-.012l-.128.07h-.023l-.14.07h-.023l-.093.035-.187.07-.093.035-.292.07-.14.023h-.863l-.105-.023-.128-.035h-.012a2.893 2.893 0 01-1.482-.98 5.057 5.057 0 01-1.038-3.3c.012-2.508 1.377-4.877 3.162-5.647a3.289 3.289 0 01.642-.2 2.753 2.753 0 011.132 0h.058l.093.023h.128l.058.023h.023l.082.035.117.047h.035l.082.035.047.023.093.058.117.07.07.047.07.047.093.082.093.082h.023l.082.082.023.023.093.093.2.222.058.082.117.163.07.117.105.175.047.082.047.093.047.093.047.093.035.07.047.117.058.152.035.1.035.093.035.128a3.335 3.335 0 01.082.327v.117l.023.117v.128l.023.163v.28a.157.157 0 000 .023v.035a.106.106 0 010 .023c.012.117.012.245.012.362z" fill="#fff"/><path data-name="패스 840500" d="M47.553 38.302a8.632 8.632 0 00-.63-1.913l1.342-2.87-1.762-2.007-1.937 2.182a4.48 4.48 0 00-1.528-.537l-.42-3.01-2.5.513-.443 3.185A7.49 7.49 0 0038.147 35l-1.937-1.388-1.773 2.718 1.33 2.333-.093.245v.035l-.07.2-.035.093-.07.21h0v.023h0l-.058.2-.093.35-.035.128-.035.128-.047.187-.035.175-.047.21-2.322 1.05v3.337l2.31.105a8.564 8.564 0 00.63 1.913l-.9 1.913v.023l-.432.922 1.05 1.19.957-.56 1.26-.735h.012l.21-.128 3.383-1.96.082-.047 5.67-3.29a12.228 12.228 0 00.5-1.8l2.322-1.05v-3.323zm-2.423 2.765v.292c0 .07-.012.152-.012.222s-.012.093-.012.14l-.023.21-.023.163-.023.128-.07.373-.047.175-.047.163h0v.047h0l-.023.082-.035.117-.035.117-.035.117-.047.117-.047.117-.047.128h-.012l-.117.268-.07.152-.082.152-.093.175-.058.093h0l-.128.21-.07.093-.07.093-.07.093-.07.093-.105.128h-.029l-.093.117-.082.093-.257.257-.117.105-.2.163-.07.058-.2.14-.152.093-.152.093h-.012l-.128.07h-.023l-.14.07h-.023l-.093.035-.187.07-.093.035-.292.07-.14.023h-.863l-.105-.023-.128-.035h-.012a2.893 2.893 0 01-1.482-.98 5.057 5.057 0 01-1.038-3.3c.012-2.508 1.377-4.877 3.162-5.647a3.289 3.289 0 01.642-.2 2.753 2.753 0 011.132 0h.058l.093.023h.128l.058.023h.023l.082.035.117.047h.035l.082.035.047.023.093.058.117.07.07.047.07.047.093.082.093.082h.023l.082.082.023.023.093.093h0l.2.222.058.082.117.163.07.117.105.175.047.082.047.093.047.093.047.093.035.07.047.117h0l.058.152.035.1.035.093.035.128a3.335 3.335 0 01.082.327v.082h0v.035l.023.117v.128l.023.163v.233h0v.047a.157.157 0 000 .023v.035h0a.106.106 0 010 .023h0c.012.117.012.245.012.362z" fill="none" stroke="#222" stroke-linejoin="round" stroke-width=".35"/><path data-name="패스 840501" d="M32.807 41.883l-3.372-.793 2.322-1.05 3.372.793z" fill="#fff"/><path data-name="패스 840502" d="M32.807 41.883l-3.372-.793 2.322-1.05 3.372.793z" fill="none" stroke="#222" stroke-linejoin="round" stroke-width=".35"/><path data-name="패스 840503" d="M53.095 29.612l8.657-14.093-4.328-2.905-13.767 22.41" fill="#fff"/><path data-name="패스 840504" d="M53.095 29.612l8.657-14.093-4.328-2.905-13.767 22.41" fill="none" stroke="#222" stroke-linejoin="round" stroke-width=".35"/><path data-name="선 126362" fill="#fff" d="M59.815 18.445l-1.832-1.225"/><path data-name="선 126363" fill="none" stroke="#222" stroke-linecap="round" stroke-linejoin="round" stroke-width=".467" d="M59.815 18.445l-1.832-1.225"/><path data-name="선 126364" fill="#fff" d="M58.579 20.475l-1.832-1.225"/><path data-name="선 126365" fill="none" stroke="#222" stroke-linecap="round" stroke-linejoin="round" stroke-width=".467" d="M58.579 20.475l-1.832-1.225"/><path data-name="선 126366" fill="#fff" d="M57.26 22.61l-1.82-1.237"/><path data-name="선 126367" fill="none" stroke="#222" stroke-linecap="round" stroke-linejoin="round" stroke-width=".467" d="M57.26 22.61l-1.82-1.237"/><path data-name="선 126368" fill="#fff" d="M56.152 24.5l-1.82-1.225"/><path data-name="선 126369" fill="none" stroke="#222" stroke-linecap="round" stroke-linejoin="round" stroke-width=".467" d="M56.152 24.5l-1.82-1.225"/><path data-name="선 126370" fill="#fff" d="M55.009 26.495l-1.832-1.225"/><path data-name="선 126371" fill="none" stroke="#222" stroke-linecap="round" stroke-linejoin="round" stroke-width=".467" d="M55.009 26.495l-1.832-1.225"/><path data-name="선 126372" fill="#fff" d="M53.83 28.373l-1.832-1.225"/><path data-name="선 126373" fill="none" stroke="#222" stroke-linecap="round" stroke-linejoin="round" stroke-width=".467" d="M53.83 28.373l-1.832-1.225"/><path data-name="선 126374" fill="#fff" d="M52.302 29.948l-1.4-.933"/><path data-name="선 126375" fill="none" stroke="#222" stroke-linecap="round" stroke-linejoin="round" stroke-width=".467" d="M52.302 29.948l-1.4-.933"/><path data-name="선 126376" fill="#fff" d="M50.435 31.104l-.7-.467"/><path data-name="선 126377" fill="none" stroke="#222" stroke-linecap="round" stroke-linejoin="round" stroke-width=".467" d="M50.435 31.104l-.7-.467"/><path data-name="패스 840505" d="M57.96 15.61a.852.852 0 10.852-.852.852.852 0 00-.852.852" fill="#222"/><path data-name="패스 840506" d="M57.96 15.61a.852.852 0 10.852-.852.852.852 0 00-.852.852z" fill="none" stroke="#fff" stroke-linejoin="round" stroke-width=".35"/><path data-name="패스 840507" d="M44.952 34.37L57.96 13.183l.14-.163-.758-.408L43.61 34.989z" fill="#fff"/><path data-name="패스 840508" d="M44.952 34.37L57.96 13.183l.14-.163-.758-.408L43.61 34.989z" fill="none" stroke="#222" stroke-linejoin="round" stroke-width=".35"/><g data-name="그룹 422812"><g data-name="그룹 422811" clip-path="url(#c)" transform="translate(43.61 29.167)" opacity=".1"><path data-name="패스 840509" d="M9.753 0L1.785 2.9 0 5.817 9.753.31z" fill="#222"/></g></g><path data-name="패스 840510" d="M32.072 57.214h.012l23.73-13.463a1.027 1.027 0 01-.758.117 1.9 1.9 0 00.093-.618V28.397l-13.335 7.7-1.167.677-8.062 4.643v14.607a1.322 1.322 0 01-.513 1.178" fill="#e2e2e2"/><path data-name="패스 840511" d="M32.072 57.214h.012l23.73-13.463h0a1.027 1.027 0 01-.758.117 1.9 1.9 0 00.093-.618V28.397l-13.335 7.7-1.167.677-8.062 4.643v14.607a1.345 1.345 0 01-.513 1.19z" fill="none" stroke="#222" stroke-linejoin="round" stroke-width=".35"/><path data-name="선 126378" fill="none" stroke="#222" stroke-linejoin="round" stroke-width=".35" d="M55.813 43.75l.058-.035"/><path data-name="선 126379" fill="none" stroke="#222" stroke-linejoin="round" stroke-width=".35" d="M30.695 58.018l1.377-.793"/><path data-name="선 126380" fill="none" stroke="#222" stroke-linejoin="round" stroke-width=".35" d="M56.327 27.708l.035-.023"/><path data-name="패스 840512" d="M39.247 17.838h-.012l-1.167.677h-.011" fill="none" stroke="#222" stroke-linejoin="round" stroke-width=".35"/><path data-name="패스 840513" d="M15.505 31.547l-1.388.793-.047.035" fill="none" stroke="#222" stroke-linejoin="round" stroke-width=".35"/><path data-name="패스 840514" d="M31.15 57.284a1.1 1.1 0 00.91-.07 1.3 1.3 0 00.513-1.178V41.417l-1.377.793v14.618a1.983 1.983 0 01-.047.455" fill="#e2e2e2"/><path data-name="패스 840515" d="M31.15 57.284a1.1 1.1 0 00.91-.07 1.3 1.3 0 00.513-1.178V41.417l-1.377.793v14.618a1.983 1.983 0 01-.046.456z" fill="none" stroke="#222" stroke-linejoin="round" stroke-width=".35"/><path data-name="선 126381" fill="none" stroke="#222" stroke-linejoin="round" stroke-width=".35" d="M31.185 42.222l.012-.012"/><path data-name="패스 840516" d="M44.835 19.378a3.054 3.054 0 001.388 2.392c.77.443 1.388.093 1.388-.793a3.036 3.036 0 00-1.388-2.392c-.77-.443-1.388-.082-1.388.793" fill="#3673ee"/><path data-name="패스 840517" d="M44.835 19.378a3.054 3.054 0 001.388 2.392c.77.443 1.388.093 1.388-.793a3.036 3.036 0 00-1.388-2.392c-.77-.444-1.388-.082-1.388.793z" fill="none" stroke="#222" stroke-linejoin="round" stroke-width=".35"/><path data-name="패스 840518" d="M45.185 18.515l-20.51 11.842 2.182 3.255 20.475-11.818" fill="#3673ee"/><path data-name="패스 840519" d="M45.185 18.515l-20.51 11.842 2.182 3.255 20.475-11.818" fill="none" stroke="#222" stroke-linejoin="round" stroke-width=".35"/><path data-name="패스 840520" d="M15.505 31.547v14.618a4.062 4.062 0 001.867 3.208l13.358 7.712a2.1 2.1 0 00.42.2 1.983 1.983 0 00.047-.455V42.21l1.377-.793-5.3-8.05-1.1-1.657-.922-1.412-.14-.21c-.712-.957-1.657-1.458-2.322-1.225z" fill="#fff"/><path data-name="패스 840521" d="M15.505 31.547v14.618a4.062 4.062 0 001.867 3.208l13.358 7.712a2.1 2.1 0 00.42.2 1.983 1.983 0 00.047-.455V42.21l1.377-.793h0l-5.3-8.05-1.1-1.657-.922-1.412-.14-.21c-.712-.957-1.657-1.458-2.322-1.225z" fill="none" stroke="#222" stroke-linejoin="round" stroke-width=".35"/><path data-name="패스 840522" d="M14.117 32.34v14.618a4.1 4.1 0 001.867 3.22l13.358 7.712a1.318 1.318 0 001.353.117 1.1 1.1 0 00.467-.723 1.983 1.983 0 00.047-.455V42.21l-7.315-11.107c-.712-1.085-1.75-1.68-2.462-1.423l-5.927 2.17z" fill="#fff"/><path data-name="패스 840523" d="M14.117 32.34v14.618a4.1 4.1 0 001.867 3.22l13.358 7.712a1.318 1.318 0 001.353.117 1.1 1.1 0 00.467-.723 1.983 1.983 0 00.047-.455V42.21l-7.315-11.107c-.712-1.085-1.75-1.68-2.462-1.423l-5.927 2.17z" fill="none" stroke="#222" stroke-linejoin="round" stroke-width=".35"/><path data-name="패스 840524" d="M46.608 22.19a.917.917 0 00.467-.922 3.054 3.054 0 00-1.388-2.392.934.934 0 00-1.062-.047" fill="none" stroke="#222" stroke-linejoin="round" stroke-width=".35"/><path data-name="패스 840525" d="M28.21 54.892A1.423 1.423 0 0028.852 56c.35.21.642.047.642-.362a1.423 1.423 0 00-.642-1.108c-.35-.21-.642-.047-.642.362" fill="#222"/><path data-name="패스 840526" d="M28.21 54.892A1.423 1.423 0 0028.852 56c.35.21.642.047.642-.362a1.423 1.423 0 00-.642-1.108c-.362-.206-.642-.047-.642.362z" fill="none" stroke="#222" stroke-linejoin="round" stroke-width=".35"/><path data-name="패스 840527" d="M27.965 55.079a1.423 1.423 0 00.642 1.108c.35.21.642.047.642-.362a1.423 1.423 0 00-.642-1.108c-.35-.21-.642-.047-.642.362" fill="#e2e2e2"/><path data-name="패스 840528" d="M27.965 55.079a1.423 1.423 0 00.642 1.108c.35.21.642.047.642-.362a1.423 1.423 0 00-.642-1.108c-.35-.206-.642-.047-.642.362z" fill="none" stroke="#222" stroke-linejoin="round" stroke-width=".35"/><path data-name="패스 840529" d="M14.98 47.32a1.423 1.423 0 00.642 1.108c.35.21.642.047.642-.362a1.423 1.423 0 00-.642-1.108c-.362-.21-.642-.047-.642.362" fill="#222"/><path data-name="패스 840530" d="M14.98 47.32a1.423 1.423 0 00.642 1.108c.35.21.642.047.642-.362a1.423 1.423 0 00-.642-1.108c-.362-.206-.642-.047-.642.362z" fill="none" stroke="#222" stroke-linejoin="round" stroke-width=".35"/><path data-name="패스 840531" d="M14.735 47.507a1.423 1.423 0 00.642 1.108c.35.21.642.047.642-.362a1.423 1.423 0 00-.642-1.108c-.35-.21-.642-.047-.642.362" fill="#e2e2e2"/><path data-name="패스 840532" d="M14.735 47.507a1.423 1.423 0 00.642 1.108c.35.21.642.047.642-.362a1.423 1.423 0 00-.642-1.108c-.35-.206-.642-.047-.642.362z" fill="none" stroke="#222" stroke-linejoin="round" stroke-width=".35"/><g data-name="그룹 422814"><g data-name="그룹 422813" clip-path="url(#d)" transform="translate(17.15 27.358)" opacity=".1"><path data-name="패스 840533" d="M4.352 0L0 2.753l.688.758 4.667-1.855.233-.175z" fill="#222"/></g></g><path data-name="패스 840534" d="M57.424 12.612l4.328 2.9-6.487 10.57 1.073 1.622V42.57a1.3 1.3 0 01-.525 1.178L32.072 57.225h-.016a.957.957 0 01-.513.14 1.4 1.4 0 01-.408-.058 1.1 1.1 0 01-.467.723.956.956 0 01-.513.14 1.7 1.7 0 01-.84-.257L15.98 50.178a4.114 4.114 0 01-1.867-3.22V32.34l1.388-.5v-.292l-1.431.822.058-.035 1.388-.793 2.088-1.2-4.118-4.562a4.072 4.072 0 01-4.982-5.18l.98-.782 1.657 2.03 1.843.408.642-.572-.222-1.972-1.808-1.832.98-.782a4.072 4.072 0 014.55 5.518l4.737 5.262 16.2-9.357 1.178-.677-1.178.677 1.178-.432v-.233l7.3-2.683a1.038 1.038 0 01.362-.058 2.888 2.888 0 012.1 1.482l3.08 4.678 5.32-8.668m0-.642h-.128a.642.642 0 00-.408.292l-4.795 7.805-2.52-3.838a3.474 3.474 0 00-2.637-1.773 1.68 1.68 0 00-.583.105l-7.176 2.629a.642.642 0 00-.222.082l-1.178.677h-.012l-15.75 9.1-4.142-4.585a4.731 4.731 0 00-5.343-6.02.63.63 0 00-.338.14l-.968.793a.653.653 0 00-.058.957l1.657 1.668.163 1.423-.152.128-1.307-.292-1.517-1.855a.642.642 0 00-.9-.093l-.98.782a.642.642 0 00-.21.3 4.713 4.713 0 005.367 6.09l3.313 3.687-1.4.805h-.023l-1.365.782-.058.035a.642.642 0 00-.268.817v14.35a4.727 4.727 0 002.182 3.768l13.37 7.723a2.322 2.322 0 001.155.338 1.61 1.61 0 00.852-.233 1.587 1.587 0 00.537-.56 1.633 1.633 0 00.677-.152l.14-.058 23.753-13.475.105-.07a1.943 1.943 0 00.735-1.668V27.708a.642.642 0 00-.07-.292l-.035-.07-.84-1.283 6.277-10.208a.642.642 0 00-.187-.863l-4.328-2.9a.642.642 0 00-.362-.105" fill="#222"/><path data-name="패스 840535" d="M21.747 29.61l1.715-.77-.572.047-8.458 2.8-.315.385z" fill="#222"/><path data-name="패스 840536" d="M45.617 15.878l1.715-.758-.572.035-8.458 2.8-.315.385z" fill="#222"/><path data-name="선 126382" fill="none" stroke="#222" stroke-linejoin="round" stroke-width=".583" d="M56.326 27.708l-25.223 14.56"/><path data-name="패스 840537" d="M55.592 26.063l.945 1.622-3.36 1.785 2.263-3.5z" fill="#222"/><path data-name="패스 840538" d="M55.592 26.063l.945 1.622-3.36 1.785 2.263-3.5z" fill="none" stroke="#222" stroke-miterlimit="10" stroke-width=".117"/><path data-name="패스 840539" d="M40.88 48.23c0 .42.2.677.467.677a.619.619 0 00.3-.093l6.778-3.908a1.849 1.849 0 00.782-1.482 1.222 1.222 0 00-.023-.233c-.058-.28-.222-.443-.443-.443a.618.618 0 00-.3.093l-6.79 3.908a1.836 1.836 0 00-.758 1.225 1.672 1.672 0 00-.023.257" fill="#fff"/><path data-name="패스 840540" d="M40.88 48.23c0 .42.2.677.467.677a.619.619 0 00.3-.093l6.778-3.908a1.849 1.849 0 00.782-1.482 1.222 1.222 0 00-.023-.233c-.058-.28-.222-.443-.443-.443a.618.618 0 00-.3.093l-6.79 3.908a1.836 1.836 0 00-.758 1.225 1.67 1.67 0 00-.013.256z" fill="none" stroke="#222" stroke-linejoin="round" stroke-width=".35"/><path data-name="패스 840541" d="M40.904 47.973c.058.28.222.455.443.455a.619.619 0 00.3-.093l6.778-3.908a1.836 1.836 0 00.758-1.225c-.058-.28-.222-.443-.443-.443a.618.618 0 00-.3.093l-6.79 3.9a1.836 1.836 0 00-.758 1.225" fill="#c9c9c9"/><path data-name="패스 840542" d="M40.903 47.973c.058.28.222.455.443.455a.618.618 0 00.3-.093l6.778-3.908a1.836 1.836 0 00.758-1.225c-.058-.28-.222-.443-.443-.443a.618.618 0 00-.3.093l-6.79 3.9a1.824 1.824 0 00-.746 1.221z" fill="none" stroke="#222" stroke-linejoin="round" stroke-width=".35"/><path data-name="패스 840543" d="M55.72 43.855l-.758-.245-22.225 12.647-.327 1.143z" fill="#222"/><path data-name="패스 840544" d="M19.192 43.612v-.98l.688.4a1.307 1.307 0 01.245-.537l-.49-.84.607-.338.49.84a1.33 1.33 0 01.595.058v-.803l.852.49v.793a3.977 3.977 0 01.6.618l.49-.28.607 1.038-.49.28a3.955 3.955 0 01.245.817l.688.4v.98l-.688-.4a1.307 1.307 0 01-.245.537l.49.84-.607.338-.49-.84a1.33 1.33 0 01-.6-.058v.793l-.852-.49v-.793a3.978 3.978 0 01-.6-.618l-.49.28-.607-1.038.49-.28a3.943 3.943 0 01-.245-.817zm2.555 1.96c.467.268.852.058.852-.49a1.878 1.878 0 00-.852-1.47c-.467-.268-.852-.058-.852.49a1.878 1.878 0 00.852 1.47" fill="#fff"/><path data-name="패스 840545" d="M20.72 33.355a3.054 3.054 0 001.388 2.392c.77.443 1.388.093 1.388-.793a3.036 3.036 0 00-1.388-2.392c-.77-.443-1.388-.093-1.388.793" fill="#fff"/><path data-name="패스 840546" d="M20.72 33.355a3.054 3.054 0 001.388 2.392c.77.443 1.388.093 1.388-.793a3.036 3.036 0 00-1.388-2.392c-.77-.444-1.388-.082-1.388.793z" fill="none" stroke="#222" stroke-linejoin="round" stroke-width=".35"/><path data-name="패스 840547" d="M20.207 33.763a3.054 3.054 0 001.388 2.392c.77.443 1.388.093 1.388-.793a3.036 3.036 0 00-1.388-2.392c-.77-.443-1.388-.093-1.388.793" fill="#3673ee"/><path data-name="패스 840548" d="M20.207 33.763a3.054 3.054 0 001.388 2.392c.77.443 1.388.093 1.388-.793a3.036 3.036 0 00-1.388-2.392c-.77-.448-1.388-.094-1.388.793z" fill="none" stroke="#222" stroke-linejoin="round" stroke-width=".35"/><path data-name="선 126383" fill="#fff" d="M31.197 53.736L14.07 43.843"/><path data-name="선 126384" fill="none" stroke="#222" stroke-linejoin="round" stroke-width=".35" d="M31.197 53.736L14.07 43.843"/><path data-name="패스 840549" d="M17.769 30.772l-.747-.8-1.015 1.365z" fill="#222"/></g></g></svg>