<svg xmlns="http://www.w3.org/2000/svg" xmlns:xlink="http://www.w3.org/1999/xlink" width="100" height="100" viewBox="0 0 100 100">
  <defs>
    <clipPath id="clip-path">
      <rect id="사각형_211592" data-name="사각형 211592" width="100" height="100" fill="none"/>
    </clipPath>
    <clipPath id="clip-path-4">
      <rect id="사각형_211587" data-name="사각형 211587" width="17.375" height="10.029" fill="none"/>
    </clipPath>
    <clipPath id="clip-path-5">
      <rect id="사각형_211588" data-name="사각형 211588" width="43.042" height="34.652" fill="none"/>
    </clipPath>
    <clipPath id="clip-path-6">
      <rect id="사각형_211589" data-name="사각형 211589" width="20.875" height="11.771" fill="none"/>
    </clipPath>
    <clipPath id="clip-path-7">
      <rect id="사각형_211590" data-name="사각형 211590" width="9.688" height="6.137" fill="none"/>
    </clipPath>
  </defs>
  <g id="null_100x100" transform="translate(50 50)">
    <g id="null_100x100-2" data-name="null_100x100" transform="translate(-50 -50)" style="isolation: isolate">
      <g id="Layer_1" data-name="Layer 1">
        <g id="그룹_255905" data-name="그룹 255905" clip-path="url(#clip-path)">
          <g id="그룹_255895" data-name="그룹 255895" clip-path="url(#clip-path)">
            <path id="패스_563364" data-name="패스 563364" d="M50,0A50,50,0,1,1,0,50,50.013,50.013,0,0,1,50,0" fill="#f9f9f9"/>
            <path id="패스_563365" data-name="패스 563365" d="M50,100a50,50,0,1,1,50-50,50.066,50.066,0,0,1-50,50M50,1A49,49,0,1,0,99,50,49.053,49.053,0,0,0,50,1" fill="#f0f0f0"/>
          </g>
          <g id="그룹_255904" data-name="그룹 255904" clip-path="url(#clip-path)">
            <g id="그룹_255897" data-name="그룹 255897" transform="translate(44.229 70.104)" opacity="0.15">
              <g id="그룹_255896" data-name="그룹 255896" clip-path="url(#clip-path-4)">
                <path id="패스_563366" data-name="패스 563366" d="M228.715,346.062h0a5.505,5.505,0,0,1-4.958-.208L213.4,339.875c-1.458-.854-1.625-2.125-.354-2.854a5.505,5.505,0,0,1,4.958.208l10.354,5.979c1.458.854,1.625,2.125.354,2.854" transform="translate(-212.215 -336.52)" fill="#222"/>
              </g>
            </g>
            <g id="그룹_255899" data-name="그룹 255899" transform="translate(43.708 42.188)" opacity="0.15">
              <g id="그룹_255898" data-name="그룹 255898" clip-path="url(#clip-path-5)">
                <path id="패스_563367" data-name="패스 563367" d="M236.029,202.5l16.438,8.9a.729.729,0,0,1,.021,1.271l-42.688,24.5" transform="translate(-209.8 -202.5)"/>
              </g>
            </g>
            <path id="패스_563368" data-name="패스 563368" d="M137.046,215.7l4.188,2.1a.958.958,0,0,1,.333,1.479c-11.6,12.792-25.1,20.625-40.146,28.563l-9.583-5.521-9.354-5.4L72.9,231.387l8.021-3.042" transform="translate(-57.713 -170.762)" fill="#fff"/>
            <path id="패스_563369" data-name="패스 563369" d="M137.046,215.7l4.188,2.1a.958.958,0,0,1,.333,1.479c-11.6,12.792-25.1,20.625-40.146,28.563l-9.583-5.521-9.354-5.4L72.9,231.387l8.021-3.042" transform="translate(-57.713 -170.762)" fill="none" stroke="#222" stroke-linejoin="round" stroke-width="0.833"/>
            <path id="패스_563370" data-name="패스 563370" d="M131,141.2l.875.5,8.354,4.833a1.354,1.354,0,0,1,.458,1.9c-9.854,15.313-24.271,23.1-39.271,31.021l-9.583-5.521-9.354-5.4L72.9,163.008c18.625-6.9,33.333-16.646,40.042-32.208l9.583,5.521.458.271Z" transform="translate(-57.713 -103.55)" fill="#fff"/>
            <path id="패스_563371" data-name="패스 563371" d="M131,141.2l.875.5,8.354,4.833a1.354,1.354,0,0,1,.458,1.9c-9.854,15.313-24.271,23.1-39.271,31.021l-9.583-5.521-9.354-5.4L72.9,163.008c18.625-6.9,33.333-16.646,40.042-32.208l9.583,5.521.458.271Z" transform="translate(-57.713 -103.55)" fill="none" stroke="#222" stroke-linejoin="round" stroke-width="0.833"/>
            <g id="그룹_255901" data-name="그룹 255901" transform="translate(31.458 62.063)" opacity="0.15">
              <g id="그룹_255900" data-name="그룹 255900" clip-path="url(#clip-path-6)">
                <path id="패스_563372" data-name="패스 563372" d="M171.015,309.212h0a5.505,5.505,0,0,1-4.958-.208L152.2,301.275c-1.458-.854-1.625-2.125-.354-2.854a5.505,5.505,0,0,1,4.958.208l13.854,7.729c1.458.854,1.625,2.125.354,2.854" transform="translate(-150.994 -297.92)" fill="#222"/>
              </g>
            </g>
            <path id="패스_563373" data-name="패스 563373" d="M180.167,305.654,154.458,290.8l-3.458.167,1.646,3.1L178.354,308.9" transform="translate(-119.542 -230.217)" fill="#fff"/>
            <path id="패스_563374" data-name="패스 563374" d="M180.167,305.654,154.458,290.8l-3.458.167,1.646,3.1L178.354,308.9" transform="translate(-119.542 -230.217)" fill="none" stroke="#222" stroke-linejoin="round" stroke-width="0.833"/>
            <line id="선_77271" data-name="선 77271" x1="21.167" y1="12.229" transform="translate(33.75 62.063)" fill="#fff"/>
            <line id="선_77272" data-name="선 77272" x1="21.167" y1="12.229" transform="translate(33.75 62.063)" fill="none" stroke="#222" stroke-linejoin="round" stroke-width="0.833"/>
            <path id="패스_563375" data-name="패스 563375" d="M282.825,362.568a2.917,2.917,0,0,1-1.312,2.271c-.729.417-1.312.083-1.312-.75a2.917,2.917,0,0,1,1.313-2.271c.729-.417,1.313-.083,1.313.75" transform="translate(-221.825 -286.298)" fill="#222"/>
            <path id="패스_563376" data-name="패스 563376" d="M282.825,362.568a2.917,2.917,0,0,1-1.312,2.271c-.729.417-1.312.083-1.312-.75a2.917,2.917,0,0,1,1.313-2.271C282.242,361.4,282.825,361.735,282.825,362.568Z" transform="translate(-221.825 -286.298)" fill="none" stroke="#222" stroke-linejoin="round" stroke-width="0.833"/>
            <path id="패스_563377" data-name="패스 563377" d="M162.75,292.643a.917.917,0,0,0-.937.083,2.917,2.917,0,0,0-1.312,2.292.9.9,0,0,0,.4.854" transform="translate(-127.063 -231.601)" fill="none" stroke="#222" stroke-linejoin="round" stroke-width="0.833"/>
            <path id="패스_563378" data-name="패스 563378" d="M263.971,351.143a.917.917,0,0,0-.937.083,2.917,2.917,0,0,0-1.333,2.292.9.9,0,0,0,.4.854" transform="translate(-207.179 -277.914)" fill="none" stroke="#222" stroke-linejoin="round" stroke-width="0.833"/>
            <path id="패스_563379" data-name="패스 563379" d="M154.49,291.378a.375.375,0,0,0-.375.042,1.146,1.146,0,0,0-.521.9.354.354,0,0,0,.167.333" transform="translate(-121.594 -230.649)" fill="none" stroke="#222" stroke-linejoin="round" stroke-width="0.833"/>
            <path id="패스_563380" data-name="패스 563380" d="M208.9,109.717v-3.042c0-5.729-4.9-10.375-10.958-10.375A10.654,10.654,0,0,0,187,106.675v3.042" transform="translate(-148.042 -76.238)" fill="#fff"/>
            <path id="패스_563381" data-name="패스 563381" d="M208.9,109.717v-3.042c0-5.729-4.9-10.375-10.958-10.375A10.654,10.654,0,0,0,187,106.675v3.042" transform="translate(-148.042 -76.238)" fill="none" stroke="#000001" stroke-linejoin="round" stroke-width="0.833"/>
            <path id="패스_563382" data-name="패스 563382" d="M208.9,118.075c0,5.729-4.9,10.375-10.958,10.375A10.654,10.654,0,0,1,187,118.075c0-5.729,4.9-10.375,10.958-10.375s10.958,4.646,10.958,10.375" transform="translate(-148.042 -85.262)" fill="#45d49a"/>
            <path id="패스_563383" data-name="패스 563383" d="M208.9,118.075c0,5.729-4.9,10.375-10.958,10.375A10.654,10.654,0,0,1,187,118.075c0-5.729,4.9-10.375,10.958-10.375A10.654,10.654,0,0,1,208.9,118.075Z" transform="translate(-148.042 -85.262)" fill="none" stroke="#000001" stroke-linejoin="round" stroke-width="0.833"/>
            <path id="패스_563384" data-name="패스 563384" d="M225.4,147.629l2.563,2.5,5.229-5.229" transform="translate(-178.442 -114.712)" fill="none" stroke="#fff" stroke-linecap="round" stroke-linejoin="round" stroke-width="1.667"/>
            <line id="선_77273" data-name="선 77273" x2="0.729" y2="0.708" transform="translate(46.229 32.208)" fill="none" stroke="#fff" stroke-linecap="square" stroke-linejoin="round" stroke-width="1.667"/>
            <path id="패스_563385" data-name="패스 563385" d="M241,286.5l3.313,1.917L238.1,292l-4.5-2.6" transform="translate(-184.933 -226.813)" fill="none" stroke="#222" stroke-linejoin="bevel" stroke-width="0.833"/>
            <path id="패스_563386" data-name="패스 563386" d="M241.7,279.983l2.771-1.583,2.938,1.688" transform="translate(-191.346 -220.4)" fill="none" stroke="#222" stroke-linecap="round" stroke-linejoin="bevel" stroke-width="0.833"/>
            <path id="패스_563387" data-name="패스 563387" d="M230.154,293.979l-.062-1.75L223.3,292" transform="translate(-176.779 -231.167)" fill="none" stroke="#222" stroke-linecap="round" stroke-linejoin="round" stroke-width="1.042"/>
            <line id="선_77274" data-name="선 77274" y1="0.125" transform="translate(53.375 62.813)" fill="none" stroke="#222" stroke-linecap="square" stroke-linejoin="round" stroke-width="1.042"/>
            <path id="패스_563388" data-name="패스 563388" d="M282.471,257.9l3.4,1.771-6.042,3.854-4.625-2.4" transform="translate(-217.867 -204.171)" fill="none" stroke="#222" stroke-miterlimit="10" stroke-width="0.833"/>
            <path id="패스_563389" data-name="패스 563389" d="M282.7,252.129l2.708-1.729,3,1.563" transform="translate(-223.804 -198.233)" fill="none" stroke="#222" stroke-linecap="round" stroke-miterlimit="10" stroke-width="0.833"/>
            <path id="패스_563390" data-name="패스 563390" d="M271.517,266.771,271.392,265l-6.792.083" transform="translate(-209.475 -209.792)" fill="none" stroke="#222" stroke-linecap="round" stroke-linejoin="round" stroke-width="1.042"/>
            <line id="선_77275" data-name="선 77275" x1="0.021" y1="0.125" transform="translate(62.042 56.979)" fill="none" stroke="#222" stroke-linecap="square" stroke-linejoin="round" stroke-width="1.042"/>
            <g id="그룹_255903" data-name="그룹 255903" transform="translate(45.813 44.083)" opacity="0.2">
              <g id="그룹_255902" data-name="그룹 255902" clip-path="url(#clip-path-7)">
                <path id="패스_563391" data-name="패스 563391" d="M229.57,212.95c.5,1.4-1.208,3.313-3.833,4.25s-5.167.583-5.667-.833,1.208-3.312,3.833-4.25,5.167-.583,5.667.833" transform="translate(-219.966 -211.596)"/>
              </g>
            </g>
          </g>
        </g>
      </g>
    </g>
  </g>
</svg>
