<svg xmlns="http://www.w3.org/2000/svg" width="29" height="29"><defs><clipPath id="a"><path data-name="사각형 340475" fill="none" d="M0 0h16v16H0z"/></clipPath></defs><g data-name="그룹 484423"><path data-name="패스 679708" d="M14.5.5a14 14 0 11-14 14 14 14 0 0114-14" fill="#f9f9f9" stroke="#e4e4e4"/><g data-name="그룹 471619" transform="translate(6.5 6.496)" clip-path="url(#a)" fill="none" stroke="#111" stroke-width="1.5"><path data-name="선 133100" d="M8 10.8v4.1"/><path data-name="패스 868432" d="M4.5 14.7a18.5 18.5 0 008-.1" stroke-linecap="round"/><path data-name="선 133101" stroke-linecap="square" d="M3.9 14.6l.6.1"/><path data-name="선 133102" stroke-linecap="round" stroke-linejoin="round" d="M11.7 4.6h-.9"/><path data-name="선 133103" stroke-linejoin="round" d="M12.8 4.6h-1.5"/><path data-name="선 133104" stroke-linecap="round" stroke-linejoin="round" d="M4.6 4.6h.7"/><path data-name="선 133105" stroke-linejoin="round" d="M3.7 4.6h1.2"/><path data-name="선 133106" stroke-linecap="round" stroke-linejoin="round" d="M11.7 7.6h-.9"/><path data-name="선 133107" stroke-linejoin="round" d="M12.8 7.6h-1.5"/><path data-name="선 133108" stroke-linecap="round" stroke-linejoin="round" d="M4.6 7.6h.7"/><path data-name="선 133109" stroke-linejoin="round" d="M3.7 7.6h1.2"/><rect data-name="사각형 340474" width="9" height="10.45" rx="1.8" transform="translate(3.5 .8)"/></g></g></svg>