<svg xmlns="http://www.w3.org/2000/svg" width="20" height="20"><defs><clipPath id="a"><path fill="none" d="M0 0h20v20H0z"/></clipPath><style>.g,.h{fill:none}.b{clip-path:url(#a)}.f{fill:#111}.g,.h{stroke:#111;stroke-miterlimit:10;stroke-width:1.5px}.g{stroke-linecap:round}</style></defs><g class="b"><g class="b"><path d="M3.6 4.5h15.7a.7.7 0 01.7.7v14.1a.7.7 0 01-.7.7H6.9a4 4 0 01-4-4V5.2a.7.7 0 01.7-.7" fill="#fff"/><path class="f" d="M6.2 1.3h4.1v1.5H6.2z"/><path class="f" d="M16.5 17.7h-12A4.5 4.5 0 010 13.2V2a.7.7 0 01.8-.7h2.7a.8.8 0 010 1.5h-2v10.4a3 3 0 003 3h11.2V2.8h-4a.8.8 0 010-1.5h4.8a.8.8 0 01.8.8V17a.8.8 0 01-.7.8"/><path class="f" d="M8.2 12l-.5-.2-2.3-2.2a.743.743 0 011-1.1l1.8 1.7L11.6 7a.8.8 0 011 1.1l-3.9 3.7-.5.2"/><path class="g" d="M6.2 2.1v1.5"/><path class="h" d="M6.2 0v2.1"/><path class="g" d="M11.7 2.1v1.5"/><path class="h" d="M11.7 0v2.1"/></g></g></svg>