<svg xmlns="http://www.w3.org/2000/svg" xmlns:xlink="http://www.w3.org/1999/xlink" width="20" height="20" viewBox="0 0 20 20">
  <defs>
    <style>
      .cls-1, .cls-6, .cls-7 {
        fill: none;
      }

      .cls-2 {
        clip-path: url(#clip-path);
      }

      .cls-3 {
        opacity: 0;
      }

      .cls-4 {
        clip-path: url(#clip-path-3);
      }

      .cls-5 {
        fill: #f0f;
      }

      .cls-6, .cls-7 {
        stroke: #111;
        stroke-linecap: round;
        stroke-width: 1.5px;
      }

      .cls-6 {
        stroke-miterlimit: 10;
      }

      .cls-7 {
        stroke-linejoin: round;
      }
    </style>
    <clipPath id="clip-path">
      <rect id="사각형_226300" data-name="사각형 226300" class="cls-1" width="20" height="20"/>
    </clipPath>
    <clipPath id="clip-path-3">
      <rect id="사각형_226296" data-name="사각형 226296" class="cls-1" width="28" height="28" transform="translate(-4 -4)"/>
    </clipPath>
  </defs>
  <g id="이벤트_20x20" transform="translate(10 10)">
    <g id="그룹_294432" data-name="그룹 294432" class="cls-2" transform="translate(-10 -10)">
      <g id="그룹_294431" data-name="그룹 294431" class="cls-2">
        <g id="그룹_294428" data-name="그룹 294428" class="cls-3">
          <g id="그룹_294427" data-name="그룹 294427" class="cls-4">
            <rect id="사각형_226295" data-name="사각형 226295" class="cls-5" width="28" height="28" transform="translate(-4 -4)"/>
          </g>
        </g>
        <g id="그룹_294430" data-name="그룹 294430" class="cls-3">
          <g id="그룹_294429" data-name="그룹 294429" class="cls-2">
            <rect id="사각형_226297" data-name="사각형 226297" class="cls-5" width="20" height="20"/>
          </g>
        </g>
        <path id="패스_596881" data-name="패스 596881" class="cls-6" d="M13.6,10.2l-.9-1.1H11.2a.2.2,0,0,1-.2-.3l.7-1.2a.2.2,0,0,0,0-.2l-.4-1.3a.212.212,0,0,1,.3-.3l1.3.3h.2l1.1-.8a.2.2,0,0,1,.3.2V7l1.1.8a.2.2,0,1,1,0,.4l-1.3.5"/>
        <path id="패스_596882" data-name="패스 596882" class="cls-7" d="M8,13.8,6.9,17.2,2.4,12.5l3.4-.8"/>
        <line id="선_77307" data-name="선 77307" class="cls-7" x1="3.7" y2="3.6" transform="translate(0.8 14.9)"/>
        <path id="패스_596883" data-name="패스 596883" class="cls-7" d="M8,2.7A7,7,0,0,0,5.3,8.2a6.9,6.9,0,0,0,6.8,7,6.9,6.9,0,0,0,6.8-7,6.9,6.9,0,0,0-5.5-6.8L9.5.8s.1,1.7,1.4,2"/>
      </g>
    </g>
  </g>
</svg>
