<svg xmlns="http://www.w3.org/2000/svg" width="40" height="40" viewBox="0 0 40 40">
  <g id="icon_membership_fold_40" transform="translate(-20.048 -95.048)">
    <rect id="사각형_304825" data-name="사각형 304825" width="38" height="38" rx="19" transform="translate(22.048 97.048)" fill="#f0f0f0"/>
    <g id="사각형_246055" data-name="사각형 246055" transform="translate(20.048 95.048)" fill="none" stroke="#d7d7d7" stroke-width="1">
      <rect width="38" height="38" rx="19" stroke="none"/>
      <rect x="0.5" y="0.5" width="37" height="37" rx="18.5" fill="none"/>
    </g>
    <g id="그룹_422505" data-name="그룹 422505" transform="translate(30.717 103.654)">
      <path id="패스_694984" data-name="패스 694984" d="M21.035,12.4A8.345,8.345,0,1,1,12.8,20.745h0a8.345,8.345,0,0,1,8.235-8.235" transform="translate(-11.465 -9.204)" fill="#fff"/>
      <path id="패스_694986" data-name="패스 694986" d="M23.159,12.914a8.245,8.245,0,0,0-8.924,2.947,8.345,8.345,0,0,0,11.3,11.986,8.47,8.47,0,0,0,3.631-7.7" transform="translate(-12.495 -10.4)" fill="none" stroke="#111" stroke-linejoin="round" stroke-width="1" stroke-dasharray="1 1"/>
      <g id="그룹_422507" data-name="그룹 422507">
        <path id="패스_694988" data-name="패스 694988" d="M20.684,20.8a1.647,1.647,0,0,1-3.184,0" transform="translate(-12.004 -9.381)" fill="none" stroke="#111" stroke-linecap="square" stroke-miterlimit="10" stroke-width="1"/>
        <g id="그룹_422506" data-name="그룹 422506">
          <line id="선_93127" data-name="선 93127" y2="0.329" transform="translate(9.558 8.454)" fill="none" stroke="#111" stroke-linecap="round" stroke-width="1"/>
          <line id="선_93128" data-name="선 93128" y2="1.427" transform="translate(9.558 7.028)" fill="none" stroke="#111" stroke-width="1"/>
          <line id="선_93129" data-name="선 93129" y2="0.439" transform="translate(4.616 8.345)" fill="none" stroke="#111" stroke-linecap="round" stroke-width="1"/>
          <line id="선_93130" data-name="선 93130" y2="1.318" transform="translate(4.616 7.028)" fill="none" stroke="#111" stroke-width="1"/>
        </g>
      </g>
    </g>
    <path id="패스_837857" data-name="패스 837857" d="M.5-6.976v2.2h1.4a.742.742,0,0,1,.767.389.577.577,0,0,1,.052.241.529.529,0,0,1-.215.446.874.874,0,0,1-.509.173H.5v1.691a.632.632,0,0,1-.7.714q-.682,0-.693-.714V-3.521H-2.926v-1.25H-.9v-2.2Z" transform="translate(46.049 112.048)" fill="#111"/>
  </g>
</svg>
