<svg xmlns="http://www.w3.org/2000/svg" width="28" height="28"><defs><clipPath id="a"><path class="a" d="M0 0h28v28H0z"/></clipPath><clipPath id="c"><path class="a" transform="translate(13.3 13.2)" d="M0 0h9.2v9.65H0z"/></clipPath><style>.a,.j,.k{fill:none}.b{clip-path:url(#a)}.f{isolation:isolate}.g{clip-path:url(#c)}.j,.k{stroke:#111;stroke-miterlimit:10}.k{stroke-linecap:round}</style></defs><g class="b"><path d="M14 0A14 14 0 110 14 14 14 0 0114 0" fill="#fddb2b"/><path d="M14 .5A13.5 13.5 0 11.5 14 13.5 13.5 0 0114 .5z" stroke="#fccb3a" fill="none"/></g><g class="b"><path d="M14.5 8A6.5 6.5 0 118 14.5 6.5 6.5 0 0114.5 8" fill="#fff"/><g class="f"><g class="g"><g class="f"><text transform="translate(13.3 20)" fill="#111" font-size="8" font-family="Jost-Medium,'Jost*'" font-weight="500"><tspan x="0" y="0" letter-spacing="-.05em">2</tspan><tspan y="0">4</tspan></text></g></g></g><path class="j" d="M13.6 12.4l-1.1 1-2.6-1.6"/><path class="k" d="M15.6 10.7l-2 1.7M13.3 7a6.2 6.2 0 016.3 6.3"/><path class="j" d="M13.3 19.5a6.3 6.3 0 010-12.5"/></g></svg>