<svg xmlns="http://www.w3.org/2000/svg" xmlns:xlink="http://www.w3.org/1999/xlink" width="40" height="50" viewBox="0 0 40 50">
  <defs>
    <clipPath id="clip-path">
      <rect id="사각형_257945" data-name="사각형 257945" width="40" height="50" fill="none"/>
    </clipPath>
  </defs>
  <g id="그룹_348338" data-name="그룹 348338" transform="translate(-18005 -11713)">
    <g id="멤버십아이콘_골드_40x50" transform="translate(18005 11713)" clip-path="url(#clip-path)">
      <path id="패스_694991" data-name="패스 694991" d="M2.2,2.8V37.6a4.4,4.4,0,0,0,2.2,3.8L17,48.8a4.4,4.4,0,0,0,4.4,0L34,41.5a4.4,4.4,0,0,0,2.2-3.8V2.8Z" fill="#fff"/>
      <path id="패스_694992" data-name="패스 694992" d="M3.7,4.3V37.9A4.4,4.4,0,0,0,6,41.7l12.6,7.2a4.5,4.5,0,0,0,4.4,0l12.6-7.2a4.4,4.4,0,0,0,2.2-3.8V4.3a1,1,0,0,0-1-1H4.7a1,1,0,0,0-1,1Z" fill="#fddb2b"/>
      <path id="패스_694993" data-name="패스 694993" d="M2.2,1.8V37.6a4.4,4.4,0,0,0,2.2,3.8L17,48.8a4.4,4.4,0,0,0,4.4,0L34,41.5a4.4,4.4,0,0,0,2.2-3.8V1.8Z" fill="none" stroke="#fccb3a" stroke-linejoin="round" stroke-width="1"/>
      <g id="그룹_343297" data-name="그룹 343297" transform="translate(-0.827 -1.891)">
        <g id="그룹_343294" data-name="그룹 343294" transform="translate(12.495 9.496)">
          <path id="패스_694984" data-name="패스 694984" d="M21.035,12.4A8.345,8.345,0,1,1,12.8,20.745h0a8.345,8.345,0,0,1,8.235-8.235" transform="translate(-12.465 -10.204)" fill="#fff"/>
          <path id="패스_694985" data-name="패스 694985" d="M13.3,17a8.125,8.125,0,0,1,1.537-2.2" transform="translate(-12.416 -9.969)" fill="none" stroke="#111" stroke-linecap="square" stroke-linejoin="round" stroke-width="1"/>
          <path id="패스_694986" data-name="패스 694986" d="M14.806,10.4s0,3.184,1.976,3.184h.11a8.345,8.345,0,1,1-3.623,3.843" transform="translate(-12.495 -10.4)" fill="none" stroke="#111" stroke-linecap="round" stroke-linejoin="round" stroke-width="1"/>
          <path id="패스_694987" data-name="패스 694987" d="M17.011,10.9s-.549,1.867.659,2.086" transform="translate(-12.064 -10.351)" fill="none" stroke="#111" stroke-linecap="round" stroke-linejoin="round" stroke-width="1"/>
          <path id="패스_694988" data-name="패스 694988" d="M20.684,20.8a1.647,1.647,0,0,1-3.184,0" transform="translate(-12.004 -9.381)" fill="none" stroke="#111" stroke-linecap="square" stroke-miterlimit="10" stroke-width="1"/>
          <line id="선_93127" data-name="선 93127" y2="0.329" transform="translate(9.557 8.454)" fill="none" stroke="#111" stroke-linecap="round" stroke-width="1"/>
          <line id="선_93128" data-name="선 93128" y2="1.427" transform="translate(9.557 7.028)" fill="none" stroke="#111" stroke-width="1"/>
          <line id="선_93129" data-name="선 93129" y2="0.439" transform="translate(4.617 8.345)" fill="none" stroke="#111" stroke-linecap="round" stroke-width="1"/>
          <line id="선_93130" data-name="선 93130" y2="1.318" transform="translate(4.617 7.028)" fill="none" stroke="#111" stroke-width="1"/>
        </g>
        <g id="그룹_343295" data-name="그룹 343295" transform="translate(23.668 8.3)">
          <path id="패스_694999" data-name="패스 694999" d="M25.577,11.194,22.8,10.428l1.628,2.586L22.9,15.6l2.777-1.149,2.107,2.49-.1-3.065,2.586-1.437-2.682-.766L27.206,8.8Z" transform="translate(-22.8 -7.8)" fill="#fff"/>
          <path id="패스_695000" data-name="패스 695000" d="M25.577,11.194,22.8,10.428l1.628,2.586L22.9,15.6l2.777-1.149,2.107,2.49-.1-3.065,2.586-1.437-2.682-.766L27.206,8.8Z" transform="translate(-22.8 -7.8)" fill="none" stroke="#111" stroke-linejoin="round" stroke-width="1"/>
        </g>
      </g>
    </g>
    <text id="골드" transform="translate(18024.9 11750.5)" fill="#111" font-size="7.5" font-family="MoebiusKorea-Bold, Moebius Korea" font-weight="700" letter-spacing="-0.03em"><tspan x="-6.637" y="0">골드</tspan></text>
  </g>
</svg>
