<svg xmlns="http://www.w3.org/2000/svg" width="43.132" height="16" viewBox="0 0 43.132 16"><defs><style>.a{fill:#111;}.b{fill:#00c73c;}.c{fill:#fff;}</style></defs><g transform="translate(-247 -290)"><g transform="translate(268.598 292.869)"><path class="a" d="M225.242,701.032h3.492a4.411,4.411,0,0,1,1.435.21,2.786,2.786,0,0,1,1.008.583,2.34,2.34,0,0,1,.6.888,3.1,3.1,0,0,1,.2,1.112v.285a2.972,2.972,0,0,1-.21,1.119,2.626,2.626,0,0,1-.615.916,2.932,2.932,0,0,1-1.008.624,3.9,3.9,0,0,1-1.4.23h-2.151v3.811h-1.342Zm1.342,1.167v3.634h1.926q2.115,0,2.115-1.749v-.244a1.481,1.481,0,0,0-.508-1.241,2.314,2.314,0,0,0-1.458-.4Z" transform="translate(-225.242 -701.032)"/><path class="a" d="M254.713,716.472a2.674,2.674,0,0,1-1.783-.556,1.9,1.9,0,0,1-.658-1.532v-.366a2.022,2.022,0,0,1,.637-1.546,2.956,2.956,0,0,1,2.061-.6h1.885v-.434a1.507,1.507,0,0,0-.359-1.105,1.613,1.613,0,0,0-1.173-.359,2.894,2.894,0,0,0-1.132.2,6.246,6.246,0,0,0-1,.542l-.651-.977a6.263,6.263,0,0,1,1.22-.658,4.13,4.13,0,0,1,1.573-.278,3.931,3.931,0,0,1,1.139.156,2.558,2.558,0,0,1,.888.461,2.146,2.146,0,0,1,.583.746,2.289,2.289,0,0,1,.21,1v5.194H256.9v-.9h-.014a1.422,1.422,0,0,1-.291.373,2.108,2.108,0,0,1-.4.292,2.771,2.771,0,0,1-.644.251A3.419,3.419,0,0,1,254.713,716.472Zm2.143-3.485H255a1.642,1.642,0,0,0-1.105.3,1.054,1.054,0,0,0-.332.827v.19a.865.865,0,0,0,.38.787,1.643,1.643,0,0,0,.908.244,2.776,2.776,0,0,0,.848-.115,2.133,2.133,0,0,0,.658-.346,1.179,1.179,0,0,0,.387-.468,1.735,1.735,0,0,0,.115-.685Z" transform="translate(-244.543 -706.586)"/><path class="a" d="M280.281,715.21l1.953-5.927h1.383l-3.851,10.483-1.193-.421.963-2.536-2.7-7.527h1.424l1.966,5.927Z" transform="translate(-262.083 -706.924)"/></g><g transform="translate(247 289.516)"><rect class="b" width="16" height="16" transform="translate(0 0.484)"/><path class="c" d="M168.907,712.265l-2.76-4.055v4.055h-2.878v-7.833h2.918l2.76,4.054v-4.054h2.877v7.833Z" transform="translate(-159.392 -700.107)"/></g></g></svg>