<svg xmlns="http://www.w3.org/2000/svg" width="24" height="24" viewBox="0 0 24 24"><defs><style>.a{fill:#e30413;}.b{fill:#fff;}</style></defs><g transform="translate(-1 -1)"><circle class="a" cx="12" cy="12" r="12" transform="translate(1 1)"/><g transform="translate(10.265 7.618)"><path class="b" d="M242.955,347.333a.637.637,0,1,1,.027,0h-.027" transform="translate(-242.312 -336.743)"/><path class="b" d="M245.4,298.861a.885.885,0,0,0-.669.27,3.335,3.335,0,0,0-.564,2.283c.022,1.329.328,3.94,1.337,5.283a2.3,2.3,0,0,0,.524.517,1.141,1.141,0,0,0,.689.24,1.5,1.5,0,0,0,.27-.026,3.687,3.687,0,0,0,1.844-1.7.442.442,0,0,1,.379-.216.435.435,0,0,1,.237.071.459.459,0,0,1,.2.289.473.473,0,0,1-.057.348,4.42,4.42,0,0,1-2.411,2.112l-.021,0a2.413,2.413,0,0,1-.443.043,2.018,2.018,0,0,1-1.177-.393,3.194,3.194,0,0,1-.736-.72c-1.422-1.892-1.52-5.438-1.526-5.836a4.282,4.282,0,0,1,.828-2.954,1.741,1.741,0,0,1,1.293-.537h.083a1.743,1.743,0,0,1,1.3.537,4.285,4.285,0,0,1,.828,2.954,9.8,9.8,0,0,1-1.175,4.6.446.446,0,0,1-.383.225.432.432,0,0,1-.229-.066.472.472,0,0,1-.154-.634,8.236,8.236,0,0,0,1.048-4.137,3.337,3.337,0,0,0-.564-2.283.883.883,0,0,0-.667-.27Z" transform="translate(-243.038 -297.938)"/></g></g></svg>