<svg xmlns="http://www.w3.org/2000/svg" width="38" height="38"><defs><clipPath id="a"><path data-name="사각형 291597" fill="none" d="M0 0h24v24H0z"/></clipPath></defs><g data-name="그룹 372272"><g data-name="타원 9104" fill="#3673ee" stroke="#3167d6"><circle cx="19" cy="19" r="19" stroke="none"/><circle cx="19" cy="19" r="18.5" fill="none"/></g><g data-name="그룹 380951" transform="translate(7 7)" clip-path="url(#a)" fill="none" stroke="#fff" stroke-width="1.5"><path data-name="패스 770999" d="M22.4 16.5a3.3 3.3 0 01-5.7 2.1.5.5 0 00-.7-.1 8.3 8.3 0 113.9-6.9 8.2 8.2 0 01-.3 1.9 3.2 3.2 0 012.8 3z"/><path data-name="패스 771000" d="M16.2 15.3a3.3 3.3 0 013-2.1h.3"/><path data-name="패스 771001" d="M7.7 8.2a3.3 3.3 0 012.7-1.5" stroke-linecap="round"/><path data-name="패스 771002" d="M7.1 9.3l.6-1"/></g></g></svg>