<svg xmlns="http://www.w3.org/2000/svg" xmlns:xlink="http://www.w3.org/1999/xlink" width="37.772" height="10.291" viewBox="0 0 37.772 10.291"><defs><style>.a{fill:none;}.b{clip-path:url(#a);}.c{fill:#002a84;}.d{fill:#fff;}</style><clipPath id="a"><rect class="a" width="37.772" height="10.291"/></clipPath></defs><g transform="translate(18.886 5.146)"><g class="b" transform="translate(-18.886 -5.146)"><path class="c" d="M0,14.564l2.9-3.627c.524-.627.944-1.071,1.468-1.643v-.04H.222V7H7.842V8.714L5.08,12.191a21.228,21.228,0,0,1-1.508,1.7v.04H7.992v2.278H0Z" transform="translate(0 -6.444)"/><path class="c" d="M119.435,10.123c.167,1.206,1.167,1.746,2.5,1.746a4.434,4.434,0,0,0,2.119-.587l1.056,1.691a6.187,6.187,0,0,1-3.508,1.016,4.491,4.491,0,0,1-4.8-4.683c0-2.548,1.389-4.905,4.659-4.905,2.643,0,4.1,2.1,4.1,4.588a6.8,6.8,0,0,1-.1,1.136Zm3.6-1.96a1.81,1.81,0,0,0-3.619,0Z" transform="translate(-107.53 -4.051)"/><path class="c" d="M256.048,7.024a2.419,2.419,0,0,0-2.191.873V7H251v9.2h2.857V11.762a3.38,3.38,0,0,1,.056-.643,1.849,1.849,0,0,1,1.96-1.452h2.167V7.056l-2-.04" transform="translate(-231.078 -6.444)"/><path class="c" d="M417.4,57.292c0,.214.2.278.389.278.421,0,.516-.325.516-.77a2.211,2.211,0,0,1-.54.143c-.19.048-.365.127-.365.341" transform="translate(-384.271 -52.292)"/><path class="c" d="M378.6,36.3H378v.913h.6c.294,0,.508-.111.508-.444a.445.445,0,0,0-.508-.468" transform="translate(-347.998 -33.419)"/><path class="c" d="M356.775,6.646c-.214.587-.532.706-1.127.706h-.365l-.048-.754h.31a.31.31,0,0,0,.349-.3,3.2,3.2,0,0,0-.222-.706l-.691-1.865h.929l.508,1.643h.008l.508-1.643h.214a5.1,5.1,0,1,0,.325,1.008Zm-6.223-1.476h-.746V6.407h-.921V2.741h1.667c.683,0,1.278.294,1.278,1.175a1.126,1.126,0,0,1-1.278,1.262m3.357,1.23a1.057,1.057,0,0,1-.056-.254,1.22,1.22,0,0,1-.889.333c-.516,0-.913-.262-.913-.81,0-.873.952-.81,1.564-.929.151-.032.23-.079.23-.246s-.246-.278-.421-.278a.437.437,0,0,0-.437.333h-.825a.825.825,0,0,1,.421-.722,1.77,1.77,0,0,1,.857-.183c.635,0,1.254.143,1.254.9V5.717a1.576,1.576,0,0,0,.1.691Z" transform="translate(-319.805 -0.629)"/><path class="d" d="M368.067,26.508H366.4v3.667h.921V28.937h.746c.8,0,1.278-.341,1.278-1.262s-.6-1.175-1.278-1.175m-.143,1.683h-.6v-.9h.6c.294,0,.508.119.508.468s-.214.444-.508.444" transform="translate(-337.319 -24.397)"/><path class="d" d="M408.935,38.883c0-.762-.619-.9-1.254-.9a1.77,1.77,0,0,0-.849.183.825.825,0,0,0-.421.722h.825a.388.388,0,0,1,.437-.333c.238,0,.421.079.421.278s-.079.214-.23.246c-.611.127-1.564.056-1.564.929,0,.556.4.81.913.81a1.232,1.232,0,0,0,.889-.333,1.059,1.059,0,0,0,.056.254h.889a1.575,1.575,0,0,1-.1-.691Zm-1.357,1.373c-.2,0-.389-.063-.389-.278s.167-.294.365-.341a2.03,2.03,0,0,0,.54-.143c0,.437-.1.77-.516.77" transform="translate(-374.052 -34.971)"/><path class="d" d="M444.552,40.643h-.008L444.036,39H443.1l.691,1.865a3.312,3.312,0,0,1,.222.706.335.335,0,0,1-.349.3h-.31l.048.754h.365c.6,0,.913-.111,1.127-.706l.7-1.913A5.1,5.1,0,0,0,445.267,39h-.214Z" transform="translate(-407.931 -35.905)"/></g></g></svg>