<svg id="icon_more_20" xmlns="http://www.w3.org/2000/svg" width="20" height="20" viewBox="0 0 20 20">
  <rect id="사각형_65385" data-name="사각형 65385" width="20" height="20" fill="red" opacity="0"/>
  <g id="option_icon" transform="translate(9 2)">
    <rect id="guide" width="3" height="15" transform="translate(0 0)" fill="#999" opacity="0"/>
    <path id="합치기_226" data-name="합치기 226" d="M1043,7035.5a1.5,1.5,0,1,1,1.5,1.5A1.5,1.5,0,0,1,1043,7035.5Zm0-6a1.5,1.5,0,1,1,1.5,1.5A1.5,1.5,0,0,1,1043,7029.5Zm0-6a1.5,1.5,0,1,1,1.5,1.5A1.5,1.5,0,0,1,1043,7023.5Z" transform="translate(-1043 -7022)" fill="#999"/>
  </g>
</svg>
