<svg xmlns="http://www.w3.org/2000/svg" width="24" height="24"><defs><clipPath id="a"><path data-name="사각형 296097" fill="none" d="M0 0h24v24H0z"/></clipPath></defs><g data-name="그룹 385542" clip-path="url(#a)"><g data-name="그룹 385537" clip-path="url(#a)"><path data-name="선 113872" fill="none" stroke="#111" stroke-linecap="round" stroke-width="1.5" d="M21.8 3.2h1.4"/></g><path data-name="선 113873" fill="none" stroke="#111" stroke-width="1.5" d="M14 3.2h7.8"/><g data-name="그룹 385538" clip-path="url(#a)"><path data-name="선 113874" fill="none" stroke="#111" stroke-linecap="round" stroke-miterlimit="10" stroke-width="1.5" d="M21.8 10h1.4"/></g><path data-name="선 113875" fill="none" stroke="#111" stroke-miterlimit="10" stroke-width="1.5" d="M17.4 10h4.4"/><g data-name="그룹 385539" clip-path="url(#a)"><path data-name="선 113876" fill="none" stroke="#111" stroke-linecap="round" stroke-width="1.5" d="M21.8 16.6h1.4"/></g><path data-name="선 113877" fill="none" stroke="#111" stroke-width="1.5" d="M17 16.6h4.8"/><g data-name="그룹 385540" clip-path="url(#a)" fill="none" stroke="#111" stroke-miterlimit="10" stroke-width="1.5"><circle data-name="타원 9714" cx="8.2" cy="8.2" r="8.2" transform="translate(1 1.5)"/><path data-name="선 113878" stroke-linecap="round" d="M17.7 22.5h5.5"/><path data-name="선 113879" d="M2.5 22.5h15.2"/></g><g data-name="그룹 385541" clip-path="url(#a)"><path data-name="패스 779844" d="M7 6l1.4-.5h.9a3 3 0 011.7.4 1.7 1.7 0 01.7 1.5 2.3 2.3 0 01-1 1.7h-.2l-.8.6a.6.6 0 00-.3.4q0 .6-.7.6t-.9-.9a1.5 1.5 0 01.6-.8l1-.7a1.1 1.1 0 00.6-.8q0-.7-.9-.7a2.4 2.4 0 00-1.5.5zm1.8 5.9a1.1 1.1 0 01.8.3.967.967 0 010 1.4 1.1 1.1 0 01-.8.3 1.1 1.1 0 01-.8-.3.967.967 0 010-1.4 1.1 1.1 0 01.8-.3"/></g></g></svg>