<svg xmlns="http://www.w3.org/2000/svg" xmlns:xlink="http://www.w3.org/1999/xlink" width="110" height="110" viewBox="0 0 110 110">
  <defs>
    <clipPath id="clip-path">
      <rect id="사각형_368067" data-name="사각형 368067" width="110" height="110" fill="none"/>
    </clipPath>
    <clipPath id="clip-path-3">
      <rect id="사각형_368058" data-name="사각형 368058" width="83.38" height="48.158" fill="none"/>
    </clipPath>
    <clipPath id="clip-path-4">
      <path id="패스_1324556" data-name="패스 1324556" d="M505.05,303.767a6.072,6.072,0,0,1,2.75,4.767c0,1.76-1.228,2.475-2.75,1.6a6.072,6.072,0,0,1-2.75-4.767c0-1.247.623-1.962,1.522-1.962a2.494,2.494,0,0,1,1.228.367" transform="translate(-502.3 -303.4)" fill="none"/>
    </clipPath>
    <linearGradient id="linear-gradient" x1="17.743" y1="7.15" x2="17.71" y2="7.15" gradientUnits="objectBoundingBox">
      <stop offset="0" stop-color="#c2c1c1"/>
      <stop offset="1" stop-color="#dfdedd"/>
    </linearGradient>
    <clipPath id="clip-path-6">
      <path id="패스_1324562" data-name="패스 1324562" d="M270.05,439.467a6.072,6.072,0,0,1,2.75,4.767c0,1.76-1.228,2.475-2.75,1.6a6.072,6.072,0,0,1-2.75-4.767c0-1.247.623-1.962,1.522-1.962a2.493,2.493,0,0,1,1.228.367" transform="translate(-267.3 -439.1)" fill="none"/>
    </clipPath>
    <linearGradient id="linear-gradient-2" x1="9.91" y1="3.879" x2="9.877" y2="3.879" xlink:href="#linear-gradient"/>
    <clipPath id="clip-path-8">
      <rect id="사각형_368063" data-name="사각형 368063" width="23.888" height="13.075" fill="none"/>
    </clipPath>
    <clipPath id="clip-path-9">
      <rect id="사각형_368064" data-name="사각형 368064" width="87.23" height="47.28" fill="none"/>
    </clipPath>
    <clipPath id="clip-path-10">
      <rect id="사각형_368065" data-name="사각형 368065" width="16.353" height="9.115" fill="none"/>
    </clipPath>
  </defs>
  <g id="illust_visit_tmap_110" transform="translate(55 55)">
    <g id="그룹_497776" data-name="그룹 497776" transform="translate(-55 -55)" clip-path="url(#clip-path)">
      <g id="그룹_497765" data-name="그룹 497765" clip-path="url(#clip-path)">
        <g id="그룹_497764" data-name="그룹 497764" transform="translate(7.627 45.008)" opacity="0.2">
          <g id="그룹_497763" data-name="그룹 497763" clip-path="url(#clip-path-3)">
            <path id="패스_1324551" data-name="패스 1324551" d="M103.613,260.969h0a2.75,2.75,0,0,0,1.375,2.42l52.158,29.993a3.108,3.108,0,0,0,2.842,0l26.418-15.363a.875.875,0,0,0,0-1.65L132.579,245.9a3.165,3.165,0,0,0-2.842,0c-16.317,1.76-25.593,6.527-26.107,15.07" transform="translate(-103.613 -245.551)"/>
          </g>
        </g>
        <path id="패스_1324552" data-name="패스 1324552" d="M478.12,283.15,481,281.5l.77.422a14.018,14.018,0,0,1,6.27,10.377l1.265.605a2.422,2.422,0,0,1-.477.33l-3.465,1.98a3.463,3.463,0,0,1-3.593-.293A11,11,0,0,1,476.8,286.3a3.579,3.579,0,0,1,1.32-3.135" transform="translate(-466.717 -229.892)" fill="#222"/>
        <path id="패스_1324553" data-name="패스 1324553" d="M490.7,291.777a10.988,10.988,0,0,0,4.987,8.617c2.75,1.577,4.968.293,4.968-2.878a11.018,11.018,0,0,0-4.968-8.617c-2.732-1.577-4.987-.293-4.987,2.878" transform="translate(-480.617 -235.383)" fill="#222"/>
        <path id="패스_1324554" data-name="패스 1324554" d="M493.5,294.742a10.154,10.154,0,0,0,4.583,7.938c2.53,1.467,4.583.275,4.583-2.64a10.154,10.154,0,0,0-4.583-7.938c-2.53-1.467-4.583-.275-4.583,2.64" transform="translate(-483.142 -238.037)" fill="#222"/>
        <path id="패스_1324555" data-name="패스 1324555" d="M500.2,303.121a7.551,7.551,0,0,0,3.428,5.922c1.888,1.082,3.428.2,3.428-1.98a7.551,7.551,0,0,0-3.428-5.922c-1.888-1.082-3.428-.2-3.428,1.98" transform="translate(-488.76 -245.554)" fill="#fff"/>
      </g>
      <g id="그룹_497766" data-name="그룹 497766" transform="translate(12.412 55.623)" clip-path="url(#clip-path-4)">
        <rect id="사각형_368060" data-name="사각형 368060" width="5.5" height="7.607" transform="translate(0 -0.018)" fill="url(#linear-gradient)"/>
      </g>
      <g id="그룹_497767" data-name="그룹 497767" clip-path="url(#clip-path)">
        <path id="패스_1324557" data-name="패스 1324557" d="M527.293,278.418l-2.878,1.65a3.351,3.351,0,0,0-1.3,2.548l-1.082.312v-.238c-.275-3.777,1.228-6.233,5.262-4.272" transform="translate(-512.993 -226.81)" fill="#212020"/>
        <path id="패스_1324558" data-name="패스 1324558" d="M243.02,418.85l2.878-1.65.77.422A14.019,14.019,0,0,1,252.938,428l1.265.6a2.422,2.422,0,0,1-.477.33l-3.465,1.98a3.463,3.463,0,0,1-3.593-.293A11,11,0,0,1,241.7,422a3.579,3.579,0,0,1,1.32-3.135" transform="translate(-188.515 -340.713)" fill="#222"/>
        <path id="패스_1324559" data-name="패스 1324559" d="M255.8,427.562a11.019,11.019,0,0,0,4.968,8.617c2.732,1.577,4.968.293,4.968-2.878a11.018,11.018,0,0,0-4.968-8.617c-2.732-1.577-4.968-.312-4.968,2.878" transform="translate(-202.633 -346.272)" fill="#222"/>
        <path id="패스_1324560" data-name="패스 1324560" d="M258.5,430.542a10.154,10.154,0,0,0,4.583,7.938c2.53,1.467,4.583.275,4.583-2.64a10.154,10.154,0,0,0-4.583-7.938c-2.53-1.467-4.583-.275-4.583,2.64" transform="translate(-205.058 -348.94)" fill="#222"/>
        <path id="패스_1324561" data-name="패스 1324561" d="M265.2,438.821a7.551,7.551,0,0,0,3.428,5.922c1.888,1.082,3.428.2,3.428-1.98a7.551,7.551,0,0,0-3.428-5.922c-1.888-1.082-3.428-.2-3.428,1.98" transform="translate(-210.677 -356.376)" fill="#fff"/>
      </g>
      <g id="그룹_497768" data-name="그룹 497768" transform="translate(55.495 80.502)" clip-path="url(#clip-path-6)">
        <rect id="사각형_368062" data-name="사각형 368062" width="5.5" height="7.607" transform="translate(0 -0.018)" fill="url(#linear-gradient-2)"/>
      </g>
      <g id="그룹_497775" data-name="그룹 497775" clip-path="url(#clip-path)">
        <path id="패스_1324563" data-name="패스 1324563" d="M292.293,414.118l-2.878,1.65a3.352,3.352,0,0,0-1.3,2.548l-1.082.312v-.238c-.275-3.777,1.228-6.233,5.262-4.272" transform="translate(-234.91 -337.632)" fill="#212020"/>
        <path id="패스_1324564" data-name="패스 1324564" d="M109.124,157.8s-4.455,1.888-6.783,3.263c-1.815,1.082-7.443,4.583-10.028,6.343a5.537,5.537,0,0,0-1.907,2.218,12.687,12.687,0,0,0-1.228,4.033c-.275,2.273.22,6.1.88,7.3a8.1,8.1,0,0,0,1.412,1.687,5.15,5.15,0,0,1-.018-.532c0-3.74,2.823-5.06,6.545-2.695,3.153,2,5.867,6.417,5.867,10.157,0,.22-.018.44-.018.642l.752.44,30.342,17.288v-.238c-.293-4,1.43-6.545,6.05-3.868a14.018,14.018,0,0,1,6.27,10.377,18.958,18.958,0,0,0,1.742.807c1.448.568,2.677-.568,5.793-2.145s15.052-9.093,17.508-10.633,3.483-2.952,3.722-4.107a55.121,55.121,0,0,0,.458-6.178,5.867,5.867,0,0,0-.917-2.493,17.084,17.084,0,0,1,0-2.035,32.922,32.922,0,0,0-.367-4.052l-.862-.862a27.557,27.557,0,0,0-1.228-4.143l-.128-.348a9.808,9.808,0,0,0-4.693-5.188l-30.58-15.9a8.837,8.837,0,0,0-6.252-.733,23.213,23.213,0,0,0-3.722,1.3l-7.755-1.925a15.752,15.752,0,0,0-8.6,1.283Z" transform="translate(-82.816 -126.93)" fill="#fff"/>
        <path id="패스_1324565" data-name="패스 1324565" d="M109.124,157.8s-4.455,1.888-6.783,3.263c-1.815,1.082-7.443,4.583-10.028,6.343a5.537,5.537,0,0,0-1.907,2.218,12.687,12.687,0,0,0-1.228,4.033c-.275,2.273.22,6.1.88,7.3a8.1,8.1,0,0,0,1.412,1.687,5.15,5.15,0,0,1-.018-.532c0-3.74,2.823-5.06,6.545-2.695,3.153,2,5.867,6.417,5.867,10.157,0,.22-.018.44-.018.642l.752.44,30.342,17.288v-.238c-.293-4,1.43-6.545,6.05-3.868a14.018,14.018,0,0,1,6.27,10.377,18.958,18.958,0,0,0,1.742.807c1.448.568,2.677-.568,5.793-2.145s15.052-9.093,17.508-10.633,3.483-2.952,3.722-4.107a55.121,55.121,0,0,0,.458-6.178,5.867,5.867,0,0,0-.917-2.493,17.084,17.084,0,0,1,0-2.035,32.922,32.922,0,0,0-.367-4.052l-.862-.862a27.557,27.557,0,0,0-1.228-4.143l-.128-.348a9.808,9.808,0,0,0-4.693-5.188l-30.58-15.9a8.837,8.837,0,0,0-6.252-.733,23.213,23.213,0,0,0-3.722,1.3l-7.755-1.925a15.752,15.752,0,0,0-8.6,1.283Z" transform="translate(-82.816 -126.93)" fill="none" stroke="#222" stroke-linejoin="round" stroke-width="0.55"/>
        <g id="그룹_497770" data-name="그룹 497770" transform="translate(21.597 30.397)" opacity="0.18">
          <g id="그룹_497769" data-name="그룹 497769" clip-path="url(#clip-path-8)">
            <path id="패스_1324566" data-name="패스 1324566" d="M352.083,178.953a19.062,19.062,0,0,1,2.75-1.082c1.613-.99,3.667-2.255,4.987-3.1,2.457-1.577,16.06-8.1,16.06-8.1l-.128-.77-.477.2-.7-.183-2.237.587c-3.942.99-4.968,1.265-11.33,4.565-5.867,3.043-9.625,6.142-8.928,7.883" transform="translate(-352.01 -165.882)" fill="#222"/>
          </g>
        </g>
        <path id="패스_1324567" data-name="패스 1324567" d="M304.118,172.057c4.6-2.273,10.872-2.548,12.852-2.585,1.668-1.228,4.492-3.227,7.92-5.408a67.857,67.857,0,0,1,11.825-5.757c-.642-.165-2.328-.788-2.8-.825a12.238,12.238,0,0,0-6.563,1.687l-.495-.128a65.218,65.218,0,0,0-14.282,6.252c-5.188,3.1-7.333,5.28-8.47,6.747" transform="translate(-282.467 -128.589)" fill="#333"/>
        <path id="패스_1324568" data-name="패스 1324568" d="M93.968,309.032a7.381,7.381,0,0,1,.4.642,3.813,3.813,0,0,1-1.668,1.65h0l-.4-8.745.257-.678.99.88a32.372,32.372,0,0,1,.422,4.162,15.675,15.675,0,0,0,0,2.09" transform="translate(-1.293 -246.552)" fill="#f8483b"/>
        <path id="패스_1324569" data-name="패스 1324569" d="M93.968,309.032a7.381,7.381,0,0,1,.4.642,3.813,3.813,0,0,1-1.668,1.65h0l-.4-8.745.257-.678.99.88a32.372,32.372,0,0,1,.422,4.162A15.676,15.676,0,0,0,93.968,309.032Z" transform="translate(-1.293 -246.552)" fill="none" stroke="#222" stroke-linejoin="round" stroke-width="0.367"/>
        <path id="패스_1324570" data-name="패스 1324570" d="M94.326,321.21l-.165-3.667a7.717,7.717,0,0,0,1.32-.843,16.926,16.926,0,0,1,.183,2.438c-.037.495-.037.66-.037.972a7.37,7.37,0,0,1-1.3,1.1" transform="translate(-2.934 -258.638)" fill="#fff"/>
        <path id="패스_1324571" data-name="패스 1324571" d="M94.326,321.21l-.165-3.667a7.717,7.717,0,0,0,1.32-.843,16.926,16.926,0,0,1,.183,2.438c-.037.495-.037.66-.037.972A7.37,7.37,0,0,1,94.326,321.21Z" transform="translate(-2.934 -258.638)" fill="none" stroke="#222" stroke-linejoin="round" stroke-width="0.367"/>
        <path id="패스_1324572" data-name="패스 1324572" d="M91.363,362.622c1.192-.44.348-2.365.348-2.365a3.741,3.741,0,0,0,1.192.348,16.76,16.76,0,0,0,2.438-.7,30.19,30.19,0,0,0,.44,3.52c.422,2.053.293,2.255.293,2.255.312-.165,6.8-3.685,9.46-5.317s6.6-4.052,9.13-5.7,2.86-2.365,3.08-3.1.495-5.353.495-5.353a3.548,3.548,0,0,0,1.448-1.613,4.639,4.639,0,0,1,.568,1.87,51.107,51.107,0,0,1-.458,6.178c-.257,1.155-1.265,2.567-3.722,4.107s-14.392,9.057-17.508,10.633-4.345,2.7-5.793,2.145c-.257-.11-.88-.4-1.742-.807a13.342,13.342,0,0,0-1.833-5.7,8.013,8.013,0,0,0,2.163-.4Z" transform="translate(-26.61 -281.423)" fill="none" stroke="#222" stroke-linejoin="round" stroke-width="0.367"/>
        <g id="그룹_497772" data-name="그룹 497772" transform="translate(6.398 40.902)" opacity="0.18">
          <g id="그룹_497771" data-name="그룹 497771" clip-path="url(#clip-path-9)">
            <path id="패스_1324573" data-name="패스 1324573" d="M176.061,245.778l-1.1.788-.715.4-.385-8.6.385-.825-2.053-5.812-22.4,13.457a5.867,5.867,0,0,0-2.952-5.1L117.065,223.1a30.535,30.535,0,0,0-12.613,2.567l-7.333-.385-.972.568a9.3,9.3,0,0,1-3.85,1.228l-3.007.275a55.159,55.159,0,0,0,0,6.087,9.112,9.112,0,0,0,1.925,4.6c-.037-7.462,6.655-3.813,6.655-3.813,6.765,4.95,5.958,11.275,5.958,11.275l31.075,17.71c-.66-8.158,5.243-4.528,5.243-4.528a13.927,13.927,0,0,1,7.04,10.78l3.025.917s18.608-11.037,20.827-11.788,4.363-3.887,4.363-3.887l.642-1.76.385-5.7Zm-41.2,13.933-12.8-7.48v-.22a.513.513,0,0,1,.77-.44l12.613,7.113Z" transform="translate(-89.18 -223.1)" fill="#222"/>
          </g>
        </g>
        <path id="패스_1324574" data-name="패스 1324574" d="M225.7,390.882c-.5-1.137-.642-4.693-.587-6.545s1.1-1.705,1.65-1.833,2.475-.4,2.475-.4l.073,8.452a16.758,16.758,0,0,1-2.438.7,3.74,3.74,0,0,1-1.192-.348" transform="translate(-160.578 -312.048)" fill="#f8483b"/>
        <path id="패스_1324575" data-name="패스 1324575" d="M225.7,390.882c-.5-1.137-.642-4.693-.587-6.545s1.1-1.705,1.65-1.833,2.475-.4,2.475-.4l.073,8.452a16.758,16.758,0,0,1-2.438.7A3.451,3.451,0,0,1,225.7,390.882Z" transform="translate(-160.578 -312.048)" fill="none" stroke="#222" stroke-linejoin="round" stroke-width="0.367"/>
        <path id="패스_1324576" data-name="패스 1324576" d="M227.329,395.1l.037,3.777c-.99.293-1.815.22-2-.055a5.56,5.56,0,0,1-.092-2.383c.128-.862,1.43-1.155,2.053-1.338" transform="translate(-158.653 -322.665)" fill="#fff"/>
        <path id="패스_1324577" data-name="패스 1324577" d="M227.329,395.1l.037,3.777c-.99.293-1.815.22-2-.055a5.56,5.56,0,0,1-.092-2.383C225.4,395.577,226.706,395.3,227.329,395.1Z" transform="translate(-158.653 -322.665)" fill="none" stroke="#222" stroke-linejoin="round" stroke-width="0.367"/>
        <path id="패스_1324578" data-name="패스 1324578" d="M266.808,251.707c0-1.21.055-3.575.092-5.207a8.6,8.6,0,0,0-4.473-7.81L234.578,222.3" transform="translate(-199.91 -181.545)" fill="none" stroke="#222" stroke-linecap="round" stroke-miterlimit="10" stroke-width="0.367"/>
        <path id="패스_1324579" data-name="패스 1324579" d="M130.007,284.286l.733,5.757a2.452,2.452,0,0,1-1.027,2.585l-17.307,10.12a.825.825,0,0,1-1.228-.7L111,294.919a.825.825,0,0,1,.4-.733l17.4-10.395a.825.825,0,0,1,1.21.477" transform="translate(-41.109 -231.669)" fill="#333"/>
        <path id="패스_1324580" data-name="패스 1324580" d="M481.9,237.1h0" transform="translate(-460.248 -193.632)" fill="#141c1e"/>
        <path id="패스_1324581" data-name="패스 1324581" d="M398.543,314.894l-3.777-2.182c-.2-.11-.367,0-.367.275v1.3a.88.88,0,0,0,.367.7l3.777,2.182c.2.11.367,0,.367-.275v-1.3a.88.88,0,0,0-.367-.7" transform="translate(-361.217 -255.347)" fill="#bcbcbc"/>
        <path id="패스_1324582" data-name="패스 1324582" d="M398.543,314.894l-3.777-2.182c-.2-.11-.367,0-.367.275v1.3a.88.88,0,0,0,.367.7l3.777,2.182c.2.11.367,0,.367-.275v-1.3A.88.88,0,0,0,398.543,314.894Z" transform="translate(-361.217 -255.347)" fill="none" stroke="#222" stroke-miterlimit="10" stroke-width="0.55"/>
        <path id="패스_1324583" data-name="패스 1324583" d="M398.543,314.494l-3.777-2.182c-.2-.11-.367,0-.367.275a.88.88,0,0,0,.367.7l3.777,2.182c.2.11.367,0,.367-.275a.88.88,0,0,0-.367-.7" transform="translate(-361.217 -255.021)" fill="#222"/>
        <path id="패스_1324584" data-name="패스 1324584" d="M398.543,314.494l-3.777-2.182c-.2-.11-.367,0-.367.275a.88.88,0,0,0,.367.7l3.777,2.182c.2.11.367,0,.367-.275A.88.88,0,0,0,398.543,314.494Z" transform="translate(-361.217 -255.021)" fill="none" stroke="#222" stroke-miterlimit="10" stroke-width="0.55"/>
        <path id="패스_1324585" data-name="패스 1324585" d="M524.454,220.333h0l3.172-.385a7.48,7.48,0,0,0,3.117-1.118l.422-.257a.642.642,0,0,0,.092-.99l-2.567-2.383-1.558,1.045a5.555,5.555,0,0,0-1.907,2.218,11.467,11.467,0,0,0-.752,1.888" transform="translate(-517.597 -175.747)" fill="#222"/>
        <path id="패스_1324586" data-name="패스 1324586" d="M400.327,155.536l-2.823,1.082a1.558,1.558,0,0,1-.66.055l-4.143-.77s4.07-1.54,7.627-.367" transform="translate(-362.322 -126.661)" fill="#222"/>
        <line id="선_140358" data-name="선 140358" x1="13.347" y1="7.59" transform="translate(39.472 70.198)" fill="#fff"/>
        <line id="선_140359" data-name="선 140359" x1="13.347" y1="7.59" transform="translate(39.472 70.198)" fill="none" stroke="#222" stroke-linecap="round" stroke-miterlimit="10" stroke-width="0.55"/>
        <path id="패스_1324587" data-name="패스 1324587" d="M125.938,329.782l-18.462,10.67a.423.423,0,1,1-.422-.733l18.462-10.67a.423.423,0,0,1,.422.733" transform="translate(-35.738 -268.677)" fill="#fff"/>
        <path id="패스_1324588" data-name="패스 1324588" d="M88.622,266.223s1.962-7.48,9.735-2.512,4.822,10.083,11.66,13.2c4.84,2.2,12.888,3.85,18.847,5.977a51.773,51.773,0,0,0,11.33,2.548c5.188.605,6.343,4.583,6.343,4.583l.4,1.87a1.467,1.467,0,0,0,1.815,1.118l.275-.073,1.485-.293s.807,5.94.972,5.848,19.4-10.707,20.955-13.4a9.78,9.78,0,0,0,1.118-5.427.844.844,0,0,1,.22-.642l1.3-1.43.147.587a12.962,12.962,0,0,1,.33,4.987c-.293,2.127-1.118,4.675-3.337,5.867l-21.1,12.577a4.107,4.107,0,0,1-1.833.568,5.554,5.554,0,0,1-2.383-.367l-.128-.275a5.081,5.081,0,0,1-.348-1.082,13.8,13.8,0,0,0-1.558-4.162c-1.558-2.713-4.547-6.747-8.323-6.38,0,0-3.135.183-2.438,5.573L103.051,277.5A13.669,13.669,0,0,0,96.6,266.351c-4.107-2.6-5.537.477-6.068,3.447a4.969,4.969,0,0,1-1.907-3.557" transform="translate(-81.912 -213.973)" fill="#3673ee"/>
        <path id="패스_1324589" data-name="패스 1324589" d="M88.622,266.223s1.962-7.48,9.735-2.512,4.822,10.083,11.66,13.2c4.84,2.2,12.888,3.85,18.847,5.977a51.773,51.773,0,0,0,11.33,2.548c5.188.605,6.343,4.583,6.343,4.583l.4,1.87a1.467,1.467,0,0,0,1.815,1.118l.275-.073,1.485-.293s.807,5.94.972,5.848,19.4-10.707,20.955-13.4a9.78,9.78,0,0,0,1.118-5.427.844.844,0,0,1,.22-.642l1.3-1.43.147.587a12.962,12.962,0,0,1,.33,4.987c-.293,2.127-1.118,4.675-3.337,5.867l-21.1,12.577a4.107,4.107,0,0,1-1.833.568,5.554,5.554,0,0,1-2.383-.367l-.128-.275a5.081,5.081,0,0,1-.348-1.082,13.8,13.8,0,0,0-1.558-4.162c-1.558-2.713-4.547-6.747-8.323-6.38,0,0-3.135.183-2.438,5.573L103.051,277.5A13.669,13.669,0,0,0,96.6,266.351c-4.107-2.6-5.537.477-6.068,3.447A5.094,5.094,0,0,1,88.622,266.223Z" transform="translate(-81.912 -213.973)" fill="none" stroke="#222" stroke-linejoin="round" stroke-width="0.367"/>
        <path id="패스_1324590" data-name="패스 1324590" d="M99.257,373.228c-.9.238-1.228-.055-1.357-.495.312-.165,6.71-3.648,9.368-5.28s6.6-4.052,9.13-5.7,2.86-2.365,3.08-3.1a49.885,49.885,0,0,0,.275-5.353l.22.073a4.418,4.418,0,0,1,.422,1.852c0,1.063-.275,4-.275,4a3.779,3.779,0,0,1-1.595,2.438c-1.448,1.045-8.378,5.573-12.558,7.993s-5.812,3.337-6.71,3.575" transform="translate(-28.343 -288.528)" fill="#fff"/>
        <path id="패스_1324591" data-name="패스 1324591" d="M99.257,373.228c-.9.238-1.228-.055-1.357-.495.312-.165,6.71-3.648,9.368-5.28s6.6-4.052,9.13-5.7,2.86-2.365,3.08-3.1a49.885,49.885,0,0,0,.275-5.353l.22.073a4.418,4.418,0,0,1,.422,1.852c0,1.063-.275,4-.275,4a3.779,3.779,0,0,1-1.595,2.438c-1.448,1.045-8.378,5.573-12.558,7.993S100.155,372.99,99.257,373.228Z" transform="translate(-28.343 -288.528)" fill="none" stroke="#222" stroke-linejoin="round" stroke-width="0.367"/>
        <path id="패스_1324592" data-name="패스 1324592" d="M478.712,256.753c7.5,1.687,10.34,8.708,10.34,8.708l-.44-1.613a11.826,11.826,0,0,0-2.09-4.29,9.37,9.37,0,0,0-6.453-3.685,5.958,5.958,0,0,0-2.567.312,3.135,3.135,0,0,0-.972.568l-.33.275a1.793,1.793,0,0,1,.752-.238,5.39,5.39,0,0,1,1.778-.055" transform="translate(-466.355 -208.94)" fill="#fff"/>
        <path id="패스_1324593" data-name="패스 1324593" d="M404.45,278.55a2.64,2.64,0,0,1-.385.477,1.11,1.11,0,0,1-1.137.385h0l-12.888-7.48-.128-.11-.037-.055a2.745,2.745,0,0,1-.128-1.467Z" transform="translate(-365.895 -220.745)" fill="#fff"/>
        <path id="패스_1324594" data-name="패스 1324594" d="M273.234,241.44l-29.095-17.215a.422.422,0,0,0-.4.715l28.857,17.013,2.31,1.357a6.5,6.5,0,0,0-1.668-1.87" transform="translate(-209.563 -183.104)" fill="#fff"/>
        <path id="패스_1324595" data-name="패스 1324595" d="M416.033,224s-1.32-.77-6.233-.312a52.211,52.211,0,0,1,6.233-.623l.715.4Z" transform="translate(-381.878 -182.162)" fill="#fff"/>
        <path id="패스_1324596" data-name="패스 1324596" d="M69.563,410.532a.532.532,0,1,1-.532-.532.532.532,0,0,1,.532.532" transform="translate(27.878 -334.833)" fill="#fff"/>
        <g id="그룹_497774" data-name="그룹 497774" transform="translate(55.862 40.535)" opacity="0.3">
          <g id="그룹_497773" data-name="그룹 497773" clip-path="url(#clip-path-10)">
            <path id="패스_1324597" data-name="패스 1324597" d="M222.453,225.665c0,2.512-3.667,4.565-8.177,4.565s-8.177-2.035-8.177-4.565,3.667-4.565,8.177-4.565,8.177,2.035,8.177,4.565" transform="translate(-206.1 -221.1)" fill="#222"/>
          </g>
        </g>
        <path id="패스_1324598" data-name="패스 1324598" d="M242.54,229.888c0,1.65-2.567,2.988-5.72,2.988s-5.72-1.338-5.72-2.988,2.567-2.988,5.72-2.988,5.72,1.338,5.72,2.988" transform="translate(-174.908 -185.302)" fill="#222"/>
        <path id="패스_1324599" data-name="패스 1324599" d="M109.124,157.8s-4.455,1.888-6.783,3.263c-1.815,1.082-7.443,4.583-10.028,6.343a5.537,5.537,0,0,0-1.907,2.218,12.687,12.687,0,0,0-1.228,4.033c-.275,2.273.22,6.1.88,7.3a8.1,8.1,0,0,0,1.412,1.687,5.15,5.15,0,0,1-.018-.532c0-3.74,2.823-5.06,6.545-2.695,3.153,2,5.867,6.417,5.867,10.157,0,.22-.018.44-.018.642l.752.44,30.342,17.288v-.238c-.293-4,1.43-6.545,6.05-3.868a14.018,14.018,0,0,1,6.27,10.377,18.958,18.958,0,0,0,1.742.807c1.448.568,2.677-.568,5.793-2.145s15.052-9.093,17.508-10.633,3.483-2.952,3.722-4.107a55.121,55.121,0,0,0,.458-6.178,5.867,5.867,0,0,0-.917-2.493,17.084,17.084,0,0,1,0-2.035,32.922,32.922,0,0,0-.367-4.052l-.862-.862a27.557,27.557,0,0,0-1.228-4.143l-.128-.348a9.808,9.808,0,0,0-4.693-5.188l-30.58-15.9a8.837,8.837,0,0,0-6.252-.733,23.213,23.213,0,0,0-3.722,1.3l-7.755-1.925a15.752,15.752,0,0,0-8.6,1.283Z" transform="translate(-82.816 -126.93)" fill="none" stroke="#222" stroke-linejoin="round" stroke-width="1.008"/>
        <path id="패스_1324600" data-name="패스 1324600" d="M397.964,248.654a6.859,6.859,0,0,0-.147.843c-.128,1.283-.477,4.473-.807,5.94-.2.862-.44,1.412-.825,1.32a3.009,3.009,0,0,1-.99-.385l-1.613-.862-11.348-6.4a.843.843,0,0,1-.44-.715h0c0-.9.018-2.365.073-3.025.073-1.027,2.8-1.8,6.875-2.09a3.356,3.356,0,0,1,.88.073c3.832.953,6.178,3.007,7.443,3.648a1.419,1.419,0,0,1,.9,1.65" transform="translate(-357.997 -198.677)" fill="#333"/>
        <line id="선_140360" data-name="선 140360" x2="29.957" y2="17.307" transform="translate(42.423 38.463)" fill="#222"/>
        <path id="패스_1324601" data-name="패스 1324601" d="M233.188,225.959a.825.825,0,0,1-.733-.037L202.5,208.615c-.22-.128-.238-.312-.055-.422a.825.825,0,0,1,.733.037l29.957,17.307c.22.128.238.312.055.422" transform="translate(-160.405 -169.969)" fill="#222"/>
        <line id="선_140361" data-name="선 140361" x2="29.957" y2="17.288" transform="translate(47.355 35.622)" fill="#222"/>
        <path id="패스_1324602" data-name="패스 1324602" d="M206.288,210.459a.825.825,0,0,1-.733-.037L175.6,193.115c-.22-.128-.238-.312-.055-.422a.825.825,0,0,1,.733.037l29.957,17.307c.22.128.238.312.055.422" transform="translate(-128.573 -157.31)" fill="#222"/>
        <line id="선_140362" data-name="선 140362" x2="29.957" y2="17.307" transform="translate(52.03 32.908)" fill="#222"/>
        <path id="패스_1324603" data-name="패스 1324603" d="M180.788,195.759a.825.825,0,0,1-.733-.037L150.1,178.415c-.22-.128-.238-.312-.055-.422a.825.825,0,0,1,.733.037l29.957,17.288c.22.128.238.312.055.422" transform="translate(-98.398 -145.305)" fill="#222"/>
        <path id="패스_1324604" data-name="패스 1324604" d="M222,188.8l2.75,9.46.9.843a5.023,5.023,0,0,0,2.952,1.338l.66.073,2.4-.183,1.778-.843a4.125,4.125,0,0,0,2.09-2.237l2.237-7.938-1.742.238-2.713,1.155-3.52.715-3.832-.513Z" transform="translate(-168.467 -154.187)" fill="#fff"/>
        <path id="패스_1324605" data-name="패스 1324605" d="M234.239,140.815c.183,3.465-3.685,6.49-8.653,6.747s-9.13-2.328-9.313-5.793,3.685-6.49,8.653-6.747S234.055,137.35,234.239,140.815Z" transform="translate(-163.894 -110.253)" fill="none" stroke="#000" stroke-miterlimit="10" stroke-width="0.825"/>
        <path id="패스_1324606" data-name="패스 1324606" d="M245.1,234.9c-.495,1.723-2.658,3.153-5.262,3.282s-4.895-1.027-5.537-2.713" transform="translate(-178.053 -191.835)" fill="none" stroke="#222" stroke-miterlimit="10" stroke-width="0.55"/>
        <line id="선_140363" data-name="선 140363" x2="3.117" y2="9.753" transform="translate(53.13 33.88)" fill="none" stroke="#222" stroke-miterlimit="10" stroke-width="0.55"/>
        <line id="선_140364" data-name="선 140364" y1="10.963" x2="3.098" transform="translate(67.045 32.102)" fill="none" stroke="#222" stroke-miterlimit="10" stroke-width="0.55"/>
        <path id="패스_1324607" data-name="패스 1324607" d="M228.8,181.692s1.943,7.388,7.59,7.077,6.215-8.268,6.215-8.268" transform="translate(-174.552 -147.408)" fill="none" stroke="#000" stroke-linecap="round" stroke-miterlimit="10" stroke-width="0.55"/>
        <path id="패스_1324608" data-name="패스 1324608" d="M250.4,220.9a6.655,6.655,0,0,0,3.245.623,7.683,7.683,0,0,0,2.218-.44" transform="translate(-191.77 -180.402)" fill="none" stroke="#000" stroke-linecap="round" stroke-miterlimit="10" stroke-width="1.467"/>
        <path id="패스_1324609" data-name="패스 1324609" d="M172.213,109.96l2.9-3.208.972-.843-.293-.678,2.273-2.273,1.76-.422,1.5-.147,2.255-1.247,2.2-.293,1.87.348,1.522.532.6.275,1.21-1.118,1.173-.128,1.137-.257,1.943.513.77,1.943-.092,1.522-.275,1.118.9,1.027.66,1.888-.807,1.3-1.32,1.045-.092,1.3-.477,1.723-1.76.073a4.841,4.841,0,0,0-.532.88,10.027,10.027,0,0,1-.513,1.008l-1.118.66-2.145-.257h-.422l-1.522,1.173-1.558.7-2.017.788-2.457.44-3.538-.22a29.54,29.54,0,0,1-4.693-2.732c-1.063-.99-1.632-3.557-1.632-3.557l.477-1.448Z" transform="translate(-118.478 -82.075)" fill="#e5f0ff"/>
        <path id="패스_1324610" data-name="패스 1324610" d="M271.6,148.5l-.275.678-2.457,1.98-.605.935a6.179,6.179,0,0,1-1.76-.568,13.567,13.567,0,0,1,5.06-3.722Z" transform="translate(-210.455 -120.703)" fill="#d1a900"/>
        <path id="패스_1324611" data-name="패스 1324611" d="M349.455,143.437l-.055-.037h.055Z" transform="translate(-303.512 -117.11)" fill="#ffd100"/>
        <path id="패스_1324612" data-name="패스 1324612" d="M102.955,176.157a.949.949,0,0,0-1.265.733,1.326,1.326,0,0,0,.843,1.338,2.365,2.365,0,0,0,1.668-.037c.44-.147.935-.495.88-.972a.917.917,0,0,0-.257-.495,1.907,1.907,0,0,0-1.742-.587" transform="translate(-13.726 -143.799)" fill="#e5f0ff"/>
        <path id="패스_1324613" data-name="패스 1324613" d="M101.789,175.406a.7.7,0,0,0-.88.5,1.153,1.153,0,0,0,.6,1.082,2.43,2.43,0,0,0,1.65-.018,1.228,1.228,0,0,0,.532-.367.458.458,0,0,0-.055-.605,1.65,1.65,0,0,0-1.54-.568c-.312.055-.44-.422-.128-.477a2.163,2.163,0,0,1,1.962.642,1.054,1.054,0,0,1,.312,1.008,1.32,1.32,0,0,1-.642.715,2.622,2.622,0,0,1-2.218.165,1.556,1.556,0,0,1-.953-1.613,1.213,1.213,0,0,1,1.613-.88c.293.147.037.568-.257.422" transform="translate(-12.689 -142.827)" fill="#222"/>
        <path id="패스_1324614" data-name="패스 1324614" d="M140.7,167.623a1.372,1.372,0,0,0-2.053-.55,1.924,1.924,0,0,0-.495,2.255,3.543,3.543,0,0,0,1.742,1.687c.733.367,1.485.44,1.907-.11a1.338,1.338,0,0,0,.22-.752,2.768,2.768,0,0,0-1.192-2.4" transform="translate(-57.318 -136.236)" fill="#e5f0ff"/>
        <path id="패스_1324615" data-name="패스 1324615" d="M139.3,166.63a1.141,1.141,0,0,0-1.522-.513A1.81,1.81,0,0,0,137.14,168a3.336,3.336,0,0,0,1.65,1.723c.715.367,1.6.495,1.8-.385a2.512,2.512,0,0,0-1.027-2.438c-.257-.183-.018-.6.257-.422a3.025,3.025,0,0,1,1.3,2.677,1.342,1.342,0,0,1-.77,1.21,1.98,1.98,0,0,1-1.357-.037,3.725,3.725,0,0,1-2.255-2.017,2.1,2.1,0,0,1,.678-2.548,1.614,1.614,0,0,1,2.365.733c.11.293-.367.44-.477.128" transform="translate(-56.161 -135.17)" fill="#222"/>
        <path id="패스_1324616" data-name="패스 1324616" d="M197.362,108.871a2.4,2.4,0,0,1-1.558,1.118,3.025,3.025,0,0,1,.11.788,2.651,2.651,0,0,1-2.475,2.787l-.422-.037a2.328,2.328,0,0,1-3.392,2.035,4.056,4.056,0,0,0-2.493.99h0a11.072,11.072,0,0,1-6.655,2.09c-5.133,0-9.295-3.1-9.295-6.93,0-2.805,2.237-5.225,5.463-6.307a2.841,2.841,0,0,1,.165-1.613c.678-1.577,2.75-2.273,5.005-1.815a6,6,0,0,1,4.8-2.035,6.765,6.765,0,0,1,3.795,1.082,4.91,4.91,0,0,1,.55-.495c1.76-1.357,4.107-1.265,5.243.22a3.484,3.484,0,0,1-.22,4.2A3.053,3.053,0,0,1,197.362,108.871Z" transform="translate(-119.042 -81.316)" fill="none" stroke="#222" stroke-linejoin="round" stroke-width="1.008"/>
        <path id="패스_1324617" data-name="패스 1324617" d="M281.935,123.781a13.567,13.567,0,0,0-5.06,3.722,4.365,4.365,0,0,1-.9-.568h-.018a4.268,4.268,0,0,0-3.85-2.127c-.458.018-.917-.128-1.375-.11a4.562,4.562,0,0,1-3.96-1.668h0l-.073-.422.11-1.8,1.54-1.247,1.448-.77a7.044,7.044,0,0,1,2.878-.348c1.118.238,3.1.825,3.685,2.6l.367.513,1.045.183.88-.092,1.173.2,1.118.623.953.843Z" transform="translate(-220.83 -96.685)" fill="#ffda34"/>
        <path id="패스_1324618" data-name="패스 1324618" d="M295.682,148.008l-.293.862-1.228.77-1.375-.275L290.97,147.4l-1.045-.733-2.2.275-1.98-.055-1.192-.568-.587-.513L283.6,143.7a5.231,5.231,0,0,0,3.96,1.668c.458,0,1.192-.128,1.65-.147a4.669,4.669,0,0,1,4.033,1.833l.678.348c.385.33.513.422,1.76.623" transform="translate(-237.675 -117.355)" fill="#d1a900"/>
        <path id="패스_1324619" data-name="패스 1324619" d="M253.1,156.272a7.321,7.321,0,0,1,6.472-5.372" transform="translate(-195.973 -123.235)" fill="none" stroke="#000" stroke-linecap="round" stroke-miterlimit="10" stroke-width="0.55"/>
        <path id="패스_1324620" data-name="패스 1324620" d="M277,126.541c-1.283.458-2.347-.642-3.172-1.448a3.721,3.721,0,0,0-1.65-1.027,6.087,6.087,0,0,0-1.943-.147,9.136,9.136,0,0,1-4.052-.183,2.5,2.5,0,0,1-1.833-2.548c.092-2.383,2.658-3.465,4.675-3.868a5.116,5.116,0,0,1,5.518,2.732l.128.367a.293.293,0,0,0,.33.2c.312-.018.642-.092.953-.128a5.738,5.738,0,0,1,1.98.11,3.035,3.035,0,0,1,2.328,2.31,2.292,2.292,0,0,1-.018.825c-.055.312-.532.183-.477-.128a2.311,2.311,0,0,0-1.668-2.438,4.712,4.712,0,0,0-1.833-.2l-.9.092a1.346,1.346,0,0,1-.807-.018.862.862,0,0,1-.4-.55,3.927,3.927,0,0,0-.312-.715,3.813,3.813,0,0,0-.99-1.082,4.968,4.968,0,0,0-2.9-.99,7.494,7.494,0,0,0-2.585.605,4.1,4.1,0,0,0-2.42,2.2,2.2,2.2,0,0,0,.018,1.54,2.292,2.292,0,0,0,1.082,1.1,6.478,6.478,0,0,0,3.685.312,5.455,5.455,0,0,1,3.85.77c1.1.862,1.888,2.31,3.245,1.833.293-.11.422.367.128.477" transform="translate(-218.751 -95.741)" fill="#222"/>
        <path id="패스_1324621" data-name="패스 1324621" d="M284.594,140.36a5.383,5.383,0,0,0,.367,2.218,1.54,1.54,0,0,0,.88.807,6.912,6.912,0,0,0,1.687.4,8.2,8.2,0,0,0,1.742.018l.825-.128a3.538,3.538,0,0,1,.843-.147c.513.018.825.55,1.118.917a14.978,14.978,0,0,0,1.137,1.265,3.172,3.172,0,0,0,1.485.788,1.32,1.32,0,0,0,1.3-.477c.22-.238.568.11.348.348a1.8,1.8,0,0,1-1.283.642,3.007,3.007,0,0,1-1.412-.4c-1.063-.532-1.65-1.632-2.457-2.457-.22-.22-.5-.092-.77-.037l-.917.147a8.305,8.305,0,0,1-1.907.018,7.775,7.775,0,0,1-1.852-.422,2.108,2.108,0,0,1-1.063-.807,3.669,3.669,0,0,1-.44-1.338,8.012,8.012,0,0,1-.11-1.357.257.257,0,0,1,.495,0" transform="translate(-238.486 -114.473)" fill="#222"/>
        <line id="선_140365" data-name="선 140365" x1="0.88" y2="3.153" transform="translate(68.97 34.173)" fill="none" stroke="#222" stroke-miterlimit="10" stroke-width="1.008"/>
        <path id="패스_1324622" data-name="패스 1324622" d="M297.361,125.464a1.966,1.966,0,0,1-1.192-1.063,5.324,5.324,0,0,1-.55-2.7h0a2.4,2.4,0,0,1-.018-.385c.055-2.4,2.622-3.5,4.657-3.905a5.152,5.152,0,0,1,5.555,2.713" transform="translate(-250.006 -95.819)" fill="none" stroke="#222" stroke-miterlimit="10" stroke-width="1.008"/>
        <path id="패스_1324623" data-name="패스 1324623" d="M266.31,318.8c-2.787,1.668-2.915,6.582-.275,10.963s7.022,6.563,9.808,4.9,2.915-6.582.275-10.963-7.022-6.563-9.808-4.9" transform="translate(-216.443 -259.899)" fill="#3673ee"/>
        <path id="패스_1324624" data-name="패스 1324624" d="M350.419,353.1c-1.192.715-1.192,2.915,0,4.9s3.135,3.025,4.327,2.31,1.192-2.915,0-4.895-3.135-3.025-4.327-2.31" transform="translate(-309.719 -288.178)" fill="#3673ee"/>
        <path id="패스_1324625" data-name="패스 1324625" d="M338.449,284.161c-.788.477-.862,1.833-.147,3.025s1.943,1.778,2.732,1.3.862-1.833.147-3.025-1.943-1.778-2.732-1.3" transform="translate(-293.605 -231.93)" fill="#3673ee"/>
      </g>
    </g>
  </g>
</svg>
