<svg xmlns="http://www.w3.org/2000/svg" width="47.974" height="46.406"><g data-name="그룹 349638" transform="translate(-290.645 -83.559)"><path data-name="선 89070" fill="none" stroke="#111" stroke-linecap="round" stroke-miterlimit="10" stroke-width="1.5" d="M304.628 114.054l-.857-.624"/><path data-name="선 89071" fill="none" stroke="#111" stroke-linecap="square" stroke-miterlimit="10" stroke-width="1.5" d="M305.47 114.572l-.841-.517"/><path data-name="패스 643522" d="M307.365 98.793l-11.053 15.085 8.82 6.409h0l.857.624s2.451 1.78 5.193-2.125l8.722-12.006-2.976-8.526-8.94-.319-.623.858" fill="none" stroke="#111" stroke-linecap="round" stroke-linejoin="round" stroke-width="1.5"/><path data-name="패스 643523" d="M311.89 103.387a1.392 1.392 0 11-1.159 1.595 1.392 1.392 0 011.159-1.595m-.251-1.586a3 3 0 103.432 2.494 3 3 0 00-3.432-2.494" fill="#111"/><circle data-name="타원 5567" cx="8.909" cy="8.909" r="8.909" transform="rotate(30 -37.81 639.955)" fill="#f9f9f9"/><circle data-name="타원 5568" cx="6.869" cy="6.869" r="6.869" transform="rotate(30 -42.662 642.825)" fill="#fddb2b" stroke="#001" stroke-linecap="round" stroke-linejoin="round" stroke-width="1.5"/><path data-name="패스 475243" d="M315.611 114.79l.83 2.548q.152.46.28.97l.068.283h.014l.027-.311.039-.354q.02-.212.076-.623l.426-2.636 1.103-.077.859 2.546q.126.377.292 1.06a1.649 1.649 0 01.041.198l.021-.001q.064-.7.17-1.29l.475-2.639 1.04-.073-.936 4.677a.65.65 0 01-.663.548.649.649 0 01-.741-.46l-.67-1.948-.055-.185-.061-.207q-.062-.185-.122-.433l-.056-.197q-.02-.083-.031-.152l-.023.002q-.027.423-.119 1.01l-.03.185-.385 2.01a.645.645 0 01-.662.56.8.8 0 01-.451-.081.646.646 0 01-.275-.367l-1.591-4.485z" fill="#111" stroke="#111" stroke-linecap="round" stroke-width=".5"/><path data-name="선 44023" fill="none" stroke="#111" stroke-linecap="round" stroke-width="1.5" d="M314.709 117.137l6.983-.488"/><path data-name="선 43568" fill="none" stroke="#111" stroke-linecap="round" stroke-linejoin="round" stroke-width="1.5" d="M332.603 128.905l-2.828-2.829"/><path data-name="선 43569" fill="none" stroke="#111" stroke-linecap="round" stroke-linejoin="round" stroke-width="1.5" d="M329.775 128.905l2.828-2.829"/><g data-name="그룹 171823" fill="none" stroke="#111" stroke-linecap="round" stroke-linejoin="round" stroke-width="1.5"><path data-name="선 43570" d="M306.65 87.447l-2.829-2.828"/><path data-name="선 43571" d="M303.821 87.447l2.829-2.828"/></g><g data-name="그룹 171824" fill="none" stroke="#111" stroke-linecap="round" stroke-linejoin="round" stroke-width="1.5"><path data-name="선 43572" d="M337.558 100.136l-2.21-2.21"/><path data-name="선 43573" d="M335.348 100.136l2.21-2.21"/></g><circle data-name="타원 5540" cx="1" cy="1" r="1" transform="translate(312.469 89.375)" fill="#111"/><circle data-name="타원 5541" cx="1" cy="1" r="1" transform="translate(292 86.125)" fill="#111"/><circle data-name="타원 5542" cx="1" cy="1" r="1" transform="translate(328.467 103)" fill="#111"/><circle data-name="타원 5538" cx="1.5" cy="1.5" r="1.5" transform="translate(291.395 101.391)" fill="none" stroke="#111" stroke-miterlimit="10" stroke-width="1.5"/></g></svg>