<svg xmlns="http://www.w3.org/2000/svg" xmlns:xlink="http://www.w3.org/1999/xlink" width="20" height="20" viewBox="0 0 20 20">
  <defs>
    <clipPath id="clip-path">
      <rect id="사각형_94967" data-name="사각형 94967" width="20" height="20" transform="translate(20 84)" fill="#d5d5d5"/>
    </clipPath>
    <clipPath id="clip-path-2">
      <rect id="사각형_247569" data-name="사각형 247569" width="20" height="20" fill="none"/>
    </clipPath>
  </defs>
  <g id="마스크_그룹_297" data-name="마스크 그룹 297" transform="translate(-20 -84)" clip-path="url(#clip-path)">
    <g id="store_20x20" transform="translate(30 94)">
      <g id="그룹_324285" data-name="그룹 324285" transform="translate(-10 -10)" clip-path="url(#clip-path-2)">
        <g id="그룹_324283" data-name="그룹 324283" clip-path="url(#clip-path-2)">
          <g id="그룹_324282" data-name="그룹 324282" opacity="0">
            <g id="그룹_324281" data-name="그룹 324281" clip-path="url(#clip-path-2)">
              <rect id="사각형_247565" data-name="사각형 247565" width="20" height="20" fill="#f0f"/>
            </g>
          </g>
        </g>
        <g id="그룹_324284" data-name="그룹 324284" clip-path="url(#clip-path-2)">
          <path id="패스_643354" data-name="패스 643354" d="M8.2,18.4V14.3h3.6v4.1" fill="none" stroke="#111" stroke-linejoin="round" stroke-width="1.5"/>
          <path id="패스_643355" data-name="패스 643355" d="M17.3,8.7V18.9H5.2a2.5,2.5,0,0,1-2.5-2.5V8.7" fill="none" stroke="#111" stroke-linecap="round" stroke-linejoin="round" stroke-width="1.5"/>
          <line id="선_89022" data-name="선 89022" x1="2.4" transform="translate(8.1 8.4)" fill="none" stroke="#111" stroke-linecap="round" stroke-linejoin="round" stroke-width="1.5"/>
          <path id="패스_643356" data-name="패스 643356" d="M5.2,8.4H2.6A2.5,2.5,0,0,1,1.5,6.3V1.9A.5.5,0,0,1,2,1.4H17.9a.5.5,0,0,1,.5.5V6.3a2.5,2.5,0,0,1-1.1,2.1H12.9" fill="none" stroke="#111" stroke-linecap="round" stroke-linejoin="round" stroke-width="1.5"/>
          <line id="선_89023" data-name="선 89023" y2="1.4" transform="translate(7.5 8.9)" fill="none" stroke="#111" stroke-linecap="round" stroke-miterlimit="10" stroke-width="1.5"/>
          <line id="선_89024" data-name="선 89024" y2="2.1" transform="translate(7.5 6.8)" fill="none" stroke="#111" stroke-miterlimit="10" stroke-width="1.5"/>
          <line id="선_89025" data-name="선 89025" y2="1.5" transform="translate(12.9 8.8)" fill="none" stroke="#111" stroke-linecap="round" stroke-miterlimit="10" stroke-width="1.5"/>
          <line id="선_89026" data-name="선 89026" y2="2" transform="translate(12.9 6.8)" fill="none" stroke="#111" stroke-miterlimit="10" stroke-width="1.5"/>
        </g>
      </g>
    </g>
  </g>
</svg>
