<svg xmlns="http://www.w3.org/2000/svg" xmlns:xlink="http://www.w3.org/1999/xlink" width="24" height="24" viewBox="0 0 24 24">
  <defs>
    <clipPath id="clip-path">
      <rect id="사각형_295577" data-name="사각형 295577" width="24" height="24" fill="none"/>
    </clipPath>
  </defs>
  <g id="icon_history_on_24" transform="translate(12 12)">
    <g id="그룹_385023" data-name="그룹 385023" transform="translate(-12 -12)" clip-path="url(#clip-path)">
      <g id="그룹_385022" data-name="그룹 385022" clip-path="url(#clip-path)">
        <path id="패스_779684" data-name="패스 779684" d="M21,2.5V20a3,3,0,0,1-3,3H5s-3,0-3-5V17H4V2.5Z" fill="#cbdbfa"/>
        <g id="그룹_385021" data-name="그룹 385021" opacity="0">
          <g id="그룹_385020" data-name="그룹 385020" clip-path="url(#clip-path)">
            <rect id="사각형_295574" data-name="사각형 295574" width="24" height="24" fill="#ff00f3"/>
          </g>
        </g>
        <path id="패스_779685" data-name="패스 779685" d="M11.5,22.5H5s-3,0-3-5v-1H15v1c0,5,3,5,3,5a3,3,0,0,0,3-3V2H4V16" fill="none" stroke="#3673ee" stroke-linejoin="round" stroke-width="1.5"/>
        <line id="선_113326" data-name="선 113326" x1="1.5" transform="translate(11.5 22.5)" fill="none" stroke="#3673ee" stroke-linecap="round" stroke-linejoin="round" stroke-width="1.5"/>
        <line id="선_113327" data-name="선 113327" x2="1.7" transform="translate(11.3 6.5)" fill="none" stroke="#3673ee" stroke-linecap="round" stroke-linejoin="round" stroke-width="1.5"/>
        <line id="선_113328" data-name="선 113328" x2="5.3" transform="translate(7 6.5)" fill="none" stroke="#3673ee" stroke-linejoin="round" stroke-width="1.5"/>
        <line id="선_113329" data-name="선 113329" x2="2.3" transform="translate(8.7 9.5)" fill="none" stroke="#3673ee" stroke-linecap="round" stroke-linejoin="round" stroke-width="1.5"/>
        <line id="선_113330" data-name="선 113330" x2="2.7" transform="translate(7 9.5)" fill="none" stroke="#3673ee" stroke-linejoin="round" stroke-width="1.5"/>
      </g>
    </g>
  </g>
</svg>
