<svg xmlns="http://www.w3.org/2000/svg" xmlns:xlink="http://www.w3.org/1999/xlink" width="20" height="20" viewBox="0 0 20 20"><defs><style>.a,.f{fill:none;}.b{clip-path:url(#a);}.c{opacity:0;}.d{fill:#f0f;}.e{clip-path:url(#d);}.f{stroke:#111;stroke-linecap:round;stroke-linejoin:round;stroke-width:1.5px;}.g{fill:#111;}</style><clipPath id="a"><rect class="a" width="20" height="20"/></clipPath><clipPath id="d"><rect class="a" width="28" height="28" transform="translate(-4 -4)"/></clipPath></defs><g transform="translate(10 10)"><g class="b" transform="translate(-10 -10)"><g class="b"><g class="c"><g class="b"><rect class="d" width="20" height="20"/></g></g><g class="c"><g class="e"><rect class="d" width="28" height="28" transform="translate(-4 -4)"/></g></g><path class="f" d="M10,17.6H1L5.5,9.8,10,2l4.5,7.8L19,17.6Z"/><path class="g" d="M10.9,14.6a.9.9,0,0,1-.1.4l-.2.3-.3.2H9.5l-.3-.2L9,15a.85.85,0,0,1,0-.8l.2-.3.3-.2h.8l.3.2.2.3a.9.9,0,0,1,.1.4m-.1-6.7-.2,4.4v.5h-1v-.5L9.1,7.9Z"/></g></g></g></svg>