<svg xmlns="http://www.w3.org/2000/svg" width="20" height="20"><defs><clipPath id="clip-path"><path id="사각형_226300" data-name="사각형 226300" class="cls-1" d="M0 0h20v20H0z"/></clipPath><clipPath id="clip-path-3"><path id="사각형_226296" data-name="사각형 226296" class="cls-1" transform="translate(-4 -4)" d="M0 0h28v28H0z"/></clipPath><style>.cls-1,.cls-7{fill:none}.cls-2{clip-path:url(#clip-path)}.cls-3{opacity:0}.cls-5{fill:#f0f}.cls-7{stroke:#111;stroke-linecap:round;stroke-width:1.5px;stroke-linejoin:round}</style></defs><g id="이벤트_20x20" transform="translate(10 10)"><g id="그룹_294432" data-name="그룹 294432" class="cls-2" transform="translate(-10 -10)"><g id="그룹_294431" data-name="그룹 294431" class="cls-2"><g id="그룹_294428" data-name="그룹 294428" class="cls-3"><g id="그룹_294427" data-name="그룹 294427" clip-path="url(#clip-path-3)"><path id="사각형_226295" data-name="사각형 226295" class="cls-5" transform="translate(-4 -4)" d="M0 0h28v28H0z"/></g></g><g id="그룹_294430" data-name="그룹 294430" class="cls-3"><g id="그룹_294429" data-name="그룹 294429" class="cls-2"><path id="사각형_226297" data-name="사각형 226297" class="cls-5" d="M0 0h20v20H0z"/></g></g><path id="패스_596881" data-name="패스 596881" d="M13.6 10.2l-.9-1.1h-1.5a.2.2 0 01-.2-.3l.7-1.2a.2.2 0 000-.2l-.4-1.3a.212.212 0 01.3-.3l1.3.3h.2l1.1-.8a.2.2 0 01.3.2V7l1.1.8a.2.2 0 110 .4l-1.3.5" stroke-miterlimit="10" stroke="#111" stroke-linecap="round" stroke-width="1.5" fill="none"/><path id="패스_596882" data-name="패스 596882" class="cls-7" d="M8 13.8l-1.1 3.4-4.5-4.7 3.4-.8"/><path id="선_77307" data-name="선 77307" class="cls-7" transform="translate(.8 14.9)" d="M3.7 0L0 3.6"/><path id="패스_596883" data-name="패스 596883" class="cls-7" d="M8 2.7a7 7 0 00-2.7 5.5 6.9 6.9 0 006.8 7 6.9 6.9 0 006.8-7 6.9 6.9 0 00-5.5-6.8L9.5.8s.1 1.7 1.4 2"/></g></g></g></svg>