<svg xmlns="http://www.w3.org/2000/svg" width="20" height="20"><defs><clipPath id="a"><path fill="none" d="M0 0h20v20H0z"/></clipPath><style>.b{clip-path:url(#a)}.c{opacity:0}.d{fill:#d0f}.e{fill:#111}.f{fill:#999}.g{fill:#fff}</style></defs><g class="b"><g class="b"><g class="c"><g class="b"><path class="d" d="M0 0h20v20H0z"/></g></g><path class="e" d="M17.2 2l1.1 1.1L3.9 17.4a.778.778 0 01-1.1-1.1z"/><path class="e" d="M17.4 17.4a.8.8 0 01-1.1 0L2 3.1 3.1 2l14.3 14.3a.8.8 0 010 1.1"/></g></g><g class="c"><g class="b"><g class="b"><g class="c"><g class="b"><path class="d" d="M0 0h20v20H0z"/></g></g><path class="f" d="M17.2 2l1.1 1.1L3.9 17.4a.778.778 0 01-1.1-1.1z"/><path class="f" d="M17.4 17.4a.8.8 0 01-1.1 0L2 3.1 3.1 2l14.3 14.3a.8.8 0 010 1.1"/></g></g></g><g class="c"><g class="b"><g class="b"><g class="c"><g class="b"><path class="d" d="M0 0h20v20H0z"/></g></g><path class="g" d="M17.2 2l1.1 1.1L3.9 17.4a.778.778 0 01-1.1-1.1z"/><path class="g" d="M17.4 17.4a.8.8 0 01-1.1 0L2 3.1 3.1 2l14.3 14.3a.8.8 0 010 1.1"/></g></g></g></svg>