<svg xmlns="http://www.w3.org/2000/svg" xmlns:xlink="http://www.w3.org/1999/xlink" width="70" height="70"><defs><clipPath id="b"><path data-name="사각형 318444" fill="none" d="M0 0h70v70H0z"/></clipPath><clipPath id="c"><path data-name="사각형 318435" fill="none" d="M0 0h53.06v30.646H0z"/></clipPath><clipPath id="d"><path data-name="패스 840343" d="M504.05 303.633a3.864 3.864 0 00-1.75 3.033c0 1.12.782 1.575 1.75 1.015a3.864 3.864 0 001.75-3.033c0-.793-.4-1.248-.968-1.248a1.587 1.587 0 00-.782.233" transform="translate(-502.3 -303.4)" fill="none"/></clipPath><clipPath id="e"><path data-name="패스 840349" d="M269.05 439.333a3.864 3.864 0 00-1.75 3.033c0 1.12.782 1.575 1.75 1.015a3.864 3.864 0 001.75-3.033c0-.793-.4-1.248-.968-1.248a1.587 1.587 0 00-.782.233" transform="translate(-267.3 -439.1)" fill="none"/></clipPath><clipPath id="g"><path data-name="사각형 318440" fill="none" d="M0 0h15.202v8.321H0z"/></clipPath><clipPath id="h"><path data-name="사각형 318441" fill="none" d="M0 0h55.51v30.087H0z"/></clipPath><clipPath id="i"><path data-name="사각형 318442" fill="none" d="M0 0h10.407v5.801H0z"/></clipPath><linearGradient id="a" x1="-16.743" y1="7.15" x2="-16.71" y2="7.15" gradientUnits="objectBoundingBox"><stop offset="0" stop-color="#c2c1c1"/><stop offset="1" stop-color="#dfdedd"/></linearGradient><linearGradient id="f" x1="-8.91" y1="3.879" x2="-8.877" y2="3.879" xlink:href="#a"/></defs><g data-name="그룹 422803" clip-path="url(#b)"><g data-name="그룹 422792" clip-path="url(#b)"><g data-name="그룹 422791"><g data-name="그룹 422790" clip-path="url(#c)" transform="translate(12.087 28.642)" opacity=".2"><path data-name="패스 840338" d="M53.06 9.812a1.75 1.75 0 01-.875 1.54L18.989 30.438a1.978 1.978 0 01-1.808 0L.369 20.661a.557.557 0 010-1.05L34.622.221a2.014 2.014 0 011.808 0c10.383 1.12 16.287 4.153 16.613 9.59"/></g></g><path data-name="패스 840339" d="M62.744 33.892l-1.832-1.05-.49.268a8.921 8.921 0 00-3.99 6.6l-.8.385a1.54 1.54 0 00.3.21l2.2 1.26a2.2 2.2 0 002.287-.187 7 7 0 003.162-5.483 2.277 2.277 0 00-.84-1.995" fill="#222"/><path data-name="패스 840340" d="M63.583 35.887a6.993 6.993 0 01-3.173 5.483c-1.75 1-3.162.187-3.162-1.832a7.012 7.012 0 013.162-5.483c1.738-1 3.173-.187 3.173 1.832" fill="#222"/><path data-name="패스 840341" d="M63.408 36.085a6.462 6.462 0 01-2.917 5.052c-1.61.933-2.917.175-2.917-1.68a6.462 6.462 0 012.917-5.052c1.61-.933 2.917-.175 2.917 1.68" fill="#222"/><path data-name="패스 840342" d="M62.72 36.633a4.805 4.805 0 01-2.181 3.767c-1.2.688-2.182.128-2.182-1.26a4.805 4.805 0 012.182-3.768c1.2-.688 2.182-.128 2.182 1.26" fill="#fff"/></g><g data-name="그룹 422793" transform="translate(58.602 35.397)" clip-path="url(#d)"><path data-name="사각형 318437" transform="translate(0 -.012)" fill="url(#a)" d="M0 0h3.5v4.841H0z"/></g><g data-name="그룹 422794" clip-path="url(#b)"><path data-name="패스 840344" d="M60.9 32.842l1.832 1.05a2.133 2.133 0 01.828 1.622l.688.2v-.152c.175-2.4-.782-3.967-3.348-2.718" fill="#212020"/><path data-name="패스 840345" d="M35.315 49.723l-1.832-1.05-.49.268a8.921 8.921 0 00-3.99 6.6l-.8.385a1.539 1.539 0 00.3.21l2.205 1.26a2.2 2.2 0 002.287-.187 7 7 0 003.162-5.483 2.277 2.277 0 00-.84-2" fill="#222"/><path data-name="패스 840346" d="M36.166 51.73a7.012 7.012 0 01-3.162 5.483c-1.738 1-3.162.187-3.162-1.832a7.012 7.012 0 013.162-5.483c1.738-1 3.162-.2 3.162 1.832" fill="#222"/><path data-name="패스 840347" d="M35.991 51.929a6.462 6.462 0 01-2.917 5.052c-1.61.933-2.917.175-2.917-1.68a6.462 6.462 0 012.917-5.052c1.61-.933 2.917-.175 2.917 1.68" fill="#222"/><path data-name="패스 840348" d="M35.303 52.465a4.805 4.805 0 01-2.182 3.768c-1.2.688-2.182.128-2.182-1.26a4.805 4.805 0 012.182-3.768c1.2-.688 2.182-.128 2.182 1.26" fill="#fff"/></g><g data-name="그룹 422795" transform="translate(31.185 51.228)" clip-path="url(#e)"><path data-name="사각형 318439" transform="translate(0 -.012)" fill="url(#f)" d="M0 0h3.5v4.841H0z"/></g><g data-name="그룹 422802" clip-path="url(#b)"><path data-name="패스 840350" d="M33.483 48.674l1.832 1.05a2.133 2.133 0 01.828 1.622l.688.2v-.152c.175-2.4-.782-3.967-3.348-2.718" fill="#212020"/><path data-name="패스 840351" d="M53.258 19.647s2.835 1.2 4.317 2.077c1.155.688 4.737 2.917 6.382 4.037a3.523 3.523 0 011.213 1.412 8.074 8.074 0 01.782 2.567 10.857 10.857 0 01-.56 4.643 5.156 5.156 0 01-.9 1.073 3.277 3.277 0 00.012-.338c0-2.38-1.8-3.22-4.165-1.715a8.532 8.532 0 00-3.733 6.463c0 .14.012.28.012.408l-.478.28-19.308 11v-.152c.187-2.543-.91-4.165-3.85-2.462a8.921 8.921 0 00-3.99 6.6 12.061 12.061 0 01-1.108.513c-.922.362-1.7-.362-3.687-1.365s-9.578-5.787-11.142-6.767-2.217-1.878-2.368-2.613a35.079 35.079 0 01-.292-3.932 3.734 3.734 0 01.583-1.587 10.874 10.874 0 000-1.295 20.952 20.952 0 01.233-2.578l.548-.548a17.538 17.538 0 01.782-2.637l.082-.222a6.242 6.242 0 012.987-3.3l19.46-10.115a5.623 5.623 0 013.978-.467 14.771 14.771 0 012.368.828l4.935-1.225a10.024 10.024 0 015.472.817z" fill="#fff"/><path data-name="패스 840352" d="M53.258 19.647s2.835 1.2 4.317 2.077c1.155.688 4.737 2.917 6.382 4.037a3.523 3.523 0 011.213 1.412 8.074 8.074 0 01.782 2.567 10.857 10.857 0 01-.56 4.643 5.156 5.156 0 01-.9 1.073 3.277 3.277 0 00.012-.338c0-2.38-1.8-3.22-4.165-1.715a8.532 8.532 0 00-3.733 6.463c0 .14.012.28.012.408l-.478.28-19.308 11v-.152c.187-2.543-.91-4.165-3.85-2.462a8.921 8.921 0 00-3.99 6.6 12.061 12.061 0 01-1.108.513c-.922.362-1.7-.362-3.687-1.365s-9.578-5.787-11.142-6.767-2.217-1.878-2.368-2.613a35.079 35.079 0 01-.292-3.932 3.734 3.734 0 01.583-1.587 10.874 10.874 0 000-1.295 20.952 20.952 0 01.233-2.578l.548-.548a17.538 17.538 0 01.782-2.637l.082-.222a6.242 6.242 0 012.987-3.3l19.46-10.115a5.623 5.623 0 013.978-.467 14.771 14.771 0 012.368.828l4.935-1.225a10.024 10.024 0 015.472.817z" fill="none" stroke="#222" stroke-linejoin="round" stroke-width=".35"/><g data-name="그룹 422797"><g data-name="그룹 422796" clip-path="url(#g)" transform="translate(41.055 19.343)" opacity=".18"><path data-name="패스 840353" d="M15.155 8.319a12.132 12.132 0 00-1.75-.688 235.496 235.496 0 01-3.173-1.972C8.669 4.659.012.502.012.502l.082-.49.3.128.443-.117L2.26.396c2.508.63 3.162.8 7.21 2.9 3.733 1.937 6.125 3.908 5.682 5.017" fill="#222"/></g></g><path data-name="패스 840354" d="M56.221 27.662a21.319 21.319 0 00-8.178-1.645 92.945 92.945 0 00-5.04-3.442 43.183 43.183 0 00-7.525-3.661c.408-.1 1.482-.5 1.785-.525a7.788 7.788 0 014.177 1.073l.315-.082a41.5 41.5 0 019.088 3.978 18.43 18.43 0 015.39 4.293" fill="#333"/><path data-name="패스 840355" d="M11.025 39.76a4.694 4.694 0 00-.257.408 2.426 2.426 0 001.062 1.05l.257-5.565-.163-.432-.63.56a20.6 20.6 0 00-.268 2.648 9.975 9.975 0 010 1.33" fill="#f8483b"/><path data-name="패스 840356" d="M11.025 39.76a4.694 4.694 0 00-.257.408 2.426 2.426 0 001.062 1.05h0l.257-5.565-.163-.432-.63.56a20.6 20.6 0 00-.268 2.648 9.976 9.976 0 01-.001 1.331z" fill="none" stroke="#222" stroke-linejoin="round" stroke-width=".233"/><path data-name="패스 840357" d="M11.842 39.818l.105-2.333a4.911 4.911 0 01-.84-.537 10.771 10.771 0 00-.117 1.552c.023.315.023.42.023.618a4.69 4.69 0 00.828.7" fill="#fff"/><path data-name="패스 840358" d="M11.842 39.818l.105-2.333a4.911 4.911 0 01-.84-.537 10.771 10.771 0 00-.117 1.552c.023.315.023.42.023.618a4.69 4.69 0 00.829.7z" fill="none" stroke="#222" stroke-linejoin="round" stroke-width=".233"/><path data-name="패스 840359" d="M28.794 51.671c-.758-.28-.222-1.505-.222-1.505a2.381 2.381 0 01-.758.222 10.665 10.665 0 01-1.552-.443 19.214 19.214 0 01-.28 2.24c-.268 1.307-.187 1.435-.187 1.435-.2-.1-4.328-2.345-6.02-3.383s-4.2-2.578-5.81-3.628-1.82-1.505-1.96-1.972-.315-3.407-.315-3.407a2.258 2.258 0 01-.922-1.027 2.952 2.952 0 00-.362 1.19 32.522 32.522 0 00.292 3.932c.163.735.805 1.633 2.368 2.613s9.159 5.765 11.141 6.765 2.765 1.715 3.687 1.365c.163-.07.56-.257 1.108-.513a8.491 8.491 0 011.167-3.628 5.1 5.1 0 01-1.377-.257z" fill="none" stroke="#222" stroke-linejoin="round" stroke-width=".233"/><g data-name="그룹 422799"><g data-name="그룹 422798" clip-path="url(#h)" transform="translate(10.418 26.028)" opacity=".18"><path data-name="패스 840360" d="M.221 14.432l.7.5.455.257.245-5.472-.245-.525 1.307-3.7 14.257 8.563a3.733 3.733 0 011.878-3.243L37.765 0a19.431 19.431 0 018.023 1.633l4.667-.245.618.362a5.915 5.915 0 002.45.782l1.913.175a35.1 35.1 0 010 3.873 5.8 5.8 0 01-1.225 2.928c.023-4.748-4.235-2.427-4.235-2.427-4.3 3.15-3.792 7.175-3.792 7.175l-19.775 11.27c.42-5.192-3.337-2.882-3.337-2.882a8.862 8.862 0 00-4.48 6.86l-1.925.583s-11.842-7.023-13.253-7.5a7.442 7.442 0 01-2.777-2.473l-.408-1.12-.245-3.628zm26.215 8.867l8.143-4.76v-.14a.327.327 0 00-.49-.28l-8.027 4.527z" fill="#222"/></g></g><path data-name="패스 840361" d="M28.562 50.166a14.963 14.963 0 00.373-4.165c-.035-1.178-.7-1.085-1.05-1.167s-1.575-.257-1.575-.257l-.047 5.378a10.665 10.665 0 001.552.443 2.381 2.381 0 00.758-.222" fill="#f8483b"/><path data-name="패스 840362" d="M28.562 50.166a14.963 14.963 0 00.373-4.165c-.035-1.178-.7-1.085-1.05-1.167s-1.575-.257-1.575-.257l-.047 5.378a10.665 10.665 0 001.552.443 2.2 2.2 0 00.747-.232z" fill="none" stroke="#222" stroke-linejoin="round" stroke-width=".233"/><path data-name="패스 840363" d="M26.296 46.095l-.023 2.4c.63.187 1.155.14 1.272-.035a3.538 3.538 0 00.058-1.517c-.082-.548-.91-.735-1.307-.852" fill="#fff"/><path data-name="패스 840364" d="M26.296 46.095l-.023 2.4c.63.187 1.155.14 1.272-.035a3.538 3.538 0 00.058-1.517c-.082-.548-.91-.72-1.307-.848z" fill="none" stroke="#222" stroke-linejoin="round" stroke-width=".233"/><path data-name="패스 840365" d="M27.429 44.648c0-.77-.035-2.275-.058-3.313a5.472 5.472 0 012.847-4.97l17.722-10.43" fill="none" stroke="#222" stroke-linecap="round" stroke-miterlimit="10" stroke-width=".233"/><path data-name="패스 840366" d="M13.428 33.483l-.467 3.663a1.56 1.56 0 00.653 1.645l11.013 6.44a.525.525 0 00.782-.443l.117-4.538a.525.525 0 00-.257-.467l-11.072-6.615a.525.525 0 00-.77.3" fill="#333"/><path data-name="패스 840367" d="M56.222 27.662" fill="#141c1e"/><path data-name="패스 840368" d="M46.246 37.893l2.4-1.388c.128-.07.233 0 .233.175v.828a.56.56 0 01-.233.443l-2.4 1.388c-.128.07-.233 0-.233-.175v-.828a.56.56 0 01.233-.443" fill="#bcbcbc"/><path data-name="패스 840369" d="M46.246 37.893l2.4-1.388c.128-.07.233 0 .233.175v.828a.56.56 0 01-.233.443l-2.4 1.388c-.128.07-.233 0-.233-.175v-.828a.56.56 0 01.233-.443z" fill="none" stroke="#222" stroke-miterlimit="10" stroke-width=".35"/><path data-name="패스 840370" d="M46.246 37.846l2.4-1.388c.128-.07.233 0 .233.175a.56.56 0 01-.233.443l-2.4 1.388c-.128.07-.233 0-.233-.175a.56.56 0 01.233-.443" fill="#222"/><path data-name="패스 840371" d="M46.246 37.846l2.4-1.388c.128-.07.233 0 .233.175a.56.56 0 01-.233.443l-2.4 1.388c-.128.07-.233 0-.233-.175a.56.56 0 01.233-.443z" fill="none" stroke="#222" stroke-miterlimit="10" stroke-width=".35"/><path data-name="패스 840372" d="M65.633 28.374l-2.018-.245a4.76 4.76 0 01-1.983-.712l-.268-.163a.408.408 0 01-.058-.63l1.633-1.517.992.665a3.535 3.535 0 011.213 1.412 7.3 7.3 0 01.478 1.2" fill="#222"/><path data-name="패스 840373" d="M45.815 18.375l1.8.688a.992.992 0 00.42.035l2.637-.49a8.326 8.326 0 00-4.853-.233" fill="#222"/><path data-name="선 126348" fill="#fff" d="M36.388 49.502l8.493-4.83"/><path data-name="선 126349" fill="none" stroke="#222" stroke-linecap="round" stroke-miterlimit="10" stroke-width=".35" d="M36.388 49.502l8.493-4.83"/><path data-name="패스 840374" d="M12.6 38.89l11.748 6.79a.27.27 0 10.268-.467l-11.748-6.79a.27.27 0 10-.268.467" fill="#fff"/><path data-name="패스 840375" d="M65.73 33.25s-1.248-4.76-6.2-1.6-3.068 6.417-7.42 8.4c-3.08 1.4-8.2 2.45-11.993 3.8a32.947 32.947 0 01-7.21 1.622 4.56 4.56 0 00-4.037 2.917l-.257 1.19a.933.933 0 01-1.155.712l-.175-.047-.945-.187s-.513 3.78-.618 3.722-12.338-6.809-13.33-8.519a6.224 6.224 0 01-.712-3.453.537.537 0 00-.14-.408l-.828-.91-.093.373a8.248 8.248 0 00-.21 3.173 4.778 4.778 0 002.123 3.733l13.428 8a2.613 2.613 0 001.167.362 3.535 3.535 0 001.517-.233l.082-.175a3.232 3.232 0 00.222-.688 8.785 8.785 0 01.992-2.648c.992-1.727 2.893-4.293 5.3-4.06 0 0 1.995.117 1.552 3.547l19.763-11.445a8.7 8.7 0 014.107-7.093c2.613-1.657 3.523.3 3.862 2.193a3.162 3.162 0 001.213-2.263" fill="#3673ee"/><path data-name="패스 840376" d="M65.73 33.25s-1.248-4.76-6.2-1.6-3.068 6.417-7.42 8.4c-3.08 1.4-8.2 2.45-11.993 3.8a32.947 32.947 0 01-7.21 1.622 4.56 4.56 0 00-4.037 2.917l-.257 1.19a.933.933 0 01-1.155.712l-.175-.047-.945-.187s-.513 3.78-.618 3.722-12.338-6.809-13.33-8.519a6.224 6.224 0 01-.712-3.453.537.537 0 00-.14-.408l-.828-.91-.093.373a8.248 8.248 0 00-.21 3.173 4.778 4.778 0 002.123 3.733l13.428 8a2.613 2.613 0 001.167.362 3.535 3.535 0 001.517-.233l.082-.175a3.232 3.232 0 00.222-.688 8.785 8.785 0 01.992-2.648c.992-1.727 2.893-4.293 5.3-4.06 0 0 1.995.117 1.552 3.547l19.763-11.445a8.7 8.7 0 014.107-7.093c2.613-1.657 3.523.3 3.862 2.193a3.242 3.242 0 001.208-2.278z" fill="none" stroke="#222" stroke-linejoin="round" stroke-width=".233"/><path data-name="패스 840377" d="M24.874 53.9c.572.152.782-.035.863-.315-.2-.1-4.27-2.322-5.962-3.36s-4.2-2.578-5.81-3.628-1.82-1.505-1.96-1.972a31.745 31.745 0 01-.175-3.407l-.14.047a2.811 2.811 0 00-.268 1.178c0 .677.175 2.543.175 2.543a2.4 2.4 0 001.015 1.552c.922.665 5.332 3.547 7.992 5.087a27.329 27.329 0 004.27 2.275" fill="#fff"/><path data-name="패스 840378" d="M24.874 53.9c.572.152.782-.035.863-.315-.2-.1-4.27-2.322-5.962-3.36s-4.2-2.578-5.81-3.628-1.82-1.505-1.96-1.972a31.745 31.745 0 01-.175-3.407l-.14.047a2.811 2.811 0 00-.268 1.178c0 .677.175 2.543.175 2.543a2.4 2.4 0 001.015 1.552c.922.665 5.332 3.547 7.992 5.087a27.326 27.326 0 004.27 2.275z" fill="none" stroke="#222" stroke-linejoin="round" stroke-width=".233"/><path data-name="패스 840379" d="M62.137 30.427a9.938 9.938 0 00-6.58 5.542l.28-1.027a7.525 7.525 0 011.33-2.73 5.963 5.963 0 014.107-2.345 3.792 3.792 0 011.633.2 2 2 0 01.618.362l.21.175a1.14 1.14 0 00-.478-.152 3.429 3.429 0 00-1.132-.035" fill="#fff"/><path data-name="패스 840380" d="M45.465 36.785a1.681 1.681 0 00.245.3.707.707 0 00.723.245l8.2-4.76.082-.07.023-.035a1.747 1.747 0 00.082-.933z" fill="#fff"/><path data-name="패스 840381" d="M29.482 37.123l18.515-10.955a.268.268 0 01.257.455L29.89 37.449l-1.47.863a4.136 4.136 0 011.062-1.19" fill="#fff"/><path data-name="패스 840382" d="M48.265 26.623s.84-.49 3.967-.2a33.226 33.226 0 00-3.967-.4l-.455.257z" fill="#fff"/><path data-name="패스 840383" d="M7.992 48.171a.338.338 0 10.338-.338.338.338 0 00-.338.338" fill="#fff"/><g data-name="그룹 422801"><g data-name="그룹 422800" clip-path="url(#i)" transform="translate(24.045 25.795)" opacity=".3"><path data-name="패스 840384" d="M0 2.905c0 1.6 2.333 2.9 5.2 2.9s5.2-1.295 5.2-2.9-2.333-2.9-5.2-2.9S0 1.3 0 2.905" fill="#222"/></g></g><path data-name="패스 840385" d="M26.962 28.372c0 1.05 1.633 1.9 3.64 1.9s3.64-.852 3.64-1.9-1.633-1.9-3.64-1.9-3.64.852-3.64 1.9" fill="#222"/><path data-name="패스 840386" d="M53.258 19.647s2.835 1.2 4.317 2.077c1.155.688 4.737 2.917 6.382 4.037a3.523 3.523 0 011.213 1.412 8.074 8.074 0 01.782 2.567 10.857 10.857 0 01-.56 4.643 5.156 5.156 0 01-.9 1.073 3.277 3.277 0 00.012-.338c0-2.38-1.8-3.22-4.165-1.715a8.532 8.532 0 00-3.733 6.463c0 .14.012.28.012.408l-.478.28-19.308 11v-.152c.187-2.543-.91-4.165-3.85-2.462a8.921 8.921 0 00-3.99 6.6 12.061 12.061 0 01-1.108.513c-.922.362-1.7-.362-3.687-1.365s-9.578-5.787-11.142-6.767-2.217-1.878-2.368-2.613a35.079 35.079 0 01-.292-3.932 3.734 3.734 0 01.583-1.587 10.874 10.874 0 000-1.295 20.952 20.952 0 01.233-2.578l.548-.548a17.538 17.538 0 01.782-2.637l.082-.222a6.242 6.242 0 012.987-3.3l19.46-10.115a5.623 5.623 0 013.978-.467 14.771 14.771 0 012.368.828l4.935-1.225a10.024 10.024 0 015.472.817z" fill="none" stroke="#222" stroke-linejoin="round" stroke-width=".642"/><path data-name="패스 840387" d="M44.567 31.804a4.367 4.367 0 01.093.537c.082.817.3 2.847.513 3.78.128.548.28.9.525.84a1.914 1.914 0 00.63-.245l1.027-.548 7.222-4.072a.537.537 0 00.28-.455c0-.572-.012-1.505-.047-1.925-.047-.653-1.785-1.143-4.375-1.33a2.136 2.136 0 00-.56.047 16.426 16.426 0 00-4.737 2.322.9.9 0 00-.572 1.05" fill="#333"/><path data-name="선 126350" fill="#222" d="M43.003 24.477L23.94 35.49"/><path data-name="패스 840388" d="M23.686 35.63a.525.525 0 00.467-.023l19.063-11.013c.14-.082.152-.2.035-.268a.525.525 0 00-.467.023L23.721 35.362c-.14.082-.152.2-.035.268" fill="#222"/><path data-name="선 126351" fill="#222" d="M39.865 22.668L20.802 33.67"/><path data-name="패스 840389" d="M20.547 33.822a.525.525 0 00.467-.023l19.063-11.013c.14-.082.152-.2.035-.268a.525.525 0 00-.467.023L20.582 33.554c-.14.082-.152.2-.035.268" fill="#222"/><path data-name="선 126352" fill="#222" d="M36.89 20.942L17.827 31.955"/><path data-name="패스 840390" d="M17.572 32.107a.525.525 0 00.467-.023l19.063-11.013c.14-.082.152-.2.035-.268a.525.525 0 00-.467.023l-19.063 11c-.14.082-.152.2-.035.268" fill="#222"/><path data-name="패스 840391" d="M35.933 22.027l-1.75 6.02-.572.537a3.2 3.2 0 01-1.878.852l-.42.047-1.528-.117-1.132-.537a2.625 2.625 0 01-1.33-1.423L25.9 22.354l1.108.152 1.727.735 2.24.455 2.438-.327z" fill="#fff"/><path data-name="패스 840392" d="M25.235 19.446c-.117 2.2 2.345 4.13 5.507 4.293s5.81-1.482 5.927-3.687-2.345-4.13-5.507-4.293-5.81 1.487-5.927 3.687z" fill="none" stroke="#000" stroke-miterlimit="10" stroke-width=".525"/><path data-name="패스 840393" d="M27.335 27.405a3.562 3.562 0 003.348 2.088c1.657.082 3.115-.653 3.523-1.727" fill="none" stroke="#222" stroke-miterlimit="10" stroke-width=".35"/><path data-name="선 126353" fill="none" stroke="#222" stroke-miterlimit="10" stroke-width=".35" d="M36.19 21.56l-1.983 6.207"/><path data-name="선 126354" fill="none" stroke="#222" stroke-miterlimit="10" stroke-width=".35" d="M27.335 27.405l-1.972-6.977"/><path data-name="패스 840394" d="M35.478 21.816s-1.237 4.7-4.83 4.5-3.955-5.258-3.955-5.258" fill="none" stroke="#000" stroke-linecap="round" stroke-miterlimit="10" stroke-width=".35"/><path data-name="패스 840395" d="M32.69 25.772a4.235 4.235 0 01-2.065.4 4.888 4.888 0 01-1.412-.28" fill="none" stroke="#000" stroke-linecap="round" stroke-miterlimit="10" stroke-width=".933"/><path data-name="패스 840396" d="M35.803 17.745l-1.843-2.042-.618-.537.187-.432-1.447-1.447-1.12-.268-.957-.093-1.435-.793-1.4-.187-1.19.222-.968.338-.385.175-.77-.712-.747-.082-.723-.163-1.237.327-.49 1.237.058.968.175.712-.572.653-.42 1.2.513.828.84.665.058.828.3 1.1 1.12.047a3.08 3.08 0 01.338.56 6.382 6.382 0 00.327.642l.712.42 1.365-.163h.268l.968.747.992.443 1.283.5 1.563.28 2.252-.14a18.8 18.8 0 002.987-1.738 5.553 5.553 0 001.038-2.263l-.3-.922z" fill="#e5f0ff"/><path data-name="패스 840397" d="M31.092 17.686l.175.432 1.563 1.26.385.6a3.932 3.932 0 001.12-.362 8.634 8.634 0 00-3.22-2.368z" fill="#d1a900"/><path data-name="패스 840398" d="M40.763 16.753l.035-.023h-.035z" fill="#ffd100"/><path data-name="패스 840399" d="M13.218 20.591a.6.6 0 01.805.467.844.844 0 01-.537.852 1.505 1.505 0 01-1.062-.023c-.28-.093-.6-.315-.56-.618a.583.583 0 01.163-.315 1.213 1.213 0 011.108-.373" fill="#e5f0ff"/><path data-name="패스 840400" d="M13.304 20.732a.446.446 0 01.56.315.734.734 0 01-.385.688 1.546 1.546 0 01-1.05-.012.782.782 0 01-.338-.233.292.292 0 01.035-.385 1.05 1.05 0 01.98-.362c.2.035.28-.268.082-.3a1.377 1.377 0 00-1.248.408.671.671 0 00-.2.642.84.84 0 00.408.455 1.668 1.668 0 001.412.105.99.99 0 00.607-1.027.772.772 0 00-1.027-.56c-.187.093-.023.362.163.268" fill="#222"/><path data-name="패스 840401" d="M16.94 19.973a.873.873 0 011.307-.35 1.224 1.224 0 01.315 1.435 2.254 2.254 0 01-1.108 1.073c-.467.233-.945.28-1.213-.07a.852.852 0 01-.14-.478 1.762 1.762 0 01.758-1.528" fill="#e5f0ff"/><path data-name="패스 840402" d="M17.091 20.02a.726.726 0 01.968-.327 1.152 1.152 0 01.408 1.2 2.123 2.123 0 01-1.05 1.1c-.455.233-1.015.315-1.143-.245a1.6 1.6 0 01.653-1.552c.163-.117.012-.385-.163-.268a1.925 1.925 0 00-.828 1.7.854.854 0 00.49.77 1.26 1.26 0 00.863-.023 2.371 2.371 0 001.435-1.283 1.335 1.335 0 00-.432-1.622 1.027 1.027 0 00-1.5.467c-.07.187.233.28.3.082" fill="#222"/><path data-name="패스 840403" d="M20.16 17.535a1.528 1.528 0 00.992.712 1.925 1.925 0 00-.07.5 1.687 1.687 0 001.575 1.773l.268-.023a1.482 1.482 0 002.158 1.295 2.581 2.581 0 011.587.63h0a7.046 7.046 0 004.235 1.33c3.267 0 5.915-1.972 5.915-4.41 0-1.785-1.423-3.325-3.477-4.013a1.808 1.808 0 00-.105-1.027c-.432-1-1.75-1.447-3.185-1.155a3.818 3.818 0 00-3.057-1.295 4.3 4.3 0 00-2.415.688 3.127 3.127 0 00-.35-.315 2.373 2.373 0 00-3.337.14 2.217 2.217 0 00.14 2.672 1.943 1.943 0 00-.874 2.498z" fill="none" stroke="#222" stroke-linejoin="round" stroke-width=".642"/><path data-name="패스 840404" d="M31.115 17.244a8.633 8.633 0 013.22 2.368 2.777 2.777 0 00.572-.362h.012a2.716 2.716 0 012.45-1.353c.292.012.583-.082.875-.07a2.9 2.9 0 002.52-1.062l.047-.268-.07-1.143-.98-.793-.922-.49a4.482 4.482 0 00-1.832-.222 2.933 2.933 0 00-2.345 1.657l-.233.327-.665.117-.56-.058-.747.128-.712.4-.607.537z" fill="#ffda34"/><path data-name="패스 840405" d="M33.087 19.507l.187.548.782.49.875-.175 1.155-1.248.665-.467 1.4.175 1.26-.035.758-.362.373-.327.233-1.342a3.329 3.329 0 01-2.52 1.062c-.292 0-.758-.082-1.05-.093a2.971 2.971 0 00-2.567 1.167l-.432.222c-.245.21-.327.268-1.12.4" fill="#d1a900"/><path data-name="패스 840406" d="M33.646 21.023a4.659 4.659 0 00-4.118-3.418" fill="none" stroke="#000" stroke-linecap="round" stroke-miterlimit="10" stroke-width=".35"/><path data-name="패스 840407" d="M32.935 19.6c.817.292 1.493-.408 2.018-.922a2.368 2.368 0 011.05-.653 3.873 3.873 0 011.237-.093 5.814 5.814 0 002.578-.117 1.592 1.592 0 001.167-1.622c-.058-1.517-1.692-2.205-2.975-2.462a3.255 3.255 0 00-3.513 1.739l-.082.233a.187.187 0 01-.21.128c-.2-.012-.408-.058-.607-.082a3.652 3.652 0 00-1.26.07 1.931 1.931 0 00-1.482 1.47 1.459 1.459 0 00.012.525c.035.2.338.117.3-.082a1.471 1.471 0 011.062-1.552 3 3 0 011.167-.128l.572.058a.857.857 0 00.513-.012.548.548 0 00.257-.35 2.5 2.5 0 01.2-.455 2.426 2.426 0 01.63-.688 3.162 3.162 0 011.843-.63 4.769 4.769 0 011.645.385 2.61 2.61 0 011.54 1.4 1.4 1.4 0 01-.012.98 1.458 1.458 0 01-.688.7 4.123 4.123 0 01-2.345.2 3.471 3.471 0 00-2.45.49c-.7.548-1.2 1.47-2.065 1.167-.187-.07-.268.233-.082.3" fill="#222"/><path data-name="패스 840408" d="M40.659 16.473a3.426 3.426 0 01-.233 1.412.98.98 0 01-.56.513 4.4 4.4 0 01-1.073.257 5.215 5.215 0 01-1.108.012l-.525-.082a2.251 2.251 0 00-.537-.093c-.327.012-.525.35-.712.583a9.521 9.521 0 01-.723.8 2.019 2.019 0 01-.945.5.84.84 0 01-.828-.3c-.14-.152-.362.07-.222.222a1.143 1.143 0 00.817.408 1.913 1.913 0 00.9-.257c.677-.338 1.05-1.038 1.563-1.563.14-.14.315-.058.49-.023l.583.093a5.285 5.285 0 001.213.012 4.947 4.947 0 001.178-.268 1.342 1.342 0 00.677-.513 2.334 2.334 0 00.28-.852 5.1 5.1 0 00.07-.863.163.163 0 00-.315 0" fill="#222"/><path data-name="선 126355" fill="none" stroke="#222" stroke-miterlimit="10" stroke-width=".642" d="M25.55 21.747l.56 2.007"/><path data-name="패스 840409" d="M39.865 18.865a1.251 1.251 0 00.758-.677 3.388 3.388 0 00.35-1.715h0a1.529 1.529 0 00.012-.245C40.95 14.7 39.317 14 38.022 13.743a3.279 3.279 0 00-3.535 1.727" fill="none" stroke="#222" stroke-miterlimit="10" stroke-width=".642"/><path data-name="패스 840410" d="M38.267 37.485c1.773 1.062 1.855 4.188.175 6.977s-4.468 4.177-6.242 3.115-1.855-4.188-.175-6.977 4.468-4.177 6.242-3.115" fill="#3673ee"/><path data-name="패스 840411" d="M44.1 41.311c.758.455.758 1.855 0 3.115s-1.995 1.925-2.753 1.47-.758-1.855 0-3.115 1.995-1.925 2.753-1.47" fill="#3673ee"/><path data-name="패스 840412" d="M41.464 33.237c.5.3.548 1.167.093 1.925s-1.237 1.132-1.738.828-.548-1.167-.093-1.925 1.237-1.132 1.738-.828" fill="#3673ee"/></g></g></svg>