<svg xmlns="http://www.w3.org/2000/svg" xmlns:xlink="http://www.w3.org/1999/xlink" width="50" height="50" viewBox="0 0 50 50">
  <defs>
    <clipPath id="clip-path">
      <rect id="사각형_337253" data-name="사각형 337253" width="50" height="50" fill="none"/>
    </clipPath>
  </defs>
  <g id="icon_membership_silver_40" transform="translate(25 25)">
    <g id="icon_membership_silver_40-2" data-name="icon_membership_silver_40" transform="translate(-25 -25)" clip-path="url(#clip-path)">
      <path id="패스_861296" data-name="패스 861296" d="M23.2,4.4A19.5,19.5,0,1,1,3.7,23.9,19.5,19.5,0,0,1,23.2,4.4" transform="translate(0.925 1.1)" fill="#fff"/>
      <path id="패스_861297" data-name="패스 861297" d="M24.2,5A19.5,19.5,0,1,1,4.7,24.5,19.5,19.5,0,0,1,24.2,5" transform="translate(1.175 1.25)" fill="#c5c9d3"/>
      <path id="패스_861298" data-name="패스 861298" d="M23.2,4.4A19.5,19.5,0,1,1,3.7,23.9,19.5,19.5,0,0,1,23.2,4.4Z" transform="translate(0.925 1.1)" fill="none" stroke="#717888" stroke-linejoin="round" stroke-width="1.25"/>
      <path id="패스_861299" data-name="패스 861299" d="M22.1,12.4a9.5,9.5,0,1,1-9.5,9.625h0a9.5,9.5,0,0,1,9.5-9.5" transform="translate(3.15 3.1)" fill="#fff"/>
      <path id="패스_861300" data-name="패스 861300" d="M13.1,17.3a9.25,9.25,0,0,1,1.75-2.5" transform="translate(3.275 3.7)" fill="none" stroke="#111" stroke-linecap="square" stroke-linejoin="round" stroke-width="1.25"/>
      <path id="패스_861301" data-name="패스 861301" d="M15.026,10.4s0,3.75,2.25,3.75H17.4a9.5,9.5,0,1,1-4.125,4.375" transform="translate(3.099 2.6)" fill="none" stroke="#111" stroke-linecap="round" stroke-linejoin="round" stroke-width="1.25"/>
      <path id="패스_861302" data-name="패스 861302" d="M16.928,10.9s-.625,2.125.75,2.375" transform="translate(4.197 2.725)" fill="none" stroke="#111" stroke-linecap="round" stroke-linejoin="round" stroke-width="1.25"/>
      <path id="패스_861303" data-name="패스 861303" d="M21.025,20.9a1.875,1.875,0,0,1-3.625,0" transform="translate(4.35 5.225)" fill="none" stroke="#111" stroke-linecap="square" stroke-miterlimit="10" stroke-width="1.25"/>
      <line id="선_131679" data-name="선 131679" y2="0.375" transform="translate(26.375 22.625)" fill="none" stroke="#111" stroke-linecap="round" stroke-width="1.25"/>
      <line id="선_131680" data-name="선 131680" y2="1.625" transform="translate(26.375 21)" fill="none" stroke="#111" stroke-width="1.25"/>
      <line id="선_131681" data-name="선 131681" y2="0.5" transform="translate(20.75 22.5)" fill="none" stroke="#111" stroke-linecap="round" stroke-width="1.25"/>
      <line id="선_131682" data-name="선 131682" y2="1.5" transform="translate(20.75 21)" fill="none" stroke="#111" stroke-width="1.25"/>
    </g>
  </g>
</svg>
