<svg xmlns="http://www.w3.org/2000/svg" xmlns:xlink="http://www.w3.org/1999/xlink" width="28" height="28" viewBox="0 0 28 28"><defs><style>.a,.d,.g{fill:none;}.b{fill:#fff;}.c{clip-path:url(#a);}.d,.f,.g{stroke:#111;stroke-width:1.5px;}.e{fill:#111;}.f{fill:#fafafa;}.g{stroke-linecap:round;}.h{stroke:none;}</style><clipPath id="a"><rect class="a" width="28" height="28"/></clipPath></defs><g transform="translate(10 10)"><g transform="translate(-10 -10)"><rect class="b" width="14" height="23" rx="1" transform="translate(6 4)"/><g class="d" transform="translate(3 1)"><rect class="h" width="16" height="25" rx="2"/><rect class="a" x="0.75" y="0.75" width="14.5" height="23.5" rx="1.25"/></g><rect class="e" width="5.564" height="1.5" rx="0.75" transform="translate(8.347 3.782)"/><g class="f" transform="translate(13 13)"><path class="h" d="M2,0h8a2,2,0,0,1,2,2V14a1,1,0,0,1-1,1H3a3,3,0,0,1-3-3V2A2,2,0,0,1,2,0Z"/><path class="a" d="M2,.75h8A1.25,1.25,0,0,1,11.25,2V14a.25.25,0,0,1-.25.25H3A2.25,2.25,0,0,1,.75,12V2A1.25,1.25,0,0,1,2,.75Z"/></g><line class="g" x1="4" transform="translate(17 18)"/><line class="g" x1="4" transform="translate(17 22)"/></g></g></svg>