<svg xmlns="http://www.w3.org/2000/svg" width="38" height="38"><defs><clipPath id="a"><path data-name="사각형 296115" fill="none" d="M0 0h24v24H0z"/></clipPath><clipPath id="b"><path data-name="사각형 296113" transform="translate(-2 -2)" fill="none" d="M0 0h28v28H0z"/></clipPath></defs><g data-name="그룹 387250"><g data-name="타원 9716" fill="#45d49a" stroke="#3ebe8a"><circle cx="19" cy="19" r="19" stroke="none"/><circle cx="19" cy="19" r="18.5" fill="none"/></g><g data-name="그룹 386052" transform="translate(7 7)" clip-path="url(#a)"><g data-name="그룹 386051" clip-path="url(#a)"><path data-name="패스 779881" d="M5.8 3.1H9a.8.8 0 010 1.5H5.8z" fill="#fff"/><path data-name="선 113892" fill="none" stroke="#fff" stroke-linecap="round" stroke-width="1.5" d="M22.1 10v5.3"/><path data-name="선 113893" fill="none" stroke="#fff" stroke-width="1.5" d="M22.1 8.8v4.5"/><path data-name="패스 779882" d="M19.5 18.9H6.1a3 3 0 01-3-3V6.5h16.4z" fill="none" stroke="#fff" stroke-linejoin="round" stroke-width="1.5"/><path data-name="패스 779883" d="M13.5 3.1h3.2a.8.8 0 010 1.5h-3.2z" fill="#fff"/><path data-name="패스 779884" d="M15.7 12.2l-5.1-2.6v2.6H7.1l5.2 2.6v-2.6z" fill="#fff"/></g></g></g></svg>