<svg xmlns="http://www.w3.org/2000/svg" width="25" height="25" viewBox="0 0 25 25">
  <path id="제외_2" data-name="제외 2" d="M-1282.5,25a12.419,12.419,0,0,1-8.839-3.661A12.419,12.419,0,0,1-1295,12.5a12.419,12.419,0,0,1,3.661-8.839A12.419,12.419,0,0,1-1282.5,0a12.419,12.419,0,0,1,8.839,3.661A12.418,12.418,0,0,1-1270,12.5a12.418,12.418,0,0,1-3.661,8.839A12.419,12.419,0,0,1-1282.5,25Zm-4.307-12.781h0l-1.39,1.439,3.162,3.1a1,1,0,0,0,.686.28l.067,0a.982.982,0,0,0,.106-.006.991.991,0,0,0,.563-.25l5.944-5.353a.994.994,0,0,0,.33-.692.993.993,0,0,0-.256-.721,1,1,0,0,0-.743-.331,1,1,0,0,0-.67.257l-5.28,4.755-2.52-2.478Z" transform="translate(1295)" fill="#fddb2b"/>
</svg>
