<svg xmlns="http://www.w3.org/2000/svg" width="170" height="70"><g data-name="그룹 310267"><g data-name="그룹 310211" fill="none"><path data-name="사각형 71413" d="M0 40h30v30H0z"/><path data-name="사각형 71414" d="M0 40h30v30H0z"/><g data-name="패스 262785"><path d="M11.266 50.898H.998l8.215 7.468-3.174 10.632 8.959-6.716 9.524 6.716-3.174-10.637 7.65-7.463h-9.9l-4.1-9.9z"/><path d="M15.111 47.786l-1.506 3.99-.61 1.617h-5.53l3.43 3.118 1.163 1.058-.45 1.506-1.008 3.382 2.9-2.175 1.456-1.092 1.486 1.05 3.62 2.554-1.11-3.719-.432-1.448 1.082-1.056 3.258-3.178h-5.422l-.64-1.542-1.687-4.065m-.11-6.788l4.107 9.895h9.895l-7.655 7.468 3.174 10.642L15 62.282l-8.961 6.72 3.174-10.641-8.215-7.468h10.268L15 40.998z" fill="#111"/></g><path data-name="사각형 71415" d="M0 40h30v30H0z"/><g data-name="Icon_30_Star"><path data-name="사각형 71413" d="M35 40h30v30H35z"/><path data-name="사각형 71414" d="M35 40h30v30H35z"/><g data-name="패스 262785"><path d="M46.266 50.898H35.998l8.215 7.468-3.174 10.632 8.959-6.716 9.524 6.716-3.174-10.637 7.65-7.463h-9.9l-4.1-9.9z"/><path d="M50.111 47.786l-1.506 3.99-.61 1.617h-5.53l3.43 3.118 1.163 1.058-.45 1.506-1.008 3.382 2.9-2.175 1.456-1.092 1.486 1.05 3.62 2.554-1.11-3.719-.432-1.448 1.082-1.056 3.258-3.178h-5.422l-.64-1.542-1.687-4.065m-.11-6.788l4.107 9.895h9.895l-7.655 7.468 3.174 10.642L50 62.282l-8.961 6.72 3.174-10.641-8.215-7.468h10.268L50 40.998z" fill="#111"/></g><path data-name="사각형 71415" d="M35 40h30v30H35z"/></g><g data-name="Icon_30_Star"><path data-name="사각형 71413" d="M70 40h30v30H70z"/><path data-name="사각형 71414" d="M70 40h30v30H70z"/><g data-name="패스 262785"><path d="M81.266 50.898H70.998l8.215 7.468-3.174 10.632 8.959-6.716 9.524 6.716-3.174-10.637 7.65-7.463h-9.9l-4.1-9.9z"/><path d="M85.111 47.786l-1.506 3.99-.61 1.617h-5.53l3.43 3.118 1.163 1.058-.45 1.506-1.008 3.382 2.9-2.175 1.456-1.092 1.486 1.05 3.62 2.554-1.11-3.719-.432-1.448 1.082-1.056 3.258-3.178h-5.422l-.64-1.542-1.687-4.065m-.11-6.788l4.107 9.895h9.895l-7.655 7.468 3.174 10.642L85 62.282l-8.961 6.72 3.174-10.641-8.215-7.468h10.268L85 40.998z" fill="#111"/></g><path data-name="사각형 71415" d="M70 40h30v30H70z"/></g><g data-name="Icon_30_Star"><path data-name="사각형 71413" d="M105 40h30v30h-30z"/><path data-name="사각형 71414" d="M105 40h30v30h-30z"/><g data-name="패스 262785"><path d="M116.266 50.898h-10.268l8.215 7.468-3.174 10.632 8.959-6.716 9.524 6.716-3.174-10.637 7.65-7.463h-9.9l-4.1-9.9z"/><path d="M120.111 47.786l-1.506 3.99-.61 1.617h-5.53l3.43 3.118 1.163 1.058-.45 1.506-1.008 3.382 2.9-2.175 1.456-1.092 1.486 1.05 3.62 2.554-1.11-3.719-.432-1.448 1.082-1.056 3.258-3.178h-5.422l-.64-1.542-1.687-4.065m-.11-6.788l4.107 9.895h9.895l-7.655 7.468 3.174 10.642L120 62.282l-8.961 6.72 3.174-10.641-8.215-7.468h10.268L120 40.998z" fill="#111"/></g><path data-name="사각형 71415" d="M105 40h30v30h-30z"/></g><g data-name="Icon_30_Star"><path data-name="사각형 71413" d="M140 40h30v30h-30z"/><path data-name="사각형 71414" d="M140 40h30v30h-30z"/><g data-name="패스 262785"><path d="M151.266 50.898h-10.268l8.215 7.468-3.174 10.632 8.959-6.716 9.524 6.716-3.174-10.637 7.65-7.463h-9.9l-4.1-9.9z"/><path d="M155.111 47.786l-1.506 3.99-.61 1.617h-5.53l3.43 3.118 1.163 1.058-.45 1.506-1.008 3.382 2.9-2.175 1.456-1.092 1.486 1.05 3.62 2.554-1.11-3.719-.432-1.448 1.082-1.056 3.258-3.178h-5.422l-.64-1.542-1.687-4.065m-.11-6.788l4.107 9.895h9.895l-7.655 7.468 3.174 10.642L155 62.282l-8.961 6.72 3.174-10.641-8.215-7.468h10.268L155 40.998z" fill="#111"/></g><path data-name="사각형 71415" d="M140 40h30v30h-30z"/></g></g><g data-name="그룹 310266"><g data-name="Icon_30_Star"><path data-name="사각형 71413" fill="none" d="M0 0h30v30H0z"/><path data-name="사각형 71414" fill="none" d="M0 0h30v30H0z"/><path data-name="패스 262785" d="M11.266 10.898H.998l8.215 7.468-3.174 10.632 8.959-6.716 9.524 6.716-3.174-10.637 7.65-7.463h-9.9l-4.1-9.9z" fill="#111"/><path data-name="사각형 71415" fill="none" d="M0 0h30v30H0z"/></g><g data-name="Icon_30_Star"><path data-name="사각형 71413" fill="none" d="M35 0h30v30H35z"/><path data-name="사각형 71414" fill="none" d="M35 0h30v30H35z"/><path data-name="패스 262785" d="M46.266 10.898H35.998l8.215 7.468-3.174 10.632 8.959-6.716 9.524 6.716-3.174-10.637 7.65-7.463h-9.9l-4.1-9.9z" fill="#111"/><path data-name="사각형 71415" fill="none" d="M35 0h30v30H35z"/></g><g data-name="Icon_30_Star"><path data-name="사각형 71413" fill="none" d="M70 0h30v30H70z"/><path data-name="사각형 71414" fill="none" d="M70 0h30v30H70z"/><path data-name="패스 262785" d="M81.266 10.898H70.998l8.215 7.468-3.174 10.632 8.959-6.716 9.524 6.716-3.174-10.637 7.65-7.463h-9.9l-4.1-9.9z" fill="#111"/><path data-name="사각형 71415" fill="none" d="M70 0h30v30H70z"/></g><g data-name="Icon_30_Star"><path data-name="사각형 71413" fill="none" d="M105 0h30v30h-30z"/><path data-name="사각형 71414" fill="none" d="M105 0h30v30h-30z"/><path data-name="패스 262785" d="M116.266 10.898h-10.268l8.215 7.468-3.174 10.632 8.959-6.716 9.524 6.716-3.174-10.637 7.65-7.463h-9.9l-4.1-9.9z" fill="#111"/><path data-name="사각형 71415" fill="none" d="M105 0h30v30h-30z"/></g><g data-name="Icon_30_Star"><path data-name="사각형 71413" fill="none" d="M140 0h30v30h-30z"/><path data-name="사각형 71414" fill="none" d="M140 0h30v30h-30z"/><path data-name="패스 262785" d="M151.266 10.898h-10.268l8.215 7.468-3.174 10.632 8.959-6.716 9.524 6.716-3.174-10.637 7.65-7.463h-9.9l-4.1-9.9z" fill="#111"/><path data-name="사각형 71415" fill="none" d="M140 0h30v30h-30z"/></g></g></g></svg>