<svg xmlns="http://www.w3.org/2000/svg" width="20" height="20.023" viewBox="0 0 20 20.023"><defs><style>.a{fill:rgba(0,0,0,0);}.b,.c,.e{fill:#fff;}.b,.c,.d,.e{stroke:#111;}.b,.d{stroke-linecap:round;}.b,.c,.d{stroke-width:1.5px;}.d,.g{fill:none;}.f{stroke:none;}</style></defs><g transform="translate(1 -11.977)"><rect class="a" width="20" height="20" transform="translate(-1 12)"/><path class="b" d="M2.778,14H14.222A1.9,1.9,0,0,0,16,12V2a1.9,1.9,0,0,0-1.778-2H1.778A1.9,1.9,0,0,0,0,2v9" transform="translate(1 17)"/><g class="c" transform="translate(-1 15)"><rect class="f" width="20" height="6" rx="2"/><rect class="g" x="0.75" y="0.75" width="18.5" height="4.5" rx="1.25"/></g><path class="d" d="M5.6,12l3.5,2,3.5-2" transform="translate(-0.103 1)"/><g class="e" transform="translate(8.5 15)"><rect class="f" width="1.5" height="16"/><rect class="g" x="0.5" y="0.5" width="0.5" height="15"/></g></g></svg>