<svg xmlns="http://www.w3.org/2000/svg" width="90.001" height="43.004"><defs><clipPath id="c"><path class="a" d="M0 0h16v16H0z"/></clipPath><filter id="a" x="0" y="0" width="90.001" height="43.004" filterUnits="userSpaceOnUse"><feOffset dy="1"/><feGaussianBlur stdDeviation="1.5" result="b"/><feFlood flood-opacity=".161"/><feComposite operator="in" in2="b"/><feComposite in="SourceGraphic"/></filter><style>.a{fill:none}.d{clip-path:url(#c)}</style></defs><g filter="url(#a)"><path d="M65.634 28.505H16.969a12.5 12.5 0 010-25h56.073a12.533 12.533 0 0112.464 12.5 12.877 12.877 0 01-1.853 6.477L74.986 37.51 71.8 31.992a6.887 6.887 0 00-6.166-3.487z" fill-rule="evenodd" fill="#fff"/></g><text transform="translate(36.5 20.5)" font-size="11" font-family="MoebiusKorea-Regular,Moebius Korea" letter-spacing="-.03em" fill="#111"><tspan x="0" y="0">대표카드</tspan></text><path stroke-linejoin="round" stroke="#111" fill="#fff" d="M17.5 11.1h14v10h-14z"/><path class="a" d="M16.5 7.5h16v16h-16z"/><path fill="#111" d="M17.6 12.9h14v1h-14z"/><path class="a" d="M16.5 7.5h16v16h-16z"/><path stroke-miterlimit="10" stroke-linecap="round" stroke="#111" fill="none" d="M27.4 18.4h-.9"/><path stroke-miterlimit="10" stroke="#111" fill="none" d="M29.5 18.4h-2.4"/></svg>