<svg xmlns="http://www.w3.org/2000/svg" xmlns:xlink="http://www.w3.org/1999/xlink" width="20" height="20" viewBox="0 0 20 20"><defs><style>.a{fill:#d5d5d5;}.b,.g,.h,.i{fill:none;}.c{clip-path:url(#a);}.d{clip-path:url(#b);}.e{opacity:0;}.f{fill:#f0f;}.g,.h,.i{stroke:#111;stroke-width:1.5px;}.g,.i{stroke-linecap:round;}.g,.h{stroke-miterlimit:10;}.h{stroke-linecap:square;}.i{stroke-linejoin:round;}.j{fill:#111;}</style><clipPath id="a"><rect class="a" width="20" height="20"/></clipPath><clipPath id="b"><rect class="b" width="20" height="20"/></clipPath></defs><g class="c"><g transform="translate(10 10)"><g class="d" transform="translate(-10 -10)"><g class="d"><g class="e"><g class="d"><rect class="f" width="20" height="20"/></g></g></g><line class="g" x1="0.7" y1="0.7" transform="translate(6.2 12.9)"/><line class="h" x1="0.7" y1="0.7" transform="translate(6.9 13.6)"/><g class="d"><path class="i" d="M10.8,2,.9,11.9l5.7,5.7h0l.5.5s1.6,1.6,4.1-1l7.9-7.9L17.9,2.7,11.3,1.4l-.5.5"/><path class="j" d="M13.4,6.3a.8.8,0,1,1-.8.8.8.8,0,0,1,.8-.8m0-1.5a2.3,2.3,0,1,0,2.3,2.3,2.3,2.3,0,0,0-2.3-2.3"/></g><g class="d"><g class="e"><g class="d"><rect class="f" width="20" height="20"/></g></g></g><line class="g" x1="0.7" y1="0.7" transform="translate(6.2 12.9)"/><line class="h" x1="0.7" y1="0.7" transform="translate(6.9 13.6)"/><g class="d"><path class="j" d="M13.4,6.3a.8.8,0,1,1-.8.8.8.8,0,0,1,.8-.8m0-1.5a2.3,2.3,0,1,0,2.3,2.3,2.3,2.3,0,0,0-2.3-2.3"/></g></g></g></g></svg>