<svg xmlns="http://www.w3.org/2000/svg" width="17" height="17" viewBox="0 0 17 17"><defs><style>.a{fill:red;opacity:0;}.a,.b{stroke:#111;}.b{fill:none;stroke-miterlimit:10;stroke-width:1.5px;}</style></defs><g transform="translate(8424.5 2589.5)"><rect class="a" width="16" height="16" transform="translate(-8424 -2589)"/><g transform="translate(0.99 1)"><g transform="translate(-8423.989 -2589)"><path class="b" d="M3684.011,176.1a5.36,5.36,0,0,0-10.123,2.457c0,3.573,4.764,7.741,4.764,7.741h1.191s.233-.2.6-.56" transform="translate(-3673.888 -173.201)"/></g><path class="b" d="M3716.166,218.641a2.382,2.382,0,1,1,2.063-3.573" transform="translate(-12134.797 -2799.842)"/><path class="b" d="M3775.595,248.771a2.978,2.978,0,1,0-4.558,2.515l1.581,1.654,1.58-1.654A2.968,2.968,0,0,0,3775.595,248.771Z" transform="translate(-12186.483 -2829.377)"/><line class="b" x2="1.191" transform="translate(-8414.474 -2580.664)"/></g></g></svg>