<svg xmlns="http://www.w3.org/2000/svg" width="24" height="24" viewBox="0 0 24 24"><defs><style>.a{fill:#0e6bb0;}</style></defs><path class="a" d="M129.241,247.206a12,12,0,1,1,24,0,12,12,0,0,1-24,0Zm8.071,6.826c2.281,1.8,5.859,1.166,5.859,1.166,1.092,0,.307-.922.307-.922a2,2,0,0,1-.239-2.474,3.5,3.5,0,0,1,2.076-1.648,9.382,9.382,0,0,1,4.906-.535c.817.2.135-.822.135-.822-.51-.584-.2-1.847-.2-1.847a4.052,4.052,0,0,1,2.85-2.177l-.078-.357-.064-.255a6.031,6.031,0,0,0-2.028-.457c-3.951-.583-5.926,1.017-5.926,1.017-3.166,2.28,0,4.439,0,4.439a10.264,10.264,0,0,0-5.314.071,5.119,5.119,0,0,0-2.485,1.335A2.21,2.21,0,0,0,137.312,254.031Zm-8.067-6.411.066.154c1.516,3.4,6.895,2.378,6.895,2.378.753-.144.171-.678.171-.678a2.351,2.351,0,0,1,.41-3.4,7.859,7.859,0,0,1,6.18-1.429c.819.023.34-.489.34-.489a2.364,2.364,0,0,1-.322-1.867,4.233,4.233,0,0,1,2.791-2.449c.631-.362,0-.7,0-.7-5.451-1.6-8.139.631-8.139.631-3.253,2.4.186,4.439.186,4.439a13.179,13.179,0,0,0-3.917-.342c-4.222.484-4.645,2.788-4.645,2.788s-.018.291-.018.547m9.705,5.043c.407,0,.736-.466.736-1.046s-.329-1.048-.736-1.048-.735.47-.735,1.048S138.542,252.248,138.946,252.248Zm-7.169-4.89c.4,0,.736-.467.736-1.046s-.331-1.048-.736-1.048-.736.468-.736,1.048S131.368,247.358,131.777,247.358Zm7.048-5.231c.406,0,.736-.467.736-1.045s-.33-1.048-.736-1.048-.734.469-.734,1.048S138.417,242.128,138.825,242.128Zm7.188,4.947c.4,0,.732-.466.732-1.045s-.328-1.049-.732-1.049-.735.47-.735,1.049S145.607,247.074,146.012,247.074Z" transform="translate(-129.241 -235.021)"/></svg>