<svg xmlns="http://www.w3.org/2000/svg" width="28" height="28"><defs><clipPath id="clip-path"><path id="사각형_239124" data-name="사각형 239124" fill="none" d="M0 0h28v28H0z"/></clipPath><style>.cls-2{clip-path:url(#clip-path)}.cls-8{font-size:9.95px;font-family:MoebiusKorea-Bold,Moebius Korea;font-weight:700}</style></defs><g id="_1:1문의_28x28" data-name="1:1문의_28x28" transform="translate(14 14)"><g id="그룹_309270" data-name="그룹 309270" class="cls-2" transform="translate(-14 -14)"><path id="사각형_239119" data-name="사각형 239119" fill="#fddb2b" d="M0 0h28v28H0z"/><g id="그룹_309268" data-name="그룹 309268" class="cls-2"><path id="패스_638126" data-name="패스 638126" d="M8.2 24.7A11.6 11.6 0 0020.6 26l3.8 1a.5.5 0 00.7-.6l-.7-3.5a11.5 11.5 0 10-16.2 1.8" fill="#fff"/><path id="패스_638127" data-name="패스 638127" d="M23.6 25.4l-.8-4.3a11.5 11.5 0 10-3.9 3.1l4.7 1.2" stroke="#000111" stroke-linecap="round" stroke-miterlimit="10" stroke-width="1.5" fill="none"/></g><text id="_1" data-name="1" class="cls-8" transform="translate(6.2 17.9)"><tspan x="0" y="0">1</tspan></text><text id="_1-2" data-name="1" class="cls-8" transform="translate(15.5 17.9)"><tspan x="0" y="0">1</tspan></text><g id="그룹_309269" data-name="그룹 309269" class="cls-2"><path id="패스_638128" data-name="패스 638128" d="M14.6 12.6a.9.9 0 11-.9-.9.9.9 0 01.9.9"/><path id="패스_638129" data-name="패스 638129" d="M14.6 15.8a.9.9 0 11-.9-.9.9.9 0 01.9.9"/></g></g></g></svg>