<svg xmlns="http://www.w3.org/2000/svg" xmlns:xlink="http://www.w3.org/1999/xlink" width="28" height="28" viewBox="0 0 28 28"><defs><style>.a,.f,.g,.h{fill:none;}.b{clip-path:url(#a);}.c{opacity:0;}.d{fill:#f0f;}.e{fill:#56c6e4;}.f,.g,.h{stroke:#111;stroke-width:1.5px;}.g,.h{stroke-linecap:round;}.g{stroke-linejoin:round;}</style><clipPath id="a"><rect class="a" width="28" height="28"/></clipPath></defs><g transform="translate(14 14)"><g class="b" transform="translate(-14 -14)"><g class="b"><g class="c"><g class="b"><rect class="d" width="28" height="28"/></g></g><path class="e" d="M7.4,10.4H23.7a.4.4,0,0,1,.4.4v.6a3.3,3.3,0,0,1-3.3,3.3H8.9A1.9,1.9,0,0,1,7,12.8v-2a.4.4,0,0,1,.4-.4"/><path class="f" d="M15.1,22.1v3.2a1,1,0,0,1-1,1h-.2a1,1,0,0,1-1-1V22.1"/><path class="g" d="M24.6,13.8v5.1A2.6,2.6,0,0,1,22,21.5H6a2.6,2.6,0,0,1-2.6-2.6V13.5H2.2V9.1H25.8v1.8a2.6,2.6,0,0,1-2.6,2.6H11.7"/><path class="h" d="M16.4,4.9a2.85,2.85,0,0,0-5.7,0V8.7"/></g></g></g></svg>