<svg xmlns="http://www.w3.org/2000/svg" xmlns:xlink="http://www.w3.org/1999/xlink" width="38" height="38" viewBox="0 0 38 38">
  <defs>
    <clipPath id="clip-path">
      <rect id="사각형_296116" data-name="사각형 296116" width="24" height="24" fill="none"/>
    </clipPath>
  </defs>
  <g id="그룹_387249" data-name="그룹 387249" transform="translate(-58 -43)">
    <g id="타원_9715" data-name="타원 9715" transform="translate(58 43)" fill="#2e97fa" stroke="#1e83e2" stroke-width="1">
      <circle cx="19" cy="19" r="19" stroke="none"/>
      <circle cx="19" cy="19" r="18.5" fill="none"/>
    </g>
    <g id="icon_repair_w_24" transform="translate(77 62)">
      <g id="그룹_386053" data-name="그룹 386053" transform="translate(-12 -12)" clip-path="url(#clip-path)">
        <path id="패스_779885" data-name="패스 779885" d="M20,12.5A5.8,5.8,0,0,1,14.4,14L7.2,21a2.9,2.9,0,0,1-4-4l7.1-7.1a5.8,5.8,0,0,1,7.7-7L14.8,6.1l3.3,3.3,3.1-3.1A5.8,5.8,0,0,1,20,12.5Z" fill="none" stroke="#fff" stroke-linejoin="round" stroke-width="1.5"/>
        <line id="선_113894" data-name="선 113894" x2="2.8" y2="2.8" transform="translate(13 8.5)" fill="none" stroke="#fff" stroke-width="1.5"/>
      </g>
    </g>
  </g>
</svg>
