<svg xmlns="http://www.w3.org/2000/svg" xmlns:xlink="http://www.w3.org/1999/xlink" width="24" height="24" viewBox="0 0 24 24">
  <defs>
    <clipPath id="clip-path">
      <rect id="사각형_296089" data-name="사각형 296089" width="24" height="24" fill="none"/>
    </clipPath>
  </defs>
  <g id="icon_home_on_24" transform="translate(12 12)">
    <g id="그룹_385534" data-name="그룹 385534" transform="translate(-12 -12)" clip-path="url(#clip-path)">
      <g id="그룹_385533" data-name="그룹 385533" clip-path="url(#clip-path)">
        <g id="그룹_385532" data-name="그룹 385532" opacity="0">
          <g id="그룹_385531" data-name="그룹 385531" clip-path="url(#clip-path)">
            <rect id="사각형_296086" data-name="사각형 296086" width="24" height="24" fill="#ff00f3"/>
          </g>
        </g>
        <path id="패스_779842" data-name="패스 779842" d="M11,22.5H5.3a2.9,2.9,0,0,1-2.9-2.9V9.2l8.9-6.9a1,1,0,0,1,1.3,0l8.9,6.9V22.5Z" fill="#cbdbfa"/>
        <line id="선_113869" data-name="선 113869" y1="1" transform="translate(12 17)" fill="none" stroke="#3673ee" stroke-linecap="round" stroke-linejoin="round" stroke-width="1.5"/>
        <path id="패스_779843" data-name="패스 779843" d="M11,22.5H5a3,3,0,0,1-3-3V9l9.3-7.3a1,1,0,0,1,1.4,0L22,9V22.5H15S12,23,12,18" fill="none" stroke="#3673ee" stroke-linejoin="round" stroke-width="1.5"/>
        <line id="선_113870" data-name="선 113870" x2="1.1" transform="translate(12.4 12)" fill="none" stroke="#3673ee" stroke-linecap="round" stroke-width="1.5"/>
        <line id="선_113871" data-name="선 113871" x2="3.9" transform="translate(9.5 12)" fill="none" stroke="#3673ee" stroke-width="1.5"/>
      </g>
    </g>
  </g>
</svg>
