<svg xmlns="http://www.w3.org/2000/svg" xmlns:xlink="http://www.w3.org/1999/xlink" width="16" height="16" viewBox="0 0 16 16"><defs><style>.a,.e{fill:none;}.b{clip-path:url(#a);}.c{opacity:0;}.d{fill:#f0f;}.e{stroke:#111;stroke-linejoin:round;stroke-width:1.5px;}.f{fill:#111;}</style><clipPath id="a"><rect class="a" width="16" height="16"/></clipPath></defs><g transform="translate(8 8)"><g class="b" transform="translate(-8 -8)"><g class="b"><g class="c"><g class="b"><rect class="d" width="16" height="16"/></g></g><path class="e" d="M4.8,11.2,2,8.4A3.606,3.606,0,0,1,7.1,3.3l.9.9.9-.9A3.606,3.606,0,1,1,14,8.4h0l-6,6Z"/></g></g></g><g class="c" transform="translate(8 8)"><g class="b" transform="translate(-8 -8)"><g class="b"><g class="c"><g class="b"><rect class="d" width="16" height="16"/></g></g><path class="f" d="M4.8,11.2,2,8.4A3.606,3.606,0,0,1,7.1,3.3l.9.9.9-.9A3.606,3.606,0,1,1,14,8.4h0l-6,6Z"/><path class="e" d="M4.8,11.2,2,8.4A3.606,3.606,0,0,1,7.1,3.3l.9.9.9-.9A3.606,3.606,0,1,1,14,8.4h0l-6,6Z"/></g></g></g></svg>