<svg xmlns="http://www.w3.org/2000/svg" xmlns:xlink="http://www.w3.org/1999/xlink" width="70" height="70" viewBox="0 0 70 70">
  <defs>
    <clipPath id="clip-path">
      <rect id="사각형_318434" data-name="사각형 318434" width="70" height="70" fill="none"/>
    </clipPath>
    <clipPath id="clip-path-3">
      <rect id="사각형_318430" data-name="사각형 318430" width="49.397" height="24.464" fill="none"/>
    </clipPath>
    <clipPath id="clip-path-4">
      <rect id="사각형_318431" data-name="사각형 318431" width="6.732" height="29.075" fill="none"/>
    </clipPath>
    <clipPath id="clip-path-5">
      <rect id="사각형_318432" data-name="사각형 318432" width="11.947" height="11.873" fill="none"/>
    </clipPath>
  </defs>
  <g id="illust_oil_battery_main_110" transform="translate(35 35)">
    <g id="그룹_422789" data-name="그룹 422789" transform="translate(-35 -35)" clip-path="url(#clip-path)">
      <g id="그룹_422788" data-name="그룹 422788" clip-path="url(#clip-path)">
        <g id="그룹_422783" data-name="그룹 422783" transform="translate(17.197 34.802)" opacity="0.2">
          <g id="그룹_422782" data-name="그룹 422782" clip-path="url(#clip-path-3)">
            <path id="패스_840272" data-name="패스 840272" d="M196.411,314.645a.618.618,0,0,1,.012,1.073l-11.083,6.335a4.433,4.433,0,0,1-1.225.537,2.893,2.893,0,0,1-2.158-.3c-2.38-1.353-11.048-6.475-11.877-6.988a1.843,1.843,0,0,1-.6-.572,1.493,1.493,0,0,0-1.692-.607l-6.452,1.995a22.237,22.237,0,0,1-4.643.922,10.778,10.778,0,0,1-4.993-.467l-3.733-2.1c-1.808-1.015.537-4.748,2.345-5.775l16.112-9.392a8.365,8.365,0,0,1,8.237-.023l3.733,2.1c1.727.968,9.088,5.973,7.828,7.432Z" transform="translate(-147.33 -298.219)"/>
          </g>
        </g>
        <path id="패스_840273" data-name="패스 840273" d="M184.168,141.518v1.225l.373-.21v2.275l-.373.222v1.225l.373-.21v5.728h0a3.178,3.178,0,0,1-1.867,2.578l-17.22,9.94a9.935,9.935,0,0,1-8.995,0l-.093-.058a3.045,3.045,0,0,1-1.843-2.765h-.012v-3h0a3.212,3.212,0,0,0,1.867,2.555l.093.047a9.935,9.935,0,0,0,9,0l13.382-7.688v-10.85a1.388,1.388,0,0,0-2.077-1.2l-11.317,6.5a9.935,9.935,0,0,1-8.995,0l-.093-.047a3.2,3.2,0,0,1-1.867-2.555h0v-9.812l24.1-7.817,4.538,6.522a7.863,7.863,0,0,1,1.4,4.457V141.3Z" transform="translate(-136.475 -112.713)" fill="#e2e2e2"/>
        <path id="패스_840274" data-name="패스 840274" d="M177.158,245.531V256.3l-13.382,7.677a9.935,9.935,0,0,1-8.995,0l-.093-.047a3.587,3.587,0,0,1-2.088-2.578V248.063a3.634,3.634,0,0,0,2.088,2.613l.093.047a9.935,9.935,0,0,0,8.995,0l11.212-6.44a1.447,1.447,0,0,1,2.158,1.248" transform="translate(-134.797 -215.618)" fill="#3673ee"/>
        <path id="패스_840275" data-name="패스 840275" d="M177.158,245.481v10.768l-13.382,7.677a9.935,9.935,0,0,1-8.995,0l-.093-.047A3.587,3.587,0,0,1,152.6,261.3V248.012a3.634,3.634,0,0,0,2.088,2.613l.093.047a9.935,9.935,0,0,0,8.995,0l11.212-6.44a1.447,1.447,0,0,1,2.17,1.248Z" transform="translate(-134.797 -215.567)" fill="none" stroke="#222" stroke-linejoin="round" stroke-width="0.35"/>
        <path id="패스_840276" data-name="패스 840276" d="M177.225,113.79l-11.748,6.778a9.935,9.935,0,0,1-8.995,0l-.093-.047c-2.485-1.435-2.485-3.757,0-5.192l11.748-6.778a9.935,9.935,0,0,1,8.995,0l.093.047c2.485,1.435,2.485,3.757,0,5.192" transform="translate(-136.497 -94.936)" fill="#fff"/>
        <path id="패스_840277" data-name="패스 840277" d="M177.225,113.79l-11.748,6.778a9.935,9.935,0,0,1-8.995,0l-.093-.047c-2.485-1.435-2.485-3.757,0-5.192l11.748-6.778a9.935,9.935,0,0,1,8.995,0l.093.047C179.71,110.033,179.71,112.355,177.225,113.79Z" transform="translate(-136.497 -94.936)" fill="none" stroke="#222" stroke-linejoin="round" stroke-width="0.35"/>
        <path id="패스_840278" data-name="패스 840278" d="M186.51,160.79a7.217,7.217,0,0,1-6.557,0,2.3,2.3,0,0,1-1.353-1.89v3.477a2.307,2.307,0,0,0,1.353,1.89,7.217,7.217,0,0,0,6.557,0,2.3,2.3,0,0,0,1.353-1.89V158.9a2.307,2.307,0,0,1-1.353,1.89" transform="translate(-157.763 -140.362)" fill="#bcbcbc"/>
        <path id="패스_840279" data-name="패스 840279" d="M186.51,160.79a7.217,7.217,0,0,1-6.557,0,2.3,2.3,0,0,1-1.353-1.89v3.477a2.307,2.307,0,0,0,1.353,1.89,7.217,7.217,0,0,0,6.557,0,2.3,2.3,0,0,0,1.353-1.89V158.9A2.274,2.274,0,0,1,186.51,160.79Z" transform="translate(-157.763 -140.362)" fill="none" stroke="#222" stroke-linejoin="round" stroke-width="0.292"/>
        <path id="패스_840280" data-name="패스 840280" d="M186.488,140.551a7.218,7.218,0,0,1-6.557,0c-1.808-1.05-1.808-2.742,0-3.78a7.253,7.253,0,0,1,6.557,0c1.808,1.05,1.808,2.742,0,3.78" transform="translate(-157.741 -120.122)" fill="#bcbcbc"/>
        <path id="패스_840281" data-name="패스 840281" d="M186.488,140.551a7.218,7.218,0,0,1-6.557,0c-1.808-1.05-1.808-2.742,0-3.78a7.253,7.253,0,0,1,6.557,0C188.3,137.821,188.308,139.5,186.488,140.551Z" transform="translate(-157.741 -120.122)" fill="none" stroke="#222" stroke-linejoin="round" stroke-width="0.292"/>
        <path id="패스_840282" data-name="패스 840282" d="M173.1,143.9v2.882a2.625,2.625,0,0,0,1.54,2.158,8.255,8.255,0,0,0,7.467,0,2.625,2.625,0,0,0,1.54-2.158V143.9Z" transform="translate(-152.905 -127.112)" fill="#222"/>
        <path id="패스_840283" data-name="패스 840283" d="M173.1,143.9v2.882a2.625,2.625,0,0,0,1.54,2.158,8.255,8.255,0,0,0,7.467,0,2.625,2.625,0,0,0,1.54-2.158V143.9Z" transform="translate(-152.905 -127.112)" fill="none" stroke="#222" stroke-miterlimit="10" stroke-width="0.35"/>
        <path id="패스_840284" data-name="패스 840284" d="M182.04,122.947a8.255,8.255,0,0,1-7.467,0c-2.065-1.19-2.065-3.115,0-4.305a8.255,8.255,0,0,1,7.467,0c2.065,1.19,2.065,3.115,0,4.305" transform="translate(-152.839 -104.012)" fill="#616161"/>
        <path id="패스_840285" data-name="패스 840285" d="M182.04,122.947a8.255,8.255,0,0,1-7.467,0c-2.065-1.19-2.065-3.115,0-4.305a8.255,8.255,0,0,1,7.467,0C184.105,119.832,184.105,121.757,182.04,122.947Z" transform="translate(-152.839 -104.012)" fill="none" stroke="#222" stroke-miterlimit="10" stroke-width="0.35"/>
        <path id="패스_840286" data-name="패스 840286" d="M387.708,254v.572l-2.462,1.423c-.373.21-.677.093-.747-.268a.607.607,0,0,0,.4-.093l2.438-1.4V253.8Z" transform="translate(-339.642 -224.19)" fill="#bcbcbc"/>
        <path id="패스_840287" data-name="패스 840287" d="M387.708,254v.572l-2.462,1.423c-.373.21-.677.093-.747-.268a.607.607,0,0,0,.4-.093l2.438-1.4V253.8Z" transform="translate(-339.642 -224.19)" fill="none" stroke="#222" stroke-linejoin="round" stroke-width="0.35"/>
        <path id="패스_840288" data-name="패스 840288" d="M387.158,246.9v1.225l-2.438,1.4a.214.214,0,1,1-.42-.07v-.023a1.68,1.68,0,0,1,.758-1.318Z" transform="translate(-339.465 -218.095)" fill="#bcbcbc"/>
        <path id="패스_840289" data-name="패스 840289" d="M387.158,246.9v1.225l-2.438,1.4a.214.214,0,1,1-.42-.07v-.023a1.68,1.68,0,0,1,.758-1.318Z" transform="translate(-339.465 -218.095)" fill="none" stroke="#222" stroke-linejoin="round" stroke-width="0.35"/>
        <path id="패스_840290" data-name="패스 840290" d="M387.708,284.1v.572l-2.462,1.423c-.373.21-.677.093-.747-.268a.607.607,0,0,0,.4-.093l2.438-1.4V283.9Z" transform="translate(-339.642 -250.778)" fill="#bcbcbc"/>
        <path id="패스_840291" data-name="패스 840291" d="M387.708,284.1v.572l-2.462,1.423c-.373.21-.677.093-.747-.268a.607.607,0,0,0,.4-.093l2.438-1.4V283.9Z" transform="translate(-339.642 -250.778)" fill="none" stroke="#222" stroke-linejoin="round" stroke-width="0.35"/>
        <path id="패스_840292" data-name="패스 840292" d="M387.158,276.9v1.225l-2.438,1.4a.214.214,0,1,1-.42-.07v-.023a1.68,1.68,0,0,1,.758-1.318Z" transform="translate(-339.465 -244.595)" fill="#bcbcbc"/>
        <path id="패스_840293" data-name="패스 840293" d="M387.158,276.9v1.225l-2.438,1.4a.214.214,0,1,1-.42-.07v-.023a1.68,1.68,0,0,1,.758-1.318Z" transform="translate(-339.465 -244.595)" fill="none" stroke="#222" stroke-linejoin="round" stroke-width="0.35"/>
        <path id="패스_840294" data-name="패스 840294" d="M273.461,302.82a.385.385,0,0,0-.665.082c-.9,2.182-3.687,9.473.257,7.2,3.722-2.147,1.435-5.915.42-7.28" transform="translate(-239.382 -267.353)" fill="#fff"/>
        <path id="패스_840295" data-name="패스 840295" d="M252.117,206.9l-.117-.023.233-.093,7.782-4.492a1.855,1.855,0,0,0,.852-1.47v-.42a.724.724,0,0,1,.012.152v.56a1.587,1.587,0,0,1-.7,1.225l-7.782,4.492a.572.572,0,0,1-.28.082" transform="translate(-222.6 -177.02)" fill="#3673ee"/>
        <path id="패스_840296" data-name="패스 840296" d="M258.648,196.9a.828.828,0,0,1,.035.257v.56a1.715,1.715,0,0,1-.77,1.342l-7.782,4.5a.712.712,0,0,1-.35.1H249.7a.4.4,0,0,0,.4.292.7.7,0,0,0,.35-.1l7.782-4.492a1.715,1.715,0,0,0,.77-1.342v-.56c0-.315-.14-.5-.35-.548" transform="translate(-220.568 -173.928)" fill="#222"/>
        <path id="패스_840297" data-name="패스 840297" d="M258.417,197.206v.56a1.715,1.715,0,0,1-.77,1.342l-7.782,4.492a.63.63,0,0,1-.432.093.828.828,0,0,1-.035-.257v-.56a1.727,1.727,0,0,1,.782-1.342l7.782-4.492a.63.63,0,0,1,.432-.093.828.828,0,0,1,.035.257" transform="translate(-220.302 -173.966)" fill="#bcbcbc"/>
        <path id="패스_840298" data-name="패스 840298" d="M258.417,197.206v.56a1.715,1.715,0,0,1-.77,1.342l-7.782,4.492a.63.63,0,0,1-.432.093.828.828,0,0,1-.035-.257v-.56a1.727,1.727,0,0,1,.782-1.342l7.782-4.492a.63.63,0,0,1,.432-.093A.828.828,0,0,1,258.417,197.206Z" transform="translate(-220.302 -173.966)" fill="none" stroke="#222" stroke-linejoin="round" stroke-width="0.292"/>
        <line id="선_126345" data-name="선 126345" transform="translate(47.892 24.243)" fill="#fff"/>
        <path id="패스_840299" data-name="패스 840299" d="M167.407,102.012a9.2,9.2,0,0,1,4.492,1.073l.093.047a4.293,4.293,0,0,1,1.4,1.225l4.538,6.533a7.817,7.817,0,0,1,1.4,4.457v2.718l-.373.21v.805l.373.21v.572h0v1.7l-.373.222v1.225h0v-.432l.373.21v.572h0v3.512h0v1.622h0a3.178,3.178,0,0,1-1.867,2.578l-17.22,9.987a9.935,9.935,0,0,1-8.983,0l-.093-.058a3.045,3.045,0,0,1-1.843-2.765h-.012V112.465h0v-.28h.023a3.336,3.336,0,0,1,1.843-2.31l.373-.21a1.808,1.808,0,0,1-.07-.5V106.27a2.625,2.625,0,0,1,1.54-2.158,8.3,8.3,0,0,1,7.467,0l.315.2,2.123-1.225a9.231,9.231,0,0,1,4.492-1.073m11.55,17.5h0m-11.55-18.2a9.875,9.875,0,0,0-4.842,1.167l-1.762,1.015a8.925,8.925,0,0,0-8.155.012,3.208,3.208,0,0,0-1.89,2.765v3.01a4.1,4.1,0,0,0-2.112,2.625.7.7,0,0,0-.058.268v.28h0v25.783a.7.7,0,0,0,.012.1,3.833,3.833,0,0,0,2.205,3.267l.093.047a10.63,10.63,0,0,0,9.683,0l17.22-9.94a3.833,3.833,0,0,0,2.205-3.138v-.047h0V122.8a.7.7,0,0,0-.35-.607h.012a.7.7,0,0,0,.338-.607v-2.3a.7.7,0,0,0-.35-.607h0a.7.7,0,0,0,.35-.607v-2.73a8.482,8.482,0,0,0-1.528-4.865l-4.527-6.522a4.97,4.97,0,0,0-1.633-1.435l-.093-.058a9.781,9.781,0,0,0-4.842-1.167" transform="translate(-131.263 -89.482)" fill="#222"/>
        <g id="그룹_422785" data-name="그룹 422785" transform="translate(17.757 23.578)" opacity="0.1">
          <g id="그룹_422784" data-name="그룹 422784" clip-path="url(#clip-path-4)">
            <path id="패스_840300" data-name="패스 840300" d="M152.426,202.1s.28,2.777,6.545,3.127v25.947s-6.137-.385-6.545-3.208,0-25.865,0-25.865" transform="translate(-152.239 -202.1)" fill="#000001"/>
          </g>
        </g>
        <path id="패스_840301" data-name="패스 840301" d="M353.763,372.973,343.24,366.9a7.044,7.044,0,0,1-2.94-5.623c0-2.17,1.318-3.162,2.94-2.228l10.512,6.078a7.044,7.044,0,0,1,2.94,5.623c0,2.17-1.318,3.162-2.94,2.228" transform="translate(-300.598 -316.845)" fill="#e3e3e3"/>
        <path id="패스_840302" data-name="패스 840302" d="M353.763,372.973,343.24,366.9a7.044,7.044,0,0,1-2.94-5.623c0-2.17,1.318-3.162,2.94-2.228l10.512,6.078a7.044,7.044,0,0,1,2.94,5.623C356.692,372.915,355.385,373.907,353.763,372.973Z" transform="translate(-300.598 -316.845)" fill="none" stroke="#222" stroke-linecap="round" stroke-linejoin="round" stroke-width="0.35"/>
        <path id="패스_840303" data-name="패스 840303" d="M433.2,327.355h.012l-.21.117a5.264,5.264,0,0,0,.117-1.715v-.012a7.114,7.114,0,0,0-2.975-5.635l-10.582-6.125a1.917,1.917,0,0,0-1.96-.152h0l1.237-.712h0a1.481,1.481,0,0,1,.793-.222,2.357,2.357,0,0,1,1.167.35l10.523,6.078a7.044,7.044,0,0,1,2.94,5.623,2.561,2.561,0,0,1-1.062,2.4" transform="translate(-368.88 -276.395)" fill="#686868"/>
        <path id="패스_840304" data-name="패스 840304" d="M433.2,327.355h.012l-.21.117a5.264,5.264,0,0,0,.117-1.715v-.012a7.114,7.114,0,0,0-2.975-5.635l-10.582-6.125a1.917,1.917,0,0,0-1.96-.152h0l1.237-.712h0a1.481,1.481,0,0,1,.793-.222,2.357,2.357,0,0,1,1.167.35l10.523,6.078a7.044,7.044,0,0,1,2.94,5.623A2.561,2.561,0,0,1,433.2,327.355Z" transform="translate(-368.88 -276.395)" fill="none" stroke="#222" stroke-miterlimit="10" stroke-width="0.35"/>
        <path id="패스_840305" data-name="패스 840305" d="M362.55,331.227a5.237,5.237,0,0,1-.128,1.715l-10.29,5.938-14.432-14.2,9.333-5.39h0a1.865,1.865,0,0,1,1.96.152l10.582,6.125a7.114,7.114,0,0,1,2.975,5.635Z" transform="translate(-298.302 -281.854)" fill="#fff"/>
        <path id="패스_840306" data-name="패스 840306" d="M362.55,331.227a5.237,5.237,0,0,1-.128,1.715l-10.29,5.938-14.432-14.2,9.333-5.39h0a1.865,1.865,0,0,1,1.96.152l10.582,6.125a7.114,7.114,0,0,1,2.975,5.635Z" transform="translate(-298.302 -281.854)" fill="none" stroke="#222" stroke-linecap="round" stroke-linejoin="round" stroke-width="0.35"/>
        <line id="선_126346" data-name="선 126346" x1="0.023" y2="0.012" transform="translate(49.957 36.715)" fill="none" stroke="#222" stroke-linecap="round" stroke-linejoin="round" stroke-width="0.35"/>
        <line id="선_126347" data-name="선 126347" x1="0.093" y2="0.058" transform="translate(64.33 50.913)" fill="none" stroke="#222" stroke-linecap="round" stroke-linejoin="round" stroke-width="0.35"/>
        <path id="패스_840307" data-name="패스 840307" d="M342.752,379.573,332.24,373.5a7.044,7.044,0,0,1-2.94-5.623c0-2.17,1.318-3.162,2.94-2.228l10.512,6.078a7.044,7.044,0,0,1,2.94,5.623c0,2.17-1.318,3.162-2.94,2.228" transform="translate(-290.882 -322.675)" fill="#474747"/>
        <path id="패스_840308" data-name="패스 840308" d="M342.752,379.573,332.24,373.5a7.044,7.044,0,0,1-2.94-5.623c0-2.17,1.318-3.162,2.94-2.228l10.512,6.078a7.044,7.044,0,0,1,2.94,5.623C345.692,379.515,344.385,380.507,342.752,379.573Z" transform="translate(-290.882 -322.675)" fill="none" stroke="#222" stroke-miterlimit="10" stroke-width="0.35"/>
        <path id="패스_840309" data-name="패스 840309" d="M336.992,382.617l-10.617-6.137a7.1,7.1,0,0,1-2.975-5.67c0-2.182,1.33-3.2,2.975-2.24l10.617,6.137a7.1,7.1,0,0,1,2.975,5.67c0,2.182-1.33,3.2-2.975,2.24" transform="translate(-285.67 -325.252)" fill="#616161"/>
        <path id="패스_840310" data-name="패스 840310" d="M336.992,382.617l-10.617-6.137a7.1,7.1,0,0,1-2.975-5.67c0-2.182,1.33-3.2,2.975-2.24l10.617,6.137a7.1,7.1,0,0,1,2.975,5.67C339.967,382.558,338.637,383.562,336.992,382.617Z" transform="translate(-285.67 -325.252)" fill="none" stroke="#222" stroke-miterlimit="10" stroke-width="0.35"/>
        <path id="패스_840311" data-name="패스 840311" d="M416.993,321l-.093.058" transform="translate(-368.262 -283.55)" fill="none" stroke="#222" stroke-linecap="round" stroke-linejoin="round" stroke-width="0.35"/>
        <path id="패스_840312" data-name="패스 840312" d="M353.3,398.6l-7.723-4.468a5.193,5.193,0,0,1-2.182-4.1h0c-.012-1.575.957-2.3,2.147-1.61l7.723,4.468a5.193,5.193,0,0,1,2.182,4.095c.012,1.575-.957,2.3-2.147,1.61" transform="translate(-303.336 -342.881)" fill="#222"/>
        <path id="패스_840313" data-name="패스 840313" d="M353.3,398.6l-7.723-4.468a5.193,5.193,0,0,1-2.182-4.1h0c-.012-1.575.957-2.3,2.147-1.61l7.723,4.468a5.193,5.193,0,0,1,2.182,4.095C355.463,398.566,354.494,399.289,353.3,398.6Z" transform="translate(-303.336 -342.881)" fill="none" stroke="#222" stroke-miterlimit="10" stroke-width="0.35"/>
        <path id="패스_840314" data-name="패스 840314" d="M352.973,404.685h0l-.9.677-1.575-2.555.747-.56.128-.093h.035a.759.759,0,0,1,.7.1,2.363,2.363,0,0,1,1.062,1.843.828.828,0,0,1-.21.607" transform="translate(-309.608 -355.195)" fill="#acacad"/>
        <path id="패스_840315" data-name="패스 840315" d="M352.973,404.685h0l-.9.677-1.575-2.555.747-.56.128-.093h.035a.759.759,0,0,1,.7.1,2.363,2.363,0,0,1,1.062,1.843A.828.828,0,0,1,352.973,404.685Z" transform="translate(-309.608 -355.195)" fill="none" stroke="#222" stroke-linecap="round" stroke-linejoin="round" stroke-width="0.35"/>
        <path id="패스_840316" data-name="패스 840316" d="M357.028,402.5l-.128.093a.479.479,0,0,1,.128-.093" transform="translate(-315.262 -355.542)" fill="#e3e3e3"/>
        <path id="패스_840317" data-name="패스 840317" d="M357.028,402.5l-.128.093A.479.479,0,0,1,357.028,402.5Z" transform="translate(-315.262 -355.542)" fill="none" stroke="#222" stroke-linecap="round" stroke-linejoin="round" stroke-width="0.35"/>
        <path id="패스_840318" data-name="패스 840318" d="M350.723,409.137c0,.677-.478.945-1.062.607A2.363,2.363,0,0,1,348.6,407.9c0-.677.478-.945,1.062-.607a2.363,2.363,0,0,1,1.062,1.843" transform="translate(-307.93 -359.647)" fill="#fff"/>
        <path id="패스_840319" data-name="패스 840319" d="M350.723,409.137c0,.677-.478.945-1.062.607A2.363,2.363,0,0,1,348.6,407.9c0-.677.478-.945,1.062-.607A2.363,2.363,0,0,1,350.723,409.137Z" transform="translate(-307.93 -359.647)" fill="none" stroke="#222" stroke-linecap="round" stroke-linejoin="round" stroke-width="0.35"/>
        <path id="패스_840320" data-name="패스 840320" d="M358.035,402.223H358l.035-.023Z" transform="translate(-316.233 -355.277)" fill="#e3e3e3"/>
        <path id="패스_840321" data-name="패스 840321" d="M358.035,402.223H358l.035-.023Z" transform="translate(-316.233 -355.277)" fill="none" stroke="#222" stroke-linecap="round" stroke-linejoin="round" stroke-width="0.35"/>
        <path id="패스_840322" data-name="패스 840322" d="M416.573,441.785h0l-.9.677-1.575-2.555.747-.56.128-.093h.035a.759.759,0,0,1,.7.105,2.363,2.363,0,0,1,1.062,1.843.829.829,0,0,1-.21.607" transform="translate(-365.788 -387.967)" fill="#acacad"/>
        <path id="패스_840323" data-name="패스 840323" d="M416.573,441.785h0l-.9.677-1.575-2.555.747-.56.128-.093h.035a.759.759,0,0,1,.7.105,2.363,2.363,0,0,1,1.062,1.843A.828.828,0,0,1,416.573,441.785Z" transform="translate(-365.788 -387.967)" fill="none" stroke="#222" stroke-linecap="round" stroke-linejoin="round" stroke-width="0.35"/>
        <path id="패스_840324" data-name="패스 840324" d="M414.423,446.337c0,.677-.478.945-1.062.607A2.363,2.363,0,0,1,412.3,445.1c0-.677.478-.945,1.062-.607a2.363,2.363,0,0,1,1.062,1.843" transform="translate(-364.198 -392.507)" fill="#fff"/>
        <path id="패스_840325" data-name="패스 840325" d="M414.423,446.337c0,.677-.478.945-1.062.607A2.363,2.363,0,0,1,412.3,445.1c0-.677.478-.945,1.062-.607A2.363,2.363,0,0,1,414.423,446.337Z" transform="translate(-364.198 -392.507)" fill="none" stroke="#222" stroke-linecap="round" stroke-linejoin="round" stroke-width="0.35"/>
        <g id="그룹_422787" data-name="그룹 422787" transform="translate(53.597 44.858)" opacity="0.15">
          <g id="그룹_422786" data-name="그룹 422786" clip-path="url(#clip-path-5)">
            <path id="패스_840326" data-name="패스 840326" d="M459.4,390.438l10.383-5.938c1.785,2.345,2.193,4.34.408,5.81l-10.29,6.067c.665-1.12.992-2.38-.5-5.938" transform="translate(-459.4 -384.5)" fill="#222"/>
          </g>
        </g>
        <path id="패스_840327" data-name="패스 840327" d="M449,380.645a.983.983,0,0,0,1,.07q.187-.1.187-.233v-.408L445.6,378.3v.385Z" transform="translate(-393.613 -334.165)" fill="#222"/>
        <path id="패스_840328" data-name="패스 840328" d="M448.907,376.373a.983.983,0,0,0,1,.07q.443-.245-.128-.572l-3.407-1.972-.875.5Z" transform="translate(-393.525 -330.278)" fill="#f8483b"/>
        <path id="패스_840329" data-name="패스 840329" d="M392.4,345.144l2.672.723,1.038-.6a1.167,1.167,0,0,1,.863-.163c.082.023.315-.175.385-.14,0,.5.035.4,0,.5a.514.514,0,0,1-.257.292l-.07.035-1.038.6,1.517.618v.408c0,.093-.082.2-.257.3a.992.992,0,0,1-1.05-.012l-.082-.047-1.178-.677-1.493.9-.922-.537v-.385l1.505-.478-1.633-.945Z" transform="translate(-346.62 -304.719)" fill="#222"/>
        <path id="패스_840330" data-name="패스 840330" d="M393.45,341.4l1.633.945,1.038-.6a1.167,1.167,0,0,1,.863-.163.747.747,0,0,1,.222.082q.21.117.175.28a.513.513,0,0,1-.257.292l-.07.035-1.038.6,1.248.723q.525.315,0,.607a.992.992,0,0,1-1.05-.012l-.082-.047-1.178-.677-1.505.875-.922-.537,1.505-.875-1.633-.945Z" transform="translate(-346.62 -301.57)" fill="#3673ee"/>
        <path id="패스_840331" data-name="패스 840331" d="M332.987,309.19a2.357,2.357,0,0,1,1.167.35l10.512,6.078a7.044,7.044,0,0,1,2.94,5.623,2.561,2.561,0,0,1-1.062,2.4h.012l-.21.117-10.29,5.938h-.012l-.07.047h0a1.529,1.529,0,0,1-1.26.642,2.392,2.392,0,0,1-1.178-.362l-10.617-6.137a7.1,7.1,0,0,1-2.975-5.67,2.533,2.533,0,0,1,1.458-2.567,1.2,1.2,0,0,1,.175-.152h.023l9.333-5.39,1.237-.712h.012a1.447,1.447,0,0,1,.782-.21m0-.467a1.9,1.9,0,0,0-1.027.28h0l-1.225.712-9.31,5.378h-.047a1.063,1.063,0,0,0-.2.163,2.987,2.987,0,0,0-1.657,2.952,7.532,7.532,0,0,0,3.208,6.078l10.617,6.137a2.835,2.835,0,0,0,1.412.42,2,2,0,0,0,1.563-.747h.012l10.278-5.938.21-.117.4-.233-.023-.047a3.355,3.355,0,0,0,.91-2.543,7.453,7.453,0,0,0-3.173-6.02L334.4,309.12a2.812,2.812,0,0,0-1.4-.42" transform="translate(-282.225 -272.685)" fill="#222"/>
        <path id="패스_840332" data-name="패스 840332" d="M451.6,431.738l.6-.338s2.263,2.87,1.225,5.95l-.4-.058a7.073,7.073,0,0,0-1.423-5.553" transform="translate(-398.913 -381.07)" fill="#222"/>
        <path id="패스_840333" data-name="패스 840333" d="M179.69,152.428h-.1a.385.385,0,0,1-.385-.385v-3.558a.385.385,0,0,1,.385-.385h.1a.385.385,0,0,1,.385.385v3.558a.385.385,0,0,1-.385.385" transform="translate(-158.293 -130.822)" fill="#616161"/>
        <path id="패스_840334" data-name="패스 840334" d="M196.89,160.94h-.1a.385.385,0,0,1-.385-.385v-3.57a.385.385,0,0,1,.385-.385h.1a.385.385,0,0,1,.385.385v3.558a.385.385,0,0,1-.385.385" transform="translate(-173.487 -138.33)" fill="#616161"/>
        <path id="패스_840335" data-name="패스 840335" d="M214.09,163.24h-.1a.385.385,0,0,1-.385-.385v-3.57a.385.385,0,0,1,.385-.385h.1a.385.385,0,0,1,.385.385v3.558a.385.385,0,0,1-.385.385" transform="translate(-188.68 -140.362)" fill="#616161"/>
        <path id="패스_840336" data-name="패스 840336" d="M231.2,161.84h-.117a.385.385,0,0,1-.385-.385v-3.57a.385.385,0,0,1,.385-.385h.1a.385.385,0,0,1,.385.385v3.558a.385.385,0,0,1-.385.385" transform="translate(-203.785 -139.125)" fill="#616161"/>
        <path id="패스_840337" data-name="패스 840337" d="M248.39,153.928h-.1a.385.385,0,0,1-.385-.385v-3.558a.385.385,0,0,1,.385-.385h.1a.385.385,0,0,1,.385.385v3.558a.385.385,0,0,1-.385.385" transform="translate(-218.978 -132.147)" fill="#616161"/>
      </g>
    </g>
  </g>
</svg>
