<svg xmlns="http://www.w3.org/2000/svg" xmlns:xlink="http://www.w3.org/1999/xlink" width="16" height="16" viewBox="0 0 16 16"><defs><style>.a,.e,.f,.g,.h{fill:none;}.b{opacity:0;}.c{clip-path:url(#a);}.d{fill:#f0f;}.e,.f,.g,.h{stroke:#111;stroke-width:1.5px;}.e,.f{stroke-linejoin:round;}.f,.g{stroke-linecap:round;}.h{stroke-linecap:square;}</style><clipPath id="a"><rect class="a" width="16" height="16" transform="translate(0 -0.276)"/></clipPath></defs><g transform="translate(1478.705 -4950.018)"><g class="b" transform="translate(-1478.705 4950.294)"><g class="c" transform="translate(0 0)"><rect class="d" width="16" height="16" transform="translate(0 -0.276)"/></g></g><g transform="translate(-1475.631 4950.856)"><path class="e" d="M12.974,5.53A4.787,4.787,0,1,0,5.682,9.538l2.5,2.616,2.5-2.616A4.732,4.732,0,0,0,12.974,5.53Z" transform="translate(-3.4 -0.671)"/><line class="f" x2="0.668" transform="translate(4.732 4.747)"/><line class="e" x2="1.225" transform="translate(3.841 4.747)"/></g><g transform="translate(-1475.134 4964.418)"><path class="g" d="M6.8,22.641a18.5,18.5,0,0,0,8.018-.141" transform="translate(-6.167 -22.5)"/><path class="h" d="M5.9,22.5l.633.141" transform="translate(-5.9 -22.5)"/></g><rect class="a" width="16" height="16" transform="translate(-1478.705 4950.018)"/><rect class="a" width="16" height="16" transform="translate(-1478.705 4950.018)"/></g></svg>