<svg xmlns="http://www.w3.org/2000/svg" width="24" height="24" viewBox="0 0 24 24"><defs><style>.a{fill:#34b458;}.b{fill:#ffc20e;}</style></defs><g transform="translate(-222 -636)"><circle class="a" cx="12" cy="12" r="12" transform="translate(222 636)"/><g transform="translate(228.61 641.288)"><path class="b" d="M112.267,405.945l-2.45,1.23-2.448-1.23,2.448,4.657Z" transform="translate(-104.529 -405.945)"/><path class="b" d="M103.949,410.939l-.039-.033,1.839-.735v-2.457l-3.194,1.295s-1.731,3.116-1.769,3.188a2.6,2.6,0,0,1,2.372,2.535,2.689,2.689,0,0,1-5.372,0,2.6,2.6,0,0,1,2.372-2.535c-.039-.072-1.767-3.187-1.767-3.187L95.2,407.715v2.457l1.836.735-.04.033a4.939,4.939,0,0,0-1.812,3.793,5.295,5.295,0,0,0,10.576,0A4.942,4.942,0,0,0,103.949,410.939Z" transform="translate(-95.184 -407.34)"/></g></g></svg>