<svg id="icon_membership_n_fold_40" xmlns="http://www.w3.org/2000/svg" width="40" height="40" viewBox="0 0 40 40">
  <rect id="사각형_352454" data-name="사각형 352454" width="40" height="40" fill="#f0f" opacity="0"/>
  <g id="그룹_262692" data-name="그룹 262692">
    <g id="그룹_260106" data-name="그룹 260106">
      <circle id="타원_7634" data-name="타원 7634" cx="15.622" cy="15.622" r="15.622" transform="translate(3.667 4.373)" fill="#fff"/>
      <circle id="타원_7633" data-name="타원 7633" cx="15.622" cy="15.622" r="15.622" transform="translate(4.667 4.958)" fill="#c5c9d3"/>
      <circle id="타원_7634-2" data-name="타원 7634" cx="15.622" cy="15.622" r="15.622" transform="translate(3.667 4.373)" fill="none" stroke="#717888" stroke-linejoin="round" stroke-width="1"/>
    </g>
    <g id="그룹_260168" data-name="그룹 260168">
      <path id="Path_239343" data-name="Path 239343" d="M20.2,12.394A7.622,7.622,0,1,1,12.64,20.08v-.128A7.624,7.624,0,0,1,20.2,12.394" fill="#fff"/>
      <path id="Path_239344" data-name="Path 239344" d="M13.119,16.814a7.436,7.436,0,0,1,1.421-2" fill="none" stroke="#111" stroke-linecap="square" stroke-linejoin="round" stroke-width="1"/>
      <path id="Path_239345" data-name="Path 239345" d="M14.476,10.355s0,2.967,1.808,2.967h.129a7.623,7.623,0,1,1-3.294,3.493" fill="none" stroke="#111" stroke-linecap="round" stroke-linejoin="round" stroke-width="1"/>
      <path id="Path_239346" data-name="Path 239346" d="M16.934,10.936s-.47,1.694.562,1.887" fill="none" stroke="#111" stroke-linecap="round" stroke-linejoin="round" stroke-width="1"/>
      <path id="Path_239347" data-name="Path 239347" d="M20.289,20.885a1.486,1.486,0,0,1-2.907,0" fill="none" stroke="#111" stroke-linecap="square" stroke-miterlimit="10" stroke-width="1"/>
      <line id="Line_26071" data-name="Line 26071" y2="0.3" transform="translate(21.13 18.13)" fill="none" stroke="#111" stroke-linecap="round" stroke-width="1"/>
      <line id="Line_26071-2" data-name="Line 26071-2" y2="1.315" transform="translate(21.13 16.815)" fill="none" stroke="#111" stroke-width="1"/>
      <line id="Line_26072" data-name="Line 26072" y2="0.435" transform="translate(16.607 17.995)" fill="none" stroke="#111" stroke-linecap="round" stroke-width="1"/>
      <line id="Line_26072-2" data-name="Line 26072-2" y2="1.18" transform="translate(16.607 16.815)" fill="none" stroke="#111" stroke-width="1"/>
      <rect id="사각형_214890" data-name="사각형 214890" width="19" height="19" transform="translate(11.343 10.129)" fill="none"/>
    </g>
  </g>
</svg>
