<svg xmlns="http://www.w3.org/2000/svg" xmlns:xlink="http://www.w3.org/1999/xlink" width="110" height="90.711"><defs><clipPath id="a"><path class="a" d="M0 0h110v90.711H0z"/></clipPath><clipPath id="c"><path class="a" d="M0 0h79.431v45.466H0z"/></clipPath><clipPath id="d"><path class="a" d="M0 0h20.726v11.306H0z"/></clipPath><clipPath id="f"><path class="a" d="M0 0h7.792v5.446H0z"/></clipPath><clipPath id="g"><path class="a" d="M0 0h1.623v1.616H0z"/></clipPath><clipPath id="h"><path class="a" d="M0 0h52.076v29.868H0z"/></clipPath><clipPath id="i"><path class="a" d="M277.315 397.509a3.774 3.774 0 001.7 2.954c.934.536 1.7.107 1.7-.98a3.8 3.8 0 00-1.7-2.954 1.546 1.546 0 00-.765-.23c-.566 0-.949.444-.949 1.225" transform="translate(-277.3 -396.3)"/></clipPath><clipPath id="l"><path class="a" d="M451.915 498.409a3.775 3.775 0 001.7 2.954c.934.536 1.7.107 1.7-.98a3.8 3.8 0 00-1.7-2.954 1.546 1.546 0 00-.765-.23c-.566 0-.949.444-.949 1.225" transform="translate(-451.9 -497.2)"/></clipPath><clipPath id="o"><path class="a" d="M0 0h14.818v8.11H0z"/></clipPath><clipPath id="p"><path class="a" d="M0 0h54.097v29.323H0z"/></clipPath><clipPath id="q"><path class="a" d="M0 0h10.134v5.653H0z"/></clipPath><clipPath id="s"><path class="a" d="M0 0h13.593v7.917H0z"/></clipPath><linearGradient id="j" x1="-12.439" y1="6.367" x2="-12.395" y2="6.367" gradientUnits="objectBoundingBox"><stop offset="0" stop-color="#c2c1c1"/><stop offset="1" stop-color="#dfdedd"/></linearGradient><linearGradient id="m" x1="-20.269" y1="3.097" x2="-20.224" y2="3.097" xlink:href="#j"/><style>.a,.ak,.bg,.e,.j,.n,.o{fill:none}.c{clip-path:url(#a)}.d{fill:#fff}.ak,.bg,.e,.j,.n,.o{stroke:#222}.ak,.e,.j,.n,.o{stroke-linejoin:round}.e{stroke-width:1.225px}.f{opacity:.15}.h{fill:#222}.i{fill:#f4f4f4}.j{stroke-width:.612px}.bg{stroke-miterlimit:10}.n{stroke-width:.612px}.o{stroke-width:.306px}.s{fill:#e2e2e2}.t{fill:#3673ee}.u{opacity:.1}.ab{fill:#212020}.af{opacity:.18}.ah{fill:#f8483b}.ak,.bg{stroke-width:.459px}.aw{fill:#dbdbdb}.bk{fill:#d1a900}</style></defs><g class="c"><g class="c"><path class="d" d="M95.672 46.504L84.39 56.469l-4.439 3.919-1.393.811 1.393.8L49.367 79.89 1.209 52.076l1.393-.811-1.393-.811 30.554-17.849h.015l15.69-13.884 8.894-.459a3.551 3.551 0 011.944.475l46.122 26.574a.383.383 0 01-.168.719z"/><path class="e" d="M95.672 46.504L84.39 56.469l-4.439 3.919-1.393.811 1.393.8L49.367 79.89 1.209 52.076l1.393-.811-1.393-.811 30.554-17.849h.015l15.69-13.884 8.894-.459a3.551 3.551 0 011.944.475l46.122 26.574a.383.383 0 01-.168.719z"/><g clip-path="url(#c)" transform="translate(.842 35.988)"><path class="h" d="M79.432 27.737l-29.79 17.389a2.419 2.419 0 01-2.419 0L.183 17.986a.367.367 0 010-.643L30.599.015h.033z"/></g><path class="i" d="M79.951 62.026L49.367 79.89 1.209 52.076l30.554-17.849.031-.015 48.158 27.814z"/><path class="j" d="M79.951 62.026L49.367 79.89 1.209 52.076l30.554-17.849.031-.015 48.158 27.814z"/><g clip-path="url(#d)" transform="translate(84.253 45.938)"><path d="M20.558.459L1.317 11.218l-1.179-.689L11.42.564l9.031-.475a.2.2 0 01.107.383"/><path d="M20.558.459L1.316 11.22l-1.179-.689L11.419.566h0L20.45.091a.2.2 0 01.107.367z" stroke-width=".153" stroke-miterlimit="10" stroke="#222" fill="none"/></g><path class="d" d="M85.569 57.159l-5.618 3.245 4.439-3.934 1.179.689z"/><path d="M85.569 57.159l-5.618 3.245h0l4.439-3.934 1.179.689z" stroke-width=".153" stroke-miterlimit="10" stroke="#222" fill="none"/><path class="d" d="M79.951 60.404L49.367 78.268 1.209 50.454l30.554-17.849.031-.015 48.158 27.814z"/><path class="n" d="M79.951 60.404L49.367 78.268 1.209 50.454l30.554-17.849.031-.015 48.158 27.814z"/><path class="d" d="M31.778 32.59l15.706-13.884 48.173 27.783.015.015-11.282 9.965-4.439 3.919"/><path class="j" d="M31.778 32.59l15.706-13.884 48.173 27.783.015.015-11.282 9.965-4.439 3.919"/><path class="i" d="M79.951 60.39l-48.158-27.8h-.015"/><path class="o" d="M79.951 60.39l-48.158-27.8h-.015"/><path class="j" d="M31.778 32.59l-.015.015"/><path stroke-width="4" stroke-linejoin="round" stroke="#222" fill="none" d="M31.778 32.59h0"/><path stroke-width=".153" stroke-miterlimit="10" stroke="#222" fill="none" d="M85.569 57.158l-5.296 3.062"/><path d="M47.469 18.706l8.909-.444a3.536 3.536 0 011.944.475l46.106 26.574a.383.383 0 01-.168.719l-8.6.459" fill="#f2f2f2"/><path class="n" d="M47.469 18.706l8.909-.444a3.536 3.536 0 011.944.475l46.106 26.574a.383.383 0 01-.168.719l-8.6.459"/><path class="i" d="M95.657 46.489L47.469 18.706"/><path class="o" d="M95.657 46.489L47.469 18.706"/><path class="s" d="M52.918 73.461l-.689.4a1.5 1.5 0 01-1.5 0L16.976 54.374a.429.429 0 010-.75l1.225-.7a.429.429 0 01.429 0l34.289 19.793a.429.429 0 010 .75M44.822 39.723L59.9 26.39 58 25.273 42.922 38.621zM69.513 25.518l-8.832.459-2.068-1.194 8.8-.49z"/><path class="s" d="M60.801 44.192c3.337-13.838-13.3-22.2-13.3-22.2l-.337-.184a.413.413 0 00-.49.077l-.628.628a.612.612 0 00.122.964c3.245 1.913 16.624 10.608 11.955 21.492M19.394 54.541l-2.005-1.163L42.34 39.019l1.99 1.163z"/></g><g class="c"><path class="t" d="M38.192 64.935h-.827l.031-1.531h1.347l.031 1.531h-.582m1.669-.031l-.061-1.531 1.347-.077.122 1.531-1.393.092m-3.6-.015l-1.424-.122.184-1.515 1.332.122zm6.092-.153l-.153-1.531 1.347-.153.2 1.515-1.393.168m-8.618-.138a14.479 14.479 0 01-1.424-.337l.429-1.47a12.06 12.06 0 001.271.291zm-2.51-.7a7.534 7.534 0 01-1.347-.719l.857-1.271a6 6 0 001.072.566zm-2.3-1.531a4.439 4.439 0 01-.873-1.393l1.424-.551a2.908 2.908 0 00.582.918zm-1.179-2.679c-.015-.168-.015-.321-.015-.49a6.337 6.337 0 01.092-1.087l1.515.26a4.807 4.807 0 00-.077.811 2.71 2.71 0 00.015.352zm1.822-2.25l-1.454-.475a11.841 11.841 0 01.551-1.362l1.393.643a10.321 10.321 0 00-.475 1.194m.934-2.1l-1.332-.75c.168-.306.352-.612.551-.934l.168-.276 1.3.8-.184.291c-.184.291-.352.582-.505.857m1.255-2.112l-1.347-.735c.214-.4.413-.8.6-1.179l1.393.643c-.2.413-.413.842-.643 1.271m1.087-2.3l-1.424-.566c.168-.413.306-.827.429-1.24l1.47.429c-.138.444-.291.9-.475 1.362m.75-2.465l-1.5-.306a10.826 10.826 0 00.184-1.271l1.531.138a12.355 12.355 0 01-.214 1.454m-1.286-2.541a8.678 8.678 0 00-.107-1.255l1.515-.245a10.225 10.225 0 01.138 1.485zm-.337-2.2a8.329 8.329 0 00-.444-1.179l1.393-.643a9.9 9.9 0 01.52 1.393zm-.9-2.051a9.692 9.692 0 00-.735-1.041l1.194-.964a11.219 11.219 0 01.857 1.209zm-1.408-1.806a12.311 12.311 0 00-.949-.873l.98-1.179a13.791 13.791 0 011.072.995zm-1.76-1.5c-.352-.245-.719-.49-1.1-.719l.781-1.316c.413.245.827.505 1.209.781zm-2.005-1.209a11.419 11.419 0 00-1.179-.52l.505-1.439a12.7 12.7 0 011.362.6z"/><g clip-path="url(#f)" transform="translate(90.85 76.063)"><path class="h" d="M1.484 1.699a.735.735 0 11-.719-.75.735.735 0 01.719.75"/><path class="h" d="M3.322 1.225A1.179 1.179 0 112.173.018a1.179 1.179 0 011.148 1.209"/><path class="h" d="M3.521 1.959A1.179 1.179 0 112.373.75a1.179 1.179 0 011.148 1.209"/><path class="h" d="M7.471 2.587a2.1 2.1 0 11-.576-1.506 2.1 2.1 0 01.576 1.506"/><path class="h" d="M7.807 4.149a1.332 1.332 0 11-.363-.961 1.332 1.332 0 01.363.961"/></g><g clip-path="url(#g)" transform="translate(102.346 78.956)"><path class="h" d="M1.622.826a.811.811 0 11-.781-.827.811.811 0 01.781.827"/></g><g clip-path="url(#h)" transform="translate(40.825 54.495)" opacity=".2"><path d="M.367 9.552c-.49.276-.49.735 0 1.026L13.73 17.65l3.276 1.76-.031.7.873.505v.689l15.721 8.343a1.944 1.944 0 001.76 0l16.379-9.521a.531.531 0 000-1.01L18.338.196a1.975 1.975 0 00-1.76 0z"/></g><path class="h" d="M91.616 71.93l.8.459-1.072 2.266-2.162-1.255M41.851 59.21l1.791-1.026.475.26a8.666 8.666 0 013.888 6.429l.781.383a1.5 1.5 0 01-.291.214l-2.143 1.225a2.149 2.149 0 01-2.235-.184 6.871 6.871 0 01-3.093-5.357 2.194 2.194 0 01.827-1.944"/><path class="h" d="M41.024 61.154a6.779 6.779 0 003.092 5.342c1.714.98 3.092.184 3.092-1.776a6.8 6.8 0 00-3.092-5.342c-1.714-.98-3.092-.2-3.092 1.776"/><path class="h" d="M41.193 61.353a6.309 6.309 0 002.847 4.929c1.577.918 2.847.168 2.847-1.638A6.336 6.336 0 0044.04 59.7c-1.577-.918-2.847-.168-2.847 1.638"/><path class="d" d="M41.866 61.873a4.68 4.68 0 002.128 3.674c1.179.674 2.128.122 2.128-1.225a4.68 4.68 0 00-2.128-3.674c-1.179-.674-2.128-.122-2.128 1.225"/></g><g transform="translate(42.448 60.664)" clip-path="url(#i)"><path transform="translate(.015)" fill="url(#j)" d="M0 0h3.414v4.718H0z"/></g><g class="c"><path class="ab" d="M43.642 58.184l-1.791 1.026a2.013 2.013 0 00-.8 1.592l-.674.2v-.153c-.168-2.342.765-3.873 3.276-2.648"/><path class="h" d="M68.578 74.64l1.791-1.026.475.26a8.666 8.666 0 013.888 6.429l.781.383a1.5 1.5 0 01-.291.214l-2.143 1.225a2.15 2.15 0 01-2.235-.184 6.843 6.843 0 01-3.092-5.342 2.194 2.194 0 01.827-1.944"/><path class="h" d="M67.751 76.584a6.779 6.779 0 003.092 5.342c1.714.98 3.092.184 3.092-1.776a6.8 6.8 0 00-3.092-5.342c-1.714-.98-3.092-.184-3.092 1.776"/><path class="h" d="M67.92 76.782a6.308 6.308 0 002.847 4.929c1.577.918 2.847.168 2.847-1.638a6.309 6.309 0 00-2.847-4.929c-1.577-.918-2.847-.168-2.847 1.638"/><path class="d" d="M68.593 77.303a4.68 4.68 0 002.128 3.674c1.179.674 2.128.122 2.128-1.225a4.68 4.68 0 00-2.128-3.674c-1.179-.674-2.128-.122-2.128 1.225"/></g><g transform="translate(69.175 76.109)" clip-path="url(#l)"><path transform="translate(.015 -.015)" fill="url(#m)" d="M0 0h3.414v4.718H0z"/></g><g class="c"><path class="ab" d="M70.354 73.614l-1.776 1.026a2.013 2.013 0 00-.8 1.592l-.674.2v-.153c-.168-2.342.765-3.873 3.276-2.648"/><path class="d" d="M51.096 45.326s-2.771 1.179-4.21 2.021c-1.133.674-4.623 2.847-6.23 3.934a3.444 3.444 0 00-1.179 1.378 7.868 7.868 0 00-.765 2.51 10.6 10.6 0 00.551 4.531 5.035 5.035 0 00.873 1.041 2.259 2.259 0 01-.015-.321c0-2.327 1.745-3.138 4.056-1.669a8.31 8.31 0 013.643 6.291 3.327 3.327 0 01-.015.4l.475.276 18.813 10.715v-.153c-.184-2.48.888-4.056 3.75-2.388a8.666 8.666 0 013.888 6.429l1.072.505c.888.352 1.653-.352 3.6-1.332s9.338-5.633 10.868-6.6 2.158-1.822 2.311-2.541a32.941 32.941 0 00.291-3.827 3.628 3.628 0 00-.566-1.546 10.58 10.58 0 010-1.255 20.211 20.211 0 00-.23-2.51l-.536-.536a16.908 16.908 0 00-.765-2.572l-.077-.214a6.077 6.077 0 00-2.908-3.215L68.81 44.789a5.48 5.48 0 00-3.873-.459 14.405 14.405 0 00-2.311.811l-4.807-1.194a9.768 9.768 0 00-5.342.8z"/><path d="M51.096 45.326s-2.771 1.179-4.21 2.021c-1.133.674-4.623 2.847-6.23 3.934a3.444 3.444 0 00-1.179 1.378 7.868 7.868 0 00-.765 2.51 10.6 10.6 0 00.551 4.531 5.035 5.035 0 00.873 1.041 2.259 2.259 0 01-.015-.321c0-2.327 1.745-3.138 4.056-1.669a8.31 8.31 0 013.643 6.291 3.327 3.327 0 01-.015.4l.475.276 18.813 10.715v-.153c-.184-2.48.888-4.056 3.75-2.388a8.666 8.666 0 013.888 6.429l1.072.505c.888.352 1.653-.352 3.6-1.332s9.338-5.633 10.868-6.6 2.158-1.822 2.311-2.541a32.941 32.941 0 00.291-3.827 3.628 3.628 0 00-.566-1.546 10.58 10.58 0 010-1.255 20.211 20.211 0 00-.23-2.51l-.536-.536a16.908 16.908 0 00-.765-2.572l-.077-.214a6.077 6.077 0 00-2.908-3.215L68.81 44.789a5.48 5.48 0 00-3.873-.459 14.405 14.405 0 00-2.311.811l-4.807-1.194a9.768 9.768 0 00-5.342.8z" stroke-width=".459" stroke-linejoin="round" stroke="#222" fill="none"/><g clip-path="url(#o)" transform="translate(48.158 45.019)"><path class="h" d="M.057 8.113a11.867 11.867 0 011.714-.674L4.863 5.51C6.394 4.53 14.828.474 14.828.474l-.071-.489-.291.122L14.037 0l-1.393.367c-2.434.612-3.077.781-7.026 2.832-3.643 1.883-5.97 3.812-5.541 4.9"/></g><path class="h" d="M48.203 53.132a20.993 20.993 0 017.975-1.607 87.411 87.411 0 014.914-3.352 41.682 41.682 0 017.332-3.567 17.511 17.511 0 00-1.745-.505 7.646 7.646 0 00-4.072 1.041l-.306-.077a41.329 41.329 0 00-8.863 3.873 17.732 17.732 0 00-5.25 4.179"/><path class="ah" d="M92.244 64.919a4.58 4.58 0 01.245.4 2.376 2.376 0 01-1.026 1.026l-.245-5.419.168-.429.612.551a20.126 20.126 0 01.26 2.572 9.7 9.7 0 000 1.3"/><path d="M92.244 64.919a4.58 4.58 0 01.245.4 2.376 2.376 0 01-1.026 1.026h0l-.245-5.419.168-.429.612.551a20.126 20.126 0 01.26 2.572 9.7 9.7 0 00-.015 1.3z" stroke-width=".459" stroke-linejoin="round" stroke="#222" fill="none"/><path class="d" d="M91.447 64.981l-.107-2.266a4.776 4.776 0 00.827-.52 9.83 9.83 0 01.107 1.515c-.015.2-.015.413-.015.6a4.577 4.577 0 01-.811.674"/><path d="M91.447 64.981l-.107-2.266a4.776 4.776 0 00.827-.52 9.83 9.83 0 01.107 1.515c-.015.2-.015.413-.015.6a4.577 4.577 0 01-.811.674z" stroke-width=".459" stroke-miterlimit="10" stroke="#222" fill="none"/><path class="ak" d="M74.93 76.538c.735-.276.214-1.47.214-1.47a2.326 2.326 0 00.735.214 10.577 10.577 0 001.515-.444 15.2 15.2 0 01.276 2.189c.061 1.3.184 1.393.184 1.393s4.21-2.281 5.863-3.306 4.087-2.51 5.664-3.536 1.776-1.47 1.913-1.913.306-3.322.306-3.322a2.269 2.269 0 00.9-.995 2.95 2.95 0 01.352 1.163 29.887 29.887 0 01-.291 3.827 4.528 4.528 0 01-2.311 2.541c-1.531.949-8.924 5.618-10.868 6.6s-2.694 1.684-3.6 1.332l-1.072-.505a8.02 8.02 0 00-1.148-3.536 4.974 4.974 0 001.368-.232z"/><g clip-path="url(#p)" transform="translate(38.743 51.54)"><path class="h" d="M53.883 14.068l-.689.49-.444.26-.23-5.327.23-.505-1.271-3.613-13.9 8.343a3.643 3.643 0 00-1.837-3.169L17.298 0a19.085 19.085 0 00-7.822 1.592L4.93 1.347l-.612.352a5.771 5.771 0 01-2.388.765l-1.868.168a34.769 34.769 0 000 3.766 5.675 5.675 0 001.194 2.863c-.015-4.638 4.118-2.373 4.118-2.373 4.194 3.077 3.689 6.98 3.689 6.98l19.288 10.991c-.4-5.051 3.26-2.8 3.26-2.8a8.639 8.639 0 014.363 6.689l1.868.566s11.542-6.842 12.92-7.317a7.326 7.326 0 002.709-2.419l.4-1.087.23-3.536zm-25.548 8.649l-7.929-4.638v-.138a.321.321 0 01.475-.276l7.822 4.409z"/></g><path class="ah" d="M75.16 75.068a14.716 14.716 0 01-.367-4.056c.031-1.148.674-1.056 1.026-1.148s1.531-.245 1.531-.245l.046 5.235a10.577 10.577 0 01-1.515.444 2.327 2.327 0 01-.735-.214"/><path class="ak" d="M75.16 75.068a14.716 14.716 0 01-.367-4.056c.031-1.148.674-1.056 1.026-1.148s1.531-.245 1.531-.245l.046 5.235a10.577 10.577 0 01-1.515.444 2.326 2.326 0 01-.721-.23z"/><path class="d" d="M77.364 71.104v2.342c-.612.184-1.133.138-1.24-.031a3.544 3.544 0 01-.061-1.47c.077-.536.888-.719 1.271-.827"/><path d="M77.364 71.104v2.342c-.612.184-1.133.138-1.24-.031a3.544 3.544 0 01-.061-1.47c.076-.535.918-.719 1.301-.841z" stroke-width=".459" stroke-linejoin="round" stroke="#222" fill="none"/><path d="M76.262 69.695c0-.75.031-2.22.061-3.23a5.327 5.327 0 00-2.782-4.839l-17.5-10.3" stroke-width=".459" stroke-linecap="round" stroke="#000" stroke-miterlimit="10" fill="none"/><path class="h" d="M89.916 58.811l.888 3.383a1.393 1.393 0 01-.643 1.607l-11.159 6.46a.505.505 0 01-.765-.429l-.107-4.424a.505.505 0 01.245-.459l10.792-6.444a.505.505 0 01.75.291"/><path d="M48.203 53.132" fill="#141c1e"/><path d="M57.924 63.113l-2.342-1.347c-.122-.077-.23 0-.23.168v.811a.536.536 0 00.23.429l2.342 1.347c.122.077.23 0 .23-.168v-.811a.536.536 0 00-.23-.429" fill="#bcbcbc"/><path d="M57.924 63.113l-2.342-1.347c-.122-.077-.23 0-.23.168v.811a.536.536 0 00.23.429l2.342 1.347c.122.077.23 0 .23-.168v-.811a.536.536 0 00-.23-.429z" stroke-width=".459" stroke="#111" stroke-miterlimit="10" fill="none"/><path class="h" d="M57.924 63.052l-2.342-1.347c-.122-.077-.23 0-.23.168a.536.536 0 00.23.429l2.342 1.347c.122.077.23 0 .23-.168a.536.536 0 00-.23-.429"/><path d="M57.924 63.052l-2.342-1.347c-.122-.077-.23 0-.23.168a.536.536 0 00.23.429l2.342 1.347c.122.077.23 0 .23-.168a.536.536 0 00-.23-.429z" stroke-width=".459" stroke="#111" stroke-miterlimit="10" fill="none"/><path class="h" d="M39.019 53.837l1.959-.245a4.638 4.638 0 001.929-.689l.26-.168a.4.4 0 00.061-.612l-1.592-1.485-.964.643a3.444 3.444 0 00-1.179 1.378 7.1 7.1 0 00-.475 1.163M58.337 44.086l-1.745.674a.964.964 0 01-.4.031l-2.572-.49a8.1 8.1 0 014.73-.214"/><path class="d" d="M67.536 74.41l-8.281-4.699"/><path stroke-width=".459" stroke-linecap="round" stroke-miterlimit="10" stroke="#222" fill="none" d="M67.536 74.41l-8.281-4.699"/><path class="d" d="M90.713 64.077l-11.45 6.613a.264.264 0 01-.26-.459l11.45-6.613a.264.264 0 01.26.459"/><path class="t" d="M38.942 58.582s1.209-4.638 6.031-1.561 2.985 6.261 7.24 8.19c3 1.362 7.991 2.388 11.695 3.7a32.022 32.022 0 007.026 1.577 4.452 4.452 0 013.919 2.832l.245 1.163a.9.9 0 001.133.689l.168-.046.934-.184s.49 3.674.6 3.628 12.032-6.643 13-8.312a6.027 6.027 0 00.689-3.368.52.52 0 01.138-.4l.811-.888.092.367a8.037 8.037 0 01.2 3.092 4.683 4.683 0 01-2.067 3.643l-13.088 7.807a2.556 2.556 0 01-1.133.352 3.444 3.444 0 01-1.485-.23l-.077-.168a3.154 3.154 0 01-.214-.674 8.572 8.572 0 00-.964-2.572c-.964-1.684-2.817-4.194-5.159-3.949 0 0-1.944.122-1.515 3.46L47.882 65.563a8.48 8.48 0 00-4-6.919c-2.556-1.623-3.429.291-3.766 2.128a3.072 3.072 0 01-1.179-2.2"/><path d="M38.942 58.582s1.209-4.638 6.031-1.561 2.985 6.261 7.24 8.19c3 1.362 7.991 2.388 11.695 3.7a32.021 32.021 0 007.026 1.577 4.452 4.452 0 013.919 2.832l.245 1.163a.9.9 0 001.133.689l.168-.046.934-.184s.49 3.674.6 3.628 12.032-6.643 13-8.312a6.026 6.026 0 00.689-3.368.52.52 0 01.138-.4l.811-.888.092.367a8.037 8.037 0 01.2 3.092 4.683 4.683 0 01-2.067 3.643l-13.088 7.807a2.556 2.556 0 01-1.133.352 3.444 3.444 0 01-1.485-.23l-.077-.168a3.154 3.154 0 01-.214-.674 8.572 8.572 0 00-.964-2.572c-.964-1.684-2.817-4.194-5.159-3.949 0 0-1.944.122-1.515 3.46L47.882 65.563a8.48 8.48 0 00-4-6.919c-2.556-1.623-3.429.291-3.766 2.128a2.919 2.919 0 01-1.174-2.19z" stroke-width=".383" stroke-linejoin="round" stroke="#222" fill="none"/><path class="d" d="M78.757 78.696c-.551.138-.765-.031-.842-.306.2-.092 4.164-2.266 5.817-3.276s4.087-2.51 5.664-3.536 1.776-1.47 1.913-1.913a31.557 31.557 0 00.168-3.322l.138.046a2.74 2.74 0 01.26 1.148c0 .658-.168 2.48-.168 2.48a2.327 2.327 0 01-.995 1.515c-.9.643-5.189 3.46-7.792 4.96a28.218 28.218 0 01-4.164 2.22"/><path d="M78.757 78.696c-.551.138-.765-.031-.842-.306.2-.092 4.164-2.266 5.817-3.276s4.087-2.51 5.664-3.536 1.776-1.47 1.913-1.913a31.557 31.557 0 00.168-3.322l.138.046a2.74 2.74 0 01.26 1.148c0 .658-.168 2.48-.168 2.48a2.327 2.327 0 01-.995 1.515c-.9.643-5.189 3.46-7.792 4.96a25.739 25.739 0 01-4.163 2.204z" stroke-width=".459" stroke-linejoin="round" stroke="#222" fill="none"/><path class="d" d="M92.564 73.109a1.619 1.619 0 01-.7 1.332c-.4.214-.7-.015-.7-.536a1.619 1.619 0 01.7-1.332c.4-.214.7.015.7.536"/><path d="M92.564 73.109a1.619 1.619 0 01-.7 1.332c-.4.214-.7-.015-.7-.536a1.619 1.619 0 01.7-1.332c.392-.214.7.015.7.536z" stroke-width=".383" stroke-miterlimit="10" stroke="#222" fill="none"/><path class="aw" d="M100.836 75.833a2.556 2.556 0 00-4.745-1.868 1.424 1.424 0 00-.184-.4v-.061a1.439 1.439 0 00-2.847-.291l-.276-.046a.9.9 0 10.536 1.592 1.439 1.439 0 002.5.505 2.556 2.556 0 002.388 2.388 1.623 1.623 0 102.618-1.822"/><path d="M100.836 75.833a2.556 2.556 0 00-4.745-1.868 1.424 1.424 0 00-.184-.4v-.061a1.439 1.439 0 00-2.847-.291l-.276-.046a.9.9 0 10.536 1.592 1.439 1.439 0 002.5.505 2.556 2.556 0 002.388 2.388 1.623 1.623 0 102.618-1.822z" stroke-width=".383" stroke-linejoin="round" stroke="#222" fill="none"/><path class="aw" d="M104.704 77.441a.918.918 0 11-.888-.934.919.919 0 01.888.934"/><path d="M104.704 77.441a.918.918 0 11-.888-.934.919.919 0 01.888.934z" stroke-width=".383" stroke-linejoin="round" stroke="#222" fill="none"/><path class="t" d="M69.894 65.593c0 1.133-.689 1.669-1.546 1.163a3.721 3.721 0 01-1.546-2.954 4.153 4.153 0 011.546-2.832 14.249 14.249 0 011.546 4.608"/><path d="M69.894 65.593c0 1.133-.689 1.669-1.546 1.163a3.721 3.721 0 01-1.546-2.954 4.153 4.153 0 011.546-2.832 14.454 14.454 0 011.546 4.623z" stroke-width=".383" stroke-linejoin="round" stroke="#222" fill="none"/><path class="t" d="M65.011 66.098c0 .505-.306.735-.689.52a1.61 1.61 0 01-.689-1.3 1.856 1.856 0 01.689-1.255 6.411 6.411 0 01.689 2.036"/><path d="M65.011 66.098c0 .505-.306.735-.689.52a1.61 1.61 0 01-.689-1.3 1.856 1.856 0 01.689-1.255 6.411 6.411 0 01.689 2.035z" stroke-width=".383" stroke-linejoin="round" stroke="#222" fill="none"/><path class="d" d="M42.432 55.826a9.707 9.707 0 016.414 5.4l-.26-.995a7.333 7.333 0 00-1.316-2.664 5.78 5.78 0 00-4-2.281 3.7 3.7 0 00-1.592.2 1.959 1.959 0 00-.612.352l-.2.168a1.24 1.24 0 01.475-.153 3.337 3.337 0 011.1-.031"/><path class="d" d="M41.07 55.842l-.214.168.49-.153M58.689 62.026a1.637 1.637 0 01-.23.291.675.675 0 01-.7.23l-8.006-4.638-.077-.061v-.035a1.649 1.649 0 01-.077-.9zM74.257 62.348L56.21 51.681a.26.26 0 00-.26.444l17.895 10.547 1.424.842a4.292 4.292 0 00-1.026-1.163"/><path class="d" d="M55.965 52.123s-.811-.475-3.873-.2a31.683 31.683 0 013.873-.383l.444.245zM68.241 61.23s-1.822 1.868-1.056 3.567a8.278 8.278 0 011.056-3.567M99.959 74.027a.566.566 0 11-.566-.566.566.566 0 01.566.566M103.953 77.181a.276.276 0 11-.276-.276.275.275 0 01.276.276M95.198 73.124a.337.337 0 11-.337-.337.337.337 0 01.337.337"/><path class="d" d="M99.162 73.691a.337.337 0 11-.337-.337.337.337 0 01.337.337"/><g clip-path="url(#q)" transform="translate(69.42 51.311)" opacity=".3"><path class="h" d="M10.134 2.832c0 1.561-2.266 2.832-5.067 2.832S0 4.393 0 2.832 2.266 0 5.067 0s5.067 1.271 5.067 2.832"/></g><path class="h" d="M76.719 53.836c0 1.026-1.592 1.852-3.551 1.852s-3.551-.827-3.551-1.852 1.592-1.852 3.551-1.852 3.551.827 3.551 1.852"/><path d="M51.096 45.326s-2.771 1.179-4.21 2.021c-1.133.674-4.623 2.847-6.23 3.934a3.444 3.444 0 00-1.179 1.378 7.868 7.868 0 00-.765 2.51 10.6 10.6 0 00.551 4.531 5.035 5.035 0 00.873 1.041 2.259 2.259 0 01-.015-.321c0-2.327 1.745-3.138 4.056-1.669a8.31 8.31 0 013.643 6.291 3.327 3.327 0 01-.015.4l.475.276 18.813 10.715v-.153c-.184-2.48.888-4.056 3.75-2.388a8.666 8.666 0 013.888 6.429l1.072.505c.888.352 1.653-.352 3.6-1.332s9.338-5.633 10.868-6.6 2.158-1.822 2.311-2.541a32.941 32.941 0 00.291-3.827 3.628 3.628 0 00-.566-1.546 10.58 10.58 0 010-1.255 20.211 20.211 0 00-.23-2.51l-.536-.536a16.908 16.908 0 00-.765-2.572l-.077-.214a6.077 6.077 0 00-2.908-3.215L68.81 44.789a5.48 5.48 0 00-3.873-.459 14.405 14.405 0 00-2.311.811l-4.807-1.194a9.768 9.768 0 00-5.342.8z" stroke-width=".765" stroke-linejoin="round" stroke="#222" fill="none"/><path class="h" d="M59.562 57.174a4.272 4.272 0 00-.092.52c-.077.8-.291 2.771-.505 3.689-.122.536-.276.873-.52.827a1.867 1.867 0 01-.612-.23l-.995-.536-7.041-3.965a.521.521 0 01-.276-.444c0-.566.015-1.47.046-1.883s1.745-1.117 4.271-1.3a2.1 2.1 0 01.536.046 15.625 15.625 0 014.623 2.266c.8.413.612.781.551 1.026M61.077 50.025L79.66 60.756M79.906 60.909a.505.505 0 01-.459-.015L60.863 50.152c-.138-.077-.153-.2-.031-.26a.505.505 0 01.459.015l18.583 10.731c.138.077.153.2.031.26M64.139 48.265l18.583 10.731M82.967 59.133a.505.505 0 01-.459-.015L63.924 48.392c-.138-.077-.153-.2-.031-.26a.505.505 0 01.459.015l18.583 10.731c.138.077.153.2.031.26M67.047 46.596L85.63 57.327M85.876 57.464a.505.505 0 01-.459-.015L66.833 46.723c-.138-.077-.153-.2-.031-.26a.505.505 0 01.459.015l18.583 10.731c.138.077.153.2.031.26"/><path class="d" d="M67.981 47.637l1.7 5.863 1.332 1.255 1.454.153 1.5-.122 2.021-.949.367-.949 1.393-4.929-1.072.153-1.684.719-2.189.444-2.373-.321z"/><path d="M78.39 45.126c.107 2.143-2.3 4.026-5.373 4.179s-5.664-1.439-5.786-3.6 2.3-4.026 5.373-4.179 5.678 1.459 5.786 3.6z" stroke-width=".689" stroke="#000" stroke-miterlimit="10" fill="none"/><path d="M76.349 52.888a3.957 3.957 0 01-6.7.352" stroke-width=".459" stroke-miterlimit="10" stroke="#222" fill="none"/><path class="bg" d="M67.721 47.193l1.944 6.046M76.354 52.888l1.929-6.812"/><path d="M68.425 47.438s1.209 4.577 4.715 4.393 3.858-5.128 3.858-5.128" stroke-width=".459" stroke-linecap="round" stroke="#000" stroke-miterlimit="10" fill="none"/><path d="M71.134 51.296a4.118 4.118 0 002.021.4 4.761 4.761 0 001.378-.276" stroke-width="1.225" stroke-linecap="round" stroke="#000" stroke-miterlimit="10" fill="none"/><path d="M68.104 43.473l1.791-1.99.6-.536-.184-.429 1.408-1.408 1.087-.26.934-.092 1.393-.781 1.362-.184 1.163.214.949.337.383.168.75-.689.719-.077.7-.153 1.209.321.475 1.209-.046.949-.168.7.551.643.413 1.163-.505.811-.827.643-.061.811-.291 1.072-1.087.046a3.015 3.015 0 00-.337.551 6.24 6.24 0 01-.321.628l-.689.4-1.332-.153h-.23l-.949.719-.964.429-1.24.49-1.531.276-2.189-.138a18.133 18.133 0 01-2.908-1.684 5.406 5.406 0 01-1.01-2.2l.291-.9z" fill="#a3d8ff"/><path class="bk" d="M72.695 43.413l-.168.429-1.515 1.225-.383.582a3.827 3.827 0 01-1.087-.352 8.659 8.659 0 013.138-2.311z"/><path d="M63.266 42.494l-.046-.031h.046z" fill="#ffd100"/><path d="M83.35 43.259a1.5 1.5 0 01-.964.689 1.883 1.883 0 01.061.49 1.638 1.638 0 01-1.546 1.73l-.26-.031a1.454 1.454 0 01-2.1 1.271 2.5 2.5 0 00-1.546.612h0a6.857 6.857 0 01-4.133 1.3c-3.184 0-5.771-1.929-5.771-4.3 0-1.745 1.393-3.245 3.4-3.919a1.76 1.76 0 01.107-.995c.413-.98 1.714-1.408 3.107-1.117a3.737 3.737 0 012.985-1.255 4.194 4.194 0 012.357.674 3.032 3.032 0 01.337-.306 2.306 2.306 0 013.245.138 1.979 1.979 0 01-.138 2.6 1.867 1.867 0 01.859 2.419z" stroke-width=".459" stroke-linejoin="round" stroke="#222" fill="none"/><path d="M72.665 42.969a8.285 8.285 0 00-3.138 2.311 2.71 2.71 0 01-.566-.352h-.015a2.642 2.642 0 00-2.388-1.316c-.291.015-.566-.077-.857-.061a2.77 2.77 0 01-2.449-1.041l-.046-.26.077-1.1.964-.765.888-.475a4.626 4.626 0 011.791-.214 2.843 2.843 0 012.3 1.623l.23.321.658.107.551-.061.719.122.689.383.6.52z" fill="#ffda34"/><path class="bk" d="M70.751 45.188l-.184.536-.765.475-.857-.168-1.117-1.209-.658-.459-1.362.168-1.225-.031-.735-.352-.367-.321-.23-1.316a3.252 3.252 0 002.449 1.041c.291 0 .735-.077 1.026-.092a2.847 2.847 0 012.5 1.148l.413.214c.23.2.321.26 1.087.383"/><path d="M70.2 46.657a4.536 4.536 0 014.011-3.337" stroke-width=".459" stroke-linecap="round" stroke="#000" stroke-miterlimit="10" fill="none"/><path class="h" d="M70.798 44.927c-.735.26-1.3-.52-1.776-.949a3.073 3.073 0 00-1.99-.689 9.82 9.82 0 01-2.419.015c-.8-.2-1.209-.582-1.209-1.255-.031-1.347 1.546-1.929 2.633-2.143a2.878 2.878 0 011.868.291 2.419 2.419 0 011.194 1.347.551.551 0 00.321.367 1.011 1.011 0 00.52 0 3.918 3.918 0 011.271-.031c.719.122 1.531.719 1.362 1.546-.046.26.352.367.4.107a1.718 1.718 0 00-.9-1.776 2.6 2.6 0 00-1.133-.321 7.565 7.565 0 00-1.225.092c-.122.015-.153.015-.214-.107a1.753 1.753 0 01-.092-.23 2.419 2.419 0 00-.245-.444 2.893 2.893 0 00-.719-.719 3.383 3.383 0 00-1.99-.6 5.327 5.327 0 00-1.776.444 2.676 2.676 0 00-1.577 1.5 1.653 1.653 0 00.536 1.9 3.231 3.231 0 002.281.475c.781-.061 1.99-.23 2.755.459s1.286 1.424 2.22 1.1c.245-.092.138-.49-.107-.4"/><path class="h" d="M63.006 42.219a3.765 3.765 0 00.26 1.546 1.948 1.948 0 001.561.888 6.062 6.062 0 002.3-.092c.23-.046.321.122.444.276l.429.49a3.521 3.521 0 00.765.719 2.082 2.082 0 00.995.337 1.163 1.163 0 00.9-.413c.184-.2-.107-.49-.291-.291a.765.765 0 01-.689.291 1.806 1.806 0 01-.811-.352 4.547 4.547 0 01-.7-.735l-.337-.383a1.148 1.148 0 00-.367-.337c-.291-.138-.674.046-.98.092a5.05 5.05 0 01-1.056.046 4.592 4.592 0 01-1.041-.184 1.172 1.172 0 01-.7-.429 3.926 3.926 0 01-.291-1.485.214.214 0 00-.413 0"/></g><g class="c"><g clip-path="url(#s)" transform="translate(19.67 39.432)"><path d="M11.573 1.209c2.618 1.515 2.6 3.965-.031 5.5a10.459 10.459 0 01-9.506.015c-2.618-1.515-2.6-3.965.031-5.5a10.459 10.459 0 019.506-.015"/><path d="M11.573 1.209c2.618 1.515 2.6 3.965-.031 5.5a10.459 10.459 0 01-9.506.015c-2.618-1.515-2.6-3.965.031-5.5a10.459 10.459 0 019.506-.015z" stroke-width=".153" stroke-miterlimit="10" stroke="#222" fill="none"/></g><path class="d" d="M28.626 8.358l-.475-.276a3.751 3.751 0 01.475.276"/><path d="M28.626 8.358l-.475-.276a3.751 3.751 0 01.475.276z" stroke-width="1.225" stroke-linejoin="round" stroke="#222" fill="none"/><path class="d" d="M34.764 15.843c0 5.3-3.75 16.241-8.358 24.416l-3.934-2.279h-.015c-4.424-2.528-8.343-9.478-8.343-14.774s3.75-11.726 8.358-14.389c2.189-1.271 4.194-1.454 5.679-.719l.475.276 3.444 1.99c1.653.8 2.679 2.709 2.679 5.5"/><path class="e" d="M34.764 15.843c0 5.3-3.75 16.241-8.358 24.416l-3.934-2.279h-.015c-4.424-2.528-8.343-9.478-8.343-14.774s3.75-11.726 8.358-14.389c2.189-1.271 4.194-1.454 5.679-.719l.475.276 3.444 1.99c1.668.795 2.694 2.708 2.694 5.479z"/><path class="d" d="M32.008 10.348a4.378 4.378 0 00-2.051-.413 7.676 7.676 0 00-3.613 1.148c-4.608 2.664-8.358 9.123-8.358 14.4 0 3.812 2.036 8.5 4.837 11.741a13.673 13.673 0 003.521 3.031L22.41 37.98h-.015c-4.424-2.528-8.343-9.478-8.343-14.774S17.787 11.48 22.41 8.817c2.189-1.271 4.194-1.454 5.679-.719l.475.276z"/><path d="M32.008 10.348h0a4.378 4.378 0 00-2.051-.413 7.676 7.676 0 00-3.613 1.148c-4.608 2.664-8.358 9.123-8.358 14.4 0 3.812 2.036 8.5 4.837 11.741a13.673 13.673 0 003.521 3.031L22.41 37.98h-.015c-4.424-2.528-8.343-9.478-8.343-14.774S17.787 11.48 22.41 8.817c2.189-1.271 4.194-1.454 5.679-.719l.475.276z" stroke-width=".612" stroke-linejoin="round" stroke="#222" fill="none"/><path class="d" d="M28.564 8.358l-.475-.276a3.642 3.642 0 01.475.276"/><path d="M28.564 8.358l-.475-.276a3.642 3.642 0 01.475.276z" stroke-width=".612" stroke-linejoin="round" stroke="#222" fill="none"/><path class="t" d="M32.008 10.363a4.378 4.378 0 00-2.051-.413 7.676 7.676 0 00-3.613 1.148c-4.608 2.664-8.358 9.123-8.358 14.4 0 3.812 2.036 8.5 4.837 11.741a13.673 13.673 0 003.521 3.031c4.608-8.174 8.358-19.119 8.358-24.416 0-2.786-1.026-4.7-2.679-5.5m-5.664 6.49l.4-.2c1.653-.735 2.939.138 2.939 2.1a7.561 7.561 0 01-3.322 5.74c-1.837 1.056-3 .367-3.276-1.255a3.7 3.7 0 01-.046-.643 7.292 7.292 0 013.337-5.74"/><path d="M32.008 10.363a4.378 4.378 0 00-2.051-.413 7.676 7.676 0 00-3.613 1.148c-4.608 2.664-8.358 9.123-8.358 14.4 0 3.812 2.036 8.5 4.837 11.741a13.673 13.673 0 003.521 3.031c4.608-8.174 8.358-19.119 8.358-24.416 0-2.796-1.041-4.695-2.694-5.491zm-5.664 6.49l.4-.2c1.653-.735 2.939.138 2.939 2.1a7.561 7.561 0 01-3.322 5.74c-1.837 1.056-3 .367-3.276-1.255a3.7 3.7 0 01-.046-.643 7.22 7.22 0 013.305-5.741z" stroke-width=".383" stroke-linejoin="round" stroke="#222" fill="none"/><path class="d" d="M29.666 18.752a7.317 7.317 0 01-3.322 5.74c-1.837 1.056-3 .367-3.276-1.255a3.7 3.7 0 01-.046-.643 7.292 7.292 0 013.337-5.74l.4-.2c1.653-.735 2.939.138 2.939 2.1"/><path d="M29.666 18.752a7.317 7.317 0 01-3.322 5.74c-1.837 1.056-3 .367-3.276-1.255a3.7 3.7 0 01-.046-.643 7.292 7.292 0 013.337-5.74l.4-.2c1.636-.734 2.907.139 2.907 2.098z" stroke-width=".612" stroke-linejoin="round" stroke="#222" fill="none"/><path class="s" d="M29.668 18.752a7.317 7.317 0 01-3.322 5.74c-1.837 1.056-3 .367-3.276-1.255l.4-.2a7.333 7.333 0 003.337-5.74 3.7 3.7 0 00-.046-.643c1.653-.735 2.939.138 2.939 2.1"/><path d="M29.668 18.752a7.317 7.317 0 01-3.322 5.74c-1.837 1.056-3 .367-3.276-1.255l.4-.2a7.333 7.333 0 003.337-5.74 3.7 3.7 0 00-.046-.643c1.634-.734 2.907.139 2.907 2.098z" stroke-width=".612" stroke-linejoin="round" stroke="#222" fill="none"/></g></g></svg>