<svg xmlns="http://www.w3.org/2000/svg" xmlns:xlink="http://www.w3.org/1999/xlink" width="26.999" height="27" viewBox="0 0 26.999 27">
  <defs>
    <filter id="제외_1" x="0" y="0" width="26.999" height="27" filterUnits="userSpaceOnUse">
      <feOffset dy="1" input="SourceAlpha"/>
      <feGaussianBlur stdDeviation="0.5" result="blur"/>
      <feFlood flood-color="#111" flood-opacity="0.078"/>
      <feComposite operator="in" in2="blur"/>
      <feComposite in="SourceGraphic"/>
    </filter>
  </defs>
  <g transform="matrix(1, 0, 0, 1, 0, 0)" filter="url(#제외_1)">
    <g id="제외_1-2" data-name="제외 1" transform="translate(-480.5 -287.5)" fill="#fff">
      <path d="M 494.0001220703125 311.5003051757813 C 490.9283142089844 311.5003051757813 488.0404357910156 310.3040161132813 485.8684997558594 308.1318359375 C 483.696533203125 305.9596862792969 482.5003967285156 303.0716552734375 482.5003967285156 299.9996948242188 C 482.5003967285156 296.9281616210938 483.696533203125 294.0404052734375 485.8684692382813 291.868408203125 C 488.0404968261719 289.6962585449219 490.9283752441406 288.5 494.0001220703125 288.5 C 497.0718688964844 288.5 499.9597473144531 289.6962585449219 502.1317443847656 291.868408203125 C 504.3036804199219 294.0404357910156 505.4998168945313 296.9281616210938 505.4998168945313 299.9996948242188 C 505.4998168945313 303.0716247558594 504.3036804199219 305.9596557617188 502.1317443847656 308.1318359375 C 499.9597778320313 310.3040161132813 497.0718994140625 311.5003051757813 494.0001220703125 311.5003051757813 Z M 494.0001525878906 304.2501220703125 L 497.5450744628906 305.4728088378906 L 498.2300109863281 305.7090454101563 L 498.2078857421875 304.9848327636719 L 498.097412109375 301.3746643066406 L 500.3905334472656 298.5142517089844 L 500.8628234863281 297.9251403808594 L 500.1361083984375 297.7202758789063 L 496.5262756347656 296.70263671875 L 494.4081726074219 293.7113647460938 L 494.0001220703125 293.1350708007813 L 493.5920715332031 293.7113647460938 L 491.4739379882813 296.70263671875 L 487.8641662597656 297.7202758789063 L 487.1374206542969 297.9251403808594 L 487.6097106933594 298.5142517089844 L 489.9028015136719 301.3746643066406 L 489.7923278808594 304.9848327636719 L 489.7702026367188 305.7090454101563 L 490.4551391601563 305.4728088378906 L 494.0001525878906 304.2501220703125 Z" stroke="none"/>
      <path d="M 494.0001220703125 311.0003051757813 C 496.9383544921875 311.0003051757813 499.7006530761719 309.8560180664063 501.7781677246094 307.7782897949219 C 503.8556823730469 305.7005615234375 504.9998168945313 302.9380493164063 504.9998168945313 299.9996948242188 C 504.9998168945313 297.0617370605469 503.8556823730469 294.2995300292969 501.7781982421875 292.2219543457031 C 499.7006225585938 290.1442565917969 496.9383239746094 289 494.0001220703125 289 C 491.0619201660156 289 488.2996215820313 290.1442565917969 486.2220458984375 292.2219543457031 C 484.14453125 294.2995300292969 483.0003967285156 297.0617065429688 483.0003967285156 299.9996948242188 C 483.0003967285156 302.9381103515625 484.14453125 305.7005920410156 486.2220764160156 307.7782897949219 C 488.299560546875 309.8560180664063 491.0618591308594 311.0003051757813 494.0001220703125 311.0003051757813 M 494.0001220703125 304.7790222167969 L 490.6181640625 305.9454650878906 L 489.2482604980469 306.4179382324219 L 489.2925720214844 304.9695434570313 L 489.3973999023438 301.5436096191406 L 487.2196044921875 298.8269958496094 L 486.2750549316406 297.6487731933594 L 487.7284851074219 297.2390441894531 L 491.1680908203125 296.2693786621094 L 493.1840209960938 293.4224243164063 L 494.0001220703125 292.2698669433594 L 494.8162536621094 293.4224243164063 L 496.8321533203125 296.2693786621094 L 500.2717590332031 297.239013671875 L 501.7252197265625 297.6487731933594 L 500.7806701660156 298.8269958496094 L 498.6028137207031 301.5436096191406 L 498.7076416015625 304.9695434570313 L 498.751953125 306.41796875 L 497.3820495605469 305.9454650878906 L 494.0001220703125 304.7790222167969 M 494.0001220703125 312.0003051757813 C 490.7947692871094 312.0003051757813 487.7813110351563 310.7520141601563 485.5149230957031 308.4853515625 C 483.24853515625 306.2187805175781 482.0003967285156 303.2051696777344 482.0003967285156 299.9996948242188 C 482.0003967285156 296.7946472167969 483.24853515625 293.7813110351563 485.5149230957031 291.5148620605469 C 487.7813720703125 289.2482604980469 490.7947998046875 288 494.0001220703125 288 C 497.2054443359375 288 500.2188720703125 289.2482604980469 502.4853210449219 291.5148620605469 C 504.7516784667969 293.7813110351563 505.9998168945313 296.7946166992188 505.9998168945313 299.9996948242188 C 505.9998168945313 303.2051696777344 504.7516784667969 306.21875 502.4853210449219 308.4853515625 C 500.2189025878906 310.7520141601563 497.2054443359375 312.0003051757813 494.0001220703125 312.0003051757813 Z M 497.7080993652344 305.0001220703125 L 497.5920104980469 301.2057189941406 L 500.0004272460938 298.2015075683594 L 496.2203979492188 297.1358947753906 L 494.0001220703125 294.0003051757813 L 491.7798156738281 297.1358947753906 L 487.9998168945313 298.2015075683594 L 490.408203125 301.2057189941406 L 490.2921142578125 305.0001220703125 L 493.9997863769531 303.7213439941406 L 494.0001220703125 303.7212219238281 L 494.0004577636719 303.7213439941406 L 497.7080993652344 305.0001220703125 Z" stroke="none" fill="#fff"/>
    </g>
  </g>
</svg>
