<svg xmlns="http://www.w3.org/2000/svg" xmlns:xlink="http://www.w3.org/1999/xlink" width="28" height="28" viewBox="0 0 28 28"><defs><style>.a,.d,.f{fill:none;}.b{clip-path:url(#a);}.c{fill:#fddb2b;}.d{stroke:#fccb3a;}.e{fill:#fff;}.f{stroke:#111;stroke-miterlimit:10;}</style><clipPath id="a"><rect class="a" width="28" height="28"/></clipPath></defs><g transform="translate(14 14)"><g transform="translate(-14 -14)"><g class="b"><path class="c" d="M14,0A14,14,0,1,1,0,14,14,14,0,0,1,14,0"/><circle class="d" cx="13.5" cy="13.5" r="13.5" transform="translate(0.5 0.5)"/></g><rect class="e" width="11" height="8" transform="translate(8 10)"/><line class="f" y2="3" transform="translate(11 7.8)"/><line class="f" x1="3" transform="translate(11 9.3)"/><line class="f" y2="3" transform="translate(15 7.8)"/><g class="b"><path class="f" d="M15,9.3h3.5v8H8.3A1.3,1.3,0,0,1,7,15.9V9.3H9"/><path class="c" d="M20.3,16.3A3.3,3.3,0,1,1,17,13a3.2,3.2,0,0,1,3.3,3.3"/><circle class="f" cx="3.2" cy="3.2" r="3.2" transform="translate(13.8 13.1)"/><path class="f" d="M17,14.6v1.7l1.1,1.1"/></g></g></g></svg>