<svg xmlns="http://www.w3.org/2000/svg" xmlns:xlink="http://www.w3.org/1999/xlink" width="28" height="28" viewBox="0 0 28 28">
  <defs>
    <style>
      .cls-1, .cls-10, .cls-11, .cls-7, .cls-8 {
        fill: none;
      }

      .cls-2 {
        clip-path: url(#clip-path);
      }

      .cls-3 {
        fill: #fddb2b;
      }

      .cls-4 {
        fill: #fff;
      }

      .cls-5 {
        opacity: 0;
      }

      .cls-6 {
        fill: #f0f;
      }

      .cls-10, .cls-11, .cls-7, .cls-8 {
        stroke: #111;
        stroke-width: 1.5px;
      }

      .cls-7, .cls-8 {
        stroke-linejoin: round;
      }

      .cls-10, .cls-8 {
        stroke-linecap: round;
      }

      .cls-9 {
        fill: #111;
        font-size: 12px;
        font-family: MoebiusKorea-Bold, Moebius Korea;
        font-weight: 700;
      }

      .cls-10, .cls-11 {
        stroke-miterlimit: 10;
      }

      .cls-11 {
        stroke-linecap: square;
      }
    </style>
    <clipPath id="clip-path">
      <rect id="사각형_239159" data-name="사각형 239159" class="cls-1" width="28" height="28"/>
    </clipPath>
  </defs>
  <g id="앱_이용안내_28x28" data-name="앱 이용안내_28x28" transform="translate(14 14)">
    <g id="그룹_309297" data-name="그룹 309297" class="cls-2" transform="translate(-14 -14)">
      <rect id="사각형_239153" data-name="사각형 239153" class="cls-3" width="28" height="28"/>
      <g id="그룹_309295" data-name="그룹 309295" class="cls-2">
        <path id="패스_638150" data-name="패스 638150" class="cls-4" d="M7.8,20.9c0,5.3,3.2,5.3,3.2,5.3h1.1"/>
        <path id="패스_638151" data-name="패스 638151" class="cls-4" d="M7.8,20.9V6a.5.5,0,0,1,.5-.5H23.4A.5.5,0,0,1,24,6V25.6a.5.5,0,0,1-.5.5H12.1"/>
        <g id="그룹_309294" data-name="그룹 309294" class="cls-5">
          <g id="그룹_309293" data-name="그룹 309293" class="cls-2">
            <rect id="사각형_239154" data-name="사각형 239154" class="cls-6" width="28" height="28"/>
          </g>
        </g>
        <path id="패스_638152" data-name="패스 638152" class="cls-7" d="M5.9,19.1c0,5.3,3.2,5.3,3.2,5.3h1.1"/>
        <path id="패스_638153" data-name="패스 638153" class="cls-8" d="M5.9,19.1V3.7H22.1V24.4H10.2"/>
      </g>
      <text id="i" class="cls-9" transform="translate(12.1 16.3)"><tspan x="0" y="0">i</tspan></text>
      <g id="그룹_309296" data-name="그룹 309296" class="cls-2">
        <rect id="사각형_239157" data-name="사각형 239157" width="1.8" height="1.5" transform="translate(11.9 9.4)"/>
        <line id="선_87648" data-name="선 87648" class="cls-10" x2="5.9" transform="translate(11.9 18.9)"/>
        <line id="선_87649" data-name="선 87649" class="cls-11" x2="5.9" transform="translate(6 18.9)"/>
      </g>
    </g>
  </g>
</svg>
