<svg xmlns="http://www.w3.org/2000/svg" width="100" height="100"><defs><clipPath id="a"><path data-name="사각형 299417" fill="none" d="M0 0h100v100H0z"/></clipPath><clipPath id="b"><path data-name="사각형 299414" fill="none" d="M0 0h70.229v31.49H0z"/></clipPath><clipPath id="c"><path data-name="사각형 299439" fill="none" d="M0 0h17.375v10.029H0z"/></clipPath><clipPath id="d"><path data-name="사각형 299441" fill="none" d="M0 0h20.875v11.771H0z"/></clipPath><clipPath id="e"><path data-name="사각형 299442" fill="none" d="M0 0h9.688v6.137H0z"/></clipPath></defs><g data-name="그룹 419864"><g data-name="icon_certification_null_100"><g data-name="Layer 1"><g data-name="그룹 390383" clip-path="url(#a)"><g data-name="그룹 390377" clip-path="url(#a)"><path data-name="패스 787898" d="M50 0A50 50 0 110 50 50.013 50.013 0 0150 0" fill="#f9f9f9"/><path data-name="패스 787899" d="M50 100a50 50 0 1150-50 50.066 50.066 0 01-50 50m0-99a49 49 0 1049 49A49.053 49.053 0 0050 1" fill="#f0f0f0"/></g><g data-name="그룹 390382" clip-path="url(#a)"><g data-name="그룹 390379"><g data-name="그룹 390378" clip-path="url(#b)" transform="translate(18.771 49.813)" opacity=".15"><path data-name="패스 787900" d="M6.437 14.479L0 17.937a1.647 1.647 0 00.958 1.479l19.955 11.522a6.126 6.126 0 005.563-.229L68.893 6.23a2.5 2.5 0 001.354-1.625l-8.021-4.6"/></g></g><path data-name="패스 787901" d="M19.4 63.687v3.167a1.557 1.557 0 00.938 1.417l19.229 11.1a5.993 5.993 0 005.375-.229l40.9-23.583a2.381 2.381 0 001.313-1.583v-3.143" fill="#efefef"/><path data-name="패스 787902" d="M19.4 63.687v3.167a1.557 1.557 0 00.938 1.417l19.229 11.1a5.993 5.993 0 005.375-.229l40.9-23.583a2.381 2.381 0 001.313-1.583v-3.143" fill="none" stroke="#222" stroke-linejoin="round" stroke-width=".833"/><path data-name="패스 787903" d="M20.317 65.104l19.25 11.1a5.993 5.993 0 005.375-.229l40.9-23.6c1.583-.917 1.771-2.312.4-3.1l-19.25-11.1a5.993 5.993 0 00-5.375.229l-40.9 23.6c-1.583.917-1.771 2.313-.4 3.1" fill="#222"/><path data-name="패스 787904" d="M20.317 65.104l19.25 11.1a5.993 5.993 0 005.375-.229l40.9-23.6c1.583-.917 1.771-2.312.4-3.1l-19.25-11.1a5.993 5.993 0 00-5.375.229l-40.9 23.6c-1.592.913-1.779 2.309-.4 3.1z" fill="none" stroke="#222" stroke-linejoin="round" stroke-width=".833"/><path data-name="패스 787905" d="M40.125 63.396c2.688 1.542 2.979 3.9.646 5.229s-6.375 1.167-9.042-.375-2.979-3.875-.646-5.229 6.375-1.167 9.042.375" fill="#fff"/><path data-name="패스 787906" d="M40.125 63.396c2.688 1.542 2.979 3.9.646 5.229s-6.375 1.167-9.042-.375-2.979-3.875-.646-5.229 6.355-1.167 9.042.375z" fill="none" stroke="#222" stroke-linejoin="round" stroke-width=".833"/><path data-name="패스 787907" d="M22.791 64.458l17.688 10.208a5.46 5.46 0 004.938-.208L82.98 52.771c1.458-.833 1.625-2.125.354-2.854L65.643 39.708a5.46 5.46 0 00-4.937.208L23.143 61.604c-1.458.833-1.625 2.125-.354 2.854" fill="#fff"/><path data-name="패스 787908" d="M69.021 43.041l6.981 4.042A2.176 2.176 0 0077.96 47l.188-.1c.583-.333.646-.833.146-1.125l-6.979-4.042a2.176 2.176 0 00-1.958.083l-.187.1c-.583.333-.646.833-.146 1.125" fill="#222"/><path data-name="패스 787909" d="M39.042 70l-8.687-5a1.021 1.021 0 00-.937.042c-.271.167-.312.4-.063.542l8.688 5.021a1.021 1.021 0 00.938-.042c.271-.167.313-.4.063-.542" fill="#111"/><path data-name="선 113943" fill="#3982f7" d="M57.917 24.313v9.208"/></g></g></g></g><g data-name="그룹 390427"><g data-name="Layer 1"><g data-name="그룹 390426" clip-path="url(#a)"><g data-name="그룹 390425" clip-path="url(#a)"><g data-name="그룹 390453"><g data-name="그룹 390418"><g data-name="그룹 390417" clip-path="url(#c)" transform="translate(51.229 74.104)" opacity=".15"><path data-name="패스 788000" d="M16.5 9.542a5.505 5.505 0 01-4.958-.208L1.185 3.355C-.273 2.501-.44 1.23.831.501a5.505 5.505 0 014.958.208l10.354 5.979c1.458.854 1.625 2.125.354 2.854" fill="#222"/></g></g><g data-name="그룹 390422"><g data-name="그룹 390421" clip-path="url(#d)" transform="translate(38.459 66.063)" opacity=".15"><path data-name="패스 788006" d="M20.021 11.292a5.505 5.505 0 01-4.958-.208L1.206 3.355C-.252 2.501-.419 1.23.852.501A5.505 5.505 0 015.81.709l13.854 7.729c1.458.854 1.625 2.125.354 2.854" fill="#222"/></g></g><path data-name="패스 788007" d="M67.626 79.437L41.917 64.583l-3.458.167 1.646 3.1 25.708 14.833" fill="#fff"/><path data-name="패스 788008" d="M67.626 79.437L41.917 64.583l-3.458.167 1.646 3.1 25.708 14.833" fill="none" stroke="#222" stroke-linejoin="round" stroke-width=".833"/><path data-name="선 113953" fill="#fff" d="M61.917 78.292L40.75 66.063"/><path data-name="선 113954" fill="none" stroke="#222" stroke-linejoin="round" stroke-width=".833" d="M61.917 78.292L40.75 66.063"/><path data-name="패스 788009" d="M68.001 80.271a2.917 2.917 0 01-1.312 2.271c-.729.417-1.312.083-1.312-.75a2.917 2.917 0 011.313-2.271c.729-.417 1.313-.083 1.313.75" fill="#222"/><path data-name="패스 788010" d="M68.001 80.271a2.917 2.917 0 01-1.312 2.271c-.729.417-1.312.083-1.312-.75a2.917 2.917 0 011.313-2.271c.728-.418 1.311-.083 1.311.75z" fill="none" stroke="#222" stroke-linejoin="round" stroke-width=".833"/><path data-name="패스 788011" d="M42.687 65.042a.917.917 0 00-.937.083 2.917 2.917 0 00-1.312 2.292.9.9 0 00.4.854" fill="none" stroke="#222" stroke-linejoin="round" stroke-width=".833"/><path data-name="패스 788012" d="M63.791 77.229a.917.917 0 00-.937.083 2.917 2.917 0 00-1.333 2.292.9.9 0 00.4.854" fill="none" stroke="#222" stroke-linejoin="round" stroke-width=".833"/><path data-name="패스 788013" d="M39.896 64.729a.375.375 0 00-.375.042 1.146 1.146 0 00-.521.9.354.354 0 00.167.333" fill="none" stroke="#222" stroke-linejoin="round" stroke-width=".833"/></g><path data-name="패스 788014" d="M60.858 33.479v-3.042c0-5.729-4.9-10.375-10.958-10.375a10.654 10.654 0 00-10.942 10.375v3.042" fill="#fff"/><path data-name="패스 788015" d="M60.858 33.479v-3.042c0-5.729-4.9-10.375-10.958-10.375a10.654 10.654 0 00-10.942 10.375v3.042" fill="none" stroke="#000001" stroke-linejoin="round" stroke-width=".833"/><path data-name="패스 788016" d="M60.858 32.813c0 5.729-4.9 10.375-10.958 10.375a10.654 10.654 0 01-10.942-10.375c0-5.729 4.9-10.375 10.958-10.375s10.958 4.646 10.958 10.375" fill="#3672ec"/><path data-name="패스 788017" d="M60.858 32.813c0 5.729-4.9 10.375-10.958 10.375a10.654 10.654 0 01-10.942-10.375c0-5.729 4.9-10.375 10.958-10.375a10.654 10.654 0 0110.942 10.375z" fill="none" stroke="#000001" stroke-linejoin="round" stroke-width=".833"/><path data-name="패스 788018" d="M46.958 32.917l2.563 2.5 5.229-5.229" fill="none" stroke="#fff" stroke-linecap="round" stroke-linejoin="round" stroke-width="1.667"/><path data-name="선 113955" fill="none" stroke="#fff" stroke-linecap="square" stroke-linejoin="round" stroke-width="1.667" d="M46.229 32.208l.729.708"/><path data-name="패스 788019" d="M56.067 59.687l3.313 1.917-6.213 3.583-4.5-2.6" fill="none" stroke="#222" stroke-linejoin="bevel" stroke-width=".833"/><path data-name="패스 788020" d="M50.354 59.583L53.125 58l2.938 1.688" fill="none" stroke="#222" stroke-linecap="round" stroke-linejoin="bevel" stroke-width=".833"/><path data-name="패스 788021" d="M53.375 62.812l-.062-1.75-6.792-.229" fill="none" stroke="#222" stroke-linecap="round" stroke-linejoin="round" stroke-width="1.042"/><path data-name="선 113956" fill="none" stroke="#222" stroke-linecap="square" stroke-linejoin="round" stroke-width="1.042" d="M53.375 62.938v-.125"/><path data-name="패스 788022" d="M64.604 53.729l3.4 1.771-6.042 3.854-4.625-2.4" fill="none" stroke="#222" stroke-miterlimit="10" stroke-width=".833"/><path data-name="패스 788023" d="M58.896 53.896l2.708-1.729 3 1.563" fill="none" stroke="#222" stroke-linecap="round" stroke-miterlimit="10" stroke-width=".833"/><path data-name="패스 788024" d="M62.042 56.979l-.125-1.771-6.792.083" fill="none" stroke="#222" stroke-linecap="round" stroke-linejoin="round" stroke-width="1.042"/><path data-name="선 113957" fill="none" stroke="#222" stroke-linecap="square" stroke-linejoin="round" stroke-width="1.042" d="M62.063 57.104l-.021-.125"/><g data-name="그룹 390424"><g data-name="그룹 390423" clip-path="url(#e)" transform="translate(45.813 44.083)" opacity=".2"><path data-name="패스 788025" d="M9.604 1.354c.5 1.4-1.208 3.313-3.833 4.25S.604 6.187.104 4.771 1.312 1.459 3.937.521s5.167-.583 5.667.833"/></g></g></g></g></g></g></g></svg>