<svg xmlns="http://www.w3.org/2000/svg" width="110" height="90.711"><defs><clipPath id="a"><path data-name="사각형 212685" fill="none" d="M0 0h110v90.711H0z"/></clipPath><clipPath id="b"><path data-name="사각형 212677" fill="none" d="M0 0h12.261v9.019H0z"/></clipPath><clipPath id="c"><path data-name="사각형 212678" fill="none" d="M0 0h73.369v27.635H0z"/></clipPath><clipPath id="d"><path data-name="사각형 212679" fill="none" d="M0 0h18.124v17.783H0z"/></clipPath><clipPath id="e"><path data-name="사각형 212680" fill="none" d="M0 0h15.308v9.129H0z"/></clipPath><clipPath id="f"><path data-name="사각형 212681" fill="none" d="M0 0h8.756v5.512H0z"/></clipPath><clipPath id="g"><path data-name="사각형 212682" fill="none" d="M0 0h4.485v2.585H0z"/></clipPath><clipPath id="h"><path data-name="사각형 212683" fill="none" d="M0 0h5.235v4.312H0z"/></clipPath></defs><g data-name="수리견적 서비스란? 111x92"><g data-name="그룹 258060" clip-path="url(#a)"><g data-name="그룹 258059" clip-path="url(#a)"><g data-name="그룹 258046"><g data-name="그룹 258045" clip-path="url(#b)" transform="translate(22.41 71.027)" opacity=".15"><path data-name="패스 563995" d="M.122.98l2.939 1.791 2.25 2.556v1.24a.811.811 0 00.413.7l2.863 1.638a.842.842 0 00.827 0l2.847-1.623L6.551.776.811-.005.092.531a.276.276 0 00.015.444" fill="#222"/></g></g><g data-name="그룹 258048"><g data-name="그룹 258047" clip-path="url(#c)" transform="translate(14.695 54.097)" opacity=".15"><path data-name="패스 563996" d="M0 1.776a2.709 2.709 0 001.3 1.99 2.817 2.817 0 002.771-.015l38.82 22.487s1.791.719 2.281.429c0 0 1.424 1.531 2.924.75s19.976-11.45 24.859-14.267a.811.811 0 00.031-1.393l-3.031-1.959-65.1-9.8z" fill="#222"/></g></g><path data-name="패스 563997" d="M20.969 54.341c0 .827-.582 1.148-1.3.735a2.866 2.866 0 01-1.3-2.235c0-.811.582-1.148 1.3-.735a2.866 2.866 0 011.3 2.235" fill="#fff"/><ellipse data-name="타원 7485" cx="1.056" cy="1.837" rx="1.056" ry="1.837" transform="rotate(-30.3 105.948 -6.652)" fill="none" stroke="#222" stroke-linejoin="round" stroke-width=".612"/><path data-name="패스 563998" d="M19.775 55.03c0 .827-.582 1.148-1.3.735a2.866 2.866 0 01-1.3-2.235c0-.811.582-1.148 1.3-.735a2.866 2.866 0 011.3 2.235" fill="#fff"/><path data-name="패스 563999" d="M19.775 55.03c0 .827-.582 1.148-1.3.735a2.866 2.866 0 01-1.3-2.235c0-.811.582-1.148 1.3-.735a2.866 2.866 0 011.3 2.235z" fill="none" stroke="#222" stroke-linejoin="round" stroke-width=".612"/><path data-name="패스 564000" d="M18.581 55.734c0 .827-.582 1.148-1.3.735a2.866 2.866 0 01-1.3-2.235c0-.811.582-1.148 1.3-.735a2.866 2.866 0 011.3 2.235" fill="#fff"/><path data-name="패스 564001" d="M18.581 55.734c0 .827-.582 1.148-1.3.735a2.866 2.866 0 01-1.3-2.235c0-.811.582-1.148 1.3-.735a2.842 2.842 0 011.3 2.235z" fill="none" stroke="#222" stroke-linejoin="round" stroke-width=".612"/><path data-name="선 77512" fill="#fff" d="M20.206 51.188l-5.036 2.908"/><path data-name="선 77513" fill="none" stroke="#222" stroke-linejoin="round" stroke-width=".612" d="M20.206 51.188l-5.036 2.908"/><path data-name="선 77514" fill="#fff" d="M19.808 55.643l-2.801 1.623"/><path data-name="선 77515" fill="none" stroke="#222" stroke-linejoin="round" stroke-width=".612" d="M19.808 55.643l-2.801 1.623"/><path data-name="패스 564002" d="M17.387 56.439c0 .827-.582 1.148-1.3.735a2.866 2.866 0 01-1.3-2.235c0-.811.582-1.148 1.3-.735a2.866 2.866 0 011.3 2.235" fill="#fff"/><path data-name="패스 564003" d="M17.387 56.439c0 .827-.582 1.148-1.3.735a2.866 2.866 0 01-1.3-2.235c0-.811.582-1.148 1.3-.735a2.842 2.842 0 011.3 2.235z" fill="none" stroke="#222" stroke-linejoin="round" stroke-width=".612"/><path data-name="패스 564004" d="M84.804 37.825l-11.463-4.194c-1.056-.383-2.541.413-3.643 1.913l-.23.321-1.454 2.2-1.714 2.6-8.312 12.629-12.644-7.3 1.117-.643a6.453 6.453 0 002.924-5.036V17.374z" fill="#e2e2e2"/><path data-name="패스 564005" d="M84.804 37.825h0l-11.463-4.194c-1.056-.383-2.541.413-3.643 1.913l-.23.321-1.454 2.2-1.714 2.6-8.312 12.629h0l-12.644-7.3 1.117-.643a6.453 6.453 0 002.924-5.036V17.374z" fill="none" stroke="#222" stroke-linejoin="round" stroke-width=".459"/><path data-name="패스 564006" d="M22.731 56.776a1.623 1.623 0 01-1.194-.184 2.045 2.045 0 01-.811-1.852V31.809l1.852 1.072v22.928a2.985 2.985 0 00.153.98" fill="#e2e2e2"/><path data-name="패스 564007" d="M22.731 56.776a1.623 1.623 0 01-1.194-.184 2.045 2.045 0 01-.811-1.852V31.809h0l1.852 1.072v22.928a2.985 2.985 0 00.153.967z" fill="none" stroke="#222" stroke-linejoin="round" stroke-width=".459"/><path data-name="패스 564008" d="M47.526 16.333v22.931a6.44 6.44 0 01-2.924 5.051l-1.1.643-20.924-12.081-1.852-1.068 11.465-17.432c1.117-1.714 2.74-2.648 3.873-2.235z" fill="#fff"/><path data-name="패스 564009" d="M47.526 16.333v22.931a6.44 6.44 0 01-2.924 5.051l-1.1.643-20.924-12.081-1.852-1.068 11.465-17.432c1.117-1.714 2.74-2.648 3.873-2.235z" fill="none" stroke="#222" stroke-linejoin="round" stroke-width=".459"/><path data-name="패스 564010" d="M87.743 22.349l1.01.888-.138.031-2.418-2.159.352-3.092 1.531-1.531 1.317-1.347h0l1.531 1.225v.015h.015l-2.846 2.878z" fill="none" stroke="#222" stroke-linejoin="round" stroke-width=".459"/><path data-name="패스 564011" d="M94.249 19.425l-2.6 3.184-2.893.643-.138.031-2.4-2.174.352-3.092 1.515-1.531 1.316-1.332a6.383 6.383 0 00-7.133 8.664l-16.5 18.308a2.8 2.8 0 001.225 4.546 2.8 2.8 0 002.74-.6l.2-.2 1.072-1.194 15.109-16.792.321-.352a6.276 6.276 0 001.577.245h.367a6.383 6.383 0 005.863-8.358M68.985 44.709l-.444.077-.7.122-.873-.781v-.291l.046-.873.949-.674.245.077.888.26.383.934.061.153z" fill="#fff"/><path data-name="패스 564012" d="M94.249 19.425l-2.6 3.184-2.893.643-.138.031-2.4-2.174.352-3.092 1.515-1.531 1.316-1.332a6.383 6.383 0 00-7.133 8.664l-16.5 18.308a2.8 2.8 0 001.225 4.546h0a2.8 2.8 0 002.74-.6l.2-.2 1.072-1.194 15.109-16.792.321-.352a6.276 6.276 0 001.577.245h.367a6.383 6.383 0 005.863-8.358zM68.976 44.713l-.444.077-.7.122-.873-.781v-.291h0l.046-.873.949-.674.245.077.888.26.383.934.061.153z" fill="none" stroke="#222" stroke-linejoin="round" stroke-width=".459"/><path data-name="패스 564013" d="M68.562 44.192l-.031.6-.7.107-.873-.781.015-.291.046-.873.964-.674.245.061.872.26.383.934z" fill="#e2e2e2"/><path data-name="패스 564014" d="M68.562 44.192l-.031.6-.7.107-.873-.781.015-.291h0l.046-.873.964-.674.245.061.872.26.383.934z" fill="none" stroke="#222" stroke-linejoin="round" stroke-width=".459"/><path data-name="패스 564015" d="M69.542 43.688l-.566 1.026-.444.077.031-.6.918-.658z" fill="#222"/><path data-name="패스 564016" d="M69.542 43.688l-.566 1.026-.444.077.031-.6.918-.658z" fill="none" stroke="#222" stroke-linejoin="round" stroke-width=".459"/><path data-name="패스 564017" d="M94.463 26.91a6.383 6.383 0 01-6.49 1.868l-16.5 18.338a2.8 2.8 0 01-3.949.214 2.755 2.755 0 01-.536-.658 2.8 2.8 0 002.74-.6l.2-.2L71 44.678l15.109-16.792.321-.352a6.275 6.275 0 001.577.245h.367a6.383 6.383 0 005.863-8.358l1.546 1.24a6.383 6.383 0 01-1.316 6.261" fill="#e2e2e2"/><path data-name="패스 564018" d="M94.463 26.91a6.383 6.383 0 01-6.49 1.868l-16.5 18.338a2.8 2.8 0 01-3.949.214 2.755 2.755 0 01-.536-.658 2.8 2.8 0 002.74-.6l.2-.2L71 44.678l15.109-16.792.321-.352a6.275 6.275 0 001.577.245h.367a6.383 6.383 0 005.863-8.358l1.546 1.24a6.383 6.383 0 01-1.32 6.249z" fill="none" stroke="#222" stroke-linejoin="round" stroke-width=".459"/><path data-name="선 77516" fill="none" stroke="#222" stroke-linejoin="round" stroke-width=".459" d="M89.396 15.139v-.015"/><path data-name="패스 564019" d="M83.441 23.711l1.209-1.5 3.169 2.556-1.24 1.546z" fill="none" stroke="#222" stroke-linejoin="round" stroke-width=".459"/><path data-name="선 77517" fill="none" stroke="#222" stroke-linejoin="round" stroke-width=".459" d="M84.191 24.492l1.225-1.515"/><path data-name="선 77518" fill="none" stroke="#222" stroke-linejoin="round" stroke-width=".459" d="M85.018 25.135l1.225-1.515"/><path data-name="선 77519" fill="none" stroke="#222" stroke-linejoin="round" stroke-width=".459" d="M85.753 25.762l1.225-1.5"/><path data-name="패스 564020" d="M49.398 17.374v22.944a6.43 6.43 0 01-2.924 5.036l-1.117.643-1.837-1.056-20.941-12.06 10.18-15.507 1.286-1.959c1.117-1.714 2.74-2.648 3.873-2.235l9.613 3.521 1.852.674z" fill="#cacaca"/><path data-name="패스 564021" d="M49.398 17.374v22.944a6.43 6.43 0 01-2.924 5.036l-1.117.643-1.837-1.056-20.941-12.06h0l10.18-15.507 1.286-1.959c1.117-1.714 2.74-2.648 3.873-2.235l9.613 3.521 1.852.674z" fill="none" stroke="#222" stroke-linejoin="round" stroke-width=".459"/><path data-name="패스 564022" d="M36.861 44.881l5.3-1.255-3.643.168-5.281 1.255z" fill="#fff"/><path data-name="패스 564023" d="M36.861 44.881l5.3-1.255-3.643.168-5.281 1.255z" fill="none" stroke="#222" stroke-linejoin="round" stroke-width=".459"/><path data-name="패스 564024" d="M38.59 63.281l5.281-1.271 3.046-2.174-5.3 1.255z" fill="#fff"/><path data-name="패스 564025" d="M38.59 63.281l5.281-1.271 3.046-2.174-5.3 1.255z" fill="none" stroke="#222" stroke-linejoin="round" stroke-width=".459"/><path data-name="패스 564026" d="M41.56 37.656l5.3-1.271-3.062-3.413-5.3 1.255z" fill="#fff"/><path data-name="패스 564027" d="M41.56 37.656l5.3-1.271-3.062-3.413-5.3 1.255z" fill="none" stroke="#222" stroke-linejoin="round" stroke-width=".459"/><path data-name="패스 564028" d="M48.632 68.715l5.3-1.255.658-4.73-5.3 1.255z" fill="#fff"/><path data-name="패스 564029" d="M48.632 68.715l5.3-1.255.658-4.73-5.3 1.255z" fill="none" stroke="#222" stroke-linejoin="round" stroke-width=".459"/><path data-name="패스 564030" d="M40.749 47.285" fill="#e2e2e2"/><path data-name="패스 564032" d="M40.749 47.499" fill="#e2e2e2"/><path data-name="패스 564034" d="M40.749 47.254" fill="#e2e2e2"/><path data-name="패스 564036" d="M40.749 47.27" fill="#e2e2e2"/><path data-name="패스 564038" d="M40.733 47.515" fill="#e2e2e2"/><path data-name="패스 564040" d="M40.687 48.54" fill="#e2e2e2"/><path data-name="패스 564042" d="M40.687 48.541l.046-1.026-.046 1.026" fill="#e2e2e2"/><path data-name="패스 564043" d="M40.687 48.541l.046-1.026z" fill="none" stroke="#222" stroke-linejoin="round" stroke-width=".459"/><path data-name="패스 564044" d="M40.749 47.224" fill="#e2e2e2"/><path data-name="패스 564046" d="M40.687 48.617" fill="#e2e2e2"/><path data-name="패스 564048" d="M40.687 48.617c.168-3.245 1.806-5.633 4.057-6.169l5.3-1.255a4.225 4.225 0 00-1.316.566 4.976 4.976 0 00-1.117.995 6.306 6.306 0 00-.857 1.378 7.974 7.974 0 00-.566 1.7 9.873 9.873 0 00-.214 2.051 11.312 11.312 0 001.01 4.654 10.133 10.133 0 001.179 1.975 8.006 8.006 0 001.561 1.561 5.786 5.786 0 001.959.98l.276.061.566.077a4.269 4.269 0 00.8-.015l.505-.092-5.3 1.255-.505.092a4.256 4.256 0 01-.8.015l-.566-.077a5.572 5.572 0 01-2.021-.888 7.057 7.057 0 01-.719-.566 8.7 8.7 0 01-1.408-1.653 10.581 10.581 0 01-1.072-2.067 11.345 11.345 0 01-.612-2.311 11.005 11.005 0 01-.122-2.266" fill="#e2e2e2"/><path data-name="패스 564049" d="M40.688 48.617c.168-3.245 1.806-5.633 4.056-6.169l5.3-1.255a4.225 4.225 0 00-1.316.566 4.974 4.974 0 00-1.117.995 6.308 6.308 0 00-.857 1.378 7.975 7.975 0 00-.566 1.7 9.873 9.873 0 00-.214 2.051 11.312 11.312 0 001.01 4.654 10.133 10.133 0 001.179 1.975 8.006 8.006 0 001.561 1.561 5.786 5.786 0 001.959.98l.276.061.566.077a4.269 4.269 0 00.8-.015l.505-.092-5.3 1.255-.505.092a4.256 4.256 0 01-.8.015l-.566-.077a5.572 5.572 0 01-2.021-.888 7.054 7.054 0 01-.719-.566 8.7 8.7 0 01-1.408-1.653 10.577 10.577 0 01-1.072-2.067 11.343 11.343 0 01-.612-2.311 11.005 11.005 0 01-.139-2.267z" fill="none" stroke="#222" stroke-linejoin="round" stroke-width=".459"/><path data-name="패스 564050" d="M40.687 48.54v.077-.077" fill="#e2e2e2"/><path data-name="패스 564051" d="M40.687 48.54v.077h0z" fill="none" stroke="#222" stroke-linejoin="round" stroke-width=".459"/><path data-name="패스 564052" d="M40.749 47.224" fill="#e2e2e2"/><path data-name="패스 564054" d="M40.749 47.254" fill="#e2e2e2"/><path data-name="패스 564058" d="M40.749 47.208" fill="#e2e2e2"/><path data-name="패스 564060" d="M48.712 35.651l.536-.107-5.3 1.255-.536.107z" fill="#fff"/><path data-name="패스 564061" d="M48.712 35.651l.536-.107-5.3 1.255-.536.107z" fill="none" stroke="#222" stroke-linejoin="round" stroke-width=".459"/><path data-name="패스 564062" d="M51.694 63.143l5.3-1.255a7.072 7.072 0 01-1.868.735l-5.3 1.255a7.073 7.073 0 001.868-.735" fill="#fff"/><path data-name="패스 564063" d="M51.694 63.143l5.3-1.255a7.072 7.072 0 01-1.868.735l-5.3 1.255a7.073 7.073 0 001.868-.735z" fill="none" stroke="#222" stroke-linejoin="round" stroke-width=".459"/><path data-name="패스 564064" d="M49.214 37.886l5.3-1.255-.689-5.006-5.3 1.255z" fill="#e2e2e2"/><path data-name="패스 564065" d="M49.214 37.886l5.3-1.255-.689-5.006-5.3 1.255z" fill="none" stroke="#222" stroke-linejoin="round" stroke-width=".459"/><path data-name="패스 564066" d="M48.525 32.88l5.3-1.255-3.919-.8-5.3 1.255z" fill="#fff"/><path data-name="패스 564067" d="M48.525 32.88l5.3-1.255-3.919-.8-5.3 1.255z" fill="none" stroke="#222" stroke-linejoin="round" stroke-width=".459"/><path data-name="패스 564068" d="M54.514 36.631a10.946 10.946 0 011.133.735q.459.337.888.719l.383.352-5.3 1.255-.383-.352q-.429-.383-.888-.719a10.9 10.9 0 00-1.133-.735z" fill="#e2e2e2"/><path data-name="패스 564069" d="M54.514 36.631a10.946 10.946 0 011.133.735q.459.337.888.719l.383.352-5.3 1.255-.383-.352q-.429-.383-.888-.719a10.9 10.9 0 00-1.133-.735z" fill="none" stroke="#222" stroke-linejoin="round" stroke-width=".459"/><path data-name="패스 564070" d="M57.51 63.435l5.3-1.255-2.112-4.516-5.3 1.255z" fill="#fff"/><path data-name="패스 564071" d="M57.51 63.435l5.3-1.255-2.112-4.516-5.3 1.255z" fill="none" stroke="#222" stroke-linejoin="round" stroke-width=".459"/><path data-name="패스 564072" d="M54.755 66.572l5.3-1.255 2.755-3.138-5.3 1.255z" fill="#fff"/><path data-name="패스 564073" d="M54.755 66.572l5.3-1.255 2.755-3.138-5.3 1.255z" fill="none" stroke="#222" stroke-linejoin="round" stroke-width=".459"/><path data-name="패스 564074" d="M56.393 55.918l5.3-1.255a13.564 13.564 0 01-.98 3.016l-5.3 1.255a13.547 13.547 0 00.98-3.016" fill="#fff"/><path data-name="패스 564075" d="M56.393 55.918l5.3-1.255a13.564 13.564 0 01-.98 3.016l-5.3 1.255a13.547 13.547 0 00.98-3.016z" fill="none" stroke="#222" stroke-linejoin="round" stroke-width=".459"/><path data-name="패스 564076" d="M60.667 44.193l.214.566q.291.811.52 1.653.153.6.276 1.209l-5.3 1.255q-.122-.612-.276-1.209-.23-.842-.52-1.653l-.214-.566z" fill="#e2e2e2"/><path data-name="패스 564077" d="M60.667 44.193l.214.566q.291.811.52 1.653.153.6.276 1.209l-5.3 1.255q-.122-.612-.276-1.209-.23-.842-.52-1.653l-.214-.566z" fill="none" stroke="#222" stroke-linejoin="round" stroke-width=".459"/><path data-name="패스 564078" d="M55.367 45.448l5.3-1.255 2.082-3.659-5.3 1.255z" fill="#e2e2e2"/><path data-name="패스 564079" d="M55.367 45.448l5.3-1.255 2.082-3.659-5.3 1.255z" fill="none" stroke="#222" stroke-linejoin="round" stroke-width=".459"/><path data-name="패스 564080" d="M57.449 41.79l5.3-1.255-2.786-4.271-5.3 1.255z" fill="#e2e2e2"/><path data-name="패스 564081" d="M57.449 41.79l5.3-1.255-2.786-4.271-5.3 1.255z" fill="none" stroke="#222" stroke-linejoin="round" stroke-width=".459"/><path data-name="패스 564082" d="M60.021 55.75l5.3-1.255-.015-5.235-5.3 1.255z" fill="#fff"/><path data-name="패스 564083" d="M60.021 55.75l5.3-1.255-.015-5.235-5.3 1.255z" fill="none" stroke="#222" stroke-linejoin="round" stroke-width=".459"/><path data-name="패스 564084" d="M33.248 50.285V45.05l3.628-.168a13.563 13.563 0 01.98-3.016l-2.112-4.516 2.755-3.138 3.062 3.429a7.041 7.041 0 012.388-.842l.658-4.73 3.919.8.689 5.006a11.741 11.741 0 012.4 1.822l3.046-2.174 2.786 4.271-2.082 3.658a19.257 19.257 0 011.01 3.414l3.628 1.653v5.235l-3.628.168a13.547 13.547 0 01-.98 3.016l2.112 4.516-2.755 3.138-3.062-3.429a7.041 7.041 0 01-2.4.827l-.658 4.73-3.919-.8-.689-5.006a11.741 11.741 0 01-2.4-1.822l-3.046 2.174-2.786-4.271 2.082-3.658a19.242 19.242 0 01-1.01-3.414zm13.409 8.082c3.291.674 5.939-2.357 5.924-6.751s-2.694-8.511-5.97-9.185-5.939 2.357-5.924 6.751 2.694 8.511 5.97 9.185" fill="#fff"/><path data-name="패스 564085" d="M33.248 50.285V45.05l3.628-.168a13.563 13.563 0 01.98-3.016l-2.112-4.516 2.755-3.138 3.062 3.429a7.041 7.041 0 012.388-.842l.658-4.73 3.919.8.689 5.006a11.741 11.741 0 012.4 1.822l3.046-2.174 2.786 4.271-2.082 3.658a19.257 19.257 0 011.01 3.414l3.628 1.653v5.235l-3.628.168a13.547 13.547 0 01-.98 3.016l2.112 4.516-2.755 3.138-3.062-3.429a7.041 7.041 0 01-2.4.827l-.658 4.73-3.919-.8-.689-5.006a11.741 11.741 0 01-2.4-1.822l-3.046 2.174-2.786-4.271 2.082-3.658a19.242 19.242 0 01-1.01-3.414zm13.409 8.082c3.291.674 5.939-2.357 5.924-6.751s-2.694-8.511-5.97-9.185-5.939 2.357-5.924 6.751 2.679 8.511 5.955 9.185z" fill="none" stroke="#222" stroke-linejoin="round" stroke-width=".459"/><path data-name="패스 564086" d="M60.005 50.514l5.3-1.255-3.643-1.653-5.3 1.255z" fill="#fff"/><path data-name="패스 564087" d="M60.005 50.514l5.3-1.255-3.643-1.653-5.3 1.255z" fill="none" stroke="#222" stroke-linejoin="round" stroke-width=".459"/><g data-name="그룹 258050"><g data-name="그룹 258049" clip-path="url(#d)" transform="translate(44.606 30.018)" opacity=".1"><path data-name="패스 564088" d="M0 1.408l16.226 16.379.842-.995-.842-2.878 1.913-3.4-2.786-4.271-4.546 1.087-.9-.719-.873-4.96L3.921-.002z" fill="#222"/></g></g><path data-name="패스 564089" d="M25.793 34.798L12.215 12.66l6.8-4.562 21.6 35.192" fill="#fff"/><path data-name="패스 564090" d="M25.793 34.798L12.215 12.66l6.8-4.562 21.6 35.192" fill="none" stroke="#222" stroke-linejoin="round" stroke-width=".459"/><path data-name="선 77520" fill="#fff" d="M15.262 17.267l2.863-1.929"/><path data-name="선 77521" fill="none" stroke="#222" stroke-linecap="round" stroke-linejoin="round" stroke-width=".612" d="M15.262 17.267l2.863-1.929"/><path data-name="선 77522" fill="#fff" d="M17.206 20.451l2.863-1.929"/><path data-name="선 77523" fill="none" stroke="#222" stroke-linecap="round" stroke-linejoin="round" stroke-width=".612" d="M17.206 20.451l2.863-1.929"/><path data-name="선 77524" fill="#fff" d="M19.257 23.787l2.863-1.913"/><path data-name="선 77525" fill="none" stroke="#222" stroke-linecap="round" stroke-linejoin="round" stroke-width=".612" d="M19.257 23.787l2.863-1.913"/><path data-name="선 77526" fill="#fff" d="M21.002 26.758l2.863-1.929"/><path data-name="선 77527" fill="none" stroke="#222" stroke-linecap="round" stroke-linejoin="round" stroke-width=".612" d="M21.002 26.758l2.863-1.929"/><path data-name="선 77528" fill="#fff" d="M22.793 29.895l2.878-1.913"/><path data-name="선 77529" fill="none" stroke="#222" stroke-linecap="round" stroke-linejoin="round" stroke-width=".612" d="M22.793 29.895l2.878-1.913"/><path data-name="선 77530" fill="#fff" d="M24.645 32.834l2.863-1.913"/><path data-name="선 77531" fill="none" stroke="#222" stroke-linecap="round" stroke-linejoin="round" stroke-width=".612" d="M24.645 32.834l2.863-1.913"/><path data-name="선 77532" fill="#fff" d="M27.048 35.33l2.189-1.47"/><path data-name="선 77533" fill="none" stroke="#222" stroke-linecap="round" stroke-linejoin="round" stroke-width=".612" d="M27.048 35.33l2.189-1.47"/><path data-name="선 77534" fill="#fff" d="M29.972 37.136l1.102-.735"/><path data-name="선 77535" fill="none" stroke="#222" stroke-linecap="round" stroke-linejoin="round" stroke-width=".612" d="M29.972 37.136l1.102-.735"/><path data-name="패스 564091" d="M18.155 12.813a1.332 1.332 0 11-1.332-1.332 1.332 1.332 0 011.332 1.332" fill="#222"/><circle data-name="타원 7486" cx="1.332" cy="1.332" r="1.332" transform="rotate(-65.6 17.98 -4.95)" fill="none" stroke="#fff" stroke-linejoin="round" stroke-width=".459"/><path data-name="패스 564092" d="M38.575 42.264L18.154 8.998l-.214-.245 1.194-.658 21.553 35.131z" fill="#fff"/><path data-name="패스 564093" d="M38.575 42.264L18.154 8.998l-.214-.245 1.194-.658 21.553 35.131z" fill="none" stroke="#222" stroke-linejoin="round" stroke-width=".459"/><g data-name="그룹 258052"><g data-name="그룹 258051" clip-path="url(#e)" transform="translate(25.38 34.105)" opacity=".1"><path data-name="패스 564094" d="M0 0l12.506 4.546 2.8 4.577L0 .49z" fill="#222"/></g></g><path data-name="패스 564095" d="M58.812 78.099h-.015L21.538 56.608a1.623 1.623 0 001.194.184 2.969 2.969 0 01-.153-.98V32.881l20.925 12.078 1.837 1.056 12.644 7.3v22.931a2.045 2.045 0 00.811 1.852" fill="#e2e2e2"/><path data-name="패스 564096" d="M58.812 78.099h-.015L21.538 56.608h0a1.623 1.623 0 001.194.184 2.969 2.969 0 01-.153-.98V32.881l20.925 12.078 1.837 1.056 12.644 7.3v22.931a2.052 2.052 0 00.827 1.853z" fill="none" stroke="#222" stroke-linejoin="round" stroke-width=".459"/><path data-name="선 77536" fill="none" stroke="#222" stroke-linejoin="round" stroke-width=".459" d="M21.538 56.607l-.107-.061"/><path data-name="선 77537" fill="none" stroke="#222" stroke-linejoin="round" stroke-width=".459" d="M60.954 79.37l-2.158-1.24"/><path data-name="선 77538" fill="none" stroke="#222" stroke-linejoin="round" stroke-width=".459" d="M20.726 31.809l-.061-.031"/><path data-name="패스 564097" d="M47.53 16.303l.015.015 1.852 1.056h0" fill="none" stroke="#222" stroke-linejoin="round" stroke-width=".459"/><path data-name="패스 564098" d="M84.804 37.825l2.174 1.255.077.046" fill="none" stroke="#222" stroke-linejoin="round" stroke-width=".459"/><path data-name="패스 564099" d="M60.235 78.221a1.663 1.663 0 01-1.424-.122A2.323 2.323 0 0158 76.247V53.316l2.174 1.255v22.931a3.109 3.109 0 00.077.7" fill="#e2e2e2"/><path data-name="패스 564100" d="M60.235 78.221a1.663 1.663 0 01-1.424-.122A2.323 2.323 0 0158 76.247V53.316l2.174 1.255v22.931a3.11 3.11 0 00.061.719z" fill="none" stroke="#222" stroke-linejoin="round" stroke-width=".459"/><path data-name="선 77539" fill="none" stroke="#222" stroke-linejoin="round" stroke-width=".459" d="M60.19 54.586l-.031-.015"/><path data-name="패스 564101" d="M38.758 18.722a4.8 4.8 0 01-2.174 3.75c-1.194.689-2.174.138-2.174-1.24a4.8 4.8 0 012.174-3.75c1.194-.689 2.174-.138 2.174 1.24" fill="#3673ee"/><path data-name="패스 564102" d="M38.758 18.722a4.8 4.8 0 01-2.174 3.75c-1.194.689-2.174.138-2.174-1.24a4.8 4.8 0 012.174-3.75c1.195-.69 2.174-.139 2.174 1.24z" fill="none" stroke="#222" stroke-linejoin="round" stroke-width=".459"/><path data-name="패스 564103" d="M38.223 17.374l32.176 18.583-3.414 5.113L34.84 22.517" fill="#3673ee"/><path data-name="패스 564104" d="M38.223 17.374l32.176 18.583-3.414 5.113L34.84 22.517" fill="none" stroke="#222" stroke-linejoin="round" stroke-width=".459"/><path data-name="패스 564105" d="M84.804 37.825v22.948a6.43 6.43 0 01-2.924 5.036L60.909 77.917a3.291 3.291 0 01-.674.306 3.124 3.124 0 01-.077-.719V54.573l-2.174-1.255 8.312-12.629 1.714-2.6 1.454-2.2.23-.321c1.1-1.5 2.6-2.3 3.643-1.913z" fill="#fff"/><path data-name="패스 564106" d="M84.804 37.825v22.948a6.43 6.43 0 01-2.924 5.036L60.909 77.917a3.291 3.291 0 01-.674.306 3.124 3.124 0 01-.077-.719V54.573l-2.174-1.255h0l8.312-12.629 1.714-2.6 1.454-2.2.23-.321c1.1-1.5 2.6-2.3 3.643-1.913z" fill="none" stroke="#222" stroke-linejoin="round" stroke-width=".459"/><path data-name="패스 564107" d="M86.977 39.08v22.944a6.481 6.481 0 01-2.924 5.051L63.082 79.183a2.035 2.035 0 01-2.112.184 1.73 1.73 0 01-.735-1.133 3.123 3.123 0 01-.077-.719V54.556l11.481-17.432c1.117-1.714 2.74-2.648 3.873-2.235l9.292 3.4z" fill="#fff"/><path data-name="패스 564108" d="M86.977 39.08v22.944a6.481 6.481 0 01-2.924 5.051L63.082 79.183a2.035 2.035 0 01-2.112.184 1.73 1.73 0 01-.735-1.133 3.123 3.123 0 01-.077-.719V54.556l11.481-17.432c1.117-1.714 2.74-2.648 3.873-2.235l9.292 3.4z" fill="none" stroke="#222" stroke-linejoin="round" stroke-width=".459"/><path data-name="패스 564109" d="M35.988 23.145a1.448 1.448 0 01-.735-1.454 4.8 4.8 0 012.174-3.75 1.482 1.482 0 011.669-.077" fill="none" stroke="#222" stroke-linejoin="round" stroke-width=".459"/><path data-name="패스 564110" d="M64.874 74.472a2.235 2.235 0 01-1.01 1.745c-.551.321-1.01.061-1.01-.582a2.235 2.235 0 011.01-1.745c.551-.321 1.01-.061 1.01.582" fill="#222"/><path data-name="패스 564111" d="M64.874 74.472a2.235 2.235 0 01-1.01 1.745c-.551.321-1.01.061-1.01-.582a2.235 2.235 0 011.01-1.745c.55-.322 1.01-.061 1.01.582z" fill="none" stroke="#222" stroke-linejoin="round" stroke-width=".459"/><path data-name="패스 564112" d="M65.241 74.762a2.235 2.235 0 01-1.01 1.745c-.551.321-1.01.061-1.01-.582a2.235 2.235 0 011.01-1.745c.551-.321 1.01-.061 1.01.582" fill="#e2e2e2"/><path data-name="패스 564113" d="M65.241 74.762a2.235 2.235 0 01-1.01 1.745c-.551.321-1.01.061-1.01-.582a2.235 2.235 0 011.01-1.745c.566-.306 1.01-.046 1.01.582z" fill="none" stroke="#222" stroke-linejoin="round" stroke-width=".459"/><path data-name="패스 564114" d="M85.631 62.592a2.235 2.235 0 01-1.01 1.745c-.551.321-1.01.061-1.01-.582a2.235 2.235 0 011.01-1.745c.551-.321 1.01-.061 1.01.582" fill="#222"/><path data-name="패스 564115" d="M85.631 62.592a2.235 2.235 0 01-1.01 1.745c-.551.321-1.01.061-1.01-.582a2.235 2.235 0 011.01-1.745c.55-.321 1.01-.06 1.01.582z" fill="none" stroke="#222" stroke-linejoin="round" stroke-width=".459"/><path data-name="패스 564116" d="M85.998 62.883a2.235 2.235 0 01-1.01 1.745c-.551.321-1.01.061-1.01-.582a2.235 2.235 0 011.01-1.745c.551-.321 1.01-.061 1.01.582" fill="#e2e2e2"/><path data-name="패스 564117" d="M85.998 62.883a2.235 2.235 0 01-1.01 1.745c-.551.321-1.01.061-1.01-.582a2.235 2.235 0 011.01-1.745c.566-.321 1.01-.06 1.01.582z" fill="none" stroke="#222" stroke-linejoin="round" stroke-width=".459"/><g data-name="그룹 258054"><g data-name="그룹 258053" clip-path="url(#f)" transform="translate(73.446 31.258)" opacity=".1"><path data-name="패스 564118" d="M1.944 0l6.827 4.317-1.087 1.194L.352 2.603 0 2.327z" fill="#222"/></g></g><path data-name="패스 564119" d="M26.038 68.318a3.154 3.154 0 01-1.439 2.48c-.8.459-1.439.092-1.439-.827a3.154 3.154 0 011.439-2.48c.8-.459 1.439-.092 1.439.827" fill="#fff"/><path data-name="패스 564120" d="M26.038 68.318a3.154 3.154 0 01-1.439 2.48c-.8.459-1.439.092-1.439-.827a3.154 3.154 0 011.439-2.48c.796-.459 1.439-.092 1.439.827z" fill="none" stroke="#222" stroke-linejoin="round" stroke-width=".459"/><path data-name="패스 564121" d="M27.171 68.961a3.154 3.154 0 01-1.439 2.48c-.8.459-1.439.092-1.439-.827a3.154 3.154 0 011.439-2.48c.8-.459 1.439-.092 1.439.827" fill="#fff"/><path data-name="패스 564122" d="M27.171 68.96a3.154 3.154 0 01-1.439 2.48c-.8.459-1.439.092-1.439-.827a3.154 3.154 0 011.439-2.48c.796-.459 1.439-.076 1.439.827z" fill="none" stroke="#222" stroke-linejoin="round" stroke-width=".459"/><path data-name="패스 564123" d="M28.411 69.695a3.154 3.154 0 01-1.439 2.48c-.8.459-1.439.092-1.439-.827a3.154 3.154 0 011.439-2.48c.8-.459 1.439-.092 1.439.827" fill="#fff"/><path data-name="패스 564124" d="M28.411 69.695a3.154 3.154 0 01-1.439 2.48c-.8.459-1.439.092-1.439-.827a3.154 3.154 0 011.439-2.48c.796-.459 1.439-.092 1.439.827z" fill="none" stroke="#222" stroke-linejoin="round" stroke-width=".459"/><path data-name="패스 564125" d="M29.651 70.415v.122l-1.209 1.362-.168.964-.046.031a1.117 1.117 0 01-.873.168.673.673 0 01-.26-.153 1 1 0 01-.291-.643 1.533 1.533 0 01-.016-.178 3.178 3.178 0 011.439-2.48l.184-.092a.9.9 0 01.842 0 1.02 1.02 0 01.4.9" fill="#fff"/><path data-name="패스 564126" d="M29.651 70.415v.122l-1.209 1.362h0l-.168.964-.046.031a1.117 1.117 0 01-.873.168h0a.673.673 0 01-.26-.153h0a1 1 0 01-.291-.643 1.533 1.533 0 01-.016-.178 3.178 3.178 0 011.439-2.48l.184-.092a.9.9 0 01.842 0 .984.984 0 01.398.899z" fill="none" stroke="#222" stroke-linejoin="round" stroke-width=".459"/><path data-name="패스 564127" d="M37.671 73.4l-1.959 3.965-3.153 1.822-1.975-1.7.092-.536.367-2.036.245-1.362 1.5-1.7 1.347-1.5.352-.015 2.465-.061h.015z" fill="#e2e2e2"/><path data-name="패스 564128" d="M37.671 73.4l-1.959 3.965-3.153 1.822-1.975-1.7.092-.536.367-2.036.245-1.362 1.5-1.7 1.347-1.5.352-.015 2.465-.061h.015z" fill="none" stroke="#222" stroke-linejoin="round" stroke-width=".459"/><path data-name="패스 564129" d="M34.136 70.353l-1.347 1.5-1.5 1.7-.168-.092-1.148-.658-1.01-.6-.537-.303 1.209-1.362.49-.551 1.148-1.286z" fill="#fff"/><path data-name="패스 564130" d="M34.136 70.353l-1.347 1.5-1.5 1.7-.168-.092-1.148-.658-1.01-.6-.537-.303 1.209-1.362.49-.551 1.148-1.286z" fill="none" stroke="#222" stroke-linejoin="round" stroke-width=".459"/><path data-name="패스 564131" d="M36.952 70.277l-2.465.061-.352.015-2.863-1.653 2.832-.077z" fill="#fff"/><path data-name="패스 564132" d="M36.952 70.277h0l-2.465.061-.352.015-2.863-1.653 2.832-.077h0z" fill="none" stroke="#222" stroke-linejoin="round" stroke-width=".459"/><path data-name="패스 564133" d="M31.289 73.553l-.245 1.362-.352 2.036-.995.582-1.975-1.7.536-2.97.168-.964.536.306 1.01.6 1.148.658z" fill="#e2e2e2"/><path data-name="패스 564134" d="M31.289 73.553l-.245 1.362-.352 2.036-.995.582-1.975-1.7.536-2.97.168-.964h0l.536.306 1.01.6 1.148.658z" fill="none" stroke="#222" stroke-linejoin="round" stroke-width=".459"/><path data-name="패스 564135" d="M25.64 67.399l.015.015 1.117.643 1.24.719 1.24.7.873.505h0" fill="none" stroke="#222" stroke-linejoin="round" stroke-width=".459"/><path data-name="패스 564136" d="M23.39 70.782h.015l1.163.674 1.271.735 1.286.75.9.505v.015" fill="none" stroke="#222" stroke-linejoin="round" stroke-width=".459"/><g data-name="그룹 258056"><g data-name="그룹 258055" clip-path="url(#g)" transform="translate(23.558 70.874)" opacity=".1"><path data-name="패스 564137" d="M0 0v.015h.015l1.1.628.077.061h.015l1.087.628.2.107 1.01.6.26.153h.015l.689.4" fill="#222"/></g></g><path data-name="패스 564138" d="M32.56 79.186l-2.863-1.653.98-.582-.092.536z" fill="#e2e2e2"/><path data-name="패스 564139" d="M32.56 79.186l-2.863-1.653h0l.98-.582-.092.536z" fill="none" stroke="#222" stroke-linejoin="round" stroke-width=".459"/><path data-name="패스 564140" d="M19.012 8.097l8.362 13.609 4.833-7.35a4.557 4.557 0 013.306-2.327 1.638 1.638 0 01.566.092l11.481 4.194v.367l1.852.674-1.838-1.069h-.015l1.852 1.072 25.426 14.68 7.439-8.266a6.383 6.383 0 017.118-8.633l1.531 1.225-2.847 2.878-.337 3.107.995.9 2.893-.643 2.6-3.184 1.546 1.24a6.383 6.383 0 01-7.807 8.113l-6.429 7.149 3.261 1.9 2.174 1.255.077.046-2.25-1.3v.459l2.174.8v22.941a6.481 6.481 0 01-2.924 5.051L63.082 79.186a2.664 2.664 0 01-1.316.4 1.5 1.5 0 01-.811-.214 1.73 1.73 0 01-.735-1.133 2.189 2.189 0 01-.628.107 1.5 1.5 0 01-.8-.214h-.015L21.538 56.607a2.045 2.045 0 01-.811-1.852V31.809l1.684-2.541-10.196-16.612 6.8-4.562m0-.842a.842.842 0 00-.475.138l-6.8 4.577a.842.842 0 00-.245 1.133l9.9 16.134-1.378 2.1-.046.092a.857.857 0 00-.092.383v22.947a2.926 2.926 0 001.087 2.5l.138.107 37.259 21.492.2.077a2.357 2.357 0 001.026.23h.077a2.3 2.3 0 002.082 1.255 3.475 3.475 0 001.73-.52l20.971-12.108a7.26 7.26 0 003.352-5.771V39.493a.842.842 0 00-.337-1.1l-.077-.046-2.143-1.24h-.031l-2.373-1.362 5.4-6a7.225 7.225 0 008.343-9.353.842.842 0 00-.276-.4l-1.546-1.24a.842.842 0 00-1.179.122l-2.408 2.954-2.189.49-.352-.321.276-2.373 2.633-2.648a.842.842 0 00.2-.873.842.842 0 00-.276-.383l-1.531-1.225a.842.842 0 00-.459-.184 7.225 7.225 0 00-8.159 9.307l-6.643 7.379-24.863-14.341h-.015L47.959 15.6a.842.842 0 00-.306-.107l-11.298-4.137a2.48 2.48 0 00-.857-.153 5.315 5.315 0 00-4.011 2.709l-4.1 6.245-7.656-12.488a.842.842 0 00-.536-.383h-.184" fill="#222"/><path data-name="패스 564141" d="M74.992 34.794l-2.694-1.209.918.077 13.272 4.378.49.612z" fill="#222"/><path data-name="패스 564142" d="M37.534 13.241l-2.694-1.209.9.077 13.272 4.378.49.612z" fill="#222"/><path data-name="선 77540" fill="none" stroke="#222" stroke-linejoin="round" stroke-width=".765" d="M20.726 31.809l39.585 22.854"/><path data-name="패스 564143" d="M21.89 29.222l-1.5 2.556 5.281 2.8-3.551-5.494z" fill="#333"/><path data-name="패스 564144" d="M21.89 29.222l-1.5 2.556 5.281 2.8-3.551-5.494z" fill="none" stroke="#333" stroke-miterlimit="10" stroke-width=".153"/><path data-name="선 77541" fill="none" stroke="#222" stroke-linejoin="round" stroke-width=".459" d="M28.426 71.9l-.168-.092"/><g data-name="그룹 258058"><g data-name="그룹 258057" clip-path="url(#h)" transform="translate(23.114 69.389)" opacity=".1"><path data-name="패스 564145" d="M5.236 2.97L.136 0a2.195 2.195 0 000 1.485c.306.674 5.021 2.832 5.021 2.832z" fill="#222"/></g></g><path data-name="패스 564146" d="M44.974 64.016c0 .674-.306 1.072-.735 1.072a.98.98 0 01-.49-.153l-10.638-6.137a2.9 2.9 0 01-1.225-2.327 1.913 1.913 0 01.031-.367c.092-.444.352-.7.7-.7a.98.98 0 01.49.153l10.639 6.138a2.879 2.879 0 011.194 1.929 2.618 2.618 0 01.031.4" fill="#fff"/><path data-name="패스 564147" d="M44.974 64.016c0 .674-.306 1.072-.735 1.072a.98.98 0 01-.49-.153l-10.638-6.137a2.9 2.9 0 01-1.225-2.327 1.913 1.913 0 01.031-.367c.092-.444.352-.7.7-.7a.98.98 0 01.49.153l10.639 6.138a2.879 2.879 0 011.194 1.929 2.618 2.618 0 01.034.392z" fill="none" stroke="#222" stroke-linejoin="round" stroke-width=".459"/><path data-name="패스 564148" d="M44.943 63.603c-.092.444-.352.7-.7.7a.979.979 0 01-.49-.153l-10.639-6.138a2.864 2.864 0 01-1.182-1.929c.092-.444.352-.7.7-.7a.98.98 0 01.49.153l10.639 6.138a2.88 2.88 0 011.194 1.929" fill="#c9c9c9"/><path data-name="패스 564149" d="M44.943 63.603c-.092.444-.352.7-.7.7a.979.979 0 01-.49-.153l-10.639-6.138a2.864 2.864 0 01-1.182-1.929c.092-.444.352-.7.7-.7a.98.98 0 01.49.153l10.639 6.138a2.957 2.957 0 011.182 1.929z" fill="none" stroke="#222" stroke-linejoin="round" stroke-width=".459"/><path data-name="패스 564150" d="M21.675 56.776l1.194-.383L57.74 76.614l.52 1.791z" fill="#222"/><path data-name="패스 564151" d="M25.257 67.292a.735.735 0 01.4.107l2.786 1.607-.429-.245-1.24-.719-1.117-.643h-.015a.873.873 0 01.367.612 1.1 1.1 0 01.367-.061c.429 0 .719.306.781.827a1.163 1.163 0 01.459-.107c.413 0 .719.291.781.827a1.163 1.163 0 01.459-.107.735.735 0 01.4.107 1.02 1.02 0 01.4.9v.122l.475-.536-1.684-.98.827.475.873.505 1.148-1.3 2.847-.077 2.847 1.638h.015l.7 3.123-1.959 3.965-3.153 1.822-2.893-1.623-1.959-1.7.4-2.189c-.781-.367 0 0-4.868-2.771a2.206 2.206 0 010-1.485 3.243 3.243 0 011.362-1.9 1.3 1.3 0 01.643-.2m0-.306a1.592 1.592 0 00-.8.245 3.513 3.513 0 00-1.5 2.1 2.786 2.786 0 00-.122.52 2.082 2.082 0 00.138 1.163.306.306 0 00.122.138c2.434 1.378 3.46 1.99 3.965 2.281a8.118 8.118 0 00.719.4l-.367 1.944a.306.306 0 00.107.291l1.944 1.684.061.046 2.863 1.653.153.046.153-.046 3.153-1.822a.306.306 0 00.122-.122l1.959-3.965a.306.306 0 00.031-.2l-.7-3.123a.306.306 0 00-.153-.2l-2.832-1.638a.306.306 0 00-.168-.061l-2.832.077a.306.306 0 00-.214.107l-.98 1.1-.643-.383-.827-.475-2.786-1.607a1.041 1.041 0 00-.551-.153" fill="#222"/><path data-name="패스 564152" d="M79.002 56.763v-1.531l-1.072.628a2.051 2.051 0 00-.383-.842l.765-1.316-.949-.536-.765 1.316a2.082 2.082 0 00-.934.092v-1.24l-1.332.765v1.24a6.261 6.261 0 00-.934.98l-.765-.429-.949 1.623.765.429a6.2 6.2 0 00-.383 1.286l-1.072.628v1.531l1.072-.628a2.051 2.051 0 00.383.842l-.765 1.316.949.536.765-1.316a2.1 2.1 0 00.934-.092v1.24l1.332-.765v-1.24a6.246 6.246 0 00.934-.98l.765.429.949-1.623-.765-.429a6.2 6.2 0 00.383-1.286zm-4 3.077c-.735.429-1.332.092-1.332-.765a2.9 2.9 0 011.332-2.3c.735-.413 1.332-.092 1.332.765a2.9 2.9 0 01-1.332 2.3" fill="#fff"/><path data-name="패스 564153" d="M76.599 40.658a4.8 4.8 0 01-2.174 3.75c-1.194.689-2.174.138-2.174-1.24a4.8 4.8 0 012.174-3.75c1.194-.689 2.174-.138 2.174 1.24" fill="#fff"/><path data-name="패스 564154" d="M76.599 40.658a4.8 4.8 0 01-2.174 3.75c-1.194.689-2.174.138-2.174-1.24a4.8 4.8 0 012.174-3.75c1.195-.69 2.174-.139 2.174 1.24z" fill="none" stroke="#222" stroke-linejoin="round" stroke-width=".459"/><path data-name="패스 564155" d="M77.425 41.301a4.8 4.8 0 01-2.174 3.75c-1.194.689-2.174.138-2.174-1.24a4.8 4.8 0 012.174-3.75c1.194-.689 2.174-.138 2.174 1.24" fill="#3673ee"/><path data-name="패스 564156" d="M77.425 41.301a4.8 4.8 0 01-2.174 3.75c-1.194.689-2.174.138-2.174-1.24a4.8 4.8 0 012.174-3.75c1.195-.69 2.174-.139 2.174 1.24z" fill="none" stroke="#222" stroke-linejoin="round" stroke-width=".459"/><path data-name="선 77542" fill="#fff" d="M60.159 72.65l26.895-15.522"/><path data-name="선 77543" fill="none" stroke="#222" stroke-linejoin="round" stroke-width=".459" d="M60.159 72.65l26.895-15.522"/><path data-name="패스 564157" d="M61.659 47.607l-1.087-3.6 2.174-3.475-1.774-2.707 5.327 2.847z" fill="#333"/><path data-name="패스 564158" d="M61.659 47.607l-1.087-3.6 2.174-3.475-1.774-2.707 5.327 2.847z" fill="none" stroke="#333" stroke-miterlimit="10" stroke-width=".153"/><path data-name="패스 564159" d="M54.112 33.738l.4 2.893.9.719 3.4-.811z" fill="#333"/><path data-name="패스 564160" d="M54.112 33.738l.4 2.893.9.719 3.4-.811z" fill="none" stroke="#333" stroke-miterlimit="10" stroke-width=".153"/><path data-name="패스 564161" d="M46.076 46.443a5.8 5.8 0 011.531-3.674 8.438 8.438 0 014.73 7.256z" fill="#333"/><path data-name="패스 564162" d="M46.076 46.443a5.8 5.8 0 011.531-3.674 8.438 8.438 0 014.73 7.256z" fill="none" stroke="#333" stroke-miterlimit="10" stroke-width=".153"/><path data-name="패스 564163" d="M81.252 36.631l1.163-1.286 1.607 2.143z" fill="#222"/><path data-name="패스 564164" d="M23.252 69.389a2.195 2.195 0 000 1.485l4.868 2.771" fill="none" stroke="#222" stroke-linejoin="round" stroke-width=".306"/></g></g></g></svg>