<svg xmlns="http://www.w3.org/2000/svg" width="28" height="28"><defs><clipPath id="a"><path fill="none" d="M0 0h28v28H0z"/></clipPath><style>.f{fill:none}.b{clip-path:url(#a)}.f{stroke:#111;stroke-width:1.5px;stroke-miterlimit:10}</style></defs><g class="b"><g class="b"><path d="M15.2 12.5a.5.5 0 01.3.5v5.7a3.1 3.1 0 01-3.7 3.1 3.2 3.2 0 01-2.5-3.2V13a.5.5 0 01.3-.5 5.7 5.7 0 015.7 0" fill="#56c6e4"/><path class="f" d="M11 11V6a5.3 5.3 0 0110.5 0v18.8"/><path class="f" d="M17 27.3H5v-10a6 6 0 1112 0z"/><path class="f" d="M5.5 21.3h-3a1 1 0 00-1 1v4a1 1 0 001 1h3M17.5 24.3h8a1 1 0 011 1v2h-9"/><path d="M14.3 12.5v5.9a3.3 3.3 0 01-3.9 3.2 3.4 3.4 0 01-2.6-3.3v-3" stroke-linecap="round" stroke-linejoin="round" stroke="#111" stroke-width="1.5" fill="none"/></g></g></svg>