<svg xmlns="http://www.w3.org/2000/svg" width="16" height="16" viewBox="0 0 16 16"><defs><style>.a,.d{fill:none;}.a{stroke:#999;}.b{fill:#999;}.c{stroke:none;}</style></defs><g transform="translate(-164 -244)"><g class="a" transform="translate(164 244)"><circle class="c" cx="8" cy="8" r="8"/><circle class="d" cx="8" cy="8" r="7.5"/></g><path class="b" d="M10.936,13.221H9.762V12.047h1.174ZM12.152,8.67l-.529.54a2,2,0,0,0-.687,1.662H9.762v-.294a2.364,2.364,0,0,1,.687-1.662l.728-.74a1.148,1.148,0,0,0,.346-.828,1.174,1.174,0,1,0-2.349,0H8a2.349,2.349,0,1,1,4.7,0A1.869,1.869,0,0,1,12.152,8.67Z" transform="translate(161.7 242.7)"/></g></svg>