<svg xmlns="http://www.w3.org/2000/svg" xmlns:xlink="http://www.w3.org/1999/xlink" width="38" height="38" viewBox="0 0 38 38">
  <defs>
    <clipPath id="clip-path">
      <rect id="사각형_291597" data-name="사각형 291597" width="24" height="24" fill="none"/>
    </clipPath>
  </defs>
  <g id="그룹_372272" data-name="그룹 372272" transform="translate(20030 2193)">
    <g id="타원_9104" data-name="타원 9104" transform="translate(-20030 -2193)" fill="#3673ee" stroke="#3167d6" stroke-width="1">
      <circle cx="19" cy="19" r="19" stroke="none"/>
      <circle cx="19" cy="19" r="18.5" fill="none"/>
    </g>
    <g id="icon_detailing_w_24" transform="translate(-20011 -2174)">
      <g id="그룹_380951" data-name="그룹 380951" transform="translate(-12 -12)" clip-path="url(#clip-path)">
        <path id="패스_770999" data-name="패스 770999" d="M22.4,16.5a3.3,3.3,0,0,1-5.7,2.1.5.5,0,0,0-.7-.1,8.3,8.3,0,1,1,3.9-6.9,8.2,8.2,0,0,1-.3,1.9A3.2,3.2,0,0,1,22.4,16.5Z" fill="none" stroke="#fff" stroke-width="1.5"/>
        <path id="패스_771000" data-name="패스 771000" d="M16.2,15.3a3.3,3.3,0,0,1,3-2.1h.3" fill="none" stroke="#fff" stroke-width="1.5"/>
        <path id="패스_771001" data-name="패스 771001" d="M7.7,8.2a3.3,3.3,0,0,1,2.7-1.5" fill="none" stroke="#fff" stroke-linecap="round" stroke-width="1.5"/>
        <path id="패스_771002" data-name="패스 771002" d="M7.1,9.3l.6-1" fill="none" stroke="#fff" stroke-width="1.5"/>
      </g>
    </g>
  </g>
</svg>
