<svg xmlns="http://www.w3.org/2000/svg" xmlns:xlink="http://www.w3.org/1999/xlink" width="20" height="20" viewBox="0 0 20 20">
  <defs>
    <clipPath id="clip-path">
      <rect id="사각형_299948" data-name="사각형 299948" width="20" height="20" fill="none"/>
    </clipPath>
  </defs>
  <g id="icon_close_bg_20" transform="translate(10 10) rotate(90)">
    <g id="그룹_390434" data-name="그룹 390434" transform="translate(-10 -10)" clip-path="url(#clip-path)">
      <g id="그룹_390428" data-name="그룹 390428" clip-path="url(#clip-path)">
        <g id="그룹_390427" data-name="그룹 390427" opacity="0">
          <g id="그룹_390426" data-name="그룹 390426" clip-path="url(#clip-path)">
            <rect id="사각형_299940" data-name="사각형 299940" width="20" height="20" fill="#f0f"/>
          </g>
        </g>
      </g>
      <g id="그룹_390433" data-name="그룹 390433" clip-path="url(#clip-path)">
        <path id="패스_781653" data-name="패스 781653" d="M19.1,10.8a7.9,7.9,0,1,1-7.9-7.9,7.9,7.9,0,0,1,7.9,7.9" fill="#fff"/>
        <g id="그룹_390430" data-name="그룹 390430" opacity="0">
          <g id="그룹_390429" data-name="그룹 390429" clip-path="url(#clip-path)">
            <rect id="사각형_299943" data-name="사각형 299943" width="20" height="20" fill="#f0f"/>
          </g>
        </g>
        <g id="그룹_390432" data-name="그룹 390432" opacity="0">
          <g id="그룹_390431" data-name="그룹 390431" clip-path="url(#clip-path)">
            <rect id="사각형_299945" data-name="사각형 299945" width="20" height="20" fill="#f0f"/>
          </g>
        </g>
        <path id="패스_781654" data-name="패스 781654" d="M8.8,16.9a7.2,7.2,0,0,0,5-13.2L4.7,15.9" fill="none" stroke="#111" stroke-linecap="round" stroke-linejoin="round" stroke-width="1.5"/>
        <path id="패스_781655" data-name="패스 781655" d="M3.7,14.2A7.1,7.1,0,0,1,9.4,2.8" fill="none" stroke="#111" stroke-width="1.5"/>
        <path id="패스_781656" data-name="패스 781656" d="M9.1,3.7l.7-.8L7.6.8" fill="none" stroke="#111" stroke-linecap="round" stroke-miterlimit="10" stroke-width="1.5"/>
        <line id="선_114691" data-name="선 114691" y1="1.2" x2="1.3" transform="translate(7.8 3.7)" fill="none" stroke="#111" stroke-linecap="square" stroke-miterlimit="10" stroke-width="1.5"/>
        <path id="패스_781657" data-name="패스 781657" d="M9.2,17.6l-.7-.7,2.2-2.1" fill="none" stroke="#111" stroke-linecap="round" stroke-miterlimit="10" stroke-width="1.5"/>
        <line id="선_114692" data-name="선 114692" x1="1.3" y1="1.3" transform="translate(9.2 17.6)" fill="none" stroke="#111" stroke-linecap="square" stroke-miterlimit="10" stroke-width="1.5"/>
      </g>
    </g>
  </g>
</svg>
