<svg xmlns="http://www.w3.org/2000/svg" width="28" height="28"><defs><clipPath id="a"><path fill="none" d="M0 0h28v28H0z"/></clipPath><style>.g{fill:none}.b{clip-path:url(#a)}.g{stroke:#111;stroke-linecap:round;stroke-miterlimit:10}</style></defs><g class="b"><path d="M14 0A14 14 0 110 14 14 14 0 0114 0" fill="#fddb2b"/><circle cx="13.5" cy="13.5" r="13.5" transform="translate(.5 .5)" stroke="#fccb3a" fill="none"/></g><g class="b"><path d="M18.5 20.3h-5.7a.4.4 0 01-.4-.3l-1.3-6.8a.4.4 0 01.4-.5h8.4a.4.4 0 01.3.4L18.9 20a.4.4 0 01-.3.3" fill="#fff"/><path d="M15.2 14.2s-1.3 4.1-4.7 3c0 0-2.5-.8-.2-3.8l-.3-1.5h8.8l-1.5 7.6h-5.8l-.5-2.2" stroke-linejoin="round" stroke-linecap="round" stroke="#111" fill="none"/><path class="g" d="M14.9 14H16"/><path stroke-miterlimit="10" stroke="#111" fill="none" d="M14 14h1"/><path class="g" d="M13 9.7a3 3 0 013.3-1.5 2.8 2.8 0 012.1 1.9M10.4 10a2.2 2.2 0 012.9-1"/></g></svg>