<svg xmlns="http://www.w3.org/2000/svg" width="30" height="30"><defs><style>.b{fill:#111}</style></defs><g fill="#fff"><path d="M15 29.25a14.157 14.157 0 01-10.076-4.174A14.157 14.157 0 01.75 15c0-3.806 1.482-7.385 4.174-10.076A14.157 14.157 0 0115 .75c3.806 0 7.385 1.482 10.076 4.174A14.157 14.157 0 0129.25 15c0 3.806-1.482 7.385-4.174 10.076A14.157 14.157 0 0115 29.25z"/><path d="M15 1.5a13.412 13.412 0 00-9.546 3.954A13.412 13.412 0 001.5 15c0 3.606 1.404 6.996 3.954 9.546A13.412 13.412 0 0015 28.5c3.606 0 6.996-1.404 9.546-3.954A13.412 13.412 0 0028.5 15c0-3.606-1.404-6.996-3.954-9.546A13.412 13.412 0 0015 1.5M15 0c8.284 0 15 6.716 15 15 0 8.284-6.716 15-15 15-8.284 0-15-6.716-15-15C0 6.716 6.716 0 15 0z" fill="#111"/></g><path class="b" d="M9.5 14.5h11V16h-11z"/><path class="b" d="M16 9.5v11h-1.5v-11z"/></svg>