<svg xmlns="http://www.w3.org/2000/svg" xmlns:xlink="http://www.w3.org/1999/xlink" width="27" height="27" viewBox="0 0 27 27">
  <defs>
    <clipPath id="clip-path">
      <rect id="사각형_292056" data-name="사각형 292056" width="27" height="27" fill="none"/>
    </clipPath>
  </defs>
  <g id="icon_detailing_27" transform="translate(13.5 13.5)">
    <g id="그룹_381423" data-name="그룹 381423" transform="translate(-13.5 -13.5)" clip-path="url(#clip-path)">
      <g id="그룹_381422" data-name="그룹 381422" clip-path="url(#clip-path)">
        <g id="그룹_381421" data-name="그룹 381421" opacity="0">
          <g id="그룹_381420" data-name="그룹 381420" clip-path="url(#clip-path)">
            <rect id="사각형_292053" data-name="사각형 292053" width="27" height="27" fill="#f0f"/>
          </g>
        </g>
        <path id="패스_775039" data-name="패스 775039" d="M24.8,19.1a3.9,3.9,0,0,1-6.9,2.4.6.6,0,0,0-.8-.1A9.9,9.9,0,0,1,10.7,23a10,10,0,1,1,11-10,9.9,9.9,0,0,1-.3,2.3A3.9,3.9,0,0,1,24.8,19.1Z" fill="none" stroke="#111" stroke-linejoin="round" stroke-width="1.5"/>
        <path id="패스_775040" data-name="패스 775040" d="M17.3,17.7A3.9,3.9,0,0,1,21,15.2h.3" fill="none" stroke="#111" stroke-linejoin="round" stroke-width="1.5"/>
        <path id="패스_775041" data-name="패스 775041" d="M6.8,8.3a4,4,0,0,1,3.4-1.9" fill="none" stroke="#111" stroke-linecap="round" stroke-linejoin="round" stroke-width="1.5"/>
        <path id="패스_775042" data-name="패스 775042" d="M6.1,9.6a6.2,6.2,0,0,1,.7-1.3" fill="none" stroke="#111" stroke-linejoin="round" stroke-width="1.5"/>
        <path id="패스_775043" data-name="패스 775043" d="M25.7,5a2,2,0,1,1-2-2A2,2,0,0,1,25.7,5Z" fill="none" stroke="#111" stroke-width="1.5"/>
      </g>
    </g>
  </g>
</svg>
