<svg xmlns="http://www.w3.org/2000/svg" width="170" height="70" viewBox="0 0 170 70">
  <g id="그룹_310267" data-name="그룹 310267" transform="translate(18237 5540)">
    <g id="그룹_310211" data-name="그룹 310211" transform="translate(-18340 -5769)">
      <g id="Icon_30_Star" transform="translate(103 269)">
        <rect id="사각형_71412" data-name="사각형 71412" width="30" height="30" fill="#f0f" opacity="0"/>
        <rect id="사각형_71413" data-name="사각형 71413" width="30" height="30" fill="none"/>
        <rect id="사각형_71414" data-name="사각형 71414" width="30" height="30" fill="none"/>
        <g id="패스_262785" data-name="패스 262785" transform="translate(0.498 0.498)" fill="none">
          <path d="M10.768,10.4H.5l8.215,7.468L5.541,28.5,14.5,21.784,24.024,28.5,20.85,17.863,28.5,10.4h-9.9L14.5.5Z" stroke="none"/>
          <path d="M 14.61305522918701 7.287654876708984 L 13.10740089416504 11.27764129638672 L 12.4970817565918 12.89500045776367 L 10.76840209960938 12.89500045776367 L 6.966514587402344 12.89500045776367 L 10.39640045166016 16.01308059692383 L 11.55981063842773 17.07073211669922 L 11.11044120788574 18.57744216918945 L 10.10193061828613 21.95891189575195 L 13.00236129760742 19.78359222412109 L 14.4577808380127 18.69203186035156 L 15.94407176971436 19.74117088317871 L 19.56342887878418 22.2960090637207 L 18.45438003540039 18.57744216918945 L 18.02239227294922 17.12899017333984 L 19.10429000854492 16.07348251342773 L 22.36223030090332 12.89500045776367 L 18.60972213745117 12.89500045776367 L 16.94063186645508 12.89500045776367 L 16.30074119567871 11.35344123840332 L 14.61305522918701 7.287654876708984 M 14.50236129760742 0.5000019073486328 L 18.60972213745117 10.39500045776367 L 28.50472068786621 10.39500045776367 L 20.85010147094727 17.86293029785156 L 24.02397155761719 28.50472068786621 L 14.50236129760742 21.78359222412109 L 5.540851593017578 28.50472068786621 L 8.7147216796875 17.86293029785156 L 0.5000019073486328 10.39500045776367 L 10.76840209960938 10.39500045776367 L 14.50236129760742 0.5000019073486328 Z" stroke="none" fill="#111"/>
        </g>
        <rect id="사각형_71415" data-name="사각형 71415" width="30" height="30" fill="none"/>
      </g>
      <g id="Icon_30_Star-2" data-name="Icon_30_Star" transform="translate(138 269)">
        <rect id="사각형_71412-2" data-name="사각형 71412" width="30" height="30" fill="#f0f" opacity="0"/>
        <rect id="사각형_71413-2" data-name="사각형 71413" width="30" height="30" fill="none"/>
        <rect id="사각형_71414-2" data-name="사각형 71414" width="30" height="30" fill="none"/>
        <g id="패스_262785-2" data-name="패스 262785" transform="translate(0.498 0.498)" fill="none">
          <path d="M10.768,10.4H.5l8.215,7.468L5.541,28.5,14.5,21.784,24.024,28.5,20.85,17.863,28.5,10.4h-9.9L14.5.5Z" stroke="none"/>
          <path d="M 14.61305522918701 7.287654876708984 L 13.10740089416504 11.27764129638672 L 12.4970817565918 12.89500045776367 L 10.76840209960938 12.89500045776367 L 6.966514587402344 12.89500045776367 L 10.39640045166016 16.01308059692383 L 11.55981063842773 17.07073211669922 L 11.11044120788574 18.57744216918945 L 10.10193061828613 21.95891189575195 L 13.00236129760742 19.78359222412109 L 14.4577808380127 18.69203186035156 L 15.94407176971436 19.74117088317871 L 19.56342887878418 22.2960090637207 L 18.45438003540039 18.57744216918945 L 18.02239227294922 17.12899017333984 L 19.10429000854492 16.07348251342773 L 22.36223030090332 12.89500045776367 L 18.60972213745117 12.89500045776367 L 16.94063186645508 12.89500045776367 L 16.30074119567871 11.35344123840332 L 14.61305522918701 7.287654876708984 M 14.50236129760742 0.5000019073486328 L 18.60972213745117 10.39500045776367 L 28.50472068786621 10.39500045776367 L 20.85010147094727 17.86293029785156 L 24.02397155761719 28.50472068786621 L 14.50236129760742 21.78359222412109 L 5.540851593017578 28.50472068786621 L 8.7147216796875 17.86293029785156 L 0.5000019073486328 10.39500045776367 L 10.76840209960938 10.39500045776367 L 14.50236129760742 0.5000019073486328 Z" stroke="none" fill="#111"/>
        </g>
        <rect id="사각형_71415-2" data-name="사각형 71415" width="30" height="30" fill="none"/>
      </g>
      <g id="Icon_30_Star-3" data-name="Icon_30_Star" transform="translate(173 269)">
        <rect id="사각형_71412-3" data-name="사각형 71412" width="30" height="30" fill="#f0f" opacity="0"/>
        <rect id="사각형_71413-3" data-name="사각형 71413" width="30" height="30" fill="none"/>
        <rect id="사각형_71414-3" data-name="사각형 71414" width="30" height="30" fill="none"/>
        <g id="패스_262785-3" data-name="패스 262785" transform="translate(0.498 0.498)" fill="none">
          <path d="M10.768,10.4H.5l8.215,7.468L5.541,28.5,14.5,21.784,24.024,28.5,20.85,17.863,28.5,10.4h-9.9L14.5.5Z" stroke="none"/>
          <path d="M 14.61305522918701 7.287654876708984 L 13.10740089416504 11.27764129638672 L 12.4970817565918 12.89500045776367 L 10.76840209960938 12.89500045776367 L 6.966514587402344 12.89500045776367 L 10.39640045166016 16.01308059692383 L 11.55981063842773 17.07073211669922 L 11.11044120788574 18.57744216918945 L 10.10193061828613 21.95891189575195 L 13.00236129760742 19.78359222412109 L 14.4577808380127 18.69203186035156 L 15.94407176971436 19.74117088317871 L 19.56342887878418 22.2960090637207 L 18.45438003540039 18.57744216918945 L 18.02239227294922 17.12899017333984 L 19.10429000854492 16.07348251342773 L 22.36223030090332 12.89500045776367 L 18.60972213745117 12.89500045776367 L 16.94063186645508 12.89500045776367 L 16.30074119567871 11.35344123840332 L 14.61305522918701 7.287654876708984 M 14.50236129760742 0.5000019073486328 L 18.60972213745117 10.39500045776367 L 28.50472068786621 10.39500045776367 L 20.85010147094727 17.86293029785156 L 24.02397155761719 28.50472068786621 L 14.50236129760742 21.78359222412109 L 5.540851593017578 28.50472068786621 L 8.7147216796875 17.86293029785156 L 0.5000019073486328 10.39500045776367 L 10.76840209960938 10.39500045776367 L 14.50236129760742 0.5000019073486328 Z" stroke="none" fill="#111"/>
        </g>
        <rect id="사각형_71415-3" data-name="사각형 71415" width="30" height="30" fill="none"/>
      </g>
      <g id="Icon_30_Star-4" data-name="Icon_30_Star" transform="translate(208 269)">
        <rect id="사각형_71412-4" data-name="사각형 71412" width="30" height="30" fill="#f0f" opacity="0"/>
        <rect id="사각형_71413-4" data-name="사각형 71413" width="30" height="30" fill="none"/>
        <rect id="사각형_71414-4" data-name="사각형 71414" width="30" height="30" fill="none"/>
        <g id="패스_262785-4" data-name="패스 262785" transform="translate(0.498 0.498)" fill="none">
          <path d="M10.768,10.4H.5l8.215,7.468L5.541,28.5,14.5,21.784,24.024,28.5,20.85,17.863,28.5,10.4h-9.9L14.5.5Z" stroke="none"/>
          <path d="M 14.61305522918701 7.287654876708984 L 13.10740089416504 11.27764129638672 L 12.4970817565918 12.89500045776367 L 10.76840209960938 12.89500045776367 L 6.966514587402344 12.89500045776367 L 10.39640045166016 16.01308059692383 L 11.55981063842773 17.07073211669922 L 11.11044120788574 18.57744216918945 L 10.10193061828613 21.95891189575195 L 13.00236129760742 19.78359222412109 L 14.4577808380127 18.69203186035156 L 15.94407176971436 19.74117088317871 L 19.56342887878418 22.2960090637207 L 18.45438003540039 18.57744216918945 L 18.02239227294922 17.12899017333984 L 19.10429000854492 16.07348251342773 L 22.36223030090332 12.89500045776367 L 18.60972213745117 12.89500045776367 L 16.94063186645508 12.89500045776367 L 16.30074119567871 11.35344123840332 L 14.61305522918701 7.287654876708984 M 14.50236129760742 0.5000019073486328 L 18.60972213745117 10.39500045776367 L 28.50472068786621 10.39500045776367 L 20.85010147094727 17.86293029785156 L 24.02397155761719 28.50472068786621 L 14.50236129760742 21.78359222412109 L 5.540851593017578 28.50472068786621 L 8.7147216796875 17.86293029785156 L 0.5000019073486328 10.39500045776367 L 10.76840209960938 10.39500045776367 L 14.50236129760742 0.5000019073486328 Z" stroke="none" fill="#111"/>
        </g>
        <rect id="사각형_71415-4" data-name="사각형 71415" width="30" height="30" fill="none"/>
      </g>
      <g id="Icon_30_Star-5" data-name="Icon_30_Star" transform="translate(243 269)">
        <rect id="사각형_71412-5" data-name="사각형 71412" width="30" height="30" fill="#f0f" opacity="0"/>
        <rect id="사각형_71413-5" data-name="사각형 71413" width="30" height="30" fill="none"/>
        <rect id="사각형_71414-5" data-name="사각형 71414" width="30" height="30" fill="none"/>
        <g id="패스_262785-5" data-name="패스 262785" transform="translate(0.498 0.498)" fill="none">
          <path d="M10.768,10.4H.5l8.215,7.468L5.541,28.5,14.5,21.784,24.024,28.5,20.85,17.863,28.5,10.4h-9.9L14.5.5Z" stroke="none"/>
          <path d="M 14.61305522918701 7.287654876708984 L 13.10740089416504 11.27764129638672 L 12.4970817565918 12.89500045776367 L 10.76840209960938 12.89500045776367 L 6.966514587402344 12.89500045776367 L 10.39640045166016 16.01308059692383 L 11.55981063842773 17.07073211669922 L 11.11044120788574 18.57744216918945 L 10.10193061828613 21.95891189575195 L 13.00236129760742 19.78359222412109 L 14.4577808380127 18.69203186035156 L 15.94407176971436 19.74117088317871 L 19.56342887878418 22.2960090637207 L 18.45438003540039 18.57744216918945 L 18.02239227294922 17.12899017333984 L 19.10429000854492 16.07348251342773 L 22.36223030090332 12.89500045776367 L 18.60972213745117 12.89500045776367 L 16.94063186645508 12.89500045776367 L 16.30074119567871 11.35344123840332 L 14.61305522918701 7.287654876708984 M 14.50236129760742 0.5000019073486328 L 18.60972213745117 10.39500045776367 L 28.50472068786621 10.39500045776367 L 20.85010147094727 17.86293029785156 L 24.02397155761719 28.50472068786621 L 14.50236129760742 21.78359222412109 L 5.540851593017578 28.50472068786621 L 8.7147216796875 17.86293029785156 L 0.5000019073486328 10.39500045776367 L 10.76840209960938 10.39500045776367 L 14.50236129760742 0.5000019073486328 Z" stroke="none" fill="#111"/>
        </g>
        <rect id="사각형_71415-5" data-name="사각형 71415" width="30" height="30" fill="none"/>
      </g>
    </g>
    <g id="그룹_310266" data-name="그룹 310266" transform="translate(-18340 -5809)">
      <g id="Icon_30_Star-6" data-name="Icon_30_Star" transform="translate(103 269)">
        <rect id="사각형_71412-6" data-name="사각형 71412" width="30" height="30" fill="#f0f" opacity="0"/>
        <rect id="사각형_71413-6" data-name="사각형 71413" width="30" height="30" fill="none"/>
        <rect id="사각형_71414-6" data-name="사각형 71414" width="30" height="30" fill="none"/>
        <path id="패스_262785-6" data-name="패스 262785" d="M10.768,10.4H.5l8.215,7.468L5.541,28.5,14.5,21.784,24.024,28.5,20.85,17.863,28.5,10.4h-9.9L14.5.5Z" transform="translate(0.498 0.498)" fill="#111"/>
        <rect id="사각형_71415-6" data-name="사각형 71415" width="30" height="30" fill="none"/>
      </g>
      <g id="Icon_30_Star-7" data-name="Icon_30_Star" transform="translate(138 269)">
        <rect id="사각형_71412-7" data-name="사각형 71412" width="30" height="30" fill="#f0f" opacity="0"/>
        <rect id="사각형_71413-7" data-name="사각형 71413" width="30" height="30" fill="none"/>
        <rect id="사각형_71414-7" data-name="사각형 71414" width="30" height="30" fill="none"/>
        <path id="패스_262785-7" data-name="패스 262785" d="M10.768,10.4H.5l8.215,7.468L5.541,28.5,14.5,21.784,24.024,28.5,20.85,17.863,28.5,10.4h-9.9L14.5.5Z" transform="translate(0.498 0.498)" fill="#111"/>
        <rect id="사각형_71415-7" data-name="사각형 71415" width="30" height="30" fill="none"/>
      </g>
      <g id="Icon_30_Star-8" data-name="Icon_30_Star" transform="translate(173 269)">
        <rect id="사각형_71412-8" data-name="사각형 71412" width="30" height="30" fill="#f0f" opacity="0"/>
        <rect id="사각형_71413-8" data-name="사각형 71413" width="30" height="30" fill="none"/>
        <rect id="사각형_71414-8" data-name="사각형 71414" width="30" height="30" fill="none"/>
        <path id="패스_262785-8" data-name="패스 262785" d="M10.768,10.4H.5l8.215,7.468L5.541,28.5,14.5,21.784,24.024,28.5,20.85,17.863,28.5,10.4h-9.9L14.5.5Z" transform="translate(0.498 0.498)" fill="#111"/>
        <rect id="사각형_71415-8" data-name="사각형 71415" width="30" height="30" fill="none"/>
      </g>
      <g id="Icon_30_Star-9" data-name="Icon_30_Star" transform="translate(208 269)">
        <rect id="사각형_71412-9" data-name="사각형 71412" width="30" height="30" fill="#f0f" opacity="0"/>
        <rect id="사각형_71413-9" data-name="사각형 71413" width="30" height="30" fill="none"/>
        <rect id="사각형_71414-9" data-name="사각형 71414" width="30" height="30" fill="none"/>
        <path id="패스_262785-9" data-name="패스 262785" d="M10.768,10.4H.5l8.215,7.468L5.541,28.5,14.5,21.784,24.024,28.5,20.85,17.863,28.5,10.4h-9.9L14.5.5Z" transform="translate(0.498 0.498)" fill="#111"/>
        <rect id="사각형_71415-9" data-name="사각형 71415" width="30" height="30" fill="none"/>
      </g>
      <g id="Icon_30_Star-10" data-name="Icon_30_Star" transform="translate(243 269)">
        <rect id="사각형_71412-10" data-name="사각형 71412" width="30" height="30" fill="#f0f" opacity="0"/>
        <rect id="사각형_71413-10" data-name="사각형 71413" width="30" height="30" fill="none"/>
        <rect id="사각형_71414-10" data-name="사각형 71414" width="30" height="30" fill="none"/>
        <path id="패스_262785-10" data-name="패스 262785" d="M10.768,10.4H.5l8.215,7.468L5.541,28.5,14.5,21.784,24.024,28.5,20.85,17.863,28.5,10.4h-9.9L14.5.5Z" transform="translate(0.498 0.498)" fill="#111"/>
        <rect id="사각형_71415-10" data-name="사각형 71415" width="30" height="30" fill="none"/>
      </g>
    </g>
  </g>
</svg>
