<svg xmlns="http://www.w3.org/2000/svg" xmlns:xlink="http://www.w3.org/1999/xlink" width="90.001" height="43.004" viewBox="0 0 90.001 43.004"><defs><style>.a,.i,.j{fill:none;}.b,.g{fill:#fff;}.b{fill-rule:evenodd;}.c,.h{fill:#111;}.c{font-size:11px;font-family:MoebiusKorea-Regular, Moebius Korea;letter-spacing:-0.03em;}.d{clip-path:url(#c);}.e{opacity:0;}.f{fill:#f0f;}.g,.i,.j{stroke:#111;}.g{stroke-linejoin:round;}.i{stroke-linecap:round;}.i,.j{stroke-miterlimit:10;}.k{filter:url(#a);}</style><filter id="a" x="0" y="0" width="90.001" height="43.004" filterUnits="userSpaceOnUse"><feOffset dy="1" input="SourceAlpha"/><feGaussianBlur stdDeviation="1.5" result="b"/><feFlood flood-opacity="0.161"/><feComposite operator="in" in2="b"/><feComposite in="SourceGraphic"/></filter><clipPath id="c"><rect class="a" width="16" height="16"/></clipPath></defs><g transform="translate(4.5 3.5)"><g transform="translate(-233 -1708)"><g class="k" transform="matrix(1, 0, 0, 1, 228.5, 1704.5)"><path class="b" d="M194.134,209.295H145.469a12.5,12.5,0,0,1,0-25h56.073a12.533,12.533,0,0,1,12.464,12.5,12.877,12.877,0,0,1-1.853,6.477L203.486,218.3l-3.186-5.518A6.887,6.887,0,0,0,194.134,209.295Z" transform="translate(-128.5 -180.79)"/></g><text class="c" transform="translate(265 1725)"><tspan x="0" y="0">대표카드</tspan></text><g transform="translate(253 1720)"><g class="d" transform="translate(-8 -8)"><g class="e"><g class="d"><rect class="f" width="16" height="16"/></g></g></g><rect class="g" width="14" height="10" transform="translate(-7 -4.4)"/><rect class="a" width="16" height="16" transform="translate(-8 -8)"/><rect class="h" width="14" height="1" transform="translate(-6.9 -2.6)"/><rect class="a" width="16" height="16" transform="translate(-8 -8)"/><line class="i" x1="0.9" transform="translate(2 2.9)"/><line class="j" x1="2.4" transform="translate(2.6 2.9)"/></g></g></g></svg>