<svg xmlns="http://www.w3.org/2000/svg" xmlns:xlink="http://www.w3.org/1999/xlink" width="100" height="100" viewBox="0 0 100 100">
  <defs>
    <style>
      .cls-1, .cls-11, .cls-13, .cls-14, .cls-15, .cls-6, .cls-8, .cls-9 {
        fill: none;
      }

      .cls-2 {
        clip-path: url(#clip-path);
      }

      .cls-3 {
        fill: #f9f9f9;
      }

      .cls-4 {
        fill: #f0f0f0;
      }

      .cls-5 {
        fill: #fff;
      }

      .cls-6 {
        stroke: #000001;
      }

      .cls-11, .cls-13, .cls-14, .cls-15, .cls-6, .cls-8 {
        stroke-linejoin: round;
      }

      .cls-11, .cls-6 {
        stroke-width: 0.833px;
      }

      .cls-7 {
        fill: #ea002c;
      }

      .cls-8 {
        stroke: #fff;
        stroke-width: 1.667px;
      }

      .cls-11, .cls-15, .cls-8 {
        stroke-linecap: round;
      }

      .cls-9 {
        stroke: #000;
        stroke-miterlimit: 10;
        stroke-width: 0.208px;
      }

      .cls-10 {
        fill: #222;
      }

      .cls-11, .cls-13, .cls-14, .cls-15 {
        stroke: #222;
      }

      .cls-12 {
        fill: #e2e2e2;
      }

      .cls-13 {
        stroke-width: 0.833px;
      }

      .cls-14 {
        stroke-width: 0.833px;
      }

      .cls-15 {
        stroke-width: 0.833px;
      }

      .cls-16 {
        opacity: 0.2;
      }

      .cls-17 {
        clip-path: url(#clip-path-4);
      }
    </style>
    <clipPath id="clip-path">
      <rect id="사각형_254987" data-name="사각형 254987" class="cls-1" width="100" height="100"/>
    </clipPath>
    <clipPath id="clip-path-4">
      <rect id="사각형_254985" data-name="사각형 254985" class="cls-1" width="15.313" height="8.206"/>
    </clipPath>
  </defs>
  <g id="null_100x100" transform="translate(50 50)">
    <g id="null_100x100-2" data-name="null_100x100" class="cls-2" transform="translate(-50 -50)">
      <g id="그룹_335935" data-name="그룹 335935" class="cls-2">
        <path id="패스_680988" data-name="패스 680988" class="cls-3" d="M50,0A50,50,0,1,1,0,50,50.013,50.013,0,0,1,50,0"/>
        <path id="패스_680989" data-name="패스 680989" class="cls-4" d="M50,100a50,50,0,1,1,50-50,50.066,50.066,0,0,1-50,50M50,1A49,49,0,1,0,99,50,49.053,49.053,0,0,0,50,1"/>
      </g>
      <g id="그룹_335938" data-name="그룹 335938" class="cls-2">
        <path id="패스_680990" data-name="패스 680990" class="cls-5" d="M209.608,119.892A10.87,10.87,0,1,1,198.754,109.6a10.578,10.578,0,0,1,10.854,10.292" transform="translate(-148.754 -86.767)"/>
        <path id="패스_680991" data-name="패스 680991" class="cls-6" d="M209.608,119.892A10.87,10.87,0,1,1,198.754,109.6,10.578,10.578,0,0,1,209.608,119.892Z" transform="translate(-148.754 -86.767)"/>
        <path id="패스_680992" data-name="패스 680992" class="cls-7" d="M209.608,131.092A10.87,10.87,0,1,1,198.754,120.8a10.578,10.578,0,0,1,10.854,10.292" transform="translate(-148.754 -95.633)"/>
        <path id="패스_680993" data-name="패스 680993" class="cls-6" d="M209.608,131.092A10.87,10.87,0,1,1,198.754,120.8,10.578,10.578,0,0,1,209.608,131.092Z" transform="translate(-148.754 -95.633)"/>
        <line id="선_93151" data-name="선 93151" class="cls-7" x1="5.167" y2="5.167" transform="translate(47.417 32.875)"/>
        <line id="선_93152" data-name="선 93152" class="cls-8" x1="5.167" y2="5.167" transform="translate(47.417 32.875)"/>
        <line id="선_93153" data-name="선 93153" class="cls-7" x2="5.167" y2="5.167" transform="translate(47.417 32.875)"/>
        <line id="선_93154" data-name="선 93154" class="cls-8" x2="5.167" y2="5.167" transform="translate(47.417 32.875)"/>
        <path id="패스_680994" data-name="패스 680994" d="M348.929,229.758l-.979.563-5.75.271h-1.1l2.583,1.5q.9.521.271.854a1.507,1.507,0,0,1-1.5-.167l-4.75-2.75.979-.562,5.729-.271h1.125l-2.917-1.687,1.229-.708Z" transform="translate(-267.346 -179.55)"/>
        <path id="패스_680995" data-name="패스 680995" d="M382.408,268.167l-1.042-.042-3.542-1.562-.667-.312.167,1.4q.062.479-.6.458t-.708-.5L375.7,265l1.063.042,3.521,1.563.667.313-.187-1.583,1.313.063Z" transform="translate(-297.429 -209.792)"/>
        <path id="패스_680996" data-name="패스 680996" d="M376.606,291.058l-.771-.146-2.1-1.5-.4-.292-.375.979q-.125.333-.6.25t-.354-.437l.687-1.812.792.167,2.083,1.5.4.292.417-1.1.979.188Z" transform="translate(-294.481 -228.079)"/>
        <path id="패스_680997" data-name="패스 680997" class="cls-9" d="M262.373,256.153c-4.687,2.708-12.875,2.375-18.292-.75s-6-7.854-1.312-10.562,12.875-2.375,18.292.75S267.06,253.445,262.373,256.153Z" transform="translate(-189.685 -192.383)"/>
        <path id="패스_680998" data-name="패스 680998" class="cls-10" d="M176.029,254.642c-.4-1.729-1.854-3.458-4.271-4.854-5.312-3.062-13.354-3.4-17.958-.75l-23.9,13.792a5.75,5.75,0,0,0-2.979,3.521,4.229,4.229,0,0,1-.125-1c0-1.687,1.021-3.292,3.1-4.5l23.875-13.792c4.6-2.667,12.646-2.333,17.958.75,3.375,1.958,4.854,4.542,4.271,6.854" transform="translate(-100.383 -194.163)"/>
        <path id="패스_680999" data-name="패스 680999" class="cls-11" d="M176.029,254.642c-.4-1.729-1.854-3.458-4.271-4.854-5.312-3.062-13.354-3.4-17.958-.75l-23.9,13.792a5.75,5.75,0,0,0-2.979,3.521,4.229,4.229,0,0,1-.125-1c0-1.687,1.021-3.292,3.1-4.5l23.875-13.792c4.6-2.667,12.646-2.333,17.958.75C175.133,249.746,176.592,252.329,176.029,254.642Z" transform="translate(-100.383 -194.163)"/>
        <path id="패스_681000" data-name="패스 681000" class="cls-12" d="M176.5,262.084a5.873,5.873,0,0,1-2.979,3.521l-23.9,13.792c-4.6,2.667-12.646,2.333-17.958-.75-2.437-1.4-3.875-3.146-4.271-4.875a5.873,5.873,0,0,1,2.979-3.521l23.875-13.792c4.6-2.667,12.646-2.333,17.958.75,2.438,1.4,3.875,3.146,4.271,4.854" transform="translate(-100.858 -201.604)"/>
        <path id="패스_681001" data-name="패스 681001" class="cls-13" d="M176.5,262.084a5.873,5.873,0,0,1-2.979,3.521l-23.9,13.792c-4.6,2.667-12.646,2.333-17.958-.75-2.437-1.4-3.875-3.146-4.271-4.875a5.873,5.873,0,0,1,2.979-3.521l23.875-13.792c4.6-2.667,12.646-2.333,17.958.75C174.65,258.625,176.087,260.375,176.5,262.084Z" transform="translate(-100.858 -201.604)"/>
        <path id="패스_681002" data-name="패스 681002" class="cls-10" d="M165.632,329.3v2.875c0,1.5-1,3-3,4.146a15.888,15.888,0,0,1-14.375.021c-2-1.146-2.979-2.667-2.958-4.187V329.3" transform="translate(-115.028 -260.696)"/>
        <path id="패스_681003" data-name="패스 681003" class="cls-14" d="M165.632,329.3v2.875c0,1.5-1,3-3,4.146a15.888,15.888,0,0,1-14.375.021c-2-1.146-2.979-2.667-2.958-4.187V329.3" transform="translate(-115.028 -260.696)"/>
        <path id="패스_681004" data-name="패스 681004" class="cls-5" d="M148.31,302.829a15.888,15.888,0,0,1,14.375-.021c3.958,2.292,3.938,6-.042,8.292a15.888,15.888,0,0,1-14.375.021c-3.958-2.292-3.937-6,.042-8.292" transform="translate(-115.039 -238.371)"/>
        <path id="패스_681005" data-name="패스 681005" class="cls-15" d="M148.31,302.829a15.888,15.888,0,0,1,14.375-.021c3.958,2.292,3.938,6-.042,8.292a15.888,15.888,0,0,1-14.375.021C144.31,308.829,144.331,305.142,148.31,302.829Z" transform="translate(-115.039 -238.371)"/>
        <path id="패스_681006" data-name="패스 681006" class="cls-10" d="M247.879,299.1a4.583,4.583,0,0,1,2.458-.708,5,5,0,0,1,2.417.563q1.208.625,1.229,1.438A1.565,1.565,0,0,1,253,301.77a4.625,4.625,0,0,1-2.458.708,5,5,0,0,1-2.417-.562q-1.229-.646-1.229-1.437a1.648,1.648,0,0,1,1-1.375m.979.521q-.75.479-.146,1.083a3.02,3.02,0,0,0,.646.417,3.437,3.437,0,0,0,1.5.438,2.042,2.042,0,0,0,1.146-.292q.75-.479.146-1.083a2.584,2.584,0,0,0-.625-.417,3.459,3.459,0,0,0-1.521-.437,2.021,2.021,0,0,0-1.146.313" transform="translate(-195.462 -236.229)"/>
        <path id="패스_681007" data-name="패스 681007" class="cls-10" d="M263.412,281.983l-.312-.167-.542-.333q-.771-.583-.167-1.229a2.1,2.1,0,0,1,.438-.354,4,4,0,0,1,1.083-.5l.708.667a1.6,1.6,0,0,0-.583.229q-.5.313-.021.625l.25.146.333.167.625-.4a1.046,1.046,0,0,1,1.1-.1q.5.271-.1.646l-.625.4,3.333,1.75q.438.229.229.521a.625.625,0,0,1-.187.188,1.187,1.187,0,0,1-.6.188,1.229,1.229,0,0,1-.625-.125l-3.333-1.75-.667.438-1-.521Z" transform="translate(-207.516 -221.192)"/>
        <path id="패스_681008" data-name="패스 681008" class="cls-10" d="M278.612,272.383l-.312-.167-.542-.333q-.771-.583-.167-1.229a2.1,2.1,0,0,1,.438-.354,4,4,0,0,1,1.083-.5l.708.667a1.6,1.6,0,0,0-.583.229q-.5.312-.021.625l.25.146.333.167.625-.4a1.046,1.046,0,0,1,1.1-.1q.5.271-.1.646l-.625.4,3.333,1.75q.438.229.229.521a.625.625,0,0,1-.187.188,1.208,1.208,0,0,1-.6.187,1.229,1.229,0,0,1-.625-.125l-3.333-1.75-.667.438-1-.521Z" transform="translate(-219.55 -213.592)"/>
        <g id="그룹_335937" data-name="그룹 335937" class="cls-16" transform="translate(42.438 59.229)">
          <g id="그룹_335936" data-name="그룹 335936" class="cls-17">
            <path id="패스_681009" data-name="패스 681009" d="M219.013,288.4c0,2.25-3.4,4.083-7.6,4.1-.542-2.4-3.75-4.208-7.6-4.208h-.1c.1-2.208,3.5-4,7.646-4s7.667,1.833,7.667,4.1" transform="translate(-203.7 -284.3)"/>
          </g>
        </g>
      </g>
    </g>
  </g>
</svg>
