<svg xmlns="http://www.w3.org/2000/svg" xmlns:xlink="http://www.w3.org/1999/xlink" width="100" height="100" viewBox="0 0 100 100">
  <defs>
    <clipPath id="clip-path">
      <rect id="사각형_59828" data-name="사각형 59828" width="100" height="100" transform="translate(138 80)" fill="#d5d5d5"/>
    </clipPath>
    <clipPath id="clip-path-2">
      <rect id="사각형_259471" data-name="사각형 259471" width="100" height="100" fill="none"/>
    </clipPath>
    <clipPath id="clip-path-4">
      <path id="패스_698843" data-name="패스 698843" d="M4.8,53.8a49,49,0,1,0,49-49,49,49,0,0,0-49,49" transform="translate(-4.8 -4.8)" fill="none"/>
    </clipPath>
    <clipPath id="clip-path-5">
      <rect id="사각형_259463" data-name="사각형 259463" width="64.604" height="39.567" fill="none"/>
    </clipPath>
    <clipPath id="clip-path-6">
      <path id="패스_698844" data-name="패스 698844" d="M387.72,173.192a5.562,5.562,0,0,0-2.521,4.4,1.58,1.58,0,0,0,2.521,1.479,5.562,5.562,0,0,0,2.521-4.4,1.563,1.563,0,0,0-1.5-1.771,1.979,1.979,0,0,0-1.021.313" transform="translate(-385.199 -172.9)" fill="none"/>
    </clipPath>
    <linearGradient id="linear-gradient" x1="-9.168" y1="7.642" x2="-9.144" y2="7.642" gradientUnits="objectBoundingBox">
      <stop offset="0" stop-color="#c1c0c0"/>
      <stop offset="1" stop-color="#dedddc"/>
    </linearGradient>
    <clipPath id="clip-path-8">
      <path id="패스_698847" data-name="패스 698847" d="M393.133,175.546a5.229,5.229,0,0,1-2.375,4.125,1.646,1.646,0,0,1-1.458.188,1.61,1.61,0,0,0,1.688-.1,5.292,5.292,0,0,0,2.417-4.167,1.493,1.493,0,0,0-1.375-1.687,1.515,1.515,0,0,1,1.125,1.646" transform="translate(-389.3 -173.9)" fill="none"/>
    </clipPath>
    <linearGradient id="linear-gradient-2" x1="-19.761" y1="10.206" x2="-19.711" y2="10.206" xlink:href="#linear-gradient"/>
    <clipPath id="clip-path-10">
      <rect id="사각형_259466" data-name="사각형 259466" width="3.542" height="1.154" fill="none"/>
    </clipPath>
    <clipPath id="clip-path-11">
      <rect id="사각형_259467" data-name="사각형 259467" width="11.896" height="8.25" fill="none"/>
    </clipPath>
    <clipPath id="clip-path-12">
      <rect id="사각형_259468" data-name="사각형 259468" width="18.458" height="3.408" fill="none"/>
    </clipPath>
    <clipPath id="clip-path-13">
      <rect id="사각형_259469" data-name="사각형 259469" width="10.604" height="7.413" fill="none"/>
    </clipPath>
    <clipPath id="clip-path-14">
      <rect id="사각형_259470" data-name="사각형 259470" width="2.208" height="2.2" fill="none"/>
    </clipPath>
  </defs>
  <g id="마스크_그룹_309" data-name="마스크 그룹 309" transform="translate(-138 -80)" clip-path="url(#clip-path)">
    <g id="null_100x100" transform="translate(188 130)">
      <g id="그룹_347224" data-name="그룹 347224" transform="translate(-50 -50)" style="isolation: isolate">
        <g id="Layer_1" data-name="Layer 1">
          <g id="그룹_347223" data-name="그룹 347223" clip-path="url(#clip-path-2)">
            <g id="그룹_347205" data-name="그룹 347205" clip-path="url(#clip-path-2)">
              <path id="패스_698831" data-name="패스 698831" d="M50,0A50,50,0,1,1,0,50,50.013,50.013,0,0,1,50,0" fill="#f9f9f9"/>
              <path id="패스_698832" data-name="패스 698832" d="M50,100a50,50,0,1,1,50-50,50.066,50.066,0,0,1-50,50M50,1A49,49,0,1,0,99,50,49.053,49.053,0,0,0,50,1" fill="#f0f0f0"/>
            </g>
            <g id="그룹_347208" data-name="그룹 347208" transform="translate(1 1)" clip-path="url(#clip-path-4)">
              <path id="패스_698833" data-name="패스 698833" d="M26.862,225.842l-6.979-.146-16.271-.4-7.979,4.6,17.354.521L-34.7,259.654l5.938,3.438,47.729-29.229.708,9.938,8.125-4.667-.646-9.25Z" transform="translate(26.471 -179.363)" fill="#e2e2e2"/>
              <path id="패스_698834" data-name="패스 698834" d="M357,203.025l3.167-1.354-2.521-.271Z" transform="translate(-283.625 -160.442)" fill="#222"/>
              <path id="패스_698835" data-name="패스 698835" d="M357,203.025l3.167-1.354-2.521-.271Z" transform="translate(-283.625 -160.442)" fill="none" stroke="#222" stroke-linejoin="round" stroke-width="0.521"/>
              <path id="패스_698836" data-name="패스 698836" d="M350.35,197.765c0,.708-.5,1-1.125.646a2.458,2.458,0,0,1-1.125-1.937c0-.708.5-1,1.125-.646a2.479,2.479,0,0,1,1.125,1.938" transform="translate(-276.579 -155.91)" fill="#dbdbdb"/>
              <path id="패스_698837" data-name="패스 698837" d="M350.35,197.765c0,.708-.5,1-1.125.646a2.458,2.458,0,0,1-1.125-1.937c0-.708.5-1,1.125-.646a2.479,2.479,0,0,1,1.125,1.938Z" transform="translate(-276.579 -155.91)" fill="none" stroke="#222" stroke-linejoin="round" stroke-width="0.521"/>
              <g id="그룹_347207" data-name="그룹 347207" transform="translate(54.875 5.292)" opacity="0.1" style="mix-blend-mode: multiply;isolation: isolate">
                <g id="그룹_347206" data-name="그룹 347206" clip-path="url(#clip-path-5)">
                  <path id="패스_698838" data-name="패스 698838" d="M331.284,41.263c-3.6-2.479-20.229-11.062-20.229-11.062l-41.4,25.708s-3.167,2-.167,3.771c4.167,2.458,14.375,8.542,16.625,9.812,1.792,1.021,8.146-1.333,8.146-1.333l35.979-20.792s4.979-3.417,1.042-6.1" transform="translate(-268.201 -30.2)"/>
                </g>
              </g>
              <path id="패스_698839" data-name="패스 698839" d="M401.663,161.054l-.708,1.75-.688.333L397.1,158.6l3.167-.4,1.688,1.333Z" transform="translate(-315.371 -126.242)"/>
              <path id="패스_698840" data-name="패스 698840" d="M373.85,158.875l-2.833-1.625a2.6,2.6,0,0,0-2.646.271,8.337,8.337,0,0,0-3.771,6.521,2.573,2.573,0,0,0,1.125,2.438l2.833,1.625a2.652,2.652,0,0,0,2.646-.271,8.337,8.337,0,0,0,3.771-6.521,2.6,2.6,0,0,0-1.1-2.437" transform="translate(-289.642 -125.291)" fill="#222"/>
              <path id="패스_698841" data-name="패스 698841" d="M385.642,167.487a8.337,8.337,0,0,1-3.771,6.521,2.654,2.654,0,0,1-2.646.271,2.614,2.614,0,0,1-1.125-2.437,8.337,8.337,0,0,1,3.771-6.521,2.606,2.606,0,0,1,2.646-.271,2.672,2.672,0,0,1,1.1,2.438" transform="translate(-300.329 -131.466)" fill="#222"/>
              <path id="패스_698842" data-name="패스 698842" d="M387.179,169.106a7.707,7.707,0,0,1-3.479,6.042,2.5,2.5,0,0,1-2.458.25,2.471,2.471,0,0,1-1.042-2.271,7.707,7.707,0,0,1,3.479-6.042,2.12,2.12,0,0,1,3.479,2.021" transform="translate(-301.992 -132.898)" fill="#222"/>
            </g>
            <g id="그룹_347209" data-name="그룹 347209" transform="translate(80.25 36.021)" clip-path="url(#clip-path-6)">
              <rect id="사각형_259464" data-name="사각형 259464" width="8.562" height="8.473" transform="translate(-3.462 3.76) rotate(-46.8)" fill="url(#linear-gradient)"/>
            </g>
            <g id="그룹_347210" data-name="그룹 347210" transform="translate(1 1)" clip-path="url(#clip-path-4)">
              <path id="패스_698845" data-name="패스 698845" d="M390.788,175.591a5.292,5.292,0,0,1-2.4,4.188,1.5,1.5,0,0,1-2.4-1.4,5.292,5.292,0,0,1,2.4-4.187,1.5,1.5,0,0,1,2.4,1.4" transform="translate(-306.579 -138.675)" fill="#fff"/>
            </g>
            <g id="그룹_347211" data-name="그룹 347211" transform="translate(81.104 36.229)" clip-path="url(#clip-path-8)">
              <rect id="사각형_259465" data-name="사각형 259465" width="4.104" height="6.248" transform="translate(0)" fill="url(#linear-gradient-2)"/>
            </g>
            <g id="그룹_347222" data-name="그룹 347222" transform="translate(1 1)" clip-path="url(#clip-path-4)">
              <path id="패스_698848" data-name="패스 698848" d="M335.386,15.167c-.625-.812-2.937-3.042-2.937-3.042a11.917,11.917,0,0,0-2.625-2.438c-1.667-1.146-7.187-4.375-11.208-5.271a14.729,14.729,0,0,0-3.646-.521,8.313,8.313,0,0,0-3.083.542L307.2,6.25a31.409,31.409,0,0,0-4.583.646,32.586,32.586,0,0,0-6.25,2.5c-2.042,1.021-6.729,4.292-9.646,6.167a35.623,35.623,0,0,0-6.042,5.354l-1.917,1.875a20.136,20.136,0,0,0-2.208,2.167,20.062,20.062,0,0,0-1.1,2.854,18.188,18.188,0,0,0-.979,2.917,5.135,5.135,0,0,0,0,1.75,2.583,2.583,0,0,0,.292,2.146c.646,1,4.792,3.9,7.708,5.708a92.025,92.025,0,0,0,9.4,4.792,6.958,6.958,0,0,0,3.438.1,10.352,10.352,0,0,1,4.6-7.771c2.417-1.4,4.875-.625,4.021,2.854l20.667-11.687c.458-2.833,2.646-7.146,5.063-8.562s5.063-.292,3.667,3.542a18.788,18.788,0,0,0,1.833-2.729,2.5,2.5,0,0,0,.167-1.771s.729-3.1.083-3.917" transform="translate(-218.198 -4.084)" fill="#fff"/>
              <path id="패스_698849" data-name="패스 698849" d="M335.386,15.167c-.625-.812-2.937-3.042-2.937-3.042a11.917,11.917,0,0,0-2.625-2.438c-1.667-1.146-7.187-4.375-11.208-5.271a14.729,14.729,0,0,0-3.646-.521,8.313,8.313,0,0,0-3.083.542L307.2,6.25a31.409,31.409,0,0,0-4.583.646,32.586,32.586,0,0,0-6.25,2.5c-2.042,1.021-6.729,4.292-9.646,6.167a35.623,35.623,0,0,0-6.042,5.354l-1.917,1.875a20.136,20.136,0,0,0-2.208,2.167,20.062,20.062,0,0,0-1.1,2.854,18.188,18.188,0,0,0-.979,2.917,5.135,5.135,0,0,0,0,1.75,2.583,2.583,0,0,0,.292,2.146c.646,1,4.792,3.9,7.708,5.708a92.025,92.025,0,0,0,9.4,4.792,6.958,6.958,0,0,0,3.438.1,10.352,10.352,0,0,1,4.6-7.771c2.417-1.4,4.875-.625,4.021,2.854l20.667-11.687c.458-2.833,2.646-7.146,5.063-8.562s5.063-.292,3.667,3.542a18.788,18.788,0,0,0,1.833-2.729,2.5,2.5,0,0,0,.167-1.771S336.032,15.98,335.386,15.167Z" transform="translate(-218.198 -4.084)" fill="none" stroke="#222" stroke-miterlimit="10" stroke-width="1.042"/>
              <path id="패스_698850" data-name="패스 698850" d="M410.633,24.663s3.375-.042,5.521.021,4.833.625,5.521.542,1.479-.333,1.5-.917-1.187-3.937-4.917-6.042a26,26,0,0,0-9.833-3.521,11.257,11.257,0,0,0-3.792.083s-2.9.313-4.229.625a23.333,23.333,0,0,0-3.1,1.062,66.627,66.627,0,0,1,6.354,2.875,32.214,32.214,0,0,1,7,5.25" transform="translate(-315.529 -12.601)" fill="#222"/>
              <path id="패스_698851" data-name="패스 698851" d="M417.179,18.629a31.919,31.919,0,0,0-9.75-2.729l-.458.083h-.021c-.021,0-2.917.313-4.208.625a14.521,14.521,0,0,0-2.542.938c.938.375,3.521,1.458,5.833,2.687a31.191,31.191,0,0,1,7,5.25h2.333l3.083.042c1.125.042,2.417.208,3.458.354a15.438,15.438,0,0,0,1.875.208h.167a2.088,2.088,0,0,0,1.229-.479c-.437-1.125-2.271-4.521-8-6.979" transform="translate(-317.825 -13.587)" fill="#222"/>
              <g id="그룹_347213" data-name="그룹 347213" transform="translate(82.979 4.021)" opacity="0.7">
                <g id="그룹_347212" data-name="그룹 347212" clip-path="url(#clip-path-10)">
                  <path id="패스_698852" data-name="패스 698852" d="M406.458,24.1c-.479,0-2.583.146-3.458.208l2.167.938c.729-.5,1.667-1.146,1.271-1.146" transform="translate(-403.021 -24.1)" fill="#222"/>
                </g>
              </g>
              <path id="패스_698853" data-name="패스 698853" d="M397.221,88.984c0,.4.583,1.271,2,1.625a5.625,5.625,0,0,0,1.4.167,10.438,10.438,0,0,0,2.167-.25,10.917,10.917,0,0,0,2.417-.771l1.5-.729a.562.562,0,0,0,.292-.667,42.447,42.447,0,0,0-1.437-4.6c-.292-.687-.708-1.1-1.375-.687a6.77,6.77,0,0,0-.812.521c-2.792,2.1-6.167,4.854-6.167,5.417" transform="translate(-315.45 -66.63)" fill="#222"/>
              <g id="그룹_347215" data-name="그룹 347215" transform="translate(59.833 14.562)" opacity="0.2">
                <g id="그룹_347214" data-name="그룹 347214" clip-path="url(#clip-path-11)">
                  <path id="패스_698854" data-name="패스 698854" d="M297.542,74.7l-3.5,3.333-.1.1C292.313,79.6,292,80.367,292,80.762s.75,1.292,1.792,2.188a26.053,26.053,0,0,1,10.1-4.271Z" transform="translate(-292 -74.7)" fill="#222"/>
                </g>
              </g>
              <g id="그룹_347217" data-name="그룹 347217" transform="translate(82.354 2.312)" opacity="0.2">
                <g id="그룹_347216" data-name="그룹 347216" clip-path="url(#clip-path-12)">
                  <path id="패스_698855" data-name="패스 698855" d="M418.637,19.317c-.458-.229-.937-.458-1.458-.687a31.919,31.919,0,0,0-9.75-2.729l-.458.083h-.021c-.021,0-2.917.313-4.208.625a14.5,14.5,0,0,0-2.542.938c.583.229,1.854.771,3.292,1.438,2.542-.417,7.458-.792,15.167.333" transform="translate(-400.179 -15.9)" fill="#222"/>
                </g>
              </g>
              <path id="패스_698856" data-name="패스 698856" d="M349.754,152.5a.729.729,0,0,1-.271-1.125,5.765,5.765,0,0,1,2.063-1.875c1.021-.312,2.229-.458,2.9-.771s2.375-1.187,2.563-.562-.833,2.625-2.021,3.667a3.749,3.749,0,0,1-3.354,1.188,6.125,6.125,0,0,1-1.875-.542" transform="translate(-277.546 -118.123)" fill="#f8483b"/>
              <path id="패스_698857" data-name="패스 698857" d="M349.754,152.5a.729.729,0,0,1-.271-1.125,5.765,5.765,0,0,1,2.063-1.875c1.021-.312,2.229-.458,2.9-.771s2.375-1.187,2.563-.562-.833,2.625-2.021,3.667a3.749,3.749,0,0,1-3.354,1.188A6.125,6.125,0,0,1,349.754,152.5Z" transform="translate(-277.546 -118.123)" fill="none" stroke="#222" stroke-linejoin="round" stroke-width="0.625"/>
              <path id="패스_698858" data-name="패스 698858" d="M362.225,159.2l-.437.083a.9.9,0,0,0-.708.479l-.479.958a3.782,3.782,0,0,0,3.313-1.208,7.271,7.271,0,0,0,1.438-1.812,22.8,22.8,0,0,1-3.1,1.458" transform="translate(-286.475 -125.846)" fill="#fff"/>
              <path id="패스_698859" data-name="패스 698859" d="M362.225,159.2l-.437.083a.9.9,0,0,0-.708.479l-.479.958a3.782,3.782,0,0,0,3.313-1.208,7.271,7.271,0,0,0,1.438-1.812A18.461,18.461,0,0,1,362.225,159.2Z" transform="translate(-286.475 -125.846)" fill="none" stroke="#222" stroke-linejoin="round" stroke-width="0.625"/>
              <path id="패스_698860" data-name="패스 698860" d="M279.671,106.962a2.029,2.029,0,0,0,.292,1.313,12.062,12.062,0,0,0,1.354,1.313.146.146,0,0,0,.229-.125l-.479-3.875c-.062-.583-.1-1.292-.1-1.687l-.187.229a18.065,18.065,0,0,0-1.1,2.854" transform="translate(-222.4 -83.254)" fill="#f8483b"/>
              <path id="패스_698861" data-name="패스 698861" d="M279.671,106.962a2.029,2.029,0,0,0,.292,1.313,12.062,12.062,0,0,0,1.354,1.313.146.146,0,0,0,.229-.125l-.479-3.875c-.062-.583-.1-1.292-.1-1.687l-.187.229A19.388,19.388,0,0,0,279.671,106.962Z" transform="translate(-222.4 -83.254)" fill="none" stroke="#222" stroke-linejoin="round" stroke-width="0.625"/>
              <path id="패스_698862" data-name="패스 698862" d="M279.921,115l-.25.771a2.029,2.029,0,0,0,.292,1.313l.1.146.208-1.542a.458.458,0,0,0-.083-.333l-.25-.354" transform="translate(-222.4 -92.042)" fill="#fff"/>
              <path id="패스_698863" data-name="패스 698863" d="M279.921,115l-.25.771a2.029,2.029,0,0,0,.292,1.313l.1.146.208-1.542a.458.458,0,0,0-.083-.333Z" transform="translate(-222.4 -92.042)" fill="none" stroke="#222" stroke-miterlimit="10" stroke-width="0.417"/>
              <path id="패스_698864" data-name="패스 698864" d="M274.4,140.2a78.236,78.236,0,0,0,11.25,7.563" transform="translate(-218.233 -111.992)" fill="none" stroke="#222" stroke-linecap="round" stroke-miterlimit="10" stroke-width="0.521"/>
              <path id="패스_698865" data-name="패스 698865" d="M288.472,98.6s-.542.729-.437,1.1-.1.917,3.938,3.938l-4.687-3.667a.229.229,0,0,1-.021-.333Z" transform="translate(-228.368 -79.058)" fill="#fff"/>
              <path id="패스_698866" data-name="패스 698866" d="M301.675,136.35s-7.625-2.646-12.25-7.25l.042.354a.5.5,0,0,1-.167.313s2.646,3.479,12.208,7.292" transform="translate(-230.029 -103.204)" fill="#fff"/>
              <path id="패스_698867" data-name="패스 698867" d="M357.146,137.5a9.436,9.436,0,0,1-1.646,2.833c-.729.521-4-1.167-4-1.167a5.208,5.208,0,0,0,3.354.5l.313-.042c.292-.042,1.063-.25,1.979-2.125" transform="translate(-279.271 -109.854)" fill="#fff"/>
              <path id="패스_698868" data-name="패스 698868" d="M391.813,128.651c-.979.521-5.021,2.646-7.312,3.729,0,0,3.688.375,7.375-3.667a.044.044,0,0,0-.062-.062" transform="translate(-305.396 -102.838)" fill="#fff"/>
              <path id="패스_698869" data-name="패스 698869" d="M458.554,108.561l2.917-1.687a.875.875,0,0,0,.354-.687c0-.271-.167-.4-.354-.271l-2.917,1.688a.875.875,0,0,0-.354.688c0,.271.167.4.354.271" transform="translate(-363.742 -84.811)" fill="#fff"/>
              <path id="패스_698870" data-name="패스 698870" d="M458.554,108.561l2.917-1.687a.875.875,0,0,0,.354-.687c0-.271-.167-.4-.354-.271l-2.917,1.688a.875.875,0,0,0-.354.688C458.2,108.54,458.367,108.665,458.554,108.561Z" transform="translate(-363.742 -84.811)" fill="none" stroke="#222" stroke-miterlimit="10" stroke-width="0.625"/>
              <path id="패스_698871" data-name="패스 698871" d="M458.554,106.261l2.917-1.687a.875.875,0,0,0,.354-.687c0-.271-.167-.4-.354-.271l-2.917,1.688a.875.875,0,0,0-.354.688c0,.271.167.4.354.271" transform="translate(-363.742 -82.99)" fill="#fff"/>
              <path id="패스_698872" data-name="패스 698872" d="M458.554,106.261l2.917-1.687a.875.875,0,0,0,.354-.687c0-.271-.167-.4-.354-.271l-2.917,1.688a.875.875,0,0,0-.354.688C458.2,106.261,458.367,106.386,458.554,106.261Z" transform="translate(-363.742 -82.99)" fill="none" stroke="#222" stroke-miterlimit="10" stroke-width="0.625"/>
              <path id="패스_698873" data-name="패스 698873" d="M447.415,70.552a15.924,15.924,0,0,1,6.146.583,1.958,1.958,0,0,1,.542.292c.313.25.646.667-.083,1l-10.6,5.688a.979.979,0,0,1-1.333-.562L440.6,73.323a.937.937,0,0,1,.563-1.187l2.021-.771a12.4,12.4,0,0,1,4.25-.812" transform="translate(-349.769 -56.823)" fill="#222"/>
              <path id="패스_698874" data-name="패스 698874" d="M432.871,78.3s-1.687.625-2.771,1.188l2.146,6.146,3.333-1.6Z" transform="translate(-341.496 -62.988)" fill="#222"/>
              <path id="패스_698875" data-name="패스 698875" d="M382.35,105.533l-1.312,2.688L380.1,104.2Z" transform="translate(-301.913 -83.492)" fill="#fff"/>
              <path id="패스_698876" data-name="패스 698876" d="M306.917,89.829a5.354,5.354,0,0,1-1.708-.271,51.771,51.771,0,0,1-5.5-2.812l-2.167-1.187c-2.6-1.4-5.6-4-5.646-4.9-.021-.4.313-1.167,1.938-2.625l.1-.1,3.5-3.333,8.042,5.042,5.625,3.375a.479.479,0,0,1,.229.521,13.206,13.206,0,0,1-.917,2.854,14.438,14.438,0,0,1-1.875,3.1,2.831,2.831,0,0,1-1.646.313" transform="translate(-232.084 -60.058)" fill="#222"/>
              <path id="패스_698877" data-name="패스 698877" d="M310.285,83.189a1.125,1.125,0,0,1,.521,1.229,12.936,12.936,0,0,1-.854,2.542,12.268,12.268,0,0,1-1.937,3.167,4.987,4.987,0,0,1-3.5.063c-1.479-.5-5.25-2.687-7.687-4s-5.687-3.979-5.729-5.021,1.938-2.708,2.083-2.854L296.16,75.5a1.125,1.125,0,0,1,1.375-.146L304.952,80Z" transform="translate(-231.452 -60.522)" fill="#222"/>
              <g id="그룹_347219" data-name="그룹 347219" transform="translate(61.5 46.062)" opacity="0.1">
                <g id="그룹_347218" data-name="그룹 347218" clip-path="url(#clip-path-13)">
                  <path id="패스_698878" data-name="패스 698878" d="M341.3,233.041a1.033,1.033,0,1,0,0-.021" transform="translate(-332.695 -230.728)" fill="#222"/>
                  <path id="패스_698879" data-name="패스 698879" d="M329.2,227.544a1.6,1.6,0,1,0,1.563-1.646,1.6,1.6,0,0,0-1.562,1.646" transform="translate(-323.115 -225.898)" fill="#222"/>
                  <path id="패스_698880" data-name="패스 698880" d="M327.9,232.444a1.6,1.6,0,1,0,1.563-1.646,1.6,1.6,0,0,0-1.562,1.646" transform="translate(-322.085 -229.777)" fill="#222"/>
                  <path id="패스_698881" data-name="패스 698881" d="M302.2,231.635a2.854,2.854,0,1,0,.784-2.05,2.854,2.854,0,0,0-.784,2.05" transform="translate(-301.737 -228.114)" fill="#222"/>
                  <path id="패스_698882" data-name="패스 698882" d="M300,245.873a1.813,1.813,0,1,0,.494-1.307,1.813,1.813,0,0,0-.494,1.307" transform="translate(-299.996 -240.227)" fill="#222"/>
                </g>
              </g>
              <g id="그룹_347221" data-name="그룹 347221" transform="translate(54.271 50)" opacity="0.1">
                <g id="그룹_347220" data-name="그룹 347220" clip-path="url(#clip-path-14)">
                  <path id="패스_698883" data-name="패스 698883" d="M265.3,245.922a1.1,1.1,0,1,0,1.063-1.125,1.1,1.1,0,0,0-1.062,1.125" transform="translate(-265.299 -244.797)" fill="#222"/>
                </g>
              </g>
              <path id="패스_698884" data-name="패스 698884" d="M283.289,204.947a3.479,3.479,0,0,1,6.458-2.542,1.937,1.937,0,0,1,.25-.542v-.083a1.958,1.958,0,0,1,3.875-.4l.375-.062a1.229,1.229,0,1,1-.729,2.167,1.958,1.958,0,0,1-3.417.688,3.479,3.479,0,0,1-3.25,3.25,2.208,2.208,0,1,1-3.562-2.479" transform="translate(-224.747 -159.197)" fill="#dbdbdb"/>
              <path id="패스_698885" data-name="패스 698885" d="M283.289,204.947a3.479,3.479,0,0,1,6.458-2.542,1.937,1.937,0,0,1,.25-.542v-.083a1.958,1.958,0,0,1,3.875-.4l.375-.062a1.229,1.229,0,1,1-.729,2.167,1.958,1.958,0,0,1-3.417.688,3.479,3.479,0,0,1-3.25,3.25,2.208,2.208,0,1,1-3.562-2.479Z" transform="translate(-224.747 -159.197)" fill="none" stroke="#222" stroke-linejoin="round" stroke-width="0.521"/>
              <path id="패스_698886" data-name="패스 698886" d="M260.4,229.968a1.25,1.25,0,1,0,1.208-1.271,1.25,1.25,0,0,0-1.208,1.271" transform="translate(-207.149 -182.052)" fill="#dbdbdb"/>
              <path id="패스_698887" data-name="패스 698887" d="M260.4,229.968a1.25,1.25,0,1,0,1.208-1.271A1.25,1.25,0,0,0,260.4,229.968Z" transform="translate(-207.149 -182.052)" fill="none" stroke="#222" stroke-linejoin="round" stroke-width="0.521"/>
              <path id="패스_698888" data-name="패스 698888" d="M291.5,209.571a.771.771,0,1,0,.771-.771.771.771,0,0,0-.771.771" transform="translate(-231.771 -166.3)" fill="#fff"/>
              <path id="패스_698889" data-name="패스 698889" d="M265.4,231.775a.375.375,0,1,0,.375-.375.375.375,0,0,0-.375.375" transform="translate(-211.108 -184.192)" fill="#fff"/>
              <path id="패스_698890" data-name="패스 698890" d="M322.5,204.958a.458.458,0,1,0,.458-.458.458.458,0,0,0-.458.458" transform="translate(-256.313 -162.896)" fill="#fff"/>
              <path id="패스_698891" data-name="패스 698891" d="M296.7,208.658a.458.458,0,1,0,.458-.458.458.458,0,0,0-.458.458" transform="translate(-235.888 -165.825)" fill="#fff"/>
            </g>
          </g>
        </g>
      </g>
    </g>
  </g>
</svg>
