<svg xmlns="http://www.w3.org/2000/svg" xmlns:xlink="http://www.w3.org/1999/xlink" width="24" height="24" viewBox="0 0 24 24"><defs><style>.a{fill:url(#a);}.b{fill:#fff;}.c{fill:#ed1c24;}</style><linearGradient id="a" x1="0.5" x2="0.5" y2="1" gradientUnits="objectBoundingBox"><stop offset="0" stop-color="#00b0ee"/><stop offset="1" stop-color="#0068b5"/></linearGradient></defs><g transform="translate(-134 -609)"><circle class="a" cx="12" cy="12" r="12" transform="translate(134 609)"/><g transform="translate(137.999 615.665)"><path class="b" d="M11.482,65.195a1.821,1.821,0,1,1-.056-2.331L12.109,62a2.913,2.913,0,1,0,.007,4.129Z" transform="translate(-7.141 -57.772)"/><rect class="b" width="1.23" height="5.646" transform="translate(5.558 3.494)"/><rect class="b" width="1.23" height="5.646" transform="translate(12.263 3.524)"/><path class="b" d="M129.51,43.563a1.338,1.338,0,0,1-1.336-1.412h-.008V38.924h-1.081V37.889h1.081v-1.1l1.1-.666-.03.84v.922h1.11v1.035h-1.11v2.864a.74.74,0,0,0,0,.246V42.1a.738.738,0,0,0,1.3.344.751.751,0,0,0,.08-.12h0S130.635,43.563,129.51,43.563Z" transform="translate(-119.351 -34.365)"/><path class="b" d="M160.226,123.907v.246a.74.74,0,0,1,0-.246Z" transform="translate(-150.344 -116.484)"/><path class="c" d="M85.4,8.8a6.005,6.005,0,0,0-5,2.677h1.739a4.666,4.666,0,0,1,6.526,0H90.4A6.005,6.005,0,0,0,85.4,8.8Z" transform="translate(-75.671 -8.8)"/></g></g></svg>