<svg xmlns="http://www.w3.org/2000/svg" width="100" height="100"><defs><clipPath id="a"><path data-name="사각형 282469" fill="none" d="M0 0h100v100H0z"/></clipPath><clipPath id="b"><path data-name="사각형 282467" fill="none" d="M0 0h24.714v10.271H0z"/></clipPath></defs><g data-name="icon_blind_null_70" clip-path="url(#a)"><g data-name="그룹 370684" clip-path="url(#a)"><path data-name="패스 748228" d="M50 0A50 50 0 110 50 50 50 0 0150 0" fill="#f9f9f9"/><path data-name="패스 748229" d="M50 100a50 50 0 1150-50 50 50 0 01-50 50m0-99a49 49 0 1049 49A49 49 0 0050 1" fill="#f0f0f0"/></g><g data-name="그룹 370687" clip-path="url(#a)"><path data-name="패스 748230" d="M50 19.143c-12.143 0-22 9.286-22 20.714s9.857 20.571 22 20.571 22-9.286 22-20.571-9.857-20.714-22-20.714" fill="#fff"/><path data-name="패스 748231" d="M50 19.143c-12.143 0-22 9.286-22 20.714s9.857 20.571 22 20.571 22-9.286 22-20.571-9.857-20.714-22-20.714z" fill="none" stroke="#111" stroke-miterlimit="10" stroke-width="1.143"/><path data-name="패스 748232" d="M50 19.143c-12.143 0-22 9.286-22 20.714s9.857 20.571 22 20.571 22-9.286 22-20.571-9.857-20.714-22-20.714" fill="#fff"/><path data-name="패스 748233" d="M50 19.143c-12.143 0-22 9.286-22 20.714s9.857 20.571 22 20.571 22-9.286 22-20.571-9.857-20.714-22-20.714z" fill="none" stroke="#111" stroke-miterlimit="10" stroke-width="1.143"/><path data-name="패스 748234" d="M50 62.143c-10.428 0-18.857-7.857-18.857-17.428S39.572 27.286 50 27.286s18.857 7.857 18.857 17.429S60.429 62.143 50 62.143" fill="#fff"/><path data-name="패스 748235" d="M50 30.429c8.571 0 15.571 6.429 15.571 14.286s-7 14.143-15.571 14.143-15.571-6.429-15.571-14.144 7-14.286 15.571-14.286m0-6.429c-12.143 0-22 9.286-22 20.714s9.857 20.571 22 20.571 22-9.286 22-20.571S62.143 24 50 24" fill="#ff0037"/><path data-name="선 104728" fill="#111" d="M33.286 33.143l33.429 23.143"/><path data-name="선 104729" fill="none" stroke="#ff0037" stroke-miterlimit="10" stroke-width="6.429" d="M33.286 33.143l33.429 23.143"/><path data-name="패스 748236" d="M50 24c-12.143 0-22 9.286-22 20.714s9.857 20.571 22 20.571 22-9.286 22-20.571S62.143 24 50 24z" fill="none" stroke="#111" stroke-miterlimit="10" stroke-width="1.143"/><path data-name="패스 748237" d="M50 24c-12.143 0-22 9.286-22 20.714s9.857 20.571 22 20.571 22-9.286 22-20.571S62.143 24 50 24z" fill="none" stroke="#111" stroke-miterlimit="10" stroke-width="1.143"/><g data-name="그룹 370686"><g data-name="그룹 370685" clip-path="url(#b)" transform="translate(37.571 70.143)" opacity=".12"><path data-name="패스 748238" d="M24.857 5.143c0 2.857-5.571 5.143-12.429 5.143S0 8 0 5.143 5.571 0 12.429 0s12.429 2.286 12.429 5.143"/></g></g><path data-name="선 104730" fill="none" stroke="#111" stroke-miterlimit="10" stroke-width="1.143" d="M72 39.143v6"/><path data-name="선 104731" fill="none" stroke="#111" stroke-miterlimit="10" stroke-width="1.143" d="M28 39.143v6"/></g></g></svg>