<svg xmlns="http://www.w3.org/2000/svg" xmlns:xlink="http://www.w3.org/1999/xlink" width="66" height="70" viewBox="0 0 66 70">
  <defs>
    <clipPath id="clip-path">
      <rect id="사각형_448324" data-name="사각형 448324" width="66" height="70" transform="translate(594 703)" fill="red" opacity="0.115"/>
    </clipPath>
    <clipPath id="clip-path-2">
      <rect id="사각형_432828" data-name="사각형 432828" width="66" height="63" transform="translate(0.195 -0.264)" fill="none"/>
    </clipPath>
    <clipPath id="clip-path-3">
      <rect id="사각형_432827" data-name="사각형 432827" width="66" height="63" transform="translate(-0.061 -0.264)" fill="none"/>
    </clipPath>
    <clipPath id="clip-path-4">
      <rect id="사각형_432826" data-name="사각형 432826" width="8.18" height="16.069" fill="none"/>
    </clipPath>
  </defs>
  <g id="마스크_그룹_422901" data-name="마스크 그룹 422901" transform="translate(-594 -703)" clip-path="url(#clip-path)">
    <g id="그룹_619583" data-name="그룹 619583" transform="translate(335 -375)">
      <g id="그룹_583329" data-name="그룹 583329" transform="translate(18974 17910)">
        <g id="그룹_583326" data-name="그룹 583326" transform="translate(11 -32)">
          <g id="그룹_581853" data-name="그룹 581853" transform="translate(-19655 -17361)">
            <g id="그룹_572879" data-name="그룹 572879" transform="translate(670 507)">
              <g id="bg" transform="translate(30 153)" fill="#f9f9f9" stroke="#f0f0f0" stroke-width="1">
                <rect width="315" height="89" rx="1" stroke="none"/>
                <rect x="0.5" y="0.5" width="314" height="88" rx="0.5" fill="none"/>
              </g>
              <text id="골드_회원_전용" data-name="골드 회원 전용" transform="translate(55 191)" fill="#111" font-size="15" font-family="MoebiusKorea-Regular, Moebius Korea" letter-spacing="-0.03em"><tspan x="0" y="0">골드 회원 전용</tspan></text>
              <text id="스피드메이트_정비_혜택" data-name="스피드메이트 정비 혜택" transform="translate(55 213)" fill="#3673ee" font-size="15" font-family="MoebiusKorea-Regular, Moebius Korea" letter-spacing="-0.03em"><tspan x="0" y="0">스피드메이트 정비 혜택</tspan></text>
            </g>
          </g>
        </g>
        <g id="그룹_583744" data-name="그룹 583744" transform="translate(-18938.275 -16991.92)">
          <ellipse id="타원_13723" data-name="타원 13723" cx="14.5" cy="1.5" rx="14.5" ry="1.5" transform="translate(242.275 325.92)" fill="#e6e6e6"/>
          <g id="그룹_583742" data-name="그룹 583742" transform="matrix(0.643, 0.766, -0.766, 0.643, -46.199, -226.883)">
            <path id="패스_1457374" data-name="패스 1457374" d="M608.612,114.142V101.5a8.539,8.539,0,0,0,.01-15.571l-.019.01-1.915,1.111-.486.287c-.009,0-.009-.009-.017-.009v5.457l-1.038.584-3.466-1.944v-5.5l-2.428,1.4a8.529,8.529,0,0,0,0,15.576V115.56a8.523,8.523,0,0,0,0,15.568l2.428-1.406v-5.449l1.04-.585,3.462,1.946v5.486l.042-.017c.519-.24,2.556-1.177,2.556-1.177,2-1.095,4.88-4.628,4.88-8A8.52,8.52,0,0,0,608.612,114.142Z" transform="translate(-2 -1.064)" fill="#fff"/>
            <path id="패스_1457369" data-name="패스 1457369" d="M607.9,114.477v-12.64a8.539,8.539,0,0,0,.01-15.571l-.019.01-1.915,1.111-.486.287c-.009,0-.009-.009-.017-.009v5.457l-1.038.584-3.466-1.944v-5.5l-2.428,1.4a8.529,8.529,0,0,0,0,15.576V115.9a8.523,8.523,0,0,0,0,15.568l2.428-1.406v-5.449l1.04-.585,3.462,1.946v5.486l.042-.017c.519-.24,2.556-1.177,2.556-1.177,2-1.095,4.88-4.628,4.88-8A8.52,8.52,0,0,0,607.9,114.477Z" transform="translate(1.3 -2.828)" fill="#dadee5"/>
            <g id="그룹_583741" data-name="그룹 583741" transform="translate(592.196 84.867)">
              <path id="패스_1457370" data-name="패스 1457370" d="M599.9,124.97v5.449l-2.423,1.408" transform="translate(-592.42 -86.628)" fill="none" stroke="#333" stroke-linejoin="round" stroke-width="1.3"/>
              <path id="패스_1457371" data-name="패스 1457371" d="M607.134,128.491v.23a8.533,8.533,0,0,0,.01-15.58V100.5a8.539,8.539,0,0,0,.01-15.571l-.019.01-1.915,1.111-.488.287" transform="translate(-592.728 -84.93)" fill="none" stroke="#333" stroke-linejoin="round" stroke-width="1.3"/>
              <path id="패스_1457372" data-name="패스 1457372" d="M604.4,91.786l-1.034.584L599.9,90.427v-5.5l-2.423,1.4" transform="translate(-592.42 -84.93)" fill="none" stroke="#333" stroke-linejoin="round" stroke-width="1.3"/>
              <path id="패스_1457373" data-name="패스 1457373" d="M609.236,122.4a8.418,8.418,0,0,1-2.633,6.157,5.235,5.235,0,0,1-.488.431,2.473,2.473,0,0,1-.4.306l-.01.01a9.123,9.123,0,0,1-1.475.862l-.048.019v-5.487l-3.457-1.944-1.044.584-.488.278-1.934,1.082v5.5a8.522,8.522,0,0,1,0-15.571V101.97a8.528,8.528,0,0,1,0-15.58v5.5l3.467,1.944,3.457-1.944v-5.5c.01,0,.01.01.019.01a7.9,7.9,0,0,1,1.915,1.187A8.53,8.53,0,0,1,608.5,97.651a8.288,8.288,0,0,1-2,2.8c-.134.124-.268.239-.412.354a8.856,8.856,0,0,1-1.906,1.168v12.64A8.478,8.478,0,0,1,609.236,122.4Z" transform="translate(-592.196 -84.992)" fill="none" stroke="#333" stroke-linejoin="round" stroke-width="1.3"/>
            </g>
            <rect id="사각형_434478" data-name="사각형 434478" width="2.497" height="10.898" rx="1.249" transform="translate(599.821 102.091)" fill="#0a0e26" opacity="0.4"/>
          </g>
          <g id="그룹_583703" data-name="그룹 583703" transform="translate(-74.128 -1.846)">
            <line id="선_169688" data-name="선 169688" x1="3.067" y1="3.072" transform="translate(336.792 333.127)" fill="none" stroke="#111" stroke-linecap="round" stroke-linejoin="round" stroke-width="1.5"/>
            <line id="선_169689" data-name="선 169689" y1="3.072" x2="3.067" transform="translate(336.792 333.127)" fill="none" stroke="#111" stroke-linecap="round" stroke-linejoin="round" stroke-width="1.5"/>
            <path id="패스_1457352" data-name="패스 1457352" d="M10.036,32.9A1.639,1.639,0,1,1,8.4,34.539,1.637,1.637,0,0,1,10.036,32.9Z" transform="translate(294.958 274.058)" fill="none" stroke="#111" stroke-miterlimit="10" stroke-width="1.5"/>
            <line id="선_169690" data-name="선 169690" x1="3.067" y1="2.97" transform="translate(315.525 274.493)" fill="none" stroke="#111" stroke-linecap="round" stroke-linejoin="round" stroke-width="1.5"/>
            <line id="선_169691" data-name="선 169691" y1="2.97" x2="3.067" transform="translate(315.525 274.493)" fill="none" stroke="#111" stroke-linecap="round" stroke-linejoin="round" stroke-width="1.5"/>
            <line id="선_169692" data-name="선 169692" x1="2.352" y1="2.355" transform="translate(356.276 284.323)" fill="none" stroke="#111" stroke-linecap="round" stroke-linejoin="round" stroke-width="1.5"/>
            <line id="선_169693" data-name="선 169693" y1="2.355" x2="2.352" transform="translate(356.276 284.323)" fill="none" stroke="#111" stroke-linecap="round" stroke-linejoin="round" stroke-width="1.5"/>
            <path id="패스_1457353" data-name="패스 1457353" d="M9.122,10.8A1.024,1.024,0,1,1,8.1,11.824,1.023,1.023,0,0,1,9.122,10.8" transform="translate(294.952 273.524)" fill="#111"/>
            <path id="패스_1457354" data-name="패스 1457354" d="M47.022,7.5A1.024,1.024,0,1,1,46,8.524,1.023,1.023,0,0,1,47.022,7.5" transform="translate(298.802 270.445)" fill="#111"/>
          </g>
        </g>
      </g>
    </g>
    <g id="그룹_619585" data-name="그룹 619585" transform="translate(335 -484)">
      <g id="그룹_581833" data-name="그룹 581833" transform="translate(0 517)">
        <g id="bg-2" data-name="bg" transform="translate(30 660)" fill="#f9f9f9" stroke="#f0f0f0" stroke-width="1">
          <rect width="315" height="89" rx="1" stroke="none"/>
          <rect x="0.5" y="0.5" width="314" height="88" rx="0.5" fill="none"/>
        </g>
        <text id="주유_및_세차_이용_시" data-name="주유 및 세차 이용 시" transform="translate(115 698)" fill="#111" font-size="15" font-family="MoebiusKorea-Regular, Moebius Korea" letter-spacing="-0.03em"><tspan x="-59.625" y="0">주유 및 세차 이용 시</tspan></text>
        <text id="쿠폰_사용" data-name="쿠폰 사용" transform="translate(55 720)" fill="#3673ee" font-size="15" font-family="MoebiusKorea-Regular, Moebius Korea" letter-spacing="-0.03em"><tspan x="0" y="0">쿠폰 사용</tspan></text>
      </g>
      <g id="그룹_581837" data-name="그룹 581837" transform="translate(258.805 1192.264)" clip-path="url(#clip-path-2)">
        <g id="그룹_581836" data-name="그룹 581836" transform="translate(0.256 0)" clip-path="url(#clip-path-3)">
          <path id="패스_1454199" data-name="패스 1454199" d="M50.323,47.725,32.328,51a1.534,1.534,0,0,1-1.738-1.229L26.5,27.037a1.537,1.537,0,0,1,.613-1.434l7.771-8.3A1.532,1.532,0,0,1,36.214,17l10.224,5.018a1.535,1.535,0,0,1,1.022,1.127l4.09,22.736a1.536,1.536,0,0,1-1.227,1.843h0" transform="translate(0.304 0.409)" fill="#4185f2"/>
          <path id="패스_1454200" data-name="패스 1454200" d="M48.123,47.125l-18,3.175a1.534,1.534,0,0,1-1.738-1.229L24.3,26.336a1.537,1.537,0,0,1,.613-1.434l7.771-8.3a1.532,1.532,0,0,1,1.329-.2L44.238,21.42a1.535,1.535,0,0,1,1.022,1.127l4.09,22.736a1.536,1.536,0,0,1-1.227,1.741Z" transform="translate(0.255 0.394)" fill="none" stroke="#333" stroke-miterlimit="10" stroke-width="1.3"/>
          <path id="패스_1454201" data-name="패스 1454201" d="M41.533,45.273h-18.3A1.535,1.535,0,0,1,21.8,43.737V20.694a1.536,1.536,0,0,1,.818-1.331l9.1-6.759a1.531,1.531,0,0,1,1.329,0l9.1,6.759a1.536,1.536,0,0,1,.818,1.331V43.737a1.535,1.535,0,0,1-1.534,1.536Z" transform="translate(0.199 0.3)" fill="#fff"/>
          <path id="패스_1454202" data-name="패스 1454202" d="M43.533,46.273h-18.3A1.535,1.535,0,0,1,23.8,44.737V21.694a1.536,1.536,0,0,1,.818-1.331l9.1-6.759a1.531,1.531,0,0,1,1.329,0l9.1,6.759a1.536,1.536,0,0,1,.818,1.331V44.737a1.535,1.535,0,0,1-1.534,1.536Z" transform="translate(0.244 0.324)" fill="#4185f2"/>
          <path id="패스_1454203" data-name="패스 1454203" d="M41.533,45.273h-18.3A1.535,1.535,0,0,1,21.8,43.737V20.694a1.536,1.536,0,0,1,.818-1.331l9.1-6.759a1.531,1.531,0,0,1,1.329,0l9.1,6.759a1.536,1.536,0,0,1,.818,1.331V43.737a1.535,1.535,0,0,1-1.534,1.536Z" transform="translate(0.199 0.3)" fill="none" stroke="#333" stroke-miterlimit="10" stroke-width="1.3"/>
          <path id="패스_1454204" data-name="패스 1454204" d="M32.483,18.1a2.714,2.714,0,1,0,.1.1" transform="translate(0.354 0.436)" fill="#fff"/>
          <ellipse id="타원_13613" data-name="타원 13613" cx="3.067" cy="3.072" rx="3.067" ry="3.072" transform="translate(29.77 19.356)" fill="none" stroke="#333" stroke-width="1.5"/>
          <g id="그룹_581835" data-name="그룹 581835" transform="translate(28.134 27.651)" opacity="0.9">
            <g id="그룹_581834" data-name="그룹 581834" clip-path="url(#clip-path-4)">
              <path id="패스_1457248" data-name="패스 1457248" d="M6.44-6.23a3.037,3.037,0,0,0-1.708-.518,2.092,2.092,0,0,0-1.666.658A2.552,2.552,0,0,0,2.548-4.4a2.777,2.777,0,0,0,.574,1.862,1.645,1.645,0,0,0,1.316.616,2.821,2.821,0,0,0,1.274-.266,1.416,1.416,0,0,1,.63-.168.718.718,0,0,1,.5.182.609.609,0,0,1,.2.476q0,.6-.966,1.008a4.331,4.331,0,0,1-1.792.364A3.692,3.692,0,0,1,1.6-1.288,4,4,0,0,1,.518-4.312a4.285,4.285,0,0,1,.588-2.3A3.839,3.839,0,0,1,4.62-8.344a5.666,5.666,0,0,1,2.408.518Z" transform="translate(0 11.976)" fill="#fff"/>
            </g>
          </g>
          <path id="패스_1454205" data-name="패스 1454205" d="M33.132,19.328c-3.272,0-6.032-3.072-6.032-6.964S29.758,5.4,33.132,5.4s6.032,3.072,6.032,6.964v2.663" transform="translate(0.318 0.13)" fill="none" stroke="#333" stroke-linecap="round" stroke-miterlimit="10" stroke-width="1.5"/>
          <line id="선_167156" data-name="선 167156" x1="3.067" y1="3.072" transform="translate(41.732 57.863)" fill="none" stroke="#111" stroke-linecap="round" stroke-linejoin="round" stroke-width="1.5"/>
          <line id="선_167157" data-name="선 167157" y1="3.072" x2="3.067" transform="translate(41.732 57.863)" fill="none" stroke="#111" stroke-linecap="round" stroke-linejoin="round" stroke-width="1.5"/>
          <path id="패스_1454206" data-name="패스 1454206" d="M10.036,32.9A1.639,1.639,0,1,1,8.4,34.539,1.637,1.637,0,0,1,10.036,32.9Z" transform="translate(-0.102 0.793)" fill="none" stroke="#111" stroke-miterlimit="10" stroke-width="1.5"/>
          <line id="선_167158" data-name="선 167158" x1="3.067" y1="2.97" transform="translate(20.465 1.229)" fill="none" stroke="#111" stroke-linecap="round" stroke-linejoin="round" stroke-width="1.5"/>
          <line id="선_167159" data-name="선 167159" y1="2.97" x2="3.067" transform="translate(20.465 1.229)" fill="none" stroke="#111" stroke-linecap="round" stroke-linejoin="round" stroke-width="1.5"/>
          <line id="선_167160" data-name="선 167160" x1="2.352" y1="2.355" transform="translate(59.216 12.904)" fill="none" stroke="#111" stroke-linecap="round" stroke-linejoin="round" stroke-width="1.5"/>
          <line id="선_167161" data-name="선 167161" y1="2.355" x2="2.352" transform="translate(59.216 12.904)" fill="none" stroke="#111" stroke-linecap="round" stroke-linejoin="round" stroke-width="1.5"/>
          <path id="패스_1454207" data-name="패스 1454207" d="M9.122,10.8A1.024,1.024,0,1,1,8.1,11.824,1.023,1.023,0,0,1,9.122,10.8" transform="translate(-0.109 0.26)" fill="#111"/>
          <path id="패스_1454208" data-name="패스 1454208" d="M47.022,7.5A1.024,1.024,0,1,1,46,8.524,1.023,1.023,0,0,1,47.022,7.5" transform="translate(0.742 0.181)" fill="#111"/>
        </g>
        <ellipse id="타원_13639" data-name="타원 13639" cx="14.5" cy="1.5" rx="14.5" ry="1.5" transform="translate(23.195 52.736)" fill="#e6e6e6"/>
        <g id="사각형_448323" data-name="사각형 448323" transform="translate(212.195 9.736)" fill="#fff" stroke="#707070" stroke-width="1">
          <rect width="99" height="91" stroke="none"/>
          <rect x="0.5" y="0.5" width="98" height="90" fill="none"/>
        </g>
      </g>
    </g>
  </g>
</svg>
