<svg xmlns="http://www.w3.org/2000/svg" width="28" height="28"><defs><clipPath id="a"><path data-name="사각형 290776" fill="none" d="M0 0h28v28H0z"/></clipPath></defs><g data-name="그룹 380092" clip-path="url(#a)"><g data-name="그룹 380091" clip-path="url(#a)"><path data-name="패스 769936" d="M19.8 10.2a6.5 6.5 0 01-2.2-.4H9.2a6.5 6.5 0 0112.3-.1 2.6 2.6 0 01-1.8.6" fill="#ff8d8d"/><path data-name="패스 769937" d="M15.4 5.7A6 6 0 0121 9.4a2.5 2.5 0 01-1.2.3 6 6 0 01-2-.4H10a6 6 0 015.5-3.5m0-1a7 7 0 00-6.8 5.5h8.8a6.9 6.9 0 002.3.5 2.8 2.8 0 002.4-1 7 7 0 00-6.7-5z" fill="#ff8d8d"/><path data-name="패스 769938" d="M8.5 22.2v4h10v-4" fill="none" stroke="#111" stroke-linejoin="round" stroke-width="1.5"/><path data-name="패스 769939" d="M23 11v3.2a9.5 9.5 0 11-19 0v-3h9" fill="none" stroke="#111" stroke-linejoin="round" stroke-width="1.5"/><path data-name="패스 769940" d="M15.4 11.2c3.5 1.3 4.7-.5 4.7-.5a7 7 0 00-13.6.5" fill="none" stroke="#111" stroke-linecap="round" stroke-linejoin="round" stroke-width="1.5"/><path data-name="선 108660" fill="none" stroke="#111" stroke-linejoin="round" stroke-width="1.5" d="M20 9l5.4-4.3"/><path data-name="선 108661" fill="none" stroke="#111" stroke-linejoin="round" stroke-width="1.5" d="M18 7l4.5-5.2"/></g></g></svg>