<svg xmlns="http://www.w3.org/2000/svg" width="40" height="40"><g data-name="그룹 260107"><path data-name="패스 580159" d="M3.758 3.96v22.449a4.017 4.017 0 002.008 3.479l11.42 6.593a4.015 4.015 0 004.017 0l11.421-6.593a4.019 4.019 0 002.008-3.479V3.96z" fill="#fff"/><path data-name="패스 580158" d="M5.138 6.154v20.533a3.965 3.965 0 002.007 3.439l11.4 6.519a4.05 4.05 0 004.012 0l11.406-6.519a3.965 3.965 0 002.007-3.439V6.154a.905.905 0 00-.91-.9H6.047a.9.9 0 00-.909.9z" fill="#fddb2b"/><path data-name="패스 580159" d="M3.758 3.96v22.449a4.017 4.017 0 002.008 3.479l11.42 6.593a4.015 4.015 0 004.017 0l11.421-6.593a4.019 4.019 0 002.008-3.479V3.96z" fill="none" stroke="#fccb3a" stroke-linejoin="round"/></g><g data-name="그룹 262705"><g data-name="그룹 260169"><path data-name="Path 239343-2" d="M20.2 12.394a7.622 7.622 0 11-7.56 7.686v-.128a7.624 7.624 0 017.56-7.558" fill="#fff"/><path data-name="Path 239344-2" d="M13.119 16.814a7.436 7.436 0 011.421-2" fill="none" stroke="#111" stroke-linecap="square" stroke-linejoin="round"/><path data-name="Path 239345-2" d="M14.476 10.355s0 2.967 1.808 2.967h.129a7.623 7.623 0 11-3.294 3.493" fill="none" stroke="#111" stroke-linecap="round" stroke-linejoin="round"/><path data-name="Path 239346-2" d="M16.934 10.936s-.47 1.694.562 1.887" fill="none" stroke="#111" stroke-linecap="round" stroke-linejoin="round"/><path data-name="Path 239347-2" d="M20.289 20.885a1.486 1.486 0 01-2.907 0" fill="none" stroke="#111" stroke-linecap="square" stroke-miterlimit="10"/><path data-name="Line 26071-3" fill="none" stroke="#111" stroke-linecap="round" d="M21.13 18.13v.3"/><path data-name="Line 26071-4" fill="none" stroke="#111" d="M21.13 16.815v1.315"/><path data-name="Line 26072-3" fill="none" stroke="#111" stroke-linecap="round" d="M16.607 17.995v.435"/><path data-name="Line 26072-4" fill="none" stroke="#111" d="M16.607 16.815v1.18"/><path data-name="사각형 214890-2" fill="none" d="M11.343 10.129h19v19h-19z"/></g></g><path data-name="패스 585529" d="M25 11.578l-2.582-.7 1.559 2.435-1.518 2.46 2.708-1.083 1.933 2.339-.079-2.891 2.433-1.358-2.487-.67-.367-2.767z" fill="#fff" stroke="#111" stroke-linejoin="round"/></svg>