<svg xmlns="http://www.w3.org/2000/svg" xmlns:xlink="http://www.w3.org/1999/xlink" width="70" height="70" viewBox="0 0 70 70">
  <defs>
    <clipPath id="clip-path">
      <rect id="사각형_318455" data-name="사각형 318455" width="70" height="70" fill="none"/>
    </clipPath>
    <clipPath id="clip-path-3">
      <rect id="사각형_318451" data-name="사각형 318451" width="50.587" height="21.226" fill="none"/>
    </clipPath>
    <clipPath id="clip-path-4">
      <rect id="사각형_318452" data-name="사각형 318452" width="9.753" height="5.817" fill="none"/>
    </clipPath>
    <clipPath id="clip-path-5">
      <rect id="사각형_318453" data-name="사각형 318453" width="5.577" height="3.513" fill="none"/>
    </clipPath>
  </defs>
  <g id="illust_repair_main_110" transform="translate(35 35)">
    <g id="그룹_422816" data-name="그룹 422816" transform="translate(-35 -35)" clip-path="url(#clip-path)">
      <g id="그룹_422815" data-name="그룹 422815" clip-path="url(#clip-path)">
        <g id="그룹_422810" data-name="그룹 422810" transform="translate(14.338 38.92)" opacity="0.2">
          <g id="그룹_422809" data-name="그룹 422809" clip-path="url(#clip-path-3)">
            <path id="패스_840417" data-name="패스 840417" d="M173.593,337.392v2.03l-9.415,2.112-21.758,12.39s-1.143.455-1.458.28c0,0-.91.98-1.867.478s-12.728-7.3-15.832-9.088a.525.525,0,0,1-.023-.887l1.937-1.248,38.78-9.858,1.937,2.952s.91,1.318,1.365,2.112l.093.175Z" transform="translate(-122.995 -333.6)"/>
          </g>
        </g>
        <path id="패스_840418" data-name="패스 840418" d="M132.9,171.732h0l7.3-2.672c.665-.245,1.622.257,2.322,1.213l.14.21.922,1.412,1.1,1.657,5.3,8.05h0l8.062-4.655-.712-.42a4.111,4.111,0,0,1-1.867-3.208V158.7Z" transform="translate(-117.395 -140.185)" fill="#e2e2e2"/>
        <path id="패스_840419" data-name="패스 840419" d="M132.9,171.732h0l7.3-2.672c.665-.245,1.622.257,2.322,1.213l.14.21.922,1.412,1.1,1.657,5.3,8.05h0l8.062-4.655-.712-.42a4.111,4.111,0,0,1-1.867-3.208V158.7Z" transform="translate(-117.395 -140.185)" fill="none" stroke="#222" stroke-linejoin="round" stroke-width="0.35"/>
        <path id="패스_840420" data-name="패스 840420" d="M142.8,244.77l21.525-12.67v13.137l-17.185,9.042Z" transform="translate(-126.14 -205.022)" fill="#222"/>
        <path id="패스_840421" data-name="패스 840421" d="M471.9,253.647a1.027,1.027,0,0,0,.758-.117,1.3,1.3,0,0,0,.525-1.178V237.5h0l-1.178.688v14.84a1.9,1.9,0,0,1-.093.618" transform="translate(-416.845 -209.792)" fill="#e2e2e2"/>
        <path id="패스_840422" data-name="패스 840422" d="M471.9,253.647a1.027,1.027,0,0,0,.758-.117,1.3,1.3,0,0,0,.525-1.178V237.5h0l-1.178.688v14.84A1.9,1.9,0,0,1,471.9,253.647Z" transform="translate(-416.845 -209.792)" fill="none" stroke="#222" stroke-linejoin="round" stroke-width="0.35"/>
        <path id="패스_840423" data-name="패스 840423" d="M336.4,132.234v14.618a4.08,4.08,0,0,0,1.867,3.208l.712.408,13.335-7.7,1.178-.688-7.3-11.107c-.712-1.085-1.75-1.68-2.462-1.423Z" transform="translate(-297.153 -114.384)" fill="#fff"/>
        <path id="패스_840424" data-name="패스 840424" d="M336.4,132.234v14.618a4.08,4.08,0,0,0,1.867,3.208l.712.408,13.335-7.7,1.178-.688-7.3-11.107c-.712-1.085-1.75-1.68-2.462-1.423Z" transform="translate(-297.153 -114.384)" fill="none" stroke="#222" stroke-linejoin="round" stroke-width="0.35"/>
        <path id="패스_840425" data-name="패스 840425" d="M101.43,151.085l-.642.583.093.012,1.528-1.377-.222-1.972-.968-.98-.84-.852h0l-.98.782v.012h0l1.808,1.832Z" transform="translate(-87.803 -129.408)" fill="none" stroke="#222" stroke-linejoin="round" stroke-width="0.35"/>
        <path id="패스_840426" data-name="패스 840426" d="M79.838,148.757l1.657,2.03,1.843.408.093.023,1.528-1.377-.222-1.972-.968-.98-.84-.852a4.072,4.072,0,0,1,4.55,5.518l10.512,11.678a1.785,1.785,0,0,1-.782,2.893h0a1.785,1.785,0,0,1-1.75-.373l-.128-.128-.677-.758-9.625-10.7-.2-.222a4,4,0,0,1-1,.152h-.233a4.06,4.06,0,0,1-3.745-5.332m16.088,16.1.28.047.455.07.548-.5V164.3h0l-.035-.548-.607-.432-.152.047-.56.163-.245.6-.035.093Z" transform="translate(-70.353 -128.935)" fill="#fff"/>
        <path id="패스_840427" data-name="패스 840427" d="M79.838,148.757l1.657,2.03,1.843.408.093.023,1.528-1.377-.222-1.972-.968-.98-.84-.852a4.072,4.072,0,0,1,4.55,5.518l10.512,11.678a1.785,1.785,0,0,1-.782,2.893h0a1.785,1.785,0,0,1-1.75-.373l-.128-.128-.677-.758-9.625-10.7-.2-.222a4,4,0,0,1-1,.152h-.233a4.06,4.06,0,0,1-3.745-5.332Zm16.1,16.112.28.047.455.07.548-.5V164.3h0l-.035-.548-.607-.432-.152.047-.56.163-.245.6-.035.093Z" transform="translate(-70.353 -128.935)" fill="none" stroke="#222" stroke-linejoin="round" stroke-width="0.35"/>
        <path id="패스_840428" data-name="패스 840428" d="M217.083,295.913l.023.385.455.07.548-.49-.012-.2h0l-.023-.548-.618-.432-.152.047-.56.163-.245.6Z" transform="translate(-191.242 -260.318)" fill="#e2e2e2"/>
        <path id="패스_840429" data-name="패스 840429" d="M217.083,295.913l.023.385.455.07.548-.49-.012-.2h0l-.023-.548-.618-.432-.152.047-.56.163-.245.6Z" transform="translate(-191.242 -260.318)" fill="none" stroke="#222" stroke-linejoin="round" stroke-width="0.35"/>
        <path id="패스_840430" data-name="패스 840430" d="M216.2,301.693l.362.653.28.047-.023-.385-.583-.408Z" transform="translate(-190.977 -266.413)" fill="#222"/>
        <path id="패스_840431" data-name="패스 840431" d="M216.2,301.693l.362.653.28.047-.023-.385-.583-.408Z" transform="translate(-190.977 -266.413)" fill="none" stroke="#222" stroke-linejoin="round" stroke-width="0.35"/>
        <path id="패스_840432" data-name="패스 840432" d="M72.292,174.583a4.072,4.072,0,0,0,4.142,1.19l10.512,11.678a1.785,1.785,0,0,0,2.52.128,1.762,1.762,0,0,0,.338-.42,1.785,1.785,0,0,1-1.75-.373l-.128-.128-.677-.758-9.625-10.7-.2-.222a4,4,0,0,1-1,.152h-.233a4.072,4.072,0,0,1-3.745-5.332l-.98.782a4.072,4.072,0,0,0,.84,3.99" transform="translate(-62.947 -149.99)" fill="#e2e2e2"/>
        <path id="패스_840433" data-name="패스 840433" d="M72.247,174.583a4.072,4.072,0,0,0,4.142,1.19L86.9,187.452a1.785,1.785,0,0,0,2.52.128,1.761,1.761,0,0,0,.338-.42,1.785,1.785,0,0,1-1.75-.373l-.128-.128L87.2,185.9l-9.625-10.7-.2-.222a4,4,0,0,1-1,.152h-.233A4.072,4.072,0,0,1,72.4,169.8l-.98.782A4.072,4.072,0,0,0,72.247,174.583Z" transform="translate(-62.902 -149.99)" fill="none" stroke="#222" stroke-linejoin="round" stroke-width="0.35"/>
        <line id="선_126358" data-name="선 126358" y1="0.012" transform="translate(12.577 17.08)" fill="none" stroke="#222" stroke-linejoin="round" stroke-width="0.35"/>
        <path id="패스_840434" data-name="패스 840434" d="M119.188,186.057l-.77-.957-2.018,1.633.793.98Z" transform="translate(-102.82 -163.505)" fill="none" stroke="#222" stroke-linejoin="round" stroke-width="0.35"/>
        <line id="선_126359" data-name="선 126359" x1="0.782" y1="0.968" transform="translate(15.108 22.085)" fill="none" stroke="#222" stroke-linejoin="round" stroke-width="0.35"/>
        <line id="선_126360" data-name="선 126360" x1="0.782" y1="0.968" transform="translate(14.583 22.493)" fill="none" stroke="#222" stroke-linejoin="round" stroke-width="0.35"/>
        <line id="선_126361" data-name="선 126361" x1="0.782" y1="0.957" transform="translate(14.117 22.902)" fill="none" stroke="#222" stroke-linejoin="round" stroke-width="0.35"/>
        <path id="패스_840435" data-name="패스 840435" d="M326.2,138.023v14.618a4.093,4.093,0,0,0,1.867,3.208l.712.42,1.167-.677,13.335-7.7h0l-6.487-9.858-.817-1.26c-.712-1.085-1.75-1.68-2.462-1.423l-6.125,2.24-1.178.432Z" transform="translate(-288.143 -119.508)" fill="#cacaca"/>
        <path id="패스_840436" data-name="패스 840436" d="M326.2,138.023v14.618a4.093,4.093,0,0,0,1.867,3.208l.712.42,1.167-.677,13.335-7.7h0l-6.487-9.858-.817-1.26c-.712-1.085-1.75-1.68-2.462-1.423l-6.125,2.24-1.178.432Z" transform="translate(-288.143 -119.508)" fill="none" stroke="#222" stroke-linejoin="round" stroke-width="0.35"/>
        <path id="패스_840437" data-name="패스 840437" d="M382.072,322.2l-3.372-.8,2.322.1,3.372.805Z" transform="translate(-334.518 -283.903)" fill="#fff"/>
        <path id="패스_840438" data-name="패스 840438" d="M382.072,322.2l-3.372-.8,2.322.1,3.372.805Z" transform="translate(-334.518 -283.903)" fill="none" stroke="#222" stroke-linejoin="round" stroke-width="0.35"/>
        <path id="패스_840439" data-name="패스 840439" d="M352.7,410l.222.047-.082.047Z" transform="translate(-311.552 -362.167)" fill="#fff"/>
        <path id="패스_840440" data-name="패스 840440" d="M352.7,410l.222.047-.082.047Z" transform="translate(-311.552 -362.167)" fill="none" stroke="#222" stroke-linejoin="round" stroke-width="0.35"/>
        <path id="패스_840441" data-name="패스 840441" d="M356.472,266.187l-3.372-.8,1.948-2.182,3.372.8Z" transform="translate(-311.905 -232.493)" fill="#c6c6c6"/>
        <path id="패스_840442" data-name="패스 840442" d="M356.472,266.187l-3.372-.8,1.948-2.182,3.372.8Z" transform="translate(-311.905 -232.493)" fill="none" stroke="#222" stroke-linejoin="round" stroke-width="0.35"/>
        <path id="패스_840443" data-name="패스 840443" d="M312.235,426.138l-.023.012-1.26.735-.152-1.073V425.8Z" transform="translate(-274.54 -376.123)" fill="#fff"/>
        <path id="패스_840444" data-name="패스 840444" d="M312.235,426.138l-.023.012-1.26.735-.152-1.073V425.8Z" transform="translate(-274.54 -376.123)" fill="none" stroke="#222" stroke-linejoin="round" stroke-width="0.35"/>
        <path id="패스_840445" data-name="패스 840445" d="M386.4,341.4h0" transform="translate(-341.32 -301.57)" fill="#e2e2e2"/>
        <path id="패스_840446" data-name="패스 840446" d="M386.4,341.4Z" transform="translate(-341.32 -301.57)" fill="none" stroke="#222" stroke-linejoin="round" stroke-width="3"/>
        <path id="패스_840447" data-name="패스 840447" d="M386.4,342.6h0" transform="translate(-341.32 -302.63)" fill="#e2e2e2"/>
        <path id="패스_840448" data-name="패스 840448" d="M386.4,342.6Z" transform="translate(-341.32 -302.63)" fill="none" stroke="#222" stroke-linejoin="round" stroke-width="3"/>
        <path id="패스_840449" data-name="패스 840449" d="M386.4,341.3h0" transform="translate(-341.32 -301.482)" fill="#e2e2e2"/>
        <path id="패스_840450" data-name="패스 840450" d="M386.4,341.3Z" transform="translate(-341.32 -301.482)" fill="none" stroke="#222" stroke-linejoin="round" stroke-width="3"/>
        <path id="패스_840451" data-name="패스 840451" d="M386.4,341.4h0" transform="translate(-341.32 -301.57)" fill="#e2e2e2"/>
        <path id="패스_840452" data-name="패스 840452" d="M386.4,341.4Z" transform="translate(-341.32 -301.57)" fill="none" stroke="#222" stroke-linejoin="round" stroke-width="3"/>
        <path id="패스_840453" data-name="패스 840453" d="M386.4,342.7h0" transform="translate(-341.32 -302.718)" fill="#e2e2e2"/>
        <path id="패스_840454" data-name="패스 840454" d="M386.4,342.7Z" transform="translate(-341.32 -302.718)" fill="none" stroke="#222" stroke-linejoin="round" stroke-width="3"/>
        <path id="패스_840455" data-name="패스 840455" d="M386.7,348.3h0" transform="translate(-341.585 -307.665)" fill="#e2e2e2"/>
        <path id="패스_840456" data-name="패스 840456" d="M386.7,348.3Z" transform="translate(-341.585 -307.665)" fill="none" stroke="#222" stroke-linejoin="round" stroke-width="3"/>
        <path id="패스_840457" data-name="패스 840457" d="M386.435,343.253l-.035-.653.035.653" transform="translate(-341.32 -302.63)" fill="#e2e2e2"/>
        <path id="패스_840458" data-name="패스 840458" d="M386.435,343.253l-.035-.653Z" transform="translate(-341.32 -302.63)" fill="none" stroke="#222" stroke-linejoin="round" stroke-width="0.35"/>
        <path id="패스_840459" data-name="패스 840459" d="M386.4,341.1h0" transform="translate(-341.32 -301.305)" fill="#e2e2e2"/>
        <path id="패스_840460" data-name="패스 840460" d="M386.4,341.1Z" transform="translate(-341.32 -301.305)" fill="none" stroke="#222" stroke-linejoin="round" stroke-width="3"/>
        <path id="패스_840461" data-name="패스 840461" d="M386.8,348.7h0" transform="translate(-341.673 -308.018)" fill="#e2e2e2"/>
        <path id="패스_840462" data-name="패스 840462" d="M386.8,348.7Z" transform="translate(-341.673 -308.018)" fill="none" stroke="#222" stroke-linejoin="round" stroke-width="3"/>
        <path id="패스_840463" data-name="패스 840463" d="M323.453,312.925c-.1-2.065-1.155-3.582-2.578-3.92l-3.372-.8a2.7,2.7,0,0,1,.84.362,3.174,3.174,0,0,1,.712.642,4.014,4.014,0,0,1,.548.875,5.1,5.1,0,0,1,.362,1.085,6.3,6.3,0,0,1,.128,1.307,7.21,7.21,0,0,1-.642,2.963,6.464,6.464,0,0,1-.747,1.26,5.11,5.11,0,0,1-.992.992,3.686,3.686,0,0,1-1.248.618l-.175.035-.362.047a2.707,2.707,0,0,1-.5-.012l-.327-.058,3.372.8.327.058a2.707,2.707,0,0,0,.5.012l.362-.047a3.547,3.547,0,0,0,1.3-.56,4.493,4.493,0,0,0,.455-.362,5.542,5.542,0,0,0,.9-1.05,6.745,6.745,0,0,0,.677-1.318,7.234,7.234,0,0,0,.4-1.47,7.025,7.025,0,0,0,.082-1.447" transform="translate(-278.338 -272.243)" fill="#e2e2e2"/>
        <path id="패스_840464" data-name="패스 840464" d="M323.453,312.925c-.1-2.065-1.155-3.582-2.578-3.92l-3.372-.8a2.7,2.7,0,0,1,.84.362,3.174,3.174,0,0,1,.712.642,4.014,4.014,0,0,1,.548.875,5.1,5.1,0,0,1,.362,1.085,6.3,6.3,0,0,1,.128,1.307,7.21,7.21,0,0,1-.642,2.963,6.464,6.464,0,0,1-.747,1.26,5.11,5.11,0,0,1-.992.992,3.686,3.686,0,0,1-1.248.618l-.175.035-.362.047a2.707,2.707,0,0,1-.5-.012l-.327-.058,3.372.8.327.058a2.707,2.707,0,0,0,.5.012l.362-.047a3.547,3.547,0,0,0,1.3-.56,4.493,4.493,0,0,0,.455-.362,5.542,5.542,0,0,0,.9-1.05,6.745,6.745,0,0,0,.677-1.318,7.234,7.234,0,0,0,.4-1.47A7.024,7.024,0,0,0,323.453,312.925Z" transform="translate(-278.338 -272.243)" fill="none" stroke="#222" stroke-linejoin="round" stroke-width="0.35"/>
        <path id="패스_840465" data-name="패스 840465" d="M386.7,348.3v.047h0V348.3" transform="translate(-341.585 -307.665)" fill="#e2e2e2"/>
        <path id="패스_840466" data-name="패스 840466" d="M386.7,348.3v.047h0Z" transform="translate(-341.585 -307.665)" fill="none" stroke="#222" stroke-linejoin="round" stroke-width="0.35"/>
        <path id="패스_840467" data-name="패스 840467" d="M386.4,341.1h0" transform="translate(-341.32 -301.305)" fill="#e2e2e2"/>
        <path id="패스_840468" data-name="패스 840468" d="M386.4,341.1Z" transform="translate(-341.32 -301.305)" fill="none" stroke="#222" stroke-linejoin="round" stroke-width="3"/>
        <path id="패스_840469" data-name="패스 840469" d="M386.4,341.2h0" transform="translate(-341.32 -301.393)" fill="#e2e2e2"/>
        <path id="패스_840470" data-name="패스 840470" d="M386.4,341.2Z" transform="translate(-341.32 -301.393)" fill="none" stroke="#222" stroke-linejoin="round" stroke-width="3"/>
        <path id="패스_840471" data-name="패스 840471" d="M386.4,341Z" transform="translate(-341.32 -301.217)" fill="#e2e2e2"/>
        <path id="패스_840472" data-name="패스 840472" d="M386.4,341Z" transform="translate(-341.32 -301.217)" fill="none" stroke="#222" stroke-linejoin="round" stroke-width="3"/>
        <path id="패스_840473" data-name="패스 840473" d="M386.4,341h0" transform="translate(-341.32 -301.217)" fill="#e2e2e2"/>
        <path id="패스_840474" data-name="패스 840474" d="M386.4,341Z" transform="translate(-341.32 -301.217)" fill="none" stroke="#222" stroke-linejoin="round" stroke-width="3"/>
        <path id="패스_840475" data-name="패스 840475" d="M340.338,277.37,340,277.3l3.372.8.338.07Z" transform="translate(-300.333 -244.948)" fill="#fff"/>
        <path id="패스_840476" data-name="패스 840476" d="M340.338,277.37,340,277.3l3.372.8.338.07Z" transform="translate(-300.333 -244.948)" fill="none" stroke="#222" stroke-linejoin="round" stroke-width="0.35"/>
        <path id="패스_840477" data-name="패스 840477" d="M300.64,422l-1.412-.338-.338-.082a4.434,4.434,0,0,1-1.085-.42l-.105-.058.117.023,3.057.723" transform="translate(-262.968 -371.972)" fill="#fff"/>
        <path id="패스_840478" data-name="패스 840478" d="M300.64,422l-1.412-.338-.338-.082a4.434,4.434,0,0,1-1.085-.42l-.105-.058.117.023,3.057.723" transform="translate(-262.968 -371.972)" fill="none" stroke="#222" stroke-linejoin="round" stroke-width="0.35"/>
        <path id="패스_840479" data-name="패스 840479" d="M314.572,259.89l-3.372-.805.443-3.185,3.372.793Z" transform="translate(-274.893 -226.045)" fill="#e2e2e2"/>
        <path id="패스_840480" data-name="패스 840480" d="M314.572,259.89l-3.372-.805.443-3.185,3.372.793Z" transform="translate(-274.893 -226.045)" fill="none" stroke="#222" stroke-linejoin="round" stroke-width="0.35"/>
        <path id="패스_840481" data-name="패스 840481" d="M318.372,252.807,315,252.013l2.5-.513,3.372.805Z" transform="translate(-278.25 -222.158)" fill="#fff"/>
        <path id="패스_840482" data-name="패스 840482" d="M318.372,252.807,315,252.013l2.5-.513,3.372.805Z" transform="translate(-278.25 -222.158)" fill="none" stroke="#222" stroke-linejoin="round" stroke-width="0.35"/>
        <path id="패스_840483" data-name="패스 840483" d="M299.628,283.2a6.936,6.936,0,0,0-.723.467,5.234,5.234,0,0,0-.56.467l-.245.222,3.372.8.245-.222q.28-.245.56-.467a6.959,6.959,0,0,1,.723-.467Z" transform="translate(-263.322 -250.16)" fill="#e2e2e2"/>
        <path id="패스_840484" data-name="패스 840484" d="M299.628,283.2a6.936,6.936,0,0,0-.723.467,5.234,5.234,0,0,0-.56.467l-.245.222,3.372.8.245-.222q.28-.245.56-.467a6.959,6.959,0,0,1,.723-.467Z" transform="translate(-263.322 -250.16)" fill="none" stroke="#222" stroke-linejoin="round" stroke-width="0.35"/>
        <path id="패스_840485" data-name="패스 840485" d="M269.372,401.775l-3.372-.8,1.342-2.87,3.372.8Z" transform="translate(-234.967 -351.655)" fill="#fff"/>
        <path id="패스_840486" data-name="패스 840486" d="M269.372,401.775l-3.372-.8,1.342-2.87,3.372.8Z" transform="translate(-234.967 -351.655)" fill="none" stroke="#222" stroke-linejoin="round" stroke-width="0.35"/>
        <path id="패스_840487" data-name="패스 840487" d="M270.422,424.7l-.782.455-1.89-.443L266,422.7l3.372.8Z" transform="translate(-234.967 -373.385)" fill="#fff"/>
        <path id="패스_840488" data-name="패스 840488" d="M270.422,424.7l-.782.455-1.89-.443L266,422.7l3.372.8Z" transform="translate(-234.967 -373.385)" fill="none" stroke="#222" stroke-linejoin="round" stroke-width="0.35"/>
        <path id="패스_840489" data-name="패스 840489" d="M275.472,382.505l-3.372-.8a8.645,8.645,0,0,0,.63,1.913l3.372.8a8.633,8.633,0,0,1-.63-1.913" transform="translate(-240.355 -337.168)" fill="#fff"/>
        <path id="패스_840490" data-name="패스 840490" d="M275.472,382.505l-3.372-.8a8.645,8.645,0,0,0,.63,1.913l3.372.8A8.633,8.633,0,0,1,275.472,382.505Z" transform="translate(-240.355 -337.168)" fill="none" stroke="#222" stroke-linejoin="round" stroke-width="0.35"/>
        <path id="패스_840491" data-name="패스 840491" d="M272.842,324.5l-.14.362q-.187.513-.327,1.05t-.175.77l3.372.8q.082-.385.175-.77t.327-1.05l.14-.362Z" transform="translate(-240.443 -286.642)" fill="#e2e2e2"/>
        <path id="패스_840492" data-name="패스 840492" d="M272.842,324.5l-.14.362q-.187.513-.327,1.05t-.175.77l3.372.8q.082-.385.175-.77t.327-1.05l.14-.362Z" transform="translate(-240.443 -286.642)" fill="none" stroke="#222" stroke-linejoin="round" stroke-width="0.35"/>
        <path id="패스_840493" data-name="패스 840493" d="M271,307.727l-3.372-.8L266.3,304.6l3.372.793Z" transform="translate(-235.232 -269.063)" fill="#e2e2e2"/>
        <path id="패스_840494" data-name="패스 840494" d="M271,307.727l-3.372-.8L266.3,304.6l3.372.793Z" transform="translate(-235.232 -269.063)" fill="none" stroke="#222" stroke-linejoin="round" stroke-width="0.35"/>
        <path id="패스_840495" data-name="패스 840495" d="M269.672,284.812l-3.372-.793,1.773-2.718,3.372.793Z" transform="translate(-235.232 -248.482)" fill="#e2e2e2"/>
        <path id="패스_840496" data-name="패스 840496" d="M269.672,284.812l-3.372-.793,1.773-2.718,3.372.793Z" transform="translate(-235.232 -248.482)" fill="none" stroke="#222" stroke-linejoin="round" stroke-width="0.35"/>
        <path id="패스_840497" data-name="패스 840497" d="M255.583,356.342l-3.383-.8.012-3.337,3.372.793Z" transform="translate(-222.777 -311.11)" fill="#fff"/>
        <path id="패스_840498" data-name="패스 840498" d="M255.583,356.342l-3.383-.8.012-3.337,3.372.793Z" transform="translate(-222.777 -311.11)" fill="none" stroke="#222" stroke-linejoin="round" stroke-width="0.35"/>
        <path id="패스_840499" data-name="패스 840499" d="M296.123,266.555a8.632,8.632,0,0,0-.63-1.913l1.342-2.87-1.762-2.007-1.937,2.182a4.48,4.48,0,0,0-1.528-.537l-.42-3.01-2.5.513-.443,3.185a7.49,7.49,0,0,0-1.528,1.155l-1.937-1.388-1.773,2.718,1.33,2.333-.093.245v.035l-.07.2-.035.093-.07.21h0v.023h0l-.058.2-.093.35-.035.128-.035.128-.047.187-.035.175-.047.21-2.322,1.05v3.337l2.31.105a8.564,8.564,0,0,0,.63,1.913l-.9,1.913v.023l-.432.922,1.05,1.19.957-.56,1.26-.735h.012l.21-.128,3.383-1.96.082-.047,5.67-3.29a12.228,12.228,0,0,0,.5-1.8l2.322-1.05V266.66ZM293.7,269.32v.292c0,.07-.012.152-.012.222s-.012.093-.012.14l-.023.21-.023.163-.023.128-.07.373-.047.175-.047.163h0v.047h0l-.023.082-.035.117-.035.117-.035.117-.047.117-.047.117-.047.128h-.012l-.117.268-.07.152-.082.152-.093.175-.058.093h0l-.128.21-.07.093-.07.093-.07.093-.07.093-.105.128H292.2l-.093.117-.082.093-.257.257-.117.105-.2.163-.07.058-.2.14-.152.093-.152.093h-.012l-.128.07h-.023l-.14.07h-.023l-.093.035-.187.07-.093.035-.292.07-.14.023h-.863l-.105-.023-.128-.035h-.012a2.893,2.893,0,0,1-1.482-.98,5.057,5.057,0,0,1-1.038-3.3c.012-2.508,1.377-4.877,3.162-5.647a3.289,3.289,0,0,1,.642-.2,2.753,2.753,0,0,1,1.132,0h.058l.093.023h.128l.058.023h.023l.082.035.117.047h.035l.082.035.047.023.093.058.117.07.07.047.07.047.093.082.093.082h.023l.082.082.023.023.093.093h0l.2.222.058.082.117.163.07.117.105.175.047.082.047.093.047.093.047.093.035.07.047.117h0l.058.152.035.1.035.093.035.128a3.335,3.335,0,0,1,.082.327v.082h0v.035l.023.117v.128l.023.163v.233h0v.047a.157.157,0,0,0,0,.023v.035h0a.106.106,0,0,1,0,.023h0c.012.117.012.245.012.362Z" transform="translate(-248.57 -228.253)" fill="#fff"/>
        <path id="패스_840500" data-name="패스 840500" d="M296.123,266.555a8.632,8.632,0,0,0-.63-1.913l1.342-2.87-1.762-2.007-1.937,2.182a4.48,4.48,0,0,0-1.528-.537l-.42-3.01-2.5.513-.443,3.185a7.49,7.49,0,0,0-1.528,1.155l-1.937-1.388-1.773,2.718,1.33,2.333-.093.245v.035l-.07.2-.035.093-.07.21h0v.023h0l-.058.2-.093.35-.035.128-.035.128-.047.187-.035.175-.047.21-2.322,1.05v3.337l2.31.105a8.564,8.564,0,0,0,.63,1.913l-.9,1.913v.023l-.432.922,1.05,1.19.957-.56,1.26-.735h.012l.21-.128,3.383-1.96.082-.047,5.67-3.29a12.228,12.228,0,0,0,.5-1.8l2.322-1.05V266.66ZM293.7,269.32v.292c0,.07-.012.152-.012.222s-.012.093-.012.14l-.023.21-.023.163-.023.128-.07.373-.047.175-.047.163h0v.047h0l-.023.082-.035.117-.035.117-.035.117-.047.117-.047.117-.047.128h-.012l-.117.268-.07.152-.082.152-.093.175-.058.093h0l-.128.21-.07.093-.07.093-.07.093-.07.093-.105.128H292.2l-.093.117-.082.093-.257.257-.117.105-.2.163-.07.058-.2.14-.152.093-.152.093h-.012l-.128.07h-.023l-.14.07h-.023l-.093.035-.187.07-.093.035-.292.07-.14.023h-.863l-.105-.023-.128-.035h-.012a2.893,2.893,0,0,1-1.482-.98,5.057,5.057,0,0,1-1.038-3.3c.012-2.508,1.377-4.877,3.162-5.647a3.289,3.289,0,0,1,.642-.2,2.753,2.753,0,0,1,1.132,0h.058l.093.023h.128l.058.023h.023l.082.035.117.047h.035l.082.035.047.023.093.058.117.07.07.047.07.047.093.082.093.082h.023l.082.082.023.023.093.093h0l.2.222.058.082.117.163.07.117.105.175.047.082.047.093.047.093.047.093.035.07.047.117h0l.058.152.035.1.035.093.035.128a3.335,3.335,0,0,1,.082.327v.082h0v.035l.023.117v.128l.023.163v.233h0v.047a.157.157,0,0,0,0,.023v.035h0a.106.106,0,0,1,0,.023h0c.012.117.012.245.012.362Z" transform="translate(-248.57 -228.253)" fill="none" stroke="#222" stroke-linejoin="round" stroke-width="0.35"/>
        <path id="패스_840501" data-name="패스 840501" d="M255.672,345.043l-3.372-.793,2.322-1.05,3.372.793Z" transform="translate(-222.865 -303.16)" fill="#fff"/>
        <path id="패스_840502" data-name="패스 840502" d="M255.672,345.043l-3.372-.793,2.322-1.05,3.372.793Z" transform="translate(-222.865 -303.16)" fill="none" stroke="#222" stroke-linejoin="round" stroke-width="0.35"/>
        <path id="패스_840503" data-name="패스 840503" d="M383.638,125.1l8.657-14.093-4.328-2.905L374.2,130.512" transform="translate(-330.543 -95.488)" fill="#fff"/>
        <path id="패스_840504" data-name="패스 840504" d="M383.638,125.1l8.657-14.093-4.328-2.905L374.2,130.512" transform="translate(-330.543 -95.488)" fill="none" stroke="#222" stroke-linejoin="round" stroke-width="0.35"/>
        <line id="선_126362" data-name="선 126362" x1="1.832" y1="1.225" transform="translate(57.983 17.22)" fill="#fff"/>
        <line id="선_126363" data-name="선 126363" x1="1.832" y1="1.225" transform="translate(57.983 17.22)" fill="none" stroke="#222" stroke-linecap="round" stroke-linejoin="round" stroke-width="0.467"/>
        <line id="선_126364" data-name="선 126364" x1="1.832" y1="1.225" transform="translate(56.747 19.25)" fill="#fff"/>
        <line id="선_126365" data-name="선 126365" x1="1.832" y1="1.225" transform="translate(56.747 19.25)" fill="none" stroke="#222" stroke-linecap="round" stroke-linejoin="round" stroke-width="0.467"/>
        <line id="선_126366" data-name="선 126366" x1="1.82" y1="1.237" transform="translate(55.44 21.373)" fill="#fff"/>
        <line id="선_126367" data-name="선 126367" x1="1.82" y1="1.237" transform="translate(55.44 21.373)" fill="none" stroke="#222" stroke-linecap="round" stroke-linejoin="round" stroke-width="0.467"/>
        <line id="선_126368" data-name="선 126368" x1="1.82" y1="1.225" transform="translate(54.332 23.275)" fill="#fff"/>
        <line id="선_126369" data-name="선 126369" x1="1.82" y1="1.225" transform="translate(54.332 23.275)" fill="none" stroke="#222" stroke-linecap="round" stroke-linejoin="round" stroke-width="0.467"/>
        <line id="선_126370" data-name="선 126370" x1="1.832" y1="1.225" transform="translate(53.177 25.27)" fill="#fff"/>
        <line id="선_126371" data-name="선 126371" x1="1.832" y1="1.225" transform="translate(53.177 25.27)" fill="none" stroke="#222" stroke-linecap="round" stroke-linejoin="round" stroke-width="0.467"/>
        <line id="선_126372" data-name="선 126372" x1="1.832" y1="1.225" transform="translate(51.998 27.148)" fill="#fff"/>
        <line id="선_126373" data-name="선 126373" x1="1.832" y1="1.225" transform="translate(51.998 27.148)" fill="none" stroke="#222" stroke-linecap="round" stroke-linejoin="round" stroke-width="0.467"/>
        <line id="선_126374" data-name="선 126374" x1="1.4" y1="0.933" transform="translate(50.902 29.015)" fill="#fff"/>
        <line id="선_126375" data-name="선 126375" x1="1.4" y1="0.933" transform="translate(50.902 29.015)" fill="none" stroke="#222" stroke-linecap="round" stroke-linejoin="round" stroke-width="0.467"/>
        <line id="선_126376" data-name="선 126376" x1="0.7" y1="0.467" transform="translate(49.735 30.637)" fill="#fff"/>
        <line id="선_126377" data-name="선 126377" x1="0.7" y1="0.467" transform="translate(49.735 30.637)" fill="none" stroke="#222" stroke-linecap="round" stroke-linejoin="round" stroke-width="0.467"/>
        <path id="패스_840505" data-name="패스 840505" d="M496.8,127.352a.852.852,0,1,0,.852-.852.852.852,0,0,0-.852.852" transform="translate(-438.84 -111.742)" fill="#222"/>
        <path id="패스_840506" data-name="패스 840506" d="M496.8,127.352a.852.852,0,1,0,.852-.852A.852.852,0,0,0,496.8,127.352Z" transform="translate(-438.84 -111.742)" fill="none" stroke="#fff" stroke-linejoin="round" stroke-width="0.35"/>
        <path id="패스_840507" data-name="패스 840507" d="M375.142,129.858l13.008-21.187.14-.163-.758-.408L373.8,130.477Z" transform="translate(-330.19 -95.488)" fill="#fff"/>
        <path id="패스_840508" data-name="패스 840508" d="M375.142,129.858l13.008-21.187.14-.163-.758-.408L373.8,130.477Z" transform="translate(-330.19 -95.488)" fill="none" stroke="#222" stroke-linejoin="round" stroke-width="0.35"/>
        <g id="그룹_422812" data-name="그룹 422812" transform="translate(43.61 29.167)" opacity="0.1">
          <g id="그룹_422811" data-name="그룹 422811" clip-path="url(#clip-path-4)">
            <path id="패스_840509" data-name="패스 840509" d="M383.553,250l-7.968,2.9-1.785,2.917,9.753-5.507Z" transform="translate(-373.8 -250)" fill="#222"/>
          </g>
        </g>
        <path id="패스_840510" data-name="패스 840510" d="M274.9,272.217h.012l23.73-13.463h0a1.027,1.027,0,0,1-.758.117,1.9,1.9,0,0,0,.093-.618V243.4l-13.335,7.7-1.167.677-8.062,4.643v14.607a1.322,1.322,0,0,1-.513,1.178" transform="translate(-242.828 -215.003)" fill="#e2e2e2"/>
        <path id="패스_840511" data-name="패스 840511" d="M274.9,272.217h.012l23.73-13.463h0a1.027,1.027,0,0,1-.758.117,1.9,1.9,0,0,0,.093-.618V243.4l-13.335,7.7-1.167.677-8.062,4.643v14.607A1.345,1.345,0,0,1,274.9,272.217Z" transform="translate(-242.828 -215.003)" fill="none" stroke="#222" stroke-linejoin="round" stroke-width="0.35"/>
        <line id="선_126378" data-name="선 126378" y1="0.035" x2="0.058" transform="translate(55.813 43.715)" fill="none" stroke="#222" stroke-linejoin="round" stroke-width="0.35"/>
        <line id="선_126379" data-name="선 126379" y1="0.793" x2="1.377" transform="translate(30.695 57.225)" fill="none" stroke="#222" stroke-linejoin="round" stroke-width="0.35"/>
        <line id="선_126380" data-name="선 126380" y1="0.023" x2="0.035" transform="translate(56.327 27.685)" fill="none" stroke="#222" stroke-linejoin="round" stroke-width="0.35"/>
        <path id="패스_840512" data-name="패스 840512" d="M327.39,152.9h-.012l-1.167.677H326.2" transform="translate(-288.143 -135.062)" fill="none" stroke="#222" stroke-linejoin="round" stroke-width="0.35"/>
        <path id="패스_840513" data-name="패스 840513" d="M122.035,270.4l-1.388.793-.047.035" transform="translate(-106.53 -238.853)" fill="none" stroke="#222" stroke-linejoin="round" stroke-width="0.35"/>
        <path id="패스_840514" data-name="패스 840514" d="M267,370.867a1.1,1.1,0,0,0,.91-.07,1.3,1.3,0,0,0,.513-1.178V355l-1.377.793v14.618a1.983,1.983,0,0,1-.047.455" transform="translate(-235.85 -313.583)" fill="#e2e2e2"/>
        <path id="패스_840515" data-name="패스 840515" d="M267,370.867a1.1,1.1,0,0,0,.91-.07,1.3,1.3,0,0,0,.513-1.178V355l-1.377.793v14.618A1.983,1.983,0,0,1,267,370.867Z" transform="translate(-235.85 -313.583)" fill="none" stroke="#222" stroke-linejoin="round" stroke-width="0.35"/>
        <line id="선_126381" data-name="선 126381" y1="0.012" x2="0.012" transform="translate(31.185 42.21)" fill="none" stroke="#222" stroke-linejoin="round" stroke-width="0.35"/>
        <path id="패스_840516" data-name="패스 840516" d="M384.3,158.657a3.054,3.054,0,0,0,1.388,2.392c.77.443,1.388.093,1.388-.793a3.036,3.036,0,0,0-1.388-2.392c-.77-.443-1.388-.082-1.388.793" transform="translate(-339.465 -139.279)" fill="#3673ee"/>
        <path id="패스_840517" data-name="패스 840517" d="M384.3,158.657a3.054,3.054,0,0,0,1.388,2.392c.77.443,1.388.093,1.388-.793a3.036,3.036,0,0,0-1.388-2.392C384.918,157.42,384.3,157.782,384.3,158.657Z" transform="translate(-339.465 -139.279)" fill="none" stroke="#222" stroke-linejoin="round" stroke-width="0.35"/>
        <path id="패스_840518" data-name="패스 840518" d="M232.01,158.7,211.5,170.542l2.182,3.255,20.475-11.818" transform="translate(-186.825 -140.185)" fill="#3673ee"/>
        <path id="패스_840519" data-name="패스 840519" d="M232.01,158.7,211.5,170.542l2.182,3.255,20.475-11.818" transform="translate(-186.825 -140.185)" fill="none" stroke="#222" stroke-linejoin="round" stroke-width="0.35"/>
        <path id="패스_840520" data-name="패스 840520" d="M132.9,249.654v14.618a4.062,4.062,0,0,0,1.867,3.208l13.358,7.712a2.1,2.1,0,0,0,.42.2,1.983,1.983,0,0,0,.047-.455V260.317l1.377-.793h0l-5.3-8.05-1.1-1.657-.922-1.412-.14-.21c-.712-.957-1.657-1.458-2.322-1.225Z" transform="translate(-117.395 -218.107)" fill="#fff"/>
        <path id="패스_840521" data-name="패스 840521" d="M132.9,249.654v14.618a4.062,4.062,0,0,0,1.867,3.208l13.358,7.712a2.1,2.1,0,0,0,.42.2,1.983,1.983,0,0,0,.047-.455V260.317l1.377-.793h0l-5.3-8.05-1.1-1.657-.922-1.412-.14-.21c-.712-.957-1.657-1.458-2.322-1.225Z" transform="translate(-117.395 -218.107)" fill="none" stroke="#222" stroke-linejoin="round" stroke-width="0.35"/>
        <path id="패스_840522" data-name="패스 840522" d="M121,256.611v14.618a4.1,4.1,0,0,0,1.867,3.22l13.358,7.712a1.318,1.318,0,0,0,1.353.117,1.1,1.1,0,0,0,.467-.723,1.983,1.983,0,0,0,.047-.455V266.481l-7.315-11.107c-.712-1.085-1.75-1.68-2.462-1.423l-5.927,2.17Z" transform="translate(-106.883 -224.271)" fill="#fff"/>
        <path id="패스_840523" data-name="패스 840523" d="M121,256.611v14.618a4.1,4.1,0,0,0,1.867,3.22l13.358,7.712a1.318,1.318,0,0,0,1.353.117,1.1,1.1,0,0,0,.467-.723,1.983,1.983,0,0,0,.047-.455V266.481l-7.315-11.107c-.712-1.085-1.75-1.68-2.462-1.423l-5.927,2.17Z" transform="translate(-106.883 -224.271)" fill="none" stroke="#222" stroke-linejoin="round" stroke-width="0.35"/>
        <path id="패스_840524" data-name="패스 840524" d="M384.483,163.674a.917.917,0,0,0,.467-.922,3.054,3.054,0,0,0-1.388-2.392.934.934,0,0,0-1.062-.047" transform="translate(-337.875 -141.484)" fill="none" stroke="#222" stroke-linejoin="round" stroke-width="0.35"/>
        <path id="패스_840525" data-name="패스 840525" d="M241.8,467.068a1.423,1.423,0,0,0,.642,1.108c.35.21.642.047.642-.362a1.423,1.423,0,0,0-.642-1.108c-.35-.21-.642-.047-.642.362" transform="translate(-213.59 -412.176)" fill="#222"/>
        <path id="패스_840526" data-name="패스 840526" d="M241.8,467.068a1.423,1.423,0,0,0,.642,1.108c.35.21.642.047.642-.362a1.423,1.423,0,0,0-.642-1.108C242.08,466.5,241.8,466.659,241.8,467.068Z" transform="translate(-213.59 -412.176)" fill="none" stroke="#222" stroke-linejoin="round" stroke-width="0.35"/>
        <path id="패스_840527" data-name="패스 840527" d="M239.7,468.668a1.423,1.423,0,0,0,.642,1.108c.35.21.642.047.642-.362a1.423,1.423,0,0,0-.642-1.108c-.35-.21-.642-.047-.642.362" transform="translate(-211.735 -413.589)" fill="#e2e2e2"/>
        <path id="패스_840528" data-name="패스 840528" d="M239.7,468.668a1.423,1.423,0,0,0,.642,1.108c.35.21.642.047.642-.362a1.423,1.423,0,0,0-.642-1.108C239.992,468.1,239.7,468.259,239.7,468.668Z" transform="translate(-211.735 -413.589)" fill="none" stroke="#222" stroke-linejoin="round" stroke-width="0.35"/>
        <path id="패스_840529" data-name="패스 840529" d="M128.4,402.168a1.423,1.423,0,0,0,.642,1.108c.35.21.642.047.642-.362a1.423,1.423,0,0,0-.642-1.108c-.362-.21-.642-.047-.642.362" transform="translate(-113.42 -354.848)" fill="#222"/>
        <path id="패스_840530" data-name="패스 840530" d="M128.4,402.168a1.423,1.423,0,0,0,.642,1.108c.35.21.642.047.642-.362a1.423,1.423,0,0,0-.642-1.108C128.68,401.6,128.4,401.759,128.4,402.168Z" transform="translate(-113.42 -354.848)" fill="none" stroke="#222" stroke-linejoin="round" stroke-width="0.35"/>
        <path id="패스_840531" data-name="패스 840531" d="M126.3,403.768a1.423,1.423,0,0,0,.642,1.108c.35.21.642.047.642-.362a1.423,1.423,0,0,0-.642-1.108c-.35-.21-.642-.047-.642.362" transform="translate(-111.565 -356.261)" fill="#e2e2e2"/>
        <path id="패스_840532" data-name="패스 840532" d="M126.3,403.768a1.423,1.423,0,0,0,.642,1.108c.35.21.642.047.642-.362a1.423,1.423,0,0,0-.642-1.108C126.592,403.2,126.3,403.359,126.3,403.768Z" transform="translate(-111.565 -356.261)" fill="none" stroke="#222" stroke-linejoin="round" stroke-width="0.35"/>
        <g id="그룹_422814" data-name="그룹 422814" transform="translate(17.15 27.358)" opacity="0.1">
          <g id="그룹_422813" data-name="그룹 422813" clip-path="url(#clip-path-5)">
            <path id="패스_840533" data-name="패스 840533" d="M151.352,234.5,147,237.253l.688.758,4.667-1.855.233-.175Z" transform="translate(-147 -234.5)" fill="#222"/>
          </g>
        </g>
        <path id="패스_840534" data-name="패스 840534" d="M115.468,103.242l4.328,2.9-6.487,10.57,1.073,1.622h0V133.2a1.3,1.3,0,0,1-.525,1.178h0L90.116,147.855H90.1a.957.957,0,0,1-.513.14,1.4,1.4,0,0,1-.408-.058,1.1,1.1,0,0,1-.467.723.956.956,0,0,1-.513.14,1.7,1.7,0,0,1-.84-.257l-13.335-7.735a4.114,4.114,0,0,1-1.867-3.22V122.97l1.388-.5v-.292h0L72.114,123l.058-.035,1.388-.793h0l2.088-1.2-4.118-4.562a4.072,4.072,0,0,1-4.982-5.18l.98-.782,1.657,2.03,1.843.408.642-.572-.222-1.972-1.808-1.832h0l.98-.782h0a4.072,4.072,0,0,1,4.55,5.518l4.737,5.262,16.2-9.357h0l1.178-.677h0l-1.178.677,1.178-.432v-.233l7.3-2.683a1.038,1.038,0,0,1,.362-.058,2.888,2.888,0,0,1,2.1,1.482l3.08,4.678,5.32-8.668m0-.642h-.128a.642.642,0,0,0-.408.292l-4.795,7.805-2.52-3.838a3.474,3.474,0,0,0-2.637-1.773,1.68,1.68,0,0,0-.583.105L97.2,107.815a.642.642,0,0,0-.222.082l-1.178.677h-.012l-15.75,9.1-4.142-4.585a4.731,4.731,0,0,0-5.343-6.02.63.63,0,0,0-.338.14l-.968.793a.653.653,0,0,0-.058.957l1.657,1.668.163,1.423-.152.128-1.307-.292-1.517-1.855a.642.642,0,0,0-.9-.093l-.98.782a.642.642,0,0,0-.21.3,4.713,4.713,0,0,0,5.367,6.09l3.313,3.687-1.4.805H73.2l-1.365.782-.058.035a.642.642,0,0,0-.268.817v14.35a4.727,4.727,0,0,0,2.182,3.768l13.37,7.723a2.322,2.322,0,0,0,1.155.338,1.61,1.61,0,0,0,.852-.233,1.587,1.587,0,0,0,.537-.56,1.633,1.633,0,0,0,.677-.152l.14-.058,23.753-13.475.105-.07a1.943,1.943,0,0,0,.735-1.668V118.338a.642.642,0,0,0-.07-.292l-.035-.07-.84-1.283,6.277-10.208a.642.642,0,0,0-.187-.863l-4.328-2.9a.642.642,0,0,0-.362-.105" transform="translate(-58.044 -90.63)" fill="#222"/>
        <path id="패스_840535" data-name="패스 840535" d="M128.63,247.97l1.715-.77-.572.047-8.458,2.8-.315.385Z" transform="translate(-106.883 -218.36)" fill="#222"/>
        <path id="패스_840536" data-name="패스 840536" d="M333.23,130.358l1.715-.758-.572.035-8.458,2.8-.315.385Z" transform="translate(-287.613 -114.48)" fill="#222"/>
        <line id="선_126382" data-name="선 126382" x1="25.223" y2="14.56" transform="translate(31.103 27.708)" fill="none" stroke="#222" stroke-linejoin="round" stroke-width="0.583"/>
        <path id="패스_840537" data-name="패스 840537" d="M458.215,222.693l.945,1.622L455.8,226.1l2.263-3.5Z" transform="translate(-402.623 -196.63)" fill="#222"/>
        <path id="패스_840538" data-name="패스 840538" d="M458.215,222.693l.945,1.622L455.8,226.1l2.263-3.5Z" transform="translate(-402.623 -196.63)" fill="none" stroke="#222" stroke-miterlimit="10" stroke-width="0.117"/>
        <path id="패스_840539" data-name="패스 840539" d="M350.312,371.883c0,.42.2.677.467.677a.619.619,0,0,0,.3-.093l6.778-3.908a1.849,1.849,0,0,0,.782-1.482,1.222,1.222,0,0,0-.023-.233c-.058-.28-.222-.443-.443-.443a.618.618,0,0,0-.3.093l-6.79,3.908a1.836,1.836,0,0,0-.758,1.225,1.672,1.672,0,0,0-.023.257" transform="translate(-309.432 -323.653)" fill="#fff"/>
        <path id="패스_840540" data-name="패스 840540" d="M350.394,371.883c0,.42.2.677.467.677a.619.619,0,0,0,.3-.093l6.778-3.908a1.849,1.849,0,0,0,.782-1.482,1.222,1.222,0,0,0-.023-.233c-.058-.28-.222-.443-.443-.443a.618.618,0,0,0-.3.093l-6.79,3.908a1.836,1.836,0,0,0-.758,1.225A1.67,1.67,0,0,0,350.394,371.883Z" transform="translate(-309.514 -323.653)" fill="none" stroke="#222" stroke-linejoin="round" stroke-width="0.35"/>
        <path id="패스_840541" data-name="패스 840541" d="M350.512,371.715c.058.28.222.455.443.455a.619.619,0,0,0,.3-.093l6.778-3.908a1.836,1.836,0,0,0,.758-1.225c-.058-.28-.222-.443-.443-.443a.618.618,0,0,0-.3.093l-6.79,3.9a1.836,1.836,0,0,0-.758,1.225" transform="translate(-309.608 -323.742)" fill="#c9c9c9"/>
        <path id="패스_840542" data-name="패스 840542" d="M350.6,371.715c.058.28.222.455.443.455a.618.618,0,0,0,.3-.093l6.778-3.908a1.836,1.836,0,0,0,.758-1.225c-.058-.28-.222-.443-.443-.443a.618.618,0,0,0-.3.093l-6.79,3.9A1.824,1.824,0,0,0,350.6,371.715Z" transform="translate(-309.697 -323.742)" fill="none" stroke="#222" stroke-linejoin="round" stroke-width="0.35"/>
        <path id="패스_840543" data-name="패스 840543" d="M301.11,374.045l-.758-.245-22.225,12.647-.327,1.143Z" transform="translate(-245.39 -330.19)" fill="#222"/>
        <path id="패스_840544" data-name="패스 840544" d="M164.5,356.4v-.98l.688.4a1.307,1.307,0,0,1,.245-.537l-.49-.84.607-.338.49.84a1.33,1.33,0,0,1,.595.058V354.2l.852.49v.793a3.977,3.977,0,0,1,.6.618l.49-.28.607,1.038-.49.28a3.955,3.955,0,0,1,.245.817l.688.4v.98l-.688-.4a1.307,1.307,0,0,1-.245.537l.49.84-.607.338-.49-.84a1.33,1.33,0,0,1-.6-.058v.793l-.852-.49v-.793a3.978,3.978,0,0,1-.6-.618l-.49.28-.607-1.038.49-.28a3.943,3.943,0,0,1-.245-.817Zm2.555,1.96c.467.268.852.058.852-.49a1.878,1.878,0,0,0-.852-1.47c-.467-.268-.852-.058-.852.49a1.878,1.878,0,0,0,.852,1.47" transform="translate(-145.308 -312.788)" fill="#fff"/>
        <path id="패스_840545" data-name="패스 840545" d="M177.6,278.441a3.054,3.054,0,0,0,1.388,2.392c.77.443,1.388.093,1.388-.793a3.036,3.036,0,0,0-1.388-2.392c-.77-.443-1.388-.093-1.388.793" transform="translate(-156.88 -245.086)" fill="#fff"/>
        <path id="패스_840546" data-name="패스 840546" d="M177.6,278.457a3.054,3.054,0,0,0,1.388,2.392c.77.443,1.388.093,1.388-.793a3.036,3.036,0,0,0-1.388-2.392C178.218,277.22,177.6,277.582,177.6,278.457Z" transform="translate(-156.88 -245.102)" fill="none" stroke="#222" stroke-linejoin="round" stroke-width="0.35"/>
        <path id="패스_840547" data-name="패스 840547" d="M173.2,281.941a3.054,3.054,0,0,0,1.388,2.392c.77.443,1.388.093,1.388-.793a3.036,3.036,0,0,0-1.388-2.392c-.77-.443-1.388-.093-1.388.793" transform="translate(-152.993 -248.178)" fill="#3673ee"/>
        <path id="패스_840548" data-name="패스 840548" d="M173.2,281.941a3.054,3.054,0,0,0,1.388,2.392c.77.443,1.388.093,1.388-.793a3.036,3.036,0,0,0-1.388-2.392C173.818,280.7,173.2,281.054,173.2,281.941Z" transform="translate(-152.993 -248.178)" fill="none" stroke="#222" stroke-linejoin="round" stroke-width="0.35"/>
        <line id="선_126383" data-name="선 126383" x1="17.127" y1="9.893" transform="translate(14.07 43.843)" fill="#fff"/>
        <line id="선_126384" data-name="선 126384" x1="17.127" y1="9.893" transform="translate(14.07 43.843)" fill="none" stroke="#222" stroke-linejoin="round" stroke-width="0.35"/>
        <path id="패스_840549" data-name="패스 840549" d="M138.962,257.7l-.747-.8-1.015,1.365Z" transform="translate(-121.193 -226.928)" fill="#222"/>
      </g>
    </g>
  </g>
</svg>
