<svg xmlns="http://www.w3.org/2000/svg" width="86" height="82.454"><defs><clipPath id="clip-path"><path id="사각형_235182" data-name="사각형 235182" class="cls-1" d="M0 0h80v80H0z"/></clipPath><clipPath id="clip-path-3"><path id="사각형_235164" data-name="사각형 235164" class="cls-1" d="M0 0h1.88v5.723H0z"/></clipPath><clipPath id="clip-path-4"><path id="사각형_235169" data-name="사각형 235169" class="cls-1" d="M0 0h35.591v40.098H0z"/></clipPath><clipPath id="clip-path-5"><path id="사각형_235166" data-name="사각형 235166" class="cls-1" d="M0 0h55.606v34.571H0z"/></clipPath><clipPath id="clip-path-6"><path id="사각형_235167" data-name="사각형 235167" class="cls-1" d="M0 0h53.946v29.482H0z"/></clipPath><clipPath id="clip-path-8"><path id="사각형_235170" data-name="사각형 235170" class="cls-1" d="M0 0h1.88v5.725H0z"/></clipPath><clipPath id="clip-path-10"><path id="사각형_235172" data-name="사각형 235172" class="cls-1" d="M0 0h17.955v12.195H0z"/></clipPath><clipPath id="clip-path-13"><path id="사각형_235175" data-name="사각형 235175" class="cls-1" d="M0 0h10.897v5.629H0z"/></clipPath><clipPath id="clip-path-15"><path id="사각형_235177" data-name="사각형 235177" class="cls-1" d="M0 0h2.099v3.719H0z"/></clipPath><clipPath id="clip-path-16"><path id="사각형_235180" data-name="사각형 235180" class="cls-1" d="M0 0h4.979v31.09H0z"/></clipPath><style>.cls-1,.cls-21,.cls-22,.cls-28,.cls-50,.cls-53,.cls-66{fill:none}.cls-5{fill:#fff}.cls-4{clip-path:url(#clip-path)}.cls-21,.cls-22,.cls-28,.cls-50,.cls-53,.cls-66{stroke:#222}.cls-21,.cls-22,.cls-28{stroke-miterlimit:10}.cls-7{fill:#c1c1c1}.cls-9{fill:#222}.cls-11{opacity:.1}.cls-50,.cls-53,.cls-66{stroke-linejoin:round}.cls-20{fill:#e5e5e5}.cls-21,.cls-22{stroke-width:.6px}.cls-50,.cls-53,.cls-66{stroke-linecap:round}.cls-28,.cls-50,.cls-53{stroke-width:.5px}.cls-31{fill:#111}.cls-48{opacity:.15}.cls-66{stroke-width:.5px}.cls-74{fill:#0f67f5}.cls-75{fill:#3f4f5c}.cls-76{fill:#e2e1e0}.cls-78{stroke:none}</style></defs><g id="그룹_334893" data-name="그룹 334893" transform="translate(-29 -391)"><g id="타원_7392" data-name="타원 7392" transform="translate(72 422)" stroke="#f0f0f0" fill="#fff"><circle class="cls-78" cx="21.5" cy="21.5" r="21.5"/><circle class="cls-1" cx="21.5" cy="21.5" r="21"/></g><g id="셀프세차" transform="translate(69 431)"><g id="셀프세차-2" data-name="셀프세차" transform="translate(-40 -40)" style="isolation:isolate"><g id="Layer_1" data-name="Layer 1"><g id="그룹_300263" data-name="그룹 300263" class="cls-4"><g id="그룹_300242" data-name="그룹 300242" class="cls-4"><path id="패스_620286" data-name="패스 620286" class="cls-5" d="M194.251 52.654c0 2.019-.62 3.479-1.62 4.219a3.237 3.237 0 01-2.079 1.9 2.859 2.859 0 01-1.98.78 4.519 4.519 0 01-2.239-.68L166.459 47.4c-3.119-1.8-5.659-6.638-5.659-10.817a5.085 5.085 0 012.639-4.859 2.859 2.859 0 011.979-.78l.5.04a2.759 2.759 0 011.56-.48 4.379 4.379 0 012.159.68l19.155 11.057c3.019 1.74 5.459 6.4 5.459 10.417" transform="translate(-128.648 -24.402)"/><path id="패스_620287" data-name="패스 620287" d="M194.251 52.654c0 2.019-.62 3.479-1.62 4.219a3.237 3.237 0 01-2.079 1.9 2.859 2.859 0 01-1.98.78 4.519 4.519 0 01-2.239-.68L166.459 47.4c-3.119-1.8-5.659-6.638-5.659-10.817a5.085 5.085 0 012.639-4.859 2.859 2.859 0 011.979-.78l.5.04a2.759 2.759 0 011.56-.48 4.379 4.379 0 012.159.68l19.155 11.057c3.02 1.736 5.459 6.394 5.459 10.413z" transform="translate(-128.648 -24.402)" stroke-miterlimit="10" stroke="#222" fill="none"/><path id="패스_620288" data-name="패스 620288" class="cls-7" d="M179.126 266.142c.38.22.44.56.1.76a1.46 1.46 0 01-1.32-.06c-.38-.22-.44-.56-.1-.76a1.46 1.46 0 011.32.06" transform="translate(-142.076 -212.776)"/><path id="패스_620289" data-name="패스 620289" d="M37.05 53.366c.38.22.44.56.1.76a1.46 1.46 0 01-1.32-.06c-.38-.22-.44-.56-.1-.76a1.46 1.46 0 011.32.06z" stroke="#000" stroke-width=".5" stroke-miterlimit="10" fill="none"/><path id="패스_620290" data-name="패스 620290" class="cls-9" d="M177.6 138.432V106h1.88v32.432" transform="translate(-142.089 -84.805)"/><path id="패스_620291" data-name="패스 620291" d="M35.511 53.627V21.195h1.88v32.432" stroke-width=".5" stroke-miterlimit="10" stroke="#222" fill="none"/><g id="그룹_300241" data-name="그룹 300241" class="cls-11" transform="translate(35.331 20.395)"><g id="그룹_300240" data-name="그룹 300240" clip-path="url(#clip-path-3)"><path id="패스_620292" data-name="패스 620292" d="M176.7 107.019l1.88.7V102l-1.88 1.1z" transform="translate(-176.7 -102)"/></g></g></g><g id="그룹_300247" data-name="그룹 300247" transform="translate(26.153 29.592)" clip-path="url(#clip-path-4)"><g id="그룹_300244" data-name="그룹 300244" transform="translate(8.658 .48)" style="mix-blend-mode:multiply;isolation:isolate" opacity=".13"><g id="그룹_300243" data-name="그룹 300243" clip-path="url(#clip-path-5)"><path id="패스_620293" data-name="패스 620293" d="M228.62 160.337c-5.42-3.337-17.035-9.837-17.035-9.837l-36.891 22.014s-3 4.439 4.4 8.578c10.7 6 14.656 3.4 14.656 3.4l33.911-19.535s3.839-2.859.96-4.619" transform="translate(-174.094 -150.48)"/></g></g><path id="패스_620294" data-name="패스 620294" d="M294.419 270.039l-.74.76-.58.32-2.5-3.919 3.359.04z" transform="translate(-258.648 -243.366)"/><path id="패스_620295" data-name="패스 620295" class="cls-9" d="M268.558 266.15l-2.439-1.4a2.251 2.251 0 00-2.279.24 7.166 7.166 0 00-3.239 5.619 2.23 2.23 0 00.96 2.1l2.439 1.4a2.251 2.251 0 002.279-.24 7.166 7.166 0 003.239-5.619 2.251 2.251 0 00-.96-2.1" transform="translate(-234.647 -241.237)"/><path id="패스_620296" data-name="패스 620296" class="cls-9" d="M279.278 273.884a7.22 7.22 0 01-3.239 5.619 2.3 2.3 0 01-2.279.24 2.27 2.27 0 01-.96-2.1 7.22 7.22 0 013.239-5.619 2.3 2.3 0 012.279-.24 2.27 2.27 0 01.96 2.1" transform="translate(-244.407 -246.871)"/><path id="패스_620297" data-name="패스 620297" class="cls-9" d="M280.518 275.3a6.623 6.623 0 01-3 5.2 2.139 2.139 0 01-2.119.22 2.115 2.115 0 01-.9-1.96 6.623 6.623 0 013-5.2 2.139 2.139 0 012.119-.22 2.091 2.091 0 01.88 1.94" transform="translate(-245.767 -248.124)"/><path id="패스_620298" data-name="패스 620298" class="cls-5" d="M283.358 280.306a4.8 4.8 0 01-2.179 3.779 1.363 1.363 0 01-2.179-1.26 4.779 4.779 0 012.179-3.779 1.363 1.363 0 012.179 1.26" transform="translate(-249.366 -252.633)"/><path id="패스_620299" data-name="패스 620299" class="cls-5" d="M283.758 281.176a4.559 4.559 0 01-2.079 3.6 1.3 1.3 0 01-2.079-1.2 4.559 4.559 0 012.079-3.6 1.3 1.3 0 012.079 1.2" transform="translate(-249.846 -253.383)"/><path id="패스_620300" data-name="패스 620300" class="cls-9" d="M284.2 279.6a1.207 1.207 0 01.9 1.32 4.2 4.2 0 01-1.919 3.319 1.32 1.32 0 01-1.18.16 1.3 1.3 0 001.36-.08 4.259 4.259 0 001.939-3.359 1.212 1.212 0 00-1.1-1.36" transform="translate(-251.768 -253.287)"/><path id="패스_620301" data-name="패스 620301" d="M20.335 7.098c-1.16 1.08-3.019 2.7-3.019 2.7l-3.5 2.439a9.522 9.522 0 00-3.439 4.079 17.256 17.256 0 00-1.58 3.019 11.32 11.32 0 00.24 3.259 3.229 3.229 0 001.12 3.079c1.56 1.62 5.339 3.8 6.638 4.579a16.687 16.687 0 006.738 2.439 7.17 7.17 0 003.619-.64v-.04c.48-2.439 1.5-5.719 4.679-7.478 2.139-1.18 4.179-.42 3.239 2.8v.1l18.955-11.2c.42-2.339 2.219-5.639 4.3-6.858s3.559-.5 3.319 2.379a4.8 4.8 0 00.88-1.38 2.639 2.639 0 00.04-1.66 7.019 7.019 0 000-1.66 6.392 6.392 0 00-.9-1.82 16.839 16.839 0 00-.96-2.379c-.4-.66-1.96-1.96-5.259-4.139a41.085 41.085 0 00-8.038-4.159 10.1 10.1 0 00-2.239-.46 4.994 4.994 0 00-1.64-.56 1.6 1.6 0 00-1 .28 53.048 53.048 0 00-6.638 2.6 91.569 91.569 0 00-8.078 4.7c-1.38.94-4.059 3.039-5.659 4.359h0z" stroke-width=".6" stroke-linejoin="round" stroke="#222" fill="none"/><path id="패스_620302" data-name="패스 620302" class="cls-5" d="M186.045 129.246c-1.16 1.08-3.019 2.7-3.019 2.7l-3.5 2.439a9.522 9.522 0 00-3.439 4.079 17.256 17.256 0 00-1.58 3.019 11.32 11.32 0 00.24 3.259 3.229 3.229 0 001.12 3.079c1.56 1.62 5.339 3.8 6.638 4.579a16.687 16.687 0 006.738 2.439 7.17 7.17 0 003.619-.64v-.04c.48-2.439 1.5-5.719 4.679-7.478 2.139-1.18 4.179-.42 3.239 2.8v.1l18.955-11.2c.42-2.339 2.219-5.639 4.3-6.858s3.559-.5 3.319 2.379a4.8 4.8 0 00.88-1.38 2.639 2.639 0 00.04-1.66 7.019 7.019 0 000-1.66 6.392 6.392 0 00-.9-1.82 16.839 16.839 0 00-.96-2.379c-.4-.66-1.96-1.96-5.259-4.139a41.085 41.085 0 00-8.038-4.159 10.1 10.1 0 00-2.239-.46 4.994 4.994 0 00-1.64-.56 1.6 1.6 0 00-1 .28 53.048 53.048 0 00-6.638 2.6 91.569 91.569 0 00-8.078 4.7c-1.38.94-4.059 3.039-5.659 4.359z" transform="translate(-165.71 -122.148)"/><path id="패스_620303" data-name="패스 620303" d="M186.045 129.246c-1.16 1.08-3.019 2.7-3.019 2.7l-3.5 2.439a9.522 9.522 0 00-3.439 4.079 17.256 17.256 0 00-1.58 3.019 11.32 11.32 0 00.24 3.259 3.229 3.229 0 001.12 3.079c1.56 1.62 5.339 3.8 6.638 4.579a16.687 16.687 0 006.738 2.439 7.17 7.17 0 003.619-.64v-.04c.48-2.439 1.5-5.719 4.679-7.478 2.139-1.18 4.179-.42 3.239 2.8v.1l18.955-11.2c.42-2.339 2.219-5.639 4.3-6.858s3.559-.5 3.319 2.379a4.8 4.8 0 00.88-1.38 2.639 2.639 0 00.04-1.66 7.019 7.019 0 000-1.66 6.392 6.392 0 00-.9-1.82 16.839 16.839 0 00-.96-2.379c-.4-.66-1.96-1.96-5.259-4.139a41.085 41.085 0 00-8.038-4.159 10.1 10.1 0 00-2.239-.46 4.994 4.994 0 00-1.64-.56 1.6 1.6 0 00-1 .28 53.048 53.048 0 00-6.638 2.6 91.569 91.569 0 00-8.078 4.7c-1.38.94-4.059 3.039-5.659 4.359h0z" transform="translate(-165.71 -122.148)" stroke-linejoin="round" stroke="#222" fill="none"/><g id="그룹_300246" data-name="그룹 300246" transform="translate(8.718 3.419)" style="mix-blend-mode:multiply;isolation:isolate"><g id="그룹_300245" data-name="그룹 300245" clip-path="url(#clip-path-6)"><path id="패스_620304" data-name="패스 620304" class="cls-20" d="M228.378 171.318l-.66 1.66s-.04-2.439-3.2-1.979-4.8 6.918-4.8 6.918l-18.935 11.1a2.123 2.123 0 00-1.54-3.2c-2.819-.64-5.239 4.059-5.239 4.059l-1.14 3.879-1.76.66s-3.219.52-3.739-.2c-4.259-1.9-8.238-3.959-11.2-6.558 0 0-.82-.12-1.32-1.7a20.266 20.266 0 01-.38-3.659 4.119 4.119 0 01.04-1.28 18.062 18.062 0 011.58-3.019l.14-.3 1.12 4.919.5 1.44c-.74 1.18 6.738 5.479 10.177 6.438.36-1.22.7-2.239.7-2.239a20.014 20.014 0 004.059-.78c2.119-.66 3-3.8 3-3.8l6.138-3.639 1.52-.9 2.659.38.54-.48-.36-1.66 7.7-5.319c4.839-2.919 5.739-6.958 5.739-6.958l5.519.74-.7.9 2.179.88.92-.34.64 1.44z" transform="translate(-174.432 -165.1)"/></g></g><path id="패스_620305" data-name="패스 620305" class="cls-9" d="M230.194 173.2a3.119 3.119 0 002.319-1.04 16.6 16.6 0 001.08-1.28c.7-.94 4.3-6.978 5.319-8.2 0 0-4.619-2.419-6.618-3.659s-5.139-3.419-5.139-3.419-5.059 3.739-6.618 5.1-3.879 3.219-3.879 3.219a2.844 2.844 0 00.36 2.6c.9 1.46 3.339 3.2 5.339 4.259 1.66.88 5.179 2.439 7.818 2.459" transform="translate(-199.362 -154.08)"/><path id="패스_620306" data-name="패스 620306" class="cls-9" d="M233.222 262.247a.4.4 0 01-.04-.74l4.159-1.52c1.4-.5 3.559-1.4 4.2-1.64s1.16-.4 1.02.22a6.282 6.282 0 01-3.439 3.559 8.3 8.3 0 01-5.919.14" transform="translate(-212.527 -236.114)"/><path id="패스_620307" data-name="패스 620307" class="cls-21" d="M233.222 262.247a.4.4 0 01-.04-.74l4.159-1.52c1.4-.5 3.559-1.4 4.2-1.64s1.16-.4 1.02.22a6.282 6.282 0 01-3.439 3.559 8.254 8.254 0 01-5.9.121z" transform="translate(-212.527 -236.114)"/><path id="패스_620308" data-name="패스 620308" class="cls-9" d="M184.957 208.94h-.04a9.191 9.191 0 00-3.319 3.839l-.06.12a5.207 5.207 0 00-.3 2.279 4.275 4.275 0 001.14 2.1.18.18 0 00.3-.14 12.308 12.308 0 01-.02-3.539 18.05 18.05 0 012.3-4.7" transform="translate(-171.121 -196.723)"/><path id="패스_620309" data-name="패스 620309" class="cls-22" d="M184.957 209.1h-.04a9.191 9.191 0 00-3.319 3.839l-.06.12a5.207 5.207 0 00-.3 2.279 4.275 4.275 0 001.14 2.1.18.18 0 00.3-.14 12.308 12.308 0 01-.02-3.539 19.1 19.1 0 012.299-4.659z" transform="translate(-171.121 -196.883)"/><path id="패스_620310" data-name="패스 620310" class="cls-9" d="M181.889 256.653a14.655 14.655 0 01-2.139-1.72 5.968 5.968 0 01-1.1-2.579c-.1-.58-.14-1.2.02-1.32s.66.44 1.28 1 1.74 1.44 1.74 1.44a3.04 3.04 0 00.82.88 31.936 31.936 0 003.2 1.88 4.69 4.69 0 001.92.54s1.44.58 2.539.96 2.239.56 2.319 1.16-.46.96-1.1 1.34a3.744 3.744 0 01-2.739.04 6.737 6.737 0 01-1.62-.68" transform="translate(-169.012 -230.42)"/><path id="패스_620311" data-name="패스 620311" class="cls-9" d="M327.317 159.395c-.3-.38-3.8.36-5.9 1.38a35.609 35.609 0 00-5.938 3.819c-1.24 1.02-4.579 6.318-5.559 7.918 0 0-1.24 2.059-.84 2.719s1.06.18 1.86-.32l.16-.1a.62.62 0 01.02-.3 19.779 19.779 0 011.74-1.76 1.175 1.175 0 011.22.08l8.338-5.559s3.339-2.7 4.319-4.6.88-2.9.58-3.279" transform="translate(-273.371 -157.036)"/><path id="패스_620312" data-name="패스 620312" class="cls-9" d="M324.78 183.557a1.18 1.18 0 011.08.02l7.158-4.759c-.26-1.2-1.02-4.5-1.56-6.018a38.725 38.725 0 00-3.959 2.719 30.469 30.469 0 00-3.6 4.819l.22 3.819a5.184 5.184 0 01.66-.6" transform="translate(-285.29 -167.841)"/><path id="패스_620313" data-name="패스 620313" class="cls-9" d="M311.664 217.8l.76-.82-.26-3.579c-.58.9-1.12 1.76-1.56 2.479s-1.1 2.139-.84 2.559a.44.44 0 00.38.24 2.758 2.758 0 001.12-.5l.16-.1.22-.14v-.12" transform="translate(-273.934 -200.323)"/><path id="패스_620314" data-name="패스 620314" class="cls-5" d="M316.8 225.953l2.339-1.06a.6.6 0 01.78.28l.24.48a1.559 1.559 0 01.12 1.18c-.1.34-.3.56-.54.48l-.86-.28a3.459 3.459 0 00-1.8-.1h-.02a.52.52 0 01-.28-.98" transform="translate(-279.367 -209.477)"/><path id="패스_620315" data-name="패스 620315" d="M37.433 16.476l2.339-1.06a.6.6 0 01.78.28l.24.48a1.559 1.559 0 01.12 1.18c-.1.34-.3.56-.54.48l-.86-.28a3.459 3.459 0 00-1.8-.1h-.02a.52.52 0 01-.28-.98z" stroke-width=".6" stroke-miterlimit="10" stroke="#222" fill="none"/><path id="패스_620316" data-name="패스 620316" class="cls-5" d="M261.34 265.82a.72.72 0 11-.72-.72.72.72 0 01.72.72" transform="translate(-234.087 -241.686)"/><path id="패스_620317" data-name="패스 620317" class="cls-5" d="M250.839 267.51a1.02 1.02 0 11-1.44 0 1.02 1.02 0 011.44 0" transform="translate(-225.446 -243.376)"/><path id="패스_620318" data-name="패스 620318" class="cls-22" d="M184.957 209.1h-.04a9.191 9.191 0 00-3.319 3.839l-.06.12a5.207 5.207 0 00-.3 2.279 4.275 4.275 0 001.14 2.1.18.18 0 00.3-.14 12.308 12.308 0 01-.02-3.539 19.1 19.1 0 012.299-4.659z" transform="translate(-171.121 -196.883)"/><path id="패스_620319" data-name="패스 620319" class="cls-21" d="M233.222 262.247a.4.4 0 01-.04-.74l4.159-1.52c1.4-.5 3.559-1.4 4.2-1.64s1.16-.4 1.02.22a6.282 6.282 0 01-3.439 3.559 8.254 8.254 0 01-5.9.121z" transform="translate(-212.527 -236.114)"/><path id="패스_620320" data-name="패스 620320" class="cls-9" d="M232.857 171.756a40.557 40.557 0 01-8.038-3.579 15.3 15.3 0 01-5.319-4.677 1.739 1.739 0 01.18-.28c.02-.02 1.8-1.76 3.179-3.259a68.37 68.37 0 016.4-5.259c.52.36 3.6 2.559 5.379 3.679 1.48.94 4.459 2.539 5.859 3.279a.58.58 0 01.2.86l-.78 1.16q-1.939 3-4.019 5.9a5.7 5.7 0 01-3.039 2.179" transform="translate(-201.765 -153.36)"/><path id="패스_620321" data-name="패스 620321" d="M27.473 1.5c.52.36 3.6 2.419 5.379 3.539 1.48.94 4.459 2.539 5.859 3.279a.58.58 0 01.2.86l-.78 1.16q-1.94 3-4.019 5.9a5.7 5.7 0 01-3.019 2.159 40.559 40.559 0 01-8.038-3.579 16.377 16.377 0 01-5.5-4.919" stroke-linecap="round" stroke-width=".6" stroke-linejoin="round" stroke="#222" fill="none"/><path id="패스_620322" data-name="패스 620322" d="M12.557 24.494a15.594 15.594 0 005.179 3" stroke="#e2e2e2" stroke-width=".6" stroke-linecap="round" stroke-linejoin="round" fill="none"/><path id="사각형_235168" data-name="사각형 235168" class="cls-9" transform="translate(34.131 4.899)" d="M0 0h2.479v2.683H0z"/></g><g id="그룹_300250" data-name="그룹 300250" class="cls-4"><path id="패스_620323" data-name="패스 620323" class="cls-9" d="M308.42 342.741c.4.22.44.58.1.78a1.5 1.5 0 01-1.34-.06c-.4-.22-.44-.58-.1-.78a1.5 1.5 0 011.34.06" transform="translate(-245.496 -274.059)"/><path id="패스_620324" data-name="패스 620324" d="M62.924 68.682c.4.22.44.58.1.78a1.5 1.5 0 01-1.34-.06c-.4-.22-.44-.58-.1-.78a1.5 1.5 0 011.34.06z" stroke-width=".5" stroke-miterlimit="10" stroke="#222" fill="none"/><path id="패스_620325" data-name="패스 620325" class="cls-9" d="M306.8 198.971V162.5h1.88v36.471" transform="translate(-245.456 -130.008)"/><path id="패스_620326" data-name="패스 620326" d="M61.344 68.963V32.492h1.88v36.471" stroke-width=".5" stroke-miterlimit="10" stroke="#222" fill="none"/><path id="패스_620327" data-name="패스 620327" class="cls-9" d="M202.314 56.87l-19.155-11.058c-3.019-1.74-5.459-6.4-5.459-10.417s2.459-5.859 5.459-4.119l19.155 11.057c3.019 1.74 5.459 6.4 5.459 10.417s-2.439 5.859-5.459 4.119" transform="translate(-142.169 -24.498)"/><path id="패스_620328" data-name="패스 620328" class="cls-28" d="M202.314 56.87l-19.155-11.058c-3.019-1.74-5.459-6.4-5.459-10.417s2.459-5.859 5.459-4.119l19.155 11.057c3.019 1.74 5.459 6.4 5.459 10.417s-2.44 5.859-5.459 4.12z" transform="translate(-142.169 -24.498)"/><path id="패스_620329" data-name="패스 620329" class="cls-20" d="M192.333 60.07l-19.874-11.477c-3.119-1.8-5.659-6.658-5.659-10.817s2.539-6.078 5.659-4.279l19.875 11.477c3.119 1.8 5.659 6.658 5.659 10.817s-2.539 6.078-5.659 4.279" transform="translate(-133.448 -26.258)"/><path id="패스_620330" data-name="패스 620330" d="M58.885 33.812L39.011 22.335c-3.119-1.8-5.659-6.658-5.659-10.817s2.539-6.078 5.659-4.279l19.875 11.477c3.119 1.8 5.659 6.658 5.659 10.817s-2.52 6.078-5.66 4.279z" stroke-width=".5" stroke-miterlimit="10" stroke="#222" fill="none"/><path id="패스_620331" data-name="패스 620331" class="cls-5" d="M186.333 63.37l-19.874-11.477c-3.119-1.8-5.659-6.658-5.659-10.817s2.539-6.076 5.659-4.276l19.875 11.477c3.119 1.8 5.659 6.658 5.659 10.817s-2.539 6.078-5.659 4.279" transform="translate(-128.648 -28.898)"/><path id="패스_620332" data-name="패스 620332" d="M57.685 34.472L37.811 22.995c-3.119-1.8-5.659-6.658-5.659-10.817s2.539-6.076 5.659-4.276l19.875 11.477c3.119 1.8 5.659 6.658 5.659 10.817s-2.54 6.095-5.66 4.276z" stroke-width=".5" stroke-miterlimit="10" stroke="#222" fill="none"/><path id="패스_620333" data-name="패스 620333" class="cls-7" d="M186.1 63.8l2.4.8v5.779l-1.28-.74V65.6l-1.12-.32z" transform="translate(-148.889 -51.043)"/><path id="패스_620334" data-name="패스 620334" class="cls-7" d="M203.24 77.438a4 4 0 00.44-.42.76.76 0 00.16-.52 1.02 1.02 0 00-.1-.44.8.8 0 00-.34-.36.26.26 0 00-.36.02.72.72 0 00-.14.5l-1.3-.76a2.219 2.219 0 01.2-1.02.88.88 0 01.62-.5 1.616 1.616 0 011.04.26 3.3 3.3 0 01.96.82 4 4 0 01.6 1.06 2.939 2.939 0 01.2 1.04 1.28 1.28 0 01-.18.72 1.1 1.1 0 01-.46.38l-.76.34 1.56.9v1.68l-3.98-2.28z" transform="translate(-161.13 -59.143)"/><path id="패스_620335" data-name="패스 620335" class="cls-7" d="M237.079 94.019a2.379 2.379 0 01.24 1.06q0 .84-.46.92a2.158 2.158 0 01-1.3-.4l-1.96-1.14V88.8l1.84 1.06a3.978 3.978 0 01.84.64 3.1 3.1 0 01.6.82 2.12 2.12 0 01.22.94 1.02 1.02 0 01-.16.62.58.58 0 01-.42.24 3.739 3.739 0 01.6.88m-1.84-2.039q.22.14.34.06a.275.275 0 00.1-.28.76.76 0 00-.44-.68l-.34-.2v.88zm-.34 1.9l.46.26.28.12a.22.22 0 00.2-.02q.08-.06.08-.28a.62.62 0 00-.16-.46 1.859 1.859 0 00-.4-.3l-.46-.26z" transform="translate(-186.892 -71.045)"/><path id="패스_620336" data-name="패스 620336" class="cls-7" d="M254.32 110.359l-1.52-.88 2.4-4.679 2.4 7.438-1.52-.88-.3-.9-1.16-.66zm1.24-1.28l-.36-1.3-.36.88z" transform="translate(-202.253 -83.845)"/><path id="패스_620337" data-name="패스 620337" class="cls-7" d="M278.719 114.959L277.2 117.5v2.219l-1.36-.78v-2.2l-1.54-4.339 1.56.9.66 2.2.66-1.44z" transform="translate(-219.454 -89.926)"/><path id="패스_620338" data-name="패스 620338" class="cls-31" d="M184.1 63.8l2.4.8v5.779l-1.28-.74V65.6l-1.12-.32z" transform="translate(-147.289 -51.043)"/><path id="패스_620339" data-name="패스 620339" class="cls-31" d="M201.22 77.438a4.04 4.04 0 00.44-.42.76.76 0 00.16-.52 1.02 1.02 0 00-.1-.44.78.78 0 00-.34-.36.26.26 0 00-.36.02.72.72 0 00-.14.5l-1.3-.76a2.219 2.219 0 01.2-1.02.88.88 0 01.62-.5 1.616 1.616 0 011.04.26 3.3 3.3 0 01.96.82 4 4 0 01.6 1.06 2.939 2.939 0 01.2 1.04 1.28 1.28 0 01-.18.72 1.1 1.1 0 01-.46.38l-.76.34 1.56.9v1.68l-3.96-2.28z" transform="translate(-159.53 -59.143)"/><path id="패스_620340" data-name="패스 620340" class="cls-31" d="M235.079 94.019a2.379 2.379 0 01.24 1.06q0 .84-.46.92a2.158 2.158 0 01-1.3-.4l-1.96-1.14V88.8l1.84 1.06a3.979 3.979 0 01.84.64 3.1 3.1 0 01.6.82 2.119 2.119 0 01.22.94 1.02 1.02 0 01-.16.62.58.58 0 01-.42.24 3.739 3.739 0 01.6.88m-1.84-2.039q.24.14.34.06a.34.34 0 00.1-.28.76.76 0 00-.44-.68l-.34-.2v.88zm-.34 1.9l.46.26.28.12a.22.22 0 00.2-.02q.08-.06.08-.28a.62.62 0 00-.16-.46 1.859 1.859 0 00-.4-.3l-.46-.26z" transform="translate(-185.292 -71.045)"/><path id="패스_620341" data-name="패스 620341" class="cls-31" d="M252.32 110.359l-1.52-.88 2.4-4.679 2.4 7.438-1.52-.88-.3-.9-1.16-.66zm1.24-1.28l-.36-1.3-.36.88z" transform="translate(-200.653 -83.845)"/><path id="패스_620342" data-name="패스 620342" class="cls-31" d="M276.719 114.959L275.2 117.5v2.219l-1.36-.78v-2.2l-1.54-4.339 1.54.9.68 2.2.66-1.44z" transform="translate(-217.854 -89.926)"/><g id="그룹_300249" data-name="그룹 300249" class="cls-11" transform="translate(61.344 33.691)"><g id="그룹_300248" data-name="그룹 300248" clip-path="url(#clip-path-8)"><path id="패스_620343" data-name="패스 620343" d="M306.8 173.519l1.88.7V168.5l-1.88 1.12z" transform="translate(-306.8 -168.5)"/></g></g></g><g id="그룹_300253" data-name="그룹 300253" class="cls-4"><g id="그룹_300252" data-name="그룹 300252" class="cls-11" transform="translate(35.311 39.97)"><g id="그룹_300251" data-name="그룹 300251" clip-path="url(#clip-path-10)"><path id="패스_620344" data-name="패스 620344" class="cls-31" d="M192.5 208.236c-.16 1.1.54 1.36.18 2.1a.7.7 0 01-.14.22c-.46.46-1.58.22-3.539.96-1.2.46-1.32.74-1.879.7-1.38-.1-2.239-1.92-2.7-2.7-.98-1.66-2.639-4.139-7.518-5.339a.42.42 0 01.08-.82l8.078.06a5.9 5.9 0 003.559-1.18c.48-.42 1.2-1.42 1.78-1.7s2.439-.88 3.4-.12.86 4.4-.48 6.2a3.4 3.4 0 00-.82 1.62" transform="translate(-176.606 -200.018)"/></g></g><path id="패스_620345" data-name="패스 620345" d="M188.108 222.147c-.46.46-1.58.22-3.539.96-1.2.46-1.32.74-1.88.7-1.38-.1-2.239-1.92-2.7-2.7-.98-1.66-3.059-3.6-7.918-4.8a.42.42 0 01-.3-.48c.12.02.44-.38.58-.34 8.758 1.74 13.776 4.219 15.336 5.419.38.28.44 1.26.44 1.26" transform="translate(-137.421 -172.4)" fill="#0593d1"/><path id="패스_620346" data-name="패스 620346" d="M50.687 49.747c-.46.46-1.58.22-3.539.96-1.2.46-1.32.74-1.88.7-1.38-.1-2.239-1.92-2.7-2.7-.98-1.66-3.059-3.6-7.918-4.8a.42.42 0 01-.3-.48c.12.02.44-.38.58-.34 8.758 1.74 13.776 4.219 15.336 5.419.341.281.421 1.241.421 1.241z" stroke-width=".5" stroke-miterlimit="10" stroke="#222" fill="none"/><path id="패스_620347" data-name="패스 620347" d="M171.7 200.437a.42.42 0 01.38-.34l8.478-.48a5.9 5.9 0 003.559-1.18c.48-.42 1.2-1.42 1.78-1.7s2.439-.88 3.4-.12.86 4.4-.48 6.2a3.4 3.4 0 00-.82 1.62c-.16 1.1.54 1.36.18 2.1a.7.7 0 01-.14.22" transform="translate(-137.369 -157.008)" fill="#00a4ff"/><path id="패스_620348" data-name="패스 620348" d="M34.331 43.429a.42.42 0 01.38-.34l8.478-.48a5.9 5.9 0 003.559-1.18c.48-.42 1.2-1.42 1.78-1.7s2.439-.88 3.4-.12.86 4.4-.48 6.2a3.4 3.4 0 00-.82 1.62c-.16 1.1.54 1.36.18 2.1a.7.7 0 01-.14.22" stroke-width=".5" stroke-miterlimit="10" stroke="#222" fill="none"/><path id="패스_620349" data-name="패스 620349" class="cls-5" d="M238.574 200.592a5.533 5.533 0 00-4.119 2.019.08.08 0 00.08.12l4.039-2.039a.06.06 0 00-.02-.1" transform="translate(-187.567 -160.482)"/><path id="패스_620350" data-name="패스 620350" class="cls-5" d="M196.951 225.23a41.847 41.847 0 019.378 3.6s-13.6-4.8-9.378-3.6" transform="translate(-156.922 -180.041)"/></g><g id="그룹_300254" data-name="그룹 300254" class="cls-4"><path id="패스_620351" data-name="패스 620351" class="cls-9" d="M159.292 214.363l-1.8-.46a.34.34 0 11.16-.66l1.8.46a.34.34 0 01-.16.66" transform="translate(-125.781 -170.594)"/><path id="패스_620352" data-name="패스 620352" class="cls-9" d="M144.86 208.021l-.3-.32a1.22 1.22 0 00-1.28-.34l-.38.12" transform="translate(-114.327 -165.852)"/><path id="패스_620353" data-name="패스 620353" d="M22.414 48.108c1.64 9.8 6.318 16.776 11.717 17.516a7.519 7.519 0 003.219-.3" stroke-width=".5" stroke-miterlimit="10" stroke="#222" fill="none"/><path id="패스_620354" data-name="패스 620354" d="M36.349 61.866c.08.3.58.56 1.12.54s1.1-.34 1-.72a1.97 1.97 0 00-1.74-.86c-.82 0-1.72.52-1.54 1.12a3.055 3.055 0 002.719 1.34c1.62-.02 2.7-.8 2.419-1.74s-2.259-2.1-4.259-2.079c-2.519.04-4.2 1.26-3.779 2.739.54 1.84 3.519 3.3 6.658 3.259 3.939-.06 6.578-1.96 5.9-4.279l-.16-.38" stroke-width=".5" stroke-linecap="round" stroke-miterlimit="10" stroke="#222" fill="none"/></g><g id="그룹_300257" data-name="그룹 300257" class="cls-4"><g id="그룹_300256" data-name="그룹 300256" transform="translate(16.896 63.504)" opacity=".2"><g id="그룹_300255" data-name="그룹 300255" clip-path="url(#clip-path-13)"><path id="패스_620355" data-name="패스 620355" class="cls-9" d="M95.477 320.319c0 1.56-2.439 2.819-5.439 2.819s-5.439-1.26-5.439-2.819 2.439-2.819 5.439-2.819 5.439 1.26 5.439 2.819" transform="translate(-84.58 -317.52)"/></g></g><path id="패스_620356" data-name="패스 620356" class="cls-5" d="M123 203.119l.74-.56.34-.82-.44-.98-.16-.36h.2l3.059 1.46 1.8.66h.74l.42-.08.66.58s.22.4.06.5l.56.6-1.54.8-.58-.3-.66-.86-3.879-.12z" transform="translate(-98.406 -160.33)"/></g><g id="그룹_300262" data-name="그룹 300262" class="cls-4"><path id="패스_620357" data-name="패스 620357" class="cls-9" d="M101.039 321.46a1.04 1.04 0 01-.44.84h-.04l-3.119 1.959h-.02a1.32 1.32 0 01-.62.16 1.137 1.137 0 01-1.2-1.02v-2.039a1.48 1.48 0 01.2-.74h.02l.08.54a.933.933 0 001.84-.08l.04-.28h.04l1.74-.4h.26a1.163 1.163 0 011.22 1.08" transform="translate(-76.485 -256.336)"/><path id="패스_620358" data-name="패스 620358" d="M24.554 65.123a1.04 1.04 0 01-.44.84h-.04l-3.119 1.959h-.02a1.32 1.32 0 01-.62.16 1.137 1.137 0 01-1.2-1.02v-2.039a1.48 1.48 0 01.2-.74h.02l.08.54h0a.933.933 0 001.84-.08l.04-.28h.04l1.74-.4h.26a1.122 1.122 0 011.219 1.06z" stroke-width=".2" stroke-miterlimit="10" stroke="#222" fill="none"/><path id="패스_620359" data-name="패스 620359" d="M23.994 42.689l1.16.34a4.139 4.139 0 001.08.18l4.079.16a.48.48 0 00.2-.6" stroke-width=".5" stroke-linecap="round" stroke-miterlimit="10" stroke="#222" fill="none"/><path id="패스_620360" data-name="패스 620360" d="M24.094 39.59l2.679 1.32 3.479 1.38.78-.18a.46.46 0 01.42.12l.56.54" stroke-width=".5" stroke-linecap="round" stroke-miterlimit="10" stroke="#222" fill="none"/><path id="패스_620361" data-name="패스 620361" d="M29.712 43.369l.84.98a.58.58 0 00.7.12l1.18-.66a.16.16 0 000-.28l-.66-.38" stroke-width=".5" stroke-linecap="round" stroke-miterlimit="10" stroke="#222" fill="none"/><path id="패스_620362" data-name="패스 620362" d="M83.8 239.6l-.8 14.536a.959.959 0 01-.04.3 1.26 1.26 0 01-2.339-.06.979.979 0 01-.02-.24l-.14-1.26c0 .06.04.16.04.22a1.3 1.3 0 01-2.459.02v-.18L76.84 239.5l-.04-.4.18.22c.1 1.2 1.72 1.9 3.519 1.9s3.119-.86 3.339-1.98z" transform="translate(-61.444 -191.292)" fill="#3673ee"/><path id="선_85432" data-name="선 85432" class="cls-5" transform="translate(15.216 39.97)" d="M.14 3.139L0 0"/><path id="패스_620363" data-name="패스 620363" class="cls-5" d="M85.419 309.1l-.16 1.98a.894.894 0 01-.94.82.92.92 0 01-.92-.64v-.14l-.4-2a1.3 1.3 0 002.459-.02" transform="translate(-66.404 -247.296)"/><path id="패스_620364" data-name="패스 620364" class="cls-9" d="M86.972 314.8l.2 1.2h-.02a1.48 1.48 0 00-.2.74v1.56h-.1a1.3 1.3 0 01-.78.24 1.139 1.139 0 01-1.2-1.04v-.14a7.517 7.517 0 01-.06-1.68h.02a.92.92 0 00.92.64.881.881 0 00.94-.82" transform="translate(-67.837 -251.856)"/><path id="패스_620365" data-name="패스 620365" d="M19.135 62.944h0l.2 1.2h-.02a1.48 1.48 0 00-.2.74v1.56h-.1a1.3 1.3 0 01-.78.24 1.139 1.139 0 01-1.2-1.04h0v-.14a7.517 7.517 0 01-.06-1.68h.02a.92.92 0 00.92.64.881.881 0 00.94-.82" stroke-width=".2" stroke-miterlimit="10" stroke="#222" fill="none"/><path id="패스_620366" data-name="패스 620366" class="cls-5" d="M79.589 194.157l.08.88c-.22 1.12-1.9 2.239-3.6 2.239s-3.279-.96-3.359-2.159h-.04l-.24-4.659a5.619 5.619 0 01-1.08-3.7v-.34a2.259 2.259 0 011.86-2.079l.76-.14.46.18c-.04.48-.22.92 1.14 1.04s1.56-.12 1.8-.54a.36.36 0 01.36-.18h.06l.08.04 3.519 2.379.28.18a1.62 1.62 0 01-1.04 2.859h-.02l-.72-.28-.4-.18z" transform="translate(-57.075 -147.369)"/><g id="그룹_300259" data-name="그룹 300259" class="cls-48" transform="translate(20.255 41.689)"><g id="그룹_300258" data-name="그룹 300258" clip-path="url(#clip-path-15)"><path id="패스_620367" data-name="패스 620367" class="cls-9" d="M101.3 208.535a3.3 3.3 0 012.1.5v3.2z" transform="translate(-101.3 -208.515)"/></g></g><path id="패스_620368" data-name="패스 620368" class="cls-9" d="M89.5 261l.94 1.08-.2-1.02z" transform="translate(-71.605 -208.813)"/><path id="선_85433" data-name="선 85433" class="cls-50" transform="translate(24.594 39.95)" d="M.04.02L0 0"/><path id="패스_620369" data-name="패스 620369" d="M24.594 39.95l-.28-.18z" stroke-width=".5" stroke-linecap="round" stroke-linejoin="round" stroke="#222" fill="none"/><path id="패스_620370" data-name="패스 620370" d="M20.435 41.69c.66-.16 1.16.26 1.78.52" stroke-width=".5" stroke-linecap="round" stroke-linejoin="round" stroke="#222" fill="none"/><path id="선_85434" data-name="선 85434" class="cls-53" transform="translate(21.535 47.688)" d="M0 15.156L1.04 0"/><path id="선_85435" data-name="선 85435" stroke-width=".5" stroke-linecap="round" stroke-linejoin="round" stroke="#222" fill="none" d="M16.536 61.544l-1.26-13.736"/><path id="선_85436" data-name="선 85436" class="cls-50" transform="translate(15.216 39.97)" d="M.14 3.139L0 0"/><path id="패스_620371" data-name="패스 620371" d="M17.036 65.784v-.14a7.5 7.5 0 01-.06-1.68" stroke-width=".5" stroke-linecap="round" stroke-linejoin="round" stroke="#222" fill="none"/><path id="패스_620372" data-name="패스 620372" d="M22.514 46.848a1.839 1.839 0 01.08.5 1.719 1.719 0 01-.04.34c-.24 1.26-1.76 2.219-3.619 2.219s-3.539-1.059-3.639-2.419v-.14" stroke-width=".5" stroke-linecap="round" stroke-linejoin="round" stroke="#222" fill="none"/><path id="패스_620373" data-name="패스 620373" d="M21.534 62.844a1.15 1.15 0 01-1.22 1.08 1.248 1.248 0 01-1.319-1.08" stroke-width=".5" stroke-linecap="round" stroke-linejoin="round" stroke="#222" fill="none"/><path id="패스_620374" data-name="패스 620374" d="M18.975 61.964a1.26 1.26 0 01-1.18.74 1.19 1.19 0 01-1.26-1.1" stroke-linecap="round" stroke-linejoin="round" stroke-width=".5" stroke="#222" fill="none"/><path id="패스_620375" data-name="패스 620375" d="M18.896 63.664a.906.906 0 01-.98.82.921.921 0 01-.98-.72" stroke-width=".5" stroke-linecap="round" stroke-linejoin="round" stroke="#222" fill="none"/><path id="패스_620376" data-name="패스 620376" d="M21.275 64.744a.933.933 0 01-1.84.08" stroke-width=".5" stroke-linecap="round" stroke-linejoin="round" stroke="#222" fill="none"/><path id="패스_620377" data-name="패스 620377" d="M20.955 67.943a1.32 1.32 0 01-.62.16 1.163 1.163 0 01-1.22-1.08.979.979 0 01.02-.18" stroke-width=".5" stroke-linecap="round" stroke-linejoin="round" stroke="#222" fill="none"/><path id="패스_620378" data-name="패스 620378" d="M23.194 64.064h.16a1.163 1.163 0 011.22 1.08 1.04 1.04 0 01-.44.82" stroke-width=".5" stroke-linecap="round" stroke-linejoin="round" stroke="#222" fill="none"/><path id="패스_620379" data-name="패스 620379" d="M19.016 66.443a1.3 1.3 0 01-.78.24 1.172 1.172 0 01-1.22-1.04" stroke-width=".5" stroke-linecap="round" stroke-linejoin="round" stroke="#222" fill="none"/><path id="선_85437" data-name="선 85437" class="cls-53" transform="translate(21.275 63.144)" d="M.22 0L0 1.6"/><path id="패스_620380" data-name="패스 620380" d="M19.035 62.824l-.36-10.077a.68.68 0 00-.7-.66" stroke-width=".5" stroke-linecap="round" stroke-linejoin="round" stroke="#222" fill="none"/><path id="선_85438" data-name="선 85438" class="cls-53" transform="translate(20.975 65.983)" d="M0 1.96L3.119 0"/><path id="선_85439" data-name="선 85439" class="cls-53" transform="translate(21.335 64.084)" d="M1.76 0L0 .38"/><path id="패스_620381" data-name="패스 620381" d="M19.115 67.084v-2.06a1.5 1.5 0 01.14-.64" stroke-width=".5" stroke-linecap="round" stroke-linejoin="round" stroke="#222" fill="none"/><path id="선_85440" data-name="선 85440" class="cls-66" transform="translate(16.536 61.704)" d="M.42 2.119L0 0"/><path id="선_85441" data-name="선 85441" class="cls-53" transform="translate(18.895 61.704)" d="M0 2.099L.08 0"/><path id="패스_620382" data-name="패스 620382" class="cls-66" d="M72.346 195.417l.08-4.379a5.619 5.619 0 01-1.08-3.719v-.34a2.259 2.259 0 011.86-2.079h1.2c.22.4-.3.84 1.04.94a2.26 2.26 0 001.9-.44c.6-.3 4.019 2.259 4.019 2.259l.28.18a1.62 1.62 0 01.5 1.7 1.46 1.46 0 01-2.039.92l-.84-.36.28 4.579" transform="translate(-57.07 -147.929)"/><path id="선_85442" data-name="선 85442" class="cls-5" transform="translate(20.215 36.651)" d="M.06.72L0 0"/><path id="선_85443" data-name="선 85443" stroke-width=".5" stroke-linecap="round" stroke-miterlimit="10" stroke="#222" fill="none" d="M20.275 37.371l-.06-.72"/><path id="패스_620383" data-name="패스 620383" class="cls-9" d="M99.976 174.976l-.28-.04a.58.58 0 01-.52-.66l.16-1.28a.58.58 0 01.66-.52l.28.04a.58.58 0 01.52.66l-.16 1.28a.58.58 0 01-.66.52" transform="translate(-79.341 -137.985)"/><path id="패스_620384" data-name="패스 620384" class="cls-9" d="M98.348 147.535a1.7 1.7 0 101.88-1.48 1.7 1.7 0 00-1.88 1.48" transform="translate(-78.673 -116.843)"/><path id="패스_620385" data-name="패스 620385" class="cls-5" d="M88.939 157.937l.3.04a1.34 1.34 0 001.5-1.18l.4-3.279a1.8 1.8 0 00-3.559-.42l-.56 4.619-.12.76" transform="translate(-69.524 -121.346)"/><path id="패스_620386" data-name="패스 620386" d="M19.415 36.591l.3.04a1.34 1.34 0 001.5-1.18l.4-3.279a1.8 1.8 0 00-3.559-.42l-.56 4.619-.12.76" stroke-width=".5" stroke-linecap="round" stroke-miterlimit="10" stroke="#222" fill="none"/><path id="사각형_235178" data-name="사각형 235178" class="cls-9" transform="rotate(-53.2 40.47 -4.143)" d="M0 0h.94v2.883H0z"/><path id="사각형_235179" data-name="사각형 235179" class="cls-9" transform="rotate(-53.2 41.309 -3.654)" d="M0 0h1.74v.682H0z"/><path id="패스_620387" data-name="패스 620387" class="cls-9" d="M85.889 156.639l1.979.24.38-3.119-3.039-.36-.24 2.039a1.08 1.08 0 00.94 1.2" transform="translate(-67.973 -122.728)"/><path id="패스_620388" data-name="패스 620388" class="cls-5" d="M98.4 164.883a.6.6 0 00-.14 1.2" transform="translate(-78.188 -131.912)"/><path id="패스_620389" data-name="패스 620389" d="M20.212 32.971a.604.604 0 00-.14 1.2" stroke-width=".5" stroke-linecap="round" stroke-miterlimit="10" stroke="#222" fill="none"/><path id="패스_620390" data-name="패스 620390" class="cls-9" d="M86.054 148.133a1.58 1.58 0 10.594-1.055 1.58 1.58 0 00-.594 1.055" transform="translate(-68.839 -117.401)"/><path id="패스_620391" data-name="패스 620391" class="cls-9" d="M107.634 167.555a.16.16 0 01-.14-.18l.1-.88a.171.171 0 11.34.04l-.1.88a.16.16 0 01-.18.14" transform="translate(-86 -133.084)"/><path id="패스_620392" data-name="패스 620392" d="M21.634 34.471h0a.16.16 0 01-.14-.18l.1-.88a.171.171 0 11.34.04l-.1.88a.16.16 0 01-.2.14z" stroke-width=".5" stroke-miterlimit="10" stroke="#222" fill="none"/><path id="선_85444" data-name="선 85444" class="cls-9" transform="translate(19.935 32.732)" d="M1.78.78L0 0"/><path id="선_85445" data-name="선 85445" class="cls-28" transform="translate(19.935 32.732)" d="M1.78.78L0 0"/><g id="그룹_300261" data-name="그룹 300261" class="cls-48" transform="translate(14.236 33.511)"><g id="그룹_300260" data-name="그룹 300260" clip-path="url(#clip-path-16)"><path id="패스_620393" data-name="패스 620393" class="cls-9" d="M74.834 167.6l.24 4.479-.66 11.757s-.22 1.62.66 2.339l.54.66.3 9.418.24 1.3-1.3 1.14h-.7a22.069 22.069 0 01-1.06-7.138l-.88-10.577v-4.1A4.057 4.057 0 0171.2 173.4a2.243 2.243 0 012.239-2.339l.96-.12z" transform="translate(-71.175 -167.6)"/></g></g><path id="패스_620394" data-name="패스 620394" class="cls-5" d="M98.139 315.56l-.18 1.32-.04.28a.933.933 0 01-1.84.08L96 316.7l-.2-1.2a1.26 1.26 0 002.339.06" transform="translate(-76.645 -252.416)"/><path id="패스_620395" data-name="패스 620395" d="M21.494 63.144l-.18 1.32-.04.28a.933.933 0 01-1.84.08h0l-.079-.54-.2-1.2a1.26 1.26 0 002.339.06z" stroke-width=".2" stroke-miterlimit="10" stroke="#222" fill="none"/></g></g></g></g></g><g id="안전대_37x38" data-name="안전대 37x38" transform="translate(-510.223 423.227)"><path id="패스_338161" data-name="패스 338161" d="M625.232 58c0 .459-.1.835-.229.835v.005l-4.744.693-3.742 2.479a1.649 1.649 0 01-1.683-.082l-4.773-3.162c-.5-.333-.552-.835-.119-1.119l5.011-3.325a1.658 1.658 0 011.688.082l2.895 1.917 5.468.825v.016c.128-.002.228.37.228.836z" transform="translate(-2.009 -12.976)" opacity=".3"/><path id="패스_330370" data-name="패스 330370" class="cls-74" d="M605.227 58.158a.453.453 0 010-.055v-1.692h2.48l3.611-2.085a2.153 2.153 0 011.938.08l3.472 2h2.48v1.764a.563.563 0 01-.333.519l-5.758 3.324a2.155 2.155 0 01-1.938-.08L605.7 58.77a.823.823 0 01-.472-.6z" transform="translate(-.002 -12.977)"/><path id="패스_330371" data-name="패스 330371" class="cls-74" d="M613.115 58.793l5.758-3.324c.5-.287.437-.788-.139-1.119l-5.479-3.163a2.153 2.153 0 00-1.938-.08l-5.758 3.324c-.5.287-.437.788.139 1.119l5.479 3.163a2.155 2.155 0 001.938.08z" transform="translate(0 -11.516)"/><path id="패스_330372" data-name="패스 330372" class="cls-75" d="M621.663 58.888l.431-3.17h2.7l1.407.812c.574.331.636.832.139 1.119l-2.146 1.239z" transform="translate(-8.821 -13.154)"/><path id="패스_330373" data-name="패스 330373" class="cls-5" d="M611.412 55.68l.313-2.486h6.565l.313 2.485a1.244 1.244 0 01.038.3 1.806 1.806 0 01-1.065 1.484 5.681 5.681 0 01-5.14 0c-.842-.483-1.184-1.15-1.024-1.783z" transform="translate(-3.388 -12.001)"/><path id="패스_330374" data-name="패스 330374" class="cls-76" d="M621.166 53.194h1.57l.313 2.485a1.244 1.244 0 01.038.3 1.806 1.806 0 01-1.065 1.484 4 4 0 01-.587.273z" transform="translate(-8.333 -11.962)"/><path id="패스_330375" data-name="패스 330375" class="cls-74" d="M612.052 50.6l.317-2.515h5.862l.317 2.515a1.117 1.117 0 01.035.273 1.631 1.631 0 01-.962 1.34 5.133 5.133 0 01-4.641 0c-.763-.438-1.073-1.041-.928-1.613z" transform="translate(-3.709 -9.248)"/><path id="패스_330376" data-name="패스 330376" class="cls-75" d="M620.862 48.085h1.384l.317 2.515a1.123 1.123 0 01.035.273 1.631 1.631 0 01-.962 1.34 3.592 3.592 0 01-.514.242z" transform="translate(-8.164 -9.222)"/><path id="패스_330377" data-name="패스 330377" class="cls-5" d="M612.663 45.765a.981.981 0 01.031-.246l.321-2.545h5.157l.321 2.545a1.037 1.037 0 01.031.246 1.457 1.457 0 01-.858 1.2 4.58 4.58 0 01-4.144 0 1.456 1.456 0 01-.858-1.2z" transform="translate(-4.028 -6.506)"/><path id="패스_330378" data-name="패스 330378" class="cls-76" d="M620.558 42.975h1.2l.321 2.545a1.034 1.034 0 01.031.246 1.457 1.457 0 01-.858 1.2 3.238 3.238 0 01-.442.209z" transform="translate(-7.995 -6.49)"/><path id="패스_330379" data-name="패스 330379" class="cls-74" d="M613.334 40.439l.325-2.574h4.453l.325 2.574a.891.891 0 01.027.218 1.281 1.281 0 01-.755 1.053 4.03 4.03 0 01-3.647 0c-.599-.348-.841-.822-.728-1.271z" transform="translate(-4.344 -3.775)"/><path id="패스_330380" data-name="패스 330380" class="cls-75" d="M621.267 37.865l.325 2.574a.891.891 0 01.027.218 1.281 1.281 0 01-.755 1.053 2.83 2.83 0 01-.37.176l-.239-4.019z" transform="translate(-7.827 -3.766)"/><path id="패스_330381" data-name="패스 330381" class="cls-5" d="M613.951 35.55a.751.751 0 01.021-.164l.331-2.621h3.75l.331 2.621a.776.776 0 01.021.167 1.107 1.107 0 01-.652.909 3.482 3.482 0 01-3.149 0 1.106 1.106 0 01-.652-.909z" transform="translate(-4.658 -.904)"/><path id="패스_330382" data-name="패스 330382" class="cls-76" d="M620.819 32.755l.331 2.621a.776.776 0 01.021.167 1.107 1.107 0 01-.652.909 2.434 2.434 0 01-.3.143l-.176-2.965v-.874z" transform="translate(-7.705 -.9)"/><ellipse id="타원_4800" data-name="타원 4800" class="cls-5" cx="1.875" cy="1.082" rx="1.875" ry="1.082" transform="translate(609.626 30.773)"/><path id="패스_330383" data-name="패스 330383" class="cls-75" d="M626.29 60.062l1.429-1.758h1.051v1.759a.563.563 0 01-.333.519l-2.147 1.239z" transform="translate(-11.057 -14.871)"/><path id="패스_338162" data-name="패스 338162" class="cls-5" d="M612.022 53.5l-.088.049.044-.344a1.1 1.1 0 00.044.295z" transform="translate(-3.047 -11.601)"/><g id="패스_338163" data-name="패스 338163" stroke-miterlimit="10" fill="none"><path class="cls-78" d="M616.89 44.074a.9.9 0 00-.018-.1l-.032-.077a.694.694 0 00-.1-.14 1.064 1.064 0 00-.241-.2l-1.171-.716-1.491-.914-.036-.31a.857.857 0 00-.032-.242l-.264-2.23a1.215 1.215 0 00-.023-.218l-.269-2.25a.853.853 0 00-.022-.189l-.273-2.279a.525.525 0 00-.019-.15l-.183-1.552-.09-.766c0-.527-.7-.958-1.563-.958s-1.568.431-1.568.958l-.278 2.322a.784.784 0 00-.014.145l-.273 2.279a.894.894 0 00-.023.189l-.264 2.255a.87.87 0 00-.027.218l-.264 2.23a1.1 1.1 0 00-.032.242 1.033 1.033 0 00.036.261l-.073.044-2.779 1.7a.519.519 0 00-.278.46v1.558a.716.716 0 00.392.532l4.57 2.8a1.7 1.7 0 001.618.073l3.017-1.848 1.791-1.1a.5.5 0 00.278-.46v-1.533a.075.075 0 00-.002-.034z" transform="translate(-.001)"/><path d="M611.07 49.228c.252 0 .503-.057.739-.17l3.017-1.85 1.79-1.097a.504.504 0 00.278-.46v-1.543c0-.015 0-.025-.004-.034a.899.899 0 00-.018-.097c-.01-.024-.023-.053-.032-.078a.694.694 0 00-.1-.14 1.064 1.064 0 00-.242-.198l-1.171-.716-1.49-.915-.037-.31a.857.857 0 00-.032-.241l-.264-2.23c0-.073-.01-.146-.023-.219l-.269-2.25v-.004a.853.853 0 00-.022-.189l-.274-2.279v-.005a.525.525 0 00-.018-.15l-.183-1.552-.09-.765v-.005c0-.527-.702-.958-1.563-.958-.866 0-1.568.43-1.568.958v.005l-.278 2.322a.784.784 0 00-.014.145v.005l-.273 2.28a.894.894 0 00-.023.188l-.264 2.254a.87.87 0 00-.027.218l-.265 2.23a1.1 1.1 0 00-.032.243v.004c0 .088.014.175.037.262l-.074.043-2.779 1.703c-.196.126-.287.29-.278.46v1.548l.005.01a.716.716 0 00.392.532l4.57 2.802c.274.16.577.243.88.243m0 1c-.484 0-.963-.132-1.387-.381l-.008-.005-.008-.005-4.534-2.78c-.42-.219-.73-.61-.855-1.076l-.055-.115V44.111c-.015-.52.259-1.012.738-1.32l.009-.005.009-.005 2.361-1.447c.007-.043.014-.082.022-.119l.253-2.137c.004-.107.017-.214.039-.318l.252-2.156c.004-.089.015-.18.034-.276l.263-2.19c.003-.077.01-.151.022-.225l.27-2.25c.026-.584.363-1.112.935-1.462.452-.276 1.03-.428 1.63-.428.599 0 1.177.152 1.628.429.573.351.91.882.934 1.464l.085.718.176 1.494c.017.084.028.17.031.26l.263 2.189c.014.074.029.17.033.284l.26 2.173c.018.106.028.201.032.294l.25 2.118c.011.046.02.092.027.14l1.07.656 1.17.716.005.003.006.004c.179.112.325.234.448.371.087.094.163.2.232.322l.037.066.024.063.003.007.033.081.019.051.013.053c.014.054.024.101.03.143.024.11.024.197.024.236v1.543c0 .565-.308 1.08-.791 1.334l-1.755 1.076-3.017 1.849-.042.026-.044.021c-.37.18-.766.27-1.175.27z" fill="#222" transform="translate(-.001)"/></g></g></g></svg>