<svg xmlns="http://www.w3.org/2000/svg" width="24" height="24" viewBox="0 0 24 24"><defs><style>.a{fill:#eee;}.b{fill:#003189;}</style></defs><g transform="translate(-232 -292)"><circle class="a" cx="12" cy="12" r="12" transform="translate(232 292)"/><path class="b" d="M46.061,328.624a.274.274,0,0,0,.059-.16v-.8h-.469v0h-.237v.3h.165v.35a.159.159,0,0,1-.177.167s-.169,0-.169-.16v-1.068c0-.16.169-.16.169-.16a.159.159,0,0,1,.177.167v.123h.541v-.271c0-.183-.228-.311-.228-.311a.888.888,0,0,0-.372-.088h-.275a.641.641,0,0,0-.376.12.37.37,0,0,0-.173.295v1.315a.371.371,0,0,0,.173.295.642.642,0,0,0,.376.12h.261a31.872,31.872,0,0,1-6.854,1.816c-5.884.939-10.884.417-11.169-1.166-.151-.838,1.051-1.806,3.088-2.67a.372.372,0,0,0-.168.291v.295a.448.448,0,0,0,.186.362c.055.036.494.263.494.263a.3.3,0,0,1,.207.211.176.176,0,0,1-.186.2.184.184,0,0,1-.178-.2v-.131h-.579v.143a.5.5,0,0,0,.194.447,1.254,1.254,0,0,0,.6.135,1.042,1.042,0,0,0,.549-.159.426.426,0,0,0,.177-.3v-.295a.484.484,0,0,0-.279-.414l-.486-.239c-.182-.068-.161-.195-.161-.195,0-.16.169-.16.169-.16a.159.159,0,0,1,.177.167v.123h.541v-.271c0-.183-.228-.311-.228-.311a.889.889,0,0,0-.372-.088h-.275a.661.661,0,0,0-.119.015,32.046,32.046,0,0,1,6.789-1.789c5.884-.939,10.885-.417,11.169,1.167.141.788-.912,1.69-2.731,2.513Zm-6.9-1.507c0-.183-.228-.311-.228-.311a.889.889,0,0,0-.372-.088H38.29a.64.64,0,0,0-.376.12.37.37,0,0,0-.173.295v.295a.448.448,0,0,0,.186.362c.055.036.494.263.494.263a.3.3,0,0,1,.207.211.176.176,0,0,1-.186.2.184.184,0,0,1-.177-.2v-.131h-.579v.143a.5.5,0,0,0,.194.447,1.253,1.253,0,0,0,.6.135,1.042,1.042,0,0,0,.549-.159.426.426,0,0,0,.178-.3v-.295a.484.484,0,0,0-.279-.414l-.486-.239c-.182-.068-.161-.195-.161-.195,0-.16.169-.16.169-.16a.159.159,0,0,1,.177.167v.123h.541v-.271Zm-5.456-.347h-.93l-.355,1.976H33l.245-1.554.245,1.554h.583l-.363-1.976Zm1.547,1.976v-1.49l.338,1.49h.575l.338-1.482v1.482c-.034.008.524,0,.524,0v-1.976c0,.008-.888,0-.888,0l-.262,1.123-.262-1.123h-.887v1.976Zm8.672-1.976H43.4v1.2l-.583-1.2h-.668v1.976h.524v-1.179l.575,1.179h.676v0m-3.457-.454v-1.522h-.6v1.506s-.034.582.752.582c.82,0,.769-.582.769-.582v-1.506h-.6v1.522s0,.176-.161.176a.161.161,0,0,1-.161-.176Z" transform="translate(205.863 -24.156)"/></g></svg>