<svg xmlns="http://www.w3.org/2000/svg" width="24" height="24"><defs><linearGradient id="a" x1=".5" x2=".5" y2="1" gradientUnits="objectBoundingBox"><stop offset="0" stop-color="#00b0ee"/><stop offset="1" stop-color="#0068b5"/></linearGradient><style>.b{fill:#fff}</style></defs><g transform="translate(-134 -609)"><circle cx="12" cy="12" r="12" transform="translate(134 609)" fill="url(#a)"/><path class="b" d="M142.34 623.088a1.821 1.821 0 11-.056-2.331l.683-.864a2.913 2.913 0 10.007 4.129zM143.557 619.159h1.23v5.646h-1.23zM150.262 619.189h1.23v5.646h-1.23zM148.158 624.863a1.338 1.338 0 01-1.336-1.412h-.008v-3.227h-1.081v-1.035h1.081v-1.1l1.1-.666-.03.84v.922h1.11v1.035h-1.11v2.864a.74.74 0 000 .246v.07a.738.738 0 001.3.344.751.751 0 00.08-.12s.019 1.239-1.106 1.239z"/><path class="b" d="M147.881 623.088v.246a.74.74 0 010-.246z"/><path d="M147.728 615.665a6.005 6.005 0 00-5 2.677h1.739a4.666 4.666 0 016.526 0h1.735a6.005 6.005 0 00-5-2.677z" fill="#ed1c24"/></g></svg>