<svg xmlns="http://www.w3.org/2000/svg" xmlns:xlink="http://www.w3.org/1999/xlink" width="28" height="28" viewBox="0 0 28 28"><defs><style>.a,.d,.f{fill:none;}.b,.e{fill:#fff;}.c{clip-path:url(#a);}.d,.e,.f,.g{stroke:#111;}.d,.f,.g{stroke-width:1.5px;}.f{stroke-linecap:round;}.g{fill:#fddb2b;}.h{stroke:none;}</style><clipPath id="a"><rect class="a" width="28" height="28" transform="translate(-0.085 -0.085)"/></clipPath></defs><g transform="translate(10.085 10.085)"><rect class="b" width="20" height="21" rx="10" transform="translate(-4.085 -7.085)"/><g transform="translate(-10 -10)"><g class="c"><g class="d" transform="translate(-0.085 10.415)"><path class="h" d="M4,0H5A0,0,0,0,1,5,0V8A0,0,0,0,1,5,8H4A4,4,0,0,1,0,4V4A4,4,0,0,1,4,0Z"/><path class="a" d="M3.988.75h0a.263.263,0,0,1,.263.263V6.988a.263.263,0,0,1-.262.263h0A3.238,3.238,0,0,1,.75,4.013V3.988A3.238,3.238,0,0,1,3.988.75Z"/></g><g class="d" transform="translate(22.915 10.415)"><path class="h" d="M0,0H1A4,4,0,0,1,5,4V4A4,4,0,0,1,1,8H0A0,0,0,0,1,0,8V0A0,0,0,0,1,0,0Z"/><path class="a" d="M1.013.75h0A3.238,3.238,0,0,1,4.25,3.988v.025A3.238,3.238,0,0,1,1.013,7.25h0A.263.263,0,0,1,.75,6.988V1.013A.263.263,0,0,1,1.013.75Z"/></g><g class="e" transform="translate(16.415 8.915)"><rect class="h" width="1.5" height="3" rx="0.75"/><rect class="a" x="0.5" y="0.5" width="0.5" height="2" rx="0.25"/></g><g class="e" transform="translate(9.915 8.915)"><rect class="h" width="1.5" height="3" rx="0.75"/><rect class="a" x="0.5" y="0.5" width="0.5" height="2" rx="0.25"/></g><path class="f" d="M9.628,22a12.351,12.351,0,0,0,1.9-.159c4.24-.594,7.71-3.948,7.71-7.989v-5.7c0-4.5-4.3-8.148-9.61-8.148s-9.9,3.648-9.9,8.148" transform="translate(4.403 2.915)"/><g class="g" transform="translate(10.915 22.915)"><rect class="h" width="6" height="4" rx="2"/><rect class="a" x="0.75" y="0.75" width="4.5" height="2.5" rx="1.25"/></g><path class="f" d="M9,4.5a4.5,4.5,0,0,1-9,0" transform="translate(9.415 10.415)"/></g></g></g></svg>