<svg xmlns="http://www.w3.org/2000/svg" width="20" height="20"><defs><clipPath id="a"><path fill="#d5d5d5" d="M0 0h20v20H0z"/></clipPath><clipPath id="b"><path fill="none" d="M0 0h20v20H0z"/></clipPath><style>.e{fill:none;stroke:#111;stroke-linejoin:round;stroke-width:1.5px}.g{fill:#fff}</style></defs><g clip-path="url(#a)"><g clip-path="url(#b)"><path class="e" d="M9.9 16.9h4.7v1.7h2.6a1.6 1.6 0 001.6-1.6v-5.6a2.3 2.3 0 00-2.3-2.3H3.4a2.3 2.3 0 00-2.3 2.3V17a1.6 1.6 0 001.6 1.6h2.5v-1.7zM3.7 13H6M13.8 13h2.3"/><path d="M8.1 5.3h-.4a4.7 4.7 0 00-4.1 2.3l-.9 1.5" stroke-linecap="round" stroke="#111" stroke-linejoin="round" stroke-width="1.5" fill="none"/><path class="g" d="M14.4 2.4l-2.3 2.5-.6 1.8 1.1 2.2 1.8 1 2.7-1L18.3 7l-.8-2.1-1.3-2.1z"/><path d="M17.9 3.5l-3-2.9-3 2.9a4.2 4.2 0 106 0m-1.2 4.8a2.546 2.546 0 11-3.6-3.6L14.9 3l1.8 1.8a2.5 2.5 0 010 3.6" fill="#111"/><path class="g" d="M16.7 8.3a2.546 2.546 0 11-3.6-3.6L14.9 3l1.8 1.8a2.5 2.5 0 010 3.6"/></g></g></svg>