<svg xmlns="http://www.w3.org/2000/svg" width="48" height="54" viewBox="0 0 48 54">
  <g id="그룹_577368" data-name="그룹 577368" transform="translate(-177 -267)">
    <g id="사각형_427854" data-name="사각형 427854" transform="translate(177 267)" fill="red" stroke="red" stroke-width="1" opacity="0">
      <rect width="48" height="54" stroke="none"/>
      <rect x="0.5" y="0.5" width="47" height="53" fill="none"/>
    </g>
    <g id="그룹_577340" data-name="그룹 577340" transform="translate(0 79)">
      <circle id="타원_13551" data-name="타원 13551" cx="24" cy="24" r="24" transform="translate(177 192)" fill="#fff"/>
      <circle id="타원_13480" data-name="타원 13480" cx="23" cy="23" r="23" transform="translate(178.8 193.8)" fill="#f0f0f0"/>
      <g id="타원_13481" data-name="타원 13481" transform="translate(177 192)" fill="none" stroke="#d7d7d7" stroke-linecap="round" stroke-linejoin="round" stroke-width="1.25">
        <circle cx="24" cy="24" r="24" stroke="none"/>
        <circle cx="24" cy="24" r="23.375" fill="none"/>
      </g>
    </g>
    <g id="그룹_577343" data-name="그룹 577343" transform="translate(189.6 280.461)">
      <g id="그룹_577332" data-name="그룹 577332" transform="translate(0 0)">
        <g id="그룹_577370" data-name="그룹 577370" transform="translate(-1)">
          <circle id="타원_13482" data-name="타원 13482" cx="11.655" cy="11.655" r="11.655" transform="translate(2.712 4.039)" fill="#fff"/>
          <path id="패스_694854" data-name="패스 694854" d="M25.308,28.3a2.253,2.253,0,0,1-4.408,0" transform="translate(-13.351 -12.139)" fill="none" stroke="#111" stroke-linecap="square" stroke-miterlimit="10" stroke-width="1.55"/>
          <line id="선_93099" data-name="선 93099" y2="0.49" transform="translate(13.328 11.852)" fill="none" stroke="#111" stroke-linecap="round" stroke-width="1.55"/>
          <line id="선_93100" data-name="선 93100" y2="1.959" transform="translate(13.328 9.893)" fill="none" stroke="#111" stroke-width="1.55"/>
          <line id="선_93101" data-name="선 93101" y2="0.588" transform="translate(6.472 11.754)" fill="none" stroke="#111" stroke-linecap="round" stroke-width="1.55"/>
          <line id="선_93102" data-name="선 93102" y2="1.861" transform="translate(6.472 9.893)" fill="none" stroke="#111" stroke-width="1.55"/>
          <path id="Ellipse_13482" data-name="Ellipse 13482" d="M346.253,424.28a11.643,11.643,0,1,1-9.124-9.355" transform="translate(-322.725 -411.648)" fill="none" stroke="#0e0f0f" stroke-width="1.55" stroke-dasharray="1.55"/>
          <path id="패스_1440291" data-name="패스 1440291" d="M1.847-6.976V-3.9H3.795a1.034,1.034,0,0,1,1.069.542.8.8,0,0,1,.073.337.738.738,0,0,1-.3.622,1.219,1.219,0,0,1-.71.242H1.847V.2a.881.881,0,0,1-.981,1q-.952,0-.966-1V-2.159H-2.926V-3.9H-.1V-6.976Z" transform="translate(21.086 8.514)" fill="#111"/>
          <rect id="사각형_427825" data-name="사각형 427825" width="2" height="2" transform="translate(13.2 1.539)" fill="#f0f0f0"/>
          <path id="패스_1440292" data-name="패스 1440292" d="M12.958,2.891l.853,1.061h.59l1.068-.656-.985-.842Z" transform="translate(0 0.086)" fill="#f0f0f0"/>
        </g>
      </g>
    </g>
  </g>
</svg>
