<svg xmlns="http://www.w3.org/2000/svg" width="90.662" height="90.268"><defs><clipPath id="a"><path data-name="사각형 318396" fill="none" d="M0 0h80v80H0z"/></clipPath><clipPath id="b"><path data-name="사각형 318382" fill="none" d="M0 0h11.3v5.836H0z"/></clipPath><clipPath id="c"><path data-name="사각형 318383" fill="none" d="M0 0h11.74v5.834H0z"/></clipPath><clipPath id="d"><path data-name="사각형 318384" fill="none" d="M0 0h8.26v23.188H0z"/></clipPath><clipPath id="e"><path data-name="사각형 318385" fill="none" d="M0 0h1.14v2.004H0z"/></clipPath><clipPath id="f"><path data-name="사각형 318386" fill="none" d="M0 0h3.7v3.266H0z"/></clipPath><clipPath id="g"><path data-name="사각형 318387" fill="none" d="M0 0h3.5v1.322H0z"/></clipPath><clipPath id="h"><path data-name="사각형 318388" fill="none" d="M0 0h2.86v2.87H0z"/></clipPath><clipPath id="i"><path data-name="사각형 318391" fill="none" d="M0 0h3.32v4.064H0z"/></clipPath><clipPath id="j"><path data-name="사각형 318392" fill="none" d="M0 0h3.68v4.184H0z"/></clipPath><clipPath id="k"><path data-name="사각형 318393" fill="none" d="M0 0h2.18v3.856H0z"/></clipPath><clipPath id="l"><path data-name="사각형 318394" fill="none" d="M0 0h5.16v31.224H0z"/></clipPath></defs><g transform="translate(-193.338 -485)"><circle data-name="타원 7390" cx="21.5" cy="21.5" r="21.5" transform="translate(205 485)" fill="#111"/><g data-name="그룹 16287" fill="#fff"><path data-name="패스 34865" d="M229.018 496.265l.486.164a.132.132 0 00.167-.167l-.164-.485a.132.132 0 01.019-.121l.307-.411a.131.131 0 00-.107-.21l-.513.007a.131.131 0 01-.109-.056l-.3-.418a.132.132 0 00-.234.037l-.153.489a.133.133 0 01-.087.087l-.49.152a.132.132 0 00-.037.233l.418.3a.131.131 0 01.055.109l-.007.512a.132.132 0 00.211.107l.411-.307a.132.132 0 01.127-.022z"/><path data-name="패스 34866" d="M256.162 509.072l-.307-.042a.079.079 0 01-.06-.043l-.139-.277a.08.08 0 00-.143 0l-.136.28a.082.082 0 01-.06.044l-.307.047a.08.08 0 00-.043.136l.223.215a.08.08 0 01.023.071l-.051.306a.08.08 0 00.116.083l.274-.147a.081.081 0 01.074 0l.275.142a.08.08 0 00.115-.085l-.054-.306a.081.081 0 01.022-.071l.221-.218a.08.08 0 00-.043-.135z"/><path data-name="패스 34867" d="M272.665 547.534l-.139-.278a.08.08 0 00-.143 0l-.135.279a.081.081 0 01-.06.044l-.307.047a.08.08 0 00-.043.136l.223.215a.081.081 0 01.023.07l-.05.307a.079.079 0 00.115.083l.274-.147a.08.08 0 01.074 0l.275.142a.08.08 0 00.115-.085l-.054-.306a.08.08 0 01.022-.071l.221-.219a.08.08 0 00-.045-.135l-.307-.042a.078.078 0 01-.059-.04z"/><path data-name="패스 34868" d="M233.053 506.03l-.227.463a.133.133 0 01-.1.073l-.509.075a.133.133 0 00-.073.226l.369.36a.133.133 0 01.038.117l-.086.508a.132.132 0 00.192.139l.455-.241a.132.132 0 01.124 0l.456.239a.132.132 0 00.192-.14l-.088-.508a.133.133 0 01.038-.118l.368-.361a.133.133 0 00-.073-.226l-.51-.074a.132.132 0 01-.1-.072l-.228-.462a.132.132 0 00-.238.002z"/><path data-name="패스 34869" d="M282.552 525.548l-.509-.073a.134.134 0 01-.1-.073l-.229-.462a.132.132 0 00-.237 0l-.227.463a.135.135 0 01-.1.073l-.509.075a.133.133 0 00-.074.227l.369.359a.133.133 0 01.039.117l-.086.509a.133.133 0 00.192.14l.455-.241a.132.132 0 01.123 0l.456.239a.132.132 0 00.192-.14l-.088-.508a.132.132 0 01.038-.117l.369-.361a.133.133 0 00-.074-.227z"/><path data-name="패스 34870" d="M268.444 563.461l-.485-.073a.126.126 0 01-.094-.073l-.218-.462a.123.123 0 00-.225 0l-.217.463a.126.126 0 01-.094.073l-.485.075a.135.135 0 00-.069.226l.351.36a.137.137 0 01.037.117l-.083.509a.128.128 0 00.183.14l.432-.241a.121.121 0 01.118 0l.434.239a.127.127 0 00.183-.14l-.083-.509a.135.135 0 01.036-.117l.35-.361a.135.135 0 00-.071-.226z"/><path data-name="패스 34871" d="M206.981 522.688l-.509-.073a.134.134 0 01-.1-.073l-.228-.462a.132.132 0 00-.237 0l-.227.463a.134.134 0 01-.1.073l-.509.075a.133.133 0 00-.073.227l.369.359a.133.133 0 01.038.118l-.086.508a.132.132 0 00.192.14l.455-.241a.131.131 0 01.123 0l.456.239a.133.133 0 00.192-.141l-.088-.508a.133.133 0 01.038-.117l.368-.36a.133.133 0 00-.074-.227z"/><path data-name="패스 34872" d="M269.237 502.23l-.2-.03a.052.052 0 01-.04-.029l-.092-.186a.053.053 0 00-.1 0l-.091.186a.053.053 0 01-.04.029l-.206.03a.053.053 0 00-.029.091l.148.145a.054.054 0 01.015.047l-.034.2a.053.053 0 00.077.056l.183-.1a.054.054 0 01.05 0l.183.1a.053.053 0 00.077-.057l-.035-.2a.052.052 0 01.015-.047l.148-.145a.053.053 0 00-.029-.09z"/><path data-name="패스 34873" d="M264.349 496.974l-.205-.03a.051.051 0 01-.04-.029l-.092-.186a.053.053 0 00-.1 0l-.091.186a.054.054 0 01-.04.029l-.2.03a.053.053 0 00-.03.091l.148.145a.053.053 0 01.015.047l-.035.2a.054.054 0 00.078.056l.183-.1a.053.053 0 01.05 0l.183.1a.053.053 0 00.077-.056l-.036-.2a.054.054 0 01.016-.047l.148-.145a.054.054 0 00-.029-.091z"/><path data-name="패스 34874" d="M279.451 518.177a.056.056 0 01.016.047l-.035.2a.053.053 0 00.077.056l.183-.1a.054.054 0 01.05 0l.183.1a.054.054 0 00.078-.057l-.035-.2a.052.052 0 01.015-.047l.148-.146a.053.053 0 00-.03-.091l-.2-.03a.053.053 0 01-.04-.029l-.093-.186a.053.053 0 00-.095 0l-.091.187a.055.055 0 01-.041.029l-.2.03a.053.053 0 00-.03.091z"/><path data-name="패스 34875" d="M250.634 564.692l-.2-.03a.053.053 0 01-.041-.029l-.092-.186a.053.053 0 00-.1 0l-.092.187a.051.051 0 01-.04.029l-.2.03a.054.054 0 00-.03.091l.148.145a.054.054 0 01.015.047l-.035.2a.054.054 0 00.077.057l.183-.1a.05.05 0 01.049 0l.184.1a.053.053 0 00.077-.056l-.035-.2a.053.053 0 01.015-.047l.148-.145a.054.054 0 00-.031-.093z"/><path data-name="패스 34876" d="M283.788 535.269a.058.058 0 00-.024-.091l-.165-.03a.047.047 0 01-.033-.029l-.073-.186a.04.04 0 00-.077 0l-.074.186a.047.047 0 01-.032.029l-.166.029a.058.058 0 00-.023.091l.119.146a.059.059 0 01.013.047l-.029.2c-.006.044.032.077.063.057l.147-.1a.035.035 0 01.04 0l.148.1c.031.021.067-.012.062-.056l-.027-.2a.061.061 0 01.013-.047z"/><path data-name="패스 34877" d="M193.518 536.241l-.035.2a.053.053 0 00.077.056l.183-.1a.054.054 0 01.049 0l.183.1a.053.053 0 00.077-.056l-.035-.2a.054.054 0 01.015-.047l.148-.145a.053.053 0 00-.03-.091l-.205-.03a.052.052 0 01-.04-.029l-.092-.186a.053.053 0 00-.1 0l-.091.187a.053.053 0 01-.04.03l-.205.03a.053.053 0 00-.029.091l.148.145a.054.054 0 01.022.045z"/><path data-name="패스 34878" d="M263.044 556.526l-.205-.03a.053.053 0 01-.04-.029l-.092-.186a.053.053 0 00-.1 0l-.091.186a.055.055 0 01-.04.03l-.205.03a.054.054 0 00-.029.091l.148.145a.052.052 0 01.016.047l-.035.205a.053.053 0 00.077.056l.183-.1a.053.053 0 01.049 0l.184.1a.054.054 0 00.078-.056l-.035-.2a.052.052 0 01.015-.047l.148-.145a.053.053 0 00-.026-.097z"/><path data-name="패스 34879" d="M237.959 500.504a.053.053 0 01.016.047l-.035.2a.053.053 0 00.077.056l.183-.1a.054.054 0 01.05 0l.183.1a.053.053 0 00.077-.056l-.035-.2a.053.053 0 01.015-.048l.148-.145a.053.053 0 00-.029-.091l-.205-.03a.053.053 0 01-.04-.029l-.092-.186a.053.053 0 00-.1 0l-.091.186a.054.054 0 01-.04.029l-.2.03a.053.053 0 00-.029.091z"/><path data-name="패스 34880" d="M270.097 516.496l-.2-.03a.054.054 0 01-.04-.029l-.092-.186a.053.053 0 00-.1 0l-.092.186a.053.053 0 01-.04.029l-.205.03a.054.054 0 00-.03.091l.149.145a.054.054 0 01.015.047l-.035.2a.053.053 0 00.077.056l.183-.1a.054.054 0 01.05 0l.183.1a.053.053 0 00.077-.056l-.035-.2a.054.054 0 01.015-.047l.148-.145a.054.054 0 00-.028-.091z"/><path data-name="패스 34881" d="M217 497.008l.183.1a.053.053 0 00.077-.056l-.035-.2a.053.053 0 01.015-.047l.148-.145a.053.053 0 00-.03-.091l-.205-.03a.053.053 0 01-.04-.029l-.092-.186a.053.053 0 00-.1 0l-.092.186a.053.053 0 01-.04.029l-.2.03a.053.053 0 00-.029.091l.149.145a.054.054 0 01.015.047l-.035.2a.053.053 0 00.077.056l.183-.1a.054.054 0 01.051 0z"/><path data-name="패스 34882" d="M250.239 518.857a.053.053 0 00-.03-.091l-.205-.029a.053.053 0 01-.04-.029l-.092-.186a.053.053 0 00-.1 0l-.091.187a.054.054 0 01-.04.029l-.205.03a.053.053 0 00-.029.091l.148.145a.053.053 0 01.016.047l-.035.2a.053.053 0 00.077.056l.183-.1a.055.055 0 01.05 0l.183.1a.053.053 0 00.077-.056l-.035-.2a.053.053 0 01.015-.047z"/><path data-name="패스 34883" d="M225.505 532.18l-.321-.046a.084.084 0 01-.063-.046l-.144-.291a.083.083 0 00-.149 0l-.143.292a.084.084 0 01-.062.046l-.321.047a.084.084 0 00-.046.143l.232.226a.084.084 0 01.024.074l-.054.32a.083.083 0 00.121.088l.287-.151a.082.082 0 01.078 0l.287.15a.083.083 0 00.121-.088l-.055-.32a.085.085 0 01.024-.074l.231-.227a.084.084 0 00-.047-.143z"/><path data-name="패스 34884" d="M206.839 510.622l-.2-.03a.053.053 0 01-.04-.029l-.092-.186a.053.053 0 00-.1 0l-.092.186a.054.054 0 01-.04.029l-.205.03a.054.054 0 00-.029.091l.149.145a.054.054 0 01.015.047l-.035.2a.053.053 0 00.077.056l.183-.1a.053.053 0 01.05 0l.183.1a.053.053 0 00.077-.056l-.035-.2a.054.054 0 01.015-.047l.148-.145a.054.054 0 00-.029-.091z"/><path data-name="패스 34885" d="M200.092 517.527l-.205-.03a.053.053 0 01-.04-.029l-.092-.186a.053.053 0 00-.1 0l-.091.187a.053.053 0 01-.04.029l-.2.03a.053.053 0 00-.029.091l.148.145a.054.054 0 01.016.047l-.035.2a.053.053 0 00.077.056l.183-.1a.052.052 0 01.05 0l.183.1a.053.053 0 00.077-.057l-.035-.2a.052.052 0 01.015-.047l.148-.145a.053.053 0 00-.03-.091z"/><path data-name="패스 34886" d="M252.676 547.073l-.206-.03a.054.054 0 01-.04-.029l-.092-.186a.053.053 0 00-.1 0l-.091.186a.053.053 0 01-.04.029l-.205.03a.054.054 0 00-.03.091l.149.145a.054.054 0 01.016.047l-.035.2a.053.053 0 00.077.056l.183-.1a.054.054 0 01.05 0l.183.1a.054.054 0 00.077-.056l-.035-.2a.054.054 0 01.015-.048l.148-.145a.053.053 0 00-.024-.09z"/><path data-name="패스 34887" d="M194.979 528.277l-.205-.03a.052.052 0 01-.04-.029l-.092-.186a.053.053 0 00-.1 0l-.091.186a.053.053 0 01-.04.029l-.2.03a.054.054 0 00-.029.091l.149.145a.053.053 0 01.015.047l-.035.205a.053.053 0 00.077.056l.183-.1a.051.051 0 01.05 0l.183.1a.053.053 0 00.077-.056l-.035-.2a.054.054 0 01.015-.048l.148-.145a.054.054 0 00-.03-.095z"/><path data-name="패스 34888" d="M206.335 536.648l-.165-.03a.044.044 0 01-.032-.029l-.073-.186a.04.04 0 00-.077 0l-.074.186a.044.044 0 01-.032.029l-.165.03a.057.057 0 00-.024.091l.119.145a.063.063 0 01.012.047l-.029.205c-.006.043.031.077.062.056l.148-.1a.034.034 0 01.04 0l.147.1c.032.021.068-.012.063-.056l-.028-.2a.063.063 0 01.012-.047l.12-.145a.057.057 0 00-.024-.096z"/><path data-name="패스 34889" d="M265.179 532.056l-.205-.03a.054.054 0 01-.04-.029l-.092-.186a.053.053 0 00-.1 0l-.091.187a.056.056 0 01-.04.029l-.205.03a.053.053 0 00-.029.091l.148.145a.052.052 0 01.015.047l-.034.2a.053.053 0 00.077.056l.183-.1a.053.053 0 01.05 0l.183.1a.053.053 0 00.077-.056l-.035-.2a.053.053 0 01.015-.047l.148-.145a.053.053 0 00-.025-.092z"/><path data-name="패스 34890" d="M195.845 544.153l-.205-.03a.053.053 0 01-.04-.029l-.092-.186a.053.053 0 00-.1 0l-.091.186a.053.053 0 01-.04.029l-.2.03a.054.054 0 00-.029.092l.149.145a.053.053 0 01.015.047l-.035.205a.053.053 0 00.077.056l.183-.1a.054.054 0 01.05 0l.183.1a.053.053 0 00.077-.057l-.035-.2a.053.053 0 01.015-.047l.148-.145a.053.053 0 00-.03-.096z"/><path data-name="패스 34891" d="M281.453 545.053l-.035-.2a.052.052 0 01.015-.047l.148-.145a.053.053 0 00-.03-.091l-.2-.029a.054.054 0 01-.041-.029l-.092-.186a.053.053 0 00-.1 0l-.091.187a.053.053 0 01-.04.029l-.2.03a.053.053 0 00-.03.091l.149.145a.053.053 0 01.015.047l-.034.2a.054.054 0 00.078.056l.183-.1a.054.054 0 01.05 0l.183.1a.054.054 0 00.072-.058z"/><path data-name="패스 34892" d="M224.5 548.313l-.205-.03a.054.054 0 01-.04-.029l-.092-.186a.053.053 0 00-.1 0l-.092.187a.055.055 0 01-.04.029l-.205.03a.053.053 0 00-.029.091l.149.145a.054.054 0 01.015.047l-.035.2a.053.053 0 00.077.056l.183-.1a.053.053 0 01.049 0l.184.1a.054.054 0 00.077-.057l-.035-.2a.055.055 0 01.015-.048l.148-.145a.053.053 0 00-.024-.09z"/><path data-name="패스 34893" d="M217.626 524.293l-.205-.03a.053.053 0 01-.04-.029l-.092-.186a.053.053 0 00-.1 0l-.091.186a.053.053 0 01-.04.029l-.2.03a.054.054 0 00-.03.091l.148.145a.053.053 0 01.016.047l-.035.205a.053.053 0 00.077.056l.183-.1a.052.052 0 01.05 0l.183.1a.053.053 0 00.077-.057l-.035-.2a.053.053 0 01.015-.047l.148-.145a.053.053 0 00-.029-.095z"/><path data-name="패스 34894" d="M276.173 532.305l-.205-.03a.054.054 0 01-.04-.029l-.092-.186a.053.053 0 00-.1 0l-.092.186a.051.051 0 01-.04.029l-.205.03a.054.054 0 00-.029.091l.149.145a.051.051 0 01.015.047l-.034.2a.053.053 0 00.077.056l.183-.1a.054.054 0 01.05 0l.184.1a.053.053 0 00.077-.056l-.035-.2a.054.054 0 01.016-.047l.147-.145a.053.053 0 00-.026-.091z"/><path data-name="패스 34895" d="M241.768 570.263l-.2-.029a.051.051 0 01-.04-.029l-.092-.186a.053.053 0 00-.1 0l-.091.187a.056.056 0 01-.04.029l-.205.03a.054.054 0 00-.03.091l.149.145a.053.053 0 01.015.047l-.034.2a.053.053 0 00.077.057l.183-.1a.052.052 0 01.05 0l.183.1a.054.054 0 00.078-.056l-.035-.2a.054.054 0 01.015-.047l.148-.145a.054.054 0 00-.031-.094z"/><path data-name="패스 34896" d="M229.924 574.717l-.2-.029a.051.051 0 01-.04-.03l-.092-.186a.053.053 0 00-.1 0l-.092.186a.054.054 0 01-.04.029l-.206.03a.054.054 0 00-.029.091l.148.145a.053.053 0 01.015.047l-.034.205a.053.053 0 00.077.056l.183-.1a.05.05 0 01.05 0l.184.1a.053.053 0 00.077-.056l-.035-.205a.051.051 0 01.015-.047l.148-.145a.054.054 0 00-.029-.091z"/><path data-name="패스 34897" d="M257.772 570.597l-.2-.03a.051.051 0 01-.04-.029l-.092-.186a.053.053 0 00-.1 0l-.091.186a.057.057 0 01-.04.03l-.2.029a.054.054 0 00-.03.091l.149.145a.055.055 0 01.015.047l-.035.205a.053.053 0 00.077.056l.183-.1a.053.053 0 01.05 0l.183.1a.053.053 0 00.077-.057l-.035-.2a.053.053 0 01.015-.047l.148-.146a.053.053 0 00-.034-.094z"/><path data-name="패스 34898" d="M229.924 561.162l-.205-.029a.054.054 0 01-.04-.029l-.092-.186a.053.053 0 00-.1 0l-.092.186a.052.052 0 01-.04.029l-.206.031a.053.053 0 00-.029.091l.149.145a.055.055 0 01.015.048l-.035.2a.053.053 0 00.077.056l.183-.1a.054.054 0 01.049 0l.184.1a.053.053 0 00.077-.056l-.035-.2a.054.054 0 01.015-.047l.148-.145a.054.054 0 00-.023-.094z"/><path data-name="패스 34899" d="M247.947 574.304l-.205-.029a.054.054 0 01-.04-.029l-.092-.186a.053.053 0 00-.1 0l-.091.186a.053.053 0 01-.04.03l-.2.03a.053.053 0 00-.03.091l.148.145a.053.053 0 01.016.047l-.035.2a.053.053 0 00.077.057l.183-.1a.051.051 0 01.05 0l.183.1a.053.053 0 00.077-.056l-.035-.2a.054.054 0 01.015-.047l.148-.145a.054.054 0 00-.029-.094z"/><path data-name="패스 34900" d="M262.613 505.405l-.2-.03a.053.053 0 01-.04-.029l-.092-.186a.053.053 0 00-.1 0l-.092.186a.054.054 0 01-.04.029l-.205.03a.053.053 0 00-.03.091l.149.145a.055.055 0 01.015.047l-.035.2a.053.053 0 00.077.056l.183-.1a.052.052 0 01.049 0l.184.1a.053.053 0 00.077-.056l-.035-.2a.054.054 0 01.015-.047l.148-.145a.053.053 0 00-.028-.091z"/><path data-name="패스 34901" d="M216.068 556.114l-.205-.029a.053.053 0 01-.04-.029l-.092-.186a.053.053 0 00-.1 0l-.091.186a.055.055 0 01-.04.029l-.2.03a.053.053 0 00-.029.091l.148.145a.052.052 0 01.015.047l-.035.2a.053.053 0 00.078.056l.183-.1a.054.054 0 01.049 0l.183.1a.053.053 0 00.077-.056l-.035-.2a.053.053 0 01.015-.047l.148-.145a.054.054 0 00-.029-.092z"/><path data-name="패스 34902" d="M226.703 492.594a.053.053 0 01.015.047l-.035.2a.053.053 0 00.078.056l.183-.1a.052.052 0 01.05 0l.183.1a.053.053 0 00.077-.056l-.035-.2a.052.052 0 01.015-.047l.148-.145a.054.054 0 00-.03-.091l-.2-.03a.054.054 0 01-.04-.029l-.092-.186a.053.053 0 00-.1 0l-.091.186a.054.054 0 01-.04.029l-.2.03a.053.053 0 00-.029.091z"/><path data-name="패스 34903" d="M246.427 491.15a.054.054 0 01.015.047l-.034.2a.053.053 0 00.077.056l.183-.1a.052.052 0 01.049 0l.184.1a.053.053 0 00.077-.056l-.035-.2a.053.053 0 01.015-.047l.148-.145a.053.053 0 00-.03-.091l-.2-.029a.055.055 0 01-.041-.029l-.092-.186a.053.053 0 00-.1 0l-.091.186a.053.053 0 01-.04.029l-.205.03a.054.054 0 00-.029.091z"/><path data-name="패스 34904" d="M219.818 506.052a.055.055 0 01.016.047l-.035.2a.053.053 0 00.078.056l.183-.1a.055.055 0 01.05 0l.184.1a.053.053 0 00.077-.057l-.036-.2a.053.053 0 01.015-.047l.148-.145a.053.053 0 00-.03-.091l-.205-.03a.054.054 0 01-.04-.029l-.092-.186a.053.053 0 00-.1 0l-.091.186a.053.053 0 01-.04.029l-.2.03a.053.053 0 00-.029.091z"/><path data-name="패스 34905" d="M252.455 502.054a.053.053 0 01.016.047l-.035.2a.053.053 0 00.077.056l.183-.1a.054.054 0 01.05 0l.183.1a.053.053 0 00.077-.056l-.035-.2a.053.053 0 01.015-.047l.148-.145a.053.053 0 00-.03-.091l-.205-.029a.054.054 0 01-.04-.029l-.092-.186a.053.053 0 00-.1 0l-.091.186a.053.053 0 01-.04.029l-.2.03a.054.054 0 00-.03.091z"/><path data-name="패스 34906" d="M244.135 507.992l.134.131.014.014a.055.055 0 01.016.047l-.035.2a.054.054 0 00.078.056l.183-.1a.051.051 0 01.049 0l.184.1a.053.053 0 00.077-.056l-.035-.2a.053.053 0 01.016-.047l.147-.145a.053.053 0 00-.029-.091l-.205-.03a.054.054 0 01-.041-.029l-.092-.186a.053.053 0 00-.1 0l-.091.186a.055.055 0 01-.04.029l-.116.017-.089.013a.053.053 0 00-.025.091z"/><path data-name="패스 34907" d="M270.928 511.045l-.1-.562a.148.148 0 01.042-.13l.407-.4a.147.147 0 00-.081-.25l-.563-.081a.146.146 0 01-.11-.08l-.252-.511a.146.146 0 00-.262 0l-.251.512a.145.145 0 01-.11.08l-.563.083a.147.147 0 00-.081.25l.408.4a.147.147 0 01.042.13l-.1.562a.146.146 0 00.213.154l.5-.266a.145.145 0 01.136 0l.5.265a.146.146 0 00.225-.156z"/><path data-name="패스 34908" d="M209.668 502.226a.147.147 0 01.043.13l-.1.562a.146.146 0 00.213.154l.5-.266a.146.146 0 01.136 0l.5.265a.146.146 0 00.212-.155l-.1-.562a.146.146 0 01.042-.13l.407-.4a.147.147 0 00-.081-.25l-.563-.081a.146.146 0 01-.11-.08l-.253-.511a.146.146 0 00-.262 0l-.251.512a.147.147 0 01-.11.08l-.563.083a.147.147 0 00-.081.25z"/><path data-name="패스 34909" d="M277.596 554.738l-.563-.081a.149.149 0 01-.11-.08l-.252-.511a.146.146 0 00-.263 0l-.251.512a.146.146 0 01-.11.08l-.562.083a.147.147 0 00-.081.25l.408.4a.147.147 0 01.043.13l-.1.562a.147.147 0 00.213.155l.5-.267a.146.146 0 01.136 0l.5.265a.147.147 0 00.212-.155l-.1-.562a.145.145 0 01.042-.13l.407-.4a.147.147 0 00-.069-.251z"/><path data-name="패스 34910" d="M241.485 496.969a.146.146 0 01.042.13l-.1.562a.146.146 0 00.213.154l.5-.266a.146.146 0 01.136 0l.5.265a.146.146 0 00.212-.155l-.1-.562a.148.148 0 01.042-.13l.407-.4a.147.147 0 00-.082-.25l-.563-.081a.147.147 0 01-.111-.08l-.252-.511a.146.146 0 00-.263 0l-.251.512a.146.146 0 01-.11.08l-.563.083a.147.147 0 00-.08.25z"/><path data-name="패스 34911" d="M258.515 491.974l-.563-.081a.148.148 0 01-.111-.08l-.252-.511a.146.146 0 00-.262 0l-.251.512a.145.145 0 01-.11.08l-.563.083a.147.147 0 00-.081.25l.408.4a.149.149 0 01.042.13l-.1.562a.146.146 0 00.212.154l.5-.266a.146.146 0 01.136 0l.5.265a.146.146 0 00.212-.155l-.1-.562a.148.148 0 01.042-.13l.407-.4a.147.147 0 00-.066-.251z"/><path data-name="패스 34912" d="M207.766 554.246l-.563-.082a.146.146 0 01-.11-.08l-.252-.511a.146.146 0 00-.262 0l-.251.512a.145.145 0 01-.11.08l-.563.083a.147.147 0 00-.081.25l.408.4a.146.146 0 01.042.129l-.1.563a.146.146 0 00.212.154l.5-.266a.143.143 0 01.136 0l.5.264a.146.146 0 00.212-.155l-.1-.562a.147.147 0 01.042-.13l.407-.4a.146.146 0 00-.067-.249z"/><path data-name="패스 34913" d="M220.468 567.193l-.2-.03a.052.052 0 01-.04-.029l-.092-.186a.053.053 0 00-.1 0l-.091.187a.055.055 0 01-.04.029l-.2.03a.054.054 0 00-.03.091l.148.145a.053.053 0 01.016.047l-.035.205a.053.053 0 00.077.056l.183-.1a.053.053 0 01.05 0l.183.1a.053.053 0 00.077-.057l-.035-.2a.054.054 0 01.015-.047l.148-.145a.054.054 0 00-.034-.096z"/><path data-name="패스 34914" d="M238.178 555.7l-.205-.03a.053.053 0 01-.04-.029l-.092-.186a.053.053 0 00-.1 0l-.091.186a.055.055 0 01-.04.03l-.205.03a.054.054 0 00-.029.091l.149.145a.055.055 0 01.015.047l-.035.205a.053.053 0 00.077.056l.184-.1a.051.051 0 01.049 0l.184.1a.053.053 0 00.077-.057l-.035-.2a.052.052 0 01.015-.047l.148-.145a.054.054 0 00-.026-.096z"/></g><g data-name="그룹 422748" transform="translate(204 491)" clip-path="url(#a)"><g data-name="그룹 422747" clip-path="url(#a)"><g data-name="그룹 422726"><g data-name="그룹 422725" clip-path="url(#b)" transform="translate(23.28 67.96)" opacity=".2"><path data-name="패스 840156" d="M11.28 2.92c0 1.62-2.52 2.92-5.64 2.92S0 4.54 0 2.92 2.52 0 5.64 0s5.64 1.3 5.64 2.92" fill="#222"/></g></g><g data-name="그룹 422728"><g data-name="그룹 422727" clip-path="url(#c)" transform="translate(47.88 59.48)" opacity=".2"><path data-name="패스 840157" d="M11.74 2.92c0 1.62-2.62 2.92-5.88 2.92S0 4.52 0 2.92 2.62 0 5.88 0s5.88 1.3 5.88 2.92" fill="#222"/></g></g><path data-name="패스 840158" d="M56.84 32.7l-2.58-3.18h-.04l-.38.16.52-1.12-3.04-2.06c-.48 1.46.04 3.2-.18 2.94l-.78-.2a2.56 2.56 0 01-1.06-.64l-.52-.54h-.02a.42.42 0 01.14.3c0 .34-.52.62-1.18.66h-.2l.6 6.04.68 6.9h.02a4.278 4.278 0 003.18 1.3 4.328 4.328 0 003.44-1.64h.06a9.634 9.634 0 00-.14-1.82v-.04l.46.04a2.02 2.02 0 002.02-2.02v-2.26a4.48 4.48 0 00-1-2.82m-2.08 4.58a1.28 1.28 0 01-1.68.7h-.02l-2.6-3.22 2.18-.72 1.94 1.94a1.28 1.28 0 01.18 1.28" fill="#fff"/><path data-name="패스 840159" d="M54.76 37.28a1.28 1.28 0 01-1.68.7h-.02l-2.6-3.22 2.18-.72 1.94 1.94a1.28 1.28 0 01.18 1.28" fill="#fff"/><path data-name="패스 840160" d="M56.06 37.48l-1.56-1.56-.06-.06.06.06.08.08" fill="none" stroke="#222" stroke-linecap="round" stroke-linejoin="round" stroke-width=".5"/><path data-name="선 126299" fill="none" stroke="#222" stroke-linecap="round" stroke-linejoin="round" stroke-width=".5" d="M54.6 36.02l-.02-.02"/><path data-name="선 126300" fill="none" stroke="#222" stroke-linecap="round" stroke-linejoin="round" stroke-width=".5" d="M53.12 38.08l-.06-.08"/><path data-name="패스 840161" d="M48.74 28.078a.42.42 0 01.14.3c0 .34-.52.62-1.18.66h-.16L45 27.258l-1.32-1.8a9.333 9.333 0 01-1.14-2.88 4.22 4.22 0 01-.12-.94c0-.54.1-.84.5-.96a.64.64 0 01.58.12 1.06 1.06 0 01.36.48c.14.38.32.76.48 1.1a15.18 15.18 0 002.52 3.6l1.92 2.06" fill="#fff"/><path data-name="패스 840162" d="M55.16 56.66l-.14.46a1.34 1.34 0 01-1.1.52c-.7 0-1.5-.54-1.5-1.08h-.04c-.02.1.08.2.02.28a1.34 1.34 0 01-1.1.52 1.4 1.4 0 01-.98-.38.84.84 0 01-.26-.6L47.88 41.2l.92.66c.7.78 1.84.76 3.16.76a4.328 4.328 0 003.44-1.64h.06c.16 3.82.34 11.54-.32 15.7" fill="#3673ee"/><path data-name="패스 840163" d="M52.46 58.34a.815.815 0 01-.88.66.784.784 0 01-.86-.58.46.46 0 01-.02-.12l-.4-1.36a1.4 1.4 0 00.98.38 1.34 1.34 0 001.1-.52h.06z" fill="#fff"/><path data-name="패스 840164" d="M54.58 58.4a.579.579 0 01-.02.14" fill="none" stroke="#222" stroke-linecap="round" stroke-linejoin="round" stroke-width=".5"/><path data-name="선 126301" fill="none" stroke="#222" stroke-linecap="round" stroke-linejoin="round" stroke-width=".5" d="M52.46 58.56v-.22"/><path data-name="패스 840165" d="M55.02 57.12l-.28.86-.18.58a.93.93 0 01-.96.62c-.48 0-1.04-.42-1.04-.84h-.08v-1.48h-.08c.06-.1.18.16.2.04h.04c0 .54.58.74 1.28.74a1.34 1.34 0 001.1-.52" fill="#fff"/><path data-name="패스 840166" d="M55.16 56.66a.8.8 0 01-.14.46" fill="none" stroke="#222" stroke-linecap="round" stroke-linejoin="round" stroke-width=".5"/><path data-name="패스 840167" d="M55.101 61.14l-.06.22-.52 1.64a1.08 1.08 0 01-1.28.72l-3.48-.88a.34.34 0 01-.26-.34.8.8 0 01.2-.52 3.041 3.041 0 00.52-.86 3.081 3.081 0 00.22-.98 6.5 6.5 0 01.22-1.42l.08-.26a.922.922 0 001.74-.08h.08a1.03 1.03 0 001.04.84.9.9 0 00.96-.62l.18-.58h.06l.16.44a4.5 4.5 0 01.14 2.7" fill="#262626"/><path data-name="패스 840168" d="M48.66 27.94a1.18 1.18 0 01-.5.88 1.531 1.531 0 01-1.78-.2" fill="none" stroke="#222" stroke-linecap="round" stroke-linejoin="round" stroke-width=".5"/><path data-name="패스 840169" d="M50.74 44.98l1.04 1.82-.2-1.48z" fill="#222"/><g data-name="그룹 422730"><g data-name="그룹 422729" clip-path="url(#d)" transform="translate(47.36 34.46)" opacity=".15"><path data-name="패스 840170" d="M7.66 22.66l-1.1.52s.38-6.88.18-12.94C6.66 7.56 2.6 7.38.52 5.68L.02.6 2.4 0l4.24 4.58v.04L8 5.4s.82 12.98-.32 17.28" fill="#222"/></g></g><g data-name="그룹 422732"><g data-name="그룹 422731" clip-path="url(#e)" transform="translate(53.88 57.16)" opacity=".1"><path data-name="패스 840171" d="M.06.42L0 2.02l.64-.52.5-1.5z" fill="#222"/></g></g><path data-name="패스 840172" d="M55.32 36.5l.74.14a.34.34 0 01.28.42l-.1.46z" fill="#222"/><g data-name="그룹 422734"><g data-name="그룹 422733" clip-path="url(#f)" transform="translate(52.64 33.7)" opacity=".15"><path data-name="패스 840173" d="M.98 0l2.7 3.26-1.06-.3L0 .36z" fill="#222"/></g></g><g data-name="그룹 422736"><g data-name="그룹 422735" clip-path="url(#g)" transform="translate(50.52 34.14)" opacity=".15"><path data-name="패스 840174" d="M0 .82l3.5.5L2.14 0z" fill="#222"/></g></g><g data-name="그룹 422738"><g data-name="그룹 422737" clip-path="url(#h)" transform="translate(54.44 36.92)" opacity=".15"><path data-name="패스 840175" d="M2.86 1.44A1.44 1.44 0 111.42 0a1.44 1.44 0 011.44 1.44" fill="#222"/></g></g><path data-name="패스 840176" d="M54.44 29.84a1.707 1.707 0 01-2.04 1.22 1.74 1.74 0 01-1.44-1.62" fill="none" stroke="#222" stroke-linecap="round" stroke-miterlimit="10" stroke-width=".5"/><path data-name="패스 840177" d="M54.26 29.54l2.58 3.18a4.48 4.48 0 011 2.82v2.3a2.02 2.02 0 01-2.02 2.02 2.26 2.26 0 01-1.6-.66l-1.08-1.08" fill="none" stroke="#222" stroke-linecap="round" stroke-linejoin="round" stroke-width=".5"/><path data-name="패스 840178" d="M53.08 37.98a1.28 1.28 0 001.36-2.14l1.62 1.62" fill="none" stroke="#222" stroke-linecap="round" stroke-linejoin="round" stroke-width=".5"/><path data-name="선 126302" fill="none" stroke="#222" stroke-linecap="round" stroke-linejoin="round" stroke-width=".5" d="M50.46 34.78l2.66 3.3"/><path data-name="선 126303" fill="none" stroke="#222" stroke-linecap="round" stroke-linejoin="round" stroke-width=".5" d="M52.64 34.06l1.96 1.96"/><path data-name="패스 840179" d="M46.7 29.54l-3.02-4.04a9.333 9.333 0 01-1.14-2.88 4.3 4.3 0 01-.12-.94c0-.54.1-.84.5-.96a.64.64 0 01.58.12 1.06 1.06 0 01.36.5c.14.38.32.76.48 1.1a15.2 15.2 0 002.52 3.6l2.44 2.6a2.54 2.54 0 001.06.64l.66.2.18-.68" fill="none" stroke="#222" stroke-linecap="round" stroke-linejoin="round" stroke-width=".5"/><path data-name="선 126304" fill="none" stroke="#222" stroke-linecap="round" stroke-linejoin="round" stroke-width=".5" d="M47.86 40.96l.24-5.86"/><path data-name="선 126305" fill="none" stroke="#222" stroke-linecap="round" stroke-linejoin="round" stroke-width=".5" d="M50.04 56.36l-2.18-15.34"/><path data-name="패스 840180" d="M55.34 39.84s.76 10.9-.18 16.82" fill="none" stroke="#222" stroke-linecap="round" stroke-linejoin="round" stroke-width=".5"/><path data-name="패스 840181" d="M52.26 56.46c0 .54-.42.88-1.12.88a1.01 1.01 0 01-1.12-.98" fill="none" stroke="#222" stroke-linecap="round" stroke-linejoin="round" stroke-width=".5"/><path data-name="패스 840182" d="M52.46 58.32a.909.909 0 01-1.76 0l-.4-1.26" fill="none" stroke="#222" stroke-linecap="round" stroke-linejoin="round" stroke-width=".5"/><path data-name="패스 840183" d="M54.58 58.4a.892.892 0 01-.98.76 1.014 1.014 0 01-1.04-.84" fill="none" stroke="#222" stroke-linecap="round" stroke-linejoin="round" stroke-width=".5"/><path data-name="패스 840184" d="M52.26 56.5l-.4-10.14a1.68 1.68 0 00-.96-1.46" fill="none" stroke="#222" stroke-linecap="round" stroke-linejoin="round" stroke-width=".5"/><path data-name="선 126306" fill="none" stroke="#222" stroke-linecap="round" stroke-linejoin="round" stroke-width=".5" d="M52.46 58.56v-1.7"/><path data-name="패스 840185" d="M54.56 58.56l.6-1.9a1.145 1.145 0 01-1.26.98c-.7 0-1.58-.6-1.58-1.14" fill="none" stroke="#222" stroke-linecap="round" stroke-linejoin="round" stroke-width=".5"/><path data-name="패스 840186" d="M50.72 58.44l-.08.26a6.539 6.539 0 00-.22 1.42 3.06 3.06 0 01-.74 1.84.8.8 0 00-.2.52.34.34 0 00.26.34l3.48.88a1.08 1.08 0 001.28-.72l.52-1.64.06-.22a4.5 4.5 0 00-.14-2.7L54.8 58" fill="none" stroke="#222" stroke-linecap="round" stroke-linejoin="round" stroke-width=".5"/><path data-name="패스 840187" d="M47.04 30.6a.62.62 0 01-.56-.36L39.5 16.12a.626.626 0 011.12-.56L47.6 29.7a.62.62 0 01-.56.9" fill="#9faeb7"/><path data-name="패스 840188" d="M47.04 30.6a.62.62 0 01-.56-.36L39.5 16.12a.626.626 0 011.12-.56L47.6 29.7a.62.62 0 01-.56.9z" fill="none" stroke="#222" stroke-linecap="round" stroke-linejoin="round" stroke-width=".5"/><path data-name="패스 840189" d="M47.88 40.84a3.567 3.567 0 003.3 1.7 5.858 5.858 0 004.12-1.34" fill="none" stroke="#222" stroke-linecap="round" stroke-linejoin="round" stroke-width=".5"/><path data-name="선 126307" fill="#222" d="M54.26 33.24l.44 1.26"/><path data-name="선 126308" fill="none" stroke="#222" stroke-linecap="round" stroke-miterlimit="10" stroke-width=".5" d="M54.26 33.24l.44 1.26"/><path data-name="패스 840190" d="M54.84 27.4l-.96-.38 1.18-3.04 1.96.76-.8 2.06a1.08 1.08 0 01-1.38.62" fill="#222"/><path data-name="패스 840191" d="M54.78 23.583a1.76 1.76 0 11-1-2.28 1.76 1.76 0 011 2.28" fill="#222"/><path data-name="패스 840192" d="M56.98 24.82a1.64 1.64 0 11-.94-2.12 1.64 1.64 0 01.94 2.12" fill="#222"/><path data-name="패스 840193" d="M53.985 29.84l1.74-4.5a1.86 1.86 0 00-3.46-1.34l-1.24 3.2a1.4 1.4 0 00.8 1.8l1.08.42" fill="#fff"/><path data-name="패스 840194" d="M53.985 29.84l1.74-4.5a1.86 1.86 0 00-3.46-1.34l-1.24 3.2a1.4 1.4 0 00.8 1.8l1.08.42" fill="none" stroke="#222" stroke-linecap="round" stroke-miterlimit="10" stroke-width=".5"/><path data-name="패스 840195" d="M55.1 26.16a.633.633 0 11-.46 1.18" fill="#fff"/><path data-name="패스 840196" d="M55.1 26.16a.633.633 0 11-.46 1.18" fill="none" stroke="#222" stroke-linecap="round" stroke-miterlimit="10" stroke-width=".5"/><path data-name="사각형 318389" fill="#222" d="M51.744 23.711l2.727-1.204.286.648-2.727 1.204z"/><path data-name="사각형 318390" fill="#222" d="M54.757 23.15l.64-.283.976 2.209-.64.283z"/><path data-name="패스 840197" d="M52.04 29.48l-.58-.22a.58.58 0 01-.34-.76l.5-1.3a.58.58 0 01.76-.34l.58.22a.58.58 0 01.34.76l-.5 1.3a.58.58 0 01-.76.34" fill="#222"/><path data-name="선 126309" fill="none" stroke="#fff" stroke-linecap="round" stroke-miterlimit="10" stroke-width=".6" d="M52.06 27.44l.52.2"/><path data-name="패스 840198" d="M45.28 16l-9.82 1.08a1.982 1.982 0 11-.44-3.94l9.82-1.08a1.982 1.982 0 11.44 3.94" fill="#e4eff5"/><path data-name="패스 840199" d="M45.28 16l-9.82 1.08a1.982 1.982 0 11-.44-3.94l9.82-1.08a1.982 1.982 0 11.44 3.94z" fill="none" stroke="#222" stroke-linecap="round" stroke-linejoin="round" stroke-width=".5"/><path data-name="선 126310" fill="#00a4ff" d="M47.08 14.62l-11.96 1.34"/><path data-name="선 126311" fill="none" stroke="#222" stroke-linejoin="round" stroke-width=".5" d="M47.08 14.62l-11.96 1.34"/><path data-name="패스 840200" d="M35.68 13.06s1.52 3.7 1.96 3.88l-2.26.18-1.62-3.88z" fill="#222"/><path data-name="패스 840201" d="M60.56 37.3a22.32 22.32 0 01-10.28 2.88c-11.84.42-21.88-8.52-22.32-19.86a20.2 20.2 0 015-14.06.56.56 0 01.98.3c1.3 14.56 12.22 26.26 26.44 29.6a.62.62 0 01.18 1.14" fill="#ffdd50"/><path data-name="패스 840202" d="M60.56 37.3a22.32 22.32 0 01-10.28 2.88c-11.84.42-21.88-8.52-22.32-19.86a20.2 20.2 0 015-14.06.56.56 0 01.98.3c1.3 14.56 12.22 26.26 26.44 29.6a.62.62 0 01.18 1.14z" fill="none" stroke="#222" stroke-linecap="round" stroke-linejoin="round" stroke-width=".8"/><path data-name="패스 840203" d="M60.88 36.84a.6.6 0 01-.32.44 22.34 22.34 0 01-10.28 2.88c-11.84.42-21.88-8.52-22.32-19.86a20.2 20.2 0 015-14.06.56.56 0 01.44-.2 20.72 20.72 0 00-3.06 11.82c.54 11.84 11.02 21 23.38 20.42a23.3 23.3 0 007.16-1.46" fill="#e0b603"/><path data-name="패스 840204" d="M60.88 36.84a.6.6 0 01-.32.44 22.34 22.34 0 01-10.28 2.88c-11.84.42-21.88-8.52-22.32-19.86a20.2 20.2 0 015-14.06.56.56 0 01.44-.2 20.72 20.72 0 00-3.06 11.82c.54 11.84 11.02 21 23.38 20.42a23.3 23.3 0 007.16-1.44z" fill="none" stroke="#222" stroke-linecap="round" stroke-linejoin="round" stroke-width=".6"/><g data-name="그룹 422740"><g data-name="그룹 422739" clip-path="url(#i)" transform="translate(38.2 35)" opacity=".15"><path data-name="패스 840205" d="M.46 0l2.12 1.34s1.62 2.68 0 2.72-1.86-.7-1.86-.7L0 1.3z" fill="#222"/></g></g><path data-name="패스 840206" d="M41.02 35.4s4.04 1.88 1.66 3.92l-2.42-.66z" fill="#222"/><path data-name="패스 840207" d="M42.484 35.5a1.5 1.5 0 11-1.3-1.46 1.387 1.387 0 011.3 1.46" fill="#222"/><path data-name="패스 840208" d="M41.26 38.597a1.4 1.4 0 01-2 1.84 1.4 1.4 0 01-2.7.26 1.4 1.4 0 01-2.14-1.2 1.32 1.32 0 01.02-.26h-.02a1.4 1.4 0 01-.96-2.44 1.4 1.4 0 01.88-2.44 1.412 1.412 0 012.08-1.74 1.4 1.4 0 012.6-.32 1.4 1.4 0 011.94 1.3 1.4 1.4 0 01.82 2.3 1.4 1.4 0 01-.5 2.66" fill="#e4eff5"/><path data-name="패스 840209" d="M41.26 38.597a1.4 1.4 0 01-2 1.84 1.4 1.4 0 01-2.7.26 1.4 1.4 0 01-2.14-1.2 1.32 1.32 0 01.02-.26h-.02a1.4 1.4 0 01-.96-2.44 1.4 1.4 0 01.88-2.44 1.412 1.412 0 012.08-1.74 1.4 1.4 0 012.6-.32 1.4 1.4 0 011.94 1.3h0a1.4 1.4 0 01.82 2.3 1.4 1.4 0 01-.5 2.66z" fill="none" stroke="#222" stroke-linecap="round" stroke-linejoin="round" stroke-width=".5"/><path data-name="패스 840210" d="M40.18 36.64a2.62 2.62 0 11-2.62-2.62 2.62 2.62 0 012.62 2.62" fill="#fff"/><path data-name="패스 840211" d="M40.18 36.64a2.62 2.62 0 11-2.62-2.62 2.62 2.62 0 012.62 2.62z" fill="none" stroke="#222" stroke-linecap="round" stroke-linejoin="round" stroke-width=".5"/><path data-name="패스 840212" d="M38.64 36.56a1.18 1.18 0 11-1.18-1.18 1.18 1.18 0 011.18 1.18" fill="#c1c1c1"/><path data-name="패스 840213" d="M38.64 36.56a1.18 1.18 0 11-1.18-1.18 1.18 1.18 0 011.18 1.18z" fill="none" stroke="#222" stroke-miterlimit="10" stroke-width=".5"/><g data-name="그룹 422742"><g data-name="그룹 422741" clip-path="url(#j)" transform="translate(35.54 37.5)" opacity=".1"><path data-name="패스 840214" d="M1.72.3l1.96 2.8-1.02 1.1-1.4-.56-.82-.78H.02L.56.8.62.48a.6.6 0 011.1-.2" fill="#111"/></g></g><path data-name="패스 840215" d="M29.46 52.28l-.84 15.06a.98.98 0 01-.04.3 1.3 1.3 0 01-2.44-.06 1.02 1.02 0 01-.04-.24l-.14-1.32c0 .06.06.18.04.24a1.34 1.34 0 01-2.54.02v-.18L22.2 52.18l-.04-.4.18.22c.1 1.26 1.78 1.98 3.64 1.98s3.22-.9 3.46-2.06z" fill="#3673ee"/><path data-name="선 126312" fill="#fff" d="M22.22 46.86l-.16-3.24"/><path data-name="패스 840216" d="M31.76 69.7a1.08 1.08 0 01-.46.86h-.04l-3.22 2.02h-.02a1.36 1.36 0 01-.64.16 1.213 1.213 0 01-1.26-1.06V69.6a1.54 1.54 0 01.2-.78h.04l.1.56a.92.92 0 00.94.76.9.9 0 00.96-.84l.04-.28h.04l1.8-.42h.26a1.193 1.193 0 011.26 1.12" fill="#262626"/><path data-name="패스 840217" d="M28.58 67.64l-.2 1.38-.04.28a.9.9 0 01-.96.84.92.92 0 01-.94-.76l-.1-.56-.2-1.24a1.3 1.3 0 002.44.06" fill="#fff"/><path data-name="패스 840218" d="M26 66.26l-.18 2.06a.922.922 0 01-.98.84.96.96 0 01-.96-.66v-.14l-.4-2.06a1.34 1.34 0 002.54-.02" fill="#fff"/><path data-name="패스 840219" d="M26.14 67.44l.2 1.24h-.04a1.54 1.54 0 00-.2.78v1.62H26a1.36 1.36 0 01-.8.26 1.2 1.2 0 01-1.26-1.08v-.16a7.78 7.78 0 01-.06-1.74h.02a.96.96 0 00.96.66.922.922 0 00.98-.84" fill="#262626"/><path data-name="패스 840220" d="M29.624 50.7l.08.92c-.22 1.16-1.96 2.34-3.74 2.34s-3.4-1-3.48-2.24h-.02l-.24-4.82a5.84 5.84 0 01-1.14-3.84v-.36a2.36 2.36 0 011.94-2.16l.78-.14.58.04c-.22-1.08.08-1.02 1.48-.9s1.1 1.04 1.34.6c.08-.14-.02.8.12.82l.36-.04h.06l.08.04 3.68 2.44.3.2a1.68 1.68 0 01-1.08 2.96h-.02l-.74-.28-.42-.2z" fill="#fff"/><path data-name="패스 840221" d="M36.58 39.22l-.12.36c-.36.48-.3 1.1-.6 1.62l-2.4 4.36a2.22 2.22 0 01-2.74 1h-.02a1.68 1.68 0 001.1-2.96h.04l2.76-3.5a2.08 2.08 0 00.4-.86l.24-.98c.16-.54.26-.48.92-.9.02-.02.3.16.34.16a.789.789 0 01.24.44v.28c.12.52.16.56-.16.98" fill="#fff"/><path data-name="패스 840222" d="M24.34 40.92l-.5-5.18a1.86 1.86 0 013.7-.36l.32 3.42a1.4 1.4 0 01-1.26 1.52" fill="#fff"/><path data-name="패스 840223" d="M24.34 40.92l-.5-5.18a1.86 1.86 0 013.7-.36l.32 3.42a1.4 1.4 0 01-1.26 1.52" fill="none" stroke="#222" stroke-linecap="round" stroke-miterlimit="10" stroke-width=".5"/><path data-name="패스 840224" d="M27.32 34.48l-4.22.4-.1-1.04a1.06 1.06 0 01.94-1.14l3.16-.3a1.06 1.06 0 01.2 2.1" fill="#222"/><path data-name="패스 840225" d="M26.22 37.98l-.9.08a1.92 1.92 0 01-2.08-1.72l-.14-1.48 1.6-.16a1.2 1.2 0 011.3 1.08z" fill="#222"/><path data-name="패스 840226" d="M26.14 34.08a1.56 1.56 0 11-1.7-1.4 1.56 1.56 0 011.7 1.4" fill="#222"/><path data-name="패스 840227" d="M26.22 36.52a.633.633 0 00.12 1.26" fill="#fff"/><path data-name="패스 840228" d="M26.22 36.52a.633.633 0 00.12 1.26" fill="none" stroke="#222" stroke-linecap="round" stroke-miterlimit="10" stroke-width=".5"/><g data-name="그룹 422744"><g data-name="그룹 422743" clip-path="url(#k)" transform="translate(27.28 45.42)" opacity=".15"><path data-name="패스 840229" d="M0 .02a3.4 3.4 0 012.18.52v3.32z" fill="#222"/></g></g><path data-name="패스 840230" d="M24.84 56.28l.98 1.12-.22-1.04z" fill="#222"/><g data-name="그룹 422746"><g data-name="그룹 422745" clip-path="url(#l)" transform="translate(21.06 37.86)" opacity=".15"><path data-name="패스 840231" d="M3.68.06l.12 3.52-.42 12.22s-.22 1.68.68 2.42l.54.68.3 9.76.26 1.36L3.8 31.2h-.72A22.61 22.61 0 012 23.78l-.9-10.96V8.58a4.156 4.156 0 01-1.06-3.6 2.357 2.357 0 012.32-2.44l.98-.14L3.06.14c.02-.14.6-.2.62-.06" fill="#222"/></g></g><path data-name="선 126313" fill="none" stroke="#222" stroke-linecap="round" stroke-linejoin="round" stroke-width=".5" d="M31.84 43.62l-.04-.02"/><path data-name="패스 840232" d="M31.8 43.6l-.3-.2z" fill="none" stroke="#222" stroke-linecap="round" stroke-linejoin="round" stroke-width=".5"/><path data-name="패스 840233" d="M27.48 45.4c.68-.16 1.2.28 1.84.54" fill="none" stroke="#222" stroke-linecap="round" stroke-linejoin="round" stroke-width=".5"/><path data-name="선 126314" fill="none" stroke="#222" stroke-linecap="round" stroke-linejoin="round" stroke-width=".5" d="M28.62 67.34l1.08-15.72"/><path data-name="선 126315" fill="none" stroke="#222" stroke-linecap="round" stroke-linejoin="round" stroke-width=".5" d="M23.44 65.98l-1.3-14.22"/><path data-name="선 126316" fill="none" stroke="#222" stroke-linecap="round" stroke-linejoin="round" stroke-width=".5" d="M22.22 46.86l-.16-3.24"/><path data-name="패스 840234" d="M23.96 70.4v-.16a7.78 7.78 0 01-.06-1.74" fill="none" stroke="#222" stroke-linecap="round" stroke-linejoin="round" stroke-width=".5"/><path data-name="패스 840235" d="M29.58 50.62a1.94 1.94 0 01.12.68 1.78 1.78 0 01-.04.36c-.24 1.3-1.84 2.3-3.74 2.3s-3.68-1.12-3.78-2.52v-.14" fill="none" stroke="#222" stroke-linecap="round" stroke-linejoin="round" stroke-width=".5"/><path data-name="패스 840236" d="M28.62 67.34a1.193 1.193 0 01-1.26 1.12A1.29 1.29 0 0126 67.34" fill="none" stroke="#222" stroke-linecap="round" stroke-linejoin="round" stroke-width=".5"/><path data-name="패스 840237" d="M25.96 66.44a1.3 1.3 0 01-1.22.76 1.233 1.233 0 01-1.3-1.14" fill="none" stroke="#222" stroke-linecap="round" stroke-linejoin="round" stroke-width=".5"/><path data-name="패스 840238" d="M25.9 68.18a1.055 1.055 0 01-2.04.1" fill="none" stroke="#222" stroke-linecap="round" stroke-linejoin="round" stroke-width=".5"/><path data-name="패스 840239" d="M28.34 69.3a.9.9 0 01-.96.84.92.92 0 01-.94-.76" fill="none" stroke="#222" stroke-linecap="round" stroke-linejoin="round" stroke-width=".5"/><path data-name="패스 840240" d="M28.02 72.62a1.36 1.36 0 01-.64.16 1.193 1.193 0 01-1.26-1.12 1 1 0 01.02-.2" fill="none" stroke="#222" stroke-linecap="round" stroke-linejoin="round" stroke-width=".5"/><path data-name="패스 840241" d="M30.34 68.6h.16a1.193 1.193 0 011.26 1.12 1.08 1.08 0 01-.46.86" fill="none" stroke="#222" stroke-linecap="round" stroke-linejoin="round" stroke-width=".5"/><path data-name="패스 840242" d="M26 71.08a1.34 1.34 0 01-.8.26 1.2 1.2 0 01-1.26-1.08" fill="none" stroke="#222" stroke-linecap="round" stroke-linejoin="round" stroke-width=".5"/><path data-name="선 126317" fill="none" stroke="#222" stroke-linecap="round" stroke-linejoin="round" stroke-width=".5" d="M28.58 67.64l-.24 1.66"/><path data-name="패스 840243" d="M26.02 67.32l-.36-10.46a.7.7 0 00-.72-.68" fill="none" stroke="#222" stroke-linecap="round" stroke-linejoin="round" stroke-width=".5"/><path data-name="선 126318" fill="none" stroke="#222" stroke-linecap="round" stroke-linejoin="round" stroke-width=".5" d="M28.04 72.62l3.22-2.02"/><path data-name="선 126319" fill="none" stroke="#222" stroke-linecap="round" stroke-linejoin="round" stroke-width=".5" d="M30.24 68.62l-1.82.4"/><path data-name="패스 840244" d="M26.121 71.72V69.6a1.54 1.54 0 01.2-.78" fill="none" stroke="#222" stroke-linecap="round" stroke-linejoin="round" stroke-width=".5"/><path data-name="선 126320" fill="none" stroke="#222" stroke-linecap="round" stroke-linejoin="round" stroke-width=".5" d="M26.46 69.42l-.24-1.44"/><path data-name="선 126321" fill="none" stroke="#222" stroke-linecap="round" stroke-linejoin="round" stroke-width=".5" d="M23.86 68.36l-.42-2.2"/><path data-name="선 126322" fill="none" stroke="#222" stroke-linecap="round" stroke-linejoin="round" stroke-width=".5" d="M25.9 68.32l.06-2.16"/><path data-name="패스 840245" d="M22.12 51.42l.08-4.54h0a5.84 5.84 0 01-1.12-3.84v-.36a2.36 2.36 0 011.94-2.16h1.24c.22.42-.32.86 1.08.98a2.221 2.221 0 001.96-.46c.62-.32 4.2 2.36 4.2 2.36l.3.2a1.68 1.68 0 01.52 1.78 1.52 1.52 0 01-2.12.96l-.86-.38.28 4.74" fill="none" stroke="#222" stroke-linecap="round" stroke-linejoin="round" stroke-width=".5"/><path data-name="패스 840246" d="M29.8 46.16l.94.4a2.22 2.22 0 002.74-1l2.6-5.16s1.26-2.18.3-2.94-1.44 2.06-1.96 2.56l-2.76 3.38" fill="none" stroke="#222" stroke-linecap="round" stroke-linejoin="round" stroke-width=".5"/><path data-name="선 126323" fill="#fff" d="M27.32 40.92l-.06-.76"/><path data-name="선 126324" fill="none" stroke="#222" stroke-linecap="round" stroke-miterlimit="10" stroke-width=".5" d="M27.32 40.92l-.06-.76"/><path data-name="패스 840247" d="M39.7 16.68l1.78.58-.5-.86z" fill="#222"/></g></g></g></svg>