<svg xmlns="http://www.w3.org/2000/svg" width="24" height="24.001"><defs><clipPath id="a"><path d="M77.981 346.049a11.821 11.821 0 10-11.816-11.82 11.822 11.822 0 0011.816 11.82z" transform="translate(-66.165 -322.408)" fill="none"/></clipPath><style>.b{fill:#006abd}</style></defs><path class="b" d="M11.998 23.671a11.837 11.837 0 10-12-11.835 11.921 11.921 0 0012 11.835z"/><g transform="translate(0 .329)" clip-path="url(#a)"><path class="b" d="M11.868 17.182c5.189 0 9.646 1.446 11.553 3.5a12.043 12.043 0 00.985-4.78 12.546 12.546 0 00-25.086 0 11.955 11.955 0 00.994 4.78c1.903-2.055 6.36-3.5 11.554-3.5z"/><path d="M11.866 17.195c5.176 0 9.622 1.434 11.524 3.473a11.9 11.9 0 00.982-4.742 12.515 12.515 0 00-25.021 0 11.808 11.808 0 00.991 4.742c1.898-2.04 6.343-3.473 11.524-3.473z" fill="#006cbe"/><path d="M11.864 17.207c5.163 0 9.6 1.422 11.494 3.445a11.744 11.744 0 00.98-4.7 12.484 12.484 0 00-24.957 0 11.659 11.659 0 00.988 4.7c1.893-2.022 6.328-3.445 11.495-3.445z" fill="#006ec0"/><path d="M11.862 17.221c5.15 0 9.573 1.411 11.465 3.416a11.586 11.586 0 00.977-4.665 12.453 12.453 0 00-24.892 0 11.5 11.5 0 00.985 4.665c1.888-2.005 6.312-3.416 11.465-3.416z" fill="#0070c1"/><path d="M11.861 17.235c5.136 0 9.548 1.4 11.435 3.387a11.426 11.426 0 00.975-4.626 12.423 12.423 0 00-24.828 0 11.352 11.352 0 00.983 4.626c1.883-1.989 6.295-3.387 11.435-3.387z" fill="#0072c3"/><path d="M11.859 17.247c5.123 0 9.524 1.387 11.405 3.36a11.272 11.272 0 00.973-4.589 12.393 12.393 0 00-24.763 0 11.209 11.209 0 00.98 4.589c1.878-1.973 6.278-3.36 11.405-3.36z" fill="#0074c4"/><path d="M11.855 17.261c5.11 0 9.5 1.375 11.375 3.332a11.116 11.116 0 00.971-4.55c0-6.456-5.53-11.787-12.346-11.787S-.496 9.586-.496 16.043a11.064 11.064 0 00.977 4.55c1.874-1.958 6.263-3.332 11.374-3.332z" fill="#0076c6"/><path d="M11.855 17.275c5.1 0 9.475 1.363 11.346 3.3a10.969 10.969 0 00.968-4.511c0-6.4-5.515-11.706-12.315-11.706s-12.32 5.3-12.32 11.706a10.907 10.907 0 00.974 4.511c1.87-1.938 6.247-3.3 11.347-3.3z" fill="#0078c7"/><path d="M11.853 17.288c5.083 0 9.45 1.351 11.316 3.274a10.813 10.813 0 00.966-4.473c0-6.347-5.5-11.624-12.282-11.624S-.435 9.742-.435 16.089a10.764 10.764 0 00.972 4.473c1.863-1.923 6.23-3.274 11.316-3.274z" fill="#007ac9"/><path d="M11.851 17.3c5.07 0 9.425 1.34 11.287 3.247a10.665 10.665 0 00.964-4.435c0-6.293-5.486-11.543-12.251-11.543S-.405 9.819-.405 16.113a10.625 10.625 0 00.969 4.435C2.423 18.64 6.778 17.3 11.851 17.3z" fill="#007ccb"/><path d="M11.85 17.314c5.057 0 9.4 1.328 11.257 3.218a10.508 10.508 0 00.962-4.4c0-6.239-5.472-11.461-12.219-11.461S-.373 9.893-.373 16.132a10.481 10.481 0 00.967 4.4c1.853-1.89 6.197-3.218 11.256-3.218z" fill="#007ecc"/><path d="M11.848 17.326c5.044 0 9.376 1.316 11.228 3.19a10.367 10.367 0 00.959-4.358c0-6.184-5.457-11.379-12.187-11.379s-12.19 5.2-12.19 11.379a10.33 10.33 0 00.963 4.358c1.849-1.874 6.181-3.19 11.227-3.19z" fill="#0080ce"/><path d="M11.846 17.336c5.031 0 9.351 1.3 11.2 3.161a10.213 10.213 0 00.957-4.319c0-6.13-5.443-11.3-12.155-11.3S-.31 10.046-.31 16.178a10.186 10.186 0 00.961 4.319c1.842-1.854 6.162-3.161 11.195-3.161z" fill="#0082cf"/><path d="M11.844 17.352c5.017 0 9.327 1.293 11.168 3.134a10.067 10.067 0 00.954-4.282c0-6.075-5.427-11.216-12.123-11.216S-.284 10.13-.284 16.205a10.049 10.049 0 00.958 4.282c1.842-1.842 6.151-3.135 11.17-3.135z" fill="#0084d1"/><path d="M11.841 17.366c5.005 0 9.3 1.281 11.139 3.106a9.917 9.917 0 00.953-4.243c0-6.02-5.413-11.134-12.092-11.134S-.251 10.209-.251 16.229a9.909 9.909 0 00.956 4.243c1.834-1.825 6.132-3.106 11.136-3.106z" fill="#0087d2"/><path d="M11.839 17.38c4.992 0 9.278 1.268 11.109 3.077a9.767 9.767 0 00.95-4.2c0-5.966-5.4-11.053-12.059-11.053S-.224 10.286-.224 16.252a9.759 9.759 0 00.953 4.2c1.833-1.804 6.119-3.072 11.11-3.072z" fill="#0089d4"/><path d="M11.838 17.393c4.978 0 9.254 1.256 11.08 3.048a9.626 9.626 0 00.948-4.166c0-5.911-5.384-10.971-12.028-10.971S-.189 10.365-.189 16.275a9.618 9.618 0 00.95 4.166c1.824-1.792 6.096-3.048 11.077-3.048z" fill="#008cd6"/><path d="M11.837 17.405c4.965 0 9.229 1.245 11.05 3.021a9.485 9.485 0 00.945-4.128c0-5.857-5.37-10.889-12-10.889S-.158 10.442-.158 16.297a9.485 9.485 0 00.947 4.128c1.819-1.774 6.083-3.02 11.048-3.02z" fill="#008ed7"/><path d="M11.834 17.419c4.952 0 9.2 1.233 11.021 2.993a9.338 9.338 0 00.943-4.09c0-5.8-5.355-10.808-11.964-10.808S-.128 10.52-.128 16.322a9.346 9.346 0 00.945 4.09c1.814-1.759 6.066-2.993 11.017-2.993z" fill="#0090d9"/><path d="M11.832 17.433c4.939 0 9.18 1.221 10.991 2.964a9.19 9.19 0 00.941-4.052c0-5.748-5.34-10.726-11.932-10.726S-.097 10.597-.097 16.345a9.2 9.2 0 00.942 4.052c1.809-1.743 6.052-2.964 10.987-2.964z" fill="#0093da"/><path d="M11.831 17.445c4.926 0 9.156 1.21 10.962 2.936a9.062 9.062 0 00.939-4.012c0-5.694-5.326-10.645-11.9-10.645s-11.9 4.951-11.9 10.645a9.064 9.064 0 00.945 4.012c1.8-1.726 6.03-2.936 10.954-2.936z" fill="#0095dc"/><path d="M11.829 17.458c4.912 0 9.131 1.2 10.932 2.908a8.918 8.918 0 00.936-3.974c0-5.639-5.311-10.563-11.868-10.563S-.035 10.753-.035 16.392a8.928 8.928 0 00.936 3.974c1.8-1.709 6.018-2.908 10.928-2.908z" fill="#0098de"/><path d="M11.828 17.471c4.9 0 9.106 1.186 10.9 2.88a8.781 8.781 0 00.934-3.937c0-5.584-5.3-10.481-11.836-10.481S-.006 10.833-.006 16.414a8.8 8.8 0 00.933 3.937c1.797-1.693 6.004-2.88 10.901-2.88z" fill="#009adf"/><path d="M11.825 17.486c4.886 0 9.081 1.174 10.872 2.851a8.636 8.636 0 00.932-3.9c0-5.53-5.282-10.4-11.8-10.4s-11.8 4.87-11.8 10.4a8.655 8.655 0 00.931 3.9c1.786-1.677 5.982-2.851 10.865-2.851z" fill="#009de1"/><path d="M11.824 17.498c4.873 0 9.057 1.163 10.843 2.823a8.5 8.5 0 00.929-3.859c0-5.475-5.268-10.318-11.772-10.318S.057 10.987.057 16.462a8.521 8.521 0 00.928 3.859c1.784-1.66 5.968-2.823 10.839-2.823z" fill="#00a0e3"/><path d="M11.821 17.511c4.859 0 9.033 1.151 10.813 2.795a8.363 8.363 0 00.927-3.821c0-5.421-5.253-10.237-11.74-10.237S.087 11.064.087 16.485a8.4 8.4 0 00.925 3.821c1.78-1.644 5.952-2.795 10.809-2.795z" fill="#00a2e4"/><path d="M11.82 17.524c4.847 0 9.008 1.138 10.784 2.767a8.228 8.228 0 00.925-3.783c0-5.366-5.238-10.155-11.708-10.155S.121 11.142.121 16.508a8.268 8.268 0 00.922 3.783c1.772-1.628 5.934-2.767 10.777-2.767z" fill="#00a5e6"/><path d="M11.818 17.538c4.833 0 8.984 1.127 10.754 2.738a8.09 8.09 0 00.923-3.745c0-5.311-5.224-10.073-11.677-10.073S.149 11.219.149 16.531a8.129 8.129 0 00.919 3.745c1.771-1.611 5.921-2.738 10.75-2.738z" fill="#00a8e8"/><path d="M11.819 17.551c4.82 0 8.959 1.115 10.724 2.71a7.951 7.951 0 00.92-3.706c0-5.257-5.209-9.992-11.644-9.992S.182 11.297.182 16.555a8 8 0 00.916 3.706c1.763-1.595 5.902-2.71 10.721-2.71z" fill="#00abe9"/><path d="M11.814 17.564c4.807 0 8.934 1.1 10.695 2.682a7.822 7.822 0 00.918-3.668c0-5.2-5.195-9.91-11.613-9.91s-11.6 4.707-11.6 9.91a7.868 7.868 0 00.914 3.668c1.756-1.579 5.884-2.682 10.686-2.682z" fill="#00aeeb"/><path d="M11.813 17.578c4.794 0 8.91 1.092 10.665 2.654a7.69 7.69 0 00.915-3.63c0-5.148-5.18-9.828-11.581-9.828S.24 11.454.24 16.602a7.744 7.744 0 00.911 3.63c1.756-1.563 5.872-2.654 10.662-2.654z" fill="#09b0ec"/><path d="M11.81 17.591c4.78 0 8.885 1.08 10.635 2.625a7.557 7.557 0 00.914-3.591c0-5.094-5.166-9.747-11.549-9.747S.271 11.531.271 16.625a7.609 7.609 0 00.908 3.591c1.751-1.546 5.855-2.625 10.631-2.625z" fill="#16b3ee"/><path d="M11.811 17.621c4.774 0 8.873 1.073 10.621 2.609a7.481 7.481 0 00.912-3.568c0-5.061-5.158-9.687-11.533-9.687S.287 11.601.287 16.662a7.526 7.526 0 00.907 3.568c1.748-1.537 5.847-2.609 10.617-2.609z" fill="#27b5ee"/><path d="M11.811 17.651c4.767 0 8.86 1.066 10.606 2.592a7.407 7.407 0 00.911-3.545c0-5.027-5.152-9.626-11.517-9.626S.303 11.672.303 16.698a7.443 7.443 0 00.906 3.545c1.746-1.526 5.839-2.592 10.602-2.592z" fill="#34b7ef"/><path d="M11.811 17.681c4.761 0 8.849 1.06 10.592 2.575a7.334 7.334 0 00.909-3.522c0-4.994-5.144-9.567-11.5-9.567S.319 11.74.319 16.734a7.364 7.364 0 00.905 3.522c1.743-1.516 5.831-2.575 10.587-2.575z" fill="#3fbaef"/><path d="M11.812 17.711c4.754 0 8.836 1.052 10.577 2.558a7.255 7.255 0 00.908-3.5c0-4.961-5.138-9.507-11.485-9.507S.334 11.809.334 16.769a7.283 7.283 0 00.9 3.5c1.745-1.506 5.827-2.557 10.578-2.558z" fill="#49bcf0"/><path d="M11.809 17.737c4.748 0 8.824 1.046 10.563 2.541a7.18 7.18 0 00.906-3.475c0-4.928-5.13-9.447-11.47-9.447S.346 11.875.346 16.803a7.2 7.2 0 00.9 3.475c1.745-1.492 5.822-2.541 10.563-2.541z" fill="#52bff1"/><path d="M11.812 17.77c4.741 0 8.812 1.039 10.548 2.525a7.107 7.107 0 00.905-3.452c0-4.9-5.123-9.388-11.453-9.388S.365 11.948.365 16.843a7.12 7.12 0 00.9 3.452c1.733-1.486 5.809-2.52 10.547-2.525z" fill="#5bc1f1"/><path d="M11.812 17.8c4.734 0 8.8 1.033 10.534 2.508a7.035 7.035 0 00.9-3.429c0-4.862-5.116-9.328-11.437-9.328S.378 12.017.378 16.879a7.043 7.043 0 00.9 3.429c1.736-1.475 5.803-2.507 10.534-2.508z" fill="#64c4f2"/><path d="M11.813 17.83c4.728 0 8.787 1.026 10.519 2.491a6.959 6.959 0 00.9-3.406c0-4.829-5.11-9.268-11.422-9.268S.393 12.086.393 16.915a6.965 6.965 0 00.9 3.406c1.733-1.47 5.794-2.49 10.52-2.491z" fill="#6cc7f3"/><path d="M11.813 17.86c4.721 0 8.775 1.019 10.5 2.474a6.883 6.883 0 00.9-3.383c0-4.8-5.1-9.208-11.406-9.208s-11.4 4.413-11.4 9.208a6.883 6.883 0 00.9 3.383c1.732-1.455 5.787-2.473 10.506-2.474z" fill="#74c9f3"/><path d="M11.814 17.89c4.714 0 8.763 1.012 10.49 2.458a6.814 6.814 0 00.9-3.36c0-4.762-5.1-9.148-11.389-9.148S.428 12.227.428 16.989a6.8 6.8 0 00.9 3.36c1.723-1.447 5.773-2.457 10.486-2.459z" fill="#7bccf4"/><path d="M11.814 17.92c4.708 0 8.75 1 10.476 2.441a6.743 6.743 0 00.9-3.336c0-4.729-5.088-9.088-11.374-9.088S.448 12.296.448 17.024a6.728 6.728 0 00.895 3.336c1.721-1.435 5.765-2.439 10.471-2.44z" fill="#83cff5"/><path d="M11.814 17.95c4.7 0 8.738 1 10.46 2.424a6.662 6.662 0 00.9-3.313c0-4.7-5.08-9.029-11.357-9.029S.462 12.365.462 17.061a6.648 6.648 0 00.894 3.313c1.719-1.426 5.758-2.423 10.458-2.424z" fill="#8ad1f5"/><path d="M11.814 17.98c4.695 0 8.726.991 10.447 2.408a6.593 6.593 0 00.9-3.29c0-4.663-5.074-8.969-11.342-8.969S.48 12.434.48 17.098a6.573 6.573 0 00.892 3.29c1.716-1.417 5.749-2.406 10.442-2.408z" fill="#91d4f6"/><path d="M11.818 18.009c4.688 0 8.713.985 10.431 2.391a6.523 6.523 0 00.894-3.266c0-4.63-5.067-8.909-11.326-8.909S.493 12.504.493 17.134a6.5 6.5 0 00.891 3.266c1.716-1.405 5.744-2.389 10.434-2.391z" fill="#98d6f7"/><path d="M11.815 18.039c4.681 0 8.7.978 10.417 2.374a6.451 6.451 0 00.892-3.243c0-4.6-5.06-8.849-11.31-8.849S.507 12.573.507 17.17a6.418 6.418 0 00.89 3.243c1.71-1.398 5.736-2.372 10.418-2.374z" fill="#9fd9f7"/><path d="M11.816 18.07c4.675 0 8.689.971 10.4 2.357a6.376 6.376 0 00.891-3.22c0-4.563-5.053-8.789-11.293-8.789S.52 12.644.52 17.207a6.343 6.343 0 00.889 3.22c1.716-1.385 5.732-2.355 10.407-2.357z" fill="#a5dcf8"/><path d="M11.815 18.1c4.669 0 8.677.965 10.388 2.341a6.309 6.309 0 00.89-3.2c0-4.53-5.046-8.729-11.278-8.729S.537 12.712.537 17.241a6.268 6.268 0 00.888 3.2c1.711-1.376 5.722-2.339 10.39-2.341z" fill="#acdef8"/><path d="M11.816 18.129c4.661 0 8.664.958 10.373 2.324a6.24 6.24 0 00.889-3.174c0-4.5-5.039-8.669-11.262-8.669S.553 12.782.553 17.279a6.2 6.2 0 00.886 3.174c1.709-1.366 5.714-2.324 10.377-2.324z" fill="#b2e1f9"/><path d="M11.816 18.159c4.655 0 8.653.951 10.359 2.307a6.166 6.166 0 00.887-3.15c0-4.464-5.031-8.61-11.246-8.61S.567 12.852.567 17.316a6.116 6.116 0 00.885 3.15c1.709-1.356 5.708-2.304 10.364-2.307z" fill="#b9e3f9"/><path d="M11.817 18.19c4.649 0 8.64.944 10.344 2.29a6.1 6.1 0 00.886-3.127c0-4.431-5.024-8.549-11.23-8.549S.585 12.922.585 17.353a6.044 6.044 0 00.883 3.127c1.705-1.346 5.699-2.288 10.349-2.29z" fill="#bfe5fa"/><path d="M11.817 18.219c4.642 0 8.628.937 10.33 2.274a6.027 6.027 0 00.885-3.1c0-4.4-5.017-8.49-11.214-8.49S.601 12.995.601 17.393a5.971 5.971 0 00.883 3.1c1.701-1.336 5.69-2.271 10.333-2.274z" fill="#c5e8fa"/><path d="M11.818 18.25c4.635 0 8.615.931 10.315 2.256a5.957 5.957 0 00.883-3.081c0-4.365-5.011-8.43-11.2-8.43s-11.2 4.065-11.2 8.43a5.9 5.9 0 00.881 3.081c1.7-1.325 5.684-2.254 10.321-2.256z" fill="#cbeafb"/><path d="M11.818 18.279c4.629 0 8.6.924 10.3 2.24a5.89 5.89 0 00.881-3.058c0-4.331-5-8.37-11.182-8.37S.631 13.13.631 17.461a5.819 5.819 0 00.88 3.058c1.699-1.316 5.676-2.237 10.307-2.24z" fill="#d1edfb"/><path d="M11.816 18.309c4.622 0 8.591.917 10.286 2.223a5.818 5.818 0 00.88-3.035c0-4.3-5-8.31-11.166-8.31S.645 13.199.645 17.497a5.751 5.751 0 00.878 3.035c1.693-1.306 5.67-2.22 10.293-2.223z" fill="#d7effc"/><path d="M11.818 18.339c4.616 0 8.579.911 10.272 2.207a5.753 5.753 0 00.879-3.012c0-4.265-4.989-8.25-11.151-8.25S.663 13.269.663 17.534a5.682 5.682 0 00.878 3.012c1.693-1.296 5.659-2.203 10.277-2.207z" fill="#ddf2fc"/><path d="M11.818 18.369c4.608 0 8.566.9 10.256 2.189a5.682 5.682 0 00.878-2.988c0-4.232-4.982-8.19-11.134-8.19S.678 13.338.678 17.57a5.605 5.605 0 00.877 2.988c1.69-1.285 5.651-2.186 10.263-2.189z" fill="#e3f4fd"/><path d="M11.818 18.399c4.6 0 8.554.9 10.242 2.173a5.618 5.618 0 00.876-2.965c0-4.2-4.975-8.131-11.118-8.131S.694 13.408.694 17.607a5.531 5.531 0 00.875 2.965c1.689-1.276 5.644-2.169 10.249-2.173z" fill="#e9f6fd"/><path d="M11.819 18.428c4.6 0 8.542.89 10.228 2.157a5.553 5.553 0 00.874-2.942c0-4.166-4.968-8.071-11.1-8.071S.712 13.477.712 17.643a5.468 5.468 0 00.874 2.942c1.684-1.267 5.634-2.153 10.233-2.157z" fill="#eff9fe"/><path d="M11.819 18.458c4.589 0 8.53.883 10.213 2.14a5.479 5.479 0 00.874-2.919c0-4.132-4.961-8.011-11.087-8.011S.725 13.546.725 17.679a5.394 5.394 0 00.873 2.919c1.684-1.253 5.628-2.136 10.221-2.14z" fill="#f5fbfe"/><path d="M11.82 18.489c4.582 0 8.517.876 10.2 2.123a5.42 5.42 0 00.872-2.9c0-4.1-4.954-7.95-11.07-7.95S.743 13.613.743 17.712a5.327 5.327 0 00.872 2.9c1.679-1.247 5.618-2.12 10.205-2.123z" fill="#fafdff"/><path d="M11.82 18.521c4.576 0 8.5.87 10.184 2.106a5.351 5.351 0 00.871-2.873c0-4.066-4.947-7.891-11.055-7.891S.757 13.688.757 17.754a5.252 5.252 0 00.871 2.873c1.679-1.238 5.612-2.106 10.192-2.106z" fill="#fff"/></g><path class="b" d="M11.993 15.357A32.881 32.881 0 001 17.147a12.255 12.255 0 0022 0 32.928 32.928 0 00-11.007-1.79z"/></svg>