<svg xmlns="http://www.w3.org/2000/svg" xmlns:xlink="http://www.w3.org/1999/xlink" width="100" height="100"><defs><clipPath id="b"><path data-name="사각형 59828" transform="translate(138 80)" fill="#d5d5d5" d="M0 0h100v100H0z"/></clipPath><clipPath id="c"><path data-name="사각형 259471" fill="none" d="M0 0h100v100H0z"/></clipPath><clipPath id="d"><path data-name="패스 698843" d="M4.8 53.8a49 49 0 1049-49 49 49 0 00-49 49" transform="translate(-4.8 -4.8)" fill="none"/></clipPath><clipPath id="e"><path data-name="사각형 259463" fill="none" d="M0 0h64.604v39.567H0z"/></clipPath><clipPath id="f"><path data-name="패스 698844" d="M387.72 173.192a5.562 5.562 0 00-2.521 4.4 1.58 1.58 0 002.521 1.479 5.562 5.562 0 002.521-4.4 1.563 1.563 0 00-1.5-1.771 1.979 1.979 0 00-1.021.313" transform="translate(-385.199 -172.9)" fill="none"/></clipPath><clipPath id="g"><path data-name="패스 698847" d="M393.133 175.546a5.229 5.229 0 01-2.375 4.125 1.646 1.646 0 01-1.458.188 1.61 1.61 0 001.688-.1 5.292 5.292 0 002.417-4.167 1.493 1.493 0 00-1.375-1.687 1.515 1.515 0 011.125 1.646" transform="translate(-389.3 -173.9)" fill="none"/></clipPath><clipPath id="i"><path data-name="사각형 259466" fill="none" d="M0 0h3.542v1.154H0z"/></clipPath><clipPath id="j"><path data-name="사각형 259467" fill="none" d="M0 0h11.896v8.25H0z"/></clipPath><clipPath id="k"><path data-name="사각형 259468" fill="none" d="M0 0h18.458v3.408H0z"/></clipPath><clipPath id="l"><path data-name="사각형 259469" fill="none" d="M0 0h10.604v7.413H0z"/></clipPath><clipPath id="m"><path data-name="사각형 259470" fill="none" d="M0 0h2.208v2.2H0z"/></clipPath><linearGradient id="a" x1="-9.168" y1="7.642" x2="-9.144" y2="7.642" gradientUnits="objectBoundingBox"><stop offset="0" stop-color="#c1c0c0"/><stop offset="1" stop-color="#dedddc"/></linearGradient><linearGradient id="h" x1="-19.761" y1="10.206" x2="-19.711" y2="10.206" xlink:href="#a"/></defs><g data-name="마스크 그룹 309" transform="translate(-138 -80)" clip-path="url(#b)"><g data-name="그룹 347224"><g data-name="Layer 1"><g data-name="그룹 347223" clip-path="url(#c)" transform="translate(138 80)"><g data-name="그룹 347205" clip-path="url(#c)"><path data-name="패스 698831" d="M50 0A50 50 0 110 50 50.013 50.013 0 0150 0" fill="#f9f9f9"/><path data-name="패스 698832" d="M50 100a50 50 0 1150-50 50.066 50.066 0 01-50 50m0-99a49 49 0 1049 49A49.053 49.053 0 0050 1" fill="#f0f0f0"/></g><g data-name="그룹 347208" transform="translate(1 1)" clip-path="url(#d)"><path data-name="패스 698833" d="M53.333 46.479l-6.979-.146-16.271-.4-7.979 4.6 17.354.521-47.687 29.237 5.938 3.438L45.438 54.5l.708 9.938 8.125-4.667-.646-9.25z" fill="#e2e2e2"/><path data-name="패스 698834" d="M73.375 42.583l3.167-1.354-2.521-.271z" fill="#222"/><path data-name="패스 698835" d="M73.375 42.583l3.167-1.354-2.521-.271z" fill="none" stroke="#222" stroke-linejoin="round" stroke-width=".521"/><path data-name="패스 698836" d="M73.771 41.855c0 .708-.5 1-1.125.646a2.458 2.458 0 01-1.125-1.937c0-.708.5-1 1.125-.646a2.479 2.479 0 011.125 1.938" fill="#dbdbdb"/><path data-name="패스 698837" d="M73.771 41.855c0 .708-.5 1-1.125.646a2.458 2.458 0 01-1.125-1.937c0-.708.5-1 1.125-.646a2.479 2.479 0 011.125 1.938z" fill="none" stroke="#222" stroke-linejoin="round" stroke-width=".521"/><g data-name="그룹 347207"><g data-name="그룹 347206" clip-path="url(#e)" transform="translate(54.875 5.292)" opacity=".1"><path data-name="패스 698838" d="M63.083 11.063C59.483 8.584 42.854.001 42.854.001l-41.4 25.708s-3.167 2-.167 3.771c4.167 2.458 14.375 8.542 16.625 9.812 1.792 1.021 8.146-1.333 8.146-1.333l35.979-20.792s4.979-3.417 1.042-6.1"/></g></g><path data-name="패스 698839" d="M86.292 34.812l-.708 1.75-.688.333-3.167-4.537 3.167-.4 1.688 1.333z"/><path data-name="패스 698840" d="M84.208 33.584l-2.833-1.625a2.6 2.6 0 00-2.646.271 8.337 8.337 0 00-3.771 6.521 2.573 2.573 0 001.125 2.438l2.833 1.625a2.652 2.652 0 002.646-.271 8.337 8.337 0 003.771-6.521 2.6 2.6 0 00-1.1-2.437" fill="#222"/><path data-name="패스 698841" d="M85.313 36.021a8.337 8.337 0 01-3.771 6.521 2.654 2.654 0 01-2.646.271 2.614 2.614 0 01-1.125-2.437 8.337 8.337 0 013.771-6.521 2.606 2.606 0 012.646-.271 2.672 2.672 0 011.1 2.438" fill="#222"/><path data-name="패스 698842" d="M85.187 36.208a7.707 7.707 0 01-3.479 6.042 2.5 2.5 0 01-2.458.25 2.471 2.471 0 01-1.042-2.271 7.707 7.707 0 013.479-6.042 2.12 2.12 0 013.479 2.021" fill="#222"/></g><g data-name="그룹 347209" transform="translate(80.25 36.021)" clip-path="url(#f)"><path data-name="사각형 259464" transform="rotate(-46.8 2.613 5.88)" fill="url(#a)" d="M0 0h8.562v8.473H0z"/></g><g data-name="그룹 347210" transform="translate(1 1)" clip-path="url(#d)"><path data-name="패스 698845" d="M84.209 36.916a5.292 5.292 0 01-2.4 4.188 1.5 1.5 0 01-2.4-1.4 5.292 5.292 0 012.4-4.187 1.5 1.5 0 012.4 1.4" fill="#fff"/></g><g data-name="그룹 347211" transform="translate(81.104 36.229)" clip-path="url(#g)"><path data-name="사각형 259465" fill="url(#h)" d="M0 0h4.104v6.248H0z"/></g><g data-name="그룹 347222" transform="translate(1 1)" clip-path="url(#d)"><path data-name="패스 698848" d="M117.188 11.083c-.625-.812-2.937-3.042-2.937-3.042a11.917 11.917 0 00-2.625-2.438c-1.667-1.146-7.187-4.375-11.208-5.271a14.729 14.729 0 00-3.646-.521 8.313 8.313 0 00-3.083.542l-4.687 1.813a31.409 31.409 0 00-4.583.646 32.586 32.586 0 00-6.25 2.5c-2.042 1.021-6.729 4.292-9.646 6.167a35.623 35.623 0 00-6.042 5.354l-1.917 1.875a20.136 20.136 0 00-2.208 2.167 20.062 20.062 0 00-1.1 2.854 18.188 18.188 0 00-.979 2.917 5.135 5.135 0 000 1.75 2.583 2.583 0 00.292 2.146c.646 1 4.792 3.9 7.708 5.708a92.025 92.025 0 009.4 4.792 6.958 6.958 0 003.438.1 10.352 10.352 0 014.6-7.771c2.417-1.4 4.875-.625 4.021 2.854l20.667-11.687c.458-2.833 2.646-7.146 5.063-8.562s5.063-.292 3.667 3.542a18.788 18.788 0 001.833-2.729 2.5 2.5 0 00.167-1.771s.729-3.1.083-3.917" fill="#fff"/><path data-name="패스 698849" d="M117.188 11.083c-.625-.812-2.937-3.042-2.937-3.042a11.917 11.917 0 00-2.625-2.438c-1.667-1.146-7.187-4.375-11.208-5.271a14.729 14.729 0 00-3.646-.521 8.313 8.313 0 00-3.083.542l-4.687 1.813a31.409 31.409 0 00-4.583.646 32.586 32.586 0 00-6.25 2.5c-2.042 1.021-6.729 4.292-9.646 6.167a35.623 35.623 0 00-6.042 5.354l-1.917 1.875a20.136 20.136 0 00-2.208 2.167 20.062 20.062 0 00-1.1 2.854 18.188 18.188 0 00-.979 2.917 5.135 5.135 0 000 1.75 2.583 2.583 0 00.292 2.146c.646 1 4.792 3.9 7.708 5.708a92.025 92.025 0 009.4 4.792 6.958 6.958 0 003.438.1 10.352 10.352 0 014.6-7.771c2.417-1.4 4.875-.625 4.021 2.854l20.667-11.687c.458-2.833 2.646-7.146 5.063-8.562s5.063-.292 3.667 3.542a18.788 18.788 0 001.833-2.729 2.5 2.5 0 00.167-1.771s.701-3.122.055-3.935z" fill="none" stroke="#222" stroke-miterlimit="10" stroke-width="1.042"/><path data-name="패스 698850" d="M95.104 12.062s3.375-.042 5.521.021 4.833.625 5.521.542 1.479-.333 1.5-.917-1.187-3.937-4.917-6.042a26 26 0 00-9.833-3.521 11.257 11.257 0 00-3.792.083s-2.9.313-4.229.625a23.333 23.333 0 00-3.1 1.062 66.627 66.627 0 016.354 2.875 32.214 32.214 0 017 5.25" fill="#222"/><path data-name="패스 698851" d="M99.354 5.042a31.919 31.919 0 00-9.75-2.729l-.458.083h-.021c-.021 0-2.917.313-4.208.625a14.521 14.521 0 00-2.542.938c.938.375 3.521 1.458 5.833 2.687a31.191 31.191 0 017 5.25h2.333l3.083.042c1.125.042 2.417.208 3.458.354a15.438 15.438 0 001.875.208h.167a2.088 2.088 0 001.229-.479c-.437-1.125-2.271-4.521-8-6.979" fill="#222"/><g data-name="그룹 347213"><g data-name="그룹 347212" clip-path="url(#i)" transform="translate(82.979 4.021)" opacity=".7"><path data-name="패스 698852" d="M3.437 0C2.958 0 .854.146-.021.208l2.167.938C2.875.646 3.813 0 3.417 0" fill="#222"/></g></g><path data-name="패스 698853" d="M81.771 22.354c0 .4.583 1.271 2 1.625a5.625 5.625 0 001.4.167 10.438 10.438 0 002.167-.25 10.917 10.917 0 002.417-.771l1.5-.729a.562.562 0 00.292-.667 42.447 42.447 0 00-1.437-4.6c-.292-.687-.708-1.1-1.375-.687a6.77 6.77 0 00-.812.521c-2.792 2.1-6.167 4.854-6.167 5.417" fill="#222"/><g data-name="그룹 347215"><g data-name="그룹 347214" clip-path="url(#j)" transform="translate(59.833 14.562)" opacity=".2"><path data-name="패스 698854" d="M5.542 0l-3.5 3.333-.1.1C.313 4.9 0 5.667 0 6.062S.75 7.354 1.792 8.25a26.053 26.053 0 0110.1-4.271z" fill="#222"/></g></g><g data-name="그룹 347217"><g data-name="그룹 347216" clip-path="url(#k)" transform="translate(82.354 2.312)" opacity=".2"><path data-name="패스 698855" d="M18.458 3.417A32.228 32.228 0 0017 2.73 31.919 31.919 0 007.25.001l-.458.083h-.021c-.021 0-2.917.313-4.208.625a14.5 14.5 0 00-2.542.938 69.85 69.85 0 013.292 1.438c2.542-.417 7.458-.792 15.167.333" fill="#222"/></g></g><path data-name="패스 698856" d="M72.208 34.377a.729.729 0 01-.271-1.125A5.765 5.765 0 0174 31.377c1.021-.312 2.229-.458 2.9-.771s2.375-1.187 2.563-.562-.833 2.625-2.021 3.667a3.749 3.749 0 01-3.354 1.188 6.125 6.125 0 01-1.875-.542" fill="#f8483b"/><path data-name="패스 698857" d="M72.208 34.377a.729.729 0 01-.271-1.125A5.765 5.765 0 0174 31.377c1.021-.312 2.229-.458 2.9-.771s2.375-1.187 2.563-.562-.833 2.625-2.021 3.667a3.749 3.749 0 01-3.354 1.188 6.125 6.125 0 01-1.88-.522z" fill="none" stroke="#222" stroke-linejoin="round" stroke-width=".625"/><path data-name="패스 698858" d="M75.75 33.354l-.437.083a.9.9 0 00-.708.479l-.479.958a3.782 3.782 0 003.313-1.208 7.271 7.271 0 001.438-1.812 22.8 22.8 0 01-3.1 1.458" fill="#fff"/><path data-name="패스 698859" d="M75.75 33.354l-.437.083a.9.9 0 00-.708.479l-.479.958a3.782 3.782 0 003.313-1.208 7.271 7.271 0 001.438-1.812 18.461 18.461 0 01-3.127 1.5z" fill="none" stroke="#222" stroke-linejoin="round" stroke-width=".625"/><path data-name="패스 698860" d="M57.271 23.708a2.029 2.029 0 00.292 1.313 12.062 12.062 0 001.354 1.313.146.146 0 00.229-.125l-.479-3.875c-.062-.583-.1-1.292-.1-1.687l-.187.229a18.065 18.065 0 00-1.1 2.854" fill="#f8483b"/><path data-name="패스 698861" d="M57.271 23.708a2.029 2.029 0 00.292 1.313 12.062 12.062 0 001.354 1.313.146.146 0 00.229-.125l-.479-3.875c-.062-.583-.1-1.292-.1-1.687l-.187.229a19.388 19.388 0 00-1.109 2.832z" fill="none" stroke="#222" stroke-linejoin="round" stroke-width=".625"/><path data-name="패스 698862" d="M57.521 22.958l-.25.771a2.029 2.029 0 00.292 1.313l.1.146.208-1.542a.458.458 0 00-.083-.333l-.25-.354" fill="#fff"/><path data-name="패스 698863" d="M57.521 22.958l-.25.771a2.029 2.029 0 00.292 1.313l.1.146.208-1.542a.458.458 0 00-.083-.333z" fill="none" stroke="#222" stroke-miterlimit="10" stroke-width=".417"/><path data-name="패스 698864" d="M56.167 28.208a78.236 78.236 0 0011.25 7.563" fill="none" stroke="#222" stroke-linecap="round" stroke-miterlimit="10" stroke-width=".521"/><path data-name="패스 698865" d="M60.104 19.542s-.542.729-.437 1.1-.1.917 3.938 3.938l-4.687-3.667a.229.229 0 01-.021-.333z" fill="#fff"/><path data-name="패스 698866" d="M71.646 33.146s-7.625-2.646-12.25-7.25l.042.354a.5.5 0 01-.167.313s2.646 3.479 12.208 7.292" fill="#fff"/><path data-name="패스 698867" d="M77.875 27.646a9.436 9.436 0 01-1.646 2.833c-.729.521-4-1.167-4-1.167a5.208 5.208 0 003.354.5l.313-.042c.292-.042 1.063-.25 1.979-2.125" fill="#fff"/><path data-name="패스 698868" d="M86.417 25.813c-.979.521-5.021 2.646-7.312 3.729 0 0 3.688.375 7.375-3.667a.044.044 0 00-.062-.062" fill="#fff"/><path data-name="패스 698869" d="M94.812 23.75l2.917-1.687a.875.875 0 00.354-.687c0-.271-.167-.4-.354-.271l-2.917 1.688a.875.875 0 00-.354.688c0 .271.167.4.354.271" fill="#fff"/><path data-name="패스 698870" d="M94.812 23.75l2.917-1.687a.875.875 0 00.354-.687c0-.271-.167-.4-.354-.271l-2.917 1.688a.875.875 0 00-.354.688c0 .248.167.373.354.269z" fill="none" stroke="#222" stroke-miterlimit="10" stroke-width=".625"/><path data-name="패스 698871" d="M94.812 23.271l2.917-1.687a.875.875 0 00.354-.687c0-.271-.167-.4-.354-.271l-2.917 1.688a.875.875 0 00-.354.688c0 .271.167.4.354.271" fill="#fff"/><path data-name="패스 698872" d="M94.812 23.271l2.917-1.687a.875.875 0 00.354-.687c0-.271-.167-.4-.354-.271l-2.917 1.688a.875.875 0 00-.354.688c0 .269.167.394.354.269z" fill="none" stroke="#222" stroke-miterlimit="10" stroke-width=".625"/><path data-name="패스 698873" d="M97.646 13.729a15.924 15.924 0 016.146.583 1.958 1.958 0 01.542.292c.313.25.646.667-.083 1l-10.6 5.688a.979.979 0 01-1.333-.562l-1.487-4.23a.937.937 0 01.563-1.187l2.021-.771a12.4 12.4 0 014.25-.812" fill="#222"/><path data-name="패스 698874" d="M91.375 15.312s-1.687.625-2.771 1.188l2.146 6.146 3.333-1.6z" fill="#222"/><path data-name="패스 698875" d="M80.437 22.041l-1.312 2.688-.938-4.021z" fill="#fff"/><path data-name="패스 698876" d="M74.833 29.771a5.354 5.354 0 01-1.708-.271 51.771 51.771 0 01-5.5-2.812l-2.167-1.187c-2.6-1.4-5.6-4-5.646-4.9-.021-.4.313-1.167 1.938-2.625l.1-.1 3.5-3.333 8.042 5.042 5.625 3.375a.479.479 0 01.229.521 13.206 13.206 0 01-.917 2.854 14.438 14.438 0 01-1.875 3.1 2.831 2.831 0 01-1.646.313" fill="#222"/><path data-name="패스 698877" d="M78.833 22.667a1.125 1.125 0 01.521 1.229 12.936 12.936 0 01-.854 2.542 12.268 12.268 0 01-1.937 3.167 4.987 4.987 0 01-3.5.063c-1.479-.5-5.25-2.687-7.687-4s-5.687-3.979-5.729-5.021 1.938-2.708 2.083-2.854l2.978-2.815a1.125 1.125 0 011.375-.146l7.417 4.646z" fill="#222"/><g data-name="그룹 347219"><g data-name="그룹 347218" clip-path="url(#l)" fill="#222" transform="translate(61.5 46.062)" opacity=".1"><path data-name="패스 698878" d="M8.605 2.313a1.033 1.033 0 100-.021"/><path data-name="패스 698879" d="M6.085 1.646A1.6 1.6 0 107.648 0a1.6 1.6 0 00-1.562 1.646"/><path data-name="패스 698880" d="M5.815 2.667a1.6 1.6 0 101.563-1.646 1.6 1.6 0 00-1.562 1.646"/><path data-name="패스 698881" d="M.463 3.521a2.854 2.854 0 10.784-2.05 2.854 2.854 0 00-.784 2.05"/><path data-name="패스 698882" d="M.004 5.646a1.813 1.813 0 10.494-1.307 1.813 1.813 0 00-.494 1.307"/></g></g><g data-name="그룹 347221"><g data-name="그룹 347220" clip-path="url(#m)" transform="translate(54.271 50)" opacity=".1"><path data-name="패스 698883" d="M.001 1.125A1.1 1.1 0 101.064 0 1.1 1.1 0 00.002 1.125" fill="#222"/></g></g><path data-name="패스 698884" d="M58.542 45.75A3.479 3.479 0 0165 43.208a1.937 1.937 0 01.25-.542v-.083a1.958 1.958 0 013.875-.4l.375-.062a1.229 1.229 0 11-.729 2.167 1.958 1.958 0 01-3.417.688 3.479 3.479 0 01-3.25 3.25 2.208 2.208 0 11-3.562-2.479" fill="#dbdbdb"/><path data-name="패스 698885" d="M58.542 45.75A3.479 3.479 0 0165 43.208a1.937 1.937 0 01.25-.542v-.083a1.958 1.958 0 013.875-.4l.375-.062a1.229 1.229 0 11-.729 2.167 1.958 1.958 0 01-3.417.688 3.479 3.479 0 01-3.25 3.25 2.208 2.208 0 11-3.562-2.479z" fill="none" stroke="#222" stroke-linejoin="round" stroke-width=".521"/><path data-name="패스 698886" d="M53.251 47.916a1.25 1.25 0 101.208-1.271 1.25 1.25 0 00-1.208 1.271" fill="#dbdbdb"/><path data-name="패스 698887" d="M53.251 47.916a1.25 1.25 0 101.208-1.271 1.25 1.25 0 00-1.208 1.271z" fill="none" stroke="#222" stroke-linejoin="round" stroke-width=".521"/><path data-name="패스 698888" d="M59.729 43.271a.771.771 0 10.771-.771.771.771 0 00-.771.771" fill="#fff"/><path data-name="패스 698889" d="M54.292 47.583a.375.375 0 10.375-.375.375.375 0 00-.375.375" fill="#fff"/><path data-name="패스 698890" d="M66.187 42.062a.458.458 0 10.458-.458.458.458 0 00-.458.458" fill="#fff"/><path data-name="패스 698891" d="M60.812 42.833a.458.458 0 10.458-.458.458.458 0 00-.458.458" fill="#fff"/></g></g></g></g></g></svg>