<svg xmlns="http://www.w3.org/2000/svg" width="28" height="28"><defs><clipPath id="a"><path fill="none" d="M0 0h28v28H0z"/></clipPath><style>.b{clip-path:url(#a)}</style></defs><g class="b"><path d="M14 0A14 14 0 110 14 14 14 0 0114 0" fill="#fddb2b"/><circle cx="13.5" cy="13.5" r="13.5" transform="translate(.5 .5)" stroke="#fccb3a" fill="none"/></g><g class="b"><path d="M10.8 10.8H20a.3.3 0 01.3.3v.2L18 13.5l2.4 2.4a.3.3 0 010 .4h-.1c-2 1-7.5 1.4-9.6-.2" fill="#fff"/><path d="M11 10.5h8l-2.6 2.6 2.6 2.7a9.8 9.8 0 01-7.1 0" stroke-linejoin="round" stroke-linecap="round" stroke="#000001" fill="none"/><path stroke-miterlimit="10" stroke-linecap="round" stroke="#000001" fill="none" d="M9.5 19v1.6"/><path stroke-miterlimit="10" stroke="#000001" fill="none" d="M9.5 9v10"/><path d="M11 8a.5.5 0 01-.5.5h-2v-1h2a.5.5 0 01.5.5" fill="#111"/></g></svg>