<svg xmlns="http://www.w3.org/2000/svg" xmlns:xlink="http://www.w3.org/1999/xlink" width="100" height="100" viewBox="0 0 100 100">
  <defs>
    <clipPath id="clip-path">
      <rect id="사각형_59828" data-name="사각형 59828" width="100" height="100" transform="translate(138 80)" fill="#d5d5d5"/>
    </clipPath>
    <clipPath id="clip-path-2">
      <rect id="사각형_249630" data-name="사각형 249630" width="100" height="100" fill="none"/>
    </clipPath>
    <clipPath id="clip-path-4">
      <path id="패스_661732" data-name="패스 661732" d="M4.8,53.8a49,49,0,1,0,49-49,49,49,0,0,0-49,49" transform="translate(-4.8 -4.8)" fill="none"/>
    </clipPath>
    <clipPath id="clip-path-5">
      <rect id="사각형_249620" data-name="사각형 249620" width="64.604" height="39.567" fill="none"/>
    </clipPath>
    <clipPath id="clip-path-6">
      <path id="패스_661733" data-name="패스 661733" d="M379.02,164.792a5.562,5.562,0,0,0-2.521,4.4,1.58,1.58,0,0,0,2.521,1.479,5.562,5.562,0,0,0,2.521-4.4,1.563,1.563,0,0,0-1.5-1.771,1.979,1.979,0,0,0-1.021.313" transform="translate(-376.499 -164.5)" fill="none"/>
    </clipPath>
    <linearGradient id="linear-gradient" x1="-8.954" y1="7.851" x2="-8.929" y2="7.851" gradientUnits="objectBoundingBox">
      <stop offset="0" stop-color="#c1c0c0"/>
      <stop offset="1" stop-color="#dedddc"/>
    </linearGradient>
    <clipPath id="clip-path-8">
      <path id="패스_661736" data-name="패스 661736" d="M384.433,166.967a5.229,5.229,0,0,1-2.375,4.125,1.646,1.646,0,0,1-1.458.188,1.61,1.61,0,0,0,1.688-.1,5.292,5.292,0,0,0,2.4-4.187,1.493,1.493,0,0,0-1.375-1.687,1.515,1.515,0,0,1,1.125,1.646" transform="translate(-380.6 -165.3)" fill="none"/>
    </clipPath>
    <linearGradient id="linear-gradient-2" x1="-19.32" y1="10.49" x2="-19.269" y2="10.49" xlink:href="#linear-gradient"/>
    <clipPath id="clip-path-10">
      <rect id="사각형_249623" data-name="사각형 249623" width="3.542" height="1.154" fill="none"/>
    </clipPath>
    <clipPath id="clip-path-11">
      <rect id="사각형_249624" data-name="사각형 249624" width="11.896" height="8.25" fill="none"/>
    </clipPath>
    <clipPath id="clip-path-12">
      <rect id="사각형_249625" data-name="사각형 249625" width="18.458" height="3.408" fill="none"/>
    </clipPath>
    <clipPath id="clip-path-14">
      <rect id="사각형_249626" data-name="사각형 249626" width="38.292" height="24.115" fill="none"/>
    </clipPath>
    <clipPath id="clip-path-15">
      <rect id="사각형_249627" data-name="사각형 249627" width="32.542" height="19.217" fill="none"/>
    </clipPath>
  </defs>
  <g id="마스크_그룹_309" data-name="마스크 그룹 309" transform="translate(-138 -80)" clip-path="url(#clip-path)">
    <g id="null_100x100" transform="translate(188 130)">
      <g id="그룹_330234" data-name="그룹 330234" transform="translate(-50 -50)" style="isolation: isolate">
        <g id="Layer_1" data-name="Layer 1">
          <g id="그룹_330233" data-name="그룹 330233" clip-path="url(#clip-path-2)">
            <g id="그룹_330213" data-name="그룹 330213" clip-path="url(#clip-path-2)">
              <path id="패스_661725" data-name="패스 661725" d="M50,0A50,50,0,1,1,0,50,50.013,50.013,0,0,1,50,0" fill="#f9f9f9"/>
              <path id="패스_661726" data-name="패스 661726" d="M50,100a50,50,0,1,1,50-50,50.066,50.066,0,0,1-50,50M50,1A49,49,0,1,0,99,50,49.053,49.053,0,0,0,50,1" fill="#f0f0f0"/>
            </g>
            <g id="그룹_330216" data-name="그룹 330216" transform="translate(1 1)" clip-path="url(#clip-path-4)">
              <g id="그룹_330215" data-name="그룹 330215" transform="translate(53.063 3.521)" opacity="0.1" style="mix-blend-mode: multiply;isolation: isolate">
                <g id="그룹_330214" data-name="그룹 330214" clip-path="url(#clip-path-5)">
                  <path id="패스_661727" data-name="패스 661727" d="M322.563,32.763C318.959,30.3,302.334,21.7,302.334,21.7L260.959,47.429s-3.167,2-.167,3.771c4.167,2.458,14.375,8.542,16.625,9.813,1.792,1.021,8.146-1.333,8.146-1.333l35.958-20.792s4.979-3.417,1.042-6.1" transform="translate(-259.501 -21.7)"/>
                </g>
              </g>
              <path id="패스_661728" data-name="패스 661728" d="M392.862,152.554l-.708,1.75-.687.333L388.3,150.1l3.167-.4,1.708,1.333Z" transform="translate(-308.404 -119.512)"/>
              <path id="패스_661729" data-name="패스 661729" d="M365.05,150.375l-2.833-1.625a2.6,2.6,0,0,0-2.646.271,8.337,8.337,0,0,0-3.771,6.521,2.573,2.573,0,0,0,1.125,2.437l2.833,1.625a2.652,2.652,0,0,0,2.646-.271,8.337,8.337,0,0,0,3.771-6.521,2.6,2.6,0,0,0-1.1-2.437" transform="translate(-282.675 -118.562)" fill="#222"/>
              <path id="패스_661730" data-name="패스 661730" d="M376.842,158.987a8.337,8.337,0,0,1-3.771,6.521,2.654,2.654,0,0,1-2.646.271,2.614,2.614,0,0,1-1.125-2.437,8.337,8.337,0,0,1,3.771-6.521,2.606,2.606,0,0,1,2.646-.271,2.672,2.672,0,0,1,1.1,2.438" transform="translate(-293.362 -124.737)" fill="#222"/>
              <path id="패스_661731" data-name="패스 661731" d="M378.379,160.606a7.707,7.707,0,0,1-3.479,6.042,2.5,2.5,0,0,1-2.458.25,2.471,2.471,0,0,1-1.042-2.271,7.707,7.707,0,0,1,3.479-6.042,2.12,2.12,0,0,1,3.479,2.021" transform="translate(-295.025 -126.169)" fill="#222"/>
            </g>
            <g id="그룹_330217" data-name="그룹 330217" transform="translate(78.437 34.271)" clip-path="url(#clip-path-6)">
              <rect id="사각형_249621" data-name="사각형 249621" width="8.562" height="8.473" transform="translate(-3.487 3.739) rotate(-46.8)" fill="url(#linear-gradient)"/>
            </g>
            <g id="그룹_330218" data-name="그룹 330218" transform="translate(1 1)" clip-path="url(#clip-path-4)">
              <path id="패스_661734" data-name="패스 661734" d="M381.988,167.091a5.292,5.292,0,0,1-2.4,4.188,1.5,1.5,0,0,1-2.4-1.4,5.292,5.292,0,0,1,2.4-4.187,1.5,1.5,0,0,1,2.4,1.4" transform="translate(-299.613 -131.946)" fill="#fff"/>
            </g>
            <g id="그룹_330219" data-name="그룹 330219" transform="translate(79.292 34.437)" clip-path="url(#clip-path-8)">
              <rect id="사각형_249622" data-name="사각형 249622" width="4.104" height="6.248" transform="translate(0 0.021)" fill="url(#linear-gradient-2)"/>
            </g>
            <g id="그룹_330226" data-name="그룹 330226" transform="translate(1 1)" clip-path="url(#clip-path-4)">
              <path id="패스_661737" data-name="패스 661737" d="M326.686,6.667c-.625-.813-2.937-3.042-2.937-3.042a11.917,11.917,0,0,0-2.625-2.437c-1.667-1.146-7.187-4.375-11.208-5.271a14.729,14.729,0,0,0-3.646-.521,8.313,8.313,0,0,0-3.083.542L298.477-2.25a31.409,31.409,0,0,0-4.583.646,32.587,32.587,0,0,0-6.25,2.5c-2.042,1.021-6.708,4.292-9.625,6.167a35.623,35.623,0,0,0-6.042,5.354l-1.917,1.875a20.137,20.137,0,0,0-2.208,2.167,20.059,20.059,0,0,0-1.1,2.854,18.191,18.191,0,0,0-.979,2.917,5.137,5.137,0,0,0,0,1.75,2.583,2.583,0,0,0,.292,2.146c.646,1,4.792,3.9,7.708,5.708a92.025,92.025,0,0,0,9.4,4.792,6.958,6.958,0,0,0,3.438.1,10.352,10.352,0,0,1,4.6-7.771c2.417-1.4,4.875-.625,4.021,2.854L315.873,20.1c.458-2.833,2.646-7.146,5.063-8.562S326,11.25,324.6,15.084a18.786,18.786,0,0,0,1.833-2.729,2.5,2.5,0,0,0,.167-1.771s.708-3.1.083-3.917" transform="translate(-211.311 2.645)" fill="#fff"/>
              <path id="패스_661738" data-name="패스 661738" d="M326.686,6.667c-.625-.813-2.937-3.042-2.937-3.042a11.917,11.917,0,0,0-2.625-2.437c-1.667-1.146-7.187-4.375-11.208-5.271a14.729,14.729,0,0,0-3.646-.521,8.313,8.313,0,0,0-3.083.542L298.477-2.25a31.409,31.409,0,0,0-4.583.646,32.587,32.587,0,0,0-6.25,2.5c-2.042,1.021-6.708,4.292-9.625,6.167a35.623,35.623,0,0,0-6.042,5.354l-1.917,1.875a20.137,20.137,0,0,0-2.208,2.167,20.059,20.059,0,0,0-1.1,2.854,18.191,18.191,0,0,0-.979,2.917,5.137,5.137,0,0,0,0,1.75,2.583,2.583,0,0,0,.292,2.146c.646,1,4.792,3.9,7.708,5.708a92.025,92.025,0,0,0,9.4,4.792,6.958,6.958,0,0,0,3.438.1,10.352,10.352,0,0,1,4.6-7.771c2.417-1.4,4.875-.625,4.021,2.854L315.873,20.1c.458-2.833,2.646-7.146,5.063-8.562S326,11.25,324.6,15.084a18.786,18.786,0,0,0,1.833-2.729,2.5,2.5,0,0,0,.167-1.771S327.311,7.48,326.686,6.667Z" transform="translate(-211.311 2.645)" fill="none" stroke="#222" stroke-miterlimit="10" stroke-width="1.042"/>
              <path id="패스_661739" data-name="패스 661739" d="M401.833,16.243s3.375-.042,5.521.021,4.833.625,5.521.542,1.479-.333,1.5-.917-1.187-3.937-4.917-6.021a26.242,26.242,0,0,0-9.833-3.521,11.174,11.174,0,0,0-3.792.083s-2.9.313-4.229.625a23.356,23.356,0,0,0-3.1,1.062,66.627,66.627,0,0,1,6.333,2.875,32.214,32.214,0,0,1,7,5.25" transform="translate(-308.563 -5.951)" fill="#222"/>
              <path id="패스_661740" data-name="패스 661740" d="M408.379,10.229a31.3,31.3,0,0,0-9.75-2.729l-.458.083h-.021c-.021,0-2.917.312-4.208.625a14.521,14.521,0,0,0-2.542.937c.938.375,3.521,1.458,5.833,2.688a31.192,31.192,0,0,1,7,5.25h2.375l3.083.042c1.125.042,2.417.208,3.458.354a15.438,15.438,0,0,0,1.875.208h.167a2.088,2.088,0,0,0,1.229-.479c-.458-1.083-2.271-4.479-8.021-6.938" transform="translate(-310.858 -6.938)" fill="#222"/>
              <g id="그룹_330221" data-name="그룹 330221" transform="translate(81.146 2.25)" opacity="0.7">
                <g id="그룹_330220" data-name="그룹 330220" clip-path="url(#clip-path-10)">
                  <path id="패스_661741" data-name="패스 661741" d="M397.758,15.6c-.479,0-2.583.146-3.458.208l2.167.938c.729-.5,1.667-1.146,1.271-1.146" transform="translate(-394.3 -15.6)" fill="#222"/>
                </g>
              </g>
              <path id="패스_661742" data-name="패스 661742" d="M388.421,80.484c0,.4.583,1.271,2,1.625a5.625,5.625,0,0,0,1.4.167,10.438,10.438,0,0,0,2.167-.25,10.915,10.915,0,0,0,2.417-.771l1.5-.729a.563.563,0,0,0,.292-.667,42.448,42.448,0,0,0-1.437-4.6c-.292-.687-.708-1.1-1.375-.687a6.769,6.769,0,0,0-.812.521c-2.792,2.1-6.167,4.854-6.167,5.417" transform="translate(-308.483 -59.901)" fill="#222"/>
              <g id="그룹_330223" data-name="그룹 330223" transform="translate(58 12.813)" opacity="0.2">
                <g id="그룹_330222" data-name="그룹 330222" clip-path="url(#clip-path-11)">
                  <path id="패스_661743" data-name="패스 661743" d="M288.742,66.3l-3.5,3.313-.1.1c-1.625,1.458-1.937,2.229-1.937,2.625s.75,1.292,1.792,2.188a26.054,26.054,0,0,1,10.1-4.271Z" transform="translate(-283.2 -66.3)" fill="#222"/>
                </g>
              </g>
              <g id="그룹_330225" data-name="그룹 330225" transform="translate(80.521 0.562)" opacity="0.2">
                <g id="그룹_330224" data-name="그룹 330224" clip-path="url(#clip-path-12)">
                  <path id="패스_661744" data-name="패스 661744" d="M409.837,10.9c-.458-.229-.937-.458-1.458-.687a31.692,31.692,0,0,0-9.75-2.708l-.458.083h-.021c-.021,0-2.917.312-4.208.625a14.521,14.521,0,0,0-2.542.937c.583.229,1.854.771,3.292,1.438,2.542-.417,7.458-.792,15.167.333" transform="translate(-391.379 -7.5)" fill="#222"/>
                </g>
              </g>
              <path id="패스_661745" data-name="패스 661745" d="M340.954,144a.729.729,0,0,1-.271-1.125A5.765,5.765,0,0,1,342.746,141c1.021-.312,2.229-.458,2.9-.771s2.375-1.187,2.563-.562-.833,2.625-2.021,3.667a3.749,3.749,0,0,1-3.354,1.188,6.146,6.146,0,0,1-1.875-.542" transform="translate(-270.579 -111.394)" fill="#f8483b"/>
              <path id="패스_661746" data-name="패스 661746" d="M340.954,144a.729.729,0,0,1-.271-1.125A5.765,5.765,0,0,1,342.746,141c1.021-.312,2.229-.458,2.9-.771s2.375-1.187,2.563-.562-.833,2.625-2.021,3.667a3.749,3.749,0,0,1-3.354,1.188A6.146,6.146,0,0,1,340.954,144Z" transform="translate(-270.579 -111.394)" fill="none" stroke="#222" stroke-linejoin="round" stroke-width="0.625"/>
              <path id="패스_661747" data-name="패스 661747" d="M353.425,150.8l-.437.083a.9.9,0,0,0-.708.479l-.479.958a3.782,3.782,0,0,0,3.312-1.208,7.271,7.271,0,0,0,1.438-1.812,22.8,22.8,0,0,1-3.1,1.458" transform="translate(-279.508 -119.196)" fill="#fff"/>
              <path id="패스_661748" data-name="패스 661748" d="M353.425,150.8l-.437.083a.9.9,0,0,0-.708.479l-.479.958a3.782,3.782,0,0,0,3.312-1.208,7.271,7.271,0,0,0,1.438-1.812A20.206,20.206,0,0,1,353.425,150.8Z" transform="translate(-279.508 -119.196)" fill="none" stroke="#222" stroke-linejoin="round" stroke-width="0.625"/>
              <path id="패스_661749" data-name="패스 661749" d="M270.821,98.483a2.029,2.029,0,0,0,.292,1.313,12.062,12.062,0,0,0,1.354,1.313.146.146,0,0,0,.229-.125l-.5-3.9c-.062-.583-.1-1.292-.1-1.687l-.187.229a18.067,18.067,0,0,0-1.1,2.854" transform="translate(-215.383 -76.525)" fill="#f8483b"/>
              <path id="패스_661750" data-name="패스 661750" d="M270.871,98.483a2.029,2.029,0,0,0,.292,1.313,12.062,12.062,0,0,0,1.354,1.313.146.146,0,0,0,.229-.125l-.5-3.9c-.062-.583-.1-1.292-.1-1.687l-.187.229A24.988,24.988,0,0,0,270.871,98.483Z" transform="translate(-215.433 -76.525)" fill="none" stroke="#222" stroke-linejoin="round" stroke-width="0.625"/>
              <path id="패스_661751" data-name="패스 661751" d="M271.121,106.5l-.25.771a2.029,2.029,0,0,0,.292,1.313l.1.146.208-1.542a.458.458,0,0,0-.083-.333l-.25-.354" transform="translate(-215.433 -85.313)" fill="#fff"/>
              <path id="패스_661752" data-name="패스 661752" d="M271.121,106.5l-.25.771a2.029,2.029,0,0,0,.292,1.313l.1.146.208-1.542a.458.458,0,0,0-.083-.333Z" transform="translate(-215.433 -85.313)" fill="none" stroke="#222" stroke-miterlimit="10" stroke-width="0.417"/>
              <path id="패스_661753" data-name="패스 661753" d="M265.6,131.8s10.25,8.458,17.979,10.292" transform="translate(-211.267 -105.342)" fill="none" stroke="#222" stroke-linecap="round" stroke-miterlimit="10" stroke-width="0.521"/>
              <path id="패스_661754" data-name="패스 661754" d="M279.751,90.1s-.542.729-.437,1.1-.1.917,3.938,3.938l-4.667-3.667a.229.229,0,0,1-.021-.333Z" transform="translate(-221.481 -72.329)" fill="#fff"/>
              <path id="패스_661755" data-name="패스 661755" d="M292.875,127.85s-7.625-2.646-12.25-7.25l.042.354a.5.5,0,0,1-.167.313s2.646,3.479,12.208,7.292" transform="translate(-223.063 -96.475)" fill="#fff"/>
              <path id="패스_661756" data-name="패스 661756" d="M348.346,129.1a9.437,9.437,0,0,1-1.646,2.833c-.729.521-4-1.167-4-1.167a5.208,5.208,0,0,0,3.354.521l.313-.042c.292-.042,1.063-.25,1.979-2.125" transform="translate(-272.304 -103.204)" fill="#fff"/>
              <path id="패스_661757" data-name="패스 661757" d="M383.112,120.151c-.979.521-5.021,2.646-7.312,3.729,0,0,3.688.375,7.375-3.667a.044.044,0,0,0-.062-.062" transform="translate(-298.508 -96.109)" fill="#fff"/>
              <path id="패스_661758" data-name="패스 661758" d="M449.854,100.061l2.917-1.688a.875.875,0,0,0,.354-.687c0-.271-.167-.4-.354-.271L449.854,99.1a.875.875,0,0,0-.354.688c0,.271.167.4.354.271" transform="translate(-356.854 -78.082)" fill="#fff"/>
              <path id="패스_661759" data-name="패스 661759" d="M449.847,100.061l2.917-1.688a.875.875,0,0,0,.354-.687c0-.271-.167-.4-.354-.271L449.847,99.1a.875.875,0,0,0-.354.688C449.472,100.061,449.639,100.186,449.847,100.061Z" transform="translate(-356.847 -78.082)" fill="none" stroke="#222" stroke-miterlimit="10" stroke-width="0.625"/>
              <path id="패스_661760" data-name="패스 661760" d="M449.854,97.761l2.917-1.687a.875.875,0,0,0,.354-.687c0-.271-.167-.4-.354-.271L449.854,96.8a.875.875,0,0,0-.354.688c0,.271.167.4.354.271" transform="translate(-356.854 -76.261)" fill="#fff"/>
              <path id="패스_661761" data-name="패스 661761" d="M449.847,97.761l2.917-1.687a.875.875,0,0,0,.354-.687c0-.271-.167-.4-.354-.271L449.847,96.8a.875.875,0,0,0-.354.688C449.472,97.761,449.639,97.886,449.847,97.761Z" transform="translate(-356.847 -76.261)" fill="none" stroke="#222" stroke-miterlimit="10" stroke-width="0.625"/>
              <path id="패스_661762" data-name="패스 661762" d="M438.535,62.152a15.924,15.924,0,0,1,6.146.583,1.958,1.958,0,0,1,.542.292c.313.25.646.667-.083,1l-10.625,5.688a.979.979,0,0,1-1.333-.562L431.7,64.923a.938.938,0,0,1,.563-1.188l2.021-.771a12.4,12.4,0,0,1,4.25-.812" transform="translate(-342.723 -50.173)" fill="#222"/>
              <path id="패스_661763" data-name="패스 661763" d="M424.071,69.9a30,30,0,0,0-2.771,1.187l2.146,6.146,3.333-1.6Z" transform="translate(-334.529 -56.338)" fill="#222"/>
              <path id="패스_661764" data-name="패스 661764" d="M373.55,97.033l-1.312,2.708L371.3,95.7Z" transform="translate(-294.946 -76.762)" fill="#fff"/>
              <path id="패스_661765" data-name="패스 661765" d="M298.117,81.429a5.354,5.354,0,0,1-1.708-.271,51.771,51.771,0,0,1-5.5-2.812l-2.167-1.187c-2.6-1.4-5.6-4-5.646-4.9-.021-.4.313-1.167,1.938-2.625l.1-.1,3.5-3.333,8.042,5.042,5.625,3.375a.479.479,0,0,1,.229.521,13.206,13.206,0,0,1-.917,2.854,14.438,14.438,0,0,1-1.875,3.1,2.831,2.831,0,0,1-1.646.313" transform="translate(-225.117 -53.408)" fill="#222"/>
              <path id="패스_661766" data-name="패스 661766" d="M301.485,74.689a1.125,1.125,0,0,1,.521,1.229,12.916,12.916,0,0,1-.854,2.542,12.269,12.269,0,0,1-1.937,3.167,4.987,4.987,0,0,1-3.5.063c-1.479-.5-5.25-2.687-7.687-4s-5.687-3.979-5.729-5.021,1.938-2.708,2.083-2.854L287.36,67a1.125,1.125,0,0,1,1.375-.146l7.417,4.646Z" transform="translate(-224.485 -53.793)" fill="#222"/>
            </g>
            <g id="그룹_330231" data-name="그룹 330231" clip-path="url(#clip-path-2)">
              <g id="그룹_330228" data-name="그룹 330228" transform="translate(34.562 49.292)" opacity="0.1" style="mix-blend-mode: multiply;isolation: isolate">
                <g id="그룹_330227" data-name="그룹 330227" clip-path="url(#clip-path-14)">
                  <path id="패스_661768" data-name="패스 661768" d="M165.9,305.183l7.063-4.083,1.917,1.1-4.75,2.729,2.667,1.542,3.271-1.9a2.479,2.479,0,0,1,1.521-.354,1.542,1.542,0,0,1,.625.188q.708.4.208.917a2.291,2.291,0,0,1-.458.333l-3.271,1.9,3,1.729,3.646-2.062a2.458,2.458,0,0,1,1.542-.333,1.542,1.542,0,0,1,.625.188q.708.4.208.917a2.167,2.167,0,0,1-.458.333l-5.958,3.438Z" transform="translate(-165.9 -287.663)"/>
                  <path id="패스_661769" data-name="패스 661769" d="M205.192,275.671l3.375.5q1.667.25,2.563.438l.688.146.083-.042a7.833,7.833,0,0,1-1.021-1.875l-.812-1.979,2.521-1.458,1.917,5.354,7.271.792a2.083,2.083,0,0,1,.813.208q.479.271.438.646a.941.941,0,0,1-.542.667,2.5,2.5,0,0,1-1.687.271l-3.042-.438q-1.312-.187-2.479-.437l-.687-.167-.1.063a7.687,7.687,0,0,1,1,1.875l.729,1.813q.229.521-.437.9a2.354,2.354,0,0,1-1.1.313,1.937,1.937,0,0,1-1.083-.25.833.833,0,0,1-.4-.479l-1.417-4.167L202.4,277.3Z" transform="translate(-194.796 -264.15)"/>
                  <path id="패스_661770" data-name="패스 661770" d="M257.833,262.5l10.25,5.938q1.313.75.146,1.438a2.261,2.261,0,0,1-2.458-.083L255.5,263.854Z" transform="translate(-236.833 -257.104)"/>
                  <path id="패스_661771" data-name="패스 661771" d="M279.875,236.6l1.917,1.1-3.021,1.75,8.333,4.813q1.313.75.146,1.438a2.3,2.3,0,0,1-2.479-.083l-8.333-4.812-3.021,1.75-1.917-1.1Z" transform="translate(-249.5 -236.6)"/>
                </g>
              </g>
              <g id="그룹_330230" data-name="그룹 330230" transform="translate(22.813 39.229)" opacity="0.1" style="mix-blend-mode: multiply;isolation: isolate">
                <g id="그룹_330229" data-name="그룹 330229" clip-path="url(#clip-path-15)">
                  <path id="패스_661772" data-name="패스 661772" d="M141,189.258l-5.812-.292-13.521-.667-6.542,3.792,14.458.771-20.083,11.6,5.021,3.063,20.083-11.6.792,8.521,6.646-3.833-.729-7.9Z" transform="translate(-109.5 -188.3)"/>
                </g>
              </g>
            </g>
            <path id="패스_661773" data-name="패스 661773" d="M142.387,177.6v6.021l-6.646,3.854-.583-8.146-20.083,11.583L110.2,188.1v-6.25l13-5.354-7.146-.4v-6.042l15.708-.854,4.146,3.438,5.729.125.229,3.313Z" transform="translate(-87.242 -133.95)" fill="#fff"/>
            <path id="패스_661774" data-name="패스 661774" d="M142.387,177.6v6.021l-6.646,3.854-.583-8.146-20.083,11.583L110.2,188.1v-6.25l13-5.354-7.146-.4v-6.042l15.708-.854,4.146,3.438,5.729.125.229,3.313Z" transform="translate(-87.242 -133.95)" fill="none" stroke="#222" stroke-linejoin="round" stroke-width="0.625"/>
            <path id="패스_661775" data-name="패스 661775" d="M116.083,239.358l.042-7.4L111.5,230.9l.083,5.813Z" transform="translate(-88.271 -182.796)" fill="#e4e4e4"/>
            <path id="패스_661776" data-name="패스 661776" d="M141.637,155.658l-5.729-.146L122.6,155.2l-6.542,3.771,14.229.417L110.2,170.971l4.875,2.833,20.083-11.6.583,8.146,6.646-3.833-.521-7.562Z" transform="translate(-87.242 -122.867)" fill="#45d49a"/>
            <path id="패스_661777" data-name="패스 661777" d="M141.637,155.658l-5.729-.146L122.6,155.2l-6.542,3.771,14.229.417L110.2,170.971l4.875,2.833,20.083-11.6.583,8.146,6.646-3.833-.521-7.562Z" transform="translate(-87.242 -122.867)" fill="none" stroke="#222" stroke-linejoin="round" stroke-width="0.625"/>
            <g id="그룹_330232" data-name="그룹 330232" clip-path="url(#clip-path-2)">
              <path id="패스_661778" data-name="패스 661778" d="M165.9,302.583l7.063-4.083,1.917,1.1-4.75,2.729,2.667,1.542,3.271-1.9a2.479,2.479,0,0,1,1.521-.354,1.542,1.542,0,0,1,.625.188q.708.4.208.917a2.293,2.293,0,0,1-.458.333l-3.271,1.9,3,1.729,3.646-2.062a2.458,2.458,0,0,1,1.542-.333,1.541,1.541,0,0,1,.625.187q.708.4.208.917a2.166,2.166,0,0,1-.458.333l-5.958,3.438Z" transform="translate(-131.337 -236.313)" fill="#45d49a"/>
              <path id="패스_661779" data-name="패스 661779" d="M205.192,273.071l3.375.5q1.667.25,2.563.438l.688.146.083-.042a7.834,7.834,0,0,1-1.021-1.875l-.812-1.979,2.521-1.458,1.917,5.354,7.271.792a2.084,2.084,0,0,1,.813.208q.479.271.438.646a.941.941,0,0,1-.542.667,2.5,2.5,0,0,1-1.687.271l-3.042-.437q-1.312-.187-2.479-.437l-.687-.167-.1.062a7.666,7.666,0,0,1,1,1.875l.729,1.812q.229.521-.437.9a2.355,2.355,0,0,1-1.1.313,1.937,1.937,0,0,1-1.083-.25.833.833,0,0,1-.4-.479l-1.417-4.167L202.4,274.7Z" transform="translate(-160.233 -212.8)" fill="#45d49a"/>
              <path id="패스_661780" data-name="패스 661780" d="M257.913,259.9l10.25,5.917q1.313.75.146,1.438a2.261,2.261,0,0,1-2.458-.083l-10.25-5.917Z" transform="translate(-202.35 -205.754)" fill="#45d49a"/>
              <path id="패스_661781" data-name="패스 661781" d="M279.875,233.9l1.917,1.1-3.021,1.75,8.333,4.813q1.313.75.146,1.438a2.3,2.3,0,0,1-2.479-.083l-8.333-4.813-3.021,1.75-1.917-1.1Z" transform="translate(-214.938 -185.171)" fill="#45d49a"/>
              <line id="선_89706" data-name="선 89706" y1="6.021" transform="translate(27.833 50.938)" fill="#fff"/>
              <line id="선_89707" data-name="선 89707" y1="6.021" transform="translate(27.833 50.938)" fill="none" stroke="#222" stroke-linejoin="round" stroke-width="0.625"/>
              <line id="선_89708" data-name="선 89708" y2="6.042" transform="translate(48.5 47.479)" fill="#fff"/>
              <line id="선_89709" data-name="선 89709" y2="6.042" transform="translate(48.5 47.479)" fill="none" stroke="#222" stroke-linejoin="round" stroke-width="0.625"/>
            </g>
          </g>
        </g>
      </g>
    </g>
  </g>
</svg>
