<svg id="Layer_1" data-name="Layer 1" xmlns="http://www.w3.org/2000/svg" xmlns:xlink="http://www.w3.org/1999/xlink" width="100" height="100" viewBox="0 0 100 100">
  <defs>
    <style>
      .cls-1, .cls-10, .cls-11, .cls-13, .cls-15, .cls-16, .cls-18, .cls-19, .cls-20, .cls-21, .cls-22, .cls-23, .cls-24, .cls-25, .cls-26, .cls-27, .cls-28, .cls-32, .cls-33, .cls-34, .cls-9 {
        fill: none;
      }

      .cls-2 {
        clip-path: url(#clip-path);
      }

      .cls-3 {
        fill: #f9f9f9;
      }

      .cls-4 {
        fill: #f0f0f0;
      }

      .cls-5 {
        opacity: 0.15;
      }

      .cls-6 {
        clip-path: url(#clip-path-3);
      }

      .cls-7 {
        fill: #222;
      }

      .cls-8 {
        fill: #fff;
      }

      .cls-10, .cls-11, .cls-13, .cls-15, .cls-16, .cls-18, .cls-19, .cls-20, .cls-21, .cls-22, .cls-23, .cls-24, .cls-25, .cls-26, .cls-9 {
        stroke: #222;
      }

      .cls-10, .cls-11, .cls-16, .cls-28, .cls-32, .cls-9 {
        stroke-linecap: round;
      }

      .cls-10, .cls-11, .cls-13, .cls-15, .cls-16, .cls-19, .cls-23, .cls-24, .cls-25, .cls-26, .cls-27, .cls-32, .cls-33, .cls-34, .cls-9 {
        stroke-linejoin: round;
      }

      .cls-9 {
        stroke-width: 0.833px;
      }

      .cls-10 {
        stroke-width: 0.838px;
      }

      .cls-11 {
        stroke-width: 0.833px;
      }

      .cls-12 {
        fill: #b2b5b7;
      }

      .cls-13 {
        stroke-width: 0.833px;
      }

      .cls-14 {
        fill: #e2e2e2;
      }

      .cls-15, .cls-27 {
        stroke-width: 0.833px;
      }

      .cls-16 {
        stroke-width: 0.833px;
      }

      .cls-17 {
        fill: #ea002c;
      }

      .cls-18, .cls-20, .cls-21, .cls-22 {
        stroke-miterlimit: 10;
      }

      .cls-18 {
        stroke-width: 0.208px;
      }

      .cls-19 {
        stroke-width: 0.625px;
      }

      .cls-20 {
        stroke-width: 0.625px;
      }

      .cls-21 {
        stroke-width: 0.625px;
      }

      .cls-22 {
        stroke-width: 0.625px;
      }

      .cls-23 {
        stroke-width: 0.625px;
      }

      .cls-24 {
        stroke-width: 0.625px;
      }

      .cls-25 {
        stroke-width: 0.625px;
      }

      .cls-26 {
        stroke-width: 0.833px;
      }

      .cls-27, .cls-34 {
        stroke: #000001;
      }

      .cls-28, .cls-32, .cls-33 {
        stroke: #fff;
      }

      .cls-28, .cls-33 {
        stroke-width: 1.667px;
      }

      .cls-29 {
        opacity: 0.2;
      }

      .cls-30 {
        clip-path: url(#clip-path-6);
      }

      .cls-31 {
        fill: #45d49a;
      }

      .cls-32 {
        stroke-width: 1.667px;
      }

      .cls-33 {
        stroke-linecap: square;
      }

      .cls-34 {
        stroke-width: 0.833px;
      }
    </style>
    <clipPath id="clip-path">
      <rect id="사각형_252782" data-name="사각형 252782" class="cls-1" width="100" height="100"/>
    </clipPath>
    <clipPath id="clip-path-3">
      <rect id="사각형_252777" data-name="사각형 252777" class="cls-1" width="58.208" height="20.688"/>
    </clipPath>
    <clipPath id="clip-path-6">
      <rect id="사각형_252780" data-name="사각형 252780" class="cls-1" width="10.104" height="5.412"/>
    </clipPath>
  </defs>
  <g id="그룹_334297" data-name="그룹 334297" class="cls-2">
    <g id="그룹_334349" data-name="그룹 334349">
      <g id="그룹_334350" data-name="그룹 334350">
        <path id="패스_673076" data-name="패스 673076" class="cls-3" d="M50,0A50,50,0,1,1,0,50,50.013,50.013,0,0,1,50,0"/>
        <path id="패스_673077" data-name="패스 673077" class="cls-4" d="M50,100a50,50,0,1,1,50-50,50.066,50.066,0,0,1-50,50M50,1A49,49,0,1,0,99,50,49.053,49.053,0,0,0,50,1"/>
        <rect id="사각형_252776" data-name="사각형 252776" class="cls-1" width="100" height="100"/>
      </g>
    </g>
    <g id="그룹_334292" data-name="그룹 334292" class="cls-2">
      <g id="그룹_334291" data-name="그룹 334291" class="cls-5" transform="translate(18.208 56.354)">
        <g id="그룹_334290" data-name="그룹 334290" class="cls-6">
          <path id="패스_673078" data-name="패스 673078" class="cls-7" d="M87.4,288.028s2.042,3.75,4.958,2.979,19.875-11.292,19.875-11.292a3.529,3.529,0,0,0,2.333-.417s5.542,4.833,17.646,3.417c8-.937,11.354-4.187,12.688-6.292a4.125,4.125,0,0,0,.313-4.042,8.437,8.437,0,0,0-1.729-1.917c-1.333-.833-44.313,7.042-44.313,7.042Z" transform="translate(-87.4 -270.424)"/>
        </g>
      </g>
    </g>
    <g id="그룹_334293" data-name="그룹 334293" class="cls-2">
      <path id="패스_673079" data-name="패스 673079" class="cls-8" d="M225.962,229.367a12.027,12.027,0,0,1-4.458,4.146c-7.313,4.229-19.208,4.208-26.562-.042a12.158,12.158,0,0,1-4.542-4.229,12.027,12.027,0,0,1,4.458-4.146c7.313-4.229,19.208-4.208,26.563.042a12.158,12.158,0,0,1,4.542,4.229" transform="translate(-150.733 -175.7)"/>
      <path id="패스_673080" data-name="패스 673080" class="cls-9" d="M225.962,229.367a12.027,12.027,0,0,1-4.458,4.146c-7.313,4.229-19.208,4.208-26.562-.042a12.158,12.158,0,0,1-4.542-4.229,12.027,12.027,0,0,1,4.458-4.146c7.313-4.229,19.208-4.208,26.563.042A12.326,12.326,0,0,1,225.962,229.367Z" transform="translate(-150.733 -175.7)"/>
      <path id="패스_673081" data-name="패스 673081" class="cls-8" d="M222.983,240.587v6.354c-.042,2.729-1.854,5.458-5.458,7.542-7.312,4.229-19.208,4.208-26.562-.042-3.687-2.125-5.542-4.917-5.542-7.708H185.4V240.4h.021a6.833,6.833,0,0,0,1,3.458,12.158,12.158,0,0,0,4.542,4.229c7.354,4.25,19.25,4.271,26.563.042a11.867,11.867,0,0,0,4.458-4.146,6.833,6.833,0,0,0,1-3.4" transform="translate(-146.775 -190.317)"/>
      <path id="패스_673082" data-name="패스 673082" class="cls-9" d="M222.983,240.587v6.354c-.042,2.729-1.854,5.458-5.458,7.542-7.312,4.229-19.208,4.208-26.562-.042-3.687-2.125-5.542-4.917-5.542-7.708H185.4V240.4h.021a6.833,6.833,0,0,0,1,3.458,12.158,12.158,0,0,0,4.542,4.229c7.354,4.25,19.25,4.271,26.563.042a11.867,11.867,0,0,0,4.458-4.146A6.833,6.833,0,0,0,222.983,240.587Z" transform="translate(-146.775 -190.317)"/>
      <path id="패스_673083" data-name="패스 673083" class="cls-10" d="M365.8,240.587v-.167a.042.042,0,0,0,0-.021" transform="translate(-289.592 -190.317)"/>
      <path id="패스_673084" data-name="패스 673084" class="cls-8" d="M223.062,199.342a.042.042,0,0,1,0,.021v.167a6.833,6.833,0,0,1-1,3.4,12.027,12.027,0,0,1-4.458,4.146c-7.312,4.229-19.208,4.208-26.562-.042A12.159,12.159,0,0,1,186.5,202.8a6.833,6.833,0,0,1-1-3.458c-.021-2.771,1.813-5.542,5.458-7.646,7.313-4.229,19.208-4.208,26.563.042,3.646,2.1,5.5,4.854,5.542,7.6" transform="translate(-146.853 -149.259)"/>
      <path id="패스_673085" data-name="패스 673085" class="cls-11" d="M223.062,199.342a.042.042,0,0,1,0,.021v.167a6.833,6.833,0,0,1-1,3.4,12.027,12.027,0,0,1-4.458,4.146c-7.312,4.229-19.208,4.208-26.562-.042A12.159,12.159,0,0,1,186.5,202.8a6.833,6.833,0,0,1-1-3.458c-.021-2.771,1.813-5.542,5.458-7.646,7.313-4.229,19.208-4.208,26.563.042C221.166,193.842,223.02,196.592,223.062,199.342Z" transform="translate(-146.853 -149.259)"/>
      <path id="패스_673086" data-name="패스 673086" class="cls-12" d="M232.163,206.4a15.147,15.147,0,0,0-2.292-1.6c-7.354-4.25-19.25-4.271-26.562-.042A15.084,15.084,0,0,0,201.1,206.3c.417-1.771,1.9-3.458,4.417-4.812,6.083-3.25,16-3.229,22.125.042,2.583,1.375,4.083,3.1,4.5,4.875" transform="translate(-159.204 -157.591)"/>
      <path id="패스_673087" data-name="패스 673087" class="cls-13" d="M232.163,206.4a15.147,15.147,0,0,0-2.292-1.6c-7.354-4.25-19.25-4.271-26.562-.042A15.084,15.084,0,0,0,201.1,206.3c.417-1.771,1.9-3.458,4.417-4.812,6.083-3.25,16-3.229,22.125.042C230.246,202.883,231.746,204.612,232.163,206.4Z" transform="translate(-159.204 -157.591)"/>
      <path id="패스_673088" data-name="패스 673088" class="cls-14" d="M227.359,222.88c-6.083,3.25-16,3.229-22.125-.042-3.583-1.917-5.083-4.521-4.5-7a15.085,15.085,0,0,1,2.208-1.542c7.313-4.229,19.208-4.208,26.563.042a15.146,15.146,0,0,1,2.292,1.6h0c.583,2.458-.9,5.042-4.417,6.917" transform="translate(-158.818 -167.15)"/>
      <path id="패스_673089" data-name="패스 673089" class="cls-15" d="M227.359,222.88c-6.083,3.25-16,3.229-22.125-.042-3.583-1.917-5.083-4.521-4.5-7a15.085,15.085,0,0,1,2.208-1.542c7.313-4.229,19.208-4.208,26.563.042a15.146,15.146,0,0,1,2.292,1.6h0C232.359,218.421,230.9,221,227.359,222.88Z" transform="translate(-158.818 -167.15)"/>
      <path id="패스_673090" data-name="패스 673090" class="cls-8" d="M345.058,259.8c-.042,2.729-1.854,5.458-5.458,7.542" transform="translate(-268.85 -205.675)"/>
      <path id="패스_673091" data-name="패스 673091" class="cls-16" d="M345.058,259.8c-.042,2.729-1.854,5.458-5.458,7.542" transform="translate(-268.85 -205.675)"/>
      <path id="패스_673092" data-name="패스 673092" class="cls-17" d="M339.4,163.3v.021l-.1.042Z" transform="translate(-268.612 -129.279)"/>
      <path id="패스_673093" data-name="패스 673093" class="cls-7" d="M339.4,163.3l-.1.063.1-.042Z" transform="translate(-268.612 -129.279)"/>
      <line id="선_91340" data-name="선 91340" class="cls-18" x1="0.021" y2="0.021" transform="translate(70.792 34.021)"/>
      <line id="선_91341" data-name="선 91341" class="cls-18" x1="0.021" y2="0.021" transform="translate(67.75 37.688)"/>
      <line id="선_91342" data-name="선 91342" class="cls-19" x1="0.292" y2="0.167" transform="translate(21.625 75.604)"/>
      <path id="패스_673094" data-name="패스 673094" class="cls-8" d="M185,264.17a2.622,2.622,0,0,1,1.729-1.812c1.354-.333,4.167,1.583,4.542,4.625s.354,5.188-1.771,4.938-3.125-5.417-3.125-5.417Z" transform="translate(-146.458 -207.67)"/>
      <path id="패스_673095" data-name="패스 673095" class="cls-7" d="M86.514,282.9s-1.979,1.563-.5,4.458,3.271,2.646,3.271,2.646l21.646-12.583s1.333-1.687-.687-5.1-4.417-.562-4.417-.562Z" transform="translate(-67.66 -214.256)"/>
      <path id="패스_673096" data-name="패스 673096" class="cls-20" d="M89.6,336.438a1.6,1.6,0,0,1-1.625-.125,5.954,5.954,0,0,1-2.479-4.729c0-1.1.417-1.854,1.042-2.083" transform="translate(-67.687 -260.854)"/>
      <path id="패스_673097" data-name="패스 673097" class="cls-21" d="M147.229,338.2l-.229.146Z" transform="translate(-116.375 -267.742)"/>
      <path id="패스_673098" data-name="패스 673098" class="cls-22" d="M186.067,269.517l-.625.375H185.4a.459.459,0,0,1,.021-.167,4,4,0,0,1,.25-1.125A8.828,8.828,0,0,0,186.067,269.517Z" transform="translate(-146.775 -212.642)"/>
      <path id="패스_673099" data-name="패스 673099" class="cls-23" d="M185.442,274.325l-.042-.125" transform="translate(-146.775 -217.075)"/>
      <path id="패스_673100" data-name="패스 673100" class="cls-24" d="M100.938,316.239a3.729,3.729,0,0,1-.042.625,1.87,1.87,0,0,1-.771,1.354l-.083.042-6.479,3.729h0a2.205,2.205,0,0,0,.854-2,5.928,5.928,0,0,0-2.479-4.729,1.613,1.613,0,0,0-1.437-.208l6.313-3.646h0a1.528,1.528,0,0,1,1.521.042l.125.063A5.9,5.9,0,0,1,100.938,316.239Z" transform="translate(-71.646 -246.385)"/>
      <path id="패스_673101" data-name="패스 673101" class="cls-24" d="M127.137,309.932a2.291,2.291,0,0,1-.75,1.917l-.229.146-2.146,1.229a1.83,1.83,0,0,0,.771-1.354,3.73,3.73,0,0,0,.042-.625,5.928,5.928,0,0,0-2.479-4.729l-.125-.062a1.528,1.528,0,0,0-1.521-.042h0l2.292-1.312h0a1.583,1.583,0,0,1,1.646.1A5.858,5.858,0,0,1,127.137,309.932Z" transform="translate(-95.554 -241.39)"/>
      <path id="패스_673102" data-name="패스 673102" class="cls-25" d="M148.171,276.469a2.917,2.917,0,0,1-.312,1.438,1.437,1.437,0,0,1-.521.563l-.792.458-11.271,6.479a2.291,2.291,0,0,0,.75-1.917,5.928,5.928,0,0,0-2.479-4.729,1.539,1.539,0,0,0-1.646-.1h0l11.146-6.417h.063l.625-.354.333-.187a1.583,1.583,0,0,1,1.646.1,5.937,5.937,0,0,1,2.458,4.563Z" transform="translate(-104.421 -214.948)"/>
      <path id="패스_673103" data-name="패스 673103" class="cls-26" d="M192.912,269.216a4.876,4.876,0,0,1-.062.833,2.9,2.9,0,0,1-.6,1.458,1.9,1.9,0,0,1-2.417.333l.792-.458a1.438,1.438,0,0,0,.542-.562,2.917,2.917,0,0,0,.313-1.437v-.167a5.937,5.937,0,0,0-2.458-4.562,1.639,1.639,0,0,0-1.646-.125l-.333.188a8.827,8.827,0,0,1-.437-.875,1.86,1.86,0,0,1,2.646-1.1l.4.188a5.375,5.375,0,0,1,1.438,1.271A8.423,8.423,0,0,1,192.912,269.216Z" transform="translate(-147.725 -207.841)"/>
    </g>
    <g id="그룹_334296" data-name="그룹 334296" class="cls-2">
      <path id="패스_673104" data-name="패스 673104" class="cls-8" d="M242.108,114.592A10.87,10.87,0,1,1,231.254,104.3a10.578,10.578,0,0,1,10.854,10.292" transform="translate(-174.483 -82.571)"/>
      <path id="패스_673105" data-name="패스 673105" class="cls-27" d="M242.108,114.592A10.87,10.87,0,1,1,231.254,104.3C237.254,104.3,242.108,108.925,242.108,114.592Z" transform="translate(-174.483 -82.571)"/>
      <line id="선_91343" data-name="선 91343" class="cls-17" x1="5.188" y2="5.188" transform="translate(54.167 31.771)"/>
      <path id="패스_673291" data-name="패스 673291" class="cls-28" d="M0,5.188" transform="translate(54.167 31.771)"/>
      <line id="선_91345" data-name="선 91345" class="cls-17" x2="5.188" y2="5.188" transform="translate(54.167 31.771)"/>
      <g id="그룹_334295" data-name="그룹 334295" class="cls-29" transform="translate(51.708 46.896)">
        <g id="그룹_334294" data-name="그룹 334294" class="cls-30">
          <path id="패스_673108" data-name="패스 673108" d="M258.383,227.808c0,1.5-2.271,2.708-5.042,2.708s-5.042-1.208-5.042-2.708,2.271-2.708,5.042-2.708,5.042,1.208,5.042,2.708" transform="translate(-248.279 -225.1)"/>
        </g>
      </g>
      <path id="패스_673292" data-name="패스 673292" class="cls-31" d="M209.317,102.575c0,5.729-4.9,10.375-10.958,10.375S187.4,108.3,187.4,102.575,192.317,92.2,198.358,92.2s10.958,4.646,10.958,10.375" transform="translate(-141.358 -67.992)"/>
      <path id="패스_673293" data-name="패스 673293" class="cls-32" d="M225.8,132.208l2.563,2.521,5.229-5.229" transform="translate(-171.758 -97.521)"/>
      <line id="선_91365" data-name="선 91365" class="cls-33" x2="0.729" y2="0.708" transform="translate(53.313 33.979)"/>
      <path id="패스_673107" data-name="패스 673107" class="cls-34" d="M242.108,125.892A10.87,10.87,0,1,1,231.254,115.6,10.578,10.578,0,0,1,242.108,125.892Z" transform="translate(-174.483 -91.517)"/>
    </g>
  </g>
</svg>
