<svg xmlns="http://www.w3.org/2000/svg" xmlns:xlink="http://www.w3.org/1999/xlink" width="20" height="20" viewBox="0 0 20 20"><defs><style>.a,.c,.d,.e{fill:none;}.b{clip-path:url(#a);}.c,.d,.e,.f,.g{stroke:#111;stroke-width:1.5px;}.c,.d,.g{stroke-linecap:round;}.c,.g{stroke-linejoin:round;}.d,.e,.f{stroke-miterlimit:10;}.f{fill:#fff;}.g{fill:rgba(255,255,255,0);}</style><clipPath id="a"><rect class="a" width="20" height="20"/></clipPath></defs><g class="b"><path class="c" d="M3.007,3.1H1V14.138a1.3,1.3,0,0,0,1.3,1.3H4.813" transform="translate(0.191 0.198)"/><line class="d" y2="1.505" transform="translate(6.208 2.797)"/><line class="e" y2="3.01" transform="translate(6.208 0.79)"/><line class="d" y2="1.505" transform="translate(13.233 2.797)"/><line class="e" y2="3.01" transform="translate(13.233 0.79)"/><path class="a" d="M19.142,13.121A6.021,6.021,0,1,1,13.121,7.1a6.021,6.021,0,0,1,6.021,6.021" transform="translate(0.212 0.212)"/><circle class="f" cx="6.021" cy="6.021" r="6.021" transform="translate(7.312 7.312)"/><line class="e" x2="5.318" transform="translate(6.409 3.198)"/><path class="g" d="M15.315,11.8l-2.709,2.709L11,12.9" transform="translate(0.226 0.229)"/></g></svg>