<svg xmlns="http://www.w3.org/2000/svg" xmlns:xlink="http://www.w3.org/1999/xlink" width="28" height="28" viewBox="0 0 28 28"><defs><style>.a,.d,.f,.g{fill:none;}.b{clip-path:url(#a);}.c{fill:#fddb2b;}.d{stroke:#fccb3a;}.e{fill:#fff;}.f,.g{stroke:#111;stroke-miterlimit:10;}.f{stroke-linecap:round;}</style><clipPath id="a"><rect class="a" width="28" height="28"/></clipPath></defs><g transform="translate(14 14)"><g transform="translate(-14 -14)"><g class="b"><path class="c" d="M14,0A14,14,0,1,1,0,14,14,14,0,0,1,14,0"/><circle class="d" cx="13.5" cy="13.5" r="13.5" transform="translate(0.5 0.5)"/></g><g class="b"><path class="e" d="M19.4,16.9a3.5,3.5,0,1,1-3.5-3.5,3.5,3.5,0,0,1,3.5,3.5"/><path class="f" d="M16.1,19.3a3.312,3.312,0,0,1-3.2-5.8l.5-.2V9.2a1.2,1.2,0,0,1,2.3,0v4.1a3.3,3.3,0,0,1,.8,5.8"/></g><line class="f" x2="1.1" transform="translate(9.8 8.8)"/><line class="g" x2="1" transform="translate(8.9 8.8)"/><line class="f" x2="1.1" transform="translate(9.8 10.8)"/><line class="g" x2="1" transform="translate(8.9 10.8)"/></g></g></svg>