<svg xmlns="http://www.w3.org/2000/svg" width="16" height="16"><defs><style>.b{fill:#e63430}</style></defs><path class="b" d="M8.589 13.178v-2.84c0-.757.211-1.413.766-1.615l2.367-.843a2.113 2.113 0 00.161-.861 2.9 2.9 0 00-1.906-2.837L3.496 2.156l1.69-.606a.96.96 0 01.3-.05 1.114 1.114 0 01.316.049l6.613 2.067a2.71 2.71 0 011.58 2.5 1.521 1.521 0 01-.847 1.534c-.571.208-2.283.821-2.283.821a2.471 2.471 0 00-.162 1.035v2.56c0 .805-.388 1.536-1.132 1.536a1.468 1.468 0 01-.979-.429"/><path class="b" d="M6.893 6.723a3.251 3.251 0 01.513 1.719v2.383a2.945 2.945 0 001.805 3.02l-1.734.6a1.048 1.048 0 01-.893-.136 2.886 2.886 0 01-1.289-2.668v-2.5a3.234 3.234 0 00-.668-1.846 2.267 2.267 0 00-1.09-.8 2.735 2.735 0 01-1.542-2.5c0-.935.476-1.525 1.108-1.57a.965.965 0 01.362.048c.376.115.678.219.678.219a3.01 3.01 0 001.694 3.191 1.954 1.954 0 011.051.84"/></svg>