<svg xmlns="http://www.w3.org/2000/svg" width="40" height="50"><defs><clipPath id="a"><path data-name="사각형 352459" fill="none" d="M0 0h40v50H0z"/></clipPath></defs><g data-name="멤버십아이콘 플레 40x50"><g data-name="그룹 476482"><g data-name="그룹 476481"><g data-name="멤버십아이콘 플레 40x50-2" clip-path="url(#a)"><path data-name="패스 694981" d="M22.3 1.8A3.8 3.8 0 0018.7.6c-2.1.5-14.8 7.3-16 9.3s-.2 19.4-.2 19.4l2.4 2 2-.9 1-18.4z" fill="#fff"/><path data-name="패스 694982" d="M3.4 13.5v24.6A4.5 4.5 0 005.6 42l12.7 7.3a4.5 4.5 0 004.5 0L35.5 42a4.5 4.5 0 002.2-3.9V13.5a4.5 4.5 0 00-2.2-3.9L22.8 2.3a4.5 4.5 0 00-4.5 0L5.6 9.6a4.5 4.5 0 00-2.2 3.9" fill="#a5a5ff"/><path data-name="패스 694983" d="M1.9 12.4V37a4.5 4.5 0 002.2 3.9l12.7 7.3a4.5 4.5 0 004.5 0L34 40.9a4.5 4.5 0 002.3-3.9V12.4A4.5 4.5 0 0034 8.5L21.3 1.2a4.5 4.5 0 00-4.5 0L4.2 8.5a4.5 4.5 0 00-2.3 3.9z" fill="none" stroke="#6955ff" stroke-linejoin="round"/><g data-name="그룹 343281"><g data-name="그룹 343300"><path data-name="패스 694984" d="M20.238 9.8A8.345 8.345 0 1112 18.255v-.109a8.345 8.345 0 018.235-8.235" fill="#fff"/><path data-name="패스 694985" d="M12.552 14.636a8.129 8.129 0 011.537-2.2" fill="none" stroke="#111" stroke-linecap="square" stroke-linejoin="round"/><path data-name="패스 694986" d="M13.979 7.605s0 3.184 1.976 3.184h.11a8.344 8.344 0 11-3.623 3.843" fill="none" stroke="#111" stroke-linecap="round" stroke-linejoin="round"/><path data-name="패스 694987" d="M16.615 8.154s-.549 1.867.659 2.086" fill="none" stroke="#111" stroke-linecap="round" stroke-linejoin="round"/><path data-name="패스 694988" d="M20.348 19.024a1.647 1.647 0 01-3.184 0" fill="none" stroke="#111" stroke-linecap="square" stroke-miterlimit="10"/><path data-name="선 93127" fill="none" stroke="#111" stroke-linecap="round" d="M21.225 16.059v.329"/><path data-name="선 93128" fill="none" stroke="#111" d="M21.225 14.633v1.427"/><path data-name="선 93129" fill="none" stroke="#111" stroke-linecap="round" d="M16.285 15.95v.439"/><path data-name="선 93130" fill="none" stroke="#111" d="M16.285 14.633v1.318"/></g><g data-name="그룹 343299"><path data-name="패스 694989" d="M29.42 10.356l-2.261 3.131-5.479-3.479 1.826-3.392.87 2.348 2.609-1.218.087 2.957z" fill="#fff"/><path data-name="패스 694990" d="M29.42 10.356l-2.261 3.131-5.479-3.479 1.826-3.392.87 2.348 2.609-1.218.087 2.957z" fill="none" stroke="#111" stroke-linejoin="round"/></g></g></g></g></g></g><text data-name="플레티넘" transform="translate(6.702 37)" fill="#111" font-size="7.52" font-family="MoebiusKorea-Bold, Moebius Korea" font-weight="700" letter-spacing="-.029em" style="isolation:isolate"><tspan x="0" y="0">플레티넘</tspan></text></svg>