<svg xmlns="http://www.w3.org/2000/svg" xmlns:xlink="http://www.w3.org/1999/xlink" width="100" height="100" viewBox="0 0 100 100">
  <defs>
    <clipPath id="clip-path">
      <rect id="사각형_440563" data-name="사각형 440563" width="100" height="100" fill="none"/>
    </clipPath>
    <clipPath id="clip-path-4">
      <rect id="사각형_440559" data-name="사각형 440559" width="52.154" height="29.311" fill="none"/>
    </clipPath>
    <clipPath id="clip-path-5">
      <rect id="사각형_440560" data-name="사각형 440560" width="8.341" height="4.346" fill="none"/>
    </clipPath>
  </defs>
  <g id="icon_point_null_100" transform="translate(50 50)">
    <g id="icon_point_null_100-2" data-name="icon_point_null_100" transform="translate(-50 -50)" style="isolation: isolate">
      <g id="Layer_1" data-name="Layer 1" transform="translate(0 0)">
        <g id="그룹_592360" data-name="그룹 592360" clip-path="url(#clip-path)">
          <g id="그룹_592353" data-name="그룹 592353" clip-path="url(#clip-path)">
            <path id="패스_1469450" data-name="패스 1469450" d="M50.048,0A50.048,50.048,0,1,1,0,50.048,50.061,50.061,0,0,1,50.048,0" transform="translate(-0.048 -0.048)" fill="#f9f9f9"/>
            <path id="패스_1469451" data-name="패스 1469451" d="M50.048,100.1A50.048,50.048,0,1,1,100.1,50.048,50.114,50.114,0,0,1,50.048,100.1M50.048,1A49.047,49.047,0,1,0,99.095,50.048,49.1,49.1,0,0,0,50.048,1" transform="translate(-0.048 -0.048)" fill="#f0f0f0"/>
          </g>
          <g id="그룹_592358" data-name="그룹 592358" clip-path="url(#clip-path)">
            <g id="그룹_592355" data-name="그룹 592355" transform="translate(23.975 51.105)" opacity="0.15">
              <g id="그룹_592354" data-name="그룹 592354" clip-path="url(#clip-path-4)">
                <path id="패스_1469452" data-name="패스 1469452" d="M159.864,270.17c-10.114,5.755-26.63,5.818-36.869.125s-10.343-14.973-.229-20.728,26.63-5.818,36.869-.125,10.343,14.973.229,20.728" transform="translate(-115.238 -245.23)" fill="#222"/>
              </g>
            </g>
            <path id="패스_1469453" data-name="패스 1469453" d="M166.881,263.219c-9.259,5.338-24.294,5.318-33.595-.063s-9.363-14.055-.1-19.394,24.294-5.318,33.595.063,9.363,14.055.1,19.394" transform="translate(-99.99 -189.822)" fill="#fff"/>
            <path id="패스_1469454" data-name="패스 1469454" d="M166.881,263.219c-9.259,5.338-24.294,5.318-33.595-.063s-9.363-14.055-.1-19.394,24.294-5.318,33.595.063S176.14,257.881,166.881,263.219Z" transform="translate(-99.99 -189.822)" fill="none" stroke="#222" stroke-linejoin="round" stroke-width="0.834"/>
            <path id="패스_1469455" data-name="패스 1469455" d="M126.3,281.807V274.8h47.5v6.4" transform="translate(-100.01 -217.543)" fill="#fff"/>
            <path id="패스_1469456" data-name="패스 1469456" d="M126.3,281.807V274.8h47.5v6.4" transform="translate(-100.01 -217.543)" fill="none" stroke="#222" stroke-linejoin="round" stroke-width="0.834"/>
            <path id="패스_1469457" data-name="패스 1469457" d="M167.011,233.3c-9.217,5.38-24.273,5.443-33.595.125s-9.426-14.013-.209-19.394,24.273-5.443,33.595-.125,9.426,14.013.209,19.394" transform="translate(-100.058 -166.225)" fill="#fff"/>
            <path id="패스_1469458" data-name="패스 1469458" d="M167.011,233.3c-9.217,5.38-24.273,5.443-33.595.125s-9.426-14.013-.209-19.394,24.273-5.443,33.595-.125S176.229,227.9,167.011,233.3Z" transform="translate(-100.058 -166.225)" fill="none" stroke="#222" stroke-linejoin="round" stroke-width="0.834"/>
            <line id="선_172764" data-name="선 172764" y1="6.298" transform="translate(73.001 60.99)" fill="none" stroke="#222" stroke-linejoin="round" stroke-width="0.834"/>
            <line id="선_172765" data-name="선 172765" y1="6.298" transform="translate(70.311 64.597)" fill="none" stroke="#222" stroke-linejoin="round" stroke-width="0.834"/>
            <line id="선_172766" data-name="선 172766" y1="6.298" transform="translate(66.495 67.329)" fill="none" stroke="#222" stroke-linejoin="round" stroke-width="0.834"/>
            <path id="패스_1469459" data-name="패스 1469459" d="M300.7,331.4v6.277" transform="translate(-238.042 -262.34)" fill="none" stroke="#222" stroke-linejoin="round" stroke-width="0.834"/>
            <path id="패스_1469460" data-name="패스 1469460" d="M282.3,336.8v6.256" transform="translate(-223.479 -266.614)" fill="none" stroke="#222" stroke-linejoin="round" stroke-width="0.834"/>
            <path id="패스_1469461" data-name="패스 1469461" d="M264,340v6.256" transform="translate(-208.995 -269.147)" fill="none" stroke="#222" stroke-linejoin="round" stroke-width="0.834"/>
            <line id="선_172767" data-name="선 172767" y1="6.152" transform="translate(27.082 60.969)" fill="none" stroke="#222" stroke-linejoin="round" stroke-width="0.834"/>
            <line id="선_172768" data-name="선 172768" y1="6.152" transform="translate(29.772 64.597)" fill="none" stroke="#222" stroke-linejoin="round" stroke-width="0.834"/>
            <path id="패스_1469462" data-name="패스 1469462" d="M161.4,328.56V322.2" transform="translate(-127.791 -255.059)" fill="none" stroke="#222" stroke-linejoin="round" stroke-width="0.834"/>
            <path id="패스_1469463" data-name="패스 1469463" d="M179.7,331.4v6.193" transform="translate(-142.275 -262.34)" fill="none" stroke="#222" stroke-linejoin="round" stroke-width="0.834"/>
            <path id="패스_1469464" data-name="패스 1469464" d="M198.1,336.8v6.193" transform="translate(-156.838 -266.614)" fill="none" stroke="#222" stroke-linejoin="round" stroke-width="0.834"/>
            <path id="패스_1469465" data-name="패스 1469465" d="M216.4,340v6.214" transform="translate(-171.321 -269.147)" fill="none" stroke="#222" stroke-linejoin="round" stroke-width="0.834"/>
            <path id="패스_1469466" data-name="패스 1469466" d="M240.2,341.4v6.235" transform="translate(-190.158 -270.255)" fill="none" stroke="#222" stroke-linejoin="round" stroke-width="0.834"/>
            <path id="패스_1469467" data-name="패스 1469467" d="M190.6,241.968c-.667-1.71-2.315-3.337-4.942-4.65-6.965-3.462-18.184-3.441-25.066.083-3.024,1.543-4.692,3.5-5.046,5.505-1.084-2.794.5-5.818,4.775-8.008,6.882-3.524,18.1-3.545,25.066-.083,3.92,1.939,5.651,4.588,5.192,7.153" transform="translate(-122.897 -183.856)" fill="#e2e2e2"/>
            <path id="패스_1469468" data-name="패스 1469468" d="M190.6,241.968c-.667-1.71-2.315-3.337-4.942-4.65-6.965-3.462-18.184-3.441-25.066.083-3.024,1.543-4.692,3.5-5.046,5.505-1.084-2.794.5-5.818,4.775-8.008,6.882-3.524,18.1-3.545,25.066-.083C189.308,236.775,191.039,239.4,190.6,241.968Z" transform="translate(-122.897 -183.856)" fill="none" stroke="#222" stroke-linejoin="round" stroke-width="0.834"/>
            <path id="패스_1469469" data-name="패스 1469469" d="M191.854,251.465c-.354,2-2.023,3.962-5.046,5.505-6.882,3.524-18.1,3.545-25.066.083-2.628-1.314-4.275-2.94-4.942-4.65.355-2,2.023-3.962,5.046-5.505,6.882-3.524,18.1-3.545,25.066-.083C189.54,248.129,191.187,249.755,191.854,251.465Z" transform="translate(-124.15 -193.353)" fill="none" stroke="#222" stroke-linejoin="round" stroke-width="0.834"/>
            <path id="패스_1469470" data-name="패스 1469470" d="M200,262.293l1.606-.918,4.087,1.439.98-.563-2.544-2.336,1.606-.918,4.108,1.418,1.022-.584-2.482-2.356,1.5-.876L212.3,259l.375-.229a1.439,1.439,0,0,1,.6-.188,1,1,0,0,1,.584.125q.25.146.209.334a.626.626,0,0,1-.313.355l-.667.4,1.814,1.814q.48.48-.334.959a2.148,2.148,0,0,1-.813.271,1.939,1.939,0,0,1-.876-.083l-3.086-1.064-1,.584,1.814,1.773a.438.438,0,0,1,.125.5.938.938,0,0,1-.438.459,1.919,1.919,0,0,1-1.627.188l-3.107-1.043-1.043.6-1.084-.626.73-.417Zm8.592-1.126q-1.126-.417-1.939-.751l-.063.042a14.83,14.83,0,0,1,1.355,1.105Zm-1.668,2.148,1,.4.98.4.063-.042-.918-.751-.271-.229-.209-.188Zm4.15-2.4,1.919.772.063-.042q-.772-.6-1.335-1.126Z" transform="translate(-158.341 -203.138)" fill="#222"/>
            <g id="그룹_592357" data-name="그룹 592357" transform="translate(45.954 52.273)" opacity="0.15">
              <g id="그룹_592356" data-name="그룹 592356" clip-path="url(#clip-path-5)">
                <path id="패스_1469471" data-name="패스 1469471" d="M228.941,253.069c0,1.209-1.856,2.169-4.171,2.169s-4.171-.98-4.171-2.169,1.856-2.169,4.171-2.169,4.171.98,4.171,2.169" transform="translate(-220.6 -250.9)" fill="#222"/>
              </g>
            </g>
          </g>
          <g id="그룹_592359" data-name="그룹 592359" clip-path="url(#clip-path)">
            <path id="패스_1469472" data-name="패스 1469472" d="M209.629,123.8a10.88,10.88,0,1,1-10.865-10.3,10.589,10.589,0,0,1,10.865,10.3" transform="translate(-148.765 -89.879)" fill="#fff"/>
            <path id="패스_1469473" data-name="패스 1469473" d="M209.629,123.8a10.88,10.88,0,1,1-10.865-10.3A10.589,10.589,0,0,1,209.629,123.8Z" transform="translate(-148.765 -89.879)" fill="none" stroke="#000001" stroke-linejoin="round" stroke-width="0.834"/>
            <path id="패스_1469474" data-name="패스 1469474" d="M208.929,134.6a10.88,10.88,0,1,1-10.865-10.3,10.589,10.589,0,0,1,10.865,10.3" transform="translate(-148.211 -98.427)" fill="#3982f7"/>
            <path id="패스_1469475" data-name="패스 1469475" d="M208.929,134.6a10.88,10.88,0,1,1-10.865-10.3A10.589,10.589,0,0,1,208.929,134.6Z" transform="translate(-148.211 -98.427)" fill="none" stroke="#000001" stroke-linejoin="round" stroke-width="0.834"/>
            <path id="패스_1469476" data-name="패스 1469476" d="M236.741,187.273a.9.9,0,0,0-1.23,0,.876.876,0,1,0,1.23,0h0" transform="translate(-186.24 -148.075)" fill="#fff"/>
            <path id="패스_1469477" data-name="패스 1469477" d="M234.368,153.2a1.314,1.314,0,0,0-1.293,1.606l.4,3.67a.876.876,0,0,0,1.752.063v-.063l.4-3.67a1.314,1.314,0,0,0-1-1.564l-.271-.042" transform="translate(-184.493 -121.3)" fill="#fff"/>
          </g>
        </g>
      </g>
    </g>
  </g>
</svg>
