<svg xmlns="http://www.w3.org/2000/svg" xmlns:xlink="http://www.w3.org/1999/xlink" width="38" height="38" viewBox="0 0 38 38">
  <defs>
    <clipPath id="clip-path">
      <rect id="사각형_440006" data-name="사각형 440006" width="20" height="20" fill="none"/>
    </clipPath>
  </defs>
  <g id="그룹_592735" data-name="그룹 592735" transform="translate(-90 -15)">
    <g id="그룹_124234" data-name="그룹 124234" transform="translate(90 15)">
      <g id="타원_4810" data-name="타원 4810" fill="#ee3636" stroke="#e32c2c" stroke-width="1">
        <circle cx="19" cy="19" r="19" stroke="none"/>
        <circle cx="19" cy="19" r="18.5" fill="none"/>
      </g>
      <rect id="사각형_106165" data-name="사각형 106165" width="8" height="8" transform="translate(15 15)" fill="red" opacity="0"/>
    </g>
    <g id="icon_gas_20" transform="translate(110 34)">
      <g id="icon_gas_20-2" data-name="icon_gas_20" transform="translate(-10 -10)" clip-path="url(#clip-path)">
        <g id="그룹_590942" data-name="그룹 590942" clip-path="url(#clip-path)">
          <g id="그룹_590939" data-name="그룹 590939" opacity="0">
            <g id="그룹_590938" data-name="그룹 590938" clip-path="url(#clip-path)">
              <rect id="사각형_440001" data-name="사각형 440001" width="20" height="20" fill="#f0f"/>
            </g>
          </g>
          <g id="그룹_590941" data-name="그룹 590941" opacity="0">
            <g id="그룹_590940" data-name="그룹 590940" clip-path="url(#clip-path)">
              <rect id="사각형_440003" data-name="사각형 440003" width="20" height="20" fill="#f0f"/>
            </g>
          </g>
          <circle id="타원_13970" data-name="타원 13970" cx="1.5" cy="1.5" r="1.5" transform="translate(16.2 3.8)" fill="none" stroke="#fff" stroke-width="1.5"/>
          <path id="패스_1467618" data-name="패스 1467618" d="M16.2,5.3V15.8H14.8a1.5,1.5,0,0,1-1.5-1.5V3.9a2.5,2.5,0,0,0-2.5-2.5H3.3A2.5,2.5,0,0,0,.8,3.9V15.8a2.7,2.7,0,0,0,2.7,2.7h10" fill="none" stroke="#fff" stroke-linejoin="round" stroke-width="1.5"/>
          <line id="선_172333" data-name="선 172333" x2="1.1" transform="translate(7.9 6.5)" fill="none" stroke="#fff" stroke-linecap="round" stroke-width="1.5"/>
          <line id="선_172334" data-name="선 172334" x2="4" transform="translate(5 6.5)" fill="none" stroke="#fff" stroke-width="1.5"/>
          <line id="선_172335" data-name="선 172335" x2="1.1" transform="translate(7.9 9)" fill="none" stroke="#fff" stroke-linecap="round" stroke-width="1.5"/>
          <line id="선_172336" data-name="선 172336" x2="4" transform="translate(5 9)" fill="none" stroke="#fff" stroke-width="1.5"/>
          <line id="선_172337" data-name="선 172337" x1="2.5" y2="2.6" transform="translate(16.7 1.7)" fill="none" stroke="#fff" stroke-linecap="round" stroke-width="1.5"/>
        </g>
      </g>
    </g>
  </g>
</svg>
