<svg xmlns="http://www.w3.org/2000/svg" width="27" height="27"><defs><clipPath id="a"><path data-name="사각형 292056" fill="none" d="M0 0h27v27H0z"/></clipPath></defs><g data-name="그룹 381423" clip-path="url(#a)"><g data-name="그룹 381422" clip-path="url(#a)" fill="none" stroke="#111" stroke-width="1.5"><path data-name="패스 775039" d="M24.8 19.1a3.9 3.9 0 01-6.9 2.4.6.6 0 00-.8-.1 9.9 9.9 0 01-6.4 1.6 10 10 0 1111-10 9.9 9.9 0 01-.3 2.3 3.9 3.9 0 013.4 3.8z" stroke-linejoin="round"/><path data-name="패스 775040" d="M17.3 17.7a3.9 3.9 0 013.7-2.5h.3" stroke-linejoin="round"/><path data-name="패스 775041" d="M6.8 8.3a4 4 0 013.4-1.9" stroke-linecap="round" stroke-linejoin="round"/><path data-name="패스 775042" d="M6.1 9.6a6.2 6.2 0 01.7-1.3" stroke-linejoin="round"/><path data-name="패스 775043" d="M25.7 5a2 2 0 11-2-2 2 2 0 012 2z"/></g></g></svg>