<svg xmlns="http://www.w3.org/2000/svg" width="20" height="20"><defs><clipPath id="clip-path"><path id="사각형_221048" data-name="사각형 221048" fill="none" d="M0 0h20v20H0z"/></clipPath><style>.cls-5,.cls-6{fill:none}.cls-2{clip-path:url(#clip-path)}.cls-3{opacity:0}.cls-4{fill:#f0f}.cls-5,.cls-6{stroke:#111;stroke-width:1.5px;stroke-linecap:round;stroke-miterlimit:10}.cls-6{stroke-linecap:square}.cls-8{fill:#111}</style></defs><g id="쿠폰_20x20" transform="translate(10 10)"><g id="그룹_288720" data-name="그룹 288720" class="cls-2" transform="translate(-10 -10)"><g id="그룹_288714" data-name="그룹 288714" class="cls-2"><g id="그룹_288713" data-name="그룹 288713" class="cls-3"><g id="그룹_288712" data-name="그룹 288712" class="cls-2"><path id="사각형_221040" data-name="사각형 221040" class="cls-4" d="M0 0h20v20H0z"/></g></g></g><path id="선_75256" data-name="선 75256" class="cls-5" transform="translate(6.2 12.9)" d="M.7.7L0 0"/><path id="선_75257" data-name="선 75257" class="cls-6" transform="translate(6.9 13.6)" d="M.7.7L0 0"/><g id="그룹_288715" data-name="그룹 288715" class="cls-2"><path id="패스_587880" data-name="패스 587880" d="M10.6 2.2L.9 12l5.7 5.7h0l.5.5s1.5 1.5 4.1-1L19 9.4l-1.3-6.5-6.5-1.2-.5.5" stroke-linejoin="round" stroke-linecap="round" stroke="#111" stroke-width="1.5" fill="none"/><path id="패스_587881" data-name="패스 587881" class="cls-8" d="M13.4 6.3a.8.8 0 11-.8.8.8.8 0 01.8-.8m0-1.5a2.3 2.3 0 102.3 2.3 2.3 2.3 0 00-2.3-2.3"/></g><g id="그룹_288718" data-name="그룹 288718" class="cls-2"><g id="그룹_288717" data-name="그룹 288717" class="cls-3"><g id="그룹_288716" data-name="그룹 288716" class="cls-2"><path id="사각형_221044" data-name="사각형 221044" class="cls-4" d="M0 0h20v20H0z"/></g></g></g><path id="선_75258" data-name="선 75258" class="cls-5" transform="translate(6.2 12.9)" d="M.7.7L0 0"/><path id="선_75259" data-name="선 75259" class="cls-6" transform="translate(6.9 13.6)" d="M.7.7L0 0"/><g id="그룹_288719" data-name="그룹 288719" class="cls-2"><path id="패스_587882" data-name="패스 587882" class="cls-8" d="M13.4 6.3a.8.8 0 11-.8.8.8.8 0 01.8-.8m0-1.5a2.3 2.3 0 102.3 2.3 2.3 2.3 0 00-2.3-2.3"/></g></g></g></svg>