<svg xmlns="http://www.w3.org/2000/svg" width="48.491" height="10.543" viewBox="0 0 48.491 10.543"><defs><style>.a{fill:#fa2828;}</style></defs><g transform="translate(-82 -291.999)"><path class="a" d="M204.108,248.431h-3.5a1.149,1.149,0,0,0-1.176,1.119v8.09a1.178,1.178,0,0,0,2.353,0v-2.082h2.319a3.9,3.9,0,0,0,2.7-1.04,3.443,3.443,0,0,0,1.1-2.524A3.527,3.527,0,0,0,204.108,248.431Zm-.168,5.1h-2.151V250.46h2.151a1.536,1.536,0,1,1,0,3.071Z" transform="translate(-117.436 43.68)"/><path class="a" d="M278.358,248.183a1.437,1.437,0,0,0-1.372-.766,1.527,1.527,0,0,0-1.362.746l-2.663,5.734a.99.99,0,0,0-.232.5l-.927,2a1.048,1.048,0,0,0,.577,1.4,1.166,1.166,0,0,0,.448.09,1.124,1.124,0,0,0,1.026-.639l.758-1.693h4.812c.445.987.752,1.675.764,1.7a1.144,1.144,0,0,0,1.479.542,1.047,1.047,0,0,0,.569-1.408Zm-2.838,5.345,1.475-3.3c.455.975,1,2.17,1.513,3.3Z" transform="translate(-181.848 44.582)"/><path class="a" d="M366.2,248.246a1.186,1.186,0,0,0-1.6.249l-2.854,3.775-2.861-3.785a1.185,1.185,0,0,0-1.6-.249,1.06,1.06,0,0,0-.261,1.526l3.514,4.649V257.3a1.178,1.178,0,0,0,2.352,0v-2.8l3.576-4.731A1.059,1.059,0,0,0,366.2,248.246Z" transform="translate(-257.688 44.039)"/><path class="a" d="M550.422,248.932a6.159,6.159,0,0,0-8.055.01,5.011,5.011,0,0,0-1.673,3.739,5.71,5.71,0,0,0,11.39,0A5.022,5.022,0,0,0,550.422,248.932Zm-4.033,6.957a3.182,3.182,0,1,1,3.251-3.209A3.234,3.234,0,0,1,546.389,255.889Z" transform="translate(-421.592 44.564)"/><path class="a" d="M455.969,254.967a1.3,1.3,0,0,0-.922.026,3.165,3.165,0,0,0-.336.22c-.062.05-.125.1-.192.142a3.325,3.325,0,0,1-1.891.559,3.181,3.181,0,1,1,0-6.36,3.317,3.317,0,0,1,1.583.4c.034.018.068.037.1.057a1.948,1.948,0,0,1,.266.174,1.46,1.46,0,0,0,.9.289,1.162,1.162,0,0,0,.913-.518,1.084,1.084,0,0,0-.225-1.407,4.356,4.356,0,0,0-.455-.31,6.027,6.027,0,0,0-3.087-.772,5.877,5.877,0,0,0-4.011,1.461,5.11,5.11,0,0,0-1.684,3.779c0,3.2,2.52,5.294,5.695,5.294a5.858,5.858,0,0,0,2.607-.6q.157-.078.308-.165c.174-.114.4-.267.6-.422a1.1,1.1,0,0,0,.482-1.047A1.065,1.065,0,0,0,455.969,254.967Z" transform="translate(-338.011 44.539)"/></g></svg>