<svg id="icon_membership_p_fold_50" xmlns="http://www.w3.org/2000/svg" xmlns:xlink="http://www.w3.org/1999/xlink" width="50" height="50" viewBox="0 0 50 50">
  <defs>
    <clipPath id="clip-path">
      <rect id="사각형_352449" data-name="사각형 352449" width="50" height="50" fill="none"/>
    </clipPath>
  </defs>
  <g id="그룹_476468" data-name="그룹 476468">
    <g id="그룹_476467" data-name="그룹 476467" clip-path="url(#clip-path)">
      <g id="icon_membership_platinum_40-2" data-name="icon membership platinum 40-2">
        <path id="패스_861276" data-name="패스 861276" d="M27.625,4A4.373,4.373,0,0,0,23.5,2.625C21,3.25,6.5,11.125,5,13.5s-.248,22.375-.248,22.375L7.5,38l2.25-1L11,15.75Z" fill="#fff"/>
        <path id="패스_861277" data-name="패스 861277" d="M5.875,17.5V34.375a5.126,5.126,0,0,0,2.625,4.5l14.625,8.5a5.127,5.127,0,0,0,5.125,0l14.625-8.5a5.126,5.126,0,0,0,2.625-4.5V17.5A5.126,5.126,0,0,0,42.875,13L28.25,4.625a5.127,5.127,0,0,0-5.125,0L8.5,13a5.126,5.126,0,0,0-2.625,4.5" fill="#a5a5ff"/>
        <path id="패스_861278" data-name="패스 861278" d="M4.125,16.25V33.125a5.126,5.126,0,0,0,2.625,4.5l14.625,8.5a5.127,5.127,0,0,0,5.125,0l14.625-8.5a5.126,5.126,0,0,0,2.625-4.5V16.25a5.126,5.126,0,0,0-2.625-4.5L26.5,3.375a5.127,5.127,0,0,0-5.125,0L6.75,11.75A5.126,5.126,0,0,0,4.125,16.25Z" fill="none" stroke="#6955ff" stroke-linejoin="round" stroke-width="1.25"/>
        <path id="패스_861279" data-name="패스 861279" d="M24.625,15.625a9.5,9.5,0,1,1-9.5,9.625h0a9.5,9.5,0,0,1,9.5-9.5" fill="#fff"/>
        <path id="패스_861280" data-name="패스 861280" d="M15.75,21.125a9.258,9.258,0,0,1,1.75-2.5" fill="none" stroke="#111" stroke-linecap="square" stroke-linejoin="round" stroke-width="1.25"/>
        <path id="패스_861281" data-name="패스 861281" d="M17.375,13.125s0,3.75,2.25,3.75h.124a9.5,9.5,0,1,1-4.125,4.375" fill="none" stroke="#111" stroke-linecap="round" stroke-linejoin="round" stroke-width="1.25"/>
        <path id="패스_861282" data-name="패스 861282" d="M20.5,13.875s-.625,2.125.75,2.375" fill="none" stroke="#111" stroke-linecap="round" stroke-linejoin="round" stroke-width="1.25"/>
        <path id="패스_861283" data-name="패스 861283" d="M24.75,26.25a1.875,1.875,0,0,1-3.625,0" fill="none" stroke="#111" stroke-linecap="square" stroke-miterlimit="10" stroke-width="1.25"/>
        <line id="선_131671" data-name="선 131671" y2="0.375" transform="translate(25.75 22.875)" fill="none" stroke="#111" stroke-linecap="round" stroke-width="1.25"/>
        <line id="선_131672" data-name="선 131672" y2="1.625" transform="translate(25.75 21.125)" fill="none" stroke="#111" stroke-width="1.25"/>
        <line id="선_131673" data-name="선 131673" y2="0.625" transform="translate(20.125 22.625)" fill="none" stroke="#111" stroke-linecap="round" stroke-width="1.25"/>
        <line id="선_131674" data-name="선 131674" y2="1.5" transform="translate(20.125 21.125)" fill="none" stroke="#111" stroke-width="1.25"/>
        <path id="패스_861284" data-name="패스 861284" d="M36.5,16.25l-3,4.125L26.25,15.75l2.5-4.375,1,3,3.5-1.5.25,3.875Z" fill="#fff"/>
        <path id="패스_861285" data-name="패스 861285" d="M36.5,16.25l-3,4.125L26.25,15.75l2.5-4.375,1,3,3.5-1.5.25,3.875Z" fill="none" stroke="#111" stroke-linejoin="round" stroke-width="1.25"/>
      </g>
    </g>
  </g>
</svg>
