<svg xmlns="http://www.w3.org/2000/svg" xmlns:xlink="http://www.w3.org/1999/xlink" width="28" height="28" viewBox="0 0 28 28"><defs><style>.a,.d,.j,.k{fill:none;}.b{clip-path:url(#a);}.c{fill:#fddb2b;}.d{stroke:#fccb3a;}.e{fill:#fff;}.f{isolation:isolate;}.g{clip-path:url(#c);}.h{fill:#111;font-size:8px;font-family:Jost-Medium, 'Jost*';font-weight:500;}.i{letter-spacing:-0.05em;}.j,.k{stroke:#111;stroke-miterlimit:10;}.k{stroke-linecap:round;}</style><clipPath id="a"><rect class="a" width="28" height="28"/></clipPath><clipPath id="c"><rect class="a" width="9.2" height="9.65" transform="translate(13.3 13.2)"/></clipPath></defs><g transform="translate(14 14)"><g transform="translate(-14 -14)"><g class="b"><path class="c" d="M14,0A14,14,0,1,1,0,14,14,14,0,0,1,14,0"/><path class="d" d="M14,.5A13.5,13.5,0,1,1,.5,14,13.5,13.5,0,0,1,14,.5Z"/></g><g class="b"><path class="e" d="M14.5,8A6.5,6.5,0,1,1,8,14.5,6.5,6.5,0,0,1,14.5,8"/><g class="f"><g class="g"><g class="f"><g class="g"><text class="h" transform="translate(13.3 20)"><tspan class="i" x="0" y="0">2</tspan><tspan y="0">4</tspan></text></g></g></g></g><path class="j" d="M13.6,12.4l-1.1,1L9.9,11.8"/><line class="k" x1="2" y2="1.7" transform="translate(13.6 10.7)"/><path class="k" d="M13.3,7a6.2,6.2,0,0,1,6.3,6.3"/><path class="j" d="M13.3,19.5A6.3,6.3,0,0,1,13.3,7"/></g></g></g></svg>