<svg xmlns="http://www.w3.org/2000/svg" width="42" height="42"><defs><clipPath id="a"><path data-name="사각형 338979" transform="translate(277 186)" fill="red" opacity=".338" d="M0 0h42v42H0z"/></clipPath></defs><g data-name="마스크 그룹 359641" transform="translate(-277 -186)" clip-path="url(#a)"><path data-name="사각형 224859" fill="#f9f9f9" opacity=".5" d="M20 171h335v115H20z"/><g data-name="그룹 279833"><g data-name="그룹 260106" transform="translate(279.03 187.999)"><ellipse data-name="타원 7633" cx="18.114" cy="18.612" rx="18.114" ry="18.612" transform="translate(1.111 1.067)" fill="#c5c9d3" style="isolation:isolate"/><ellipse data-name="타원 7634" cx="18.114" cy="18.612" rx="18.114" ry="18.612" fill="none" stroke="#717888" stroke-linejoin="round"/></g><g data-name="그룹 279822"><path data-name="패스 581223" d="M297.514 199.027a8.25 8.25 0 11-8.25 8.359 8.25 8.25 0 018.25-8.25" fill="#fff"/><path data-name="패스 581224" d="M289.807 203.803a8.033 8.033 0 011.52-2.171" fill="none" stroke="#111" stroke-linecap="square" stroke-linejoin="round"/><path data-name="패스 581225" d="M291.218 196.747s0 3.257 1.954 3.257h.109a8.25 8.25 0 11-3.582 3.8" fill="none" stroke="#111" stroke-linecap="round" stroke-linejoin="round"/><path data-name="패스 581226" d="M293.933 197.398s-.543 1.845.651 2.063" fill="none" stroke="#111" stroke-linecap="round" stroke-linejoin="round"/><path data-name="패스 581227" d="M297.515 208.254a1.628 1.628 0 01-3.148 0" fill="none" stroke="#111" stroke-linecap="square" stroke-miterlimit="10"/><path data-name="선 42867" fill="none" stroke="#111" stroke-linecap="round" d="M298.492 205.214v.326"/><path data-name="선 42868" fill="none" stroke="#111" d="M298.492 203.803v1.411"/><path data-name="선 42869" fill="none" stroke="#111" stroke-linecap="round" d="M293.607 205.106v.434"/><path data-name="선 42870" fill="none" stroke="#111" d="M293.607 203.803v1.303"/></g></g></g></svg>