<svg xmlns="http://www.w3.org/2000/svg" xmlns:xlink="http://www.w3.org/1999/xlink" width="28" height="28" viewBox="0 0 28 28">
  <defs>
    <style>
      .cls-1, .cls-7 {
        fill: none;
      }

      .cls-2 {
        clip-path: url(#clip-path);
      }

      .cls-3 {
        fill: #fddb2b;
      }

      .cls-4 {
        fill: #fff;
      }

      .cls-5 {
        opacity: 0;
      }

      .cls-6 {
        fill: #f0f;
      }

      .cls-7 {
        stroke: #000111;
        stroke-linecap: round;
        stroke-miterlimit: 10;
        stroke-width: 1.5px;
      }

      .cls-8 {
        font-size: 9.95px;
        font-family: MoebiusKorea-Bold, Moebius Korea;
        font-weight: 700;
      }
    </style>
    <clipPath id="clip-path">
      <rect id="사각형_239124" data-name="사각형 239124" class="cls-1" width="28" height="28"/>
    </clipPath>
  </defs>
  <g id="_1:1문의_28x28" data-name="1:1문의_28x28" transform="translate(14 14)">
    <g id="그룹_309270" data-name="그룹 309270" class="cls-2" transform="translate(-14 -14)">
      <rect id="사각형_239119" data-name="사각형 239119" class="cls-3" width="28" height="28"/>
      <g id="그룹_309268" data-name="그룹 309268" class="cls-2">
        <path id="패스_638126" data-name="패스 638126" class="cls-4" d="M8.2,24.7A11.6,11.6,0,0,0,20.6,26l3.8,1a.5.5,0,0,0,.7-.6l-.7-3.5A11.5,11.5,0,1,0,8.2,24.7"/>
        <g id="그룹_309267" data-name="그룹 309267" class="cls-5">
          <g id="그룹_309266" data-name="그룹 309266" class="cls-2">
            <rect id="사각형_239120" data-name="사각형 239120" class="cls-6" width="28" height="28"/>
          </g>
        </g>
        <path id="패스_638127" data-name="패스 638127" class="cls-7" d="M23.6,25.4l-.8-4.3a11.5,11.5,0,1,0-3.9,3.1l4.7,1.2"/>
      </g>
      <text id="_1" data-name="1" class="cls-8" transform="translate(6.2 17.9)"><tspan x="0" y="0">1</tspan></text>
      <text id="_1-2" data-name="1" class="cls-8" transform="translate(15.5 17.9)"><tspan x="0" y="0">1</tspan></text>
      <g id="그룹_309269" data-name="그룹 309269" class="cls-2">
        <path id="패스_638128" data-name="패스 638128" d="M14.6,12.6a.9.9,0,1,1-.9-.9.9.9,0,0,1,.9.9"/>
        <path id="패스_638129" data-name="패스 638129" d="M14.6,15.8a.9.9,0,1,1-.9-.9.9.9,0,0,1,.9.9"/>
      </g>
    </g>
  </g>
</svg>
