<svg xmlns="http://www.w3.org/2000/svg" xmlns:xlink="http://www.w3.org/1999/xlink" width="100" height="100" viewBox="0 0 100 100">
  <defs>
    <clipPath id="clip-path">
      <rect id="사각형_59828" data-name="사각형 59828" width="100" height="100" transform="translate(138 80)" fill="#d5d5d5"/>
    </clipPath>
    <clipPath id="clip-path-2">
      <rect id="사각형_251754" data-name="사각형 251754" width="100" height="100" fill="none"/>
    </clipPath>
    <clipPath id="clip-path-5">
      <rect id="사각형_251748" data-name="사각형 251748" width="20.438" height="12.417" fill="none"/>
    </clipPath>
    <clipPath id="clip-path-6">
      <rect id="사각형_251749" data-name="사각형 251749" width="43.042" height="34.652" fill="none"/>
    </clipPath>
    <clipPath id="clip-path-7">
      <rect id="사각형_251751" data-name="사각형 251751" width="22.708" height="38.3" fill="none"/>
    </clipPath>
    <clipPath id="clip-path-9">
      <rect id="사각형_251752" data-name="사각형 251752" width="16.5" height="9.919" fill="none"/>
    </clipPath>
  </defs>
  <g id="마스크_그룹_384" data-name="마스크 그룹 384" transform="translate(-138 -80)" clip-path="url(#clip-path)">
    <g id="null_100x100" transform="translate(188 130)">
      <g id="그룹_333046" data-name="그룹 333046" transform="translate(-50 -50)" style="isolation: isolate">
        <g id="Layer_1" data-name="Layer 1">
          <g id="그룹_333045" data-name="그룹 333045" clip-path="url(#clip-path-2)">
            <g id="그룹_333035" data-name="그룹 333035" clip-path="url(#clip-path-2)">
              <path id="패스_675963" data-name="패스 675963" d="M50,0A50,50,0,1,1,0,50,50.013,50.013,0,0,1,50,0" fill="#f9f9f9"/>
              <path id="패스_675964" data-name="패스 675964" d="M50,100a50,50,0,1,1,50-50,50.066,50.066,0,0,1-50,50M50,1A49,49,0,1,0,99,50,49.053,49.053,0,0,0,50,1" fill="#f0f0f0"/>
            </g>
            <g id="그룹_333044" data-name="그룹 333044" clip-path="url(#clip-path-2)">
              <g id="그룹_333037" data-name="그룹 333037" transform="translate(19.229 65.146)" opacity="0.15">
                <g id="그룹_333036" data-name="그룹 333036" clip-path="url(#clip-path-5)">
                  <path id="패스_675965" data-name="패스 675965" d="M112.386,319.5l-9.625,5.563a.729.729,0,0,1-.729,0l-9.375-5.417a.729.729,0,0,1,0-1.25l9.625-5.562a.729.729,0,0,1,.729,0l9.375,5.417a.729.729,0,0,1,0,1.25" transform="translate(-92.302 -312.725)" fill="#222"/>
                </g>
              </g>
              <g id="그룹_333039" data-name="그룹 333039" transform="translate(41.688 45.271)" opacity="0.15">
                <g id="그룹_333038" data-name="그룹 333038" clip-path="url(#clip-path-6)">
                  <path id="패스_675966" data-name="패스 675966" d="M226.35,217.3l16.417,8.9a.729.729,0,0,1,.021,1.271L200.1,251.946" transform="translate(-200.1 -217.3)"/>
                </g>
              </g>
              <path id="패스_675967" data-name="패스 675967" d="M127.425,230.4l4.188,2.1a.958.958,0,0,1,.333,1.479c-11.583,12.792-25.083,20.625-40.125,28.563l-9.583-5.521-9.354-5.4L63.3,246.108l8.021-3.042" transform="translate(-50.113 -182.4)" fill="#fff"/>
              <path id="패스_675968" data-name="패스 675968" d="M127.425,230.4l4.188,2.1a.958.958,0,0,1,.333,1.479c-11.583,12.792-25.083,20.625-40.125,28.563l-9.583-5.521-9.354-5.4L63.3,246.108l8.021-3.042" transform="translate(-50.113 -182.4)" fill="none" stroke="#222" stroke-linejoin="round" stroke-width="0.833"/>
              <path id="패스_675969" data-name="패스 675969" d="M108.342,159.3l4.583,2.646.458.271,8.042,4.646.875.5,8.354,4.833a1.354,1.354,0,0,1,.458,1.9c-9.875,15.313-24.292,23.1-39.292,31.021l-9.583-5.521-9.354-5.4L63.3,188.675c15.833-5.854,28.854-13.792,36.521-25.6" transform="translate(-50.113 -126.113)" fill="#fff"/>
              <path id="패스_675970" data-name="패스 675970" d="M108.342,159.3l4.583,2.646.458.271,8.042,4.646.875.5,8.354,4.833a1.354,1.354,0,0,1,.458,1.9c-9.875,15.313-24.292,23.1-39.292,31.021l-9.583-5.521-9.354-5.4L63.3,188.675c15.833-5.854,28.854-13.792,36.521-25.6" transform="translate(-50.113 -126.113)" fill="none" stroke="#222" stroke-linejoin="round" stroke-width="0.833"/>
              <path id="패스_675971" data-name="패스 675971" d="M93.009,351.2a4.823,4.823,0,0,1-3.292-.958c-.812-.687-.75-.958-.646-1.458s.542-.854,1.229-1.062h.063l1.188-.083,4.917-.937.125.6-4.937.938h-.042l-1.167.083a1.007,1.007,0,0,0-.75.6.992.992,0,0,0,.438.875,4.192,4.192,0,0,0,3.375.708l.542-.5h.042l4.458-2.125.292.542-4.437,2.083-.562.521-.083.042a3.711,3.711,0,0,1-.771.146" transform="translate(-70.468 -274.471)" fill="#222"/>
              <path id="패스_675972" data-name="패스 675972" d="M124.527,347.206c.021.146-.083.208-.187.167a.458.458,0,0,1-.25-.354c-.021-.146.083-.208.188-.167a.458.458,0,0,1,.25.354" transform="translate(-98.236 -274.581)" fill="#222"/>
              <path id="패스_675973" data-name="패스 675973" d="M134.927,352.606c.021.146-.083.208-.187.167a.458.458,0,0,1-.25-.354c-.021-.146.083-.208.188-.167a.458.458,0,0,1,.25.354" transform="translate(-106.469 -278.856)" fill="#222"/>
              <line id="선_91270" data-name="선 91270" y1="1.708" x2="3.104" transform="translate(28.958 74.646)" fill="#fff"/>
              <line id="선_91271" data-name="선 91271" y1="1.708" x2="3.104" transform="translate(28.958 74.646)" fill="none" stroke="#222" stroke-linejoin="round" stroke-width="0.833"/>
              <path id="패스_675974" data-name="패스 675974" d="M92.8,312.6l8.625,2.333,8.292,4.313-7.292-1.083v5.667L92.8,318.267V312.6l9.625,5.563" transform="translate(-73.467 -247.475)" fill="#fff"/>
              <path id="패스_675975" data-name="패스 675975" d="M92.8,312.6l8.625,2.333,8.292,4.313-7.292-1.083v5.667L92.8,318.267V312.6l9.625,5.563" transform="translate(-73.467 -247.475)" fill="none" stroke="#222" stroke-linejoin="round" stroke-width="0.833"/>
              <path id="패스_675976" data-name="패스 675976" d="M146.612,340.879l-3.75.542a2,2,0,0,0-1.687,1.5l.792.875s-2.6,1.292-2.625,1.208-.042-5.6-.042-5.6Z" transform="translate(-110.279 -268.692)" fill="#222"/>
              <path id="패스_675977" data-name="패스 675977" d="M143.753,318.906l-7.354-3.812h0a.583.583,0,0,0-.521.083,1.729,1.729,0,0,0-.792,1.354.542.542,0,0,0,.25.521h.021l7.1,3.688" transform="translate(-106.941 -249.427)" fill="#fff"/>
              <path id="패스_675978" data-name="패스 675978" d="M143.753,318.906l-7.354-3.812h0a.583.583,0,0,0-.521.083,1.729,1.729,0,0,0-.792,1.354.542.542,0,0,0,.25.521h.021l7.1,3.688" transform="translate(-106.941 -249.427)" fill="none" stroke="#222" stroke-linejoin="round" stroke-width="0.833"/>
              <path id="패스_675979" data-name="패스 675979" d="M171.683,333.756a1.729,1.729,0,0,1-.792,1.354c-.437.25-.792.042-.792-.458a1.729,1.729,0,0,1,.792-1.354c.438-.25.792-.042.792.458" transform="translate(-134.662 -263.777)" fill="#fff"/>
              <path id="패스_675980" data-name="패스 675980" d="M171.683,333.756a1.729,1.729,0,0,1-.792,1.354c-.437.25-.792.042-.792-.458a1.729,1.729,0,0,1,.792-1.354C171.329,333.047,171.683,333.256,171.683,333.756Z" transform="translate(-134.662 -263.777)" fill="none" stroke="#222" stroke-linejoin="round" stroke-width="0.833"/>
              <path id="패스_675981" data-name="패스 675981" d="M145.183,301.273l.479-4.812c.292-.25.479-.312.479-.917a3.771,3.771,0,0,0-1.771-3.125c-.979-.562-1.771-.208-1.771,1.083a2.889,2.889,0,0,0,.479,1.479l.479,5.375" transform="translate(-112.892 -231.294)" fill="none" stroke="#222" stroke-linejoin="round" stroke-width="0.833"/>
              <g id="그룹_333041" data-name="그룹 333041" transform="translate(36.167 14)" clip-path="url(#clip-path-7)">
                <g id="그룹_333040" data-name="그룹 333040" clip-path="url(#clip-path-7)">
                  <path id="패스_675982" data-name="패스 675982" d="M176.742,142.883a1.229,1.229,0,0,1-.646-.167,1.724,1.724,0,0,1-.708-1.6V125.32a.313.313,0,0,1,.167-.271l3.979-2.292.167-.042.167.042a.312.312,0,0,1,.167.271V138.8a4.188,4.188,0,0,1-1.312,3.042,3.813,3.813,0,0,1-.854.708,2.208,2.208,0,0,1-1.1.354m-.146-22.042a1.458,1.458,0,0,1-.6-.125,1.586,1.586,0,0,1-.812-1.6,4.271,4.271,0,0,1,.688-2.271,4.833,4.833,0,0,1,1.667-1.667,2.542,2.542,0,0,1,1.25-.4,1.5,1.5,0,0,1,.625.125,1.593,1.593,0,0,1,.833,1.646,4.146,4.146,0,0,1-.708,2.229,4.938,4.938,0,0,1-1.687,1.667,2.562,2.562,0,0,1-1.25.4" transform="translate(-174.867 -104.883)" fill="#fff"/>
                  <path id="패스_675983" data-name="패스 675983" d="M177.437,113.824a1.188,1.188,0,0,1,.479.1q.646.292.646,1.354a3.812,3.812,0,0,1-.646,2.063,4.6,4.6,0,0,1-1.583,1.563,2.25,2.25,0,0,1-1.1.354,1.146,1.146,0,0,1-.479-.1,1.284,1.284,0,0,1-.646-1.312,3.938,3.938,0,0,1,.646-2.1,4.521,4.521,0,0,1,1.563-1.562,2.229,2.229,0,0,1,1.1-.354m.917,7.938v15.771a3.875,3.875,0,0,1-1.208,2.813,3.5,3.5,0,0,1-.792.646,1.938,1.938,0,0,1-.938.312.917.917,0,0,1-.479-.125,1.445,1.445,0,0,1-.542-1.333V124.053l3.979-2.292m-.917-8.562h0a2.854,2.854,0,0,0-1.417.438,5.146,5.146,0,0,0-1.771,1.771,4.583,4.583,0,0,0-.75,2.438,1.861,1.861,0,0,0,1,1.9,1.771,1.771,0,0,0,.729.146,2.833,2.833,0,0,0,1.417-.437,5.25,5.25,0,0,0,1.792-1.771,4.458,4.458,0,0,0,.75-2.4,1.9,1.9,0,0,0-1.021-1.937,1.813,1.813,0,0,0-.75-.146m.917,7.937a.625.625,0,0,0-.312.083l-3.979,2.292a.625.625,0,0,0-.312.542v15.771a2.022,2.022,0,0,0,.854,1.875,1.542,1.542,0,0,0,.813.229,2.521,2.521,0,0,0,1.25-.4,4.145,4.145,0,0,0,.938-.75,4.5,4.5,0,0,0,1.4-3.25V121.761a.625.625,0,0,0-.625-.625" transform="translate(-173.521 -103.615)" fill="#222"/>
                  <path id="패스_675984" data-name="패스 675984" d="M210.8,100.717a3.333,3.333,0,0,1-1.792-.5c-1.4-.9-2.1-2.9-2.1-5.979a17.125,17.125,0,0,1,2.187-8.458,14.568,14.568,0,0,1,5.4-5.6,6.624,6.624,0,0,1,3.229-1.042V71.4a.312.312,0,0,1,.167-.271l3.979-2.292.167-.042.167.042a.313.313,0,0,1,.167.271V92.071a4.25,4.25,0,0,1-2.146,4,2.458,2.458,0,0,1-1.187.4,1.063,1.063,0,0,1-.979-.6,2.167,2.167,0,0,1-.208-.667c-.021,1.167-.771,2.333-2.208,3.479a8.792,8.792,0,0,1-1.167.813,7.636,7.636,0,0,1-3.646,1.208m5.9-17.083-.4.042a4.042,4.042,0,0,0-1.125.479A6.988,6.988,0,0,0,212,88.946a12.9,12.9,0,0,0-.271,2.792c0,1.708.271,2.833.813,3.354a1.187,1.187,0,0,0,.854.354,2.458,2.458,0,0,0,1.188-.4l.688-.458.708-.479a1.917,1.917,0,0,1,.938-.312.894.894,0,0,1,.875.792V85.508c0-1.9-.771-1.9-1.042-1.9" transform="translate(-199.962 -68.467)" fill="#fff"/>
                  <path id="패스_675985" data-name="패스 675985" d="M220.757,67.825V90.8a3.949,3.949,0,0,1-1.979,3.729,2.187,2.187,0,0,1-1.042.354q-.937,0-.937-1.75v-8.9q0-2.208-1.354-2.208l-.479.063a4.334,4.334,0,0,0-1.208.5,7.275,7.275,0,0,0-3.333,5,13.146,13.146,0,0,0-.292,2.854q0,2.687.917,3.583a1.5,1.5,0,0,0,1.083.438,2.75,2.75,0,0,0,1.333-.437l.708-.479.688-.458a1.646,1.646,0,0,1,.771-.271q.6,0,.6,1.063,0,1.625-2.083,3.292a8.438,8.438,0,0,1-1.125.792,7.18,7.18,0,0,1-3.479,1.167,3.021,3.021,0,0,1-1.625-.437q-1.958-1.25-1.958-5.729a16.729,16.729,0,0,1,2.125-8.312,14.262,14.262,0,0,1,5.292-5.479,6.328,6.328,0,0,1,3.083-1h.292V70.137l3.979-2.292m0-.625a.625.625,0,0,0-.312.083L216.445,69.6a.625.625,0,0,0-.312.542v7.417a7.569,7.569,0,0,0-3.083,1.063,15.075,15.075,0,0,0-5.521,5.729,17.438,17.438,0,0,0-2.229,8.625c0,3.25.729,5.292,2.25,6.25a3.646,3.646,0,0,0,1.958.542,7.774,7.774,0,0,0,3.792-1.25,9.106,9.106,0,0,0,1.208-.833,6.342,6.342,0,0,0,2.125-2.646,1.292,1.292,0,0,0,1.083.5,2.75,2.75,0,0,0,1.354-.438,4.57,4.57,0,0,0,2.292-4.271v-23a.625.625,0,0,0-.625-.625m-8.6,26.646a.875.875,0,0,1-.646-.271c-.333-.312-.729-1.125-.729-3.125a12.6,12.6,0,0,1,.271-2.729,6.579,6.579,0,0,1,3.042-4.6,3.75,3.75,0,0,1,1.042-.438l.333-.042c.208,0,.729,0,.729,1.583v8.125a1.208,1.208,0,0,0-.562-.125,2.208,2.208,0,0,0-1.083.354l-.729.5-.646.438a2.167,2.167,0,0,1-1.021.354" transform="translate(-198.695 -67.2)" fill="#222"/>
                </g>
              </g>
              <g id="그룹_333043" data-name="그룹 333043" transform="translate(41.813 51.771)" opacity="0.15">
                <g id="그룹_333042" data-name="그룹 333042" clip-path="url(#clip-path-9)">
                  <path id="패스_675986" data-name="패스 675986" d="M201.042,256.5a52,52,0,0,0,12.5-7.708,2.428,2.428,0,0,1,2.146.021l.958.458c.646.354.729.9.188,1.229-4.292,3.75-8.479,6.438-12.5,7.708a2.428,2.428,0,0,1-2.146-.021l-.958-.458c-.646-.354-.729-.9-.187-1.229" transform="translate(-200.688 -248.539)"/>
                </g>
              </g>
              <path id="패스_675987" data-name="패스 675987" d="M278.629,70.2l2.021.854L278.4,72.1Z" transform="translate(-220.4 -55.575)" fill="#fff"/>
              <path id="패스_675988" data-name="패스 675988" d="M253.846,190.467l.125-.167h.125l1.667.792-1.625.75-.438-.729Z" transform="translate(-200.846 -150.654)" fill="#fff"/>
              <path id="패스_675989" data-name="패스 675989" d="M187.663,148a1.229,1.229,0,0,1-.646-.167,1.724,1.724,0,0,1-.708-1.6V130.462a.312.312,0,0,1,.167-.271l3.979-2.292.167-.042.167.042a.312.312,0,0,1,.167.271v15.771a4.187,4.187,0,0,1-1.312,3.042,3.812,3.812,0,0,1-.854.708,2.208,2.208,0,0,1-1.1.354m-.167-22.083a1.458,1.458,0,0,1-.6-.125,1.586,1.586,0,0,1-.812-1.6,4.271,4.271,0,0,1,.688-2.271,4.833,4.833,0,0,1,1.667-1.667,2.542,2.542,0,0,1,1.25-.4,1.5,1.5,0,0,1,.625.125,1.593,1.593,0,0,1,.833,1.646,4.146,4.146,0,0,1-.708,2.229,4.937,4.937,0,0,1-1.687,1.667,2.562,2.562,0,0,1-1.25.4" transform="translate(-147.329 -94.92)" fill="#3982f7"/>
              <path id="패스_675990" data-name="패스 675990" d="M188.437,119.1a1.187,1.187,0,0,1,.479.1q.646.292.646,1.354a3.812,3.812,0,0,1-.646,2.063,4.6,4.6,0,0,1-1.583,1.563,2.25,2.25,0,0,1-1.1.354,1.146,1.146,0,0,1-.479-.1,1.284,1.284,0,0,1-.646-1.312,3.938,3.938,0,0,1,.646-2.1,4.521,4.521,0,0,1,1.563-1.562,2.229,2.229,0,0,1,1.1-.354m.917,7.937v15.771a3.875,3.875,0,0,1-1.208,2.813,3.521,3.521,0,0,1-.792.646,1.938,1.938,0,0,1-.937.313.917.917,0,0,1-.479-.125,1.445,1.445,0,0,1-.542-1.333V129.353l3.979-2.292m-.917-8.562h0a2.854,2.854,0,0,0-1.417.438,5.146,5.146,0,0,0-1.771,1.771,4.583,4.583,0,0,0-.75,2.438,1.861,1.861,0,0,0,1,1.9,1.771,1.771,0,0,0,.729.146,2.833,2.833,0,0,0,1.417-.437,5.25,5.25,0,0,0,1.792-1.771,4.458,4.458,0,0,0,.75-2.4,1.9,1.9,0,0,0-1.021-1.937,1.833,1.833,0,0,0-.75-.146m.917,7.938a.625.625,0,0,0-.312.083l-3.979,2.292a.625.625,0,0,0-.312.542v15.771a2.022,2.022,0,0,0,.854,1.875,1.542,1.542,0,0,0,.813.229,2.521,2.521,0,0,0,1.25-.4,4.146,4.146,0,0,0,.938-.75,4.5,4.5,0,0,0,1.4-3.25V127.041a.625.625,0,0,0-.625-.625" transform="translate(-146.062 -93.811)" fill="#222"/>
              <path id="패스_675991" data-name="패스 675991" d="M221.8,105.917a3.333,3.333,0,0,1-1.792-.5c-1.4-.9-2.1-2.9-2.1-5.979a17.125,17.125,0,0,1,2.188-8.458,14.568,14.568,0,0,1,5.4-5.6,6.624,6.624,0,0,1,3.229-1.042V76.6a.313.313,0,0,1,.167-.271l3.979-2.292.167-.042.167.042a.313.313,0,0,1,.167.271V97.292a4.25,4.25,0,0,1-2.146,4,2.458,2.458,0,0,1-1.188.4,1.063,1.063,0,0,1-.979-.6,2.167,2.167,0,0,1-.208-.667c-.021,1.167-.771,2.333-2.208,3.479a8.792,8.792,0,0,1-1.167.813,7.636,7.636,0,0,1-3.646,1.208m5.9-17.1-.4.042a4.041,4.041,0,0,0-1.125.479A6.988,6.988,0,0,0,223,94.146a12.9,12.9,0,0,0-.271,2.792c0,1.708.271,2.833.812,3.354a1.188,1.188,0,0,0,.854.354,2.458,2.458,0,0,0,1.188-.4l.687-.458.708-.479A1.917,1.917,0,0,1,227.92,99a.894.894,0,0,1,.875.792V90.708c0-1.9-.771-1.9-1.042-1.9" transform="translate(-172.503 -58.583)" fill="#3982f7"/>
              <path id="패스_675992" data-name="패스 675992" d="M231.837,73.125V96.1a3.949,3.949,0,0,1-1.979,3.729,2.188,2.188,0,0,1-1.042.354q-.937,0-.937-1.75V89.521q0-2.208-1.354-2.208l-.479.063a4.313,4.313,0,0,0-1.208.5,7.275,7.275,0,0,0-3.333,5,13.145,13.145,0,0,0-.292,2.854q0,2.688.917,3.583a1.5,1.5,0,0,0,1.083.438,2.75,2.75,0,0,0,1.333-.438l.708-.479.688-.458a1.646,1.646,0,0,1,.771-.271q.6,0,.6,1.063,0,1.625-2.083,3.292a8.459,8.459,0,0,1-1.125.792,7.18,7.18,0,0,1-3.479,1.167,3.021,3.021,0,0,1-1.625-.437q-1.958-1.25-1.958-5.729a16.729,16.729,0,0,1,2.146-8.312,14.262,14.262,0,0,1,5.292-5.479,6.328,6.328,0,0,1,3.083-1h.292V75.417l3.979-2.292m0-.625a.625.625,0,0,0-.312.083l-3.979,2.292a.625.625,0,0,0-.312.542v7.417a7.569,7.569,0,0,0-3.083,1.063,15.075,15.075,0,0,0-5.521,5.729A17.438,17.438,0,0,0,216.4,98.25c0,3.25.729,5.292,2.25,6.25a3.646,3.646,0,0,0,1.958.542,7.774,7.774,0,0,0,3.792-1.25,9.1,9.1,0,0,0,1.208-.833,6.342,6.342,0,0,0,2.125-2.646,1.292,1.292,0,0,0,1.083.5,2.75,2.75,0,0,0,1.354-.437,4.57,4.57,0,0,0,2.292-4.271V73.125a.625.625,0,0,0-.625-.625m-8.625,26.646a.875.875,0,0,1-.646-.271c-.333-.312-.729-1.125-.729-3.125a12.582,12.582,0,0,1,.271-2.729,6.579,6.579,0,0,1,3.042-4.6,3.729,3.729,0,0,1,1.042-.437l.333-.042c.208,0,.729,0,.729,1.583v8.125a1.208,1.208,0,0,0-.563-.125,2.208,2.208,0,0,0-1.083.354l-.729.5-.646.438a2.167,2.167,0,0,1-1.021.354" transform="translate(-171.316 -57.396)" fill="#222"/>
              <line id="선_91272" data-name="선 91272" x2="2.292" y2="1.083" transform="translate(58.333 14.333)" fill="#3982f7"/>
              <line id="선_91273" data-name="선 91273" x2="2.292" y2="1.083" transform="translate(58.333 14.333)" fill="none" stroke="#222" stroke-linejoin="round" stroke-width="0.625"/>
              <line id="선_91274" data-name="선 91274" x2="2.292" y2="1.083" transform="translate(53.937 16.792)" fill="#3982f7"/>
              <line id="선_91275" data-name="선 91275" x2="2.292" y2="1.083" transform="translate(53.937 16.792)" fill="none" stroke="#222" stroke-linejoin="round" stroke-width="0.625"/>
              <line id="선_91276" data-name="선 91276" x2="2.292" y2="1.083" transform="translate(53.75 24.563)" fill="#3982f7"/>
              <line id="선_91277" data-name="선 91277" x2="2.292" y2="1.083" transform="translate(53.75 24.563)" fill="none" stroke="#222" stroke-linejoin="round" stroke-width="0.625"/>
              <line id="선_91278" data-name="선 91278" x2="2.313" y2="1.104" transform="translate(45.292 45.833)" fill="#3982f7"/>
              <line id="선_91279" data-name="선 91279" x2="2.313" y2="1.104" transform="translate(45.292 45.833)" fill="none" stroke="#222" stroke-linejoin="round" stroke-width="0.625"/>
              <line id="선_91280" data-name="선 91280" x2="2.292" y2="1.083" transform="translate(53.292 39.333)" fill="#3982f7"/>
              <line id="선_91281" data-name="선 91281" x2="2.292" y2="1.083" transform="translate(53.292 39.333)" fill="none" stroke="#222" stroke-linejoin="round" stroke-width="0.625"/>
              <line id="선_91282" data-name="선 91282" x2="2.292" y2="1.083" transform="translate(40.625 23.958)" fill="#3982f7"/>
              <line id="선_91283" data-name="선 91283" x2="2.292" y2="1.083" transform="translate(40.625 23.958)" fill="none" stroke="#222" stroke-linejoin="round" stroke-width="0.625"/>
              <line id="선_91284" data-name="선 91284" x2="2.292" y2="1.083" transform="translate(37.083 29.729)" fill="#3982f7"/>
              <line id="선_91285" data-name="선 91285" x2="2.292" y2="1.083" transform="translate(37.083 29.729)" fill="none" stroke="#222" stroke-linejoin="round" stroke-width="0.625"/>
              <line id="선_91286" data-name="선 91286" x2="2.292" y2="1.083" transform="translate(41.104 31.833)" fill="#3982f7"/>
              <line id="선_91287" data-name="선 91287" x2="2.292" y2="1.083" transform="translate(41.104 31.833)" fill="none" stroke="#222" stroke-linejoin="round" stroke-width="0.625"/>
              <line id="선_91288" data-name="선 91288" x2="2.292" y2="1.104" transform="translate(36.708 34.292)" fill="#3982f7"/>
              <line id="선_91289" data-name="선 91289" x2="2.292" y2="1.104" transform="translate(36.708 34.292)" fill="none" stroke="#222" stroke-linejoin="round" stroke-width="0.625"/>
              <line id="선_91290" data-name="선 91290" x2="2.292" y2="1.104" transform="translate(37.375 51.833)" fill="#3982f7"/>
              <line id="선_91291" data-name="선 91291" x2="2.292" y2="1.104" transform="translate(37.375 51.833)" fill="none" stroke="#222" stroke-linejoin="round" stroke-width="0.625"/>
              <path id="패스_675993" data-name="패스 675993" d="M196.246,154.3l1.6.75-1.75,1.042Z" transform="translate(-155.246 -122.154)" fill="#fff"/>
            </g>
          </g>
        </g>
      </g>
    </g>
  </g>
</svg>
