<svg xmlns="http://www.w3.org/2000/svg" width="92.415" height="108.822"><defs><clipPath id="a"><circle data-name="타원 9724" cx="26.746" cy="26.746" transform="translate(5.609 -7)" fill="#111" r="26.746"/></clipPath><clipPath id="b"><path data-name="사각형 312080" fill="none" d="M0 0h86.496v86.496H0z"/></clipPath><clipPath id="c"><path data-name="사각형 312066" fill="none" d="M0 0h12.218v6.31H0z"/></clipPath><clipPath id="d"><path data-name="사각형 312067" fill="none" d="M0 0h12.693v6.308H0z"/></clipPath><clipPath id="e"><path data-name="사각형 312068" fill="none" d="M0 0h8.931v25.071H0z"/></clipPath><clipPath id="f"><path data-name="사각형 312069" fill="none" d="M0 0h1.233v2.167H0z"/></clipPath><clipPath id="g"><path data-name="사각형 312070" fill="none" d="M0 0h4v3.531H0z"/></clipPath><clipPath id="h"><path data-name="사각형 312071" fill="none" d="M0 0h3.784v1.429H0z"/></clipPath><clipPath id="i"><path data-name="사각형 312072" fill="none" d="M0 0h3.092v3.103H0z"/></clipPath><clipPath id="j"><path data-name="사각형 312075" fill="none" d="M0 0h3.59v4.394H0z"/></clipPath><clipPath id="k"><path data-name="사각형 312076" fill="none" d="M0 0h3.979v4.524H0z"/></clipPath><clipPath id="l"><path data-name="사각형 312077" fill="none" d="M0 0h2.357v4.169H0z"/></clipPath><clipPath id="m"><path data-name="사각형 312078" fill="none" d="M0 0h5.579v33.76H0z"/></clipPath></defs><g data-name="그룹 419863"><g transform="translate(-5.609 7)"><circle data-name="타원 7390" cx="26.746" cy="26.746" transform="translate(5.609 -7)" fill="#111" r="26.746"/><g data-name="마스크 그룹 359636"><g data-name="그룹 16287" fill="#fff" clip-path="url(#a)"><path data-name="패스 34865" d="M32.578 3.179l.525.177a.143.143 0 00.181-.181l-.177-.524a.143.143 0 01.021-.131l.332-.444a.142.142 0 00-.116-.227l-.554.008a.142.142 0 01-.118-.06l-.32-.452a.143.143 0 00-.253.04l-.165.529a.145.145 0 01-.094.094l-.53.165a.142.142 0 00-.04.252l.452.319a.142.142 0 01.06.118l-.008.554a.143.143 0 00.228.116l.445-.332a.143.143 0 01.131-.021z"/><path data-name="패스 34866" d="M61.926 17.026l-.332-.046a.085.085 0 01-.065-.047l-.15-.3a.086.086 0 00-.155 0l-.147.3a.089.089 0 01-.065.048l-.332.051a.086.086 0 00-.047.148l.241.232a.086.086 0 01.025.076l-.055.331a.086.086 0 00.125.09l.3-.159a.087.087 0 01.08 0l.3.154a.087.087 0 00.125-.092l-.059-.331a.088.088 0 01.024-.077l.239-.236a.086.086 0 00-.052-.142z"/><path data-name="패스 34867" d="M79.768 58.612l-.151-.3a.086.086 0 00-.155 0l-.146.3a.088.088 0 01-.065.048l-.332.051a.086.086 0 00-.047.147l.241.232a.088.088 0 01.025.076l-.054.332a.086.086 0 00.125.09l.3-.159a.086.086 0 01.081 0l.3.153a.087.087 0 00.125-.092l-.059-.331a.086.086 0 01.024-.077l.24-.236a.086.086 0 00-.049-.146l-.332-.046a.084.084 0 01-.071-.042z"/><path data-name="패스 34868" d="M36.941 13.738l-.245.5a.144.144 0 01-.108.079l-.55.081a.144.144 0 00-.08.245l.4.389a.144.144 0 01.041.127l-.093.55a.143.143 0 00.207.151l.492-.26a.142.142 0 01.134 0l.493.259a.143.143 0 00.207-.152l-.095-.549a.144.144 0 01.041-.127l.4-.39a.143.143 0 00-.08-.244l-.551-.08a.144.144 0 01-.108-.078l-.247-.5a.143.143 0 00-.258-.001z"/><path data-name="패스 34869" d="M90.459 34.84l-.551-.079a.145.145 0 01-.108-.079l-.247-.5a.142.142 0 00-.256 0l-.245.5a.145.145 0 01-.108.079l-.55.081a.144.144 0 00-.08.245l.4.389a.146.146 0 01.042.127l-.094.55a.143.143 0 00.208.151l.492-.26a.142.142 0 01.133 0l.493.259a.143.143 0 00.208-.152l-.095-.549a.14.14 0 01.041-.127l.4-.39a.144.144 0 00-.083-.245z"/><path data-name="패스 34870" d="M75.205 75.833l-.524-.079a.136.136 0 01-.1-.079l-.235-.5a.133.133 0 00-.244 0l-.234.5a.137.137 0 01-.1.078l-.524.081a.146.146 0 00-.075.245l.379.389a.148.148 0 01.04.127l-.089.55a.138.138 0 00.2.151l.467-.26a.132.132 0 01.127 0l.469.259a.138.138 0 00.2-.151l-.09-.55a.148.148 0 01.039-.127l.378-.39a.146.146 0 00-.084-.244z"/><path data-name="패스 34871" d="M8.749 31.748l-.551-.079a.144.144 0 01-.108-.079l-.247-.5a.143.143 0 00-.257 0l-.245.5a.146.146 0 01-.108.079l-.55.081a.144.144 0 00-.079.245l.4.388a.144.144 0 01.042.127l-.093.55a.143.143 0 00.208.151l.492-.26a.14.14 0 01.133 0l.493.259a.143.143 0 00.207-.152l-.095-.549a.143.143 0 01.041-.127l.4-.39a.144.144 0 00-.083-.244z"/><path data-name="패스 34872" d="M76.062 9.629l-.221-.032a.057.057 0 01-.044-.031l-.1-.2a.058.058 0 00-.1 0l-.1.2a.058.058 0 01-.043.032l-.222.033a.057.057 0 00-.031.1l.16.156a.057.057 0 01.016.051l-.037.221a.057.057 0 00.084.061l.2-.1a.059.059 0 01.054 0l.2.1a.058.058 0 00.083-.061l-.038-.221a.056.056 0 01.016-.051l.16-.157a.058.058 0 00-.037-.101z"/><path data-name="패스 34873" d="M70.777 3.946l-.222-.032a.055.055 0 01-.043-.031l-.1-.2a.058.058 0 00-.1 0l-.1.2a.058.058 0 01-.043.032l-.221.032a.058.058 0 00-.032.1l.16.157a.058.058 0 01.017.051l-.038.221a.058.058 0 00.084.061l.2-.1a.057.057 0 01.053 0l.2.1a.058.058 0 00.084-.061l-.039-.221a.059.059 0 01.017-.051l.16-.157a.058.058 0 00-.037-.101z"/><path data-name="패스 34874" d="M87.109 26.872a.061.061 0 01.017.051l-.038.221a.057.057 0 00.083.061l.2-.1a.059.059 0 01.054 0l.2.1a.058.058 0 00.084-.061l-.038-.221a.056.056 0 01.016-.051l.16-.157a.058.058 0 00-.032-.1l-.221-.032a.058.058 0 01-.043-.031l-.1-.2a.057.057 0 00-.1 0l-.1.2a.06.06 0 01-.044.032l-.221.032a.058.058 0 00-.032.1z"/><path data-name="패스 34875" d="M55.95 77.168l-.221-.032a.057.057 0 01-.044-.031l-.1-.2a.057.057 0 00-.1 0l-.1.2a.055.055 0 01-.043.031l-.221.032a.058.058 0 00-.032.1l.16.156a.058.058 0 01.016.051l-.037.221a.058.058 0 00.083.061l.2-.1a.054.054 0 01.053 0l.2.1a.057.057 0 00.083-.061l-.038-.221a.056.056 0 01.016-.051l.16-.157a.058.058 0 00-.035-.099z"/><path data-name="패스 34876" d="M91.797 45.352a.062.062 0 00-.026-.1l-.178-.032a.051.051 0 01-.036-.031l-.079-.2a.043.043 0 00-.083 0l-.08.2a.051.051 0 01-.035.031l-.179.032a.063.063 0 00-.025.1l.129.157a.066.066 0 01.014.051l-.031.221c-.006.047.034.084.067.061l.16-.1a.038.038 0 01.042 0l.16.1c.034.022.073-.014.066-.061l-.029-.221a.064.064 0 01.014-.051z"/><path data-name="패스 34877" d="M-5.805 46.405l-.037.221a.057.057 0 00.084.061l.2-.1a.059.059 0 01.054 0l.2.1a.057.057 0 00.083-.061l-.038-.221a.058.058 0 01.016-.051l.16-.157a.058.058 0 00-.032-.1l-.222-.032a.056.056 0 01-.043-.031l-.1-.2a.057.057 0 00-.1 0l-.1.2a.059.059 0 01-.043.032l-.222.033a.057.057 0 00-.032.1l.161.156a.059.059 0 01.011.05z"/><path data-name="패스 34878" d="M69.366 68.335l-.222-.032a.057.057 0 01-.043-.031l-.1-.2a.058.058 0 00-.1 0l-.1.2a.06.06 0 01-.043.032l-.222.032a.058.058 0 00-.032.1l.161.156a.057.057 0 01.017.051l-.037.221a.057.057 0 00.083.061l.2-.1a.057.057 0 01.053 0l.2.1a.058.058 0 00.084-.061l-.038-.221a.056.056 0 01.016-.051l.16-.157a.058.058 0 00-.037-.1z"/><path data-name="패스 34879" d="M42.244 7.762a.057.057 0 01.017.051l-.038.221a.057.057 0 00.083.061l.2-.1a.058.058 0 01.054 0l.2.1a.058.058 0 00.084-.061l-.038-.221a.058.058 0 01.017-.052l.16-.157a.058.058 0 00-.032-.1l-.222-.032a.057.057 0 01-.044-.031l-.1-.2a.058.058 0 00-.1 0l-.1.2a.058.058 0 01-.043.032l-.221.032a.058.058 0 00-.032.1z"/><path data-name="패스 34880" d="M76.992 25.054l-.221-.032a.058.058 0 01-.043-.031l-.1-.2a.057.057 0 00-.1 0l-.1.2a.058.058 0 01-.043.031l-.222.033a.058.058 0 00-.032.1l.161.157a.058.058 0 01.017.051l-.038.221a.058.058 0 00.083.061l.2-.1a.058.058 0 01.054 0l.2.1a.057.057 0 00.083-.061l-.038-.221a.057.057 0 01.016-.051l.16-.157a.058.058 0 00-.037-.101z"/><path data-name="패스 34881" d="M19.583 3.983l.2.1a.058.058 0 00.083-.061l-.038-.221a.057.057 0 01.016-.051l.16-.157a.058.058 0 00-.032-.1l-.222-.032a.057.057 0 01-.043-.032l-.1-.2a.058.058 0 00-.1 0l-.1.2a.057.057 0 01-.043.031l-.222.033a.058.058 0 00-.032.1l.161.156a.058.058 0 01.016.051l-.038.221a.058.058 0 00.084.061l.2-.1a.058.058 0 01.05.001z"/><path data-name="패스 34882" d="M55.517 27.607a.058.058 0 00-.032-.1l-.222-.032a.057.057 0 01-.043-.032l-.1-.2a.058.058 0 00-.1 0l-.1.2a.058.058 0 01-.043.032l-.221.032a.058.058 0 00-.032.1l.16.156a.058.058 0 01.017.051l-.038.221a.058.058 0 00.084.061l.2-.105a.059.059 0 01.054 0l.2.1a.058.058 0 00.083-.061l-.038-.221a.056.056 0 01.016-.051z"/><path data-name="패스 34883" d="M28.779 42.012l-.347-.05a.092.092 0 01-.068-.05l-.155-.314a.09.09 0 00-.162 0l-.154.315a.092.092 0 01-.068.05l-.347.051a.091.091 0 00-.05.154l.251.244a.092.092 0 01.026.08l-.059.346a.09.09 0 00.131.095l.31-.163a.089.089 0 01.084 0l.31.163a.09.09 0 00.13-.1l-.06-.346a.091.091 0 01.026-.08l.25-.245a.09.09 0 00-.048-.15z"/><path data-name="패스 34884" d="M8.597 18.704l-.222-.032a.057.057 0 01-.043-.031l-.1-.2a.057.057 0 00-.1 0l-.1.2a.058.058 0 01-.043.032l-.222.032a.058.058 0 00-.032.1l.161.156a.058.058 0 01.016.051l-.037.221a.057.057 0 00.083.061l.2-.1a.057.057 0 01.053 0l.2.1a.058.058 0 00.083-.061l-.038-.221a.059.059 0 01.016-.051l.16-.157a.058.058 0 00-.035-.1z"/><path data-name="패스 34885" d="M1.302 26.169l-.222-.032a.057.057 0 01-.044-.031l-.1-.2a.057.057 0 00-.1 0l-.1.2a.058.058 0 01-.043.031l-.222.033a.057.057 0 00-.032.1l.16.157a.058.058 0 01.017.051l-.037.221a.058.058 0 00.083.061l.2-.1a.056.056 0 01.054 0l.2.1a.058.058 0 00.083-.061l-.038-.221a.056.056 0 01.016-.051l.16-.157a.058.058 0 00-.035-.101z"/><path data-name="패스 34886" d="M58.155 58.114l-.222-.032a.058.058 0 01-.043-.032l-.1-.2a.057.057 0 00-.1 0l-.1.2a.057.057 0 01-.043.032l-.222.033a.058.058 0 00-.032.1l.161.156a.057.057 0 01.017.051l-.038.221a.058.058 0 00.083.061l.2-.1a.06.06 0 01.054 0l.2.1a.058.058 0 00.083-.061l-.038-.221a.059.059 0 01.017-.052l.16-.157a.058.058 0 00-.037-.099z"/><path data-name="패스 34887" d="M-4.226 37.792l-.222-.032a.056.056 0 01-.043-.032l-.1-.2a.058.058 0 00-.1 0l-.1.2a.058.058 0 01-.043.032l-.221.033a.058.058 0 00-.032.1l.161.156a.058.058 0 01.017.051l-.038.222a.058.058 0 00.084.06l.2-.1a.055.055 0 01.054 0l.2.1a.058.058 0 00.083-.061l-.038-.221a.059.059 0 01.016-.052l.16-.157a.058.058 0 00-.038-.099z"/><path data-name="패스 34888" d="M8.051 46.843l-.178-.033a.048.048 0 01-.035-.031l-.079-.2a.043.043 0 00-.083 0l-.08.2a.047.047 0 01-.035.031l-.178.032a.062.062 0 00-.026.1l.129.157a.067.067 0 01.013.051l-.031.222c-.006.046.033.083.067.06l.16-.1a.038.038 0 01.043 0l.159.1c.034.023.074-.013.068-.061l-.031-.221a.069.069 0 01.013-.051l.129-.156a.062.062 0 00-.025-.1z"/><path data-name="패스 34889" d="M71.676 41.874l-.222-.032a.058.058 0 01-.043-.031l-.1-.2a.058.058 0 00-.1 0l-.1.2a.061.061 0 01-.044.032l-.222.032a.058.058 0 00-.031.1l.16.156a.056.056 0 01.016.051l-.037.221a.057.057 0 00.083.061l.2-.1a.056.056 0 01.054 0l.2.1a.057.057 0 00.083-.061l-.038-.221a.057.057 0 01.017-.051l.16-.157a.058.058 0 00-.036-.1z"/><path data-name="패스 34890" d="M-3.289 54.958l-.222-.032a.056.056 0 01-.043-.031l-.1-.2a.057.057 0 00-.1 0l-.1.2a.057.057 0 01-.043.031l-.222.032a.058.058 0 00-.032.1l.161.156a.057.057 0 01.016.051l-.037.222a.057.057 0 00.084.06l.2-.1a.058.058 0 01.054 0l.2.1a.058.058 0 00.083-.061l-.038-.221a.058.058 0 01.017-.051l.16-.157a.058.058 0 00-.038-.099z"/><path data-name="패스 34891" d="M89.27 55.931l-.038-.221a.057.057 0 01.016-.051l.16-.157a.058.058 0 00-.032-.1l-.221-.032a.058.058 0 01-.043-.031l-.1-.2a.058.058 0 00-.1 0l-.1.2a.058.058 0 01-.043.031l-.221.033a.058.058 0 00-.033.1l.162.157a.058.058 0 01.016.051l-.037.221a.058.058 0 00.084.061l.2-.105a.059.059 0 01.054 0l.2.1a.058.058 0 00.076-.057z"/><path data-name="패스 34892" d="M27.694 59.452l-.222-.032a.06.06 0 01-.043-.031l-.1-.2a.057.057 0 00-.1 0l-.1.2a.059.059 0 01-.043.032l-.222.032a.058.058 0 00-.032.1l.161.156a.058.058 0 01.017.051l-.038.221a.058.058 0 00.084.061l.2-.1a.058.058 0 01.053 0l.2.1a.058.058 0 00.083-.061l-.038-.221a.06.06 0 01.017-.052l.16-.157a.057.057 0 00-.037-.099z"/><path data-name="패스 34893" d="M20.261 33.484l-.222-.032a.057.057 0 01-.043-.031l-.1-.2a.058.058 0 00-.1 0l-.1.2a.057.057 0 01-.043.032l-.221.033a.058.058 0 00-.032.1l.161.156a.057.057 0 01.017.051l-.038.222a.057.057 0 00.084.06l.2-.1a.057.057 0 01.054 0l.2.1a.058.058 0 00.083-.061l-.038-.221a.058.058 0 01.016-.051l.16-.157a.058.058 0 00-.038-.101z"/><path data-name="패스 34894" d="M83.561 42.147l-.222-.032a.058.058 0 01-.043-.031l-.1-.2a.058.058 0 00-.1 0l-.1.2a.056.056 0 01-.043.032l-.222.032a.058.058 0 00-.032.1l.161.156a.055.055 0 01.016.051l-.037.221a.058.058 0 00.083.061l.2-.1a.057.057 0 01.054 0l.2.1a.057.057 0 00.083-.061l-.038-.221a.057.057 0 01.017-.051l.159-.157a.057.057 0 00-.036-.1z"/><path data-name="패스 34895" d="M46.363 83.189l-.221-.032a.054.054 0 01-.043-.031l-.1-.2a.057.057 0 00-.1 0l-.1.2a.061.061 0 01-.044.031l-.222.033a.058.058 0 00-.032.1l.161.156a.057.057 0 01.016.051l-.037.221a.057.057 0 00.083.061l.2-.1a.057.057 0 01.054 0l.2.1a.057.057 0 00.083-.061l-.038-.221a.058.058 0 01.016-.051l.16-.157a.058.058 0 00-.036-.1z"/><path data-name="패스 34896" d="M33.557 88.003l-.222-.031a.053.053 0 01-.043-.033l-.1-.2a.057.057 0 00-.1 0l-.1.2a.057.057 0 01-.043.032l-.222.033a.058.058 0 00-.031.1l.16.156a.058.058 0 01.017.05l-.037.222a.057.057 0 00.083.06l.2-.1a.055.055 0 01.053 0l.2.1a.057.057 0 00.083-.061l-.038-.222a.055.055 0 01.016-.05l.16-.157a.058.058 0 00-.036-.099z"/><path data-name="패스 34897" d="M63.663 83.546l-.221-.032a.057.057 0 01-.043-.031l-.1-.2a.057.057 0 00-.1 0l-.1.2a.063.063 0 01-.043.032l-.221.032a.058.058 0 00-.032.1l.161.156a.06.06 0 01.017.051l-.038.222a.058.058 0 00.084.06l.2-.1a.057.057 0 01.054 0l.2.1a.058.058 0 00.084-.062l-.038-.22a.057.057 0 01.016-.051l.16-.157a.058.058 0 00-.04-.1z"/><path data-name="패스 34898" d="M33.558 73.346l-.222-.032a.058.058 0 01-.043-.031l-.1-.2a.058.058 0 00-.1 0l-.1.2a.057.057 0 01-.043.031l-.222.033a.058.058 0 00-.031.1l.161.156a.061.061 0 01.017.052l-.038.221a.058.058 0 00.084.061l.2-.1a.057.057 0 01.053 0l.2.1a.057.057 0 00.083-.061l-.038-.221a.059.059 0 01.016-.051l.16-.157a.058.058 0 00-.037-.101z"/><path data-name="패스 34899" d="M53.046 87.556l-.222-.031a.057.057 0 01-.043-.032l-.1-.2a.057.057 0 00-.1 0l-.1.2a.056.056 0 01-.043.032l-.221.033a.057.057 0 00-.032.1l.16.156a.059.059 0 01.017.051l-.038.221a.058.058 0 00.083.062l.2-.1a.054.054 0 01.053 0l.2.1a.057.057 0 00.083-.061l-.038-.221a.059.059 0 01.016-.051l.16-.157a.058.058 0 00-.035-.102z"/><path data-name="패스 34900" d="M68.901 13.062l-.221-.032a.057.057 0 01-.044-.032l-.1-.2a.057.057 0 00-.1 0l-.1.2a.059.059 0 01-.043.031l-.222.033a.058.058 0 00-.032.1l.161.156a.06.06 0 01.017.051l-.038.221a.057.057 0 00.083.061l.2-.1a.057.057 0 01.053 0l.2.1a.058.058 0 00.083-.061l-.038-.221a.057.057 0 01.016-.051l.16-.157a.057.057 0 00-.035-.099z"/><path data-name="패스 34901" d="M18.576 67.889l-.222-.032a.058.058 0 01-.043-.031l-.1-.2a.057.057 0 00-.1 0l-.1.2a.059.059 0 01-.043.032l-.222.033a.057.057 0 00-.032.1l.16.156a.057.057 0 01.017.051l-.038.222a.058.058 0 00.084.061l.2-.1a.058.058 0 01.053 0l.2.1a.057.057 0 00.083-.061l-.038-.221a.058.058 0 01.017-.051l.16-.157a.058.058 0 00-.036-.102z"/><path data-name="패스 34902" d="M30.075-.788a.057.057 0 01.016.051l-.038.221a.058.058 0 00.084.061l.2-.1a.057.057 0 01.054 0l.2.1a.058.058 0 00.083-.061l-.038-.221a.057.057 0 01.017-.051l.16-.157a.058.058 0 00-.032-.1l-.221-.032a.058.058 0 01-.044-.032l-.1-.2a.058.058 0 00-.1 0l-.1.2a.058.058 0 01-.043.032l-.222.033a.058.058 0 00-.031.1z"/><path data-name="패스 34903" d="M51.4-2.35a.058.058 0 01.016.051l-.037.221a.058.058 0 00.084.061l.2-.1a.057.057 0 01.053 0l.2.1a.057.057 0 00.083-.061l-.038-.221a.056.056 0 01.016-.051l.16-.157a.058.058 0 00-.032-.1l-.221-.032a.059.059 0 01-.044-.032l-.1-.2a.057.057 0 00-.1 0l-.1.2a.058.058 0 01-.043.032l-.221.033a.058.058 0 00-.032.1z"/><path data-name="패스 34904" d="M22.63 13.764a.059.059 0 01.017.051l-.038.221a.058.058 0 00.084.061l.2-.1a.059.059 0 01.054 0l.2.1a.058.058 0 00.083-.061l-.039-.221a.058.058 0 01.017-.051l.16-.157a.058.058 0 00-.032-.1l-.222-.032a.058.058 0 01-.043-.032l-.1-.2a.058.058 0 00-.1 0l-.1.2a.058.058 0 01-.044.032l-.221.033a.058.058 0 00-.032.1z"/><path data-name="패스 34905" d="M57.918 9.439a.057.057 0 01.017.051l-.038.221a.058.058 0 00.084.061l.2-.1a.059.059 0 01.054 0l.2.1a.058.058 0 00.084-.061l-.038-.221a.058.058 0 01.017-.051l.16-.157a.058.058 0 00-.032-.1l-.222-.032a.058.058 0 01-.043-.031l-.1-.2a.058.058 0 00-.1 0l-.1.2a.057.057 0 01-.043.031l-.221.033a.058.058 0 00-.032.1z"/><path data-name="패스 34906" d="M48.922 15.863l.145.141.015.015a.059.059 0 01.017.051l-.038.221a.058.058 0 00.084.061l.2-.1a.055.055 0 01.053 0l.2.1a.057.057 0 00.083-.061l-.038-.221a.058.058 0 01.017-.051l.159-.157a.058.058 0 00-.032-.1l-.222-.032a.059.059 0 01-.044-.031l-.1-.2a.057.057 0 00-.1 0l-.1.2a.058.058 0 01-.043.032l-.125.018-.1.014a.058.058 0 00-.031.1z"/><path data-name="패스 34907" d="M77.891 19.16l-.105-.608a.161.161 0 01.045-.141l.44-.431a.159.159 0 00-.088-.27l-.609-.088a.157.157 0 01-.119-.086l-.273-.553a.158.158 0 00-.284 0l-.272.553a.157.157 0 01-.119.087l-.608.089a.159.159 0 00-.087.271l.441.43a.159.159 0 01.046.14l-.1.608a.158.158 0 00.23.167l.544-.288a.158.158 0 01.147 0l.545.286a.158.158 0 00.226-.166z"/><path data-name="패스 34908" d="M11.655 9.628a.159.159 0 01.046.14l-.1.608a.158.158 0 00.23.167l.544-.288a.157.157 0 01.147 0l.545.286a.158.158 0 00.229-.167l-.1-.608a.158.158 0 01.045-.14l.44-.431a.159.159 0 00-.088-.27l-.609-.088a.159.159 0 01-.119-.087l-.273-.553a.158.158 0 00-.284 0l-.271.553a.158.158 0 01-.119.087l-.609.089a.159.159 0 00-.087.271z"/><path data-name="패스 34909" d="M85.1 66.402l-.609-.088a.161.161 0 01-.119-.086l-.273-.552a.158.158 0 00-.284 0l-.271.553a.158.158 0 01-.119.087l-.608.09a.159.159 0 00-.088.271l.441.43a.159.159 0 01.046.14l-.1.608a.159.159 0 00.23.167l.544-.288a.158.158 0 01.147 0l.545.286a.159.159 0 00.23-.168l-.105-.607a.158.158 0 01.045-.14l.44-.431a.159.159 0 00-.092-.272z"/><path data-name="패스 34910" d="M46.056 3.942a.158.158 0 01.046.14l-.1.608a.158.158 0 00.229.167l.544-.288a.157.157 0 01.147 0l.545.286a.158.158 0 00.229-.167l-.1-.608a.159.159 0 01.045-.14l.44-.431a.159.159 0 00-.088-.27l-.609-.088a.16.16 0 01-.12-.087l-.273-.552a.158.158 0 00-.284 0l-.271.553a.158.158 0 01-.119.087l-.609.089a.159.159 0 00-.087.271z"/><path data-name="패스 34911" d="M64.469-1.459l-.609-.088a.16.16 0 01-.12-.087l-.273-.553a.158.158 0 00-.283 0l-.272.553a.156.156 0 01-.119.087l-.609.09a.158.158 0 00-.087.27l.441.43a.161.161 0 01.045.141l-.1.608a.158.158 0 00.23.167l.544-.288a.158.158 0 01.147 0l.545.286a.158.158 0 00.229-.167l-.1-.608a.159.159 0 01.045-.14l.44-.431a.159.159 0 00-.094-.27z"/><path data-name="패스 34912" d="M9.599 65.869l-.609-.088a.158.158 0 01-.119-.087l-.273-.553a.158.158 0 00-.284 0l-.271.553a.157.157 0 01-.119.086l-.609.09a.159.159 0 00-.087.271l.441.43a.158.158 0 01.046.14l-.1.609a.158.158 0 00.23.167l.544-.288a.155.155 0 01.147 0l.545.285a.158.158 0 00.229-.167l-.105-.607a.159.159 0 01.046-.14l.44-.431a.158.158 0 00-.092-.27z"/><path data-name="패스 34913" d="M23.333 79.868l-.221-.032a.057.057 0 01-.044-.031l-.1-.2a.058.058 0 00-.1 0l-.1.2a.059.059 0 01-.043.031l-.221.032a.058.058 0 00-.032.1l.161.156a.057.057 0 01.017.051l-.037.221a.057.057 0 00.083.06l.2-.1a.055.055 0 01.054 0l.2.1a.058.058 0 00.083-.061l-.038-.22a.058.058 0 01.016-.051l.16-.157a.058.058 0 00-.038-.099z"/><path data-name="패스 34914" d="M42.483 67.445l-.222-.032a.057.057 0 01-.043-.031l-.1-.2a.058.058 0 00-.1 0l-.1.2a.059.059 0 01-.043.032l-.221.032a.058.058 0 00-.032.1l.161.156a.06.06 0 01.016.051l-.037.222a.057.057 0 00.083.06l.2-.1a.055.055 0 01.053 0l.2.1a.058.058 0 00.083-.061l-.038-.221a.055.055 0 01.016-.051l.16-.156a.058.058 0 00-.036-.101z"/></g></g><g data-name="그룹 404142" transform="translate(11.528 6.487)" clip-path="url(#b)"><g data-name="그룹 404141" clip-path="url(#b)"><g data-name="그룹 404120"><g data-name="그룹 404119" clip-path="url(#c)" transform="translate(25.17 73.479)" opacity=".2"><path data-name="패스 807541" d="M12.2 3.157c0 1.752-2.725 3.157-6.1 3.157S0 4.908 0 3.157 2.725 0 6.1 0s6.1 1.406 6.1 3.157" fill="#222"/></g></g><g data-name="그룹 404122"><g data-name="그룹 404121" clip-path="url(#d)" transform="translate(51.768 64.31)" opacity=".2"><path data-name="패스 807542" d="M12.693 3.157c0 1.752-2.833 3.157-6.357 3.157S0 4.887 0 3.157 2.833 0 6.357 0s6.357 1.406 6.357 3.157" fill="#222"/></g></g><path data-name="패스 807543" d="M61.456 35.352l-2.79-3.438h-.043l-.411.173.562-1.211-3.287-2.227c-.519 1.579.043 3.46-.195 3.179l-.843-.216a2.768 2.768 0 01-1.146-.692l-.562-.584h-.022a.454.454 0 01.151.324c0 .368-.562.67-1.276.714h-.215l.649 6.53.735 7.46h.022a4.625 4.625 0 003.438 1.406 4.679 4.679 0 003.719-1.773h.065a10.416 10.416 0 00-.151-1.968v-.043l.5.043a2.184 2.184 0 002.184-2.184v-2.444a4.844 4.844 0 00-1.081-3.049m-2.249 4.952a1.384 1.384 0 01-1.816.757h-.022l-2.811-3.481 2.357-.778 2.1 2.1a1.384 1.384 0 01.195 1.384" fill="#fff"/><path data-name="패스 807544" d="M59.207 40.304a1.384 1.384 0 01-1.816.757h-.022l-2.811-3.481 2.357-.778 2.1 2.1a1.384 1.384 0 01.195 1.384" fill="#fff"/><path data-name="패스 807545" d="M60.613 40.524l-1.687-1.687-.065-.065.065.065.086.087" fill="none" stroke="#222" stroke-linecap="round" stroke-linejoin="round" stroke-width=".541"/><path data-name="선 119836" fill="none" stroke="#222" stroke-linecap="round" stroke-linejoin="round" stroke-width=".541" d="M59.034 38.945l-.022-.022"/><path data-name="선 119837" fill="none" stroke="#222" stroke-linecap="round" stroke-linejoin="round" stroke-width=".541" d="M57.434 41.172l-.065-.086"/><path data-name="패스 807546" d="M52.698 30.36a.454.454 0 01.151.324c0 .368-.562.67-1.276.714H51.4l-2.746-1.925-1.427-1.946a10.091 10.091 0 01-1.233-3.114 4.562 4.562 0 01-.13-1.016c0-.584.108-.908.541-1.038a.692.692 0 01.627.13 1.146 1.146 0 01.389.519c.151.411.346.822.519 1.189a16.413 16.413 0 002.725 3.892l2.076 2.227" fill="#fff"/><path data-name="패스 807547" d="M59.639 61.261l-.151.5a1.449 1.449 0 01-1.189.562c-.757 0-1.622-.584-1.622-1.168h-.043c-.022.108.087.216.022.3a1.449 1.449 0 01-1.189.562 1.514 1.514 0 01-1.06-.411.908.908 0 01-.281-.649l-2.358-16.411.995.714c.757.843 1.989.822 3.417.822a4.679 4.679 0 003.719-1.773h.065c.173 4.13.368 12.477-.346 16.975" fill="#3673ee"/><path data-name="패스 807548" d="M56.72 63.078a.881.881 0 01-.951.714.848.848 0 01-.93-.627.5.5 0 01-.022-.13l-.432-1.47a1.514 1.514 0 001.06.411 1.449 1.449 0 001.189-.562h.065z" fill="#fff"/><path data-name="패스 807549" d="M59.013 63.142a.627.627 0 01-.022.151" fill="none" stroke="#222" stroke-linecap="round" stroke-linejoin="round" stroke-width=".541"/><path data-name="선 119838" fill="none" stroke="#222" stroke-linecap="round" stroke-linejoin="round" stroke-width=".541" d="M56.72 63.316v-.238"/><path data-name="패스 807550" d="M59.488 61.758l-.3.93-.195.627a1 1 0 01-1.038.67c-.519 0-1.124-.454-1.124-.908h-.087v-1.6h-.089c.065-.108.195.173.216.043h.043c0 .584.627.8 1.384.8a1.449 1.449 0 001.189-.562" fill="#fff"/><path data-name="패스 807551" d="M59.639 61.261a.865.865 0 01-.151.5" fill="none" stroke="#222" stroke-linecap="round" stroke-linejoin="round" stroke-width=".541"/><path data-name="패스 807552" d="M59.574 66.105l-.065.238-.562 1.773a1.168 1.168 0 01-1.384.778l-3.763-.951a.368.368 0 01-.281-.368.865.865 0 01.216-.562 3.287 3.287 0 00.562-.93 3.33 3.33 0 00.238-1.06 7.028 7.028 0 01.238-1.535l.086-.281a1 1 0 001.881-.086h.086a1.113 1.113 0 001.124.908.971.971 0 001.038-.67l.195-.627h.065l.173.476a4.865 4.865 0 01.151 2.919" fill="#262626"/><path data-name="패스 807553" d="M52.611 30.209a1.276 1.276 0 01-.541.951 1.656 1.656 0 01-1.925-.216" fill="none" stroke="#222" stroke-linecap="round" stroke-linejoin="round" stroke-width=".541"/><path data-name="패스 807554" d="M54.86 48.633l1.124 1.968-.216-1.6z" fill="#222"/><g data-name="그룹 404124"><g data-name="그룹 404123" clip-path="url(#e)" transform="translate(51.206 37.258)" opacity=".15"><path data-name="패스 807555" d="M8.282 24.5l-1.189.562s.411-7.439.195-13.991c-.087-2.9-4.476-3.092-6.725-4.93L.022.648l2.573-.649 4.584 4.952v.043l1.47.843s.887 14.034-.346 18.683" fill="#222"/></g></g><g data-name="그룹 404126"><g data-name="그룹 404125" clip-path="url(#f)" transform="translate(58.255 61.802)" opacity=".1"><path data-name="패스 807556" d="M.065.454L0 2.184l.692-.562L1.233 0z" fill="#222"/></g></g><path data-name="패스 807557" d="M59.812 39.464l.8.151a.368.368 0 01.3.454l-.108.5z" fill="#222"/><g data-name="그룹 404128"><g data-name="그룹 404127" clip-path="url(#g)" transform="translate(56.915 36.437)" opacity=".15"><path data-name="패스 807558" d="M1.06 0l2.919 3.525-1.146-.324L0 .39z" fill="#222"/></g></g><g data-name="그룹 404130"><g data-name="그룹 404129" clip-path="url(#h)" transform="translate(54.623 36.912)" opacity=".15"><path data-name="패스 807559" d="M0 .887l3.784.541L2.314.001z" fill="#222"/></g></g><g data-name="그룹 404132"><g data-name="그룹 404131" clip-path="url(#i)" transform="translate(58.861 39.918)" opacity=".15"><path data-name="패스 807560" d="M3.092 1.557A1.557 1.557 0 111.535 0a1.557 1.557 0 011.557 1.557" fill="#222"/></g></g><path data-name="패스 807561" d="M58.861 32.263a1.846 1.846 0 01-2.206 1.319 1.881 1.881 0 01-1.557-1.751" fill="none" stroke="#222" stroke-linecap="round" stroke-miterlimit="10" stroke-width=".541"/><path data-name="패스 807562" d="M58.666 31.939l2.79 3.438a4.844 4.844 0 011.081 3.049v2.487a2.184 2.184 0 01-2.184 2.184 2.443 2.443 0 01-1.73-.714l-1.168-1.168" fill="none" stroke="#222" stroke-linecap="round" stroke-linejoin="round" stroke-width=".541"/><path data-name="패스 807563" d="M57.39 41.064a1.384 1.384 0 001.47-2.314l1.752 1.752" fill="none" stroke="#222" stroke-linecap="round" stroke-linejoin="round" stroke-width=".541"/><path data-name="선 119839" fill="none" stroke="#222" stroke-linecap="round" stroke-linejoin="round" stroke-width=".541" d="M54.558 37.604l2.876 3.568"/><path data-name="선 119840" fill="none" stroke="#222" stroke-linecap="round" stroke-linejoin="round" stroke-width=".541" d="M56.915 36.826l2.119 2.119"/><path data-name="패스 807564" d="M50.493 31.939l-3.265-4.368a10.091 10.091 0 01-1.233-3.114 4.65 4.65 0 01-.13-1.016c0-.584.108-.908.541-1.038a.692.692 0 01.627.13 1.146 1.146 0 01.389.541c.151.411.346.822.519 1.189a16.435 16.435 0 002.725 3.892l2.638 2.811a2.746 2.746 0 001.146.692l.714.216.195-.735" fill="none" stroke="#222" stroke-linecap="round" stroke-linejoin="round" stroke-width=".541"/><path data-name="선 119841" fill="none" stroke="#222" stroke-linecap="round" stroke-linejoin="round" stroke-width=".541" d="M51.747 44.286l.259-6.336"/><path data-name="선 119842" fill="none" stroke="#222" stroke-linecap="round" stroke-linejoin="round" stroke-width=".541" d="M54.104 60.937l-2.357-16.586"/><path data-name="패스 807565" d="M59.834 43.075s.822 11.785-.195 18.186" fill="none" stroke="#222" stroke-linecap="round" stroke-linejoin="round" stroke-width=".541"/><path data-name="패스 807566" d="M56.504 61.045c0 .584-.454.951-1.211.951a1.091 1.091 0 01-1.211-1.06" fill="none" stroke="#222" stroke-linecap="round" stroke-linejoin="round" stroke-width=".541"/><path data-name="패스 807567" d="M56.72 63.056a.983.983 0 01-1.9 0l-.435-1.362" fill="none" stroke="#222" stroke-linecap="round" stroke-linejoin="round" stroke-width=".541"/><path data-name="패스 807568" d="M59.012 63.142a.964.964 0 01-1.06.822 1.1 1.1 0 01-1.124-.908" fill="none" stroke="#222" stroke-linecap="round" stroke-linejoin="round" stroke-width=".541"/><path data-name="패스 807569" d="M56.503 61.088l-.432-10.963a1.816 1.816 0 00-1.038-1.579" fill="none" stroke="#222" stroke-linecap="round" stroke-linejoin="round" stroke-width=".541"/><path data-name="선 119843" fill="none" stroke="#222" stroke-linecap="round" stroke-linejoin="round" stroke-width=".541" d="M56.72 63.315v-1.838"/><path data-name="패스 807570" d="M58.991 63.315l.649-2.054a1.238 1.238 0 01-1.362 1.06c-.757 0-1.708-.649-1.708-1.233" fill="none" stroke="#222" stroke-linecap="round" stroke-linejoin="round" stroke-width=".541"/><path data-name="패스 807571" d="M54.839 63.186l-.087.281a7.072 7.072 0 00-.238 1.535 3.309 3.309 0 01-.8 1.989.865.865 0 00-.216.562.368.368 0 00.281.368l3.763.951a1.168 1.168 0 001.384-.779l.562-1.773.065-.238a4.865 4.865 0 00-.151-2.919l-.151-.454" fill="none" stroke="#222" stroke-linecap="round" stroke-linejoin="round" stroke-width=".541"/><path data-name="패스 807572" d="M50.86 33.08a.67.67 0 01-.605-.389l-7.548-15.262a.677.677 0 011.211-.605l7.549 15.287a.67.67 0 01-.605.973" fill="#9faeb7"/><path data-name="패스 807573" d="M50.86 33.08a.67.67 0 01-.605-.389l-7.548-15.262a.677.677 0 011.211-.605l7.549 15.287a.67.67 0 01-.605.973z" fill="none" stroke="#222" stroke-linecap="round" stroke-linejoin="round" stroke-width=".541"/><path data-name="패스 807574" d="M51.768 44.156a3.857 3.857 0 003.568 1.838 6.334 6.334 0 004.455-1.449" fill="none" stroke="#222" stroke-linecap="round" stroke-linejoin="round" stroke-width=".541"/><path data-name="선 119844" fill="#222" d="M58.666 35.939l.476 1.362"/><path data-name="선 119845" fill="none" stroke="#222" stroke-linecap="round" stroke-miterlimit="10" stroke-width=".541" d="M58.666 35.939l.476 1.362"/><path data-name="패스 807575" d="M59.293 29.627l-1.038-.411 1.276-3.287 2.119.822-.865 2.227a1.168 1.168 0 01-1.492.67" fill="#222"/><path data-name="패스 807576" d="M59.229 25.495a1.9 1.9 0 11-1.081-2.465 1.9 1.9 0 011.081 2.465" fill="#222"/><path data-name="패스 807577" d="M61.607 26.836a1.773 1.773 0 11-1.016-2.292 1.773 1.773 0 011.016 2.292" fill="#222"/><path data-name="패스 807578" d="M58.363 32.263l1.881-4.865a2.011 2.011 0 00-3.741-1.449l-1.341 3.46a1.514 1.514 0 00.865 1.946l1.168.454" fill="#fff"/><path data-name="패스 807579" d="M58.363 32.263l1.881-4.865a2.011 2.011 0 00-3.741-1.449l-1.341 3.46a1.514 1.514 0 00.865 1.946l1.168.454" fill="none" stroke="#222" stroke-linecap="round" stroke-miterlimit="10" stroke-width=".541"/><path data-name="패스 807580" d="M59.577 28.284a.685.685 0 11-.5 1.276" fill="#fff"/><path data-name="패스 807581" d="M59.577 28.284a.685.685 0 11-.5 1.276" fill="none" stroke="#222" stroke-linecap="round" stroke-miterlimit="10" stroke-width=".541"/><path data-name="사각형 312073" fill="#222" d="M55.946 25.637l2.948-1.302.31.7-2.949 1.302z"/><path data-name="사각형 312074" fill="#222" d="M59.204 25.03l.693-.306 1.054 2.388-.693.306z"/><path data-name="패스 807582" d="M56.266 31.874l-.627-.238a.627.627 0 01-.368-.822l.541-1.406a.627.627 0 01.822-.368l.627.238a.627.627 0 01.368.822l-.541 1.406a.627.627 0 01-.822.368" fill="#222"/><path data-name="선 119846" fill="none" stroke="#fff" stroke-linecap="round" stroke-miterlimit="10" stroke-width=".649" d="M56.288 29.668l.562.216"/><path data-name="패스 807583" d="M48.957 17.299L38.34 18.467a2.143 2.143 0 01-.476-4.26l10.617-1.168a2.143 2.143 0 01.476 4.26" fill="#e4eff5"/><path data-name="패스 807584" d="M48.957 17.299L38.34 18.467a2.143 2.143 0 01-.476-4.26l10.617-1.168a2.143 2.143 0 01.476 4.26z" fill="none" stroke="#222" stroke-linecap="round" stroke-linejoin="round" stroke-width=".541"/><path data-name="선 119847" fill="#00a4ff" d="M50.903 15.807l-12.931 1.449"/><path data-name="선 119848" fill="none" stroke="#222" stroke-linejoin="round" stroke-width=".541" d="M50.903 15.807l-12.931 1.449"/><path data-name="패스 807585" d="M38.578 14.121s1.643 4 2.119 4.2l-2.444.195-1.752-4.2z" fill="#222"/><path data-name="패스 807586" d="M65.478 40.329a24.133 24.133 0 01-11.115 3.114c-12.8.454-23.657-9.212-24.133-21.473a21.84 21.84 0 015.406-15.2.605.605 0 011.06.324c1.406 15.742 13.212 28.392 28.587 32a.67.67 0 01.195 1.233" fill="#ffdd50"/><path data-name="패스 807587" d="M65.478 40.329a24.133 24.133 0 01-11.115 3.114c-12.8.454-23.657-9.212-24.133-21.473a21.84 21.84 0 015.406-15.2.605.605 0 011.06.324c1.406 15.742 13.212 28.392 28.587 32a.67.67 0 01.195 1.233z" fill="none" stroke="#222" stroke-linecap="round" stroke-linejoin="round" stroke-width=".865"/><path data-name="패스 807588" d="M65.824 39.831a.649.649 0 01-.346.476 24.154 24.154 0 01-11.115 3.114c-12.8.454-23.657-9.212-24.133-21.473a21.84 21.84 0 015.406-15.2.605.605 0 01.476-.216 22.4 22.4 0 00-3.309 12.78c.584 12.8 11.915 22.705 25.279 22.078a25.192 25.192 0 007.741-1.579" fill="#e0b603"/><path data-name="패스 807589" d="M65.824 39.831a.649.649 0 01-.346.476 24.154 24.154 0 01-11.115 3.114c-12.8.454-23.657-9.212-24.133-21.473a21.84 21.84 0 015.406-15.2.605.605 0 01.476-.216 22.4 22.4 0 00-3.309 12.78c.584 12.8 11.915 22.705 25.279 22.078a25.192 25.192 0 007.742-1.559z" fill="none" stroke="#222" stroke-linecap="round" stroke-linejoin="round" stroke-width=".649"/><g data-name="그룹 404134"><g data-name="그룹 404133" clip-path="url(#j)" transform="translate(41.302 37.842)" opacity=".15"><path data-name="패스 807590" d="M.5 0l2.292 1.449s1.752 2.9 0 2.941S.781 3.633.781 3.633L0 1.406z" fill="#222"/></g></g><path data-name="패스 807591" d="M44.351 38.275s4.368 2.033 1.795 4.238l-2.617-.714z" fill="#222"/><path data-name="패스 807592" d="M45.93 38.382a1.623 1.623 0 11-1.406-1.579 1.5 1.5 0 011.406 1.579" fill="#222"/><path data-name="패스 807593" d="M44.611 41.735a1.518 1.518 0 01-2.162 1.989 1.514 1.514 0 01-2.919.281 1.514 1.514 0 01-2.314-1.3 1.427 1.427 0 01.022-.281h-.022a1.514 1.514 0 01-1.038-2.638 1.514 1.514 0 01.951-2.638 1.526 1.526 0 012.249-1.881 1.514 1.514 0 012.811-.346 1.514 1.514 0 012.1 1.406 1.514 1.514 0 01.887 2.487 1.514 1.514 0 01-.541 2.876" fill="#e4eff5"/><path data-name="패스 807594" d="M44.611 41.735a1.518 1.518 0 01-2.162 1.989 1.514 1.514 0 01-2.919.281 1.514 1.514 0 01-2.314-1.3 1.427 1.427 0 01.022-.281h-.022a1.514 1.514 0 01-1.038-2.638 1.514 1.514 0 01.951-2.638 1.526 1.526 0 012.249-1.881 1.514 1.514 0 012.811-.346 1.514 1.514 0 012.1 1.406h0a1.514 1.514 0 01.887 2.487 1.514 1.514 0 01-.541 2.876z" fill="none" stroke="#222" stroke-linecap="round" stroke-linejoin="round" stroke-width=".541"/><path data-name="패스 807595" d="M43.443 39.616a2.833 2.833 0 11-2.833-2.833 2.833 2.833 0 012.833 2.833" fill="#fff"/><path data-name="패스 807596" d="M43.443 39.616a2.833 2.833 0 11-2.833-2.833 2.833 2.833 0 012.833 2.833z" fill="none" stroke="#222" stroke-linecap="round" stroke-linejoin="round" stroke-width=".541"/><path data-name="패스 807597" d="M41.778 39.529a1.276 1.276 0 11-1.276-1.276 1.276 1.276 0 011.276 1.276" fill="#c1c1c1"/><path data-name="패스 807598" d="M41.778 39.529a1.276 1.276 0 11-1.276-1.276 1.276 1.276 0 011.276 1.276z" fill="none" stroke="#222" stroke-miterlimit="10" stroke-width=".541"/><g data-name="그룹 404136"><g data-name="그룹 404135" clip-path="url(#k)" transform="translate(38.426 40.545)" opacity=".1"><path data-name="패스 807599" d="M1.86.322l2.119 3.027-1.1 1.189-1.514-.605-.887-.843H.022L.606.863.671.517A.649.649 0 011.86.301" fill="#111"/></g></g><path data-name="패스 807600" d="M31.853 56.526l-.908 16.283a1.06 1.06 0 01-.043.324 1.406 1.406 0 01-2.638-.065 1.1 1.1 0 01-.043-.26l-.151-1.427c0 .065.065.195.043.26a1.449 1.449 0 01-2.746.022v-.195l-1.362-15.05-.043-.432.195.238c.108 1.362 1.925 2.141 3.936 2.141s3.481-.973 3.741-2.227z" fill="#3673ee"/><path data-name="선 119849" fill="#fff" d="M24.024 50.665l-.173-3.503"/><path data-name="패스 807601" d="M34.342 75.36a1.168 1.168 0 01-.5.93h-.043l-3.481 2.184h-.022a1.47 1.47 0 01-.692.173 1.311 1.311 0 01-1.362-1.146v-2.249a1.665 1.665 0 01.216-.843h.043l.108.605a1 1 0 001.016.822.973.973 0 001.038-.908l.043-.3h.043l1.946-.454h.281a1.289 1.289 0 011.362 1.211" fill="#262626"/><path data-name="패스 807602" d="M30.901 73.133l-.216 1.492-.043.3a.973.973 0 01-1.038.908 1 1 0 01-1.016-.822l-.108-.605-.217-1.338a1.406 1.406 0 002.638.065" fill="#fff"/><path data-name="패스 807603" d="M28.112 71.641l-.195 2.227a1 1 0 01-1.06.908 1.038 1.038 0 01-1.038-.714v-.151l-.432-2.227a1.449 1.449 0 002.746-.022" fill="#fff"/><path data-name="패스 807604" d="M28.263 72.917l.216 1.341h-.043a1.665 1.665 0 00-.216.843v1.752h-.109a1.471 1.471 0 01-.865.281 1.3 1.3 0 01-1.362-1.168v-.173a8.412 8.412 0 01-.065-1.881h.022a1.038 1.038 0 001.038.714 1 1 0 001.06-.908" fill="#262626"/><path data-name="패스 807605" d="M32.025 54.817l.086.995c-.238 1.254-2.119 2.53-4.044 2.53s-3.676-1.081-3.763-2.422h-.022l-.259-5.211a6.314 6.314 0 01-1.233-4.152v-.389a2.552 2.552 0 012.1-2.335l.843-.151.627.043c-.238-1.168.087-1.1 1.6-.973s1.189 1.124 1.449.649c.086-.151-.022.865.13.887l.389-.043h.065l.086.043 3.979 2.638.324.216a1.816 1.816 0 01-1.168 3.2h-.022l-.8-.3-.454-.216z" fill="#fff"/><path data-name="패스 807606" d="M39.55 42.4l-.13.389c-.389.519-.324 1.189-.649 1.752l-2.595 4.714a2.4 2.4 0 01-2.963 1.081h-.02a1.816 1.816 0 001.189-3.2h.043l2.984-3.784a2.249 2.249 0 00.432-.93l.259-1.06c.173-.584.281-.519.995-.973.022-.022.324.173.368.173a.853.853 0 01.259.476v.3c.13.562.173.605-.173 1.06" fill="#fff"/><path data-name="패스 807607" d="M26.316 44.243l-.541-5.6a2.011 2.011 0 014-.389l.346 3.7a1.514 1.514 0 01-1.362 1.643" fill="#fff"/><path data-name="패스 807608" d="M26.316 44.243l-.541-5.6a2.011 2.011 0 014-.389l.346 3.7a1.514 1.514 0 01-1.362 1.643" fill="none" stroke="#222" stroke-linecap="round" stroke-miterlimit="10" stroke-width=".541"/><path data-name="패스 807609" d="M29.539 37.28l-4.563.432-.108-1.124a1.146 1.146 0 011.014-1.233l3.417-.324a1.146 1.146 0 01.216 2.271" fill="#222"/><path data-name="패스 807610" d="M28.349 41.064l-.973.086a2.076 2.076 0 01-2.249-1.86l-.151-1.6 1.73-.173a1.3 1.3 0 011.406 1.168z" fill="#222"/><path data-name="패스 807611" d="M28.26 36.848a1.687 1.687 0 11-1.838-1.514 1.687 1.687 0 011.838 1.514" fill="#222"/><path data-name="패스 807612" d="M28.349 39.486a.684.684 0 10.13 1.362" fill="#fff"/><path data-name="패스 807613" d="M28.349 39.486a.684.684 0 10.13 1.362" fill="none" stroke="#222" stroke-linecap="round" stroke-miterlimit="10" stroke-width=".541"/><g data-name="그룹 404138"><g data-name="그룹 404137" clip-path="url(#l)" transform="translate(29.495 49.108)" opacity=".15"><path data-name="패스 807614" d="M0 .021a3.676 3.676 0 012.357.562v3.59z" fill="#222"/></g></g><path data-name="패스 807615" d="M26.857 60.85l1.06 1.211-.238-1.124z" fill="#222"/><g data-name="그룹 404140"><g data-name="그룹 404139" clip-path="url(#m)" transform="translate(22.77 40.934)" opacity=".15"><path data-name="패스 807616" d="M3.979.065l.13 3.806-.45 13.212s-.238 1.816.735 2.617l.584.735.324 10.553.281 1.47-1.47 1.276h-.778a24.447 24.447 0 01-1.168-8.023l-.973-11.85V9.277A4.493 4.493 0 01.048 5.385C.307 2.66 2.556 2.747 2.556 2.747l1.06-.151-.3-2.444c.022-.151.649-.216.67-.065" fill="#222"/></g></g><path data-name="선 119850" fill="none" stroke="#222" stroke-linecap="round" stroke-linejoin="round" stroke-width=".541" d="M34.425 47.163l-.043-.022"/><path data-name="패스 807617" d="M34.382 47.14l-.324-.216z" fill="none" stroke="#222" stroke-linecap="round" stroke-linejoin="round" stroke-width=".541"/><path data-name="패스 807618" d="M29.712 49.087c.735-.173 1.3.3 1.989.584" fill="none" stroke="#222" stroke-linecap="round" stroke-linejoin="round" stroke-width=".541"/><path data-name="선 119851" fill="none" stroke="#222" stroke-linecap="round" stroke-linejoin="round" stroke-width=".541" d="M30.944 72.809l1.168-16.997"/><path data-name="선 119852" fill="none" stroke="#222" stroke-linecap="round" stroke-linejoin="round" stroke-width=".541" d="M25.344 71.338l-1.406-15.375"/><path data-name="선 119853" fill="none" stroke="#222" stroke-linecap="round" stroke-linejoin="round" stroke-width=".541" d="M24.024 50.665l-.173-3.503"/><path data-name="패스 807619" d="M25.906 76.117v-.173a8.412 8.412 0 01-.065-1.881" fill="none" stroke="#222" stroke-linecap="round" stroke-linejoin="round" stroke-width=".541"/><path data-name="패스 807620" d="M31.982 54.731a2.1 2.1 0 01.13.735 1.924 1.924 0 01-.043.389c-.259 1.406-1.989 2.487-4.044 2.487s-3.979-1.211-4.087-2.725v-.151" fill="none" stroke="#222" stroke-linecap="round" stroke-linejoin="round" stroke-width=".541"/><path data-name="패스 807621" d="M30.944 72.808a1.29 1.29 0 01-1.362 1.211 1.4 1.4 0 01-1.471-1.211" fill="none" stroke="#222" stroke-linecap="round" stroke-linejoin="round" stroke-width=".541"/><path data-name="패스 807622" d="M28.068 71.835a1.406 1.406 0 01-1.319.822 1.333 1.333 0 01-1.406-1.233" fill="none" stroke="#222" stroke-linecap="round" stroke-linejoin="round" stroke-width=".541"/><path data-name="패스 807623" d="M28.004 73.717a1.141 1.141 0 01-2.206.108" fill="none" stroke="#222" stroke-linecap="round" stroke-linejoin="round" stroke-width=".541"/><path data-name="패스 807624" d="M30.641 74.928a.973.973 0 01-1.038.908 1 1 0 01-1.016-.822" fill="none" stroke="#222" stroke-linecap="round" stroke-linejoin="round" stroke-width=".541"/><path data-name="패스 807625" d="M30.295 78.517a1.47 1.47 0 01-.692.173 1.289 1.289 0 01-1.362-1.211 1.081 1.081 0 01.022-.216" fill="none" stroke="#222" stroke-linecap="round" stroke-linejoin="round" stroke-width=".541"/><path data-name="패스 807626" d="M32.804 74.171h.173a1.29 1.29 0 011.362 1.211 1.168 1.168 0 01-.5.93" fill="none" stroke="#222" stroke-linecap="round" stroke-linejoin="round" stroke-width=".541"/><path data-name="패스 807627" d="M28.111 76.853a1.449 1.449 0 01-.865.281 1.3 1.3 0 01-1.362-1.168" fill="none" stroke="#222" stroke-linecap="round" stroke-linejoin="round" stroke-width=".541"/><path data-name="선 119854" fill="none" stroke="#222" stroke-linecap="round" stroke-linejoin="round" stroke-width=".541" d="M30.9 73.133l-.259 1.795"/><path data-name="패스 807628" d="M28.133 72.787l-.389-11.309a.757.757 0 00-.778-.735" fill="none" stroke="#222" stroke-linecap="round" stroke-linejoin="round" stroke-width=".541"/><path data-name="선 119855" fill="none" stroke="#222" stroke-linecap="round" stroke-linejoin="round" stroke-width=".541" d="M30.317 78.517l3.481-2.184"/><path data-name="선 119856" fill="none" stroke="#222" stroke-linecap="round" stroke-linejoin="round" stroke-width=".541" d="M32.696 74.192l-1.968.432"/><path data-name="패스 807629" d="M28.242 77.545v-2.292a1.665 1.665 0 01.216-.843" fill="none" stroke="#222" stroke-linecap="round" stroke-linejoin="round" stroke-width=".541"/><path data-name="선 119857" fill="none" stroke="#222" stroke-linecap="round" stroke-linejoin="round" stroke-width=".541" d="M28.608 75.057l-.259-1.557"/><path data-name="선 119858" fill="none" stroke="#222" stroke-linecap="round" stroke-linejoin="round" stroke-width=".541" d="M25.797 73.912l-.454-2.379"/><path data-name="선 119859" fill="none" stroke="#222" stroke-linecap="round" stroke-linejoin="round" stroke-width=".541" d="M28.003 73.868l.065-2.335"/><path data-name="패스 807630" d="M23.916 55.595l.087-4.909h0a6.314 6.314 0 01-1.211-4.152v-.389a2.552 2.552 0 012.1-2.335h1.341c.238.454-.346.93 1.168 1.06a2.4 2.4 0 002.119-.5c.67-.346 4.541 2.552 4.541 2.552l.324.216a1.816 1.816 0 01.562 1.925 1.643 1.643 0 01-2.292 1.038l-.93-.411.3 5.125" fill="none" stroke="#222" stroke-linecap="round" stroke-linejoin="round" stroke-width=".541"/><path data-name="패스 807631" d="M32.22 49.908l1.016.432a2.4 2.4 0 002.963-1.081l2.811-5.579s1.362-2.357.324-3.179-1.557 2.227-2.119 2.768l-2.984 3.654" fill="none" stroke="#222" stroke-linecap="round" stroke-linejoin="round" stroke-width=".541"/><path data-name="선 119860" fill="#fff" d="M29.539 44.243l-.065-.822"/><path data-name="선 119861" fill="none" stroke="#222" stroke-linecap="round" stroke-miterlimit="10" stroke-width=".541" d="M29.539 44.243l-.065-.822"/><path data-name="패스 807632" d="M42.924 18.032l1.925.627-.541-.93z" fill="#222"/></g></g></g><g data-name="그룹 124854" transform="translate(6.194 91.765)"><ellipse data-name="타원 9933" cx="5.5" cy="2" rx="5.5" ry="2" transform="translate(6 11.805)" fill="#cdcdcd"/><path data-name="패스 330370" d="M.002 13.259a.363.363 0 010-.043v-1.338h1.96l2.853-1.647a1.7 1.7 0 011.531.063l2.743 1.584h1.96v1.39a.445.445 0 01-.263.41l-4.55 2.627a1.7 1.7 0 01-1.531-.063l-4.33-2.497a.651.651 0 01-.373-.475z" fill="#0f67f5"/><path data-name="패스 330371" d="M6.237 14.915l4.549-2.627c.393-.227.345-.623-.11-.884l-4.329-2.5a1.7 1.7 0 00-1.531-.063l-4.55 2.627c-.393.227-.345.623.11.884l4.329 2.5a1.7 1.7 0 001.532.063z" fill="#0f67f5"/><path data-name="패스 330372" d="M7.093 13.267l.341-2.5h2.13l1.112.642c.453.262.5.658.11.884l-1.7.979z" fill="#3f4f5c"/><path data-name="패스 330373" d="M2.68 11.637l.248-1.964h5.188l.248 1.963a.982.982 0 01.03.241 1.427 1.427 0 01-.841 1.172 4.488 4.488 0 01-4.062 0c-.663-.384-.934-.912-.811-1.412z" fill="#fff"/><path data-name="패스 330374" d="M6.879 9.673H8.12l.248 1.963a.985.985 0 01.03.241 1.427 1.427 0 01-.841 1.172 3.163 3.163 0 01-.463.216z" fill="#e2e1e0"/><path data-name="패스 330375" d="M2.959 9.456l.251-1.987h4.632l.251 1.987a.888.888 0 01.028.216 1.289 1.289 0 01-.76 1.059 4.056 4.056 0 01-3.667 0c-.605-.347-.849-.823-.735-1.275z" fill="#0f67f5"/><path data-name="패스 330376" d="M6.748 7.469h1.094l.251 1.987a.885.885 0 01.028.216 1.289 1.289 0 01-.76 1.059 2.845 2.845 0 01-.406.192z" fill="#3f4f5c"/><path data-name="패스 330377" d="M3.21 7.47a.777.777 0 01.025-.194l.254-2.011h4.075l.254 2.011a.819.819 0 01.025.194 1.151 1.151 0 01-.678.945 3.619 3.619 0 01-3.275 0 1.15 1.15 0 01-.678-.945z" fill="#fff"/><path data-name="패스 330378" d="M6.616 5.265h.947l.254 2.011a.822.822 0 01.025.194 1.151 1.151 0 01-.678.945 2.566 2.566 0 01-.349.165z" fill="#e2e1e0"/><path data-name="패스 330379" d="M3.51 5.095l.257-2.034h3.514l.257 2.034a.7.7 0 01.022.173 1.012 1.012 0 01-.6.832 3.184 3.184 0 01-2.882 0c-.467-.277-.658-.651-.568-1.005z" fill="#0f67f5"/><path data-name="패스 330380" d="M7.285 3.06l.257 2.034a.7.7 0 01.022.173 1.012 1.012 0 01-.6.832 2.24 2.24 0 01-.292.139l-.189-3.175z" fill="#3f4f5c"/><path data-name="패스 330381" d="M3.766 3.06a.6.6 0 01.016-.129L4.043.86h2.963l.261 2.071a.608.608 0 01.016.132.875.875 0 01-.515.718 2.751 2.751 0 01-2.488 0 .874.874 0 01-.515-.718z" fill="#fff"/><path data-name="패스 330382" d="M7.007.855l.261 2.071a.608.608 0 01.016.132.875.875 0 01-.515.718 1.927 1.927 0 01-.235.113l-.139-2.343v-.69z" fill="#e2e1e0"/><ellipse data-name="타원 4800" cx="1.481" cy=".855" rx="1.481" ry=".855" transform="translate(4.045)" fill="#fff"/><path data-name="패스 330383" d="M9.09 13.267l1.129-1.389h.83v1.39a.445.445 0 01-.263.41l-1.7.979z" fill="#3f4f5c"/><path data-name="패스 338162" d="M2.962 9.91l-.069.039.035-.272a.872.872 0 00.034.233z" fill="#fff"/><g data-name="패스 338163" fill="none" stroke-miterlimit="10"><path d="M11.046 11.86a.771.771 0 00-.017-.086c-.009-.022-.022-.047-.03-.069a.626.626 0 00-.1-.125 1 1 0 00-.228-.177l-1.109-.639-1.411-.815-.034-.276a.723.723 0 00-.03-.216l-.25-1.989a1.02 1.02 0 00-.022-.194L7.56 5.268a.719.719 0 00-.021-.168L7.28 3.068a.443.443 0 00-.018-.134L7.089 1.55 7.004.867c0-.47-.664-.854-1.48-.854S4.04.397 4.04.867l-.263 2.06a.665.665 0 00-.013.129l-.259 2.032a.751.751 0 00-.022.168l-.25 2.011a.732.732 0 00-.026.194l-.25 1.989a.931.931 0 00-.03.216.869.869 0 00.035.233l-.07.039-2.631 1.519a.459.459 0 00-.263.41v1.39a.644.644 0 00.371.475l4.327 2.5a1.7 1.7 0 001.532.065l2.856-1.648 1.7-.979a.447.447 0 00.263-.41v-1.37a.064.064 0 00-.001-.03z"/><path d="M5.536 16.456c.238 0 .476-.05.7-.152l2.856-1.648 1.695-.98a.447.447 0 00.263-.41v-1.375c0-.013 0-.022-.004-.03a.77.77 0 00-.017-.087c-.009-.022-.022-.047-.03-.069a.625.625 0 00-.096-.125.996.996 0 00-.228-.177l-1.109-.639-1.41-.815-.035-.276a.723.723 0 00-.03-.216l-.25-1.989c0-.064-.01-.13-.022-.194l-.255-2.006v-.004a.72.72 0 00-.021-.169l-.26-2.032V3.06a.443.443 0 00-.017-.134l-.173-1.384L7.008.86V.854c0-.47-.665-.854-1.48-.854-.82 0-1.484.384-1.484.854V.86l-.263 2.07a.665.665 0 00-.013.13v.004l-.26 2.032a.75.75 0 00-.021.169l-.25 2.01a.732.732 0 00-.026.194l-.25 1.99a.931.931 0 00-.03.215v.004a.87.87 0 00.034.233l-.07.039-2.63 1.519c-.186.112-.272.259-.264.41v1.38l.005.009a.644.644 0 00.37.474l4.327 2.498c.26.144.546.217.833.217m0 .6c-.39 0-.779-.1-1.123-.292l-.005-.002-.005-.003L.1 14.274a1.244 1.244 0 01-.661-.8l-.037-.072v-1.511c-.013-.375.187-.716.553-.937l.005-.003.005-.003 2.37-1.368a1.56 1.56 0 01.035-.227l.243-1.928c.003-.088.014-.176.034-.261l.242-1.944c.002-.073.012-.146.03-.227l.25-1.973a1.28 1.28 0 01.02-.184L3.445.814C3.476.003 4.36-.6 5.528-.6 6.695-.6 7.58.006 7.608.816l.08.65.169 1.345c.015.067.024.136.026.21l.252 1.972c.017.082.026.156.028.233l.249 1.954c.016.09.025.168.028.245l.24 1.914c.02.077.033.158.038.242l1.148.664 1.109.638.003.002.003.002c.145.086.257.174.354.276.065.066.124.143.178.233l.025.042.018.046.004.008c.01.02.018.04.026.059l.013.032.009.034c.011.043.019.08.025.113a.674.674 0 01.017.16v1.377c0 .405-.228.77-.586.943l-1.672.966-2.857 1.648-.024.014-.027.012a2.27 2.27 0 01-.948.206z" fill="#222"/></g></g></g></svg>