<svg xmlns="http://www.w3.org/2000/svg" width="24" height="24"><defs><clipPath id="a"><path data-name="사각형 295577" fill="none" d="M0 0h24v24H0z"/></clipPath></defs><g data-name="그룹 385023" clip-path="url(#a)"><g data-name="그룹 385022" clip-path="url(#a)"><path data-name="패스 779684" d="M21 2.5V20a3 3 0 01-3 3H5s-3 0-3-5v-1h2V2.5z" fill="#cbdbfa"/><path data-name="패스 779685" d="M11.5 22.5H5s-3 0-3-5v-1h13v1c0 5 3 5 3 5a3 3 0 003-3V2H4v14" fill="none" stroke="#3673ee" stroke-linejoin="round" stroke-width="1.5"/><path data-name="선 113326" fill="none" stroke="#3673ee" stroke-linecap="round" stroke-linejoin="round" stroke-width="1.5" d="M13 22.5h-1.5"/><path data-name="선 113327" fill="none" stroke="#3673ee" stroke-linecap="round" stroke-linejoin="round" stroke-width="1.5" d="M11.3 6.5H13"/><path data-name="선 113328" fill="none" stroke="#3673ee" stroke-linejoin="round" stroke-width="1.5" d="M7 6.5h5.3"/><path data-name="선 113329" fill="none" stroke="#3673ee" stroke-linecap="round" stroke-linejoin="round" stroke-width="1.5" d="M8.7 9.5H11"/><path data-name="선 113330" fill="none" stroke="#3673ee" stroke-linejoin="round" stroke-width="1.5" d="M7 9.5h2.7"/></g></g></svg>