<svg xmlns="http://www.w3.org/2000/svg" xmlns:xlink="http://www.w3.org/1999/xlink" width="100" height="100" viewBox="0 0 100 100">
  <defs>
    <style>
      .cls-1 {
        fill: #d5d5d5;
      }

      .cls-12, .cls-13, .cls-14, .cls-15, .cls-17, .cls-19, .cls-2, .cls-20, .cls-21, .cls-22, .cls-23, .cls-24, .cls-25, .cls-26, .cls-27, .cls-28, .cls-32 {
        fill: none;
      }

      .cls-3 {
        clip-path: url(#clip-path);
      }

      .cls-4 {
        isolation: isolate;
      }

      .cls-5 {
        clip-path: url(#clip-path-2);
      }

      .cls-6 {
        fill: #f9f9f9;
      }

      .cls-7 {
        fill: #f0f0f0;
      }

      .cls-8 {
        opacity: 0.15;
      }

      .cls-9 {
        clip-path: url(#clip-path-5);
      }

      .cls-10 {
        fill: #222;
      }

      .cls-11 {
        fill: #fff;
      }

      .cls-12, .cls-13, .cls-14, .cls-15, .cls-17, .cls-19, .cls-20, .cls-21, .cls-22, .cls-23, .cls-24, .cls-25, .cls-26, .cls-27, .cls-28, .cls-32 {
        stroke: #222;
      }

      .cls-12, .cls-13, .cls-14, .cls-15, .cls-20 {
        stroke-linecap: round;
      }

      .cls-12, .cls-13, .cls-14, .cls-15, .cls-17, .cls-19, .cls-20, .cls-24, .cls-25, .cls-26, .cls-27, .cls-28, .cls-32 {
        stroke-linejoin: round;
      }

      .cls-12 {
        stroke-width: 0.833px;
      }

      .cls-13 {
        stroke-width: 0.833px;
      }

      .cls-14 {
        stroke-width: 0.838px;
      }

      .cls-15, .cls-28 {
        stroke-width: 0.833px;
      }

      .cls-16 {
        fill: #b2b5b7;
      }

      .cls-17 {
        stroke-width: 0.833px;
      }

      .cls-18 {
        fill: #e2e2e2;
      }

      .cls-19 {
        stroke-width: 0.833px;
      }

      .cls-20 {
        stroke-width: 0.833px;
      }

      .cls-21, .cls-22, .cls-23 {
        stroke-miterlimit: 10;
      }

      .cls-21 {
        stroke-width: 0.625px;
      }

      .cls-22 {
        stroke-width: 0.625px;
      }

      .cls-23 {
        stroke-width: 0.625px;
      }

      .cls-24 {
        stroke-width: 0.625px;
      }

      .cls-25 {
        stroke-width: 0.625px;
      }

      .cls-26 {
        stroke-width: 0.625px;
      }

      .cls-27 {
        stroke-width: 0.625px;
      }

      .cls-29 {
        clip-path: url(#clip-path-6);
      }

      .cls-30 {
        clip-path: url(#clip-path-7);
      }

      .cls-31 {
        fill: #3982f7;
      }

      .cls-32 {
        stroke-width: 0.625px;
      }
    </style>
    <clipPath id="clip-path">
      <rect id="사각형_59828" data-name="사각형 59828" class="cls-1" width="100" height="100" transform="translate(0 80)"/>
    </clipPath>
    <clipPath id="clip-path-2">
      <rect id="사각형_251305" data-name="사각형 251305" class="cls-2" width="100" height="100"/>
    </clipPath>
    <clipPath id="clip-path-5">
      <rect id="사각형_251300" data-name="사각형 251300" class="cls-2" width="58.208" height="20.688"/>
    </clipPath>
    <clipPath id="clip-path-6">
      <rect id="사각형_251301" data-name="사각형 251301" class="cls-2" width="15.75" height="8.606"/>
    </clipPath>
    <clipPath id="clip-path-7">
      <rect id="사각형_251303" data-name="사각형 251303" class="cls-2" width="22.708" height="38.3"/>
    </clipPath>
  </defs>
  <g id="마스크_그룹_270" data-name="마스크 그룹 270" class="cls-3" transform="translate(0 -80)">
    <g id="null_100x100" transform="translate(50 130)">
      <g id="그룹_332420" data-name="그룹 332420" class="cls-4" transform="translate(-50 -50)">
        <g id="Layer_1" data-name="Layer 1">
          <g id="그룹_332419" data-name="그룹 332419" class="cls-5">
            <g id="그룹_332411" data-name="그룹 332411" class="cls-5">
              <path id="패스_670587" data-name="패스 670587" class="cls-6" d="M50,0A50,50,0,1,1,0,50,50.013,50.013,0,0,1,50,0"/>
              <path id="패스_670588" data-name="패스 670588" class="cls-7" d="M50,100a50,50,0,1,1,50-50,50.066,50.066,0,0,1-50,50M50,1A49,49,0,1,0,99,50,49.053,49.053,0,0,0,50,1"/>
            </g>
            <g id="그룹_332418" data-name="그룹 332418" class="cls-5">
              <g id="그룹_332413" data-name="그룹 332413" class="cls-8" transform="translate(17.25 62.813)">
                <g id="그룹_332412" data-name="그룹 332412" class="cls-9">
                  <path id="패스_670589" data-name="패스 670589" class="cls-10" d="M82.8,319.028s2.042,3.75,4.958,2.979,19.875-11.292,19.875-11.292a3.529,3.529,0,0,0,2.333-.417s5.542,4.833,17.646,3.417c8-.937,11.354-4.187,12.687-6.292a4.125,4.125,0,0,0,.313-4.042,8.436,8.436,0,0,0-1.729-1.917c-1.312-.833-44.312,7.042-44.312,7.042Z" transform="translate(-82.8 -301.424)"/>
                </g>
              </g>
              <path id="패스_670590" data-name="패스 670590" class="cls-11" d="M221.363,260.367a12.027,12.027,0,0,1-4.458,4.146c-7.312,4.229-19.208,4.208-26.562-.042a12.159,12.159,0,0,1-4.542-4.229,12.027,12.027,0,0,1,4.458-4.146c7.313-4.229,19.208-4.208,26.563.042a12.158,12.158,0,0,1,4.542,4.229" transform="translate(-147.092 -200.242)"/>
              <path id="패스_670591" data-name="패스 670591" class="cls-12" d="M221.363,260.367a12.027,12.027,0,0,1-4.458,4.146c-7.312,4.229-19.208,4.208-26.562-.042a12.159,12.159,0,0,1-4.542-4.229,12.027,12.027,0,0,1,4.458-4.146c7.313-4.229,19.208-4.208,26.563.042A12.326,12.326,0,0,1,221.363,260.367Z" transform="translate(-147.092 -200.242)"/>
              <path id="패스_670592" data-name="패스 670592" class="cls-11" d="M218.483,271.587v6.354c-.042,2.729-1.854,5.458-5.458,7.542-7.312,4.229-19.208,4.208-26.562-.042-3.687-2.125-5.542-4.917-5.542-7.708H180.9V271.4h.021a6.833,6.833,0,0,0,1,3.458,12.159,12.159,0,0,0,4.542,4.229c7.354,4.25,19.25,4.271,26.563.042a11.867,11.867,0,0,0,4.458-4.146,6.833,6.833,0,0,0,1-3.4" transform="translate(-143.212 -214.858)"/>
              <path id="패스_670593" data-name="패스 670593" class="cls-13" d="M218.483,271.587v6.354c-.042,2.729-1.854,5.458-5.458,7.542-7.312,4.229-19.208,4.208-26.562-.042-3.687-2.125-5.542-4.917-5.542-7.708H180.9V271.4h.021a6.833,6.833,0,0,0,1,3.458,12.159,12.159,0,0,0,4.542,4.229c7.354,4.25,19.25,4.271,26.563.042a11.867,11.867,0,0,0,4.458-4.146A6.833,6.833,0,0,0,218.483,271.587Z" transform="translate(-143.212 -214.858)"/>
              <path id="패스_670594" data-name="패스 670594" class="cls-14" d="M361.3,271.588v-.167a.041.041,0,0,0,0-.021" transform="translate(-286.029 -214.858)"/>
              <path id="패스_670595" data-name="패스 670595" class="cls-11" d="M218.562,230.342a.042.042,0,0,1,0,.021v.167a6.833,6.833,0,0,1-1,3.4,12.027,12.027,0,0,1-4.458,4.146c-7.312,4.229-19.208,4.208-26.562-.042A12.159,12.159,0,0,1,182,233.8a6.833,6.833,0,0,1-1-3.458c-.021-2.771,1.813-5.542,5.458-7.646,7.313-4.229,19.208-4.208,26.563.042,3.646,2.1,5.5,4.854,5.542,7.6" transform="translate(-143.291 -173.8)"/>
              <path id="패스_670596" data-name="패스 670596" class="cls-15" d="M218.562,230.342a.042.042,0,0,1,0,.021v.167a6.833,6.833,0,0,1-1,3.4,12.027,12.027,0,0,1-4.458,4.146c-7.312,4.229-19.208,4.208-26.562-.042A12.159,12.159,0,0,1,182,233.8a6.833,6.833,0,0,1-1-3.458c-.021-2.771,1.813-5.542,5.458-7.646,7.313-4.229,19.208-4.208,26.563.042C216.666,224.842,218.52,227.592,218.562,230.342Z" transform="translate(-143.291 -173.8)"/>
              <path id="패스_670597" data-name="패스 670597" class="cls-16" d="M227.663,237.4a15.145,15.145,0,0,0-2.292-1.6c-7.354-4.25-19.25-4.271-26.562-.042A15.085,15.085,0,0,0,196.6,237.3c.417-1.771,1.9-3.458,4.417-4.812,6.083-3.25,16-3.229,22.125.042,2.583,1.375,4.063,3.1,4.5,4.875" transform="translate(-155.642 -182.133)"/>
              <path id="패스_670598" data-name="패스 670598" class="cls-17" d="M227.663,237.4a15.145,15.145,0,0,0-2.292-1.6c-7.354-4.25-19.25-4.271-26.562-.042A15.085,15.085,0,0,0,196.6,237.3c.417-1.771,1.9-3.458,4.417-4.812,6.083-3.25,16-3.229,22.125.042C225.725,233.883,227.225,235.612,227.663,237.4Z" transform="translate(-155.642 -182.133)"/>
              <path id="패스_670599" data-name="패스 670599" class="cls-18" d="M222.759,253.88c-6.083,3.25-16,3.229-22.125-.042-3.583-1.917-5.083-4.521-4.5-7a15.085,15.085,0,0,1,2.208-1.542c7.313-4.229,19.208-4.208,26.563.042a15.124,15.124,0,0,1,2.292,1.6h0c.583,2.458-.9,5.042-4.417,6.917" transform="translate(-155.176 -191.692)"/>
              <path id="패스_670600" data-name="패스 670600" class="cls-19" d="M222.759,253.88c-6.083,3.25-16,3.229-22.125-.042-3.583-1.917-5.083-4.521-4.5-7a15.085,15.085,0,0,1,2.208-1.542c7.313-4.229,19.208-4.208,26.563.042a15.124,15.124,0,0,1,2.292,1.6h0C227.78,249.421,226.3,252,222.759,253.88Z" transform="translate(-155.176 -191.692)"/>
              <path id="패스_670601" data-name="패스 670601" class="cls-11" d="M340.558,290.8c-.042,2.729-1.854,5.458-5.458,7.542" transform="translate(-265.287 -230.217)"/>
              <path id="패스_670602" data-name="패스 670602" class="cls-20" d="M340.558,290.8c-.042,2.729-1.854,5.458-5.458,7.542" transform="translate(-265.287 -230.217)"/>
              <path id="패스_670603" data-name="패스 670603" class="cls-11" d="M180.5,295.17a2.622,2.622,0,0,1,1.729-1.812c1.354-.333,4.167,1.583,4.542,4.625s.354,5.188-1.771,4.938-3.125-5.417-3.125-5.417Z" transform="translate(-142.896 -232.212)"/>
              <path id="패스_670604" data-name="패스 670604" class="cls-10" d="M82.014,313.9s-1.979,1.563-.5,4.458,3.271,2.646,3.271,2.646l21.646-12.583s1.333-1.687-.687-5.1-4.417-.562-4.417-.562Z" transform="translate(-64.098 -238.797)"/>
              <path id="패스_670605" data-name="패스 670605" class="cls-21" d="M85.083,367.438a1.6,1.6,0,0,1-1.625-.125A5.936,5.936,0,0,1,81,362.583c0-1.1.417-1.854,1.042-2.083" transform="translate(-64.125 -285.396)"/>
              <path id="패스_670606" data-name="패스 670606" class="cls-22" d="M142.629,369.2l-.229.146Z" transform="translate(-112.733 -292.283)"/>
              <path id="패스_670607" data-name="패스 670607" class="cls-23" d="M181.567,300.517l-.625.375H180.9a.459.459,0,0,1,.021-.167,4,4,0,0,1,.25-1.125A8.854,8.854,0,0,0,181.567,300.517Z" transform="translate(-143.213 -237.183)"/>
              <path id="패스_670608" data-name="패스 670608" class="cls-24" d="M180.842,305.325l-.042-.125" transform="translate(-143.133 -241.617)"/>
              <path id="패스_670609" data-name="패스 670609" class="cls-25" d="M96.438,347.239a3.729,3.729,0,0,1-.042.625,1.87,1.87,0,0,1-.771,1.354l-.083.042-6.479,3.729h0a2.205,2.205,0,0,0,.854-2,5.928,5.928,0,0,0-2.479-4.729A1.613,1.613,0,0,0,86,346.052l6.313-3.646h0a1.528,1.528,0,0,1,1.521.042l.125.063A5.9,5.9,0,0,1,96.438,347.239Z" transform="translate(-68.083 -270.927)"/>
              <path id="패스_670610" data-name="패스 670610" class="cls-26" d="M122.637,340.932a2.291,2.291,0,0,1-.75,1.917l-.229.146-2.146,1.229a1.829,1.829,0,0,0,.771-1.354,3.729,3.729,0,0,0,.042-.625,5.928,5.928,0,0,0-2.479-4.729l-.125-.062a1.528,1.528,0,0,0-1.521-.042h0l2.292-1.312h0a1.583,1.583,0,0,1,1.646.1A5.914,5.914,0,0,1,122.637,340.932Z" transform="translate(-91.992 -265.932)"/>
              <path id="패스_670611" data-name="패스 670611" class="cls-27" d="M143.571,307.476a2.917,2.917,0,0,1-.312,1.438,1.437,1.437,0,0,1-.521.563l-.792.458-11.271,6.479a2.291,2.291,0,0,0,.75-1.917,5.928,5.928,0,0,0-2.479-4.729,1.539,1.539,0,0,0-1.646-.1h0l11.146-6.417h.063l.625-.354.333-.187a1.546,1.546,0,0,1,1.646.125,5.937,5.937,0,0,1,2.458,4.562C143.571,307.372,143.571,307.435,143.571,307.476Z" transform="translate(-100.779 -239.497)"/>
              <path id="패스_670612" data-name="패스 670612" class="cls-28" d="M188.412,300.058a4.876,4.876,0,0,1-.062.833,2.9,2.9,0,0,1-.6,1.458,1.874,1.874,0,0,1-2.417.313l.792-.458a1.437,1.437,0,0,0,.542-.562,2.917,2.917,0,0,0,.313-1.437v-.167a5.937,5.937,0,0,0-2.458-4.562,1.591,1.591,0,0,0-1.646-.125l-.333.188a8.834,8.834,0,0,1-.437-.9,1.86,1.86,0,0,1,2.646-1.1l.4.188A5.375,5.375,0,0,1,186.579,295,8.788,8.788,0,0,1,188.412,300.058Z" transform="translate(-144.162 -232.225)"/>
              <g id="그룹_332415" data-name="그룹 332415" class="cls-8" transform="translate(49.083 52.521)">
                <g id="그룹_332414" data-name="그룹 332414" class="cls-29">
                  <path id="패스_670613" data-name="패스 670613" d="M250.959,254.133a48.48,48.48,0,0,0-12.062,6.479,2.279,2.279,0,0,1-2-.146l-.875-.479c-.583-.354-.625-.875-.1-1.146,4.208-3.25,8.25-5.521,12.063-6.479a2.279,2.279,0,0,1,2,.146l.875.479c.583.354.625.875.1,1.146" transform="translate(-235.563 -252.174)"/>
                </g>
              </g>
              <g id="그룹_332417" data-name="그룹 332417" class="cls-30" transform="translate(44.75 15.104)">
                <g id="그룹_332416" data-name="그룹 332416" class="cls-30">
                  <path id="패스_670614" data-name="패스 670614" class="cls-11" d="M217.942,148.162A1.229,1.229,0,0,1,217.3,148a1.724,1.724,0,0,1-.708-1.6V130.62a.312.312,0,0,1,.167-.271l3.979-2.292.167-.042.167.042a.313.313,0,0,1,.167.271V144.1a4.187,4.187,0,0,1-1.312,3.042,3.812,3.812,0,0,1-.854.708,2.208,2.208,0,0,1-1.1.354m-.146-22.042a1.458,1.458,0,0,1-.6-.125,1.586,1.586,0,0,1-.812-1.6,4.271,4.271,0,0,1,.688-2.271,4.833,4.833,0,0,1,1.667-1.667,2.542,2.542,0,0,1,1.25-.4,1.5,1.5,0,0,1,.625.125,1.593,1.593,0,0,1,.833,1.646,4.146,4.146,0,0,1-.708,2.229,4.938,4.938,0,0,1-1.687,1.667,2.563,2.563,0,0,1-1.25.4" transform="translate(-216.067 -110.183)"/>
                  <path id="패스_670615" data-name="패스 670615" class="cls-10" d="M218.637,119.1a1.188,1.188,0,0,1,.479.1q.646.292.646,1.354a3.813,3.813,0,0,1-.646,2.063,4.6,4.6,0,0,1-1.583,1.563,2.25,2.25,0,0,1-1.1.354,1.146,1.146,0,0,1-.479-.1,1.284,1.284,0,0,1-.646-1.312,3.938,3.938,0,0,1,.646-2.1,4.521,4.521,0,0,1,1.563-1.562,2.229,2.229,0,0,1,1.1-.354m.917,7.937v15.771a3.875,3.875,0,0,1-1.208,2.813,3.52,3.52,0,0,1-.792.646,1.938,1.938,0,0,1-.937.313.917.917,0,0,1-.479-.125,1.445,1.445,0,0,1-.542-1.333V129.353l3.979-2.292m-.917-8.562h0a2.854,2.854,0,0,0-1.417.438,5.146,5.146,0,0,0-1.771,1.771,4.583,4.583,0,0,0-.75,2.437,1.861,1.861,0,0,0,1,1.9,1.771,1.771,0,0,0,.729.146,2.833,2.833,0,0,0,1.417-.437,5.25,5.25,0,0,0,1.792-1.771,4.458,4.458,0,0,0,.75-2.4,1.9,1.9,0,0,0-1.021-1.937,1.833,1.833,0,0,0-.75-.146m.917,7.938a.625.625,0,0,0-.312.083l-3.979,2.292a.625.625,0,0,0-.312.542v15.771a2.022,2.022,0,0,0,.854,1.875,1.542,1.542,0,0,0,.813.229,2.521,2.521,0,0,0,1.25-.4,4.146,4.146,0,0,0,.938-.75,4.5,4.5,0,0,0,1.4-3.25V127.061a.625.625,0,0,0-.625-.625" transform="translate(-214.721 -108.916)"/>
                  <path id="패스_670616" data-name="패스 670616" class="cls-11" d="M252,106a3.333,3.333,0,0,1-1.792-.5c-1.4-.9-2.1-2.9-2.1-5.979a17.125,17.125,0,0,1,2.188-8.458,14.568,14.568,0,0,1,5.4-5.6,6.624,6.624,0,0,1,3.229-1.042V76.7a.313.313,0,0,1,.167-.271l3.979-2.292.167-.042.167.042a.313.313,0,0,1,.167.271V97.371a4.25,4.25,0,0,1-2.146,4,2.458,2.458,0,0,1-1.187.4,1.062,1.062,0,0,1-.979-.6,2.167,2.167,0,0,1-.208-.667c-.021,1.167-.771,2.333-2.208,3.479a8.793,8.793,0,0,1-1.167.812A7.636,7.636,0,0,1,252.016,106m5.917-17.1-.4.042a4.042,4.042,0,0,0-1.125.479,6.988,6.988,0,0,0-3.187,4.813,12.9,12.9,0,0,0-.271,2.792c0,1.708.271,2.833.813,3.354a1.187,1.187,0,0,0,.854.354,2.458,2.458,0,0,0,1.188-.4l.687-.458.708-.479a1.917,1.917,0,0,1,.938-.312.894.894,0,0,1,.875.792V90.787c0-1.9-.771-1.9-1.042-1.9" transform="translate(-241.162 -73.767)"/>
                  <path id="패스_670617" data-name="패스 670617" class="cls-10" d="M262.037,73.125V96.1a3.949,3.949,0,0,1-1.979,3.729,2.187,2.187,0,0,1-1.042.354q-.937,0-.937-1.75V89.521q0-2.208-1.354-2.208l-.479.063a4.312,4.312,0,0,0-1.208.5,7.275,7.275,0,0,0-3.333,5,13.145,13.145,0,0,0-.292,2.854q0,2.688.917,3.583a1.5,1.5,0,0,0,1.083.438,2.75,2.75,0,0,0,1.333-.438l.708-.479.688-.458a1.646,1.646,0,0,1,.771-.271q.6,0,.6,1.063,0,1.625-2.083,3.292a8.439,8.439,0,0,1-1.125.792,7.18,7.18,0,0,1-3.479,1.167,3.021,3.021,0,0,1-1.625-.437q-1.958-1.25-1.958-5.729a16.729,16.729,0,0,1,2.146-8.312,14.262,14.262,0,0,1,5.292-5.479,6.328,6.328,0,0,1,3.083-1h.292V75.438l3.979-2.292m0-.625a.625.625,0,0,0-.312.083L257.745,74.9a.625.625,0,0,0-.312.542v7.417a7.569,7.569,0,0,0-3.083,1.063,15.075,15.075,0,0,0-5.521,5.729,17.437,17.437,0,0,0-2.229,8.625c0,3.25.729,5.292,2.25,6.25a3.646,3.646,0,0,0,1.958.542,7.774,7.774,0,0,0,3.792-1.25,9.1,9.1,0,0,0,1.208-.833,6.342,6.342,0,0,0,2.125-2.646,1.292,1.292,0,0,0,1.083.5,2.75,2.75,0,0,0,1.354-.438,4.57,4.57,0,0,0,2.292-4.271v-23a.625.625,0,0,0-.625-.625m-8.625,26.646a.875.875,0,0,1-.646-.271c-.333-.312-.729-1.125-.729-3.125a12.582,12.582,0,0,1,.271-2.729,6.579,6.579,0,0,1,3.042-4.6,3.729,3.729,0,0,1,1.042-.437l.333-.042c.208,0,.729,0,.729,1.583v8.125a1.208,1.208,0,0,0-.562-.125,2.208,2.208,0,0,0-1.083.354l-.729.5-.646.438a2.167,2.167,0,0,1-1.021.354" transform="translate(-239.974 -72.5)"/>
                </g>
              </g>
              <path id="패스_670618" data-name="패스 670618" class="cls-11" d="M319.829,75.5l2.021.854-2.25,1.021Z" transform="translate(-253.017 -59.771)"/>
              <path id="패스_670619" data-name="패스 670619" class="cls-11" d="M295.046,195.767l.125-.167h.125l1.667.792-1.625.75-.437-.729Z" transform="translate(-233.463 -154.85)"/>
              <path id="패스_670620" data-name="패스 670620" class="cls-31" d="M228.942,153.462a1.229,1.229,0,0,1-.646-.167,1.724,1.724,0,0,1-.708-1.6V135.92a.313.313,0,0,1,.167-.271l3.979-2.292.167-.042.167.042a.313.313,0,0,1,.167.271V149.4a4.187,4.187,0,0,1-1.312,3.042,3.812,3.812,0,0,1-.854.708,2.208,2.208,0,0,1-1.1.354m-.146-22.042a1.458,1.458,0,0,1-.6-.125,1.586,1.586,0,0,1-.812-1.6,4.271,4.271,0,0,1,.688-2.271,4.833,4.833,0,0,1,1.667-1.667,2.542,2.542,0,0,1,1.25-.4,1.5,1.5,0,0,1,.625.125,1.593,1.593,0,0,1,.833,1.646,4.146,4.146,0,0,1-.708,2.229,4.938,4.938,0,0,1-1.687,1.667,2.562,2.562,0,0,1-1.25.4" transform="translate(-180.025 -99.274)"/>
              <path id="패스_670621" data-name="패스 670621" class="cls-10" d="M229.637,124.4a1.187,1.187,0,0,1,.479.1q.646.292.646,1.354a3.812,3.812,0,0,1-.646,2.063,4.6,4.6,0,0,1-1.583,1.562,2.25,2.25,0,0,1-1.1.354,1.146,1.146,0,0,1-.479-.1,1.284,1.284,0,0,1-.646-1.313,3.938,3.938,0,0,1,.646-2.1,4.521,4.521,0,0,1,1.563-1.562,2.229,2.229,0,0,1,1.1-.354m.917,7.937v15.771a3.875,3.875,0,0,1-1.208,2.813,3.521,3.521,0,0,1-.792.646,1.938,1.938,0,0,1-.937.313.917.917,0,0,1-.479-.125,1.445,1.445,0,0,1-.542-1.333V134.653l3.979-2.292m-.917-8.562h0a2.854,2.854,0,0,0-1.417.438,5.146,5.146,0,0,0-1.771,1.771,4.584,4.584,0,0,0-.75,2.438,1.861,1.861,0,0,0,1,1.9,1.771,1.771,0,0,0,.729.146,2.833,2.833,0,0,0,1.417-.437,5.25,5.25,0,0,0,1.792-1.771,4.458,4.458,0,0,0,.75-2.4,1.9,1.9,0,0,0-1.021-1.937,1.812,1.812,0,0,0-.75-.146m.917,7.937a.625.625,0,0,0-.312.083l-3.979,2.292a.625.625,0,0,0-.312.542v15.771a2.022,2.022,0,0,0,.854,1.875,1.542,1.542,0,0,0,.813.229,2.521,2.521,0,0,0,1.25-.4,4.146,4.146,0,0,0,.937-.75,4.5,4.5,0,0,0,1.4-3.25V132.34a.625.625,0,0,0-.625-.625" transform="translate(-178.679 -98.007)"/>
              <path id="패스_670622" data-name="패스 670622" class="cls-31" d="M263,111.217a3.333,3.333,0,0,1-1.792-.5c-1.4-.9-2.1-2.9-2.1-5.979a17.125,17.125,0,0,1,2.188-8.458,14.568,14.568,0,0,1,5.4-5.6,6.624,6.624,0,0,1,3.229-1.042V81.9a.313.313,0,0,1,.167-.271l3.979-2.292.167-.042.167.042a.313.313,0,0,1,.167.271v22.958a4.25,4.25,0,0,1-2.146,4,2.458,2.458,0,0,1-1.187.4,1.062,1.062,0,0,1-.979-.6,2.167,2.167,0,0,1-.208-.667c-.021,1.167-.771,2.333-2.208,3.479a8.771,8.771,0,0,1-1.167.813,7.636,7.636,0,0,1-3.646,1.208m5.917-17.1-.4.042a4.042,4.042,0,0,0-1.125.479,6.988,6.988,0,0,0-3.187,4.813,12.9,12.9,0,0,0-.271,2.792c0,1.708.271,2.833.813,3.354a1.187,1.187,0,0,0,.854.354,2.458,2.458,0,0,0,1.188-.4l.688-.458.708-.479a1.917,1.917,0,0,1,.938-.312.894.894,0,0,1,.875.792V96.008c0-1.9-.771-1.9-1.062-1.9" transform="translate(-205.12 -62.779)"/>
              <path id="패스_670623" data-name="패스 670623" class="cls-10" d="M272.957,78.425v22.958a3.949,3.949,0,0,1-1.979,3.729,2.188,2.188,0,0,1-1.042.354q-.937,0-.937-1.75v-8.9q0-2.208-1.375-2.208l-.479.063a4.333,4.333,0,0,0-1.208.5,7.275,7.275,0,0,0-3.333,5,13.146,13.146,0,0,0-.292,2.854q0,2.687.917,3.583a1.5,1.5,0,0,0,1.083.438,2.75,2.75,0,0,0,1.333-.437l.708-.479.688-.458a1.646,1.646,0,0,1,.771-.271q.6,0,.6,1.062,0,1.625-2.083,3.292a8.436,8.436,0,0,1-1.125.792,7.18,7.18,0,0,1-3.479,1.167,3.021,3.021,0,0,1-1.625-.438q-1.958-1.25-1.958-5.729a16.729,16.729,0,0,1,2.146-8.312,14.262,14.262,0,0,1,5.292-5.479,6.328,6.328,0,0,1,3.083-1h.292V80.717l3.979-2.292m0-.625a.625.625,0,0,0-.312.083l-3.979,2.292a.625.625,0,0,0-.312.542v7.417a7.569,7.569,0,0,0-3.083,1.063,15.075,15.075,0,0,0-5.521,5.729,17.438,17.438,0,0,0-2.229,8.625c0,3.25.729,5.292,2.25,6.25a3.646,3.646,0,0,0,1.958.542,7.774,7.774,0,0,0,3.792-1.25,9.105,9.105,0,0,0,1.208-.833,6.342,6.342,0,0,0,2.125-2.646,1.292,1.292,0,0,0,1.083.5,2.75,2.75,0,0,0,1.354-.437,4.57,4.57,0,0,0,2.292-4.271V78.425a.625.625,0,0,0-.625-.625m-8.6,26.625a.875.875,0,0,1-.646-.271c-.333-.312-.729-1.125-.729-3.125a12.6,12.6,0,0,1,.271-2.729,6.579,6.579,0,0,1,3.042-4.6,3.75,3.75,0,0,1,1.042-.437l.333-.042c.208,0,.75,0,.75,1.583v8.125a1.208,1.208,0,0,0-.562-.125,2.208,2.208,0,0,0-1.083.354l-.729.5-.646.438a2.167,2.167,0,0,1-1.021.354" transform="translate(-203.853 -61.592)"/>
              <line id="선_90976" data-name="선 90976" class="cls-31" x2="2.292" y2="1.104" transform="translate(66.917 15.417)"/>
              <line id="선_90977" data-name="선 90977" class="cls-25" x2="2.292" y2="1.104" transform="translate(66.917 15.417)"/>
              <line id="선_90978" data-name="선 90978" class="cls-31" x2="2.313" y2="1.083" transform="translate(62.5 17.896)"/>
              <line id="선_90979" data-name="선 90979" class="cls-32" x2="2.313" y2="1.083" transform="translate(62.5 17.896)"/>
              <line id="선_90980" data-name="선 90980" class="cls-31" x2="2.292" y2="1.104" transform="translate(62.333 25.646)"/>
              <line id="선_90981" data-name="선 90981" class="cls-25" x2="2.292" y2="1.104" transform="translate(62.333 25.646)"/>
              <line id="선_90982" data-name="선 90982" class="cls-31" x2="2.292" y2="1.083" transform="translate(53.875 46.938)"/>
              <line id="선_90983" data-name="선 90983" class="cls-25" x2="2.292" y2="1.083" transform="translate(53.875 46.938)"/>
              <line id="선_90984" data-name="선 90984" class="cls-31" x2="2.313" y2="1.083" transform="translate(61.854 40.438)"/>
              <line id="선_90985" data-name="선 90985" class="cls-32" x2="2.313" y2="1.083" transform="translate(61.854 40.438)"/>
              <line id="선_90986" data-name="선 90986" class="cls-31" x2="2.292" y2="1.083" transform="translate(49.208 25.063)"/>
              <line id="선_90987" data-name="선 90987" class="cls-25" x2="2.292" y2="1.083" transform="translate(49.208 25.063)"/>
              <line id="선_90988" data-name="선 90988" class="cls-31" x2="2.292" y2="1.104" transform="translate(45.667 30.812)"/>
              <line id="선_90989" data-name="선 90989" class="cls-25" x2="2.292" y2="1.104" transform="translate(45.667 30.812)"/>
              <line id="선_90990" data-name="선 90990" class="cls-31" x2="2.292" y2="1.104" transform="translate(49.688 32.917)"/>
              <line id="선_90991" data-name="선 90991" class="cls-25" x2="2.292" y2="1.104" transform="translate(49.688 32.917)"/>
              <line id="선_90992" data-name="선 90992" class="cls-31" x2="2.292" y2="1.104" transform="translate(45.292 35.396)"/>
              <line id="선_90993" data-name="선 90993" class="cls-25" x2="2.292" y2="1.104" transform="translate(45.292 35.396)"/>
              <line id="선_90994" data-name="선 90994" class="cls-31" x2="2.292" y2="1.083" transform="translate(45.958 52.938)"/>
              <line id="선_90995" data-name="선 90995" class="cls-25" x2="2.292" y2="1.083" transform="translate(45.958 52.938)"/>
              <path id="패스_670624" data-name="패스 670624" class="cls-11" d="M237.446,159.6l1.6.75-1.75,1.021Z" transform="translate(-187.863 -126.35)"/>
            </g>
          </g>
        </g>
      </g>
    </g>
  </g>
</svg>
