<svg xmlns="http://www.w3.org/2000/svg" xmlns:xlink="http://www.w3.org/1999/xlink" width="24" height="24.001" viewBox="0 0 24 24.001"><defs><style>.a{fill:none;}.b{fill:#006abd;}.c{clip-path:url(#a);}.d{fill:#006cbe;}.e{fill:#006ec0;}.f{fill:#0070c1;}.g{fill:#0072c3;}.h{fill:#0074c4;}.i{fill:#0076c6;}.j{fill:#0078c7;}.k{fill:#007ac9;}.l{fill:#007ccb;}.m{fill:#007ecc;}.n{fill:#0080ce;}.o{fill:#0082cf;}.p{fill:#0084d1;}.q{fill:#0087d2;}.r{fill:#0089d4;}.s{fill:#008cd6;}.t{fill:#008ed7;}.u{fill:#0090d9;}.v{fill:#0093da;}.w{fill:#0095dc;}.x{fill:#0098de;}.y{fill:#009adf;}.z{fill:#009de1;}.aa{fill:#00a0e3;}.ab{fill:#00a2e4;}.ac{fill:#00a5e6;}.ad{fill:#00a8e8;}.ae{fill:#00abe9;}.af{fill:#00aeeb;}.ag{fill:#09b0ec;}.ah{fill:#16b3ee;}.ai{fill:#27b5ee;}.aj{fill:#34b7ef;}.ak{fill:#3fbaef;}.al{fill:#49bcf0;}.am{fill:#52bff1;}.an{fill:#5bc1f1;}.ao{fill:#64c4f2;}.ap{fill:#6cc7f3;}.aq{fill:#74c9f3;}.ar{fill:#7bccf4;}.as{fill:#83cff5;}.at{fill:#8ad1f5;}.au{fill:#91d4f6;}.av{fill:#98d6f7;}.aw{fill:#9fd9f7;}.ax{fill:#a5dcf8;}.ay{fill:#acdef8;}.az{fill:#b2e1f9;}.ba{fill:#b9e3f9;}.bb{fill:#bfe5fa;}.bc{fill:#c5e8fa;}.bd{fill:#cbeafb;}.be{fill:#d1edfb;}.bf{fill:#d7effc;}.bg{fill:#ddf2fc;}.bh{fill:#e3f4fd;}.bi{fill:#e9f6fd;}.bj{fill:#eff9fe;}.bk{fill:#f5fbfe;}.bl{fill:#fafdff;}.bm{fill:#fff;}</style><clipPath id="a"><path class="a" d="M77.981,346.049a11.821,11.821,0,1,0-11.816-11.82A11.822,11.822,0,0,0,77.981,346.049Z" transform="translate(-66.165 -322.408)"/></clipPath></defs><g transform="translate(-309 -571)"><path class="b" d="M78.163,346.079a11.837,11.837,0,1,0-12-11.835A11.921,11.921,0,0,0,78.163,346.079Z" transform="translate(242.835 248.592)"/><g class="c" transform="translate(309 571.329)"><g transform="translate(-0.68 3.625)"><path class="b" d="M77.594,341.932c5.189,0,9.646,1.446,11.553,3.5a12.043,12.043,0,0,0,.985-4.78,12.546,12.546,0,0,0-25.086,0,11.955,11.955,0,0,0,.994,4.78C67.943,343.377,72.4,341.932,77.594,341.932Z" transform="translate(-65.046 -328.375)"/><path class="d" d="M77.612,342.013c5.176,0,9.622,1.434,11.524,3.473a11.9,11.9,0,0,0,.982-4.742,12.515,12.515,0,0,0-25.021,0,11.808,11.808,0,0,0,.991,4.742C67.986,343.446,72.431,342.013,77.612,342.013Z" transform="translate(-65.066 -328.443)"/><path class="e" d="M77.63,342.093c5.163,0,9.6,1.422,11.494,3.445a11.744,11.744,0,0,0,.98-4.7,12.484,12.484,0,0,0-24.957,0,11.659,11.659,0,0,0,.988,4.7C68.028,343.516,72.463,342.093,77.63,342.093Z" transform="translate(-65.086 -328.511)"/><path class="f" d="M77.648,342.174c5.15,0,9.573,1.411,11.465,3.416a11.586,11.586,0,0,0,.977-4.665,12.453,12.453,0,0,0-24.892,0,11.5,11.5,0,0,0,.985,4.665C68.071,343.585,72.495,342.174,77.648,342.174Z" transform="translate(-65.106 -328.578)"/><path class="g" d="M77.666,342.256c5.136,0,9.548,1.4,11.435,3.387a11.426,11.426,0,0,0,.975-4.626,12.423,12.423,0,0,0-24.828,0,11.352,11.352,0,0,0,.983,4.626C68.114,343.654,72.526,342.256,77.666,342.256Z" transform="translate(-65.125 -328.646)"/><path class="h" d="M77.684,342.336c5.123,0,9.524,1.387,11.405,3.36a11.272,11.272,0,0,0,.973-4.589,12.393,12.393,0,0,0-24.763,0,11.209,11.209,0,0,0,.98,4.589C68.157,343.723,72.557,342.336,77.684,342.336Z" transform="translate(-65.145 -328.714)"/><path class="i" d="M77.7,342.418c5.11,0,9.5,1.375,11.375,3.332a11.116,11.116,0,0,0,.971-4.55c0-6.456-5.53-11.787-12.346-11.787S65.349,334.743,65.349,341.2a11.064,11.064,0,0,0,.977,4.55C68.2,343.792,72.589,342.418,77.7,342.418Z" transform="translate(-65.165 -328.782)"/><path class="j" d="M77.72,342.5c5.1,0,9.475,1.363,11.346,3.3a10.969,10.969,0,0,0,.968-4.511c0-6.4-5.515-11.706-12.315-11.706s-12.32,5.3-12.32,11.706a10.907,10.907,0,0,0,.974,4.511C68.243,343.862,72.62,342.5,77.72,342.5Z" transform="translate(-65.185 -328.85)"/><path class="k" d="M77.738,342.58c5.083,0,9.45,1.351,11.316,3.274a10.813,10.813,0,0,0,.966-4.473c0-6.347-5.5-11.624-12.282-11.624S65.45,335.034,65.45,341.381a10.764,10.764,0,0,0,.972,4.473C68.285,343.931,72.652,342.58,77.738,342.58Z" transform="translate(-65.205 -328.917)"/><path class="l" d="M77.756,342.66c5.07,0,9.425,1.34,11.287,3.247a10.665,10.665,0,0,0,.964-4.435c0-6.293-5.486-11.543-12.251-11.543S65.5,335.179,65.5,341.473a10.625,10.625,0,0,0,.969,4.435C68.328,344,72.683,342.66,77.756,342.66Z" transform="translate(-65.225 -328.985)"/><path class="m" d="M77.774,342.742c5.057,0,9.4,1.328,11.257,3.218a10.508,10.508,0,0,0,.962-4.4c0-6.239-5.472-11.461-12.219-11.461s-12.223,5.222-12.223,11.461a10.481,10.481,0,0,0,.967,4.4C68.371,344.07,72.715,342.742,77.774,342.742Z" transform="translate(-65.244 -329.053)"/><path class="n" d="M77.792,342.822c5.044,0,9.376,1.316,11.228,3.19a10.367,10.367,0,0,0,.959-4.358c0-6.184-5.457-11.379-12.187-11.379s-12.19,5.2-12.19,11.379a10.33,10.33,0,0,0,.963,4.358C68.414,344.138,72.746,342.822,77.792,342.822Z" transform="translate(-65.264 -329.121)"/><path class="o" d="M77.81,342.9c5.031,0,9.351,1.3,11.2,3.161a10.213,10.213,0,0,0,.957-4.319c0-6.13-5.443-11.3-12.155-11.3s-12.158,5.168-12.158,11.3a10.186,10.186,0,0,0,.961,4.319C68.457,344.207,72.777,342.9,77.81,342.9Z" transform="translate(-65.284 -329.189)"/><path class="p" d="M77.828,342.984c5.017,0,9.327,1.293,11.168,3.134a10.067,10.067,0,0,0,.954-4.282c0-6.075-5.427-11.216-12.123-11.216S65.7,335.762,65.7,341.837a10.049,10.049,0,0,0,.958,4.282C68.5,344.277,72.809,342.984,77.828,342.984Z" transform="translate(-65.304 -329.257)"/><path class="q" d="M77.845,343.065c5.005,0,9.3,1.281,11.139,3.106a9.917,9.917,0,0,0,.953-4.243c0-6.02-5.413-11.134-12.092-11.134s-12.092,5.114-12.092,11.134a9.909,9.909,0,0,0,.956,4.243C68.543,344.346,72.841,343.065,77.845,343.065Z" transform="translate(-65.324 -329.324)"/><path class="r" d="M77.863,343.147c4.992,0,9.278,1.268,11.109,3.077a9.767,9.767,0,0,0,.95-4.2c0-5.966-5.4-11.053-12.059-11.053S65.8,336.053,65.8,342.019a9.759,9.759,0,0,0,.953,4.2C68.586,344.415,72.872,343.147,77.863,343.147Z" transform="translate(-65.344 -329.392)"/><path class="s" d="M77.881,343.228c4.978,0,9.254,1.256,11.08,3.048a9.626,9.626,0,0,0,.948-4.166c0-5.911-5.384-10.971-12.028-10.971S65.854,336.2,65.854,342.11a9.618,9.618,0,0,0,.95,4.166C68.628,344.484,72.9,343.228,77.881,343.228Z" transform="translate(-65.363 -329.46)"/><path class="t" d="M77.9,343.308c4.965,0,9.229,1.245,11.05,3.021a9.485,9.485,0,0,0,.945-4.128c0-5.857-5.37-10.889-12-10.889S65.905,336.345,65.905,342.2a9.485,9.485,0,0,0,.947,4.128C68.671,344.554,72.935,343.308,77.9,343.308Z" transform="translate(-65.383 -329.528)"/><path class="u" d="M77.917,343.389c4.952,0,9.2,1.233,11.021,2.993a9.338,9.338,0,0,0,.943-4.09c0-5.8-5.355-10.808-11.964-10.808s-11.962,5.006-11.962,10.808a9.346,9.346,0,0,0,.945,4.09C68.714,344.623,72.966,343.389,77.917,343.389Z" transform="translate(-65.403 -329.595)"/><path class="v" d="M77.935,343.471c4.939,0,9.18,1.221,10.991,2.964a9.19,9.19,0,0,0,.941-4.052c0-5.748-5.34-10.726-11.932-10.726s-11.929,4.978-11.929,10.726a9.2,9.2,0,0,0,.942,4.052C68.757,344.692,73,343.471,77.935,343.471Z" transform="translate(-65.423 -329.663)"/><path class="w" d="M77.954,343.551c4.926,0,9.156,1.21,10.962,2.936a9.062,9.062,0,0,0,.939-4.012c0-5.694-5.326-10.645-11.9-10.645s-11.9,4.951-11.9,10.645A9.064,9.064,0,0,0,67,346.487C68.8,344.761,73.03,343.551,77.954,343.551Z" transform="translate(-65.443 -329.731)"/><path class="x" d="M77.971,343.632c4.912,0,9.131,1.2,10.932,2.908a8.918,8.918,0,0,0,.936-3.974c0-5.639-5.311-10.563-11.868-10.563s-11.864,4.924-11.864,10.563a8.928,8.928,0,0,0,.936,3.974C68.843,344.831,73.061,343.632,77.971,343.632Z" transform="translate(-65.462 -329.799)"/><path class="y" d="M77.99,343.713c4.9,0,9.106,1.186,10.9,2.88a8.781,8.781,0,0,0,.934-3.937c0-5.584-5.3-10.481-11.836-10.481s-11.832,4.9-11.832,10.481a8.8,8.8,0,0,0,.933,3.937C68.886,344.9,73.093,343.713,77.99,343.713Z" transform="translate(-65.482 -329.867)"/><path class="z" d="M78.007,343.795c4.886,0,9.081,1.174,10.872,2.851a8.636,8.636,0,0,0,.932-3.9c0-5.53-5.282-10.4-11.8-10.4s-11.8,4.87-11.8,10.4a8.655,8.655,0,0,0,.931,3.9C68.928,344.969,73.124,343.795,78.007,343.795Z" transform="translate(-65.502 -329.934)"/><path class="aa" d="M78.026,343.875c4.873,0,9.057,1.163,10.843,2.823a8.5,8.5,0,0,0,.929-3.859c0-5.475-5.268-10.318-11.772-10.318s-11.767,4.843-11.767,10.318a8.521,8.521,0,0,0,.928,3.859C68.971,345.038,73.155,343.875,78.026,343.875Z" transform="translate(-65.522 -330.002)"/><path class="ab" d="M78.043,343.956c4.859,0,9.033,1.151,10.813,2.795a8.363,8.363,0,0,0,.927-3.821c0-5.421-5.253-10.237-11.74-10.237s-11.734,4.816-11.734,10.237a8.4,8.4,0,0,0,.925,3.821C69.014,345.107,73.186,343.956,78.043,343.956Z" transform="translate(-65.542 -330.07)"/><path class="ac" d="M78.062,344.037c4.847,0,9.008,1.138,10.784,2.767a8.228,8.228,0,0,0,.925-3.783c0-5.366-5.238-10.155-11.708-10.155s-11.7,4.789-11.7,10.155a8.268,8.268,0,0,0,.922,3.783C69.057,345.176,73.219,344.037,78.062,344.037Z" transform="translate(-65.562 -330.138)"/><path class="ad" d="M78.079,344.119c4.833,0,8.984,1.127,10.754,2.738a8.09,8.09,0,0,0,.923-3.745c0-5.311-5.224-10.073-11.677-10.073S66.41,337.8,66.41,343.112a8.129,8.129,0,0,0,.919,3.745C69.1,345.246,73.25,344.119,78.079,344.119Z" transform="translate(-65.581 -330.206)"/><path class="ae" d="M78.1,344.2c4.82,0,8.959,1.115,10.724,2.71a7.951,7.951,0,0,0,.92-3.706c0-5.257-5.209-9.992-11.644-9.992s-11.637,4.734-11.637,9.992a8,8,0,0,0,.916,3.706C69.142,345.315,73.281,344.2,78.1,344.2Z" transform="translate(-65.601 -330.274)"/><path class="af" d="M78.115,344.28c4.807,0,8.934,1.1,10.695,2.682a7.822,7.822,0,0,0,.918-3.668c0-5.2-5.195-9.91-11.613-9.91s-11.6,4.707-11.6,9.91a7.868,7.868,0,0,0,.914,3.668C69.185,345.383,73.313,344.28,78.115,344.28Z" transform="translate(-65.621 -330.341)"/><path class="ag" d="M78.134,344.362c4.794,0,8.91,1.092,10.665,2.654a7.69,7.69,0,0,0,.915-3.63c0-5.148-5.18-9.828-11.581-9.828s-11.572,4.68-11.572,9.828a7.744,7.744,0,0,0,.911,3.63C69.228,345.453,73.344,344.362,78.134,344.362Z" transform="translate(-65.641 -330.409)"/><path class="ah" d="M78.151,344.443c4.78,0,8.885,1.08,10.635,2.625a7.557,7.557,0,0,0,.914-3.591c0-5.094-5.166-9.747-11.549-9.747s-11.539,4.653-11.539,9.747a7.609,7.609,0,0,0,.908,3.591C69.271,345.522,73.375,344.443,78.151,344.443Z" transform="translate(-65.661 -330.477)"/><path class="ai" d="M78.162,344.535c4.774,0,8.873,1.073,10.621,2.609a7.481,7.481,0,0,0,.912-3.568c0-5.061-5.158-9.687-11.533-9.687s-11.524,4.626-11.524,9.687a7.526,7.526,0,0,0,.907,3.568C69.293,345.607,73.392,344.535,78.162,344.535Z" transform="translate(-65.671 -330.539)"/><path class="aj" d="M78.172,344.627c4.767,0,8.86,1.066,10.606,2.592a7.407,7.407,0,0,0,.911-3.545c0-5.027-5.152-9.626-11.517-9.626s-11.508,4.6-11.508,9.626a7.443,7.443,0,0,0,.906,3.545C69.316,345.693,73.409,344.627,78.172,344.627Z" transform="translate(-65.681 -330.601)"/><path class="ak" d="M78.182,344.719c4.761,0,8.849,1.06,10.592,2.575a7.334,7.334,0,0,0,.909-3.522c0-4.994-5.144-9.567-11.5-9.567s-11.493,4.573-11.493,9.567a7.364,7.364,0,0,0,.905,3.522C69.338,345.778,73.426,344.719,78.182,344.719Z" transform="translate(-65.691 -330.663)"/><path class="al" d="M78.193,344.811c4.754,0,8.836,1.052,10.577,2.558a7.255,7.255,0,0,0,.908-3.5c0-4.961-5.138-9.507-11.485-9.507s-11.478,4.547-11.478,9.507a7.283,7.283,0,0,0,.9,3.5C69.36,345.863,73.442,344.812,78.193,344.811Z" transform="translate(-65.701 -330.725)"/><path class="am" d="M78.2,344.9c4.748,0,8.824,1.046,10.563,2.541a7.18,7.18,0,0,0,.906-3.475c0-4.928-5.13-9.447-11.47-9.447s-11.462,4.519-11.462,9.447a7.2,7.2,0,0,0,.9,3.475C69.382,345.949,73.459,344.9,78.2,344.9Z" transform="translate(-65.711 -330.788)"/><path class="an" d="M78.214,344.995c4.741,0,8.812,1.039,10.548,2.525a7.107,7.107,0,0,0,.905-3.452c0-4.9-5.123-9.388-11.453-9.388s-11.447,4.493-11.447,9.388a7.12,7.12,0,0,0,.9,3.452C69.4,346.034,73.476,345,78.214,344.995Z" transform="translate(-65.722 -330.85)"/><path class="ao" d="M78.224,345.087c4.734,0,8.8,1.033,10.534,2.508a7.035,7.035,0,0,0,.9-3.429c0-4.862-5.116-9.328-11.437-9.328s-11.431,4.466-11.431,9.328a7.043,7.043,0,0,0,.9,3.429C69.426,346.12,73.493,345.088,78.224,345.087Z" transform="translate(-65.732 -330.912)"/><path class="ap" d="M78.235,345.179c4.728,0,8.787,1.026,10.519,2.491a6.959,6.959,0,0,0,.9-3.406c0-4.829-5.11-9.268-11.422-9.268s-11.417,4.439-11.417,9.268a6.965,6.965,0,0,0,.9,3.406C69.448,346.2,73.509,345.18,78.235,345.179Z" transform="translate(-65.742 -330.974)"/><path class="aq" d="M78.245,345.271c4.721,0,8.775,1.019,10.5,2.474a6.883,6.883,0,0,0,.9-3.383c0-4.8-5.1-9.208-11.406-9.208s-11.4,4.413-11.4,9.208a6.883,6.883,0,0,0,.9,3.383C69.471,346.29,73.526,345.272,78.245,345.271Z" transform="translate(-65.752 -331.036)"/><path class="ar" d="M78.256,345.363c4.714,0,8.763,1.012,10.49,2.458a6.814,6.814,0,0,0,.9-3.36c0-4.762-5.1-9.148-11.389-9.148S66.87,339.7,66.87,344.462a6.8,6.8,0,0,0,.9,3.36C69.493,346.375,73.543,345.365,78.256,345.363Z" transform="translate(-65.762 -331.098)"/><path class="as" d="M78.266,345.456c4.708,0,8.75,1,10.476,2.441a6.743,6.743,0,0,0,.9-3.336c0-4.729-5.088-9.088-11.374-9.088S66.9,339.832,66.9,344.56a6.728,6.728,0,0,0,.895,3.336C69.516,346.461,73.56,345.457,78.266,345.456Z" transform="translate(-65.772 -331.161)"/><path class="at" d="M78.276,345.548c4.7,0,8.738,1,10.46,2.424a6.662,6.662,0,0,0,.9-3.313c0-4.7-5.08-9.029-11.357-9.029s-11.355,4.333-11.355,9.029a6.648,6.648,0,0,0,.894,3.313C69.537,346.546,73.576,345.549,78.276,345.548Z" transform="translate(-65.782 -331.223)"/><path class="au" d="M78.286,345.64c4.695,0,8.726.991,10.447,2.408a6.593,6.593,0,0,0,.9-3.29c0-4.663-5.074-8.969-11.342-8.969s-11.339,4.305-11.339,8.969a6.573,6.573,0,0,0,.892,3.29C69.56,346.631,73.593,345.642,78.286,345.64Z" transform="translate(-65.792 -331.285)"/><path class="av" d="M78.3,345.731c4.688,0,8.713.985,10.431,2.391a6.523,6.523,0,0,0,.894-3.266c0-4.63-5.067-8.909-11.326-8.909s-11.324,4.279-11.324,8.909a6.5,6.5,0,0,0,.891,3.266C69.582,346.717,73.61,345.733,78.3,345.731Z" transform="translate(-65.802 -331.347)"/><path class="aw" d="M78.308,345.824c4.681,0,8.7.978,10.417,2.374a6.451,6.451,0,0,0,.892-3.243c0-4.6-5.06-8.849-11.31-8.849S67,340.358,67,344.955a6.418,6.418,0,0,0,.89,3.243C69.6,346.8,73.626,345.826,78.308,345.824Z" transform="translate(-65.813 -331.41)"/><path class="ax" d="M78.318,345.916c4.675,0,8.689.971,10.4,2.357a6.376,6.376,0,0,0,.891-3.22c0-4.563-5.053-8.789-11.293-8.789s-11.294,4.226-11.294,8.789a6.343,6.343,0,0,0,.889,3.22C69.627,346.888,73.643,345.918,78.318,345.916Z" transform="translate(-65.822 -331.471)"/><path class="ay" d="M78.328,346.008c4.669,0,8.677.965,10.388,2.341a6.309,6.309,0,0,0,.89-3.2c0-4.53-5.046-8.729-11.278-8.729s-11.278,4.2-11.278,8.729a6.268,6.268,0,0,0,.888,3.2C69.649,346.973,73.66,346.01,78.328,346.008Z" transform="translate(-65.833 -331.533)"/><path class="az" d="M78.339,346.1c4.661,0,8.664.958,10.373,2.324a6.24,6.24,0,0,0,.889-3.174c0-4.5-5.039-8.669-11.262-8.669s-11.263,4.172-11.263,8.669a6.2,6.2,0,0,0,.886,3.174C69.671,347.058,73.676,346.1,78.339,346.1Z" transform="translate(-65.843 -331.596)"/><path class="ba" d="M78.349,346.192c4.655,0,8.653.951,10.359,2.307a6.166,6.166,0,0,0,.887-3.15c0-4.464-5.031-8.61-11.246-8.61S67.1,340.885,67.1,345.349a6.116,6.116,0,0,0,.885,3.15C69.694,347.143,73.693,346.195,78.349,346.192Z" transform="translate(-65.853 -331.658)"/><path class="bb" d="M78.36,346.285c4.649,0,8.64.944,10.344,2.29a6.1,6.1,0,0,0,.886-3.127c0-4.431-5.024-8.549-11.23-8.549s-11.232,4.118-11.232,8.549a6.044,6.044,0,0,0,.883,3.127C69.716,347.229,73.71,346.287,78.36,346.285Z" transform="translate(-65.863 -331.72)"/><path class="bc" d="M78.37,346.376c4.642,0,8.628.937,10.33,2.274a6.027,6.027,0,0,0,.885-3.1c0-4.4-5.017-8.49-11.214-8.49s-11.217,4.092-11.217,8.49a5.971,5.971,0,0,0,.883,3.1C69.738,347.314,73.727,346.379,78.37,346.376Z" transform="translate(-65.873 -331.782)"/><path class="bd" d="M78.381,346.469c4.635,0,8.615.931,10.315,2.256a5.957,5.957,0,0,0,.883-3.081c0-4.365-5.011-8.43-11.2-8.43s-11.2,4.065-11.2,8.43a5.9,5.9,0,0,0,.881,3.081C69.76,347.4,73.744,346.471,78.381,346.469Z" transform="translate(-65.883 -331.844)"/><path class="be" d="M78.391,346.561c4.629,0,8.6.924,10.3,2.24a5.89,5.89,0,0,0,.881-3.058c0-4.331-5-8.37-11.182-8.37s-11.186,4.039-11.186,8.37a5.819,5.819,0,0,0,.88,3.058C69.783,347.485,73.76,346.564,78.391,346.561Z" transform="translate(-65.893 -331.907)"/><path class="bf" d="M78.4,346.653c4.622,0,8.591.917,10.286,2.223a5.818,5.818,0,0,0,.88-3.035c0-4.3-5-8.31-11.166-8.31s-11.171,4.012-11.171,8.31a5.751,5.751,0,0,0,.878,3.035C69.8,347.57,73.777,346.656,78.4,346.653Z" transform="translate(-65.904 -331.969)"/><path class="bg" d="M78.411,346.745c4.616,0,8.579.911,10.272,2.207a5.753,5.753,0,0,0,.879-3.012c0-4.265-4.989-8.25-11.151-8.25s-11.155,3.985-11.155,8.25a5.682,5.682,0,0,0,.878,3.012C69.827,347.656,73.793,346.749,78.411,346.745Z" transform="translate(-65.913 -332.031)"/><path class="bh" d="M78.422,346.837c4.608,0,8.566.9,10.256,2.189a5.682,5.682,0,0,0,.878-2.988c0-4.232-4.982-8.19-11.134-8.19s-11.14,3.958-11.14,8.19a5.605,5.605,0,0,0,.877,2.988C69.849,347.741,73.81,346.84,78.422,346.837Z" transform="translate(-65.924 -332.093)"/><path class="bi" d="M78.432,346.929c4.6,0,8.554.9,10.242,2.173a5.618,5.618,0,0,0,.876-2.965c0-4.2-4.975-8.131-11.118-8.131s-11.124,3.932-11.124,8.131a5.531,5.531,0,0,0,.875,2.965C69.872,347.826,73.827,346.933,78.432,346.929Z" transform="translate(-65.934 -332.155)"/><path class="bj" d="M78.443,347.021c4.6,0,8.542.89,10.228,2.157a5.553,5.553,0,0,0,.874-2.942c0-4.166-4.968-8.071-11.1-8.071s-11.109,3.905-11.109,8.071a5.468,5.468,0,0,0,.874,2.942C69.894,347.911,73.844,347.025,78.443,347.021Z" transform="translate(-65.944 -332.218)"/><path class="bk" d="M78.453,347.113c4.589,0,8.53.883,10.213,2.14a5.479,5.479,0,0,0,.874-2.919c0-4.132-4.961-8.011-11.087-8.011s-11.094,3.878-11.094,8.011a5.394,5.394,0,0,0,.873,2.919C69.916,348,73.86,347.117,78.453,347.113Z" transform="translate(-65.954 -332.28)"/><path class="bl" d="M78.464,347.206c4.582,0,8.517.876,10.2,2.123a5.42,5.42,0,0,0,.872-2.9c0-4.1-4.954-7.95-11.07-7.95s-11.079,3.851-11.079,7.95a5.327,5.327,0,0,0,.872,2.9C69.938,348.082,73.877,347.209,78.464,347.206Z" transform="translate(-65.964 -332.342)"/><path class="bm" d="M78.474,347.3c4.576,0,8.5.87,10.184,2.106a5.351,5.351,0,0,0,.871-2.873c0-4.066-4.947-7.891-11.055-7.891s-11.063,3.825-11.063,7.891a5.252,5.252,0,0,0,.871,2.873C69.961,348.168,73.894,347.3,78.474,347.3Z" transform="translate(-65.974 -332.404)"/></g></g><path class="b" d="M78.842,346.776a32.881,32.881,0,0,0-10.993,1.79,12.255,12.255,0,0,0,22,0A32.928,32.928,0,0,0,78.842,346.776Z" transform="translate(242.151 239.581)"/></g></svg>