<svg xmlns="http://www.w3.org/2000/svg" xmlns:xlink="http://www.w3.org/1999/xlink" width="80.627" height="83.826"><defs><clipPath id="clip-path"><path id="사각형_37487" data-name="사각형 37487" class="cls-1" d="M0 0h15.767v20.497H0z"/></clipPath><clipPath id="clip-path-2"><path id="사각형_235245" data-name="사각형 235245" class="cls-1" d="M0 0h80v80H0z"/></clipPath><clipPath id="clip-path-4"><path id="사각형_235221" data-name="사각형 235221" class="cls-1" d="M0 0h24.8v11.54H0z"/></clipPath><clipPath id="clip-path-5"><path id="사각형_235222" data-name="사각형 235222" class="cls-1" d="M0 0h11.66v7.604H0z"/></clipPath><clipPath id="clip-path-7"><path id="사각형_235224" data-name="사각형 235224" class="cls-1" d="M0 0h3.98v10.694H0z"/></clipPath><clipPath id="clip-path-8"><path id="사각형_235225" data-name="사각형 235225" class="cls-1" d="M0 0h68.74v42.052H0z"/></clipPath><clipPath id="clip-path-9"><path id="패스_620633" data-name="패스 620633" class="cls-1" d="M200.2 275.86a5.815 5.815 0 002.64 4.58c1.5.9 2.66.02 2.64-1.54a6.079 6.079 0 00-2.64-4.58 2.06 2.06 0 00-1.06-.32 1.643 1.643 0 00-1.58 1.86" transform="translate(-200.198 -274)"/></clipPath><clipPath id="clip-path-11"><path id="사각형_235228" data-name="사각형 235228" class="cls-1" d="M0 0h4.28v6.432H0z"/></clipPath><clipPath id="clip-path-12"><path id="패스_620640" data-name="패스 620640" class="cls-1" d="M37.6 183.86a5.815 5.815 0 002.64 4.58c1.5.9 2.66.02 2.64-1.54a6.079 6.079 0 00-2.64-4.58 2.06 2.06 0 00-1.06-.32 1.643 1.643 0 00-1.58 1.86" transform="translate(-37.598 -182)"/></clipPath><clipPath id="clip-path-15"><path id="사각형_235232" data-name="사각형 235232" class="cls-1" d="M0 0h65.66v31.918H0z"/></clipPath><clipPath id="clip-path-16"><path id="사각형_235233" data-name="사각형 235233" class="cls-1" d="M0 0h3.68v1.204H0z"/></clipPath><clipPath id="clip-path-17"><path id="사각형_235234" data-name="사각형 235234" class="cls-1" d="M0 0h12.4v8.606H0z"/></clipPath><clipPath id="clip-path-18"><path id="사각형_235235" data-name="사각형 235235" class="cls-1" d="M0 0h19.24v3.556H0z"/></clipPath><clipPath id="clip-path-19"><path id="사각형_235236" data-name="사각형 235236" class="cls-1" d="M0 0h3.12v4.728H0z"/></clipPath><clipPath id="clip-path-20"><path id="사각형_235237" data-name="사각형 235237" class="cls-1" d="M0 0h2.78v5.386H0z"/></clipPath><clipPath id="clip-path-21"><path id="사각형_235238" data-name="사각형 235238" class="cls-1" d="M0 0h9.12v11.078H0z"/></clipPath><clipPath id="clip-path-22"><path id="사각형_235239" data-name="사각형 235239" class="cls-1" d="M0 0h4.54v4.13H0z"/></clipPath><clipPath id="clip-path-23"><path id="사각형_235240" data-name="사각형 235240" class="cls-1" d="M0 0h3.68v2.98H0z"/></clipPath><linearGradient id="linear-gradient" x1=".317" y1=".038" x2=".669" y2="1" gradientUnits="objectBoundingBox"><stop offset="0" stop-color="#04a0f3"/><stop offset="1" stop-color="#45d49a"/></linearGradient><linearGradient id="linear-gradient-2" x1="-4.328" y1="2.916" x2="-4.305" y2="2.916" gradientUnits="objectBoundingBox"><stop offset="0" stop-color="#c1c0c0"/><stop offset="1" stop-color="#dedddc"/></linearGradient><linearGradient id="linear-gradient-3" x1="-.649" y1="4.979" x2="-.627" y2="4.979" xlink:href="#linear-gradient-2"/><filter id="타원_1500" x="19.627" y="0" width="61" height="61" filterUnits="userSpaceOnUse"><feOffset dy="6"/><feGaussianBlur stdDeviation="3" result="blur"/><feFlood flood-color="#18b2d9" flood-opacity=".102"/><feComposite operator="in" in2="blur"/><feComposite in="SourceGraphic"/></filter><filter id="패스_132435" x="40.986" y="20.651" width="17.767" height="19.767" filterUnits="userSpaceOnUse"><feOffset dx="2" dy="4"/><feGaussianBlur result="blur-2"/><feFlood flood-opacity=".078"/><feComposite operator="in" in2="blur-2"/><feComposite in="SourceGraphic"/></filter><style>.cls-1,.cls-16,.cls-49,.cls-54,.cls-57,.cls-64{fill:none}.cls-3{fill:#fff}.cls-6{clip-path:url(#clip-path-2)}.cls-7{opacity:.05}.cls-10{fill:#3673ee}.cls-11{opacity:.2}.cls-16,.cls-49,.cls-54,.cls-57,.cls-64{stroke:#222;stroke-linecap:round}.cls-16,.cls-64{stroke-miterlimit:10}.cls-14{fill:#222}.cls-16{stroke-width:.5px}.cls-23{fill:#cccbca}.cls-24{opacity:.5}.cls-25{clip-path:url(#clip-path-11)}.cls-36{fill:#f8483b}.cls-49,.cls-54,.cls-57{stroke-linejoin:round}.cls-42{fill:#e4eff5}.cls-44{opacity:.15}.cls-46{fill:#111}.cls-49,.cls-54,.cls-57,.cls-64{stroke-width:.5px}.cls-68{fill:#dbdbdb}</style></defs><g id="그룹_334893" data-name="그룹 334893" transform="translate(-205 -387.174)"><g transform="translate(205 387.17)" filter="url(#타원_1500)"><g id="타원_1500-2" data-name="타원 1500" transform="translate(28.63 3)" stroke="rgba(4,160,243,.3)" fill="url(#linear-gradient)"><circle cx="21.5" cy="21.5" r="21.5" stroke="none"/><circle class="cls-1" cx="21.5" cy="21.5" r="21"/></g></g><g id="그룹_25870" data-name="그룹 25870" transform="translate(236 395.736)"><g transform="translate(-31 -8.56)" filter="url(#패스_132435)"><path id="패스_132435-2" data-name="패스 132435" class="cls-3" d="M14.893 24.514a4.2 4.2 0 01-7.006 3.132 2.587 2.587 0 01-.352.021 3.6 3.6 0 01-2.023-.61h-.006a4.144 4.144 0 01-2.176.61 4.2 4.2 0 010-8.409c.058 0 .121 0 .179.005a3.16 3.16 0 012.975-2.108 3.262 3.262 0 01.725.084A3.4 3.4 0 017.8 16.7a2.1 2.1 0 113.411-1.645 2.049 2.049 0 01-.431 1.267 3.159 3.159 0 012.008 2.938 3.127 3.127 0 01-.347 1.435 4.211 4.211 0 012.452 3.819z" transform="translate(41.86 7.7)"/></g><g id="그룹_25744" data-name="그룹 25744" transform="translate(9.985 7.358)"><g id="그룹_25869" data-name="그룹 25869" clip-path="url(#clip-path)"><path id="패스_132510" data-name="패스 132510" class="cls-3" d="M17.1 9a2.1 2.1 0 11-2.1 2.1A2.1 2.1 0 0117.1 9" transform="translate(-7.117 -4.27)"/><path id="패스_132511" data-name="패스 132511" class="cls-3" d="M12.577 0A1.577 1.577 0 1111 1.577 1.577 1.577 0 0112.577 0" transform="translate(-5.219)"/><path id="패스_132512" data-name="패스 132512" class="cls-3" d="M11.153 17A3.153 3.153 0 118 20.153 3.153 3.153 0 0111.153 17" transform="translate(-3.796 -8.066)"/><path id="패스_132513" data-name="패스 132513" class="cls-3" d="M4.2 21A4.2 4.2 0 110 25.2 4.2 4.2 0 014.2 21" transform="translate(0 -9.963)"/><path id="패스_132514" data-name="패스 132514" class="cls-3" d="M18.2 23a4.2 4.2 0 11-4.2 4.2 4.2 4.2 0 014.2-4.2" transform="translate(-6.642 -10.912)"/><path id="패스_132515" data-name="패스 132515" class="cls-3" d="M17.153 15A3.153 3.153 0 1114 18.153 3.153 3.153 0 0117.153 15" transform="translate(-6.642 -7.117)"/></g></g><circle id="타원_2440" data-name="타원 2440" class="cls-3" cx="3.679" cy="3.679" r="3.679"/></g><g id="손세차" transform="translate(245 431)"><g id="손세차-2" data-name="손세차" transform="translate(-40 -40)" style="isolation:isolate"><g id="Layer_1" data-name="Layer 1"><g id="그룹_300350" data-name="그룹 300350" class="cls-6"><g id="그룹_300318" data-name="그룹 300318" class="cls-6"><g id="그룹_300315" data-name="그룹 300315" class="cls-7" transform="translate(5.74 56.9)"><g id="그룹_300314" data-name="그룹 300314" clip-path="url(#clip-path-4)"><path id="패스_620616" data-name="패스 620616" d="M52.7 284.805l-.24-.14a1.6 1.6 0 00-1.58 0l-7.3 3.96a4.46 4.46 0 00-3.3-1.36 4.3 4.3 0 00-3.56 1.7 1.6 1.6 0 00-.8.2l-6.46 3.84a1.52 1.52 0 000 2.66l.24.14a1.6 1.6 0 001.58 0l5.56-3.3a4.371 4.371 0 003.46 1.56 4.542 4.542 0 003.82-2.12 1.6 1.6 0 00.76-.2l7.82-4.26a1.52 1.52 0 000-2.66" transform="translate(-28.683 -284.465)"/></g></g><g id="그룹_300317" data-name="그룹 300317" class="cls-7" transform="translate(65.98 43.16)"><g id="그룹_300316" data-name="그룹 300316" clip-path="url(#clip-path-5)"><path id="패스_620617" data-name="패스 620617" d="M341.48 219.6c0 2.1-2.62 3.8-5.84 3.8s-5.84-1.7-5.84-3.8 2.62-3.8 5.84-3.8 5.84 1.7 5.84 3.8" transform="translate(-329.82 -215.8)"/></g></g></g><path id="패스_620618" data-name="패스 620618" class="cls-3" d="M360.8 233.5l1.98.04v1.1h-1.9z" transform="translate(-288.64 -186.8)"/><g id="그룹_300323" data-name="그룹 300323" class="cls-6"><path id="패스_620619" data-name="패스 620619" class="cls-10" d="M336.76 164.94c-.06.4-.14 1.94-.7 1.94s-.8.18-.98-.06l-.42-.26-.74-.34v-1.38l-.22-7.58a1.88 1.88 0 00-1.28-1.46l-2.44 10.28-2.18-2.86.98-10.72.12-.1a3.338 3.338 0 002.64 1.08 4.036 4.036 0 003.92-2.42 1.2 1.2 0 00-.08-.96 12.452 12.452 0 011.84 5.76z" transform="translate(-262.24 -120.08)"/><g id="그룹_300320" data-name="그룹 300320" class="cls-11" transform="translate(65.98 32.4)"><g id="그룹_300319" data-name="그룹 300319" clip-path="url(#clip-path-7)"><path id="패스_620620" data-name="패스 620620" d="M333.88 165.26l-.38-2.3-3.06-.96-.54 6.14 2.54 4.56z" transform="translate(-329.9 -162)"/></g></g><path id="패스_620621" data-name="패스 620621" d="M66.52 32.4l-.96 10.72 2.3 2.86 2.3-10.16" stroke-width=".5" stroke-miterlimit="10" stroke-linecap="round" stroke="#222" fill="none"/><path id="패스_620622" data-name="패스 620622" class="cls-14" d="M346.16 179.74l.52-1.4-.98-.24z" transform="translate(-276.56 -142.48)"/><path id="패스_620623" data-name="패스 620623" d="M73.26 30.32a7.931 7.931 0 011.72 5.44 4.9 4.9 0 00-.04.54l-.5 9.46" stroke-width=".5" stroke-miterlimit="10" stroke-linecap="round" stroke="#222" fill="none"/><path id="패스_620624" data-name="패스 620624" class="cls-14" d="M353.939 234.02l.16 1.24a.46.46 0 01-.18.42l-2.12 1.58a1.22 1.22 0 01-1.36.08l-.48-.28a.48.48 0 01-.24-.34l-.04-.28a.64.64 0 01.26-.6l2.06-1.58a.888.888 0 001.06.6c.54-.06.92-.44.86-.86" transform="translate(-279.739 -187.2)"/><path id="패스_620625" data-name="패스 620625" class="cls-16" d="M361.58 229a1.39 1.39 0 01-2.68 0" transform="translate(-287.12 -183.2)"/><path id="패스_620626" data-name="패스 620626" d="M74.18 46.54v.56a.885.885 0 01-.96.74.87.87 0 01-.96-.74l-.06-.58" stroke-width=".4" stroke-miterlimit="10" stroke-linecap="round" stroke="#222" fill="none"/><path id="패스_620627" data-name="패스 620627" d="M72.32 47.06l-2.1 1.6a.66.66 0 00-.26.6l.04.28a.48.48 0 00.24.34l.48.28a1.22 1.22 0 001.36-.08l2.1-1.6a.46.46 0 00.18-.42l-.2-1.56" stroke-width=".4" stroke-miterlimit="10" stroke="#222" fill="none"/><g id="그룹_300322" data-name="그룹 300322" transform="translate(2 23.02)" style="mix-blend-mode:multiply;isolation:isolate" opacity=".1"><g id="그룹_300321" data-name="그룹 300321" clip-path="url(#clip-path-8)"><path id="패스_620628" data-name="패스 620628" d="M11.549 126.64c3.76-2.58 21.1-11.54 21.1-11.54l44.52 27.62s3.3 2.08.16 3.94c-4.34 2.56-15 8.9-17.34 10.24-1.88 1.06-8.5-1.4-8.5-1.4l-38.86-22.48s-5.2-3.56-1.08-6.36" transform="translate(-9.969 -115.1)"/></g></g><path id="패스_620629" data-name="패스 620629" d="M188.62 261.08l.74 1.82.72.34 3.3-4.72-3.3-.42-1.78 1.4z" transform="translate(-150.64 -206.48)"/><path id="패스_620630" data-name="패스 620630" class="cls-14" d="M196.06 258.787l2.96-1.7a2.77 2.77 0 012.76.28 8.658 8.658 0 013.92 6.8 2.779 2.779 0 01-1.16 2.56l-2.96 1.7a2.772 2.772 0 01-2.76-.28 8.712 8.712 0 01-3.92-6.8 2.72 2.72 0 011.16-2.54" transform="translate(-155.92 -205.467)"/><path id="패스_620631" data-name="패스 620631" class="cls-14" d="M194.9 268.127a8.712 8.712 0 003.92 6.8 2.389 2.389 0 003.92-2.26 8.712 8.712 0 00-3.92-6.8 2.389 2.389 0 00-3.92 2.26" transform="translate(-155.92 -212.267)"/><path id="패스_620632" data-name="패스 620632" class="cls-14" d="M195.6 269.9a8.012 8.012 0 003.64 6.3 2.536 2.536 0 002.56.26 2.568 2.568 0 001.08-2.36 8.012 8.012 0 00-3.64-6.3 2.536 2.536 0 00-2.56-.26 2.568 2.568 0 00-1.08 2.36" transform="translate(-156.48 -213.84)"/></g><g id="그룹_300324" data-name="그룹 300324" transform="translate(40.04 54.8)" clip-path="url(#clip-path-9)"><path id="사각형_235227" data-name="사각형 235227" transform="rotate(-43.2 2.433 6.247)" fill="url(#linear-gradient-2)" d="M0 0h8.84v8.926H0z"/></g><g id="그룹_300327" data-name="그룹 300327" class="cls-6"><path id="패스_620634" data-name="패스 620634" class="cls-23" d="M200.7 276.95a5.547 5.547 0 002.5 4.36c1.42.86 2.54.02 2.5-1.46a5.52 5.52 0 00-2.5-4.36 1.562 1.562 0 00-2.5 1.46" transform="translate(-160.556 -220.15)"/><g id="그룹_300326" data-name="그룹 300326" class="cls-24" transform="translate(40.14 55.02)"><g id="그룹_300325" data-name="그룹 300325" class="cls-25"><path id="패스_620635" data-name="패스 620635" class="cls-3" d="M202.218 275.1a1.579 1.579 0 00-1.16 1.72 5.448 5.448 0 002.48 4.3 1.72 1.72 0 001.52.2 1.663 1.663 0 01-1.76-.1 5.442 5.442 0 01-2.5-4.36 1.555 1.555 0 011.44-1.76" transform="translate(-200.778 -275.1)"/></g></g><path id="패스_620636" data-name="패스 620636" d="M26.02 168.98l.74 1.84.72.34 3.3-4.74-3.3-.42-1.78 1.4z" transform="translate(-20.56 -132.8)"/><path id="패스_620637" data-name="패스 620637" class="cls-14" d="M33.46 166.687l2.96-1.7a2.77 2.77 0 012.76.28 8.658 8.658 0 013.92 6.8 2.779 2.779 0 01-1.16 2.56l-2.96 1.7a2.772 2.772 0 01-2.76-.28 8.712 8.712 0 01-3.92-6.8 2.72 2.72 0 011.16-2.54" transform="translate(-25.84 -131.787)"/><path id="패스_620638" data-name="패스 620638" class="cls-14" d="M32.3 175.947a8.712 8.712 0 003.92 6.8 2.772 2.772 0 002.76.28 2.776 2.776 0 001.16-2.56 8.712 8.712 0 00-3.92-6.8 2.772 2.772 0 00-2.76-.28 2.762 2.762 0 00-1.16 2.54" transform="translate(-25.84 -138.507)"/><path id="패스_620639" data-name="패스 620639" class="cls-14" d="M33 177.8a8.012 8.012 0 003.64 6.3 2.536 2.536 0 002.56.26 2.568 2.568 0 001.08-2.36 8.012 8.012 0 00-3.64-6.3 2.536 2.536 0 00-2.56-.26A2.568 2.568 0 0033 177.8" transform="translate(-26.4 -140.16)"/></g><g id="그룹_300328" data-name="그룹 300328" transform="translate(7.52 36.4)" clip-path="url(#clip-path-12)"><path id="사각형_235230" data-name="사각형 235230" transform="rotate(-43.2 2.453 6.25)" fill="url(#linear-gradient-3)" d="M0 0h8.84v8.926H0z"/></g><g id="그룹_300349" data-name="그룹 300349" class="cls-6"><path id="패스_620641" data-name="패스 620641" class="cls-23" d="M38.1 184.85a5.547 5.547 0 002.5 4.36c1.42.86 2.54.02 2.5-1.46a5.52 5.52 0 00-2.5-4.36 1.562 1.562 0 00-2.5 1.46" transform="translate(-30.476 -146.47)"/><g id="그룹_300330" data-name="그룹 300330" class="cls-24" transform="translate(7.62 36.62)"><g id="그룹_300329" data-name="그룹 300329" class="cls-25"><path id="패스_620642" data-name="패스 620642" class="cls-3" d="M39.618 183.1a1.579 1.579 0 00-1.16 1.72 5.46 5.46 0 002.48 4.3 1.72 1.72 0 001.52.2 1.663 1.663 0 01-1.76-.1 5.442 5.442 0 01-2.5-4.36 1.555 1.555 0 011.44-1.76" transform="translate(-38.178 -183.1)"/></g></g><path id="패스_620643" data-name="패스 620643" class="cls-3" d="M20.857 98.255c.66-.84 3.08-3.18 3.08-3.18a12.44 12.44 0 012.74-2.54c1.74-1.2 7.5-4.56 11.7-5.5a15.36 15.36 0 013.8-.54 8.68 8.68 0 013.22.56l4.88 1.9a30.292 30.292 0 014.78.68 36.876 36.876 0 016.52 2.6c2.12 1.04 7.02 4.48 10.06 6.44a58.825 58.825 0 017.66 6.36l2 1.96a22.512 22.512 0 012.32 2.26 19.907 19.907 0 011.16 2.98 19.8 19.8 0 011.02 3.04 5.356 5.356 0 010 1.84 2.7 2.7 0 01-.3 2.22c-.68 1.04-5 4.06-8.02 5.96a91.691 91.691 0 01-9.8 5 7.26 7.26 0 01-3.58.1 10.773 10.773 0 00-4.8-8.1c-2.52-1.46-5.08-.66-4.2 2.98l-22.98-13c-.48-2.96-2.76-7.46-5.28-8.92s-5.28-.3-3.82 3.7a17.73 17.73 0 01-1.9-2.86 2.62 2.62 0 01-.16-1.86s-.74-3.24-.1-4.08" transform="translate(-16.477 -69.195)"/><path id="패스_620644" data-name="패스 620644" d="M20.822 98.255c.66-.84 3.08-3.18 3.08-3.18a12.44 12.44 0 012.74-2.54c1.74-1.2 7.5-4.56 11.7-5.5a15.36 15.36 0 013.8-.54 8.68 8.68 0 013.22.56l4.88 1.9a30.292 30.292 0 014.78.68 36.876 36.876 0 016.52 2.6c2.12 1.04 7.02 4.48 10.06 6.44a58.825 58.825 0 017.66 6.36l2 1.96a22.513 22.513 0 012.32 2.26 19.906 19.906 0 011.16 2.98 19.8 19.8 0 011.02 3.04 5.356 5.356 0 010 1.84 2.7 2.7 0 01-.3 2.22c-.68 1.04-5 4.06-8.02 5.96a91.691 91.691 0 01-9.8 5 7.26 7.26 0 01-3.58.1 10.773 10.773 0 00-4.8-8.1c-2.52-1.46-5.08-.66-4.2 2.98l-22.98-13c-.48-2.96-2.76-7.46-5.28-8.92s-5.28-.3-3.82 3.7a17.73 17.73 0 01-1.9-2.86 2.62 2.62 0 01-.16-1.86s-.76-3.22-.1-4.08z" transform="translate(-16.442 -69.195)" stroke-miterlimit="10" stroke="#222" fill="none"/><g id="그룹_300332" data-name="그룹 300332" transform="translate(3.92 29.82)" style="mix-blend-mode:multiply;isolation:isolate" opacity=".18"><g id="그룹_300331" data-name="그룹 300331" clip-path="url(#clip-path-15)"><path id="패스_620645" data-name="패스 620645" d="M84.615 170.06c-.68 1.04-5.22 3.7-8.24 5.6a91.7 91.7 0 01-9.8 5 7.28 7.28 0 01-3.58.1 10.773 10.773 0 00-4.8-8.1c-2.52-1.46-5.08-.66-4.2 2.98l-22.94-12.98c-.48-2.96-2.76-7.46-5.28-8.92s-5.28-.3-3.82 3.7a20.259 20.259 0 01-1.9-2.86 2.62 2.62 0 01-.18-1.86 11.065 11.065 0 01-.26-3.72 3.5 3.5 0 00.24.56 5.86 5.86 0 00.92 1.28 4.74 4.74 0 00.58.54.44.44 0 00.7-.44l-.32-1.48 2.48.86c1 .14 3.42.52 5.28.94 2.4.56 3.6-.46 5.98-.76a24.585 24.585 0 0110.18.5c4.38 1.34 9.82 5.3 11.74 7a27.835 27.835 0 013.76 4.42l2.06 4.46 1.46-.12 16.1-9.02a3.823 3.823 0 011.98 1.8 7.4 7.4 0 01-.1 1.58 37.344 37.344 0 01-.48 4.08c.58-.28 1.48-1.46 2.06-1.74a9.439 9.439 0 01.64 1.98c.22 1.16.26 2.02.3 2.22z" transform="translate(-19.535 -149.02)"/></g></g><path id="패스_620646" data-name="패스 620646" class="cls-14" d="M225.1 175.48a16.967 16.967 0 001.06 3.5c.64 1.28 1.52 3 2.02 3.3a5.213 5.213 0 003.64.06c1.54-.52 5.48-2.82 8.02-4.18s5.92-4.14 5.98-5.24-2.02-2.82-2.18-2.98l-3.76-3.54-8.5 5.32z" transform="translate(-180.08 -133.12)"/><path id="패스_620647" data-name="패스 620647" class="cls-14" d="M230.8 183.44a5.58 5.58 0 001.78-.28 56.107 56.107 0 005.72-2.92l2.26-1.24c2.7-1.44 5.84-4.16 5.88-5.1.02-.42-.32-1.22-2.02-2.74l-.12-.1-3.66-3.46-8.36 5.22-6.18 3.7a16.226 16.226 0 001.02 3.34 14.368 14.368 0 001.94 3.24 2.97 2.97 0 001.72.32" transform="translate(-180.88 -134.08)"/><path id="패스_620648" data-name="패스 620648" class="cls-14" d="M84.7 108.763s-3.52-.06-5.76.02-5.04.64-5.76.56-1.54-.36-1.58-.96 1.24-4.1 5.12-6.28a26.824 26.824 0 0110.26-3.66 12.709 12.709 0 013.96.08s3.02.34 4.42.64a24.34 24.34 0 013.24 1.1 69.46 69.46 0 00-6.62 3 33.115 33.115 0 00-7.3 5.48" transform="translate(-57.276 -78.683)"/><path id="패스_620649" data-name="패스 620649" class="cls-14" d="M81.64 102.54A33.023 33.023 0 0191.8 99.7l.48.08h.04c.04 0 3.04.34 4.4.64a15.139 15.139 0 012.66.98c-.98.4-3.68 1.52-6.08 2.8a33.631 33.631 0 00-7.3 5.46h-2.5l-3.2.04c-1.18.04-2.52.22-3.6.36a17.16 17.16 0 01-1.96.2h-.16a2.353 2.353 0 01-1.28-.5c.46-1.12 2.36-4.68 8.36-7.22" transform="translate(-58.64 -79.76)"/><g id="그룹_300334" data-name="그룹 300334" transform="translate(36.38 21.7)" opacity=".7"><g id="그룹_300333" data-name="그룹 300333" clip-path="url(#clip-path-16)"><path id="패스_620650" data-name="패스 620650" class="cls-14" d="M181.977 108.5c.5 0 2.7.16 3.6.22l-2.28.98c-.76-.52-1.72-1.2-1.34-1.2" transform="translate(-181.877 -108.5)"/></g></g><path id="패스_620651" data-name="패스 620651" class="cls-14" d="M172.5 182.418c0 .4-.62 1.32-2.1 1.7a5.86 5.86 0 01-1.46.16 10.9 10.9 0 01-2.26-.26 17.379 17.379 0 01-2.54-.78l-1.54-.8a.6.6 0 01-.3-.7 48.771 48.771 0 011.68-4.98 1.22 1.22 0 011.84-.5h.02c2.98 2.28 6.66 5.56 6.66 6.16" transform="translate(-129.824 -140.818)"/><path id="패스_620652" data-name="패스 620652" d="M42.676 41.6c0 .4-.62 1.32-2.1 1.7a5.86 5.86 0 01-1.46.16 10.9 10.9 0 01-2.26-.26 17.379 17.379 0 01-2.54-.78l-1.54-.8a.6.6 0 01-.3-.7 48.771 48.771 0 011.68-4.98 1.22 1.22 0 011.84-.5h.02c2.984 2.28 6.66 5.56 6.66 6.16z" stroke-width=".6" stroke-miterlimit="10" stroke="#222" fill="none"/><g id="그룹_300336" data-name="그룹 300336" class="cls-11" transform="translate(53.16 33.48)"><g id="그룹_300335" data-name="그룹 300335" clip-path="url(#clip-path-17)"><path id="패스_620653" data-name="패스 620653" class="cls-14" d="M272.5 167.4l3.66 3.46.12.1c1.7 1.52 2.02 2.34 2.02 2.74s-.78 1.34-1.86 2.28a27.109 27.109 0 00-10.54-4.46z" transform="translate(-265.88 -167.4)"/></g></g><g id="그룹_300338" data-name="그룹 300338" class="cls-11" transform="translate(21.48 19.94)"><g id="그룹_300337" data-name="그룹 300337" clip-path="url(#clip-path-18)"><path id="패스_620654" data-name="패스 620654" class="cls-14" d="M107.4 103.16c.48-.24.98-.48 1.52-.72a33.023 33.023 0 0110.16-2.84l.48.08h.04c.04 0 3.04.34 4.4.64a15.14 15.14 0 012.66.98c-.62.26-1.94.8-3.44 1.5-2.66-.44-7.78-.82-15.82.34" transform="translate(-107.4 -99.62)"/></g></g><path id="패스_620655" data-name="패스 620655" class="cls-36" d="M232.962 251.769a.76.76 0 00.28-1.16 6.1 6.1 0 00-2.14-1.96c-1.06-.32-2.34-.48-3.02-.8s-2.48-1.22-2.68-.6.86 2.74 2.1 3.84a3.909 3.909 0 003.5 1.24 6.4 6.4 0 001.96-.56" transform="translate(-180.302 -197.629)"/><path id="패스_620656" data-name="패스 620656" d="M52.66 54.14a.76.76 0 00.28-1.16 6.1 6.1 0 00-2.14-1.96c-1.06-.32-2.34-.48-3.02-.8s-2.48-1.22-2.68-.6.86 2.74 2.1 3.84a3.909 3.909 0 003.5 1.24 6.4 6.4 0 001.96-.56z" stroke-width=".6" stroke-linejoin="round" stroke="#222" fill="none"/><path id="패스_620657" data-name="패스 620657" class="cls-3" d="M231.76 259.24l.46.1a.94.94 0 01.74.5l.5 1a3.98 3.98 0 01-3.46-1.24 7.58 7.58 0 01-1.5-1.9 23.292 23.292 0 003.24 1.52" transform="translate(-182.8 -206.16)"/><path id="패스_620658" data-name="패스 620658" d="M48.96 53.08l.46.1a.94.94 0 01.74.5l.5 1a3.98 3.98 0 01-3.46-1.24 7.58 7.58 0 01-1.5-1.9 22.518 22.518 0 003.26 1.54z" stroke-width=".6" stroke-linejoin="round" stroke="#222" fill="none"/><path id="패스_620659" data-name="패스 620659" class="cls-36" d="M333.352 202.38a2.2 2.2 0 01-.3 1.38 12.541 12.541 0 01-1.42 1.38.14.14 0 01-.24-.12l.52-4.06a14.789 14.789 0 00.1-1.76l.18.24a19.369 19.369 0 011.16 2.98" transform="translate(-265.112 -159.36)"/><path id="패스_620660" data-name="패스 620660" d="M68.24 43.02a2.2 2.2 0 01-.3 1.38 12.541 12.541 0 01-1.42 1.38.14.14 0 01-.24-.12l.52-4.06a14.789 14.789 0 00.1-1.76l.18.24a19.219 19.219 0 011.16 2.94z" stroke-width=".6" stroke-linejoin="round" stroke="#222" fill="none"/><path id="패스_620661" data-name="패스 620661" class="cls-3" d="M338.452 211.1l.26.8a2.2 2.2 0 01-.3 1.38l-.12.14-.2-1.6a.48.48 0 01.1-.34l.28-.36" transform="translate(-270.472 -168.88)"/><path id="패스_620662" data-name="패스 620662" d="M67.98 42.22l.26.8a2.2 2.2 0 01-.3 1.38l-.12.14-.2-1.6a.48.48 0 01.1-.34z" stroke-width=".4" stroke-miterlimit="10" stroke="#222" fill="none"/><path id="패스_620663" data-name="패스 620663" class="cls-14" d="M30.456 131a2.686 2.686 0 00.66 1.06l2.3 2.46a1.793 1.793 0 01-1.66.98c-1.34.1-2.68-.32-2.82-1.38-.2-1.54 1.54-3.1 1.54-3.1" transform="translate(-23.136 -104.8)"/><path id="패스_620664" data-name="패스 620664" d="M69.4 47.92s-11.3 8.8-18.76 10.54" stroke-width=".6" stroke-miterlimit="10" stroke-linecap="round" stroke="#222" fill="none"/><path id="패스_620665" data-name="패스 620665" class="cls-3" d="M311.76 193.3s.56.76.46 1.14.12.96-4.12 4.1l4.9-3.82a.24.24 0 00.02-.34z" transform="translate(-246.48 -154.64)"/><path id="패스_620666" data-name="패스 620666" class="cls-3" d="M266.2 234.06s7.96-2.76 12.76-7.56l-.04.36a.52.52 0 00.16.34s-1.52 2.96-12.72 7.6" transform="translate(-212.96 -181.2)"/><path id="패스_620667" data-name="패스 620667" class="cls-3" d="M233.8 235.7s.96 2.4 1.72 2.94 4.18-1.22 4.18-1.22a5.44 5.44 0 01-3.5.54l-.34-.04c-.3-.02-1.1-.26-2.06-2.22" transform="translate(-187.04 -188.56)"/><path id="패스_620668" data-name="패스 620668" class="cls-3" d="M185.6 225.3s5.1 2.72 7.86 4c0 0-3.96.4-7.86-4" transform="translate(-148.48 -180.24)"/><path id="패스_620669" data-name="패스 620669" class="cls-42" d="M143.1 166.763a2.04 2.04 0 01.12.68c0 .76-.48 1.2-1.08.98a1.46 1.46 0 01-.58-.44c-.08.62-.52.94-1.06.74a1.743 1.743 0 01-1.02-1.24.78.78 0 01-.56-.02 1.973 1.973 0 01-1.1-1.72 1.36 1.36 0 01.02-.24h-.02a1.906 1.906 0 01-1.1-1.7 1.02 1.02 0 01.34-.84 1.94 1.94 0 01-.36-1.06c0-.7.44-1.12 1.02-.98a1.78 1.78 0 01-.1-.58c0-.72.48-1.16 1.08-1a1.36 1.36 0 01.62.42.83.83 0 011.06-.7 1.6 1.6 0 01.96.98.84.84 0 01.42.02 1.818 1.818 0 011.1 1.7 1.918 1.918 0 01.9 1.64 1.24 1.24 0 01-.26.82 2.08 2.08 0 01.6 1.44c0 .72-.44 1.18-.98 1.04" transform="translate(-109.36 -127.223)"/><path id="패스_620670" data-name="패스 620670" d="M33.74 39.54a2.04 2.04 0 01.12.68c0 .76-.48 1.2-1.08.98a1.46 1.46 0 01-.58-.44c-.08.62-.52.94-1.06.74a1.743 1.743 0 01-1.02-1.24.78.78 0 01-.56-.02 1.973 1.973 0 01-1.1-1.72 1.36 1.36 0 01.02-.24h-.02a1.906 1.906 0 01-1.1-1.7 1.02 1.02 0 01.34-.84 1.94 1.94 0 01-.36-1.06c0-.7.44-1.12 1.02-.98a1.78 1.78 0 01-.1-.58c0-.72.48-1.16 1.08-1a1.36 1.36 0 01.62.42.83.83 0 011.06-.7 1.6 1.6 0 01.96.98.84.84 0 01.42.02 1.818 1.818 0 011.1 1.7h0a1.918 1.918 0 01.9 1.64 1.24 1.24 0 01-.26.82 2.08 2.08 0 01.6 1.44c0 .78-.44 1.22-1 1.1z" stroke-width=".4" stroke="#111" stroke-linejoin="round" stroke-linecap="round" fill="none"/><g id="그룹_300340" data-name="그룹 300340" class="cls-44" transform="translate(30.7 36.82)"><g id="그룹_300339" data-name="그룹 300339" clip-path="url(#clip-path-19)"><path id="패스_620671" data-name="패스 620671" class="cls-46" d="M153.74 184.1a8.285 8.285 0 002.88 3.98l-3.12.74z" transform="translate(-153.5 -184.1)"/></g></g><path id="패스_620672" data-name="패스 620672" class="cls-3" d="M82.716 212.339v.1a1.16 1.16 0 01-.02.22c-.3 1.1-1.18 4.8-4.48 5.28a3.3 3.3 0 01-1.06-.06c-1.46-.24-2.28-.72-2.72-1.62a4.7 4.7 0 01-.46-1.58 5.24 5.24 0 01.02-1.3 22.749 22.749 0 013.76-7.92c.38-.5 1.3-.58 1.9-.92a1.16 1.16 0 01.98-.1h.1l-.06.38s-.94.88-.22 1.3 2.1-.7 2.1-.7l1.06.2.44.08a7.78 7.78 0 00-1.32 6.64" transform="translate(-59.156 -163.499)"/><path id="패스_620673" data-name="패스 620673" class="cls-3" d="M117.8 188.132l-1.06 2.54-.04.08v-.1a7.78 7.78 0 011.32-6.64h.1l2.74.4h.16a.96.96 0 00.94-.84l.64-2.9a4.74 4.74 0 00.04-.56 4.48 4.48 0 00-.26-1.5c-.16-.46.22-.74.62-1.02l.24-.18a.68.68 0 01.94.16c.28.4.2.64.2 1.1a2.24 2.24 0 01-.32 1.14.7.7 0 00-.1.4l.12 5.5a1.14 1.14 0 01-1.08 1.24l-4.2.16-.78.14z" transform="translate(-93.162 -141.832)"/><path id="패스_620674" data-name="패스 620674" class="cls-3" d="M123.36 286.86a.68.68 0 01-.02.18 1.316 1.316 0 01-1.36.84c-.68 0-1.38-.46-1.38-1.02a.92.92 0 01.46-.76 1.92 1.92 0 001.14.34 2.02 2.02 0 00.88-.2.86.86 0 01.28.62" transform="translate(-96.48 -228.88)"/><path id="패스_620675" data-name="패스 620675" class="cls-3" d="M36.82 305.4l-.08.1-.88.26-.76.24-.68-.94-.62-.86 1.18-.92.88-.68c.56 0 1.1.62 1.24 1.44a1.92 1.92 0 01-.26 1.38" transform="translate(-27.04 -242.08)"/><path id="패스_620676" data-name="패스 620676" class="cls-10" d="M64.96 241.385l-2.12 5.72a.9.9 0 01.02.18 1.135 1.135 0 01-.78 1l-2.14-.14a1.08 1.08 0 01-.52-.8.6.6 0 010-.06l.08-.36.56-2.72-1.1 1.38a3.56 3.56 0 01-4.64.8h-.06l-.84 2.16a3.68 3.68 0 01-1.42 1.78l-6.32 4.06h-.2a2.12 2.12 0 00.28-1.52c-.14-.9-.74-1.58-1.36-1.58l4.1-2.78a4.1 4.1 0 001.72-3.32v-3.12a4.76 4.76 0 00.48 1.58c.46.88 1.72 1.12 3.2 1.36v.06h.86c3.22-.36 3.94-3.84 4.26-4.92l3.94-1.4a1.54 1.54 0 011.88.74 2.42 2.42 0 01.12 1.94" transform="translate(-35.52 -190.925)"/><path id="패스_620677" data-name="패스 620677" class="cls-3" d="M105.96 204.3l-.66 1.2.04.62h1.28l1.22-.92.08-.76z" transform="translate(-84.24 -163.44)"/><g id="그룹_300342" data-name="그룹 300342" class="cls-11" transform="translate(23.94 51.92)"><g id="그룹_300341" data-name="그룹 300341" clip-path="url(#clip-path-20)"><path id="패스_620678" data-name="패스 620678" d="M121.88 259.6l.6 5.38-2.5-.02-.28-.86.52-2.24z" transform="translate(-119.7 -259.6)"/></g></g><path id="패스_620679" data-name="패스 620679" class="cls-14" d="M121.34 261.12l1.66-1.52.22.08-2.12 3.48z" transform="translate(-96.88 -207.68)"/><path id="패스_620680" data-name="패스 620680" class="cls-14" d="M88.16 274.3l-.36 3.56 1.22-2.94z" transform="translate(-70.24 -219.44)"/><g id="그룹_300344" data-name="그룹 300344" class="cls-11" transform="translate(8.86 52.14)"><g id="그룹_300343" data-name="그룹 300343" clip-path="url(#clip-path-21)"><path id="패스_620681" data-name="패스 620681" d="M50.38 260.7l2.04 1.8 1.16.42-.42 4.06-7.46 4.8-.16-1.76-1.04-1.52 5.12-3.34s1.12-2.68.76-4.46" transform="translate(-44.46 -260.7)"/></g></g><path id="패스_620682" data-name="패스 620682" class="cls-14" d="M124.42 285.292l-3.4 1.86a1.38 1.38 0 01-1.16.1 1.32 1.32 0 01-.86-1.24v-.08l.1-1.7h.06v.1c0 .56.64 1.02 1.46 1.02s1.32-.36 1.42-.84h.1l-.04-.88.78-.38a1.54 1.54 0 011.98.16 1.12 1.12 0 01.2.28 1.224 1.224 0 01-.64 1.6" transform="translate(-95.2 -226.372)"/><path id="패스_620683" data-name="패스 620683" class="cls-49" d="M79.84 204.339a1.16 1.16 0 00-.98.1l-1.26.52a3.4 3.4 0 00-1.54 1.5l-2.56 5.66a5.66 5.66 0 00-.5 2" transform="translate(-58.4 -163.419)"/><path id="선_85474" data-name="선 85474" class="cls-49" transform="translate(14.38 56.14)" d="M0 0l1.36 1.06"/><path id="패스_620684" data-name="패스 620684" d="M17.96 54.88l.76.52a3.56 3.56 0 004.76-.74l2.64-2.74" stroke-width=".5" stroke-linejoin="round" stroke-linecap="round" stroke="#222" fill="none"/><path id="패스_620685" data-name="패스 620685" d="M23.6 49.12l3.84-1.36a1.54 1.54 0 011.88.74 2.42 2.42 0 01.12 1.94l-2.38 6.44" stroke-width=".5" stroke-linejoin="round" stroke-linecap="round" stroke="#222" fill="none"/><path id="패스_620686" data-name="패스 620686" class="cls-3" d="M123.84 289.9a.7.7 0 01-.02.18 1.446 1.446 0 01-1.5.9c-.76 0-1.52-.48-1.52-1.08" transform="translate(-96.64 -231.92)"/><path id="패스_620687" data-name="패스 620687" d="M27.2 57.98a.7.7 0 01-.02.18 1.446 1.446 0 01-1.5.9c-.76 0-1.52-.48-1.52-1.08" stroke-width=".5" stroke-linejoin="round" stroke-linecap="round" stroke="#222" fill="none"/><path id="선_85475" data-name="선 85475" class="cls-49" transform="translate(23.94 53.58)" d="M0 2.78L.58 0"/><path id="패스_620688" data-name="패스 620688" class="cls-14" d="M28.9 314.44l-.22.08-1.14.52a1.46 1.46 0 01-1.34-.06 2.34 2.34 0 01-1.16-1.98l-.04-1.72v-.36a1.2 1.2 0 011.14-1.12 1.04 1.04 0 01.44.1l.68.96.74 1.04.06.4a1.2 1.2 0 011.48.54 1.224 1.224 0 01-.64 1.6" transform="translate(-20 -247.84)"/><path id="패스_620689" data-name="패스 620689" class="cls-3" d="M35.48 305.4l-.88.26-1 .3-1.3-1.66 1.44-1.12.86-.68c.56 0 1.1.62 1.22 1.44a1.82 1.82 0 01-.34 1.48" transform="translate(-25.84 -242)"/><path id="패스_620690" data-name="패스 620690" d="M9.64 63.4l-.88.26-1 .3-1.3-1.66 1.44-1.12h0l.86-.68c.56 0 1.1.62 1.22 1.44a1.82 1.82 0 01-.34 1.46z" stroke-width=".5" stroke-miterlimit="10" stroke="#222" fill="none"/><path id="선_85476" data-name="선 85476" class="cls-54" transform="translate(24.14 57.02)" d="M.04.86L0 0"/><path id="선_85477" data-name="선 85477" class="cls-49" transform="translate(27.84 42.62)" d="M0 0l1.24.12"/><path id="패스_620691" data-name="패스 620691" d="M27.18 56.6c-.02.56-.78 1-1.66.98s-1.6-.52-1.58-1.08" stroke-width=".5" stroke-linejoin="round" stroke-linecap="round" stroke="#222" fill="none"/><path id="패스_620692" data-name="패스 620692" class="cls-54" d="M59.02 278.8l-.74 1.92a3.68 3.68 0 01-1.44 1.76l-6.44 3.98" transform="translate(-40.32 -223.04)"/><path id="패스_620693" data-name="패스 620693" d="M14.8 51.92l-.06 2.36a4.1 4.1 0 01-1.76 3.3L8.84 60.3" stroke-width=".5" stroke-linejoin="round" stroke-linecap="round" stroke="#222" fill="none"/><path id="패스_620694" data-name="패스 620694" class="cls-57" d="M117.1 191.152l1.52-3.84 4.88-.16a1.14 1.14 0 001.08-1.24l-.12-5.5a.72.72 0 01.1-.4 1.867 1.867 0 00.1-2.24.68.68 0 00-.94-.16l-.24.18c-.4.28-.78.56-.62 1.02a4.5 4.5 0 01.22 2.06l-.6 2.9a.96.96 0 01-1.1.82l-2.74-.4" transform="translate(-93.68 -141.992)"/><path id="패스_620695" data-name="패스 620695" class="cls-57" d="M79.88 206.5s-.94.88-.22 1.3 2.1-.7 2.1-.7l1.5.3a7.78 7.78 0 00-1.32 6.64l-1.52 3.76a1.58 1.58 0 01-.44.62 4.5 4.5 0 01-2.88 1c-2.26 0-4.1-1.54-4.1-3.44" transform="translate(-58.4 -165.2)"/><path id="패스_620696" data-name="패스 620696" class="cls-3" d="M106.9 179.822l1.18-5.02a1.984 1.984 0 013.86.92l-.84 3.56a1.5 1.5 0 01-1.8 1.1l-.34-.08" transform="translate(-85.52 -138.622)"/><path id="패스_620697" data-name="패스 620697" d="M21.38 41.2l1.18-5.02a1.984 1.984 0 013.86.92l-.84 3.56a1.5 1.5 0 01-1.8 1.1l-.34-.08" stroke-width=".5" stroke-miterlimit="10" stroke-linecap="round" stroke="#222" fill="none"/><path id="패스_620698" data-name="패스 620698" class="cls-14" d="M114.84 169.362l-4.44-1.04.26-1.14a1.08 1.08 0 011.3-.8l3.4.8a1.08 1.08 0 01.8 1.3v.08a1.08 1.08 0 01-1.3.8" transform="translate(-88.32 -133.082)"/><path id="패스_620699" data-name="패스 620699" class="cls-14" d="M110.88 179.54l-1.06-.26a1.92 1.92 0 01-1.42-2.3l.4-1.68 1.76.42a1.2 1.2 0 01.9 1.44z" transform="translate(-86.68 -140.24)"/><path id="패스_620700" data-name="패스 620700" class="cls-14" d="M114.1 169.127a1.66 1.66 0 11-.2-1.258 1.66 1.66 0 01.2 1.258" transform="translate(-88.658 -133.667)"/><path id="패스_620701" data-name="패스 620701" class="cls-3" d="M119.666 188.761a.68.68 0 10-.3 1.3" transform="translate(-94.966 -150.961)"/><path id="패스_620702" data-name="패스 620702" d="M24.7 37.8a.68.68 0 10-.3 1.3" stroke-width=".5" stroke-miterlimit="10" stroke-linecap="round" stroke="#222" fill="none"/><g id="그룹_300346" data-name="그룹 300346" class="cls-44" transform="translate(51.84 33.96)"><g id="그룹_300345" data-name="그룹 300345" clip-path="url(#clip-path-22)"><path id="패스_620703" data-name="패스 620703" class="cls-46" d="M259.344 169.8a7.7 7.7 0 00.3 4.14l4.06-2.54z" transform="translate(-259.184 -169.8)"/></g></g><path id="패스_620704" data-name="패스 620704" class="cls-42" d="M264.77 149.6a1.36 1.36 0 01.24.56.992.992 0 01-1.08 1.18 1.48 1.48 0 01-.72-.2 1.08 1.08 0 01-1.14 1.02 1.48 1.48 0 01-1.3-.8 1.2 1.2 0 01-.66.18 1.42 1.42 0 01-1.4-1.28 1.162 1.162 0 010-.22h-.02a1.42 1.42 0 01-1.36-1.3 1.16 1.16 0 01.32-.92 1.44 1.44 0 01-.46-.94 1.066 1.066 0 011.04-1.2 1.44 1.44 0 01-.16-.54 1.016 1.016 0 011.06-1.18 1.3 1.3 0 01.68.26.92.92 0 011.02-.84 1.52 1.52 0 011.1.72 1 1 0 01.42-.06 1.6 1.6 0 011.36 1.3 1.64 1.64 0 011.18 1.24.98.98 0 01-.14.76 1.6 1.6 0 01.88 1.1.94.94 0 01-.92 1.16" transform="translate(-205.75 -114.697)"/><path id="패스_620705" data-name="패스 620705" d="M59.02 34.903a1.36 1.36 0 01.24.56.992.992 0 01-1.08 1.18 1.48 1.48 0 01-.72-.2 1.08 1.08 0 01-1.14 1.02 1.48 1.48 0 01-1.3-.8 1.2 1.2 0 01-.66.18 1.42 1.42 0 01-1.4-1.28 1.162 1.162 0 010-.22h-.02a1.42 1.42 0 01-1.36-1.3 1.16 1.16 0 01.32-.92 1.44 1.44 0 01-.46-.94 1.066 1.066 0 011.04-1.2 1.44 1.44 0 01-.16-.54 1.016 1.016 0 011.06-1.18 1.3 1.3 0 01.68.26.92.92 0 011.02-.84 1.52 1.52 0 011.1.72 1 1 0 01.42-.06 1.6 1.6 0 011.36 1.3h0a1.64 1.64 0 011.18 1.24.98.98 0 01-.14.76 1.6 1.6 0 01.88 1.1.94.94 0 01-.86 1.16z" stroke-width=".4" stroke="#111" stroke-linejoin="round" stroke-linecap="round" fill="none"/><g id="그룹_300348" data-name="그룹 300348" class="cls-44" transform="translate(56.18 32.64)"><g id="그룹_300347" data-name="그룹 300347" clip-path="url(#clip-path-23)"><path id="패스_620706" data-name="패스 620706" class="cls-46" d="M280.9 164.02l2.88 2.16.8-2.06-.96-.92z" transform="translate(-280.9 -163.2)"/></g></g><path id="선_85478" data-name="선 85478" stroke-width=".5" stroke-miterlimit="10" stroke-linecap="round" stroke="#222" fill="none" d="M65.3 29.84l-.02.02"/><path id="패스_620707" data-name="패스 620707" class="cls-3" d="M304.16 110.96l.26-.16 2.72 1.2a6.6 6.6 0 012.96 2.6l2.34 3.98.04.08a1.2 1.2 0 01.08.96 4.036 4.036 0 01-3.92 2.42 3.338 3.338 0 01-2.64-1.08 5.819 5.819 0 01-1.22-2.34l-.08-.14h-.06l-.04-.08a1.63 1.63 0 00.04-1.42 1.16 1.16 0 00-.8-.76 1.1 1.1 0 00-.92.16l.2-.16-.36-.1a1.1 1.1 0 00-1.1.28h-.04l-.08.1-.56.74a1.12 1.12 0 00-.24-1.36 1.079 1.079 0 00-1.5-.12h-.04l1.92-3.16z" transform="translate(-239.36 -88.64)"/><path id="선_85479" data-name="선 85479" class="cls-64" transform="translate(65.56 25.34)" d="M1.32 0L0 .96"/><path id="패스_620708" data-name="패스 620708" class="cls-3" d="M286.78 140.005a.6.6 0 01-.28.2l-6.12 2.76-2.16.78a.96.96 0 01-.34.06 1 1 0 01-.94-.66.641.641 0 01-.04-.22.66.66 0 01.18-.46 1.42 1.42 0 011.18-.44l.28.04h.22a1 1 0 00.48-.16l3.22-2.18 2.56-1.72h.04a1.1 1.1 0 01.92-.16 1.16 1.16 0 01.8.76 1.63 1.63 0 01-.04 1.42" transform="translate(-221.52 -110.245)"/><path id="패스_620709" data-name="패스 620709" class="cls-3" d="M289.88 136.175l-.1.14-.58.74-3.22 2.18a1 1 0 01-.48.16l-.2-.12 2.8-4.58h.04a1.079 1.079 0 011.5.12 1.12 1.12 0 01.24 1.36" transform="translate(-228.24 -107.555)"/><path id="선_85480" data-name="선 85480" stroke-width="2.5" stroke-miterlimit="10" stroke-linecap="round" stroke="#222" fill="none" d="M62.3 27.78h0"/><path id="패스_620710" data-name="패스 620710" d="M73.16 30l-.3-.52" stroke-width=".5" stroke-miterlimit="10" stroke-linecap="round" stroke="#222" fill="none"/><path id="패스_620711" data-name="패스 620711" d="M69.18 35.44l.44.12a2.76 2.76 0 012 2.68l.14 7.56" stroke-width=".5" stroke-miterlimit="10" stroke-linecap="round" stroke="#222" fill="none"/><path id="패스_620712" data-name="패스 620712" class="cls-68" d="M304.1 120.3c.06 1.42.6 1.96 2.02.96l1.32.34-2.8 2.02h-1.18l-.88.46-1.88-1.12 1.38-2.34.26-.14z" transform="translate(-240.56 -96.24)"/><path id="패스_620713" data-name="패스 620713" class="cls-68" d="M326.671 143.48l3.08-1.18 1 .4c.1.04 1.76 4.16 1.76 4.16s-2.6.98-4.32-.5a3.5 3.5 0 01-1.52-2.88" transform="translate(-261.331 -113.84)"/><path id="패스_620714" data-name="패스 620714" d="M65.08 22.16l2.72 1.2a6.6 6.6 0 012.96 2.6l2.34 3.98a1.22 1.22 0 01.12 1.02 4.036 4.036 0 01-3.92 2.42c-2.26 0-3.2-1.42-3.86-3.42" stroke-width=".5" stroke-miterlimit="10" stroke-linecap="round" stroke="#222" fill="none"/><path id="패스_620715" data-name="패스 620715" d="M65.28 29.86l2.46-1.22a1.48 1.48 0 011.42.06l.26.16" stroke-width=".5" stroke-miterlimit="10" stroke-linecap="round" stroke="#222" fill="none"/><path id="선_85481" data-name="선 85481" class="cls-64" transform="translate(63.54 25.34)" d="M0 2.42L3.34 0"/><path id="패스_620716" data-name="패스 620716" d="M58.86 32.72l6.12-2.76c.5-.16.58-.88.32-1.62a1.16 1.16 0 00-.8-.76 1.1 1.1 0 00-.92.16l-5.82 3.92a1 1 0 01-.66.16l-.32-.04a1.42 1.42 0 00-1.18.44.66.66 0 00-.14.68 1 1 0 001.26.6z" stroke-width=".5" stroke-miterlimit="10" stroke-linecap="round" stroke="#222" fill="none"/><path id="패스_620717" data-name="패스 620717" d="M63.22 24.36l.14.5a1.32 1.32 0 001.04.92.9.9 0 00.66-.16h0a5.44 5.44 0 001.52-1.98l.28-.62" stroke-width=".5" stroke-miterlimit="10" stroke-linecap="round" stroke="#222" fill="none"/><path id="선_85482" data-name="선 85482" class="cls-64" transform="translate(57.04 23.94)" d="M4.74 0L0 7.76"/><path id="패스_620718" data-name="패스 620718" d="M59.9 27.145a1.16 1.16 0 011.62 1.62" stroke-width=".5" stroke-miterlimit="10" stroke-linecap="round" stroke="#222" fill="none"/><path id="패스_620719" data-name="패스 620719" d="M60.98 29.48l1.24-1.6a1.1 1.1 0 011.22-.4l.36.1" stroke-width=".5" stroke-miterlimit="10" stroke-linecap="round" stroke="#222" fill="none"/><path id="패스_620720" data-name="패스 620720" d="M62.3 27.78s.72-.66.6-1.34" stroke-width=".5" stroke-miterlimit="10" stroke-linecap="round" stroke="#222" fill="none"/><path id="패스_620721" data-name="패스 620721" class="cls-14" d="M309.84 92.954l-.74.48-2-3.08.64-.42a1.2 1.2 0 011.66.36l.76 1.16a1.08 1.08 0 01-.32 1.48" transform="translate(-245.68 -71.794)"/><path id="패스_620722" data-name="패스 620722" class="cls-14" d="M293.452 91.534a1.64 1.64 0 11-2.26-.48 1.64 1.64 0 012.26.48" transform="translate(-232.352 -72.634)"/><path id="패스_620723" data-name="패스 620723" class="cls-14" d="M304.036 87.755a1.52 1.52 0 11-2.1-.44 1.52 1.52 0 012.1.44" transform="translate(-240.996 -69.655)"/><path id="패스_620724" data-name="패스 620724" class="cls-3" d="M305.5 97.319l-2.44-3.74a1.72 1.72 0 10-2.88 1.88l1.74 2.66a1.3 1.3 0 001.8.38l.9-.58" transform="translate(-239.919 -74.239)"/><path id="패스_620725" data-name="패스 620725" class="cls-16" d="M305.5 97.319l-2.44-3.74a1.72 1.72 0 10-2.88 1.88l1.74 2.66a1.3 1.3 0 001.8.38l.9-.58" transform="translate(-239.919 -74.239)"/><path id="패스_620726" data-name="패스 620726" class="cls-3" d="M317.2 100.819a.585.585 0 01.64.98" transform="translate(-253.76 -80.579)"/><path id="패스_620727" data-name="패스 620727" class="cls-64" d="M317.2 100.819a.585.585 0 01.64.98" transform="translate(-253.76 -80.579)"/><path id="사각형_235241" data-name="사각형 235241" class="cls-14" transform="rotate(-78.1 42.899 -26.082)" d="M0 0h2.78v.658H0z"/><path id="사각형_235242" data-name="사각형 235242" class="cls-14" transform="rotate(-78.1 42.152 -27.584)" d="M0 0h.94v3.274H0z"/><path id="패스_620728" data-name="패스 620728" class="cls-14" d="M308.426 113.757l-.84.54a.3.3 0 11-.32-.48l.84-.54a.3.3 0 11.32.48" transform="translate(-245.646 -90.537)"/><path id="사각형_235243" data-name="사각형 235243" class="cls-14" transform="rotate(-33.07 70.092 -93.51)" d="M0 0h.52v1.592H0z"/><path id="패스_620729" data-name="패스 620729" class="cls-14" d="M309.443 113.983l-.7.44a.58.58 0 01-.8-.2l-.88-1.42a.58.58 0 01.2-.8l.7-.44a.58.58 0 01.8.2l.88 1.42a.58.58 0 01-.2.8" transform="translate(-245.583 -89.183)"/><path id="선_85483" data-name="선 85483" stroke="#fff" stroke-width=".6" stroke-miterlimit="10" stroke-linecap="round" fill="none" d="M62.22 23.42l.54-.32"/></g></g></g></g></g></g></svg>