<svg xmlns="http://www.w3.org/2000/svg" width="28" height="28"><defs><clipPath id="a"><path fill="none" d="M0 0h28v28H0z"/></clipPath><style>.f,.g,.h{fill:none}.b{clip-path:url(#a)}.f,.g,.h{stroke:#111;stroke-linejoin:round;stroke-width:1.5px}.g{stroke-linecap:round}.h{stroke-linecap:square}</style></defs><g class="b"><g class="b"><path d="M19.9 19.6a5.8 5.8 0 11-5.8-5.8 5.8 5.8 0 015.8 5.8" fill="#56c6e4"/><path class="f" d="M15.6 6.6H9.7v3.9a7 7 0 00-4 6.3v10.4h14V16.8a7 7 0 00-4-6.3zM19.9 6.6V3.5L17.2.8 6.6 3.4v3.2zM19.9 3.5h2.4v3.13h-2.4z"/><path class="g" d="M21.3 10.7a4.8 4.8 0 01-2.7-2.2 5.5 5.5 0 01-.6-1.9M12.3 19.6h3.1"/><path class="h" d="M10 19.6h2.3"/><path class="g" d="M12.7 19.9v2.4"/><path class="h" d="M12.7 16.9v3"/><path fill="#fff" d="M9.7 10.5h3.1"/><path class="f" d="M9.7 10.5h3.1"/></g></g></svg>