<svg xmlns="http://www.w3.org/2000/svg" width="42" height="42"><defs><clipPath id="a"><path data-name="사각형 338979" transform="translate(57 186)" fill="red" opacity=".338" d="M0 0h42v42H0z"/></clipPath></defs><g data-name="마스크 그룹 359641" transform="translate(-57 -186)" clip-path="url(#a)"><path data-name="사각형 224859" fill="#f9f9f9" opacity=".5" d="M20 171h335v115H20z"/><g data-name="그룹 279832"><g data-name="그룹 260104"><path data-name="패스 580160" d="M61.125 200.294v15.137a4.6 4.6 0 002.333 3.993l13.268 7.568a4.71 4.71 0 004.666 0l13.269-7.568a4.6 4.6 0 002.333-3.993v-15.137a4.6 4.6 0 00-2.333-3.993l-13.269-7.568a4.714 4.714 0 00-4.666 0l-13.268 7.568a4.6 4.6 0 00-2.333 3.993z" fill="#a5a5ff" style="isolation:isolate"/><path data-name="패스 580161" d="M59.721 199.18v15.137a4.6 4.6 0 002.333 3.992l13.269 7.569a4.714 4.714 0 004.667 0l13.268-7.569a4.6 4.6 0 002.333-3.992V199.18a4.6 4.6 0 00-2.333-3.993l-13.268-7.569a4.717 4.717 0 00-4.667 0l-13.269 7.569a4.6 4.6 0 00-2.333 3.993z" fill="none" stroke="#6955ff" stroke-linejoin="round"/></g><g data-name="그룹 279820"><path data-name="패스 581203" d="M77.618 200.422a8.122 8.122 0 11-8.006 8.122 8.122 8.122 0 018.006-8.006" fill="#fff"/><path data-name="패스 581204" d="M70.076 205.064a7.89 7.89 0 011.508-2.089" fill="none" stroke="#111" stroke-linecap="square" stroke-linejoin="round"/><path data-name="패스 581205" d="M71.588 198.218s0 3.133 1.973 3.133h.116a8.122 8.122 0 11-3.489 3.713" fill="none" stroke="#111" stroke-linecap="round" stroke-linejoin="round"/><path data-name="패스 581206" d="M74.137 198.798s-.464 1.856.58 1.973" fill="none" stroke="#111" stroke-linecap="round" stroke-linejoin="round"/><path data-name="패스 581207" d="M77.735 209.357a1.624 1.624 0 01-3.133 0" fill="none" stroke="#111" stroke-linecap="square" stroke-miterlimit="10"/><path data-name="선 42859" fill="none" stroke="#111" stroke-linecap="round" d="M78.663 206.456v.348"/><path data-name="선 42860" fill="none" stroke="#111" d="M78.663 205.063v1.392"/><path data-name="선 42861" fill="none" stroke="#111" stroke-linecap="round" d="M73.789 206.34v.464"/><path data-name="선 42862" fill="none" stroke="#111" d="M73.789 205.063v1.276"/><path data-name="패스 581208" d="M88.062 200.306l-2.785 3.945-6.73-4.293 2.2-4.061 1.044 2.785 3.256-1.393.116 3.481z" fill="#fff"/><path data-name="패스 581209" d="M88.062 200.306l-2.785 3.945-6.73-4.293 2.2-4.061 1.044 2.785 3.256-1.393.116 3.481z" fill="none" stroke="#111" stroke-linejoin="round"/></g></g></g></svg>