<svg xmlns="http://www.w3.org/2000/svg" xmlns:xlink="http://www.w3.org/1999/xlink" width="20" height="20" viewBox="0 0 20 20"><defs><style>.a{fill:#d5d5d5;}.b,.e,.f,.g{fill:none;}.c{clip-path:url(#a);}.d{clip-path:url(#b);}.e,.f{stroke:#111;}.e,.f,.g{stroke-miterlimit:10;stroke-width:1.5px;}.f{stroke-linecap:round;}.g{stroke:#000001;}.h{fill:#fff;}.i{fill:#111;font-size:6.61px;font-family:MoebiusKorea-Bold, Moebius Korea;font-weight:700;}</style><clipPath id="a"><rect class="a" width="20" height="20"/></clipPath><clipPath id="b"><rect class="b" width="20" height="20"/></clipPath></defs><g class="c"><g transform="translate(10 10)"><g transform="translate(-10 -10)"><g class="d"><ellipse class="e" cx="6" cy="2.3" rx="6" ry="2.3" transform="translate(1 1.9)"/><path class="f" d="M4.8,10.1C2.6,9.7,1,8.9,1,7.9"/><path class="f" d="M4.8,14C2.6,13.7,1,12.8,1,11.8"/><path class="f" d="M7,18.2c-3.3,0-6-1-6-2.3"/><line class="f" y1="3.1" transform="translate(13 4.5)"/><line class="g" y1="0.5" transform="translate(13 12)"/><line class="g" y1="0.5" transform="translate(13 12)"/><path class="h" d="M19.2,12A6.2,6.2,0,1,1,13,5.8,6.2,6.2,0,0,1,19.2,12"/><circle class="e" cx="6.2" cy="6.2" r="6.2" transform="translate(6.8 5.8)"/><line class="f" y2="11.7" transform="translate(1 4.2)"/></g><text class="i" transform="translate(9.9 14.8)"><tspan x="0" y="0">\</tspan></text></g></g></g></svg>