<svg xmlns="http://www.w3.org/2000/svg" width="16" height="16"><defs><clipPath id="a"><path data-name="사각형 226381" fill="none" d="M0 0h16v16H0z"/></clipPath></defs><g data-name="그룹 294510" clip-path="url(#a)"><path data-name="선 77344" fill="none" stroke="#3673ee" stroke-linecap="round" stroke-width="1.205" d="M13.333 2.57v9.638"/><path data-name="선 77345" fill="none" stroke="#3673ee" stroke-linecap="round" stroke-width="1.205" d="M13.413 3.132L2.57 12.931"/><path data-name="선 77346" fill="none" stroke="#3673ee" stroke-linecap="round" stroke-width="1.205" d="M2.731 2.57v9.638"/><g data-name="그룹 294509" clip-path="url(#a)" fill="#3673ee"><path data-name="패스 596903" d="M2.731 1.606a1.446 1.446 0 11-1.052.451 1.446 1.446 0 011.052-.451"/><path data-name="패스 596904" d="M2.731 11.485a1.446 1.446 0 11-1.446 1.446 1.446 1.446 0 011.446-1.446"/><path data-name="패스 596905" d="M13.333 1.606a1.446 1.446 0 11-1.446 1.446 1.446 1.446 0 011.446-1.446"/><path data-name="패스 596906" d="M13.333 11.485a1.446 1.446 0 11-1.446 1.446 1.446 1.446 0 011.446-1.446"/></g></g></svg>