<svg xmlns="http://www.w3.org/2000/svg" width="28" height="28"><defs><clipPath id="a"><path fill="none" d="M0 0h28v28H0z"/></clipPath><style>.e{fill:none}.b{clip-path:url(#a)}.e{stroke:#111;stroke-width:1.5px;stroke-linejoin:round}</style></defs><g class="b"><g class="b"><path class="e" d="M18 24.2v2H8v-2M21.8 12.2H25v4a4 4 0 01-4 4"/><path class="e" d="M12.5 10.2H22l-.8 10.7a3 3 0 01-3 2.8H7.8a3 3 0 01-3-2.8L4 10.2"/><path d="M10 15.2c-3 0-3-5-3-5h5.5" stroke-linecap="round" stroke-linejoin="round" stroke="#111" stroke-width="1.5" fill="none"/><path d="M12.3 1.5a1 1 0 011-1h3.1a1 1 0 011 1v2a5.1 5.1 0 01-3.8 4.9 1 1 0 01-1.3-1z" fill="#ff8d8d"/><path d="M11.8 1.8h1.5a1 1 0 011 1v2.5a3 3 0 01-3 3 .5.5 0 01-.5-.5v-5a1 1 0 011-1z" stroke="#111" stroke-width="1.5" fill="none"/></g></g></svg>