<svg xmlns="http://www.w3.org/2000/svg" xmlns:xlink="http://www.w3.org/1999/xlink" width="335" height="150.002" viewBox="0 0 335 150.002">
  <defs>
    <clipPath id="clip-path">
      <rect id="사각형_185664" data-name="사각형 185664" width="35" height="35" transform="translate(0 -0.486)" fill="none"/>
    </clipPath>
  </defs>
  <g id="그룹_591523" data-name="그룹 591523" transform="translate(-20 -221)">
    <path id="빼기_25" data-name="빼기 25" d="M269,154H2a1,1,0,0,1-1-1V5A1,1,0,0,1,2,4H269a1,1,0,0,1,1,1v5.267a2,2,0,1,0,0,3.465v5.535a2,2,0,1,0,0,3.465v5.535a2,2,0,1,0,0,3.465v5.535a2,2,0,1,0,0,3.465v5.535a2,2,0,1,0,0,3.465v5.535a2,2,0,1,0,0,3.465v5.535a2,2,0,1,0,0,3.465v5.535a2,2,0,1,0,0,3.465v5.535a2,2,0,1,0,0,3.465v5.535a2,2,0,1,0,0,3.465v5.535a2,2,0,1,0,0,3.465v5.535a2,2,0,1,0,0,3.465v5.535a2,2,0,1,0,0,3.465v5.535a2,2,0,1,0,0,3.465v5.535a2,2,0,1,0,0,3.465v5.535a2,2,0,1,0,0,3.465V153A1,1,0,0,1,269,154Z" transform="translate(19 217)" fill="#eaeaea"/>
    <path id="빼기_26" data-name="빼기 26" d="M250,154H-14a1,1,0,0,1-1-1V7a1,1,0,0,1,1-1H250a1,1,0,0,1,1,1v3.171a3,3,0,0,0,0,5.659v3.341a3,3,0,0,0,0,5.659v3.341a3,3,0,0,0,0,5.659v3.341a3,3,0,0,0,0,5.659v3.341a3,3,0,0,0,0,5.659v3.341a3,3,0,0,0,0,5.659v3.341a3,3,0,0,0,0,5.659v3.341a3,3,0,0,0,0,5.659v3.341a3,3,0,0,0,0,5.659v3.341a3,3,0,0,0,0,5.659v3.341a3,3,0,0,0,0,5.659v3.341a3,3,0,0,0,0,5.659v3.341a3,3,0,0,0,0,5.659v3.341a3,3,0,0,0,0,5.659v3.341a3,3,0,0,0,0,5.659v3.341a3,3,0,0,0-1.236,4.83H251v3A1,1,0,0,1,250,154Z" transform="translate(36 216)" fill="#fff"/>
    <g id="그룹_322284" data-name="그룹 322284" transform="translate(0 -62)">
      <g id="그룹_214593" data-name="그룹 214593" transform="translate(298 322.486)" clip-path="url(#clip-path)">
        <g id="그룹_214592" data-name="그룹 214592" opacity="0">
          <g id="그룹_214591" data-name="그룹 214591" clip-path="url(#clip-path)">
            <rect id="사각형_185661" data-name="사각형 185661" width="35" height="35" transform="translate(0 -0.486)" fill="red"/>
          </g>
        </g>
        <path id="패스_463082" data-name="패스 463082" d="M5.086,16.969h19.99a1.4,1.4,0,0,1,0,2.621H5.086Z" transform="translate(1.869 12.271)" fill="#fff"/>
        <line id="선_61198" data-name="선 61198" y1="2.621" x2="2.621" transform="translate(24.116 15.64)" fill="none" stroke="#fff" stroke-linecap="round" stroke-width="2.621"/>
        <path id="패스_463083" data-name="패스 463083" d="M4.5,9l9.611,9.611,6.641-6.641" transform="translate(3.364 6.291)" fill="none" stroke="#fff" stroke-width="2.621"/>
        <rect id="사각형_185663" data-name="사각형 185663" width="2.621" height="20.97" transform="translate(16.077 3.058)" fill="#fff"/>
      </g>
    </g>
    <path id="빼기_24" data-name="빼기 24" d="M41.055,159H18a1,1,0,0,1-1-1v-4a2,2,0,0,0,0-4v-5a2,2,0,0,0,0-4v-5a2,2,0,0,0,0-4v-5a2,2,0,1,0,0-4v-5a2,2,0,1,0,0-4v-5a2,2,0,1,0,0-4v-5a2,2,0,1,0,0-4V91a2,2,0,1,0,0-4V82a2,2,0,1,0,0-4V73a2,2,0,1,0,0-4V64a2,2,0,1,0,0-4V55a2,2,0,1,0,0-4V46a2,2,0,1,0,0-4V37a2,2,0,1,0,0-4V28a2,2,0,0,0,0-4V19a2,2,0,0,0,0-4V10a1,1,0,0,1,1-1H41A9,9,0,0,0,59,9H83a1,1,0,0,1,1,1V158a1,1,0,0,1-1,1H58.945A9.133,9.133,0,0,0,59,158a9,9,0,0,0-18,0,9.133,9.133,0,0,0,.055,1Z" transform="translate(271 212)" fill="#493cff"/>
    <path id="빼기_27" data-name="빼기 27" d="M40,158H19a1,1,0,0,1-1-1v-3h1.236A3,3,0,0,0,18,149.171V145.83a3,3,0,0,0,0-5.659V136.83a3,3,0,0,0,0-5.659V127.83a3,3,0,0,0,0-5.659V118.83a3,3,0,0,0,0-5.659V109.83a3,3,0,0,0,0-5.659V100.83a3,3,0,0,0,0-5.659V91.83a3,3,0,0,0,0-5.659V82.83a3,3,0,0,0,0-5.659V73.83a3,3,0,0,0,0-5.659V64.83a3,3,0,0,0,0-5.659V55.83a3,3,0,0,0,0-5.659V46.83a3,3,0,0,0,0-5.659V37.83a3,3,0,0,0,0-5.659V28.83a3,3,0,0,0,0-5.659V19.83a3,3,0,0,0,0-5.659V11a1,1,0,0,1,1-1H40.049a10,10,0,0,0,19.9,0H82a1,1,0,0,1,1,1V157a1,1,0,0,1-1,1H60a10,10,0,1,0-20,0Z" transform="translate(271 212)" fill="#6257ff"/>
  </g>
</svg>
