<svg xmlns="http://www.w3.org/2000/svg" width="315" height="112.001"><g data-name="그룹 451246"><path data-name="빼기 84" d="M54 .001h34a1.985 1.985 0 00.586 1.412A1.988 1.988 0 0090 2.001v4a2 2 0 00-2 2 2 2 0 002 2v4a2 2 0 00-2 2 2 2 0 002 2v4a2 2 0 00-2 2 2 2 0 002 2v4a2 2 0 00-2 2 2 2 0 002 2v4a2 2 0 00-2 2 2 2 0 002 2v4a2 2 0 00-2 2 2 2 0 002 2v4a2 2 0 00-2 2 2 2 0 002 2v4a2 2 0 00-2 2 2 2 0 002 2v4a2 2 0 00-2 2 2 2 0 002 2v4a2 2 0 00-2 2 2 2 0 002 2v4a2 2 0 00-2 2 2 2 0 002 2v4a2 2 0 00-2 2 2 2 0 002 2v4a2 2 0 00-2 2 2 2 0 002 2v4a2 2 0 00-2 2H54a9 9 0 10-18 0H1a1 1 0 01-1-1v-110a1 1 0 011-1h35a9 9 0 0018 0z" fill="#5646d1"/><path data-name="빼기 85" d="M92.133.001H314a1 1 0 011 1v110a1 1 0 01-1 1H92.133a1.927 1.927 0 00-.626-1.414 2.192 2.192 0 00-1.507-.586v-4a2 2 0 100-4v-4a2 2 0 100-4v-4a2 2 0 100-4v-4a2 2 0 100-4v-4a2 2 0 100-4v-4a2 2 0 100-4v-4a2 2 0 100-4v-4a2 2 0 100-4v-4a2 2 0 100-4v-4a2 2 0 100-4v-4a2 2 0 100-4v-4a2 2 0 100-4v-4a2 2 0 100-4v-4a2.073 2.073 0 002.133-2z" fill="#eaeaea"/><path data-name="빼기 86" d="M54.951 1.001h32.221a3 3 0 002.828 2v2a3 3 0 00-3 3 3 3 0 003 3v2a3 3 0 00-3 3 3 3 0 003 3v2a3.006 3.006 0 00-3 3 3 3 0 003 3v2a3 3 0 00-3 3 3 3 0 003 3v2a3 3 0 00-3 3 3 3 0 003 3v2a3 3 0 00-3 3 3 3 0 003 3v2a3 3 0 00-3 3 3 3 0 003 3v2a3.006 3.006 0 00-3 3 3 3 0 003 3v2a3 3 0 00-3 3 3 3 0 003 3v2a3 3 0 00-3 3 3 3 0 003 3v2a3.006 3.006 0 00-3 3 3 3 0 003 3v2a3 3 0 00-3 3 3 3 0 003 3v2a3 3 0 00-3 3 3 3 0 003 3v2a3.005 3.005 0 00-2.829 2h-32.22a10 10 0 00-19.9 0H2a1 1 0 01-1-1v-108a1 1 0 011-1h33.049a10 10 0 0019.9 0z" fill="#6955ff"/><path data-name="빼기 87" d="M92.829 1.001h220.217a.944.944 0 01.954.932v108.136a.944.944 0 01-.954.932H92.829a3 3 0 00-2.829-2v-2a3 3 0 100-6v-2a3 3 0 100-6v-2a3 3 0 100-6v-2a3 3 0 000-6v-2a3 3 0 000-6v-2a3 3 0 000-6v-2a3 3 0 000-6v-2a3 3 0 000-6v-2a3 3 0 000-6v-2a3 3 0 000-6v-2a3 3 0 100-6v-2a3 3 0 100-6v-2a3 3 0 000-6v-2a3.006 3.006 0 002.829-2z" fill="#fff"/></g></svg>