<svg xmlns="http://www.w3.org/2000/svg" width="315" height="112.001" viewBox="0 0 315 112.001">
  <g id="그룹_451246" data-name="그룹 451246" transform="translate(-30 -822.999)">
    <path id="빼기_84" data-name="빼기 84" d="M30,129H-4a1.985,1.985,0,0,0-.586-1.412A1.988,1.988,0,0,0-6,127v-4a2,2,0,0,0,2-2,2,2,0,0,0-2-2v-4a2,2,0,0,0,2-2,2,2,0,0,0-2-2v-4a2,2,0,0,0,2-2,2,2,0,0,0-2-2V99a2,2,0,0,0,2-2,2,2,0,0,0-2-2V91a2,2,0,0,0,2-2,2,2,0,0,0-2-2V83a2,2,0,0,0,2-2,2,2,0,0,0-2-2V75a2,2,0,0,0,2-2,2,2,0,0,0-2-2V67a2,2,0,0,0,2-2,2,2,0,0,0-2-2V59a2,2,0,0,0,2-2,2,2,0,0,0-2-2V51a2,2,0,0,0,2-2,2,2,0,0,0-2-2V43a2,2,0,0,0,2-2,2,2,0,0,0-2-2V35a2,2,0,0,0,2-2,2,2,0,0,0-2-2V27a2,2,0,0,0,2-2,2,2,0,0,0-2-2V19a2,2,0,0,0,2-2H30a9,9,0,1,0,18,0H83a1,1,0,0,1,1,1V128a1,1,0,0,1-1,1H48a9,9,0,0,0-18,0Z" transform="translate(114 952) rotate(180)" fill="#5646d1"/>
    <path id="빼기_85" data-name="빼기 85" d="M243.867,124H22a1,1,0,0,1-1-1V13a1,1,0,0,1,1-1H243.867a1.927,1.927,0,0,0,.626,1.414A2.192,2.192,0,0,0,246,14v4a2,2,0,1,0,0,4v4a2,2,0,1,0,0,4v4a2,2,0,1,0,0,4v4a2,2,0,1,0,0,4v4a2,2,0,1,0,0,4v4a2,2,0,1,0,0,4v4a2,2,0,1,0,0,4v4a2,2,0,1,0,0,4v4a2,2,0,1,0,0,4v4a2,2,0,1,0,0,4v4a2,2,0,1,0,0,4v4a2,2,0,1,0,0,4v4a2,2,0,1,0,0,4v4a2.073,2.073,0,0,0-2.133,2h0Z" transform="translate(366 947) rotate(180)" fill="#eaeaea"/>
    <path id="빼기_86" data-name="빼기 86" d="M30.049,127H-2.172A3,3,0,0,0-5,125l0-2a3,3,0,0,0,3-3,3,3,0,0,0-3-3l0-2a3,3,0,0,0,3-3,3,3,0,0,0-3-3l0-2a3.006,3.006,0,0,0,3-3,3,3,0,0,0-3-3l0-2a3,3,0,0,0,3-3,3,3,0,0,0-3-3l0-2a3,3,0,0,0,3-3,3,3,0,0,0-3-3l0-2a3,3,0,0,0,3-3,3,3,0,0,0-3-3l0-2a3,3,0,0,0,3-3,3,3,0,0,0-3-3l0-2a3.006,3.006,0,0,0,3-3,3,3,0,0,0-3-3l0-2a3,3,0,0,0,3-3,3,3,0,0,0-3-3l0-2a3,3,0,0,0,3-3,3,3,0,0,0-3-3l0-2a3.006,3.006,0,0,0,3-3,3,3,0,0,0-3-3l0-2a3,3,0,0,0,3-3,3,3,0,0,0-3-3l0-2a3,3,0,0,0,3-3,3,3,0,0,0-3-3l0-2a3.005,3.005,0,0,0,2.829-2h32.22a10,10,0,0,0,19.9,0H83a1,1,0,0,1,1,1V126a1,1,0,0,1-1,1H49.951a10,10,0,0,0-19.9,0Z" transform="translate(115 951) rotate(180)" fill="#6955ff"/>
    <path id="빼기_87" data-name="빼기 87" d="M226.171,124H5.954A.944.944,0,0,1,5,123.068V14.932A.944.944,0,0,1,5.954,14H226.171A3,3,0,0,0,229,16v2a3,3,0,1,0,0,6v2a3,3,0,1,0,0,6v2a3,3,0,1,0,0,6v2a3,3,0,0,0,0,6v2a3,3,0,0,0,0,6v2a3,3,0,0,0,0,6v2a3,3,0,0,0,0,6v2a3,3,0,0,0,0,6v2a3,3,0,0,0,0,6v2a3,3,0,0,0,0,6v2a3,3,0,1,0,0,6v2a3,3,0,1,0,0,6v2a3,3,0,0,0,0,6v2a3.006,3.006,0,0,0-2.829,2h0Z" transform="translate(349 948) rotate(180)" fill="#fff"/>
  </g>
</svg>
