<svg xmlns="http://www.w3.org/2000/svg" width="335" height="120.001"><g data-name="그룹 322284"><path data-name="빼기 24" d="M286 120h-29a2 2 0 00-2-2v-4a2 2 0 100-4v-4a2 2 0 100-4v-4a2 2 0 000-4v-4a2 2 0 000-4v-4a2 2 0 000-4v-4a2 2 0 000-4v-4a2 2 0 000-4v-4a2 2 0 100-4v-4a2 2 0 100-4v-4a2 2 0 100-4v-4a2 2 0 100-4v-4a2 2 0 100-4v-4a2 2 0 000-4v-4a2 2 0 000-4V2a2 2 0 002-2h29a9 9 0 1018 0h30a1 1 0 011 1v118a1 1 0 01-1 1h-30a9 9 0 10-18 0z" fill="#493cff"/><path data-name="빼기 25" d="M252.867 120H1a1 1 0 01-1-1V1a1 1 0 011-1h251.867a1.927 1.927 0 00.626 1.414A2.192 2.192 0 00255 2v4a2.073 2.073 0 00-2.134 2A2.072 2.072 0 00255 10v4a2 2 0 100 4v4a2 2 0 100 4v4a2 2 0 100 4v4a2 2 0 100 4v4a2 2 0 100 4v4a2 2 0 100 4v4a2 2 0 100 4v4a2 2 0 100 4v4a2 2 0 100 4v4a2 2 0 100 4v4a2 2 0 100 4v4a2 2 0 100 4v4a2 2 0 100 4v4a2.073 2.073 0 00-2.134 2z" fill="#eaeaea"/><path data-name="빼기 23" d="M285.049 119h-27.221a3.006 3.006 0 00-2.828-2v-2a3 3 0 000-6v-2a3 3 0 000-6v-2a3 3 0 000-6v-2a3 3 0 000-6v-2a3 3 0 000-6v-2a3 3 0 000-6v-2a3 3 0 000-6v-2a3 3 0 000-6v-2a3 3 0 000-6v-2a3 3 0 000-6v-2a3 3 0 000-6v-2a3 3 0 000-6v-2a3 3 0 000-6v-2a3 3 0 000-6V3a3.006 3.006 0 002.828-2h27.222a10 10 0 0019.9 0H333a1 1 0 011 1v116a1 1 0 01-1 1h-28.05a10 10 0 00-19.9 0z" fill="#6257ff"/><path data-name="빼기 26" d="M252.17 119H2a1 1 0 01-1-1V2a1 1 0 011-1h250.171A3 3 0 00255 3v2a3 3 0 100 6v2a3 3 0 100 6v2a3 3 0 100 6v2a3 3 0 100 6v2a3 3 0 100 6v2a3 3 0 100 6v2a3 3 0 100 6v2a3 3 0 100 6v2a3 3 0 100 6v2a3 3 0 100 6v2a3 3 0 100 6v2a3 3 0 100 6v2a3 3 0 100 6v2a3 3 0 100 6v2a3.006 3.006 0 00-2.83 2z" fill="#fff"/></g></svg>