<svg xmlns="http://www.w3.org/2000/svg" width="335" height="120.001" viewBox="0 0 335 120.001">
  <defs>
    <style>
      .cls-1 {
        fill: #493cff;
      }

      .cls-2 {
        fill: #6257ff;
      }
    </style>
  </defs>
  <g id="그룹_321973" data-name="그룹 321973" transform="translate(-20 -657.003)">
    <path id="빼기_24" data-name="빼기 24" class="cls-1" d="M35,129H6a2,2,0,0,0-2-2v-4a2,2,0,1,0,0-4v-4a2,2,0,1,0,0-4v-4a2,2,0,0,0,0-4V99a2,2,0,0,0,0-4V91a2,2,0,0,0,0-4V83a2,2,0,0,0,0-4V75a2,2,0,0,0,0-4V67a2,2,0,1,0,0-4V59a2,2,0,1,0,0-4V51a2,2,0,1,0,0-4V43a2,2,0,1,0,0-4V35a2,2,0,1,0,0-4V27a2,2,0,0,0,0-4V19a2,2,0,0,0,0-4V11A2,2,0,0,0,6,9H35A9,9,0,1,0,53,9H83a1,1,0,0,1,1,1V128a1,1,0,0,1-1,1H53a9,9,0,1,0-18,0Z" transform="translate(271 648.004)"/>
    <path id="빼기_23" data-name="빼기 23" class="cls-2" d="M35.049,127H7.828A3.006,3.006,0,0,0,5,125v-2a3,3,0,0,0,0-6v-2a3,3,0,0,0,0-6v-2a3,3,0,0,0,0-6V99a3,3,0,0,0,0-6V91a3,3,0,0,0,0-6V83a3,3,0,0,0,0-6V75a3,3,0,0,0,0-6V67a3,3,0,0,0,0-6V59a3,3,0,0,0,0-6V51a3,3,0,0,0,0-6V43a3,3,0,0,0,0-6V35a3,3,0,0,0,0-6V27a3,3,0,0,0,0-6V19a3,3,0,0,0,0-6V11A3.006,3.006,0,0,0,7.828,9H35.05a10,10,0,0,0,19.9,0H83a1,1,0,0,1,1,1V126a1,1,0,0,1-1,1H54.95a10,10,0,0,0-19.9,0Z" transform="translate(270 649.004)"/>
    <g id="그룹_321790" data-name="그룹 321790">
      <path id="빼기_25" data-name="빼기 25" class="cls-1" d="M253.867,124H2a1,1,0,0,1-1-1V5A1,1,0,0,1,2,4H253.867a1.927,1.927,0,0,0,.626,1.414A2.192,2.192,0,0,0,256,6v4a2.073,2.073,0,0,0-2.134,2A2.072,2.072,0,0,0,256,14v4a2,2,0,1,0,0,4v4a2,2,0,1,0,0,4v4a2,2,0,1,0,0,4v4a2,2,0,1,0,0,4v4a2,2,0,1,0,0,4v4a2,2,0,1,0,0,4v4a2,2,0,1,0,0,4v4a2,2,0,1,0,0,4v4a2,2,0,1,0,0,4v4a2,2,0,1,0,0,4v4a2,2,0,1,0,0,4v4a2,2,0,1,0,0,4v4a2,2,0,1,0,0,4v4a2.073,2.073,0,0,0-2.134,2Z" transform="translate(19 653.004)"/>
      <path id="빼기_26" data-name="빼기 26" class="cls-2" d="M236.17,124H-14a1,1,0,0,1-1-1V7a1,1,0,0,1,1-1H236.171A3,3,0,0,0,239,8v2a3,3,0,1,0,0,6v2a3,3,0,1,0,0,6v2a3,3,0,1,0,0,6v2a3,3,0,1,0,0,6v2a3,3,0,1,0,0,6v2a3,3,0,1,0,0,6v2a3,3,0,1,0,0,6v2a3,3,0,1,0,0,6v2a3,3,0,1,0,0,6v2a3,3,0,1,0,0,6v2a3,3,0,1,0,0,6v2a3,3,0,1,0,0,6v2a3,3,0,1,0,0,6v2a3,3,0,1,0,0,6v2a3.006,3.006,0,0,0-2.83,2Z" transform="translate(36 652.004)"/>
    </g>
  </g>
</svg>
