<svg xmlns="http://www.w3.org/2000/svg" width="50" height="50" viewBox="0 0 50 50">
  <g id="그룹_583330" data-name="그룹 583330" transform="translate(-997.722)">
    <rect id="사각형_422508" data-name="사각형 422508" width="50" height="50" transform="translate(997.722)" fill="#dc000c"/>
    <g id="그룹_583329" data-name="그룹 583329" transform="translate(1003.059 36.208)">
      <path id="패스_1455653" data-name="패스 1455653" d="M1009.037,44.982q.854,0,.853.71a.8.8,0,0,1-.3.642,1.44,1.44,0,0,1-.936.274h-1.337l.346-1.626Zm-2.689,6.263.6-2.87h1.093q1.026,0,1.026.749a5.953,5.953,0,0,1-.061.663,5.44,5.44,0,0,0-.062.651,2.186,2.186,0,0,0,.1.807h2.421a2.052,2.052,0,0,1-.125-.586c-.009-.179-.009-.42,0-.727v-.784a3.131,3.131,0,0,0-.125-1.013,1.033,1.033,0,0,0-.718-.669v-.023a2.292,2.292,0,0,0,1.414-.76,2.243,2.243,0,0,0,.523-1.51,1.929,1.929,0,0,0-.774-1.729,3.469,3.469,0,0,0-1.917-.425h-4.178l-1.708,8.228Z" transform="translate(-1003.86 -42.821)" fill="#fff" fill-rule="evenodd"/>
      <path id="패스_1455654" data-name="패스 1455654" d="M1009.037,44.982q.854,0,.853.71a.8.8,0,0,1-.3.642,1.44,1.44,0,0,1-.936.274h-1.337l.346-1.626Zm-2.689,6.263.6-2.87h1.093q1.026,0,1.026.749a5.953,5.953,0,0,1-.061.663,5.44,5.44,0,0,0-.062.651,2.186,2.186,0,0,0,.1.807h2.421a2.052,2.052,0,0,1-.125-.586V49.148a3.131,3.131,0,0,0-.125-1.013,1.033,1.033,0,0,0-.718-.669v-.023a2.292,2.292,0,0,0,1.414-.76,2.243,2.243,0,0,0,.523-1.51,1.929,1.929,0,0,0-.774-1.729,3.469,3.469,0,0,0-1.917-.425h-4.178l-1.708,8.228Z" transform="translate(-1003.86 -42.821)" fill="none" fill-rule="evenodd"/>
      <path id="패스_1455655" data-name="패스 1455655" d="M1022.159,43.018l-1.13,5.441q-.622,2.984-4.035,2.984a4.136,4.136,0,0,1-2.675-.761,2.17,2.17,0,0,1-.818-1.751,3.518,3.518,0,0,1,.092-.669l1.1-5.244h2.536l-.934,4.491a5.16,5.16,0,0,0-.126.795,1.605,1.605,0,0,0,.091.634.855.855,0,0,0,.865.449,1.244,1.244,0,0,0,1.094-.587,3.474,3.474,0,0,0,.463-1.267l.945-4.515Z" transform="translate(-1005.38 -42.821)" fill="#fff" fill-rule="evenodd"/>
      <path id="패스_1455656" data-name="패스 1455656" d="M1026.944,45.133q1.1,0,1.095.734,0,.927-1.349.929h-.968l.356-1.663Zm-2.153,6.113.518-2.487h1.71a3.716,3.716,0,0,0,2.6-.922,2.83,2.83,0,0,0,.97-2.168,2.72,2.72,0,0,0-.682-2.006,2.428,2.428,0,0,0-1.811-.644h-4.085l-1.72,8.228Z" transform="translate(-1006.76 -42.821)" fill="#fff" fill-rule="evenodd"/>
      <path id="패스_1455657" data-name="패스 1455657" d="M1030.878,51.245l1.717-8.227h6.8l-.427,2.115H1034.7l-.218,1.011h3.955l-.4,1.964h-3.965l-.219,1.023h4.358l-.439,2.114Z" transform="translate(-1008.117 -42.821)" fill="#fff" fill-rule="evenodd"/>
      <path id="패스_1455658" data-name="패스 1455658" d="M1047.184,45.475h-2.344q.034-.86-1.028-.86-.982,0-.983.668c0,.254.24.454.716.6.448.114.891.23,1.329.345q1.917.681,1.918,2.27a2.527,2.527,0,0,1-1.188,2.2,4.381,4.381,0,0,1-2.524.714,4.084,4.084,0,0,1-2.49-.692,2.5,2.5,0,0,1-1-2.271h2.458a1.217,1.217,0,0,0,.31.932,1.474,1.474,0,0,0,.935.207,1.4,1.4,0,0,0,.738-.2.669.669,0,0,0,.369-.6c0-.255-.189-.457-.566-.611-.47-.152-.943-.3-1.42-.449a3.606,3.606,0,0,1-1.364-.726,1.973,1.973,0,0,1-.613-1.51,2.352,2.352,0,0,1,1.108-2.051,4.1,4.1,0,0,1,2.353-.657,4.048,4.048,0,0,1,2.319.577A2.31,2.31,0,0,1,1047.184,45.475Z" transform="translate(-1009.521 -42.791)" fill="#fff" fill-rule="evenodd"/>
      <path id="패스_1455659" data-name="패스 1455659" d="M1048.752,43.7a.685.685,0,1,1,.687.7.682.682,0,0,1-.687-.7Zm.687.845a.843.843,0,1,0-.856-.845.842.842,0,0,0,.856.845Zm-.178-.779h.17l.257.422h.164l-.276-.428a.253.253,0,0,0,.252-.268c0-.192-.114-.277-.344-.277h-.371v.972h.148v-.422Zm0-.124h.177c.125,0,.237-.009.237-.159,0-.119-.109-.142-.212-.142h-.2Z" transform="translate(-1010.695 -42.8)" fill="#fff" stroke="#fff" stroke-width="0.116" fill-rule="evenodd"/>
    </g>
  </g>
</svg>
