<svg xmlns="http://www.w3.org/2000/svg" width="88" height="23" viewBox="0 0 88 23">
  <g id="그룹_484331" data-name="그룹 484331" transform="translate(649.51 -401.8)">
    <path id="패스_888727" data-name="패스 888727" d="M-433.5,409.612c0-2.283.055-4.436-.024-6.584-.037-1.007.293-1.294,1.235-1.216.922.076,1.854.016,2.86.016V424.4h-3.354l-.177-1.193c-3.82,1.809-7.207,1.364-9.951-1.915a7.6,7.6,0,0,1-.576-8.636,7.648,7.648,0,0,1,4.389-3.465A8.435,8.435,0,0,1-433.5,409.612Zm-3.482,10.459a3.428,3.428,0,0,0,3.5-3.485,3.421,3.421,0,0,0-3.459-3.527,3.459,3.459,0,0,0-3.465,3.432A3.471,3.471,0,0,0-436.985,420.072Z" transform="translate(-163.798 0)" fill="#fff"/>
    <path id="패스_888728" data-name="패스 888728" d="M-565.525,452.029h-3.425l-.17-.987a24.586,24.586,0,0,1-4,.762,7.481,7.481,0,0,1-7.58-6.795,7.623,7.623,0,0,1,6.576-8.3,7.466,7.466,0,0,1,8.38,6.042,38.821,38.821,0,0,1,.21,5.585C-565.5,449.531-565.525,450.726-565.525,452.029Zm-11.051-7.722a3.4,3.4,0,0,0,3.427,3.411,3.435,3.435,0,0,0,3.488-3.465,3.432,3.432,0,0,0-3.494-3.462A3.388,3.388,0,0,0-576.576,444.307Z" transform="translate(-54.981 -27.599)" fill="#fff"/>
    <path id="패스_888729" data-name="패스 888729" d="M-354.558,436.718a7.906,7.906,0,0,1,7.8,7.884,7.97,7.97,0,0,1-7.955,7.862,7.951,7.951,0,0,1-7.793-8.01A7.894,7.894,0,0,1-354.558,436.718Zm-3.644,7.894a3.528,3.528,0,0,0,3.653,3.551,3.562,3.562,0,0,0,3.5-3.618,3.563,3.563,0,0,0-3.565-3.556A3.537,3.537,0,0,0-358.2,444.612Z" transform="translate(-229.381 -27.663)" fill="#fff"/>
    <path id="패스_888730" data-name="패스 888730" d="M-636,439.21l-2.865,2.873c-2.574-1.455-4.344-1.369-5.6.266a3.651,3.651,0,0,0,.288,4.76c1.415,1.436,3.286,1.393,5.46-.245.44.494.885,1.027,1.366,1.525.461.477.961.918,1.423,1.356-1.138,1.879-4.63,3.236-7.606,2.472a8.006,8.006,0,0,1-5.956-7.112,7.911,7.911,0,0,1,4.953-7.831A7.651,7.651,0,0,1-636,439.21Z" transform="translate(0 -27.661)" fill="#fff"/>
    <path id="패스_888731" data-name="패스 888731" d="M-265.515,449.839a7.8,7.8,0,0,1-11.329.34,7.849,7.849,0,0,1,.227-11.354,7.748,7.748,0,0,1,10.978.434l-2.955,2.827c-2.457-1.45-4.265-1.361-5.549.3a3.611,3.611,0,0,0,.233,4.681c1.421,1.5,3.227,1.49,5.6-.2.32.407.638.883,1.027,1.291C-266.736,448.731-266.135,449.255-265.515,449.839Z" transform="translate(-295.995 -27.695)" fill="#fff"/>
    <path id="패스_888732" data-name="패스 888732" d="M-484.3,440.925l-1.849,2.725c-1.98-.809-3.381-.354-3.818,1.2a4.5,4.5,0,0,0-.1,1.189c-.008,2.664,0,5.328,0,8.076h-4.062V439.672a15.316,15.316,0,0,1,4.582.258C-487.445,438.9-485.77,439.12-484.3,440.925Z" transform="translate(-124.192 -29.74)" fill="#fff"/>
  </g>
</svg>
