<svg data-name="그룹 422778" xmlns="http://www.w3.org/2000/svg" width="117" height="38"><path data-name="사각형 318401" fill="#fff" opacity=".005" d="M0 0h117v38H0z"/><g data-name="그룹 422780" fill="#fff"><g data-name="그룹 422776"><path data-name="패스 840249" d="M55.145 21.609v-6.388c0-2.068-.687-3.5-2.03-4.264a7.823 7.823 0 00-4.459-1.164 5.623 5.623 0 00-4.551 1.706 6.852 6.852 0 00-1.42 4.492 6.292 6.292 0 001.069 3.818 5.449 5.449 0 002.562 1.981 5.509 5.509 0 003.008.22 3.8 3.8 0 002.395-1.544l.178-.251v1.073a3.583 3.583 0 01-.809 2.238 2.893 2.893 0 01-1.576.915 3.446 3.446 0 01-.548.049 3.035 3.035 0 01-1.172-.24 2.613 2.613 0 01-1.26-.966h-3.52c.754 2.463 2.654 3.706 5.643 3.706a9.118 9.118 0 004.459-1.138c1.345-.752 2.031-2.178 2.031-4.243zm-3.35-4.447a3.294 3.294 0 01-.681 1.609 2.707 2.707 0 01-2.2.947 5.2 5.2 0 01-.876-.079c-1.393-.232-2.1-1.431-2.1-3.552a5.492 5.492 0 01.618-2.63 2.5 2.5 0 012.415-1.18 2.44 2.44 0 012 .849 4.085 4.085 0 01.855 1.9 6 6 0 01-.034 2.136z"/><path data-name="패스 840250" d="M58.126 11.44a4.831 4.831 0 00-1.162 2 8.089 8.089 0 00-.377 2.417 9.211 9.211 0 00.449 2.847 4.407 4.407 0 001.487 2.153 6.176 6.176 0 002.668 1.137 7.586 7.586 0 003.323-.07 5.04 5.04 0 003.035-1.825 5.876 5.876 0 00.891-1.735 7.53 7.53 0 00.354-2.459 6.842 6.842 0 00-.846-3.444 4.924 4.924 0 00-2.782-2.311 7.939 7.939 0 00-2.449-.364 10.12 10.12 0 00-1.255.076 5.4 5.4 0 00-3.336 1.578zm2.7 1.453a3.152 3.152 0 012.732-.523 2.728 2.728 0 011.4 1.081 4.323 4.323 0 01.593 2.5 4.747 4.747 0 01-.671 2.683 2.709 2.709 0 01-1.448 1.056 2.994 2.994 0 01-.731.089 2.734 2.734 0 01-.87-.138A2.377 2.377 0 0160.726 19a4.652 4.652 0 01-.882-2.934 3.987 3.987 0 01.98-3.174z"/><path data-name="패스 840251" d="M90.494 18.395h-2.4a1.464 1.464 0 00-.85.2 2.22 2.22 0 00-.385.345l-.015.015-.276.252a1.037 1.037 0 01-.3.177 3.324 3.324 0 01-1.509.317 2.632 2.632 0 01-2.05-.752 4.045 4.045 0 01-.934-3.007 4.212 4.212 0 01.938-3.054 2.747 2.747 0 011.9-.665 2.678 2.678 0 011.936.665 2.594 2.594 0 01.5.653h3.359a6.046 6.046 0 00-1.263-2.157 6.391 6.391 0 00-4.634-1.594 5.882 5.882 0 00-4.433 1.645 6.2 6.2 0 00-1.546 4.463 6.268 6.268 0 001.593 4.6 5.908 5.908 0 004.434 1.649 6.951 6.951 0 003.9-1.024 4.878 4.878 0 002.035-2.728z"/><path data-name="패스 840252" d="M98.205 12.32a2.636 2.636 0 012.156.986 3.147 3.147 0 01.6 1.192 5.725 5.725 0 01.128 1.27v6.152h3.2v-6.93a4.965 4.965 0 00-.941-3.2 5.372 5.372 0 00-5.473-1.872 3.953 3.953 0 00-2.52 1.682l-.18.269v-3.9a1.32 1.32 0 00-.478-1.021 1.676 1.676 0 00-1.144-.423h-1.627v15.389h3.249v-6.11a3.876 3.876 0 01.781-2.551 2.8 2.8 0 012.249-.933z"/><path data-name="패스 840253" d="M115.915 19.99a4.669 4.669 0 00.722-2.775v-4.12a2.764 2.764 0 00-1.43-2.459 8.3 8.3 0 00-4.2-.843 6.276 6.276 0 00-3.835 1.019 3.344 3.344 0 00-1.367 2.143h3.215a1.438 1.438 0 01.844-.675 4.921 4.921 0 012.768.02.975.975 0 01.852.972c0 .667-.754 1.083-2.315 1.274a7.707 7.707 0 00-.8.115 3.579 3.579 0 01-.616.068 7.485 7.485 0 00-3.115 1.073 2.913 2.913 0 00-1.191 2.633 3.151 3.151 0 001.313 2.842 5.69 5.69 0 003.136.869c.6 0 1.3-.04 2.091-.113a6.665 6.665 0 002.218-.6 4.233 4.233 0 001.71-1.443zm-2.376-2.91a2.624 2.624 0 01-.847 2.06 3.33 3.33 0 01-2.293.747 2.2 2.2 0 01-1.379-.382 1.5 1.5 0 01-.492-1.157 1.811 1.811 0 01.374-1.048l.016-.02a3.293 3.293 0 011.362-.608l1.167-.224a10.138 10.138 0 001.954-.588l.137-.056z"/><path data-name="패스 840254" d="M72.389 20.719a6.3 6.3 0 002.156.977 10.443 10.443 0 002.569.314h.216v-2.672h-.864c-1.152 0-2.871-.586-2.871-2.208v-4.47h1.688a1.731 1.731 0 001.156-.406 1.307 1.307 0 00.472-1.038V10.19h-3.316V7.974a1.314 1.314 0 00-.47-1.021 1.614 1.614 0 00-1.095-.423h-1.722v9.37a6.947 6.947 0 00.552 2.923 4.956 4.956 0 001.529 1.896z"/></g><g data-name="그룹 422777"><path data-name="패스 840255" d="M63.632 31.3h-.33l-1.486-3.516q-.309-.727-.617-1.58h-.035q.06 1.227.062 2.25V31.3h-.719v-5.889h1.041l1.388 3.331c.16.381.333.84.525 1.377h.022q.316-.893.525-1.377l1.388-3.331h1.036v5.888h-.718v-2.846q0-1 .06-2.25h-.034q-.326.9-.617 1.58z"/><path data-name="패스 840256" d="M70.453 30.653h3.022v.647h-3.743v-5.889h3.581v.647h-2.861v1.9h2.542v.647h-2.542z"/><path data-name="패스 840257" d="M79.643 31.3h-.332l-1.485-3.516a31.355 31.355 0 01-.617-1.58h-.035q.061 1.227.061 2.25V31.3h-.718v-5.889h1.037l1.387 3.331q.238.571.523 1.377h.024q.318-.893.525-1.377l1.387-3.331h1.037v5.888h-.719v-2.846q0-1 .062-2.25h-.035q-.326.9-.618 1.58z"/><path data-name="패스 840258" d="M88.611 28.255a1.692 1.692 0 01.49.145 1.252 1.252 0 01.375.271 1.136 1.136 0 01.24.391 1.489 1.489 0 01.084.517 1.694 1.694 0 01-.061.433 1.468 1.468 0 01-.2.44 1.679 1.679 0 01-.37.394 1.877 1.877 0 01-.569.294 2.748 2.748 0 01-.581.124 7.318 7.318 0 01-.763.035h-1.513v-5.888H87.2c.133 0 .253 0 .364.007s.209.011.3.02.176.019.253.032.153.029.223.047a2.055 2.055 0 01.5.2 1.489 1.489 0 01.381.31 1.327 1.327 0 01.241.41 1.408 1.408 0 01.086.5 1.665 1.665 0 01-.051.414 1.132 1.132 0 01-.164.365 1.159 1.159 0 01-.29.3 1.624 1.624 0 01-.433.22zm-1.055-.295a3.031 3.031 0 00.366-.019 1.563 1.563 0 00.277-.06.882.882 0 00.483-.343.977.977 0 00.152-.551.849.849 0 00-.159-.533.953.953 0 00-.5-.308 2.073 2.073 0 00-.387-.068 5.974 5.974 0 00-.519-.019h-.807v1.9zm-1.094.647v2.047h.868a5.52 5.52 0 00.574-.029 2.149 2.149 0 00.45-.091 1.193 1.193 0 00.343-.169.935.935 0 00.227-.228.859.859 0 00.123-.267 1.061 1.061 0 00.037-.286 1.125 1.125 0 00-.04-.314.772.772 0 00-.128-.264.871.871 0 00-.238-.205 1.313 1.313 0 00-.369-.137 2.134 2.134 0 00-.3-.043 5.423 5.423 0 00-.419-.013z"/><path data-name="패스 840259" d="M93.626 30.653h3.024v.647h-3.743v-5.889h3.579v.647h-2.861v1.9h2.543v.647h-2.543z"/><path data-name="패스 840260" d="M100.409 28.862V31.3h-.718v-5.889h1.527a6.583 6.583 0 01.66.028 3.488 3.488 0 01.495.09 1.756 1.756 0 01.942.571 1.551 1.551 0 01.326 1.006 1.653 1.653 0 01-.115.638 1.471 1.471 0 01-.321.489 1.706 1.706 0 01-.5.338 2.571 2.571 0 01-.642.194v.018l1.747 2.517h-.72l-1.816-2.438zm0-2.8v2.149h.71c.222 0 .409-.008.565-.022a2.051 2.051 0 00.419-.079 1.149 1.149 0 00.577-.365 1.013 1.013 0 00.2-.655.95.95 0 00-.193-.61 1.041 1.041 0 00-.525-.332 1.952 1.952 0 00-.379-.071 5.7 5.7 0 00-.56-.022z"/><path data-name="패스 840261" d="M107.194 26.967a.807.807 0 00.1.429.889.889 0 00.284.28 1.738 1.738 0 00.413.18c.157.046.32.09.49.131.228.056.453.118.675.184a2.173 2.173 0 01.591.28 1.345 1.345 0 01.42.465 1.478 1.478 0 01.161.733 1.689 1.689 0 01-.174.791 1.5 1.5 0 01-.481.545 2.111 2.111 0 01-.725.316 3.74 3.74 0 01-.916.1 3.948 3.948 0 01-.47-.029 4.767 4.767 0 01-.459-.078 3.358 3.358 0 01-.393-.11 1.522 1.522 0 01-.279-.122v-.656a2.685 2.685 0 00.357.144 4.169 4.169 0 00.837.185 3.314 3.314 0 001-.026 1.522 1.522 0 00.49-.176.923.923 0 00.336-.337 1.052 1.052 0 00.123-.535.816.816 0 00-.108-.435.906.906 0 00-.289-.284 1.737 1.737 0 00-.417-.182 10.365 10.365 0 00-.495-.132q-.344-.079-.673-.179a2.08 2.08 0 01-.587-.274 1.346 1.346 0 01-.414-.453 1.439 1.439 0 01-.157-.709 1.661 1.661 0 01.166-.772 1.51 1.51 0 01.445-.535 1.9 1.9 0 01.646-.312 2.908 2.908 0 01.781-.1 4.049 4.049 0 01.878.09 4.24 4.24 0 01.748.235v.665a5.112 5.112 0 00-.755-.25 3.572 3.572 0 00-.836-.1 2.093 2.093 0 00-.582.073 1.119 1.119 0 00-.409.207.814.814 0 00-.244.326 1.093 1.093 0 00-.078.427z"/></g><path data-name="패스 840262" d="M13.146 11.141a4.547 4.547 0 104.75 4.543 4.655 4.655 0 00-4.75-4.543z"/><path data-name="패스 840263" d="M18.815.989C8.456.989.06 9.02.06 18.927s8.4 17.939 18.755 17.939 18.751-8.031 18.751-17.939S29.17.989 18.815.989zM13.147 32.51a8.128 8.128 0 01-8.291-7.929h3.542a4.754 4.754 0 009.5 0h3.541a8.127 8.127 0 01-8.292 7.929zm8.431-22.659c-1.105 0-1.421 1.142-1.494 1.5a7.636 7.636 0 011.354 4.33 8.3 8.3 0 11-8.291-7.928 8.521 8.521 0 014.191 1.1 4.757 4.757 0 014.24-2.39zm10.034 1.735a4.546 4.546 0 100 9.084v3.389a7.938 7.938 0 110-15.86z"/></g></svg>