<svg xmlns="http://www.w3.org/2000/svg" width="100" height="100"><defs><clipPath id="a"><path data-name="사각형 299583" fill="none" d="M0 0h76v33.397H0z"/></clipPath></defs><g data-name="그룹 390829" transform="translate(12 33)" clip-path="url(#a)" fill="#221e1f"><path data-name="패스 789232" d="M76 7.748H52.03a16.693 16.693 0 00-28.188 0H0l2.426 2.43h20.133a16.59 16.59 0 00-.886 2.736H5.157l2.426 2.43H21.3c-.036.447-.059.9-.059 1.354s.024.926.062 1.383H10.314l2.426 2.43h8.94a16.606 16.606 0 00.892 2.737h-7.1l2.426 2.43h5.965a16.692 16.692 0 0028.149 0H58.1l2.426-2.43H53.3a16.607 16.607 0 00.892-2.737h9.07l2.425-2.43H54.573c.038-.457.062-.917.062-1.383s-.023-.907-.059-1.354h13.842l2.426-2.43H54.2a16.589 16.589 0 00-.885-2.736h20.259zM38 30.984a14.258 14.258 0 1114.258-14.258A14.258 14.258 0 0138 30.984"/><path data-name="패스 789233" d="M30.669 18.799l-1.936-5.855h-2.194v7.522h1.6v-5.578l1.689 5.578h1.663l1.7-5.578v5.578h1.6v-7.522h-2.2z"/><path data-name="패스 789234" d="M44.626 18.452l-3.015-5.509h-1.772v7.522h1.488v-5.272l3.013 5.316 1.792-.044v-7.522h-1.488z"/><path data-name="사각형 299581" d="M36.535 12.937h1.526v7.522h-1.526z"/><path data-name="사각형 299582" d="M47.871 12.937h1.526v7.522h-1.526z"/></g></svg>