<svg xmlns="http://www.w3.org/2000/svg" xmlns:xlink="http://www.w3.org/1999/xlink" width="100" height="100" viewBox="0 0 100 100">
  <defs>
    <clipPath id="clip-path">
      <rect id="사각형_299577" data-name="사각형 299577" width="66" height="42.271" fill="none"/>
    </clipPath>
  </defs>
  <g id="car_logo_ssangyong" transform="translate(-219 -155)">
    <g id="W_100_H_100" data-name="W 100 H 100" transform="translate(219 155)" fill="#f9f9f9" stroke="#f0f0f0" stroke-width="1" opacity="0">
      <rect width="100" height="100" stroke="none"/>
      <rect x="0.5" y="0.5" width="99" height="99" fill="none"/>
    </g>
    <g id="ssangyong" transform="translate(236 184)">
      <g id="그룹_390824" data-name="그룹 390824" transform="translate(0 0)" clip-path="url(#clip-path)">
        <path id="패스_789109" data-name="패스 789109" d="M69.442,33.686c0,.038,0,.076,0,.114a13.674,13.674,0,0,1-26.579,4.525l-.125-.08-1.154.34a14.992,14.992,0,0,0,29.2-4.515l-1.2-.49Z" transform="translate(-23.29 -18.805)"/>
        <path id="패스_789110" data-name="패스 789110" d="M54.808.249A14.742,14.742,0,0,1,68.854,10.533l.227-.011.048.012a14.995,14.995,0,0,0-29.308,4.182l.25-.04A14.742,14.742,0,0,1,54.808.249" transform="translate(-22.3 0)"/>
        <path id="패스_789111" data-name="패스 789111" d="M43.988,16.269a12.5,12.5,0,0,1,23.905-4.7c.063.011.131.02.193.032l1.31.668h.026a13.672,13.672,0,0,0-26.616,4.228l.4.067Z" transform="translate(-23.972 -1.676)"/>
        <path id="패스_789112" data-name="패스 789112" d="M59.19,47.3A12.5,12.5,0,0,1,47.972,40.3l-.28-.064-.048-.031a12.751,12.751,0,0,0,24.284-4.853l-.261.194A12.5,12.5,0,0,1,59.19,47.3" transform="translate(-26.681 -19.799)"/>
        <path id="패스_789113" data-name="패스 789113" d="M106.43,23.942c.029.093.052.188.08.283,2.456.682,3.951,1.533,3.907,2.394l-1.113-.171s.378-.521-2.628-1.6c.04.165.081.332.115.5l.025.016.024.141.194.133c.67.262,1.043.542,1.036.822s-.351.5-.964.7l-.051.027V27.2l0,0c.008.1.018.2.024.308,1.46-.455,1.367-1.137,1.367-1.137l.675.139a2.368,2.368,0,0,1-2.026,1.39c0,.167.011.334.011.5,0,.09,0,.18-.005.271l.114.046c2.465-.466,3.656-1.152,3.7-2.032.049-.994-1.68-1.977-4.479-2.744" transform="translate(-59.601 -13.408)"/>
        <path id="패스_789114" data-name="패스 789114" d="M106.209,32.046a4.63,4.63,0,0,1-1.012.036l.558-.309c.161-.037.3-.078.438-.119-.007-.1-.016-.2-.024-.307l-1.312.664V32h0c.007.144.015.287.016.431l.141-.106,1.2.49c0-.091.005-.18.005-.271,0-.169-.007-.335-.011-.5" transform="translate(-58.718 -17.554)"/>
        <path id="패스_789115" data-name="패스 789115" d="M105.8,23.924c.032.1.066.2.1.3l.241-.022.019.006c-.028-.095-.051-.189-.08-.283-.016,0-.031-.008-.048-.012Z" transform="translate(-59.25 -13.391)"/>
        <path id="패스_789116" data-name="패스 789116" d="M104.97,25.606l1,.626c-.034-.169-.076-.335-.115-.5-.183-.066-.384-.135-.593-.205Z" transform="translate(-58.783 -14.295)"/>
        <path id="패스_789117" data-name="패스 789117" d="M103.418,24.333l0,0,1.074-.1c-.029-.1-.063-.2-.1-.3L103.3,24c.038.113.084.222.12.337" transform="translate(-57.847 -13.406)"/>
        <path id="패스_789118" data-name="패스 789118" d="M101.59,25.269l.311-.093.5-.32-.862.275c.015.046.032.092.046.139" transform="translate(-56.865 -13.919)"/>
        <path id="패스_789119" data-name="패스 789119" d="M103.557,24.837l0,0-.012,0Z" transform="translate(-57.984 -13.907)"/>
        <path id="패스_789120" data-name="패스 789120" d="M103.525,24.848l.028.019a.033.033,0,0,0,0-.012l-.022-.008Z" transform="translate(-57.974 -13.914)"/>
        <path id="패스_789121" data-name="패스 789121" d="M104.236,25.25l.295-.08c-.269-.09-.556-.184-.871-.28Z" transform="translate(-58.05 -13.938)"/>
        <path id="패스_789122" data-name="패스 789122" d="M103.52,24.844l0,0h0" transform="translate(-57.971 -13.913)"/>
        <path id="패스_789123" data-name="패스 789123" d="M100.015,22.51c-.062-.012-.13-.021-.193-.033.042.1.086.191.127.287l.074.012,1.426.742h.01l.012,0c-.036-.115-.082-.224-.121-.337h-.026Z" transform="translate(-55.9 -12.587)"/>
        <path id="패스_789124" data-name="패스 789124" d="M101.23,24.516c.05.14.094.282.138.424l.862-.275.008-.005c-.347-.052-.674-.1-1.008-.144" transform="translate(-56.689 -13.729)"/>
        <path id="패스_789125" data-name="패스 789125" d="M102.795,32.472c.006.11.012.223.015.334l.738.153c-.251.018-.485.032-.73.047,0,.059.008.116.008.172,0,.188-.006.375-.015.562l.9-.675c0-.144-.01-.287-.016-.431l-.03.016Z" transform="translate(-57.565 -18.184)"/>
        <path id="패스_789126" data-name="패스 789126" d="M101.676,25.764l.283-.18-.311.093c.008.029.018.059.028.088" transform="translate(-56.923 -14.327)"/>
        <path id="패스_789127" data-name="패스 789127" d="M101.037,25.589a.2.2,0,0,1,.094-.057c.017.039.033.082.048.122l.121-.036c-.015-.047-.031-.092-.046-.139l-.227.073c0,.012.007.025.011.037" transform="translate(-56.575 -14.268)"/>
        <path id="패스_789128" data-name="패스 789128" d="M100.8,24.963l.228-.073c-.044-.143-.088-.284-.138-.424l-.27-.039c.063.176.125.355.18.535" transform="translate(-56.345 -13.68)"/>
        <path id="패스_789129" data-name="패스 789129" d="M102.268,33.858c0,.255-.01.506-.026.756l.261-.195c.008-.187.015-.374.015-.561,0-.057-.007-.114-.008-.172-.082.007-.163.011-.246.016,0,.052,0,.1,0,.156" transform="translate(-57.256 -18.864)"/>
        <path id="패스_789130" data-name="패스 789130" d="M102.476,32.646l-.212-.1c0,.066,0,.132,0,.2l.245.051c0-.111-.009-.224-.015-.334l-.038-.008c.011.122.017.192.017.192" transform="translate(-57.268 -18.174)"/>
        <path id="패스_789131" data-name="패스 789131" d="M101.374,25.831c.015.038.031.076.045.116l.1-.065c-.009-.029-.019-.059-.028-.088Z" transform="translate(-56.769 -14.445)"/>
        <path id="패스_789132" data-name="패스 789132" d="M51.52,23.381c-.044.89,1.338,1.77,3.637,2.494.433.021.865.038,1.308.068,1.727.116,3.378.3,4.9.538l.483-.18c-6.39-.748-6.423-2.681-6.423-2.681l1.738.19c-.019.774,2.422,1.558,5.948,2.022l.521-.194c-3.63-.4-6.184-1.13-6.165-1.859.023-.957,4.487-1.552,9.969-1.33,1.413.057,2.754.163,3.968.306l1.4-.518c-17.781-2.457-17.375,1.346-17.375,1.346l-3.509-.149c.088-1.73,6.373-2.838,14.035-2.475a54.249,54.249,0,0,1,6.946.753c-.04-.1-.084-.191-.127-.287A53.8,53.8,0,0,0,66,20.676c-7.909-.4-14.394.815-14.485,2.706" transform="translate(-28.85 -11.536)"/>
        <path id="패스_789133" data-name="패스 789133" d="M100.356,25.83l.106-.031a.176.176,0,0,1,.031-.118c0-.012-.006-.025-.011-.037l-.427.136c.1.015.2.033.3.05" transform="translate(-56.031 -14.361)"/>
        <path id="패스_789134" data-name="패스 789134" d="M78.925,32.109l-.533-.056-.521.194c.136.018.272.037.412.054Z" transform="translate(-43.607 -17.95)"/>
        <path id="패스_789135" data-name="패스 789135" d="M74.594,33.581c-.069-.007-.144-.015-.211-.023l-.483.18.108.018Z" transform="translate(-41.385 -18.793)"/>
        <path id="패스_789136" data-name="패스 789136" d="M98.613,24.9c-.055-.181-.117-.359-.18-.535l-.32-.046-1.4.518c.514.06,1,.128,1.469.2Z" transform="translate(-54.162 -13.621)"/>
        <path id="패스_789137" data-name="패스 789137" d="M89.354,32.288l-.021,0a45.4,45.4,0,0,1-6.442.152c-1.02-.042-2-.108-2.928-.2l-.695.188c1.152.135,2.4.238,3.715.295a45.353,45.353,0,0,0,6.281-.125l.126.027c0-.066,0-.132,0-.2l-.022-.01c0-.045-.008-.086-.011-.13" transform="translate(-44.39 -18.054)"/>
        <path id="패스_789138" data-name="패스 789138" d="M75.13,33.651l-.58.185a36.659,36.659,0,0,1,4.589,1.016,50.294,50.294,0,0,0,7.541-.216l.055-.04c.015-.251.025-.5.025-.756,0-.053,0-.1,0-.157a71,71,0,0,1-11.626-.031" transform="translate(-41.748 -18.845)"/>
        <path id="패스_789139" data-name="패스 789139" d="M100.85,26.045a.188.188,0,0,1,0-.049l-.106.031.11.018" transform="translate(-56.414 -14.558)"/>
        <path id="패스_789140" data-name="패스 789140" d="M79.04,32.392l.1.011.695-.188-.181-.018Z" transform="translate(-44.262 -18.03)"/>
        <path id="패스_789141" data-name="패스 789141" d="M74.258,33.8l.128.021.579-.185-.073-.008Z" transform="translate(-41.584 -18.834)"/>
        <path id="패스_789142" data-name="패스 789142" d="M74.2,33.792l.634-.172-.1-.01-.585.174.049.008" transform="translate(-41.522 -18.822)"/>
        <path id="패스_789143" data-name="패스 789143" d="M78.806,32.371l.1.012.614-.2-.074-.007Z" transform="translate(-44.131 -18.021)"/>
        <path id="패스_789144" data-name="패스 789144" d="M31.386,35.635l.81-.065s-.22,1.04,2.379,1.692c-.028-.117-.055-.234-.081-.352a9.287,9.287,0,0,1-1.063-.4c-.584-.269-.9-.545-.875-.809s.564-.777,1.63-1.016c-.01-.143-.016-.288-.021-.432-3.149.728-2.832,1.293-2.832,1.293l-1.126.041c.054-.835,1.553-1.49,3.945-1.887,0-.086,0-.17.006-.255-2.684.443-4.382,1.2-4.448,2.15-.06.88,2.311,2.226,5.195,2.923l.031-.01c-.076-.225-.146-.451-.21-.681-1.294-.385-3.076-1.1-3.34-2.193" transform="translate(-16.637 -18.73)"/>
        <path id="패스_789145" data-name="패스 789145" d="M42.272,42.55l-.385.1,1.023.614c-.043-.124-.082-.257-.118-.392a1.543,1.543,0,0,1-.519-.326" transform="translate(-23.457 -23.828)"/>
        <path id="패스_789146" data-name="패스 789146" d="M44.211,44.137l.125.08c-.014-.038-.027-.077-.04-.116Z" transform="translate(-24.758 -24.697)"/>
        <path id="패스_789147" data-name="패스 789147" d="M40.967,41.853c-.04-.151-.074-.3-.107-.456l-.006,0h0c.029.117.049.185.049.185l-.234-.047q-.028-.1-.053-.2a.327.327,0,0,1-.032-.01c.026.118.053.235.081.352h0Z" transform="translate(-22.727 -23.14)"/>
        <path id="패스_789148" data-name="패스 789148" d="M39.923,35.621c0-.151,0-.239,0-.239l.168-.083c0-.05,0-.1-.005-.146l-.25.056c0,.145.01.289.021.432.019,0,.036-.01.055-.015Z" transform="translate(-22.309 -19.686)"/>
        <path id="패스_789149" data-name="패스 789149" d="M41.111,43.407c.065.23.134.456.211.681l1.154-.34s-.6-.11-1.364-.341" transform="translate(-23.022 -24.308)"/>
        <path id="패스_789150" data-name="패스 789150" d="M40.043,33.611l.014,0c0-.086.005-.172.007-.26l-.25.04c0,.085-.006.169-.006.255l.235-.039" transform="translate(-22.292 -18.678)"/>
        <path id="패스_789151" data-name="패스 789151" d="M41.439,33.649c0-.059,0-.119,0-.177l-.945-.16-.119.018c0,.088-.007.173-.007.26l1.067.224c0-.1,0-.165,0-.165" transform="translate(-22.608 -18.655)"/>
        <path id="패스_789152" data-name="패스 789152" d="M40.434,35.282l1.019-.515h.006c0-.016,0-.034,0-.049l-.153,0c-.326.062-.624.124-.9.186,0,.048,0,.1,0,.146l.018-.01c0,.08,0,.158,0,.236" transform="translate(-22.627 -19.443)"/>
        <path id="패스_789153" data-name="패스 789153" d="M41.318,41.949l.19.114.385-.1a2.951,2.951,0,0,0-.682-.466c.033.152.068.305.107.456" transform="translate(-23.078 -23.236)"/>
        <path id="패스_789154" data-name="패스 789154" d="M43.977,33.386c0-.073,0-.146.005-.219l-.785.291-.4-.067c0,.059,0,.118,0,.177,0,0,0,.063,0,.165l.113.022Z" transform="translate(-23.966 -18.574)"/>
        <path id="패스_789155" data-name="패스 789155" d="M43.952,35.3l.059,0c-.015-.213-.025-.43-.029-.647-.387.01-.781.019-1.186.032,0,.015,0,.032,0,.048l1.157.371c0,.064,0,.13,0,.2" transform="translate(-23.966 -19.403)"/>
        <path id="패스_789156" data-name="패스 789156" d="M45.485,43.664c-.346-.058-.688-.114-1.048-.178l.892-.228c-.01-.028-.02-.057-.03-.085.011.028.021.057.03.085l.131-.033.133.015c-.03-.085-.054-.172-.082-.26a.387.387,0,0,0-.093,0c-.018.007-.037.01-.054.015l.014.054-.972.419c.013.039.026.078.04.116l1.385.889c-.125-.266-.239-.538-.346-.814" transform="translate(-24.867 -24.069)"/>
        <path id="패스_789157" data-name="패스 789157" d="M47.532,45.442c-.137-.281-.266-.568-.382-.861-.1-.015-.195-.033-.291-.049.107.277.221.548.346.814l.048.031.28.064" transform="translate(-26.241 -24.939)"/>
        <path id="패스_789158" data-name="패스 789158" d="M63.877,36.054l.249.03,2.112-.631-.1-.012Z" transform="translate(-35.771 -19.848)"/>
        <path id="패스_789159" data-name="패스 789159" d="M52.594,32.932q.515.036,1.019.081c-.662-.156-1.279-.323-1.838-.5a51.986,51.986,0,0,0-5.7.033l-.593.221c0,.073,0,.145-.005.218l.2-.068a51.757,51.757,0,0,1,6.919.016" transform="translate(-25.469 -18.172)"/>
        <path id="패스_789160" data-name="패스 789160" d="M51.458,35.368c.73.056,1.439.126,2.123.2l2.262-.612a75.591,75.591,0,0,0-10.352-.349c0,.217.015.434.029.647a47.466,47.466,0,0,1,5.938.111" transform="translate(-25.475 -19.365)"/>
        <path id="패스_789161" data-name="패스 789161" d="M47.851,43.071c-.442-.05-.779-.085-.934-.091.028.088.052.175.082.26.1.012.2.023.3.036Z" transform="translate(-26.274 -24.069)"/>
        <path id="패스_789162" data-name="패스 789162" d="M65.315,36.537l.125.015,1.045-.388Z" transform="translate(-36.576 -20.252)"/>
        <path id="패스_789163" data-name="패스 789163" d="M66.753,35.494l-.2-.024-2.112.63c.129.015.258.03.384.048L66,35.775Z" transform="translate(-36.088 -19.863)"/>
        <path id="패스_789164" data-name="패스 789164" d="M68.295,38.693c.068-.976-1.588-1.971-4.292-2.778-.189-.008-.377-.014-.568-.023-.64-.032-1.268-.075-1.885-.125,3.591.818,5.909,1.928,5.838,3l-3.5-.263s.514-2.042-6.517-2.951l-.847.27-1.045.388c4.041.526,6.936,1.41,6.864,2.189-.088.953-4.594,1.387-10.064.969-1.045-.081-2.919-.321-4.086-.455l-.551.205c1.032.128,1.89.278,3.937.441,5.729.458,11.014.038,11.114-1.023l1.191,0s-.341,3.651-16.36,1.012c.117.293.245.579.382.861a30.541,30.541,0,0,0,5.852.741c7.9.529,14.411-.572,14.54-2.46" transform="translate(-26.611 -19.909)"/>
        <path id="패스_789165" data-name="패스 789165" d="M67.976,35.806l.847-.27-.091-.011Z" transform="translate(-38.067 -19.894)"/>
        <path id="패스_789166" data-name="패스 789166" d="M71.925,34.591h.013l.161-.048.013,0Z" transform="translate(-40.278 -19.342)"/>
        <path id="패스_789167" data-name="패스 789167" d="M65.127,33.5l.187-.052L66,33.2c-1.525-.238-3.175-.422-4.9-.538-.444-.03-.875-.048-1.309-.068.56.178,1.177.345,1.839.5" transform="translate(-33.48 -18.25)"/>
        <path id="패스_789168" data-name="패스 789168" d="M71.978,34.6l.138-.052-.161.049.023,0" transform="translate(-40.295 -19.347)"/>
        <path id="패스_789169" data-name="패스 789169" d="M72.322,34.53l.048-.014-.036.01Z" transform="translate(-40.5 -19.329)"/>
        <path id="패스_789170" data-name="패스 789170" d="M72.387,34.208l.755-.225-.108-.017-.682.252Z" transform="translate(-40.517 -19.021)"/>
        <path id="패스_789171" data-name="패스 789171" d="M75.518,34.939q.926.075,1.885.125c.192.01.379.015.568.023a36.672,36.672,0,0,0-4.589-1.015l-.917.292c1.091.168,2.115.362,3.053.576" transform="translate(-40.58 -19.08)"/>
        <path id="패스_789172" data-name="패스 789172" d="M72.194,34.24l-.048.014-.139.052c.067.011.135.02.2.03l.918-.292L73,34.023Z" transform="translate(-40.324 -19.053)"/>
        <path id="패스_789173" data-name="패스 789173" d="M72.432,34.23l.8-.217-.049-.008Z" transform="translate(-40.562 -19.043)"/>
        <path id="패스_789174" data-name="패스 789174" d="M44.016,43.248a.145.145,0,0,0-.025.015c-.011.011-.032,0-.049,0,.037.135.076.268.119.392l.085-.036c-.043-.127-.091-.249-.13-.375" transform="translate(-24.608 -24.219)"/>
        <path id="패스_789175" data-name="패스 789175" d="M42.79,34.83h-.006l.006,0Z" transform="translate(-23.959 -19.504)"/>
        <path id="패스_789176" data-name="패스 789176" d="M43.883,35.4l.069,0c0-.069,0-.135,0-.2L42.8,34.831v0Z" transform="translate(-23.966 -19.505)"/>
        <path id="패스_789177" data-name="패스 789177" d="M44.209,43.316c-.03-.066-.057-.134-.084-.2l-.015.008c.039.127.088.249.13.375l.972-.42s-.005-.022-.014-.054a.863.863,0,0,1-.185.036Z" transform="translate(-24.702 -24.093)"/>
        <path id="패스_789178" data-name="패스 789178" d="M44.144,43.142c.027.068.054.137.084.2l.8-.256c-.329.028-.692-.078-.888.054" transform="translate(-24.721 -24.122)"/>
        <path id="패스_789179" data-name="패스 789179" d="M43.85,42.588c-.04-.1-.076-.21-.109-.318l-.046.013c.034.148.07.3.109.437.017,0,.038.007.049,0s.018-.01.025-.015c-.011-.038-.026-.073-.037-.11Z" transform="translate(-24.469 -23.671)"/>
        <path id="패스_789180" data-name="패스 789180" d="M43.492,41.224l.046-.013a8.156,8.156,0,0,1-.206-.832c.045.283.1.569.16.846" transform="translate(-24.266 -22.612)"/>
        <path id="패스_789181" data-name="패스 789181" d="M44.874,41.609,43.8,41.9c.033.108.07.215.109.318l1.036-.309c-.022-.087-.045-.189-.071-.3" transform="translate(-24.528 -23.301)"/>
        <path id="패스_789182" data-name="패스 789182" d="M43.952,35.4l-.069,0-1.086-.57c0,.055,0,.117,0,.185.021.38.081,1.3.231,2.254a8.273,8.273,0,0,0,.206.832l1.074-.291a13.327,13.327,0,0,1-.359-2.413" transform="translate(-23.966 -19.508)"/>
        <path id="패스_789183" data-name="패스 789183" d="M44.036,42.993l-.009,0c.011.037.026.071.037.11l.015-.009c-.015-.035-.03-.068-.043-.1" transform="translate(-24.655 -24.076)"/>
        <path id="패스_789184" data-name="패스 789184" d="M46.162,43.034A.89.89,0,0,0,46.347,43c0-.007,0-.014-.006-.021Z" transform="translate(-25.851 -24.067)"/>
        <path id="패스_789185" data-name="패스 789185" d="M44.047,42.6c.013.036.028.069.043.1.2-.132.559-.026.888-.054l.18-.057c-.017-.064-.042-.167-.074-.3Z" transform="translate(-24.666 -23.682)"/>
        <path id="패스_789186" data-name="패스 789186" d="M40.2,35.485l-.168.083s0,.088,0,.239l.177-.088c0-.078,0-.157-.007-.234" transform="translate(-22.417 -19.872)"/>
        <path id="패스_789187" data-name="패스 789187" d="M40.71,41.546l.233.047s-.019-.068-.048-.185c-.078-.02-.157-.041-.238-.064.017.067.034.134.053.2" transform="translate(-22.768 -23.153)"/>
        <path id="패스_789188" data-name="패스 789188" d="M40.44,35.7c0-.078,0-.156,0-.236l-.018.01c0,.077,0,.156.007.234Z" transform="translate(-22.634 -19.859)"/>
        <path id="패스_789189" data-name="패스 789189" d="M40.209,36.016l-.177.089a10.067,10.067,0,0,0,.275,2.255c.081.023.159.044.238.064a11.926,11.926,0,0,1-.3-1.947c-.014-.154-.028-.306-.037-.461" transform="translate(-22.418 -20.169)"/>
        <path id="패스_789190" data-name="패스 789190" d="M40.471,36.466c-.01-.152-.018-.308-.022-.468l-.015.007c.01.155.023.307.037.461" transform="translate(-22.643 -20.159)"/>
        <path id="패스_789191" data-name="패스 789191" d="M101.05,25.655c.01.033.018.066.028.1l.114-.034c-.016-.04-.031-.083-.048-.122a.2.2,0,0,0-.094.057" transform="translate(-56.588 -14.335)"/>
        <path id="패스_789192" data-name="패스 789192" d="M102.252,32.494l.212.1s-.005-.07-.017-.192l-.2-.042c0,.046.007.09.009.136" transform="translate(-57.256 -18.121)"/>
        <path id="패스_789193" data-name="패스 789193" d="M101.115,25.91c.008.026.015.054.022.08l.112.018.025-.016c-.014-.04-.029-.078-.045-.117Z" transform="translate(-56.624 -14.491)"/>
        <path id="패스_789194" data-name="패스 789194" d="M100.98,25.846l.059-.018c-.01-.033-.018-.066-.029-.1a.178.178,0,0,0-.031.118" transform="translate(-56.549 -14.408)"/>
        <path id="패스_789195" data-name="패스 789195" d="M102.191,32.349c0,.044.009.085.011.13l.022.01c0-.046-.007-.09-.009-.136Z" transform="translate(-57.227 -18.115)"/>
        <path id="패스_789196" data-name="패스 789196" d="M100.985,26.022l.077.012c-.007-.026-.015-.053-.022-.08l-.059.018a.188.188,0,0,0,0,.049" transform="translate(-56.549 -14.535)"/>
        <path id="패스_789197" data-name="패스 789197" d="M101.729,29.14l.2.042a13.527,13.527,0,0,0-.472-2.571l-.136.037a12.5,12.5,0,0,1,.4,2.492" transform="translate(-56.742 -14.902)"/>
        <path id="패스_789198" data-name="패스 789198" d="M101.165,26.136c.024.082.048.163.07.246l.136-.037c-.022-.07-.046-.14-.07-.207l-.026.016-.112-.018" transform="translate(-56.652 -14.636)"/>
        <path id="패스_789199" data-name="패스 789199" d="M101.623,29.183l.023,0a12.465,12.465,0,0,0-.4-2.492l-.066.018a11.909,11.909,0,0,1,.446,2.47" transform="translate(-56.659 -14.949)"/>
        <path id="패스_789200" data-name="패스 789200" d="M100.993,26.139s.031.09.08.246l.065-.018c-.023-.083-.046-.164-.07-.246l-.077-.012c0,.011,0,.018,0,.031" transform="translate(-56.554 -14.621)"/>
        <path id="패스_789201" data-name="패스 789201" d="M107.3,27.29c-.008-.048-.015-.093-.024-.142l-.025-.016c.01.048.018.094.027.142Z" transform="translate(-60.061 -15.194)"/>
        <path id="패스_789202" data-name="패스 789202" d="M107.841,31.328l0,0v-.012l-.005,0s0,.009,0,.012" transform="translate(-60.39 -17.536)"/>
        <path id="패스_789203" data-name="패스 789203" d="M104.83,25.724l1.092.752c-.008-.048-.017-.095-.027-.142l-1-.626Z" transform="translate(-58.705 -14.397)"/>
        <path id="패스_789204" data-name="패스 789204" d="M104.86,31.989V32l1.312-.664V31.32Z" transform="translate(-58.722 -17.539)"/>
        <path id="패스_789205" data-name="패스 789205" d="M103.579,24.866a.042.042,0,0,1,0,.012l.546.375.062-.016-.576-.36-.036-.011" transform="translate(-58.004 -13.925)"/>
        <path id="패스_789206" data-name="패스 789206" d="M103.574,24.836l0,0,0,0Z" transform="translate(-57.999 -13.907)"/>
        <path id="패스_789207" data-name="패스 789207" d="M107.544,29.155l.005,0a15.514,15.514,0,0,0-.216-1.683l-.022-.016a14.816,14.816,0,0,1,.232,1.7" transform="translate(-60.095 -15.374)"/>
        <path id="패스_789208" data-name="패스 789208" d="M105.4,26.5l-1.092-.752-.413.112a13.572,13.572,0,0,1,.426,3.01l1.311-.669a14.816,14.816,0,0,0-.232-1.7" transform="translate(-58.18 -14.417)"/>
        <path id="패스_789209" data-name="패스 789209" d="M103.722,25.38l.413-.112-.546-.375c.018.06.07.234.133.487" transform="translate(-58.01 -13.94)"/>
        <path id="패스_789210" data-name="패스 789210" d="M3.271,77.915,3.8,79.068l-.678,1.64H5.171l1.154-2.726,1.113,2.726H9.446s-1.093-2.519-1.438-3.174c-.38-.719-.488-.8-1.1-.8H4.941l-.516,1.1-.488-1.1H1.968L0,80.709H2.1Z" transform="translate(0 -42.972)" fill="#231815"/>
        <path id="패스_789211" data-name="패스 789211" d="M24.972,76.7h-2.05v4.37h2.05V79.362h1.3v-.923h-1.3Z" transform="translate(-12.837 -42.954)" fill="#231815"/>
        <path id="패스_789212" data-name="패스 789212" d="M41.668,78.287c.516,0,1.914-.556,1.914-1.126s-1.535-1.6-5.213-1.6-5.552.841-5.552,1.574,1.9,1.2,1.9,1.2v1.18H32.084v.936H44.3v-.936H41.668Zm-2.2,1.222H36.957v-.881a8.527,8.527,0,0,0,1.221.081c.72,0,1.29-.053,1.29-.053Zm-1.3-1.628c-1.127-.015-3.027-.1-3.027-.719,0-.665,1.955-.786,3.109-.786s3.082.149,3.068.813c-.014.61-2.078.707-3.15.693" transform="translate(-17.967 -42.314)" fill="#231815"/>
        <path id="패스_789213" data-name="패스 789213" d="M69.758,78.094V77.1H62.112v.989h1.166l-1.446,6.226H64s1.408-5.9,1.433-6.048.1-.177.19-.177h.609c.178,0,.178.139.178.139l1.446,6.086h2.168l-1.484-6.224Z" transform="translate(-34.626 -43.178)" fill="#231815"/>
        <path id="패스_789214" data-name="패스 789214" d="M85.053,76.7H83.076l0,8.166h1.966V80.515H86.36V79.442H85.053Z" transform="translate(-46.522 -42.951)" fill="#231815"/>
        <path id="패스_789215" data-name="패스 789215" d="M99.457,79.586h4.04v-.9H95.032V77.664h8.481V76.7H93.077s-.016.788-.016,1.66.275,1.228,1.453,1.228h2.748v.63H92.254v.951h12.131V80.2H99.457Z" transform="translate(-51.662 -42.951)" fill="#231815"/>
        <path id="패스_789216" data-name="패스 789216" d="M129.244,77.306v-.953h-2.632v-.726h-2.294v.726h-2.682l.016.953h1.227l-1.55,6.186h2.2s1.453-5.976,1.486-6.12.194-.1.533-.113c.4-.016.324.064.372.161s1.469,6.072,1.469,6.072h2.165l-1.534-6.186Z" transform="translate(-67.944 -42.351)" fill="#231815"/>
        <path id="패스_789217" data-name="패스 789217" d="M144.457,76.692h-2.019l.015,8.155h2V80.52h1.309v-1h-1.309Z" transform="translate(-79.765 -42.948)" fill="#231815"/>
        <path id="패스_789218" data-name="패스 789218" d="M8.71,86.894c-3.1,0-5.3,1.019-5.3,2.052s2.422,1.987,5.3,1.987,5.428-.92,5.428-1.987-2.326-2.052-5.428-2.052m0,3.085c-.807,0-3-.161-3-1.033s2.164-1.1,3-1.1,3.118.211,3.118,1.1S9.517,89.979,8.71,89.979" transform="translate(-1.911 -48.661)" fill="#231815"/>
        <path id="패스_789219" data-name="패스 789219" d="M38.825,87.8c-3.219,0-5.5.914-5.5,1.844s2.515,1.785,5.5,1.785,5.635-.828,5.635-1.785S42.046,87.8,38.825,87.8m.033,2.71c-.839,0-3.15-.082-3.15-.865s2.246-.924,3.118-.924,3.238.126,3.238.924-2.369.865-3.206.865" transform="translate(-18.663 -49.169)" fill="#231815"/>
        <path id="패스_789220" data-name="패스 789220" d="M99.289,87.731c-3.1,0-5.3.915-5.3,1.844s2.423,1.785,5.3,1.785,5.427-.827,5.427-1.785-2.326-1.844-5.427-1.844m0,2.772c-.808,0-3-.144-3-.929s2.164-.987,3-.987,3.118.189,3.118.987-2.311.929-3.118.929" transform="translate(-52.635 -49.129)" fill="#231815"/>
        <path id="패스_789221" data-name="패스 789221" d="M75,95.041h0Z" transform="translate(-41.999 -53.223)"/>
      </g>
    </g>
  </g>
</svg>
