<svg xmlns="http://www.w3.org/2000/svg" width="100" height="100"><defs><clipPath id="a"><path data-name="사각형 301578" fill="none" d="M0 0h56v56H0z"/></clipPath></defs><g data-name="그룹 393533" transform="translate(22 22)" clip-path="url(#a)" fill="#e92128"><path data-name="패스 792996" d="M27.995 11.171s-.026.021-.071.064a27.086 27.086 0 016.99 13.135c2.13 11.967-5.843 19.736-6.671 20.5l.053.052c24.513-2.444 22.4-23.63 21.9-27.013-.047-.1-.093-.206-.141-.308-3.773 8.343-7.02 10.4-7.02 10.4C41.155 7.164 24.494 5.468 19.121 5.468h-.451q-.262.108-.524.224a21.011 21.011 0 019.726 5.494l.123-.012"/><path data-name="패스 792997" d="M28.243 44.874a27.09 27.09 0 01-6.988-13.135c-2.131-11.966 5.841-19.734 6.67-20.5l.071-.064-.123.012C2.082 13.755 5.766 37.072 6.031 38.575l.025.052c3.8-8.447 7.076-10.518 7.076-10.518 1.879 20.837 18.543 22.532 23.916 22.532.24-.1.479-.195.716-.3a20.992 20.992 0 01-9.468-5.416l-.053-.052"/><path data-name="패스 792998" d="M28 0a28 28 0 1028 28A28 28 0 0028 0m17.232 45.232a24.351 24.351 0 01-7.468 5.109c-.236.1-.476.2-.716.3A24.428 24.428 0 016.056 38.627l-.025-.052A24.426 24.426 0 0118.145 5.7q.262-.116.524-.224A24.434 24.434 0 0150.056 17.6c.048.1.094.2.141.308a24.416 24.416 0 01-4.965 27.32"/></g></svg>