<svg xmlns="http://www.w3.org/2000/svg" width="100" height="100"><defs><clipPath id="a"><path data-name="사각형 299589" fill="none" d="M0 0h30v55H0z"/></clipPath></defs><g data-name="그룹 390835" clip-path="url(#a)" fill="#221e1f" fill-rule="evenodd" transform="translate(35 23)"><path data-name="패스 789257" d="M29.554.445A1.51 1.51 0 0028.481 0H1.519a1.521 1.521 0 00-1.52 1.519v51.962A1.52 1.52 0 001.519 55h26.962a1.52 1.52 0 001.518-1.519V1.519a1.509 1.509 0 00-.445-1.074m-.516 53.147a.559.559 0 01-.558.558H1.519a.558.558 0 01-.557-.558V45.1h28.076zm0-9.567H.961V10.5l28.077-.025zm0-34.628H.961V1.408A.558.558 0 011.519.85h26.962a.558.558 0 01.558.558z"/><path data-name="패스 789258" d="M15.394 8.591a1.474 1.474 0 00.1-.493V2.405a1.478 1.478 0 00-.1-.493h.865a1.48 1.48 0 00-.1.493v5.156c0 .192.2.421.649.421a3.944 3.944 0 001.491-.18l-.493.793z"/><path data-name="패스 789259" d="M19.982 8.591a1.475 1.475 0 00.1-.493V2.405a1.479 1.479 0 00-.1-.493h.865a1.479 1.479 0 00-.1.493v5.156c0 .192.2.421.649.421a3.942 3.942 0 001.491-.18l-.493.793z"/><path data-name="패스 789260" d="M26.93 3.243l.3-.757a2.579 2.579 0 01-.529-.168 2.646 2.646 0 00-.973-.253 1.41 1.41 0 00-1.451 1.322 1.749 1.749 0 00.793 1.539 8.259 8.259 0 011.526 1.394c.373.517.565 1.6-.769 1.755a2.521 2.521 0 01-1.238-.409l.108.938a1.425 1.425 0 01.553.024 4.5 4.5 0 00.745.072c.264-.012 1.623-.24 1.623-1.551a2.453 2.453 0 00-1.13-1.983c-.228-.168-.979-.825-1.262-1.045-.217-.168-.565-1.359.5-1.382a2.249 2.249 0 011.2.5"/><path data-name="패스 789261" d="M16.206 52.551a1.483 1.483 0 00.1.493h-.866a1.483 1.483 0 00.1-.493v-3.065l-1.779-3.125h.781l1.358 2.392 1.359-2.392h.781l-1.827 3.2z"/><path data-name="패스 789262" d="M27.04 48.801h-1.178c-.2 0-.373-.084-.373-.349v-1.058c0-.192.2-.42.649-.42a2.466 2.466 0 011.178.18l-.18-.793H24.72a1.477 1.477 0 01.1.492v5.7a1.48 1.48 0 01-.1.493h2.416l.492-.793a3.94 3.94 0 01-1.491.18c-.444 0-.649-.228-.649-.421v-2.19c0-.265.168-.348.373-.348h1.178z"/><path data-name="패스 789263" d="M23.233 47.507a2.878 2.878 0 00-1.81-.586 2.77 2.77 0 00-2.686 2.782 2.813 2.813 0 002.686 2.83 2.526 2.526 0 001.9-.571l.026.821a3.2 3.2 0 01-1.925.4 3.458 3.458 0 01-3.331-3.476 3.415 3.415 0 013.331-3.428 3.009 3.009 0 011.72.426z"/><path data-name="패스 789264" d="M10.676 1.918a3.332 3.332 0 103.332 3.332 3.332 3.332 0 00-3.332-3.332m0 6.017a2.685 2.685 0 112.685-2.685 2.685 2.685 0 01-2.685 2.685"/><path data-name="패스 789265" d="M10.241 46.371a3.332 3.332 0 103.332 3.332 3.331 3.331 0 00-3.332-3.332m0 6.017a2.686 2.686 0 112.685-2.683 2.686 2.686 0 01-2.685 2.686"/><path data-name="패스 789266" d="M4.602 5.081c-.072-.084-.061-.216.048-.216h.313a1.479 1.479 0 100-2.958H2.836a1.466 1.466 0 01.1.493v5.7a1.466 1.466 0 01-.1.492h.866a1.475 1.475 0 01-.1-.492V5.285c0-.217.132-.2.228-.084L6.702 8.59h.877zm-1-.9V2.569h1.359a.807.807 0 010 1.615z"/><path data-name="패스 789267" d="M4.168 49.438c-.073-.084-.061-.217.048-.217h.312a1.479 1.479 0 000-2.958H2.401a1.467 1.467 0 01.1.493v5.7a1.466 1.466 0 01-.1.492h.866a1.468 1.468 0 01-.1-.492v-2.813c0-.216.132-.2.228-.084l2.872 3.389h.877zm-1-.9v-1.612h1.358a.807.807 0 110 1.614z"/><path data-name="패스 789268" d="M15.854 39.175h5.336c-.817-.433-1.106-1.587-1.154-2.692a22.2 22.2 0 00-3.99-9.9 8.786 8.786 0 004.567-7.5c0-4.471-3.942-6.586-7.356-6.586h-8.99a2.289 2.289 0 01.577 1.779v22.783a3.213 3.213 0 01-.817 2.115h4.087a3.211 3.211 0 01-.817-2.115v-8.365a19.558 19.558 0 006.9-1.233c2.811 3.013 3.147 7.388 3.2 8.59a4.029 4.029 0 01-1.538 3.125M7.296 26.624V14.079h5.289c3.654 0 4.856 2.308 4.807 4.76-.24 6.779-6.971 7.788-10.1 7.788"/><path data-name="패스 789269" d="M12.101 31.337a24.167 24.167 0 003.559-.305 12.335 12.335 0 00-.939-1.983 15.914 15.914 0 01-2.619.22v-.528a21.67 21.67 0 01-2.452.408v10.553a3.212 3.212 0 01-.817 2.116h4.087a3.214 3.214 0 01-.817-2.116z"/><path data-name="패스 789270" d="M16.431 16.648h-4.327v8.606a12.121 12.121 0 01-2.452.625V16.84a2.288 2.288 0 00-.578-1.779h5.986a3.864 3.864 0 011.37 1.587"/><path data-name="패스 789271" d="M21.258 18.181a4.894 4.894 0 01.988 3.267 7.154 7.154 0 01-4.5 6.695c.342.517.771 1.495 1.037 2.027l.34-.124c2.811 3.013 3.075 7.412 3.123 8.614a4.029 4.029 0 01-1.538 3.125h5.341c-.817-.433-1.106-1.587-1.154-2.692a22.2 22.2 0 00-3.99-9.9 8.785 8.785 0 004.567-7.5c0-3.528-2.526-5.613-5.239-6.326a9.379 9.379 0 011.03 2.819"/></g></svg>