<svg xmlns="http://www.w3.org/2000/svg" xmlns:xlink="http://www.w3.org/1999/xlink" width="100" height="100" viewBox="0 0 100 100">
  <defs>
    <linearGradient id="linear-gradient" x1="0.5" y1="1" x2="0.5" gradientUnits="objectBoundingBox">
      <stop offset="0" stop-color="#7d868f"/>
      <stop offset="1" stop-color="#e9eaeb"/>
    </linearGradient>
    <linearGradient id="linear-gradient-2" x1="0.5" y1="1" x2="0.5" gradientUnits="objectBoundingBox">
      <stop offset="0.45" stop-color="#7d868f"/>
      <stop offset="0.55" stop-color="#e9eaeb"/>
    </linearGradient>
    <linearGradient id="linear-gradient-3" x1="0.5" y1="0" x2="0.5" y2="1" xlink:href="#linear-gradient-2"/>
    <linearGradient id="linear-gradient-4" x1="0.5" y1="0" x2="0.5" y2="1" xlink:href="#linear-gradient"/>
    <linearGradient id="linear-gradient-6" x1="0.387" y1="0.355" x2="0.617" y2="0.651" gradientUnits="objectBoundingBox">
      <stop offset="0.006" stop-color="#bfc3c7"/>
      <stop offset="1" stop-color="#f2f2f2"/>
    </linearGradient>
    <linearGradient id="linear-gradient-7" x1="-0.215" y1="0.25" x2="1.188" y2="0.935" gradientUnits="objectBoundingBox">
      <stop offset="0.006" stop-color="#757e87"/>
      <stop offset="0.5" stop-color="#bbc0c4"/>
      <stop offset="1" stop-color="#9aa3aa"/>
    </linearGradient>
    <linearGradient id="linear-gradient-8" x1="77.981" y1="-126.117" x2="78.212" y2="-125.821" xlink:href="#linear-gradient-6"/>
    <linearGradient id="linear-gradient-9" x1="116.05" y1="-126.222" x2="117.453" y2="-125.537" xlink:href="#linear-gradient-7"/>
  </defs>
  <g id="car_logo_scion" transform="translate(-225 -160)">
    <g id="W_100_H_100" data-name="W 100 H 100" transform="translate(225 160)" fill="#f9f9f9" stroke="#f0f0f0" stroke-width="1" opacity="0">
      <rect width="100" height="100" stroke="none"/>
      <rect x="0.5" y="0.5" width="99" height="99" fill="none"/>
    </g>
    <g id="scion" transform="translate(127.948 -2903.671)">
      <path id="패스_791907" data-name="패스 791907" d="M147.054,3092.671c-16.543,0-30,9.282-30,20.691s13.458,20.687,30,20.687c8,0,15.528-2.146,21.19-6.041,5.68-3.908,8.809-9.109,8.809-14.646C177.052,3101.953,163.595,3092.671,147.054,3092.671Zm0,38.22c-13.4,0-24.265-7.849-24.265-17.53s10.862-17.532,24.265-17.532,24.262,7.848,24.262,17.532S160.454,3130.891,147.053,3130.891Z" fill="url(#linear-gradient)"/>
      <path id="패스_791908" data-name="패스 791908" d="M147.287,3093.07c-16.48,0-29.837,9.189-29.837,20.526s13.357,20.522,29.837,20.522,29.833-9.189,29.833-20.522S163.761,3093.07,147.287,3093.07Zm0,38.051c-13.4,0-24.26-7.847-24.26-17.525s10.86-17.528,24.26-17.528,24.258,7.846,24.258,17.528S160.685,3131.121,147.287,3131.121Z" transform="translate(-0.233 -0.234)" fill="url(#linear-gradient-2)"/>
      <path id="패스_791909" data-name="패스 791909" d="M153.192,3097.6c-14.182,0-25.677,8.351-25.677,18.654s11.494,18.651,25.677,18.651,25.674-8.351,25.674-18.651S167.369,3097.6,153.192,3097.6Zm0,36.122c-13.33,0-24.134-7.821-24.134-17.468s10.8-17.471,24.134-17.471,24.131,7.821,24.131,17.471S166.52,3133.72,153.192,3133.72Z" transform="translate(-6.138 -2.891)" fill="url(#linear-gradient-3)"/>
      <path id="패스_791910" data-name="패스 791910" d="M152.724,3096.8c-14.34,0-26.006,8.516-26.006,18.984s11.666,18.981,26.006,18.981,26-8.515,26-18.981S167.062,3096.8,152.724,3096.8Zm0,37.646c-14.189,0-25.689-8.356-25.689-18.663s11.5-18.665,25.689-18.665,25.686,8.356,25.686,18.665S166.91,3134.447,152.724,3134.447Z" transform="translate(-5.671 -2.422)" fill="url(#linear-gradient-4)"/>
      <path id="패스_791911" data-name="패스 791911" d="M178.465,3136.121h-50.55a14.813,14.813,0,0,0,0,6.838h50.551a14.82,14.82,0,0,0,0-6.838Z" transform="translate(-6.138 -26.18)" fill="url(#linear-gradient)"/>
      <path id="패스_791912" data-name="패스 791912" d="M177.356,3135.124H130.205a7.942,7.942,0,0,0-1.684.412H179.04A7.938,7.938,0,0,0,177.356,3135.124Z" transform="translate(-6.729 -25.477)" fill="#666f77"/>
      <path id="패스_791913" data-name="패스 791913" d="M130.093,3152.666H128.52a7.947,7.947,0,0,0,1.684.412h47.151a7.964,7.964,0,0,0,1.683-.412H130.093Z" transform="translate(-6.728 -36.005)" fill="#4a5258"/>
      <path id="패스_791914" data-name="패스 791914" d="M255.586,3152.634l0,.013h0Z" transform="translate(-83.271 -35.986)" fill="#4a5258"/>
      <path id="패스_791915" data-name="패스 791915" d="M128.517,3152.654h0l0-.008Z" transform="translate(-6.725 -35.993)" fill="#4a5258"/>
      <path id="패스_791916" data-name="패스 791916" d="M182.386,3098.5s-6.883,7.032-8.108,15.552h6C178.212,3107.318,182.386,3098.5,182.386,3098.5Z" transform="translate(-34.45 -3.417)" fill="url(#linear-gradient-6)"/>
      <path id="패스_791917" data-name="패스 791917" d="M187.985,3114.047h4.906c-5.548-3.021-2.8-15.552-2.8-15.552S185.916,3107.318,187.985,3114.047Z" transform="translate(-42.305 -3.417)" fill="url(#linear-gradient-7)"/>
      <path id="패스_791918" data-name="패스 791918" d="M190.209,3168.218s6.883-7.032,8.108-15.552h-6C194.383,3159.4,190.209,3168.218,190.209,3168.218Z" transform="translate(-44.041 -36.576)" fill="url(#linear-gradient-8)"/>
      <path id="패스_791919" data-name="패스 791919" d="M188.337,3152.666h-4.906c5.548,3.021,2.8,15.552,2.8,15.552S190.406,3159.4,188.337,3152.666Z" transform="translate(-39.913 -36.576)" fill="url(#linear-gradient-9)"/>
      <path id="패스_791920" data-name="패스 791920" d="M179.617,3142.481a.884.884,0,0,1-.908.882h-.549v-3.6a.419.419,0,0,0-.423-.414H170.7v4.014h-1.492v-4.9h9.163a1.251,1.251,0,0,1,1.247,1.272l0,2.742Zm-47.749,0,8.5,0a.384.384,0,0,0,.423-.383l0-.733h-8.91v-1.625a1.273,1.273,0,0,1,1.286-1.272h9.117v.882h-8.549c-.271,0-.362.168-.362.391l-.01.744h8.923v1.615a1.259,1.259,0,0,1-1.282,1.265h-8.226a.886.886,0,0,1-.907-.885Zm13.07-.407a.42.42,0,0,0,.43.41h8.471v.882h-9.107a1.278,1.278,0,0,1-1.285-1.271v-2.352a1.28,1.28,0,0,1,1.285-1.272h9.107v.882h-8.471a.423.423,0,0,0-.43.414v2.308Zm11.559-3.6v4.9H155l0-4.9Zm11.552,1.272v2.352a1.277,1.277,0,0,1-1.282,1.271h-7.822a1.278,1.278,0,0,1-1.286-1.271v-2.352a1.28,1.28,0,0,1,1.286-1.272h7.822a1.279,1.279,0,0,1,1.282,1.272Zm-1.922-.391h-6.546a.423.423,0,0,0-.433.411v2.308a.424.424,0,0,0,.433.414h6.546a.418.418,0,0,0,.43-.41l0-2.312a.425.425,0,0,0-.433-.411Z" transform="translate(-8.692 -27.557)"/>
    </g>
  </g>
</svg>
