<svg xmlns="http://www.w3.org/2000/svg" width="100" height="100"><g fill="#1a1311"><path data-name="패스 804313" d="M79.793 60.098H72.64c-.085-1.806 1.85-1.734 1.85-1.734h7.711v-1.548h-7.833c-5.368.495-5.183 4.833-5.183 4.833h9.126c1.36 0 1.236.865 1.236.865a.892.892 0 01-.991 1H68.199v-6.7h-2.962v6.7h-5.423c-1.894-.007-1.894-1-1.894-1v-5.7h-4.527l-4.687 2.849-4.192-2.847H34.149c-5.346.329-5.731 4.338-5.731 4.338h1.907c-.86.365-1.907 2.359-1.907 2.359h-6.476a1.7 1.7 0 01-1.916-1.746v-4.951H17v4.338a3.539 3.539 0 003.952 3.838h22.454l4.314-2.6 3.64 2.6h4.5l-5.842-4.461 4.789-2.848v4.831c.5 2.225 3.515 2.478 3.515 2.478h21.966a2.506 2.506 0 002.711-2.478c.001-2.32-3.206-2.416-3.206-2.416zm-36.926 3.416H32.012a2.091 2.091 0 012.056-1.824h6.456v-1.655h-8.512a2 2 0 012.137-1.569h7.159v-.658l5.013 3.466z"/><path data-name="패스 804314" d="M59.115 47.426a1.433 1.433 0 01-.382.081H48.117s-1.758-.1 0-2.152l5.141-7.427a2.244 2.244 0 00.356-.45.638.638 0 00-.389-1.041A17.517 17.517 0 0049.26 36c-7.436 0-12.194 4.151-12.217 9-.023 4.66 4.151 8.792 12.218 8.783 4.24 0 7.67-1.33 9.81-3.408h-2.1a12.234 12.234 0 01-7.714 2.4c-6.917 0-10.479-3.476-10.479-7.773s4.109-8.05 10.479-8.056c.274 0 .535.013.79.025.175.108.179.417-.577 1.249 0 0-1.5 1.84-3.5 4.6a25.49 25.49 0 00-2.284 3.445s-2.189 3.28 3 3.451h13a7.26 7.26 0 001.794-4.715c0-3.526-2.5-6.661-6.742-8.122l-.47.8c3.839 1.3 5.6 4.166 5.6 7.321a3.526 3.526 0 01-.482 2s-.135.364-.271.426z"/></g></svg>