<svg xmlns="http://www.w3.org/2000/svg" width="100" height="100"><path data-name="패스 792877" d="M40.22 52.331c4.287 1.786 7.145 4.287 9.735 9.913 2.591-5.626 5.359-8.485 9.736-10.271l11-3.942.07.28a31.423 31.423 0 01.268 4.287c0 15.541-10.27 18.667-21.078 18.577-10.807.091-20.988-3.036-20.988-18.577a19.476 19.476 0 01.178-3.3l.16-.658 10.916 3.695zm28.108-10.776l-.241-.388c-3.841-5.716-10.808-7.056-18.131-7.056s-14.469 1.429-18.22 7.235l-.4.7c6.444 3.684 13.755 3.751 18.623 13.056 4.471-9.59 11.863-9.724 18.373-13.544zm5.206-3.336l-.625-.715c-5.716-6.163-15.094-7.5-22.954-7.5-7.949 0-17.6 1.34-23.221 7.859l-.268.358C23.697 41.521 22 46.259 22 52.6c0 19.56 15.9 22.686 27.955 22.686C62.103 75.286 78 72.161 78 52.6c0-6.341-1.7-11.075-4.466-14.379z" fill="#1d1d1b" fill-rule="evenodd"/></svg>