<svg xmlns="http://www.w3.org/2000/svg" xmlns:xlink="http://www.w3.org/1999/xlink" width="100" height="100" viewBox="0 0 100 100">
  <defs>
    <linearGradient id="linear-gradient" x1="-2.352" y1="5.888" x2="-3.363" y2="6.482" gradientUnits="objectBoundingBox">
      <stop offset="0" stop-color="#d3d3d3"/>
      <stop offset="0.368" stop-color="#4f4c4c"/>
      <stop offset="0.813" stop-color="#b0afaf"/>
      <stop offset="1" stop-color="#231f20"/>
    </linearGradient>
    <linearGradient id="linear-gradient-2" x1="-2.054" y1="28.408" x2="-1.87" y2="27.624" gradientUnits="objectBoundingBox">
      <stop offset="0" stop-color="#b2b1b1"/>
      <stop offset="0.2" stop-color="#b2b1b1"/>
      <stop offset="0.99" stop-color="#656263"/>
      <stop offset="1" stop-color="#656263"/>
    </linearGradient>
    <linearGradient id="linear-gradient-3" x1="-8.115" y1="41.015" x2="-8.733" y2="40.957" gradientUnits="objectBoundingBox">
      <stop offset="0" stop-color="#4f4c4c"/>
      <stop offset="0.359" stop-color="#fff"/>
      <stop offset="0.824" stop-color="#4f4c4c"/>
      <stop offset="1" stop-color="#393536"/>
    </linearGradient>
    <linearGradient id="linear-gradient-4" x1="-0.742" y1="15.238" x2="-0.656" y2="14.825" gradientUnits="objectBoundingBox">
      <stop offset="0" stop-color="#d3d3d3"/>
      <stop offset="0.368" stop-color="#b2b1b1"/>
      <stop offset="0.99" stop-color="#231f20"/>
      <stop offset="1" stop-color="#231f20"/>
    </linearGradient>
    <linearGradient id="linear-gradient-5" x1="0.028" y1="5.184" x2="-0.795" y2="4.22" gradientUnits="objectBoundingBox">
      <stop offset="0" stop-color="#918f90"/>
      <stop offset="0.121" stop-color="#9c9a9b"/>
      <stop offset="0.17" stop-color="#7b7979"/>
      <stop offset="0.308" stop-color="#918f90"/>
      <stop offset="0.473" stop-color="#f4f4f4"/>
      <stop offset="0.841" stop-color="#7f7d7e"/>
      <stop offset="0.962" stop-color="#4f4c4c"/>
      <stop offset="1" stop-color="#4f4c4c"/>
    </linearGradient>
    <radialGradient id="radial-gradient" cx="0.242" cy="0.606" r="0.806" gradientTransform="translate(-0.034) scale(0.982 1)" gradientUnits="objectBoundingBox">
      <stop offset="0" stop-color="#fff"/>
      <stop offset="0.467" stop-color="#fff"/>
      <stop offset="0.747" stop-color="#9c9a9b"/>
      <stop offset="0.846" stop-color="#7b7979"/>
      <stop offset="1" stop-color="#4f4c4c"/>
    </radialGradient>
    <radialGradient id="radial-gradient-2" cx="0.968" cy="0.438" r="1.512" gradientTransform="translate(-2.398 2.628) scale(0.627 0.964)" gradientUnits="objectBoundingBox">
      <stop offset="0" stop-color="#fff"/>
      <stop offset="0.228" stop-color="#fff"/>
      <stop offset="1" stop-color="#231f20"/>
    </radialGradient>
    <radialGradient id="radial-gradient-3" cx="0.768" cy="-0.298" r="1.813" gradientTransform="translate(-2.527) scale(0.592 1)" gradientUnits="objectBoundingBox">
      <stop offset="0" stop-color="#fff"/>
      <stop offset="0.571" stop-color="#f7f7f7"/>
      <stop offset="0.863" stop-color="#231f20"/>
      <stop offset="1" stop-color="#231f20"/>
    </radialGradient>
    <radialGradient id="radial-gradient-4" cx="0.735" cy="0.186" r="2.602" gradientTransform="translate(-0.982) scale(0.646 1)" gradientUnits="objectBoundingBox">
      <stop offset="0" stop-color="#fff"/>
      <stop offset="0.253" stop-color="#fff"/>
      <stop offset="0.346" stop-color="#a7a6a6"/>
      <stop offset="0.412" stop-color="#7b7979"/>
      <stop offset="0.473" stop-color="#4f4c4c"/>
      <stop offset="1" stop-color="#4f4c4c"/>
    </radialGradient>
    <linearGradient id="linear-gradient-6" x1="-2.142" y1="83.334" x2="-2.725" y2="84.058" gradientUnits="objectBoundingBox">
      <stop offset="0" stop-color="#f4f4f4"/>
      <stop offset="0.258" stop-color="#bdbcbc"/>
      <stop offset="0.648" stop-color="#f4f4f4"/>
      <stop offset="0.896" stop-color="#fff"/>
      <stop offset="1" stop-color="#fff"/>
    </linearGradient>
    <linearGradient id="linear-gradient-7" x1="20.431" y1="16.845" x2="21.809" y2="18.342" gradientUnits="objectBoundingBox">
      <stop offset="0" stop-color="#fff"/>
      <stop offset="0.069" stop-color="#e3e2e2"/>
      <stop offset="0.156" stop-color="#fff"/>
      <stop offset="0.33" stop-color="#d3d3d3"/>
      <stop offset="0.502" stop-color="#fff"/>
      <stop offset="0.98" stop-color="#bbbaba"/>
      <stop offset="1" stop-color="#bbbaba"/>
    </linearGradient>
    <linearGradient id="linear-gradient-8" x1="-0.634" y1="4.376" x2="0.028" y2="5.047" gradientUnits="objectBoundingBox">
      <stop offset="0" stop-color="#dedede"/>
      <stop offset="0.507" stop-color="#4f4c4c"/>
      <stop offset="1" stop-color="#dedede"/>
    </linearGradient>
    <linearGradient id="linear-gradient-9" x1="-0.982" y1="7.633" x2="-1.636" y2="8.364" gradientUnits="objectBoundingBox">
      <stop offset="0" stop-color="#c8c7c8"/>
      <stop offset="0.1" stop-color="#fff"/>
      <stop offset="0.349" stop-color="#f0f0f0"/>
      <stop offset="0.538" stop-color="#fff"/>
      <stop offset="0.714" stop-color="#393536"/>
      <stop offset="0.841" stop-color="#fff"/>
      <stop offset="0.91" stop-color="#514e4f"/>
      <stop offset="1" stop-color="#868484"/>
    </linearGradient>
    <linearGradient id="linear-gradient-10" x1="-3.182" y1="12.781" x2="-2.883" y2="12.907" gradientUnits="objectBoundingBox">
      <stop offset="0" stop-color="#fff"/>
      <stop offset="0.521" stop-color="#cfcece"/>
      <stop offset="0.835" stop-color="#4f4c4c"/>
      <stop offset="1" stop-color="#393536"/>
    </linearGradient>
    <linearGradient id="linear-gradient-11" x1="-0.322" y1="5.465" x2="-0.249" y2="5.359" gradientUnits="objectBoundingBox">
      <stop offset="0" stop-color="#fff"/>
      <stop offset="0.209" stop-color="#fff"/>
      <stop offset="0.5" stop-color="#dedede"/>
      <stop offset="0.945" stop-color="#9c9a9b"/>
      <stop offset="1" stop-color="#959494"/>
    </linearGradient>
    <linearGradient id="linear-gradient-12" x1="-6.075" y1="28.505" x2="-5.392" y2="29.159" gradientUnits="objectBoundingBox">
      <stop offset="0" stop-color="#231f20"/>
      <stop offset="0.179" stop-color="#f4f4f4"/>
      <stop offset="0.579" stop-color="#444041"/>
      <stop offset="1" stop-color="#231f20"/>
    </linearGradient>
    <linearGradient id="linear-gradient-13" x1="-5.173" y1="17.851" x2="-4.488" y2="17.553" xlink:href="#linear-gradient-12"/>
    <linearGradient id="linear-gradient-14" x1="-4.632" y1="52.023" x2="-3.89" y2="52.023" gradientUnits="objectBoundingBox">
      <stop offset="0" stop-color="#656263"/>
      <stop offset="0.286" stop-color="#d3d3d3"/>
      <stop offset="0.533" stop-color="#656263"/>
      <stop offset="0.758" stop-color="#393536"/>
      <stop offset="1" stop-color="#231f20"/>
    </linearGradient>
    <linearGradient id="linear-gradient-15" x1="-1.553" y1="18.195" x2="-0.811" y2="18.195" gradientUnits="objectBoundingBox">
      <stop offset="0" stop-color="#231f20"/>
      <stop offset="0.179" stop-color="#9e9d9d"/>
      <stop offset="0.579" stop-color="#444041"/>
      <stop offset="1" stop-color="#231f20"/>
    </linearGradient>
    <linearGradient id="linear-gradient-16" x1="-4.205" y1="27.282" x2="-3.463" y2="27.282" xlink:href="#linear-gradient-15"/>
    <linearGradient id="linear-gradient-17" x1="-2.383" y1="8.341" x2="-1.641" y2="8.341" xlink:href="#linear-gradient-15"/>
    <linearGradient id="linear-gradient-18" x1="-1.801" y1="58.966" x2="-1.058" y2="58.966" gradientUnits="objectBoundingBox">
      <stop offset="0" stop-color="#7b7979"/>
      <stop offset="0.179" stop-color="#d3d3d3"/>
      <stop offset="1" stop-color="#231f20"/>
    </linearGradient>
    <linearGradient id="linear-gradient-19" x1="-5.076" y1="50.795" x2="-4.352" y2="50.795" gradientUnits="objectBoundingBox">
      <stop offset="0" stop-color="#444041"/>
      <stop offset="0.179" stop-color="#d3d3d3"/>
      <stop offset="1" stop-color="#231f20"/>
    </linearGradient>
    <linearGradient id="linear-gradient-20" x1="-7.374" y1="141.461" x2="-6.632" y2="141.461" gradientUnits="objectBoundingBox">
      <stop offset="0" stop-color="#7b7979"/>
      <stop offset="0.179" stop-color="#bdbcbc"/>
      <stop offset="1" stop-color="#444041"/>
    </linearGradient>
    <linearGradient id="linear-gradient-21" x1="-11.121" y1="117.103" x2="-11.015" y2="117.537" gradientUnits="objectBoundingBox">
      <stop offset="0" stop-color="#fff"/>
      <stop offset="0.115" stop-color="#eee"/>
      <stop offset="0.907" stop-color="#5a5758"/>
      <stop offset="1" stop-color="#5a5758"/>
    </linearGradient>
    <linearGradient id="linear-gradient-22" x1="-2.074" y1="12.047" x2="-1.331" y2="12.047" gradientUnits="objectBoundingBox">
      <stop offset="0" stop-color="#fff"/>
      <stop offset="0.98" stop-color="#231f20"/>
      <stop offset="1" stop-color="#231f20"/>
    </linearGradient>
    <linearGradient id="linear-gradient-23" x1="-1.51" y1="8.547" x2="-1.256" y2="7.872" gradientUnits="objectBoundingBox">
      <stop offset="0" stop-color="#e9e9e9"/>
      <stop offset="0.066" stop-color="#5a5758"/>
      <stop offset="0.352" stop-color="#918f90"/>
      <stop offset="0.604" stop-color="#b7b5b6"/>
      <stop offset="0.959" stop-color="#706d6e"/>
      <stop offset="1" stop-color="#b2b1b1"/>
    </linearGradient>
  </defs>
  <g id="car_logo_peugeot" transform="translate(-219 -155)">
    <g id="W_100_H_100" data-name="W 100 H 100" transform="translate(219 155)" fill="#f9f9f9" stroke="#f0f0f0" stroke-width="1" opacity="0">
      <rect width="100" height="100" stroke="none"/>
      <rect x="0.5" y="0.5" width="99" height="99" fill="none"/>
    </g>
    <g id="peugeot" transform="translate(228.399 164.5)">
      <path id="path2494" d="M68.47,65.52c-1.081-3.223-5.438-11.314-8.863-15.867-.741-.993-.464-1.5-.067-1.823a28.449,28.449,0,0,0,3.177-3.149c1.524-1.742,1.891-3.711.813-6.561-1.072-2.823-4.613-9.532-5.357-11.755-.852-2.562-.938-3.7-.424-5.1.605-1.644,1.489-1.714,2.155-1.7a.711.711,0,0,1,.627.557,9.291,9.291,0,0,0,.761,3.493,10.8,10.8,0,0,0,4.94,5.324c.635.276.751-.218.695-.457s-1-3.931-1.709-6.709c-.74-2.91-1.112-3.542-1.77-4.16a5.765,5.765,0,0,0-3.992-1.477c-3.008.118-4.339,3.024-4.5,3.294-.143.242-.2.41-.5.2-.86-.6-3.373-2.7-3.6-4.012-.136-.778-.271-.885-1.047-1.188A44.814,44.814,0,0,0,41.269,11.7a4.884,4.884,0,0,0-2.577-.053,17.392,17.392,0,0,0-5.437,1.866A2.738,2.738,0,0,0,32.005,14.6a1.25,1.25,0,0,1-.642.526,28.626,28.626,0,0,0-3.44,1.407c-.455.265-.705.545-.471,1.06a15.086,15.086,0,0,0,2.174,3.284,3.792,3.792,0,0,0,1.336.527c.192.047.329.1.4-.042a1.228,1.228,0,0,1,.493-.658,5.461,5.461,0,0,1,2.2-.73,1.316,1.316,0,0,1,.923.11,3.077,3.077,0,0,1,.914,1.262c.178.551.066.757-.242.886a9.667,9.667,0,0,1-2.305.426c-1.068.087-1.373-.209-1.448-.276a.189.189,0,0,0-.306-.008,2.175,2.175,0,0,1-.867.62c-.237.116-.364.367-.138.76.68,1.176,1.577,2.5,2.409,2.751.662.206,1.018-.01,1.762-.542.666-.481,1.1-.478,1.282-.344.2.15.6.49.5.83a12.124,12.124,0,0,1-1.6,2.29c-.215.274-.418.422-.8.237-.563-.269-9.111-4.7-10.254-5.149a9.2,9.2,0,0,0-3.287-.651,16.154,16.154,0,0,0-3.141.2,2.855,2.855,0,0,0-1.509.918,4.8,4.8,0,0,0-1.668,2.392,4.126,4.126,0,0,0,.621,1.746.489.489,0,0,0,.511.2,5.211,5.211,0,0,1,2.193-.3c.914.16,1.008.878,1.055,1.428a.37.37,0,0,0,.381.3,3.413,3.413,0,0,1,1.591.323,14.756,14.756,0,0,1,2.664,1.9c.2.225.187.428-.195.466a37.45,37.45,0,0,0-6.576,1.257,4.89,4.89,0,0,0-2.644,1.528,11.535,11.535,0,0,0-1.264,3.136c-.175.952.846,2.136,1.118,2.4.184.179.309.29.634.112a7.1,7.1,0,0,1,2.859-1.1c.7-.04.981.62,1.148.861s.332.073.959-.1c1.111-.3,7.314-.186,9.5-.083a8.191,8.191,0,0,1,3.419.757,21.206,21.206,0,0,1,2.864,2.3s-2.45,4.108-3.769,6.544c-1.222,2.25-2.113,3.94-2.554,4.92a7.23,7.23,0,0,0-.662,3.164c.11,1.463.148,2.214.132,2.877-.019.584-.563.647-1.333.837-1.064.271-3.182.466-4.9.888-1.561.388-2.142.757-2.425,1.962a32.683,32.683,0,0,0-.579,4.355c-.018.436-.025.65.529.535.318-.062,1.237-.195,2.407-.28,1.448-.11,3.017-.089,4.228-.091,2.231-.013,8.816.371,9.26.415.562.056.676-.013.639-.406-.054-.518-.148-2.174-.172-3.16a3.589,3.589,0,0,1,.715-2.958c.888-.966,7.6-8.449,7.971-8.833.325-.325.543-.672,1.041-.216s6.03,4.446,7.153,5.261a5.563,5.563,0,0,0,3.443,1.109c.912.017,1.166,1.607.39,1.757-.8.152-2.008.4-2.856.595a2.476,2.476,0,0,0-2.1,1.614,29.308,29.308,0,0,0-.719,4.716c-.011.227-.024.557.335.482a33.728,33.728,0,0,1,6.9-.335c3.137.1,6.185.356,6.612.381.462.033.507-.036.739-.4a15.593,15.593,0,0,1,2.606-2.827c.514-.418.524-.593.31-1.222M56.415,43.414a1.552,1.552,0,0,1-1.7-.334c-.39-.371-3.556-4.182-4.575-5.347a1.477,1.477,0,0,1,.648-2.5c1.266-.461,3.537-1.19,4.168-1.523a1.564,1.564,0,0,0,1.023-1.32c.049-.65.056-1.379.058-1.622s.322-.44.484-.153c.111.2.68,1.312,1.373,2.594,1.037,1.926,2.345,4.334,2.77,5.369a2.258,2.258,0,0,1-.407,2.5,11.433,11.433,0,0,1-3.839,2.333" fill="#231f20"/>
      <g id="g2506" transform="translate(54.224 16.553)">
        <path id="path2520" d="M54.9,16.148c-2.389-.011-4.809,2.757-4.348,6.887h0a14.855,14.855,0,0,0,1.421,5.315h0c.373.806,4.45,8.571,4.639,9.393h0a2.5,2.5,0,0,1-.874,2.732h0a12.99,12.99,0,0,1-3.761,2.31h0a2.3,2.3,0,0,1-.726.135h0c-.252,0-.883-.087-2.076-1.556h0l5.27,7.031c-.673-.9-1.021-1.579-.9-2.173h0c.121-.588,1.082-1.229,2.184-2.1h0a8.384,8.384,0,0,0,2.892-3.413h0a3.525,3.525,0,0,0,.235-1.306h0a11.979,11.979,0,0,0-1.5-4.712h0c-1.054-2.232-4.04-7.105-4.949-10.52h0a8.925,8.925,0,0,1-.321-2.263h0c0-1.936.824-3.163,1.832-3.581h0a3.431,3.431,0,0,1,1.275-.261h0a2.456,2.456,0,0,1,1.1.236h0a.821.821,0,0,1,.325.765h0v.058c0,.06-.009.2-.009.418h0a9.077,9.077,0,0,0,1.034,4.247h0a8.882,8.882,0,0,0,3.913,3.686h0c.067.028-1.81-6.926-2.146-8.237h0c-.39-1.53-1.468-3.062-4.485-3.091H54.9" transform="translate(-49.176 -16.147)" fill="url(#linear-gradient)"/>
      </g>
      <g id="g2532" transform="translate(13.421 32.684)">
        <path id="path2546" d="M25.231,30.368c.46.461-.34.436-2.769.645h0a27.483,27.483,0,0,0-6.271,1.2h0c-.952.359-1.529.613-1.91,1.487h0a15.14,15.14,0,0,0-.9,2.4h0a.953.953,0,0,0,.134.777h0c.092.146.32-4.488,6.3-4.793h0c5.29-.271,6.591-.825,5.558-1.837h0Z" transform="translate(-13.356 -30.255)" fill="url(#linear-gradient-2)"/>
      </g>
      <g id="g2558" transform="translate(57.436 18.684)">
        <path id="path2572" d="M54.915,18.107a2.988,2.988,0,0,0-1.15.24h0c-.833.337-1.6,1.384-1.634,3.165h0l.01.406a9.642,9.642,0,0,1,.327-1.781h0a2.325,2.325,0,0,1,2.2-1.864h0a1.015,1.015,0,0,1,.854.313h0a.868.868,0,0,1,.269.547h0A8.653,8.653,0,0,0,56.5,22.4h0c.041.108.084.216.129.32h0A9.6,9.6,0,0,1,56,19.257h0c0-.22.01-.474.01-.476h0c0-.521-.57-.674-1.083-.674h-.008" transform="translate(-52.13 -18.107)" fill="url(#linear-gradient-3)"/>
      </g>
      <g id="g2584" transform="translate(13.441 32.972)">
        <path id="path2596" d="M25.437,30.556c.18.488-.534.373-2.963.584h0A27.6,27.6,0,0,0,16.2,32.324h0c-.956.36-1.531.612-1.913,1.49h0a15.4,15.4,0,0,0-.9,2.4h0a1,1,0,0,0,.2.777h0c.253.4.415.487.786.273h0a6.778,6.778,0,0,1,2.488-.936h0a1.176,1.176,0,0,1,1.255.875h0c.071.257.42.124.479.109h0a8.924,8.924,0,0,1,1.921-.283h0c1.469-.107,7.2-.057,9.3-.009h0c1.892.045,9.343,5.89,9.454,5.92h0l.375-.758c-2.532-2.091-11.935-9.548-14.211-11.771h0Z" transform="translate(-13.374 -30.415)" fill="url(#linear-gradient-4)"/>
      </g>
      <g id="g2608" transform="translate(14.888 25.377)">
        <path id="path2632" d="M17.912,22.6a1.942,1.942,0,0,0-1.325.539h0a8.156,8.156,0,0,0-1.713,1.684h0a.9.9,0,0,0-.16.613h0a1.825,1.825,0,0,0,.283.724h0c.091.107.215.157.473.088h0a8.864,8.864,0,0,1,2-.238h0a1.865,1.865,0,0,1,1.236.395h0a1.23,1.23,0,0,1,.339.893h0a.228.228,0,0,0,.2.241h0c.35.048.731.048,1.137.136h0a10.362,10.362,0,0,1,4.108,2.449h0c2.774,2.47,6.224,6.165,9.532,8.711h0c1.675,1.283,4.419,2.892,5.325,3.767h0c.166.162-.2.283-.47.148h0a19.825,19.825,0,0,0-2.024-1.321h0a.81.81,0,0,0-.888.4h0a74.287,74.287,0,0,0-6.8,12h0a5.2,5.2,0,0,0-.493,2.214h0c.038.743.12,2.225.132,2.922h0c.008.681-.165.955-1,1.084h0c-1.542.229-4.967.823-5.84,1.03h0a1.793,1.793,0,0,0-1.462,1.176h0a17.632,17.632,0,0,0-.686,3.1h0c-.017.246.073.418.371.346h0a23.721,23.721,0,0,1,5.871-.5h0c2.676.057,7.444.51,8.061.564h0c.214.017.471.02.468-.217h0c-.006-.275-.073-1.519-.094-3.109h0c-.017-1.587,1.418-2.752,3.4-4.737h0c1.992-1.994,6.8-6.56,6.978-6.718h0c.12-.116.248-.227.006-.454h0c-.336-.311-1.87-1.835-2.044-2.01h0c-.087-.094-.283-.331-.206-.411h0c.07-.085.255.051.492.239h0c.928.727,11.084,8.611,11.791,8.918h0a7.024,7.024,0,0,0,1.812.5h0c.487.086.913.781.983,1.3h0c.071.519.038,1.2-.71,1.383h0c-.745.179-2.59.509-3.24.682h0a1.771,1.771,0,0,0-1.369,1.175h0a19.758,19.758,0,0,0-.652,2.865h0c-.008.436.111.47.458.387h0a12.471,12.471,0,0,1,2.871-.3h0c3.269-.112,8.242.295,8.882.344h0c.219.02.4-.195.476-.326h0c.692-1.153.5-1.447,1.427-2.177h0c.483-.373.713-.447.41-1.11h0a71.969,71.969,0,0,0-10.6-16.965h0c-3-3.7-6.5-7.806-7.678-9.167h0L33.874,28.084c-.836-.383-7.363-3.6-8.486-4.141h0A14.113,14.113,0,0,0,22.2,22.718h0a11.039,11.039,0,0,0-2.353-.238h0a16.432,16.432,0,0,0-1.935.123" transform="translate(-14.705 -22.48)" fill="url(#linear-gradient-5)"/>
      </g>
      <g id="g2644" transform="translate(29.334 16.535)">
        <path id="path2660" d="M31.868,16.775a41.98,41.98,0,0,0-4.551,1.6h0c-.052.034-.043.084-.017.144h0c.023.053.285.506.285.506h0a1.219,1.219,0,0,0,.51.52h0a3.314,3.314,0,0,0,.837.323h0a.148.148,0,0,0,.176-.073h0a2.647,2.647,0,0,1,1.753-1.1h0a5.828,5.828,0,0,1,1.425-.207h0a2.012,2.012,0,0,1,1.2.479h0a4.141,4.141,0,0,1,1,1.684h0a.915.915,0,0,1-.358,1.039h0a8.479,8.479,0,0,1-2.157.519h0a3.305,3.305,0,0,1-1.815-.2h0a.135.135,0,0,0-.174.008h0a3.238,3.238,0,0,1-.552.415h0c-.07.04-.112.125-.047.257h0a8.929,8.929,0,0,0,1.445,1.939h0c.516.387.793.214,1.412-.129h0c.622-.344,1.042-.763,1.685-.742h0a1.431,1.431,0,0,1,1.309,1.217h0a2.478,2.478,0,0,1-.687,1.78h0c-.3.474-.912,1.181-1.229,1.577h0a1.281,1.281,0,0,1-1.167.351h0s3.624,1.842,5.71,2.89h0c.825.419,2.122.03,3-1.617h0c.205-.384,1.509-3.142,1.835-3.964h0a3.46,3.46,0,0,0,.046-3.292h0a38.384,38.384,0,0,0-3.984-5.549h0a2.776,2.776,0,0,0-2.273-1h0c-.158-.009-.322-.013-.491-.013h0a16.089,16.089,0,0,0-4.137.644" transform="translate(-27.279 -16.131)" fill="url(#radial-gradient)"/>
      </g>
      <g id="g2672" transform="translate(31.362 22.62)">
        <path id="path2682" d="M31.8,21.849a3.446,3.446,0,0,1-1.778-.185h0a.14.14,0,0,0-.17.005h0a3.161,3.161,0,0,1-.543.385h0c-.066.035-.111.115-.043.236h0a7.678,7.678,0,0,0,1.365,1.8h0c.527.379.808.209,1.438-.127h0c.632-.336,1.059-.746,1.712-.726h0l.13-1.865a8.561,8.561,0,0,1-2.113.479" transform="translate(-29.232 -21.37)" fill="url(#radial-gradient-2)"/>
      </g>
      <g id="g2694" transform="translate(29.299 17.39)">
        <path id="path2708" d="M27.438,18.369c-.05.033-.043.134-.017.187h0c.023.048.272.46.272.46h0a1.113,1.113,0,0,0,.483.472h0a3.581,3.581,0,0,0,.746.308h0a.148.148,0,0,0,.176-.073h0a2.647,2.647,0,0,1,1.753-1.1h0a5.828,5.828,0,0,1,1.425-.207h0l-.514-1.5a41.036,41.036,0,0,0-4.323,1.452" transform="translate(-27.401 -16.917)" fill="url(#radial-gradient-3)"/>
      </g>
      <g id="g2720" transform="translate(34.527 26.028)">
        <path id="path2738" d="M34.162,26.194c-.3.473-.913,1.181-1.229,1.574h0a.89.89,0,0,1-.985.286h0s3.429,1.744,5.516,2.792h0c.825.419,2.075.134,2.954-1.515h0c.2-.382,1.51-3.142,1.833-3.962h0l-7.4-1.008a2.615,2.615,0,0,1-.686,1.832" transform="translate(-31.948 -24.362)" fill="url(#radial-gradient-4)"/>
      </g>
      <g id="g2750" transform="translate(19.345 37.093)">
        <path id="path2764" d="M24.139,34.513c-.876.05-2.939.24-3.527.373h0a5.253,5.253,0,0,0-1.643,1.039h0c-.214.225-.21.414-.051.478h0a2.191,2.191,0,0,0,.68-.013h0c.722-.063,2.688-.124,4.914-.126h0c1.155,0,2.412.011,3.4.024h0c1.032.014,1.778.027,1.829.023h0c-.858-.934-1.587-2.069-1.877-2.083h-.024c-.41,0-3.464.272-3.705.285" transform="translate(-18.803 -34.228)" fill="url(#linear-gradient-6)"/>
      </g>
      <path id="path2776" d="M18.905,36.446l.015-.04-.015.04a.212.212,0,0,1-.141-.2.532.532,0,0,1,.178-.345,5.239,5.239,0,0,1,1.666-1.051c.595-.135,2.652-.324,3.531-.373.241-.013,3.289-.285,3.708-.287a.11.11,0,0,1,.027,0,.6.6,0,0,1,.323.212c.124.125.271.3.433.5.326.4.722.92,1.149,1.384l.061.065-.089.008H29.7c-.363,0-2.732-.049-4.873-.049h-.315c-2.227,0-4.191.066-4.91.127-.16.014-.344.038-.493.038a.6.6,0,0,1-.208-.028m.208-.059c.141,0,.323-.023.484-.037.726-.062,2.691-.122,4.919-.126h.315c2.057,0,4.324.043,4.82.048-.619-.686-1.164-1.459-1.515-1.809a.561.561,0,0,0-.266-.188h-.023c-.407,0-3.46.272-3.7.285-.876.05-2.94.239-3.52.372A5.192,5.192,0,0,0,19,35.958a.472.472,0,0,0-.154.286.125.125,0,0,0,.088.123.5.5,0,0,0,.175.021" transform="translate(0.538 2.861)" fill="#7f7d7e"/>
      <g id="g2788" transform="translate(16.912 12.306)">
        <path id="path2810" d="M33.035,14.187c-.8.484-.832,1.076-1.392,1.4h0c-.557.324-1.837.615-3.181,1.215h0c-.744.33-.747.385-.569.8h0c.069.175.552,1.052.8,1.052h0a2.364,2.364,0,0,0,.833-.238h0a38.839,38.839,0,0,1,5.155-1.629h0c2.346-.5,4.867-.544,5.764.4h0a38.729,38.729,0,0,1,4.478,6.061h0a3.618,3.618,0,0,1,.167,3.476h0a39.209,39.209,0,0,1-2.575,5.428h0c-.489.707-1.08,1.1-2.495.524h0c-1.517-.623-7.1-3.481-8.317-4.093h0c-.822-.413-4.274-2.157-6.887-3.463h0a12.629,12.629,0,0,0-2.626-1.053h0a12.9,12.9,0,0,0-4.937-.111h0c-.435.072-.7.768-.685,1.051h0c.017.232.465.2,1.009.172h0a7.072,7.072,0,0,1,.875-.011h0a17.848,17.848,0,0,1,4.352.842h0c1.419.572,8.523,4.389,10.315,5.349h0C46.783,38.779,52.63,43.553,63.19,61.255h0c.472.792.7,1.761-.047,1.983h0c-1.081.314-5.585,1.17-6.948,1.616h0c-1.146.376-1.3.466-1.465,1.03h0a8.891,8.891,0,0,0-.409,2.181h0c.029.106-.061.243.17.243h0c1.268,0,5.812,0,9.314.334h0c.422.044.446.034.712-.368h0a13.652,13.652,0,0,1,2.315-2.44h0c.334-.248.109-.709.054-.86h0a83.013,83.013,0,0,0-7.7-13.639h0c-3.8-5.58-10.241-13.137-11.131-14.391h0c-.87-1.231-1.211-2.616.6-3.186h0c1.185-.376,4.039-.965,5.207-1.291h0c1.136-.311,1.219-.678,1.314-1.555h0a44.381,44.381,0,0,0-.735-8.293h0a2.311,2.311,0,0,0-.961-1.369h0a23.918,23.918,0,0,1-2.84-2.631h0a6.619,6.619,0,0,1-1.611-3.025h0a.708.708,0,0,0-.224-.359h0a.931.931,0,0,0-.251-.185h0c-1.707-1.048-7.743-2.693-8.973-2.8h0c-.065-.007-.143-.009-.234-.009h0a13.932,13.932,0,0,0-6.319,1.946" transform="translate(-16.566 -12.241)" fill="url(#linear-gradient-7)"/>
      </g>
      <g id="g2822" transform="translate(16.892 26.047)">
        <path id="path2832" d="M16.878,23.861c.424,0,1.412-.029,2.074.04h0a18.272,18.272,0,0,1,3.9.849h0c1.436.537,8.184,4.4,9.928,5.337h0a93.68,93.68,0,0,1,13,8.395h0c5.732,4.436,10.68,9.58,16.883,20.017h0a2.03,2.03,0,0,1,.375,1.093h0a.853.853,0,0,1-.676.839h0c-1.068.309-5.447,1.257-6.744,1.686h0c-1.1.373-1.3.608-1.462,1.1h0a5.826,5.826,0,0,1-.463,1.462h0A1.682,1.682,0,0,1,52.434,65h0c-.33,0-.5.018-.462-.334h0c.032-.352.249-1.307.373-1.856h0a1.783,1.783,0,0,1,.884-1.266h0a21.719,21.719,0,0,1,3.359-.829h0c1.019-.24,1.076-.7,1.057-1.434h0c0,.783-.283.973-1.308,1.194h0a15.082,15.082,0,0,0-3.362.818h0a2.073,2.073,0,0,0-.879,1.276h0a13.684,13.684,0,0,0-.547,2.76h0c.034.3.16.347.514.309h0c.353-.038,1.234-.158,2.553-.205h0c.392,0,.366-.457.361-.96h0a3.733,3.733,0,0,1,.106-.993h0a.971.971,0,0,1,.642-.607h0c.733-.22,4.8-1.274,6.87-1.866h0c.905-.26,1.285-.536,1.2-1.328h0c-.072-.7-.734-1.728-1.913-3.5h0c-1.186-1.785-2.675-4.223-4.658-6.919h0a55.325,55.325,0,0,0-11.294-11.8h0a78.019,78.019,0,0,0-8.964-5.73h0c-2.449-1.378-12.783-6.81-14.387-7.292h0a17.983,17.983,0,0,0-3.65-.683h0a18.128,18.128,0,0,0-1.919-.018h0c-.593,0-.384-.461-.3-.645h0c-.062.13-.416.765.167.765" transform="translate(-16.548 -23.096)" fill="url(#linear-gradient-8)"/>
      </g>
      <g id="g2844" transform="translate(20.091 44.275)">
        <path id="path2864" d="M34.7,40.306c-.379.46-2.327,3.552-3.908,6.442h0c-1.143,2.093-2.513,5.059-2.779,5.779h0a4.956,4.956,0,0,0-.264,1.994h0c.024.733.147,1.924.187,2.782h0c.043.82-.166,1.183-1.02,1.337h0c-.725.13-4.574.776-5.523,1.007h0a1.694,1.694,0,0,0-1.433,1.4h0a19.15,19.15,0,0,0-.471,2.314h0c-.008.292.029.351.3.314h0c.273-.038.856-.089,1.092-.107h0c.248-.017.2-.2.272-.461h0c.07-.234.12-.626.262-1.232h0a1.5,1.5,0,0,1,1.168-1.32h0c.837-.248,4.624-.857,5.265-1.032h0c.639-.178,1.049-.452,1.119-1.094h0c.073-.635-.059-1.993-.077-3.1h0a4.812,4.812,0,0,1,.62-2.924h0a99.5,99.5,0,0,1,7.8-11.374h0s-.248-.184-.561-.411h0A5.729,5.729,0,0,0,35.6,39.9h0a.79.79,0,0,0-.233-.039h0c-.245,0-.424.152-.662.445" transform="translate(-19.49 -39.861)" fill="url(#linear-gradient-9)"/>
      </g>
      <g id="g2876" transform="translate(34.804 51.052)">
        <path id="path2890" d="M33.105,56.365a7.727,7.727,0,0,0-.912,3.226h0a3.848,3.848,0,0,0,.068.911h0a3.077,3.077,0,0,1,.652-1.93h0A27.4,27.4,0,0,1,35.5,55.735h0c1.932-2,6.643-6.616,6.813-6.782h0c.105-.107.232-.257-.028-.508h0c-.468-.447-.712-.735-1.448-1.472h0c-.448-.45-.76-.722-.743-.879h0c-.017,0-5.268,5.9-6.987,10.271" transform="translate(-32.193 -46.094)" fill="url(#linear-gradient-10)"/>
      </g>
      <g id="g2902" transform="translate(17.278 26.807)">
        <path id="path2918" d="M16.9,23.8l45.36,36.6a.893.893,0,0,0,.768-.732h0a1.743,1.743,0,0,0-.293-1.095h0C56.426,47.989,51.7,43.047,45.946,38.585h0c-1-.773-2-1.543-3.053-2.291h0a97.852,97.852,0,0,0-9.986-6.18h0c-1.111-.6-4.243-2.369-6.751-3.729h0c-1.446-.785-2.686-1.433-3.209-1.641h0a17.355,17.355,0,0,0-3.9-.888h0a11.1,11.1,0,0,0-1.312-.061h0c-.268,0-.546,0-.829.005" transform="translate(-16.903 -23.795)" fill="url(#linear-gradient-11)"/>
      </g>
      <g id="g2930" transform="translate(49.162 14.51)">
        <path id="path2942" d="M45.182,14.383a1.452,1.452,0,0,1,.311.227h0a1.154,1.154,0,0,1,.365.6h0a5.956,5.956,0,0,0,1.448,2.709h0a22.632,22.632,0,0,0,2.733,2.471h0a3.152,3.152,0,0,1,.607.493h0a8.922,8.922,0,0,1,.516-1.721h0a2.218,2.218,0,0,1-.151.239h0a.645.645,0,0,1-.485.265H50.5a.822.822,0,0,1-.481-.176h0c-.873-.651-3.319-2.553-3.671-4.166h0c-.221-.756.057-.411-.73-.809h0c-.219-.086-.429-.172-.646-.251h0c.074.038.146.076.208.115" transform="translate(-44.974 -14.268)" fill="url(#linear-gradient-12)"/>
      </g>
      <g id="g2954" transform="translate(48.424 32.687)">
        <path id="path2966" d="M50.323,30.656c-1.15.316-3.987.895-5.08,1.235h0c-.814.295-.919.553-.944.961h0v0a2.743,2.743,0,0,0,.539,1.47h0c.423.6,2.476,2.937,4.762,5.813h0a8.284,8.284,0,0,0,.593.666h0c-.085-.11-3.315-4.2-4.306-5.327h0a2.13,2.13,0,0,1-.609-1.359h0a1.959,1.959,0,0,1,1.362-1.727h0c1.229-.449,3.463-1.173,3.972-1.449h0c.494-.285.641-.409.714-.746h0a2.745,2.745,0,0,1-1,.459" transform="translate(-44.3 -30.197)" fill="url(#linear-gradient-13)"/>
      </g>
      <g id="g2978" transform="translate(55.886 16.491)">
        <path id="path2992" d="M54.782,16.092A4.558,4.558,0,0,0,50.7,19.729h0a4.441,4.441,0,0,1,4.088-3.378h0c2.845,0,4.031,1.075,4.43,2.677h0c-.5-2.206-2.384-2.938-4.268-2.938h0c-.058,0-.114,0-.172,0" transform="translate(-50.704 -16.09)" fill="url(#linear-gradient-14)"/>
      </g>
      <g id="g3004" transform="translate(19.265 59.566)">
        <path id="path3016" d="M37.034,55.287c-2.206,2.256-3.205,2.956-3.161,4.359h0c.027.825.092,2.863.1,3.166h0a.525.525,0,0,1-.329.586h0a1.49,1.49,0,0,1-.619.092h0c-.6,0-6.409-.566-8.448-.566h0a21.344,21.344,0,0,0-4.838.49h0a.85.85,0,0,1-.79-.251h0a.788.788,0,0,1-.134-.4h0c-.043.4-.08.862-.08,1.062h0a23.279,23.279,0,0,1,2.346-.275h0c1.428-.113,3.044-.092,4.121-.092h0c1.079,0,9.073.414,9.1.415h0c-.053-.615-.133-2.077-.155-2.99h0c-.008-.236-.008-.233-.027-.886h0a3.162,3.162,0,0,1,.84-2.294h0c.378-.411,1.852-2.045,3.411-3.782h0c-.511.515-.972.989-1.335,1.362" transform="translate(-18.73 -53.925)" fill="url(#linear-gradient-15)"/>
      </g>
      <g id="g3028" transform="translate(45.55 53.306)">
        <path id="path3040" d="M41.714,49.081a1.14,1.14,0,0,1,.6.322h0c.414.383,5.8,4.281,6.874,5.053h0a5.213,5.213,0,0,0,1.315.7h0c-.366-.257-.906-.666-1.614-1.21h0c-1.031-.8-2.346-1.835-3.671-2.885h0c-1.117-.887-2.238-1.782-3.191-2.553h0a.712.712,0,0,1-.309.569" transform="translate(-41.714 -48.512)" fill="url(#linear-gradient-16)"/>
      </g>
      <g id="g3052" transform="translate(51.992 46.851)">
        <path id="path3064" d="M54.164,44.03a1.514,1.514,0,0,0-.125.6h0a2.5,2.5,0,0,0,.538,1.419h0c.258.364.507.724.746,1.071h0a77.684,77.684,0,0,1,7.34,13.331h0c.216.6.173.9-.023,1.169h0s-1.948,1.994-2.183,2.367h0a1.772,1.772,0,0,1-.312.391h0a1.227,1.227,0,0,1-.8.172h0c-2.88-.27-6.006-.385-7.574-.385h0c-2.039,0-3.227.2-3.9.215h0a1.055,1.055,0,0,1-.668-.137h0a.238.238,0,0,0-.018-.027h0c-.029.286-.048.5-.054.6h0a28.436,28.436,0,0,1,4.746-.317h0c.587,0,1.191.01,1.809.026h0c3.04.094,6.574.374,6.582.374h0A27.726,27.726,0,0,1,63,61.877h0c.186-.147.257-.136.257-.279h0a2.087,2.087,0,0,0-.144-.533h0a76.5,76.5,0,0,0-8.457-15.076h0a2.5,2.5,0,0,1-.512-1.334h0a1.321,1.321,0,0,1,.521-1.059h0c.222-.184.77-.651,1.487-1.365h0a7.651,7.651,0,0,0-1.989,1.8" transform="translate(-47.123 -42.231)" fill="url(#linear-gradient-17)"/>
      </g>
      <g id="g3076" transform="translate(18.4 39.931)">
        <path id="path3086" d="M20.076,36.84a11.647,11.647,0,0,0-1.943.267h0a.651.651,0,0,1-.2.018h0c.029.049.077.141.1.178h0c.03-.011.078-.029.169-.055h0a21.262,21.262,0,0,1,4.439-.317h0c1.958,0,4.1.014,5.2.067h0a8.326,8.326,0,0,1,3.508.792h0c1.039.58,3.293,2.142,3.4,2.048h0c-.913-.645-1.882-1.3-2.758-1.835h0a8.115,8.115,0,0,0-2.583-1.214h0c-3.516-.055-3.516-.055-5.586-.055h0c-1.611,0-3.142.061-3.75.107" transform="translate(-17.935 -36.733)" fill="url(#linear-gradient-18)"/>
      </g>
      <path id="path3108" d="M18.48,27.646c.054.005.135,0,.235,0h0a3.068,3.068,0,0,1,1.4.227h0a24.7,24.7,0,0,1,3.517,2.488h0c.428.5.861.446.481.115h0a13.489,13.489,0,0,0-4.3-2.863h0a7.088,7.088,0,0,0-1.185-.129h0c-.29-.018-.27-.359-.354-.422h0c.01.06.027.571.2.583" transform="translate(0.495 1.979)" fill="url(#linear-gradient-19)"/>
      <path id="path3130" d="M16.8,36.184a8.419,8.419,0,0,0-2.463.964h0c-.37.207-.531.212-.763-.042h0c.108.258.287.412.449.359h0a11.029,11.029,0,0,1,2.918-1.051h0a1.189,1.189,0,0,1,.574.1h0c-.132-.222-.276-.326-.672-.326H16.8" transform="translate(0.085 3.096)" fill="url(#linear-gradient-20)"/>
      <path id="path3154" d="M33.881,14.129c-.433.07-1.818.443-1.963.493h0a.5.5,0,0,0-.328.257h0a1.047,1.047,0,0,0-.1.633h0a.265.265,0,0,0,.395.151h0c.292-.122,2.008-.752,2.31-.848h0a.3.3,0,0,0,.21-.178h0a.844.844,0,0,0,.045-.377h0c-.017-.134-.1-.174-.226-.174h0a2.618,2.618,0,0,0-.344.045" transform="translate(2.392 0.225)" fill="url(#linear-gradient-21)"/>
      <path id="path3166" d="M33.808,14.261c.191-.035.286-.016.3.089a.89.89,0,0,1-.007.22c-.012.057-.035.089-.13.125-.2.068-1.45.515-1.752.643-.278.116-.419.051-.444-.064a.7.7,0,0,1,.067-.39.382.382,0,0,1,.225-.171c.226-.082,1.39-.386,1.744-.451" transform="translate(2.419 0.24)" fill="#231f20"/>
      <path id="path3190" d="M36.037,15.929c-3.553.092-6.651,1.6-8.39,2.309h0a27.45,27.45,0,0,1,7.612-1.86h0c1.846-.113,2.587.043,3.263.8h0a39.676,39.676,0,0,1,4.084,5.713h0a3.057,3.057,0,0,1,.421,1.644h0A5.272,5.272,0,0,1,42.5,26.25h0c-.354.813-1.662,3.471-1.889,3.857h0c-.952,1.65-1.866,1.593-2.837,1.369h0c.05.027.5.237.9.4h0c1.131.463,1.846-.179,2.493-1.394h0c.209-.378,1.6-3.314,1.931-4.161h0a4.452,4.452,0,0,0,.456-1.733h0a4.329,4.329,0,0,0-.424-1.749h0a39.934,39.934,0,0,0-4.148-5.829h0a2.9,2.9,0,0,0-2.613-1.086h0c-.109,0-.222,0-.339,0" transform="translate(2.107 0.386)" fill="url(#linear-gradient-22)"/>
      <path id="path3218" d="M32.473,47.1c-1.261,2.007-3.079,5-3.364,5.661h0a4.52,4.52,0,0,0-.357,1.871h0c0,.007.1,3.24.1,3.259h0a1.453,1.453,0,0,1-.273.981h0a1.549,1.549,0,0,1-1,.44h0c-.749.108-4.281.653-5.252.851h0a1.8,1.8,0,0,0-1.541,1.259h0a6.479,6.479,0,0,0-.323,1.55h0a.865.865,0,0,0,0,.184h0c-.027.358.1.338.1.338h0a62.655,62.655,0,0,1,6.521-.17h0c2.434.142,5.793.46,5.793.46h0s-3.535-.661-5.94-.81h0c-1.2-.072-2.594-.043-3.692-.013h0a9.2,9.2,0,0,1-1.928-.015h0a1.422,1.422,0,0,1-.058-.547h0c.04-.191.09-.409.157-.638h0a1.637,1.637,0,0,1,1.367-1.341h0c.893-.227,4.325-.795,4.976-.955h0c.644-.162,1.06-.4,1.148-.926h0a6.851,6.851,0,0,0,.045-.857h0c0-.69-.123-2.52-.119-2.634h0a4.76,4.76,0,0,1,.808-2.938h0c1.141-1.9,5.434-8.424,7.57-10.689h0c.136-.144.2-.266.435-.228h0a.617.617,0,0,1-.139-.047h0c-.037-.018-.208-.146-.433-.312h0a62.748,62.748,0,0,0-4.6,6.265" transform="translate(1.115 4.499)" fill="url(#linear-gradient-23)"/>
    </g>
  </g>
</svg>
