<svg xmlns="http://www.w3.org/2000/svg" xmlns:xlink="http://www.w3.org/1999/xlink" width="100" height="100" viewBox="0 0 100 100">
  <defs>
    <clipPath id="clip-path">
      <rect id="사각형_301613" data-name="사각형 301613" width="60" height="52.39" transform="translate(7.5 11.305)" fill="none"/>
    </clipPath>
  </defs>
  <g id="car_logo_isuzu" transform="translate(-225 -160)">
    <g id="W_100_H_100" data-name="W 100 H 100" transform="translate(225 160)" fill="#f9f9f9" stroke="#f0f0f0" stroke-width="1" opacity="0">
      <rect width="100" height="100" stroke="none"/>
      <rect x="0.5" y="0.5" width="99" height="99" fill="none"/>
    </g>
    <g id="isuzu" transform="translate(237.5 172.695)">
      <g id="그룹_393598" data-name="그룹 393598" clip-path="url(#clip-path)">
        <path id="패스_793048" data-name="패스 793048" d="M64.011,17.927C53.26,5.675,31.973,12.406,20.5,22.133,6.527,35.146,4.286,50.4,11.537,58.545c6.2,5.783,14.9,5.52,22.415,4.731a43.59,43.59,0,0,0,18.757-8.5A44.625,44.625,0,0,0,65.461,38.433c4.88-10.385-.395-19.323-1.45-20.506M51.881,53.156c-3.031,2.76-22.579,14.9-35.464,2.367-10.68-10.386-1.188-26.685,4.612-31.549,1.055-.526,7.12-7.493,18.329-8.939,8.325-1.074,15.387,1.194,19.626,5.934a16.807,16.807,0,0,1,4.106,9.314C64.409,41.062,54.915,50.4,51.881,53.156" fill-rule="evenodd"/>
        <path id="패스_793049" data-name="패스 793049" d="M25.149,24.436V51.054H36.29V38.172a6.159,6.159,0,0,0-2.374-5.126Zm25.121,0V51.054H39.129V38.172A6.159,6.159,0,0,1,41.5,33.046Z" fill-rule="evenodd"/>
      </g>
    </g>
  </g>
</svg>
