<svg xmlns="http://www.w3.org/2000/svg" width="100" height="100" viewBox="0 0 100 100">
  <g id="car_logo_edison_motors" data-name="car_logo_edison motors" transform="translate(-219 -155)">
    <g id="W_100_H_100" data-name="W 100 H 100" transform="translate(219 155)" fill="#f9f9f9" stroke="#f0f0f0" stroke-width="1" opacity="0">
      <rect width="100" height="100" stroke="none"/>
      <rect x="0.5" y="0.5" width="99" height="99" fill="none"/>
    </g>
    <g id="edison_motors" data-name="edison motors" transform="translate(-511.349 -110.726)">
      <path id="패스_812044" data-name="패스 812044" d="M893.913,313.767a14.544,14.544,0,0,0-4.316-5.6,2.083,2.083,0,0,1-.785-1.373,12.079,12.079,0,0,0-2.411-5.737,5.7,5.7,0,0,0-6.013-2.174,6.473,6.473,0,0,0-3.647,2.491,16.187,16.187,0,0,0-2.852,5.961.543.543,0,0,1-.253.37,11.933,11.933,0,0,0-4.755,5.278,6.851,6.851,0,0,0,1.792,8.3,7.784,7.784,0,0,0,4.825,1.76,17.006,17.006,0,0,0,6.739-1.122.922.922,0,0,1,.661-.012,16.6,16.6,0,0,0,5.125.932,9.256,9.256,0,0,0,1.749-.152,5.318,5.318,0,0,0,4.44-3.851A7.27,7.27,0,0,0,893.913,313.767ZM877.044,318.6a5.7,5.7,0,0,1-4.966-1.1,3.518,3.518,0,0,1-1.143-3.451,6.2,6.2,0,0,1,2.556-3.742,11.5,11.5,0,0,0,2.816,7.158c.245.319.519.615.78.922C877.162,318.473,877.256,318.563,877.044,318.6Zm5.945-16.288a4.372,4.372,0,0,1,4.06,4.045,12.707,12.707,0,0,0-8.362-.77C878.784,304.007,881.087,302.253,882.989,302.311Zm-.441,14.238a13.172,13.172,0,0,1-2.156,1.073.37.37,0,0,1-.495-.116,9.331,9.331,0,0,1-2.2-5.2,7.742,7.742,0,0,1-.076-1.23,17.262,17.262,0,0,1,.149-2.014c.025-.233.132-.289.35-.307a11.648,11.648,0,0,1,5.758,1.069,13.807,13.807,0,0,1,2.565,1.539.378.378,0,0,1,.139.542A9.894,9.894,0,0,1,882.548,316.549Zm6.227,3.931a5.277,5.277,0,0,1-4.53.065,15.29,15.29,0,0,0,4.524-7.294,6.664,6.664,0,0,1,1.717,2.657A3.768,3.768,0,0,1,888.775,320.48Z" transform="translate(-101.012 0)" fill="#005aa0"/>
      <g id="그룹_398340" data-name="그룹 398340" transform="translate(745.349 326.739)">
        <path id="패스_812045" data-name="패스 812045" d="M893.394,460.445c0-1.2.008-2.4,0-3.6,0-.454.016-.8.644-.8.6,0,.68.277.673.763-.02,1.427-.029,2.855,0,4.282.014.64-.256.85-.876.852-1.339.005-1.337.024-1.787-1.194q-.578-1.566-1.166-3.128c-.072-.191-.069-.438-.348-.511-.245.183-.134.444-.136.665-.012,1.161-.018,2.323,0,3.484.008.5-.189.689-.7.686-.488,0-.629-.2-.622-.657.024-1.451.02-2.9,0-4.355-.007-.617.27-.895.887-.873a4.744,4.744,0,0,0,.663,0,1.1,1.1,0,0,1,1.307.871c.394,1.189.869,2.352,1.31,3.525Z" transform="translate(-863.393 -455.959)" fill="#005aa0"/>
        <path id="패스_812046" data-name="패스 812046" d="M938.881,457.278c.2-.052.175-.227.208-.351.315-1.186.974-1.557,2.2-1.217a.622.622,0,0,1,.53.612c0,1.6,0,3.194.007,4.79,0,.5-.35.43-.663.448-.375.023-.611-.084-.607-.518q.017-1.887-.005-3.774c0-.183.016-.56-.17-.533-.167.024-.192.291-.247.455a7.624,7.624,0,0,0-.32,1.188c-.094.584-.384.8-1,.793-.63,0-.792-.328-.883-.835-.08-.451-.213-.893-.328-1.337-.042-.161-.075-.34-.318-.314-.278.03-.188.244-.189.389q-.011,1.814,0,3.629c0,.453.055.863-.64.872-.671.009-.681-.348-.675-.832.017-1.355,0-2.71.008-4.064,0-.782.211-.981,1-.993.221,0,.444.017.663,0a.977.977,0,0,1,1.2.956C938.684,456.851,938.618,457.136,938.881,457.278Z" transform="translate(-901.754 -455.59)" fill="#005aa0"/>
        <path id="패스_812047" data-name="패스 812047" d="M745.351,459.055c0-.678,0-1.356,0-2.034a.792.792,0,0,1,.882-.917c1.132,0,2.264.01,3.4-.007.417-.006.478.2.484.544s-.126.469-.475.461c-.812-.017-1.625.016-2.436-.013-.5-.018-.57.245-.544.635.024.369-.119.819.529.8.738-.016,1.477.007,2.215-.007.359-.007.543.09.542.489s-.189.5-.544.494c-.738-.009-1.477.015-2.215-.007-.655-.019-.507.43-.526.8s-.016.672.514.652c.786-.03,1.575,0,2.362-.011.387-.006.579.1.584.533,0,.458-.233.511-.6.508-1.058-.009-2.117.008-3.175-.007-.763-.011-.982-.25-.99-1.029C745.346,460.315,745.351,459.685,745.351,459.055Z" transform="translate(-745.349 -456.006)" fill="#005aa1"/>
        <path id="패스_812048" data-name="패스 812048" d="M822.481,461.979c-.348.009-.545-.081-.553-.485-.009-.427.186-.555.573-.552.762.006,1.525-.017,2.287.006.525.016.68-.225.683-.7s-.142-.745-.661-.739c-.492.006-.984.014-1.476,0a1.7,1.7,0,0,1-.012-3.4c.786-.019,1.574.007,2.361-.009.37-.007.622.055.626.5s-.213.523-.6.51c-.713-.022-1.426,0-2.14-.008-.463,0-.749.159-.769.663-.021.525.237.76.746.766.492.005.984-.01,1.476,0a1.461,1.461,0,0,1,1.5,1.468c.066,1.123-.385,1.826-1.312,1.941C824.725,462,822.9,461.969,822.481,461.979Z" transform="translate(-808.065 -456.005)" fill="#005aa1"/>
        <path id="패스_812049" data-name="패스 812049" d="M1112.34,461.953c-.418,0-.836-.008-1.253,0-.388.01-.583-.117-.576-.544.006-.41.229-.489.56-.489.762,0,1.524-.018,2.286,0,.508.014.693-.19.7-.687,0-.513-.161-.777-.712-.759-.491.016-.984.02-1.475,0a1.479,1.479,0,0,1-1.518-1.531c-.037-1.084.47-1.794,1.412-1.851.881-.054,1.769-.005,2.653-.018.422-.006.471.241.475.566,0,.359-.185.444-.512.436-.663-.016-1.327,0-1.99-.006-.527-.006-1,.005-.987.733.008.748.524.693,1.022.7.393,0,.787-.009,1.18,0a1.442,1.442,0,0,1,1.5,1.385c.094,1.171-.344,1.894-1.289,2.019a11.259,11.259,0,0,1-1.471.011Z" transform="translate(-1045.113 -455.983)" fill="#005aa1"/>
        <path id="패스_812050" data-name="패스 812050" d="M1010.652,456.1c.688,0,1.376.011,2.064,0,.4-.008.593.128.581.545s-.249.447-.584.46c-1.465.054-1.464.062-1.464,1.544,0,.895-.024,1.791.009,2.684.02.539-.238.65-.713.654-.5,0-.618-.227-.61-.672.021-1.233-.009-2.467.016-3.7.008-.413-.123-.561-.538-.522-.317.03-.639-.01-.958.01-.366.022-.549-.1-.543-.487.006-.362.144-.526.529-.517C1009.177,456.116,1009.914,456.1,1010.652,456.1Z" transform="translate(-960.99 -456.007)" fill="#005aa1"/>
        <path id="패스_812051" data-name="패스 812051" d="M811.365,459.082c0,.751-.014,1.5.006,2.253.011.411-.1.643-.569.644-.429,0-.556-.218-.555-.591q0-2.362,0-4.724c0-.385.162-.576.578-.572s.552.207.546.592C811.355,457.483,811.365,458.282,811.365,459.082Z" transform="translate(-798.506 -456.001)" fill="#005ca2"/>
        <path id="패스_812052" data-name="패스 812052" d="M863.543,463.542c0,2.007-.023,2.018-2.057,1.918-.552-.027-.826-.282-.841-.792q-.034-1.122,0-2.246a.763.763,0,0,1,.838-.812C863.455,461.6,863.609,461.444,863.543,463.542Z" transform="translate(-840.018 -460.515)" fill="#fefeff"/>
        <path id="패스_812053" data-name="패스 812053" d="M979.72,457.544a1.44,1.44,0,0,0-1.487-1.468c-.809-.024-1.62-.025-2.429,0a1.394,1.394,0,0,0-1.447,1.277,14.9,14.9,0,0,0,0,3.323,1.386,1.386,0,0,0,1.393,1.255,25.575,25.575,0,0,0,2.575-.01,1.407,1.407,0,0,0,1.392-1.48c.013-.459,0-.918,0-1.377C979.723,458.558,979.737,458.05,979.72,457.544Zm-1.277,2.993a.378.378,0,0,1-.378.378h-2.1a.378.378,0,0,1-.378-.378v-3.142a.378.378,0,0,1,.378-.378h2.1a.378.378,0,0,1,.378.378Z" transform="translate(-933.358 -455.973)" fill="#005aa0"/>
        <path id="패스_812054" data-name="패스 812054" d="M1046,457.517a1.451,1.451,0,0,0-1.528-1.5c-.76-.019-1.522-.015-2.282,0a1.428,1.428,0,0,0-1.574,1.387,26.478,26.478,0,0,0,0,3.111,1.4,1.4,0,0,0,1.449,1.362c.833.034,1.67.037,2.5-.007a1.434,1.434,0,0,0,1.43-1.523c.011-.459,0-.918,0-1.377C1046.006,458.483,1046.018,458,1046,457.517Zm-1.281,3.017a.38.38,0,0,1-.378.381h-2.1a.38.38,0,0,1-.378-.381v-3.169a.38.38,0,0,1,.378-.382h2.1a.38.38,0,0,1,.378.382Z" transform="translate(-987.818 -455.926)" fill="#005aa0"/>
        <path id="패스_812055" data-name="패스 812055" d="M858.267,457.306a1.44,1.44,0,0,0-1.487-1.468c-.809-.024-1.62-.025-2.429,0a1.394,1.394,0,0,0-1.447,1.277,14.916,14.916,0,0,0,0,3.323,1.386,1.386,0,0,0,1.392,1.254,25.542,25.542,0,0,0,2.575-.009,1.408,1.408,0,0,0,1.392-1.48c.013-.459,0-.918,0-1.377C858.27,458.32,858.284,457.812,858.267,457.306Zm-1.277,2.993a.378.378,0,0,1-.378.378h-2.1a.378.378,0,0,1-.378-.378v-3.142a.378.378,0,0,1,.378-.378h2.1a.378.378,0,0,1,.378.378Z" transform="translate(-833.609 -455.778)" fill="#005aa0"/>
        <path id="패스_812056" data-name="패스 812056" d="M1080.133,460.068c1.325-.537,1.316-1.6,1.241-2.658a1.278,1.278,0,0,0-1.431-1.319c-1.032-.013-2.065.017-3.1-.011-.553-.015-.725.2-.716.729.027,1.5.025,3,0,4.5-.007.451.1.657.6.665.515.009.725-.172.675-.677-.026-.264,0-.532,0-.8,0-.212.027-.382.307-.384.629,0,1.282-.124,1.623.634a7.6,7.6,0,0,0,.587.832.888.888,0,0,0,.885.387c.459-.013.605-.159.311-.56Zm-.533-.973h-1.814a.453.453,0,0,1-.453-.453V457.51a.453.453,0,0,1,.453-.453h1.814a.453.453,0,0,1,.453.453v1.132A.453.453,0,0,1,1079.6,459.1Z" transform="translate(-1017.085 -455.991)" fill="#005aa0"/>
        <path id="패스_812057" data-name="패스 812057" d="M782.31,457.863a1.793,1.793,0,0,0-1.8-1.756c-.835-.027-1.672,0-2.508-.008-.464-.005-.674.2-.669.659.009.75,0,1.5,0,2.251,0,.775.006,1.549,0,2.323a.55.55,0,0,0,.615.639c.885,0,1.773.039,2.655-.018a1.763,1.763,0,0,0,1.7-1.766C782.334,459.412,782.338,458.636,782.31,457.863ZM781,460.555a.439.439,0,0,1-.439.439h-1.513a.439.439,0,0,1-.439-.439v-3.069a.439.439,0,0,1,.439-.438h1.513a.439.439,0,0,1,.439.438Z" transform="translate(-771.551 -456.003)" fill="#005aa1"/>
      </g>
    </g>
  </g>
</svg>
