<svg xmlns="http://www.w3.org/2000/svg" width="100" height="100"><path data-name="패스 804109" d="M80.768 44.003q2.563-.006 5.127 0c-.356.444-.742.863-1.109 1.3l-2.984 3.458c-.685.786-1.356 1.585-2.049 2.365v-.142c.407-.431.773-.9 1.17-1.338 1.4-1.615 2.789-3.237 4.188-4.851.193-.232.4-.452.581-.694-.834-.022-1.669-.006-2.5-.01h-2.234a.235.235 0 00-.209.085q-1.027 1.191-2.052 2.384a2.01 2.01 0 01-.369.38h-.078c.83-.986 1.68-1.957 2.518-2.937z" fill="#dd4311"/><path data-name="패스 804110" d="M87.889 44.002H93a3.118 3.118 0 01-.334.416l-9.849 11.38c-.08.081-.143.225-.28.2-1.671-.005-3.341 0-5.012-.005.418-.516.867-1.008 1.3-1.514q4.531-5.239 9.064-10.477z" fill="#dd4311"/><path data-name="패스 804111" d="M80.742 44.172a.234.234 0 01.209-.085h2.234c.834 0 1.669-.012 2.5.01-.18.243-.388.463-.581.694-1.4 1.614-2.79 3.236-4.188 4.851-.4.44-.763.907-1.17 1.338a.3.3 0 00-.151-.274 1.411 1.411 0 00-.52-.067c-1.339 0-2.678-.005-4.017-.006.208-.279.452-.529.673-.8 1.018-.007 2.037 0 3.055 0a.319.319 0 00.327-.184 1.46 1.46 0 00.037-.579.336.336 0 00-.232-.307 3.48 3.48 0 00-.782-.018h-1.464c.209-.234.409-.477.617-.712h1.679a1.4 1.4 0 00.357-.022.3.3 0 00.2-.279 4.034 4.034 0 000-.5.323.323 0 00-.306-.288c-.3-.014-.6 0-.9-.006a2.018 2.018 0 00.369-.38q1.025-1.197 2.054-2.386z" fill="#ce312a"/><path data-name="패스 804112" d="M87.92 44.107a.663.663 0 01.24-.022h4.108c.179 0 .358 0 .537.011a5.048 5.048 0 01-.436.527q-1.941 2.236-3.878 4.475c-.361.429-.73.85-1.1 1.271-1.52 1.766-3.051 3.522-4.572 5.287-.094.094-.16.268-.319.249h-4.79c.4-.488.837-.955 1.242-1.442q4.49-5.175 8.968-10.356z" fill="#ce312a"/><path data-name="패스 804116" d="M27.361 46.964q1.389-.047 2.781 0c.214.032.432.008.645.045a13.552 13.552 0 012.567.386c.164.053.333.09.493.155.059.035.115.075.171.114-.091 0-.181.008-.271.01.136.064.27.132.408.191.086.039.172.08.257.123.048.024.1.049.143.075a2.663 2.663 0 01.453.334c.034.032.067.066.1.1a1.085 1.085 0 00-.4.028.893.893 0 01-.065-.074c-.3-.035-.594.025-.889-.022-.238.019-.478 0-.716.027l-.025.1a2.02 2.02 0 00-.608-.441 5.746 5.746 0 00-1.865-.48 13.566 13.566 0 00-1.658-.08 12.44 12.44 0 00-2.2.158 5.038 5.038 0 00-1.268.37 2.027 2.027 0 00-.666.461l-.069.071c.014-.059.026-.119.039-.178a1.916 1.916 0 00-.7-.074 7.2 7.2 0 00-.759 0c-.112-.012-.194.085-.306.078l.033-.111a.646.646 0 00-.343.175h-.086c0-.013.005-.038.007-.05.084-.084.168-.169.258-.247s.172-.127.261-.187a2.923 2.923 0 01.262-.144 1.616 1.616 0 00.316-.191c-.1-.012-.208-.025-.313-.033l.114-.054c.167-.063.335-.123.506-.176a10.194 10.194 0 011.117-.249 14.755 14.755 0 011.592-.171c.227-.034.455-.007.684-.039z" fill="#edf5fc"/><path data-name="패스 804117" d="M56.337 46.983a32.145 32.145 0 012.56-.045h3.173c1.021 0 2.041-.015 3.062 0a.334.334 0 01.3.126c.014.147.005.3.022.443-.016.121-.016.243-.022.364a.324.324 0 01-.268.124c-.566.009-1.131 0-1.7.01a.574.574 0 01-.246 0c-1.418-.015-2.836 0-4.253-.007-.242.027-.483-.008-.725.008-.166.03-.334.011-.5.025a5.815 5.815 0 00-1.513.275 1.536 1.536 0 00-.713.475.918.918 0 00-.1.885 1.1 1.1 0 00.578.556 4.522 4.522 0 001.566.348.305.305 0 01-.173.039 7.031 7.031 0 01-.96-.154 2.525 2.525 0 01-.8-.367.942.942 0 01-.372-.894l.028-.118a.962.962 0 01.032-.107 1.254 1.254 0 01.677-.655 5.956 5.956 0 012.077-.351c.99-.009 1.98.006 2.969-.009.356.021.712 0 1.068.008h2.916c.126-.008.335-.008.353-.174a2.07 2.07 0 00-.035-.7l-.02-.013a1.257 1.257 0 00-.334-.03h-6.342c-.842 0-1.686-.012-2.525.066a8.8 8.8 0 00-2.409.494 3.286 3.286 0 00-.327.152 2.21 2.21 0 00-.317.185 2.125 2.125 0 00-.26.21 1.862 1.862 0 00-.171.183 1.594 1.594 0 00-.276 1.414 1.379 1.379 0 00.067.194 2.174 2.174 0 001.155 1.03 7.911 7.911 0 002.4.545c.848.088 1.7.075 2.554.079h5.948a1.013 1.013 0 00.587-.118.577.577 0 00.2-.446c.038-.452.022-.907.023-1.36 0-.159.008-.319.009-.478-.014-.042-.025-.083-.039-.124a.6.6 0 00-.49-.216c-2.031-.022-4.062 0-6.092 0-.152-.009-.353.062-.352.243-.008.06-.014.121-.019.181a3.122 3.122 0 000 .375.213.213 0 00.223.141c1.01.005 2.02-.008 3.03 0a2.684 2.684 0 01.6.028c.126.029.188.152.245.257.006.059.008.118.011.177a.639.639 0 01-.1.385l-.032.008-.093-.044c.05-.037.112-.077.106-.149a1.29 1.29 0 00-.017-.434c-.052-.145-.23-.16-.361-.163h-3.422a.219.219 0 01-.226-.158 2.312 2.312 0 010-.716.367.367 0 01.261-.2q2.921-.017 5.842-.009c.192.008.384 0 .576.012a.521.521 0 01.405.325 3.256 3.256 0 01.045.767c0 .422.007.845-.035 1.265a.6.6 0 01-.307.465 1.184 1.184 0 01-.541.093h-5.984a22.967 22.967 0 01-3.025-.135 7.761 7.761 0 01-1.7-.386 2.477 2.477 0 01-1.482-1.19 1.819 1.819 0 01.014-1.407 2.38 2.38 0 011.331-1.087 9.367 9.367 0 012.665-.516z" fill="#12120d"/><path data-name="패스 804118" d="M67.843 47.036a.8.8 0 01.458-.114c.865-.017 1.73 0 2.6-.008 2.055 0 4.111-.008 6.166.007h1.26c.3.005.6-.008.9.007a.322.322 0 01.306.288 4.034 4.034 0 010 .5.3.3 0 01-.2.279 1.4 1.4 0 01-.357.022H71.08a.333.333 0 00-.325.135 1.771 1.771 0 00-.018.511.833.833 0 00.418.074c1.842-.01 3.683 0 5.525-.01.488.005.976 0 1.464 0a3.48 3.48 0 01.782.018.336.336 0 01.232.307 1.467 1.467 0 01-.037.579.32.32 0 01-.328.184c-1.018 0-2.036-.008-3.055 0h-4.586a.451.451 0 00-.369.148.72.72 0 00-.059.483.161.161 0 00.137.124 4.271 4.271 0 00.795.035c1.136 0 2.272 0 3.408.007 1.339 0 2.678.01 4.017.006a1.409 1.409 0 01.52.067.3.3 0 01.151.274v.142c0 .122-.006.244-.013.366-.037.1-.081.216-.2.246a2.188 2.188 0 01-.34.012H68.333a1.057 1.057 0 01-.52-.111.544.544 0 01-.2-.265 3.678 3.678 0 01-.06-.9c-.022-.988 0-1.976.051-2.962a.712.712 0 01.239-.451z" fill="#12110c"/><path data-name="패스 804119" d="M7.485 47.099a2.238 2.238 0 01.815-.081c2.077-.008 4.154.005 6.231.013.267.029.537.013.805.03.465.025.931.063 1.392.128a8.019 8.019 0 011.79.432 4.705 4.705 0 01-.9.06c-.2-.027-.4-.1-.6-.129a12.311 12.311 0 00-1.433-.165c-.342-.032-.687-.012-1.03-.047a19.844 19.844 0 00-1.118 0 4.91 4.91 0 00-.564-.007c-.217.02-.433-.014-.649-.011H8.441a2.309 2.309 0 00-.708.058c-.134.05-.121.21-.117.327l-.414-.009c0-.077-.006-.155-.006-.232-.02-.179.139-.303.289-.367z" fill="#eee"/><path data-name="패스 804120" d="M37.66 47.292a.844.844 0 01.692-.271c1.766-.014 3.532 0 5.3 0a29.716 29.716 0 013.134.116 8.373 8.373 0 012.116.467.546.546 0 01-.348.058 3.4 3.4 0 00-.525.014 9.337 9.337 0 00-1.336-.23c-.313-.054-.631-.046-.945-.08-.348-.01-.7 0-1.043-.025s-.725.025-1.086-.012c-1.645-.011-3.29-.005-4.934-.008a1.6 1.6 0 00-.519.064c-.111.031-.117.166-.126.261a5.62 5.62 0 01-.41.008c0-.12.016-.241.03-.362z" fill="#eee"/><path data-name="패스 804121" d="M56.118 47.116c.839-.078 1.683-.07 2.525-.066h6.342a1.259 1.259 0 01.334.03c-.011.11-.1.162-.2.2l-.039.02a2.535 2.535 0 00-.006.314l-.049-.008c-.008-.09-.011-.18-.014-.27-.9-.013-1.8 0-2.693 0h-3.5c-.778.008-1.559-.029-2.333.052a10.037 10.037 0 00-1.97.3 6.157 6.157 0 00-.632-.011.3.3 0 01-.177-.06 8.8 8.8 0 012.412-.501z" fill="#eee"/><path data-name="패스 804122" d="M68.014 47.075a2.692 2.692 0 01.646-.05h5.984c1.478 0 2.957.01 4.435 0a.439.439 0 01.3.08l.026.083c-.075.047-.153.086-.231.126l-.011.007c-.014.075-.022.15-.031.226l-.031-.222c-3.214-.008-6.43 0-9.643-.009-.407.015-.815-.007-1.222.013a.5.5 0 00-.119.339 3.841 3.841 0 01-.4 0c0-.058 0-.117.008-.174a.476.476 0 01.289-.419z" fill="#eee"/><path data-name="패스 804123" d="M65.319 47.077l.02.013a2.076 2.076 0 01.035.7c-.018.166-.227.165-.353.174h-2.916c-.356 0-.713.013-1.069-.008a1.389 1.389 0 01.38-.058c.479-.064.961-.088 1.443-.132.312-.042.628-.029.94-.074.2-.029.408-.021.612-.045a2.237 2.237 0 01.595-.011c.134.021.2.156.315.213a2.518 2.518 0 00-.166-.25 1.69 1.69 0 01-.03-.324c.091-.036.183-.088.194-.198z" fill="#4a555d"/><path data-name="패스 804124" d="M79.377 47.109a.954.954 0 01.058.713.272.272 0 00-.177-.055c-2.835.005-5.67 0-8.505 0a.721.721 0 01-.217-.044 1.178 1.178 0 01.721-.138h2.235c.312.014.623-.028.936-.019h4.181a3.089 3.089 0 01.562.023v-.275c.077-.04.156-.079.23-.126z" fill="#424b53"/><path data-name="패스 804125" d="M37.617 47.431a.35.35 0 01.044-.141c-.012.121-.03.243-.035.365v.075c0 .041.005.082.009.123h.32l.072.083c-.006.279.005.559-.015.837l-.021-.143a4.348 4.348 0 00.009-.448c0-.048-.006-.095-.009-.142a3.266 3.266 0 00-.4 0c-.001-.201.016-.405.026-.609z" fill="#778082"/><path data-name="패스 804126" d="M65.079 47.607a2.535 2.535 0 01.006-.314l.039-.02a1.69 1.69 0 00.03.324 2.519 2.519 0 01.167.25c-.116-.057-.181-.192-.315-.213a2.237 2.237 0 00-.595.011c-.2.024-.409.016-.612.045-.312.045-.628.032-.939.074-.481.043-.964.067-1.443.132a1.386 1.386 0 00-.38.058c-.99.015-1.98 0-2.969.009a5.955 5.955 0 00-2.077.351 5.151 5.151 0 01-.654.01 3.2 3.2 0 011.724-.649 9.6 9.6 0 011.225-.084c2.078-.012 4.155 0 6.233-.008a4.949 4.949 0 01.512.014z" fill="#5b6d7a"/><path data-name="패스 804127" d="M69.456 47.317c3.214.012 6.429 0 9.643.009l.031.222a2.92 2.92 0 01.031-.226l.011-.007v.275a3.09 3.09 0 00-.562-.023h-4.181c-.312-.009-.623.032-.936.019h-2.235a1.178 1.178 0 00-.721.138.618.618 0 00-.232.439 2.643 2.643 0 00.014.547l-.065-.058a3.135 3.135 0 01-.016-.523l-.087-.04-.072.046c-.154-.093-.324.009-.488-.024a3.4 3.4 0 00-.78-.011c-.091.009-.181-.041-.271-.012a1.123 1.123 0 01-.4.013 4.2 4.2 0 00-.022-.434.5.5 0 01.119-.339c.403-.017.812.004 1.219-.011z" fill="#ecf5fc"/><path data-name="패스 804128" d="M7.734 47.382a2.308 2.308 0 01.708-.058h3.783c.217 0 .433.031.649.011a4.9 4.9 0 01.564.007 18.12 18.12 0 011.118 0c.342.035.687.015 1.03.047a12.321 12.321 0 011.435.162c.2.026.4.1.6.129.162.043.31.129.476.159l.127.021c.168.067.325.157.49.229a2.113 2.113 0 01.49.328c.035.032.069.066.1.1a.482.482 0 01-.311-.074 5.166 5.166 0 01-.74 0 5.349 5.349 0 00-.829.013l-.044.145a1.3 1.3 0 00-.378-.364 1.722 1.722 0 00-.323-.178 5.2 5.2 0 00-1.763-.361c-.643-.058-1.29-.04-1.935-.043-.577 0-1.154.006-1.731-.01a6.91 6.91 0 00-1.181.066.629.629 0 00-.456.539v.067a.63.63 0 01-.2.022c-.595-.028-1.19.022-1.784-.008 0-.209 0-.418-.013-.627-.003-.112-.016-.272.118-.322z" fill="#edf6fc"/><path data-name="패스 804129" d="M38.162 47.387a1.6 1.6 0 01.519-.064c1.645 0 3.29 0 4.934.008.362.037.724-.018 1.086.012s.7.015 1.043.025c.315.034.633.026.945.08a9.326 9.326 0 011.336.23 2.391 2.391 0 00.4.122l.142.03c.125.05.249.106.375.156.066.029.132.058.2.09a2.727 2.727 0 01.494.339 1.421 1.421 0 01.225.246 1.237 1.237 0 01-.332-.191.566.566 0 00-.349-.044c-.157.012-.315 0-.473.006a6.589 6.589 0 01-.8-.008c-.012.087-.025.173-.039.259a1.482 1.482 0 00-.669-.577 4.462 4.462 0 00-1.64-.389c-1.175-.108-2.356-.037-3.534-.066-.276-.022-.551.011-.827.005a2.012 2.012 0 00-.8.086.827.827 0 00-.331.316.41.41 0 00-.086.2c-.021-.038-.019-.107-.07-.117a5.608 5.608 0 01-1.008-.009.738.738 0 01-.375.028 2.331 2.331 0 00-.413.032c-.012.1-.03.2-.051.3-.028-.283.02-.569-.034-.849.015-.09.02-.225.132-.256z" fill="#ecf5fc"/><path data-name="패스 804130" d="M56.489 47.376c.775-.081 1.556-.044 2.334-.052h3.5c.9 0 1.8-.009 2.693 0 0 .09.006.18.014.27a4.946 4.946 0 00-.512-.014c-2.078.009-4.155 0-6.233.008a9.6 9.6 0 00-1.224.084 3.2 3.2 0 00-1.724.649l-.018.016-.112-.021.154-.191-.068-.02-.169.054a3.13 3.13 0 01.047-.076 2.159 2.159 0 00-.455.063c-.214.038-.429-.1-.637-.013-.111.048-.228-.019-.341.011a1.191 1.191 0 01-.286.02 2.125 2.125 0 01.251-.156 3.814 3.814 0 01.4-.188c.142-.042.279-.1.42-.146a10.038 10.038 0 011.966-.298z" fill="#ecf5fc"/><path data-name="패스 804131" d="M7.166 47.847c.009-.126.016-.252.031-.378 0 .077 0 .154.006.232l.414.009c.01.209.012.418.013.627V49.189l-.052-.067v-.393c0-.11.006-.219.007-.329v-.346c0-.067-.013-.134-.022-.2-.136 0-.267-.002-.397-.007z" fill="#adb1b4"/><path data-name="패스 804132" d="M67.694 48.005a2.628 2.628 0 01.033-.51c-.006.058-.008.116-.008.174s.007.121.012.182a1.461 1.461 0 01.355.012 1.306 1.306 0 01.035.434c-.009.207-.008.415-.02.622 0-.191-.007-.383 0-.574v-.194c0-.049-.007-.1-.01-.147-.124-.006-.247 0-.37 0z" fill="#80868b"/><path data-name="패스 804133" d="M26.68 47.707a12.435 12.435 0 012.2-.158 13.556 13.556 0 011.658.08 5.745 5.745 0 011.865.48c-.122.04-.248-.017-.372.01-.19.046-.387-.046-.572.042a9.4 9.4 0 00-2-.261 13.768 13.768 0 00-2.52.128 4.28 4.28 0 00-1.5.487 3.444 3.444 0 01-.171.034c-.171-.046-.346.024-.519-.012a2.025 2.025 0 01.666-.461 5.036 5.036 0 011.265-.369z" fill="#566672"/><path data-name="패스 804134" d="M33.844 47.548a3.848 3.848 0 01.61.242 1.257 1.257 0 00-.3.074c-.138-.059-.272-.127-.408-.191.091 0 .181-.006.271-.01-.058-.04-.114-.08-.173-.115z" fill="#bbbec2"/><path data-name="패스 804135" d="M17.619 47.679a4.707 4.707 0 00.9-.06 2.047 2.047 0 01.257.115c-.236.019-.472.009-.707.018l.029.087c-.169-.03-.319-.117-.479-.16z" fill="#cccdcf"/><path data-name="패스 804136" d="M48.9 47.607l.015-.008.208.093a2.9 2.9 0 01-.7.035c0 .018.006.055.008.073a2.39 2.39 0 01-.4-.122 3.406 3.406 0 01.525-.014.545.545 0 00.344-.057z" fill="#d2d3d7"/><path data-name="패스 804137" d="M53.382 47.761a3.279 3.279 0 01.327-.152.3.3 0 00.177.06 6.161 6.161 0 01.632.011c-.14.049-.278.1-.42.146-.226-.097-.479-.013-.716-.065z" fill="#cbccce"/><path data-name="패스 804138" d="M10.074 47.715a6.906 6.906 0 011.181-.066c.577.017 1.154.008 1.731.01.645 0 1.292-.015 1.935.043a5.2 5.2 0 011.763.361 1.985 1.985 0 01-.343-.013 1.909 1.909 0 00-.668.093 10.113 10.113 0 00-1.968-.154c-1.069.006-2.138-.014-3.207 0a.48.48 0 00-.479.294l-.077.136c-.1.014-.208.029-.313.041 0-.07-.009-.139-.013-.209a.629.629 0 01.458-.536z" fill="#5a6c79"/><path data-name="패스 804139" d="M23.352 47.656c.1.008.209.021.313.033a1.615 1.615 0 01-.328.186l.012-.069-.236-.047a1.256 1.256 0 01.239-.103z" fill="#babec1"/><path data-name="패스 804140" d="M37.625 47.654c.137 0 .274 0 .41-.008.054.281.005.567.034.849a3.139 3.139 0 00.012.619c.631.011 1.261 0 1.892 0 .007-.285 0-.571.014-.856a.41.41 0 01.086-.2 1.32 1.32 0 00-.053.426v.3c0 .154-.015.308-.018.463-.642.013-1.284 0-1.926.006l-.02-.071h-.049c0-.137 0-.273.007-.409.019-.279.009-.558.014-.837v-.207h-.4c-.002-.018-.002-.056-.003-.075z" fill="#dadadb"/><path data-name="패스 804141" d="M40.403 47.745a2.012 2.012 0 01.8-.086c.276.005.551-.028.827-.005 1.178.028 2.359-.043 3.534.066a4.463 4.463 0 011.64.389 3.664 3.664 0 00-.525-.028c-.292.035-.586.034-.878.049a11.341 11.341 0 00-1.752-.106c-1.057.006-2.115-.015-3.172 0a.387.387 0 00-.418.38q-.13.037-.261.064l-.051-.04-.127.056a1.322 1.322 0 01.053-.426.826.826 0 01.33-.313z" fill="#5a6c79"/><path data-name="패스 804142" d="M67.718 47.668a3.85 3.85 0 00.4 0c.013.145.023.289.022.434.006.339-.014.679 0 1.018l.017.108c.6-.005 1.2 0 1.8 0 .4 0 .794-.012 1.19.015h5.838c.557.006 1.114-.009 1.671.006l.038.065c-3.416.01-6.832 0-10.249.006a2.3 2.3 0 01-.339-.026l-.005-.032a2.617 2.617 0 010-.343c.012-.207.011-.415.02-.622a1.313 1.313 0 00-.035-.434 1.458 1.458 0 00-.354-.012c-.003-.062-.013-.122-.014-.183z" fill="#b1b4b9"/><path data-name="패스 804143" d="M49.122 47.692c.053.022.1.045.158.071-.224.1-.475.013-.709.068l-.142-.03-.007-.073a2.9 2.9 0 00.7-.036z" fill="#b2b6b9"/><path data-name="패스 804144" d="M18.773 47.733a.681.681 0 01.154.069 3.149 3.149 0 01-.705.057l-.127-.021-.029-.087c.236-.009.472.001.707-.018z" fill="#a7abae"/><path data-name="패스 804145" d="M37.627 47.73h.4v.207l-.071-.083h-.32q-.006-.062-.009-.124z" fill="#abb0b3"/><path data-name="패스 804146" d="M70.304 48.164a.617.617 0 01.232-.439.722.722 0 00.217.044h8.505a.272.272 0 01.177.055c-.035.072-.091.146-.18.138-.8.016-1.608-.009-2.411 0-1.97 0-3.94 0-5.909.008a.309.309 0 00-.311.21q-.159-.009-.32-.016z" fill="#63686f"/><path data-name="패스 804147" d="M22.992 47.819l.122-.06.236.047-.012.069a2.92 2.92 0 00-.262.144c.022-.034.043-.068.065-.1l-.166-.011c.003-.024.012-.069.017-.089z" fill="#969b9f"/><path data-name="패스 804148" d="M49.279 47.762a1.57 1.57 0 01.27.154c-.2.033-.42-.034-.6.07-.126-.051-.249-.106-.375-.156.226-.055.481.032.705-.068z" fill="#8d9396"/><path data-name="패스 804149" d="M53.066 47.945a2.181 2.181 0 01.317-.185c.237.052.49-.032.717.065a3.826 3.826 0 00-.4.188c-.197-.103-.424-.026-.634-.068z" fill="#8c9295"/><path data-name="패스 804150" d="M18.932 47.802a2.178 2.178 0 01.351.218c-.188.034-.393-.03-.566.067-.166-.072-.323-.162-.491-.228a3.146 3.146 0 00.706-.057z" fill="#80878a"/><path data-name="패스 804151" d="M34.453 47.789l.147.078c-.067.015-.133.033-.2.051 0 .017 0 .05.006.067a6.699 6.699 0 00-.257-.123 1.258 1.258 0 01.304-.073z" fill="#94999d"/><path data-name="패스 804152" d="M7.166 47.845c.13.007.261.009.392.006.009.067.018.133.022.2a1.386 1.386 0 01-.414-.027v-.128z" fill="#788083"/><path data-name="패스 804153" d="M22.706 48.002a1.791 1.791 0 01.285-.183c0 .022-.013.066-.018.088l.166.011a2.46 2.46 0 01-.065.1c-.088.061-.178.12-.261.187 0-.031-.008-.061-.011-.091l-.152-.015c.02-.031.037-.06.056-.097z" fill="#71787c"/><path data-name="패스 804154" d="M34.601 47.867a1.018 1.018 0 01.208.115 7.027 7.027 0 00-.258.079c-.047-.027-.1-.051-.143-.075l-.006-.067c.067-.019.132-.037.199-.052z" fill="#798084"/><path data-name="패스 804155" d="M7.118 49.303c.006-.47 0-.94.049-1.408v.128a1.194 1.194 0 00.03.332c.117.051.258 0 .381.041 0 .11 0 .219-.007.329-.041.249.013.507-.04.753-.082.107-.245.038-.359.027l-.042.252-.008.04a1.43 1.43 0 01-.004-.494z" fill="#424b53"/><path data-name="패스 804157" d="M49.549 47.916c.063.01.107.064.159.1-.178.11-.384-.018-.567.062a3.032 3.032 0 00-.2-.09c.188-.106.408-.039.608-.072z" fill="#72797f"/><path data-name="패스 804158" d="M52.805 48.155a2.127 2.127 0 01.26-.21c.211.042.438-.031.637.068a2.138 2.138 0 00-.251.156c-.04.024-.078.049-.116.074-.146-.127-.358-.032-.53-.088z" fill="#656d73"/><path data-name="패스 804161" d="M34.809 47.981h.01a2.442 2.442 0 01.419.322.337.337 0 00-.234.093 2.662 2.662 0 00-.453-.334 4.54 4.54 0 01.258-.081z" fill="#5a6369"/><path data-name="패스 804162" d="M7.166 48.024a1.386 1.386 0 00.414.027v.346c-.124-.044-.264.01-.381-.041a1.194 1.194 0 01-.033-.332z" fill="#545d64"/><path data-name="패스 804163" d="M16.338 48.049a1.982 1.982 0 00.343.013 1.718 1.718 0 01.323.178 4.045 4.045 0 00-.719.074 6.132 6.132 0 00-.615-.172 1.911 1.911 0 01.668-.093z" fill="#525f69"/><path data-name="패스 804164" d="M19.279 48.019h.013a2.6 2.6 0 01.346.3.749.749 0 01-.373 0l-.062.1a2.111 2.111 0 00-.49-.328c.174-.102.378-.038.566-.072z" fill="#565f66"/><path data-name="패스 804165" d="M22.337 48.318a1.485 1.485 0 01.369-.317 1.59 1.59 0 00-.054.1l.152.015c0 .03.007.061.011.091-.09.077-.174.162-.258.247l-.021-.128z" fill="#535c63"/><path data-name="패스 804167" d="M49.141 48.071c.182-.08.388.048.567-.062h.008a2 2 0 01.345.3c-.114.148-.3-.029-.425.1a2.728 2.728 0 00-.495-.338z" fill="#545d64"/><path data-name="패스 804168" d="M67.694 48.005h.021l.02.142h.36v.194a1.105 1.105 0 01-.362.021 2.971 2.971 0 01-.042-.187.783.783 0 01.003-.17z" fill="#515a61"/><path data-name="패스 804169" d="M67.716 48.005c.123-.005.246-.007.37 0 0 .049.006.1.01.147h-.36l-.02-.147z" fill="#656c72"/><path data-name="패스 804170" d="M70.75 48.159a.333.333 0 01.325-.135h6.217c-.208.235-.408.478-.617.712-1.842.006-3.683 0-5.525.01a.833.833 0 01-.418-.074 1.762 1.762 0 01.018-.513z" fill="#fff"/><path data-name="패스 804171" d="M37.59 48.043a3.266 3.266 0 01.4 0c0 .048.006.095.009.142h-.419c.005-.045.007-.093.01-.142z" fill="#5f676d"/><path data-name="패스 804172" d="M46.678 48.078a3.665 3.665 0 01.525.028 1.482 1.482 0 01.669.577l.037.059a2.161 2.161 0 01.132.579c-.005.072.009.157-.04.217a2.191 2.191 0 01-.448-.014.929.929 0 00-.289-.842 3.1 3.1 0 00-1.465-.555c.292-.015.587-.015.879-.049z" fill="#4b555e"/><path data-name="패스 804173" d="M68.539 48.089c.09-.029.179.021.271.012a3.4 3.4 0 01.78.011c.164.033.334-.069.488.024l.072-.046.087.04a3.1 3.1 0 00.016.523l.065.058a1.126 1.126 0 00.309.33v.077c-.829 0-1.658-.006-2.486 0-.02-.339 0-.679-.005-1.018a1.121 1.121 0 00.403-.011z" fill="#fbfcfe"/><path data-name="패스 804174" d="M31.455 48.159c.185-.088.382 0 .572-.042.123-.027.249.03.372-.01a2.021 2.021 0 01.608.441 1.152 1.152 0 01.286.577l.01.067c.006.058.012.116.015.175a1.063 1.063 0 01-.086.332c-.18.038-.366.036-.547.066a.84.84 0 00-.045-.945 2.319 2.319 0 00-1.185-.661z" fill="#4a555d"/><path data-name="패스 804176" d="M54.078 48.136c.208-.089.423.051.637.013a2.159 2.159 0 01.456-.063l-.047.076.169-.054.068.02-.154.191.112.021a1.345 1.345 0 00-.333.488l-.033.075a.723.723 0 00-.039.213h-2.129a1.218 1.218 0 01.346-.715 1.706 1.706 0 01.2-.16c.038-.026.076-.05.116-.074a1.192 1.192 0 00.286-.02c.117-.029.234.037.345-.011z" fill="#fbfcfe"/><path data-name="패스 804178" d="M38.533 48.164a.738.738 0 00.375-.028 5.6 5.6 0 001.008.009c.051.01.049.079.07.117-.017.285-.007.571-.014.856-.63 0-1.261.006-1.892 0a3.139 3.139 0 01-.012-.619c.021-.1.039-.2.051-.3a2.328 2.328 0 01.414-.035z" fill="#fbfcfe"/><path data-name="패스 804179" d="M52.634 48.337a1.878 1.878 0 01.171-.183c.172.056.384-.039.529.088a1.719 1.719 0 00-.2.16c-.167-.033-.336-.03-.5-.065z" fill="#4f585f"/><path data-name="패스 804180" d="M70.304 48.163q.158.007.318.009c.005.169-.016.34.006.509.034.075.12.1.186.136l.074.037a3.019 3.019 0 00-.138.074.852.852 0 00-.116.093l.137.05c-.049-.009-.1-.018-.144-.03a1.131 1.131 0 01-.309-.33 2.626 2.626 0 01-.014-.548z" fill="#444e55"/><path data-name="패스 804181" d="M37.582 48.186h.42a4.313 4.313 0 01-.01.448l-.047-.22a1.671 1.671 0 00-.37-.009l.007-.219z" fill="#4f585f"/><path data-name="패스 804182" d="M67.699 48.177c.012.063.027.125.042.187a1.1 1.1 0 00.362-.021c-.006.191 0 .382 0 .574v.343l-.036.225a2.185 2.185 0 01-.357-.019 1.7 1.7 0 00-.03.118l-.006.029a6.191 6.191 0 01-.007-.706 7.207 7.207 0 01.032-.73z" fill="#414a53"/><path data-name="패스 804183" d="M16.285 48.312a4.047 4.047 0 01.719-.074 1.3 1.3 0 01.378.364.987.987 0 01.176.4v.439a.689.689 0 00-.374.037.955.955 0 00-.167-.67 1.644 1.644 0 00-.732-.496z" fill="#4a545d"/><path data-name="패스 804184" d="M9.61 48.32v-.067c0 .07.009.139.013.209 0 .111.005.221.009.332a.547.547 0 00.372-.085l-.02 1.439c-.013-.057-.028-.113-.043-.169a1.481 1.481 0 01-.357.024v-.417-.217-.116-.15c.018-.263.017-.525.026-.783z" fill="#4a545d"/><path data-name="패스 804185" d="M9.417 48.338a.63.63 0 00.2-.022c-.008.261-.007.523-.014.784a7 7 0 01-.723.014c-.416 0-.831-.007-1.246.006.005-.263 0-.527 0-.79.59.032 1.183-.018 1.783.008z" fill="#fcfdff"/><path data-name="패스 804186" d="M9.937 48.419l.077-.136c-.006.141-.005.283-.009.424a.548.548 0 01-.372.085c0-.111-.005-.221-.009-.332.108-.012.213-.027.313-.041z" fill="#53616c"/><path data-name="패스 804187" d="M19.265 48.315a.749.749 0 00.373 0 1.479 1.479 0 01.426 1.142 1.759 1.759 0 01-.337.05c-.106-.1-.033-.281-.061-.416l-.005.038a1.957 1.957 0 00-.074-.187 1.541 1.541 0 00-.282-.428 3.143 3.143 0 00-.1-.1z" fill="#424b53"/><path data-name="패스 804188" d="M22.32 48.315h.017l.2.007.021.128c0 .012 0 .037-.007.05h-.035a1.87 1.87 0 00-.228.429l-.027.08-.022.076a.634.634 0 000 .291c-.08.1-.222.075-.334.1a1.556 1.556 0 01.415-1.161z" fill="#424b53"/><path data-name="패스 804189" d="M35.004 48.391a.337.337 0 01.234-.093 1.374 1.374 0 01.506 1.222l-.266-.007a1.48 1.48 0 00-.047-.436 1.155 1.155 0 00-.155-.349 1.357 1.357 0 00-.172-.236c-.033-.035-.067-.068-.1-.101z" fill="#424c53"/><path data-name="패스 804190" d="M50.061 48.313l.009-.006a1.487 1.487 0 01.4 1.3 8.323 8.323 0 01-.031-.133c-.115 0-.229 0-.344-.006a1.324 1.324 0 00-.02-.345 3.07 3.07 0 00-.063-.184 1.126 1.126 0 00-.155-.274 1.416 1.416 0 00-.225-.246c.126-.139.315.039.429-.106z" fill="#424b53"/><path data-name="패스 804191" d="M55.337 48.322a5.144 5.144 0 00.654-.01 1.253 1.253 0 00-.677.655c-.1-.016-.2-.027-.294-.034l-.034-.107a1.347 1.347 0 01.333-.488z" fill="#4b555e"/><path data-name="패스 804192" d="M22.636 48.498a.645.645 0 01.343-.175l-.033.111c.112.007.194-.09.306-.078a7.2 7.2 0 01.759 0 1.916 1.916 0 01.7.074c-.013.059-.025.119-.039.178-.068.1-.129.2-.187.31a.329.329 0 00-.11.194 4 4 0 01-.62 0c-.469 0-.939 0-1.408.007-.05-.046-.046-.129-.065-.192a1.871 1.871 0 01.228-.429h.035z" fill="#fdfdff"/><path data-name="패스 804193" d="M52.358 49.749a1.594 1.594 0 01.276-1.414c.164.035.333.032.5.066a1.218 1.218 0 00-.346.715c0 .032-.005.1-.007.13s0 .063-.006.095l-.02.273-.1.049-.009-.064-.262.027z" fill="#424b53"/><path data-name="패스 804194" d="M37.574 48.401a1.67 1.67 0 01.37.009l.048.22.021.143c0 .136-.006.272-.007.409v.161l-.059.1a.65.65 0 00-.409.07c.013-.372.004-.741.036-1.112z" fill="#414a53"/><path data-name="패스 804195" d="M17.426 48.457a5.343 5.343 0 01.829-.013 5.164 5.164 0 00.74 0 .482.482 0 00.311.074 1.541 1.541 0 01.282.428q.006.136.009.272c-.645.008-1.291 0-1.937 0a.777.777 0 00-.1-.216.988.988 0 00-.175-.4z" fill="#fcfdfe"/><path data-name="패스 804196" d="M33.031 48.45c.237-.03.478-.008.716-.027.295.047.592-.013.889.022a.871.871 0 00.065.074 1.086 1.086 0 01.4-.028 1.347 1.347 0 01.172.236 2.438 2.438 0 00.081.376 4.823 4.823 0 01-.823.031c-.252.009-.5-.022-.756 0a3.693 3.693 0 01-.485-.005 1.152 1.152 0 00-.286-.577z" fill="#fdfdff"/><path data-name="패스 804197" d="M40.019 48.485l.127-.056.051.04q.131-.027.261-.064v.205a.58.58 0 01-.094.176c-.114.012-.228 0-.342 0a6.018 6.018 0 01-.003-.301z" fill="#53616c"/><path data-name="패스 804198" d="M47.911 48.424a6.585 6.585 0 00.8.008c.157-.007.315.006.473-.006a.566.566 0 01.349.044 1.239 1.239 0 00.332.191 1.118 1.118 0 01.156.274c-.018.08 0 .234-.129.208-.589-.007-1.18.009-1.769-.007-.1-.112-.108-.279-.21-.392l-.037-.059.035-.261z" fill="#fdfdff"/><path data-name="패스 804199" d="M24.746 48.535c.172.036.347-.034.518.012.057-.01.114-.021.171-.034a1.062 1.062 0 00-.5.718.941.941 0 00.42.827c-.208.029-.448.114-.635-.023a2.302 2.302 0 01-.115-.077c-.03-.052-.06-.1-.087-.156a1.359 1.359 0 01-.127-.453l.016-.1a2.8 2.8 0 01.081-.338c.058-.106.119-.21.187-.31z" fill="#4a555d"/><path data-name="패스 804200" d="M40.361 48.784a.582.582 0 00.095-.176c-.012.583-.035 1.167-.016 1.75-.016-.082-.036-.163-.055-.244l-.354.044a7.67 7.67 0 01-.03-.794v-.116c0-.155.019-.308.018-.463.114 0 .228.011.342-.001z" fill="#4a545d"/><path data-name="패스 804201" d="M7.531 49.476c.053-.246 0-.5.04-.753v.393c0 .081.009.162.015.243.667.009 1.334 0 2 .007v.217c-.244.019-.488-.025-.732-.007-.305.017-.611 0-.915 0a.95.95 0 00-.3.046c-.078.065-.057.182-.065.272-.139.023-.278.04-.418.05a11.625 11.625 0 01-.026-.184l.042-.252c.114.006.277.075.359-.032z" fill="#605f64"/><path data-name="패스 804202" d="M35.276 48.727a1.153 1.153 0 01.155.349c.006.057.009.115.01.173-.386.041-.776-.012-1.162.027-.3-.013-.6.013-.9 0a2.027 2.027 0 01-.074-.088l-.01-.067a3.693 3.693 0 00.485.005c.252-.017.5.014.756 0a4.824 4.824 0 00.823-.031 2.446 2.446 0 01-.083-.368z" fill="#d5d5d7"/><path data-name="패스 804203" d="M47.909 48.741c.1.113.113.28.21.392.589.016 1.179 0 1.769.007.125.026.111-.128.129-.208q.034.091.063.184c-.013.058-.026.116-.037.174a1.737 1.737 0 01-.48.03h-1.521a2.161 2.161 0 00-.133-.579z" fill="#ceced0"/><path data-name="패스 804204" d="M70.814 48.815q3.97.007 7.94 0a.238.238 0 01.23.112H70.75c.045-.026.091-.05.138-.074z" fill="#3d464d"/><path data-name="패스 804205" d="M54.953 48.901l.033-.075.034.107c.1.007.2.017.294.034a1.316 1.316 0 00-.032.107 1.626 1.626 0 00-.307-.02l-.022-.153z" fill="#61676d"/><path data-name="패스 804206" d="M58.679 48.86c2.031-.006 4.062-.026 6.092 0a.6.6 0 01.489.216.126.126 0 01-.126.062H59.15c-.219 0-.437.006-.656-.005l-.168-.027c0-.184.201-.255.353-.246z" fill="#eff1f5"/><path data-name="패스 804207" d="M54.915 49.114a.731.731 0 01.038-.213l.022.152a1.62 1.62 0 01.307.02c-.007.03-.022.088-.028.118-.03.1-.071.21-.179.241-.067-.022-.086-.1-.115-.152l-.018-.041c-.028.036-.054.073-.081.11a78.36 78.36 0 01-2.057 0l-.031-.011c0-.032 0-.063.006-.095.273.02.547.007.821.009.2-.009.409.03.615.006.189-.018.38.006.569-.008.055 0 .09-.047.127-.081z" fill="#858688"/><path data-name="패스 804208" d="M70.753 48.926h8.234l.054.016a1.367 1.367 0 01-.177.113l-.1.045c-.03.012-.056.027-.083.04a.948.948 0 00-.428-.044h-4.111a2.751 2.751 0 00-.531.021h-1.7c-.33-.008-.66.017-.988-.013l-.149-.037-.137-.05a.862.862 0 01.116-.091z" fill="#eee"/><path data-name="패스 804209" d="M19.588 48.94a1.948 1.948 0 01.074.187l-.027.231c-.671 0-1.341.006-2.012 0-.022-.091-.046-.182-.061-.274v-.082a.777.777 0 01.1.216c.645 0 1.291.005 1.937 0l-.011-.278z" fill="#9a999e"/><path data-name="패스 804210" d="M22.287 48.93c.019.063.015.146.065.192.469-.01.939 0 1.408-.007a3.992 3.992 0 00.62 0 .329.329 0 01.11-.194 2.8 2.8 0 00-.081.338c-.7.006-1.4 0-2.094 0a1.42 1.42 0 01-.055-.248z" fill="#d8d8da"/><path data-name="패스 804211" d="M79.038 48.94a2.083 2.083 0 01-.021.654c-.042.125-.192.12-.3.123-1.057 0-2.114-.021-3.171 0h-4.4a.768.768 0 00-.429.135l.032-.091a1.315 1.315 0 01-.292-.021.382.382 0 01-.042-.125 1.288 1.288 0 01.414-.244c.874-.017 1.748 0 2.621-.007h5.011a2.287 2.287 0 01.338.043c.006-.118-.036-.258.057-.351a1.348 1.348 0 00.182-.116z" fill="#4d555d"/><path data-name="패스 804212" d="M22.239 49.089l.022-.076a1.42 1.42 0 00.055.248c.7-.007 1.4 0 2.094 0l-.016.1c-.235.021-.471.007-.706.01h-1.335c-.148.003-.122-.19-.114-.282z" fill="#969498"/><path data-name="패스 804213" d="M65.262 49.072c.014.041.026.082.039.124-.205.019-.413 0-.617.034-.931.025-1.864 0-2.8.013-1.053 0-2.106.012-3.158 0-.081-.033-.157-.075-.234-.112.218.012.437 0 .655.005h5.984a.127.127 0 00.131-.064z" fill="#677178"/><path data-name="패스 804214" d="M70.627 49.038c.047.012.1.021.144.03l.149.037.026.049.016.031c.939.023 1.88-.014 2.819.02h4.4a.929.929 0 00.5-.066c.027-.013.053-.029.083-.04a1.212 1.212 0 01-.02.265.158.158 0 01-.044-.054l-.038-.065c-.557-.016-1.114 0-1.671-.006h-5.838c-.4-.027-.793-.011-1.19-.015h-1.8l-.016-.108c.828-.009 1.657 0 2.486 0-.004-.02-.005-.059-.006-.078z" fill="#dbdbdd"/><path data-name="패스 804215" d="M78.761 49.099l.1-.045c-.094.093-.051.234-.057.351a2.3 2.3 0 00-.338-.043h-5.011c-.874 0-1.748-.009-2.622.007-.9.022-1.806.005-2.708.011l-.016-.092a2.3 2.3 0 00.339.026c3.417-.007 6.833 0 10.249-.006a.156.156 0 00.044.054 1.243 1.243 0 00.02-.263z" fill="#858689"/><path data-name="패스 804216" d="M8.874 49.114a7.011 7.011 0 00.723-.014v.15c-.645.011-1.29 0-1.935.006l-.031-.073v-.062c.412-.014.827-.003 1.243-.007z" fill="#dadadb"/><path data-name="패스 804217" d="M17.56 49.08c.015.092.039.183.061.274.671.009 1.341 0 2.012 0l.027-.231.005-.038c.028.135-.045.311.061.416a1.762 1.762 0 00.337-.05 2.186 2.186 0 01-.147.607l-.027-.092a2.32 2.32 0 00-.3-.03l-.022-.1c.021-.071.067-.171-.016-.221a1.449 1.449 0 00-.407-.016c-.457 0-.914-.008-1.371 0-.13-.006-.236.082-.359.107a2.757 2.757 0 01-.293.035 1.346 1.346 0 00.061-.265.689.689 0 01.374-.037c.002-.121.004-.24.004-.359z" fill="#605f65"/><path data-name="패스 804218" d="M22.237 49.373a.633.633 0 010-.291c-.008.1-.034.288.114.273.445.006.89 0 1.335 0 .235 0 .471.01.706-.01a1.362 1.362 0 00.126.453c-.614-.012-1.229 0-1.843-.008a.9.9 0 00-.306.032c-.048.1.037.191.079.273a1.448 1.448 0 00.247.288 2.726 2.726 0 00.589.4 6.408 6.408 0 001.464.511 13.21 13.21 0 001.314.217c.61.084 1.226.095 1.839.138.588.011 1.177.008 1.765 0a19.919 19.919 0 003.192-.33 5.606 5.606 0 001.7-.608 1.855 1.855 0 00.433-.326 1.549 1.549 0 00.323-.433.542.542 0 00.035-.288c-.621-.009-1.243 0-1.864-.01a1.035 1.035 0 00-.255.032 1.06 1.06 0 00.086-.332c.7-.011 1.408-.008 2.112 0-.016.161-.011.323-.024.484a.352.352 0 00.208-.018l.017.133a1.956 1.956 0 01-.884.921 6.58 6.58 0 01-2.081.662 17.636 17.636 0 01-1.774.2c-.335.039-.673.018-1.007.052a24.875 24.875 0 01-4.971-.277 7.585 7.585 0 01-1.661-.49 2.222 2.222 0 01-1.277-1.186l.045-.119.227-.029a1.05 1.05 0 00-.009-.314z" fill="#65696f"/><path data-name="패스 804219" d="M35.431 49.074a1.478 1.478 0 01.047.436l.266.007a1.49 1.49 0 01-.114.445l-.017-.133a.351.351 0 01-.208.018c.013-.161.009-.323.024-.484 0-.039.008-.077.012-.116a1.983 1.983 0 00-.01-.173z" fill="#545b62"/><path data-name="패스 804220" d="M73.606 49.117a2.748 2.748 0 01.531-.021h4.111a.946.946 0 01.427.044.927.927 0 01-.5.066h-4.4c-.939-.035-1.88 0-2.819-.02l-.016-.031c.812.025 1.625 0 2.438.012a.5.5 0 00.228-.05z" fill="#b9babe"/><path data-name="패스 804221" d="M7.575 49.115l.052.067.031.073c.645-.005 1.29.005 1.935-.006v.116c-.667-.012-1.333 0-2-.007a3.309 3.309 0 01-.018-.243z" fill="#969497"/><path data-name="패스 804222" d="M50.08 49.115a1.341 1.341 0 01.02.345q.171.006.344.006l.031.133a1.47 1.47 0 01-.106.4c-.013-.036-.024-.072-.035-.107-.1 0-.191.005-.286 0l-.041-.141a2.2 2.2 0 00-.513-.022h-1.265c-.136 0-.262.066-.4.063s-.242-.007-.363 0a1.533 1.533 0 00.087-.273 2.192 2.192 0 00.448.014c.049-.06.035-.145.04-.217h1.521a1.739 1.739 0 00.48-.03c.012-.055.024-.113.038-.171z" fill="#65656a"/><path data-name="패스 804223" d="M52.785 49.114q1.065-.005 2.129 0v.058c-.037.034-.072.082-.127.081-.19.014-.38-.01-.569.008-.205.024-.41-.016-.615-.007-.274 0-.548.01-.821-.009a1.432 1.432 0 01.003-.131z" fill="#d2d2d2"/><path data-name="패스 804224" d="M58.327 49.102l.168.027c.078.037.154.079.235.112a2.427 2.427 0 00-.422.042c.004-.06.011-.121.019-.181z" fill="#444d54"/><path data-name="패스 804225" d="M70.92 49.105c.328.03.658.005.988.013h1.7a.5.5 0 01-.225.05c-.813-.013-1.626.012-2.438-.012z" fill="#a1a5a8"/><path data-name="패스 804226" d="M38.006 49.181h.049l.02.071c.642 0 1.284.008 1.926-.006v.116c-.65-.012-1.3 0-1.951-.006l-.04-.016a2.766 2.766 0 01-.004-.159z" fill="#969497"/><path data-name="패스 804227" d="M33.303 49.19l.074.088c.3.009.6-.017.9 0 .386-.039.776.014 1.162-.027 0 .039-.008.077-.012.116-.7-.007-1.408-.009-2.111 0a2.017 2.017 0 00-.013-.177z" fill="#969498"/><path data-name="패스 804228" d="M55.075 49.429c.107-.031.149-.144.179-.241a.942.942 0 00.372.894 2.523 2.523 0 00.8.367 7.272 7.272 0 01-.995-.056l-.025-.019a1.479 1.479 0 01-.247-.262 1.71 1.71 0 01-.19-.35c-.027-.159-.1-.336-.009-.485.029.052.047.131.115.152z" fill="#4b555d"/><path data-name="패스 804229" d="M64.684 49.229c.2-.034.411-.014.616-.034 0 .159-.013.319-.009.478a.385.385 0 01-.347-.071c-.018-.106.043-.265-.058-.334a2.054 2.054 0 00-.202-.039z" fill="#4a535b"/><path data-name="패스 804230" d="M54.941 49.238l.018.041c-.1.15-.019.327.009.485a3.52 3.52 0 00-.721-.034c-.336 0-.672.005-1.008 0a1.818 1.818 0 00-.357.03c0-.024-.012-.071-.017-.095l-.038.05c-.011-.121-.018-.243-.025-.364.685.005 1.372.009 2.057 0 .028-.04.054-.077.082-.113z" fill="#656469"/><path data-name="패스 804231" d="M58.308 49.283a2.427 2.427 0 01.422-.043l-.034.081c1.989.01 3.978 0 5.967.009a.282.282 0 00.223-.062c.1.069.04.228.058.334v.133c-.092-.137-.256-.055-.389-.066-.174-.012-.348.008-.52-.012-.188-.021-.374.033-.562.015s-.373 0-.559-.014a1.093 1.093 0 00-.353.024l-.071-.053a1.165 1.165 0 00-.784-.225h-2.775a.63.63 0 00-.487.2c-.045.017-.091.03-.135.045a3.147 3.147 0 01-.001-.366z" fill="#656469"/><path data-name="패스 804232" d="M58.73 49.241c1.052.013 2.105 0 3.158 0 .932-.013 1.864.012 2.8-.013.068.009.134.023.2.039a.283.283 0 01-.223.062c-1.989-.007-3.978 0-5.967-.009z" fill="#93959a"/><path data-name="패스 804233" d="M68.104 49.258l.005.032.016.092c0 .106-.022.21-.032.315v.041c-.131-.006-.263 0-.393-.012-.007-.048-.013-.1-.017-.144s.018-.079.03-.118a2.183 2.183 0 00.357.019c.01-.075.023-.15.034-.225z" fill="#50575f"/><path data-name="패스 804234" d="M38.008 49.342l.04.016a1.8 1.8 0 01-.06.3c-.008.071-.092.052-.14.052-.1-.007-.206-.022-.309-.031v-.17a.649.649 0 01.409-.07z" fill="#4f565e"/><path data-name="패스 804235" d="M52.772 49.338l.031.011c.006.121.013.243.024.364v.189c-.136 0-.31-.1-.407.04a1.365 1.365 0 01-.067-.194l.021-.123.262-.027c0 .016.007.048.009.064l.1-.049a3.76 3.76 0 00.027-.275z" fill="#575e65"/><path data-name="패스 804236" d="M22.231 49.375a1.05 1.05 0 01.011.324l-.227.029-.045.119a2.195 2.195 0 01-.075-.373c.118-.024.261.001.336-.099z" fill="#4f575e"/><path data-name="패스 804237" d="M38.047 49.355c.65.006 1.3-.006 1.951.006a7.671 7.671 0 00.03.794l.354-.044c.019.081.039.162.055.244l.014.083a.99.99 0 01-.446 0c-.007-.124-.014-.249-.023-.373l-.019-.255c-.6-.023-1.2 0-1.8-.014a.149.149 0 00-.155.163c-.018.37 0 .741 0 1.111.012-.086.023-.172.031-.258 0 .126 0 .252.007.377l.108.117a4.261 4.261 0 00.49.03c1.549.01 3.1 0 4.648-.005.432-.029.865 0 1.3-.024.385-.005.769.006 1.153-.03a13.624 13.624 0 001.657-.109 6.74 6.74 0 001.773-.447 1.589 1.589 0 00.147-.072 1.385 1.385 0 00.243-.18 1.776 1.776 0 00.3-.334.981.981 0 00.142-.376l.041.141h.287l.035.107a1.9 1.9 0 01-1.052 1.039 7.944 7.944 0 01-2.278.5c-.957.092-1.919.091-2.88.1q-2.793.048-5.588.024a1.39 1.39 0 01-.83-.157.432.432 0 01-.181-.36c-.027-.485-.019-.972-.019-1.457.1.009.205.024.309.031.048 0 .132.019.14-.052a1.8 1.8 0 00.056-.32z" fill="#656970"/><path data-name="패스 804238" d="M68.125 49.381c.9-.006 1.806.011 2.708-.011a1.29 1.29 0 00-.414.244 7.585 7.585 0 00-1.029-.034c-.375 0-.751-.027-1.125.009a.248.248 0 00-.171.107c.01-.105.027-.209.031-.315z" fill="#625f64"/><path data-name="패스 804239" d="M58.445 49.616a.63.63 0 01.488-.2h2.774a1.165 1.165 0 01.784.225 2.509 2.509 0 01-.46.019h-3.209a.843.843 0 01-.377-.044z" fill="#404952"/><path data-name="패스 804240" d="M7.644 49.616a.949.949 0 01.3-.046c.3 0 .61.021.915 0 .244-.018.488.027.732.007v.417c-.023-.055-.018-.158-.1-.156-.517-.013-1.035 0-1.552-.006a1.34 1.34 0 00-.247.01.415.415 0 00-.112.147v-.105c.002-.086-.019-.203.064-.268z" fill="#6f6e73"/><path data-name="패스 804241" d="M68.264 49.588c.374-.036.75 0 1.125-.009a7.586 7.586 0 011.029.034 1.41 1.41 0 00-.123.49c-.023-.046-.044-.092-.065-.137a4.9 4.9 0 00-.559.012c-.452.006-.9-.01-1.357-.008a.429.429 0 00-.221.081v-.355a.247.247 0 01.171-.108z" fill="#747378"/><path data-name="패스 804242" d="M17.416 49.703c.123-.025.229-.113.359-.107.457 0 .914.009 1.371 0a1.449 1.449 0 01.407.016c.083.05.037.15.016.221-.017.04-.036.08-.055.119a1.4 1.4 0 00-.26-.032c-.747 0-1.495-.01-2.242.013a1.4 1.4 0 00.111-.2 2.76 2.76 0 00.293-.03z" fill="#727176"/><path data-name="패스 804243" d="M58.31 49.656c.044-.016.091-.028.135-.045a.842.842 0 00.377.038h3.209a2.507 2.507 0 00.459-.019l.071.053a1.334 1.334 0 01.137.355c-.1.017-.194.031-.29.044-.057-.1-.118-.228-.245-.257a2.685 2.685 0 00-.6-.028c-1.01-.005-2.02.008-3.03 0a.213.213 0 01-.223-.141z" fill="#4e5f69"/><path data-name="패스 804244" d="M64.945 49.598a.386.386 0 00.347.071c0 .453.015.908-.024 1.36a.577.577 0 01-.2.446 1.013 1.013 0 01-.587.118h-5.948c-.852 0-1.705.008-2.554-.079a7.908 7.908 0 01-2.4-.545 2.175 2.175 0 01-1.155-1.03c.1-.137.271-.043.407-.04v-.189l.038-.05.017.095a.733.733 0 00.15.364 1.868 1.868 0 00.319.339 1.55 1.55 0 00.486.275 5.666 5.666 0 00.877.259 6.2 6.2 0 001.479.172c.088 0 .188-.014.26.051.368.04.739.02 1.108.025h7.137c.092.005.214-.011.224-.126a2.9 2.9 0 00.04-.326 4.77 4.77 0 00-.018-1.056 1.204 1.204 0 01-.003-.134z" fill="#656971"/><path data-name="패스 804245" d="M67.674 49.607l.007-.029c0 .048.01.1.017.144.131.007.262.006.394.012V50.531a2.468 2.468 0 00.025.607c.031.13.185.126.292.132h9.406c.5 0 .995-.009 1.492.009h.038c0-.084 0-.168.007-.252l.045-.024a1.615 1.615 0 00.032.319.884.884 0 00.128.166 1.045 1.045 0 00-.006-.569l.063-.05.023-.019a2.582 2.582 0 01-.032.645.157.157 0 01-.172.122h-10.81a1.875 1.875 0 01-.7-.069c-.2-.084-.239-.331-.253-.523-.004-.471-.017-.946.004-1.418z" fill="#656a70"/><path data-name="패스 804246" d="M62.562 49.68a1.093 1.093 0 01.353-.024c.186.018.373 0 .559.014s.374-.036.562-.015c.172.021.347 0 .52.012.133.011.3-.071.389.066a4.755 4.755 0 01.018 1.056 4.265 4.265 0 00-.054-.733c-.6-.02-1.2 0-1.8-.01a1 1 0 00-.313.022 1.029 1.029 0 00-.065.374c-.007.05-.015.1-.025.148a1.548 1.548 0 01-.1.2c-.326.014-.649-.032-.974-.027-.529 0-1.058-.021-1.588-.027a1.08 1.08 0 01-.235-.049c.594-.023 1.189 0 1.783-.007a3.3 3.3 0 00.691-.03l.032-.008c.1-.024.213-.021.319-.043.076-.08.064-.211.076-.315 0-.083-.006-.165-.016-.247a1.334 1.334 0 00-.132-.357z" fill="#7a797e"/><path data-name="패스 804247" d="M70.294 50.102a1.413 1.413 0 01.123-.49.385.385 0 00.043.125 1.314 1.314 0 00.292.021l-.032.091a1.018 1.018 0 00-.107.252 1.366 1.366 0 00.007.382h-.3c0 .03-.011.091-.014.121l-.017-.056c0-.014-.009-.041-.013-.054a1.853 1.853 0 01.018-.392z" fill="#64696f"/><path data-name="패스 804248" d="M33.232 49.695a1.036 1.036 0 01.256-.032c.621.007 1.243 0 1.864.01a.542.542 0 01-.035.288l-.075-.074h-1.9c-.155-.007-.276.117-.429.117s-.312 0-.468.016a1.5 1.5 0 00.239-.256c.183-.033.368-.031.548-.069z" fill="#727176"/><path data-name="패스 804249" d="M47.829 49.792c.136 0 .261-.064.4-.063.422.008.843.006 1.265 0a2.2 2.2 0 01.513.022.981.981 0 01-.142.376 4.293 4.293 0 01-.054-.125 4.977 4.977 0 01-.751.013c-.395 0-.79-.018-1.184.017a1.351 1.351 0 00-.529-.06 1.481 1.481 0 00.122-.183c.116-.004.239.002.36.003z" fill="#7a7b80"/><path data-name="패스 804250" d="M52.882 49.756a1.818 1.818 0 01.357-.03c.336.008.672 0 1.009 0a3.514 3.514 0 01.721.034 1.716 1.716 0 00.19.35 1.6 1.6 0 00-.479-.027h-1.046a2.3 2.3 0 00-.6.034.733.733 0 01-.152-.361z" fill="#7d7d82"/><path data-name="패스 804251" d="M7.122 49.79l.008-.04.026.184c.14-.01.279-.027.418-.05v.105c0 .085.007.169.007.254a7.378 7.378 0 00.017.866c.009.064.01.15.081.178a.788.788 0 00.227.031c.753.025 1.507.01 2.261.015 1.057 0 2.115.005 3.171-.025.235 0 .469 0 .7-.005a21.634 21.634 0 002.234-.073 7.791 7.791 0 002.4-.494 1.623 1.623 0 00.478-.285 1.253 1.253 0 00.368-.5l.055-.119.022.1a2.323 2.323 0 01.3.03l.027.092a1.925 1.925 0 01-.488.643 3.058 3.058 0 01-1.2.559 13.878 13.878 0 01-3.012.358c-.781.012-1.563 0-2.343.032-1.646.005-3.293.028-4.94 0a1.041 1.041 0 01-.614-.145.426.426 0 01-.194-.365c-.01-.254 0-.508-.024-.761a2.989 2.989 0 01.015-.585z" fill="#656971"/><path data-name="패스 804252" d="M38.014 49.954a.149.149 0 01.155-.162c.6.016 1.2-.009 1.8.014l.019.255h-.876c-.292 0-.6-.03-.9 0-.053.008-.127 0-.145.064a1.2 1.2 0 00-.025.483v.2a5.503 5.503 0 01-.031.258c-.005-.371-.02-.742.003-1.112z" fill="#7e7f83"/><path data-name="패스 804253" d="M22.369 49.825a.9.9 0 01.306-.032c.614.01 1.229 0 1.843.008.027.053.057.1.087.156l.057.106a1.554 1.554 0 00-.337-.053c-.405 0-.811-.007-1.217.006-.212.011-.425-.008-.636-.012a1.875 1.875 0 00-.023.1c-.043-.088-.128-.183-.08-.279z" fill="#7b7c80"/><path data-name="패스 804254" d="M70.78 49.968a.45.45 0 01.369-.148h4.585c-.221.269-.465.519-.674.8-1.136 0-2.272 0-3.408-.007a4.268 4.268 0 01-.795-.035.161.161 0 01-.137-.124.718.718 0 01.06-.486z" fill="#fff"/><path data-name="패스 804255" d="M7.577 49.993a.415.415 0 01.112-.147 1.34 1.34 0 01.247-.01c.517.01 1.035-.007 1.552.006.082 0 .077.1.1.156v.212c-.013-.044-.028-.086-.043-.129a6.719 6.719 0 00-.781-.019c-.368 0-.737-.011-1.1.005a3.616 3.616 0 00-.078.18c-.002-.085-.007-.17-.009-.254z" fill="#808085"/><path data-name="패스 804256" d="M32.913 50c.153 0 .274-.125.429-.118h1.9l.075.074a1.548 1.548 0 01-.323.433l.071-.176c-.289-.017-.578 0-.866-.023-.416.018-.833.026-1.248.006a7.373 7.373 0 00-.774-.005 2.137 2.137 0 00.269-.18c.155-.01.311-.003.467-.011z" fill="#85878c"/><path data-name="패스 804257" d="M17.012 49.937c.747-.023 1.495-.015 2.242-.013a1.4 1.4 0 01.26.032 1.253 1.253 0 01-.368.5c0-.048-.006-.1-.009-.145-.631-.019-1.262-.009-1.892-.009l.083-.182h-.473a1.512 1.512 0 00.157-.183z" fill="#8a8c91"/><path data-name="패스 804258" d="M9.588 49.997a1.482 1.482 0 00.357-.024c.015.056.03.112.043.169.006.087.01.174.019.26a1.435 1.435 0 00-.412 0v-.062c0-.043 0-.085-.006-.128l-.001-.215z" fill="#5a636b"/><path data-name="패스 804259" d="M24.606 49.955c.037.027.076.053.115.077.187.137.427.052.635.023a3.227 3.227 0 00.832.38 7.16 7.16 0 01-.815.054l.191.146-.085.008-.052-.023c-.106-.058-.21-.119-.321-.168a2.13 2.13 0 01-.444-.391l-.056-.106z" fill="#656e75"/><path data-name="패스 804260" d="M68.315 49.968c.452 0 .9.013 1.357.008a4.9 4.9 0 01.559-.012c.021.046.042.092.065.137a1.845 1.845 0 00-.018.394l-.042-.187c-.459-.028-.921.007-1.38-.011a4.366 4.366 0 00-.684.021.8.8 0 00-.075.214v-.483a.43.43 0 01.218-.081z" fill="#8d8e93"/><path data-name="패스 804261" d="M22.472 50.001c.212 0 .424.023.636.012.405-.013.811 0 1.217-.006a1.552 1.552 0 01.337.053 2.131 2.131 0 00.444.391c-.173-.028-.3-.194-.483-.172h-1.9l-.032.1a1.446 1.446 0 01-.247-.288c.011-.018.022-.066.028-.09z" fill="#8d8e93"/><path data-name="패스 804262" d="M47.1 50.192a1.783 1.783 0 00.245-.217 1.351 1.351 0 01.529.06c.394-.034.789-.015 1.184-.017a4.978 4.978 0 00.751-.013l.054.125a1.78 1.78 0 01-.3.334c.038-.071.074-.144.112-.216-.668-.011-1.337 0-2 0l.021-.1c-.206-.003-.399.041-.596.044z" fill="#8d8e93"/><path data-name="패스 804263" d="M38.207 50.063c.3-.03.6.008.9 0s.583 0 .876 0l.023.373-.066-.1h-1.337a2.712 2.712 0 00-.534.049 4.26 4.26 0 00-.024.163l-.007.063a1.2 1.2 0 01.025-.483c.017-.066.092-.057.144-.065z" fill="#919498"/><path data-name="패스 804264" d="M62.699 50.034c.01.082.014.165.016.247-.1-.005-.2-.013-.3-.026 0-.059 0-.119-.011-.177.101-.013.198-.027.295-.044z" fill="#656970"/><path data-name="패스 804265" d="M7.661 50.065c.368-.016.737 0 1.1-.005a6.719 6.719 0 01.781.019l.043.129c.014.043 0 .085.006.128a.256.256 0 00-.144-.061c-.312-.018-.625.007-.938 0-.285-.012-.57.017-.856.007a3.468 3.468 0 00-.057.834 7.378 7.378 0 01-.017-.866c.025-.066.056-.126.082-.185z" fill="#8e9195"/><path data-name="패스 804266" d="M54.68 50.084a1.6 1.6 0 01.479.027 1.491 1.491 0 00.247.262 8.393 8.393 0 00-1.158-.023 9.667 9.667 0 01-.8-.019c-.073-.011-.072.081-.092.127a1.884 1.884 0 01-.319-.339 2.3 2.3 0 01.6-.034c.346-.004.694.003 1.043-.001z" fill="#93959a"/><path data-name="패스 804267" d="M62.798 50.065a1 1 0 01.313-.022c.6.011 1.2-.01 1.8.01a4.253 4.253 0 01.054.733 2.952 2.952 0 01-.04.326c.01-.2.007-.392 0-.587a1.508 1.508 0 00-.023-.174 1.669 1.669 0 00-.384-.018c-.409.009-.817-.009-1.225 0-.191.005-.414-.047-.562.107a1.029 1.029 0 01.067-.375z" fill="#919297"/><path data-name="패스 804268" d="M16.853 50.114h.473l-.083.182c.631 0 1.262-.01 1.892.009 0 .048.006.1.009.145a1.623 1.623 0 01-.478.285l-.031-.123c-.443-.008-.886.012-1.329 0a1.222 1.222 0 01-.46-.047q.122-.074.237-.16a.66.66 0 00.1-.145 3.585 3.585 0 01-.58.031 2.282 2.282 0 00.25-.177z" fill="#a5aaaf"/><path data-name="패스 804269" d="M32.177 50.194a7.377 7.377 0 01.774.005c.415.02.833.012 1.248-.006.288.026.577.006.866.023q-.034.088-.071.175a1.855 1.855 0 01-.433.326.447.447 0 00.1-.169 2.4 2.4 0 00-.562-.031c-.288-.009-.576.009-.864 0a2.524 2.524 0 00-.813.063l-.005-.05c.084-.06.169-.119.249-.186-.286.005-.572.036-.858.016.125-.052.249-.105.369-.166z" fill="#9ca1a7"/><path data-name="패스 804270" d="M47.1 50.192c.2 0 .39-.047.588-.043l-.021.1-.057.053a5.8 5.8 0 00-.69 0 1.77 1.77 0 00.18-.11z" fill="#b0b5b8"/><path data-name="패스 804271" d="M47.667 50.245c.667 0 1.336-.008 2 0-.037.072-.073.145-.112.216a1.389 1.389 0 01-.243.18.359.359 0 00.083-.169 1.918 1.918 0 00-.488-.024c-.24.007-.479 0-.719 0a1.908 1.908 0 01-.7-.036c.038-.04.075-.079.115-.117z" fill="#9ca1a6"/><path data-name="패스 804272" d="M62.419 50.254c.1.013.2.021.3.026-.011.1 0 .235-.075.315-.106.022-.214.019-.319.043a.637.637 0 00.094-.384z" fill="#4e5860"/><path data-name="패스 804273" d="M7.658 50.277c.285.009.57-.019.856-.007.312.011.626-.013.938 0a.255.255 0 01.144.061v.141a1.634 1.634 0 00-.291-.024c-.55.015-1.1-.017-1.649.008l-.015.165a2.183 2.183 0 00.017.572.691.691 0 00.249.124.786.786 0 01-.227-.031c-.071-.028-.072-.115-.081-.178a3.468 3.468 0 01.059-.831z" fill="#9ca1a7"/><path data-name="패스 804274" d="M16.604 50.292a3.587 3.587 0 00.58-.031.661.661 0 01-.1.145 4.326 4.326 0 00-.694-.005c.072-.034.143-.072.214-.109z" fill="#cdcfd2"/><path data-name="패스 804275" d="M22.728 50.284c.632-.005 1.264 0 1.9 0 .185-.022.31.144.483.172.111.049.215.11.321.168-.257.005-.512-.044-.769-.033a13.765 13.765 0 00-1.426.031l.053.169a2.727 2.727 0 01-.589-.4z" fill="#a2a7ad"/><path data-name="패스 804276" d="M46.918 50.302a5.8 5.8 0 01.69 0c-.04.038-.078.077-.115.117h-.014c-.248-.079-.508.05-.76-.014z" fill="#ced0d3"/><path data-name="패스 804277" d="M68.17 50.315a4.368 4.368 0 01.684-.021c.46.018.921-.018 1.38.011l.042.187c0 .014.01.041.013.054-.461-.041-.924 0-1.385-.028-.254.016-.508.008-.762.019a1.678 1.678 0 00.021.556c.046.114.174.131.282.127h9.947c.3.006.61-.017.914.014v.044c-.5-.018-.995 0-1.492-.009h-9.406c-.107-.006-.261 0-.292-.132a2.474 2.474 0 01-.025-.607.793.793 0 01.079-.215z" fill="#a1a6ab"/><path data-name="패스 804278" d="M53.351 50.456c.021-.046.019-.138.092-.127.268.013.535.027.8.019a8.4 8.4 0 011.158.023l.025.019a2.042 2.042 0 00.379.228c-.412-.013-.825.007-1.237 0-.249 0-.5-.009-.747 0 0 .027.009.082.013.109a1.55 1.55 0 01-.483-.271z" fill="#a5abb0"/><path data-name="패스 804279" d="M62.733 50.441c.147-.154.371-.1.562-.107.408-.009.817.009 1.225 0a1.67 1.67 0 01.384.018 1.508 1.508 0 01.023.174c-.7.009-1.394.016-2.089 0a.782.782 0 00-.129.066c.009-.052.017-.1.024-.151z" fill="#a1a6ac"/><path data-name="패스 804280" d="M31.81 50.362c.286.02.572-.011.858-.016-.08.066-.165.125-.249.186h-.018c-.4-.079-.8.057-1.2.007.201-.059.407-.109.609-.177z" fill="#c4c9cc"/><path data-name="패스 804281" d="M38.069 50.384a2.713 2.713 0 01.534-.049c.446.005.892 0 1.337 0l.066.1-.011.1c-.651.012-1.3-.02-1.951.013l.025-.164z" fill="#a2a7ad"/><path data-name="패스 804282" d="M9.596 50.398a1.434 1.434 0 01.412 0c.006.042.015.084.025.126-.144-.009-.33.062-.436-.068l-.001-.058z" fill="#717a80"/><path data-name="패스 804283" d="M16.39 50.4a4.33 4.33 0 01.694.005q-.115.085-.237.16a4.434 4.434 0 01-1.477.434c-.446.043-.893.087-1.341.086-1.2 0-2.4.019-3.6-.005a1.37 1.37 0 01-.46-.1c.151-.106.344-.062.516-.086.467-.05.942-.051 1.405-.132.761-.008 1.523-.009 2.285-.011a6.765 6.765 0 002.215-.351z" fill="#eeefee"/><path data-name="패스 804284" d="M46.719 50.394c.252.064.512-.065.76.014a3.011 3.011 0 01-.289.191 4.717 4.717 0 01-1.737.426 9.968 9.968 0 01-1.187.057c-.986-.005-1.972.02-2.958 0a2.787 2.787 0 01-.931-.092.327.327 0 01.175-.077c.685-.041 1.37-.1 2.054-.16.042-.007.085-.016.128-.025.823-.024 1.648.016 2.471-.045a5.809 5.809 0 001.514-.289z" fill="#eeefee"/><path data-name="패스 804285" d="M55.429 50.391a7.271 7.271 0 00.995.056 7.031 7.031 0 00.96.154.3.3 0 00.173-.039 4.568 4.568 0 01.544.017l-.01.013h-.548l.1.059a2.267 2.267 0 01-.511.005c-.423 0-.847 0-1.27-.017l-.052-.022a2.049 2.049 0 01-.381-.226z" fill="#697278"/><path data-name="패스 804286" d="M40.008 50.433a.991.991 0 00.446 0 .365.365 0 00.249.254c-.192-.021-.38.039-.571.033a.881.881 0 01-.136-.191z" fill="#858a91"/><path data-name="패스 804287" d="M47.19 50.6a3.008 3.008 0 00.289-.191h.015a1.909 1.909 0 00.7.036c.24 0 .479.008.719 0a1.92 1.92 0 01.488.024.363.363 0 01-.083.169 1.591 1.591 0 01-.147.072l-.03-.079c-.5-.017-.992 0-1.488-.01-.155-.003-.318.056-.463-.021z" fill="#abb0b6"/><path data-name="패스 804288" d="M7.658 50.46c.55-.026 1.1.007 1.649-.008a1.632 1.632 0 01.291.024 1.237 1.237 0 00.054.206l.016.036a.279.279 0 00-.218-.09H7.643q.006-.085.015-.168z" fill="#abb0b6"/><path data-name="패스 804289" d="M9.597 50.458c.105.13.292.059.436.068a1.523 1.523 0 00.108.135c-.163 0-.326.011-.488.02a1.236 1.236 0 01-.054-.206z" fill="#868e91"/><path data-name="패스 804290" d="M25.373 50.488a7.163 7.163 0 00.815-.054c.191.051.385.094.578.14-.316.076-.648.03-.962.106a2.23 2.23 0 00.381.126 3.346 3.346 0 00.361.084 13.635 13.635 0 002.795.183 11.71 11.71 0 002-.2 4.657 4.657 0 001.06-.343h.018v.05c-.2.092-.418.151-.625.235a4.683 4.683 0 01-.5.116 5.808 5.808 0 01-.941.143 8.962 8.962 0 01-.974.057 12.078 12.078 0 01-1.332-.013c-.376.013-.745-.065-1.119-.086a8.982 8.982 0 01-1.142-.265 1.89 1.89 0 01-.308-.126l.085-.008z" fill="#8c9298"/><path data-name="패스 804291" d="M31.198 50.534c.4.05.805-.086 1.2-.007a4.654 4.654 0 01-1.06.343 11.709 11.709 0 01-2 .2 13.635 13.635 0 01-2.794-.183 1.629 1.629 0 01.539-.066c.224-.027.45-.019.674-.046a2.675 2.675 0 00.527-.049 13.5 13.5 0 002.914-.192z" fill="#eeefee"/><path data-name="패스 804292" d="M32.424 50.58a2.524 2.524 0 01.813-.063c.288.008.576-.01.864 0a2.4 2.4 0 01.561.031.446.446 0 01-.1.169 5.6 5.6 0 01-1.7.608 19.919 19.919 0 01-3.192.33c-.588.006-1.177.01-1.765 0-.613-.044-1.229-.055-1.839-.138a13.2 13.2 0 01-1.314-.217 6.408 6.408 0 01-1.464-.511 10.959 10.959 0 01-.053-.169 13.765 13.765 0 011.426-.031c.257-.012.511.038.769.033l.052.023a1.9 1.9 0 00.308.126 8.986 8.986 0 001.142.265c.374.021.744.1 1.119.086a12.072 12.072 0 001.332.013 8.963 8.963 0 00.974-.057 5.8 5.8 0 00.941-.143 4.685 4.685 0 00.5-.116c.208-.09.423-.147.626-.239z" fill="#b4bbc1"/><path data-name="패스 804293" d="M62.837 50.521c.7.019 1.393.012 2.089 0 0 .2.007.392 0 .587-.01.115-.132.132-.224.126h-7.138c-.369-.005-.74.015-1.108-.025-.072-.065-.173-.048-.26-.051a6.2 6.2 0 01-1.479-.172 5.657 5.657 0 01-.877-.259c0-.027-.01-.082-.013-.109.249-.012.5 0 .747 0 .412.006.824-.014 1.237 0l.052.022c.126.05.24.17.386.142a6.757 6.757 0 01.884-.019 5.453 5.453 0 01.771.037l.041.06a10.859 10.859 0 00-1.3 0 7.047 7.047 0 001.279.148c.817.041 1.635.015 2.452.022h1.622a1.461 1.461 0 00.355-.047l.083-.009a.44.44 0 00.178-.194 1.582 1.582 0 00.1-.2.785.785 0 01.123-.059z" fill="#b4bbc0"/><path data-name="패스 804294" d="M68.142 50.54c.254-.012.508 0 .762-.019.461.031.925-.013 1.385.028l.016.056c.035.1.1.248.23.227 3.02 0 6.039.007 9.059-.005h.017l.005.046c-3.04.012-6.08 0-9.12.006a1.023 1.023 0 00.616.142c.624.009 1.249-.01 1.873.014.853 0 1.707 0 2.559.009 1.251-.006 2.5.021 3.752.008 0 .061 0 .123.009.185-.3-.031-.609-.008-.914-.014h-9.947c-.108 0-.237-.013-.282-.127a1.685 1.685 0 01-.02-.556z" fill="#b4bbc1"/><path data-name="패스 804295" d="M70.316 50.484h.3c.053.179.26.194.416.2 1.035 0 2.069.009 3.1.006.924.019 1.85-.01 2.774.019.818 0 1.637 0 2.456.009.083.007.19.017.223.108-3.019.012-6.039 0-9.059.005-.135.021-.2-.123-.23-.227a.36.36 0 00.02-.12z" fill="#4f585f"/><path data-name="패스 804296" d="M38.045 50.546c.65-.033 1.3 0 1.951-.013a.876.876 0 00.135.191c.191.006.379-.053.571-.033a7.011 7.011 0 00.76.034 1.926 1.926 0 01-.3.058 8.785 8.785 0 00-.948.085.511.511 0 00.161.124 2.789 2.789 0 00.931.092c.986.019 1.972-.007 2.958 0a9.968 9.968 0 001.187-.057 4.717 4.717 0 001.737-.426c.144.077.308.018.462.027.5.008.992-.007 1.488.01l.03.079a6.741 6.741 0 01-1.773.447 13.622 13.622 0 01-1.657.109c-.383.036-.768.024-1.153.03-.432.02-.865 0-1.3.025-1.549.009-3.1.015-4.648.005a4.26 4.26 0 01-.49-.03l-.108-.117c0-.126-.006-.252-.007-.377v-.2z" fill="#b4bbc0"/><path data-name="패스 804297" d="M15.373 50.998a4.433 4.433 0 001.477-.434 1.221 1.221 0 00.46.047c.443.014.887-.006 1.329 0l.031.123a7.791 7.791 0 01-2.4.494c-.58-.023-1.161-.005-1.741-.01a.767.767 0 00-.484.084c-.234.006-.469.006-.7 0-1.057.03-2.114.021-3.171.025-.754 0-1.508.01-2.261-.015a.691.691 0 01-.249-.124 2.183 2.183 0 01-.017-.572c.6.007 1.2 0 1.807 0a.278.278 0 01.218.09c.032.022.063.058.107.054a4.441 4.441 0 00.512-.046c.088.014.176.027.264.034a3.274 3.274 0 01-.743.107c.051.041.1.082.155.118a1.37 1.37 0 00.46.1c1.2.024 2.4 0 3.6.005.446.006.898-.034 1.346-.08z" fill="#b4bbc0"/><path data-name="패스 804298" d="M58.101 50.577a.353.353 0 01.176.006c.125.018.253.012.378.028-.171 0-.342 0-.512-.006 0 .019.005.057.007.076.555-.007 1.11 0 1.664 0a1.081 1.081 0 00.235.049c.529.007 1.058.027 1.588.027.325-.005.649.041.975.027a.441.441 0 01-.178.194l.026-.1c-.479-.025-.959-.007-1.439-.022-.361.008-.721-.036-1.081-.027-.456-.009-.912 0-1.367-.031-.223-.009-.447 0-.671 0a5.459 5.459 0 00-.771-.037 6.766 6.766 0 00-.884.019c-.146.028-.26-.092-.386-.142.423.014.847.015 1.27.017a2.265 2.265 0 00.512-.005c.144-.006.289 0 .433 0l.016-.066z" fill="#959ca0"/><path data-name="패스 804299" d="M25.804 50.68c.314-.076.646-.03.962-.106.275.043.55.076.826.109-.354.017-.707.042-1.06.063a1.28 1.28 0 00-.348.06 2.234 2.234 0 01-.38-.126z" fill="#aeb1b6"/><path data-name="패스 804300" d="M57.544 50.595h.548l-.016.066c-.145 0-.289-.01-.434 0z" fill="#31322f"/><path data-name="패스 804301" d="M58.656 50.613h2.943c.2 0 .4.007.6-.011l.092.044a3.3 3.3 0 01-.69.03c-.594 0-1.189-.016-1.783.007-.555 0-1.109-.007-1.664 0 0-.019-.005-.057-.007-.076.167.01.338.01.509.006z" fill="#323230"/><path data-name="패스 804302" d="M9.652 50.681c.163-.009.325-.025.488-.02.049.022.1.045.147.064a4.441 4.441 0 01-.512.046c-.044 0-.075-.032-.107-.054z" fill="#a0a5a9"/><path data-name="패스 804303" d="M26.533 50.746c.353-.021.706-.046 1.06-.063.231.015.462.028.693.045a2.682 2.682 0 01-.526.049c-.224.027-.45.019-.674.046a1.629 1.629 0 00-.538.066 3.351 3.351 0 01-.361-.084 1.28 1.28 0 01.346-.059z" fill="#d3d5d7"/><path data-name="패스 804304" d="M41.164 50.782a1.933 1.933 0 00.3-.058c.423.008.848-.007 1.271.005-.043.009-.086.018-.128.025-.684.059-1.368.119-2.054.16a.328.328 0 00-.175.077.512.512 0 01-.161-.124 8.775 8.775 0 01.947-.085z" fill="#d1d3d6"/><path data-name="패스 804305" d="M10.552 50.759c.445 0 .889 0 1.333.008-.463.081-.938.081-1.405.132-.172.024-.365-.02-.516.086-.054-.036-.1-.077-.155-.118a3.271 3.271 0 00.743-.108z" fill="#d4d5d7"/><path data-name="패스 804306" d="M57.902 50.8c.223 0 .447-.005.671 0 .455.034.911.022 1.367.031.361-.009.72.035 1.082.027.479.015.96 0 1.439.022l-.026.1-.082.009a2.1 2.1 0 00-.607-.046c-.457 0-.914 0-1.37-.028-.811-.013-1.622-.008-2.431-.054z" fill="#c8cace"/><path data-name="패스 804307" d="M56.643 50.863a10.859 10.859 0 011.3 0c.809.046 1.621.041 2.431.054.456.025.913.027 1.37.028a2.1 2.1 0 01.606.046 1.46 1.46 0 01-.355.046h-1.622c-.817-.007-1.635.019-2.452-.022a7.049 7.049 0 01-1.278-.152z" fill="#eeefee"/><path data-name="패스 804308" d="M70.498 50.876c3.04-.007 6.08.006 9.12-.006l-.063.05c-.051.03-.1.057-.153.084l-.045.024c-.008.084-.007.168-.008.252h-.037v-.044c0-.062-.007-.124-.009-.185-1.251.013-2.5-.014-3.752-.008-.853-.009-1.706-.01-2.559-.009-.624-.025-1.249 0-1.873-.014a1.022 1.022 0 01-.621-.144z" fill="#eee"/><path data-name="패스 804309" d="M79.401 51c.052-.027.1-.054.154-.084a1.046 1.046 0 01.006.569.878.878 0 01-.128-.166 1.606 1.606 0 01-.032-.319z" fill="#424b53"/><path data-name="패스 804310" d="M14.046 51.304a.768.768 0 01.484-.084c.581.005 1.161-.013 1.741.01a21.638 21.638 0 01-2.225.074z" fill="#9da4a8"/><path data-name="패스 804311" d="M74.065 51.711h5.138-.012a.411.411 0 00-.229.152c-.826.976-1.672 1.935-2.5 2.909-.3.339-.6.674-.885 1.025-.045.054-.1.116-.175.105-1.358-.005-2.716 0-4.073 0-.245-.005-.49.014-.734-.013l3.576-4.14-.088-.034z" fill="#ce312a"/><path data-name="패스 804312" d="M74.084 51.719l.088.034q-1.792 2.067-3.576 4.14c.244.027.49.007.735.013h4.073c.078.011.129-.052.175-.105.284-.351.587-.686.885-1.025.827-.975 1.673-1.933 2.5-2.909a.411.411 0 01.229-.152.931.931 0 01-.178.236l-2.775 3.216c-.242.275-.475.559-.723.828h-5.1a1.1 1.1 0 01.192-.257c1.161-1.338 2.314-2.683 3.475-4.019z" fill="#db4210"/></svg>