<svg xmlns="http://www.w3.org/2000/svg" width="100" height="100"><defs><clipPath id="a"><path data-name="사각형 299579" fill="none" d="M0 0h56v56H0z"/></clipPath></defs><g data-name="그룹 390827" clip-path="url(#a)" transform="translate(22 22)"><path data-name="패스 789229" d="M23.757 25.566L27.573 2.7A25.347 25.347 0 002.727 28a26.729 26.729 0 003.131 12.233zm4.213 7.326L6.318 41.03a25.328 25.328 0 0043.352.011zm4.247-7.339l17.925 14.691A26.093 26.093 0 0053.307 28 25.35 25.35 0 0028.46 2.693zM56 28A28 28 0 1128 0a28.093 28.093 0 0128 28" fill="#fff" fill-rule="evenodd"/><path data-name="패스 789230" d="M56 28A28 28 0 1128 0a28.093 28.093 0 0128 28m-34.206 3.12l-.034.068.09-.011L27.214 28l-.954-.539zm24.487 7.205l.1.011-.056-.09L30.054 27.3l-1.235.7zM27.831 8.417l-.045-.067-.045.067L26.609 26.7l1.009.606zM44.8 8.26l.033.079a37.89 37.89 0 013.715 4A25.147 25.147 0 0153.923 28 26.259 26.259 0 0150.6 40.648l.292.539-.606.034a25.9 25.9 0 01-44.542 0l-.572-.034.235-.539a27.956 27.956 0 01-2.837-7.934l-.056-.056-.034.079a24.186 24.186 0 002.693 8.45 25.433 25.433 0 0022.838 13.646A26.888 26.888 0 0054.8 28a25.46 25.46 0 00-9.911-19.74zM27.573 2.7A25.347 25.347 0 002.727 28a26.724 26.724 0 003.131 12.233L23.4 25.856l1.436.819L5.678 40.726l-.079.2h.213L27.6 28.662l-.045 4.388-21.237 7.979a25.328 25.328 0 0043.353.011l-21.222-7.967-.056-4.4 21.839 12.256h.191l-.09-.169-19.168-14.073 1.425-.831 17.552 14.388A26.093 26.093 0 0053.307 28 25.35 25.35 0 0028.46 2.693l3.681 22.389-3.759 2.211-.27-25.015L28 2.155l-.1.123L25.25 25.9l-1.414-.819zM10.122 48.593A29.2 29.2 0 011.549 28 26.5 26.5 0 0128 1.549c12.76 0 23.634 9.213 26.822 21.334l.068.045.034-.079A27.4 27.4 0 00.617 28a27.6 27.6 0 009.449 20.661l.079.011z" fill="#231815"/></g></svg>