<svg xmlns="http://www.w3.org/2000/svg" width="100" height="100"><defs><clipPath id="a"><path data-name="사각형 299590" fill="none" d="M0 0h30v69.515H0z"/></clipPath></defs><g data-name="그룹 390836" clip-path="url(#a)" transform="translate(35 15)"><path data-name="패스 789272" d="M9.519 60.932A205.2 205.2 0 017.963 36.18c1.757.179 3.563.336 5.128.414.038 10.281.416 18.618.77 24.338h2.278c.356-5.719.733-14.057.774-24.338 1.563-.079 3.366-.235 5.126-.414a205.54 205.54 0 01-1.556 24.752zm0-52.349h4.343c-.354 5.717-.732 14.06-.77 24.34-1.566.076-3.371.234-5.128.414A205.28 205.28 0 019.519 8.584m10.964 0a205.62 205.62 0 011.556 24.754c-1.76-.18-3.563-.338-5.126-.414-.041-10.279-.417-18.622-.774-24.34zm3.986 25.017a194.935 194.935 0 00-1.918-27.7s-2.879-.341-6.618-.4c-.26-3.555-.467-5.5-.467-5.5h-.929s-.209 1.946-.468 5.506c-3.741.054-6.618.4-6.618.4A194.886 194.886 0 005.53 33.601c-3.077.354-5.53.706-5.53.706v.9s2.453.35 5.53.708a194.815 194.815 0 001.921 27.7s2.877.346 6.618.4c.259 3.556.468 5.5.468 5.5h.929s.207-1.945.466-5.5c3.739-.054 6.618-.4 6.618-.4a194.864 194.864 0 001.919-27.7c3.08-.358 5.53-.708 5.53-.708v-.9s-2.451-.351-5.53-.706" fill="#231815" fill-rule="evenodd"/></g></svg>