<svg xmlns="http://www.w3.org/2000/svg" xmlns:xlink="http://www.w3.org/1999/xlink" width="100" height="100" viewBox="0 0 100 100">
  <defs>
    <clipPath id="clip-path">
      <rect id="사각형_299589" data-name="사각형 299589" width="30" height="55" fill="none"/>
    </clipPath>
  </defs>
  <g id="car_logo_rollsroyce" transform="translate(-219 -155)">
    <g id="W_100_H_100" data-name="W 100 H 100" transform="translate(219 155)" fill="#f9f9f9" stroke="#f0f0f0" stroke-width="1" opacity="0">
      <rect width="100" height="100" stroke="none"/>
      <rect x="0.5" y="0.5" width="99" height="99" fill="none"/>
    </g>
    <g id="rollsroyce" transform="translate(254 178)">
      <g id="그룹_390835" data-name="그룹 390835" clip-path="url(#clip-path)">
        <path id="패스_789257" data-name="패스 789257" d="M29.555.445A1.51,1.51,0,0,0,28.482,0H1.52A1.521,1.521,0,0,0,0,1.519V53.481A1.52,1.52,0,0,0,1.52,55H28.482A1.52,1.52,0,0,0,30,53.481V1.519A1.509,1.509,0,0,0,29.555.445m-.516,53.147a.559.559,0,0,1-.558.558H1.52a.558.558,0,0,1-.557-.558V45.1H29.039Zm0-9.567H.962V10.5l28.077-.025Zm0-34.628H.962V1.408A.558.558,0,0,1,1.52.85H28.482a.558.558,0,0,1,.558.558Z" transform="translate(-0.001)" fill="#221e1f" fill-rule="evenodd"/>
        <path id="패스_789258" data-name="패스 789258" d="M41.983,11.886a1.474,1.474,0,0,0,.1-.493V5.7a1.478,1.478,0,0,0-.1-.493h.865a1.48,1.48,0,0,0-.1.493v5.156c0,.192.2.421.649.421a3.944,3.944,0,0,0,1.491-.18l-.493.793Z" transform="translate(-26.589 -3.295)" fill="#221e1f" fill-rule="evenodd"/>
        <path id="패스_789259" data-name="패스 789259" d="M54.5,11.886a1.475,1.475,0,0,0,.1-.493V5.7a1.479,1.479,0,0,0-.1-.493h.865a1.479,1.479,0,0,0-.1.493v5.156c0,.192.2.421.649.421a3.942,3.942,0,0,0,1.491-.18l-.493.793Z" transform="translate(-34.518 -3.295)" fill="#221e1f" fill-rule="evenodd"/>
        <path id="패스_789260" data-name="패스 789260" d="M68.853,6.809l.3-.757a2.579,2.579,0,0,1-.529-.168,2.646,2.646,0,0,0-.973-.253A1.41,1.41,0,0,0,66.2,6.953a1.749,1.749,0,0,0,.793,1.539,8.259,8.259,0,0,1,1.526,1.394c.373.517.565,1.6-.769,1.755a2.521,2.521,0,0,1-1.238-.409l.108.938a1.425,1.425,0,0,1,.553.024,4.5,4.5,0,0,0,.745.072c.264-.012,1.623-.24,1.623-1.551a2.453,2.453,0,0,0-1.13-1.983c-.228-.168-.979-.825-1.262-1.045-.217-.168-.565-1.359.5-1.382a2.249,2.249,0,0,1,1.2.5" transform="translate(-41.923 -3.566)" fill="#221e1f" fill-rule="evenodd"/>
        <path id="패스_789261" data-name="패스 789261" d="M39.964,132.629a1.483,1.483,0,0,0,.1.493h-.866a1.483,1.483,0,0,0,.1-.493v-3.065l-1.779-3.125h.781l1.358,2.392,1.359-2.392h.781l-1.827,3.2Z" transform="translate(-23.758 -80.078)" fill="#221e1f" fill-rule="evenodd"/>
        <path id="패스_789262" data-name="패스 789262" d="M69.737,128.879H68.559c-.2,0-.373-.084-.373-.349v-1.058c0-.192.2-.42.649-.42a2.466,2.466,0,0,1,1.178.18l-.18-.793H67.417a1.477,1.477,0,0,1,.1.492v5.7a1.48,1.48,0,0,1-.1.493h2.416l.492-.793a3.94,3.94,0,0,1-1.491.18c-.444,0-.649-.228-.649-.421V129.9c0-.265.168-.348.373-.348h1.178Z" transform="translate(-42.697 -80.078)" fill="#221e1f" fill-rule="evenodd"/>
        <path id="패스_789263" data-name="패스 789263" d="M54.482,127.436a2.878,2.878,0,0,0-1.81-.586,2.77,2.77,0,0,0-2.686,2.782,2.813,2.813,0,0,0,2.686,2.83,2.526,2.526,0,0,0,1.9-.571l.026.821a3.2,3.2,0,0,1-1.925.4,3.458,3.458,0,0,1-3.331-3.476,3.415,3.415,0,0,1,3.331-3.428,3.009,3.009,0,0,1,1.72.426Z" transform="translate(-31.249 -79.929)" fill="#221e1f" fill-rule="evenodd"/>
        <path id="패스_789264" data-name="패스 789264" d="M23.361,5.23a3.332,3.332,0,1,0,3.332,3.332A3.332,3.332,0,0,0,23.361,5.23m0,6.017a2.685,2.685,0,1,1,2.685-2.685,2.685,2.685,0,0,1-2.685,2.685" transform="translate(-12.685 -3.312)" fill="#221e1f" fill-rule="evenodd"/>
        <path id="패스_789265" data-name="패스 789265" d="M22.175,126.466a3.332,3.332,0,1,0,3.332,3.332,3.331,3.331,0,0,0-3.332-3.332m0,6.017A2.686,2.686,0,1,1,24.86,129.8a2.686,2.686,0,0,1-2.685,2.686" transform="translate(-11.934 -80.095)" fill="#221e1f" fill-rule="evenodd"/>
        <path id="패스_789266" data-name="패스 789266" d="M9.5,8.376c-.072-.084-.061-.216.048-.216h.313a1.479,1.479,0,1,0,0-2.958H7.734a1.466,1.466,0,0,1,.1.493v5.7a1.466,1.466,0,0,1-.1.492H8.6a1.475,1.475,0,0,1-.1-.492V8.58c0-.217.132-.2.228-.084L11.6,11.885h.877Zm-1-.9V5.864H9.859a.807.807,0,0,1,0,1.615Z" transform="translate(-4.898 -3.295)" fill="#221e1f" fill-rule="evenodd"/>
        <path id="패스_789267" data-name="패스 789267" d="M8.314,129.349c-.073-.084-.061-.217.048-.217h.312a1.479,1.479,0,0,0,0-2.958H6.547a1.467,1.467,0,0,1,.1.493v5.7a1.466,1.466,0,0,1-.1.492h.866a1.468,1.468,0,0,1-.1-.492v-2.813c0-.216.132-.2.228-.084l2.872,3.389h.877Zm-1-.9v-1.612H8.672a.807.807,0,1,1,0,1.614Z" transform="translate(-4.146 -79.911)" fill="#221e1f" fill-rule="evenodd"/>
        <path id="패스_789268" data-name="패스 789268" d="M22.809,60.751h5.336c-.817-.433-1.106-1.587-1.154-2.692a22.2,22.2,0,0,0-3.99-9.9,8.786,8.786,0,0,0,4.567-7.5c0-4.471-3.942-6.586-7.356-6.586h-8.99a2.289,2.289,0,0,1,.577,1.779V58.635a3.213,3.213,0,0,1-.817,2.115h4.087a3.211,3.211,0,0,1-.817-2.115V50.27a19.558,19.558,0,0,0,6.9-1.233c2.811,3.013,3.147,7.388,3.2,8.59a4.029,4.029,0,0,1-1.538,3.125M14.251,48.2V35.655H19.54c3.654,0,4.856,2.308,4.807,4.76-.24,6.779-6.971,7.788-10.1,7.788" transform="translate(-6.955 -21.576)" fill="#221e1f" fill-rule="evenodd"/>
        <path id="패스_789269" data-name="패스 789269" d="M27.357,80.98a24.167,24.167,0,0,0,3.559-.305,12.335,12.335,0,0,0-.939-1.983,15.914,15.914,0,0,1-2.619.22v-.528a21.67,21.67,0,0,1-2.452.408V89.345a3.212,3.212,0,0,1-.817,2.116h4.087a3.214,3.214,0,0,1-.817-2.116Z" transform="translate(-15.256 -49.643)" fill="#221e1f" fill-rule="evenodd"/>
        <path id="패스_789270" data-name="패스 789270" d="M32.106,42.662H27.779v8.606a12.121,12.121,0,0,1-2.452.625V42.854a2.288,2.288,0,0,0-.578-1.779h5.986a3.864,3.864,0,0,1,1.37,1.587" transform="translate(-15.675 -26.014)" fill="#221e1f" fill-rule="evenodd"/>
        <path id="패스_789271" data-name="패스 789271" d="M51.909,44.716a4.894,4.894,0,0,1,.988,3.267,7.154,7.154,0,0,1-4.5,6.695c.342.517.771,1.495,1.037,2.027.066-.025.275-.1.34-.124,2.811,3.013,3.075,7.412,3.123,8.614a4.029,4.029,0,0,1-1.538,3.125H56.7c-.817-.433-1.106-1.587-1.154-2.692a22.2,22.2,0,0,0-3.99-9.9,8.785,8.785,0,0,0,4.567-7.5c0-3.528-2.526-5.613-5.239-6.326a9.379,9.379,0,0,1,1.03,2.819" transform="translate(-30.651 -26.535)" fill="#221e1f" fill-rule="evenodd"/>
      </g>
    </g>
  </g>
</svg>
