<svg xmlns="http://www.w3.org/2000/svg" width="100" height="100"><g fill-rule="evenodd"><path data-name="패스 791897" d="M43.279 39.107a27.67 27.67 0 015.186-15.106h22.639v1.089a89.428 89.428 0 00-27.825 14.017z" fill="#ff361d"/><path data-name="패스 791898" d="M66.757 67.677A27.835 27.835 0 0143.478 43.74c1-.947 2.093-1.9 3.283-2.823 7.279-5.661 13.916-9.434 24.343-13.3v40.064z" fill="#ff361d"/><path data-name="패스 791899" d="M59.069 67.677A30.021 30.021 0 0141.59 45.65c-4.08 4.449-6.05 8.856-5.936 12.173.214 6.263 6.259 9.854 14.864 9.854z" fill="#ff361d"/><path data-name="패스 791900" d="M41.097 40.823v-.62a29.833 29.833 0 014.756-16.2h-19.6v38.8h1.079a14.982 14.982 0 01.211-3.044c1.235-6.369 6.369-13.031 13.555-18.933z" fill="#ff361d"/><path data-name="패스 791901" d="M33.13 72.073v-1.539h-4.558a2.35 2.35 0 00-2.571 2.582 2.419 2.419 0 002.72 2.5h2.014a1.045 1.045 0 011.109 1.052 1.1 1.1 0 01-1.207 1.164h-4.4v1.6h4.58a2.611 2.611 0 002.825-2.8 2.5 2.5 0 00-2.673-2.616h-2.188a.878.878 0 01-.954-.972.913.913 0 011-.974z" fill="#231815"/><path data-name="패스 791902" d="M39.16 70.534h-2.051l-3.433 8.9h1.849l2.546-6.856 2.454 6.856h1.942l-3.307-8.9z" fill="#231815"/><path data-name="패스 791903" d="M48.566 70.534h-7.355v1.537h2.784v7.361h1.793v-7.366h2.779v-1.537z" fill="#231815"/><path data-name="패스 791904" d="M49.043 75.453c0 1.381-.027 2.281.938 3.246a4.029 4.029 0 005.252 0c.961-.964.947-1.864.947-3.246v-3.418h2.452c.888 0 1.37.435 1.37 1.259 0 .9-.639 1.3-1.46 1.3h-1.151l2.707 4.838h2.066l-2.267-3.67a2.62 2.62 0 001.9-2.591 2.5 2.5 0 00-2.589-2.636h-4.852v5.87a1.638 1.638 0 01-1.738 1.623 1.649 1.649 0 01-1.741-1.623v-5.87h-1.833v4.919z" fill="#231815"/><path data-name="패스 791905" d="M62.984 79.431v-8.9h2.786l3.531 6.829v-6.829h1.8v8.9h-2.565L64.8 72.277v7.154z" fill="#231815"/><path data-name="패스 791906" d="M72.806 77.983a1.6 1.6 0 111.6 1.6 1.6 1.6 0 01-1.6-1.6zm2.914 0a1.317 1.317 0 10-1.313 1.323 1.315 1.315 0 001.313-1.323zm-1.653.108v.812h-.293v-1.879h.608c.344 0 .7.093.7.519a.433.433 0 01-.381.438v.007c.259.052.288.165.317.369a2.738 2.738 0 00.111.546h-.374c-.022-.109-.052-.226-.064-.337a.689.689 0 00-.105-.4c-.072-.076-.17-.068-.273-.076zm.31-.295c.278-.008.342-.123.342-.268s-.064-.211-.3-.211h-.355v.48z" fill="#231815"/></g></svg>