<svg xmlns="http://www.w3.org/2000/svg" width="60" height="60"><defs><clipPath id="a"><path data-name="사각형 299366" fill="none" d="M0 0h60v60H0z"/></clipPath></defs><path data-name="60" fill="#fff" d="M0 0h60v60H0z"/><g data-name="renault"><g data-name="그룹 390311" clip-path="url(#a)"><path data-name="패스 787719" d="M8.362 29.833L23.437 2.639h12.976l15.046 27.194-15.216 27.349H23.594zm14.735.008l6.887 12.381 6.895-12.378h2.715l11.439-.008L36.125 3.009h-12.4L8.794 29.833l11.794.008 8.52 14.905-4.256 9.628h.68L39.594 29.84l-8.657-14.978c1.4-3.185 2.875-6.363 4.227-9.577h-.658l-13.9 24.556zm6.887 11.623l6.481-11.624-6.471-11.601-6.488 11.6z" fill="#231815" fill-rule="evenodd"/></g></g></svg>