<svg xmlns="http://www.w3.org/2000/svg" width="100" height="100"><defs><clipPath id="a"><path data-name="사각형 304682" fill="none" d="M0 0h66v26.501H0z"/></clipPath></defs><g data-name="그룹 393764" transform="translate(17 37)" clip-path="url(#a)"><path data-name="패스 799785" d="M11.424 0h5.4v14.146c0 2.441-1.046 7.54-8.531 7.54S0 16.936 0 14.269v-2.611h5.222v2.553a2.89 2.89 0 003.016 3.015c1.97 0 3.186-1.1 3.186-2.957zm13.749 5.917c4.232 0 7.945 1.624 7.945 9.1H23.081c0 2.376.989 3.356 2.725 3.356a2.5 2.5 0 002.326-1.386h4.929c0 2.147-2.96 5.043-7.426 4.987-5.107 0-7.6-3.771-7.6-7.655s2.2-8.407 7.132-8.407m3.016 6.09a2.6 2.6 0 00-2.675-2.846c-1.791 0-2.432 1.272-2.432 2.846zm13.1-6.09c4.241 0 7.944 1.624 7.944 9.1h-10.02c0 2.376.979 3.356 2.722 3.356a2.484 2.484 0 002.32-1.386h4.93c0 2.147-2.96 5.043-7.421 4.987-5.107 0-7.6-3.771-7.6-7.655s2.207-8.407 7.136-8.407m3.015 6.09a2.6 2.6 0 00-2.666-2.846c-1.8 0-2.433 1.272-2.433 2.846zm5.861 14.495V6.494h4.985v.81c0 1.215.641.527.7.348a4.551 4.551 0 013.771-1.564c2.5 0 6.38 1.744 6.38 7.888 0 4.751-2.318 8.238-6.324 8.238a5.3 5.3 0 01-3.769-1.217c-.293-.349-.7-.412-.7 0v5.5zm4.93-12.346c-.056 2.959.574 4.524 3.015 4.524s2.781-2.666 2.781-4.695-.463-4.005-3.016-4.005c-1.564 0-2.725 1.224-2.78 4.176" fill="#393e16" fill-rule="evenodd"/></g></svg>