<svg xmlns="http://www.w3.org/2000/svg" xmlns:xlink="http://www.w3.org/1999/xlink" width="100" height="100" viewBox="0 0 100 100">
  <defs>
    <clipPath id="clip-path">
      <rect id="사각형_301578" data-name="사각형 301578" width="56" height="56" fill="none"/>
    </clipPath>
  </defs>
  <g id="car_logo_dfsk" transform="translate(-225 -160)">
    <g id="W_100_H_100" data-name="W 100 H 100" transform="translate(225 160)" fill="#f9f9f9" stroke="#f0f0f0" stroke-width="1" opacity="0">
      <rect width="100" height="100" stroke="none"/>
      <rect x="0.5" y="0.5" width="99" height="99" fill="none"/>
    </g>
    <g id="dfsk" transform="translate(234.5 169.5)">
      <g id="그룹_393533" data-name="그룹 393533" transform="translate(12.5 12.5)" clip-path="url(#clip-path)">
        <path id="패스_792996" data-name="패스 792996" d="M38.551,23.085s-.026.021-.071.064A27.086,27.086,0,0,1,45.47,36.284c2.13,11.967-5.843,19.736-6.671,20.5l.053.052c24.513-2.444,22.4-23.63,21.9-27.013-.047-.1-.093-.206-.141-.308-3.773,8.343-7.02,10.4-7.02,10.4C51.711,19.078,35.05,17.382,29.677,17.382c-.161,0-.311,0-.451,0q-.262.108-.524.224A21.011,21.011,0,0,1,38.428,23.1l.123-.012" transform="translate(-10.556 -11.914)" fill="#e92128"/>
        <path id="패스_792997" data-name="패스 792997" d="M40.132,56.177a27.09,27.09,0,0,1-6.988-13.135c-2.131-11.966,5.841-19.734,6.67-20.5l.071-.064-.123.012C13.971,25.058,17.655,48.375,17.92,49.878l.025.052c3.8-8.447,7.076-10.518,7.076-10.518C26.9,60.249,43.564,61.944,48.937,61.944h0c.24-.1.479-.195.716-.3a20.992,20.992,0,0,1-9.468-5.416l-.053-.052" transform="translate(-11.889 -11.303)" fill="#e92128"/>
        <path id="패스_792998" data-name="패스 792998" d="M40.5,12.5a28,28,0,1,0,28,28,28,28,0,0,0-28-28M57.732,57.732a24.351,24.351,0,0,1-7.468,5.109c-.236.1-.476.2-.716.3A24.428,24.428,0,0,1,18.556,51.127l-.025-.052A24.426,24.426,0,0,1,30.645,18.2q.262-.116.524-.224A24.434,24.434,0,0,1,62.556,30.1c.048.1.094.2.141.308a24.416,24.416,0,0,1-4.965,27.32" transform="translate(-12.5 -12.5)" fill="#e92128"/>
      </g>
    </g>
  </g>
</svg>
