<svg xmlns="http://www.w3.org/2000/svg" width="100" height="100" viewBox="0 0 100 100">
  <g id="car_logo_alfaromeo" transform="translate(-219 -161)">
    <g id="W_100_H_100" data-name="W 100 H 100" transform="translate(219 161)" fill="#f9f9f9" stroke="#f0f0f0" stroke-width="1" opacity="0">
      <rect width="100" height="100" stroke="none"/>
      <rect x="0.5" y="0.5" width="99" height="99" fill="none"/>
    </g>
    <g id="alfaromeo" transform="translate(-186.089 -3420.595)">
      <path id="패스_791859" data-name="패스 791859" d="M455.09,3659.6a28,28,0,1,0-28-28A28,28,0,0,0,455.09,3659.6Z" transform="translate(0 0)"/>
      <path id="패스_791860" data-name="패스 791860" d="M456.031,3659.977a27.44,27.44,0,1,0-27.44-27.439A27.439,27.439,0,0,0,456.031,3659.977Z" transform="translate(-0.941 -0.941)" fill="#fff"/>
      <path id="패스_791861" data-name="패스 791861" d="M457.74,3664.909a20.171,20.171,0,1,0-20.172-20.171,20.171,20.171,0,0,0,20.172,20.171Zm-21.85-19.383.958.413-.019,1.6-5.51-2.3.02-1.65,5.563-2.123-.019,1.612-.967.365Zm1.48-9.326.7-1.674,1.126.469-1.277,3.068-5.113-2.126.581-1.4,3.987,1.659Z" transform="translate(-2.65 -13.142)"/>
      <path id="패스_791862" data-name="패스 791862" d="M448.9,3617.442l.683.624,1.119-1.224.9.822-1.119,1.225,1.6,1.466-1.02,1.115-4.087-3.735,2.252-2.465.9.822-1.232,1.349Zm7.638-1.958.092,1.038-1.421.744-.589-5.942,1.462-.767,4.51,3.889-1.428.749-.781-.678Zm12.1-2.161-1.876.149-1.59-2.01h-.015l.168,2.122-1.506.119-.438-5.518,2.252-.178c1.146-.091,2.056.36,2.149,1.539a1.5,1.5,0,0,1-1.145,1.66l2,2.117Zm9.331-.594a3.239,3.239,0,1,1-2.187-3.7,3.022,3.022,0,0,1,2.187,3.7Zm5.839.581,1.083,1.019-1.17,2.965,2.939-1.3,1.094,1.031-2.94,4.929-1.082-1.054,1.642-2.889-.011-.01-3.2,1.362-.438-.412,1.215-3.235-.011-.01-2.738,1.836-1.108-1.018,4.727-3.215Zm7.076,11.334-.855.354.654,1.574-1.126.467-.653-1.574-.882.365.689,1.66-1.126.466-1.267-3.055,5.113-2.122,1.268,3.055-1.126.466Zm.613,12.142a3.24,3.24,0,1,1,2.737-3.312A3.022,3.022,0,0,1,491.5,3636.786Z" transform="translate(-12.465 -2.758)"/>
      <path id="패스_791863" data-name="패스 791863" d="M435.928,3635.976v.016l1.754.646.016-1.258Zm13.29-21.593-.013.007.264,1.851,1.114-.584-1.364-1.273Zm8.937-1.917.146-.012c.491-.038,1.038-.17.991-.771s-.609-.643-1.1-.6l-.146.01.109,1.377Zm8.258.707a1.623,1.623,0,0,0,1.012,2.06l.046.015a1.625,1.625,0,0,0,2.057-1.023l.015-.045a1.654,1.654,0,0,0-3.129-1.007Zm17.982,20.684a1.624,1.624,0,0,0-1.6,1.652c0,.015,0,.031,0,.046a1.622,1.622,0,0,0,1.658,1.586l.05,0a1.653,1.653,0,0,0-.113-3.282Zm-23.53,22.071v-39.3a19.651,19.651,0,0,1-.036,39.3Zm-19.731-17.169a19.62,19.62,0,0,0,7.39,13l0-13h-7.386Zm7.377-17.949.009,12-7.239,0a19.582,19.582,0,0,1,7.23-11.993Zm11.882,11.994h-5.918l0-15.194a19.58,19.58,0,0,1,5.913-.981V3632.8Zm0,23.124a19.562,19.562,0,0,1-5.921-.985l0-16.183h5.918v17.168Z" transform="translate(-5.539 -4.683)" fill="#fff"/>
      <path id="패스_791864" data-name="패스 791864" d="M511.6,3642.365h7.145v-.744H511.6Zm0-1.364h7.145v-.57H511.6Zm.571-.891,1.489,0,1.488,0,1.489,0a.6.6,0,1,0-.6-.6h0A.6.6,0,0,0,516.641,3640.11Zm1.489,0-4.094,29.087a1.432,1.432,0,0,1-1.475-1.425,1.517,1.517,0,0,1,1.475-1.522h2.877a.561.561,0,0,0,.562-.563.57.57,0,0,0-.562-.572H512.3a2.7,2.7,0,0,1-2.7-2.7,2.65,2.65,0,0,1,2.7-2.64l5.656,0c.349,0,.632-.184.632-.53a.643.643,0,0,0-.632-.646h-5.705a4.071,4.071,0,1,1-.181-8.14c.06,0,.121,0,.181,0l5.483,0a.793.793,0,0,0,.771-.8.751.751,0,0,0-.771-.747l-6.179,0a1.713,1.713,0,0,1,1.885-1.489h2.878a.6.6,0,0,0,.6-.6v0a.556.556,0,0,0-.6-.546h-2.878a1.929,1.929,0,0,1-1.885-1.686h2.978c.247-.794.744-1.191,1.29-1.191H519a1.637,1.637,0,0,0,1.637-.993,7.189,7.189,0,0,1,3.422,6.054,5.478,5.478,0,0,1-5.161,5.423h-6.649a.631.631,0,1,0,0,1.263l6.252-.006a3.633,3.633,0,0,1,3.579,3.642,3.537,3.537,0,0,1-3.579,3.529l-5.955-.007a.6.6,0,1,0,0,1.193l4.516,0a1.924,1.924,0,1,1,0,3.848l-2.73.008a.456.456,0,0,0,0,.912h2.1c.732,0,1.551,1.082-.024,1.678.013-.31-.037-.757-.695-.757s-1.672,0-1.672,0Z" transform="translate(-50.758 -22.134)"/>
      <path id="패스_791865" data-name="패스 791865" d="M509.908,3653.425a3.033,3.033,0,0,0-1.391,2.753l-1.636,1.128a.579.579,0,1,1-.852-.784l.033-.034,1.054-.733c.52-.348.422-.917.348-1.389s-.57-.249-.72-.074a1.221,1.221,0,0,1-.868.36,1.208,1.208,0,0,1-1.229-1.2,1.229,1.229,0,0,1,2.1-.869c.149.174.647.4.72-.074s.173-1.043-.348-1.39l-1.054-.732a.579.579,0,1,1,.819-.819h0l1.636,1.129a3,3,0,0,0,1.391,2.731Z" transform="translate(-48.602 -28.701)"/>
    </g>
  </g>
</svg>
