<svg xmlns="http://www.w3.org/2000/svg" xmlns:xlink="http://www.w3.org/1999/xlink" width="100" height="100"><defs><linearGradient id="b" x1=".5" y1="1" x2=".5" gradientUnits="objectBoundingBox"><stop offset="0" stop-color="#7d868f"/><stop offset="1" stop-color="#e9eaeb"/></linearGradient><linearGradient id="a" x1=".5" y1="1" x2=".5" gradientUnits="objectBoundingBox"><stop offset=".45" stop-color="#7d868f"/><stop offset=".55" stop-color="#e9eaeb"/></linearGradient><linearGradient id="e" x1=".5" y1="0" x2=".5" y2="1" xlink:href="#a"/><linearGradient id="f" x1=".5" y1="0" x2=".5" y2="1" xlink:href="#b"/><linearGradient id="c" x1=".387" y1=".355" x2=".617" y2=".651" gradientUnits="objectBoundingBox"><stop offset=".006" stop-color="#bfc3c7"/><stop offset="1" stop-color="#f2f2f2"/></linearGradient><linearGradient id="d" x1="-.215" y1=".25" x2="1.188" y2=".935" gradientUnits="objectBoundingBox"><stop offset=".006" stop-color="#757e87"/><stop offset=".5" stop-color="#bbc0c4"/><stop offset="1" stop-color="#9aa3aa"/></linearGradient><linearGradient id="g" x1="77.981" y1="-126.117" x2="78.212" y2="-125.821" xlink:href="#c"/><linearGradient id="h" x1="116.05" y1="-126.222" x2="117.453" y2="-125.537" xlink:href="#d"/></defs><path data-name="패스 791907" d="M147.054 3092.671c-16.543 0-30 9.282-30 20.691s13.458 20.687 30 20.687c8 0 15.528-2.146 21.19-6.041 5.68-3.908 8.809-9.109 8.809-14.646-.001-11.409-13.458-20.691-29.999-20.691zm0 38.22c-13.4 0-24.265-7.849-24.265-17.53s10.862-17.532 24.265-17.532 24.262 7.848 24.262 17.532-10.862 17.53-24.263 17.53z" fill="url(#b)" transform="translate(-97.052 -3063.671)"/><path data-name="패스 791908" d="M147.287 3093.07c-16.48 0-29.837 9.189-29.837 20.526s13.357 20.522 29.837 20.522 29.833-9.189 29.833-20.522-13.359-20.526-29.833-20.526zm0 38.051c-13.4 0-24.26-7.847-24.26-17.525s10.86-17.528 24.26-17.528 24.258 7.846 24.258 17.528-10.86 17.525-24.258 17.525z" transform="translate(-97.285 -3063.905)" fill="url(#a)"/><path data-name="패스 791909" d="M153.192 3097.6c-14.182 0-25.677 8.351-25.677 18.654s11.494 18.651 25.677 18.651 25.674-8.351 25.674-18.651-11.497-18.654-25.674-18.654zm0 36.122c-13.33 0-24.134-7.821-24.134-17.468s10.8-17.471 24.134-17.471 24.131 7.821 24.131 17.471-10.803 17.466-24.131 17.466z" transform="translate(-103.19 -3066.562)" fill="url(#e)"/><path data-name="패스 791910" d="M152.724 3096.8c-14.34 0-26.006 8.516-26.006 18.984s11.666 18.981 26.006 18.981 26-8.515 26-18.981-11.662-18.984-26-18.984zm0 37.646c-14.189 0-25.689-8.356-25.689-18.663s11.5-18.665 25.689-18.665 25.686 8.356 25.686 18.665-11.5 18.664-25.686 18.664z" transform="translate(-102.723 -3066.093)" fill="url(#f)"/><path data-name="패스 791911" d="M178.465 3136.121h-50.55a14.813 14.813 0 000 6.838h50.551a14.82 14.82 0 000-6.838z" transform="translate(-103.19 -3089.851)" fill="url(#b)"/><path data-name="패스 791912" d="M73.575 45.976H26.424a7.942 7.942 0 00-1.684.412h50.519a7.938 7.938 0 00-1.684-.412z" fill="#666f77"/><path data-name="패스 791913" d="M26.313 52.99H24.74a7.947 7.947 0 001.684.412h47.151a7.964 7.964 0 001.683-.412H26.313z" fill="#4a5258"/><path data-name="패스 791914" d="M75.263 52.977v.013z" fill="#4a5258"/><path data-name="패스 791915" d="M24.74 52.99v-.008z" fill="#4a5258"/><path data-name="패스 791916" d="M182.386 3098.5s-6.883 7.032-8.108 15.552h6c-2.066-6.734 2.108-15.552 2.108-15.552z" transform="translate(-131.502 -3067.088)" fill="url(#c)"/><path data-name="패스 791917" d="M187.985 3114.047h4.906c-5.548-3.021-2.8-15.552-2.8-15.552s-4.175 8.823-2.106 15.552z" transform="translate(-139.357 -3067.088)" fill="url(#d)"/><path data-name="패스 791918" d="M190.209 3168.218s6.883-7.032 8.108-15.552h-6c2.066 6.734-2.108 15.552-2.108 15.552z" transform="translate(-141.093 -3100.247)" fill="url(#g)"/><path data-name="패스 791919" d="M188.337 3152.666h-4.906c5.548 3.021 2.8 15.552 2.8 15.552s4.175-8.818 2.106-15.552z" transform="translate(-136.965 -3100.247)" fill="url(#h)"/><path data-name="패스 791920" d="M73.873 51.253a.884.884 0 01-.908.882h-.549v-3.6a.419.419 0 00-.423-.414h-7.037v4.014h-1.492v-4.9h9.163a1.251 1.251 0 011.247 1.272v2.742zm-47.749 0h8.5a.384.384 0 00.423-.383v-.733h-8.91v-1.625a1.273 1.273 0 011.286-1.272h9.117v.882h-8.549c-.271 0-.362.168-.362.391l-.01.744h8.923v1.615a1.259 1.259 0 01-1.282 1.265h-8.226a.886.886 0 01-.907-.885zm13.07-.407a.42.42 0 00.43.41h8.471v.882h-9.107a1.278 1.278 0 01-1.285-1.271v-2.352a1.28 1.28 0 011.285-1.272h9.107v.882h-8.471a.423.423 0 00-.43.414v2.308zm11.559-3.6v4.9h-1.497v-4.9zm11.552 1.272v2.352a1.277 1.277 0 01-1.282 1.271h-7.822a1.278 1.278 0 01-1.286-1.271v-2.352a1.28 1.28 0 011.286-1.272h7.822a1.279 1.279 0 011.282 1.272zm-1.922-.391h-6.546a.423.423 0 00-.433.411v2.308a.424.424 0 00.433.414h6.546a.418.418 0 00.43-.41v-2.312a.425.425 0 00-.433-.411z"/></svg>