<svg xmlns="http://www.w3.org/2000/svg" width="100" height="100"><path data-name="패스 789273" d="M10 47.75v7.812c0 2.945 1.831 4.71 5.019 4.71h15.732c3.3 0 5.387-1.61 5.387-4.557v-6.171H23.26v3.841h8.464v1.568c0 1.018-.584 1.3-1.352 1.3H15.915c-1.053 0-1.387-.524-1.387-1.343v-6.7c0-.89.518-1.185 1.085-1.185h20.524v-4.024h-21.16c-3.254 0-4.977 1.914-4.977 4.749z"/><path data-name="패스 789274" d="M53.182 60.272l7.231-13.1v13.1h4.544V43.001h-6.982l-6.886 12.406-6.9-12.406h-6.963v17.273h4.531v-13.1l7.236 13.1z"/><path data-name="패스 789275" d="M90 60.273v-4.345H71.938c-1.051 0-1.387-.522-1.387-1.335V48.53a1.036 1.036 0 011.089-1.192h18.357v-4.337h-19c-3.253 0-4.97 1.915-4.97 4.75v7.812c0 2.945 1.823 4.71 5.011 4.71z"/></svg>