<svg xmlns="http://www.w3.org/2000/svg" width="100" height="100" viewBox="0 0 100 100">
  <g id="car_logo_daechang_motors" data-name="car_logo_daechang motors" transform="translate(-219 -155)">
    <g id="W_100_H_100" data-name="W 100 H 100" transform="translate(219 155)" fill="#f9f9f9" stroke="#f0f0f0" stroke-width="1" opacity="0">
      <rect width="100" height="100" stroke="none"/>
      <rect x="0.5" y="0.5" width="99" height="99" fill="none"/>
    </g>
    <g id="daechang_motors" data-name="daechang motors" transform="translate(-592.781 -715.714)">
      <path id="패스_812058" data-name="패스 812058" d="M826.848,1011.75H896.83v8.356H826.848Zm19.869,4.76.151.017c0,.43-.008.861,0,1.291.012.51.019.505.266.518.4.02.619-.076.6-.561-.039-1,0-2.005-.028-3.007-.006-.246.2-.644-.292-.693-.429-.043-.765-.008-.906.547-.2.8-.522,1.56-.845,2.492-.349-1.021-.657-1.853-.914-2.7-.14-.464-.487-.308-.775-.34-.233-.026-.313.1-.313.33.005,1.185.007,2.37,0,3.555,0,.326.178.354.436.362.291.009.406-.091.394-.391-.018-.471,0-.944,0-1.416a4.588,4.588,0,0,1,.6,1.411c.086.341.272.408.587.4s.5-.06.589-.408C846.38,1017.439,846.563,1016.978,846.717,1016.51Zm29.433,1.743c-.315-.447-.57-.846-.864-1.212-.21-.261-.247-.406.068-.639a1.17,1.17,0,0,0,.459-1.385,1.309,1.309,0,0,0-1.23-.917c-.518-.045-1.044,0-1.565-.022-.311-.01-.38.143-.378.417q.012,1.706,0,3.413c0,.286.1.388.4.412.53.044.416-.31.455-.616.043-.332-.235-.821.2-.965.474-.157.556.424.814.677a.929.929,0,0,1,.2.275C874.972,1018.3,875.447,1018.417,876.15,1018.253Zm-20.906-2a2.054,2.054,0,0,0-1.906-2.3,1.959,1.959,0,0,0-2.028,2.084,1.989,1.989,0,1,0,3.934.214Zm11.869-2.3a1.973,1.973,0,0,0-2.006,2.174,2,2,0,0,0,1.907,2.273,2.239,2.239,0,0,0,.1-4.447Zm13.965,4.5a1.543,1.543,0,0,0,1.658-1.216c.091-.682-.359-1.189-1.272-1.428a2.925,2.925,0,0,1-.463-.114c-.255-.115-.61-.143-.6-.544a.369.369,0,0,1,.306-.4c.342-.064.688-.11.938.215a3.211,3.211,0,0,1,.149.306c.174.288.471.179.671.117.284-.088.114-.339.041-.514a2.165,2.165,0,0,0-.268-.474,1.716,1.716,0,0,0-1.885-.39,1.205,1.205,0,0,0-.871,1.248c.041.72.576.98,1.173,1.151.24.069.492.1.724.19.261.1.52.248.451.591a.6.6,0,0,1-.6.458.855.855,0,0,1-1-.538c-.164-.464-.553-.357-.773-.26-.282.125-.084.435.025.646A1.634,1.634,0,0,0,881.078,1018.457Zm-21.336-1.961h-.008c0,.456.015.913,0,1.369-.015.358.128.464.477.464.376,0,.386-.2.384-.478-.007-.821.024-1.644-.01-2.464-.017-.424.108-.587.529-.518.133.022.274-.01.409.005.336.038.362-.171.366-.423s-.072-.371-.351-.368c-.911.013-1.822.008-2.733,0-.259,0-.365.1-.363.368,0,.287.111.385.4.407.913.068.912.082.9,1.019C859.74,1016.086,859.742,1016.291,859.742,1016.5Z" transform="translate(-0.058 -88.392)" fill="#2b9a29"/>
      <path id="패스_812059" data-name="패스 812059" d="M952.895,1031.061c-.155.468-.338.928-.455,1.406-.086.348-.282.4-.59.408s-.5-.059-.589-.4a4.581,4.581,0,0,0-.6-1.411c0,.472-.014.945.005,1.416.012.3-.1.4-.4.391-.258-.008-.44-.036-.437-.362.009-1.185.007-2.37,0-3.555,0-.225.08-.356.313-.33.289.033.637-.124.777.34.257.848.566,1.679.916,2.7.324-.931.644-1.7.847-2.491.142-.555.479-.59.908-.547.5.05.286.447.293.693.026,1-.011,2.006.028,3.007.019.485-.2.581-.6.561-.247-.013-.255-.008-.266-.518-.01-.43,0-.86,0-1.291Z" transform="translate(-106.23 -102.943)" fill="#f6f7f9"/>
      <path id="패스_812060" data-name="패스 812060" d="M1165.3,1032.9c-.7.164-1.182.043-1.453-.562a.935.935,0,0,0-.2-.275c-.258-.253-.341-.835-.816-.677-.434.144-.155.633-.2.964-.04.306.075.66-.456.616-.292-.024-.4-.126-.4-.412q.012-1.707,0-3.413c0-.274.067-.427.379-.417.523.017,1.049-.023,1.569.022a1.312,1.312,0,0,1,1.234.917,1.169,1.169,0,0,1-.461,1.385c-.316.233-.279.377-.069.639C1164.725,1032.056,1164.981,1032.455,1165.3,1032.9Zm-1.93-3.367c-.418,0-.8-.132-.76.457.024.369.042.622.511.566.415-.049.964.083.975-.552C1164.1,1029.486,1163.63,1029.554,1163.367,1029.535Z" transform="translate(-289.202 -103.041)" fill="#f6f7f9"/>
      <path id="패스_812061" data-name="패스 812061" d="M1009.706,1030.118a1.993,1.993,0,1,1-3.944-.214,1.961,1.961,0,0,1,2.033-2.084A2.055,2.055,0,0,1,1009.706,1030.118Zm-.909-.025c0-.887-.376-1.423-.985-1.475-.588-.049-1.006.337-1.123,1.036-.154.927.169,1.654.815,1.808a.931.931,0,0,0,.974-.347A1.413,1.413,0,0,0,1008.8,1030.093Z" transform="translate(-154.513 -102.257)" fill="#f6f7f9"/>
      <path id="패스_812062" data-name="패스 812062" d="M1108.694,1027.847a2.238,2.238,0,0,1-.1,4.447,2,2,0,0,1-1.912-2.273A1.975,1.975,0,0,1,1108.694,1027.847Zm1.034,2.13a1.3,1.3,0,0,0-.564-1.178.92.92,0,0,0-1.284.21,1.919,1.919,0,0,0,.04,2.172.9.9,0,0,0,1.234.181A1.472,1.472,0,0,0,1109.728,1029.977Z" transform="translate(-241.64 -102.283)" fill="#f6f7f9"/>
      <path id="패스_812063" data-name="패스 812063" d="M1212.32,1031.965a1.64,1.64,0,0,1-1.605-.955c-.11-.211-.308-.52-.025-.645.22-.1.611-.205.775.259a.858.858,0,0,0,1,.538.6.6,0,0,0,.606-.458c.069-.343-.191-.492-.452-.591-.233-.088-.486-.121-.727-.189-.6-.171-1.134-.431-1.176-1.151a1.206,1.206,0,0,1,.873-1.248,1.723,1.723,0,0,1,1.89.39,2.161,2.161,0,0,1,.269.474c.074.175.244.426-.041.513-.2.062-.5.171-.673-.117a3.2,3.2,0,0,0-.149-.306c-.251-.325-.6-.278-.941-.214a.369.369,0,0,0-.307.4c-.007.4.349.429.605.544a2.962,2.962,0,0,0,.464.114c.915.24,1.367.747,1.276,1.428A1.546,1.546,0,0,1,1212.32,1031.965Z" transform="translate(-331.302 -101.899)" fill="#f6f7f9"/>
      <path id="패스_812064" data-name="패스 812064" d="M1059.21,1031.193c0-.205,0-.411,0-.616.01-.937.012-.951-.9-1.019-.293-.022-.4-.12-.4-.407,0-.265.1-.37.364-.368.913.006,1.827.01,2.74,0,.279,0,.355.119.352.368s-.03.461-.367.423c-.135-.015-.277.016-.41-.006-.422-.069-.547.093-.53.518.034.82,0,1.643.01,2.464,0,.277-.008.478-.385.478-.351,0-.494-.106-.479-.464.019-.456,0-.912,0-1.369Z" transform="translate(-199.527 -103.088)" fill="#f6f7f9"/>
      <path id="패스_812065" data-name="패스 812065" d="M1168.576,1034.545c.263.019.736-.049.726.471-.012.635-.56.5-.975.552-.469.056-.488-.2-.511-.566C1167.777,1034.413,1168.157,1034.543,1168.576,1034.545Z" transform="translate(-294.409 -107.984)" fill="#2b9a29"/>
      <path id="패스_812066" data-name="패스 812066" d="M1014.407,1035.11a1.412,1.412,0,0,1-.319,1.023.931.931,0,0,1-.974.346c-.646-.154-.97-.88-.815-1.808.116-.7.534-1.086,1.122-1.036C1014.031,1033.687,1014.405,1034.223,1014.407,1035.11Z" transform="translate(-160.124 -107.274)" fill="#2b9a29"/>
      <path id="패스_812067" data-name="패스 812067" d="M1115.271,1034.885a1.472,1.472,0,0,1-.574,1.385.9.9,0,0,1-1.234-.181,1.919,1.919,0,0,1-.04-2.172.92.92,0,0,1,1.284-.21A1.3,1.3,0,0,1,1115.271,1034.885Z" transform="translate(-247.182 -107.19)" fill="#2b9a29"/>
      <path id="패스_812068" data-name="패스 812068" d="M826.79,923.7c0-4.495.005-8.989-.009-13.484,0-.381.043-.5.477-.5q34.523.022,69.045,0c.435,0,.479.121.477.5-.014,4.495-.009,8.989-.009,13.484Z" transform="translate(0)" fill="#0d2254"/>
      <path id="패스_812069" data-name="패스 812069" d="M1030.457,929.015a5.976,5.976,0,0,0,.229,1.822,2.2,2.2,0,0,0,2.153,1.587,2.018,2.018,0,0,0,2.014-1.54c.151-.516.369-.583.8-.381a3.159,3.159,0,0,0,.391.117c1.112.353,1.107.351.59,1.388a3.766,3.766,0,0,1-3.153,2.142,4.56,4.56,0,0,1-3.683-1.06,4.86,4.86,0,0,1-1.459-3.421,5.955,5.955,0,0,1,1.135-4.316,4.36,4.36,0,0,1,3.181-1.483,4.716,4.716,0,0,1,2.989.741,3.4,3.4,0,0,1,1.288,1.933c.078.277-.08.422-.347.471-.341.062-.683.122-1.022.2-.432.095-.6-.079-.832-.476a2.012,2.012,0,0,0-1.929-1.1,2.217,2.217,0,0,0-2,1.312A4.724,4.724,0,0,0,1030.457,929.015Z" transform="translate(-173.989 -12.202)" fill="#f6f7f9"/>
      <path id="패스_812070" data-name="패스 812070" d="M854.584,930.3c0-1.46.018-2.92-.01-4.379-.009-.454.122-.586.576-.573,1.276.039,2.557-.014,3.831.05a3.673,3.673,0,0,1,3.8,3.238,6.672,6.672,0,0,1-.435,4.645,3.5,3.5,0,0,1-3.132,1.977c-1.389.062-2.783,0-4.175.029-.447.01-.458-.206-.456-.54C854.59,933.269,854.584,931.786,854.584,930.3Zm2.077.012c0,.934.012,1.867-.006,2.8-.007.344.083.5.457.476.635-.04,1.274-.029,1.91-.066a1.652,1.652,0,0,0,1.606-1.333,6.978,6.978,0,0,0,.04-3.512,1.864,1.864,0,0,0-1.7-1.527c-.592-.071-1.183-.038-1.771-.086-.412-.034-.559.08-.543.516C856.686,928.493,856.663,929.4,856.661,930.316Z" transform="translate(-23.983 -13.494)" fill="#f6f7f9"/>
      <path id="패스_812071" data-name="패스 812071" d="M1219.122,946.306c.646,1.238,1.439,2.4,2.17,3.593l.124-.059c0-1.346.03-2.693-.013-4.037a.5.5,0,0,1,.123-.425h-3.282A1.7,1.7,0,0,1,1219.122,946.306Z" transform="translate(-337.95 -30.868)" fill="none"/>
      <path id="패스_812072" data-name="패스 812072" d="M1170.023,960.211h1.9l-.974-2.595Z" transform="translate(-296.318 -41.45)" fill="none"/>
      <path id="패스_812073" data-name="패스 812073" d="M1170.947,957.616l-.925,2.595h1.9Z" transform="translate(-296.318 -41.45)" fill="none"/>
      <path id="패스_812074" data-name="패스 812074" d="M1221.206,969c-.631-1.223-1.424-2.363-2.2-3.612a2.444,2.444,0,0,0-.131,1.257c-.019.89-.035,1.782.006,2.67a.546.546,0,0,1-.1.42h3.076A1.613,1.613,0,0,1,1221.206,969Z" transform="translate(-338.418 -48.187)" fill="none"/>
      <path id="패스_812075" data-name="패스 812075" d="M1007,988.712h-1.08C1006.285,988.716,1006.645,988.719,1007,988.712Z" transform="translate(-154.653 -68.336)" fill="none"/>
      <path id="패스_812076" data-name="패스 812076" d="M1014.27,988.588c-.156.009-.312.012-.469.016h.628v-.011A.911.911,0,0,0,1014.27,988.588Z" transform="translate(-161.452 -68.227)" fill="#0d2254"/>
      <path id="패스_812077" data-name="패스 812077" d="M1108.492,945.377H1107.2l0,0v2.892h-3.03v-2.9h-1.285a.272.272,0,0,0-.042.039v7.05h1.327v-3.051h3.03v3.051h1.308v-7.073C1108.5,945.389,1108.5,945.381,1108.492,945.377Z" transform="translate(-238.327 -30.884)" fill="#f6f7f9"/>
      <path id="패스_812078" data-name="패스 812078" d="M1213.532,945.052v4.615l-2.833-4.615h-1.6v7.09h1.425v-4.664l2.741,4.664h1.792v-7.09Z" transform="translate(-330.064 -30.603)" fill="#f6f7f9"/>
      <path id="패스_812079" data-name="패스 812079" d="M1170.023,960.211h1.9l-.974-2.595Z" transform="translate(-296.318 -41.45)" fill="none"/>
      <path id="패스_812080" data-name="패스 812080" d="M1170.023,960.211h1.9l-.974-2.595Z" transform="translate(-296.318 -41.45)" fill="none"/>
      <path id="패스_812081" data-name="패스 812081" d="M1154.423,945.377l-2.741,7.09h1.509l.627-1.557h2.628l.7,1.557h1.491l-2.741-7.09Zm-.228,4.272.925-2.595.974,2.595Z" transform="translate(-280.494 -30.884)" fill="#f6f7f9"/>
      <path id="패스_812082" data-name="패스 812082" d="M923.493,945.052l-2.741,7.09h1.509l.627-1.557h2.628l.7,1.557h1.491l-2.741-7.09Zm-.227,4.272.924-2.595.974,2.595Z" transform="translate(-81.127 -30.603)" fill="#f6f7f9"/>
      <path id="패스_812083" data-name="패스 812083" d="M986.241,945.941v-1.214H980.9v7.242h5.337v-1.214H982.42V948.8h3.507v-1.178H982.42v-1.676Z" transform="translate(-133.056 -30.323)" fill="#f6f7f9"/>
      <path id="패스_812084" data-name="패스 812084" d="M1271.731,946.455c-.411,0-.822,0-1.232,0a.726.726,0,0,0-.22.021v1.23a2.851,2.851,0,0,0,.632.044,3,3,0,0,1,.41,0c.162.023.423-.112.455.147s.137.58-.132.829a2.181,2.181,0,0,1-3.411-.841,3.7,3.7,0,0,1-.069-2.156,1.893,1.893,0,0,1,1.937-1.433,1.389,1.389,0,0,1,1.494.84c.173.38.9.385,1.458.024.369-.239.023-.5-.066-.725a1.928,1.928,0,0,0-.6-.793,2.872,2.872,0,0,0-.412-.277,3.143,3.143,0,0,0-.564-.241,3.839,3.839,0,0,0-4.044,6.291,1.471,1.471,0,0,0,.473.472c.126.069.253.131.38.189a3.837,3.837,0,0,0,5.121-1.248c.011-.2.012-.445.012-.743C1273.353,946.455,1273.353,946.455,1271.731,946.455Z" transform="translate(-379.437 -28.747)" fill="#f6f7f9"/>
    </g>
  </g>
</svg>
