<svg xmlns="http://www.w3.org/2000/svg" width="100" height="100"><defs><clipPath id="a"><path data-name="패스 789335" d="M37.758 13.412l-2.961 3.8-2.959-3.8c-4.624-.175-15.267.165-21.72 2.781.89 1.694 4.763 4.1 6.89 4.639.123-3.328 4.821-4.023 9.334-4.023L34.8 62.22l8.456-45.411c4.508 0 9.207.695 9.33 4.023 2.128-.535 6-2.945 6.9-4.639-5.565-2.257-14.25-2.82-19.5-2.82-.836 0-1.585.014-2.221.039" transform="translate(-10.118 -13.373)" fill="#000111"/></clipPath><clipPath id="b"><path data-name="패스 789337" d="M34.8 7.5q-2.313 0-4.619.065C22.232 7.79 14.284 8.716 6.8 11.5l1.67 2.686c6.337-2.44 13.857-3.612 21.8-3.874 3-.1 6.062-.1 9.064 0 7.936.262 15.458 1.434 21.8 3.874L62.8 11.5c-7.486-2.784-15.437-3.71-23.378-3.935Q37.115 7.5 34.8 7.5z" transform="translate(-6.798 -7.5)" fill="#000111"/></clipPath></defs><g data-name="그룹 390841"><path data-name="패스 789334" d="M52.96 30.912l-2.961 3.8-2.959-3.8c-4.624-.175-15.267.165-21.72 2.781.89 1.694 4.763 4.1 6.89 4.639.123-3.328 4.821-4.023 9.334-4.023l8.458 45.411 8.456-45.411c4.508 0 9.207.695 9.33 4.023 2.128-.535 6-2.945 6.9-4.639-5.565-2.257-14.25-2.82-19.5-2.82-.836 0-1.585.014-2.221.039" fill="#000111"/><g data-name="그룹 390840" clip-path="url(#a)" transform="translate(25.32 30.873)"><path data-name="사각형 299593" fill="#000111" d="M0-.136h49.359v48.983H0z"/></g></g><g data-name="그룹 390843"><path data-name="패스 789336" d="M50.002 25q-2.313 0-4.619.065c-7.949.225-15.897 1.151-23.381 3.935l1.67 2.686c6.337-2.44 13.857-3.612 21.8-3.874 3-.1 6.062-.1 9.064 0 7.936.262 15.458 1.434 21.8 3.874L78.002 29c-7.486-2.784-15.437-3.71-23.378-3.935Q52.317 25 50.002 25z" fill="#000111"/><g data-name="그룹 390842" clip-path="url(#b)" transform="translate(22 25)"><path data-name="사각형 299594" fill="#000111" d="M0 0h56v6.686H0z"/></g></g></svg>