<svg xmlns="http://www.w3.org/2000/svg" width="100" height="100" viewBox="0 0 100 100">
  <g id="car_logo_gmc" transform="translate(-219 -155)">
    <g id="W_100_H_100" data-name="W 100 H 100" transform="translate(219 155)" fill="#f9f9f9" stroke="#f0f0f0" stroke-width="1" opacity="0">
      <rect width="100" height="100" stroke="none"/>
      <rect x="0.5" y="0.5" width="99" height="99" fill="none"/>
    </g>
    <g id="gmc" transform="translate(97.915 -1013.399)">
      <path id="패스_789273" data-name="패스 789273" d="M131.085,1216.149v7.812c0,2.945,1.831,4.71,5.019,4.71h15.732c3.3,0,5.387-1.61,5.387-4.557v-6.171H144.345v3.841h8.464v1.568c0,1.018-.584,1.3-1.352,1.3H137c-1.053,0-1.387-.524-1.387-1.343v-6.7c0-.89.518-1.185,1.085-1.185h20.524V1211.4h-21.16C132.808,1211.4,131.085,1213.314,131.085,1216.149Z" transform="translate(0 0)"/>
      <path id="패스_789274" data-name="패스 789274" d="M199.146,1228.671l7.231-13.1v13.1h4.544V1211.4h-6.982l-6.886,12.406-6.9-12.406H183.19v17.273h4.531v-13.1l7.236,13.1Z" transform="translate(-24.879 0)"/>
      <path id="패스_789275" data-name="패스 789275" d="M261.862,1228.672v-4.345H243.8c-1.051,0-1.387-.522-1.387-1.335v-6.063a1.036,1.036,0,0,1,1.089-1.192h18.357V1211.4h-19c-3.253,0-4.97,1.915-4.97,4.75v7.812c0,2.945,1.823,4.71,5.011,4.71Z" transform="translate(-50.777 0)"/>
    </g>
  </g>
</svg>
