<svg xmlns="http://www.w3.org/2000/svg" width="100" height="100"><path data-name="패스 791859" d="M50.001 78.005a28 28 0 10-28-28 28 28 0 0028 28z"/><path data-name="패스 791860" d="M50.001 77.441a27.44 27.44 0 10-27.44-27.439 27.439 27.439 0 0027.44 27.439z" fill="#fff"/><path data-name="패스 791861" d="M50.001 70.172a20.171 20.171 0 10-20.172-20.171 20.171 20.171 0 0020.172 20.171zm-21.85-19.383l.958.413-.019 1.6-5.51-2.3.02-1.65 5.563-2.123-.019 1.612-.967.365zm1.48-9.326l.7-1.674 1.126.469-1.277 3.068-5.113-2.126.581-1.4 3.987 1.659z"/><path data-name="패스 791862" d="M31.346 33.089l.683.624 1.119-1.224.9.822-1.119 1.225 1.6 1.466-1.02 1.115-4.087-3.735 2.252-2.465.9.822-1.232 1.349zm7.638-1.958l.092 1.038-1.421.744-.589-5.942 1.462-.767 4.51 3.889-1.428.749-.781-.678zm12.1-2.161l-1.876.149-1.59-2.01h-.015l.168 2.122-1.506.119-.438-5.518 2.252-.178c1.146-.091 2.056.36 2.149 1.539a1.5 1.5 0 01-1.145 1.66l2 2.117zm9.331-.594a3.239 3.239 0 11-2.187-3.7 3.022 3.022 0 012.187 3.7zm5.839.581l1.083 1.019-1.17 2.965 2.939-1.3 1.094 1.031-2.94 4.929-1.082-1.054 1.642-2.889-.011-.01-3.2 1.362-.438-.412 1.215-3.235-.011-.01-2.738 1.836-1.108-1.018 4.727-3.215zm7.076 11.334l-.855.354.654 1.574-1.126.467-.653-1.574-.882.365.689 1.66-1.126.466-1.267-3.055 5.113-2.122 1.268 3.055-1.126.466zm.613 12.142a3.24 3.24 0 112.737-3.312 3.022 3.022 0 01-2.734 3.312z"/><path data-name="패스 791863" d="M25.3 49.698v.016l1.754.646.016-1.258zm13.29-21.593l-.013.007.264 1.851 1.114-.584-1.364-1.273zm8.937-1.917l.146-.012c.491-.038 1.038-.17.991-.771s-.609-.643-1.1-.6l-.146.01.109 1.377zm8.258.707a1.623 1.623 0 001.012 2.06l.046.015a1.625 1.625 0 002.057-1.023l.015-.045a1.654 1.654 0 00-3.129-1.007zm17.982 20.684a1.624 1.624 0 00-1.6 1.652v.046a1.622 1.622 0 001.658 1.586h.05a1.653 1.653 0 00-.113-3.282zM50.237 69.65v-39.3a19.651 19.651 0 01-.036 39.3zM30.506 52.481a19.62 19.62 0 007.39 13v-13H30.51zm7.377-17.949l.009 12h-7.239a19.582 19.582 0 017.23-11.993zm11.882 11.994h-5.918V31.332a19.58 19.58 0 015.913-.981v16.171zm0 23.124a19.562 19.562 0 01-5.921-.985V52.482h5.918V69.65z" fill="#fff"/><path data-name="패스 791864" d="M55.753 38.636h7.145v-.744h-7.145zm0-1.364h7.145v-.57h-7.145zm.571-.891h4.466a.6.6 0 10-.6-.6.6.6 0 00.604.6zm1.489 0l-4.094 29.087a1.432 1.432 0 01-1.475-1.425 1.517 1.517 0 011.475-1.522h2.877a.561.561 0 00.562-.563.57.57 0 00-.562-.572h-.143a2.7 2.7 0 01-2.7-2.7 2.65 2.65 0 012.7-2.64h5.656c.349 0 .632-.184.632-.53a.643.643 0 00-.632-.646h-5.705a4.071 4.071 0 11-.181-8.14h5.664a.793.793 0 00.771-.8.751.751 0 00-.771-.747h-6.179a1.713 1.713 0 011.885-1.489h2.878a.6.6 0 00.6-.6.556.556 0 00-.6-.546h-2.878a1.929 1.929 0 01-1.885-1.686h2.978c.247-.794.744-1.191 1.29-1.191h3.177a1.637 1.637 0 001.637-.993 7.189 7.189 0 013.422 6.054 5.478 5.478 0 01-5.161 5.423h-6.649a.631.631 0 100 1.263l6.252-.006a3.633 3.633 0 013.579 3.642 3.537 3.537 0 01-3.579 3.529l-5.955-.007a.6.6 0 100 1.193h4.516a1.924 1.924 0 110 3.848l-2.73.008a.456.456 0 000 .912h2.1c.732 0 1.551 1.082-.024 1.678.013-.31-.037-.757-.695-.757h-1.672z"/><path data-name="패스 791865" d="M56.217 43.129a3.033 3.033 0 00-1.391 2.753L53.19 47.01a.579.579 0 11-.852-.784l.033-.034 1.054-.733c.52-.348.422-.917.348-1.389s-.57-.249-.72-.074a1.221 1.221 0 01-.868.36 1.208 1.208 0 01-1.229-1.2 1.229 1.229 0 012.1-.869c.149.174.647.4.72-.074s.173-1.043-.348-1.39l-1.054-.732a.58.58 0 11.819-.819l1.636 1.129a3 3 0 001.391 2.731z"/></svg>