<svg xmlns="http://www.w3.org/2000/svg" width="100" height="100"><defs><clipPath id="a"><path data-name="사각형 299368" fill="none" d="M0 0h66v34H0z"/></clipPath></defs><g data-name="그룹 390314" transform="translate(17 33)" clip-path="url(#a)"><path data-name="패스 787721" d="M20.9 3.893c.689-.135 1.142-.132 1.3.041a.427.427 0 010 .526 2.751 2.751 0 01-.286.4c-5.828 6.92-10.276 17.124-11.536 20.069-.1.2-.192.406-.268.538a.669.669 0 01-.551.4 1.18 1.18 0 01-.693-.227c-3.871-2.403-6.171-5.395-6.171-8.641 0-5.862 7.495-10.9 18.209-13.1m5.982 4.411c.549-1.282 1.5-4.026 3.674-5.112a5.42 5.42 0 012.2-.509h.326A56.925 56.925 0 0149.6 4.988c.038.012.15.057.182.066.44.149.661.353.663.6a.753.753 0 01-.274.542 4.987 4.987 0 01-.3.265c-1.094.923-4.4 3.324-10.611 5.717a52.632 52.632 0 01-7.766 2.493c-1.676.355-7.888 1.307-4.608-6.368m29 .218a.665.665 0 01.551-.4 1.193 1.193 0 01.691.226c3.87 2.4 6.17 5.4 6.17 8.643 0 5.862-7.493 10.9-18.208 13.1-.687.135-1.141.133-1.3-.043a.428.428 0 010-.524 2.6 2.6 0 01.286-.4c5.837-6.92 10.281-17.126 11.544-20.069.1-.2.192-.406.267-.54M39.209 25.661c-.547 1.282-1.5 4.024-3.672 5.112a5.483 5.483 0 01-2.2.51h-.328A57 57 0 0116.5 28.977c-.037-.01-.146-.055-.179-.066-.441-.147-.664-.351-.664-.6a.751.751 0 01.271-.54c.067-.067.168-.154.3-.269a38.664 38.664 0 0110.612-5.716 52.541 52.541 0 017.76-2.487c1.676-.355 7.891-1.306 4.6 6.366M33 33.999c18.227 0 33-7.611 33-17s-14.773-17-33-17-33 7.61-33 17 14.775 17 33 17" fill="#002f71"/></g></svg>