<svg xmlns="http://www.w3.org/2000/svg" width="100" height="100"><g fill-rule="evenodd"><path data-name="패스 789277" d="M50.002 78.004a28 28 0 10-19.8-8.2 27.82 27.82 0 0019.8 8.2z" fill="#231815"/><path data-name="패스 789278" d="M22.212 50.002a27.79 27.79 0 118.139 19.65 27.608 27.608 0 01-8.139-19.65z" fill="#fff"/><path data-name="패스 789279" d="M50.002 76.398a26.4 26.4 0 10-26.4-26.4 26.4 26.4 0 0026.4 26.4z" fill="#231815"/><path data-name="패스 789280" d="M49.854 64.856c6.664 0 18.228-2.336 22.215-6.664 3.73-4.05 2.191-7.928.117-10.757L56.869 30.949a9.881 9.881 0 00-14.031 0L27.521 47.435c-2.735 3.3-3.236 7.178.117 10.757 4.023 4.294 15.55 6.664 22.215 6.664z" fill="#fff"/><path data-name="패스 789281" d="M49.856 63.139c6.045 0 16.119-2.545 20.149-6.045 3.64-3.161 2.757-7.106.106-9.757L56.219 32.384a8.961 8.961 0 00-12.726 0L29.6 47.337c-2.651 2.651-3.534 6.6.106 9.757 4.03 3.5 14.1 6.045 20.15 6.045z" fill="#231815"/><path data-name="패스 789282" d="M49.591 51.977c-.689 0-2.492-.079-3.075-.159l-.477 1.06c-.186.4.318.583.53.371s1.379-.8 1.936-.345v5.064a.67.67 0 01-.57.636.405.405 0 00-.438.345c0 .186.107.318.5.345a31.741 31.741 0 003.182 0c.4 0 .5-.159.5-.345a.405.405 0 00-.437-.345.67.67 0 01-.57-.636v-5.064c.557-.451 1.723.132 1.935.345s.716.027.53-.371l-.477-1.06c-.583.08-2.386.159-3.075.159z" fill="#fff"/><path data-name="패스 789283" d="M53.86 51.711a.382.382 0 00-.332.49c.053.133.225.212.464.239a.52.52 0 01.451.437l1.14 3.9c.212.769 1.644 2.2 4.4 1.167s1.856-3.129 1.723-3.526l-.928-3.181a.7.7 0 01.106-.769c.133-.186.106-.822-.5-.61-.371.132-1.007.318-1.246.4s-.45.583-.026.663.557.106.663.5l.928 3.182a1.638 1.638 0 01-1.008 2.227 1.75 1.75 0 01-2.254-.875l-.928-3.155c-.106-.451-.066-.742.2-.9s.318-.849-.212-.742-2.346.583-2.638.557z" fill="#fff"/><path data-name="패스 789284" d="M42.539 50.837a3.838 3.838 0 00-5.25 1.379c-1.329 2.409-.424 4.348 1.909 5.462a3.625 3.625 0 005.17-1.617c.684-1.54 1.034-3.685-1.829-5.223z" fill="#fff"/><path data-name="패스 789285" d="M42.035 51.659c-1.113-.5-2.147-.027-2.943 1.458s-.619 3.032.265 3.5c.9.477 2.015.424 3.022-1.432s.637-2.916-.345-3.526z" fill="#231815"/><path data-name="패스 789286" d="M34.068 46.608c-.185-.225-.4-.212-.53-.053s-.053.345.106.53a.693.693 0 01.067.848l-2.956 3.844a.643.643 0 01-.849.04c-.265-.2-.742.146-.345.437a48.746 48.746 0 004.932 3.274l1.219-1.127c.172-.172-.011-.571-.3-.371a2.028 2.028 0 01-3.022-1.14l2.877-3.751a.739.739 0 01.875-.318c.252.106.358.013.424-.093a.322.322 0 00-.106-.424c-.279-.146-2.161-1.485-2.386-1.7z" fill="#fff"/><path data-name="패스 789287" d="M66.745 47.178a6.048 6.048 0 01-1.326.345 7.277 7.277 0 00-1.882.716c-.557.345-1.962 1.67-1.14 3.287.45.8 1.458 1.3 3.632.636.769-.239 2.015-.61 2.254-.08s-.345 1.352-1.246 1.723a3.916 3.916 0 01-2.757 0c-.265-.159-.636.026-.424.345l.8 1.061a8.169 8.169 0 003.341-.822c.849-.5 2.545-1.909 1.75-3.633a2.118 2.118 0 00-2.784-1.087c-.345.106-3.1 1.007-3.314.371s.53-1.352 1.22-1.538a6.379 6.379 0 012.306-.106c.4.106.557-.159.345-.451l-.689-.742-.08-.027z" fill="#fff"/><path data-name="패스 789288" d="M56.537 46.118a8.463 8.463 0 01-5.3 2.068c-2.414 0-6.674-.66-7.417-5.822l.771-1.177h1.252c0 .076-.008.153-.008.232a3.557 3.557 0 002.671 3.632v.166a.658.658 0 01-.69.716.3.3 0 00.106.583h4.825c1.564 0 3.235-.875 3.208-2.837a3.158 3.158 0 00-2.28-2.943 1.845 1.845 0 001.432-1.829 2.412 2.412 0 00-2.492-2.148h-6.734c-.345 0-.358.146-.358.279 0 .159.132.2.185.278a.509.509 0 01-.093.517l-1.908 2.917v-.04c0-6.39 5.567-6.416 6.363-6.469a12.816 12.816 0 015.886 1.591c.636.477.636-.053.53-.212a14.664 14.664 0 00-1.061-1.8c-.265-.371-.8-.424-.954-.212a.7.7 0 01-.954.265 14.516 14.516 0 00-4.322-.61c-1.75 0-7.582 1.538-7.609 7.4a10.288 10.288 0 00.353 2.8l-.963 1.472a2.08 2.08 0 01-1.909 1.034c-.4 0-.5.531-.08.557h3.049c.415 0 .345-.543.08-.636a.385.385 0 01-.2-.61l.432-.66a8.558 8.558 0 008.463 4.849 8.976 8.976 0 006.469-2.757c.53-.583-.053-1.167-.742-.583z" fill="#fff"/><path data-name="패스 789289" d="M46.973 41.468c0-.1 0-.191.006-.282h1.526v2.756a2.594 2.594 0 01-1.531-2.474z" fill="#231815"/><path data-name="패스 789290" d="M48.505 40.285h-1.372a2.3 2.3 0 011.376-1.52v1.52z" fill="#231815"/><path data-name="패스 789291" d="M46.967 37.554h1.14c.4 0 .4.4.4.61v.044a3.523 3.523 0 00-2.48 2.077h-.846l1.788-2.731z" fill="#231815"/><path data-name="패스 789292" d="M52.018 40.288a1.369 1.369 0 000-2.737h-1.949v2.734h1.949z" fill="#231815"/><path data-name="패스 789293" d="M50.069 41.186h1.273c.822 0 2.784.371 2.784 2.333a2.452 2.452 0 01-2.678 2.333c-.742-.027-1.379-.053-1.379-.769v-3.9z" fill="#231815"/></g></svg>