<svg xmlns="http://www.w3.org/2000/svg" xmlns:xlink="http://www.w3.org/1999/xlink" width="100" height="100"><defs><clipPath id="e"><path data-name="패스 799786" d="M37.511 57.085H37.5V62.5h.011l4.313-1.544q1.341-1.358 2.522-2.774l-6.834-1.1z" transform="translate(-37.5 -57.085)" fill="none"/></clipPath><clipPath id="f"><path data-name="패스 799787" d="M37.5 29.987V35.4h.011l10.358-1.753 7.159 2.226c.257-1.154.468-2.25.638-3.267l-7.8 1-10.355-3.622z" transform="translate(-37.5 -29.984)" fill="none"/></clipPath><clipPath id="h"><path data-name="패스 799788" d="M37.5 19.141h.011l6.523-.365a98.638 98.638 0 00-6.534-2.418z" transform="translate(-37.5 -16.359)" fill="none"/></clipPath><clipPath id="j"><path data-name="패스 799789" d="M37.5 24.566v5.416h.011l10.358-1.363 7.984 2.785c.2-1.382.327-2.594.4-3.586l-8.388.762-10.354-4.017z" transform="translate(-37.5 -24.563)" fill="none"/></clipPath><clipPath id="l"><path data-name="패스 799790" d="M37.5 35.406v5.415h.011l10.358-2.141 5.984 1.634c.292-.958.551-1.893.782-2.8l-6.766 1.126-10.358-3.24z" transform="translate(-37.5 -35.404)" fill="none"/></clipPath><clipPath id="n"><path data-name="패스 799791" d="M37.5 62.507v2.3q1.252-.975 2.4-2l-2.386-.295z" transform="translate(-37.5 -62.506)" fill="none"/></clipPath><clipPath id="p"><path data-name="패스 799792" d="M37.511 19.142H37.5v5.415h.011l10.358-.971 8.453 3.269c.037-.669.05-1.185.052-1.52v-.006a36.174 36.174 0 00-3.126-2.068l-5.379.286-10.358-4.405z" transform="translate(-37.5 -19.142)" fill="none"/></clipPath><clipPath id="r"><path data-name="패스 799793" d="M37.5 40.827v5.415h.011l10.358-2.536 4.42 1.041c.289-.722.559-1.44.809-2.147l-5.229 1.067-10.358-2.843z" transform="translate(-37.5 -40.824)" fill="none"/></clipPath><clipPath id="t"><path data-name="패스 799794" d="M37.5 51.667v5.414h.011l10.044-3.219.116-.178-10.16-2.023z" transform="translate(-37.5 -51.665)" fill="none"/></clipPath><clipPath id="v"><path data-name="패스 799795" d="M37.511 46.244H37.5v5.413h.011l10.358-2.928 2.393.474a52.9 52.9 0 00.616-1.241l-3.009.728-10.357-2.446z" transform="translate(-37.5 -46.244)" fill="none"/></clipPath><clipPath id="x"><path data-name="패스 799796" d="M30.656 58.192q1.176 1.4 2.508 2.758L37.5 62.5v-5.413z" transform="translate(-30.656 -57.087)" fill="none"/></clipPath><clipPath id="y"><path data-name="패스 799797" d="M27.153 33.611l-7.818-1c.169 1.02.381 2.119.639 3.276l7.179-2.232L37.5 35.4v-5.413z" transform="translate(-19.335 -29.987)" fill="none"/></clipPath><clipPath id="A"><path data-name="패스 799798" d="M30.968 18.776l6.532.365v-2.782a98.465 98.465 0 00-6.532 2.417" transform="translate(-30.968 -16.359)" fill="none"/></clipPath><clipPath id="C"><path data-name="패스 799799" d="M37.5 24.566l-10.347 4.016-8.409-.763c.076.993.2 2.209.4 3.6l8-2.794L37.5 29.982v-5.416z" transform="translate(-18.744 -24.566)" fill="none"/></clipPath><clipPath id="E"><path data-name="패스 799800" d="M37.5 35.407L27.153 38.64l-6.79-1.129q.346 1.363.786 2.81l6-1.641L37.5 40.821v-5.414z" transform="translate(-20.363 -35.407)" fill="none"/></clipPath><clipPath id="G"><path data-name="패스 799801" d="M35.107 62.8q1.146 1.024 2.393 2v-2.3z" transform="translate(-35.107 -62.507)" fill="none"/></clipPath><clipPath id="I"><path data-name="패스 799802" d="M37.5 19.147l-10.347 4.406-5.4-.286a35.982 35.982 0 00-3.128 2.068c0 .336.016.859.052 1.534l8.475-3.277 10.347.97v-5.415z" transform="translate(-18.626 -19.147)" fill="none"/></clipPath><clipPath id="K"><path data-name="패스 799803" d="M27.153 43.669L21.9 42.6c.252.71.522 1.431.812 2.156l4.441-1.045L37.5 46.242v-5.415z" transform="translate(-21.9 -40.827)" fill="none"/></clipPath><clipPath id="M"><path data-name="패스 799804" d="M27.329 53.692l.11.166L37.5 57.081v-5.414z" transform="translate(-27.329 -51.667)" fill="none"/></clipPath><clipPath id="O"><path data-name="패스 799805" d="M27.153 48.7l-3.034-.733c.2.415.407.833.621 1.249l2.413-.477L37.5 51.661v-5.413z" transform="translate(-24.119 -46.248)" fill="none"/></clipPath><clipPath id="Q"><path data-name="사각형 304703" fill="none" d="M0 0h40v55.966H0z"/></clipPath><clipPath id="R"><path data-name="패스 799816" d="M44.033 18.777l-6.522.365 10.358 4.411 5.379-.286a71.877 71.877 0 00-9.213-4.49z" transform="translate(-37.511 -18.777)" fill="none"/></clipPath><clipPath id="S"><path data-name="패스 799817" d="M47.869 23.592l-10.358.971 10.358 4.019 8.388-.762c.028-.347.048-.667.065-.959l-8.453-3.269z" transform="translate(-37.511 -23.592)" fill="none"/></clipPath><clipPath id="U"><path data-name="패스 799818" d="M37.511 29.984l10.358 3.627 7.8-1c.071-.415.131-.815.187-1.2l-7.984-2.785z" transform="translate(-37.511 -28.621)" fill="none"/></clipPath><clipPath id="W"><path data-name="패스 799819" d="M37.511 35.4l10.358 3.24 6.766-1.124c.142-.558.271-1.1.393-1.639l-7.159-2.226z" transform="translate(-37.511 -33.651)" fill="none"/></clipPath><clipPath id="Y"><path data-name="패스 799820" d="M47.869 38.68l-10.358 2.144 10.358 2.845L53.1 42.6q.411-1.163.755-2.288l-5.986-1.632z" transform="translate(-37.511 -38.68)" fill="none"/></clipPath><clipPath id="aa"><path data-name="패스 799821" d="M47.869 43.708l-10.358 2.536L47.869 48.7l3.009-.728q.776-1.623 1.411-3.221l-4.42-1.041z" transform="translate(-37.511 -43.708)" fill="none"/></clipPath><clipPath id="ac"><path data-name="패스 799822" d="M37.511 51.665l10.16 2.023a49.518 49.518 0 002.591-4.477l-2.393-.474z" transform="translate(-37.511 -48.737)" fill="none"/></clipPath><clipPath id="ae"><path data-name="패스 799823" d="M37.511 57.085l6.835 1.1a46.551 46.551 0 003.209-4.322z" transform="translate(-37.511 -53.866)" fill="none"/></clipPath><clipPath id="ag"><path data-name="패스 799824" d="M37.511 62.506l2.389.294q1-.9 1.927-1.839z" transform="translate(-37.511 -60.962)" fill="none"/></clipPath><clipPath id="ai"><path data-name="패스 799834" d="M30.968 18.776a71.7 71.7 0 00-9.214 4.491l5.4.286 10.358-4.411-6.542-.366z" transform="translate(-21.754 -18.776)" fill="none"/></clipPath><clipPath id="aj"><path data-name="패스 799835" d="M27.153 23.592l-8.475 3.277c.018.289.038.605.066.95l8.409.763 10.358-4.019-10.358-.971z" transform="translate(-18.678 -23.592)" fill="none"/></clipPath><clipPath id="al"><path data-name="패스 799836" d="M19.148 31.415c.056.384.117.781.187 1.192l7.818 1 10.358-3.627-10.358-1.359z" transform="translate(-19.148 -28.621)" fill="none"/></clipPath><clipPath id="an"><path data-name="패스 799837" d="M27.153 33.651l-7.179 2.232c.121.531.248 1.075.389 1.628l6.79 1.129 10.358-3.24-10.358-1.749z" transform="translate(-19.974 -33.651)" fill="none"/></clipPath><clipPath id="ap"><path data-name="패스 799838" d="M27.153 38.68l-6 1.641q.345 1.118.751 2.276l5.253 1.072 10.358-2.845-10.362-2.144z" transform="translate(-21.149 -38.68)" fill="none"/></clipPath><clipPath id="ar"><path data-name="패스 799839" d="M22.712 44.753q.637 1.59 1.407 3.212l3.034.733 10.358-2.454-10.358-2.536z" transform="translate(-22.712 -43.708)" fill="none"/></clipPath><clipPath id="at"><path data-name="패스 799840" d="M27.152 48.737l-2.412.477a49.468 49.468 0 002.589 4.478l10.182-2.027-10.358-2.928z" transform="translate(-24.74 -48.737)" fill="none"/></clipPath><clipPath id="av"><path data-name="패스 799841" d="M27.439 53.858a46.752 46.752 0 003.217 4.334l6.855-1.107-10.072-3.227z" transform="translate(-27.439 -53.858)" fill="none"/></clipPath><clipPath id="ax"><path data-name="패스 799842" d="M35.107 62.8l2.4-.3-4.343-1.55q.931.942 1.943 1.853" transform="translate(-33.164 -60.95)" fill="none"/></clipPath><clipPath id="az"><path data-name="패스 799845" d="M37.514 16.313c1.812.569 12.271 3.965 18.658 8.556-.02 3.268-1.533 24.466-18.658 37.634v1.63l.541-.381a48.248 48.248 0 0017.4-26.046A80.4 80.4 0 0058 21.358l-.013-.444-.344-.271A68.024 68.024 0 0037.787 8.921l-.273-.087z" transform="translate(-37.514 -8.834)" fill="none"/></clipPath><clipPath id="aB"><path data-name="패스 799846" d="M37.242 8.921a68.024 68.024 0 00-19.859 11.723l-.344.271-.013.444a80.435 80.435 0 002.547 16.348 48.247 48.247 0 0017.4 26.046l.539.381V62.5C20.389 49.335 18.878 28.137 18.857 24.869c6.386-4.591 16.844-7.987 18.657-8.556V8.834z" transform="translate(-17.026 -8.834)" fill="none"/></clipPath><clipPath id="aD"><path data-name="패스 799847" d="M37.1 9.984l.017 1.06a2.565 2.565 0 00-1.49-.412 2.816 2.816 0 00-.966.176l.06.724a1.761 1.761 0 01.924-.228 1.482 1.482 0 011.5 1.551 1.462 1.462 0 01-1.519 1.525 2.4 2.4 0 01-.938-.178l-.035.716a4.291 4.291 0 00.973.136 2.707 2.707 0 001.487-.383l-.014.939h.412V9.984z" transform="translate(-34.656 -9.984)" fill="none"/></clipPath><clipPath id="aF"><path data-name="패스 799848" d="M37.514 9.984v5.626h.444l-.015-.895a2.783 2.783 0 001.417.339 4.324 4.324 0 00.975-.136L40.3 14.2a2.4 2.4 0 01-.939.178 1.408 1.408 0 01-1.449-1.525 1.428 1.428 0 011.432-1.553 1.763 1.763 0 01.924.228l.062-.724a2.838 2.838 0 00-.97-.176 2.631 2.631 0 00-1.419.363l.017-1.011z" transform="translate(-37.514 -9.984)" fill="none"/></clipPath><linearGradient id="a" x1="-249.879" y1="71.05" x2="-249.873" y2="71.05" gradientUnits="objectBoundingBox"><stop offset="0" stop-color="#c49a6b"/><stop offset="1" stop-color="#a97c50"/></linearGradient><linearGradient id="g" x1="-94.407" y1="70.328" x2="-94.405" y2="70.328" xlink:href="#a"/><linearGradient id="i" x1="-261.745" y1="155.194" x2="-261.739" y2="155.194" xlink:href="#a"/><linearGradient id="k" x1="-91.438" y1="61.398" x2="-91.435" y2="61.398" xlink:href="#a"/><linearGradient id="m" x1="-100.078" y1="75.425" x2="-100.075" y2="75.425" xlink:href="#a"/><linearGradient id="o" x1="-708.331" y1="163.691" x2="-708.315" y2="163.691" xlink:href="#a"/><linearGradient id="q" x1="-90.872" y1="55.165" x2="-90.87" y2="55.165" xlink:href="#a"/><linearGradient id="s" x1="-109.923" y1="74.376" x2="-109.92" y2="74.376" xlink:href="#a"/><linearGradient id="u" x1="-168.411" y1="72.232" x2="-168.407" y2="72.232" xlink:href="#a"/><linearGradient id="w" x1="-128.128" y1="73.306" x2="-128.125" y2="73.306" xlink:href="#a"/><linearGradient id="b" x1="-248.805" y1="71.124" x2="-248.799" y2="71.124" gradientUnits="objectBoundingBox"><stop offset="0" stop-color="#c49a6b"/><stop offset="1" stop-color="#fbb040"/></linearGradient><linearGradient id="z" x1="-93.359" y1="70.295" x2="-93.357" y2="70.295" xlink:href="#b"/><linearGradient id="B" x1="-260.709" y1="155.25" x2="-260.703" y2="155.25" xlink:href="#b"/><linearGradient id="D" x1="-90.391" y1="61.339" x2="-90.389" y2="61.339" xlink:href="#b"/><linearGradient id="F" x1="-99.016" y1="75.504" x2="-99.014" y2="75.504" xlink:href="#b"/><linearGradient id="H" x1="-708.032" y1="163.755" x2="-708.016" y2="163.755" xlink:href="#b"/><linearGradient id="J" x1="-89.822" y1="55.137" x2="-89.819" y2="55.137" xlink:href="#b"/><linearGradient id="L" x1="-108.847" y1="74.44" x2="-108.845" y2="74.44" xlink:href="#b"/><linearGradient id="N" x1="-167.332" y1="72.307" x2="-167.328" y2="72.307" xlink:href="#b"/><linearGradient id="P" x1="-127.029" y1="73.408" x2="-127.026" y2="73.408" xlink:href="#b"/><linearGradient id="c" x1="-108.956" y1="89.292" x2="-108.954" y2="89.292" gradientUnits="objectBoundingBox"><stop offset="0" stop-color="#be1e2d"/><stop offset="1" stop-color="#7b0512"/></linearGradient><linearGradient id="T" x1="-91.18" y1="84.408" x2="-91.178" y2="84.408" xlink:href="#c"/><linearGradient id="V" x1="-93.505" y1="83.354" x2="-93.503" y2="83.354" xlink:href="#c"/><linearGradient id="X" x1="-97.905" y1="82.317" x2="-97.903" y2="82.317" xlink:href="#c"/><linearGradient id="Z" x1="-104.928" y1="81.245" x2="-104.926" y2="81.245" xlink:href="#c"/><linearGradient id="ab" x1="-116.019" y1="80.185" x2="-116.016" y2="80.185" xlink:href="#c"/><linearGradient id="ad" x1="-134.417" y1="79.732" x2="-134.414" y2="79.732" xlink:href="#c"/><linearGradient id="af" x1="-170.541" y1="90.04" x2="-170.537" y2="90.04" xlink:href="#c"/><linearGradient id="ah" x1="-395.757" y1="206.648" x2="-395.748" y2="206.648" xlink:href="#c"/><linearGradient id="d" x1="-107.758" y1="89.272" x2="-107.755" y2="89.272" gradientUnits="objectBoundingBox"><stop offset="0" stop-color="#9b1421"/><stop offset="1" stop-color="#b63026"/></linearGradient><linearGradient id="ak" x1="-90.019" y1="84.408" x2="-90.017" y2="84.408" xlink:href="#d"/><linearGradient id="am" x1="-92.346" y1="83.354" x2="-92.344" y2="83.354" xlink:href="#d"/><linearGradient id="ao" x1="-96.733" y1="82.317" x2="-96.731" y2="82.317" xlink:href="#d"/><linearGradient id="aq" x1="-103.742" y1="81.245" x2="-103.739" y2="81.245" xlink:href="#d"/><linearGradient id="as" x1="-114.782" y1="80.185" x2="-114.78" y2="80.185" xlink:href="#d"/><linearGradient id="au" x1="-133.122" y1="79.672" x2="-133.119" y2="79.672" xlink:href="#d"/><linearGradient id="aw" x1="-168.966" y1="89.788" x2="-168.962" y2="89.788" xlink:href="#d"/><linearGradient id="ay" x1="-391.356" y1="205.186" x2="-391.346" y2="205.186" xlink:href="#d"/><linearGradient id="aA" x1="-83.684" y1="7.592" x2="-83.682" y2="7.592" gradientUnits="objectBoundingBox"><stop offset="0" stop-color="#003a54"/><stop offset=".412" stop-color="#002f50"/><stop offset="1" stop-color="#001849"/></linearGradient><linearGradient id="aC" x1="-82.914" y1="7.592" x2="-82.912" y2="7.592" gradientUnits="objectBoundingBox"><stop offset="0" stop-color="#0f5185"/><stop offset=".258" stop-color="#0d4d80"/><stop offset=".55" stop-color="#094172"/><stop offset=".857" stop-color="#032e5c"/><stop offset="1" stop-color="#00244f"/></linearGradient><linearGradient id="aE" x1="-598.825" y1="77.393" x2="-598.812" y2="77.393" gradientUnits="objectBoundingBox"><stop offset="0" stop-color="#c49a6b"/><stop offset=".076" stop-color="#d5a05d"/><stop offset=".183" stop-color="#e6a750"/><stop offset=".316" stop-color="#f2ac46"/><stop offset=".5" stop-color="#f9af41"/><stop offset="1" stop-color="#fbb040"/></linearGradient><linearGradient id="aG" x1="-608.057" y1="77.392" x2="-608.043" y2="77.392" xlink:href="#a"/></defs><g data-name="그룹 393767"><g data-name="그룹 393766" clip-path="url(#e)" transform="translate(49.856 69.551)"><path data-name="사각형 304683" fill="url(#a)" d="M0 0h6.846v5.421H0z"/></g></g><g data-name="그룹 393769"><g data-name="그룹 393768" clip-path="url(#f)" transform="translate(49.273 43.645)"><path data-name="사각형 304684" fill="url(#g)" d="M0 0h18.166v5.893H0z"/></g></g><g data-name="그룹 393771"><g data-name="그룹 393770" clip-path="url(#h)" transform="translate(49.864 30.859)"><path data-name="사각형 304685" fill="url(#i)" d="M0 0h6.535v2.784H0z"/></g></g><g data-name="그룹 393773"><g data-name="그룹 393772" clip-path="url(#j)" transform="translate(49.273 38.424)"><path data-name="사각형 304686" fill="url(#k)" d="M0 0h18.757v6.842H0z"/></g></g><g data-name="그룹 393775"><g data-name="그룹 393774" clip-path="url(#l)" transform="translate(49.273 48.863)"><path data-name="사각형 304687" fill="url(#m)" d="M0 0h17.135v5.42H0z"/></g></g><g data-name="그룹 393777"><g data-name="그룹 393776" clip-path="url(#n)" transform="translate(49.955 74.972)"><path data-name="사각형 304688" fill="url(#o)" d="M0 0h2.397v2.296H0z"/></g></g><g data-name="그룹 393779"><g data-name="그룹 393778" clip-path="url(#p)" transform="translate(49.273 33.211)"><path data-name="사각형 304689" fill="url(#q)" d="M0 0h18.874v7.718H0z"/></g></g><g data-name="그룹 393781"><g data-name="그룹 393780" clip-path="url(#r)" transform="translate(49.273 54.073)"><path data-name="사각형 304690" fill="url(#s)" d="M0 0h15.598v5.42H0z"/></g></g><g data-name="그룹 393783"><g data-name="그룹 393782" clip-path="url(#t)" transform="translate(49.764 64.495)"><path data-name="사각형 304691" fill="url(#u)" d="M0 0h10.171v5.42H0z"/></g></g><g data-name="그룹 393785"><g data-name="그룹 393784" clip-path="url(#v)" transform="translate(49.654 59.284)"><path data-name="사각형 304692" fill="url(#w)" d="M0 0h13.378v5.421H0z"/></g></g><g data-name="그룹 393787"><g data-name="그룹 393786" clip-path="url(#x)" transform="translate(43.3 69.553)"><path data-name="사각형 304693" fill="url(#b)" d="M0 0h6.844v5.415H0z"/></g></g><g data-name="그룹 393789"><g data-name="그룹 393788" clip-path="url(#y)" transform="translate(32.562 43.648)"><path data-name="사각형 304694" fill="url(#z)" d="M0 0h18.165v5.896H0z"/></g></g><g data-name="그룹 393791"><g data-name="그룹 393790" clip-path="url(#A)" transform="translate(43.604 30.859)"><path data-name="사각형 304695" fill="url(#B)" d="M0 0h6.532v2.783H0z"/></g></g><g data-name="그룹 393793"><g data-name="그룹 393792" clip-path="url(#C)" transform="translate(31.971 38.427)"><path data-name="사각형 304696" fill="url(#D)" d="M0 0h18.756v6.849H0z"/></g></g><g data-name="그룹 393795"><g data-name="그룹 393794" clip-path="url(#E)" transform="translate(33.59 48.866)"><path data-name="사각형 304697" fill="url(#F)" d="M0 0h17.136v5.414H0z"/></g></g><g data-name="그룹 393797"><g data-name="그룹 393796" clip-path="url(#G)" transform="translate(47.652 74.973)"><path data-name="사각형 304698" fill="url(#H)" d="M0 0h2.393v2.295H0z"/></g></g><g data-name="그룹 393799"><g data-name="그룹 393798" clip-path="url(#I)" transform="translate(31.853 33.216)"><path data-name="사각형 304699" fill="url(#J)" d="M0 0h18.874v7.722H0z"/></g></g><g data-name="그룹 393801"><g data-name="그룹 393800" clip-path="url(#K)" transform="translate(35.127 54.076)"><path data-name="사각형 304700" fill="url(#L)" d="M0 0h15.6v5.415H0z"/></g></g><g data-name="그룹 393803"><g data-name="그룹 393802" clip-path="url(#M)" transform="translate(40.065 64.497)"><path data-name="사각형 304701" fill="url(#N)" d="M0 0h10.17v5.414H0z"/></g></g><g data-name="그룹 393805"><g data-name="그룹 393804" clip-path="url(#O)" transform="translate(36.966 59.288)"><path data-name="사각형 304702" fill="url(#P)" d="M0 0h13.381v5.413H0z"/></g></g><g data-name="그룹 393807"><g data-name="그룹 393806" clip-path="url(#Q)" transform="translate(30 23)"><path data-name="패스 799806" d="M30.006 14.801l5.194-.551a69.935 69.935 0 00-8.892-4.333l-6.293.353z" fill="#6a0006"/><path data-name="패스 799807" d="M20.011 15.5l9.995 4.153 8.094-1.01c.028-.335.046-.643.063-.926l-8.157-2.876z" fill="#6a0006"/><path data-name="패스 799808" d="M30.006 19.691l-9.994 1.038 9.994 3.777 7.524-1.243c.069-.4.127-.785.181-1.162z" fill="#6a0006"/><path data-name="패스 799809" d="M20.011 25.96l9.995 3.4L36.535 28c.138-.538.262-1.065.379-1.582l-6.908-1.872z" fill="#6a0006"/><path data-name="패스 799810" d="M20.011 31.191l9.995 3.022 5.046-1.307q.4-1.122.729-2.208l-5.774-1.3z" fill="#6a0006"/><path data-name="패스 799811" d="M20.011 36.42l9.995 2.644 2.9-.978c.5-1.044.951-2.083 1.362-3.109l-4.266-.727z" fill="#6a0006"/><path data-name="패스 799812" d="M20.011 41.651l9.8 2.229a51.706 51.706 0 002.5-4.6l-2.309-.18z" fill="#6a0006"/><path data-name="패스 799813" d="M26.606 48.221a45.282 45.282 0 003.1-4.17l-9.692 2.83z" fill="#6a0006"/><path data-name="패스 799814" d="M20 55.966l.528-.386a49.021 49.021 0 0016.985-26.359A84.23 84.23 0 0040 12.676l-.014-.45-.335-.275A65.813 65.813 0 0020.266.088L20 0v7.57c1.77.575 11.979 4.013 18.213 8.659-.02 3.308-1.5 24.762-18.213 38.087z" fill="#231f20"/><path data-name="패스 799815" d="M20 54.316C3.284 40.991 1.808 19.537 1.788 16.229 8.021 11.583 18.227 8.145 20 7.57V0l-.265.088A65.812 65.812 0 00.348 11.952l-.335.275-.014.45a84.229 84.229 0 002.488 16.544 49.029 49.029 0 0016.986 26.36l.528.385z" fill="#002551"/></g></g><g data-name="그룹 393809"><g data-name="그룹 393808" clip-path="url(#R)" transform="translate(49.284 32.884)"><path data-name="사각형 304704" fill="url(#c)" d="M0 0h15.737v4.777H0z"/></g></g><g data-name="그룹 393811"><g data-name="그룹 393810" clip-path="url(#S)" transform="translate(49.284 37.513)"><path data-name="사각형 304705" fill="url(#T)" d="M0 0h18.81v4.99H0z"/></g></g><g data-name="그룹 393813"><g data-name="그룹 393812" clip-path="url(#U)" transform="translate(49.284 42.349)"><path data-name="사각형 304706" fill="url(#V)" d="M0 0h18.342v4.99H0z"/></g></g><g data-name="그룹 393815"><g data-name="그룹 393814" clip-path="url(#W)" transform="translate(49.284 47.186)"><path data-name="사각형 304707" fill="url(#X)" d="M0 0h17.516v4.989H0z"/></g></g><g data-name="그룹 393817"><g data-name="그룹 393816" clip-path="url(#Y)" transform="translate(49.284 52.022)"><path data-name="사각형 304708" fill="url(#Z)" d="M0 0h16.342v4.99H0z"/></g></g><g data-name="그룹 393819"><g data-name="그룹 393818" clip-path="url(#aa)" transform="translate(49.284 56.857)"><path data-name="사각형 304709" fill="url(#ab)" d="M0 0h14.777v4.99H0z"/></g></g><g data-name="그룹 393821"><g data-name="그룹 393820" clip-path="url(#ac)" transform="translate(49.688 61.694)"><path data-name="사각형 304710" fill="url(#ad)" d="M0 0h12.751v4.951H0z"/></g></g><g data-name="그룹 393823"><g data-name="그룹 393822" clip-path="url(#ae)" transform="translate(49.778 66.332)"><path data-name="사각형 304711" fill="url(#af)" d="M0 0h10.044v4.322H0z"/></g></g><g data-name="그룹 393825"><g data-name="그룹 393824" clip-path="url(#ag)" transform="translate(49.926 73.428)"><path data-name="사각형 304712" fill="url(#ah)" d="M0 0h4.312v1.839H0z"/></g></g><g data-name="그룹 393827"><g data-name="그룹 393826" clip-path="url(#Q)" fill="#72010c" transform="translate(30 23)"><path data-name="패스 799825" d="M9.975 14.801l-5.191-.551a70.05 70.05 0 018.891-4.333l6.294.353z"/><path data-name="패스 799826" d="M19.97 15.5l-9.995 4.153-8.094-1.01c-.028-.335-.046-.643-.063-.926l8.157-2.876z"/><path data-name="패스 799827" d="M9.975 19.691l9.994 1.038-9.994 3.777-7.524-1.243c-.069-.4-.127-.785-.181-1.162z"/><path data-name="패스 799828" d="M19.97 25.96l-9.995 3.4L3.445 28a60.512 60.512 0 01-.378-1.582l6.908-1.872z"/><path data-name="패스 799829" d="M19.974 31.191l-10 3.022-5.046-1.307a57.379 57.379 0 01-.729-2.208l5.775-1.3z"/><path data-name="패스 799830" d="M19.97 36.42l-9.995 2.644-2.9-.978a51.695 51.695 0 01-1.362-3.109l4.266-.727z"/><path data-name="패스 799831" d="M19.97 41.651l-9.8 2.229a51.7 51.7 0 01-2.5-4.6l2.309-.18z"/><path data-name="패스 799832" d="M13.373 48.221a45.446 45.446 0 01-3.1-4.17l9.692 2.83z"/><path data-name="패스 799833" d="M17.667 52.534c-.646-.581-1.264-1.31-1.859-1.912l4.161 1.491z"/></g></g><g data-name="그룹 393829"><g data-name="그룹 393828" clip-path="url(#ai)" transform="translate(34.981 32.883)"><path data-name="사각형 304714" fill="url(#d)" d="M0 0h15.757v4.778H0z"/></g></g><g data-name="그룹 393831"><g data-name="그룹 393830" clip-path="url(#aj)" transform="translate(31.905 37.513)"><path data-name="사각형 304715" fill="url(#ak)" d="M0 0h18.833v4.99H0z"/></g></g><g data-name="그룹 393833"><g data-name="그룹 393832" clip-path="url(#al)" transform="translate(32.375 42.349)"><path data-name="사각형 304716" fill="url(#am)" d="M0 0h18.363v4.99H0z"/></g></g><g data-name="그룹 393835"><g data-name="그룹 393834" clip-path="url(#an)" transform="translate(33.201 47.186)"><path data-name="사각형 304717" fill="url(#ao)" d="M0 0h17.537v4.989H0z"/></g></g><g data-name="그룹 393837"><g data-name="그룹 393836" clip-path="url(#ap)" transform="translate(34.376 52.022)"><path data-name="사각형 304718" fill="url(#aq)" d="M0 0h16.362v4.99H0z"/></g></g><g data-name="그룹 393839"><g data-name="그룹 393838" clip-path="url(#ar)" transform="translate(35.939 56.857)"><path data-name="사각형 304719" fill="url(#as)" d="M0 0h14.799v4.99H0z"/></g></g><g data-name="그룹 393841"><g data-name="그룹 393840" clip-path="url(#at)" transform="translate(37.563 61.694)"><path data-name="사각형 304720" fill="url(#au)" d="M0 0h12.772v4.955H0z"/></g></g><g data-name="그룹 393843"><g data-name="그룹 393842" clip-path="url(#av)" transform="translate(40.172 66.324)"><path data-name="사각형 304721" fill="url(#aw)" d="M0 0h10.073v4.334H0z"/></g></g><g data-name="그룹 393845"><g data-name="그룹 393844" clip-path="url(#ax)" transform="translate(45.749 73.416)"><path data-name="사각형 304722" fill="url(#ay)" d="M0 0h4.348v1.853H0z"/></g></g><g data-name="그룹 393847"><g data-name="그룹 393846" clip-path="url(#Q)" transform="translate(30 23)"><path data-name="패스 799843" d="M20.032 55.318l.514-.374a47.717 47.717 0 0016.532-25.657 82.025 82.025 0 002.421-16.103l-.013-.437-.327-.266A64.052 64.052 0 0020.291.933l-.259-.086v7.367c1.721.56 11.658 3.906 17.727 8.429-.019 3.219-1.456 24.1-17.727 37.07z" fill="#231f20"/><path data-name="패스 799844" d="M20.031 53.713C3.761 40.743 2.324 19.862 2.306 16.643c6.068-4.522 16.005-7.868 17.727-8.429V.847l-.259.085A64.076 64.076 0 00.906 12.479l-.326.268-.014.436a82.035 82.035 0 002.42 16.1 47.713 47.713 0 0016.532 25.661l.513.374z" fill="#002551"/></g></g><g data-name="그룹 393849"><g data-name="그룹 393848" clip-path="url(#az)" transform="translate(49.287 23.334)"><path data-name="사각형 304724" fill="url(#aA)" d="M0 0h20.498v55.299H0z"/></g></g><g data-name="그룹 393851"><g data-name="그룹 393850" clip-path="url(#aB)" transform="translate(30.253 23.334)"><path data-name="사각형 304725" transform="translate(-.009)" fill="url(#aC)" d="M0 0h20.497v55.299H0z"/></g></g><g data-name="그룹 393853"><g data-name="그룹 393852" clip-path="url(#aD)" transform="translate(47.209 24.484)"><path data-name="사각형 304726" fill="url(#aE)" d="M0 0h2.858v5.626H0z"/></g></g><g data-name="그룹 393855"><g data-name="그룹 393854" clip-path="url(#aF)" transform="translate(49.96 24.484)"><path data-name="사각형 304727" fill="url(#aG)" d="M0 0h2.821v5.626H0z"/></g></g></svg>