<svg xmlns="http://www.w3.org/2000/svg" xmlns:xlink="http://www.w3.org/1999/xlink" width="100" height="100" viewBox="0 0 100 100">
  <defs>
    <clipPath id="clip-path">
      <rect id="사각형_299578" data-name="사각형 299578" width="56" height="56" fill="none"/>
    </clipPath>
  </defs>
  <g id="car_logo_bmw" transform="translate(-219 -155)">
    <g id="W_100_H_100" data-name="W 100 H 100" transform="translate(219 155)" fill="#f9f9f9" stroke="#f0f0f0" stroke-width="1" opacity="0">
      <rect width="100" height="100" stroke="none"/>
      <rect x="0.5" y="0.5" width="99" height="99" fill="none"/>
    </g>
    <g id="bmw" transform="translate(241 177)">
      <g id="그룹_390825" data-name="그룹 390825" clip-path="url(#clip-path)">
        <path id="패스_789222" data-name="패스 789222" d="M54.179,28A26.179,26.179,0,1,1,28,1.822,26.179,26.179,0,0,1,54.179,28M28,0A28,28,0,1,0,56,28,28,28,0,0,0,28,0" transform="translate(0 -0.001)" fill="#747370"/>
        <path id="패스_789223" data-name="패스 789223" d="M47.148,62.83A15.7,15.7,0,0,1,31.466,47.147h-.91A16.594,16.594,0,0,0,47.148,63.741m0-33.186v.91A15.7,15.7,0,0,1,62.831,47.147h.91A16.594,16.594,0,0,0,47.148,30.555" transform="translate(-19.148 -19.148)" fill="#747370"/>
        <path id="패스_789224" data-name="패스 789224" d="M105.662,29.074c.38.405.928,1.058,1.235,1.455l5.664-3.571c-.283-.367-.733-.926-1.071-1.32L107.9,27.995l-.245.209.183-.265,1.584-3.139-1.12-1.113-3.163,1.573-.267.181.212-.244,2.374-3.561c-.418-.352-.819-.676-1.331-1.068l-3.6,5.621c.455.348,1.056.859,1.439,1.207l3.385-1.745.217-.158-.159.215Z" transform="translate(-64.255 -12.89)" fill="#747370"/>
        <path id="패스_789225" data-name="패스 789225" d="M68.344,14.863l1.548-3.444.1-.305-.028.319.163,4.6c.543.05,1.1.126,1.656.217L71.53,9.437q-1.16-.128-2.313-.178l-1.525,3.759-.054.279-.055-.279L66.061,9.259q-1.155.049-2.313.178L63.5,16.252c.553-.091,1.113-.165,1.656-.217l.163-4.6-.028-.319.1.305,1.547,3.444Z" transform="translate(-39.791 -5.802)" fill="#747370"/>
        <path id="패스_789226" data-name="패스 789226" d="M24.515,30.177s1.839-1.931,2.439-2.548a2.248,2.248,0,0,1,.556-.474.634.634,0,0,1,.651.013.568.568,0,0,1,.247.6,1.779,1.779,0,0,1-.476.74L25.495,31.1Zm-1.894-1.784A30,30,0,0,1,25.1,25.712a1.28,1.28,0,0,1,.505-.32.6.6,0,0,1,.719.46,1.054,1.054,0,0,1-.36.889c-.515.577-2.4,2.539-2.4,2.539Zm6.308,1.114c.895-.936,1.4-2.017.507-3.05a1.752,1.752,0,0,0-1.982-.407l-.067.027.021-.059a1.618,1.618,0,0,0-.564-1.7,1.693,1.693,0,0,0-1.252-.346c-.84.085-1.487.655-3.247,2.6-.531.588-1.3,1.516-1.768,2.117l4.834,4.554c1.6-1.761,2.255-2.416,3.518-3.737" transform="translate(-12.895 -15.015)" fill="#747370"/>
        <path id="패스_789227" data-name="패스 789227" d="M47.148,30.555V47.147H30.556A16.585,16.585,0,0,1,47.148,30.555" transform="translate(-19.148 -19.148)" fill="#005caa"/>
        <path id="패스_789228" data-name="패스 789228" d="M91.593,75A16.585,16.585,0,0,1,75,91.593V75Z" transform="translate(-47 -47)" fill="#005caa"/>
      </g>
    </g>
  </g>
</svg>
