<svg xmlns="http://www.w3.org/2000/svg" width="100" height="100"><defs><clipPath id="a"><path data-name="사각형 299578" fill="none" d="M0 0h56v56H0z"/></clipPath></defs><g data-name="그룹 390825" clip-path="url(#a)" transform="translate(22 22)"><path data-name="패스 789222" d="M54.179 27.999A26.179 26.179 0 1128 1.821a26.179 26.179 0 0126.179 26.178M28-.001a28 28 0 1028 28 28 28 0 00-28-28" fill="#747370"/><path data-name="패스 789223" d="M28 43.682a15.7 15.7 0 01-15.682-15.683h-.91A16.594 16.594 0 0028 44.593m0-33.186v.91a15.7 15.7 0 0115.683 15.682h.91A16.594 16.594 0 0028 11.407" fill="#747370"/><path data-name="패스 789224" d="M41.407 16.184c.38.405.928 1.058 1.235 1.455l5.664-3.571a37.461 37.461 0 00-1.071-1.32l-3.59 2.357-.245.209.183-.265 1.584-3.139-1.12-1.113-3.163 1.573-.267.181.212-.244 2.374-3.561a35.072 35.072 0 00-1.331-1.068l-3.6 5.621a25.41 25.41 0 011.439 1.207l3.385-1.745.217-.158-.159.215z" fill="#747370"/><path data-name="패스 789225" d="M28.553 9.061l1.548-3.444.1-.305-.028.319.163 4.6c.543.05 1.1.126 1.656.217l-.253-6.813q-1.16-.128-2.313-.178l-1.525 3.759-.054.279-.055-.279-1.522-3.759q-1.155.049-2.313.178l-.248 6.815a24.887 24.887 0 011.656-.217l.163-4.6-.028-.319.1.305 1.547 3.444z" fill="#747370"/><path data-name="패스 789226" d="M11.62 15.162s1.839-1.931 2.439-2.548a2.248 2.248 0 01.556-.474.634.634 0 01.651.013.568.568 0 01.247.6 1.779 1.779 0 01-.476.74L12.6 16.085zm-1.894-1.784a30 30 0 012.479-2.681 1.28 1.28 0 01.505-.32.6.6 0 01.719.46 1.054 1.054 0 01-.36.889c-.515.577-2.4 2.539-2.4 2.539zm6.308 1.114c.895-.936 1.4-2.017.507-3.05a1.752 1.752 0 00-1.982-.407l-.067.027.021-.059a1.618 1.618 0 00-.564-1.7 1.693 1.693 0 00-1.252-.346c-.84.085-1.487.655-3.247 2.6a44.74 44.74 0 00-1.768 2.117l4.834 4.554c1.6-1.761 2.255-2.416 3.518-3.737" fill="#747370"/><path data-name="패스 789227" d="M28 11.407v16.592H11.408A16.585 16.585 0 0128 11.407" fill="#005caa"/><path data-name="패스 789228" d="M44.593 28A16.585 16.585 0 0128 44.593V28z" fill="#005caa"/></g></svg>