<svg xmlns="http://www.w3.org/2000/svg" width="100" height="100"><defs><clipPath id="a"><path data-name="사각형 299367" fill="rgba(0,0,0,0)" d="M0 0h80v27.68H0z"/></clipPath></defs><g data-name="그룹 390313" transform="translate(10 47)" clip-path="url(#a)"><path data-name="패스 787720" d="M66.16 0a13.789 13.789 0 00-8.72 3.095 13.832 13.832 0 00-17.44 0 13.833 13.833 0 00-17.44 0 13.84 13.84 0 100 21.491 13.833 13.833 0 0017.44 0 13.832 13.832 0 0017.44 0A13.839 13.839 0 1066.16 0m-8.72 20.06a10.7 10.7 0 010-12.44 10.7 10.7 0 010 12.44m-17.44 0a10.7 10.7 0 010-12.44 10.7 10.7 0 010 12.44m-17.44 0a10.7 10.7 0 010-12.44 10.7 10.7 0 010 12.44M3.127 13.841a10.711 10.711 0 0117.234-8.5 13.825 13.825 0 000 17 10.713 10.713 0 01-17.234-8.5m21.634 8.5a13.83 13.83 0 000-17 10.7 10.7 0 0113.041 0 13.822 13.822 0 000 17 10.712 10.712 0 01-13.041 0m17.441 0a13.831 13.831 0 000-17 10.7 10.7 0 0113.04 0 13.827 13.827 0 000 17 10.71 10.71 0 01-13.04 0m23.958 2.211a10.677 10.677 0 01-6.52-2.213 13.827 13.827 0 000-17 10.712 10.712 0 116.52 19.21" fill="#231815"/></g></svg>