<svg xmlns="http://www.w3.org/2000/svg" xmlns:xlink="http://www.w3.org/1999/xlink" width="100" height="100" viewBox="0 0 100 100">
  <defs>
    <clipPath id="clip-path">
      <path id="패스_789335" data-name="패스 789335" d="M37.758,13.412l-2.961,3.8-2.959-3.8c-4.624-.175-15.267.165-21.72,2.781.89,1.694,4.763,4.1,6.89,4.639.123-3.328,4.821-4.023,9.334-4.023L34.8,62.22l8.456-45.411c4.508,0,9.207.695,9.33,4.023,2.128-.535,6-2.945,6.9-4.639-5.565-2.257-14.25-2.82-19.5-2.82-.836,0-1.585.014-2.221.039" transform="translate(-10.118 -13.373)" fill="#000111"/>
    </clipPath>
    <clipPath id="clip-path-2">
      <path id="패스_789337" data-name="패스 789337" d="M34.8,7.5q-2.313,0-4.619.065C22.232,7.79,14.284,8.716,6.8,11.5L8.47,14.186c6.337-2.44,13.857-3.612,21.8-3.874,3-.1,6.062-.1,9.064,0,7.936.262,15.458,1.434,21.8,3.874L62.8,11.5C55.314,8.716,47.363,7.79,39.422,7.565Q37.115,7.5,34.8,7.5Z" transform="translate(-6.798 -7.5)" fill="#000111"/>
    </clipPath>
  </defs>
  <g id="car_logo_tesla" transform="translate(-219 -155)">
    <g id="W_100_H_100" data-name="W 100 H 100" transform="translate(219 155)" fill="#f9f9f9" stroke="#f0f0f0" stroke-width="1" opacity="0">
      <rect width="100" height="100" stroke="none"/>
      <rect x="0.5" y="0.5" width="99" height="99" fill="none"/>
    </g>
    <g id="tesla" transform="translate(234.202 172.5)">
      <g id="그룹_390841" data-name="그룹 390841" transform="translate(10.118 13.373)">
        <path id="패스_789334" data-name="패스 789334" d="M37.758,13.412l-2.961,3.8-2.959-3.8c-4.624-.175-15.267.165-21.72,2.781.89,1.694,4.763,4.1,6.89,4.639.123-3.328,4.821-4.023,9.334-4.023L34.8,62.22l8.456-45.411c4.508,0,9.207.695,9.33,4.023,2.128-.535,6-2.945,6.9-4.639-5.565-2.257-14.25-2.82-19.5-2.82-.836,0-1.585.014-2.221.039" transform="translate(-10.118 -13.373)" fill="#000111"/>
        <g id="그룹_390840" data-name="그룹 390840" clip-path="url(#clip-path)">
          <rect id="사각형_299593" data-name="사각형 299593" width="49.359" height="48.983" transform="translate(0 -0.136)" fill="#000111"/>
        </g>
      </g>
      <g id="그룹_390843" data-name="그룹 390843" transform="translate(6.798 7.5)">
        <path id="패스_789336" data-name="패스 789336" d="M34.8,7.5q-2.313,0-4.619.065C22.232,7.79,14.284,8.716,6.8,11.5L8.47,14.186c6.337-2.44,13.857-3.612,21.8-3.874,3-.1,6.062-.1,9.064,0,7.936.262,15.458,1.434,21.8,3.874L62.8,11.5C55.314,8.716,47.363,7.79,39.422,7.565Q37.115,7.5,34.8,7.5Z" transform="translate(-6.798 -7.5)" fill="#000111"/>
        <g id="그룹_390842" data-name="그룹 390842" clip-path="url(#clip-path-2)">
          <rect id="사각형_299594" data-name="사각형 299594" width="56" height="6.686" transform="translate(0)" fill="#000111"/>
        </g>
      </g>
    </g>
  </g>
</svg>
