<svg xmlns="http://www.w3.org/2000/svg" xmlns:xlink="http://www.w3.org/1999/xlink" width="100" height="100"><defs><linearGradient id="f" x1=".5" y1="1" x2=".5" gradientUnits="objectBoundingBox"><stop offset="0" stop-color="#666"/><stop offset=".5" stop-color="#8c8c8c"/><stop offset="1" stop-color="#e6e6e6"/></linearGradient><linearGradient id="g" x1="1" y1=".5" x2="0" y2=".5" gradientUnits="objectBoundingBox"><stop offset="0"/><stop offset=".35"/><stop offset=".6" stop-color="#ededed"/><stop offset="1" stop-color="#ededed"/></linearGradient><linearGradient id="h" x1=".5" y1="1" x2=".5" gradientUnits="objectBoundingBox"><stop offset="0"/><stop offset="1" stop-color="#666"/></linearGradient><linearGradient id="i" y1=".5" x2="1" y2=".5" gradientUnits="objectBoundingBox"><stop offset="0"/><stop offset=".15"/><stop offset=".5" stop-color="#ededed"/><stop offset="1" stop-color="#ededed"/></linearGradient><linearGradient id="j" x1=".5" y1="1" x2=".5" gradientUnits="objectBoundingBox"><stop offset="0"/><stop offset="1" stop-color="gray"/></linearGradient><linearGradient id="e" x1=".106" y1="1.185" x2=".894" y2="-.185" gradientUnits="objectBoundingBox"><stop offset="0" stop-color="#666"/><stop offset="1" stop-color="#e6e6e6"/></linearGradient><linearGradient id="a" x1=".5" y1="1" x2=".5" gradientUnits="objectBoundingBox"><stop offset="0"/><stop offset="1" stop-color="#4d4d4d"/></linearGradient><linearGradient id="k" y1=".5" x2="1" y2=".5" gradientUnits="objectBoundingBox"><stop offset="0" stop-color="#ededed"/><stop offset="1" stop-color="#ccc"/></linearGradient><linearGradient id="d" x1=".513" y1=".529" x2=".45" y2=".471" gradientUnits="objectBoundingBox"><stop offset="0" stop-color="#4d4d4d"/><stop offset="1"/></linearGradient><linearGradient id="c" x1=".5" x2=".5" y2="1" gradientUnits="objectBoundingBox"><stop offset="0" stop-color="#ededed"/><stop offset="1" stop-color="#d9d9d9"/></linearGradient><linearGradient id="l" x1=".531" y1=".528" x2=".469" y2=".472" xlink:href="#a"/><linearGradient id="m" x1=".469" y1=".528" x2=".531" y2=".472" xlink:href="#a"/><linearGradient id="b" x1=".5" x2=".5" y2="1" gradientUnits="objectBoundingBox"><stop offset="0"/><stop offset="1" stop-color="#ededed"/></linearGradient><linearGradient id="n" x1="0" y1=".5" x2="1" y2=".5" xlink:href="#a"/><linearGradient id="o" x1=".5" y1="1" x2=".5" gradientUnits="objectBoundingBox"><stop offset="0" stop-color="#bfbfbf"/><stop offset="1" stop-color="#e6e6e6"/></linearGradient><linearGradient id="p" x1="1" y1=".5" x2="0" y2=".5" xlink:href="#b"/><linearGradient id="q" x1=".485" y1=".5" x2=".53" y2=".519" xlink:href="#a"/><linearGradient id="r" x1="0" y1=".5" x2="1" y2=".5" xlink:href="#c"/><linearGradient id="s" x1=".346" y1=".438" x2=".654" y2=".562" xlink:href="#d"/><linearGradient id="t" x1=".346" y1=".562" x2=".654" y2=".438" xlink:href="#a"/><linearGradient id="u" x1="1" y1=".5" x2="0" y2=".5" xlink:href="#e"/><linearGradient id="v" y1=".5" x2="1" y2=".5" gradientUnits="objectBoundingBox"><stop offset="0" stop-color="#ededed"/><stop offset="1" stop-color="#bfbfbf"/></linearGradient><linearGradient id="w" x1=".478" y1=".524" x2=".506" y2=".476" xlink:href="#a"/></defs><path data-name="패스 804315" d="M256.326 255.234a29.578 29.578 0 1158.743 0h3.444a33 33 0 10-65.633 0z" transform="translate(-235.698 -187.234)" fill="url(#f)"/><path data-name="패스 804316" d="M17.726 67.403a32.188 32.188 0 01-.129-2.875 32.407 32.407 0 0164.807 0c0 .967-.044 1.928-.129 2.875h-2.249q.138-1.419.139-2.875a30.167 30.167 0 00-60.328 0q0 1.456.139 2.875z" fill="none"/><path data-name="패스 804317" d="M265.806 264.718a29.235 29.235 0 01-.175-3.2 29.818 29.818 0 0159.628 0 29.137 29.137 0 01-.175 3.2l.365-.324q.138-1.417.139-2.871a30.147 30.147 0 00-60.287 0q0 1.454.139 2.871l.365.324z" transform="translate(-245.445 -196.982)" fill="url(#g)"/><path data-name="패스 804318" d="M254.569 379.491l.3-.332h2.27l.369.332z" transform="translate(-237.145 -311.755)" fill="url(#h)"/><path data-name="패스 804319" d="M319.177 255.871c.1-1.052.159-2.123.159-3.2a32.739 32.739 0 00-65.472 0c0 1.077.053 2.15.158 3.2l.3-.325a32.233 32.233 0 01-.129-2.877 32.41 32.41 0 0164.813 0c0 .968-.044 1.929-.129 2.877l.3.325z" transform="translate(-236.6 -188.136)" fill="url(#i)"/><path data-name="패스 804320" d="M531.724 379.49l.365-.332h2.27l.3.332z" transform="translate(-452.086 -311.755)" fill="url(#j)"/><path data-name="패스 804321" d="M31.596 61.326l3.458-3.458h4.9v10.131h-5.226v-4.018l-3.136 3.136-3.136-3.136v4.021H23.23V57.869h4.9l3.457 3.458z" fill="#b5b5b5"/><path data-name="패스 804322" d="M290.612 343.436l-3.705-3.706h-4.058v8.933h4.028V343.8l3.735 3.735 3.735-3.735v4.867h4.028v-8.937h-4.057l-3.706 3.706z" transform="translate(-259.015 -281.263)" fill="url(#e)"/><path data-name="패스 804323" d="M332.116 379.479l.332-.332h4.028l.332.332z" transform="translate(-297.291 -311.746)" fill="url(#a)"/><path data-name="패스 804324" d="M23.501 58.355l.332.332h4.058l.138-.332z" fill="#fff"/><path data-name="패스 804325" d="M300.891 338.264l-.138.332 3.705 3.706v-.47l-3.568-3.568z" transform="translate(-272.966 -279.979)" fill="url(#k)"/><path data-name="패스 804326" d="M317.1 341.832v.47l3.706-3.706-.138-.332-3.568 3.568z" transform="translate(-285.645 -279.979)" fill="url(#d)"/><path data-name="패스 804327" d="M39.517 58.355l-.332.332h-4.057l-.138-.332z" fill="#fff"/><path data-name="패스 804328" d="M351.689 338.264l-.332.332v8.933l.332.332v-9.6z" transform="translate(-312.199 -280.129)" fill="url(#c)"/><path data-name="패스 804329" d="M34.836 67.733l.332-.332v-4.868l-.332.8v4.4z"/><path data-name="패스 804330" d="M317.1 361.875v-.47l3.735-3.735-.332.8-3.4 3.4z" transform="translate(-285.645 -295.137)" fill="url(#l)"/><path data-name="패스 804331" d="M304.357 361.875v-.47l-3.735-3.735.333.8 3.4 3.4z" transform="translate(-272.864 -295.137)" fill="url(#m)"/><path data-name="패스 804332" d="M300.955 362.87l-.333-.332v-4.868l.333.8v4.4z" transform="translate(-272.761 -295.137)" fill="url(#b)"/><path data-name="패스 804333" d="M286.075 379.479l-.333-.332h-4.028l-.332.332z" transform="translate(-257.881 -311.746)" fill="url(#a)"/><path data-name="패스 804334" d="M281.382 338.264l.332.332v8.933l-.332.332v-9.6z" transform="translate(-257.881 -280.129)" fill="url(#n)"/><g data-name="그룹 398273"><path data-name="패스 804335" d="M52.787 57.861L59.387 68h-5.391l-.734-1.135h-6.5L46.028 68h-5.392l6.6-10.139zm-1.246 6.32l-1.53-2.365-1.53 2.365z" fill="#b5b5b5" fill-rule="evenodd"/><path data-name="패스 804336" d="M368.989 339.685l-5.822 8.946h3.967l.734-1.135h7.148l.734 1.135h3.966l-5.822-8.946zm2.453 2.261l2.623 4.054h-5.248l2.624-4.055z" transform="translate(-321.43 -281.228)" fill="url(#o)"/><path data-name="패스 804337" d="M390.723 349.66v.612l-2.013 3.111-.611.332 2.624-4.055z" transform="translate(-340.712 -288.942)" fill="url(#p)"/><path data-name="패스 804338" d="M366.717 338.219l.18.332-5.822 8.946-.613.332 6.255-9.611z" transform="translate(-319.338 -280.094)" fill="url(#q)"/><path data-name="패스 804339" d="M393.347 366.42l-.611-.332h-4.026l-.611.332z" transform="translate(-340.712 -301.647)" fill="url(#r)"/><path data-name="패스 804340" d="M402.3 353.715l-.611-.332-2.013-3.111v-.612l2.624 4.055z" transform="translate(-349.666 -288.942)" fill="url(#n)"/><path data-name="패스 804341" d="M365.222 379.491l-.181-.332h-3.967l-.613.332z" transform="translate(-319.338 -311.755)" fill="url(#a)"/><path data-name="패스 804342" d="M380.85 375.618l-.181-.332.734-1.135.181.333-.734 1.134z" transform="translate(-334.966 -307.882)" fill="url(#s)"/><path data-name="패스 804343" d="M390.874 374.483l.181-.333h-7.148l.181.333z" transform="translate(-337.47 -307.882)" fill="url(#a)"/><path data-name="패스 804344" d="M414.648 374.483l.181-.333.734 1.135-.181.332-.734-1.134z" transform="translate(-361.244 -307.882)" fill="url(#t)"/><path data-name="패스 804345" d="M422.646 379.491l-.613-.332h-3.967l-.181.332z" transform="translate(-363.748 -311.755)" fill="url(#a)"/><path data-name="패스 804346" d="M416.932 347.83l-.613-.332-5.822-8.946.181-.332 6.254 9.611z" transform="translate(-358.034 -280.094)" fill="url(#r)"/><path data-name="패스 804347" d="M47.378 58.125l.18.332h4.9l.181-.332z" fill="#fff"/></g><g data-name="그룹 398274"><path data-name="패스 804348" d="M71.445 57.869h5.226V68h-5.226l-6.191-4.583V68h-5.227V57.869h5.187l6.232 4.623v-4.623z" fill="#b5b5b5"/><path data-name="패스 804349" d="M459.255 339.73v5.215l-7.029-5.215h-4.389v8.933h4.029v-5.173l6.988 5.173h4.43v-8.933z" transform="translate(-387.211 -281.263)" fill="url(#u)"/><path data-name="패스 804350" d="M446.37 338.264l.332.332v8.933l-.332.332v-9.6z" transform="translate(-386.076 -280.128)" fill="url(#n)"/><path data-name="패스 804351" d="M60.294 58.136l.332.332h4.389l.11-.332z" fill="#fff"/><path data-name="패스 804352" d="M473.9 343.15l.332.661-7.032-5.211.11-.332 6.586 4.886z" transform="translate(-402.187 -280.128)" fill="url(#v)"/><path data-name="패스 804353" d="M496.749 343.15l.332.661V338.6l-.332-.332v4.886z" transform="translate(-425.037 -280.128)" fill="url(#n)"/><path data-name="패스 804354" d="M76.405 58.136l-.332.332h-4.028l-.332-.332z" fill="#fff"/><path data-name="패스 804355" d="M516.322 338.264l-.332.332v8.933l.332.332v-9.6z" transform="translate(-439.917 -280.128)" fill="url(#r)"/><path data-name="패스 804356" d="M495.96 379.479l.11-.332h4.43l.332.332z" transform="translate(-424.427 -311.746)" fill="url(#a)"/><path data-name="패스 804357" d="M472.49 361.826l.11-.332-6.988-5.173.332.66 6.546 4.846z" transform="translate(-400.957 -294.093)" fill="url(#w)"/><path data-name="패스 804358" d="M465.944 361.826l-.332-.332v-5.174l.332.66v4.846z" transform="translate(-400.957 -294.093)" fill="url(#b)"/><path data-name="패스 804359" d="M451.063 379.479l-.332-.332H446.7l-.332.332z" transform="translate(-386.076 -311.746)" fill="url(#a)"/></g></svg>