<svg xmlns="http://www.w3.org/2000/svg" xmlns:xlink="http://www.w3.org/1999/xlink" width="100" height="100" viewBox="0 0 100 100">
  <defs>
    <clipPath id="clip-path">
      <rect id="사각형_299583" data-name="사각형 299583" width="76" height="33.397" fill="none"/>
    </clipPath>
  </defs>
  <g id="car_logo_mini" transform="translate(-219 -155)">
    <g id="W_100_H_100" data-name="W 100 H 100" transform="translate(219 155)" fill="#f9f9f9" stroke="#f0f0f0" stroke-width="1" opacity="0">
      <rect width="100" height="100" stroke="none"/>
      <rect x="0.5" y="0.5" width="99" height="99" fill="none"/>
    </g>
    <g id="mini" transform="translate(231 188)">
      <g id="그룹_390829" data-name="그룹 390829" transform="translate(0 0)" clip-path="url(#clip-path)">
        <path id="패스_789232" data-name="패스 789232" d="M76,7.748H52.03a16.693,16.693,0,0,0-28.188,0H0l2.426,2.43H22.559a16.59,16.59,0,0,0-.886,2.736H5.157l2.426,2.43H21.3c-.036.447-.059.9-.059,1.354s.024.926.062,1.383H10.314l2.426,2.43H21.68a16.606,16.606,0,0,0,.892,2.737h-7.1l2.426,2.43h5.965a16.692,16.692,0,0,0,28.149,0H58.1l2.426-2.43H53.3a16.607,16.607,0,0,0,.892-2.737h9.07l2.425-2.43H54.573c.038-.457.062-.917.062-1.383s-.023-.907-.059-1.354H68.418l2.426-2.43H54.2a16.589,16.589,0,0,0-.885-2.736H73.574ZM38,30.984A14.258,14.258,0,1,1,52.258,16.726,14.258,14.258,0,0,1,38,30.984" transform="translate(0 0)" fill="#221e1f"/>
        <path id="패스_789233" data-name="패스 789233" d="M73.968,39.918l-1.936-5.855H69.838v7.522h1.6V36.007l1.689,5.578H74.79l1.7-5.578v5.578h1.6V34.063h-2.2Z" transform="translate(-43.299 -21.119)" fill="#221e1f"/>
        <path id="패스_789234" data-name="패스 789234" d="M109.627,39.571l-3.015-5.509H104.84v7.522h1.488V36.312l3.013,5.316,1.792-.044V34.062h-1.488Z" transform="translate(-65.001 -21.119)" fill="#221e1f"/>
        <rect id="사각형_299581" data-name="사각형 299581" width="1.526" height="7.522" transform="translate(36.535 12.937)" fill="#221e1f"/>
        <rect id="사각형_299582" data-name="사각형 299582" width="1.526" height="7.522" transform="translate(47.871 12.937)" fill="#221e1f"/>
      </g>
    </g>
  </g>
</svg>
