<svg xmlns="http://www.w3.org/2000/svg" xmlns:xlink="http://www.w3.org/1999/xlink" width="100" height="100" viewBox="0 0 100 100">
  <defs>
    <clipPath id="clip-path">
      <rect id="사각형_299591" data-name="사각형 299591" width="56" height="49.375" fill="none"/>
    </clipPath>
  </defs>
  <g id="car_logo_tatadaewoo" transform="translate(-219 -155)">
    <g id="W_100_H_100" data-name="W 100 H 100" transform="translate(219 155)" fill="#f9f9f9" stroke="#f0f0f0" stroke-width="1" opacity="0">
      <rect width="100" height="100" stroke="none"/>
      <rect x="0.5" y="0.5" width="99" height="99" fill="none"/>
    </g>
    <g id="tatadaewoo" transform="translate(233.5 168.951)">
      <path id="패스_789326" data-name="패스 789326" d="M7.5,48.883v4.149h4.045V63h5.729V53.032h3.811V48.883Z" transform="translate(0 -2.571)" fill="#2062ab"/>
      <path id="패스_789327" data-name="패스 789327" d="M25.878,48.883,20.486,62.929H26l2.785-8.217,2.87,8.239h5.513L31.708,48.883Z" transform="translate(-0.884 -2.571)" fill="#2062ab"/>
      <path id="패스_789328" data-name="패스 789328" d="M36.947,48.628v4.16H41v9.957h5.725V52.788h3.806v-4.16Z" transform="translate(-1.994 -2.555)" fill="#2062ab"/>
      <path id="패스_789329" data-name="패스 789329" d="M55.079,48.628,49.685,62.686H55.2l2.785-8.217L60.855,62.7H66.37L60.912,48.628Z" transform="translate(-2.87 -2.555)" fill="#2062ab"/>
      <g id="그룹_390838" data-name="그룹 390838" transform="translate(7.5 11.049)">
        <g id="그룹_390837" data-name="그룹 390837" clip-path="url(#clip-path)">
          <path id="패스_789330" data-name="패스 789330" d="M30.585,33.594l.823-3.878c.069-.2.689-3.9.689-3.9.052-.385.225-2.071.225-2.071a1.662,1.662,0,0,0-1.344-2,9.727,9.727,0,0,0-1.833-.133c-.767-.029-5.827.476-5.827.476-2.237.244-6.774,1.157-8.01,1.415a9.55,9.55,0,0,0-.285,2.334c0,6.2,5.983,11.457,14.287,13.342.178-.662.719-3.059.719-3.059l.556-2.523" transform="translate(-8.002 -11.753)" fill="#2062ab"/>
          <path id="패스_789331" data-name="패스 789331" d="M37.128,25.033l-.021-4.578s.077-1.16.143-1.4a1.266,1.266,0,0,1,1.522-.948l2.737.135s4.266.413,4.387.436c0,0,5.484.827,6.041.972,0,0,2.773.527,4.06.843-2.868-5.5-10.681-9.443-19.86-9.443-9.2,0-17.019,3.953-19.874,9.462,1.253-.315,4.131-.861,4.131-.861.561-.145,6.045-.972,6.045-.972.12-.022,4.376-.436,4.376-.436l2.749-.135a1.255,1.255,0,0,1,1.514.948c.071.24.153,1.4.153,1.4L35.2,25.033l-.027,4.822-.1,9.335c.357.01.7.016,1.059.016s.742-.006,1.113-.021l-.087-9.331-.035-4.822" transform="translate(-8.084 -11.049)" fill="#2062ab"/>
          <path id="패스_789332" data-name="패스 789332" d="M44.789,21.61a9.792,9.792,0,0,0-1.828.131,1.659,1.659,0,0,0-1.344,2s.17,1.687.226,2.072c0,0,.617,3.7.685,3.9l.825,3.877.555,2.523s.532,2.368.709,3.036C52.9,37.266,58.85,32.01,58.85,25.834a9.284,9.284,0,0,0-.3-2.349c-1.327-.274-5.731-1.163-7.936-1.4,0,0-5.061-.5-5.827-.475" transform="translate(-9.774 -11.753)" fill="#2062ab"/>
        </g>
      </g>
    </g>
  </g>
</svg>
