<svg xmlns="http://www.w3.org/2000/svg" xmlns:xlink="http://www.w3.org/1999/xlink" width="100" height="100"><defs><linearGradient id="a" y1=".5" x2=".999" y2=".5" gradientUnits="objectBoundingBox"><stop offset="0" stop-color="#57606b"/><stop offset=".007" stop-color="#606873"/><stop offset=".042" stop-color="#8a9098"/><stop offset=".078" stop-color="#aeb2b7"/><stop offset=".116" stop-color="#cbced1"/><stop offset=".157" stop-color="#e2e3e5"/><stop offset=".2" stop-color="#f2f3f3"/><stop offset=".249" stop-color="#fcfcfc"/><stop offset=".315" stop-color="#fff"/><stop offset=".627" stop-color="#fff"/><stop offset=".68" stop-color="#fff"/><stop offset="1" stop-color="#57606b"/></linearGradient><linearGradient id="c" x1="0" y1=".5" x2=".999" y2=".5" xlink:href="#a"/><linearGradient id="b" x1=".523" y1="-.056" x2=".456" y2=".985" gradientUnits="objectBoundingBox"><stop offset=".152" stop-color="#fff"/><stop offset=".21" stop-color="#e0e2e4"/><stop offset=".335" stop-color="#9399a0"/><stop offset=".427" stop-color="#57606b"/><stop offset=".429" stop-color="#59626c"/><stop offset=".475" stop-color="#8b9199"/><stop offset=".52" stop-color="#b4b8bd"/><stop offset=".564" stop-color="#d5d7da"/><stop offset=".606" stop-color="#ecedee"/><stop offset=".645" stop-color="#fafafa"/><stop offset=".68" stop-color="#fff"/><stop offset="1" stop-color="#57606b"/></linearGradient><linearGradient id="d" x1=".543" y1=".017" x2=".478" y2="1.058" gradientUnits="objectBoundingBox"><stop offset="0" stop-color="#fff"/><stop offset=".058" stop-color="#e0e2e4"/><stop offset=".183" stop-color="#9399a0"/><stop offset=".275" stop-color="#57606b"/><stop offset=".295" stop-color="#737b84"/><stop offset=".332" stop-color="#a5a9af"/><stop offset=".368" stop-color="#ccced2"/><stop offset=".4" stop-color="#e8e9ea"/><stop offset=".428" stop-color="#f9f9f9"/><stop offset=".449" stop-color="#fff"/><stop offset=".507" stop-color="#e4e5e7"/><stop offset=".627" stop-color="#b2b6bb"/><stop offset=".74" stop-color="#8a9098"/><stop offset=".844" stop-color="#6e767f"/><stop offset=".933" stop-color="#5d6570"/><stop offset="1" stop-color="#57606b"/></linearGradient><linearGradient id="e" x1=".5" y1="1" x2=".5" y2="0" xlink:href="#b"/></defs><g data-name="그룹 1"><path data-name="패스 1" d="M1082.314 217.409l1.19-1.674a.148.148 0 00.011-.15.153.153 0 00-.128-.083l-2.109-.119c-9.492-.757-16.211-4.41-16.721-9.09a6.915 6.915 0 011.8-5.141c3.616-4.448 12.073-7.961 21.542-8.95a53.007 53.007 0 014.835-.282c1.148-.013 2.3.014 3.408.081a.151.151 0 00.134-.067l4.236-6.4a.147.147 0 00.006-.153.149.149 0 00-.134-.076 93.473 93.473 0 00-7.482.484c-15.6 1.629-29.094 6.879-34.376 13.375a8.46 8.46 0 00-2.222 6.272c.706 6.486 10.862 11.209 25.874 12.032a.149.149 0 00.136-.059z" transform="translate(-1039.271 -153.31)" fill="url(#a)"/><path data-name="패스 2" d="M1151.3 212.311c-.682-6.267-11.022-10.845-26.343-11.662a.151.151 0 00-.129.06l-1.195 1.627a.147.147 0 00.109.235l1.833.131.8.055c9.485.7 16.19 4.222 16.683 8.754a6.587 6.587 0 01-1.751 4.862c-3.705 4.557-12.608 8.289-22.153 9.285-.051 0-5.6.4-8.017.4a.149.149 0 00-.122.063l-3.972 5.617a.146.146 0 00-.009.155.149.149 0 00.135.078 96.967 96.967 0 007.481-.493c15.785-1.648 29.344-6.847 34.546-13.243a7.993 7.993 0 002.104-5.924z" transform="translate(-1068.336 -162.362)" fill="url(#c)"/></g><path data-name="패스 3" d="M1100.935 185.971a90.088 90.088 0 00-7.369.486c-20.787 2.217-36.893 11-35.974 19.625.7 6.6 11.184 11.192 25.387 11.986l1.174-1.686a43.89 43.89 0 01-2.086-.121c-9.239-.753-16.1-4.319-16.63-9.289-.692-6.491 9.678-12.919 23.163-14.357a50.594 50.594 0 014.784-.285q1.726-.019 3.372.083z" transform="translate(-1039.981 -153.676)" fill="url(#b)"/><path data-name="패스 4" d="M1111.532 227.014l-3.918 5.658a91.13 91.13 0 007.368-.5c20.787-2.217 36.916-10.787 36.026-19.142-.682-6.4-11.143-10.813-25.85-11.614l-1.179 1.639c1.218.1 1.914.135 2.6.187 9.234.7 16.08 4.134 16.594 8.95.67 6.29-10.229 12.977-23.713 14.415-.004.004-5.512.407-7.928.407z" transform="translate(-1068.668 -162.789)" fill="url(#d)"/><path data-name="패스 5" d="M1124.211 211.28c-.5-4.712-7.216-8.073-16.269-8.758-.669-.051-1.351-.087-2.546-.183l.473-2.05q-1.612-.1-3.307-.081a49.899 49.899 0 00-4.69.279c-13.221 1.407-23.388 7.7-22.71 14.048.519 4.863 7.246 8.352 16.3 9.089q1 .082 2.045.118l-1.151 1.65.832.387c2.368 0 7.768-.394 7.768-.394 13.227-1.407 23.912-7.95 23.255-14.105zm-24.053 10.51a45.045 45.045 0 01-7.657.179c-7.819-.511-13.6-3.214-14.011-7.053-.536-5.014 8.3-10.064 19.728-11.281a47.142 47.142 0 014.054-.257c9.587-.188 17.144 2.724 17.615 7.131.535 5.014-8.298 10.064-19.73 11.281z" transform="translate(-1049.709 -161.554)" fill="url(#e)"/><path data-name="패스 6" d="M42.641 63.83l.848.4-3.918 5.658z" fill="#2a3e49"/><path data-name="패스 7" d="M56.189 38.636l.7.457-1.179 1.638z" fill="#2a3e49"/></svg>