<svg xmlns="http://www.w3.org/2000/svg" width="100" height="100" viewBox="0 0 100 100">
  <g id="car_logo_mazda" transform="translate(-225 -160)">
    <g id="W_100_H_100" data-name="W 100 H 100" transform="translate(225 160)" fill="#f9f9f9" stroke="#f0f0f0" stroke-width="1" opacity="0">
      <rect width="100" height="100" stroke="none"/>
      <rect x="0.5" y="0.5" width="99" height="99" fill="none"/>
    </g>
    <g id="mazda" transform="translate(-489.087 -1837.469)">
      <path id="패스_792877" data-name="패스 792877" d="M754.307,2049.8c4.287,1.786,7.145,4.287,9.735,9.913,2.591-5.626,5.359-8.485,9.736-10.271l11-3.942c.023.093.046.187.07.28a31.423,31.423,0,0,1,.268,4.287c0,15.541-10.27,18.667-21.078,18.577-10.807.091-20.988-3.036-20.988-18.577a19.476,19.476,0,0,1,.178-3.3c.053-.22.107-.439.16-.658l10.916,3.695Zm28.108-10.776-.241-.388c-3.841-5.716-10.808-7.056-18.131-7.056s-14.469,1.429-18.22,7.235l-.4.7c6.444,3.684,13.755,3.751,18.623,13.056,4.471-9.59,11.863-9.724,18.373-13.544Zm5.206-3.336-.625-.715c-5.716-6.163-15.094-7.5-22.954-7.5-7.949,0-17.6,1.34-23.221,7.859l-.268.358c-2.769,3.3-4.466,8.038-4.466,14.379,0,19.56,15.9,22.686,27.955,22.686,12.148,0,28.045-3.125,28.045-22.686,0-6.341-1.7-11.075-4.466-14.379Z" fill="#1d1d1b" fill-rule="evenodd"/>
    </g>
  </g>
</svg>
