<svg xmlns="http://www.w3.org/2000/svg" width="100" height="100"><defs><clipPath id="a"><path data-name="사각형 301580" fill="none" d="M0 0h56v53.455H0z"/></clipPath></defs><g data-name="그룹 393537" transform="translate(22 24)" clip-path="url(#a)"><path data-name="패스 793010" d="M35.729 52.893C48.682 50.826 56 42.927 56 26.737S48.682 2.637 35.729.572A48.765 48.765 0 0028 .001a48.79 48.79 0 00-7.73.571C7.327 2.639 0 10.538 0 26.737s7.327 24.089 20.27 26.156a48.829 48.829 0 007.73.562 48.8 48.8 0 007.729-.562m0-50.291c9.153 1.975 16.649 8.225 16.649 24.135 0 12.092-4.332 18.6-10.434 21.889L38.5 25.483l-2.771-7.8-5.6-15.789a34.668 34.668 0 015.6.711zm-8.786-.758c.355-.009.7-.019 1.057-.019s.7.01 1.057.019l.309 19.288h-2.732zM3.621 26.737c0-15.908 7.5-22.16 16.649-24.135a34.7 34.7 0 015.606-.711L20.27 17.678l-2.77 7.805-3.444 23.143c-6.1-3.294-10.435-9.8-10.435-21.889M20.27 50.864a24.386 24.386 0 01-5.616-1.919l5.616-11.652 6.082-12.629h3.294l6.083 12.625 5.616 11.655a24.386 24.386 0 01-5.616 1.92 39.323 39.323 0 01-15.459 0" fill-rule="evenodd"/></g></svg>