<svg xmlns="http://www.w3.org/2000/svg" xmlns:xlink="http://www.w3.org/1999/xlink" width="100" height="100" viewBox="0 0 100 100">
  <defs>
    <clipPath id="clip-path">
      <rect id="사각형_304682" data-name="사각형 304682" width="66" height="26.501" fill="none"/>
    </clipPath>
  </defs>
  <g id="car_logo_jeep" transform="translate(-225 -160)">
    <g id="W_100_H_100" data-name="W 100 H 100" transform="translate(225 160)" fill="#f9f9f9" stroke="#f0f0f0" stroke-width="1" opacity="0">
      <rect width="100" height="100" stroke="none"/>
      <rect x="0.5" y="0.5" width="99" height="99" fill="none"/>
    </g>
    <g id="jeep" transform="translate(234.5 171.546)">
      <g id="그룹_393764" data-name="그룹 393764" transform="translate(7.5 25.454)" clip-path="url(#clip-path)">
        <path id="패스_799785" data-name="패스 799785" d="M18.924,25.454h5.4V39.6c0,2.441-1.046,7.54-8.531,7.54S7.5,42.39,7.5,39.723V37.112h5.222v2.553a2.89,2.89,0,0,0,3.016,3.015c1.97,0,3.186-1.1,3.186-2.957Zm13.749,5.917c4.232,0,7.945,1.624,7.945,9.1H30.581c0,2.376.989,3.356,2.725,3.356a2.5,2.5,0,0,0,2.326-1.386h4.929c0,2.147-2.96,5.043-7.426,4.987-5.107,0-7.6-3.771-7.6-7.655s2.2-8.407,7.132-8.407m3.016,6.09a2.6,2.6,0,0,0-2.675-2.846c-1.791,0-2.432,1.272-2.432,2.846Zm13.1-6.09c4.241,0,7.944,1.624,7.944,9.1H46.707c0,2.376.979,3.356,2.722,3.356a2.484,2.484,0,0,0,2.32-1.386h4.93c0,2.147-2.96,5.043-7.421,4.987-5.107,0-7.6-3.771-7.6-7.655s2.207-8.407,7.136-8.407m3.015,6.09a2.6,2.6,0,0,0-2.666-2.846c-1.8,0-2.433,1.272-2.433,2.846Zm5.861,14.495V31.948h4.985v.81c0,1.215.641.527.7.348a4.551,4.551,0,0,1,3.771-1.564c2.5,0,6.38,1.744,6.38,7.888,0,4.751-2.318,8.238-6.324,8.238a5.3,5.3,0,0,1-3.769-1.217c-.293-.349-.7-.412-.7,0v5.5ZM62.6,39.6c-.056,2.959.574,4.524,3.015,4.524s2.781-2.666,2.781-4.695-.463-4.005-3.016-4.005c-1.564,0-2.725,1.224-2.78,4.176" transform="translate(-7.5 -25.454)" fill="#393e16" fill-rule="evenodd"/>
      </g>
    </g>
  </g>
</svg>
