<svg xmlns="http://www.w3.org/2000/svg" width="100" height="100"><g fill="#231815" fill-rule="evenodd"><path data-name="패스 789295" d="M62.345 22H37.909L22 37.909v24.245l15.782 15.845h24.309L78 62.09V37.781L62.345 21.999zm10.818 37.927L59.929 73.163H40.073L26.836 59.987V40.069l13.236-13.173h20.109l12.982 13.046v19.981z"/><path data-name="패스 789296" d="M38.122 43.638l-3.375-6.871-5.031 4.708v16.859l4.84 4.9V46.821l4.2 9.352 4.776-12.469v26.147h5.349V30.027h-5.668l-5.095 13.614z"/><path data-name="패스 789297" d="M52.584 30.024v39.824h6.113l11.59-11.515v-8.4h-8.915v4.835h3.311c.891-.127.955.891.318 1.654s-7.069 7.061-7.069 7.061v-27.1l7.514 7.825v1.908h4.84v-4.45L58.823 30.024z"/></g></svg>