<svg xmlns="http://www.w3.org/2000/svg" width="100" height="100"><defs><clipPath id="a"><path data-name="사각형 301613" transform="translate(7.5 11.305)" fill="none" d="M0 0h60v52.39H0z"/></clipPath></defs><g data-name="그룹 393598" clip-path="url(#a)" fill-rule="evenodd" transform="translate(12.5 12.695)"><path data-name="패스 793048" d="M64.011 17.927C53.26 5.675 31.973 12.406 20.5 22.133 6.527 35.146 4.286 50.4 11.537 58.545c6.2 5.783 14.9 5.52 22.415 4.731a43.59 43.59 0 0018.757-8.5 44.625 44.625 0 0012.752-16.343c4.88-10.385-.395-19.323-1.45-20.506m-12.13 35.229c-3.031 2.76-22.579 14.9-35.464 2.367-10.68-10.386-1.188-26.685 4.612-31.549 1.055-.526 7.12-7.493 18.329-8.939 8.325-1.074 15.387 1.194 19.626 5.934a16.807 16.807 0 014.106 9.314c1.319 10.779-8.175 20.117-11.209 22.873"/><path data-name="패스 793049" d="M25.149 24.436v26.618H36.29V38.172a6.159 6.159 0 00-2.374-5.126zm25.121 0v26.618H39.129V38.172a6.159 6.159 0 012.371-5.126z"/></g></svg>