<svg xmlns="http://www.w3.org/2000/svg" width="100" height="100" viewBox="0 0 100 100"><g transform="translate(-219 -155)"><g transform="translate(219 155)" fill="#f9f9f9" stroke="#f0f0f0" stroke-width="1" opacity="0"><rect width="100" height="100" stroke="none"/><rect x="0.5" y="0.5" width="99" height="99" fill="none"/></g><g transform="translate(113.638 2.932)"><path d="M162.4,170.409c8.715.006,16.951,1.805,24.248,6.809a21.216,21.216,0,0,1,6.775,7.622,13.794,13.794,0,0,1-.486,14.559,24.474,24.474,0,0,1-13.992,10.573c-6.044,1.868-12.17,3.1-18.521,2.709-6.706-.416-13.209-1.728-19.191-4.964a24.465,24.465,0,0,1-8.028-6.792c-4.268-5.657-4.445-11.9-.514-17.772a24.548,24.548,0,0,1,9.048-7.8A41.547,41.547,0,0,1,162.4,170.409Zm-26.041,24.32a80.136,80.136,0,0,1,6.445-5.566,29.719,29.719,0,0,1,15.706-5.9,36.805,36.805,0,0,1,8.2.04,35.643,35.643,0,0,1,8.264,1.887,34.738,34.738,0,0,1,7.472,4,76.12,76.12,0,0,1,6.5,5.634c.628-3.582.438-6.707-1.279-9.625a18.427,18.427,0,0,0-7.19-6.793c-10.26-5.626-20.95-6.09-31.759-1.949a20.72,20.72,0,0,0-10.875,8.628C136.057,188.1,135.1,191.284,136.358,194.728Zm23.935,14.666c0-6.119.027-11.79-.019-17.46-.012-1.546-.92-2.391-2.428-2.9-2.106-.713-4.076-.165-6.073.248-5.52,1.142-10.475,6.59-11.184,12.43C146.011,206.634,152.508,209.03,160.293,209.394Zm24.608-7.781a11.878,11.878,0,0,0-3.9-7.962,16.961,16.961,0,0,0-11-4.942c-3.532-.225-4.886,1.108-4.9,4.549-.016,3.722,0,7.444,0,11.166v5.06C172.715,208.786,179.337,206.765,184.9,201.613Z" transform="translate(-8.691)" fill="#012185"/><path d="M231.39,315.01l4.048,2.447,3.826-3.035,3.129.85c-.666,1.868-2.4,2.382-3.785,3.675l4.317,2.335c-2.658.012-4.668.452-6.609-.714a2.986,2.986,0,0,0-2.156.013,20.3,20.3,0,0,1-9.846.713c-.193-.033-.39-.044-.581-.085-1.965-.418-3.2-1.338-3.265-2.484-.1-1.77,1.356-2.217,2.531-2.856.849-.462,1.755-.817,2.818-1.3-.62-.557-1.148-.97-1.6-1.451-1.251-1.325-1.174-2.512.5-3.276a11.832,11.832,0,0,1,10.212.085c1.471.681,1.505,2.007.26,3.056a10.064,10.064,0,0,1-1.765,1.032C232.915,314.285,232.391,314.521,231.39,315.01Zm.885,3.637c-.848-.567-1.555-1.045-2.267-1.513a6.461,6.461,0,0,0-.989-.6c-1.222-.517-3.239.545-3.352,1.83-.032.36.363,1.047.648,1.1C228.288,319.81,230.3,320.118,232.276,318.647Zm-.483-7.152c-1.582-1.308-2.911-1.28-4.33-.219C228.882,313.726,229.255,313.756,231.793,311.5Z" transform="translate(-66.994 -89.015)" fill="#012185"/><path d="M133.277,311.273c-1.976,0-3.741-.125-5.478.042a10.6,10.6,0,0,0-3.629,1.006c-1.872.928-2.494,2.555-2.114,4.71a3.762,3.762,0,0,0,3.37,3.2,40.2,40.2,0,0,0,4.971.205c.949.012,1.543-.086,3.094-.165,0,.776,0,1.443-.578,1.534a29.89,29.89,0,0,1-13.179-.668,4.806,4.806,0,0,1-3.312-4.3,5.422,5.422,0,0,1,2.4-5.531,9.662,9.662,0,0,1,4.081-1.376c3.1-.3,6.245-.251,9.371-.269C133.3,309.655,133.617,310.311,133.277,311.273Z" transform="translate(0 -89.619)" fill="#012185"/><path d="M185.336,309.45H168.308v1.8h5.8V322.3h5.965V311.25h5.266Z" transform="translate(-33.43 -89.483)" fill="#012185"/><path d="M301.009,309.45H284.717v1.8h5.164V322.3h5.965V311.25h5.164Z" transform="translate(-108.345 -89.483)" fill="#012185"/></g></g></svg>