<svg xmlns="http://www.w3.org/2000/svg" xmlns:xlink="http://www.w3.org/1999/xlink" width="100" height="100" viewBox="0 0 100 100">
  <defs>
    <clipPath id="clip-path">
      <rect id="사각형_299590" data-name="사각형 299590" width="30" height="69.515" fill="none"/>
    </clipPath>
  </defs>
  <g id="car_logo_lincoln" transform="translate(-219 -155)">
    <g id="W_100_H_100" data-name="W 100 H 100" transform="translate(219 155)" fill="#f9f9f9" stroke="#f0f0f0" stroke-width="1" opacity="0">
      <rect width="100" height="100" stroke="none"/>
      <rect x="0.5" y="0.5" width="99" height="99" fill="none"/>
    </g>
    <g id="lincoln" transform="translate(254 170)">
      <g id="그룹_390836" data-name="그룹 390836" clip-path="url(#clip-path)">
        <path id="패스_789272" data-name="패스 789272" d="M9.519,60.931A205.2,205.2,0,0,1,7.963,36.179c1.757.179,3.563.336,5.128.414.038,10.281.416,18.618.77,24.338h2.278c.356-5.719.733-14.057.774-24.338,1.563-.079,3.366-.235,5.126-.414a205.54,205.54,0,0,1-1.556,24.752Zm0-52.349h4.343c-.354,5.717-.732,14.06-.77,24.34-1.566.076-3.371.234-5.128.414A205.28,205.28,0,0,1,9.519,8.583m10.964,0a205.62,205.62,0,0,1,1.556,24.754c-1.76-.18-3.563-.338-5.126-.414-.041-10.279-.417-18.622-.774-24.34ZM24.469,33.6A194.935,194.935,0,0,0,22.551,5.9s-2.879-.341-6.618-.4C15.673,1.945,15.466,0,15.466,0h-.929s-.209,1.946-.468,5.506c-3.741.054-6.618.4-6.618.4A194.886,194.886,0,0,0,5.53,33.6c-3.077.354-5.53.706-5.53.706v.9s2.453.35,5.53.708a194.815,194.815,0,0,0,1.921,27.7s2.877.346,6.618.4c.259,3.556.468,5.5.468,5.5h.929s.207-1.945.466-5.5c3.739-.054,6.618-.4,6.618-.4a194.864,194.864,0,0,0,1.919-27.7c3.08-.358,5.53-.708,5.53-.708v-.9s-2.451-.351-5.53-.706" transform="translate(0 0.001)" fill="#231815" fill-rule="evenodd"/>
      </g>
    </g>
  </g>
</svg>
