<svg xmlns="http://www.w3.org/2000/svg" width="100" height="100" viewBox="0 0 100 100">
  <g id="car_logo_subaru" transform="translate(-219 -161)">
    <g id="W_100_H_100" data-name="W 100 H 100" transform="translate(219 161)" fill="#f9f9f9" stroke="#f0f0f0" stroke-width="1" opacity="0">
      <rect width="100" height="100" stroke="none"/>
      <rect x="0.5" y="0.5" width="99" height="99" fill="none"/>
    </g>
    <g id="subaru" transform="translate(-809.617 -2913.619)">
      <path id="패스_791891" data-name="패스 791891" d="M1048.617,3124.69c0-8.879,13.849-16.071,30.127-16.071s29.873,7.192,29.873,16.071-13.6,16.072-29.873,16.072c-16.5,0-30.127-7.2-30.127-16.072Zm30.141,14.372h0c15.072,0,27.657-6.436,27.657-14.372,0-8-12.72-14.371-27.657-14.371-15.066,0-27.937,6.373-27.937,14.371,0,7.937,12.354,14.372,27.937,14.372Zm7.791-5.679h0c.446.068,2.016.3,2.659.414a1.253,1.253,0,0,1,1.07.919c.087.209.219.661.289.923.1.331.217.835.232.88a.181.181,0,0,0,.182.127.19.19,0,0,0,.178-.13c.031-.073.17-.586.26-.892a8.523,8.523,0,0,1,.3-.907,1.279,1.279,0,0,1,1.009-.9c.645-.114,2.128-.3,2.863-.39.556-.06,1.761-.217,1.9-.23s.209-.108.209-.2-.06-.187-.216-.2c-.228-.018-1.338-.132-1.894-.2-.851-.1-2.312-.312-2.8-.42a1.2,1.2,0,0,1-.994-.735,4.354,4.354,0,0,1-.318-.852c-.053-.211-.264-.905-.292-1.019-.031-.136-.11-.176-.192-.176s-.164.03-.2.182-.217.8-.287,1.028a7.3,7.3,0,0,1-.3.827,1.229,1.229,0,0,1-.973.745c-.832.165-2.329.4-2.682.456a8.608,8.608,0,0,1-2.591.127c-.708-.065-2.3-.312-3.348-.475-.638-.094-1.292-.144-1.645-.738a5.274,5.274,0,0,1-.463-1.138c-.121-.377-.308-1.038-.349-1.2-.044-.13-.1-.2-.21-.2s-.174.073-.212.214-.251.844-.348,1.177a4.242,4.242,0,0,1-.471,1.152c-.359.52-.7.586-1.567.732-.912.152-2.048.279-2.931.369-.777.089-1.267.141-1.551.173-.142.018-.226.064-.226.2s.084.191.226.208c.259.036,1.022.119,1.557.173.9.095,1.707.173,2.925.366,1.181.181,1.388.339,1.767,1.225a5.477,5.477,0,0,1,.338,1.111c.084.373.259,1.122.286,1.277a.2.2,0,0,0,.2.208c.128,0,.186-.083.21-.214.029-.173.21-.965.295-1.271a9.148,9.148,0,0,1,.324-1.111c.379-.957.687-1.06,1.837-1.236.884-.136,2.525-.383,3.357-.478a8.465,8.465,0,0,1,2.6.106Zm8.713-6.056h0c.48.067,1.3.225,2.219.43a1.172,1.172,0,0,1,.958.843,12.989,12.989,0,0,1,.36,1.274c.106.391.177.732.186.795a.217.217,0,0,0,.2.183.209.209,0,0,0,.207-.173c.019-.084.09-.426.188-.812.107-.416.229-.877.36-1.273a1.114,1.114,0,0,1,.875-.806c.515-.115,1.36-.257,2.05-.358.6-.091,1.633-.221,1.778-.243s.21-.114.21-.2a.2.2,0,0,0-.21-.207c-.149-.024-1.142-.158-1.786-.252-.787-.116-1.6-.247-2.041-.346a1.215,1.215,0,0,1-.812-.625,6.1,6.1,0,0,1-.38-.98c-.079-.295-.2-.718-.233-.835a.2.2,0,0,0-.206-.159.2.2,0,0,0-.194.167c-.042.149-.146.527-.24.832a4.668,4.668,0,0,1-.367.975,1.19,1.19,0,0,1-.9.643c-.919.193-1.716.36-2.218.434a8.729,8.729,0,0,1-3.218.011c-.73-.109-1.963-.292-2.931-.477a1.605,1.605,0,0,1-1.281-.778,8.015,8.015,0,0,1-.412-1.184c-.082-.267-.24-.807-.295-1.013-.039-.14-.095-.2-.21-.2s-.17.056-.21.2c-.054.175-.2.7-.291,1.008a7.7,7.7,0,0,1-.419,1.181,1.518,1.518,0,0,1-1.256.775c-.8.168-2.086.3-3.23.423-.507.066-1.437.173-1.654.207a.182.182,0,0,0-.192.2c0,.122.049.183.19.2.2.03,1.293.152,1.648.193.612.067,2.08.268,3.232.431a1.516,1.516,0,0,1,1.448,1.345c.123.5.233.868.311,1.253.071.315.183.816.213.915.041.145.112.2.2.2s.178-.043.217-.212c.019-.092.159-.716.194-.886.085-.364.193-.813.316-1.28.235-.83.48-1.109,1.478-1.339.783-.182,2.221-.363,2.917-.461a8.845,8.845,0,0,1,3.231-.019Zm6.936-6.455h0c-.085,0-1.325-.168-1.98-.254-.758-.111-1.7-.217-2.545-.4a1.408,1.408,0,0,1-1.035-.73,9.306,9.306,0,0,1-.46-1.349c-.061-.19-.2-.727-.235-.857-.041-.149-.125-.181-.2-.181s-.159.025-.208.181c-.039.136-.174.6-.242.841a10.2,10.2,0,0,1-.464,1.371,1.425,1.425,0,0,1-1.183.746c-.589.1-1.792.266-2.994.421a13.708,13.708,0,0,1-4.693.031c-.675-.071-2.459-.3-3.047-.378-2.156-.253-5.739-.616-7.918-1a3.234,3.234,0,0,1-2.925-2.141,27.237,27.237,0,0,1-.985-3.05c-.218-.757-.463-1.791-.544-2.136-.041-.165-.109-.222-.219-.222s-.164.052-.215.222c-.09.339-.373,1.415-.581,2.131a28.361,28.361,0,0,1-.971,3.055,3.242,3.242,0,0,1-2.89,2.15c-2.207.417-4.9.746-7.391,1.014-1.225.13-4.774.517-4.921.533a.2.2,0,1,0,0,.4c.148.021,3.792.4,4.936.524,2.584.277,4.978.576,7.269.971a3.477,3.477,0,0,1,3.165,2.914c.332,1.109.779,3.05.934,3.809.153.666.417,2.06.45,2.18.033.152.1.214.209.214s.178-.054.218-.214c.028-.133.3-1.564.434-2.186.167-.743.623-2.77.939-3.82.564-1.848,1.115-2.493,3.087-2.834s5.708-.79,7.932-1.054c.559-.069,1.844-.177,3.034-.321a14.2,14.2,0,0,1,4.7.044c1.178.141,1.985.253,2.934.413a1.319,1.319,0,0,1,1.279,1c.188.524.333,1.1.431,1.491.087.345.2.9.228,1.023a.2.2,0,0,0,.192.171.221.221,0,0,0,.208-.171c.032-.146.138-.679.223-1.023s.286-1.066.433-1.491a1.35,1.35,0,0,1,1.125-.978c.631-.137,1.725-.282,2.516-.4.606-.084,1.875-.244,1.968-.257a.2.2,0,0,0,.2-.206A.2.2,0,0,0,1102.2,3120.872Z" transform="translate(0 0)" fill="#231815"/>
    </g>
  </g>
</svg>
