<svg xmlns="http://www.w3.org/2000/svg" xmlns:xlink="http://www.w3.org/1999/xlink" width="100" height="100" viewBox="0 0 100 100">
  <defs>
    <clipPath id="clip-path">
      <rect id="사각형_299580" data-name="사각형 299580" width="56" height="56.001" fill="none"/>
    </clipPath>
  </defs>
  <g id="car_logo_volkswagen" transform="translate(-219 -155)">
    <g id="W_100_H_100" data-name="W 100 H 100" transform="translate(219 155)" fill="#f9f9f9" stroke="#f0f0f0" stroke-width="1" opacity="0">
      <rect width="100" height="100" stroke="none"/>
      <rect x="0.5" y="0.5" width="99" height="99" fill="none"/>
    </g>
    <g id="volkswagen" transform="translate(241 177)">
      <g id="그룹_390828" data-name="그룹 390828" clip-path="url(#clip-path)">
        <path id="패스_789231" data-name="패스 789231" d="M27.164,0H29.2A28.533,28.533,0,0,1,41.232,3.283a28.092,28.092,0,0,1,13.534,16.3,26.973,26.973,0,0,1,1.137,5.69,44.79,44.79,0,0,1,.077,4.557A27.608,27.608,0,0,1,52.3,42.016,27.992,27.992,0,0,1,29.18,56H26.865a34,34,0,0,1-3.516-.383A27.949,27.949,0,0,1,.062,29.14a11.962,11.962,0,0,1,.011-2.5c-.018-.768.131-1.523.157-2.288l.057-.069A27.872,27.872,0,0,1,11.667,5.25,28.166,28.166,0,0,1,27.164,0M25.507,2.709a6.641,6.641,0,0,1-.9.116c-.451.091-.909.139-1.359.236-.186.046-.374.081-.561.117-.153.041-.307.074-.462.108-.45.118-.9.223-1.342.383-.062.016-.189.046-.253.06-.114.043-.228.086-.341.127l-.345.1c-.059.04-.119.079-.177.118.1.2.195.4.281.6.13.3.265.593.4.888.167.388.345.771.506,1.162.156.338.31.678.453,1.023.295.634.565,1.279.857,1.914,1.416,3.2,2.857,6.387,4.277,9.584.15.342.309.679.454,1.023s.307.681.457,1.022a2.534,2.534,0,0,0,.587,1.013,2.141,2.141,0,0,0,.536-.92c.172-.37.335-.743.5-1.117,1.542-3.461,3.1-6.918,4.637-10.382.15-.341.3-.681.454-1.022s.305-.682.454-1.023.3-.682.455-1.024q.245-.558.492-1.117c.15-.342.306-.682.452-1.026.1-.208.19-.417.3-.621-.176-.067-.347-.145-.522-.211-.118-.037-.232-.075-.347-.115l-.253-.064c-.438-.156-.892-.256-1.34-.383-.342-.066-.682-.144-1.018-.231-.455-.074-.913-.136-1.365-.23a6.371,6.371,0,0,1-.911-.116c-.567-.052-1.141-.021-1.705-.118-1.117-.058-2.23.075-3.344.119M15.46,5.964a26.816,26.816,0,0,0-8.7,8.283,3.1,3.1,0,0,0,.321.773c.172.333.332.674.5,1.011.188.379.376.758.569,1.135,1.984,4.032,4.014,8.043,5.989,12.079.056.106.111.212.165.319.227.457.453.915.675,1.375q2.334,4.706,4.677,9.407a.411.411,0,0,0,.427.273c.175-.323.331-.658.476-1,.125-.314.267-.621.4-.932.129-.3.253-.594.385-.89.133-.312.275-.619.4-.933.133-.294.261-.591.389-.888q1.489-3.42,3-6.833a.625.625,0,0,1,.635-.4q2.277,0,4.557,0a.64.64,0,0,1,.646.444c.991,2.262,1.989,4.52,2.971,6.786.13.3.258.594.392.889.128.313.268.622.4.931s.254.6.383.893c.294.631.524,1.294.871,1.9l.278.009c1.26-2.421,2.446-4.883,3.672-7.323,2.726-5.529,5.48-11.045,8.22-16.568.213-.4.392-.822.608-1.222a7.362,7.362,0,0,1,.615-1.155c-.23-.281-.423-.586-.628-.883a26.563,26.563,0,0,0-8.13-7.48,1.172,1.172,0,0,0-.385-.157q-2.117,4.664-4.213,9.341c-.18.418-.377.827-.554,1.244-.133.3-.267.6-.405.89-.167.389-.344.774-.507,1.164q-.257.555-.5,1.114-1.443,3.225-2.9,6.442a3.586,3.586,0,0,1-.343.676.989.989,0,0,1-.721.2c-1.408,0-2.816,0-4.223,0a.7.7,0,0,1-.732-.4q-1.564-3.452-3.113-6.909-.247-.56-.5-1.116c-.166-.389-.345-.772-.517-1.157s-.33-.747-.5-1.12C18.966,12.7,17.374,9.256,15.843,5.785c-.129.056-.259.111-.383.18M51.746,19.14c-.507,1.112-1.083,2.192-1.612,3.294-.155.3-.308.606-.454.912s-.3.607-.446.912l-.174.326q-.08.176-.164.351l-.117.235c-.057.107-.113.217-.168.325-.088.2-.184.4-.279.592-1.855,3.756-3.749,7.495-5.6,11.253l-.113.227c-.08.15-.153.3-.228.458s-.152.3-.223.458-.152.3-.224.454c-.027.057-.083.172-.112.229-.054.106-.11.212-.165.317-.183.383-.377.759-.563,1.141-1.39,2.841-2.813,5.665-4.231,8.493a.889.889,0,0,1-1.272.442c-.468-.329-.581-.933-.819-1.418-.171-.37-.337-.743-.5-1.117-1.686-3.807-3.4-7.6-5.087-11.406-.149-.343-.308-.681-.453-1.026s-.314-.682-.439-1.036a.311.311,0,0,0-.436-.125,14.284,14.284,0,0,0-.594,1.3c-1.709,3.835-3.434,7.661-5.13,11.5-.133.293-.267.588-.4.883-.162.389-.342.771-.506,1.16a8.927,8.927,0,0,1-.486,1.016.887.887,0,0,1-1.031.339,1.113,1.113,0,0,1-.568-.588c-1.408-2.84-2.839-5.669-4.238-8.512-.072-.152-.147-.3-.221-.454-.145-.306-.3-.609-.452-.911l-.112-.23c-.072-.153-.15-.3-.227-.452s-.149-.3-.227-.454c-.056-.124-.113-.246-.171-.368-.094-.182-.186-.364-.278-.546-.113-.229-.223-.458-.342-.683-1.847-3.765-3.757-7.5-5.6-11.268-.027-.058-.084-.173-.112-.23-.128-.271-.264-.539-.4-.808s-.262-.523-.4-.781c-.053-.121-.107-.242-.161-.361s-.114-.212-.169-.318c-.57-1.158-1.139-2.315-1.72-3.467a5.514,5.514,0,0,0-.445,1.144A25.172,25.172,0,0,0,5.542,39.607c.012.031.034.093.047.124.294.507.566,1.026.878,1.522A25.8,25.8,0,0,0,18.259,51.43c.19.076.379.155.57.229.14.058.281.111.422.17.162.055.325.113.487.169l.342.124.342.108c.292.092.59.169.881.262.453.122.909.231,1.365.34.19.033.379.069.567.112s.382.073.572.119a23.78,23.78,0,0,0,2.753.285,13.3,13.3,0,0,0,2.835.006,21.3,21.3,0,0,0,2.86-.3c.19-.046.382-.077.575-.111s.378-.078.569-.113c.455-.111.912-.218,1.365-.34.291-.092.586-.172.877-.264.116-.042.231-.082.348-.122l.238-.065c.337-.129.677-.249,1.013-.382l.569-.233a25.793,25.793,0,0,0,14.3-15.578,24.944,24.944,0,0,0-.367-16.709" transform="translate(0)" fill="#001e50"/>
      </g>
    </g>
  </g>
</svg>
