<svg xmlns="http://www.w3.org/2000/svg" width="100" height="100"><path data-name="패스 792151" d="M47.317 76.153c-.1.133-.229.288-.171.473.025.035.05.071.072.106.046.045.811.647.811.647v-.03a.73.73 0 00-.072-.9 5.55 5.55 0 01-.2-.119 1.146 1.146 0 00-.437-.182m4.559-4.788c-.147.1-.3.144-.328.344a2.4 2.4 0 00.088.681c-.007.153-.009.3-.014.455.014.1.031.189.042.286.017.355-.022.741-.014 1.111.017.192.034.383.048.573l-.017.284a6.637 6.637 0 00.076.8.673.673 0 00.065.263c.062.1.277.079.4.079l.633-.22c.325-.158.646-.32.97-.479a1.025 1.025 0 00.489-.26 1.425 1.425 0 00.195-.75 5.325 5.325 0 00-.418-2.2c-.074-.2-.181-.612-.362-.731-.141-.094-.356-.05-.534-.071l-.432-.118a7.6 7.6 0 00-.889-.042zm14.486-.171c-.348 1.307.642 2.565 1.326 3.515.161.224.331.568.588.694.187.052.376.108.562.165a9.8 9.8 0 002.485.243l.229-.029.229-.028.226-.054a9.1 9.1 0 00.992-.357 2.72 2.72 0 00.89-.671c.079-.119.161-.238.24-.359l.393-.32a2.315 2.315 0 00.707-1.462c.011-.223.073-.526-.13-.658a3.9 3.9 0 00-2.26-.422c-.3.021-.608.044-.913.064a4.981 4.981 0 00-1.286-.082 1.081 1.081 0 00-.565.452 2.518 2.518 0 00-.17.794c.006.4.229 1.936-.059 2.17-.1.083-.351.031-.489.02s-.331-.047-.376-.2a2.74 2.74 0 01.056-.934 5.382 5.382 0 00-.1-1.514c-.045-.166-.122-.3-.166-.455a1.543 1.543 0 00-.133-.451c-.066-.1-.28-.1-.4-.1l-.825.021c-.344-.002-.683-.037-1.054-.037zm-19.275 0a4.751 4.751 0 01-.184.544c-.079.367-.076.723-.123 1.1a2.027 2.027 0 00-.005.763l.534.814a1.069 1.069 0 00.746.507 3.909 3.909 0 00.138-.6c.058-.629.033-1.285.033-1.938.013-.226.028-.455.037-.681a.528.528 0 00-.105-.3c-.172-.189-.417-.148-.67-.162a6.824 6.824 0 01-.404-.042zm-8.21-.143c0 .037-.008.028.029.028-.066.094-.16.133-.239.215-.116.116-.144.354-.312.418-.192.073-.446.042-.633.134-.086.041-.123.189-.233.184-.285-.013-.341-.6-.6-.694a1.866 1.866 0 00-.483-.042 52.815 52.815 0 00-.518-.068l-.625-.008c-.152-.022-.3-.048-.457-.069-.284.007-.567.016-.852.022l-.431-.06a4.228 4.228 0 00-.573.083c-.122-.021-.246-.033-.367-.051-.2-.012-.589-.01-.691.151a.439.439 0 00-.052.319c.075.127.146.256.22.385.176.3.353.6.512.91a5.084 5.084 0 004.2 2.9c.435 0 .874 0 1.311.005.056-.009.114-.018.17-.029l.171-.028c.068-.008.134-.017.2-.028a1.9 1.9 0 01.447-.156 4.38 4.38 0 00.936-.4 5.565 5.565 0 00.847-.716c.783-.736 1.7-1.48 1.666-2.664a1.011 1.011 0 00-.077-.492s0-.009-.007-.011a.576.576 0 00-.422-.141c-.42-.039-.849.051-1.276.051l-.746-.037c-.1-.022-.191-.048-.287-.067-.266-.032-.572-.032-.831-.044zm8.866-2.338c-.125.142-.806.864-.586 1.009.188.13.851-.2.946-.376a.415.415 0 00-.039-.383.512.512 0 00-.325-.245zm3.792-.743c-.009.3-.221 1.433.031 1.623a1.485 1.485 0 00.511.032l.17-.027c.113-.068.313-.092.382-.227a3.6 3.6 0 00-.342-.988.642.642 0 00-.181-.21 1.916 1.916 0 00-.574-.198zm16-.767c-.2.171-.4.346-.591.519a3.314 3.314 0 00-.817 1.47c-.045.144-.068.379.153.379v-.058h.025a.9.9 0 00.348.161c.311.086 1.923.343 2.083.025a1.1 1.1 0 00-.028-.694c-.037-.107-.156-.178-.238-.257a1.29 1.29 0 01-.209-.273c-.217-.346-.254-1.191-.731-1.268zm-29.623-.513c-.025.115-.048.23-.071.342.009.116.017.229.027.342 0 .066-.01.13-.011.2a2.594 2.594 0 00.189.658c.029.14.056.281.085.418.065.219.294.665.577.665.386-.464-.361-2.364-.801-2.621zm1.082-.656a2.232 2.232 0 00-.062.511c-.021.1-.044.193-.065.285a3.113 3.113 0 00.125.783c.123.235.446.265.475.56.037.39-.429 1-.17 1.322.108.137.27.138.435.171.2.035.392.1.6.122.343.04.695.02 1.053.042.243.014.763.144.95-.025.3-.271-.051-.851-.193-1.1s-.163-.563-.313-.809a3.887 3.887 0 00-2.462-1.771 3.746 3.746 0 00-.378-.086zm-4.758-.284l-.3.132c-.169.161-.337.325-.5.488a9.644 9.644 0 00-1.123 1.276 3.332 3.332 0 00-.46.7c-.1.251-.409 1.338.135 1.338a5.033 5.033 0 011.141-.028c.065-.011.133-.02.2-.03a.933.933 0 01.342-.027 1.274 1.274 0 01.456-.028c.562.008 1.122.022 1.683.031.161.009.355.124.486 0a.332.332 0 00.072-.337c-.085-.168-.266-.256-.4-.368l-.344-.531a11.818 11.818 0 01-.433-1.353 3.158 3.158 0 00-.428-.67c-.079-.107-.122-.235-.211-.335s-.23-.145-.321-.257zm37.632-.2c-.113.063-.263.1-.342.218a2.827 2.827 0 00-.178.719c-.051.192-.121.367-.179.55-.044.141-.052.3-.083.449-.02.049-.04.1-.056.149a5.793 5.793 0 00-.167 1.05c-.014.094-.031.189-.048.286-.012.284.085.455.085.712a2.905 2.905 0 001.28.374 14.6 14.6 0 002.168.225 1.386 1.386 0 01.8-.343l.169-.027c.3-.26.125-.749.012-1.061a7.194 7.194 0 00-.286-.9l-.41-.638a15.461 15.461 0 01-.187-.181 4.507 4.507 0 00-1.86-1.37 2.245 2.245 0 00-.724-.211zm-22.439-47.55c1.562.049 2.044 1.613 2.227 2.906.023.167.093.328.113.489v.595c.031.334.068.667.1 1v.365c.022.127.048.252.066.377a4.614 4.614 0 01-.075.826c-.034.313-.076.608-.091.912l.025.627a4.47 4.47 0 00.074 1.022 4.942 4.942 0 00.571 1.536 4.659 4.659 0 00.786.773 10.641 10.641 0 001.812 1.359 5.42 5.42 0 001.156.571 6.288 6.288 0 001.849.214 1.867 1.867 0 01.452-.126c.172-.065.345-.127.514-.191a4.271 4.271 0 00.667-.527c.458-.346 1.094-.543 1.374-1.1.127-.254.054-.6.15-.876.116-.333.348-.662.215-1.055-.088-.256-.3-.461-.393-.718-.1-.283-.062-.7-.232-.947a3.153 3.153 0 00-.676-.627 1.135 1.135 0 01-.3-.308.155.155 0 00-.009-.05h.144c.3-.072.588.42.78.588a1.481 1.481 0 00.39.237c.469.207 1.054.242 1.439.615.232.226.135.707.22 1.01a15.971 15.971 0 01.664 1.857c.085.574-.127.755-.268 1.2-.062.2-.15.393-.2.6-.02.1-.037.2-.057.305l-.093.188a1.274 1.274 0 00-.031.334 1.877 1.877 0 00.311 1.29c.037.047.11.165.184.165v-.029c.048-.04.139-.17.2-.17v-.029a2.04 2.04 0 01-.066 1.194l-.164.4h-.028c-.021-.021-.025-.03-.056-.03-.153-.341-.277-.912-.772-.912-.107.388.15.789.031 1.188-.1.327-.416.431-.65.645a1.477 1.477 0 00-.413.767 4.749 4.749 0 00-.03.791c-.016.258-.081.509-.075.77a2.6 2.6 0 00.972 1.736c.178.2.317.5.568.621a6.585 6.585 0 001.733.282l.545.127a.421.421 0 01-.2.367c-.523.4-1.75.142-2.336-.006l-.6-.182c-.075-.005-.188.108-.137.108.376.89 1.577.882 2.535.882a1 1 0 01.4-.029 4.6 4.6 0 01.884-.257c0-.04-.011-.029.028-.029v.029h.028c-.05.249-.235 1.194-.418 1.312s-.509-.024-.693-.048h-.8a1.844 1.844 0 00-.863.388 1.185 1.185 0 01-.55-.179c-.469-.25-1.4-1.175-1.916-1.052-.579.141-.4 1.2-1.089 1.158-.362-.028-.081-1.267-.055-1.518a19.983 19.983 0 00.174-4.193 1.692 1.692 0 00-.14-.778c-.223-.3-.69-.137-1.005-.111a7.185 7.185 0 01-.883.033 10.47 10.47 0 01-1.88-.318c-.611-.141-3.147-.978-3.632-.46-.215.229-.161.515-.206.835-.1.767-.13 1.566-.192 2.366-.025.182-.048.363-.074.544.009.2.014.4.023.6 0 .363-.037.753-.053 1.113 0 .313 0 .628-.006.939l-.051.431c-.025.525-.025 1.04-.068 1.565-.017.2-.054.411-.062.6-.05.954.011 1.92.011 2.88 0 1.914.031 3.883 0 5.844-.01.172-.017.343-.027.514l.027.6c-.01.133-.017.266-.024.4-.013.329.013.681.019 1q-.008.185-.019.369c.01.708.055 1.494.021 2.225a33.09 33.09 0 01-.05.428c0 .151 0 .3-.007.454-.045.987-.119 1.975-.166 2.966v1.426c0 .293.022.581.027.854a1.946 1.946 0 00.052.644c.106.272 1.087.727 1.373.865l1.3.7a8.29 8.29 0 011.566 1.138c.2.177.359.389.562.549l1.094.595c.24.142.458.433.729.509a4.65 4.65 0 001.02.051c.69.022 1.4.055 2.109.055a.981.981 0 01.373-.027h.97a1.244 1.244 0 01.483-.028l.243-.131c.384-.307.274-.923.367-1.378a6.016 6.016 0 01.419-1.255 6.138 6.138 0 012.741-2.781 10.461 10.461 0 011.072-.429 4.666 4.666 0 011.458-.41.843.843 0 01.342-.031 1.042 1.042 0 01.513-.084c.264-.145.519 0 .8 0a.393.393 0 00.1-.257v-.161c.022-.059.48-.038.579-.038a.8.8 0 01.282-.027.768.768 0 01.715.167c.094.085.17.207.288.254.2.074.455.065.65.125a5.452 5.452 0 011.021.518c.257.152.511.306.769.458.24.243.486.481.729.721a13.989 13.989 0 012.258 2.851c.062.111.215.3.215.437-.054.014-.4.1-.4.116h-.031c0 1.187.122 1.538 1.368 1.538 0 .039.02.059-.028.059-.035.044-.152.225-.2.225.206.437 1.046.239 1.037.828a.754.754 0 01-.365.661c-.155.049-.311.1-.466.148-.124.076-.246.151-.373.224-.164.117-.2.3-.336.427-.176.165-.407.233-.594.38-.034.052-.07.1-.107.15q-.135.2-.271.406l-.136.36c-.251.5-.528 1-.8 1.5a6.236 6.236 0 01-.489.947 2.79 2.79 0 01-.508.376 2.232 2.232 0 00-.334.349.522.522 0 00-.164.29c.093.068.274.183.27.317a7.148 7.148 0 01-1.073.815c-.04.025-.166.072-.166.123-.5-.13-.961.264-1.453.239-.08 0-.169-.034-.169-.126.11-.088.266-.228.223-.387-.034-.133-.2-.181-.311-.208a1.429 1.429 0 00-.871.044c-.215.122-.4.41-.67.41-.252-.285-.648 0-.967-.045a.6.6 0 01-.257-.13c-.031-.021-.085-.037-.085-.083-.164.078-.325.148-.489.222a2.288 2.288 0 01-1.054.019 1.161 1.161 0 01-.379-.1c-.2-.116-.034-.329-.3-.455-.2-.1-.52-.045-.709-.15a11.247 11.247 0 01-.269-.207c-.147-.1-.291-.206-.438-.311a3.88 3.88 0 01-.461-.533 9.268 9.268 0 01-.941-1.253 7.951 7.951 0 01-.7-1.714c-.154-.683-.3-1.368-.458-2.052a1.918 1.918 0 00-.226-.638.615.615 0 00-.472-.223c-.413-.028-.825.031-1.252.04h-1.795a7.32 7.32 0 00-1.6.239 5.3 5.3 0 00-.617.144 6.031 6.031 0 00-.583.281c-.144.075-.4.163-.475.315-.116.237.006.537.033.786v.284c.042.239.088.476.13.715.068.418.1.847.15 1.282.025.141.051.284.074.429a6.593 6.593 0 01-.04.854.355.355 0 00.088.274.074.074 0 00.025.028c.053.059.167.237.249.237v-.027c.136-.166.274-.33.413-.494a2.683 2.683 0 00.167-.562 2.541 2.541 0 00.153-.8 6.66 6.66 0 01-.156-.828c.048-.586.093-1.177.141-1.766.006-.1.082-.194.082-.257h.057a11.393 11.393 0 01.056 3.509c-.011.063-.06.4.028.4.014.015.028.027.028 0l.172-.058v.028h.028c0 .625-.025 1.235-.079 1.823-.037.372.025.632-.2.926s-.718-.027-.944-.137a.132.132 0 00-.037-.017v.028a1.443 1.443 0 00-.088.684 1.38 1.38 0 01-.241.67c-.274.362-.8.2-1.238.251a2.5 2.5 0 01-.54.1c-.122-.013-.271-.059-.4-.076-.2-.026-.385-.014-.571-.048l-.314-.075c-.014-.029-.054-.086 0-.086a.857.857 0 00.208-.4c0-.012-.007-.025-.013-.043-.057-.1-.172-.149-.23-.24-.1-.209-.194-.415-.29-.626-.02-.032-.1-.148-.045-.148.082-.026.167-.049.249-.073.376-.107.893-.192 1.085-.585a.631.631 0 00-.122-.637 2.349 2.349 0 00-1.263-.392c-.235.065-.93.643-.94.916 0 .234.166.4.1.656-.093.37-.6.542-.232.945.037.041.232.253.175.253-.316.168-1.224-.145-1.461.052a.7.7 0 00-.153.294 1.234 1.234 0 00-.126.45c-.179.178-.123.756-.188 1.023a1.036 1.036 0 01-.168.3 1.52 1.52 0 00-.3.789.182.182 0 010 .027v.03h-.059v-.057c-.063-.141-.026-.365-.073-.507l-.349-.835a13.069 13.069 0 00-.544-1.252c-.094-.187-.08-.4-.169-.587a.457.457 0 00-.185-.194c-.47-.233-1.066.38-1.429.16a2.2 2.2 0 01-.478-.514c-.038-.043-.076-.086-.116-.128l-.185-.49a.25.25 0 00-.176-.127 1.4 1.4 0 01-.656.414c-.427.012-.965-.6-1.222-.9a1.224 1.224 0 01-.266-.346 2.752 2.752 0 01-.05-.819c0-.04.018-.055-.029-.055v-.026c-.062 0-.228-.024-.228 0a1.89 1.89 0 00-.339.455c-.167.2-.332.393-.5.586a4.325 4.325 0 01-1.389.972l-.3.181a6.3 6.3 0 01-1.3.406c-.191.051-.38.1-.573.153-.116.022-.249.005-.369.034a3.89 3.89 0 01-1.166.11 15.973 15.973 0 01-1.631-.289c-.257-.056-.512-.079-.761-.144l-.831-.243c-.393-.092-.777-.16-1.166-.266-.107-.04-.211-.079-.32-.122a3.155 3.155 0 01-.675-.194 4.5 4.5 0 01-.737-.713l-.234-.332c-.181-.243-.378-.462-.555-.705-.263-.366-.483-.748-.738-1.115a7.141 7.141 0 01-.805-1.209c-.262-.626-.354-1.371-.585-2.017a1.016 1.016 0 00-.226-.461c-.2-.193-.311-.137-.564-.2a2.748 2.748 0 00-.353-.121 10.052 10.052 0 00-1.738.145c-.313.014-.625.025-.938.037-.6.028-1.2.116-1.8.175l-.933.063a4.316 4.316 0 00-.636-.261 3.326 3.326 0 01-1.21-.343.616.616 0 01-.212-.349c-.159-.553.244-.741.741-.741a1.1 1.1 0 01.458-.058c.055-.01.112-.019.17-.027a.743.743 0 01.285-.031.924.924 0 01.341-.029 2.127 2.127 0 01.856-.056 1.533 1.533 0 01.57-.029 2.016 2.016 0 01.654-.028 1.9 1.9 0 01.743 0c.59.016 1.156 0 1.738.035.4.038.8.081 1.2.119a1.284 1.284 0 00.638.012c.009-.007.019-.013.025-.019.169-.147.186-.509.257-.715a15.5 15.5 0 01.747-1.905 7.7 7.7 0 011.766-2.473 12.526 12.526 0 012.663-1.648 4.13 4.13 0 011.719-.616c.084-.012.171-.02.257-.028a1.016 1.016 0 01.485 0 2.645 2.645 0 011.1.415c.362.242.692.642 1.18.642l.217-.152c.195-.173.363-.389.661-.343.4.06.781.651 1.04.941l.34.314a4.592 4.592 0 001.013.449 6.584 6.584 0 011.731 1.227c.259.26.488.548.715.821a2.031 2.031 0 00.5.533.783.783 0 00.37.056c.172-.092.388-.112.567-.2a8.163 8.163 0 00.994-.631 4.116 4.116 0 001.485-1.307 1.4 1.4 0 00.088-.624c0-.479-.032-.94-.055-1.4-.063-1.34-.061-2.7-.061-4.076 0-5.3.113-10.564.03-15.822v-1.851c-.035-1.12-.157-2.241-.14-3.394.009-.574.109-1.155.063-1.739l-.02-.307a.765.765 0 00-.408-.3 2.222 2.222 0 00-.549-.164l-.254.017a5.6 5.6 0 01-1.052-.058 6.913 6.913 0 01-.719-.344 1.931 1.931 0 00-.508-.043l-.29-.035c-.099-.011-.149.044-.23.053l-.136-.014c-.235.007-.5.051-.743.066-.05 0-.112-.027-.112.021-.045.12-.087.24-.13.362-.127.269-.44.579-.391.914.026.182.242.264.226.462-.018.233-.114.493-.15.743a2.6 2.6 0 00.136 1.107l.464 1.193a1.3 1.3 0 01.129.435c-.04 0-.056.017-.056-.028-.289-.218-.567-1.027-.884-1.027v.029a.647.647 0 00-.058.473 3.562 3.562 0 00.386.618c.1.2.2.394.3.588a3.944 3.944 0 01.71 1.687h-.028a4.042 4.042 0 00-1.012-.461 2.768 2.768 0 01-1.407-1.054 1.919 1.919 0 01-.2-.4c-.132-.388-.436-1.988-.809-2.082-.305-.077-.835.46-1.113.586a1.228 1.228 0 01-.476.122l-.257-.01c-.084.026-.171.049-.257.077-.02.019-.029.028-.029 0-.082-.14-.16-.28-.242-.418-.128-.217-.764-1.193-.34-1.372.15-.065.472.073.639.095a5.241 5.241 0 00.8.041 2.1 2.1 0 01.713-.028c.226-.153.472-.191.671-.413.316-.345 1.138-2.172.838-2.609-.263-.382-.739-.476-1.11-.689a1.79 1.79 0 01-.585-.633 12.155 12.155 0 01-.745-2.322l-.173-.48a2.479 2.479 0 01-.265-.58c-.115-.527.464-.643.576-1.053a63.7 63.7 0 00.055-.628c.032-.511.08-.995.08-1.539a3.354 3.354 0 00-.4-1.709 3.7 3.7 0 01-.654-1.313.254.254 0 01.071-.241.924.924 0 01.751-.166c.227.085.37.352.5.538.366.507.746.987 1.091 1.5a9.269 9.269 0 011.118 2.218c.09.288.181.574.272.86a3.051 3.051 0 00.173.615 1.938 1.938 0 00.273.347 4.239 4.239 0 003.617 1.342c.077-.009.152-.018.229-.029.058-.007.115-.019.171-.028l.563-.187a3.1 3.1 0 001.3-.91 1.361 1.361 0 00.11-.669c.043-.706.052-1.475.052-2.225v-4.59c.017-.551.083-1.113.108-1.654.022-.46.09-.876.141-1.31a1.975 1.975 0 01.116-.63c.132-.295.449-.441.666-.646z" fill="#1451a1"/></svg>