<svg xmlns="http://www.w3.org/2000/svg" xmlns:xlink="http://www.w3.org/1999/xlink" width="100" height="100" viewBox="0 0 100 100">
  <defs>
    <clipPath id="clip-path">
      <rect id="사각형_299579" data-name="사각형 299579" width="56" height="56" fill="none"/>
    </clipPath>
  </defs>
  <g id="car_logo_benz" transform="translate(-219 -155)">
    <g id="W_100_H_100" data-name="W 100 H 100" transform="translate(219 155)" fill="#f9f9f9" stroke="#f0f0f0" stroke-width="1" opacity="0">
      <rect width="100" height="100" stroke="none"/>
      <rect x="0.5" y="0.5" width="99" height="99" fill="none"/>
    </g>
    <g id="benz" transform="translate(241 177)">
      <g id="그룹_390827" data-name="그룹 390827" clip-path="url(#clip-path)">
        <path id="패스_789229" data-name="패스 789229" d="M23.757,25.566,27.573,2.7A25.347,25.347,0,0,0,2.727,28,26.729,26.729,0,0,0,5.858,40.233Zm4.213,7.326L6.318,41.03a25.328,25.328,0,0,0,43.352.011Zm4.247-7.339L50.142,40.244A26.093,26.093,0,0,0,53.307,28,25.35,25.35,0,0,0,28.46,2.693ZM56,28A28,28,0,1,1,28,0,28.093,28.093,0,0,1,56,28" fill="#fff" fill-rule="evenodd"/>
        <path id="패스_789230" data-name="패스 789230" d="M56,28A28,28,0,1,1,28,0,28.093,28.093,0,0,1,56,28m-34.206,3.12-.034.068.09-.011L27.214,28l-.954-.539Zm24.487,7.205.1.011-.056-.09L30.054,27.3l-1.235.7ZM27.831,8.417l-.045-.067-.045.067L26.609,26.7l1.009.606ZM44.8,8.26l.033.079a37.89,37.89,0,0,1,3.715,4A25.147,25.147,0,0,1,53.923,28,26.259,26.259,0,0,1,50.6,40.648l.292.539-.606.034a25.9,25.9,0,0,1-44.542,0l-.572-.034.235-.539A27.956,27.956,0,0,1,2.57,32.714l-.056-.056-.034.079a24.186,24.186,0,0,0,2.693,8.45A25.433,25.433,0,0,0,28.011,54.833,26.888,26.888,0,0,0,54.8,28,25.46,25.46,0,0,0,44.889,8.26ZM27.573,2.7A25.347,25.347,0,0,0,2.727,28,26.724,26.724,0,0,0,5.858,40.233L23.4,25.856l1.436.819L5.678,40.726l-.079.2h.213L27.6,28.662l-.045,4.388L6.318,41.029a25.328,25.328,0,0,0,43.353.011L28.449,33.073l-.056-4.4L50.232,40.929h.191l-.09-.169L31.165,26.687l1.425-.831L50.142,40.244A26.093,26.093,0,0,0,53.307,28,25.35,25.35,0,0,0,28.46,2.693l3.681,22.389-3.759,2.211L28.112,2.278,28,2.155l-.1.123L25.25,25.9l-1.414-.819ZM10.122,48.593A29.2,29.2,0,0,1,1.549,28,26.5,26.5,0,0,1,28,1.549c12.76,0,23.634,9.213,26.822,21.334l.068.045.034-.079A27.4,27.4,0,0,0,.617,28a27.6,27.6,0,0,0,9.449,20.661l.079.011Z" fill="#231815"/>
      </g>
    </g>
  </g>
</svg>
