<svg xmlns="http://www.w3.org/2000/svg" width="100" height="100"><path data-name="패스 791876" d="M50.149 31.024a39.812 39.812 0 009.753-1.2l.4-.1.3.278a15.253 15.253 0 014.515 7.851l.089.4-.289.3a39.774 39.774 0 00-9.708 16.859l-.111.4-.4.122a15.476 15.476 0 01-4.548.678 15.232 15.232 0 01-4.559-.7l-.389-.122-.111-.389a39.919 39.919 0 00-9.731-16.848l-.289-.3.089-.4a15.361 15.361 0 014.559-7.873l.3-.278.4.1a40.146 40.146 0 009.73 1.223z" fill="#002968" fill-rule="evenodd"/><path data-name="패스 791877" d="M36.893 41.256a13.251 13.251 0 113.881 9.364 13.163 13.163 0 01-3.881-9.364z" fill="#002968" fill-rule="evenodd"/><path data-name="패스 791878" d="M40.349 30.997a14.308 14.308 0 00-2.5 3.176 14 14 0 00-1.49 3.719 41.361 41.361 0 015.944 7.918 40.533 40.533 0 013.845 9.044 14.723 14.723 0 001.887.419 13.783 13.783 0 002.11.163 14.56 14.56 0 002.14-.156 14.055 14.055 0 001.846-.4 40.938 40.938 0 019.778-16.985 14.149 14.149 0 00-3.943-6.873 41.106 41.106 0 01-9.821 1.192 39.725 39.725 0 01-5.108-.333A42.306 42.306 0 0140.346 31zm-3.222 2.756a15.125 15.125 0 012.816-3.525l.168-.155.219.055a41.679 41.679 0 004.815.92 38.92 38.92 0 005 .323 40.334 40.334 0 009.841-1.221l.22-.056.167.156a14.952 14.952 0 014.4 7.677l.05.221-.156.162a40.185 40.185 0 00-9.8 17.015l-.062.22-.219.067a14.8 14.8 0 01-2.188.5 15.345 15.345 0 01-2.261.166 14.644 14.644 0 01-2.235-.173 15.607 15.607 0 01-2.225-.514l-.219-.068-.062-.219a39.676 39.676 0 00-3.83-9.073 40.543 40.543 0 00-5.977-7.92l-.156-.162.05-.221a14.814 14.814 0 011.633-4.174z" fill="#e5e5e6"/><path data-name="패스 791879" d="M37.229 41.256a12.912 12.912 0 113.782 9.127 12.881 12.881 0 01-3.782-9.127zm4.374-8.543a12.075 12.075 0 108.535-3.537 12.049 12.049 0 00-8.535 3.537z" fill="#e5e5e6"/><path data-name="패스 791880" d="M45.777 40.561a2.251 2.251 0 011.2.081 1.849 1.849 0 01.9.7l.2.477-.475-.174a2.645 2.645 0 00-2.118.038 2.527 2.527 0 01-2.671-.246 1.738 1.738 0 01-.458-.53 4.174 4.174 0 01-.263-.533l-.293-.7.611.455a4.038 4.038 0 003.349.443h.012z" fill="#e5e5e6"/><path data-name="패스 791881" d="M49.861 37.082a2.574 2.574 0 00-2.035.622 1.654 1.654 0 00-.423.623s-2.28-1.546-2.991 1.813c0 0 1.379-.99 2.168-.345a2.155 2.155 0 001.134.756c1 .267.89.467.934.679 0 0-.133.312-1 .856s-1.345.29-2.135.034c0 0-.055 1.167 1.512 1.145a3.285 3.285 0 00.567-.011 2.112 2.112 0 00-1.168 2.724 3.2 3.2 0 011.357-.956 3.084 3.084 0 00.656 4.57s0-2.068.767-2.7a8.778 8.778 0 01.289 2.547 3.246 3.246 0 01-.278 1.2s3.191-.067 2.28-3.9a1.823 1.823 0 011.012 2.18 2.863 2.863 0 00.978-4.382 1.55 1.55 0 011.413 1.291 3.555 3.555 0 00-1-4.626 1.433 1.433 0 011.479.556 3.346 3.346 0 00-1.768-2.68c-.389-.211.222-.834.067-1.179l-3.815-.812z" fill="#ce0037" fill-rule="evenodd"/><path data-name="패스 791882" d="M51.826 38.475a1.568 1.568 0 11.445 1.157l-.445-1.157z" fill="#ce0037" fill-rule="evenodd"/><path data-name="패스 791883" d="M52.329 38.663a2.838 2.838 0 011.3-.7 1.813 1.813 0 01-1.167 1l-.133-.3z" fill="#e5e5e6" fill-rule="evenodd"/><path data-name="패스 791884" d="M49.296 40.521a.628.628 0 00-.634-.089c.612.022.711.889 1.379.711a1.139 1.139 0 00.334-.156c-.434.178-.789-.222-1.078-.467z" fill="#e5e5e6" fill-rule="evenodd"/><path data-name="패스 791885" d="M52.768 42.998a1.953 1.953 0 00-.37-.843 1.986 1.986 0 00-.919-.594 5.388 5.388 0 01.2 1.161 1.76 1.76 0 01-.24.952 1.457 1.457 0 01-.413.427 1.735 1.735 0 00.1-.926 1.932 1.932 0 00-.647-1.025 4.152 4.152 0 01-.08.855 1.189 1.189 0 01-.448.7 1.3 1.3 0 00-.062-.963l-.378.2a.9.9 0 01-.016.749 2.771 2.771 0 01-.585.663c.765-.046 1.459-.126 1.815-.981a2.373 2.373 0 01-.625 1.47 2.218 2.218 0 001.679-.934 2.258 2.258 0 00.3-1.49 2.971 2.971 0 01.345 1.845 3.11 3.11 0 00.9-2.105 2.727 2.727 0 00-.889-1.943l-.145.445a2.334 2.334 0 01.477 2.338z" fill="#e5e5e6" fill-rule="evenodd"/><path data-name="패스 791886" d="M46.74 41.002a1.868 1.868 0 00-.88-.035 4.8 4.8 0 01-3.077-.176 1.149 1.149 0 00.279.3l.01.007.006.006a2.2 2.2 0 002.289.169 4.941 4.941 0 011.373-.27z" fill="#ce0037"/><path data-name="패스 791887" d="M50.583 35.985c.267.445.7 1.034 1.245 1.034a1.239 1.239 0 001.156-.69.65.65 0 01-.356-.022.765.765 0 01-.445-.912.708.708 0 01.879-.5.727.727 0 01.322.2.77.77 0 01-.067-.567.928.928 0 01.968-.634l-1.557 3.837H47.59l-1.568-3.659a.922.922 0 01.957.634.58.58 0 01-.066.49c.078-.089.2-.256.322-.3a.831.831 0 01.923.6.675.675 0 01-.423.845 1.206 1.206 0 01-.445-.011 1.34 1.34 0 001.223.69c.545 0 .945-.59 1.212-1.034a.717.717 0 01-1.134-.59.722.722 0 01.712-.734.662.662 0 01.356.1.75.75 0 01-.222-.523.717.717 0 111.434 0 .789.789 0 01-.233.534.705.705 0 01.367-.111.721.721 0 01.712.734.712.712 0 01-.712.723 1.314 1.314 0 01-.422-.134z" fill="#e8b91e" fill-rule="evenodd"/><path data-name="패스 791888" d="M48.888 38.626a1.464 1.464 0 00-.227 0 .379.379 0 01-.389.367.392.392 0 01-.39-.3 1.271 1.271 0 01-.212-.042.655.655 0 00.506.562.592.592 0 00.66-.467 1.125 1.125 0 01.051-.12zm-.74-.955a.742.742 0 00-.15.154l-.011.016-.015.014a1.9 1.9 0 00-.3.37 1 1 0 00.719.026h.016a1.513 1.513 0 01.984.111 1.054 1.054 0 01.4.276l-.3.273s-.2-.222-.27-.023a.99.99 0 01-1.118.731 1.136 1.136 0 01-.865-1.148c-.3-.178-1.821-.945-2.494 1.234a1.856 1.856 0 011.971-.07l.024.02.014.019a1.927 1.927 0 001.016.677c1.016.271 1.047.524 1.078.779 0 .023.005.046.008.06l.014.064-.026.06s-.159.372-1.082.952a1.917 1.917 0 01-1.979.167c.106.275.4.637 1.242.625h.015a3.158 3.158 0 00.533-.01l1.378-.148-1.273.549a1.921 1.921 0 00-1.152 2.124 2.932 2.932 0 011.207-.752l.637-.159-.427.5a2.833 2.833 0 00.308 3.978 3.832 3.832 0 01.824-2.407l.253-.21.083.319a9.056 9.056 0 01.3 2.613 4.322 4.322 0 01-.156.935c.746-.144 2.414-.783 1.744-3.6l-.09-.376.364.13a1.951 1.951 0 011.188 1.975c.656-.477 1.914-1.75.556-3.866l-.211-.329.389.006a1.7 1.7 0 011.436.97 3.4 3.4 0 00-1.166-3.94l-.3-.267.391-.094a1.8 1.8 0 011.208.174 3.047 3.047 0 00-1.545-1.908l-.013-.007a2.613 2.613 0 01-1.168.574l-.086-.41a3.084 3.084 0 001.9-1.892 2.983 2.983 0 00-2.141 1.072l-.326-.263a3.345 3.345 0 012.767-1.211l.234.027-.054.229a3.966 3.966 0 01-.817 1.568 3.568 3.568 0 011.779 2.8l.039.765-.423-.639a1.087 1.087 0 00-.811-.486 3.694 3.694 0 01.684 4.552l-.258.41-.121-.469a1.446 1.446 0 00-.783-1.025 3.027 3.027 0 01-1.311 4.25l-.364.187.062-.405a1.766 1.766 0 00-.5-1.724c.6 3.621-2.564 3.688-2.573 3.688l-.383.013.2-.329a3.03 3.03 0 00.249-1.1v-.023a6.993 6.993 0 00-.19-2.057 5.63 5.63 0 00-.449 2.243v.446l-.341-.286c-1.957-1.641-1.554-3.315-1.1-4.208a3.8 3.8 0 00-.613.569l-.232.276-.125-.339a2.164 2.164 0 01.638-2.577c-1.625-.058-1.563-1.358-1.563-1.362l.011-.276.263.085.246.082a1.648 1.648 0 001.711-.092 3.177 3.177 0 00.894-.719v-.013c-.013-.113-.027-.226-.766-.423a2.389 2.389 0 01-1.235-.813c-.67-.508-1.892.367-1.9.369l-.436.307.111-.522c.406-1.918 1.294-2.361 2.048-2.348a2.545 2.545 0 011.053.28 2.423 2.423 0 01.256-.356z" fill="#e5e5e6"/><path data-name="패스 791889" d="M83.284 60.195h-6.7l-3.51 8.707.011-8.719h-4.506v11.7h7.883l.708-1.779h5.624l.808 1.779h4.4l-4.716-11.688zm-19.982 6.283l-4.76-6.294h-5.713v8.685l-3.587-8.674h-6.609l-2.768 6.95h-4.129a2.352 2.352 0 01-2.557 2.1 2.754 2.754 0 01-2.746-3.047c0-2.369.93-3.592 2.712-3.592a2.277 2.277 0 012.546 2.024h4.683l.011-.178c0-2.825-2.845-4.682-7.174-4.682-4.628 0-6.82 1.813-7.2 5.972a4.425 4.425 0 00-2.568-1.357l-1.749-.156-2.579-.045c-1.107-.022-1.738-.411-1.738-1.067 0-.746.642-1.157 1.815-1.157 1.351 0 1.893.5 1.893 1.735h4.926v-.156c0-2.413-2.325-3.748-6.543-3.748-4.683 0-6.974 1.29-6.974 3.9 0 2.235 1.683 3.436 4.9 3.525l1.915.045c1.406.044 2.037.389 2.037 1.134 0 .634-.885 1.234-1.8 1.234-1.605 0-2.447-.556-2.447-1.6h-5.1v.111c0 2.536 2.546 3.926 7.174 3.926 4.461 0 6.654-.979 7.362-3.3 1.428 2.447 3.288 3.337 6.908 3.337a7.282 7.282 0 004.993-1.412l-.476 1.19h4.351l.8-1.824h5.712l.764 1.8h7.461v-6.929l5.3 6.951h5.281V60.191H63.3v6.283zm15.078.689l1.539-3.87 1.749 3.848-3.288.022zm-34.076 0l1.55-3.992 1.771 3.992z" fill="#002968" fill-rule="evenodd"/></svg>