<svg xmlns="http://www.w3.org/2000/svg" width="100" height="100"><path data-name="패스 792879" d="M64.871 62.604h-3.6c0 2.137 1.381 3.094 3.6 2.615v-2.615zm.143-7.906a59.029 59.029 0 011.891-12.787c1.768-5.928 5.323-9.447 5.084-9.809-.218-.328-3.159.271-5.364 1.789-2.353 1.621-4.663 4.293-4.492 4.494.1.121.9-.539 2.331-1.074a4.966 4.966 0 012.189-.461 39.831 39.831 0 00-3.779 8.715 63.742 63.742 0 00-1.624 9.133zm-30.028 0a59.04 59.04 0 00-1.89-12.787c-1.769-5.928-5.323-9.447-5.084-9.809.219-.328 3.159.271 5.364 1.789 2.353 1.621 4.662 4.293 4.492 4.494-.1.121-.9-.539-2.33-1.074a4.967 4.967 0 00-2.189-.461 39.851 39.851 0 013.779 8.715 63.7 63.7 0 011.625 9.133zm12.918-26.521c1.437-2.836 1.712-7.107 2.074-7.176.361.066.637 4.34 2.074 7.176 1.356 2.68 4.266 4.947 4.1 5.211-.208.334-1.819-.5-2.63-.875-1.3-.609-2.353-1.082-2.353-1.082a45.171 45.171 0 001.136 13.061 35.868 35.868 0 004.9 10.211h-4.139l-.379-.648a24.951 24.951 0 01-2.71-6.652 25.033 25.033 0 01-2.7 6.654l-.379.646h-4.139a35.857 35.857 0 004.9-10.209 45.2 45.2 0 001.136-13.062s-1.054.473-2.353 1.082c-.811.379-2.422 1.211-2.629.879-.166-.266 2.745-2.535 4.1-5.215zM35.13 62.605h3.6c0 2.137-1.381 3.094-3.6 2.615v-2.615zm20.1 1.641a6.394 6.394 0 00-1.653 4.248h-7.164a6.393 6.393 0 00-1.652-4.248 5.54 5.54 0 00-2.585-1.289c-.93-.186-.93-.289-.93-.355h17.483s0 .17-.925.359a5.513 5.513 0 00-2.573 1.283zm-21.888-8.619h33.209v1.25H33.346v-1.25zm.042 4.684h33.212v1.246H33.388v-1.246zm1.6-2.359H65V59.2H34.987v-1.248zM46.17 72.983h7.64v5.166h-7.64v-5.166zm-1.229-3.465h10.1v2.49h-10.1v-2.49z" fill="#231815" fill-rule="evenodd"/></svg>