<svg xmlns="http://www.w3.org/2000/svg" width="100" height="100" viewBox="0 0 100 100">
  <g id="car_logo_lexus" transform="translate(-219 -155)">
    <g id="W_100_H_100" data-name="W 100 H 100" transform="translate(219 155)" fill="#f9f9f9" stroke="#f0f0f0" stroke-width="1" opacity="0">
      <rect width="100" height="100" stroke="none"/>
      <rect x="0.5" y="0.5" width="99" height="99" fill="none"/>
    </g>
    <g id="lexus" transform="translate(223.776 146.856)">
      <path id="패스_804313" data-name="패스 804313" d="M75.017,61.85H67.864c-.085-1.806,1.85-1.734,1.85-1.734h7.711V58.568H69.592c-5.368.495-5.183,4.833-5.183,4.833h9.126c1.36,0,1.236.865,1.236.865a.892.892,0,0,1-.991,1H63.423v-6.7H60.461v6.7H55.038c-1.894-.007-1.894-1-1.894-1v-5.7H48.617L43.93,61.415l-4.192-2.847H29.373c-5.346.329-5.731,4.338-5.731,4.338h1.907c-.86.365-1.907,2.359-1.907,2.359H17.166a1.7,1.7,0,0,1-1.916-1.746V58.568H12.224v4.338a3.539,3.539,0,0,0,3.952,3.838H38.63l4.314-2.6,3.64,2.6h4.5l-5.842-4.461,4.789-2.848v4.831c.5,2.225,3.515,2.478,3.515,2.478H75.512a2.506,2.506,0,0,0,2.711-2.478C78.224,61.946,75.017,61.85,75.017,61.85ZM38.091,65.266H27.236a2.091,2.091,0,0,1,2.056-1.824h6.456V61.787H27.236a2,2,0,0,1,2.137-1.569h7.159V59.56l5.013,3.466Z" transform="translate(0 6.392)" fill="#1a1311"/>
      <path id="패스_804314" data-name="패스 804314" d="M48.288,55.57a1.433,1.433,0,0,1-.382.081H37.29s-1.758-.1,0-2.152l5.141-7.427a2.244,2.244,0,0,0,.356-.45.638.638,0,0,0-.389-1.041,17.517,17.517,0,0,0-3.965-.437c-7.436,0-12.194,4.151-12.217,9-.023,4.66,4.151,8.792,12.218,8.783,4.24,0,7.67-1.33,9.81-3.408h-2.1a12.234,12.234,0,0,1-7.714,2.4c-6.917,0-10.479-3.476-10.479-7.773s4.109-8.05,10.479-8.056c.274,0,.535.013.79.025.175.108.179.417-.577,1.249,0,0-1.5,1.84-3.5,4.6a25.49,25.49,0,0,0-2.284,3.445s-2.189,3.28,3,3.451h13a7.26,7.26,0,0,0,1.794-4.715c0-3.526-2.5-6.661-6.742-8.122l-.47.8c3.839,1.3,5.6,4.166,5.6,7.321a3.526,3.526,0,0,1-.482,2S48.424,55.508,48.288,55.57Z" transform="translate(6.051)" fill="#1a1311"/>
    </g>
  </g>
</svg>
