<svg xmlns="http://www.w3.org/2000/svg" width="100" height="100" viewBox="0 0 100 100">
  <g id="car_logo_westfield" transform="translate(-219 -155)">
    <g id="W_100_H_100" data-name="W 100 H 100" transform="translate(219 155)" fill="#f9f9f9" stroke="#f0f0f0" stroke-width="1" opacity="0">
      <rect width="100" height="100" stroke="none"/>
      <rect x="0.5" y="0.5" width="99" height="99" fill="none"/>
    </g>
    <g id="westfield" transform="translate(229.5 165.358)">
      <path id="패스_789298" data-name="패스 789298" d="M22.523,44.805l.765-.007-1.25,4.436-.892-4.429.788.007-.007-1.2H18.348v1.2h.786l-1.1,4.523-1.109-4.523h.831v-1.2H15.067v1.2h.9l1.527,5.933,1.156.028L19.837,45.7h.6l.9,5.067h1.193l1.791-5.961h.6l.007,4.773-.9,0v.894h5.366V48.086h-.892l-.012,1.222H26.163l0-1.828,2.28.007V46.295H26.1v-1.49h2.389V45.7l.937.007.012-2.1H22.523Z" transform="translate(0.3 2.425)" fill="none"/>
      <path id="패스_789299" data-name="패스 789299" d="M61.6,46.591l-.014-.189-.026-.181-.026-.177-.033-.169-.038-.165-.048-.159-.049-.152-.052-.147-.056-.137-.064-.134-.063-.127-.07-.125-.072-.115-.077-.108-.078-.1-.078-.093-.085-.092-.085-.085-.085-.078-.087-.07-.09-.068-.087-.059-.092-.052-.087-.048-.092-.042-.089-.03-.092-.028-.087-.021-.087-.014-.086-.012h-4.77v1.216h1.156l.035,4.45h-.6l0-1.163h-1.2l0,1.163H52.666V44.833l.63,0,0-1.226H50.6v1.223l.6-.007v4.458l-.894-.008V48.085h-.894l0,1.191H47.02V47.486l2.388,0,0-1.2H47.02V44.8h2.386v1.222l.859,0V43.61H30.376l-.113,0-.106.008-.1.007-.092.008-.088.009-.081.014-.078.014-.068.014-.068.02-.059.016-.056.018-.054.022-.05.016-.044.026-.042.021-.04.022-.036.024-.035.026-.031.023-.055.05-.05.049-.087.1-.09.087-.087.141-.078.141-.068.142-.056.143-.042.146-.036.149-.023.143-.014.143-.008.146.008.141.014.139.023.141.034.134.042.134.05.127.059.127.068.12.078.113.085.108.091.1.1.1.111.09.113.085.12.074.129.068.134.056.144.044.147.04.156.028.157.016.169.008.17-.008.075,0,.07,0,.066.007.066.008.061.014.064.011.056.017.056.016.052.021.054.022.05.026.044.024.047.033.042.028.038.03.038.036.035.04.036.035.028.042.028.042.028.042.026.046.021.047.017.049.018.048.014.054.014.052.01.054.007.056.008.059,0,.061v.1l0,.042-.008.04,0,.042-.012.034-.009.039-.013.036-.013.03-.016.033-.02.031-.016.033L31.679,49l-.021.024-.026.028-.024.021-.028.026-.028.022-.028.021-.03.017-.034.018-.07.03-.073.026-.078.016-.082.014-.087.008-.089,0h-.066l-.064,0-.059-.008-.064-.01-.061-.014-.056-.013-.06-.02-.056-.021-.054-.022-.051-.028-.054-.024-.048-.033-.049-.03-.048-.036-.044-.036-.042-.039-.04-.042-.038-.042-.04-.042-.03-.046-.033-.049-.031-.05-.025-.052-.024-.054-.021-.056-.022-.056-.018-.056-.01-.059-.012-.062-.01-.063,0-.064v-.062h-.894V50.47h.93l0-.285.059.064.064.059.061.056.066.056.068.054.066.05.075.044.076.042.082.038.085.033.092.028.093.024.1.018.113.01.116.007.121,0,.114-.007.113-.012.111-.016.108-.026.105-.028.1-.03.1-.04.1-.043.094-.047.092-.054.091-.059.086-.064.085-.068.079-.073.076-.078.073-.082.068-.087.066-.092.059-.093.054-.1.052-.106L33,49.449l.042-.114.036-.12.03-.121.028-.128.022-.131.014-.132.012-.139,0-.143,0-.149-.008-.151,0-.082-.008-.085-.014-.08-.014-.085-.023-.082-.026-.08-.03-.082-.036-.075-.04-.078-.044-.077-.05-.076-.054-.073-.056-.07-.061-.07-.068-.069-.066-.061-.076-.063-.077-.062-.085-.056-.085-.052-.087-.053-.1-.046-.1-.047-.1-.042-.105-.036-.106-.036-.113-.028-.114-.023-.119-.022-.12-.016-.123-.012-.127-.008-.123.008-.113,0-.106-.014-.1-.022-.1-.028-.085-.035-.08-.048-.07-.044-.064-.056-.059-.061-.05-.064-.042-.063-.039-.072-.029-.073-.021-.07-.016-.078-.008-.073v-.075l.008-.074.013-.07.022-.07.028-.068.038-.061.042-.062.054-.056.056-.05.066-.044.075-.036.08-.033.087-.024.1-.014.1,0,.885,0h.06l.056,0,.049.012.05.014.042.021.035.024.036.026.03.03.026.036.024.036.021.042.02.042.014.042.014.044.01.049.007.05.012.106,0,.106v.105l0,.106-.012.2L32,46.02l1.032,0V44.8H33.9l0,4.488h-.523l-.021,1.177,2.685,0v-1.2h-.645V44.8h.892v1.22H37.3l0-1.22h.774v4.472h-.894V50.47l2.978,0,.007-1.2h-.894V47.413h2.085V46.294H39.269V44.8l2.2-.018.007,1.28h.866V44.791h.508l0,4.488-.6,0V50.47H59.224l.09-.008.092-.01.091-.018.094-.024.1-.027.1-.036.1-.042.1-.048.1-.056.1-.059.1-.068.1-.073.094-.078.1-.087.094-.1.092-.1.089-.105.088-.118.08-.123.077-.129.078-.139.068-.143.066-.156.061-.158.052-.169.05-.176.041-.186.036-.191.028-.2.016-.207.014-.218.005-.227-.005-.2ZM45.53,49.279l-.3,0h-.892V44.8H45.53Zm14.59-2.332,0,.137,0,.134-.008.131-.011.127-.01.123-.012.12-.016.115-.014.111-.021.108-.022.1-.026.1-.024.1-.028.092-.033.087-.036.082-.035.077-.038.074-.042.066L59.7,48.9l-.048.056-.051.056-.054.05-.056.046-.057.039-.063.036-.064.028-.07.023-.07.022-.073.014-.078.008-.085,0H56.841V44.8h2.125l.042.008.042.01.04.018.047.016.05.026.044.028.05.031.049.035.05.04.049.044.05.05.05.05.049.055.05.06.047.063.044.064.046.07.042.075.042.078.04.08.035.085.036.087.03.09.028.094.026.1.024.1.018.1.014.106.01.111.007.113,0,.116Z" transform="translate(1.05 2.425)" fill="none"/>
      <path id="패스_789300" data-name="패스 789300" d="M52.812,16.156l-.177-.122-.184-.12-.184-.12-.186-.12-.186-.116-.191-.118-.191-.115-.193-.113-.2-.113-.2-.108-.2-.113-.2-.106-.205-.111-.2-.106-.209-.1-.212-.106-.214-.1-.212-.1-.219-.1-.216-.1-.224-.094-.221-.1-.226-.094-.226-.092-.228-.091-.233-.092-.233-.087-.235-.089-.235-.087-.24-.084-6.1,21.887.174.071.172.066.165.066.167.063.163.068.155.066.151.068.148.066L53.165,16.406l-.174-.125Z" transform="translate(2.165 0.118)" fill="#1d1d1b"/>
      <path id="패스_789301" data-name="패스 789301" d="M33.8,64.044l.5.066.252.033.245.03.247.026.247.024.247.026.247.017.242.019.242.014.245.014.242.007.24,0,.242,0V51.842H34.554L33.293,63.969Z" transform="translate(1.665 3.009)" fill="#1d1d1b"/>
      <path id="패스_789302" data-name="패스 789302" d="M28.689,62.665l.256.091.264.092.266.089.266.085.273.084.275.08.28.08.282.078.285.075.29.073.292.071.294.069.3.063.3.061.885-11.916H30.214L28.185,62.479l.249.094Z" transform="translate(1.271 3.009)" fill="#1d1d1b"/>
      <path id="패스_789303" data-name="패스 789303" d="M23.22,59.674l.268.177.275.174.278.175.285.174.294.169.3.172.306.17.313.169.322.165.33.165.339.167.346.165.356.163.367.162,1.589-10.2H25.01L22.7,59.325l.257.177Z" transform="translate(0.851 3.009)" fill="#1d1d1b"/>
      <path id="패스_789304" data-name="패스 789304" d="M18.26,55.08l.2.212.2.212.21.214.207.211.212.212.214.214.219.212.221.207.228.211.231.207.233.212.237.2.24.207.247.2.254.2.254.2,2.045-6.585H19.439Z" transform="translate(0.569 3.009)" fill="#1d1d1b"/>
      <path id="패스_789305" data-name="패스 789305" d="M16.181,52.282l.059.1.063.1.064.1.068.1.07.092.071.091.068.089.148.177.153.176.151.177.155.179.579-1.822H16.338l-.214.336Z" transform="translate(0.389 3.083)" fill="#1d1d1b"/>
      <path id="패스_789306" data-name="패스 789306" d="M11.5,36.562l0,.379v.388l0,.39.007.391.007.4.014.4.017.4.019.4.028.4.028.4.036.4.042.393.05.388.023.193.028.2.028.188.033.191,17.672.012.146-1.43L11.5,36.184Z" transform="translate(0 1.866)" fill="#1d1d1b"/>
      <path id="패스_789307" data-name="패스 789307" d="M12.771,29.778l-.115.381-.113.381-.106.379-.1.381-.092.383-.09.384-.08.383L12,32.84l-.071.383-.066.388L11.8,34l-.061.388-.051.391-.05.388-.047.391,18.362,4.778L30,40.173l.054-.162.059-.163.061-.162.064-.165.07-.163.066-.162.071-.165L12.893,29.4Z" transform="translate(0.007 1.335)" fill="#1d1d1b"/>
      <path id="패스_789308" data-name="패스 789308" d="M16.336,22.8l-.1.139-.1.148-.11.158-.113.172L15.8,23.6l-.12.2-.12.2-.127.207-.123.219-.132.219-.127.228-.256.461-.254.474-.245.473-.237.464-.113.23-.108.221-.1.219-.1.21-.092.2-.084.2-.082.186-.073.176-.064.165-.056.153-.045.139-.04.125,17.966,9.228.68-.906L16.43,22.679Z" transform="translate(0.134 0.818)" fill="#1d1d1b"/>
      <path id="패스_789309" data-name="패스 789309" d="M21.941,17.046l-.367.287-.358.3-.358.3-.174.151-.177.153-.174.151-.172.156-.17.155-.169.158-.165.16-.165.158-.167.158-.163.163L19,19.649l-.158.163-.156.165-.158.167-.153.167-.151.17-.151.169-.148.174L17.783,21l-.144.172-.144.177-.141.176-.139.179-.136.177,15,15.173.188-.181.193-.172.2-.17.2-.165.2-.16.212-.155.214-.151.219-.148L22.316,16.759Z" transform="translate(0.469 0.431)" fill="#1d1d1b"/>
      <path id="패스_789310" data-name="패스 789310" d="M37.129,11.645l-.3.01-.3.014-.3.019-.311.024-.311.028-.311.036-.308.035-.311.04-.311.042-.306.045-.3.05-.3.049-.287.05-.287.049-.275.054-.527.1-.482.1-.431.094-.374.091-.306.078-.233.064-.087.026-.064.021-.043.014-.016.009,5.907,21.981.223-.045.216-.04.219-.035.219-.031.214-.021.212-.019.212-.014.207,0-.259-22.925Z" transform="translate(1.406)" fill="#1d1d1b"/>
      <path id="패스_789311" data-name="패스 789311" d="M29.213,13.127l-.235.087-.235.089-.233.087-.233.092-.228.091-.226.092-.226.094-.221.1-.223.094-.217.1-.219.1-.212.1-.214.1-.212.106-.209.1-.2.106-.2.111-.2.106-.2.113-.2.108-.2.113-.193.113-.19.115-.191.118-.186.116-.186.12-.184.12-.184.12-.177.122L23,16.281l-.174.125L34.259,35.464l.148-.066.151-.068.155-.066.163-.068.167-.063.165-.066L35.379,35l.174-.071-6.1-21.887Z" transform="translate(0.847 0.118)" fill="#1d1d1b"/>
      <path id="패스_789312" data-name="패스 789312" d="M38.151,64.327l.24,0,.245,0,.238-.007.244-.014.245-.014.245-.019.247-.017.242-.026.247-.024.249-.026.247-.03.249-.033.5-.066.5-.076L40.837,51.842H38.151Z" transform="translate(2.036 3.009)" fill="#1d1d1b"/>
      <path id="패스_789313" data-name="패스 789313" d="M42,51.842l.88,11.916.3-.061.294-.063.3-.069.292-.071.29-.073.285-.075.282-.078.278-.08.28-.08.271-.084.268-.085.264-.089.261-.092.261-.091.252-.092.247-.094L45.283,51.842Z" transform="translate(2.324 3.009)" fill="#1d1d1b"/>
      <path id="패스_789314" data-name="패스 789314" d="M48.361,61.877l.355-.163.343-.165.339-.167.332-.165.32-.165.313-.169.308-.17.3-.172.289-.169.287-.174.28-.175.273-.174.268-.177.266-.172.257-.177L50.58,51.842H46.4l1.589,10.2Z" transform="translate(2.652 3.009)" fill="#1d1d1b"/>
      <path id="패스_789315" data-name="패스 789315" d="M53.912,58.227l.249-.2.247-.2.242-.207.24-.2.233-.212.228-.207.226-.211.226-.207.216-.212.216-.214.212-.212.207-.211.2-.214.205-.212.195-.212-1.176-3.238H51.61l2.048,6.585Z" transform="translate(3 3.009)" fill="#1d1d1b"/>
      <path id="패스_789316" data-name="패스 789316" d="M57.966,53.663l.153-.183.148-.182.141-.184.139-.188.139-.188.137-.188.134-.186.139-.186-.219-.336H57.385Z" transform="translate(3.485 3.083)" fill="#1d1d1b"/>
      <path id="패스_789317" data-name="패스 789317" d="M43.105,49.184H44l.3,0V44.712H43.105Z" transform="translate(2.426 2.523)" fill="#1d1d1b"/>
      <path id="패스_789318" data-name="패스 789318" d="M63.721,51.048l.186-.34.181-.342.174-.344.171-.342.162-.336.156-.337.154-.334.143-.332.14-.327.134-.32.13-.318.122-.313.115-.3.11-.3.1-.289.1-.282.093-.273.089-.266.08-.253.076-.244.07-.233.064-.217.058-.209L66.587,44l.05-.179.037-.167.04-.151.031-.139.026-.118.016-.1.014-.086H12.1l.072.283.084.3.092.308.1.315.1.325.108.332.115.336.118.344.124.344.126.346.129.346.129.342.132.342.134.338.134.332.132.323.134.318.129.306.126.294.126.285.12.269.118.252.113.237.1.219.1.2.092.178.086.156.076.134.07.107.061.082.051.052.04.026,48.047-.04ZM29.555,45.753l-.93-.008v-.894H26.251v1.49h2.331v1.191l-2.265-.007,0,1.828h2.3l.012-1.222h.886v2.385h-5.33v-.894l.9,0-.008-4.773h-.591L22.7,50.813H21.514l-.89-5.067h-.591L18.85,50.813,17.7,50.785l-1.517-5.934h-.89V43.656h2.667v1.195h-.826l1.1,4.524,1.1-4.524h-.781V43.656h3.554l.008,1.2-.783-.008.886,4.43,1.24-4.436-.759.007V43.656h6.868Zm33.079,1.509-.014.218-.016.207-.028.2-.036.191-.041.186-.05.176-.052.169-.06.158-.066.156-.068.143-.078.139-.076.129-.08.123-.087.118-.088.105-.092.1-.094.1-.095.087-.094.078-.1.073-.1.068-.1.059-.1.056-.1.048-.1.042-.1.036-.1.027-.094.024-.09.018-.092.01-.089.008H43.408V49.323l.592,0,0-4.488h-.5v1.276h-.86l-.006-1.28-2.184.018v1.49H42.52v1.119H40.45v1.864h.888l-.006,1.2-2.958,0V49.323h.888V44.851h-.769l0,1.22H37.486v-1.22H36.6v4.472h.641v1.2l-2.667,0,.02-1.177h.519l0-4.488h-.86v1.22l-1.025,0,.006-.169.012-.2,0-.106v-.105l0-.106-.012-.106-.006-.05-.01-.049-.014-.044-.014-.042-.019-.042L33.152,45l-.024-.036-.026-.036-.03-.03-.036-.026L33,44.851l-.042-.021-.05-.014-.048-.012-.056,0h-.059l-.879,0-.1,0-.1.014-.086.024-.08.033-.074.036-.066.044-.056.05-.054.056-.042.062-.038.061-.028.068-.022.07-.013.07-.008.074v.075l.008.073.016.078.02.07.029.073.039.072.042.063.05.064.058.061.064.056.07.044.08.048.084.035.1.028.1.022.106.014.112,0,.122-.008.126.008.122.012.12.016.118.022.113.023.112.028.106.036.1.036.1.042.095.047.095.046.086.053.084.052.084.056.076.062.075.063.066.061.068.069.06.07.056.07.054.073.05.076.044.077.04.078.036.075.03.082.026.08.023.082.014.085.014.08.008.085,0,.082.008.151,0,.149,0,.143-.012.139-.014.132-.022.131-.028.128-.03.121-.036.12-.042.114-.046.107-.052.106-.054.1-.058.093L33.951,50l-.068.087-.072.082-.075.078-.079.073-.084.068-.085.064-.09.059-.092.054-.094.047-.1.043-.1.04-.1.03-.1.028-.108.026-.11.016-.112.012-.113.007-.121,0-.115-.007-.112-.01-.1-.018-.093-.024-.092-.028-.084-.033-.082-.038-.075-.042-.074-.044-.066-.05-.068-.054-.066-.056-.06-.056L31.09,50.3l-.058-.064,0,.285H30.1V48.132h.888v.062l0,.064.01.063.012.062.01.059.018.056.022.056.02.056.024.054.025.052.031.05.032.049.03.046.04.042.038.042.04.042.042.039.044.036.047.036.048.03.047.033.054.024.051.028.054.022.056.021.059.02.056.013.06.014.064.01.058.008.064,0h.066l.088,0,.086-.008.082-.014.078-.016.072-.026.07-.03.033-.018.03-.017.028-.021.028-.022.028-.026.024-.021.026-.028.02-.024.022-.028.016-.033.019-.031.016-.033.013-.03.013-.036.009-.039.012-.034,0-.042.008-.04,0-.042v-.1l0-.061-.008-.059-.006-.056-.01-.054L33,48.276l-.014-.054-.018-.048-.017-.049-.02-.047-.026-.046-.028-.042-.028-.042-.028-.042-.036-.035-.034-.04-.038-.036-.038-.03-.042-.028-.046-.033-.044-.024-.05-.026-.054-.022-.052-.021-.056-.016-.056-.017-.064-.011-.06-.014-.066-.008-.066-.007-.07,0-.074,0-.169.008-.168-.008-.156-.016-.155-.028-.146-.04-.143-.044-.134-.056-.128-.068-.12-.074-.112-.085-.11-.09-.1-.1-.09-.1-.084-.108-.078-.113-.068-.12-.058-.127-.05-.127-.042-.134-.033-.134-.023-.141-.014-.139-.008-.141L29.7,45.4l.014-.143.023-.143.036-.149.042-.146.056-.143.068-.142.078-.141.086-.141.089-.087.086-.1.05-.049.055-.05.031-.023.034-.026.036-.024.04-.022.042-.021.044-.026.05-.016.054-.022.056-.018.058-.016.068-.02.068-.014.078-.014.081-.014.087-.009.092-.008.1-.007.106-.008.112,0H51.37v2.414l-.853,0V44.851h-2.37v1.49h2.37l0,1.2-2.372,0v1.791h2.372l0-1.191h.888v1.191l.888.008V44.873l-.591.007V43.656h2.674l0,1.226-.626,0v4.444h1.484l0-1.163h1.189l0,1.163h.591l-.034-4.45H55.83V43.656h4.738l.085.012.086.014.086.021.092.028.088.03.092.042.086.048.092.052.086.059.089.068.086.07.084.078.084.085.084.092.078.093.078.1.076.108.071.115.07.125.062.127.064.134.056.137.052.147.048.152.047.159.038.165.032.169.026.177.026.181.014.189.009.2.005.2Z" transform="translate(0.051 2.377)" fill="#1d1d1b"/>
      <path id="패스_789319" data-name="패스 789319" d="M57.905,46.485l-.009-.11-.014-.106-.019-.1-.024-.1-.026-.1-.028-.094-.031-.089L57.72,45.7l-.036-.084-.04-.08-.043-.078-.042-.075-.045-.071-.045-.063-.047-.064-.05-.059-.049-.056-.049-.05-.05-.049-.049-.045-.05-.04-.049-.035-.05-.031-.045-.028-.05-.026-.047-.016-.04-.019L56.8,44.72l-.042-.007H54.637v4.472h2.085l.085,0,.078-.007.073-.014.07-.021.071-.023.063-.028.064-.036.057-.04.057-.045.054-.05.051-.056.047-.056.045-.068.042-.066.038-.073.035-.078.036-.082.033-.087.028-.092.024-.1.026-.1.021-.1.021-.108.014-.111.016-.115.012-.12.009-.122.012-.127.007-.132,0-.134,0-.137v-.141l0-.116Z" transform="translate(3.254 2.523)" fill="#1d1d1b"/>
      <path id="패스_789320" data-name="패스 789320" d="M29.37,42.622H46.942c-.25-5.374-3.428-8.426-8.784-8.534C33.013,34.4,29.63,37.366,29.37,42.622Z" transform="translate(1.316 1.698)" fill="#1d1d1b"/>
      <path id="패스_789321" data-name="패스 789321" d="M64.907,36.184,46.728,41.015l.146,1.43,17.672-.012.033-.191.028-.188.028-.2.024-.193.049-.388.042-.393.036-.4.028-.4.028-.4.019-.4.017-.4.014-.4.007-.4.007-.391,0-.39v-.388l0-.379Z" transform="translate(2.589 1.866)" fill="#1d1d1b"/>
      <path id="패스_789322" data-name="패스 789322" d="M64.825,35.17l-.05-.388-.052-.391L64.663,34l-.064-.391-.066-.388-.071-.383-.077-.388-.08-.383-.089-.384-.092-.383-.1-.381-.106-.379-.113-.381-.115-.381-.122-.376-17.547,9.63.071.165.066.162.07.163.064.165.061.162.059.163.054.162.045.165,18.362-4.778Z" transform="translate(2.529 1.335)" fill="#1d1d1b"/>
      <path id="패스_789323" data-name="패스 789323" d="M63.262,28.7l-.056-.153-.064-.165L63.07,28.2l-.082-.186-.085-.2-.092-.2-.1-.21-.1-.219-.108-.221-.113-.23-.238-.464-.245-.473-.254-.474-.257-.461-.127-.228-.132-.219-.122-.219-.127-.207-.12-.2-.12-.2-.116-.184-.113-.172-.11-.158-.1-.148-.1-.139-.094-.118L44.7,37.282l.68.906L63.347,28.96l-.04-.125Z" transform="translate(2.418 0.818)" fill="#1d1d1b"/>
      <path id="패스_789324" data-name="패스 789324" d="M58.934,21.52l-.141-.176-.144-.177L58.506,21l-.146-.172-.148-.174-.151-.169-.153-.17-.151-.167-.158-.167-.155-.165-.158-.163-.162-.162-.163-.163-.167-.158-.165-.158-.165-.16-.17-.158-.17-.155-.172-.156-.174-.151-.177-.153-.174-.151-.357-.3-.358-.3-.367-.287-.374-.287L42.582,35.747l.219.148.214.151.212.155.2.16.2.165.2.17.193.172.188.181,15-15.173-.137-.177Z" transform="translate(2.24 0.431)" fill="#1d1d1b"/>
      <path id="패스_789325" data-name="패스 789325" d="M45.484,12.77l-.064-.021-.087-.026-.233-.064-.306-.078-.374-.091-.431-.094-.482-.1-.529-.1-.273-.054-.287-.049-.287-.05-.3-.049-.3-.05-.306-.045-.311-.042-.31-.04-.308-.035-.311-.036-.311-.028-.311-.024-.3-.019-.3-.014-.3-.01-.29,0-.259,22.925.207,0,.212.014.212.019.214.021.219.031.219.035.216.04.223.045,5.907-21.981-.017-.009Z" transform="translate(2.002)" fill="#1d1d1b"/>
    </g>
  </g>
</svg>
