<svg xmlns="http://www.w3.org/2000/svg" xmlns:xlink="http://www.w3.org/1999/xlink" width="100" height="100" viewBox="0 0 100 100">
  <defs>
    <clipPath id="clip-path">
      <path id="패스_799786" data-name="패스 799786" d="M37.511,57.085l-.011,0V62.5l.011,0,4.313-1.544q1.341-1.358,2.522-2.774l-6.834-1.1Z" transform="translate(-37.5 -57.085)" fill="none"/>
    </clipPath>
    <linearGradient id="linear-gradient" x1="-249.879" y1="71.05" x2="-249.873" y2="71.05" gradientUnits="objectBoundingBox">
      <stop offset="0" stop-color="#c49a6b"/>
      <stop offset="1" stop-color="#a97c50"/>
    </linearGradient>
    <clipPath id="clip-path-2">
      <path id="패스_799787" data-name="패스 799787" d="M37.5,29.987V35.4h.011l10.358-1.753,7.159,2.226c.257-1.154.468-2.25.638-3.267l-7.8,1L37.511,29.984Z" transform="translate(-37.5 -29.984)" fill="none"/>
    </clipPath>
    <linearGradient id="linear-gradient-2" x1="-94.407" y1="70.328" x2="-94.405" y2="70.328" xlink:href="#linear-gradient"/>
    <clipPath id="clip-path-3">
      <path id="패스_799788" data-name="패스 799788" d="M37.5,19.141h.011l6.523-.365c-3.156-1.294-5.716-2.151-6.534-2.418Z" transform="translate(-37.5 -16.359)" fill="none"/>
    </clipPath>
    <linearGradient id="linear-gradient-3" x1="-261.745" y1="155.194" x2="-261.739" y2="155.194" xlink:href="#linear-gradient"/>
    <clipPath id="clip-path-4">
      <path id="패스_799789" data-name="패스 799789" d="M37.5,24.566v5.416l.011,0,10.358-1.363,7.984,2.785c.2-1.382.327-2.594.4-3.586l-8.388.762L37.511,24.563Z" transform="translate(-37.5 -24.563)" fill="none"/>
    </clipPath>
    <linearGradient id="linear-gradient-4" x1="-91.438" y1="61.398" x2="-91.435" y2="61.398" xlink:href="#linear-gradient"/>
    <clipPath id="clip-path-5">
      <path id="패스_799790" data-name="패스 799790" d="M37.5,35.406v5.415l.011,0L47.869,38.68l5.984,1.634c.292-.958.551-1.893.782-2.8h0L47.869,38.64,37.511,35.4Z" transform="translate(-37.5 -35.404)" fill="none"/>
    </clipPath>
    <linearGradient id="linear-gradient-5" x1="-100.078" y1="75.425" x2="-100.075" y2="75.425" xlink:href="#linear-gradient"/>
    <clipPath id="clip-path-6">
      <path id="패스_799791" data-name="패스 799791" d="M37.5,62.507v2.3q1.252-.975,2.4-2h0l-2.386-.295Z" transform="translate(-37.5 -62.506)" fill="none"/>
    </clipPath>
    <linearGradient id="linear-gradient-6" x1="-708.331" y1="163.691" x2="-708.315" y2="163.691" xlink:href="#linear-gradient"/>
    <clipPath id="clip-path-7">
      <path id="패스_799792" data-name="패스 799792" d="M37.511,19.142l-.011,0v5.415h.011l10.358-.971,8.453,3.269c.037-.669.05-1.185.052-1.52v-.006a36.174,36.174,0,0,0-3.126-2.068l-5.379.286L37.511,19.142Z" transform="translate(-37.5 -19.142)" fill="none"/>
    </clipPath>
    <linearGradient id="linear-gradient-7" x1="-90.872" y1="55.165" x2="-90.87" y2="55.165" xlink:href="#linear-gradient"/>
    <clipPath id="clip-path-8">
      <path id="패스_799793" data-name="패스 799793" d="M37.5,40.827v5.415l.011,0,10.358-2.536,4.42,1.041c.289-.722.559-1.44.809-2.147l-5.229,1.067L37.511,40.824Z" transform="translate(-37.5 -40.824)" fill="none"/>
    </clipPath>
    <linearGradient id="linear-gradient-8" x1="-109.923" y1="74.376" x2="-109.92" y2="74.376" xlink:href="#linear-gradient"/>
    <clipPath id="clip-path-9">
      <path id="패스_799794" data-name="패스 799794" d="M37.5,51.667v5.414l.011,0,10.044-3.219.116-.178h0l-10.16-2.023Z" transform="translate(-37.5 -51.665)" fill="none"/>
    </clipPath>
    <linearGradient id="linear-gradient-9" x1="-168.411" y1="72.232" x2="-168.407" y2="72.232" xlink:href="#linear-gradient"/>
    <clipPath id="clip-path-10">
      <path id="패스_799795" data-name="패스 799795" d="M37.511,46.244l-.011,0v5.413l.011,0,10.358-2.928,2.393.474c.212-.415.418-.827.616-1.241l-3.009.728L37.512,46.244Z" transform="translate(-37.5 -46.244)" fill="none"/>
    </clipPath>
    <linearGradient id="linear-gradient-10" x1="-128.128" y1="73.306" x2="-128.125" y2="73.306" xlink:href="#linear-gradient"/>
    <clipPath id="clip-path-11">
      <path id="패스_799796" data-name="패스 799796" d="M30.656,58.192q1.176,1.4,2.508,2.758L37.5,62.5V57.087Z" transform="translate(-30.656 -57.087)" fill="none"/>
    </clipPath>
    <linearGradient id="linear-gradient-11" x1="-248.805" y1="71.124" x2="-248.799" y2="71.124" gradientUnits="objectBoundingBox">
      <stop offset="0" stop-color="#c49a6b"/>
      <stop offset="1" stop-color="#fbb040"/>
    </linearGradient>
    <clipPath id="clip-path-12">
      <path id="패스_799797" data-name="패스 799797" d="M27.153,33.611l-7.818-1c.169,1.02.381,2.119.639,3.276l7.179-2.232L37.5,35.4V29.987Z" transform="translate(-19.335 -29.987)" fill="none"/>
    </clipPath>
    <linearGradient id="linear-gradient-12" x1="-93.359" y1="70.295" x2="-93.357" y2="70.295" xlink:href="#linear-gradient-11"/>
    <clipPath id="clip-path-13">
      <path id="패스_799798" data-name="패스 799798" d="M30.968,18.776l6.532.365V16.359c-.819.267-3.378,1.124-6.532,2.417" transform="translate(-30.968 -16.359)" fill="none"/>
    </clipPath>
    <linearGradient id="linear-gradient-13" x1="-260.709" y1="155.25" x2="-260.703" y2="155.25" xlink:href="#linear-gradient-11"/>
    <clipPath id="clip-path-14">
      <path id="패스_799799" data-name="패스 799799" d="M37.5,24.566,27.153,28.582l-8.409-.763c.076.993.2,2.209.4,3.6l8-2.794L37.5,29.982V24.566Z" transform="translate(-18.744 -24.566)" fill="none"/>
    </clipPath>
    <linearGradient id="linear-gradient-14" x1="-90.391" y1="61.339" x2="-90.389" y2="61.339" xlink:href="#linear-gradient-11"/>
    <clipPath id="clip-path-15">
      <path id="패스_799800" data-name="패스 799800" d="M37.5,35.407,27.153,38.64l-6.79-1.129q.346,1.363.786,2.81l6-1.641L37.5,40.821V35.407Z" transform="translate(-20.363 -35.407)" fill="none"/>
    </clipPath>
    <linearGradient id="linear-gradient-15" x1="-99.016" y1="75.504" x2="-99.014" y2="75.504" xlink:href="#linear-gradient-11"/>
    <clipPath id="clip-path-16">
      <path id="패스_799801" data-name="패스 799801" d="M35.107,62.8q1.146,1.024,2.393,2v-2.3Z" transform="translate(-35.107 -62.507)" fill="none"/>
    </clipPath>
    <linearGradient id="linear-gradient-16" x1="-708.032" y1="163.755" x2="-708.016" y2="163.755" xlink:href="#linear-gradient-11"/>
    <clipPath id="clip-path-17">
      <path id="패스_799802" data-name="패스 799802" d="M37.5,19.147,27.153,23.553l-5.4-.286a35.982,35.982,0,0,0-3.128,2.068c0,.336.016.859.052,1.534l8.475-3.277,10.347.97V19.147Z" transform="translate(-18.626 -19.147)" fill="none"/>
    </clipPath>
    <linearGradient id="linear-gradient-17" x1="-89.822" y1="55.137" x2="-89.819" y2="55.137" xlink:href="#linear-gradient-11"/>
    <clipPath id="clip-path-18">
      <path id="패스_799803" data-name="패스 799803" d="M27.153,43.669,21.9,42.6c.252.71.522,1.431.812,2.156l4.441-1.045L37.5,46.242V40.827Z" transform="translate(-21.9 -40.827)" fill="none"/>
    </clipPath>
    <linearGradient id="linear-gradient-18" x1="-108.847" y1="74.44" x2="-108.845" y2="74.44" xlink:href="#linear-gradient-11"/>
    <clipPath id="clip-path-19">
      <path id="패스_799804" data-name="패스 799804" d="M27.329,53.692l.11.166L37.5,57.081V51.667Z" transform="translate(-27.329 -51.667)" fill="none"/>
    </clipPath>
    <linearGradient id="linear-gradient-19" x1="-167.332" y1="72.307" x2="-167.328" y2="72.307" xlink:href="#linear-gradient-11"/>
    <clipPath id="clip-path-20">
      <path id="패스_799805" data-name="패스 799805" d="M27.153,48.7l-3.034-.733c.2.415.407.833.621,1.249l2.413-.477L37.5,51.661V46.248Z" transform="translate(-24.119 -46.248)" fill="none"/>
    </clipPath>
    <linearGradient id="linear-gradient-20" x1="-127.029" y1="73.408" x2="-127.026" y2="73.408" xlink:href="#linear-gradient-11"/>
    <clipPath id="clip-path-21">
      <rect id="사각형_304703" data-name="사각형 304703" width="40" height="55.966" fill="none"/>
    </clipPath>
    <clipPath id="clip-path-22">
      <path id="패스_799816" data-name="패스 799816" d="M44.033,18.777l-6.522.365,10.358,4.411,5.379-.286a71.877,71.877,0,0,0-9.213-4.49Z" transform="translate(-37.511 -18.777)" fill="none"/>
    </clipPath>
    <linearGradient id="linear-gradient-21" x1="-108.956" y1="89.292" x2="-108.954" y2="89.292" gradientUnits="objectBoundingBox">
      <stop offset="0" stop-color="#be1e2d"/>
      <stop offset="1" stop-color="#7b0512"/>
    </linearGradient>
    <clipPath id="clip-path-23">
      <path id="패스_799817" data-name="패스 799817" d="M47.869,23.592l-10.358.971,10.358,4.019,8.388-.762c.028-.347.048-.667.065-.959l-8.453-3.269Z" transform="translate(-37.511 -23.592)" fill="none"/>
    </clipPath>
    <linearGradient id="linear-gradient-22" x1="-91.18" y1="84.408" x2="-91.178" y2="84.408" xlink:href="#linear-gradient-21"/>
    <clipPath id="clip-path-24">
      <path id="패스_799818" data-name="패스 799818" d="M37.511,29.984l10.358,3.627,7.8-1c.071-.415.131-.815.187-1.2l-7.984-2.785Z" transform="translate(-37.511 -28.621)" fill="none"/>
    </clipPath>
    <linearGradient id="linear-gradient-23" x1="-93.505" y1="83.354" x2="-93.503" y2="83.354" xlink:href="#linear-gradient-21"/>
    <clipPath id="clip-path-25">
      <path id="패스_799819" data-name="패스 799819" d="M37.511,35.4,47.869,38.64l6.766-1.124c.142-.558.271-1.1.393-1.639h0l-7.159-2.226Z" transform="translate(-37.511 -33.651)" fill="none"/>
    </clipPath>
    <linearGradient id="linear-gradient-24" x1="-97.905" y1="82.317" x2="-97.903" y2="82.317" xlink:href="#linear-gradient-21"/>
    <clipPath id="clip-path-26">
      <path id="패스_799820" data-name="패스 799820" d="M47.869,38.68,37.511,40.824l10.358,2.845L53.1,42.6q.411-1.163.755-2.288L47.869,38.68Z" transform="translate(-37.511 -38.68)" fill="none"/>
    </clipPath>
    <linearGradient id="linear-gradient-25" x1="-104.928" y1="81.245" x2="-104.926" y2="81.245" xlink:href="#linear-gradient-21"/>
    <clipPath id="clip-path-27">
      <path id="패스_799821" data-name="패스 799821" d="M47.869,43.708,37.511,46.244,47.869,48.7l3.009-.728q.776-1.623,1.411-3.221h0l-4.42-1.041Z" transform="translate(-37.511 -43.708)" fill="none"/>
    </clipPath>
    <linearGradient id="linear-gradient-26" x1="-116.019" y1="80.185" x2="-116.016" y2="80.185" xlink:href="#linear-gradient-21"/>
    <clipPath id="clip-path-28">
      <path id="패스_799822" data-name="패스 799822" d="M37.511,51.665l10.16,2.023a49.518,49.518,0,0,0,2.591-4.477h0l-2.393-.474Z" transform="translate(-37.511 -48.737)" fill="none"/>
    </clipPath>
    <linearGradient id="linear-gradient-27" x1="-134.417" y1="79.732" x2="-134.414" y2="79.732" xlink:href="#linear-gradient-21"/>
    <clipPath id="clip-path-29">
      <path id="패스_799823" data-name="패스 799823" d="M37.511,57.085l6.835,1.1a46.551,46.551,0,0,0,3.209-4.322h0Z" transform="translate(-37.511 -53.866)" fill="none"/>
    </clipPath>
    <linearGradient id="linear-gradient-28" x1="-170.541" y1="90.04" x2="-170.537" y2="90.04" xlink:href="#linear-gradient-21"/>
    <clipPath id="clip-path-30">
      <path id="패스_799824" data-name="패스 799824" d="M37.511,62.506,39.9,62.8q1-.9,1.927-1.839Z" transform="translate(-37.511 -60.962)" fill="none"/>
    </clipPath>
    <linearGradient id="linear-gradient-29" x1="-395.757" y1="206.648" x2="-395.748" y2="206.648" xlink:href="#linear-gradient-21"/>
    <clipPath id="clip-path-32">
      <path id="패스_799834" data-name="패스 799834" d="M30.968,18.776a71.7,71.7,0,0,0-9.214,4.491l5.4.286,10.358-4.411-6.542-.366Z" transform="translate(-21.754 -18.776)" fill="none"/>
    </clipPath>
    <linearGradient id="linear-gradient-30" x1="-107.758" y1="89.272" x2="-107.755" y2="89.272" gradientUnits="objectBoundingBox">
      <stop offset="0" stop-color="#9b1421"/>
      <stop offset="1" stop-color="#b63026"/>
    </linearGradient>
    <clipPath id="clip-path-33">
      <path id="패스_799835" data-name="패스 799835" d="M27.153,23.592l-8.475,3.277c.018.289.038.605.066.95l8.409.763,10.358-4.019-10.358-.971Z" transform="translate(-18.678 -23.592)" fill="none"/>
    </clipPath>
    <linearGradient id="linear-gradient-31" x1="-90.019" y1="84.408" x2="-90.017" y2="84.408" xlink:href="#linear-gradient-30"/>
    <clipPath id="clip-path-34">
      <path id="패스_799836" data-name="패스 799836" d="M19.148,31.415c.056.384.117.781.187,1.192l7.818,1,10.358-3.627h0L27.153,28.621Z" transform="translate(-19.148 -28.621)" fill="none"/>
    </clipPath>
    <linearGradient id="linear-gradient-32" x1="-92.346" y1="83.354" x2="-92.344" y2="83.354" xlink:href="#linear-gradient-30"/>
    <clipPath id="clip-path-35">
      <path id="패스_799837" data-name="패스 799837" d="M27.153,33.651l-7.179,2.232c.121.531.248,1.075.389,1.628l6.79,1.129L37.511,35.4,27.153,33.651Z" transform="translate(-19.974 -33.651)" fill="none"/>
    </clipPath>
    <linearGradient id="linear-gradient-33" x1="-96.733" y1="82.317" x2="-96.731" y2="82.317" xlink:href="#linear-gradient-30"/>
    <clipPath id="clip-path-36">
      <path id="패스_799838" data-name="패스 799838" d="M27.153,38.68l-6,1.641q.345,1.118.751,2.276l5.253,1.072,10.358-2.845L27.153,38.68Z" transform="translate(-21.149 -38.68)" fill="none"/>
    </clipPath>
    <linearGradient id="linear-gradient-34" x1="-103.742" y1="81.245" x2="-103.739" y2="81.245" xlink:href="#linear-gradient-30"/>
    <clipPath id="clip-path-37">
      <path id="패스_799839" data-name="패스 799839" d="M22.712,44.753q.637,1.59,1.407,3.212l3.034.733,10.358-2.454L27.153,43.708Z" transform="translate(-22.712 -43.708)" fill="none"/>
    </clipPath>
    <linearGradient id="linear-gradient-35" x1="-114.782" y1="80.185" x2="-114.78" y2="80.185" xlink:href="#linear-gradient-30"/>
    <clipPath id="clip-path-38">
      <path id="패스_799840" data-name="패스 799840" d="M27.152,48.737l-2.412.477a49.468,49.468,0,0,0,2.589,4.478l10.182-2.027L27.153,48.737Z" transform="translate(-24.74 -48.737)" fill="none"/>
    </clipPath>
    <linearGradient id="linear-gradient-36" x1="-133.122" y1="79.672" x2="-133.119" y2="79.672" xlink:href="#linear-gradient-30"/>
    <clipPath id="clip-path-39">
      <path id="패스_799841" data-name="패스 799841" d="M27.439,53.858a46.752,46.752,0,0,0,3.217,4.334l6.855-1.107h0L27.439,53.858Z" transform="translate(-27.439 -53.858)" fill="none"/>
    </clipPath>
    <linearGradient id="linear-gradient-37" x1="-168.966" y1="89.788" x2="-168.962" y2="89.788" xlink:href="#linear-gradient-30"/>
    <clipPath id="clip-path-40">
      <path id="패스_799842" data-name="패스 799842" d="M35.107,62.8l2.4-.3L33.164,60.95q.931.942,1.943,1.853" transform="translate(-33.164 -60.95)" fill="none"/>
    </clipPath>
    <linearGradient id="linear-gradient-38" x1="-391.356" y1="205.186" x2="-391.346" y2="205.186" xlink:href="#linear-gradient-30"/>
    <clipPath id="clip-path-42">
      <path id="패스_799845" data-name="패스 799845" d="M37.514,16.313c1.812.569,12.271,3.965,18.658,8.556-.02,3.268-1.533,24.466-18.658,37.634v1.63h0l.541-.381a48.248,48.248,0,0,0,17.4-26.046A80.4,80.4,0,0,0,58,21.358l-.013-.444-.344-.271A68.024,68.024,0,0,0,37.787,8.921l-.273-.087Z" transform="translate(-37.514 -8.834)" fill="none"/>
    </clipPath>
    <linearGradient id="linear-gradient-39" x1="-83.684" y1="7.592" x2="-83.682" y2="7.592" gradientUnits="objectBoundingBox">
      <stop offset="0" stop-color="#003a54"/>
      <stop offset="0.412" stop-color="#002f50"/>
      <stop offset="1" stop-color="#001849"/>
    </linearGradient>
    <clipPath id="clip-path-43">
      <path id="패스_799846" data-name="패스 799846" d="M37.242,8.921A68.024,68.024,0,0,0,17.383,20.644l-.344.271-.013.444a80.435,80.435,0,0,0,2.547,16.348,48.247,48.247,0,0,0,17.4,26.046l.539.381V62.5C20.389,49.335,18.878,28.137,18.857,24.869c6.386-4.591,16.844-7.987,18.657-8.556V8.834Z" transform="translate(-17.026 -8.834)" fill="none"/>
    </clipPath>
    <linearGradient id="linear-gradient-40" x1="-82.914" y1="7.592" x2="-82.912" y2="7.592" gradientUnits="objectBoundingBox">
      <stop offset="0" stop-color="#0f5185"/>
      <stop offset="0.258" stop-color="#0d4d80"/>
      <stop offset="0.55" stop-color="#094172"/>
      <stop offset="0.857" stop-color="#032e5c"/>
      <stop offset="1" stop-color="#00244f"/>
    </linearGradient>
    <clipPath id="clip-path-44">
      <path id="패스_799847" data-name="패스 799847" d="M37.1,9.984l.017,1.06a2.565,2.565,0,0,0-1.49-.412,2.816,2.816,0,0,0-.966.176l.06.724a1.761,1.761,0,0,1,.924-.228,1.482,1.482,0,0,1,1.5,1.551,1.462,1.462,0,0,1-1.519,1.525,2.4,2.4,0,0,1-.938-.178l-.035.716a4.291,4.291,0,0,0,.973.136,2.707,2.707,0,0,0,1.487-.383l-.014.939h.412V9.984Z" transform="translate(-34.656 -9.984)" fill="none"/>
    </clipPath>
    <linearGradient id="linear-gradient-41" x1="-598.825" y1="77.393" x2="-598.812" y2="77.393" gradientUnits="objectBoundingBox">
      <stop offset="0" stop-color="#c49a6b"/>
      <stop offset="0.076" stop-color="#d5a05d"/>
      <stop offset="0.183" stop-color="#e6a750"/>
      <stop offset="0.316" stop-color="#f2ac46"/>
      <stop offset="0.5" stop-color="#f9af41"/>
      <stop offset="1" stop-color="#fbb040"/>
    </linearGradient>
    <clipPath id="clip-path-45">
      <path id="패스_799848" data-name="패스 799848" d="M37.514,9.984V15.61h.444l-.015-.895a2.783,2.783,0,0,0,1.417.339,4.324,4.324,0,0,0,.975-.136L40.3,14.2a2.4,2.4,0,0,1-.939.178,1.408,1.408,0,0,1-1.449-1.525A1.428,1.428,0,0,1,39.344,11.3a1.763,1.763,0,0,1,.924.228l.062-.724a2.838,2.838,0,0,0-.97-.176,2.631,2.631,0,0,0-1.419.363l.017-1.011Z" transform="translate(-37.514 -9.984)" fill="none"/>
    </clipPath>
    <linearGradient id="linear-gradient-42" x1="-608.057" y1="77.392" x2="-608.043" y2="77.392" xlink:href="#linear-gradient"/>
  </defs>
  <g id="car_logo_koenigsegg" transform="translate(-225 -160)">
    <g id="W_100_H_100" data-name="W 100 H 100" transform="translate(225 160)" fill="#f9f9f9" opacity="0">
      <path d="M 99.5 99.5 L 0.5 99.5 L 0.5 0.5 L 99.5 0.5 L 99.5 99.5 Z" stroke="none"/>
      <path d="M 1 1 L 1 99 L 99 99 L 99 1 L 1 1 M 0 0 L 100 0 L 100 100 L 0 100 L 0 0 Z" stroke="none" fill="#f0f0f0"/>
    </g>
    <g id="koenigsegg" transform="translate(238.227 174.5)">
      <g id="그룹_393767" data-name="그룹 393767" transform="translate(36.629 55.051)">
        <g id="그룹_393766" data-name="그룹 393766" clip-path="url(#clip-path)">
          <rect id="사각형_304683" data-name="사각형 304683" width="6.846" height="5.421" transform="translate(0 0)" fill="url(#linear-gradient)"/>
        </g>
      </g>
      <g id="그룹_393769" data-name="그룹 393769" transform="translate(36.046 29.145)">
        <g id="그룹_393768" data-name="그룹 393768" clip-path="url(#clip-path-2)">
          <rect id="사각형_304684" data-name="사각형 304684" width="18.166" height="5.893" transform="translate(0 0)" fill="url(#linear-gradient-2)"/>
        </g>
      </g>
      <g id="그룹_393771" data-name="그룹 393771" transform="translate(36.637 16.359)">
        <g id="그룹_393770" data-name="그룹 393770" clip-path="url(#clip-path-3)">
          <rect id="사각형_304685" data-name="사각형 304685" width="6.535" height="2.784" transform="translate(0 0)" fill="url(#linear-gradient-3)"/>
        </g>
      </g>
      <g id="그룹_393773" data-name="그룹 393773" transform="translate(36.046 23.924)">
        <g id="그룹_393772" data-name="그룹 393772" clip-path="url(#clip-path-4)">
          <rect id="사각형_304686" data-name="사각형 304686" width="18.757" height="6.842" transform="translate(0 0)" fill="url(#linear-gradient-4)"/>
        </g>
      </g>
      <g id="그룹_393775" data-name="그룹 393775" transform="translate(36.046 34.363)">
        <g id="그룹_393774" data-name="그룹 393774" clip-path="url(#clip-path-5)">
          <rect id="사각형_304687" data-name="사각형 304687" width="17.135" height="5.42" transform="translate(0 0)" fill="url(#linear-gradient-5)"/>
        </g>
      </g>
      <g id="그룹_393777" data-name="그룹 393777" transform="translate(36.728 60.472)">
        <g id="그룹_393776" data-name="그룹 393776" clip-path="url(#clip-path-6)">
          <rect id="사각형_304688" data-name="사각형 304688" width="2.397" height="2.296" transform="translate(0 0)" fill="url(#linear-gradient-6)"/>
        </g>
      </g>
      <g id="그룹_393779" data-name="그룹 393779" transform="translate(36.046 18.711)">
        <g id="그룹_393778" data-name="그룹 393778" clip-path="url(#clip-path-7)">
          <rect id="사각형_304689" data-name="사각형 304689" width="18.874" height="7.718" transform="translate(0 0)" fill="url(#linear-gradient-7)"/>
        </g>
      </g>
      <g id="그룹_393781" data-name="그룹 393781" transform="translate(36.046 39.573)">
        <g id="그룹_393780" data-name="그룹 393780" clip-path="url(#clip-path-8)">
          <rect id="사각형_304690" data-name="사각형 304690" width="15.598" height="5.42" transform="translate(0 0)" fill="url(#linear-gradient-8)"/>
        </g>
      </g>
      <g id="그룹_393783" data-name="그룹 393783" transform="translate(36.537 49.995)">
        <g id="그룹_393782" data-name="그룹 393782" clip-path="url(#clip-path-9)">
          <rect id="사각형_304691" data-name="사각형 304691" width="10.171" height="5.42" transform="translate(0 0)" fill="url(#linear-gradient-9)"/>
        </g>
      </g>
      <g id="그룹_393785" data-name="그룹 393785" transform="translate(36.427 44.784)">
        <g id="그룹_393784" data-name="그룹 393784" clip-path="url(#clip-path-10)">
          <rect id="사각형_304692" data-name="사각형 304692" width="13.378" height="5.421" transform="translate(0 0)" fill="url(#linear-gradient-10)"/>
        </g>
      </g>
      <g id="그룹_393787" data-name="그룹 393787" transform="translate(30.073 55.053)">
        <g id="그룹_393786" data-name="그룹 393786" clip-path="url(#clip-path-11)">
          <rect id="사각형_304693" data-name="사각형 304693" width="6.844" height="5.415" transform="translate(0 0)" fill="url(#linear-gradient-11)"/>
        </g>
      </g>
      <g id="그룹_393789" data-name="그룹 393789" transform="translate(19.335 29.148)">
        <g id="그룹_393788" data-name="그룹 393788" clip-path="url(#clip-path-12)">
          <rect id="사각형_304694" data-name="사각형 304694" width="18.165" height="5.896" transform="translate(0 0)" fill="url(#linear-gradient-12)"/>
        </g>
      </g>
      <g id="그룹_393791" data-name="그룹 393791" transform="translate(30.377 16.359)">
        <g id="그룹_393790" data-name="그룹 393790" clip-path="url(#clip-path-13)">
          <rect id="사각형_304695" data-name="사각형 304695" width="6.532" height="2.783" transform="translate(0 0)" fill="url(#linear-gradient-13)"/>
        </g>
      </g>
      <g id="그룹_393793" data-name="그룹 393793" transform="translate(18.744 23.927)">
        <g id="그룹_393792" data-name="그룹 393792" clip-path="url(#clip-path-14)">
          <rect id="사각형_304696" data-name="사각형 304696" width="18.756" height="6.849" transform="translate(0 0)" fill="url(#linear-gradient-14)"/>
        </g>
      </g>
      <g id="그룹_393795" data-name="그룹 393795" transform="translate(20.363 34.366)">
        <g id="그룹_393794" data-name="그룹 393794" clip-path="url(#clip-path-15)">
          <rect id="사각형_304697" data-name="사각형 304697" width="17.136" height="5.414" transform="translate(0 0)" fill="url(#linear-gradient-15)"/>
        </g>
      </g>
      <g id="그룹_393797" data-name="그룹 393797" transform="translate(34.425 60.473)">
        <g id="그룹_393796" data-name="그룹 393796" clip-path="url(#clip-path-16)">
          <rect id="사각형_304698" data-name="사각형 304698" width="2.393" height="2.295" transform="translate(0 0)" fill="url(#linear-gradient-16)"/>
        </g>
      </g>
      <g id="그룹_393799" data-name="그룹 393799" transform="translate(18.626 18.716)">
        <g id="그룹_393798" data-name="그룹 393798" clip-path="url(#clip-path-17)">
          <rect id="사각형_304699" data-name="사각형 304699" width="18.874" height="7.722" transform="translate(0 0)" fill="url(#linear-gradient-17)"/>
        </g>
      </g>
      <g id="그룹_393801" data-name="그룹 393801" transform="translate(21.9 39.576)">
        <g id="그룹_393800" data-name="그룹 393800" clip-path="url(#clip-path-18)">
          <rect id="사각형_304700" data-name="사각형 304700" width="15.6" height="5.415" transform="translate(0 0)" fill="url(#linear-gradient-18)"/>
        </g>
      </g>
      <g id="그룹_393803" data-name="그룹 393803" transform="translate(26.838 49.997)">
        <g id="그룹_393802" data-name="그룹 393802" clip-path="url(#clip-path-19)">
          <rect id="사각형_304701" data-name="사각형 304701" width="10.17" height="5.414" transform="translate(0 0)" fill="url(#linear-gradient-19)"/>
        </g>
      </g>
      <g id="그룹_393805" data-name="그룹 393805" transform="translate(23.739 44.788)">
        <g id="그룹_393804" data-name="그룹 393804" clip-path="url(#clip-path-20)">
          <rect id="사각형_304702" data-name="사각형 304702" width="13.381" height="5.413" transform="translate(0 0)" fill="url(#linear-gradient-20)"/>
        </g>
      </g>
      <g id="그룹_393807" data-name="그룹 393807" transform="translate(16.773 8.5)">
        <g id="그룹_393806" data-name="그룹 393806" clip-path="url(#clip-path-21)">
          <path id="패스_799806" data-name="패스 799806" d="M47.506,23.661,52.7,23.11a69.935,69.935,0,0,0-8.892-4.333l-6.293.353Z" transform="translate(-17.5 -8.86)" fill="#6a0006"/>
          <path id="패스_799807" data-name="패스 799807" d="M37.511,24.539l9.995,4.153,8.094-1.01c.028-.335.046-.643.063-.926l-8.157-2.876Z" transform="translate(-17.5 -9.039)" fill="#6a0006"/>
          <path id="패스_799808" data-name="패스 799808" d="M47.506,28.907l-9.994,1.038,9.994,3.777,7.524-1.243c.069-.4.127-.785.181-1.162Z" transform="translate(-17.5 -9.216)" fill="#6a0006"/>
          <path id="패스_799809" data-name="패스 799809" d="M37.511,35.352l9.995,3.4,6.529-1.36c.138-.538.262-1.065.379-1.582l-6.908-1.872Z" transform="translate(-17.5 -9.392)" fill="#6a0006"/>
          <path id="패스_799810" data-name="패스 799810" d="M37.511,40.759l9.995,3.022,5.046-1.307q.4-1.122.729-2.208l-5.774-1.3Z" transform="translate(-17.5 -9.568)" fill="#6a0006"/>
          <path id="패스_799811" data-name="패스 799811" d="M37.511,46.165l9.995,2.644,2.9-.978c.5-1.044.951-2.083,1.362-3.109l-4.266-.727Z" transform="translate(-17.5 -9.745)" fill="#6a0006"/>
          <path id="패스_799812" data-name="패스 799812" d="M37.511,51.572l9.8,2.229a51.706,51.706,0,0,0,2.5-4.6l-2.309-.18Z" transform="translate(-17.5 -9.921)" fill="#6a0006"/>
          <path id="패스_799813" data-name="패스 799813" d="M44.106,58.322a45.282,45.282,0,0,0,3.1-4.17l-9.692,2.83Z" transform="translate(-17.5 -10.101)" fill="#6a0006"/>
          <path id="패스_799814" data-name="패스 799814" d="M37.5,64.466l.528-.386A49.021,49.021,0,0,0,55.013,37.721,84.23,84.23,0,0,0,57.5,21.176l-.014-.45-.335-.275A65.813,65.813,0,0,0,37.766,8.588L37.5,8.5v7.57c1.77.575,11.979,4.013,18.213,8.659-.02,3.308-1.5,24.762-18.213,38.087Z" transform="translate(-17.5 -8.5)" fill="#231f20"/>
          <path id="패스_799815" data-name="패스 799815" d="M36.773,62.816C20.057,49.491,18.581,28.037,18.561,24.729,24.794,20.083,35,16.645,36.773,16.07V8.5l-.265.088A65.812,65.812,0,0,0,17.121,20.452l-.335.275-.014.45A84.229,84.229,0,0,0,19.26,37.721a49.029,49.029,0,0,0,16.986,26.36l.528.385Z" transform="translate(-16.773 -8.5)" fill="#002551"/>
        </g>
      </g>
      <g id="그룹_393809" data-name="그룹 393809" transform="translate(36.057 18.384)">
        <g id="그룹_393808" data-name="그룹 393808" clip-path="url(#clip-path-22)">
          <rect id="사각형_304704" data-name="사각형 304704" width="15.737" height="4.777" transform="translate(0 0)" fill="url(#linear-gradient-21)"/>
        </g>
      </g>
      <g id="그룹_393811" data-name="그룹 393811" transform="translate(36.057 23.013)">
        <g id="그룹_393810" data-name="그룹 393810" clip-path="url(#clip-path-23)">
          <rect id="사각형_304705" data-name="사각형 304705" width="18.81" height="4.99" transform="translate(0 0)" fill="url(#linear-gradient-22)"/>
        </g>
      </g>
      <g id="그룹_393813" data-name="그룹 393813" transform="translate(36.057 27.849)">
        <g id="그룹_393812" data-name="그룹 393812" clip-path="url(#clip-path-24)">
          <rect id="사각형_304706" data-name="사각형 304706" width="18.342" height="4.99" transform="translate(0 0)" fill="url(#linear-gradient-23)"/>
        </g>
      </g>
      <g id="그룹_393815" data-name="그룹 393815" transform="translate(36.057 32.686)">
        <g id="그룹_393814" data-name="그룹 393814" clip-path="url(#clip-path-25)">
          <rect id="사각형_304707" data-name="사각형 304707" width="17.516" height="4.989" transform="translate(0 0)" fill="url(#linear-gradient-24)"/>
        </g>
      </g>
      <g id="그룹_393817" data-name="그룹 393817" transform="translate(36.057 37.522)">
        <g id="그룹_393816" data-name="그룹 393816" clip-path="url(#clip-path-26)">
          <rect id="사각형_304708" data-name="사각형 304708" width="16.342" height="4.99" transform="translate(0 0)" fill="url(#linear-gradient-25)"/>
        </g>
      </g>
      <g id="그룹_393819" data-name="그룹 393819" transform="translate(36.057 42.357)">
        <g id="그룹_393818" data-name="그룹 393818" clip-path="url(#clip-path-27)">
          <rect id="사각형_304709" data-name="사각형 304709" width="14.777" height="4.99" transform="translate(0 0)" fill="url(#linear-gradient-26)"/>
        </g>
      </g>
      <g id="그룹_393821" data-name="그룹 393821" transform="translate(36.461 47.194)">
        <g id="그룹_393820" data-name="그룹 393820" clip-path="url(#clip-path-28)">
          <rect id="사각형_304710" data-name="사각형 304710" width="12.751" height="4.951" transform="translate(0 0)" fill="url(#linear-gradient-27)"/>
        </g>
      </g>
      <g id="그룹_393823" data-name="그룹 393823" transform="translate(36.551 51.832)">
        <g id="그룹_393822" data-name="그룹 393822" clip-path="url(#clip-path-29)">
          <rect id="사각형_304711" data-name="사각형 304711" width="10.044" height="4.322" transform="translate(0 0)" fill="url(#linear-gradient-28)"/>
        </g>
      </g>
      <g id="그룹_393825" data-name="그룹 393825" transform="translate(36.699 58.928)">
        <g id="그룹_393824" data-name="그룹 393824" clip-path="url(#clip-path-30)">
          <rect id="사각형_304712" data-name="사각형 304712" width="4.312" height="1.839" transform="translate(0 0)" fill="url(#linear-gradient-29)"/>
        </g>
      </g>
      <g id="그룹_393827" data-name="그룹 393827" transform="translate(16.773 8.5)">
        <g id="그룹_393826" data-name="그룹 393826" clip-path="url(#clip-path-21)">
          <path id="패스_799825" data-name="패스 799825" d="M26.922,23.661l-5.191-.551a70.05,70.05,0,0,1,8.891-4.333l6.294.353Z" transform="translate(-16.947 -8.86)" fill="#72010c"/>
          <path id="패스_799826" data-name="패스 799826" d="M36.809,24.539l-9.995,4.153-8.094-1.01c-.028-.335-.046-.643-.063-.926l8.157-2.876Z" transform="translate(-16.839 -9.039)" fill="#72010c"/>
          <path id="패스_799827" data-name="패스 799827" d="M26.831,28.907l9.994,1.038-9.994,3.777-7.524-1.243c-.069-.4-.127-.785-.181-1.162Z" transform="translate(-16.856 -9.216)" fill="#72010c"/>
          <path id="패스_799828" data-name="패스 799828" d="M36.855,35.352l-9.995,3.4-6.53-1.36c-.137-.538-.261-1.065-.378-1.582l6.908-1.872Z" transform="translate(-16.885 -9.392)" fill="#72010c"/>
          <path id="패스_799829" data-name="패스 799829" d="M36.9,40.759,26.9,43.781l-5.046-1.307c-.264-.748-.506-1.484-.729-2.208l5.775-1.3Z" transform="translate(-16.926 -9.568)" fill="#72010c"/>
          <path id="패스_799830" data-name="패스 799830" d="M36.951,46.165l-9.995,2.644-2.9-.978c-.5-1.044-.951-2.083-1.362-3.109l4.266-.727Z" transform="translate(-16.981 -9.745)" fill="#72010c"/>
          <path id="패스_799831" data-name="패스 799831" d="M37.022,51.572l-9.8,2.229a51.7,51.7,0,0,1-2.5-4.6l2.309-.18Z" transform="translate(-17.052 -9.921)" fill="#72010c"/>
          <path id="패스_799832" data-name="패스 799832" d="M30.52,58.322a45.446,45.446,0,0,1-3.1-4.17l9.692,2.83Z" transform="translate(-17.147 -10.101)" fill="#72010c"/>
          <path id="패스_799833" data-name="패스 799833" d="M35.015,62.874c-.646-.581-1.264-1.31-1.859-1.912l4.161,1.491Z" transform="translate(-17.348 -10.34)" fill="#72010c"/>
        </g>
      </g>
      <g id="그룹_393829" data-name="그룹 393829" transform="translate(21.754 18.383)">
        <g id="그룹_393828" data-name="그룹 393828" clip-path="url(#clip-path-32)">
          <rect id="사각형_304714" data-name="사각형 304714" width="15.757" height="4.778" transform="translate(0 0)" fill="url(#linear-gradient-30)"/>
        </g>
      </g>
      <g id="그룹_393831" data-name="그룹 393831" transform="translate(18.678 23.013)">
        <g id="그룹_393830" data-name="그룹 393830" clip-path="url(#clip-path-33)">
          <rect id="사각형_304715" data-name="사각형 304715" width="18.833" height="4.99" transform="translate(0 0)" fill="url(#linear-gradient-31)"/>
        </g>
      </g>
      <g id="그룹_393833" data-name="그룹 393833" transform="translate(19.148 27.849)">
        <g id="그룹_393832" data-name="그룹 393832" clip-path="url(#clip-path-34)">
          <rect id="사각형_304716" data-name="사각형 304716" width="18.363" height="4.99" transform="translate(0 0)" fill="url(#linear-gradient-32)"/>
        </g>
      </g>
      <g id="그룹_393835" data-name="그룹 393835" transform="translate(19.974 32.686)">
        <g id="그룹_393834" data-name="그룹 393834" clip-path="url(#clip-path-35)">
          <rect id="사각형_304717" data-name="사각형 304717" width="17.537" height="4.989" transform="translate(0 0)" fill="url(#linear-gradient-33)"/>
        </g>
      </g>
      <g id="그룹_393837" data-name="그룹 393837" transform="translate(21.149 37.522)">
        <g id="그룹_393836" data-name="그룹 393836" clip-path="url(#clip-path-36)">
          <rect id="사각형_304718" data-name="사각형 304718" width="16.362" height="4.99" transform="translate(0 0)" fill="url(#linear-gradient-34)"/>
        </g>
      </g>
      <g id="그룹_393839" data-name="그룹 393839" transform="translate(22.712 42.357)">
        <g id="그룹_393838" data-name="그룹 393838" clip-path="url(#clip-path-37)">
          <rect id="사각형_304719" data-name="사각형 304719" width="14.799" height="4.99" transform="translate(0 0)" fill="url(#linear-gradient-35)"/>
        </g>
      </g>
      <g id="그룹_393841" data-name="그룹 393841" transform="translate(24.336 47.194)">
        <g id="그룹_393840" data-name="그룹 393840" clip-path="url(#clip-path-38)">
          <rect id="사각형_304720" data-name="사각형 304720" width="12.772" height="4.955" transform="translate(0 0)" fill="url(#linear-gradient-36)"/>
        </g>
      </g>
      <g id="그룹_393843" data-name="그룹 393843" transform="translate(26.945 51.824)">
        <g id="그룹_393842" data-name="그룹 393842" clip-path="url(#clip-path-39)">
          <rect id="사각형_304721" data-name="사각형 304721" width="10.073" height="4.334" transform="translate(0 0)" fill="url(#linear-gradient-37)"/>
        </g>
      </g>
      <g id="그룹_393845" data-name="그룹 393845" transform="translate(32.522 58.916)">
        <g id="그룹_393844" data-name="그룹 393844" clip-path="url(#clip-path-40)">
          <rect id="사각형_304722" data-name="사각형 304722" width="4.348" height="1.853" transform="translate(0 0)" fill="url(#linear-gradient-38)"/>
        </g>
      </g>
      <g id="그룹_393847" data-name="그룹 393847" transform="translate(16.773 8.5)">
        <g id="그룹_393846" data-name="그룹 393846" clip-path="url(#clip-path-21)">
          <path id="패스_799843" data-name="패스 799843" d="M37.533,63.849l.514-.374A47.717,47.717,0,0,0,54.579,37.818,82.025,82.025,0,0,0,57,21.715l-.013-.437-.327-.266A64.052,64.052,0,0,0,37.792,9.464l-.259-.086v7.367c1.721.56,11.658,3.906,17.727,8.429-.019,3.219-1.456,24.1-17.727,37.07Z" transform="translate(-17.501 -8.531)" fill="#231f20"/>
          <path id="패스_799844" data-name="패스 799844" d="M36.825,62.244C20.555,49.274,19.118,28.393,19.1,25.174c6.068-4.522,16.005-7.868,17.727-8.429V9.378l-.259.085A64.076,64.076,0,0,0,17.7,21.01l-.326.268-.014.436a82.035,82.035,0,0,0,2.42,16.1A47.713,47.713,0,0,0,36.312,63.475l.513.374Z" transform="translate(-16.794 -8.531)" fill="#002551"/>
        </g>
      </g>
      <g id="그룹_393849" data-name="그룹 393849" transform="translate(36.06 8.834)">
        <g id="그룹_393848" data-name="그룹 393848" clip-path="url(#clip-path-42)">
          <rect id="사각형_304724" data-name="사각형 304724" width="20.498" height="55.299" transform="translate(0 0)" fill="url(#linear-gradient-39)"/>
        </g>
      </g>
      <g id="그룹_393851" data-name="그룹 393851" transform="translate(17.026 8.834)">
        <g id="그룹_393850" data-name="그룹 393850" clip-path="url(#clip-path-43)">
          <rect id="사각형_304725" data-name="사각형 304725" width="20.497" height="55.299" transform="translate(-0.009 0)" fill="url(#linear-gradient-40)"/>
        </g>
      </g>
      <g id="그룹_393853" data-name="그룹 393853" transform="translate(33.982 9.984)">
        <g id="그룹_393852" data-name="그룹 393852" clip-path="url(#clip-path-44)">
          <rect id="사각형_304726" data-name="사각형 304726" width="2.858" height="5.626" transform="translate(0 0)" fill="url(#linear-gradient-41)"/>
        </g>
      </g>
      <g id="그룹_393855" data-name="그룹 393855" transform="translate(36.733 9.984)">
        <g id="그룹_393854" data-name="그룹 393854" clip-path="url(#clip-path-45)">
          <rect id="사각형_304727" data-name="사각형 304727" width="2.821" height="5.626" transform="translate(0 0)" fill="url(#linear-gradient-42)"/>
        </g>
      </g>
    </g>
  </g>
</svg>
