<svg xmlns="http://www.w3.org/2000/svg" xmlns:xlink="http://www.w3.org/1999/xlink" width="100" height="100" viewBox="0 0 100 100">
  <defs>
    <clipPath id="clip-path">
      <rect id="사각형_299367" data-name="사각형 299367" width="80" height="27.68" fill="rgba(0,0,0,0)"/>
    </clipPath>
  </defs>
  <g id="car_logo_audi" transform="translate(-225 -162)">
    <rect id="W_100_H_100" data-name="W 100 H 100" width="100" height="100" transform="translate(225 162)" fill="#f0f0f0" opacity="0"/>
    <g id="audi" transform="translate(235 209)">
      <g id="그룹_390313" data-name="그룹 390313" transform="translate(0 0)" clip-path="url(#clip-path)">
        <path id="패스_787720" data-name="패스 787720" d="M66.16,0a13.789,13.789,0,0,0-8.72,3.095,13.832,13.832,0,0,0-17.44,0,13.833,13.833,0,0,0-17.44,0,13.84,13.84,0,1,0,0,21.491,13.833,13.833,0,0,0,17.44,0,13.832,13.832,0,0,0,17.44,0A13.839,13.839,0,1,0,66.16,0M57.44,20.06h0a10.7,10.7,0,0,1,0-12.44,10.7,10.7,0,0,1,0,12.44M40,20.06h0a10.7,10.7,0,0,1,0-12.44,10.7,10.7,0,0,1,0,12.44m-17.44,0h0a10.7,10.7,0,0,1,0-12.44,10.7,10.7,0,0,1,0,12.44M3.127,13.841h0a10.711,10.711,0,0,1,17.234-8.5,13.825,13.825,0,0,0,0,17,10.713,10.713,0,0,1-17.234-8.5m21.634,8.5h0a13.83,13.83,0,0,0,0-17,10.7,10.7,0,0,1,13.041,0,13.822,13.822,0,0,0,0,17,10.712,10.712,0,0,1-13.041,0m17.441,0h0a13.831,13.831,0,0,0,0-17,10.7,10.7,0,0,1,13.04,0,13.827,13.827,0,0,0,0,17,10.71,10.71,0,0,1-13.04,0M66.16,24.552h0a10.677,10.677,0,0,1-6.52-2.213,13.827,13.827,0,0,0,0-17,10.712,10.712,0,1,1,6.52,19.21" transform="translate(0 0)" fill="#231815"/>
      </g>
    </g>
  </g>
</svg>
