<svg xmlns="http://www.w3.org/2000/svg" width="100" height="100" viewBox="0 0 100 100">
  <g id="car_logo_hummer" transform="translate(-225 -160)">
    <g id="W_100_H_100" data-name="W 100 H 100" transform="translate(225 160)" fill="#f9f9f9" stroke="#f0f0f0" stroke-width="1" opacity="0">
      <rect width="100" height="100" stroke="none"/>
      <rect x="0.5" y="0.5" width="99" height="99" fill="none"/>
    </g>
    <g id="hummer" transform="translate(232.5 172.079)">
      <path id="패스_792987" data-name="패스 792987" d="M33.453,33.923,31.8,37.595,30.14,33.923H24.454V41.83h4.482V37.809l1.671,4.022h2.379l1.67-4.022V41.83h4.481V33.923Z" transform="translate(3.135 0)" fill-rule="evenodd"/>
      <path id="패스_792988" data-name="패스 792988" d="M47.14,33.923l-1.655,3.672-1.656-3.672H38.142V41.83h4.482V37.809l1.67,4.022h2.38l1.671-4.022V41.83h4.481V33.923Z" transform="translate(5.089 0)" fill-rule="evenodd"/>
      <path id="패스_792989" data-name="패스 792989" d="M9.486,33.923v2.9H7.251v-2.9H2.5V41.83H7.251v-2.99H9.486v2.99h4.751V33.923Z" transform="translate(0 0)" fill-rule="evenodd"/>
      <path id="패스_792990" data-name="패스 792990" d="M62.039,35.826v-1.9H51.85V41.83H62.039v-1.9H56.6V38.744h5.437V37.012H56.6V35.826Z" transform="translate(7.048 0)" fill-rule="evenodd"/>
      <path id="패스_792991" data-name="패스 792991" d="M18.271,33.925V39.23c.01.682.458.853,1.07.853s1.054-.181,1.054-.867v-5.29h4.737v5.321c0,2.347-1.709,2.854-5.791,2.854s-5.807-.5-5.807-2.854V33.925Z" transform="translate(1.576 0)" fill-rule="evenodd"/>
      <path id="패스_792992" data-name="패스 792992" d="M67.677,37.533c.887,0,1.311-.322,1.311-.977,0-.822-.535-1.041-1.316-1.041H66.284v2.018ZM69,41.828l-2.714-2.834v2.837H61.534V33.923h7.632c1.6,0,4.254-.043,4.112,2.6A2.942,2.942,0,0,1,70.9,38.872l3.171,2.957H69Z" transform="translate(8.43)" fill-rule="evenodd"/>
    </g>
  </g>
</svg>
