<svg xmlns="http://www.w3.org/2000/svg" xmlns:xlink="http://www.w3.org/1999/xlink" width="100" height="100" viewBox="0 0 100 100">
  <defs>
    <clipPath id="clip-path">
      <rect id="사각형_299585" data-name="사각형 299585" width="56" height="46.856" fill="none"/>
    </clipPath>
  </defs>
  <g id="car_logo_nissan" transform="translate(-219 -155)">
    <g id="W_100_H_100" data-name="W 100 H 100" transform="translate(219 155)" fill="#f9f9f9" stroke="#f0f0f0" stroke-width="1" opacity="0">
      <rect width="100" height="100" stroke="none"/>
      <rect x="0.5" y="0.5" width="99" height="99" fill="none"/>
    </g>
    <g id="nissan" transform="translate(241 182)">
      <g id="그룹_390830" data-name="그룹 390830" clip-path="url(#clip-path)">
        <path id="패스_789235" data-name="패스 789235" d="M76.985,59.207a2.488,2.488,0,0,1-.3.011H70.952v1.334h5.833c.044,0,.389,0,.456-.011a1.9,1.9,0,0,0,1.733-1.966,1.871,1.871,0,0,0-1.644-1.945,4.348,4.348,0,0,0-.467-.022H73.052a1.93,1.93,0,0,1-.422-.033.558.558,0,0,1-.411-.566.57.57,0,0,1,.422-.556,1.6,1.6,0,0,1,.4-.033h5.5V54.107H72.952a3.678,3.678,0,0,0-.556.034,1.906,1.906,0,0,0-.022,3.767c.2.022.478.022.6.022h3.711a1.933,1.933,0,0,1,.267.011.613.613,0,0,1,.567.645.622.622,0,0,1-.533.622" transform="translate(-44.352 -33.907)"/>
        <path id="패스_789236" data-name="패스 789236" d="M47.877,59.207a2.382,2.382,0,0,1-.289.011H41.844v1.334h5.833c.044,0,.389,0,.455-.011a1.9,1.9,0,0,0,1.733-1.966,1.871,1.871,0,0,0-1.644-1.945,4.348,4.348,0,0,0-.467-.022H43.944a1.926,1.926,0,0,1-.422-.033.558.558,0,0,1-.411-.566.57.57,0,0,1,.422-.556,1.6,1.6,0,0,1,.4-.033h5.5V54.107H43.844a3.673,3.673,0,0,0-.555.034,1.906,1.906,0,0,0-.022,3.767c.2.022.478.022.6.022h3.711a1.942,1.942,0,0,1,.267.011.64.64,0,0,1,.033,1.267" transform="translate(-26.111 -33.907)"/>
        <rect id="사각형_299584" data-name="사각형 299584" width="1.444" height="6.523" transform="translate(11.3 20.156)"/>
        <path id="패스_789237" data-name="패스 789237" d="M8.111,60.51V53.988H6.666v4.867L1.855,53.988H0V60.51H1.444V55.621L6.288,60.51Z" transform="translate(0.001 -33.832)"/>
        <path id="패스_789238" data-name="패스 789238" d="M134.97,53.988v4.867l-4.811-4.867H128.3V60.51h1.444V55.621l4.833,4.889H136.4V53.988Z" transform="translate(-80.404 -33.832)"/>
        <path id="패스_789239" data-name="패스 789239" d="M101.329,53.988l-4.067,6.523h1.756l.722-1.167h4.744l.722,1.167h1.745l-4.067-6.523Zm2.411,4.122h-3.255l1.633-2.622Z" transform="translate(-60.951 -33.832)"/>
        <path id="패스_789240" data-name="패스 789240" d="M10.794,16.456a21.148,21.148,0,0,1,39.955,0l.022.067h6.367v-.767l-2.645-.311a2.581,2.581,0,0,1-2.422-1.822l-.111-.222a23.444,23.444,0,0,0-42.378.022l-.111.222a2.582,2.582,0,0,1-2.422,1.822l-2.644.311v.766H10.76Z" transform="translate(-2.76)"/>
        <path id="패스_789241" data-name="패스 789241" d="M50.79,81.2l-.022.067a21.15,21.15,0,0,1-39.955-.012l-.022-.066H4.434v.766l2.645.311A2.581,2.581,0,0,1,9.5,84.091l.111.222a23.44,23.44,0,0,0,42.378.011L52.1,84.1a2.581,2.581,0,0,1,2.422-1.822l2.644-.311V81.2Z" transform="translate(-2.779 -50.88)"/>
      </g>
    </g>
  </g>
</svg>
