<svg xmlns="http://www.w3.org/2000/svg" width="216" height="67" viewBox="0 0 216 67">
  <g id="그룹_145269" data-name="그룹 145269" transform="translate(-117.614 -326.169)">
    <g id="그룹_18002" data-name="그룹 18002" transform="translate(117.614 326.169)">
      <path id="패스_70489" data-name="패스 70489" d="M82.205,157.612H80.272V100.339h1.934Zm-4.55,0H75.723V100.339h1.932Z" transform="translate(-75.723 -100.339)"/>
      <rect id="사각형_33141" data-name="사각형 33141" width="4.209" height="46.382" transform="translate(11.37 0.001)"/>
      <rect id="사각형_33142" data-name="사각형 33142" width="1.934" height="46.382" transform="translate(20.47 0.001)"/>
      <rect id="사각형_33143" data-name="사각형 33143" width="4.208" height="46.382" transform="translate(27.293 0.001)"/>
      <rect id="사각형_33144" data-name="사각형 33144" width="1.932" height="46.382" transform="translate(36.389 0.001)"/>
      <path id="패스_70490" data-name="패스 70490" d="M112.118,146.723H107.91V100.339h4.208Zm-6.823,0h-4.206V100.339H105.3Z" transform="translate(-57.817 -100.339)"/>
      <path id="패스_70491" data-name="패스 70491" d="M126.954,146.723H125.02V100.339h1.934Zm-4.549,0h-1.934V100.339h1.934Zm-11.372,0H109.1V100.339h1.935Z" transform="translate(-52.161 -100.339)"/>
      <rect id="사각형_33145" data-name="사각형 33145" width="4.206" height="46.382" transform="translate(81.985 0.001)"/>
      <rect id="사각형_33146" data-name="사각형 33146" width="6.483" height="46.382" transform="translate(88.817 0.001)"/>
      <path id="패스_70492" data-name="패스 70492" d="M145.5,157.612h-1.934V100.339H145.5Zm-4.55,0h-1.934V100.339h1.934Zm47.762-11.991h-1.93V100.339h1.93Zm-6.821,0h-1.934V100.339h1.934Zm-6.825,0h-1.93V100.339h1.93Zm-9.1,0h-1.929V100.339h1.929Zm-11.37,0h-1.934V100.339h1.934Zm-4.549,0h-1.93V100.339h1.93Zm-13.646,0h-1.934V100.339H136.4Z" transform="translate(-34.222 -100.339)"/>
      <rect id="사각형_33147" data-name="사각형 33147" width="6.48" height="46.382" transform="translate(161.694 0.001)"/>
      <rect id="사각형_33148" data-name="사각형 33148" width="1.932" height="46.382" transform="translate(170.799 0.001)"/>
      <rect id="사각형_33149" data-name="사각형 33149" width="6.481" height="46.382" transform="translate(177.677 0.001)"/>
      <rect id="사각형_33150" data-name="사각형 33150" width="1.933" height="46.382" transform="translate(189.048 0.001)"/>
      <rect id="사각형_33151" data-name="사각형 33151" width="6.481" height="46.382" transform="translate(193.598 0.001)"/>
      <path id="패스_70493" data-name="패스 70493" d="M206.906,157.612h-1.932V100.339h1.932Zm-4.549,0h-1.934V100.339h1.934ZM197.81,145.62h-1.932V100.339h1.932Z" transform="translate(9.094 -100.339)"/>
    </g>
    <text id="_8321" data-name="8321" transform="translate(147.614 389.169)" font-size="12" font-family="Jost-Medium, 'Jost*'" font-weight="500"><tspan x="-13.386" y="0">8321</tspan></text>
    <text id="_3992" data-name="3992" transform="translate(260.614 389.169)" font-size="12" font-family="Jost-Medium, 'Jost*'" font-weight="500"><tspan x="-14.436" y="0">3992</tspan></text>
    <text id="_1239" data-name="1239" transform="translate(188.614 389.169)" font-size="12" font-family="Jost-Medium, 'Jost*'" font-weight="500"><tspan x="-13.596" y="0">1239</tspan></text>
    <text id="_9551" data-name="9551" transform="translate(302.614 389.169)" font-size="12" font-family="Jost-Medium, 'Jost*'" font-weight="500"><tspan x="-13.668" y="0">9551</tspan></text>
  </g>
</svg>
