<svg xmlns="http://www.w3.org/2000/svg" width="206" height="64" viewBox="0 0 206 64">
  <g id="그룹_455986" data-name="그룹 455986" transform="translate(-40 -388.266)">
    <g id="그룹_455972" data-name="그룹 455972" transform="translate(40 388)">
      <g id="그룹_455970" data-name="그룹 455970">
        <rect id="사각형_339247" data-name="사각형 339247" width="2" height="44" transform="translate(0 0.266)"/>
        <rect id="사각형_339248" data-name="사각형 339248" width="2" height="44" transform="translate(4 0.266)"/>
        <rect id="사각형_339249" data-name="사각형 339249" width="3" height="44" transform="translate(10 0.266)"/>
        <rect id="사각형_339252" data-name="사각형 339252" width="3" height="44" transform="translate(24 0.266)"/>
        <rect id="사각형_339254" data-name="사각형 339254" width="3" height="44" transform="translate(38 0.266)"/>
        <rect id="사각형_339260" data-name="사각형 339260" width="3" height="44" transform="translate(73 0.266)"/>
        <rect id="사각형_339266" data-name="사각형 339266" width="4" height="44" transform="translate(106 0.266)"/>
        <rect id="사각형_339281" data-name="사각형 339281" width="4" height="44" transform="translate(190 0.266)"/>
        <rect id="사각형_339261" data-name="사각형 339261" width="7" height="44" transform="translate(78 0.266)"/>
        <rect id="사각형_339271" data-name="사각형 339271" width="7" height="44" transform="translate(129 0.266)"/>
        <rect id="사각형_339273" data-name="사각형 339273" width="6" height="44" transform="translate(144 0.266)"/>
        <rect id="사각형_339278" data-name="사각형 339278" width="6" height="44" transform="translate(170 0.266)"/>
        <rect id="사각형_339255" data-name="사각형 339255" width="4" height="44" transform="translate(44 0.266)"/>
        <rect id="사각형_339250" data-name="사각형 339250" width="2" height="44" transform="translate(15 0.266)"/>
        <rect id="사각형_339256" data-name="사각형 339256" width="2" height="44" transform="translate(51 0.266)"/>
        <rect id="사각형_339267" data-name="사각형 339267" width="2" height="44" transform="translate(112 0.266)"/>
        <rect id="사각형_339282" data-name="사각형 339282" width="2" height="44" transform="translate(196 0.266)"/>
        <rect id="사각형_339258" data-name="사각형 339258" width="2" height="44" transform="translate(59 0.266)"/>
        <rect id="사각형_339269" data-name="사각형 339269" width="2" height="44" transform="translate(120 0.266)"/>
        <rect id="사각형_339276" data-name="사각형 339276" width="2" height="44" transform="translate(161 0.266)"/>
        <rect id="사각형_339263" data-name="사각형 339263" width="2" height="44" transform="translate(89 0.266)"/>
        <rect id="사각형_339251" data-name="사각형 339251" width="2" height="44" transform="translate(20 0.266)"/>
        <rect id="사각형_339257" data-name="사각형 339257" width="2" height="44" transform="translate(55 0.266)"/>
        <rect id="사각형_339268" data-name="사각형 339268" width="2" height="44" transform="translate(116 0.266)"/>
        <rect id="사각형_339283" data-name="사각형 339283" width="2" height="44" transform="translate(200 0.266)"/>
        <rect id="사각형_339275" data-name="사각형 339275" width="3" height="44" transform="translate(156 0.266)"/>
        <rect id="사각형_339259" data-name="사각형 339259" width="2" height="44" transform="translate(64 0.266)"/>
        <rect id="사각형_339270" data-name="사각형 339270" width="2" height="44" transform="translate(124 0.266)"/>
        <rect id="사각형_339277" data-name="사각형 339277" width="2" height="44" transform="translate(165 0.266)"/>
        <rect id="사각형_339284" data-name="사각형 339284" width="2" height="44" transform="translate(204 0.266)"/>
        <rect id="사각형_339279" data-name="사각형 339279" width="2" height="44" transform="translate(179 0.266)"/>
        <rect id="사각형_339280" data-name="사각형 339280" width="2" height="44" transform="translate(184 0.266)"/>
        <rect id="사각형_339272" data-name="사각형 339272" width="2" height="44" transform="translate(138 0.266)"/>
        <rect id="사각형_339274" data-name="사각형 339274" width="2" height="44" transform="translate(152 0.266)"/>
        <rect id="사각형_339262" data-name="사각형 339262" width="2" height="44" transform="translate(93 0.266)"/>
        <rect id="사각형_339264" data-name="사각형 339264" width="2" height="44" transform="translate(97 0.266)"/>
        <rect id="사각형_339265" data-name="사각형 339265" width="2" height="44" transform="translate(101 0.266)"/>
        <rect id="사각형_339253" data-name="사각형 339253" width="2" height="44" transform="translate(31 0.266)"/>
      </g>
      <text id="_1239" data-name="1239" transform="translate(103 60.266)" font-size="11" font-family="Jost-Medium, 'Jost*'" font-weight="500"><tspan x="-12.463" y="0">1239</tspan></text>
    </g>
  </g>
</svg>
