<svg xmlns="http://www.w3.org/2000/svg" width="112.001" height="80"><defs><clipPath id="a"><path data-name="빼기 38" d="M-5679.976-2h-78.048a.989.989 0 01-.976-1v-63.028a4.492 4.492 0 004-4.473 4.492 4.492 0 00-4-4.473V-98a.989.989 0 01.975-1h78.048a.99.99 0 01.977 1v23.027a4.491 4.491 0 00-4 4.473 4.492 4.492 0 004 4.473V-3a.989.989 0 01-.976 1z" transform="matrix(0 1 -1 0 43 6698)" fill="#fff" stroke="#126bf0"/></clipPath><clipPath id="b"><path data-name="사각형 240884" transform="translate(32 704)" fill="#fff" stroke="#707070" d="M0 0h80v83H0z"/></clipPath><clipPath id="c"><path data-name="사각형 240885" transform="translate(42 730)" fill="#fff" stroke="#707070" d="M0 0h5v3H0z"/></clipPath><clipPath id="d"><path data-name="사각형 240887" transform="translate(42 727)" fill="#fff" stroke="#126bf0" d="M0 0h5v3H0z"/></clipPath><clipPath id="e"><path data-name="사각형 250886" transform="translate(0 -.49)" fill="none" d="M0 0h13v13H0z"/></clipPath><clipPath id="f"><path data-name="사각형 250884" fill="none" d="M0 0h13v13H0z"/></clipPath></defs><g data-name="그룹 343300"><g data-name="마스크 그룹 619" transform="translate(-30 -939)" clip-path="url(#a)"><path data-name="패스 649739" d="M113 1019v-80h29v80z" fill="#3d77f1"/></g><g data-name="마스크 그룹 499" transform="rotate(-90 -296 408)" clip-path="url(#b)"><g data-name="빼기 39" fill="#fff"><path d="M111.025 815.5h-78.05c-.258 0-.475-.3-.475-.654V792.4c2.31-.466 4-2.499 4-4.9a4.991 4.991 0 00-4-4.9v-77.478c0-.355.217-.654.476-.654h78.049c.257 0 .475.3.475.654V782.6c-2.31.467-4 2.5-4 4.9 0 2.4 1.69 4.433 4 4.9v22.446c0 .354-.218.654-.475.654z"/><path d="M110.962 815a.297.297 0 00.038-.154v-22.053a5.492 5.492 0 01-4-5.293c0-2.5 1.667-4.637 4-5.293v-77.085a.297.297 0 00-.038-.154H33.038a.29.29 0 00-.038.154v77.085c2.333.655 4 2.792 4 5.293 0 2.5-1.667 4.638-4 5.293v22.053a.29.29 0 00.038.154h77.924m.063 1h-78.05c-.538 0-.975-.518-.975-1.154v-22.874c2.28-.252 4-2.174 4-4.472 0-2.298-1.72-4.22-4-4.472v-77.906c0-.637.438-1.154.976-1.154h78.049c.537 0 .975.517.975 1.154v77.906c-2.28.252-4 2.174-4 4.472 0 2.297 1.72 4.22 4 4.472v22.874c0 .636-.438 1.154-.975 1.154z" fill="#d7d7d7"/></g></g><g data-name="마스크 그룹 500" transform="rotate(90 424.5 388.5)" clip-path="url(#c)"><g data-name="타원 8295" transform="translate(42 728)" fill="#fff" stroke="#eaeaea"><circle cx="2.5" cy="2.5" r="2.5" stroke="none"/><circle cx="2.5" cy="2.5" r="2" fill="none"/></g></g><g data-name="마스크 그룹 501" transform="rotate(90 417.5 395.5)" clip-path="url(#c)"><g data-name="타원 8296" transform="translate(42 728)" fill="#fff" stroke="#eaeaea"><circle cx="2.5" cy="2.5" r="2.5" stroke="none"/><circle cx="2.5" cy="2.5" r="2" fill="none"/></g></g><g data-name="마스크 그룹 502" transform="rotate(90 424.5 388.5)" clip-path="url(#d)"><g data-name="타원 8297" transform="translate(42 728)" fill="#fff" stroke="#126bf0"><circle cx="2.5" cy="2.5" r="2.5" stroke="none"/><circle cx="2.5" cy="2.5" r="2" fill="none"/></g></g><g data-name="마스크 그룹 503" transform="rotate(90 417.5 395.5)" clip-path="url(#d)"><g data-name="타원 8298" transform="translate(42 728)" fill="#fff" stroke="#126bf0"><circle cx="2.5" cy="2.5" r="2.5" stroke="none"/><circle cx="2.5" cy="2.5" r="2" fill="none"/></g></g><g data-name="마스크 그룹 504" transform="rotate(90 421 392)" clip-path="url(#c)"><g data-name="타원 8299" transform="translate(42 728)" fill="#fff" stroke="#eaeaea"><circle cx="2.5" cy="2.5" r="2.5" stroke="none"/><circle cx="2.5" cy="2.5" r="2" fill="none"/></g></g><g data-name="마스크 그룹 505" transform="rotate(90 414 399)" clip-path="url(#c)"><g data-name="타원 8300" transform="translate(42 728)" fill="#fff" stroke="#eaeaea"><circle cx="2.5" cy="2.5" r="2.5" stroke="none"/><circle cx="2.5" cy="2.5" r="2" fill="none"/></g></g><g data-name="마스크 그룹 506" transform="rotate(90 421 392)" clip-path="url(#d)"><g data-name="타원 8301" transform="translate(42 728)" fill="#fff" stroke="#126bf0"><circle cx="2.5" cy="2.5" r="2.5" stroke="none"/><circle cx="2.5" cy="2.5" r="2" fill="none"/></g></g><g data-name="마스크 그룹 507" transform="rotate(90 414 399)" clip-path="url(#d)"><g data-name="타원 8302" transform="translate(42 728)" fill="#fff" stroke="#126bf0"><circle cx="2.5" cy="2.5" r="2.5" stroke="none"/><circle cx="2.5" cy="2.5" r="2" fill="none"/></g></g><g data-name="마스크 그룹 508" transform="rotate(90 410.5 402.5)" clip-path="url(#c)"><g data-name="타원 8303" transform="translate(42 728)" fill="#fff" stroke="#eaeaea"><circle cx="2.5" cy="2.5" r="2.5" stroke="none"/><circle cx="2.5" cy="2.5" r="2" fill="none"/></g></g><g data-name="마스크 그룹 509" transform="rotate(90 403.5 409.5)" clip-path="url(#c)"><g data-name="타원 8304" transform="translate(42 728)" fill="#fff" stroke="#eaeaea"><circle cx="2.5" cy="2.5" r="2.5" stroke="none"/><circle cx="2.5" cy="2.5" r="2" fill="none"/></g></g><g data-name="마스크 그룹 510" transform="rotate(90 410.5 402.5)" clip-path="url(#d)"><g data-name="타원 8305" transform="translate(42 728)" fill="#fff" stroke="#126bf0"><circle cx="2.5" cy="2.5" r="2.5" stroke="none"/><circle cx="2.5" cy="2.5" r="2" fill="none"/></g></g><g data-name="마스크 그룹 511" transform="rotate(90 403.5 409.5)" clip-path="url(#d)"><g data-name="타원 8306" transform="translate(42 728)" fill="#fff" stroke="#126bf0"><circle cx="2.5" cy="2.5" r="2.5" stroke="none"/><circle cx="2.5" cy="2.5" r="2" fill="none"/></g></g><g data-name="마스크 그룹 512" transform="rotate(90 407 406)" clip-path="url(#c)"><g data-name="타원 8307" transform="translate(42 728)" fill="#fff" stroke="#eaeaea"><circle cx="2.5" cy="2.5" r="2.5" stroke="none"/><circle cx="2.5" cy="2.5" r="2" fill="none"/></g></g><g data-name="마스크 그룹 513" transform="rotate(90 400 413)" clip-path="url(#c)"><g data-name="타원 8308" transform="translate(42 728)" fill="#fff" stroke="#eaeaea"><circle cx="2.5" cy="2.5" r="2.5" stroke="none"/><circle cx="2.5" cy="2.5" r="2" fill="none"/></g></g><g data-name="마스크 그룹 514" transform="rotate(90 407 406)" clip-path="url(#d)"><g data-name="타원 8309" transform="translate(42 728)" fill="#fff" stroke="#126bf0"><circle cx="2.5" cy="2.5" r="2.5" stroke="none"/><circle cx="2.5" cy="2.5" r="2" fill="none"/></g></g><g data-name="마스크 그룹 515" transform="rotate(90 400 413)" clip-path="url(#d)"><g data-name="타원 8310" transform="translate(42 728)" fill="#fff" stroke="#126bf0"><circle cx="2.5" cy="2.5" r="2.5" stroke="none"/><circle cx="2.5" cy="2.5" r="2" fill="none"/></g></g><g data-name="마스크 그룹 516" transform="rotate(90 396.5 416.5)" clip-path="url(#c)"><g data-name="타원 8311" transform="translate(42 728)" fill="#fff" stroke="#eaeaea"><circle cx="2.5" cy="2.5" r="2.5" stroke="none"/><circle cx="2.5" cy="2.5" r="2" fill="none"/></g></g><g data-name="마스크 그룹 517" transform="rotate(90 396.5 416.5)" clip-path="url(#d)"><g data-name="타원 8312" transform="translate(42 728)" fill="#fff" stroke="#126bf0"><circle cx="2.5" cy="2.5" r="2.5" stroke="none"/><circle cx="2.5" cy="2.5" r="2" fill="none"/></g></g><g data-name="마스크 그룹 518" transform="rotate(90 393 420)" clip-path="url(#c)"><g data-name="타원 8313" transform="translate(42 728)" fill="#fff" stroke="#eaeaea"><circle cx="2.5" cy="2.5" r="2.5" stroke="none"/><circle cx="2.5" cy="2.5" r="2" fill="none"/></g></g><g data-name="마스크 그룹 519" transform="rotate(90 393 420)" clip-path="url(#d)"><g data-name="타원 8314" transform="translate(42 728)" fill="#fff" stroke="#126bf0"><circle cx="2.5" cy="2.5" r="2.5" stroke="none"/><circle cx="2.5" cy="2.5" r="2" fill="none"/></g></g><text transform="rotate(90 14.5 80.5)" fill="#fff" font-size="6" font-family="MoebiusKorea-Bold, Moebius Korea" font-weight="700" letter-spacing=".1em" opacity=".777"><tspan x="-38.394" y="0">DOWNLOAD</tspan></text><g data-name="그룹 328598" transform="translate(91 10.49)" opacity=".78" clip-path="url(#e)"><path data-name="패스 657560" d="M2.674 10.941h7.685a.537.537 0 010 1.008H2.674z" fill="#fff"/><path data-name="선 91281" fill="none" stroke="#fff" stroke-linecap="round" d="M9.272 6.721l1.008-1.008"/><path data-name="패스 657561" d="M3.023 5.578l3.7 3.7 2.553-2.553" fill="none" stroke="#fff"/><path data-name="사각형 250885" fill="#fff" d="M6.181.875h1.008v8.062H6.181z"/></g></g></svg>