<svg xmlns="http://www.w3.org/2000/svg" xmlns:xlink="http://www.w3.org/1999/xlink" width="89.999" height="62" viewBox="0 0 89.999 62">
  <defs>
    <clipPath id="clip-path">
      <path id="빼기_56" data-name="빼기 56" d="M13946,21744h0l-54,0a8.01,8.01,0,0,1-8-8v-46a8.008,8.008,0,0,1,8-8h54a4,4,0,0,0,8,0h12a8.006,8.006,0,0,1,8,8v46a8.008,8.008,0,0,1-8,8h-12a4,4,0,1,0-8,0Z" transform="translate(-13854 -21064)" fill="#fff" stroke="#d7d7d7" stroke-width="1"/>
    </clipPath>
    <clipPath id="clip-path-2">
      <rect id="사각형_185664" data-name="사각형 185664" width="10" height="10" transform="translate(0 -0.061)" fill="none"/>
    </clipPath>
    <clipPath id="clip-path-3">
      <rect id="사각형_185662" data-name="사각형 185662" width="10" height="10" transform="translate(0 0.43)" fill="none"/>
    </clipPath>
  </defs>
  <g id="그룹_450250" data-name="그룹 450250" transform="translate(-30 -615)">
    <g id="빼기_57" data-name="빼기 57" transform="translate(-13854 -21067)" fill="#fff">
      <path d="M 13945.541015625 21743.5 L 13892.001953125 21743.498046875 C 13887.8662109375 21743.498046875 13884.5009765625 21740.1328125 13884.5009765625 21735.99609375 L 13884.5009765625 21690.001953125 C 13884.5009765625 21685.865234375 13887.8662109375 21682.5 13892.001953125 21682.5 L 13945.525390625 21682.5 C 13945.634765625 21683.544921875 13946.08203125 21684.51171875 13946.8125 21685.267578125 C 13947.6640625 21686.146484375 13948.7958984375 21686.630859375 13950 21686.630859375 C 13952.3173828125 21686.630859375 13954.2314453125 21684.818359375 13954.474609375 21682.5 L 13965.998046875 21682.5 C 13970.1337890625 21682.5 13973.4990234375 21685.865234375 13973.4990234375 21690.001953125 L 13973.4990234375 21735.99609375 C 13973.4990234375 21740.1328125 13970.1337890625 21743.498046875 13965.998046875 21743.498046875 L 13954.4580078125 21743.498046875 C 13954.3232421875 21742.478515625 13953.8642578125 21741.5390625 13953.1396484375 21740.810546875 C 13952.2939453125 21739.96484375 13951.1787109375 21739.498046875 13950 21739.498046875 C 13948.8212890625 21739.498046875 13947.7060546875 21739.96484375 13946.861328125 21740.810546875 C 13946.134765625 21741.5390625 13945.67578125 21742.48046875 13945.541015625 21743.5 Z" stroke="none"/>
      <path d="M 13945.1220703125 21743 C 13945.33203125 21742.041015625 13945.8076171875 21741.16015625 13946.5068359375 21740.45703125 C 13947.447265625 21739.515625 13948.6875 21738.998046875 13950 21738.998046875 C 13951.3125 21738.998046875 13952.552734375 21739.515625 13953.4931640625 21740.458984375 C 13954.1923828125 21741.16015625 13954.66796875 21742.0390625 13954.8779296875 21742.998046875 L 13965.998046875 21742.998046875 C 13969.8583984375 21742.998046875 13972.9990234375 21739.857421875 13972.9990234375 21735.99609375 L 13972.9990234375 21690.001953125 C 13972.9990234375 21686.140625 13969.8583984375 21683 13965.998046875 21683 L 13954.9052734375 21683 C 13954.451171875 21685.3515625 13952.423828125 21687.130859375 13950 21687.130859375 C 13948.6591796875 21687.130859375 13947.400390625 21686.59375 13946.453125 21685.615234375 C 13945.75 21684.888671875 13945.283203125 21683.982421875 13945.09375 21683 L 13892.001953125 21683 C 13888.1416015625 21683 13885.0009765625 21686.140625 13885.0009765625 21690.001953125 L 13885.0009765625 21735.99609375 C 13885.0009765625 21739.857421875 13888.1416015625 21742.998046875 13892.001953125 21742.998046875 L 13945.1220703125 21743 M 13946.001953125 21744 L 13946.0009765625 21744 L 13892.001953125 21743.998046875 C 13887.58984375 21743.998046875 13884.0009765625 21740.408203125 13884.0009765625 21735.99609375 L 13884.0009765625 21690.001953125 C 13884.0009765625 21685.58984375 13887.58984375 21682 13892.001953125 21682 L 13945.9990234375 21682 C 13946 21683.1015625 13946.416015625 21684.138671875 13947.171875 21684.919921875 C 13947.9287109375 21685.701171875 13948.9326171875 21686.130859375 13950 21686.130859375 C 13952.2060546875 21686.130859375 13954.0009765625 21684.27734375 13954.0009765625 21682 L 13965.998046875 21682 C 13970.41015625 21682 13973.9990234375 21685.58984375 13973.9990234375 21690.001953125 L 13973.9990234375 21735.99609375 C 13973.9990234375 21740.408203125 13970.41015625 21743.998046875 13965.998046875 21743.998046875 L 13953.998046875 21743.998046875 C 13953.96484375 21742.921875 13953.5341796875 21741.916015625 13952.78515625 21741.1640625 C 13952.0341796875 21740.412109375 13951.044921875 21739.998046875 13950 21739.998046875 C 13948.955078125 21739.998046875 13947.9658203125 21740.412109375 13947.21484375 21741.1640625 C 13946.4658203125 21741.916015625 13946.03515625 21742.921875 13946.001953125 21743.998046875 L 13946.001953125 21744 Z" stroke="none" fill="#d7d7d7"/>
    </g>
    <g id="마스크_그룹_622" data-name="마스크 그룹 622" transform="translate(0 -3.002)" clip-path="url(#clip-path)">
      <rect id="사각형_252409" data-name="사각형 252409" width="24" height="62" transform="translate(96 618)" fill="#6955ff"/>
    </g>
    <text id="Download" transform="translate(106 636) rotate(90)" fill="#fff" font-size="5" font-family="MoebiusKorea-Bold, Moebius Korea" font-weight="700" letter-spacing="0.05em" opacity="0.777"><tspan x="0" y="0">DOWNLOAD</tspan></text>
    <g id="그룹_214593" data-name="그룹 214593" transform="translate(103 622.061)" opacity="0.78" clip-path="url(#clip-path-2)">
      <g id="그룹_214592" data-name="그룹 214592" transform="translate(0 -0.49)" opacity="0">
        <g id="그룹_214591" data-name="그룹 214591" transform="translate(0 0)" clip-path="url(#clip-path-3)">
          <rect id="사각형_185661" data-name="사각형 185661" width="10" height="10" transform="translate(0 0.43)" fill="red"/>
        </g>
      </g>
      <path id="패스_463082" data-name="패스 463082" d="M5.086,16.969h6.166a.431.431,0,0,1,0,.809H5.086Z" transform="translate(-2.941 -8.288)" fill="#fff"/>
      <line id="선_61198" data-name="선 61198" y1="0.809" x2="0.809" transform="translate(7.438 4.486)" fill="none" stroke="#fff" stroke-linecap="round" stroke-width="1"/>
      <path id="패스_463083" data-name="패스 463083" d="M4.5,9l2.965,2.965L9.513,9.916" transform="translate(-2.074 -4.621)" fill="none" stroke="#fff" stroke-width="1"/>
      <rect id="사각형_185663" data-name="사각형 185663" width="0.809" height="6.468" transform="translate(4.959 0.605)" fill="#fff"/>
    </g>
  </g>
</svg>
