<svg xmlns="http://www.w3.org/2000/svg" width="65.28" height="11.55" viewBox="0 0 65.28 11.55">
  <defs>
    <style>
      .cls-1 {
        fill: #493cff;
      }
    </style>
  </defs>
  <path id="패스_569485" data-name="패스 569485" class="cls-1" d="M3.285-5.25A3.071,3.071,0,0,1,3.713-6.9,2.851,2.851,0,0,1,4.86-7.957a3.382,3.382,0,0,1,1.56-.367,3.863,3.863,0,0,1,1.868.413,4.687,4.687,0,0,1,1.267.982V-9.69a5.471,5.471,0,0,0-1.38-.765A5.424,5.424,0,0,0,6.27-10.74a6.289,6.289,0,0,0-2.985.69,5.087,5.087,0,0,0-2.04,1.928A5.518,5.518,0,0,0,.51-5.25a5.518,5.518,0,0,0,.735,2.872A5.087,5.087,0,0,0,3.285-.45,6.289,6.289,0,0,0,6.27.24,5.424,5.424,0,0,0,8.175-.045,5.471,5.471,0,0,0,9.555-.81V-3.57a4.984,4.984,0,0,1-1.267.975,3.806,3.806,0,0,1-1.868.42,3.382,3.382,0,0,1-1.56-.368A2.851,2.851,0,0,1,3.713-3.6,3.071,3.071,0,0,1,3.285-5.25Zm7.725,0a5.907,5.907,0,0,0,.412,2.235,5.209,5.209,0,0,0,1.17,1.77A5.31,5.31,0,0,0,14.385-.082,6.064,6.064,0,0,0,16.65.33a6.106,6.106,0,0,0,2.28-.412,5.31,5.31,0,0,0,1.792-1.163A5.3,5.3,0,0,0,21.9-3.015a5.814,5.814,0,0,0,.42-2.235,5.615,5.615,0,0,0-.427-2.22A5.215,5.215,0,0,0,20.7-9.21a5.319,5.319,0,0,0-1.8-1.132,6.224,6.224,0,0,0-2.25-.4,6.121,6.121,0,0,0-2.227.4A5.335,5.335,0,0,0,12.63-9.21a5.215,5.215,0,0,0-1.193,1.74A5.615,5.615,0,0,0,11.01-5.25Zm2.685,0a3.533,3.533,0,0,1,.368-1.643A2.706,2.706,0,0,1,15.1-8a2.976,2.976,0,0,1,1.552-.4,3.036,3.036,0,0,1,1.583.4,2.657,2.657,0,0,1,1.028,1.11,3.594,3.594,0,0,1,.36,1.643,3.475,3.475,0,0,1-.375,1.642A2.757,2.757,0,0,1,18.2-2.5a2.976,2.976,0,0,1-1.552.4A2.976,2.976,0,0,1,15.1-2.5a2.706,2.706,0,0,1-1.035-1.11A3.533,3.533,0,0,1,13.695-5.25Zm10.14-5.25v7.05A3.921,3.921,0,0,0,24.4-1.268,3.407,3.407,0,0,0,25.92.015a5.3,5.3,0,0,0,2.145.42A5.3,5.3,0,0,0,30.21.015a3.407,3.407,0,0,0,1.523-1.283A3.921,3.921,0,0,0,32.3-3.45V-10.5H29.76v6.87a1.9,1.9,0,0,1-.427,1.29,1.584,1.584,0,0,1-1.267.5,1.56,1.56,0,0,1-1.26-.5,1.925,1.925,0,0,1-.42-1.29V-10.5Zm13.14,6.87h1.11a4.444,4.444,0,0,0,3.045-.922,3.2,3.2,0,0,0,1.035-2.512,3.19,3.19,0,0,0-1.035-2.52,4.468,4.468,0,0,0-3.045-.915H34.44V0h2.535Zm0-2.1V-8.4h1.11a1.913,1.913,0,0,1,1.2.337,1.185,1.185,0,0,1,.435,1,1.189,1.189,0,0,1-.435.99,1.883,1.883,0,0,1-1.2.345Zm6.21.48A5.907,5.907,0,0,0,43.6-3.015a5.209,5.209,0,0,0,1.17,1.77A5.31,5.31,0,0,0,46.56-.082,6.064,6.064,0,0,0,48.825.33,6.106,6.106,0,0,0,51.1-.082,5.31,5.31,0,0,0,52.9-1.245a5.3,5.3,0,0,0,1.177-1.77,5.814,5.814,0,0,0,.42-2.235,5.615,5.615,0,0,0-.428-2.22,5.215,5.215,0,0,0-1.192-1.74,5.319,5.319,0,0,0-1.8-1.132,6.224,6.224,0,0,0-2.25-.4,6.121,6.121,0,0,0-2.228.4A5.335,5.335,0,0,0,44.805-9.21a5.215,5.215,0,0,0-1.193,1.74A5.615,5.615,0,0,0,43.185-5.25Zm2.685,0a3.533,3.533,0,0,1,.368-1.643A2.706,2.706,0,0,1,47.272-8a2.976,2.976,0,0,1,1.553-.4,3.036,3.036,0,0,1,1.583.4,2.657,2.657,0,0,1,1.027,1.11,3.594,3.594,0,0,1,.36,1.643,3.475,3.475,0,0,1-.375,1.642A2.757,2.757,0,0,1,50.377-2.5a2.976,2.976,0,0,1-1.552.4,2.976,2.976,0,0,1-1.553-.4,2.706,2.706,0,0,1-1.035-1.11A3.533,3.533,0,0,1,45.87-5.25ZM63.345-10.5v5.79L56.1-11.025V0h2.445V-5.79L65.79.525V-10.5Z" transform="translate(-0.51 11.025)"/>
</svg>
