<svg xmlns="http://www.w3.org/2000/svg" width="10" height="14"><defs><clipPath id="a"><path data-name="사각형 300801" transform="translate(67.5 195.5)" fill="red" opacity=".279" d="M0 0h10v14H0z"/></clipPath></defs><g data-name="마스크 그룹 198349" transform="translate(-67.5 -195.5)" clip-path="url(#a)"><path data-name="패스 677699" d="M286 210.91v35.17c0 8.239-7.159 14.92-16 14.92H88.76c-8.83 0-16-6.681-16-14.92v-41.7a9.041 9.041 0 00-1.66-4.021 25.908 25.908 0 00-2.86-3.069.283.283 0 00-.03-.03.762.762 0 01-.21-.521.735.735 0 01.691-.739H270c8.841 0 16 6.67 16 14.91" fill="#f9f9f9" stroke="#f0f0f0"/></g></svg>