<svg xmlns="http://www.w3.org/2000/svg" xmlns:xlink="http://www.w3.org/1999/xlink" width="112.001" height="80" viewBox="0 0 112.001 80">
  <defs>
    <clipPath id="clip-path">
      <path id="빼기_38" data-name="빼기 38" d="M-5679.976-2h-78.048A.989.989,0,0,1-5759-3V-66.028a4.492,4.492,0,0,0,4-4.473,4.492,4.492,0,0,0-4-4.473V-98a.989.989,0,0,1,.975-1h78.048a.99.99,0,0,1,.977,1v23.027a4.491,4.491,0,0,0-4,4.473,4.492,4.492,0,0,0,4,4.473V-3A.989.989,0,0,1-5679.976-2Z" transform="translate(43 6698) rotate(90)" fill="#fff" stroke="#126bf0" stroke-width="1"/>
    </clipPath>
    <clipPath id="clip-path-2">
      <rect id="사각형_240884" data-name="사각형 240884" width="80" height="83" transform="translate(32 704)" fill="#fff" stroke="#707070" stroke-width="1"/>
    </clipPath>
    <clipPath id="clip-path-3">
      <rect id="사각형_240885" data-name="사각형 240885" width="5" height="3" transform="translate(42 730)" fill="#fff" stroke="#707070" stroke-width="1"/>
    </clipPath>
    <clipPath id="clip-path-5">
      <rect id="사각형_240887" data-name="사각형 240887" width="5" height="3" transform="translate(42 727)" fill="#fff" stroke="#126bf0" stroke-width="1"/>
    </clipPath>
    <clipPath id="clip-path-23">
      <rect id="사각형_250886" data-name="사각형 250886" width="13" height="13" transform="translate(0 -0.49)" fill="none"/>
    </clipPath>
    <clipPath id="clip-path-24">
      <rect id="사각형_250884" data-name="사각형 250884" width="13" height="13" fill="none"/>
    </clipPath>
  </defs>
  <g id="그룹_343300" data-name="그룹 343300" transform="translate(-30 -1536)">
    <g id="마스크_그룹_619" data-name="마스크 그룹 619" transform="translate(0 597)" clip-path="url(#clip-path)">
      <path id="패스_649739" data-name="패스 649739" d="M0,0H80V29H0Z" transform="translate(113 1019) rotate(-90)" fill="#3d77f1"/>
    </g>
    <g id="마스크_그룹_499" data-name="마스크 그룹 499" transform="translate(-674 1648) rotate(-90)" clip-path="url(#clip-path-2)">
      <g id="빼기_39" data-name="빼기 39" transform="translate(5790 818)" fill="#fff">
        <path d="M -5678.97509765625 -2.500263214111328 L -5757.0244140625 -2.500263214111328 C -5757.28271484375 -2.500263214111328 -5757.50048828125 -2.799834489822388 -5757.50048828125 -3.154434442520142 L -5757.50048828125 -25.60025024414063 C -5755.19091796875 -26.06617546081543 -5753.5 -28.09872627258301 -5753.5 -30.50004959106445 C -5753.5 -32.90143966674805 -5755.19091796875 -34.93397903442383 -5757.50048828125 -35.39982986450195 L -5757.50048828125 -112.8782348632813 C -5757.50048828125 -113.2328338623047 -5757.28271484375 -113.5324096679688 -5757.0244140625 -113.5324096679688 L -5678.97509765625 -113.5324096679688 C -5678.7177734375 -113.5324096679688 -5678.5 -113.2328338623047 -5678.5 -112.8782348632813 L -5678.5 -35.39959716796875 C -5680.8095703125 -34.93318557739258 -5682.50048828125 -32.90072631835938 -5682.50048828125 -30.50004959106445 C -5682.50048828125 -28.09931755065918 -5680.8095703125 -26.06683349609375 -5678.5 -25.60046577453613 L -5678.5 -3.154434442520142 C -5678.5 -2.799834489822388 -5678.7177734375 -2.500263214111328 -5678.97509765625 -2.500263214111328 Z" stroke="none"/>
        <path d="M -5679.0380859375 -3.00025749206543 C -5679.021484375 -3.027613162994385 -5679 -3.078954219818115 -5679 -3.15442681312561 L -5679 -25.20699501037598 C -5681.33349609375 -25.86310005187988 -5683.00048828125 -28.00008583068848 -5683.00048828125 -30.50004196166992 C -5683.00048828125 -32.99993133544922 -5681.33349609375 -35.13692474365234 -5679 -35.79306411743164 L -5679 -112.8782272338867 C -5679 -112.9536972045898 -5679.021484375 -113.0050506591797 -5679.0380859375 -113.0324096679688 L -5756.9619140625 -113.0324096679688 C -5756.97900390625 -113.0051879882813 -5757.00048828125 -112.9538497924805 -5757.00048828125 -112.8782272338867 L -5757.00048828125 -35.79336547851563 C -5754.6669921875 -35.13772201538086 -5753 -33.00067138671875 -5753 -30.50004196166992 C -5753 -27.99946975708008 -5754.6669921875 -25.8624153137207 -5757.00048828125 -25.20671844482422 L -5757.00048828125 -3.15442681312561 C -5757.00048828125 -3.078808069229126 -5756.97900390625 -3.0274817943573 -5756.9619140625 -3.00025749206543 L -5679.0380859375 -3.00025749206543 M -5678.97509765625 -2.00025749206543 L -5757.0244140625 -2.00025749206543 C -5757.5625 -2.00025749206543 -5758.00048828125 -2.518011569976807 -5758.00048828125 -3.15442681312561 L -5758.00048828125 -26.0279655456543 C -5755.7197265625 -26.27968788146973 -5754 -28.20182609558105 -5754 -30.50004196166992 C -5754 -32.79787445068359 -5755.7197265625 -34.72044372558594 -5758.00048828125 -34.97210311889648 L -5758.00048828125 -112.8782272338867 C -5758.00048828125 -113.5146408081055 -5757.5625 -114.0324096679688 -5757.0244140625 -114.0324096679688 L -5678.97509765625 -114.0324096679688 C -5678.4375 -114.0324096679688 -5678 -113.5146408081055 -5678 -112.8782272338867 L -5678 -34.97198104858398 C -5680.28076171875 -34.71970367431641 -5682.00048828125 -32.79762649536133 -5682.00048828125 -30.50004196166992 C -5682.00048828125 -28.20284271240234 -5680.28076171875 -26.28031921386719 -5678 -26.0280876159668 L -5678 -3.15442681312561 C -5678 -2.518011569976807 -5678.4375 -2.00025749206543 -5678.97509765625 -2.00025749206543 Z" stroke="none" fill="#d7d7d7"/>
      </g>
    </g>
    <g id="마스크_그룹_500" data-name="마스크 그룹 500" transform="translate(843 1500) rotate(90)" clip-path="url(#clip-path-3)">
      <g id="타원_8295" data-name="타원 8295" transform="translate(42 728)" fill="#fff" stroke="#eaeaea" stroke-width="1">
        <circle cx="2.5" cy="2.5" r="2.5" stroke="none"/>
        <circle cx="2.5" cy="2.5" r="2" fill="none"/>
      </g>
    </g>
    <g id="마스크_그룹_501" data-name="마스크 그룹 501" transform="translate(843 1514) rotate(90)" clip-path="url(#clip-path-3)">
      <g id="타원_8296" data-name="타원 8296" transform="translate(42 728)" fill="#fff" stroke="#eaeaea" stroke-width="1">
        <circle cx="2.5" cy="2.5" r="2.5" stroke="none"/>
        <circle cx="2.5" cy="2.5" r="2" fill="none"/>
      </g>
    </g>
    <g id="마스크_그룹_502" data-name="마스크 그룹 502" transform="translate(843 1500) rotate(90)" clip-path="url(#clip-path-5)">
      <g id="타원_8297" data-name="타원 8297" transform="translate(42 728)" fill="#fff" stroke="#126bf0" stroke-width="1">
        <circle cx="2.5" cy="2.5" r="2.5" stroke="none"/>
        <circle cx="2.5" cy="2.5" r="2" fill="none"/>
      </g>
    </g>
    <g id="마스크_그룹_503" data-name="마스크 그룹 503" transform="translate(843 1514) rotate(90)" clip-path="url(#clip-path-5)">
      <g id="타원_8298" data-name="타원 8298" transform="translate(42 728)" fill="#fff" stroke="#126bf0" stroke-width="1">
        <circle cx="2.5" cy="2.5" r="2.5" stroke="none"/>
        <circle cx="2.5" cy="2.5" r="2" fill="none"/>
      </g>
    </g>
    <g id="마스크_그룹_504" data-name="마스크 그룹 504" transform="translate(843 1507) rotate(90)" clip-path="url(#clip-path-3)">
      <g id="타원_8299" data-name="타원 8299" transform="translate(42 728)" fill="#fff" stroke="#eaeaea" stroke-width="1">
        <circle cx="2.5" cy="2.5" r="2.5" stroke="none"/>
        <circle cx="2.5" cy="2.5" r="2" fill="none"/>
      </g>
    </g>
    <g id="마스크_그룹_505" data-name="마스크 그룹 505" transform="translate(843 1521) rotate(90)" clip-path="url(#clip-path-3)">
      <g id="타원_8300" data-name="타원 8300" transform="translate(42 728)" fill="#fff" stroke="#eaeaea" stroke-width="1">
        <circle cx="2.5" cy="2.5" r="2.5" stroke="none"/>
        <circle cx="2.5" cy="2.5" r="2" fill="none"/>
      </g>
    </g>
    <g id="마스크_그룹_506" data-name="마스크 그룹 506" transform="translate(843 1507) rotate(90)" clip-path="url(#clip-path-5)">
      <g id="타원_8301" data-name="타원 8301" transform="translate(42 728)" fill="#fff" stroke="#126bf0" stroke-width="1">
        <circle cx="2.5" cy="2.5" r="2.5" stroke="none"/>
        <circle cx="2.5" cy="2.5" r="2" fill="none"/>
      </g>
    </g>
    <g id="마스크_그룹_507" data-name="마스크 그룹 507" transform="translate(843 1521) rotate(90)" clip-path="url(#clip-path-5)">
      <g id="타원_8302" data-name="타원 8302" transform="translate(42 728)" fill="#fff" stroke="#126bf0" stroke-width="1">
        <circle cx="2.5" cy="2.5" r="2.5" stroke="none"/>
        <circle cx="2.5" cy="2.5" r="2" fill="none"/>
      </g>
    </g>
    <g id="마스크_그룹_508" data-name="마스크 그룹 508" transform="translate(843 1528) rotate(90)" clip-path="url(#clip-path-3)">
      <g id="타원_8303" data-name="타원 8303" transform="translate(42 728)" fill="#fff" stroke="#eaeaea" stroke-width="1">
        <circle cx="2.5" cy="2.5" r="2.5" stroke="none"/>
        <circle cx="2.5" cy="2.5" r="2" fill="none"/>
      </g>
    </g>
    <g id="마스크_그룹_509" data-name="마스크 그룹 509" transform="translate(843 1542) rotate(90)" clip-path="url(#clip-path-3)">
      <g id="타원_8304" data-name="타원 8304" transform="translate(42 728)" fill="#fff" stroke="#eaeaea" stroke-width="1">
        <circle cx="2.5" cy="2.5" r="2.5" stroke="none"/>
        <circle cx="2.5" cy="2.5" r="2" fill="none"/>
      </g>
    </g>
    <g id="마스크_그룹_510" data-name="마스크 그룹 510" transform="translate(843 1528) rotate(90)" clip-path="url(#clip-path-5)">
      <g id="타원_8305" data-name="타원 8305" transform="translate(42 728)" fill="#fff" stroke="#126bf0" stroke-width="1">
        <circle cx="2.5" cy="2.5" r="2.5" stroke="none"/>
        <circle cx="2.5" cy="2.5" r="2" fill="none"/>
      </g>
    </g>
    <g id="마스크_그룹_511" data-name="마스크 그룹 511" transform="translate(843 1542) rotate(90)" clip-path="url(#clip-path-5)">
      <g id="타원_8306" data-name="타원 8306" transform="translate(42 728)" fill="#fff" stroke="#126bf0" stroke-width="1">
        <circle cx="2.5" cy="2.5" r="2.5" stroke="none"/>
        <circle cx="2.5" cy="2.5" r="2" fill="none"/>
      </g>
    </g>
    <g id="마스크_그룹_512" data-name="마스크 그룹 512" transform="translate(843 1535) rotate(90)" clip-path="url(#clip-path-3)">
      <g id="타원_8307" data-name="타원 8307" transform="translate(42 728)" fill="#fff" stroke="#eaeaea" stroke-width="1">
        <circle cx="2.5" cy="2.5" r="2.5" stroke="none"/>
        <circle cx="2.5" cy="2.5" r="2" fill="none"/>
      </g>
    </g>
    <g id="마스크_그룹_513" data-name="마스크 그룹 513" transform="translate(843 1549) rotate(90)" clip-path="url(#clip-path-3)">
      <g id="타원_8308" data-name="타원 8308" transform="translate(42 728)" fill="#fff" stroke="#eaeaea" stroke-width="1">
        <circle cx="2.5" cy="2.5" r="2.5" stroke="none"/>
        <circle cx="2.5" cy="2.5" r="2" fill="none"/>
      </g>
    </g>
    <g id="마스크_그룹_514" data-name="마스크 그룹 514" transform="translate(843 1535) rotate(90)" clip-path="url(#clip-path-5)">
      <g id="타원_8309" data-name="타원 8309" transform="translate(42 728)" fill="#fff" stroke="#126bf0" stroke-width="1">
        <circle cx="2.5" cy="2.5" r="2.5" stroke="none"/>
        <circle cx="2.5" cy="2.5" r="2" fill="none"/>
      </g>
    </g>
    <g id="마스크_그룹_515" data-name="마스크 그룹 515" transform="translate(843 1549) rotate(90)" clip-path="url(#clip-path-5)">
      <g id="타원_8310" data-name="타원 8310" transform="translate(42 728)" fill="#fff" stroke="#126bf0" stroke-width="1">
        <circle cx="2.5" cy="2.5" r="2.5" stroke="none"/>
        <circle cx="2.5" cy="2.5" r="2" fill="none"/>
      </g>
    </g>
    <g id="마스크_그룹_516" data-name="마스크 그룹 516" transform="translate(843 1556) rotate(90)" clip-path="url(#clip-path-3)">
      <g id="타원_8311" data-name="타원 8311" transform="translate(42 728)" fill="#fff" stroke="#eaeaea" stroke-width="1">
        <circle cx="2.5" cy="2.5" r="2.5" stroke="none"/>
        <circle cx="2.5" cy="2.5" r="2" fill="none"/>
      </g>
    </g>
    <g id="마스크_그룹_517" data-name="마스크 그룹 517" transform="translate(843 1556) rotate(90)" clip-path="url(#clip-path-5)">
      <g id="타원_8312" data-name="타원 8312" transform="translate(42 728)" fill="#fff" stroke="#126bf0" stroke-width="1">
        <circle cx="2.5" cy="2.5" r="2.5" stroke="none"/>
        <circle cx="2.5" cy="2.5" r="2" fill="none"/>
      </g>
    </g>
    <g id="마스크_그룹_518" data-name="마스크 그룹 518" transform="translate(843 1563) rotate(90)" clip-path="url(#clip-path-3)">
      <g id="타원_8313" data-name="타원 8313" transform="translate(42 728)" fill="#fff" stroke="#eaeaea" stroke-width="1">
        <circle cx="2.5" cy="2.5" r="2.5" stroke="none"/>
        <circle cx="2.5" cy="2.5" r="2" fill="none"/>
      </g>
    </g>
    <g id="마스크_그룹_519" data-name="마스크 그룹 519" transform="translate(843 1563) rotate(90)" clip-path="url(#clip-path-5)">
      <g id="타원_8314" data-name="타원 8314" transform="translate(42 728)" fill="#fff" stroke="#126bf0" stroke-width="1">
        <circle cx="2.5" cy="2.5" r="2.5" stroke="none"/>
        <circle cx="2.5" cy="2.5" r="2" fill="none"/>
      </g>
    </g>
    <text id="Download" transform="translate(125 1602) rotate(90)" fill="#fff" font-size="6" font-family="MoebiusKorea-Bold, Moebius Korea" font-weight="700" letter-spacing="0.1em" opacity="0.777"><tspan x="-38.394" y="0">DOWNLOAD</tspan></text>
    <g id="그룹_328598" data-name="그룹 328598" transform="translate(121 1546.49)" opacity="0.78" clip-path="url(#clip-path-23)">
      <g id="그룹_328597" data-name="그룹 328597" transform="translate(0 -0.49)" opacity="0">
        <g id="그룹_328596" data-name="그룹 328596" transform="translate(0 0)" clip-path="url(#clip-path-24)">
          <rect id="사각형_250883" data-name="사각형 250883" width="13" height="13" fill="red"/>
        </g>
      </g>
      <path id="패스_657560" data-name="패스 657560" d="M5.086,16.969h7.685a.537.537,0,0,1,0,1.008H5.086Z" transform="translate(-2.412 -6.028)" fill="#fff"/>
      <line id="선_91281" data-name="선 91281" y1="1.008" x2="1.008" transform="translate(9.272 5.713)" fill="none" stroke="#fff" stroke-linecap="round" stroke-width="1"/>
      <path id="패스_657561" data-name="패스 657561" d="M4.5,9l3.7,3.7,2.553-2.553" transform="translate(-1.477 -3.422)" fill="none" stroke="#fff" stroke-width="1"/>
      <rect id="사각형_250885" data-name="사각형 250885" width="1.008" height="8.062" transform="translate(6.181 0.875)" fill="#fff"/>
    </g>
  </g>
</svg>
