<svg xmlns="http://www.w3.org/2000/svg" width="65.28" height="11.55"><path data-name="패스 569485" d="M2.775 5.775a3.071 3.071 0 01.428-1.65A2.851 2.851 0 014.35 3.068a3.382 3.382 0 011.56-.367 3.863 3.863 0 011.868.413 4.687 4.687 0 011.267.982V1.335A5.471 5.471 0 007.665.57 5.424 5.424 0 005.76.285a6.289 6.289 0 00-2.985.69 5.087 5.087 0 00-2.04 1.928A5.518 5.518 0 000 5.775a5.518 5.518 0 00.735 2.872 5.087 5.087 0 002.04 1.928 6.289 6.289 0 002.985.69 5.424 5.424 0 001.905-.285 5.471 5.471 0 001.38-.765v-2.76a4.984 4.984 0 01-1.267.975 3.806 3.806 0 01-1.868.42 3.382 3.382 0 01-1.56-.368 2.851 2.851 0 01-1.147-1.057 3.071 3.071 0 01-.428-1.65zm7.725 0a5.907 5.907 0 00.412 2.235 5.209 5.209 0 001.17 1.77 5.31 5.31 0 001.793 1.163 6.064 6.064 0 002.265.412 6.106 6.106 0 002.28-.412 5.31 5.31 0 001.792-1.163 5.3 5.3 0 001.178-1.77 5.814 5.814 0 00.42-2.235 5.615 5.615 0 00-.427-2.22 5.215 5.215 0 00-1.193-1.74 5.319 5.319 0 00-1.8-1.132 6.224 6.224 0 00-2.25-.4 6.121 6.121 0 00-2.227.4 5.335 5.335 0 00-1.793 1.132 5.215 5.215 0 00-1.193 1.74 5.615 5.615 0 00-.427 2.22zm2.685 0a3.533 3.533 0 01.368-1.643 2.706 2.706 0 011.037-1.107 2.976 2.976 0 011.552-.4 3.036 3.036 0 011.583.4 2.657 2.657 0 011.028 1.11 3.594 3.594 0 01.36 1.643 3.475 3.475 0 01-.375 1.642 2.757 2.757 0 01-1.048 1.105 2.976 2.976 0 01-1.552.4 2.976 2.976 0 01-1.548-.4 2.706 2.706 0 01-1.035-1.11 3.533 3.533 0 01-.37-1.64zm10.14-5.25v7.05a3.921 3.921 0 00.565 2.182 3.407 3.407 0 001.52 1.283 5.3 5.3 0 002.145.42 5.3 5.3 0 002.145-.42 3.407 3.407 0 001.523-1.283 3.921 3.921 0 00.567-2.182V.525h-2.54v6.87a1.9 1.9 0 01-.427 1.29 1.584 1.584 0 01-1.267.5 1.56 1.56 0 01-1.26-.5 1.925 1.925 0 01-.42-1.29V.525zm13.14 6.87h1.11a4.444 4.444 0 003.045-.922 3.2 3.2 0 001.035-2.512 3.19 3.19 0 00-1.035-2.52 4.468 4.468 0 00-3.045-.915H33.93v10.499h2.535zm0-2.1v-2.67h1.11a1.913 1.913 0 011.2.337 1.185 1.185 0 01.435 1 1.189 1.189 0 01-.435.99 1.883 1.883 0 01-1.2.345zm6.21.48a5.907 5.907 0 00.415 2.235 5.209 5.209 0 001.17 1.77 5.31 5.31 0 001.79 1.163 6.064 6.064 0 002.265.412 6.106 6.106 0 002.275-.412 5.31 5.31 0 001.8-1.163 5.3 5.3 0 001.177-1.77 5.814 5.814 0 00.42-2.235 5.615 5.615 0 00-.428-2.22 5.215 5.215 0 00-1.192-1.74 5.319 5.319 0 00-1.8-1.132 6.224 6.224 0 00-2.25-.4 6.121 6.121 0 00-2.228.4 5.335 5.335 0 00-1.794 1.132 5.215 5.215 0 00-1.193 1.74 5.615 5.615 0 00-.427 2.22zm2.685 0a3.533 3.533 0 01.368-1.643 2.706 2.706 0 011.034-1.107 2.976 2.976 0 011.553-.4 3.036 3.036 0 011.583.4 2.657 2.657 0 011.027 1.11 3.594 3.594 0 01.36 1.643 3.475 3.475 0 01-.375 1.642 2.757 2.757 0 01-1.043 1.105 2.976 2.976 0 01-1.552.4 2.976 2.976 0 01-1.553-.4 2.706 2.706 0 01-1.035-1.11 3.533 3.533 0 01-.367-1.64zM62.835.525v5.79L55.59 0v11.025h2.445v-5.79l7.245 6.315V.525z" fill="#fdfdff"/></svg>