<svg xmlns="http://www.w3.org/2000/svg" width="10" height="14"><defs><clipPath id="a"><path data-name="사각형 300803" transform="translate(351 361)" fill="red" opacity=".464" d="M0 0h10v14H0z"/></clipPath></defs><g data-name="마스크 그룹 198350" transform="translate(-351 -361)" clip-path="url(#a)"><path data-name="패스 788026" d="M192 375.91v35.17c0 8.239 7.159 14.92 16 14.92h132.24c8.83 0 16-6.681 16-14.92v-41.7a9.041 9.041 0 011.66-4.021 25.908 25.908 0 012.86-3.069.284.284 0 01.03-.03.762.762 0 00.21-.521.735.735 0 00-.691-.739H208c-8.841 0-16 6.67-16 14.91" fill="#3673ee"/></g></svg>