<svg xmlns="http://www.w3.org/2000/svg" xmlns:xlink="http://www.w3.org/1999/xlink" width="100" height="71" viewBox="0 0 100 71">
  <defs>
    <linearGradient id="linear-gradient" x1="-0.175" y1="0.888" x2="1" y2="0.186" gradientUnits="objectBoundingBox">
      <stop offset="0" stop-color="#5d85fa"/>
      <stop offset="0.232" stop-color="#5581fa"/>
      <stop offset="0.877" stop-color="#4178fe"/>
      <stop offset="1" stop-color="#3168ea"/>
    </linearGradient>
    <linearGradient id="linear-gradient-2" x1="0.5" x2="0.5" y2="1" gradientUnits="objectBoundingBox">
      <stop offset="0" stop-color="#2cd5c2"/>
      <stop offset="1" stop-color="#19ceba"/>
    </linearGradient>
    <clipPath id="clip-path">
      <rect id="배경" width="71" height="100" rx="8" transform="translate(95 230.404) rotate(180)" stroke="rgba(4,160,243,0.15)" stroke-width="1" fill="url(#linear-gradient)"/>
    </clipPath>
  </defs>
  <g id="그룹_331074" data-name="그룹 331074" transform="translate(-22 -155)">
    <g id="카드" transform="translate(252.404 131) rotate(90)">
      <g id="배경-2" data-name="배경" transform="translate(95 230.404) rotate(180)" stroke="#24c6b4" stroke-width="1" fill="url(#linear-gradient-2)">
        <rect width="71" height="100" rx="8" stroke="none"/>
        <rect x="0.5" y="0.5" width="70" height="99" rx="7.5" fill="none"/>
      </g>
      <g id="마스크_그룹_365" data-name="마스크 그룹 365" clip-path="url(#clip-path)">
        <g id="대갈" transform="translate(-210.713 568.865) rotate(-106)" opacity="0.5" style="mix-blend-mode: multiply;isolation: isolate">
          <path id="패스_788295" data-name="패스 788295" d="M352.374,370.439a33.884,33.884,0,0,0-40.883-12.864,1.715,1.715,0,0,0-.44-.1,1.559,1.559,0,0,1-1.208-.625c-.974-1.3-.679-4.2-.5-5.117a1.709,1.709,0,0,0-3.351-.673c-.1.51-.946,5.068,1.105,7.827a5.051,5.051,0,0,0,.488.556q-.849.474-1.679,1c-.854.075-3.448.3-5.421-4.608a23.394,23.394,0,0,1-1.407-5.808,1.709,1.709,0,0,0-3.405.3,26.59,26.59,0,0,0,1.613,6.715c2.41,6.059,6.18,7.042,8.919,6.807l.421-.037a1.709,1.709,0,0,0,.788-.273,30.418,30.418,0,1,1-12.332,16.284l.548-1.466a29.5,29.5,0,0,1,4.877-8.446l1.087-1.319-2.638-2.174-1.087,1.319a32.9,32.9,0,0,0-5.425,9.384,1.7,1.7,0,0,0-.18.356c-.147.408-.283.818-.415,1.23l-.02.053h0a33.81,33.81,0,0,0,32.3,44.032,33.819,33.819,0,0,0,28.244-52.353Z" transform="translate(0 0)" fill="#04b9a6"/>
          <path id="패스_788296" data-name="패스 788296" d="M366.87,492.421a7.745,7.745,0,0,1-7.277-5.113l-.474-1.316,2.631-.949.474,1.316a4.941,4.941,0,0,0,9.517-.831l.239-1.378,2.755.478-.239,1.378a7.745,7.745,0,0,1-6.951,6.385C367.319,492.411,367.094,492.421,366.87,492.421Z" transform="translate(-47.451 -93.512)" fill="#04b9a6"/>
          <path id="패스_788297" data-name="패스 788297" d="M408.664,439.109l-.11-1.263c0-.005,0-.011,0-.016l-.477-5.457-3.405.3.478,5.473h0l.11,1.263a1.709,1.709,0,0,0,1.7,1.561c.05,0,.1,0,.15-.006A1.709,1.709,0,0,0,408.664,439.109Z" transform="translate(-78.845 -57.827)" fill="#04b9a6"/>
          <path id="패스_788298" data-name="패스 788298" d="M347.7,444.443l-.147-1.684,0-.01-.44-5.042-3.405.3.441,5.052h0l.147,1.684a1.709,1.709,0,0,0,1.7,1.56c.05,0,.1,0,.151-.007A1.709,1.709,0,0,0,347.7,444.443Z" transform="translate(-36.826 -61.503)" fill="#04b9a6"/>
        </g>
      </g>
    </g>
    <g id="그룹_326248" data-name="그룹 326248" transform="translate(-27 157)">
      <g id="그룹_238213" data-name="그룹 238213">
        <text id="muffin_club_" data-name="muffin club " transform="translate(61 13)" fill="#fff" font-size="6" font-family="MoebiusKorea-Bold, Moebius Korea" font-weight="700" letter-spacing="0.05em"><tspan x="0" y="0">MUFFIN CLUB </tspan></text>
      </g>
    </g>
    <g id="그룹_327778" data-name="그룹 327778" transform="translate(-28 188.602)">
      <g id="그룹_238213-2" data-name="그룹 238213" transform="translate(62 16)">
        <text id="membership_card_Muffin_club" data-name="membership card
Muffin club" transform="translate(0 5.398)" fill="#fff" font-size="4" font-family="Jost-Bold, 'Jost*'" font-weight="700" letter-spacing="0.05em"><tspan x="0" y="0">MEMBERSHIP CARD</tspan><tspan x="0" y="5">MUFFIN CLUB</tspan></text>
      </g>
    </g>
    <text id="체험형" transform="translate(34 189)" fill="#fff" font-size="15" font-family="MoebiusKorea-Regular, Moebius Korea" letter-spacing="-0.03em"><tspan x="0" y="0">체험형</tspan></text>
  </g>
</svg>
