<svg xmlns="http://www.w3.org/2000/svg" xmlns:xlink="http://www.w3.org/1999/xlink" width="335" height="180" viewBox="0 0 335 180">
  <defs>
    <linearGradient id="linear-gradient" y1="0.567" x2="1" y2="0.561" gradientUnits="objectBoundingBox">
      <stop offset="0" stop-color="#5fcef7"/>
      <stop offset="1" stop-color="#0189ea"/>
    </linearGradient>
    <clipPath id="clip-path">
      <rect id="사각형_368021" data-name="사각형 368021" width="335" height="180" transform="translate(20 95)" fill="red" opacity="0.21"/>
    </clipPath>
    <linearGradient id="linear-gradient-2" x1="0.99" y1="0.922" x2="0" y2="0.021" gradientUnits="objectBoundingBox">
      <stop offset="0" stop-color="#f47645"/>
      <stop offset="0.069" stop-color="#fc7a47"/>
      <stop offset="0.869" stop-color="#fc8a5d"/>
      <stop offset="1" stop-color="#f89771"/>
    </linearGradient>
    <clipPath id="clip-path-2">
      <rect id="사각형_299511" data-name="사각형 299511" width="335" height="180" rx="20" transform="translate(20 87)" fill="url(#linear-gradient)"/>
    </clipPath>
    <clipPath id="clip-path-3">
      <rect id="사각형_299512" data-name="사각형 299512" width="20" height="20" fill="none"/>
    </clipPath>
    <clipPath id="clip-path-4">
      <rect id="사각형_299516" data-name="사각형 299516" width="335" height="180" rx="20" transform="translate(20 87)" fill="#ebd6cd"/>
    </clipPath>
  </defs>
  <g id="마스크_그룹_422681" data-name="마스크 그룹 422681" transform="translate(-20 -95)" clip-path="url(#clip-path)">
    <g id="card" transform="translate(0 8)">
      <g id="패스_788299" data-name="패스 788299" transform="translate(20 87)">
        <path id="패스_1324240" data-name="패스 1324240" d="M315,179.5H20A19.483,19.483,0,0,1,.5,160V20A19.483,19.483,0,0,1,20,.5H315A19.483,19.483,0,0,1,334.5,20V160A19.483,19.483,0,0,1,315,179.5Z" fill="url(#linear-gradient-2)"/>
        <path id="패스_1324241" data-name="패스 1324241" d="M20,1A18.983,18.983,0,0,0,1,20V160a18.983,18.983,0,0,0,19,19H315a18.983,18.983,0,0,0,19-19V20A18.983,18.983,0,0,0,315,1H20m0-1H315a20,20,0,0,1,20,20V160a20,20,0,0,1-20,20H20A20,20,0,0,1,0,160V20A20,20,0,0,1,20,0Z" fill="#f48253"/>
      </g>
      <g id="마스크_그룹_360" data-name="마스크 그룹 360" clip-path="url(#clip-path-2)">
        <g id="그룹_400571" data-name="그룹 400571" transform="translate(0 -12.747)" opacity="0.5">
          <g id="icon_smile_4cccd9_20" transform="translate(114 -88.253)">
            <g id="icon_smile_4cccd9_20-2" data-name="icon_smile_4cccd9_20" transform="translate(-10 -10)" clip-path="url(#clip-path-3)">
              <path id="패스_788269" data-name="패스 788269" d="M11,4.2a7.9,7.9,0,1,1-7.8,7.9h0A7.9,7.9,0,0,1,11,4.2" fill="#4cccd9"/>
              <path id="패스_788270" data-name="패스 788270" d="M2.3,7.3a7.6,7.6,0,0,1,1.4-2" fill="none" stroke="#2c9fac" stroke-linecap="square" stroke-linejoin="round" stroke-width="1.4"/>
              <path id="패스_788271" data-name="패스 788271" d="M3.7.7s0,3.1,1.9,3.1h.1A7.9,7.9,0,1,1,2.3,7.3" fill="none" stroke="#2c9fac" stroke-linecap="round" stroke-linejoin="round" stroke-width="1.5"/>
              <path id="패스_788272" data-name="패스 788272" d="M6.2,1.3S5.7,3,6.8,3.2" fill="none" stroke="#2c9fac" stroke-linecap="round" stroke-linejoin="round" stroke-width="1.5"/>
              <path id="패스_788273" data-name="패스 788273" d="M9.7,11.5a1.5,1.5,0,0,1-3,0" fill="none" stroke="#196e72" stroke-linecap="square" stroke-miterlimit="10" stroke-width="1.4"/>
              <line id="선_114060" data-name="선 114060" y2="0.3" transform="translate(10.5 8.7)" fill="none" stroke="#196e72" stroke-linecap="round" stroke-width="1.4"/>
              <line id="선_114061" data-name="선 114061" y2="1.4" transform="translate(10.5 7.3)" fill="none" stroke="#196e72" stroke-width="1.4"/>
              <line id="선_114062" data-name="선 114062" y2="0.4" transform="translate(5.9 8.6)" fill="none" stroke="#196e72" stroke-linecap="round" stroke-width="1.4"/>
              <line id="선_114063" data-name="선 114063" y2="1.3" transform="translate(5.9 7.3)" fill="none" stroke="#196e72" stroke-width="1.4"/>
            </g>
          </g>
        </g>
      </g>
      <g id="마스크_그룹_361" data-name="마스크 그룹 361" clip-path="url(#clip-path-4)">
        <g id="그룹_400575" data-name="그룹 400575" transform="matrix(0.961, -0.276, 0.276, 0.961, -226.817, -128.331)" opacity="0.25" style="mix-blend-mode: multiply;isolation: isolate">
          <path id="패스_788295" data-name="패스 788295" d="M490.09,419.161a109.02,109.02,0,0,0-131.541-41.388,5.517,5.517,0,0,0-1.416-.33,5.017,5.017,0,0,1-3.887-2.01c-3.135-4.2-2.185-13.524-1.6-16.463a5.5,5.5,0,1,0-10.784-2.164c-.33,1.642-3.044,16.307,3.558,25.182a16.259,16.259,0,0,0,1.571,1.788q-2.73,1.525-5.4,3.22c-2.749.24-11.1.96-17.443-14.825a75.271,75.271,0,0,1-4.528-18.687,5.5,5.5,0,1,0-10.957.962,85.555,85.555,0,0,0,5.192,21.606c7.755,19.495,19.883,22.658,28.7,21.9l1.354-.118a5.5,5.5,0,0,0,2.536-.879,97.87,97.87,0,1,1-39.678,52.392l1.764-4.716a94.913,94.913,0,0,1,15.69-27.175l3.5-4.244-8.487-6.995-3.5,4.244a105.844,105.844,0,0,0-17.455,30.193,5.459,5.459,0,0,0-.579,1.147c-.474,1.312-.912,2.633-1.334,3.959l-.064.17h.01A108.829,108.829,0,1,0,490.09,419.161Z" fill="#f46d37"/>
          <path id="패스_788296" data-name="패스 788296" d="M384.058,510.762a24.921,24.921,0,0,1-23.413-16.451l-1.526-4.233,8.464-3.053,1.526,4.233a15.9,15.9,0,0,0,30.619-2.675l.769-4.433,8.865,1.538-.769,4.434a24.919,24.919,0,0,1-22.364,20.545Q385.136,510.762,384.058,510.762Z" fill="#f46d37"/>
          <path id="패스_788297" data-name="패스 788297" d="M417.521,454.047l-.354-4.064c0-.017-.006-.034-.007-.052l-1.534-17.559-10.956.957,1.538,17.609h0l.354,4.064a5.5,5.5,0,0,0,5.472,5.021c.16,0,.322-.006.484-.02A5.5,5.5,0,0,0,417.521,454.047Z" fill="#f46d37"/>
          <path id="패스_788298" data-name="패스 788298" d="M356.553,459.381l-.473-5.418v-.033l-1.417-16.224-10.956.957,1.42,16.254h0l.473,5.418a5.5,5.5,0,0,0,5.472,5.02c.16,0,.322-.006.485-.021a5.5,5.5,0,0,0,5-5.953Z" fill="#f46d37"/>
        </g>
      </g>
    </g>
  </g>
</svg>
