<svg xmlns="http://www.w3.org/2000/svg" xmlns:xlink="http://www.w3.org/1999/xlink" width="335" height="180" viewBox="0 0 335 180">
  <defs>
    <clipPath id="clip-path">
      <rect id="사각형_299516" data-name="사각형 299516" width="335" height="180" rx="20" transform="translate(20 87)" fill="#4878f8"/>
    </clipPath>
  </defs>
  <g id="마스크_그룹_361" data-name="마스크 그룹 361" transform="translate(-20 -87)" clip-path="url(#clip-path)">
    <g id="그룹_400575" data-name="그룹 400575" transform="matrix(0.961, -0.276, 0.276, 0.961, -226.817, -128.331)" style="mix-blend-mode: multiply;isolation: isolate">
      <path id="패스_788295" data-name="패스 788295" d="M490.09,419.161a109.02,109.02,0,0,0-131.541-41.388,5.517,5.517,0,0,0-1.416-.33,5.017,5.017,0,0,1-3.887-2.01c-3.135-4.2-2.185-13.524-1.6-16.463a5.5,5.5,0,1,0-10.784-2.164c-.33,1.642-3.044,16.307,3.558,25.182a16.259,16.259,0,0,0,1.571,1.788q-2.73,1.525-5.4,3.22c-2.749.24-11.1.96-17.443-14.825a75.271,75.271,0,0,1-4.528-18.687,5.5,5.5,0,1,0-10.957.962,85.555,85.555,0,0,0,5.192,21.606c7.755,19.495,19.883,22.658,28.7,21.9l1.354-.118a5.5,5.5,0,0,0,2.536-.879,97.87,97.87,0,1,1-39.678,52.392l1.764-4.716a94.913,94.913,0,0,1,15.69-27.175l3.5-4.244-8.487-6.995-3.5,4.244a105.844,105.844,0,0,0-17.455,30.193,5.459,5.459,0,0,0-.579,1.147c-.474,1.312-.912,2.633-1.334,3.959l-.064.17h.01A108.829,108.829,0,1,0,505.6,501.006a110.5,110.5,0,0,0,2.325-22.663A107.865,107.865,0,0,0,490.09,419.161Z" fill="#13c8b3" opacity="0.999"/>
      <path id="패스_788296" data-name="패스 788296" d="M384.058,510.762a24.921,24.921,0,0,1-23.413-16.451l-1.526-4.233,8.464-3.053,1.526,4.233a15.9,15.9,0,0,0,30.619-2.675l.769-4.433,8.865,1.538-.769,4.434a24.919,24.919,0,0,1-22.364,20.545Q385.136,510.762,384.058,510.762Z" fill="#13c8b3" opacity="0.999"/>
      <path id="패스_788297" data-name="패스 788297" d="M417.521,454.047l-.354-4.064c0-.017-.006-.034-.007-.052l-1.534-17.559-10.956.957,1.538,17.609h0l.354,4.064a5.5,5.5,0,0,0,5.472,5.021c.16,0,.322-.006.484-.02A5.5,5.5,0,0,0,417.521,454.047Z" fill="#13c8b3" opacity="0.999"/>
      <path id="패스_788298" data-name="패스 788298" d="M356.553,459.381l-.473-5.418v-.033l-1.417-16.224-10.956.957,1.42,16.254h0l.473,5.418a5.5,5.5,0,0,0,5.472,5.02c.16,0,.322-.006.485-.021a5.5,5.5,0,0,0,5-5.953Z" fill="#13c8b3" opacity="0.999"/>
    </g>
  </g>
</svg>
