<svg xmlns="http://www.w3.org/2000/svg" width="100" height="71"><defs><linearGradient id="a" x1="-.175" y1=".888" x2="1" y2=".186" gradientUnits="objectBoundingBox"><stop offset="0" stop-color="#5d85fa"/><stop offset=".232" stop-color="#5581fa"/><stop offset=".877" stop-color="#4178fe"/><stop offset="1" stop-color="#3168ea"/></linearGradient><clipPath id="b"><rect width="71" height="100" rx="8" transform="rotate(180 47.5 115.202)" stroke="rgba(4,160,243,0.15)" fill="url(#a)"/></clipPath></defs><g data-name="그룹 331074"><g data-name="배경" transform="rotate(-90 35.5 35.5)" stroke="#5d7dea" fill="url(#a)"><rect width="71" height="100" rx="8" stroke="none"/><rect x=".5" y=".5" width="70" height="99" rx="7.5" fill="none"/></g><g data-name="마스크 그룹 365" clip-path="url(#b)" transform="rotate(90 127.202 103.202)"><g opacity=".4" style="mix-blend-mode:multiply;isolation:isolate" fill="#2553cc"><path data-name="패스 788295" d="M48.248 128.035a33.884 33.884 0 00-1.096 42.845 1.715 1.715 0 00.025.45 1.559 1.559 0 01-.268 1.334c-.981 1.294-3.85 1.81-4.781 1.89a1.709 1.709 0 00.277 3.407c.518-.044 5.132-.487 7.219-3.22a5.051 5.051 0 00.4-.622q.69.686 1.424 1.339c.307.8 1.239 3.231-2.935 6.48a23.394 23.394 0 01-5.196 2.954 1.71 1.71 0 001.227 3.19 26.59 26.59 0 006.01-3.4c5.16-3.987 5.066-7.882 4.086-10.45l-.152-.395a1.709 1.709 0 00-.48-.682 30.418 30.418 0 1119.053 7.366l-1.56-.123a29.5 29.5 0 01-9.464-2.36l-1.567-.681-1.363 3.135 1.568.68a32.9 32.9 0 0010.515 2.63 1.7 1.7 0 00.392.074c.433.029.865.047 1.297.06l.057.005a33.81 33.81 0 0033.423-43.186 33.819 33.819 0 00-58.11-12.72z"/><path data-name="패스 788296" d="M84.7 151.866a7.745 7.745 0 01-2.91 8.404l-1.134.818-1.638-2.267 1.135-.819a4.941 4.941 0 00-3.422-8.919l-1.391.15-.3-2.78 1.39-.15a7.745 7.745 0 018.054 4.922c.082.212.153.425.215.64z"/><path data-name="패스 788297" d="M64.888 146.727l-1.183.454-.016.004-5.114 1.963 1.227 3.19 5.13-1.968 1.183-.453a1.709 1.709 0 001.032-2.065c-.014-.048-.028-.096-.047-.142a1.709 1.709 0 00-2.212-.983z"/><path data-name="패스 788298" d="M71.704 164.481l-1.578.606-.01.002-4.725 1.813 1.227 3.19 4.734-1.816 1.579-.605a1.709 1.709 0 001.03-2.065c-.013-.048-.027-.096-.048-.143a1.709 1.709 0 00-2.209-.982z"/></g></g><g data-name="그룹 326248"><g data-name="그룹 238213"><text data-name="muffin club" transform="translate(12 15)" fill="#fff" font-size="6" font-family="MoebiusKorea-Bold, Moebius Korea" font-weight="700" letter-spacing=".05em"><tspan x="0" y="0">MUFFIN CLUB</tspan></text></g></g><g data-name="그룹 327778"><g data-name="그룹 238213"><text data-name="membership card Muffin club" transform="translate(12 55)" fill="#fff" font-size="4" font-family="Jost-Bold, 'Jost*'" font-weight="700" letter-spacing=".05em"><tspan x="0" y="0">MEMBERSHIP CARD</tspan><tspan x="0" y="5">MUFFIN CLUB</tspan></text></g></g><g data-name="그룹 238213"><text transform="translate(12 32)" fill="#fff" font-size="15" font-family="Jost-Bold, 'Jost*'" font-weight="700"><tspan x="0" y="0">OIL</tspan></text></g></g></svg>