<svg xmlns="http://www.w3.org/2000/svg" width="48.974" height="50.965" viewBox="0 0 48.974 50.965"><defs><style>.a,.b{fill:none;}.a,.b,.e{stroke:#111;stroke-width:1.5px;}.a,.e{stroke-linecap:round;stroke-linejoin:round;}.b{stroke-miterlimit:10;}.c{fill:#111;}.d,.e{fill:#fddb2b;}</style></defs><g transform="translate(-11.645 -76)"><g transform="translate(-37.826 -2.348)"><line class="a" x1="2.828" y1="2.829" transform="translate(81.602 125.423)"/><line class="a" y1="2.829" x2="2.828" transform="translate(81.602 125.423)"/><circle class="b" cx="1.5" cy="1.5" r="1.5" transform="translate(50.221 102.739)"/><circle class="c" cx="1" cy="1" r="1" transform="translate(60.721 100.543)"/><line class="a" x1="2.829" y1="2.828" transform="translate(61.647 79.967)"/><line class="a" y1="2.828" x2="2.829" transform="translate(61.647 79.967)"/><line class="a" x1="2.21" y1="2.21" transform="translate(95.174 83.274)"/><line class="a" y1="2.21" x2="2.21" transform="translate(95.174 83.274)"/><circle class="c" cx="1" cy="1" r="1" transform="translate(70.294 84.723)"/><circle class="c" cx="1" cy="1" r="1" transform="translate(49.826 81.473)"/><circle class="c" cx="1" cy="1" r="1" transform="translate(86.293 78.348)"/></g><g transform="translate(-98.232 7.269)"><circle class="d" cx="12" cy="12" r="12" transform="translate(125.232 81.731)"/><path class="a" d="M137.219,81.25h-4a12.469,12.469,0,0,0,0,24.938h4a12.469,12.469,0,1,0,0-24.938Z"/><line class="a" x2="4" transform="translate(145.688 93.719)"/><line class="a" x2="3.998" transform="translate(142.592 101.942)"/><line class="a" x2="4.001" transform="translate(144.993 97.83)"/><line class="a" x1="4" transform="translate(142.592 85.527)"/><line class="a" x1="4" transform="translate(145.005 89.639)"/><circle class="e" cx="12.469" cy="12.469" r="12.469" transform="matrix(0.974, -0.228, 0.228, 0.974, 118.232, 84.428)"/><path class="c" d="M4.544-12.064a7.658,7.658,0,0,1,3.136.528A2.854,2.854,0,0,1,9.328-8.688a3.613,3.613,0,0,1-.672,2.256,4.284,4.284,0,0,1-3.648,1.44q-1.184,0-1.184-.96a.785.785,0,0,1,.384-.736,1.261,1.261,0,0,1,.544-.16q.272-.016.56-.048a1.559,1.559,0,0,0,1.472-1.76q0-1.584-2-1.584H3.472v8.5q0,1.3-1.152,1.3-1.136,0-1.136-1.3v-10.32Z" transform="translate(128.232 99.731)"/></g></g></svg>