<svg xmlns="http://www.w3.org/2000/svg" xmlns:xlink="http://www.w3.org/1999/xlink" width="65" height="45" viewBox="0 0 65 45">
  <defs>
    <clipPath id="clip-path">
      <path id="패스_840782" data-name="패스 840782" d="M11,0V35.4s10.6,7.1,23.4,6a49.7,49.7,0,0,0,24.7-7V0Z" fill="none"/>
    </clipPath>
    <clipPath id="clip-path-2">
      <path id="패스_840788" data-name="패스 840788" d="M8,0V35.4s10.6,7.1,23.4,6a49.7,49.7,0,0,0,24.7-7V0Z" fill="none"/>
    </clipPath>
    <clipPath id="clip-path-3">
      <rect id="사각형_318503" data-name="사각형 318503" width="8.1" height="14.58" transform="translate(26.8 25.8)" fill="none"/>
    </clipPath>
    <clipPath id="clip-path-5">
      <rect id="사각형_318504" data-name="사각형 318504" width="65" height="45" fill="none"/>
    </clipPath>
  </defs>
  <g id="주유할인금액_65x45" transform="translate(32.5 22.5)">
    <g id="그룹_422898" data-name="그룹 422898" transform="translate(-32.5 -22.5)">
      <g id="그룹_422891" data-name="그룹 422891" clip-path="url(#clip-path)">
        <path id="패스_840779" data-name="패스 840779" d="M45.4,42.4H27.6a1.5,1.5,0,0,1-1.5-1.5V18.3a1.5,1.5,0,0,1,.8-1.3l8.9-6.6a1.5,1.5,0,0,1,1.3,0l9,6.6a1.5,1.5,0,0,1,.8,1.3V40.9A1.5,1.5,0,0,1,45.4,42.4Z" fill="#fff"/>
        <path id="패스_840780" data-name="패스 840780" d="M45.4,43.4H27.6a1.5,1.5,0,0,1-1.5-1.5V19.3a1.5,1.5,0,0,1,.8-1.3l8.9-6.6a1.5,1.5,0,0,1,1.3,0l9,6.6a1.5,1.5,0,0,1,.8,1.3V41.9A1.5,1.5,0,0,1,45.4,43.4Z" fill="#3673ee"/>
        <path id="패스_840781" data-name="패스 840781" d="M43.4,42.4H25.6a1.5,1.5,0,0,1-1.5-1.5V18.3a1.5,1.5,0,0,1,.8-1.3l8.9-6.6a1.5,1.5,0,0,1,1.3,0l9,6.6a1.5,1.5,0,0,1,.8,1.3V40.9a1.5,1.5,0,0,1-1.5,1.5Z" fill="none" stroke="#111" stroke-miterlimit="10" stroke-width="1.5"/>
      </g>
      <g id="그룹_422896" data-name="그룹 422896" clip-path="url(#clip-path-2)">
        <path id="패스_840783" data-name="패스 840783" d="M40.4,42.4H22.6a1.5,1.5,0,0,1-1.5-1.5V18.3a1.5,1.5,0,0,1,.8-1.3l8.9-6.6a1.5,1.5,0,0,1,1.3,0l9,6.6a1.5,1.5,0,0,1,.8,1.3V40.9a1.5,1.5,0,0,1-1.5,1.5Z" fill="#fff"/>
        <path id="패스_840784" data-name="패스 840784" d="M42.4,43.4H24.6a1.5,1.5,0,0,1-1.5-1.5V19.3a1.5,1.5,0,0,1,.8-1.3l8.9-6.6a1.5,1.5,0,0,1,1.3,0l9,6.6a1.5,1.5,0,0,1,.8,1.3V41.9A1.5,1.5,0,0,1,42.4,43.4Z" fill="#3673ee"/>
        <path id="패스_840785" data-name="패스 840785" d="M40.4,42.4H22.6a1.5,1.5,0,0,1-1.5-1.5V18.3a1.5,1.5,0,0,1,.8-1.3l8.9-6.6a1.5,1.5,0,0,1,1.3,0l9,6.6a1.5,1.5,0,0,1,.8,1.3V40.9a1.5,1.5,0,0,1-1.5,1.5Z" fill="none" stroke="#111" stroke-miterlimit="10" stroke-width="1.5"/>
        <g id="그룹_422895" data-name="그룹 422895" style="isolation: isolate">
          <g id="그룹_422894" data-name="그룹 422894" clip-path="url(#clip-path-3)">
            <g id="그룹_422893" data-name="그룹 422893" style="isolation: isolate">
              <g id="그룹_422892" data-name="그룹 422892" clip-path="url(#clip-path-3)">
                <text id="C" transform="translate(26.8 36)" fill="#111" font-size="12" font-family="Jost-Bold, 'Jost*'" font-weight="700"><tspan x="0" y="0">C</tspan></text>
              </g>
            </g>
          </g>
        </g>
        <path id="패스_840786" data-name="패스 840786" d="M32.3,16.8c-3.2,0-5.9-3-5.9-6.8S29,3.2,32.3,3.2s5.9,3,5.9,6.8v2.6" fill="none" stroke="#111" stroke-linecap="round" stroke-miterlimit="10" stroke-width="1.5"/>
        <path id="패스_840787" data-name="패스 840787" d="M31.7,16A3.8,3.8,0,1,1,28,19.7,3.8,3.8,0,0,1,31.7,16" fill="#fff"/>
        <circle id="타원_10144" data-name="타원 10144" cx="3" cy="3" r="3" transform="translate(28.7 16.7)" fill="none" stroke="#111" stroke-width="1.5"/>
      </g>
      <g id="그룹_422897" data-name="그룹 422897" clip-path="url(#clip-path-5)">
        <path id="패스_840789" data-name="패스 840789" d="M58,33.8s-8.5,6.9-22.4,8.1C19.8,43.2,6.5,34,6.5,34" fill="none" stroke="#111" stroke-linecap="round" stroke-width="1.5"/>
      </g>
    </g>
  </g>
</svg>
