<svg xmlns="http://www.w3.org/2000/svg" width="20" height="20" viewBox="0 0 20 20">
  <g id="그룹_349634" data-name="그룹 349634" transform="translate(-87 -510)">
    <rect id="사각형_260331" data-name="사각형 260331" width="20" height="20" transform="translate(87 510)" fill="#e22323" opacity="0"/>
    <g id="그룹_349616" data-name="그룹 349616" transform="translate(-130 1)">
      <g id="그룹_24613" data-name="그룹 24613" transform="translate(218 510)">
        <path id="패스_128199" data-name="패스 128199" d="M148.764,233.662l3.357-3.53a.785.785,0,0,0,.22-.678l-.925-5.78a.785.785,0,0,0-.632-.648l-5.924-1.093a.784.784,0,0,0-.7.217l-9.087,9.1a.784.784,0,0,0,0,1.109l2.711,2.769" transform="translate(-134.846 -221.92)" fill="none" stroke="#000111" stroke-linecap="round" stroke-linejoin="round" stroke-width="1.5"/>
        <path id="패스_128200" data-name="패스 128200" d="M169.268,231.946a1.534,1.534,0,0,1-1.723-2.5.887.887,0,0,1,.3-.209,1.535,1.535,0,0,1,1.723,2.5A.884.884,0,0,1,169.268,231.946Z" transform="translate(-156.564 -225.31)" fill="none" stroke="#000111" stroke-linecap="round" stroke-linejoin="round" stroke-width="1.5"/>
      </g>
    </g>
    <path id="사각형_38215" data-name="사각형 38215" d="M.75,0H6A0,0,0,0,1,6,0V1.5a0,0,0,0,1,0,0H.75A.75.75,0,0,1,0,.75v0A.75.75,0,0,1,.75,0Z" transform="translate(97.75 523) rotate(90)" fill="#111"/>
    <rect id="사각형_38216" data-name="사각형 38216" width="6" height="1.5" transform="translate(94 525.25)" fill="#111"/>
  </g>
</svg>
