<svg xmlns="http://www.w3.org/2000/svg" xmlns:xlink="http://www.w3.org/1999/xlink" width="20.104" height="20.104" viewBox="0 0 20.104 20.104"><defs><style>.a,.b,.d,.e,.g{fill:none;}.b,.d,.e,.f,.g{stroke:#111;stroke-width:1.5px;}.b,.d,.g{stroke-linecap:round;}.b{stroke-linejoin:round;}.c{clip-path:url(#a);}.d,.e,.f{stroke-miterlimit:10;}.f{fill:#fff;}</style><clipPath id="a"><rect class="a" width="20" height="20"/></clipPath></defs><g transform="translate(10.175 10.175)"><g transform="translate(-10.175 -10.175)"><path class="b" d="M16.1,9.1v-6h-3" transform="translate(0.4 -0.1)"/><g class="c" transform="translate(0 0)"><path class="b" d="M2.869,3.1H1V15.827A1.245,1.245,0,0,0,2.215,17.1H5" transform="translate(0.191 -0.1)"/><line class="d" y2="1.505" transform="translate(6.208 2.797)"/><line class="e" y2="3.01" transform="translate(6.208 0.79)"/><line class="d" y2="1.505" transform="translate(13.233 2.797)"/><line class="e" y2="3.01" transform="translate(13.233 0.79)"/><path class="a" d="M19.142,13.121A6.021,6.021,0,1,1,13.121,7.1a6.021,6.021,0,0,1,6.021,6.021" transform="translate(0.212 0.212)"/><line class="e" x2="5" transform="translate(6.409 3)"/></g><circle class="f" cx="6.021" cy="6.021" r="6.021" transform="translate(7.312 7.313)"/><line class="g" y2="4" transform="translate(13.5 11)"/><path class="g" d="M-3689.843-4996.9l2.615,2,2.385-2" transform="translate(3700.843 5010.404)"/></g></g></svg>