<svg xmlns="http://www.w3.org/2000/svg" xmlns:xlink="http://www.w3.org/1999/xlink" width="50" height="47" viewBox="0 0 50 47">
  <defs>
    <clipPath id="clip-path">
      <rect id="사각형_416314" data-name="사각형 416314" width="50" height="47" fill="none"/>
    </clipPath>
    <clipPath id="clip-path-3">
      <rect id="사각형_416312" data-name="사각형 416312" width="6.13" height="12.089" fill="none"/>
    </clipPath>
  </defs>
  <g id="icon_discount_oiling_65" transform="translate(25 23.5)">
    <g id="icon_discount_oiling_65-2" data-name="icon_discount_oiling_65" transform="translate(-25 -23.5)" clip-path="url(#clip-path)">
      <g id="그룹_568781" data-name="그룹 568781" clip-path="url(#clip-path)">
        <path id="패스_1416993" data-name="패스 1416993" d="M44.35,40.105,30.865,42.571a1.15,1.15,0,0,1-1.3-.925L26.5,24.541a1.159,1.159,0,0,1,.46-1.079l5.823-6.241a1.145,1.145,0,0,1,1-.231l7.662,3.775a1.153,1.153,0,0,1,.766.848l3.065,17.1a1.161,1.161,0,0,1-.166.89,1.149,1.149,0,0,1-.753.5h0" transform="translate(-6.192 -3.892)" fill="#4185f2"/>
        <path id="패스_1416994" data-name="패스 1416994" d="M42.15,39.5,28.665,41.888a1.15,1.15,0,0,1-1.3-.925L24.3,23.858a1.159,1.159,0,0,1,.46-1.079l5.823-6.241a1.144,1.144,0,0,1,1-.154l7.662,3.775a1.153,1.153,0,0,1,.766.848l3.065,17.1a1.155,1.155,0,0,1-.919,1.31Z" transform="translate(-5.678 -3.748)" fill="none" stroke="#333" stroke-miterlimit="10" stroke-width="1.153"/>
        <path id="패스_1416995" data-name="패스 1416995" d="M36.588,37.145H22.873A1.153,1.153,0,0,1,21.8,35.989V18.653a1.156,1.156,0,0,1,.613-1l6.819-5.085a1.144,1.144,0,0,1,1,0l6.819,5.085a1.156,1.156,0,0,1,.613,1V35.989a1.153,1.153,0,0,1-1.149,1.156Z" transform="translate(-5.097 -2.858)" fill="#fff"/>
        <path id="패스_1416996" data-name="패스 1416996" d="M38.588,38.145H24.873A1.153,1.153,0,0,1,23.8,36.989V19.653a1.156,1.156,0,0,1,.613-1l6.819-5.085a1.144,1.144,0,0,1,1,0l6.819,5.085a1.156,1.156,0,0,1,.613,1V36.989a1.153,1.153,0,0,1-1.149,1.156Z" transform="translate(-5.564 -3.087)" fill="#4185f2"/>
        <path id="패스_1416997" data-name="패스 1416997" d="M36.588,37.145H22.873A1.153,1.153,0,0,1,21.8,35.989V18.653a1.156,1.156,0,0,1,.613-1l6.819-5.085a1.144,1.144,0,0,1,1,0l6.819,5.085a1.156,1.156,0,0,1,.613,1V35.989a1.153,1.153,0,0,1-1.149,1.156Z" transform="translate(-5.097 -2.858)" fill="none" stroke="#333" stroke-miterlimit="10" stroke-width="1.153"/>
        <path id="패스_1416998" data-name="패스 1416998" d="M31.535,18.1a2.911,2.911,0,0,1,2.744,1.753,2.94,2.94,0,0,1-.581,3.216,2.9,2.9,0,1,1-2.086-4.892" transform="translate(-6.71 -4.154)" fill="#fff"/>
        <ellipse id="타원_13181" data-name="타원 13181" cx="2.299" cy="2.311" rx="2.299" ry="2.311" transform="translate(22.527 14.562)" fill="none" stroke="#333" stroke-width="1.153"/>
        <g id="그룹_568780" data-name="그룹 568780" transform="translate(21.301 20.803)" opacity="0.9">
          <g id="그룹_568779" data-name="그룹 568779" clip-path="url(#clip-path-3)">
            <text id="c" transform="translate(0 7.23)" fill="#fff" font-size="9" font-family="MoebiusKorea-Bold, Moebius Korea" font-weight="700"><tspan x="0" y="0">c</tspan></text>
          </g>
        </g>
        <path id="패스_1416999" data-name="패스 1416999" d="M31.621,15.879c-2.452,0-4.521-2.311-4.521-5.239S29.092,5.4,31.621,5.4s4.521,2.311,4.521,5.239v2" transform="translate(-6.336 -1.239)" fill="none" stroke="#333" stroke-linecap="round" stroke-miterlimit="10" stroke-width="1.153"/>
        <line id="선_154931" data-name="선 154931" x1="2.299" y1="2.311" transform="translate(31.491 43.533)" fill="none" stroke="#111" stroke-linecap="round" stroke-linejoin="round" stroke-width="1.153"/>
        <line id="선_154932" data-name="선 154932" y1="2.311" x2="2.299" transform="translate(31.491 43.533)" fill="none" stroke="#111" stroke-linecap="round" stroke-linejoin="round" stroke-width="1.153"/>
        <path id="패스_1417000" data-name="패스 1417000" d="M9.626,32.9A1.233,1.233,0,1,1,8.4,34.133,1.229,1.229,0,0,1,9.626,32.9Z" transform="translate(-1.964 -7.551)" fill="none" stroke="#111" stroke-miterlimit="10" stroke-width="1.153"/>
        <line id="선_154933" data-name="선 154933" x1="2.299" y1="2.234" transform="translate(15.554 0.925)" fill="none" stroke="#111" stroke-linecap="round" stroke-linejoin="round" stroke-width="1.153"/>
        <line id="선_154934" data-name="선 154934" y1="2.234" x2="2.299" transform="translate(15.554 0.925)" fill="none" stroke="#111" stroke-linecap="round" stroke-linejoin="round" stroke-width="1.153"/>
        <line id="선_154935" data-name="선 154935" x1="1.762" y1="1.772" transform="translate(44.594 9.708)" fill="none" stroke="#111" stroke-linecap="round" stroke-linejoin="round" stroke-width="1.153"/>
        <line id="선_154936" data-name="선 154936" y1="1.772" x2="1.762" transform="translate(44.594 9.708)" fill="none" stroke="#111" stroke-linecap="round" stroke-linejoin="round" stroke-width="1.153"/>
        <path id="패스_1417001" data-name="패스 1417001" d="M8.866,10.8a.771.771,0,1,1-.766.77.768.768,0,0,1,.766-.77" transform="translate(-1.894 -2.479)" fill="#111"/>
        <path id="패스_1417002" data-name="패스 1417002" d="M46.766,7.5A.771.771,0,1,1,46,8.27a.768.768,0,0,1,.766-.77" transform="translate(-10.754 -1.721)" fill="#111"/>
      </g>
    </g>
  </g>
</svg>
