<svg xmlns="http://www.w3.org/2000/svg" width="65" height="70"><defs><clipPath id="a"><path data-name="사각형 358967" fill="none" d="M0 0h65v70H0z"/></clipPath><clipPath id="b"><path data-name="사각형 358965" transform="translate(16.3 58.4)" fill="none" d="M0 0h42.9v7.29H0z"/></clipPath><clipPath id="c"><path data-name="사각형 358964" transform="translate(16.3 58.4)" fill="none" d="M0 0h42.9v7.27H0z"/></clipPath></defs><g data-name="그룹 484344" clip-path="url(#a)"><g data-name="그룹 484343" clip-path="url(#a)"><path data-name="패스 889224" d="M39.6 49.1a35.5 35.5 0 01-10.5 3.6 6.1 6.1 0 01-4.1-.8C15.1 46 8.5 42.4 6 41a.5.5 0 01.1-.9 70.2 70.2 0 0010.5-3.8z" fill="#f9e785"/><path data-name="패스 889225" d="M58.9 17.5s-1.7 22.1-19.3 31.6l-23-12.8c7.8-3.6 17-9.6 18.5-18.8a1 1 0 011.2-.8c15.6 3.5 22.6.7 22.6.7" fill="#fddb2b"/><path data-name="패스 889226" d="M4.1 42.2s29.7-7 31.3-24.7c16.8 4.1 24.5 1 24.5 1s-2.5 33.1-33.2 36.7c-14.4-8.7-22.6-13-22.6-13z" fill="none" stroke="#333" stroke-linecap="round" stroke-linejoin="round" stroke-width="1.5"/><path data-name="패스 889227" d="M36 32.7L33.2 36 32 37.3l-.3.4.5-.3.6-.4 1.1-.6 4.7-2.6 1.6.7-2.8 3.4-1.2 1.4-.2.2 2.2-1.3 4.7-2.6 1.5.6-8.4 4.4a2 2 0 01-1.8.2q-.8-.3-.3-1l2.1-2.6.2-.2.2-.3.5-.6.2-.2.2-.2-1.7 1-.3.2-3.6 1.9a2 2 0 01-1.8.2.8.8 0 01-.5-.4c-.1-.2 0-.3.2-.6l4.8-6z" fill="#111"/><path data-name="선 136813" fill="none" stroke="#111" stroke-linecap="round" stroke-width="1.5" d="M30.5 34.2l11.3 4.5"/><circle data-name="타원 11407" cx="1.5" cy="1.5" r="1.5" transform="translate(8.1 29.1)" fill="none" stroke="#111" stroke-miterlimit="10" stroke-width="1.5"/><path data-name="선 136814" fill="none" stroke="#111" stroke-linecap="round" stroke-linejoin="round" stroke-width="1.5" d="M22.3 9.2l-2.8-2.8"/><path data-name="선 136815" fill="none" stroke="#111" stroke-linecap="round" stroke-linejoin="round" stroke-width="1.5" d="M19.5 9.2l2.8-2.8"/><path data-name="선 136816" fill="none" stroke="#111" stroke-linecap="round" stroke-linejoin="round" stroke-width="1.5" d="M55.2 11.9L53 9.7"/><path data-name="선 136817" fill="none" stroke="#111" stroke-linecap="round" stroke-linejoin="round" stroke-width="1.5" d="M53 11.9l2.2-2.2"/><path data-name="패스 889228" d="M29.1 11.1a1 1 0 11-1 1 1 1 0 011-1" fill="#111"/><path data-name="패스 889229" d="M8.7 7.9a1 1 0 11-1 1 1 1 0 011-1" fill="#111"/><path data-name="패스 889230" d="M45.1 4.7a1 1 0 11-1 1 1 1 0 011-1" fill="#111"/><g data-name="그룹 484342"><g data-name="그룹 484341" clip-path="url(#b)" opacity=".67"><g data-name="그룹 484340" clip-path="url(#c)"><path data-name="패스 889231" d="M16.4 61.2l10.8 3.4a20.8 20.8 0 008.5.9L58.9 63a.3.3 0 000-.6l-16-3.6a17.7 17.7 0 00-5.9-.3l-20.5 2.3a.2.2 0 00-.2.2v.2z" fill="#d2d9ce"/></g></g></g><path data-name="패스 889232" d="M35.8 46.5l-1.3.8-2-1.1 1.3-.8zm-3.9-2.2l-1.3.8-2-1.1 1.3-.8zM28 42.1l-1.3.8-2-1.1L26 41zm-4-2.2l-1.3.8-2-1.1 1.3-.8z" fill="#111"/></g></g></svg>