<svg xmlns="http://www.w3.org/2000/svg" width="24.003" height="23.999" viewBox="0 0 24.003 23.999"><defs><style>.a{fill:#df2534;}.b{fill:#fff;}</style></defs><g transform="translate(-48 -636)"><path class="a" d="M188.231,120.183a12,12,0,1,1-12-12A12,12,0,0,1,188.231,120.183Z" transform="translate(-116.228 527.818)"/><path class="b" d="M173.391,136.659a1.888,1.888,0,0,0-1.26-.232,4.026,4.026,0,0,0,1.238-2.721,2.128,2.128,0,0,0-.013-.258,1.246,1.246,0,0,0-.727-1.169c-.417-.156-1.182-.077-2.4,1.165l-.729.817a5.994,5.994,0,0,0-1.111,2.615,15.291,15.291,0,0,0,.438,5.923,1.392,1.392,0,0,0,.727.915,1.649,1.649,0,0,0,1.4-.259l.113-.056.433-.194.421-.186.513-.225a3.647,3.647,0,0,0,1.052-.573,3.042,3.042,0,0,0,.946-1.451,4.856,4.856,0,0,0,.179-.979,4.569,4.569,0,0,0-.05-1.317A2.616,2.616,0,0,0,173.391,136.659Zm-3.894,1.535c0,.008.023.27.023.27a.137.137,0,0,0,.083.138.138.138,0,0,0,.15-.029,1.945,1.945,0,0,1,1.7-.535c.435.151.731.6.886,1.337a2.229,2.229,0,0,1-1.4,2.591l-.023.01-.846.415a.13.13,0,0,1-.1,0c-.052-.027-.067-.061-.1-.152a17.9,17.9,0,0,1-.557-6.434,1.1,1.1,0,0,1,.215-.5l.71-.757.079-.086c.385-.375.748-.563.944-.481.162.069.2.329.2.534.033,1.106-.585,2.237-1.881,3.455A.276.276,0,0,0,169.5,138.194Z" transform="translate(-119.456 508.632)"/><path class="b" d="M206.515,117.153c-.238-.815-.625-.986-.738-1.023a6.482,6.482,0,0,0-3.1-.213,6,6,0,0,0-3.755,2.276,5.618,5.618,0,0,0-1.011,4.37,5.466,5.466,0,0,0,2.313,3.691,7.057,7.057,0,0,0,5.443.842,6.7,6.7,0,0,0,3.005-1.411,1.224,1.224,0,0,0,.415-.957,3.472,3.472,0,0,0-.15-.9c-.046-.167-.119-.217-.235-.217-.085,0-.175.1-.192.119a4.462,4.462,0,0,1-2.573,1.36c-2.84.546-5.024-.78-5.566-3.381a3.871,3.871,0,0,1,.548-3.042,3.949,3.949,0,0,1,2.721-1.588,4.916,4.916,0,0,1,2.6.319S206.59,117.494,206.515,117.153Z" transform="translate(-143.041 521.737)"/></g></svg>