<svg xmlns="http://www.w3.org/2000/svg" xmlns:xlink="http://www.w3.org/1999/xlink" width="100" height="100" viewBox="0 0 100 100">
  <defs>
    <style>
      .cls-1, .cls-11, .cls-13, .cls-16, .cls-17, .cls-19, .cls-20, .cls-9 {
        fill: none;
      }

      .cls-2 {
        isolation: isolate;
      }

      .cls-3 {
        clip-path: url(#clip-path);
      }

      .cls-4 {
        fill: #f9f9f9;
      }

      .cls-5 {
        fill: #f0f0f0;
      }

      .cls-6 {
        opacity: 0.15;
      }

      .cls-7 {
        clip-path: url(#clip-path-4);
      }

      .cls-8 {
        fill: #efefef;
      }

      .cls-11, .cls-13, .cls-16, .cls-17, .cls-19, .cls-20, .cls-9 {
        stroke: #222;
        stroke-linejoin: round;
      }

      .cls-9 {
        stroke-width: 0.833px;
      }

      .cls-10 {
        fill: #222;
      }

      .cls-11 {
        stroke-width: 0.833px;
      }

      .cls-12 {
        fill: #fff;
      }

      .cls-13 {
        stroke-width: 0.833px;
      }

      .cls-14 {
        fill: #111;
      }

      .cls-15 {
        clip-path: url(#clip-path-5);
      }

      .cls-16 {
        stroke-width: 0.625px;
      }

      .cls-17 {
        stroke-width: 0.625px;
      }

      .cls-18 {
        fill: #3982f7;
      }

      .cls-19 {
        stroke-width: 0.625px;
      }

      .cls-20 {
        stroke-width: 0.625px;
      }
    </style>
    <clipPath id="clip-path">
      <rect id="사각형_252480" data-name="사각형 252480" class="cls-1" width="100" height="100"/>
    </clipPath>
    <clipPath id="clip-path-4">
      <rect id="사각형_252477" data-name="사각형 252477" class="cls-1" width="70.229" height="31.49"/>
    </clipPath>
    <clipPath id="clip-path-5">
      <rect id="사각형_252478" data-name="사각형 252478" class="cls-1" width="22.688" height="12.319"/>
    </clipPath>
  </defs>
  <g id="null_100x100" transform="translate(50 50)">
    <g id="그룹_333905" data-name="그룹 333905" class="cls-2" transform="translate(-50 -50)">
      <g id="Layer_1" data-name="Layer 1">
        <g id="그룹_333904" data-name="그룹 333904" class="cls-3">
          <g id="그룹_333898" data-name="그룹 333898" class="cls-3">
            <path id="패스_672655" data-name="패스 672655" class="cls-4" d="M50,0A50,50,0,1,1,0,50,50.013,50.013,0,0,1,50,0"/>
            <path id="패스_672656" data-name="패스 672656" class="cls-5" d="M50,100a50,50,0,1,1,50-50,50.066,50.066,0,0,1-50,50M50,1A49,49,0,1,0,99,50,49.053,49.053,0,0,0,50,1"/>
          </g>
          <g id="그룹_333903" data-name="그룹 333903" class="cls-3">
            <g id="그룹_333900" data-name="그룹 333900" class="cls-6" transform="translate(18.771 49.813)">
              <g id="그룹_333899" data-name="그룹 333899" class="cls-7">
                <path id="패스_672657" data-name="패스 672657" d="M96.524,253.579l-6.437,3.458a1.647,1.647,0,0,0,.958,1.479L111,270.038a6.126,6.126,0,0,0,5.563-.229l42.417-24.479a2.5,2.5,0,0,0,1.354-1.625l-8.021-4.6" transform="translate(-90.087 -239.1)"/>
              </g>
            </g>
            <path id="패스_672658" data-name="패스 672658" class="cls-8" d="M93.1,256.854v3.167a1.557,1.557,0,0,0,.938,1.417l19.229,11.1a5.993,5.993,0,0,0,5.375-.229l40.9-23.583a2.381,2.381,0,0,0,1.313-1.583V244" transform="translate(-73.7 -193.167)"/>
            <path id="패스_672659" data-name="패스 672659" class="cls-9" d="M93.1,256.854v3.167a1.557,1.557,0,0,0,.938,1.417l19.229,11.1a5.993,5.993,0,0,0,5.375-.229l40.9-23.583a2.381,2.381,0,0,0,1.313-1.583V244" transform="translate(-73.7 -193.167)"/>
            <path id="패스_672660" data-name="패스 672660" class="cls-10" d="M94,208.115l19.25,11.1a5.993,5.993,0,0,0,5.375-.229l40.9-23.6c1.583-.917,1.771-2.312.4-3.1l-19.25-11.1a5.993,5.993,0,0,0-5.375.229l-40.9,23.6c-1.583.917-1.771,2.313-.4,3.1" transform="translate(-73.683 -143.011)"/>
            <path id="패스_672661" data-name="패스 672661" class="cls-11" d="M94,208.115l19.25,11.1a5.993,5.993,0,0,0,5.375-.229l40.9-23.6c1.583-.917,1.771-2.312.4-3.1l-19.25-11.1a5.993,5.993,0,0,0-5.375.229l-40.9,23.6C92.808,205.928,92.621,207.324,94,208.115Z" transform="translate(-73.683 -143.011)"/>
            <path id="패스_672662" data-name="패스 672662" class="cls-12" d="M152.278,299.422c2.688,1.542,2.979,3.9.646,5.229s-6.375,1.167-9.042-.375-2.979-3.875-.646-5.229,6.375-1.167,9.042.375" transform="translate(-112.153 -236.026)"/>
            <path id="패스_672663" data-name="패스 672663" class="cls-13" d="M152.278,299.422c2.688,1.542,2.979,3.9.646,5.229s-6.375,1.167-9.042-.375-2.979-3.875-.646-5.229S149.591,297.88,152.278,299.422Z" transform="translate(-112.153 -236.026)"/>
            <path id="패스_672664" data-name="패스 672664" class="cls-12" d="M106.148,213.47l17.688,10.208a5.46,5.46,0,0,0,4.938-.208l37.563-21.687c1.458-.833,1.625-2.125.354-2.854L149,188.72a5.46,5.46,0,0,0-4.937.208L106.5,210.616c-1.458.833-1.625,2.125-.354,2.854" transform="translate(-83.357 -149.012)"/>
            <path id="패스_672665" data-name="패스 672665" class="cls-10" d="M330.019,200.871,337,204.913a2.176,2.176,0,0,0,1.958-.083l.188-.1c.583-.333.646-.833.146-1.125l-6.979-4.042a2.176,2.176,0,0,0-1.958.083l-.187.1c-.583.333-.646.833-.146,1.125" transform="translate(-260.998 -157.83)"/>
            <path id="패스_672666" data-name="패스 672666" class="cls-14" d="M149.957,316.642l-8.687-5a1.021,1.021,0,0,0-.937.042c-.271.167-.312.4-.063.542l8.688,5.021a1.021,1.021,0,0,0,.938-.042c.271-.167.313-.4.063-.542" transform="translate(-110.915 -246.642)"/>
            <g id="그룹_333902" data-name="그룹 333902" class="cls-6" transform="translate(43.25 48.125)">
              <g id="그룹_333901" data-name="그룹 333901" class="cls-15">
                <path id="패스_672667" data-name="패스 672667" d="M228.975,234.3l-14.062,8.125a8.3,8.3,0,0,1-6.1.667c-1.667-.6-1.646-1.917.063-2.9l14.063-8.125a8.3,8.3,0,0,1,6.1-.667c1.667.6,1.646,1.917-.062,2.9" transform="translate(-207.579 -231.073)"/>
              </g>
            </g>
            <path id="패스_672668" data-name="패스 672668" class="cls-12" d="M213.107,162.7l-9.979,3.333a23.543,23.543,0,0,0-6.958,13.583,1,1,0,0,0,.313.958h0l2.9,1.667" transform="translate(-155.295 -128.804)"/>
            <path id="패스_672669" data-name="패스 672669" class="cls-16" d="M213.107,162.7l-9.979,3.333a23.543,23.543,0,0,0-6.958,13.583,1,1,0,0,0,.313.958h0l2.9,1.667" transform="translate(-155.295 -128.804)"/>
            <path id="패스_672670" data-name="패스 672670" class="cls-12" d="M221.07,122.958l-2.812-1.625h0a4.139,4.139,0,0,1-1.458-3.5,12.868,12.868,0,0,1,5.688-9.917,4.262,4.262,0,0,1,3.917-.542h0l3.229,1.854" transform="translate(-171.633 -84.791)"/>
            <path id="패스_672671" data-name="패스 672671" class="cls-17" d="M221.07,122.958l-2.812-1.625h0a4.139,4.139,0,0,1-1.458-3.5,12.868,12.868,0,0,1,5.688-9.917,4.262,4.262,0,0,1,3.917-.542h0l3.229,1.854" transform="translate(-171.633 -84.791)"/>
            <line id="선_91249" data-name="선 91249" class="cls-18" y2="9.208" transform="translate(57.917 24.312)"/>
            <line id="선_91250" data-name="선 91250" class="cls-19" y2="9.208" transform="translate(57.917 24.312)"/>
            <path id="패스_672672" data-name="패스 672672" class="cls-18" d="M229.029,134.24l-17.667,10.354c-.771.458-1.375.042-1.292-.9a23.412,23.412,0,0,1,7.1-13.729v-.062c-1.687-.146-2.833-1.583-2.854-4a12.868,12.868,0,0,1,5.688-9.917c3.1-1.812,5.75-.417,5.792,3.188a12.514,12.514,0,0,1-2.812,7.354,5.661,5.661,0,0,1,4.833.708,6.547,6.547,0,0,1,2.438,4.6,2.785,2.785,0,0,1-1.271,2.4" transform="translate(-166.3 -91.198)"/>
            <path id="패스_672673" data-name="패스 672673" class="cls-20" d="M229.029,134.24l-17.667,10.354c-.771.458-1.375.042-1.292-.9a23.412,23.412,0,0,1,7.1-13.729v-.062c-1.687-.146-2.833-1.583-2.854-4a12.868,12.868,0,0,1,5.688-9.917c3.1-1.812,5.75-.417,5.792,3.188a12.514,12.514,0,0,1-2.812,7.354,5.661,5.661,0,0,1,4.833.708,6.547,6.547,0,0,1,2.438,4.6A2.7,2.7,0,0,1,229.029,134.24Z" transform="translate(-166.3 -91.198)"/>
            <path id="패스_672674" data-name="패스 672674" class="cls-10" d="M206.76,104.783a3.021,3.021,0,0,1,1.292.271h0l2.979,1.708c1.083.563,1.771,1.833,1.792,3.688a11.9,11.9,0,0,1-1.854,5.958l-.833,1.354a7.25,7.25,0,0,1,1.646-.208,5.146,5.146,0,0,1,3.063.938,6.547,6.547,0,0,1,2.438,4.6,2.785,2.785,0,0,1-1.271,2.4l-17.667,10.354a1.167,1.167,0,0,1-.583.187.646.646,0,0,1-.4-.125l-2.875-1.646h0a.975.975,0,0,1-.312-.958,23.512,23.512,0,0,1,6.938-13.583l-1.208-.708h0a4.139,4.139,0,0,1-1.458-3.5,12.868,12.868,0,0,1,5.688-9.917,5.271,5.271,0,0,1,2.625-.812m0-.521a5.719,5.719,0,0,0-2.875.875,13.462,13.462,0,0,0-5.958,10.375,4.667,4.667,0,0,0,1.667,3.917l.083.042.583.333a24.028,24.028,0,0,0-6.6,13.417,1.509,1.509,0,0,0,.542,1.458l.063.042,2.813,1.625a1.187,1.187,0,0,0,.688.208,1.688,1.688,0,0,0,.854-.25L216.28,125.95a3.25,3.25,0,0,0,1.521-2.917,7.167,7.167,0,0,0-2.646-4.958,5.625,5.625,0,0,0-3.375-1.042h-.6l.25-.4a12.146,12.146,0,0,0,1.917-6.229c-.021-1.958-.75-3.458-2.062-4.146l-2.917-1.687-.083-.042a3.521,3.521,0,0,0-1.521-.333" transform="translate(-153.301 -82.491)"/>
          </g>
        </g>
      </g>
    </g>
  </g>
</svg>
