<svg xmlns="http://www.w3.org/2000/svg" width="20" height="20"><defs><clipPath id="a"><path fill="#d5d5d5" d="M0 0h20v20H0z"/></clipPath><clipPath id="b"><path fill="none" d="M0 0h20v20H0z"/></clipPath><style>.e{fill:#111}</style></defs><g clip-path="url(#a)"><g clip-path="url(#b)"><path class="e" d="M.6 3v1.5h10.7a.75.75 0 100-1.5zm10.7 4.2H.6v1.5h10.7a.8.8 0 000-1.5M.6 12.9h10.7a.8.8 0 100-1.5H.6zm0 4.2h7.7a.75.75 0 100-1.5H.6zM15.7 3v13"/><path stroke-linecap="round" stroke-miterlimit="10" stroke="#111" stroke-width="1.5" fill="none" d="M15.7 3v13"/><path d="M12.5 13.8l3.3 3.2 3.2-3.2" stroke-linejoin="round" stroke="#111" stroke-width="1.5" fill="none"/></g></g></svg>