<svg xmlns="http://www.w3.org/2000/svg" xmlns:xlink="http://www.w3.org/1999/xlink" width="42" height="42" viewBox="0 0 42 42">
  <defs>
    <clipPath id="clip-path">
      <rect id="사각형_338979" data-name="사각형 338979" width="42" height="42" transform="translate(167 186)" fill="red" opacity="0.338"/>
    </clipPath>
  </defs>
  <g id="마스크_그룹_359641" data-name="마스크 그룹 359641" transform="translate(-167 -186)" clip-path="url(#clip-path)">
    <rect id="사각형_224859" data-name="사각형 224859" width="335" height="115" transform="translate(20 171)" fill="#f9f9f9" opacity="0.5"/>
    <g id="그룹_279831" data-name="그룹 279831" transform="translate(-13886 1949)">
      <g id="그룹_260107" data-name="그룹 260107" transform="translate(14055 -1761)">
        <path id="패스_580158" data-name="패스 580158" d="M1968.24,2695.284v24.355a4.7,4.7,0,0,0,2.372,4.08l13.486,7.733a4.775,4.775,0,0,0,4.745,0l13.486-7.733a4.7,4.7,0,0,0,2.373-4.08v-24.355a1.071,1.071,0,0,0-1.075-1.068h-34.312A1.07,1.07,0,0,0,1968.24,2695.284Z" transform="translate(-1966.702 -2692.738)" fill="#fddb2b" style="isolation: isolate"/>
        <path id="패스_580159" data-name="패스 580159" d="M1965.476,2691.943v26.616a4.765,4.765,0,0,0,2.375,4.124l13.5,7.818a4.737,4.737,0,0,0,4.749,0l13.5-7.818a4.766,4.766,0,0,0,2.375-4.124v-26.616Z" transform="translate(-1965.476 -2691.943)" fill="none" stroke="#fccb3a" stroke-linejoin="round" stroke-width="1"/>
      </g>
      <g id="그룹_279821" data-name="그룹 279821" transform="translate(14064.634 -1752.418)">
        <path id="패스_581213" data-name="패스 581213" d="M18.389,10.8A8.589,8.589,0,1,1,9.8,19.5h0a8.589,8.589,0,0,1,8.589-8.589" transform="translate(-9.455 -7.297)" fill="#fff"/>
        <path id="패스_581214" data-name="패스 581214" d="M10.3,15.46a8.363,8.363,0,0,1,1.582-2.26" transform="translate(-9.391 -6.984)" fill="none" stroke="#111" stroke-linecap="square" stroke-linejoin="round" stroke-width="1"/>
        <path id="패스_581215" data-name="패스 581215" d="M11.874,8.7s0,3.39,2.034,3.39h.113a8.589,8.589,0,1,1-3.729,3.955" transform="translate(-9.495 -7.57)" fill="none" stroke="#111" stroke-linecap="round" stroke-linejoin="round" stroke-width="1"/>
        <path id="패스_581216" data-name="패스 581216" d="M14.115,9.3s-.565,1.921.678,2.147" transform="translate(-8.911 -7.492)" fill="none" stroke="#111" stroke-linecap="round" stroke-linejoin="round" stroke-width="1"/>
        <path id="패스_581217" data-name="패스 581217" d="M17.777,19.3a1.7,1.7,0,0,1-3.277,0" transform="translate(-8.843 -6.191)" fill="none" stroke="#111" stroke-linecap="square" stroke-miterlimit="10" stroke-width="1"/>
        <line id="선_42863" data-name="선 42863" y2="0.339" transform="translate(9.95 9.945)" fill="none" stroke="#111" stroke-linecap="round" stroke-width="1"/>
        <line id="선_42864" data-name="선 42864" y2="1.469" transform="translate(9.95 8.476)" fill="none" stroke="#111" stroke-width="1"/>
        <line id="선_42865" data-name="선 42865" y2="0.452" transform="translate(4.865 9.832)" fill="none" stroke="#111" stroke-linecap="round" stroke-width="1"/>
        <line id="선_42866" data-name="선 42866" y2="1.356" transform="translate(4.865 8.476)" fill="none" stroke="#111" stroke-width="1"/>
        <path id="패스_581218" data-name="패스 581218" d="M22.538,10.186,19.6,9.508l1.7,2.712-1.7,2.712,3.051-1.13,2.26,2.6L24.8,13.125l2.712-1.469-2.825-.791L24.346,7.7Z" transform="translate(-8.18 -7.7)" fill="#fff"/>
        <path id="패스_581219" data-name="패스 581219" d="M22.538,10.186,19.6,9.508l1.7,2.712-1.7,2.712,3.051-1.13,2.26,2.6L24.8,13.125l2.712-1.469-2.825-.791L24.346,7.7Z" transform="translate(-8.18 -7.7)" fill="none" stroke="#111" stroke-linejoin="round" stroke-width="1"/>
      </g>
    </g>
    <g id="그룹_279832" data-name="그룹 279832" transform="translate(-13950.906 1950.543)">
      <g id="그룹_260104" data-name="그룹 260104" transform="translate(14010.627 -1763.543)">
        <path id="패스_580160" data-name="패스 580160" d="M2040.955,2703.648v15.137a4.6,4.6,0,0,0,2.333,3.993l13.268,7.568a4.71,4.71,0,0,0,4.666,0l13.269-7.568a4.6,4.6,0,0,0,2.333-3.993v-15.137a4.6,4.6,0,0,0-2.333-3.993l-13.269-7.568a4.714,4.714,0,0,0-4.666,0l-13.268,7.568A4.6,4.6,0,0,0,2040.955,2703.648Z" transform="translate(-2039.551 -2690.354)" fill="#a5a5ff" style="isolation: isolate"/>
        <path id="패스_580161" data-name="패스 580161" d="M2038.192,2702.376v15.137a4.6,4.6,0,0,0,2.333,3.992l13.269,7.569a4.714,4.714,0,0,0,4.667,0l13.268-7.569a4.6,4.6,0,0,0,2.333-3.992v-15.137a4.6,4.6,0,0,0-2.333-3.993l-13.268-7.569a4.717,4.717,0,0,0-4.667,0l-13.269,7.569A4.6,4.6,0,0,0,2038.192,2702.376Z" transform="translate(-2038.192 -2690.196)" fill="none" stroke="#6955ff" stroke-linejoin="round" stroke-width="1"/>
      </g>
      <g id="그룹_279820" data-name="그룹 279820" transform="translate(14020.343 -1754.646)">
        <path id="패스_581203" data-name="패스 581203" d="M18.506,11.4A8.122,8.122,0,1,1,10.5,19.522h0a8.122,8.122,0,0,1,8.006-8.006" transform="translate(-10.325 -6.875)" fill="#fff"/>
        <path id="패스_581204" data-name="패스 581204" d="M10.9,15.689A7.89,7.89,0,0,1,12.408,13.6" transform="translate(-10.261 -6.522)" fill="none" stroke="#111" stroke-linecap="square" stroke-linejoin="round" stroke-width="1"/>
        <path id="패스_581205" data-name="패스 581205" d="M12.5,9.5s0,3.133,1.973,3.133h.116A8.122,8.122,0,1,1,11.1,16.346" transform="translate(-10.349 -7.179)" fill="none" stroke="#111" stroke-linecap="round" stroke-linejoin="round" stroke-width="1"/>
        <path id="패스_581206" data-name="패스 581206" d="M14.414,10s-.464,1.856.58,1.973" transform="translate(-9.714 -7.099)" fill="none" stroke="#111" stroke-linecap="round" stroke-linejoin="round" stroke-width="1"/>
        <path id="패스_581207" data-name="패스 581207" d="M17.933,19.1a1.624,1.624,0,0,1-3.133,0" transform="translate(-9.635 -5.64)" fill="none" stroke="#111" stroke-linecap="square" stroke-miterlimit="10" stroke-width="1"/>
        <line id="선_42859" data-name="선 42859" y2="0.348" transform="translate(9.226 10.559)" fill="none" stroke="#111" stroke-linecap="round" stroke-width="1"/>
        <line id="선_42860" data-name="선 42860" y2="1.392" transform="translate(9.226 9.166)" fill="none" stroke="#111" stroke-width="1"/>
        <line id="선_42861" data-name="선 42861" y2="0.464" transform="translate(4.352 10.443)" fill="none" stroke="#111" stroke-linecap="round" stroke-width="1"/>
        <line id="선_42862" data-name="선 42862" y2="1.276" transform="translate(4.352 9.166)" fill="none" stroke="#111" stroke-width="1"/>
        <path id="패스_581208" data-name="패스 581208" d="M27.715,11.909,24.93,15.854,18.2,11.561,20.4,7.5l1.044,2.785L24.7,8.892l.116,3.481Z" transform="translate(-9.09 -7.5)" fill="#fff"/>
        <path id="패스_581209" data-name="패스 581209" d="M27.715,11.909,24.93,15.854,18.2,11.561,20.4,7.5l1.044,2.785L24.7,8.892l.116,3.481Z" transform="translate(-9.09 -7.5)" fill="none" stroke="#111" stroke-linejoin="round" stroke-width="1"/>
      </g>
    </g>
    <g id="그룹_279810" data-name="그룹 279810" transform="translate(-2.5 -3.5)">
      <line id="선_42856" data-name="선 42856" x2="245" transform="translate(135.5 174.5) rotate(90)" fill="none" stroke="#f0f0f0" stroke-width="1"/>
      <line id="선_42857" data-name="선 42857" x2="245" transform="translate(245.5 174.5) rotate(90)" fill="none" stroke="#f0f0f0" stroke-width="1"/>
    </g>
  </g>
</svg>
