<svg xmlns="http://www.w3.org/2000/svg" width="20" height="20"><defs><clipPath id="a"><path data-name="사각형 291990" fill="none" d="M0 0h20v20H0z"/></clipPath></defs><g data-name="그룹 381453" clip-path="url(#a)"><g data-name="그룹 381452" clip-path="url(#a)" fill="none" stroke="#111" stroke-width="1.5"><path data-name="패스 772464" d="M19.3 14.3a3.1 3.1 0 01-5.5 1.9.5.5 0 00-.6-.1A7.9 7.9 0 018 17.4a8 8 0 118.8-7.9 7.9 7.9 0 01-.2 1.8 3.1 3.1 0 012.7 3z"/><path data-name="패스 772465" d="M13.3 13.2a3.1 3.1 0 012.9-2h.3"/><path data-name="패스 772466" d="M4.9 5.7a3.2 3.2 0 012.7-1.5" stroke-linecap="round"/><path data-name="패스 772467" d="M4.3 6.7l.6-1"/></g></g></svg>