<svg xmlns="http://www.w3.org/2000/svg" width="28" height="28"><defs><clipPath id="a"><path data-name="사각형 340403" fill="none" d="M0 0h16v16H0z"/></clipPath><clipPath id="b"><path data-name="사각형 340399" transform="translate(.1 .3)" fill="none" d="M0 0h15.5v15.5H0z"/></clipPath></defs><g data-name="그룹 484420"><g fill="#f9f9f9" stroke="#e4e4e4"><circle cx="14" cy="14" r="14" stroke="none"/><circle cx="14" cy="14" r="13.5" fill="none"/></g><g data-name="그룹 471549" transform="translate(6 6)" clip-path="url(#a)"><g data-name="그룹 471548" clip-path="url(#a)" fill="none" stroke="#111"><path data-name="패스 868393" d="M15.2 11.4a2.4 2.4 0 01-4.3 1.5.4.4 0 00-.5-.1 6.2 6.2 0 01-4.1 1A6.2 6.2 0 1113.1 9a2.4 2.4 0 012.1 2.3z" stroke-width="1.3"/><path data-name="패스 868394" d="M10.5 10.5a2.4 2.4 0 012.3-1.6h.2" stroke-width="1.3"/><path data-name="패스 868395" d="M4.3 5.3a2.5 2.5 0 012.1-1.2" stroke-linecap="round"/><path data-name="선 133056" d="M3.8 6.1l.5-.8"/></g></g></g></svg>