<svg xmlns="http://www.w3.org/2000/svg" xmlns:xlink="http://www.w3.org/1999/xlink" width="28" height="28" viewBox="0 0 28 28"><defs><style>.a,.d,.e,.f,.g,.h{fill:none;}.b{clip-path:url(#a);}.c{fill:#4cccd9;}.d,.e{stroke:#2c9fac;stroke-linejoin:round;}.d,.f{stroke-linecap:square;}.d,.f,.g,.h{stroke-width:1.4px;}.e,.g{stroke-linecap:round;}.e{stroke-width:1.5px;}.f,.g,.h{stroke:#196e72;}.f{stroke-miterlimit:10;}</style><clipPath id="a"><rect class="a" width="28" height="28"/></clipPath></defs><g transform="translate(14 14)"><g class="b" transform="translate(-14 -14)"><path class="c" d="M15.4,5.9A11,11,0,1,1,4.5,17v-.2A11,11,0,0,1,15.4,5.9"/><path class="d" d="M3.2,10.3a10.7,10.7,0,0,1,2-2.9"/><path class="e" d="M5.1.9s0,4.3,2.6,4.3h.2a11,11,0,1,1-4.8,5"/><path class="e" d="M8.7,1.8S8,4.2,9.5,4.5"/><path class="f" d="M13.5,16.1a2.1,2.1,0,1,1-4.2,0"/><line class="g" y2="0.4" transform="translate(14.7 12.2)"/><line class="h" y2="1.9" transform="translate(14.7 10.3)"/><line class="g" y2="0.6" transform="translate(8.2 12)"/><line class="h" y2="1.7" transform="translate(8.2 10.3)"/></g></g></svg>