<svg xmlns="http://www.w3.org/2000/svg" width="9" height="18" viewBox="0 0 9 18"><defs><style>.a{fill:#111;}</style></defs><path class="a" d="M.287,9.587H2.24V17.71a.289.289,0,0,0,.287.29H5.839a.289.289,0,0,0,.287-.29V9.625H8.371a.29.29,0,0,0,.286-.257L9,6.378a.292.292,0,0,0-.071-.226.287.287,0,0,0-.215-.1H6.126V4.179c0-.565.3-.851.9-.851H8.712A.289.289,0,0,0,9,3.038V.292A.289.289,0,0,0,8.712,0H6.382c-.017,0-.053,0-.107,0a4.434,4.434,0,0,0-2.92,1.112,3.113,3.113,0,0,0-1.018,2.75V6.054H.287A.289.289,0,0,0,0,6.344V9.3a.289.289,0,0,0,.287.29Zm0,0"/></svg>