<svg xmlns="http://www.w3.org/2000/svg" xmlns:xlink="http://www.w3.org/1999/xlink" width="90.662" height="90.268" viewBox="0 0 90.662 90.268">
  <defs>
    <clipPath id="clip-path">
      <rect id="사각형_318396" data-name="사각형 318396" width="80" height="80" fill="none"/>
    </clipPath>
    <clipPath id="clip-path-3">
      <rect id="사각형_318382" data-name="사각형 318382" width="11.3" height="5.836" fill="none"/>
    </clipPath>
    <clipPath id="clip-path-4">
      <rect id="사각형_318383" data-name="사각형 318383" width="11.74" height="5.834" fill="none"/>
    </clipPath>
    <clipPath id="clip-path-5">
      <rect id="사각형_318384" data-name="사각형 318384" width="8.26" height="23.188" fill="none"/>
    </clipPath>
    <clipPath id="clip-path-6">
      <rect id="사각형_318385" data-name="사각형 318385" width="1.14" height="2.004" fill="none"/>
    </clipPath>
    <clipPath id="clip-path-7">
      <rect id="사각형_318386" data-name="사각형 318386" width="3.7" height="3.266" fill="none"/>
    </clipPath>
    <clipPath id="clip-path-8">
      <rect id="사각형_318387" data-name="사각형 318387" width="3.5" height="1.322" fill="none"/>
    </clipPath>
    <clipPath id="clip-path-9">
      <rect id="사각형_318388" data-name="사각형 318388" width="2.86" height="2.87" fill="none"/>
    </clipPath>
    <clipPath id="clip-path-10">
      <rect id="사각형_318391" data-name="사각형 318391" width="3.32" height="4.064" fill="none"/>
    </clipPath>
    <clipPath id="clip-path-11">
      <rect id="사각형_318392" data-name="사각형 318392" width="3.68" height="4.184" fill="none"/>
    </clipPath>
    <clipPath id="clip-path-12">
      <rect id="사각형_318393" data-name="사각형 318393" width="2.18" height="3.856" fill="none"/>
    </clipPath>
    <clipPath id="clip-path-13">
      <rect id="사각형_318394" data-name="사각형 318394" width="5.16" height="31.224" fill="none"/>
    </clipPath>
  </defs>
  <g id="img_illust_dawn" transform="translate(-193.338 -485)">
    <circle id="타원_7390" data-name="타원 7390" cx="21.5" cy="21.5" r="21.5" transform="translate(205 485)" fill="#111"/>
    <g id="그룹_16287" data-name="그룹 16287" transform="translate(193.338 490.639)">
      <path id="패스_34865" data-name="패스 34865" d="M2062.031,1038.41l.486.164a.132.132,0,0,0,.167-.167l-.164-.485a.132.132,0,0,1,.019-.121l.307-.411a.131.131,0,0,0-.107-.21l-.513.007a.131.131,0,0,1-.109-.056l-.3-.418a.132.132,0,0,0-.234.037l-.153.489a.133.133,0,0,1-.087.087l-.49.152a.132.132,0,0,0-.037.233l.418.3a.131.131,0,0,1,.055.109l-.007.512a.132.132,0,0,0,.211.107l.411-.307A.132.132,0,0,1,2062.031,1038.41Z" transform="translate(-2026.351 -1032.784)" fill="#fff"/>
      <path id="패스_34866" data-name="패스 34866" d="M3069.258,1561.353l-.307-.042a.079.079,0,0,1-.06-.043l-.139-.277a.08.08,0,0,0-.143,0l-.136.28a.082.082,0,0,1-.06.044l-.307.047a.08.08,0,0,0-.043.136l.223.215a.08.08,0,0,1,.023.071l-.051.306a.08.08,0,0,0,.116.083l.274-.147a.081.081,0,0,1,.074,0l.275.142a.08.08,0,0,0,.115-.085l-.054-.306a.081.081,0,0,1,.022-.071l.221-.218A.08.08,0,0,0,3069.258,1561.353Z" transform="translate(-3006.434 -1542.92)" fill="#fff"/>
      <path id="패스_34867" data-name="패스 34867" d="M3693.79,2989.208l-.139-.278a.08.08,0,0,0-.143,0l-.135.279a.081.081,0,0,1-.06.044l-.307.047a.08.08,0,0,0-.043.136l.223.215a.081.081,0,0,1,.023.07l-.05.307a.079.079,0,0,0,.115.083l.274-.147a.08.08,0,0,1,.074,0l.275.142a.08.08,0,0,0,.115-.085l-.054-.306a.08.08,0,0,1,.022-.071l.221-.219a.08.08,0,0,0-.045-.135l-.307-.042A.078.078,0,0,1,3693.79,2989.208Z" transform="translate(-3614.463 -2932.313)" fill="#fff"/>
      <path id="패스_34868" data-name="패스 34868" d="M2222.951,1460.659l-.227.463a.133.133,0,0,1-.1.073l-.509.075a.133.133,0,0,0-.073.226l.369.36a.133.133,0,0,1,.038.117l-.086.508a.132.132,0,0,0,.192.139l.455-.241a.132.132,0,0,1,.124,0l.456.239a.132.132,0,0,0,.192-.14l-.088-.508a.133.133,0,0,1,.038-.118l.368-.361a.133.133,0,0,0-.073-.226l-.51-.074a.132.132,0,0,1-.1-.072l-.228-.462A.132.132,0,0,0,2222.951,1460.659Z" transform="translate(-2183.236 -1445.268)" fill="#fff"/>
      <path id="패스_34869" data-name="패스 34869" d="M4017.85,2161.754l-.509-.073a.134.134,0,0,1-.1-.073l-.229-.462a.132.132,0,0,0-.237,0l-.227.463a.135.135,0,0,1-.1.073l-.509.075a.133.133,0,0,0-.074.227l.369.359a.133.133,0,0,1,.039.117l-.086.509a.133.133,0,0,0,.192.14l.455-.241a.132.132,0,0,1,.123,0l.456.239a.132.132,0,0,0,.192-.14l-.088-.508a.132.132,0,0,1,.038-.117l.369-.361A.133.133,0,0,0,4017.85,2161.754Z" transform="translate(-3928.636 -2126.845)" fill="#fff"/>
      <path id="패스_34870" data-name="패스 34870" d="M3498.756,3566.268l-.485-.073a.126.126,0,0,1-.094-.073l-.218-.462a.123.123,0,0,0-.225,0l-.217.463a.126.126,0,0,1-.094.073l-.485.075a.135.135,0,0,0-.069.226l.351.36a.137.137,0,0,1,.037.117l-.083.509a.128.128,0,0,0,.183.14l.432-.241a.121.121,0,0,1,.118,0l.434.239a.127.127,0,0,0,.183-.14l-.083-.509a.135.135,0,0,1,.036-.117l.35-.361A.135.135,0,0,0,3498.756,3566.268Z" transform="translate(-3423.65 -3493.446)" fill="#fff"/>
      <path id="패스_34871" data-name="패스 34871" d="M1218.3,2055.839l-.509-.073a.134.134,0,0,1-.1-.073l-.228-.462a.132.132,0,0,0-.237,0l-.227.463a.134.134,0,0,1-.1.073l-.509.075a.133.133,0,0,0-.073.227l.369.359a.133.133,0,0,1,.038.118l-.086.508a.132.132,0,0,0,.192.14l.455-.241a.131.131,0,0,1,.123,0l.456.239a.133.133,0,0,0,.192-.141l-.088-.508a.133.133,0,0,1,.038-.117l.368-.36A.133.133,0,0,0,1218.3,2055.839Z" transform="translate(-1204.657 -2023.79)" fill="#fff"/>
      <path id="패스_34872" data-name="패스 34872" d="M3568.2,1312.667l-.2-.03a.052.052,0,0,1-.04-.029l-.092-.186a.053.053,0,0,0-.1,0l-.091.186a.053.053,0,0,1-.04.029l-.206.03a.053.053,0,0,0-.029.091l.148.145a.054.054,0,0,1,.015.047l-.034.2a.053.053,0,0,0,.077.056l.183-.1a.054.054,0,0,1,.05,0l.183.1a.053.053,0,0,0,.077-.057l-.035-.2a.052.052,0,0,1,.015-.047l.148-.145A.053.053,0,0,0,3568.2,1312.667Z" transform="translate(-3492.301 -1301.076)" fill="#fff"/>
      <path id="패스_34873" data-name="패스 34873" d="M3387.117,1117.934l-.205-.03a.051.051,0,0,1-.04-.029l-.092-.186a.053.053,0,0,0-.1,0l-.091.186a.054.054,0,0,1-.04.029l-.2.03a.053.053,0,0,0-.03.091l.148.145a.053.053,0,0,1,.015.047l-.035.2a.054.054,0,0,0,.078.056l.183-.1a.053.053,0,0,1,.05,0l.183.1a.053.053,0,0,0,.077-.056l-.036-.2a.054.054,0,0,1,.016-.047l.148-.145A.054.054,0,0,0,3387.117,1117.934Z" transform="translate(-3316.106 -1111.599)" fill="#fff"/>
      <path id="패스_34874" data-name="패스 34874" d="M3970.1,1894.885a.056.056,0,0,1,.016.047l-.035.2a.053.053,0,0,0,.077.056l.183-.1a.054.054,0,0,1,.05,0l.183.1a.054.054,0,0,0,.078-.057l-.035-.2a.052.052,0,0,1,.015-.047l.148-.146a.053.053,0,0,0-.03-.091l-.2-.03a.053.053,0,0,1-.04-.029l-.093-.186a.053.053,0,0,0-.095,0l-.091.187a.055.055,0,0,1-.041.029l-.2.03a.053.053,0,0,0-.03.091Z" transform="translate(-3883.987 -1867.347)" fill="#fff"/>
      <path id="패스_34875" data-name="패스 34875" d="M2879.1,3626.574l-.2-.03a.053.053,0,0,1-.041-.029l-.092-.186a.053.053,0,0,0-.1,0l-.092.187a.051.051,0,0,1-.04.029l-.2.03a.054.054,0,0,0-.03.091l.148.145a.054.054,0,0,1,.015.047l-.035.2a.054.054,0,0,0,.077.057l.183-.1a.05.05,0,0,1,.049,0l.184.1a.053.053,0,0,0,.077-.056l-.035-.2a.053.053,0,0,1,.015-.047l.148-.145A.054.054,0,0,0,2879.1,3626.574Z" transform="translate(-2821.804 -3552.521)" fill="#fff"/>
      <path id="패스_34876" data-name="패스 34876" d="M4112.126,2533.29a.058.058,0,0,0-.024-.091l-.165-.03a.047.047,0,0,1-.033-.029l-.073-.186a.04.04,0,0,0-.077,0l-.074.186a.047.047,0,0,1-.032.029l-.166.029a.058.058,0,0,0-.023.091l.119.146a.059.059,0,0,1,.013.047l-.029.2c-.006.044.032.077.063.057l.147-.1a.035.035,0,0,1,.04,0l.148.1c.031.021.067-.012.062-.056l-.027-.2a.061.061,0,0,1,.013-.047Z" transform="translate(-4021.676 -2488.66)" fill="#fff"/>
      <path id="패스_34877" data-name="패스 34877" d="M786.094,2562.352l-.035.2a.053.053,0,0,0,.077.056l.183-.1a.054.054,0,0,1,.049,0l.183.1a.053.053,0,0,0,.077-.056l-.035-.2a.054.054,0,0,1,.015-.047l.148-.145a.053.053,0,0,0-.03-.091l-.205-.03a.052.052,0,0,1-.04-.029l-.092-.186a.053.053,0,0,0-.1,0l-.091.187a.053.053,0,0,1-.04.03l-.205.03a.053.053,0,0,0-.029.091l.148.145A.054.054,0,0,1,786.094,2562.352Z" transform="translate(-785.914 -2516.75)" fill="#fff"/>
      <path id="패스_34878" data-name="패스 34878" d="M3338.786,3324.063l-.205-.03a.053.053,0,0,1-.04-.029l-.092-.186a.053.053,0,0,0-.1,0l-.091.186a.055.055,0,0,1-.04.03l-.205.03a.054.054,0,0,0-.029.091l.148.145a.052.052,0,0,1,.016.047l-.035.205a.053.053,0,0,0,.077.056l.183-.1a.053.053,0,0,1,.049,0l.184.1a.054.054,0,0,0,.078-.056l-.035-.2a.052.052,0,0,1,.015-.047l.148-.145A.053.053,0,0,0,3338.786,3324.063Z" transform="translate(-3269.08 -3258.176)" fill="#fff"/>
      <path id="패스_34879" data-name="패스 34879" d="M2432.917,1240.159a.053.053,0,0,1,.016.047l-.035.2a.053.053,0,0,0,.077.056l.183-.1a.054.054,0,0,1,.05,0l.183.1a.053.053,0,0,0,.077-.056l-.035-.2a.053.053,0,0,1,.015-.048l.148-.145a.053.053,0,0,0-.029-.091l-.205-.03a.053.053,0,0,1-.04-.029l-.092-.186a.053.053,0,0,0-.1,0l-.091.186a.054.054,0,0,1-.04.029l-.2.03a.053.053,0,0,0-.029.091Z" transform="translate(-2388.296 -1230.294)" fill="#fff"/>
      <path id="패스_34880" data-name="패스 34880" d="M3600.067,1841.145l-.2-.03a.054.054,0,0,1-.04-.029l-.092-.186a.053.053,0,0,0-.1,0l-.092.186a.053.053,0,0,1-.04.029l-.205.03a.054.054,0,0,0-.03.091l.149.145a.054.054,0,0,1,.015.047l-.035.2a.053.053,0,0,0,.077.056l.183-.1a.054.054,0,0,1,.05,0l.183.1a.053.053,0,0,0,.077-.056l-.035-.2a.054.054,0,0,1,.015-.047l.148-.145A.054.054,0,0,0,3600.067,1841.145Z" transform="translate(-3523.308 -1815.288)" fill="#fff"/>
      <path id="패스_34881" data-name="패스 34881" d="M1646.029,1103.087l.183.1a.053.053,0,0,0,.077-.056l-.035-.2a.053.053,0,0,1,.015-.047l.148-.145a.053.053,0,0,0-.03-.091l-.205-.03a.053.053,0,0,1-.04-.029l-.092-.186a.053.053,0,0,0-.1,0l-.092.186a.053.053,0,0,1-.04.029l-.2.03a.053.053,0,0,0-.029.091l.149.145a.054.054,0,0,1,.015.047l-.035.2a.053.053,0,0,0,.077.056l.183-.1A.054.054,0,0,1,1646.029,1103.087Z" transform="translate(-1622.367 -1096.718)" fill="#fff"/>
      <path id="패스_34882" data-name="패스 34882" d="M2863.2,1925.328a.053.053,0,0,0-.03-.091l-.205-.029a.053.053,0,0,1-.04-.029l-.092-.186a.053.053,0,0,0-.1,0l-.091.187a.054.054,0,0,1-.04.029l-.205.03a.053.053,0,0,0-.029.091l.148.145a.053.053,0,0,1,.016.047l-.035.2a.053.053,0,0,0,.077.056l.183-.1a.055.055,0,0,1,.05,0l.183.1a.053.053,0,0,0,.077-.056l-.035-.2a.053.053,0,0,1,.015-.047Z" transform="translate(-2806.299 -1897.11)" fill="#fff"/>
      <path id="패스_34883" data-name="패스 34883" d="M1931.633,2416.538l-.321-.046a.084.084,0,0,1-.063-.046l-.144-.291a.083.083,0,0,0-.149,0l-.143.292a.084.084,0,0,1-.062.046l-.321.047a.084.084,0,0,0-.046.143l.232.226a.084.084,0,0,1,.024.074l-.054.32a.083.083,0,0,0,.121.088l.287-.151a.082.082,0,0,1,.078,0l.287.15a.083.083,0,0,0,.121-.088l-.055-.32a.085.085,0,0,1,.024-.074l.231-.227A.084.084,0,0,0,1931.633,2416.538Z" transform="translate(-1899.466 -2374.997)" fill="#fff"/>
      <path id="패스_34884" data-name="패스 34884" d="M1256.682,1623.564l-.2-.03a.053.053,0,0,1-.04-.029l-.092-.186a.053.053,0,0,0-.1,0l-.092.186a.054.054,0,0,1-.04.029l-.205.03a.054.054,0,0,0-.029.091l.149.145a.054.054,0,0,1,.015.047l-.035.2a.053.053,0,0,0,.077.056l.183-.1a.053.053,0,0,1,.05,0l.183.1a.053.053,0,0,0,.077-.056l-.035-.2a.054.054,0,0,1,.015-.047l.148-.145A.054.054,0,0,0,1256.682,1623.564Z" transform="translate(-1243.181 -1603.581)" fill="#fff"/>
      <path id="패스_34885" data-name="패스 34885" d="M1006.754,1879.354l-.205-.03a.053.053,0,0,1-.04-.029l-.092-.186a.053.053,0,0,0-.1,0l-.091.187a.053.053,0,0,1-.04.029l-.2.03a.053.053,0,0,0-.029.091l.148.145a.054.054,0,0,1,.016.047l-.035.2a.053.053,0,0,0,.077.056l.183-.1a.052.052,0,0,1,.05,0l.183.1a.053.053,0,0,0,.077-.057l-.035-.2a.052.052,0,0,1,.015-.047l.148-.145A.053.053,0,0,0,1006.754,1879.354Z" transform="translate(-1000 -1852.466)" fill="#fff"/>
      <path id="패스_34886" data-name="패스 34886" d="M2954.687,2973.866l-.206-.03a.054.054,0,0,1-.04-.029l-.092-.186a.053.053,0,0,0-.1,0l-.091.186a.053.053,0,0,1-.04.029l-.205.03a.054.054,0,0,0-.03.091l.149.145a.054.054,0,0,1,.016.047l-.035.2a.053.053,0,0,0,.077.056l.183-.1a.054.054,0,0,1,.05,0l.183.1a.054.054,0,0,0,.077-.056l-.035-.2a.054.054,0,0,1,.015-.048l.148-.145A.053.053,0,0,0,2954.687,2973.866Z" transform="translate(-2895.349 -2917.432)" fill="#fff"/>
      <path id="패스_34887" data-name="패스 34887" d="M817.327,2277.588l-.205-.03a.052.052,0,0,1-.04-.029l-.092-.186a.053.053,0,0,0-.1,0l-.091.186a.053.053,0,0,1-.04.029l-.2.03a.054.054,0,0,0-.029.091l.149.145a.053.053,0,0,1,.015.047l-.035.205a.053.053,0,0,0,.077.056l.183-.1a.051.051,0,0,1,.05,0l.183.1a.053.053,0,0,0,.077-.056l-.035-.2a.054.054,0,0,1,.015-.048l.148-.145A.054.054,0,0,0,817.327,2277.588Z" transform="translate(-815.686 -2239.95)" fill="#fff"/>
      <path id="패스_34888" data-name="패스 34888" d="M1243.7,2587.637l-.165-.03a.044.044,0,0,1-.032-.029l-.073-.186a.04.04,0,0,0-.077,0l-.074.186a.044.044,0,0,1-.032.029l-.165.03a.057.057,0,0,0-.024.091l.119.145a.063.063,0,0,1,.012.047l-.029.205c-.006.043.031.077.062.056l.148-.1a.034.034,0,0,1,.04,0l.147.1c.032.021.068-.012.063-.056l-.028-.2a.063.063,0,0,1,.012-.047l.12-.145A.057.057,0,0,0,1243.7,2587.637Z" transform="translate(-1230.703 -2541.628)" fill="#fff"/>
      <path id="패스_34889" data-name="패스 34889" d="M3417.876,2417.582l-.205-.03a.054.054,0,0,1-.04-.029l-.092-.186a.053.053,0,0,0-.1,0l-.091.187a.056.056,0,0,1-.04.029l-.205.03a.053.053,0,0,0-.029.091l.148.145a.052.052,0,0,1,.015.047l-.034.2a.053.053,0,0,0,.077.056l.183-.1a.053.053,0,0,1,.05,0l.183.1a.053.053,0,0,0,.077-.056l-.035-.2a.053.053,0,0,1,.015-.047l.148-.145A.053.053,0,0,0,3417.876,2417.582Z" transform="translate(-3346.035 -2376.165)" fill="#fff"/>
      <path id="패스_34890" data-name="패스 34890" d="M849.421,2865.692l-.205-.03a.053.053,0,0,1-.04-.029l-.092-.186a.053.053,0,0,0-.1,0l-.091.186a.053.053,0,0,1-.04.029l-.2.03a.054.054,0,0,0-.029.092l.149.145a.053.053,0,0,1,.015.047l-.035.205a.053.053,0,0,0,.077.056l.183-.1a.054.054,0,0,1,.05,0l.183.1a.053.053,0,0,0,.077-.057l-.035-.2a.053.053,0,0,1,.015-.047l.148-.145A.053.053,0,0,0,849.421,2865.692Z" transform="translate(-846.914 -2812.178)" fill="#fff"/>
      <path id="패스_34891" data-name="패스 34891" d="M4024.268,2881.474l-.035-.2a.052.052,0,0,1,.015-.047l.148-.145a.053.053,0,0,0-.03-.091l-.2-.029a.054.054,0,0,1-.041-.029l-.092-.186a.053.053,0,0,0-.1,0l-.091.187a.053.053,0,0,1-.04.029l-.2.03a.053.053,0,0,0-.03.091l.149.145a.053.053,0,0,1,.015.047l-.034.2a.054.054,0,0,0,.078.056l.183-.1a.054.054,0,0,1,.05,0l.183.1A.054.054,0,0,0,4024.268,2881.474Z" transform="translate(-3936.153 -2827.06)" fill="#fff"/>
      <path id="패스_34892" data-name="패스 34892" d="M1911,3019.7l-.205-.03a.054.054,0,0,1-.04-.029l-.092-.186a.053.053,0,0,0-.1,0l-.092.187a.055.055,0,0,1-.04.029l-.205.03a.053.053,0,0,0-.029.091l.149.145a.054.054,0,0,1,.015.047l-.035.2a.053.053,0,0,0,.077.056l.183-.1a.053.053,0,0,1,.049,0l.184.1a.054.054,0,0,0,.077-.057l-.035-.2a.055.055,0,0,1,.015-.048l.148-.145A.053.053,0,0,0,1911,3019.7Z" transform="translate(-1879.838 -2962.026)" fill="#fff"/>
      <path id="패스_34893" data-name="패스 34893" d="M1656.316,2129.989l-.205-.03a.053.053,0,0,1-.04-.029l-.092-.186a.053.053,0,0,0-.1,0l-.091.186a.053.053,0,0,1-.04.029l-.2.03a.054.054,0,0,0-.03.091l.148.145a.053.053,0,0,1,.016.047l-.035.205a.053.053,0,0,0,.077.056l.183-.1a.052.052,0,0,1,.05,0l.183.1a.053.053,0,0,0,.077-.057l-.035-.2a.053.053,0,0,1,.015-.047l.148-.145A.053.053,0,0,0,1656.316,2129.989Z" transform="translate(-1632.028 -2096.335)" fill="#fff"/>
      <path id="패스_34894" data-name="패스 34894" d="M3825.154,2426.786l-.205-.03a.054.054,0,0,1-.04-.029l-.092-.186a.053.053,0,0,0-.1,0l-.092.186a.051.051,0,0,1-.04.029l-.205.03a.054.054,0,0,0-.029.091l.149.145a.051.051,0,0,1,.015.047l-.034.2a.053.053,0,0,0,.077.056l.183-.1a.054.054,0,0,1,.05,0l.184.1a.053.053,0,0,0,.077-.056l-.035-.2a.054.054,0,0,1,.016-.047l.147-.145A.053.053,0,0,0,3825.154,2426.786Z" transform="translate(-3742.319 -2385.12)" fill="#fff"/>
      <path id="패스_34895" data-name="패스 34895" d="M2550.639,3832.99l-.2-.029a.051.051,0,0,1-.04-.029l-.092-.186a.053.053,0,0,0-.1,0l-.091.187a.056.056,0,0,1-.04.029l-.205.03a.054.054,0,0,0-.03.091l.149.145a.053.053,0,0,1,.015.047l-.034.2a.053.053,0,0,0,.077.057l.183-.1a.052.052,0,0,1,.05,0l.183.1a.054.054,0,0,0,.078-.056l-.035-.2a.054.054,0,0,1,.015-.047l.148-.145A.054.054,0,0,0,2550.639,3832.99Z" transform="translate(-2502.209 -3753.366)" fill="#fff"/>
      <path id="패스_34896" data-name="패스 34896" d="M2111.884,3997.928l-.2-.029a.051.051,0,0,1-.04-.03l-.092-.186a.053.053,0,0,0-.1,0l-.092.186a.054.054,0,0,1-.04.029l-.206.03a.054.054,0,0,0-.029.091l.148.145a.053.053,0,0,1,.015.047l-.034.205a.053.053,0,0,0,.077.056l.183-.1a.05.05,0,0,1,.05,0l.184.1a.053.053,0,0,0,.077-.056l-.035-.205a.051.051,0,0,1,.015-.047l.148-.145A.054.054,0,0,0,2111.884,3997.928Z" transform="translate(-2075.298 -3913.85)" fill="#fff"/>
      <path id="패스_34897" data-name="패스 34897" d="M3143.4,3845.28l-.2-.03a.051.051,0,0,1-.04-.029l-.092-.186a.053.053,0,0,0-.1,0l-.091.186a.057.057,0,0,1-.04.03l-.2.029a.054.054,0,0,0-.03.091l.149.145a.055.055,0,0,1,.015.047l-.035.205a.053.053,0,0,0,.077.056l.183-.1a.053.053,0,0,1,.05,0l.183.1a.053.053,0,0,0,.077-.057l-.035-.2a.053.053,0,0,1,.015-.047l.148-.146A.053.053,0,0,0,3143.4,3845.28Z" transform="translate(-3078.966 -3765.322)" fill="#fff"/>
      <path id="패스_34898" data-name="패스 34898" d="M2111.885,3495.756l-.205-.029a.054.054,0,0,1-.04-.029l-.092-.186a.053.053,0,0,0-.1,0l-.092.186a.052.052,0,0,1-.04.029l-.206.031a.053.053,0,0,0-.029.091l.149.145a.055.055,0,0,1,.015.048l-.035.2a.053.053,0,0,0,.077.056l.183-.1a.054.054,0,0,1,.049,0l.184.1a.053.053,0,0,0,.077-.056l-.035-.2a.054.054,0,0,1,.015-.047l.148-.145A.054.054,0,0,0,2111.885,3495.756Z" transform="translate(-2075.299 -3425.233)" fill="#fff"/>
      <path id="패스_34899" data-name="패스 34899" d="M2779.6,3982.633l-.205-.029a.054.054,0,0,1-.04-.029l-.092-.186a.053.053,0,0,0-.1,0l-.091.186a.053.053,0,0,1-.04.03l-.2.03a.053.053,0,0,0-.03.091l.148.145a.053.053,0,0,1,.016.047l-.035.2a.053.053,0,0,0,.077.057l.183-.1a.051.051,0,0,1,.05,0l.183.1a.053.053,0,0,0,.077-.056l-.035-.2a.054.054,0,0,1,.015-.047l.148-.145A.054.054,0,0,0,2779.6,3982.633Z" transform="translate(-2724.991 -3898.968)" fill="#fff"/>
      <path id="패스_34900" data-name="패스 34900" d="M3322.852,1430.272l-.2-.03a.053.053,0,0,1-.04-.029l-.092-.186a.053.053,0,0,0-.1,0l-.092.186a.054.054,0,0,1-.04.029l-.205.03a.053.053,0,0,0-.03.091l.149.145a.055.055,0,0,1,.015.047l-.035.2a.053.053,0,0,0,.077.056l.183-.1a.052.052,0,0,1,.049,0l.184.1a.053.053,0,0,0,.077-.056l-.035-.2a.054.054,0,0,1,.015-.047l.148-.145A.053.053,0,0,0,3322.852,1430.272Z" transform="translate(-3253.577 -1415.506)" fill="#fff"/>
      <path id="패스_34901" data-name="패스 34901" d="M1598.587,3308.769l-.205-.029a.053.053,0,0,1-.04-.029l-.092-.186a.053.053,0,0,0-.1,0l-.091.186a.055.055,0,0,1-.04.029l-.2.03a.053.053,0,0,0-.029.091l.148.145a.052.052,0,0,1,.015.047l-.035.2a.053.053,0,0,0,.078.056l.183-.1a.054.054,0,0,1,.049,0l.183.1a.053.053,0,0,0,.077-.056l-.035-.2a.053.053,0,0,1,.015-.047l.148-.145A.054.054,0,0,0,1598.587,3308.769Z" transform="translate(-1575.857 -3243.294)" fill="#fff"/>
      <path id="패스_34902" data-name="패스 34902" d="M2015.977,947.189a.053.053,0,0,1,.015.047l-.035.2a.053.053,0,0,0,.078.056l.183-.1a.052.052,0,0,1,.05,0l.183.1a.053.053,0,0,0,.077-.056l-.035-.2a.052.052,0,0,1,.015-.047l.148-.145a.054.054,0,0,0-.03-.091l-.2-.03a.054.054,0,0,1-.04-.029l-.092-.186a.053.053,0,0,0-.1,0l-.091.186a.054.054,0,0,1-.04.029l-.2.03a.053.053,0,0,0-.029.091Z" transform="translate(-1982.612 -945.234)" fill="#fff"/>
      <path id="패스_34903" data-name="패스 34903" d="M2746.618,893.686a.054.054,0,0,1,.015.047l-.034.2a.053.053,0,0,0,.077.056l.183-.1a.052.052,0,0,1,.049,0l.184.1a.053.053,0,0,0,.077-.056l-.035-.2a.053.053,0,0,1,.015-.047l.148-.145a.053.053,0,0,0-.03-.091l-.2-.029a.055.055,0,0,1-.041-.029l-.092-.186a.053.053,0,0,0-.1,0l-.091.186a.053.053,0,0,1-.04.029l-.205.03a.054.054,0,0,0-.029.091Z" transform="translate(-2693.529 -893.175)" fill="#fff"/>
      <path id="패스_34904" data-name="패스 34904" d="M1760.931,1445.8a.055.055,0,0,1,.016.047l-.035.2a.053.053,0,0,0,.078.056l.183-.1a.055.055,0,0,1,.05,0l.184.1a.053.053,0,0,0,.077-.057l-.036-.2a.053.053,0,0,1,.015-.047l.148-.145a.053.053,0,0,0-.03-.091l-.205-.03a.054.054,0,0,1-.04-.029l-.092-.186a.053.053,0,0,0-.1,0l-.091.186a.053.053,0,0,1-.04.029l-.2.03a.053.053,0,0,0-.029.091Z" transform="translate(-1734.451 -1430.387)" fill="#fff"/>
      <path id="패스_34905" data-name="패스 34905" d="M2969.97,1297.61a.053.053,0,0,1,.016.047l-.035.2a.053.053,0,0,0,.077.056l.183-.1a.054.054,0,0,1,.05,0l.183.1a.053.053,0,0,0,.077-.056l-.035-.2a.053.053,0,0,1,.015-.047l.148-.145a.053.053,0,0,0-.03-.091l-.205-.029a.054.054,0,0,1-.04-.029l-.092-.186a.053.053,0,0,0-.1,0l-.091.186a.053.053,0,0,1-.04.029l-.2.03a.054.054,0,0,0-.03.091Z" transform="translate(-2910.853 -1286.195)" fill="#fff"/>
      <path id="패스_34906" data-name="패스 34906" d="M2667.089,1522.766l.134.131.014.014a.055.055,0,0,1,.016.047l-.035.2a.054.054,0,0,0,.078.056l.183-.1a.051.051,0,0,1,.049,0l.184.1a.053.053,0,0,0,.077-.056l-.035-.2a.053.053,0,0,1,.016-.047l.147-.145a.053.053,0,0,0-.029-.091l-.205-.03a.054.054,0,0,1-.041-.029l-.092-.186a.053.053,0,0,0-.1,0l-.091.186a.055.055,0,0,1-.04.029l-.116.017-.089.013A.053.053,0,0,0,2667.089,1522.766Z" transform="translate(-2616.292 -1505.413)" fill="#fff"/>
      <path id="패스_34907" data-name="패스 34907" d="M3589.315,1573.622l-.1-.562a.148.148,0,0,1,.042-.13l.407-.4a.147.147,0,0,0-.081-.25l-.563-.081a.146.146,0,0,1-.11-.08l-.252-.511a.146.146,0,0,0-.262,0l-.251.512a.145.145,0,0,1-.11.08l-.563.083a.147.147,0,0,0-.081.25l.408.4a.147.147,0,0,1,.042.13l-.1.562a.146.146,0,0,0,.213.154l.5-.266a.145.145,0,0,1,.136,0l.5.265A.146.146,0,0,0,3589.315,1573.622Z" transform="translate(-3511.725 -1553.216)" fill="#fff"/>
      <path id="패스_34908" data-name="패스 34908" d="M1374.526,1271.783a.147.147,0,0,1,.043.13l-.1.562a.146.146,0,0,0,.213.154l.5-.266a.146.146,0,0,1,.136,0l.5.265a.146.146,0,0,0,.212-.155l-.1-.562a.146.146,0,0,1,.042-.13l.407-.4a.147.147,0,0,0-.081-.25l-.563-.081a.146.146,0,0,1-.11-.08l-.253-.511a.146.146,0,0,0-.262,0l-.251.512a.147.147,0,0,1-.11.08l-.563.083a.147.147,0,0,0-.081.25Z" transform="translate(-1358.196 -1260.196)" fill="#fff"/>
      <path id="패스_34909" data-name="패스 34909" d="M3826.577,3240.512l-.563-.081a.149.149,0,0,1-.11-.08l-.252-.511a.146.146,0,0,0-.263,0l-.251.512a.146.146,0,0,1-.11.08l-.562.083a.147.147,0,0,0-.081.25l.408.4a.147.147,0,0,1,.043.13l-.1.562a.147.147,0,0,0,.213.155l.5-.267a.146.146,0,0,1,.136,0l.5.265a.147.147,0,0,0,.212-.155l-.1-.562a.145.145,0,0,1,.042-.13l.407-.4A.147.147,0,0,0,3826.577,3240.512Z" transform="translate(-3742.319 -3176.413)" fill="#fff"/>
      <path id="패스_34910" data-name="패스 34910" d="M2553.19,1077.049a.146.146,0,0,1,.042.13l-.1.562a.146.146,0,0,0,.213.154l.5-.266a.146.146,0,0,1,.136,0l.5.265a.146.146,0,0,0,.212-.155l-.1-.562a.148.148,0,0,1,.042-.13l.407-.4a.147.147,0,0,0-.082-.25l-.563-.081a.147.147,0,0,1-.111-.08l-.252-.511a.146.146,0,0,0-.263,0l-.251.512a.146.146,0,0,1-.11.08l-.563.083a.147.147,0,0,0-.08.25Z" transform="translate(-2505.043 -1070.719)" fill="#fff"/>
      <path id="패스_34911" data-name="패스 34911" d="M3119.7,915.468l-.563-.081a.148.148,0,0,1-.111-.08l-.252-.511a.146.146,0,0,0-.262,0l-.251.512a.145.145,0,0,1-.11.08l-.563.083a.147.147,0,0,0-.081.25l.408.4a.149.149,0,0,1,.042.13l-.1.562a.146.146,0,0,0,.212.154l.5-.266a.146.146,0,0,1,.136,0l.5.265a.146.146,0,0,0,.212-.155l-.1-.562a.148.148,0,0,1,.042-.13l.407-.4A.147.147,0,0,0,3119.7,915.468Z" transform="translate(-3054.523 -914.133)" fill="#fff"/>
      <path id="패스_34912" data-name="패스 34912" d="M1239.727,3222.276l-.563-.082a.146.146,0,0,1-.11-.08l-.252-.511a.146.146,0,0,0-.262,0l-.251.512a.145.145,0,0,1-.11.08l-.563.083a.147.147,0,0,0-.081.25l.408.4a.146.146,0,0,1,.042.129l-.1.563a.146.146,0,0,0,.212.154l.5-.266a.143.143,0,0,1,.136,0l.5.264a.146.146,0,0,0,.212-.155l-.1-.562a.147.147,0,0,1,.042-.13l.407-.4A.146.146,0,0,0,1239.727,3222.276Z" transform="translate(-1225.299 -3158.669)" fill="#fff"/>
      <path id="패스_34913" data-name="패스 34913" d="M1761.58,3719.212l-.2-.03a.052.052,0,0,1-.04-.029l-.092-.186a.053.053,0,0,0-.1,0l-.091.187a.055.055,0,0,1-.04.029l-.2.03a.054.054,0,0,0-.03.091l.148.145a.053.053,0,0,1,.016.047l-.035.205a.053.053,0,0,0,.077.056l.183-.1a.053.053,0,0,1,.05,0l.183.1a.053.053,0,0,0,.077-.057l-.035-.2a.054.054,0,0,1,.015-.047l.148-.145A.054.054,0,0,0,1761.58,3719.212Z" transform="translate(-1734.45 -3642.658)" fill="#fff"/>
      <path id="패스_34914" data-name="패스 34914" d="M2417.633,3293.475l-.205-.03a.053.053,0,0,1-.04-.029l-.092-.186a.053.053,0,0,0-.1,0l-.091.186a.055.055,0,0,1-.04.03l-.205.03a.054.054,0,0,0-.029.091l.149.145a.055.055,0,0,1,.015.047l-.035.205a.053.053,0,0,0,.077.056l.184-.1a.051.051,0,0,1,.049,0l.184.1a.053.053,0,0,0,.077-.057l-.035-.2a.052.052,0,0,1,.015-.047l.148-.145A.054.054,0,0,0,2417.633,3293.475Z" transform="translate(-2372.793 -3228.414)" fill="#fff"/>
    </g>
    <g id="새벽세차" transform="translate(244 531)">
      <g id="그룹_422748" data-name="그룹 422748" transform="translate(-40 -40)" clip-path="url(#clip-path)">
        <g id="그룹_422747" data-name="그룹 422747" clip-path="url(#clip-path)">
          <g id="그룹_422726" data-name="그룹 422726" transform="translate(23.28 67.96)" opacity="0.2">
            <g id="그룹_422725" data-name="그룹 422725" clip-path="url(#clip-path-3)">
              <path id="패스_840156" data-name="패스 840156" d="M127.68,342.72c0,1.62-2.52,2.92-5.64,2.92s-5.64-1.3-5.64-2.92,2.52-2.92,5.64-2.92,5.64,1.3,5.64,2.92" transform="translate(-116.4 -339.8)" fill="#222"/>
            </g>
          </g>
          <g id="그룹_422728" data-name="그룹 422728" transform="translate(47.88 59.48)" opacity="0.2">
            <g id="그룹_422727" data-name="그룹 422727" clip-path="url(#clip-path-4)">
              <path id="패스_840157" data-name="패스 840157" d="M251.14,300.32c0,1.62-2.62,2.92-5.88,2.92s-5.86-1.32-5.86-2.92,2.62-2.92,5.88-2.92,5.88,1.3,5.88,2.92" transform="translate(-239.4 -297.4)" fill="#222"/>
            </g>
          </g>
          <path id="패스_840158" data-name="패스 840158" d="M246.92,138.7l-2.58-3.18h-.04l-.38.16.52-1.12-3.04-2.06c-.48,1.46.04,3.2-.18,2.94l-.78-.2a2.56,2.56,0,0,1-1.06-.64l-.52-.54h-.02a.42.42,0,0,1,.14.3c0,.34-.52.62-1.18.66h-.2l.6,6.04.68,6.9h.02a4.278,4.278,0,0,0,3.18,1.3,4.328,4.328,0,0,0,3.44-1.64h.06a9.634,9.634,0,0,0-.14-1.82v-.04l.46.04a2.02,2.02,0,0,0,2.02-2.02v-2.26a4.48,4.48,0,0,0-1-2.82m-2.08,4.58a1.28,1.28,0,0,1-1.68.7h-.02l-2.6-3.22,2.18-.72,1.94,1.94a1.28,1.28,0,0,1,.18,1.28" transform="translate(-190.08 -106)" fill="#fff"/>
          <path id="패스_840159" data-name="패스 840159" d="M256.6,173.44a1.28,1.28,0,0,1-1.68.7h-.02l-2.6-3.22,2.18-.72,1.94,1.94a1.28,1.28,0,0,1,.18,1.28" transform="translate(-201.84 -136.16)" fill="#fff"/>
          <path id="패스_840160" data-name="패스 840160" d="M273.82,180.92l-1.56-1.56-.06-.06.06.06.08.08" transform="translate(-217.76 -143.44)" fill="none" stroke="#222" stroke-linecap="round" stroke-linejoin="round" stroke-width="0.5"/>
          <line id="선_126299" data-name="선 126299" x1="0.02" y1="0.02" transform="translate(54.58 36)" fill="none" stroke="#222" stroke-linecap="round" stroke-linejoin="round" stroke-width="0.5"/>
          <line id="선_126300" data-name="선 126300" x1="0.06" y1="0.08" transform="translate(53.06 38)" fill="none" stroke="#222" stroke-linecap="round" stroke-linejoin="round" stroke-width="0.5"/>
          <path id="패스_840161" data-name="패스 840161" d="M218.42,110.7a.42.42,0,0,1,.14.3c0,.34-.52.62-1.18.66h-.16l-2.54-1.78-1.32-1.8a9.333,9.333,0,0,1-1.14-2.88,4.22,4.22,0,0,1-.12-.94c0-.54.1-.84.5-.96a.64.64,0,0,1,.58.12,1.06,1.06,0,0,1,.36.48c.14.38.32.76.48,1.1a15.18,15.18,0,0,0,2.52,3.6l1.92,2.06" transform="translate(-169.68 -82.622)" fill="#fff"/>
          <path id="패스_840162" data-name="패스 840162" d="M246.68,220.58l-.14.46a1.34,1.34,0,0,1-1.1.52c-.7,0-1.5-.54-1.5-1.08h-.04c-.02.1.08.2.02.28a1.34,1.34,0,0,1-1.1.52,1.4,1.4,0,0,1-.98-.38h0a.84.84,0,0,1-.26-.6l-2.18-15.18.92.66c.7.78,1.84.76,3.16.76a4.328,4.328,0,0,0,3.44-1.64h.06c.16,3.82.34,11.54-.32,15.7" transform="translate(-191.52 -163.92)" fill="#3673ee"/>
          <path id="패스_840163" data-name="패스 840163" d="M253.66,285.54a.815.815,0,0,1-.88.66.784.784,0,0,1-.86-.58.46.46,0,0,1-.02-.12l-.4-1.36a1.4,1.4,0,0,0,.98.38,1.34,1.34,0,0,0,1.1-.52h.06Z" transform="translate(-201.2 -227.2)" fill="#fff"/>
          <path id="패스_840164" data-name="패스 840164" d="M272.82,292a.579.579,0,0,1-.02.14" transform="translate(-218.24 -233.6)" fill="none" stroke="#222" stroke-linecap="round" stroke-linejoin="round" stroke-width="0.5"/>
          <line id="선_126301" data-name="선 126301" y1="0.22" transform="translate(52.46 58.34)" fill="none" stroke="#222" stroke-linecap="round" stroke-linejoin="round" stroke-width="0.5"/>
          <path id="패스_840165" data-name="패스 840165" d="M264.62,284.466l-.28.86-.18.58h0a.93.93,0,0,1-.96.62c-.48,0-1.04-.42-1.04-.84h-.08v-1.48H262c.06-.1.18.16.2.04h.04c0,.54.58.74,1.28.74a1.34,1.34,0,0,0,1.1-.52" transform="translate(-209.6 -227.346)" fill="#fff"/>
          <path id="패스_840166" data-name="패스 840166" d="M275.24,283.3a.8.8,0,0,1-.14.46" transform="translate(-220.08 -226.64)" fill="none" stroke="#222" stroke-linecap="round" stroke-linejoin="round" stroke-width="0.5"/>
          <path id="패스_840167" data-name="패스 840167" d="M253.1,293.22l-.06.22-.52,1.64a1.08,1.08,0,0,1-1.28.72l-3.48-.88a.34.34,0,0,1-.26-.34.8.8,0,0,1,.2-.52,3.041,3.041,0,0,0,.52-.86,3.081,3.081,0,0,0,.22-.98,6.5,6.5,0,0,1,.22-1.42l.08-.26a.922.922,0,0,0,1.74-.08h.08a1.03,1.03,0,0,0,1.04.84.9.9,0,0,0,.96-.62h0l.18-.58h.06l.16.44a4.5,4.5,0,0,1,.14,2.7" transform="translate(-197.999 -232.08)" fill="#262626"/>
          <path id="패스_840168" data-name="패스 840168" d="M234.18,139.7a1.18,1.18,0,0,1-.5.88,1.531,1.531,0,0,1-1.78-.2" transform="translate(-185.52 -111.76)" fill="none" stroke="#222" stroke-linecap="round" stroke-linejoin="round" stroke-width="0.5"/>
          <path id="패스_840169" data-name="패스 840169" d="M253.7,224.9l1.04,1.82-.2-1.48Z" transform="translate(-202.96 -179.92)" fill="#222"/>
          <g id="그룹_422730" data-name="그룹 422730" transform="translate(47.36 34.46)" opacity="0.15">
            <g id="그룹_422729" data-name="그룹 422729" clip-path="url(#clip-path-5)">
              <path id="패스_840170" data-name="패스 840170" d="M244.54,194.96l-1.1.52s.38-6.88.18-12.94c-.08-2.68-4.14-2.86-6.22-4.56l-.5-5.08,2.38-.6,4.24,4.58v.04l1.36.78s.82,12.98-.32,17.28" transform="translate(-236.88 -172.3)" fill="#222"/>
            </g>
          </g>
          <g id="그룹_422732" data-name="그룹 422732" transform="translate(53.88 57.16)" opacity="0.1">
            <g id="그룹_422731" data-name="그룹 422731" clip-path="url(#clip-path-6)">
              <path id="패스_840171" data-name="패스 840171" d="M269.46,286.22l-.06,1.6.64-.52.5-1.5Z" transform="translate(-269.4 -285.8)" fill="#222"/>
            </g>
          </g>
          <path id="패스_840172" data-name="패스 840172" d="M276.6,182.5l.74.14a.34.34,0,0,1,.28.42l-.1.46Z" transform="translate(-221.28 -146)" fill="#222"/>
          <g id="그룹_422734" data-name="그룹 422734" transform="translate(52.64 33.7)" opacity="0.15">
            <g id="그룹_422733" data-name="그룹 422733" clip-path="url(#clip-path-7)">
              <path id="패스_840173" data-name="패스 840173" d="M264.18,168.5l2.7,3.26-1.06-.3-2.62-2.6Z" transform="translate(-263.2 -168.5)" fill="#222"/>
            </g>
          </g>
          <g id="그룹_422736" data-name="그룹 422736" transform="translate(50.52 34.14)" opacity="0.15">
            <g id="그룹_422735" data-name="그룹 422735" clip-path="url(#clip-path-8)">
              <path id="패스_840174" data-name="패스 840174" d="M252.6,171.52l3.5.5-1.36-1.32Z" transform="translate(-252.6 -170.7)" fill="#222"/>
            </g>
          </g>
          <g id="그룹_422738" data-name="그룹 422738" transform="translate(54.44 36.92)" opacity="0.15">
            <g id="그룹_422737" data-name="그룹 422737" clip-path="url(#clip-path-9)">
              <path id="패스_840175" data-name="패스 840175" d="M274.98,186.04a1.44,1.44,0,1,1-1.44-1.44,1.44,1.44,0,0,1,1.44,1.44" transform="translate(-272.12 -184.6)" fill="#222"/>
            </g>
          </g>
          <path id="패스_840176" data-name="패스 840176" d="M258.28,147.6a1.707,1.707,0,0,1-2.04,1.22,1.74,1.74,0,0,1-1.44-1.62" transform="translate(-203.84 -117.76)" fill="none" stroke="#222" stroke-linecap="round" stroke-miterlimit="10" stroke-width="0.5"/>
          <path id="패스_840177" data-name="패스 840177" d="M266.82,147.7l2.58,3.18a4.48,4.48,0,0,1,1,2.82V156a2.02,2.02,0,0,1-2.02,2.02,2.26,2.26,0,0,1-1.6-.66l-1.08-1.08" transform="translate(-212.56 -118.16)" fill="none" stroke="#222" stroke-linecap="round" stroke-linejoin="round" stroke-width="0.5"/>
          <path id="패스_840178" data-name="패스 840178" d="M265.4,181.34a1.28,1.28,0,0,0,1.36-2.14l1.62,1.62" transform="translate(-212.32 -143.36)" fill="none" stroke="#222" stroke-linecap="round" stroke-linejoin="round" stroke-width="0.5"/>
          <line id="선_126302" data-name="선 126302" x2="2.66" y2="3.3" transform="translate(50.46 34.78)" fill="none" stroke="#222" stroke-linecap="round" stroke-linejoin="round" stroke-width="0.5"/>
          <line id="선_126303" data-name="선 126303" x2="1.96" y2="1.96" transform="translate(52.64 34.06)" fill="none" stroke="#222" stroke-linecap="round" stroke-linejoin="round" stroke-width="0.5"/>
          <path id="패스_840179" data-name="패스 840179" d="M216.38,112.322l-3.02-4.04a9.333,9.333,0,0,1-1.14-2.88,4.3,4.3,0,0,1-.12-.94c0-.54.1-.84.5-.96a.64.64,0,0,1,.58.12,1.06,1.06,0,0,1,.36.5c.14.38.32.76.48,1.1a15.2,15.2,0,0,0,2.52,3.6l2.44,2.6a2.54,2.54,0,0,0,1.06.64l.66.2.18-.68" transform="translate(-169.68 -82.782)" fill="none" stroke="#222" stroke-linecap="round" stroke-linejoin="round" stroke-width="0.5"/>
          <line id="선_126304" data-name="선 126304" y1="5.86" x2="0.24" transform="translate(47.86 35.1)" fill="none" stroke="#222" stroke-linecap="round" stroke-linejoin="round" stroke-width="0.5"/>
          <line id="선_126305" data-name="선 126305" x1="2.18" y1="15.34" transform="translate(47.86 41.02)" fill="none" stroke="#222" stroke-linecap="round" stroke-linejoin="round" stroke-width="0.5"/>
          <path id="패스_840180" data-name="패스 840180" d="M275.98,199.2s.76,10.9-.18,16.82" transform="translate(-220.64 -159.36)" fill="none" stroke="#222" stroke-linecap="round" stroke-linejoin="round" stroke-width="0.5"/>
          <path id="패스_840181" data-name="패스 840181" d="M252.34,281.9c0,.54-.42.88-1.12.88a1.01,1.01,0,0,1-1.12-.98" transform="translate(-200.08 -225.44)" fill="none" stroke="#222" stroke-linecap="round" stroke-linejoin="round" stroke-width="0.5"/>
          <path id="패스_840182" data-name="패스 840182" d="M253.66,286.56a.909.909,0,0,1-1.76,0l-.4-1.26" transform="translate(-201.2 -228.24)" fill="none" stroke="#222" stroke-linecap="round" stroke-linejoin="round" stroke-width="0.5"/>
          <path id="패스_840183" data-name="패스 840183" d="M264.82,291.68a.892.892,0,0,1-.98.76,1.014,1.014,0,0,1-1.04-.84" transform="translate(-210.24 -233.28)" fill="none" stroke="#222" stroke-linecap="round" stroke-linejoin="round" stroke-width="0.5"/>
          <path id="패스_840184" data-name="패스 840184" d="M255.86,236.1l-.4-10.14a1.68,1.68,0,0,0-.96-1.46" transform="translate(-203.6 -179.6)" fill="none" stroke="#222" stroke-linecap="round" stroke-linejoin="round" stroke-width="0.5"/>
          <line id="선_126306" data-name="선 126306" y1="1.7" transform="translate(52.46 56.86)" fill="none" stroke="#222" stroke-linecap="round" stroke-linejoin="round" stroke-width="0.5"/>
          <path id="패스_840185" data-name="패스 840185" d="M263.84,284.56l.6-1.9a1.145,1.145,0,0,1-1.26.98c-.7,0-1.58-.6-1.58-1.14" transform="translate(-209.28 -226)" fill="none" stroke="#222" stroke-linecap="round" stroke-linejoin="round" stroke-width="0.5"/>
          <path id="패스_840186" data-name="패스 840186" d="M248.639,290.44l-.08.26a6.539,6.539,0,0,0-.22,1.42,3.06,3.06,0,0,1-.74,1.84.8.8,0,0,0-.2.52.34.34,0,0,0,.26.34l3.48.88a1.08,1.08,0,0,0,1.28-.72l.52-1.64.06-.22a4.5,4.5,0,0,0-.14-2.7l-.14-.42" transform="translate(-197.919 -232)" fill="none" stroke="#222" stroke-linecap="round" stroke-linejoin="round" stroke-width="0.5"/>
          <path id="패스_840187" data-name="패스 840187" d="M204.775,91.455a.62.62,0,0,1-.56-.36l-6.98-14.12a.626.626,0,0,1,1.12-.56l6.98,14.14a.62.62,0,0,1-.56.9" transform="translate(-157.735 -60.855)" fill="#9faeb7"/>
          <path id="패스_840188" data-name="패스 840188" d="M204.775,91.455a.62.62,0,0,1-.56-.36l-6.98-14.12a.626.626,0,0,1,1.12-.56l6.98,14.14a.62.62,0,0,1-.56.9Z" transform="translate(-157.735 -60.855)" fill="none" stroke="#222" stroke-linecap="round" stroke-linejoin="round" stroke-width="0.5"/>
          <path id="패스_840189" data-name="패스 840189" d="M239.4,204.2a3.567,3.567,0,0,0,3.3,1.7,5.858,5.858,0,0,0,4.12-1.34" transform="translate(-191.52 -163.36)" fill="none" stroke="#222" stroke-linecap="round" stroke-linejoin="round" stroke-width="0.5"/>
          <line id="선_126307" data-name="선 126307" x2="0.44" y2="1.26" transform="translate(54.26 33.24)" fill="#222"/>
          <line id="선_126308" data-name="선 126308" x2="0.44" y2="1.26" transform="translate(54.26 33.24)" fill="none" stroke="#222" stroke-linecap="round" stroke-miterlimit="10" stroke-width="0.5"/>
          <path id="패스_840190" data-name="패스 840190" d="M270.36,123.32l-.96-.38,1.18-3.04,1.96.76-.8,2.06a1.08,1.08,0,0,1-1.38.62" transform="translate(-215.52 -95.92)" fill="#222"/>
          <path id="패스_840191" data-name="패스 840191" d="M260.3,108.3a1.76,1.76,0,1,1-1-2.28,1.76,1.76,0,0,1,1,2.28" transform="translate(-205.52 -84.717)" fill="#222"/>
          <path id="패스_840192" data-name="패스 840192" d="M272.217,115.179a1.64,1.64,0,1,1-.94-2.12,1.64,1.64,0,0,1,.94,2.12" transform="translate(-215.237 -90.359)" fill="#222"/>
          <path id="패스_840193" data-name="패스 840193" d="M257.7,121.576l1.74-4.5a1.86,1.86,0,0,0-3.46-1.34l-1.24,3.2a1.4,1.4,0,0,0,.8,1.8l1.08.42" transform="translate(-203.715 -91.736)" fill="#fff"/>
          <path id="패스_840194" data-name="패스 840194" d="M257.7,121.576l1.74-4.5a1.86,1.86,0,0,0-3.46-1.34l-1.24,3.2a1.4,1.4,0,0,0,.8,1.8l1.08.42" transform="translate(-203.715 -91.736)" fill="none" stroke="#222" stroke-linecap="round" stroke-miterlimit="10" stroke-width="0.5"/>
          <path id="패스_840195" data-name="패스 840195" d="M273.66,130.8a.633.633,0,1,1-.46,1.18" transform="translate(-218.56 -104.64)" fill="#fff"/>
          <path id="패스_840196" data-name="패스 840196" d="M273.66,130.8a.633.633,0,1,1-.46,1.18" transform="translate(-218.56 -104.64)" fill="none" stroke="#222" stroke-linecap="round" stroke-miterlimit="10" stroke-width="0.5"/>
          <rect id="사각형_318389" data-name="사각형 318389" width="2.98" height="0.708" transform="matrix(0.915, -0.404, 0.404, 0.915, 51.744, 23.711)" fill="#222"/>
          <rect id="사각형_318390" data-name="사각형 318390" width="0.7" height="2.414" transform="matrix(0.915, -0.404, 0.404, 0.915, 54.757, 23.15)" fill="#222"/>
          <path id="패스_840197" data-name="패스 840197" d="M256.355,136.755l-.58-.22a.58.58,0,0,1-.34-.76l.5-1.3a.58.58,0,0,1,.76-.34l.58.22a.58.58,0,0,1,.34.76l-.5,1.3a.58.58,0,0,1-.76.34" transform="translate(-204.315 -107.275)" fill="#222"/>
          <line id="선_126309" data-name="선 126309" x2="0.52" y2="0.2" transform="translate(52.06 27.44)" fill="none" stroke="#fff" stroke-linecap="round" stroke-miterlimit="10" stroke-width="0.6"/>
          <path id="패스_840198" data-name="패스 840198" d="M178.31,64.19l-9.82,1.08a1.982,1.982,0,1,1-.44-3.94l9.82-1.08a1.982,1.982,0,1,1,.44,3.94" transform="translate(-133.03 -48.19)" fill="#e4eff5"/>
          <path id="패스_840199" data-name="패스 840199" d="M178.31,64.19l-9.82,1.08a1.982,1.982,0,1,1-.44-3.94l9.82-1.08a1.982,1.982,0,1,1,.44,3.94Z" transform="translate(-133.03 -48.19)" fill="none" stroke="#222" stroke-linecap="round" stroke-linejoin="round" stroke-width="0.5"/>
          <line id="선_126310" data-name="선 126310" x1="11.96" y2="1.34" transform="translate(35.12 14.62)" fill="#00a4ff"/>
          <line id="선_126311" data-name="선 126311" x1="11.96" y2="1.34" transform="translate(35.12 14.62)" fill="none" stroke="#222" stroke-linejoin="round" stroke-width="0.5"/>
          <path id="패스_840200" data-name="패스 840200" d="M170.72,65.3s1.52,3.7,1.96,3.88l-2.26.18-1.62-3.88Z" transform="translate(-135.04 -52.24)" fill="#222"/>
          <path id="패스_840201" data-name="패스 840201" d="M172.346,61.564a22.32,22.32,0,0,1-10.28,2.88c-11.84.42-21.88-8.52-22.32-19.86a20.2,20.2,0,0,1,5-14.06.56.56,0,0,1,.98.3c1.3,14.56,12.22,26.26,26.44,29.6a.62.62,0,0,1,.18,1.14" transform="translate(-111.786 -24.264)" fill="#ffdd50"/>
          <path id="패스_840202" data-name="패스 840202" d="M172.346,61.564a22.32,22.32,0,0,1-10.28,2.88c-11.84.42-21.88-8.52-22.32-19.86a20.2,20.2,0,0,1,5-14.06.56.56,0,0,1,.98.3c1.3,14.56,12.22,26.26,26.44,29.6a.62.62,0,0,1,.18,1.14Z" transform="translate(-111.786 -24.264)" fill="none" stroke="#222" stroke-linecap="round" stroke-linejoin="round" stroke-width="0.8"/>
          <path id="패스_840203" data-name="패스 840203" d="M172.666,61a.6.6,0,0,1-.32.44,22.34,22.34,0,0,1-10.28,2.88c-11.84.42-21.88-8.52-22.32-19.86a20.2,20.2,0,0,1,5-14.06.56.56,0,0,1,.44-.2,20.72,20.72,0,0,0-3.06,11.82c.54,11.84,11.02,21,23.38,20.42a23.3,23.3,0,0,0,7.16-1.46" transform="translate(-111.786 -24.16)" fill="#e0b603"/>
          <path id="패스_840204" data-name="패스 840204" d="M172.666,61a.6.6,0,0,1-.32.44,22.34,22.34,0,0,1-10.28,2.88c-11.84.42-21.88-8.52-22.32-19.86a20.2,20.2,0,0,1,5-14.06.56.56,0,0,1,.44-.2,20.72,20.72,0,0,0-3.06,11.82c.54,11.84,11.02,21,23.38,20.42a23.3,23.3,0,0,0,7.16-1.44Z" transform="translate(-111.786 -24.16)" fill="none" stroke="#222" stroke-linecap="round" stroke-linejoin="round" stroke-width="0.6"/>
          <g id="그룹_422740" data-name="그룹 422740" transform="translate(38.2 35)" opacity="0.15">
            <g id="그룹_422739" data-name="그룹 422739" clip-path="url(#clip-path-10)">
              <path id="패스_840205" data-name="패스 840205" d="M191.46,175l2.12,1.34s1.62,2.68,0,2.72-1.86-.7-1.86-.7L191,176.3Z" transform="translate(-191 -175)" fill="#222"/>
            </g>
          </g>
          <path id="패스_840206" data-name="패스 840206" d="M202.06,177s4.04,1.88,1.66,3.92l-2.42-.66Z" transform="translate(-161.04 -141.6)" fill="#222"/>
          <path id="패스_840207" data-name="패스 840207" d="M200.6,171.586a1.5,1.5,0,1,1-1.3-1.46,1.387,1.387,0,0,1,1.3,1.46" transform="translate(-158.116 -136.086)" fill="#222"/>
          <path id="패스_840208" data-name="패스 840208" d="M173.244,164.8a1.4,1.4,0,0,1-2,1.84,1.4,1.4,0,0,1-2.7.26,1.4,1.4,0,0,1-2.14-1.2,1.32,1.32,0,0,1,.02-.26h-.02a1.4,1.4,0,0,1-.96-2.44,1.4,1.4,0,0,1,.88-2.44,1.412,1.412,0,0,1,2.08-1.74,1.4,1.4,0,0,1,2.6-.32,1.4,1.4,0,0,1,1.94,1.3h0a1.4,1.4,0,0,1,.82,2.3,1.4,1.4,0,0,1-.5,2.66" transform="translate(-131.984 -126.203)" fill="#e4eff5"/>
          <path id="패스_840209" data-name="패스 840209" d="M173.244,164.8a1.4,1.4,0,0,1-2,1.84,1.4,1.4,0,0,1-2.7.26,1.4,1.4,0,0,1-2.14-1.2,1.32,1.32,0,0,1,.02-.26h-.02a1.4,1.4,0,0,1-.96-2.44,1.4,1.4,0,0,1,.88-2.44,1.412,1.412,0,0,1,2.08-1.74,1.4,1.4,0,0,1,2.6-.32,1.4,1.4,0,0,1,1.94,1.3h0a1.4,1.4,0,0,1,.82,2.3,1.4,1.4,0,0,1-.5,2.66Z" transform="translate(-131.984 -126.203)" fill="none" stroke="#222" stroke-linecap="round" stroke-linejoin="round" stroke-width="0.5"/>
          <path id="패스_840210" data-name="패스 840210" d="M179.94,172.72a2.62,2.62,0,1,1-2.62-2.62,2.62,2.62,0,0,1,2.62,2.62" transform="translate(-139.76 -136.08)" fill="#fff"/>
          <path id="패스_840211" data-name="패스 840211" d="M179.94,172.72a2.62,2.62,0,1,1-2.62-2.62A2.62,2.62,0,0,1,179.94,172.72Z" transform="translate(-139.76 -136.08)" fill="none" stroke="#222" stroke-linecap="round" stroke-linejoin="round" stroke-width="0.5"/>
          <path id="패스_840212" data-name="패스 840212" d="M183.76,178.08a1.18,1.18,0,1,1-1.18-1.18,1.18,1.18,0,0,1,1.18,1.18" transform="translate(-145.12 -141.52)" fill="#c1c1c1"/>
          <path id="패스_840213" data-name="패스 840213" d="M183.76,178.08a1.18,1.18,0,1,1-1.18-1.18A1.18,1.18,0,0,1,183.76,178.08Z" transform="translate(-145.12 -141.52)" fill="none" stroke="#222" stroke-miterlimit="10" stroke-width="0.5"/>
          <g id="그룹_422742" data-name="그룹 422742" transform="translate(35.54 37.5)" opacity="0.1">
            <g id="그룹_422741" data-name="그룹 422741" clip-path="url(#clip-path-11)">
              <path id="패스_840214" data-name="패스 840214" d="M179.5,187.778l1.96,2.8-1.02,1.1-1.4-.56-.82-.78h-.42l.54-2.06.06-.32a.6.6,0,0,1,1.1-.2" transform="translate(-177.78 -187.478)" fill="#111"/>
            </g>
          </g>
          <path id="패스_840215" data-name="패스 840215" d="M118.1,259.4l-.84,15.06a.98.98,0,0,1-.04.3h0a1.3,1.3,0,0,1-2.44-.06h0a1.02,1.02,0,0,1-.04-.24l-.14-1.32c0,.06.06.18.04.24h0a1.34,1.34,0,0,1-2.54.02v-.18h0l-1.26-13.92-.04-.4.18.22c.1,1.26,1.78,1.98,3.64,1.98s3.22-.9,3.46-2.06Z" transform="translate(-88.64 -207.12)" fill="#3673ee"/>
          <line id="선_126312" data-name="선 126312" x1="0.16" y1="3.24" transform="translate(22.06 43.62)" fill="#fff"/>
          <path id="패스_840216" data-name="패스 840216" d="M136.239,344.1a1.08,1.08,0,0,1-.46.86h-.04l-3.22,2.02h-.02a1.36,1.36,0,0,1-.64.16,1.213,1.213,0,0,1-1.26-1.06V344a1.54,1.54,0,0,1,.2-.78h.04l.1.56h0a.92.92,0,0,0,.94.76.9.9,0,0,0,.96-.84l.04-.28h.04l1.8-.42h.26a1.193,1.193,0,0,1,1.26,1.12" transform="translate(-104.479 -274.4)" fill="#262626"/>
          <path id="패스_840217" data-name="패스 840217" d="M133.14,337.96l-.2,1.38-.04.28a.9.9,0,0,1-.96.84.92.92,0,0,1-.94-.76h0l-.1-.56-.2-1.24a1.3,1.3,0,0,0,2.44.06" transform="translate(-104.56 -270.32)" fill="#fff"/>
          <path id="패스_840218" data-name="패스 840218" d="M119.92,331.3l-.18,2.06a.922.922,0,0,1-.98.84.96.96,0,0,1-.96-.66h0v-.14l-.4-2.06a1.34,1.34,0,0,0,2.54-.02" transform="translate(-93.92 -265.04)" fill="#fff"/>
          <path id="패스_840219" data-name="패스 840219" d="M121.566,337.2h0l.2,1.24h-.04a1.54,1.54,0,0,0-.2.78v1.62h-.1a1.36,1.36,0,0,1-.8.26,1.2,1.2,0,0,1-1.26-1.08h0v-.16a7.78,7.78,0,0,1-.06-1.74h.02a.96.96,0,0,0,.96.66.922.922,0,0,0,.98-.84" transform="translate(-95.426 -269.76)" fill="#262626"/>
          <path id="패스_840220" data-name="패스 840220" d="M113.9,208.608l.08.92c-.22,1.16-1.96,2.34-3.74,2.34s-3.4-1-3.48-2.24h-.02l-.24-4.82h0a5.84,5.84,0,0,1-1.14-3.84v-.36a2.36,2.36,0,0,1,1.94-2.16l.78-.14.58.04c-.22-1.08.08-1.02,1.48-.9s1.1,1.04,1.34.6c.08-.14-.02.8.12.82l.36-.04h.06l.08.04,3.68,2.44.3.2a1.68,1.68,0,0,1-1.08,2.96h-.02l-.74-.28h0l-.42-.2Z" transform="translate(-84.276 -157.908)" fill="#fff"/>
          <path id="패스_840221" data-name="패스 840221" d="M159.38,188.654l-.12.36c-.36.48-.3,1.1-.6,1.62l-2.4,4.36a2.22,2.22,0,0,1-2.74,1h-.02a1.68,1.68,0,0,0,1.1-2.96h.04l2.76-3.5a2.08,2.08,0,0,0,.4-.86l.24-.98c.16-.54.26-.48.92-.9.02-.02.3.16.34.16a.789.789,0,0,1,.24.44v.28c.12.52.16.56-.16.98" transform="translate(-122.8 -149.434)" fill="#fff"/>
          <path id="패스_840222" data-name="패스 840222" d="M119.686,175.992l-.5-5.18a1.86,1.86,0,0,1,3.7-.36l.32,3.42a1.4,1.4,0,0,1-1.26,1.52" transform="translate(-95.346 -135.072)" fill="#fff"/>
          <path id="패스_840223" data-name="패스 840223" d="M119.686,175.992l-.5-5.18a1.86,1.86,0,0,1,3.7-.36l.32,3.42a1.4,1.4,0,0,1-1.26,1.52" transform="translate(-95.346 -135.072)" fill="none" stroke="#222" stroke-linecap="round" stroke-miterlimit="10" stroke-width="0.5"/>
          <path id="패스_840224" data-name="패스 840224" d="M119.306,164.08l-4.22.4-.1-1.04a1.06,1.06,0,0,1,.94-1.14l3.16-.3a1.06,1.06,0,0,1,.2,2.1" transform="translate(-91.986 -129.6)" fill="#222"/>
          <path id="패스_840225" data-name="패스 840225" d="M118.62,176.761l-.9.08a1.92,1.92,0,0,1-2.08-1.72l-.14-1.48,1.6-.16a1.2,1.2,0,0,1,1.3,1.08Z" transform="translate(-92.4 -138.781)" fill="#222"/>
          <path id="패스_840226" data-name="패스 840226" d="M118.25,164.772a1.56,1.56,0,1,1-1.7-1.4,1.56,1.56,0,0,1,1.7,1.4" transform="translate(-92.11 -130.692)" fill="#222"/>
          <path id="패스_840227" data-name="패스 840227" d="M128.808,182.6a.633.633,0,0,0,.12,1.26" transform="translate(-102.588 -146.08)" fill="#fff"/>
          <path id="패스_840228" data-name="패스 840228" d="M128.808,182.6a.633.633,0,0,0,.12,1.26" transform="translate(-102.588 -146.08)" fill="none" stroke="#222" stroke-linecap="round" stroke-miterlimit="10" stroke-width="0.5"/>
          <g id="그룹_422744" data-name="그룹 422744" transform="translate(27.28 45.42)" opacity="0.15">
            <g id="그룹_422743" data-name="그룹 422743" clip-path="url(#clip-path-12)">
              <path id="패스_840229" data-name="패스 840229" d="M136.4,227.13h0a3.4,3.4,0,0,1,2.18.52v3.32Z" transform="translate(-136.4 -227.11)" fill="#222"/>
            </g>
          </g>
          <path id="패스_840230" data-name="패스 840230" d="M124.2,281.4l.98,1.12-.22-1.04Z" transform="translate(-99.36 -225.12)" fill="#222"/>
          <g id="그룹_422746" data-name="그룹 422746" transform="translate(21.06 37.86)" opacity="0.15">
            <g id="그룹_422745" data-name="그룹 422745" clip-path="url(#clip-path-13)">
              <path id="패스_840231" data-name="패스 840231" d="M109.022,189.361l.12,3.52-.42,12.22s-.22,1.68.68,2.42l.54.68.3,9.76.26,1.36-1.36,1.18h-.72a22.61,22.61,0,0,1-1.08-7.42l-.9-10.96v-4.24a4.156,4.156,0,0,1-1.06-3.6,2.357,2.357,0,0,1,2.32-2.44l.98-.14-.28-2.26c.02-.14.6-.2.62-.06" transform="translate(-105.342 -189.301)" fill="#222"/>
            </g>
          </g>
          <line id="선_126313" data-name="선 126313" x1="0.04" y1="0.02" transform="translate(31.8 43.6)" fill="none" stroke="#222" stroke-linecap="round" stroke-linejoin="round" stroke-width="0.5"/>
          <path id="패스_840232" data-name="패스 840232" d="M157.8,217.2l-.3-.2Z" transform="translate(-126 -173.6)" fill="none" stroke="#222" stroke-linecap="round" stroke-linejoin="round" stroke-width="0.5"/>
          <path id="패스_840233" data-name="패스 840233" d="M137.4,226.863c.68-.16,1.2.28,1.84.54" transform="translate(-109.92 -181.463)" fill="none" stroke="#222" stroke-linecap="round" stroke-linejoin="round" stroke-width="0.5"/>
          <line id="선_126314" data-name="선 126314" y1="15.72" x2="1.08" transform="translate(28.62 51.62)" fill="none" stroke="#222" stroke-linecap="round" stroke-linejoin="round" stroke-width="0.5"/>
          <line id="선_126315" data-name="선 126315" x1="1.3" y1="14.22" transform="translate(22.14 51.76)" fill="none" stroke="#222" stroke-linecap="round" stroke-linejoin="round" stroke-width="0.5"/>
          <line id="선_126316" data-name="선 126316" x1="0.16" y1="3.24" transform="translate(22.06 43.62)" fill="none" stroke="#222" stroke-linecap="round" stroke-linejoin="round" stroke-width="0.5"/>
          <path id="패스_840234" data-name="패스 840234" d="M119.466,344.4v-.16a7.78,7.78,0,0,1-.06-1.74" transform="translate(-95.506 -274)" fill="none" stroke="#222" stroke-linecap="round" stroke-linejoin="round" stroke-width="0.5"/>
          <path id="패스_840235" data-name="패스 840235" d="M118.14,253.1a1.94,1.94,0,0,1,.12.68,1.78,1.78,0,0,1-.04.36c-.24,1.3-1.84,2.3-3.74,2.3s-3.68-1.12-3.78-2.52v-.14" transform="translate(-88.56 -202.48)" fill="none" stroke="#222" stroke-linecap="round" stroke-linejoin="round" stroke-width="0.5"/>
          <path id="패스_840236" data-name="패스 840236" d="M132.62,336.7a1.193,1.193,0,0,1-1.26,1.12A1.29,1.29,0,0,1,130,336.7" transform="translate(-104 -269.36)" fill="none" stroke="#222" stroke-linecap="round" stroke-linejoin="round" stroke-width="0.5"/>
          <path id="패스_840237" data-name="패스 840237" d="M119.72,330.68a1.3,1.3,0,0,1-1.22.76,1.233,1.233,0,0,1-1.3-1.14" transform="translate(-93.76 -264.24)" fill="none" stroke="#222" stroke-linecap="round" stroke-linejoin="round" stroke-width="0.5"/>
          <path id="패스_840238" data-name="패스 840238" d="M121.34,340.9a1.055,1.055,0,0,1-2.04.1" transform="translate(-95.44 -272.72)" fill="none" stroke="#222" stroke-linecap="round" stroke-linejoin="round" stroke-width="0.5"/>
          <path id="패스_840239" data-name="패스 840239" d="M134.1,346.5a.9.9,0,0,1-.96.84.92.92,0,0,1-.94-.76" transform="translate(-105.76 -277.2)" fill="none" stroke="#222" stroke-linecap="round" stroke-linejoin="round" stroke-width="0.5"/>
          <path id="패스_840240" data-name="패스 840240" d="M132.5,358.46a1.36,1.36,0,0,1-.64.16,1.193,1.193,0,0,1-1.26-1.12,1,1,0,0,1,.02-.2" transform="translate(-104.48 -285.84)" fill="none" stroke="#222" stroke-linecap="round" stroke-linejoin="round" stroke-width="0.5"/>
          <path id="패스_840241" data-name="패스 840241" d="M151.7,343h.16a1.193,1.193,0,0,1,1.26,1.12,1.08,1.08,0,0,1-.46.86" transform="translate(-121.36 -274.4)" fill="none" stroke="#222" stroke-linecap="round" stroke-linejoin="round" stroke-width="0.5"/>
          <path id="패스_840242" data-name="패스 840242" d="M121.76,352.12a1.34,1.34,0,0,1-.8.26,1.2,1.2,0,0,1-1.26-1.08" transform="translate(-95.76 -281.04)" fill="none" stroke="#222" stroke-linecap="round" stroke-linejoin="round" stroke-width="0.5"/>
          <line id="선_126317" data-name="선 126317" x1="0.24" y2="1.66" transform="translate(28.34 67.64)" fill="none" stroke="#222" stroke-linecap="round" stroke-linejoin="round" stroke-width="0.5"/>
          <path id="패스_840243" data-name="패스 840243" d="M125.78,292.039l-.36-10.46a.7.7,0,0,0-.72-.68" transform="translate(-99.76 -224.719)" fill="none" stroke="#222" stroke-linecap="round" stroke-linejoin="round" stroke-width="0.5"/>
          <line id="선_126318" data-name="선 126318" y1="2.02" x2="3.22" transform="translate(28.04 70.6)" fill="none" stroke="#222" stroke-linecap="round" stroke-linejoin="round" stroke-width="0.5"/>
          <line id="선_126319" data-name="선 126319" x1="1.82" y2="0.4" transform="translate(28.42 68.62)" fill="none" stroke="#222" stroke-linecap="round" stroke-linejoin="round" stroke-width="0.5"/>
          <path id="패스_840244" data-name="패스 840244" d="M130.6,347v-2.12a1.54,1.54,0,0,1,.2-.78" transform="translate(-104.479 -275.28)" fill="none" stroke="#222" stroke-linecap="round" stroke-linejoin="round" stroke-width="0.5"/>
          <line id="선_126320" data-name="선 126320" x1="0.24" y1="1.44" transform="translate(26.22 67.98)" fill="none" stroke="#222" stroke-linecap="round" stroke-linejoin="round" stroke-width="0.5"/>
          <line id="선_126321" data-name="선 126321" x1="0.42" y1="2.2" transform="translate(23.44 66.16)" fill="none" stroke="#222" stroke-linecap="round" stroke-linejoin="round" stroke-width="0.5"/>
          <line id="선_126322" data-name="선 126322" y1="2.16" x2="0.06" transform="translate(25.9 66.16)" fill="none" stroke="#222" stroke-linecap="round" stroke-linejoin="round" stroke-width="0.5"/>
          <path id="패스_840245" data-name="패스 840245" d="M106.39,213.5l.08-4.54h0a5.84,5.84,0,0,1-1.12-3.84v-.36a2.36,2.36,0,0,1,1.94-2.16h1.24c.22.42-.32.86,1.08.98a2.221,2.221,0,0,0,1.96-.46c.62-.32,4.2,2.36,4.2,2.36l.3.2a1.68,1.68,0,0,1,.52,1.78,1.52,1.52,0,0,1-2.12.96l-.86-.38.28,4.74" transform="translate(-84.27 -162.08)" fill="none" stroke="#222" stroke-linecap="round" stroke-linejoin="round" stroke-width="0.5"/>
          <path id="패스_840246" data-name="패스 840246" d="M149,195.483l.94.4a2.22,2.22,0,0,0,2.74-1l2.6-5.16s1.26-2.18.3-2.94-1.44,2.06-1.96,2.56l-2.76,3.38" transform="translate(-119.2 -149.323)" fill="none" stroke="#222" stroke-linecap="round" stroke-linejoin="round" stroke-width="0.5"/>
          <line id="선_126323" data-name="선 126323" x1="0.06" y1="0.76" transform="translate(27.26 40.16)" fill="#fff"/>
          <line id="선_126324" data-name="선 126324" x1="0.06" y1="0.76" transform="translate(27.26 40.16)" fill="none" stroke="#222" stroke-linecap="round" stroke-miterlimit="10" stroke-width="0.5"/>
          <path id="패스_840247" data-name="패스 840247" d="M198.5,82.28l1.78.58-.5-.86Z" transform="translate(-158.8 -65.6)" fill="#222"/>
        </g>
      </g>
    </g>
  </g>
</svg>
