<svg xmlns="http://www.w3.org/2000/svg" width="24" height="24"><defs><clipPath id="a"><path data-name="사각형 295573" fill="none" d="M0 0h24v24H0z"/></clipPath></defs><g data-name="icon_help_on_24" clip-path="url(#a)"><g data-name="그룹 385019" clip-path="url(#a)"><path data-name="패스 779681" d="M9.2 1.5A8.2 8.2 0 111 9.7a8.2 8.2 0 018.2-8.2" fill="#cbdbfa"/><path data-name="선 113318" fill="none" stroke="#3673ee" stroke-linecap="round" stroke-width="1.5" d="M21.8 3.2h1.4"/><path data-name="선 113319" fill="none" stroke="#3673ee" stroke-width="1.5" d="M14 3.2h7.8"/><path data-name="선 113320" fill="none" stroke="#3673ee" stroke-linecap="round" stroke-miterlimit="10" stroke-width="1.5" d="M21.8 10h1.4"/><path data-name="선 113321" fill="none" stroke="#3673ee" stroke-miterlimit="10" stroke-width="1.5" d="M17.4 10h4.4"/><path data-name="선 113322" fill="none" stroke="#3673ee" stroke-linecap="round" stroke-width="1.5" d="M21.8 16.6h1.4"/><path data-name="선 113323" fill="none" stroke="#3673ee" stroke-width="1.5" d="M17 16.6h4.8"/><circle data-name="타원 9677" cx="8.2" cy="8.2" r="8.2" transform="translate(1 1.5)" fill="none" stroke="#3673ee" stroke-miterlimit="10" stroke-width="1.5"/><path data-name="선 113324" fill="none" stroke="#3673ee" stroke-linecap="round" stroke-miterlimit="10" stroke-width="1.5" d="M17.7 22.5h5.5"/><path data-name="선 113325" fill="none" stroke="#3673ee" stroke-miterlimit="10" stroke-width="1.5" d="M2.5 22.5h15.2"/><path data-name="패스 779682" d="M7.1 6.2l1.3-.5h.9a2.9 2.9 0 011.6.4 1.6 1.6 0 01.7 1.4 2.2 2.2 0 01-1 1.5h-.2l-.8.6a.5.5 0 00-.3.4q0 .6-.7.6t-.8-.9a1.5 1.5 0 01.6-.7l1-.7a1 1 0 00.5-.8q0-.7-.9-.7a2.3 2.3 0 00-1.4.5zm1.7 5.9a1.1 1.1 0 01.7.3.8.8 0 01.3.7.9.9 0 01-.3.7 1.1 1.1 0 01-.7.3 1.1 1.1 0 01-.7-.3.9.9 0 01-.3-.7.8.8 0 01.3-.7 1.1 1.1 0 01.7-.3" fill="#3673ee"/><path data-name="패스 779683" d="M7.1 6.2l1.3-.5h.9a2.9 2.9 0 011.6.4 1.6 1.6 0 01.7 1.4 2.2 2.2 0 01-1 1.5h-.2l-.8.6a.5.5 0 00-.3.4h0q0 .6-.7.6t-.8-.9a1.5 1.5 0 01.6-.7l1-.7a1 1 0 00.5-.8q0-.7-.9-.7a2.3 2.3 0 00-1.4.5zm1.7 5.9a1.1 1.1 0 01.7.3.8.8 0 01.3.7.9.9 0 01-.3.7 1.1 1.1 0 01-.7.3 1.1 1.1 0 01-.7-.3.9.9 0 01-.3-.7.8.8 0 01.3-.7 1.1 1.1 0 01.7-.3z" fill="none" stroke="#3673ee" stroke-width=".1"/></g></g></svg>