<svg xmlns="http://www.w3.org/2000/svg" xmlns:xlink="http://www.w3.org/1999/xlink" width="27" height="27" viewBox="0 0 27 27">
  <defs>
    <clipPath id="clip-path">
      <rect id="사각형_292995" data-name="사각형 292995" width="27" height="27" fill="none"/>
    </clipPath>
  </defs>
  <g id="icon_detailing_on_27" transform="translate(13.5 13.5)">
    <g id="그룹_382452" data-name="그룹 382452" transform="translate(-13.5 -13.5)" clip-path="url(#clip-path)">
      <g id="그룹_382451" data-name="그룹 382451" clip-path="url(#clip-path)">
        <path id="패스_776789" data-name="패스 776789" d="M24.8,19.1a3.9,3.9,0,0,1-6.9,2.4.6.6,0,0,0-.8-.1A9.9,9.9,0,0,1,10.7,23a10,10,0,1,1,11-10,9.9,9.9,0,0,1-.3,2.3,3.9,3.9,0,0,1,3.3,3.8" fill="#cbdbfa"/>
        <path id="패스_776790" data-name="패스 776790" d="M25.7,5a2,2,0,1,1-2-2,2,2,0,0,1,2,2" fill="#cbdbfa"/>
        <g id="그룹_382450" data-name="그룹 382450" opacity="0">
          <g id="그룹_382449" data-name="그룹 382449" clip-path="url(#clip-path)">
            <rect id="사각형_292992" data-name="사각형 292992" width="27" height="27" fill="#f0f"/>
          </g>
        </g>
        <path id="패스_776791" data-name="패스 776791" d="M24.8,19.1a3.9,3.9,0,0,1-6.9,2.4.6.6,0,0,0-.8-.1A9.9,9.9,0,0,1,10.7,23a10,10,0,1,1,11-10,9.9,9.9,0,0,1-.3,2.3A3.9,3.9,0,0,1,24.8,19.1Z" fill="none" stroke="#3673ee" stroke-linejoin="round" stroke-width="1.5"/>
        <path id="패스_776792" data-name="패스 776792" d="M17.3,17.7A3.9,3.9,0,0,1,21,15.2h.3" fill="none" stroke="#3673ee" stroke-linejoin="round" stroke-width="1.5"/>
        <path id="패스_776793" data-name="패스 776793" d="M6.8,8.3a4,4,0,0,1,3.4-1.9" fill="none" stroke="#3673ee" stroke-linecap="round" stroke-linejoin="round" stroke-width="1.5"/>
        <path id="패스_776794" data-name="패스 776794" d="M6.1,9.6a6.2,6.2,0,0,1,.7-1.3" fill="none" stroke="#3673ee" stroke-linejoin="round" stroke-width="1.5"/>
        <path id="패스_776795" data-name="패스 776795" d="M25.7,5a2,2,0,1,1-2-2A2,2,0,0,1,25.7,5Z" fill="none" stroke="#3673ee" stroke-width="1.5"/>
      </g>
    </g>
  </g>
</svg>
