<svg xmlns="http://www.w3.org/2000/svg" width="26.771" height="20.952"><defs><linearGradient id="a" x1="-.158" y1=".5" x2="1.382" y2=".5" gradientUnits="objectBoundingBox"><stop offset="0" stop-color="#ddd"/><stop offset="1" stop-color="#a8a7a1"/></linearGradient></defs><path d="M90.7 213.481h-8.421v3.845H90.7zm0-12.7h-5.91a2.374 2.374 0 00-2.513 2.206v1.057H90.7zm-8.423 18.746a2.374 2.374 0 002.513 2.205h21.746a2.374 2.374 0 002.513-2.205v-1.918h-26.77zm8.423-15.2h-8.421v4.269H90.7zm0 4.549h-8.421v4.324H90.7zm9.444-8.092h-9.123v16.548h9.125v-8.742h8.9v-4.269h-8.9zm.319 16.548h8.585v-3.845h-8.585zm6.072-16.548h-6.072v3.262h8.585v-1.057a2.374 2.374 0 00-2.51-2.211zm-6.07 12.416h8.585v-4.33h-8.585z" transform="translate(-82.279 -200.778)" fill-rule="evenodd" fill="url(#a)"/></svg>