<svg xmlns="http://www.w3.org/2000/svg" width="28" height="28"><defs><clipPath id="a"><path fill="none" d="M0 0h28v28H0z"/></clipPath><style>.f{fill:none}.b{clip-path:url(#a)}.c{fill:#fddb2b}.f{stroke:#111;stroke-miterlimit:10}</style></defs><g class="b"><path class="c" d="M14 0A14 14 0 110 14 14 14 0 0114 0"/><circle cx="13.5" cy="13.5" r="13.5" transform="translate(.5 .5)" stroke="#fccb3a" fill="none"/></g><path fill="#fff" d="M8 10h11v8H8z"/><path class="f" d="M11 7.8v3M14 9.3h-3M15 7.8v3"/><g class="b"><path class="f" d="M15 9.3h3.5v8H8.3A1.3 1.3 0 017 15.9V9.3h2"/><path class="c" d="M20.3 16.3A3.3 3.3 0 1117 13a3.2 3.2 0 013.3 3.3"/><circle class="f" cx="3.2" cy="3.2" r="3.2" transform="translate(13.8 13.1)"/><path class="f" d="M17 14.6v1.7l1.1 1.1"/></g></svg>