<svg xmlns="http://www.w3.org/2000/svg" width="48.491" height="10.543"><defs><style>.a{fill:#fa2828}</style></defs><path class="a" d="M4.672.112h-3.5A1.149 1.149 0 00-.004 1.231v8.09a1.178 1.178 0 002.353 0V7.239h2.319a3.9 3.9 0 002.7-1.04 3.443 3.443 0 001.1-2.524A3.527 3.527 0 004.672.112zm-.168 5.1H2.353V2.141h2.151a1.536 1.536 0 110 3.071zM14.51.766A1.437 1.437 0 0013.138 0a1.527 1.527 0 00-1.362.746L9.113 6.48a.99.99 0 00-.232.5l-.927 2a1.048 1.048 0 00.577 1.4 1.166 1.166 0 00.448.09 1.124 1.124 0 001.026-.639l.758-1.693h4.812c.445.987.752 1.675.764 1.7a1.144 1.144 0 001.479.542 1.047 1.047 0 00.569-1.408zm-2.838 5.345l1.475-3.3c.455.975 1 2.17 1.513 3.3zM26.512.286a1.186 1.186 0 00-1.6.249L22.058 4.31 19.197.525a1.185 1.185 0 00-1.6-.249 1.06 1.06 0 00-.261 1.526l3.514 4.649V9.34a1.178 1.178 0 002.352 0v-2.8l3.576-4.731a1.059 1.059 0 00-.266-1.523zM46.83 1.497a6.159 6.159 0 00-8.055.01 5.011 5.011 0 00-1.673 3.739 5.71 5.71 0 0011.39 0 5.022 5.022 0 00-1.662-3.749zm-4.033 6.957a3.182 3.182 0 113.251-3.209 3.234 3.234 0 01-3.251 3.209zM35.958 7.507a1.3 1.3 0 00-.922.026 3.165 3.165 0 00-.336.22c-.062.05-.125.1-.192.142a3.325 3.325 0 01-1.891.559 3.181 3.181 0 110-6.36 3.317 3.317 0 011.583.4c.034.018.068.037.1.057a1.948 1.948 0 01.266.174 1.46 1.46 0 00.9.289 1.162 1.162 0 00.913-.518 1.084 1.084 0 00-.225-1.407 4.356 4.356 0 00-.455-.31 6.027 6.027 0 00-3.087-.772 5.877 5.877 0 00-4.011 1.461 5.11 5.11 0 00-1.684 3.779c0 3.2 2.52 5.294 5.695 5.294a5.858 5.858 0 002.607-.6q.157-.078.308-.165c.174-.114.4-.267.6-.422a1.1 1.1 0 00.482-1.047 1.065 1.065 0 00-.651-.8z"/></svg>