<svg xmlns="http://www.w3.org/2000/svg" xmlns:xlink="http://www.w3.org/1999/xlink" width="16" height="16" viewBox="0 0 16 16"><defs><style>.a{fill:none;}.b{clip-path:url(#a);}.c{opacity:0;}.d{fill:red;}.e{clip-path:url(#d);}.f{fill:#999;}</style><clipPath id="a"><rect class="a" width="16" height="16"/></clipPath><clipPath id="d"><rect class="a" width="3" height="15" transform="translate(6.5 0.5)"/></clipPath></defs><g transform="translate(8 8)"><g class="b" transform="translate(-8 -8)"><g class="b"><g class="c"><g class="b"><rect class="d" width="16" height="16"/></g></g><g class="c"><g class="e"><rect class="f" width="3" height="15" transform="translate(6.5 0.5)"/></g></g><path class="f" d="M6.5,14A1.5,1.5,0,1,1,8,15.5,1.5,1.5,0,0,1,6.5,14m0-6A1.5,1.5,0,1,1,8,9.5,1.5,1.5,0,0,1,6.5,8m0-6A1.5,1.5,0,1,1,8,3.5,1.5,1.5,0,0,1,6.5,2"/></g></g></g></svg>