<svg xmlns="http://www.w3.org/2000/svg" xmlns:xlink="http://www.w3.org/1999/xlink" width="16" height="16" viewBox="0 0 16 16"><defs><style>.a,.d{fill:none;}.b{opacity:0;}.c{clip-path:url(#a);}.d{stroke:#111;stroke-width:1.5px;}.e{fill:#111;}.f{fill:#f0f;}</style><clipPath id="a"><rect class="a" width="16" height="16"/></clipPath></defs><g class="b" transform="translate(8 8)"><g class="c" transform="translate(-8 -8)"><g class="c"><g class="b"><g class="c"><rect class="d" width="14.5" height="14.5" transform="translate(0.8 0.8)"/></g></g></g><path class="e" d="M6.3,10.2l.3-.9-.7-.6L4.4,7.3H7.1l.4-1,.7-1.7L9,6.4l.4.9h2.5L10.3,8.7l-.7.6.3.9.5,1.6L8.9,10.7,8,10.1l-.9.6-1.2.9ZM6,5.8H.5l4.4,4L3.2,15.5,8,11.9l5.1,3.6L11.4,9.8l4.1-4H10.2L8,.5Z"/></g></g><g transform="translate(8 8)"><g class="c" transform="translate(-8 -8)"><g class="c"><g class="b"><g class="c"><rect class="f" width="16" height="16"/></g></g></g><path class="e" d="M6,5.8H.5l4.4,4L3.2,15.5,8,11.9l5.1,3.6L11.4,9.8l4.1-4H10.2L8,.5Z"/></g></g></svg>