<svg xmlns="http://www.w3.org/2000/svg" xmlns:xlink="http://www.w3.org/1999/xlink" width="20" height="20" viewBox="0 0 20 20"><defs><style>.a{fill:#d5d5d5;}.b,.g{fill:none;}.c{clip-path:url(#a);}.d{clip-path:url(#b);}.e{opacity:0;}.f{fill:#f0f;}.g{stroke:#111;stroke-linejoin:round;stroke-width:1.5px;}</style><clipPath id="a"><rect class="a" width="20" height="20"/></clipPath><clipPath id="b"><rect class="b" width="20" height="20"/></clipPath></defs><g class="c"><g transform="translate(10 10)"><g class="d" transform="translate(-10 -10)"><g class="d"><g class="e"><g class="d"><rect class="f" width="20" height="20"/></g></g><path class="g" d="M6.9,13H5.7a1.6,1.6,0,0,1-1.6-1.6V10.2A5.5,5.5,0,0,1,1.7,4.7H6.9"/><path class="g" d="M8.9,1.5H16a1.6,1.6,0,0,1,1.6,1.6V16.5H7.3V3.1A1.6,1.6,0,0,1,8.9,1.5Z"/><rect class="g" width="5.1" height="2.77" transform="translate(9.9 4.7)"/><path class="g" d="M8.5,16.5V19h7.9V16.5"/></g></g></g></g></svg>