<svg xmlns="http://www.w3.org/2000/svg" xmlns:xlink="http://www.w3.org/1999/xlink" width="20" height="20" viewBox="0 0 20 20"><defs><style>.a,.g,.h{fill:none;}.b{clip-path:url(#a);}.c{opacity:0;}.d{fill:#f0f;}.e{fill:#fff;}.f{fill:#111;}.g,.h{stroke:#111;stroke-miterlimit:10;stroke-width:1.5px;}.g{stroke-linecap:round;}</style><clipPath id="a"><rect class="a" width="20" height="20"/></clipPath></defs><g transform="translate(10 10)"><g class="b" transform="translate(-10 -10)"><g class="b"><g class="c"><g class="b"><rect class="d" width="20" height="20"/></g></g></g><g class="b"><path class="e" d="M3.6,4.5H19.3a.7.7,0,0,1,.7.7V19.3a.7.7,0,0,1-.7.7H6.9a4,4,0,0,1-4-4V5.2a.7.7,0,0,1,.7-.7"/><rect class="f" width="4.1" height="1.5" transform="translate(6.2 1.3)"/><path class="f" d="M16.5,17.7H4.5A4.5,4.5,0,0,1,0,13.2V2a.7.7,0,0,1,.8-.7H3.5a.8.8,0,0,1,0,1.5h-2V13.2a3,3,0,0,0,3,3H15.7V2.8h-4a.8.8,0,0,1,0-1.5h4.8a.8.8,0,0,1,.8.8V17a.8.8,0,0,1-.7.8"/><path class="f" d="M8.2,12l-.5-.2L5.4,9.6a.743.743,0,0,1,1-1.1l1.8,1.7L11.6,7a.8.8,0,0,1,1,1.1L8.7,11.8l-.5.2"/><line class="g" y2="1.5" transform="translate(6.2 2.1)"/><line class="h" y2="2.1" transform="translate(6.2)"/><line class="g" y2="1.5" transform="translate(11.7 2.1)"/><line class="h" y2="2.1" transform="translate(11.7)"/></g></g></g></svg>