<svg xmlns="http://www.w3.org/2000/svg" width="38" height="38"><defs><clipPath id="a"><path data-name="사각형 127028" fill="none" d="M0 0h24v24H0z"/></clipPath></defs><g data-name="그룹 134216"><g data-name="그룹 124234"><g data-name="타원 4810" fill="#ff2d5d" stroke="#ef2242"><circle cx="19" cy="19" r="19" stroke="none"/><circle cx="19" cy="19" r="18.5" fill="none"/></g></g><g data-name="그룹 141858" transform="translate(7 7)" clip-path="url(#a)"><path data-name="선 43128" fill="none" stroke="#fff" stroke-linecap="round" stroke-miterlimit="10" stroke-width="1.286" d="M8.486 16.2l-.6-.6"/><path data-name="선 43129" fill="none" stroke="#fff" stroke-linecap="square" stroke-miterlimit="10" stroke-width="1.286" d="M9.086 16.714l-.6-.514"/><g data-name="그룹 141857" clip-path="url(#a)"><path data-name="패스 312982" d="M12.686 3.686L2.057 14.229 8.228 20.4h0l.6.6s1.714 1.714 4.371-1.029l8.4-8.4-1.285-7.114-7.028-1.371-.6.6" fill="none" stroke="#fff" stroke-linecap="round" stroke-linejoin="round" stroke-width="1.286"/><path data-name="패스 312983" d="M15.686 7.886A1.114 1.114 0 1114.572 9a1.114 1.114 0 011.114-1.114m0-1.286a2.4 2.4 0 102.4 2.4 2.4 2.4 0 00-2.4-2.4" fill="#fff"/></g></g></g></svg>