<svg xmlns="http://www.w3.org/2000/svg" width="100" height="100"><defs><clipPath id="clip-path"><path id="사각형_254987" data-name="사각형 254987" class="cls-1" d="M0 0h100v100H0z"/></clipPath><clipPath id="clip-path-4"><path id="사각형_254985" data-name="사각형 254985" class="cls-1" d="M0 0h15.313v8.206H0z"/></clipPath><style>.cls-1,.cls-6,.cls-8{fill:none}.cls-2{clip-path:url(#clip-path)}.cls-5{fill:#fff}.cls-6{stroke:#000001}.cls-6,.cls-8{stroke-linejoin:round}.cls-6{stroke-width:.833px}.cls-7{fill:#ea002c}.cls-8{stroke:#fff;stroke-width:1.667px;stroke-linecap:round}.cls-10{fill:#222}</style></defs><g id="null_100x100" transform="translate(50 50)"><g id="null_100x100-2" data-name="null_100x100" class="cls-2" transform="translate(-50 -50)"><g id="그룹_335935" data-name="그룹 335935" class="cls-2"><path id="패스_680988" data-name="패스 680988" d="M50 0A50 50 0 110 50 50.013 50.013 0 0150 0" fill="#f9f9f9"/><path id="패스_680989" data-name="패스 680989" d="M50 100a50 50 0 1150-50 50.066 50.066 0 01-50 50m0-99a49 49 0 1049 49A49.053 49.053 0 0050 1" fill="#f0f0f0"/></g><g id="그룹_335938" data-name="그룹 335938" class="cls-2"><path id="패스_680990" data-name="패스 680990" class="cls-5" d="M209.608 119.892a10.87 10.87 0 11-10.854-10.292 10.578 10.578 0 0110.854 10.292" transform="translate(-148.754 -86.767)"/><path id="패스_680991" data-name="패스 680991" class="cls-6" d="M209.608 119.892a10.87 10.87 0 11-10.854-10.292 10.578 10.578 0 0110.854 10.292z" transform="translate(-148.754 -86.767)"/><path id="패스_680992" data-name="패스 680992" class="cls-7" d="M209.608 131.092a10.87 10.87 0 11-10.854-10.292 10.578 10.578 0 0110.854 10.292" transform="translate(-148.754 -95.633)"/><path id="패스_680993" data-name="패스 680993" class="cls-6" d="M209.608 131.092a10.87 10.87 0 11-10.854-10.292 10.578 10.578 0 0110.854 10.292z" transform="translate(-148.754 -95.633)"/><path id="선_93151" data-name="선 93151" class="cls-7" transform="translate(47.417 32.875)" d="M5.167 0L0 5.167"/><path id="선_93152" data-name="선 93152" class="cls-8" transform="translate(47.417 32.875)" d="M5.167 0L0 5.167"/><path id="선_93153" data-name="선 93153" class="cls-7" transform="translate(47.417 32.875)" d="M0 0l5.167 5.167"/><path id="선_93154" data-name="선 93154" class="cls-8" transform="translate(47.417 32.875)" d="M0 0l5.167 5.167"/><path id="패스_680994" data-name="패스 680994" d="M348.929 229.758l-.979.563-5.75.271h-1.1l2.583 1.5q.9.521.271.854a1.507 1.507 0 01-1.5-.167l-4.75-2.75.979-.562 5.729-.271h1.125l-2.917-1.687 1.229-.708z" transform="translate(-267.346 -179.55)"/><path id="패스_680995" data-name="패스 680995" d="M382.408 268.167l-1.042-.042-3.542-1.562-.667-.312.167 1.4q.062.479-.6.458t-.708-.5L375.7 265l1.063.042 3.521 1.563.667.313-.187-1.583 1.313.063z" transform="translate(-297.429 -209.792)"/><path id="패스_680996" data-name="패스 680996" d="M376.606 291.058l-.771-.146-2.1-1.5-.4-.292-.375.979q-.125.333-.6.25t-.354-.437l.687-1.812.792.167 2.083 1.5.4.292.417-1.1.979.188z" transform="translate(-294.481 -228.079)"/><path id="패스_680997" data-name="패스 680997" d="M72.688 63.77c-4.687 2.708-12.875 2.375-18.292-.75s-6-7.854-1.312-10.562 12.875-2.375 18.292.75 5.999 7.854 1.312 10.562z" stroke="#000" stroke-miterlimit="10" stroke-width=".208" fill="none"/><path id="패스_680998" data-name="패스 680998" class="cls-10" d="M176.029 254.642c-.4-1.729-1.854-3.458-4.271-4.854-5.312-3.062-13.354-3.4-17.958-.75l-23.9 13.792a5.75 5.75 0 00-2.979 3.521 4.229 4.229 0 01-.125-1c0-1.687 1.021-3.292 3.1-4.5l23.875-13.792c4.6-2.667 12.646-2.333 17.958.75 3.375 1.958 4.854 4.542 4.271 6.854" transform="translate(-100.383 -194.163)"/><path id="패스_680999" data-name="패스 680999" d="M75.646 60.479c-.4-1.729-1.854-3.458-4.271-4.854-5.312-3.062-13.354-3.4-17.958-.75l-23.9 13.792a5.75 5.75 0 00-2.979 3.521 4.229 4.229 0 01-.125-1c0-1.687 1.021-3.292 3.1-4.5l23.875-13.792c4.6-2.667 12.646-2.333 17.958.75 3.404 1.937 4.863 4.52 4.3 6.833z" stroke="#222" stroke-linecap="round" stroke-width=".833" stroke-linejoin="round" fill="none"/><path id="패스_681000" data-name="패스 681000" d="M176.5 262.084a5.873 5.873 0 01-2.979 3.521l-23.9 13.792c-4.6 2.667-12.646 2.333-17.958-.75-2.437-1.4-3.875-3.146-4.271-4.875a5.873 5.873 0 012.979-3.521l23.875-13.792c4.6-2.667 12.646-2.333 17.958.75 2.438 1.4 3.875 3.146 4.271 4.854" transform="translate(-100.858 -201.604)" fill="#e2e2e2"/><path id="패스_681001" data-name="패스 681001" d="M75.642 60.48a5.873 5.873 0 01-2.979 3.521l-23.9 13.792c-4.6 2.667-12.646 2.333-17.958-.75-2.437-1.4-3.875-3.146-4.271-4.875a5.873 5.873 0 012.979-3.521l23.875-13.792c4.6-2.667 12.646-2.333 17.958.75 2.446 1.416 3.883 3.166 4.296 4.875z" stroke-width=".833" stroke="#222" stroke-linejoin="round" fill="none"/><path id="패스_681002" data-name="패스 681002" class="cls-10" d="M165.632 329.3v2.875c0 1.5-1 3-3 4.146a15.888 15.888 0 01-14.375.021c-2-1.146-2.979-2.667-2.958-4.187V329.3" transform="translate(-115.028 -260.696)"/><path id="패스_681003" data-name="패스 681003" d="M50.604 68.604v2.875c0 1.5-1 3-3 4.146a15.888 15.888 0 01-14.375.021c-2-1.146-2.979-2.667-2.958-4.187v-2.855" stroke-width=".833" stroke="#222" stroke-linejoin="round" fill="none"/><path id="패스_681004" data-name="패스 681004" class="cls-5" d="M148.31 302.829a15.888 15.888 0 0114.375-.021c3.958 2.292 3.938 6-.042 8.292a15.888 15.888 0 01-14.375.021c-3.958-2.292-3.937-6 .042-8.292" transform="translate(-115.039 -238.371)"/><path id="패스_681005" data-name="패스 681005" d="M33.271 64.458a15.888 15.888 0 0114.375-.021c3.958 2.292 3.938 6-.042 8.292a15.888 15.888 0 01-14.375.021c-3.958-2.292-3.937-5.979.042-8.292z" stroke-width=".833" stroke="#222" stroke-linecap="round" stroke-linejoin="round" fill="none"/><path id="패스_681006" data-name="패스 681006" class="cls-10" d="M247.879 299.1a4.583 4.583 0 012.458-.708 5 5 0 012.417.563q1.208.625 1.229 1.438a1.565 1.565 0 01-.983 1.377 4.625 4.625 0 01-2.458.708 5 5 0 01-2.417-.562q-1.229-.646-1.229-1.437a1.648 1.648 0 011-1.375m.979.521q-.75.479-.146 1.083a3.02 3.02 0 00.646.417 3.437 3.437 0 001.5.438 2.042 2.042 0 001.146-.292q.75-.479.146-1.083a2.584 2.584 0 00-.625-.417 3.459 3.459 0 00-1.521-.437 2.021 2.021 0 00-1.146.313" transform="translate(-195.462 -236.229)"/><path id="패스_681007" data-name="패스 681007" class="cls-10" d="M263.412 281.983l-.312-.167-.542-.333q-.771-.583-.167-1.229a2.1 2.1 0 01.438-.354 4 4 0 011.083-.5l.708.667a1.6 1.6 0 00-.583.229q-.5.313-.021.625l.25.146.333.167.625-.4a1.046 1.046 0 011.1-.1q.5.271-.1.646l-.625.4 3.333 1.75q.438.229.229.521a.625.625 0 01-.187.188 1.187 1.187 0 01-.6.188 1.229 1.229 0 01-.625-.125l-3.333-1.75-.667.438-1-.521z" transform="translate(-207.516 -221.192)"/><path id="패스_681008" data-name="패스 681008" class="cls-10" d="M278.612 272.383l-.312-.167-.542-.333q-.771-.583-.167-1.229a2.1 2.1 0 01.438-.354 4 4 0 011.083-.5l.708.667a1.6 1.6 0 00-.583.229q-.5.312-.021.625l.25.146.333.167.625-.4a1.046 1.046 0 011.1-.1q.5.271-.1.646l-.625.4 3.333 1.75q.438.229.229.521a.625.625 0 01-.187.188 1.208 1.208 0 01-.6.187 1.229 1.229 0 01-.625-.125l-3.333-1.75-.667.438-1-.521z" transform="translate(-219.55 -213.592)"/><g id="그룹_335937" data-name="그룹 335937" transform="translate(42.438 59.229)" opacity=".2"><g id="그룹_335936" data-name="그룹 335936" clip-path="url(#clip-path-4)"><path id="패스_681009" data-name="패스 681009" d="M219.013 288.4c0 2.25-3.4 4.083-7.6 4.1-.542-2.4-3.75-4.208-7.6-4.208h-.1c.1-2.208 3.5-4 7.646-4s7.667 1.833 7.667 4.1" transform="translate(-203.7 -284.3)"/></g></g></g></g></g></svg>