<svg xmlns="http://www.w3.org/2000/svg" width="41.535" height="12.834"><defs><style>.a{fill:#1b1412;fill-rule:evenodd}</style></defs><path class="a" d="M2.584 12.511c-.133-.388.1-.833.21-1.261s.246-.893.33-1.322C1.543 8.853-.001 7.782-.001 5.328a4.831 4.831 0 012.043-3.815 7.654 7.654 0 014.327-1.5 8.194 8.194 0 014.987 1.352 4.857 4.857 0 012.193 4.747 5.076 5.076 0 01-2.433 3.4 7.783 7.783 0 01-4.6 1.232 4.642 4.642 0 00-.9-.09 2.77 2.77 0 00-.781.48c-.522.349-.963.646-1.473.992-.226.15-.454.423-.778.385zM41.535 1.47c-.715 2-1.518 4.156-2.247 6.219s-1.562 4.044-3.289 5.145a9.673 9.673 0 01-1.368-1.205 8.988 8.988 0 001.791-2.214c-.944-2.649-1.961-5.225-2.866-7.913a12.022 12.022 0 012.15-.586q.909 3.162 1.824 6.317c.7-2.044 1.191-4.3 1.888-6.349a21.889 21.889 0 012.117.586zM20.97.948a3.7 3.7 0 01.247-.031c2.136-.188 3.222 1.412 3.386 3.355.244 2.887-.971 5.159-3.634 5.311v-1.72a2.055 2.055 0 00.28-.106c1.323-.622 1.558-3.832.554-4.721a1.492 1.492 0 00-.833-.315zm-1.413 8.533c-.075.934-.011 2.009-.033 3a14.674 14.674 0 01-2.181 0c.022-3.755-.043-7.6.033-11.3h1.465c.189.136.181.47.325.651a3.9 3.9 0 011.8-.881v1.772a1.921 1.921 0 00-1.413.347 71.695 71.695 0 000 4.819 3.11 3.11 0 001.413-.023v1.72a5.947 5.947 0 01-1.409-.106zM32.549 9.354a7.025 7.025 0 01-1.5 0c-.166-.138-.177-.431-.26-.652a6.862 6.862 0 01-1.648.8V7.867a3.56 3.56 0 001.355-.6V5.802c-.426 0-.909-.061-1.355-.034V4.354a13.046 13.046 0 011.323.012c.222-1.136-.464-1.522-1.323-1.563v-1.9a2.93 2.93 0 013.407 2.872c.135 1.659-.098 3.661.001 5.579zm-3.407.147a3.043 3.043 0 01-.5.081 2.49 2.49 0 01-2.768-3.19c.266-1.432 1.555-1.95 3.268-2.031v1.411a1.736 1.736 0 00-.892.262 1.19 1.19 0 00-.26 1.6 1.145 1.145 0 001.152.242v1.631zm0-6.692a5.443 5.443 0 00-2.259.457 6.375 6.375 0 01-.587-1.4 5.255 5.255 0 012.736-.945l.11-.006z"/></svg>