<svg xmlns="http://www.w3.org/2000/svg" xmlns:xlink="http://www.w3.org/1999/xlink" width="110" height="90.711" viewBox="0 0 110 90.711">
  <defs>
    <clipPath id="clip-path">
      <rect id="사각형_212685" data-name="사각형 212685" width="110" height="90.711" fill="none"/>
    </clipPath>
    <clipPath id="clip-path-3">
      <rect id="사각형_212677" data-name="사각형 212677" width="12.261" height="9.019" fill="none"/>
    </clipPath>
    <clipPath id="clip-path-4">
      <rect id="사각형_212678" data-name="사각형 212678" width="73.369" height="27.635" fill="none"/>
    </clipPath>
    <clipPath id="clip-path-5">
      <rect id="사각형_212679" data-name="사각형 212679" width="18.124" height="17.783" fill="none"/>
    </clipPath>
    <clipPath id="clip-path-6">
      <rect id="사각형_212680" data-name="사각형 212680" width="15.308" height="9.129" fill="none"/>
    </clipPath>
    <clipPath id="clip-path-7">
      <rect id="사각형_212681" data-name="사각형 212681" width="8.756" height="5.512" fill="none"/>
    </clipPath>
    <clipPath id="clip-path-8">
      <rect id="사각형_212682" data-name="사각형 212682" width="4.485" height="2.585" fill="none"/>
    </clipPath>
    <clipPath id="clip-path-9">
      <rect id="사각형_212683" data-name="사각형 212683" width="5.235" height="4.312" fill="none"/>
    </clipPath>
  </defs>
  <g id="수리견적_서비스란_111x92" data-name="수리견적 서비스란? 111x92" transform="translate(55 45.355)">
    <g id="그룹_258060" data-name="그룹 258060" transform="translate(-55 -45.355)" clip-path="url(#clip-path)">
      <g id="그룹_258059" data-name="그룹 258059" clip-path="url(#clip-path)">
        <g id="그룹_258046" data-name="그룹 258046" transform="translate(22.41 71.027)" opacity="0.15">
          <g id="그룹_258045" data-name="그룹 258045" clip-path="url(#clip-path-3)">
            <path id="패스_563995" data-name="패스 563995" d="M146.45,464.98l2.939,1.791,2.25,2.556v1.24a.811.811,0,0,0,.413.7l2.863,1.638a.842.842,0,0,0,.827,0l2.847-1.623-5.71-6.506-5.74-.781-.719.536a.276.276,0,0,0,.015.444" transform="translate(-146.328 -464)" fill="#222"/>
          </g>
        </g>
        <g id="그룹_258048" data-name="그룹 258048" transform="translate(14.695 54.097)" opacity="0.15">
          <g id="그룹_258047" data-name="그룹 258047" clip-path="url(#clip-path-4)">
            <path id="패스_563996" data-name="패스 563996" d="M96,355.176a2.709,2.709,0,0,0,1.3,1.99,2.817,2.817,0,0,0,2.771-.015l38.82,22.487s1.791.719,2.281.429c0,0,1.424,1.531,2.924.75s19.976-11.45,24.859-14.267a.811.811,0,0,0,.031-1.393l-3.031-1.959-65.1-9.8Z" transform="translate(-96 -353.4)" fill="#222"/>
          </g>
        </g>
        <path id="패스_563997" data-name="패스 563997" d="M122.6,341.655c0,.827-.582,1.148-1.3.735a2.866,2.866,0,0,1-1.3-2.235c0-.811.582-1.148,1.3-.735a2.866,2.866,0,0,1,1.3,2.235" transform="translate(-101.631 -287.314)" fill="#fff"/>
        <ellipse id="타원_7485" data-name="타원 7485" cx="1.056" cy="1.837" rx="1.056" ry="1.837" transform="translate(17.829 52.545) rotate(-30.3)" fill="none" stroke="#222" stroke-linejoin="round" stroke-width="0.612"/>
        <path id="패스_563998" data-name="패스 563998" d="M114.8,346.155c0,.827-.582,1.148-1.3.735a2.866,2.866,0,0,1-1.3-2.235c0-.811.582-1.148,1.3-.735a2.866,2.866,0,0,1,1.3,2.235" transform="translate(-95.025 -291.125)" fill="#fff"/>
        <path id="패스_563999" data-name="패스 563999" d="M114.8,346.155c0,.827-.582,1.148-1.3.735a2.866,2.866,0,0,1-1.3-2.235c0-.811.582-1.148,1.3-.735A2.866,2.866,0,0,1,114.8,346.155Z" transform="translate(-95.025 -291.125)" fill="none" stroke="#222" stroke-linejoin="round" stroke-width="0.612"/>
        <path id="패스_564000" data-name="패스 564000" d="M107,350.755c0,.827-.582,1.148-1.3.735a2.866,2.866,0,0,1-1.3-2.235c0-.811.582-1.148,1.3-.735a2.866,2.866,0,0,1,1.3,2.235" transform="translate(-88.419 -295.021)" fill="#fff"/>
        <path id="패스_564001" data-name="패스 564001" d="M107,350.755c0,.827-.582,1.148-1.3.735a2.866,2.866,0,0,1-1.3-2.235c0-.811.582-1.148,1.3-.735A2.842,2.842,0,0,1,107,350.755Z" transform="translate(-88.419 -295.021)" fill="none" stroke="#222" stroke-linejoin="round" stroke-width="0.612"/>
        <line id="선_77512" data-name="선 77512" x1="5.036" y2="2.908" transform="translate(15.17 51.188)" fill="#fff"/>
        <line id="선_77513" data-name="선 77513" x1="5.036" y2="2.908" transform="translate(15.17 51.188)" fill="none" stroke="#222" stroke-linejoin="round" stroke-width="0.612"/>
        <line id="선_77514" data-name="선 77514" x1="2.801" y2="1.623" transform="translate(17.007 55.643)" fill="#fff"/>
        <line id="선_77515" data-name="선 77515" x1="2.801" y2="1.623" transform="translate(17.007 55.643)" fill="none" stroke="#222" stroke-linejoin="round" stroke-width="0.612"/>
        <path id="패스_564002" data-name="패스 564002" d="M99.2,355.355c0,.827-.582,1.148-1.3.735a2.866,2.866,0,0,1-1.3-2.235c0-.811.582-1.148,1.3-.735a2.866,2.866,0,0,1,1.3,2.235" transform="translate(-81.813 -298.916)" fill="#fff"/>
        <path id="패스_564003" data-name="패스 564003" d="M99.2,355.355c0,.827-.582,1.148-1.3.735a2.866,2.866,0,0,1-1.3-2.235c0-.811.582-1.148,1.3-.735A2.842,2.842,0,0,1,99.2,355.355Z" transform="translate(-81.813 -298.916)" fill="none" stroke="#222" stroke-linejoin="round" stroke-width="0.612"/>
        <path id="패스_564004" data-name="패스 564004" d="M335.663,133.951h0L324.2,129.757c-1.056-.383-2.541.413-3.643,1.913l-.23.321-1.454,2.2-1.714,2.6-8.312,12.629h0l-12.644-7.3,1.117-.643a6.453,6.453,0,0,0,2.924-5.036V113.5Z" transform="translate(-250.859 -96.126)" fill="#e2e2e2"/>
        <path id="패스_564005" data-name="패스 564005" d="M335.663,133.951h0L324.2,129.757c-1.056-.383-2.541.413-3.643,1.913l-.23.321-1.454,2.2-1.714,2.6-8.312,12.629h0l-12.644-7.3,1.117-.643a6.453,6.453,0,0,0,2.924-5.036V113.5Z" transform="translate(-250.859 -96.126)" fill="none" stroke="#222" stroke-linejoin="round" stroke-width="0.459"/>
        <path id="패스_564006" data-name="패스 564006" d="M137.405,232.767a1.623,1.623,0,0,1-1.194-.184,2.045,2.045,0,0,1-.811-1.852V207.8h0l1.852,1.072V231.8a2.985,2.985,0,0,0,.153.98" transform="translate(-114.674 -175.991)" fill="#e2e2e2"/>
        <path id="패스_564007" data-name="패스 564007" d="M137.405,232.767a1.623,1.623,0,0,1-1.194-.184,2.045,2.045,0,0,1-.811-1.852V207.8h0l1.852,1.072V231.8A2.985,2.985,0,0,0,137.405,232.767Z" transform="translate(-114.674 -175.991)" fill="none" stroke="#222" stroke-linejoin="round" stroke-width="0.459"/>
        <path id="패스_564008" data-name="패스 564008" d="M162.2,82.956v22.931a6.44,6.44,0,0,1-2.924,5.051l-1.1.643L137.252,99.5,135.4,98.432,146.865,81c1.117-1.714,2.74-2.648,3.873-2.235Z" transform="translate(-114.674 -66.623)" fill="#fff"/>
        <path id="패스_564009" data-name="패스 564009" d="M162.2,82.956v22.931a6.44,6.44,0,0,1-2.924,5.051l-1.1.643L137.252,99.5,135.4,98.432,146.865,81c1.117-1.714,2.74-2.648,3.873-2.235Z" transform="translate(-114.674 -66.623)" fill="none" stroke="#222" stroke-linejoin="round" stroke-width="0.459"/>
        <path id="패스_564010" data-name="패스 564010" d="M564.646,106.11l1.01.888-.138.031L563.1,104.87l.352-3.092,1.531-1.531L566.3,98.9h0l1.531,1.225v.015h.015L565,103.018Z" transform="translate(-476.903 -83.761)" fill="none" stroke="#222" stroke-linejoin="round" stroke-width="0.459"/>
        <path id="패스_564011" data-name="패스 564011" d="M454.087,102.621l-2.6,3.184-2.893.643-.138.031-2.4-2.174.352-3.092,1.515-1.531,1.316-1.332a6.383,6.383,0,0,0-7.133,8.664l-16.5,18.308a2.8,2.8,0,0,0,1.225,4.546h0a2.8,2.8,0,0,0,2.74-.6l.2-.2,1.072-1.194,15.109-16.792.321-.352a6.276,6.276,0,0,0,1.577.245h.367a6.383,6.383,0,0,0,5.863-8.358m-25.257,25.288-.444.077-.7.122-.873-.781v-.291h0l.046-.873.949-.674.245.077.888.26.383.934.061.153Z" transform="translate(-359.838 -83.196)" fill="#fff"/>
        <path id="패스_564012" data-name="패스 564012" d="M454.087,102.621l-2.6,3.184-2.893.643-.138.031-2.4-2.174.352-3.092,1.515-1.531,1.316-1.332a6.383,6.383,0,0,0-7.133,8.664l-16.5,18.308a2.8,2.8,0,0,0,1.225,4.546h0a2.8,2.8,0,0,0,2.74-.6l.2-.2,1.072-1.194,15.109-16.792.321-.352a6.276,6.276,0,0,0,1.577.245h.367a6.383,6.383,0,0,0,5.863-8.358Zm-25.273,25.288-.444.077-.7.122-.873-.781v-.291h0l.046-.873.949-.674.245.077.888.26.383.934.061.153Z" transform="translate(-359.838 -83.196)" fill="none" stroke="#222" stroke-linejoin="round" stroke-width="0.459"/>
        <path id="패스_564013" data-name="패스 564013" d="M439.007,278.113l-.031.6-.7.107-.873-.781.015-.291h0l.046-.873.964-.674.245.061.872.26.383.934Z" transform="translate(-370.445 -233.921)" fill="#e2e2e2"/>
        <path id="패스_564014" data-name="패스 564014" d="M439.007,278.113l-.031.6-.7.107-.873-.781.015-.291h0l.046-.873.964-.674.245.061.872.26.383.934Z" transform="translate(-370.445 -233.921)" fill="none" stroke="#222" stroke-linejoin="round" stroke-width="0.459"/>
        <path id="패스_564015" data-name="패스 564015" d="M448.71,284.553l-.566,1.026-.444.077.031-.6.918-.658Z" transform="translate(-379.168 -240.865)" fill="#222"/>
        <path id="패스_564016" data-name="패스 564016" d="M448.71,284.553l-.566,1.026-.444.077.031-.6.918-.658Z" transform="translate(-379.168 -240.865)" fill="none" stroke="#222" stroke-linejoin="round" stroke-width="0.459"/>
        <path id="패스_564017" data-name="패스 564017" d="M465.077,134.385a6.383,6.383,0,0,1-6.49,1.868l-16.5,18.338a2.8,2.8,0,0,1-3.949.214,2.755,2.755,0,0,1-.536-.658,2.8,2.8,0,0,0,2.74-.6l.2-.2,1.072-1.194,15.109-16.792.321-.352a6.275,6.275,0,0,0,1.577.245h.367a6.383,6.383,0,0,0,5.863-8.358l1.546,1.24a6.383,6.383,0,0,1-1.316,6.261" transform="translate(-370.614 -107.475)" fill="#e2e2e2"/>
        <path id="패스_564018" data-name="패스 564018" d="M465.077,134.385a6.383,6.383,0,0,1-6.49,1.868l-16.5,18.338a2.8,2.8,0,0,1-3.949.214,2.755,2.755,0,0,1-.536-.658,2.8,2.8,0,0,0,2.74-.6l.2-.2,1.072-1.194,15.109-16.792.321-.352a6.275,6.275,0,0,0,1.577.245h.367a6.383,6.383,0,0,0,5.863-8.358l1.546,1.24A6.383,6.383,0,0,1,465.077,134.385Z" transform="translate(-370.614 -107.475)" fill="none" stroke="#222" stroke-linejoin="round" stroke-width="0.459"/>
        <line id="선_77516" data-name="선 77516" y1="0.015" transform="translate(89.396 15.124)" fill="none" stroke="#222" stroke-linejoin="round" stroke-width="0.459"/>
        <path id="패스_564019" data-name="패스 564019" d="M545.1,146.6l1.209-1.5,3.169,2.556-1.24,1.546Z" transform="translate(-461.659 -122.889)" fill="none" stroke="#222" stroke-linejoin="round" stroke-width="0.459"/>
        <line id="선_77517" data-name="선 77517" y1="1.515" x2="1.225" transform="translate(84.191 22.977)" fill="none" stroke="#222" stroke-linejoin="round" stroke-width="0.459"/>
        <line id="선_77518" data-name="선 77518" y1="1.515" x2="1.225" transform="translate(85.018 23.62)" fill="none" stroke="#222" stroke-linejoin="round" stroke-width="0.459"/>
        <line id="선_77519" data-name="선 77519" y1="1.5" x2="1.225" transform="translate(85.753 24.262)" fill="none" stroke="#222" stroke-linejoin="round" stroke-width="0.459"/>
        <path id="패스_564020" data-name="패스 564020" d="M174.319,89.756V112.7a6.43,6.43,0,0,1-2.924,5.036l-1.117.643-1.837-1.056L147.5,105.263h0l10.18-15.507,1.286-1.959c1.117-1.714,2.74-2.648,3.873-2.235l9.613,3.521,1.852.674Z" transform="translate(-124.921 -72.382)" fill="#cacaca"/>
        <path id="패스_564021" data-name="패스 564021" d="M174.319,89.756V112.7a6.43,6.43,0,0,1-2.924,5.036l-1.117.643-1.837-1.056L147.5,105.263h0l10.18-15.507,1.286-1.959c1.117-1.714,2.74-2.648,3.873-2.235l9.613,3.521,1.852.674Z" transform="translate(-124.921 -72.382)" fill="none" stroke="#222" stroke-linejoin="round" stroke-width="0.459"/>
        <path id="패스_564022" data-name="패스 564022" d="M220.728,286.255l5.3-1.255-3.643.168-5.281,1.255Z" transform="translate(-183.867 -241.374)" fill="#fff"/>
        <path id="패스_564023" data-name="패스 564023" d="M220.728,286.255l5.3-1.255-3.643.168-5.281,1.255Z" transform="translate(-183.867 -241.374)" fill="none" stroke="#222" stroke-linejoin="round" stroke-width="0.459"/>
        <path id="패스_564024" data-name="패스 564024" d="M252.1,394.344l5.281-1.271,3.046-2.174-5.3,1.255Z" transform="translate(-213.51 -331.063)" fill="#fff"/>
        <path id="패스_564025" data-name="패스 564025" d="M252.1,394.344l5.281-1.271,3.046-2.174-5.3,1.255Z" transform="translate(-213.51 -331.063)" fill="none" stroke="#222" stroke-linejoin="round" stroke-width="0.459"/>
        <path id="패스_564026" data-name="패스 564026" d="M254.562,220.084l5.3-1.271L256.8,215.4l-5.3,1.255Z" transform="translate(-213.002 -182.428)" fill="#fff"/>
        <path id="패스_564027" data-name="패스 564027" d="M254.562,220.084l5.3-1.271L256.8,215.4l-5.3,1.255Z" transform="translate(-213.002 -182.428)" fill="none" stroke="#222" stroke-linejoin="round" stroke-width="0.459"/>
        <path id="패스_564028" data-name="패스 564028" d="M317.7,415.785l5.3-1.255.658-4.73-5.3,1.255Z" transform="translate(-269.068 -347.07)" fill="#fff"/>
        <path id="패스_564029" data-name="패스 564029" d="M317.7,415.785l5.3-1.255.658-4.73-5.3,1.255Z" transform="translate(-269.068 -347.07)" fill="none" stroke="#222" stroke-linejoin="round" stroke-width="0.459"/>
        <path id="패스_564030" data-name="패스 564030" d="M266.2,308.9h0" transform="translate(-225.451 -261.615)" fill="#e2e2e2"/>
        <path id="패스_564031" data-name="패스 564031" d="M266.2,308.9Z" transform="translate(-225.451 -261.615)" fill="none" stroke="#222" stroke-linejoin="round" stroke-width="3"/>
        <path id="패스_564032" data-name="패스 564032" d="M266.2,310.3h0" transform="translate(-225.451 -262.801)" fill="#e2e2e2"/>
        <path id="패스_564033" data-name="패스 564033" d="M266.2,310.3Z" transform="translate(-225.451 -262.801)" fill="none" stroke="#222" stroke-linejoin="round" stroke-width="3"/>
        <path id="패스_564034" data-name="패스 564034" d="M266.2,308.7h0" transform="translate(-225.451 -261.446)" fill="#e2e2e2"/>
        <path id="패스_564035" data-name="패스 564035" d="M266.2,308.7Z" transform="translate(-225.451 -261.446)" fill="none" stroke="#222" stroke-linejoin="round" stroke-width="3"/>
        <path id="패스_564036" data-name="패스 564036" d="M266.2,308.8h0" transform="translate(-225.451 -261.53)" fill="#e2e2e2"/>
        <path id="패스_564037" data-name="패스 564037" d="M266.2,308.8Z" transform="translate(-225.451 -261.53)" fill="none" stroke="#222" stroke-linejoin="round" stroke-width="3"/>
        <path id="패스_564038" data-name="패스 564038" d="M266.1,310.4h0" transform="translate(-225.367 -262.885)" fill="#e2e2e2"/>
        <path id="패스_564039" data-name="패스 564039" d="M266.1,310.4Z" transform="translate(-225.367 -262.885)" fill="none" stroke="#222" stroke-linejoin="round" stroke-width="3"/>
        <path id="패스_564040" data-name="패스 564040" d="M265.8,317.1h0" transform="translate(-225.113 -268.56)" fill="#e2e2e2"/>
        <path id="패스_564041" data-name="패스 564041" d="M265.8,317.1Z" transform="translate(-225.113 -268.56)" fill="none" stroke="#222" stroke-linejoin="round" stroke-width="3"/>
        <path id="패스_564042" data-name="패스 564042" d="M265.8,311.426l.046-1.026-.046,1.026" transform="translate(-225.113 -262.885)" fill="#e2e2e2"/>
        <path id="패스_564043" data-name="패스 564043" d="M265.8,311.426l.046-1.026Z" transform="translate(-225.113 -262.885)" fill="none" stroke="#222" stroke-linejoin="round" stroke-width="0.459"/>
        <path id="패스_564044" data-name="패스 564044" d="M266.2,308.5h0" transform="translate(-225.451 -261.276)" fill="#e2e2e2"/>
        <path id="패스_564045" data-name="패스 564045" d="M266.2,308.5Z" transform="translate(-225.451 -261.276)" fill="none" stroke="#222" stroke-linejoin="round" stroke-width="3"/>
        <path id="패스_564046" data-name="패스 564046" d="M265.8,317.6h0" transform="translate(-225.113 -268.983)" fill="#e2e2e2"/>
        <path id="패스_564047" data-name="패스 564047" d="M265.8,317.6Z" transform="translate(-225.113 -268.983)" fill="none" stroke="#222" stroke-linejoin="round" stroke-width="3"/>
        <path id="패스_564048" data-name="패스 564048" d="M265.8,276.524c.168-3.245,1.806-5.633,4.057-6.169l5.3-1.255a4.225,4.225,0,0,0-1.316.566,4.976,4.976,0,0,0-1.117.995,6.306,6.306,0,0,0-.857,1.378,7.974,7.974,0,0,0-.566,1.7,9.873,9.873,0,0,0-.214,2.051,11.312,11.312,0,0,0,1.01,4.654,10.133,10.133,0,0,0,1.179,1.975,8.006,8.006,0,0,0,1.561,1.561,5.786,5.786,0,0,0,1.959.98l.276.061.566.077a4.269,4.269,0,0,0,.8-.015l.505-.092-5.3,1.255-.505.092a4.256,4.256,0,0,1-.8.015l-.566-.077a5.572,5.572,0,0,1-2.021-.888,7.057,7.057,0,0,1-.719-.566,8.7,8.7,0,0,1-1.408-1.653,10.581,10.581,0,0,1-1.072-2.067,11.345,11.345,0,0,1-.612-2.311,11.005,11.005,0,0,1-.122-2.266" transform="translate(-225.113 -227.907)" fill="#e2e2e2"/>
        <path id="패스_564049" data-name="패스 564049" d="M265.745,276.524c.168-3.245,1.806-5.633,4.056-6.169l5.3-1.255a4.225,4.225,0,0,0-1.316.566,4.974,4.974,0,0,0-1.117.995,6.308,6.308,0,0,0-.857,1.378,7.975,7.975,0,0,0-.566,1.7,9.873,9.873,0,0,0-.214,2.051,11.312,11.312,0,0,0,1.01,4.654,10.133,10.133,0,0,0,1.179,1.975,8.006,8.006,0,0,0,1.561,1.561,5.786,5.786,0,0,0,1.959.98l.276.061.566.077a4.269,4.269,0,0,0,.8-.015l.505-.092-5.3,1.255-.505.092a4.256,4.256,0,0,1-.8.015l-.566-.077a5.572,5.572,0,0,1-2.021-.888,7.054,7.054,0,0,1-.719-.566,8.7,8.7,0,0,1-1.408-1.653,10.577,10.577,0,0,1-1.072-2.067,11.343,11.343,0,0,1-.612-2.311A11.005,11.005,0,0,1,265.745,276.524Z" transform="translate(-225.057 -227.907)" fill="none" stroke="#222" stroke-linejoin="round" stroke-width="0.459"/>
        <path id="패스_564050" data-name="패스 564050" d="M265.8,317.1v.077h0V317.1" transform="translate(-225.113 -268.56)" fill="#e2e2e2"/>
        <path id="패스_564051" data-name="패스 564051" d="M265.8,317.1v.077h0Z" transform="translate(-225.113 -268.56)" fill="none" stroke="#222" stroke-linejoin="round" stroke-width="0.459"/>
        <path id="패스_564052" data-name="패스 564052" d="M266.2,308.5h0" transform="translate(-225.451 -261.276)" fill="#e2e2e2"/>
        <path id="패스_564053" data-name="패스 564053" d="M266.2,308.5Z" transform="translate(-225.451 -261.276)" fill="none" stroke="#222" stroke-linejoin="round" stroke-width="3"/>
        <path id="패스_564054" data-name="패스 564054" d="M266.2,308.7h0" transform="translate(-225.451 -261.446)" fill="#e2e2e2"/>
        <path id="패스_564055" data-name="패스 564055" d="M266.2,308.7Z" transform="translate(-225.451 -261.446)" fill="none" stroke="#222" stroke-linejoin="round" stroke-width="3"/>
        <path id="패스_564056" data-name="패스 564056" d="M266.2,308.4Z" transform="translate(-225.451 -261.192)" fill="#e2e2e2"/>
        <path id="패스_564057" data-name="패스 564057" d="M266.2,308.4Z" transform="translate(-225.451 -261.192)" fill="none" stroke="#222" stroke-linejoin="round" stroke-width="3"/>
        <path id="패스_564058" data-name="패스 564058" d="M266.2,308.4h0" transform="translate(-225.451 -261.192)" fill="#e2e2e2"/>
        <path id="패스_564059" data-name="패스 564059" d="M266.2,308.4Z" transform="translate(-225.451 -261.192)" fill="none" stroke="#222" stroke-linejoin="round" stroke-width="3"/>
        <path id="패스_564060" data-name="패스 564060" d="M288.9,232.307l.536-.107-5.3,1.255-.536.107Z" transform="translate(-240.188 -196.656)" fill="#fff"/>
        <path id="패스_564061" data-name="패스 564061" d="M288.9,232.307l.536-.107-5.3,1.255-.536.107Z" transform="translate(-240.188 -196.656)" fill="none" stroke="#222" stroke-linejoin="round" stroke-width="0.459"/>
        <path id="패스_564062" data-name="패스 564062" d="M327.368,405.555l5.3-1.255a7.072,7.072,0,0,1-1.868.735l-5.3,1.255a7.073,7.073,0,0,0,1.868-.735" transform="translate(-275.674 -342.412)" fill="#fff"/>
        <path id="패스_564063" data-name="패스 564063" d="M327.368,405.555l5.3-1.255a7.072,7.072,0,0,1-1.868.735l-5.3,1.255A7.073,7.073,0,0,0,327.368,405.555Z" transform="translate(-275.674 -342.412)" fill="none" stroke="#222" stroke-linejoin="round" stroke-width="0.459"/>
        <path id="패스_564064" data-name="패스 564064" d="M317.689,212.861l5.3-1.255L322.3,206.6l-5.3,1.255Z" transform="translate(-268.475 -174.975)" fill="#e2e2e2"/>
        <path id="패스_564065" data-name="패스 564065" d="M317.689,212.861l5.3-1.255L322.3,206.6l-5.3,1.255Z" transform="translate(-268.475 -174.975)" fill="none" stroke="#222" stroke-linejoin="round" stroke-width="0.459"/>
        <path id="패스_564066" data-name="패스 564066" d="M295.319,203.451l5.3-1.255-3.919-.8-5.3,1.255Z" transform="translate(-246.794 -170.571)" fill="#fff"/>
        <path id="패스_564067" data-name="패스 564067" d="M295.319,203.451l5.3-1.255-3.919-.8-5.3,1.255Z" transform="translate(-246.794 -170.571)" fill="none" stroke="#222" stroke-linejoin="round" stroke-width="0.459"/>
        <path id="패스_564068" data-name="패스 564068" d="M326.8,239.3a10.946,10.946,0,0,1,1.133.735q.459.337.888.719l.383.352-5.3,1.255-.383-.352q-.429-.383-.888-.719a10.9,10.9,0,0,0-1.133-.735Z" transform="translate(-272.286 -202.669)" fill="#e2e2e2"/>
        <path id="패스_564069" data-name="패스 564069" d="M326.8,239.3a10.946,10.946,0,0,1,1.133.735q.459.337.888.719l.383.352-5.3,1.255-.383-.352q-.429-.383-.888-.719a10.9,10.9,0,0,0-1.133-.735Z" transform="translate(-272.286 -202.669)" fill="none" stroke="#222" stroke-linejoin="round" stroke-width="0.459"/>
        <path id="패스_564070" data-name="패스 564070" d="M364.012,382.471l5.3-1.255L367.2,376.7l-5.3,1.255Z" transform="translate(-306.502 -319.036)" fill="#fff"/>
        <path id="패스_564071" data-name="패스 564071" d="M364.012,382.471l5.3-1.255L367.2,376.7l-5.3,1.255Z" transform="translate(-306.502 -319.036)" fill="none" stroke="#222" stroke-linejoin="round" stroke-width="0.459"/>
        <path id="패스_564072" data-name="패스 564072" d="M357.7,410.593l5.3-1.255,2.755-3.138-5.3,1.255Z" transform="translate(-302.945 -344.021)" fill="#fff"/>
        <path id="패스_564073" data-name="패스 564073" d="M357.7,410.593l5.3-1.255,2.755-3.138-5.3,1.255Z" transform="translate(-302.945 -344.021)" fill="none" stroke="#222" stroke-linejoin="round" stroke-width="0.459"/>
        <path id="패스_564074" data-name="패스 564074" d="M362.98,358.355l5.3-1.255a13.564,13.564,0,0,1-.98,3.016l-5.3,1.255a13.547,13.547,0,0,0,.98-3.016" transform="translate(-306.587 -302.437)" fill="#fff"/>
        <path id="패스_564075" data-name="패스 564075" d="M362.98,358.355l5.3-1.255a13.564,13.564,0,0,1-.98,3.016l-5.3,1.255A13.547,13.547,0,0,0,362.98,358.355Z" transform="translate(-306.587 -302.437)" fill="none" stroke="#222" stroke-linejoin="round" stroke-width="0.459"/>
        <path id="패스_564076" data-name="패스 564076" d="M367,288.7l.214.566q.291.811.52,1.653.153.6.276,1.209l-5.3,1.255q-.122-.612-.276-1.209-.23-.842-.52-1.653l-.214-.566Z" transform="translate(-306.333 -244.507)" fill="#e2e2e2"/>
        <path id="패스_564077" data-name="패스 564077" d="M367,288.7l.214.566q.291.811.52,1.653.153.6.276,1.209l-5.3,1.255q-.122-.612-.276-1.209-.23-.842-.52-1.653l-.214-.566Z" transform="translate(-306.333 -244.507)" fill="none" stroke="#222" stroke-linejoin="round" stroke-width="0.459"/>
        <path id="패스_564078" data-name="패스 564078" d="M361.7,269.714l5.3-1.255,2.082-3.659-5.3,1.255Z" transform="translate(-306.333 -224.266)" fill="#e2e2e2"/>
        <path id="패스_564079" data-name="패스 564079" d="M361.7,269.714l5.3-1.255,2.082-3.659-5.3,1.255Z" transform="translate(-306.333 -224.266)" fill="none" stroke="#222" stroke-linejoin="round" stroke-width="0.459"/>
        <path id="패스_564080" data-name="패스 564080" d="M359.886,242.426l5.3-1.255L362.4,236.9l-5.3,1.255Z" transform="translate(-302.437 -200.636)" fill="#e2e2e2"/>
        <path id="패스_564081" data-name="패스 564081" d="M359.886,242.426l5.3-1.255L362.4,236.9l-5.3,1.255Z" transform="translate(-302.437 -200.636)" fill="none" stroke="#222" stroke-linejoin="round" stroke-width="0.459"/>
        <path id="패스_564082" data-name="패스 564082" d="M392.015,328.29l5.3-1.255L397.3,321.8l-5.3,1.255Z" transform="translate(-331.994 -272.54)" fill="#fff"/>
        <path id="패스_564083" data-name="패스 564083" d="M392.015,328.29l5.3-1.255L397.3,321.8l-5.3,1.255Z" transform="translate(-331.994 -272.54)" fill="none" stroke="#222" stroke-linejoin="round" stroke-width="0.459"/>
        <path id="패스_564084" data-name="패스 564084" d="M217.2,227.716v-5.235l3.628-.168a13.563,13.563,0,0,1,.98-3.016l-2.112-4.516,2.755-3.138,3.062,3.429a7.041,7.041,0,0,1,2.388-.842l.658-4.73,3.919.8.689,5.006a11.741,11.741,0,0,1,2.4,1.822l3.046-2.174,2.786,4.271-2.082,3.658a19.257,19.257,0,0,1,1.01,3.414l3.628,1.653v5.235l-3.628.168a13.547,13.547,0,0,1-.98,3.016l2.112,4.516-2.755,3.138-3.062-3.429a7.041,7.041,0,0,1-2.4.827l-.658,4.73-3.919-.8-.689-5.006a11.741,11.741,0,0,1-2.4-1.822l-3.046,2.174-2.786-4.271,2.082-3.658a19.242,19.242,0,0,1-1.01-3.414Zm13.409,8.082c3.291.674,5.939-2.357,5.924-6.751s-2.694-8.511-5.97-9.185-5.939,2.357-5.924,6.751,2.694,8.511,5.97,9.185" transform="translate(-183.952 -177.431)" fill="#fff"/>
        <path id="패스_564085" data-name="패스 564085" d="M217.2,227.716v-5.235l3.628-.168a13.563,13.563,0,0,1,.98-3.016l-2.112-4.516,2.755-3.138,3.062,3.429a7.041,7.041,0,0,1,2.388-.842l.658-4.73,3.919.8.689,5.006a11.741,11.741,0,0,1,2.4,1.822l3.046-2.174,2.786,4.271-2.082,3.658a19.257,19.257,0,0,1,1.01,3.414l3.628,1.653v5.235l-3.628.168a13.547,13.547,0,0,1-.98,3.016l2.112,4.516-2.755,3.138-3.062-3.429a7.041,7.041,0,0,1-2.4.827l-.658,4.73-3.919-.8-.689-5.006a11.741,11.741,0,0,1-2.4-1.822l-3.046,2.174-2.786-4.271,2.082-3.658a19.242,19.242,0,0,1-1.01-3.414Zm13.409,8.082c3.291.674,5.939-2.357,5.924-6.751s-2.694-8.511-5.97-9.185-5.939,2.357-5.924,6.751,2.679,8.511,5.955,9.185Z" transform="translate(-183.952 -177.431)" fill="none" stroke="#222" stroke-linejoin="round" stroke-width="0.459"/>
        <path id="패스_564086" data-name="패스 564086" d="M371.843,313.908l5.3-1.255L373.5,311l-5.3,1.255Z" transform="translate(-311.838 -263.394)" fill="#fff"/>
        <path id="패스_564087" data-name="패스 564087" d="M371.843,313.908l5.3-1.255L373.5,311l-5.3,1.255Z" transform="translate(-311.838 -263.394)" fill="none" stroke="#222" stroke-linejoin="round" stroke-width="0.459"/>
        <g id="그룹_258050" data-name="그룹 258050" transform="translate(44.606 30.018)" opacity="0.1">
          <g id="그룹_258049" data-name="그룹 258049" clip-path="url(#clip-path-5)">
            <path id="패스_564088" data-name="패스 564088" d="M291.4,197.508l16.226,16.379.842-.995-.842-2.878,1.913-3.4-2.786-4.271-4.546,1.087-.9-.719-.873-4.96-5.113-1.653Z" transform="translate(-291.4 -196.1)" fill="#222"/>
          </g>
        </g>
        <path id="패스_564089" data-name="패스 564089" d="M93.378,79.6,79.8,57.462,86.6,52.9l21.6,35.192" transform="translate(-67.585 -44.802)" fill="#fff"/>
        <path id="패스_564090" data-name="패스 564090" d="M93.378,79.6,79.8,57.462,86.6,52.9l21.6,35.192" transform="translate(-67.585 -44.802)" fill="none" stroke="#222" stroke-linejoin="round" stroke-width="0.459"/>
        <line id="선_77520" data-name="선 77520" y1="1.929" x2="2.863" transform="translate(15.262 15.338)" fill="#fff"/>
        <line id="선_77521" data-name="선 77521" y1="1.929" x2="2.863" transform="translate(15.262 15.338)" fill="none" stroke="#222" stroke-linecap="round" stroke-linejoin="round" stroke-width="0.612"/>
        <line id="선_77522" data-name="선 77522" y1="1.929" x2="2.863" transform="translate(17.206 18.522)" fill="#fff"/>
        <line id="선_77523" data-name="선 77523" y1="1.929" x2="2.863" transform="translate(17.206 18.522)" fill="none" stroke="#222" stroke-linecap="round" stroke-linejoin="round" stroke-width="0.612"/>
        <line id="선_77524" data-name="선 77524" y1="1.913" x2="2.863" transform="translate(19.257 21.874)" fill="#fff"/>
        <line id="선_77525" data-name="선 77525" y1="1.913" x2="2.863" transform="translate(19.257 21.874)" fill="none" stroke="#222" stroke-linecap="round" stroke-linejoin="round" stroke-width="0.612"/>
        <line id="선_77526" data-name="선 77526" y1="1.929" x2="2.863" transform="translate(21.002 24.829)" fill="#fff"/>
        <line id="선_77527" data-name="선 77527" y1="1.929" x2="2.863" transform="translate(21.002 24.829)" fill="none" stroke="#222" stroke-linecap="round" stroke-linejoin="round" stroke-width="0.612"/>
        <line id="선_77528" data-name="선 77528" y1="1.913" x2="2.878" transform="translate(22.793 27.982)" fill="#fff"/>
        <line id="선_77529" data-name="선 77529" y1="1.913" x2="2.878" transform="translate(22.793 27.982)" fill="none" stroke="#222" stroke-linecap="round" stroke-linejoin="round" stroke-width="0.612"/>
        <line id="선_77530" data-name="선 77530" y1="1.913" x2="2.863" transform="translate(24.645 30.921)" fill="#fff"/>
        <line id="선_77531" data-name="선 77531" y1="1.913" x2="2.863" transform="translate(24.645 30.921)" fill="none" stroke="#222" stroke-linecap="round" stroke-linejoin="round" stroke-width="0.612"/>
        <line id="선_77532" data-name="선 77532" y1="1.47" x2="2.189" transform="translate(27.048 33.86)" fill="#fff"/>
        <line id="선_77533" data-name="선 77533" y1="1.47" x2="2.189" transform="translate(27.048 33.86)" fill="none" stroke="#222" stroke-linecap="round" stroke-linejoin="round" stroke-width="0.612"/>
        <line id="선_77534" data-name="선 77534" y1="0.735" x2="1.102" transform="translate(29.972 36.401)" fill="#fff"/>
        <line id="선_77535" data-name="선 77535" y1="0.735" x2="1.102" transform="translate(29.972 36.401)" fill="none" stroke="#222" stroke-linecap="round" stroke-linejoin="round" stroke-width="0.612"/>
        <path id="패스_564091" data-name="패스 564091" d="M103.864,76.332A1.332,1.332,0,1,1,102.532,75a1.332,1.332,0,0,1,1.332,1.332" transform="translate(-85.709 -63.519)" fill="#222"/>
        <circle id="타원_7486" data-name="타원 7486" cx="1.332" cy="1.332" r="1.332" transform="matrix(0.413, -0.911, 0.911, 0.413, 15.064, 13.474)" fill="none" stroke="#fff" stroke-linejoin="round" stroke-width="0.459"/>
        <path id="패스_564092" data-name="패스 564092" d="M137.835,87.066,117.414,53.8l-.214-.245,1.194-.658,21.553,35.131Z" transform="translate(-99.26 -44.802)" fill="#fff"/>
        <path id="패스_564093" data-name="패스 564093" d="M137.835,87.066,117.414,53.8l-.214-.245,1.194-.658,21.553,35.131Z" transform="translate(-99.26 -44.802)" fill="none" stroke="#222" stroke-linejoin="round" stroke-width="0.459"/>
        <g id="그룹_258052" data-name="그룹 258052" transform="translate(25.38 34.105)" opacity="0.1">
          <g id="그룹_258051" data-name="그룹 258051" clip-path="url(#clip-path-6)">
            <path id="패스_564094" data-name="패스 564094" d="M165.8,222.8l12.506,4.546,2.8,4.577L165.8,223.29Z" transform="translate(-165.8 -222.8)" fill="#222"/>
          </g>
        </g>
        <path id="패스_564095" data-name="패스 564095" d="M177.974,260.018h-.015L140.7,238.527h0a1.623,1.623,0,0,0,1.194.184,2.969,2.969,0,0,1-.153-.98V214.8l20.925,12.078,1.837,1.056,12.644,7.3v22.931a2.045,2.045,0,0,0,.811,1.852" transform="translate(-119.162 -181.919)" fill="#e2e2e2"/>
        <path id="패스_564096" data-name="패스 564096" d="M177.974,260.018h-.015L140.7,238.527h0a1.623,1.623,0,0,0,1.194.184,2.969,2.969,0,0,1-.153-.98V214.8l20.925,12.078,1.837,1.056,12.644,7.3v22.931A2.052,2.052,0,0,0,177.974,260.018Z" transform="translate(-119.162 -181.919)" fill="none" stroke="#222" stroke-linejoin="round" stroke-width="0.459"/>
        <line id="선_77536" data-name="선 77536" x1="0.107" y1="0.061" transform="translate(21.431 56.546)" fill="none" stroke="#222" stroke-linejoin="round" stroke-width="0.459"/>
        <line id="선_77537" data-name="선 77537" x1="2.158" y1="1.24" transform="translate(58.796 78.13)" fill="none" stroke="#222" stroke-linejoin="round" stroke-width="0.459"/>
        <line id="선_77538" data-name="선 77538" x1="0.061" y1="0.031" transform="translate(20.665 31.778)" fill="none" stroke="#222" stroke-linejoin="round" stroke-width="0.459"/>
        <path id="패스_564097" data-name="패스 564097" d="M310.5,106.5l.015.015,1.852,1.056h0" transform="translate(-262.97 -90.197)" fill="none" stroke="#222" stroke-linejoin="round" stroke-width="0.459"/>
        <path id="패스_564098" data-name="패스 564098" d="M554,247.1l2.174,1.255.077.046" transform="translate(-469.196 -209.275)" fill="none" stroke="#222" stroke-linejoin="round" stroke-width="0.459"/>
        <path id="패스_564099" data-name="패스 564099" d="M381.135,373.205a1.663,1.663,0,0,1-1.424-.122,2.323,2.323,0,0,1-.811-1.852V348.3l2.174,1.255v22.931a3.109,3.109,0,0,0,.077.7" transform="translate(-320.9 -294.984)" fill="#e2e2e2"/>
        <path id="패스_564100" data-name="패스 564100" d="M381.135,373.205a1.663,1.663,0,0,1-1.424-.122,2.323,2.323,0,0,1-.811-1.852V348.3l2.174,1.255v22.931A3.11,3.11,0,0,0,381.135,373.205Z" transform="translate(-320.9 -294.984)" fill="none" stroke="#222" stroke-linejoin="round" stroke-width="0.459"/>
        <line id="선_77539" data-name="선 77539" x1="0.031" y1="0.015" transform="translate(60.159 54.571)" fill="none" stroke="#222" stroke-linejoin="round" stroke-width="0.459"/>
        <path id="패스_564101" data-name="패스 564101" d="M229.147,113.8a4.8,4.8,0,0,1-2.174,3.75c-1.194.689-2.174.138-2.174-1.24a4.8,4.8,0,0,1,2.174-3.75c1.194-.689,2.174-.138,2.174,1.24" transform="translate(-190.389 -95.078)" fill="#3673ee"/>
        <path id="패스_564102" data-name="패스 564102" d="M229.147,113.8a4.8,4.8,0,0,1-2.174,3.75c-1.194.689-2.174.138-2.174-1.24a4.8,4.8,0,0,1,2.174-3.75C228.168,111.87,229.147,112.421,229.147,113.8Z" transform="translate(-190.389 -95.078)" fill="none" stroke="#222" stroke-linejoin="round" stroke-width="0.459"/>
        <path id="패스_564103" data-name="패스 564103" d="M230.983,113.5l32.176,18.583-3.414,5.113L227.6,118.643" transform="translate(-192.76 -96.126)" fill="#3673ee"/>
        <path id="패스_564104" data-name="패스 564104" d="M230.983,113.5l32.176,18.583-3.414,5.113L227.6,118.643" transform="translate(-192.76 -96.126)" fill="none" stroke="#222" stroke-linejoin="round" stroke-width="0.459"/>
        <path id="패스_564105" data-name="패스 564105" d="M405.619,223.452V246.4a6.43,6.43,0,0,1-2.924,5.036l-20.971,12.108a3.291,3.291,0,0,1-.674.306,3.124,3.124,0,0,1-.077-.719V240.2l-2.174-1.255h0l8.312-12.629,1.714-2.6,1.454-2.2.23-.321c1.1-1.5,2.6-2.3,3.643-1.913Z" transform="translate(-320.815 -185.627)" fill="#fff"/>
        <path id="패스_564106" data-name="패스 564106" d="M405.619,223.452V246.4a6.43,6.43,0,0,1-2.924,5.036l-20.971,12.108a3.291,3.291,0,0,1-.674.306,3.124,3.124,0,0,1-.077-.719V240.2l-2.174-1.255h0l8.312-12.629,1.714-2.6,1.454-2.2.23-.321c1.1-1.5,2.6-2.3,3.643-1.913Z" transform="translate(-320.815 -185.627)" fill="none" stroke="#222" stroke-linejoin="round" stroke-width="0.459"/>
        <path id="패스_564107" data-name="패스 564107" d="M419.818,231.556V254.5a6.481,6.481,0,0,1-2.924,5.051l-20.971,12.108a2.035,2.035,0,0,1-2.112.184,1.73,1.73,0,0,1-.735-1.133,3.123,3.123,0,0,1-.077-.719V247.032L404.48,229.6c1.117-1.714,2.74-2.648,3.873-2.235l9.292,3.4Z" transform="translate(-332.841 -192.476)" fill="#fff"/>
        <path id="패스_564108" data-name="패스 564108" d="M419.818,231.556V254.5a6.481,6.481,0,0,1-2.924,5.051l-20.971,12.108a2.035,2.035,0,0,1-2.112.184,1.73,1.73,0,0,1-.735-1.133,3.123,3.123,0,0,1-.077-.719V247.032L404.48,229.6c1.117-1.714,2.74-2.648,3.873-2.235l9.292,3.4Z" transform="translate(-332.841 -192.476)" fill="none" stroke="#222" stroke-linejoin="round" stroke-width="0.459"/>
        <path id="패스_564109" data-name="패스 564109" d="M231.035,120.759a1.448,1.448,0,0,1-.735-1.454,4.8,4.8,0,0,1,2.174-3.75,1.482,1.482,0,0,1,1.669-.077" transform="translate(-195.047 -97.614)" fill="none" stroke="#222" stroke-linejoin="round" stroke-width="0.459"/>
        <path id="패스_564110" data-name="패스 564110" d="M412.621,482.52a2.235,2.235,0,0,1-1.01,1.745c-.551.321-1.01.061-1.01-.582a2.235,2.235,0,0,1,1.01-1.745c.551-.321,1.01-.061,1.01.582" transform="translate(-347.747 -408.048)" fill="#222"/>
        <path id="패스_564111" data-name="패스 564111" d="M412.621,482.52a2.235,2.235,0,0,1-1.01,1.745c-.551.321-1.01.061-1.01-.582a2.235,2.235,0,0,1,1.01-1.745C412.161,481.616,412.621,481.877,412.621,482.52Z" transform="translate(-347.747 -408.048)" fill="none" stroke="#222" stroke-linejoin="round" stroke-width="0.459"/>
        <path id="패스_564112" data-name="패스 564112" d="M415.021,484.419a2.235,2.235,0,0,1-1.01,1.745c-.551.321-1.01.061-1.01-.582a2.235,2.235,0,0,1,1.01-1.745c.551-.321,1.01-.061,1.01.582" transform="translate(-349.78 -409.657)" fill="#e2e2e2"/>
        <path id="패스_564113" data-name="패스 564113" d="M415.021,484.472a2.235,2.235,0,0,1-1.01,1.745c-.551.321-1.01.061-1.01-.582a2.235,2.235,0,0,1,1.01-1.745C414.577,483.584,415.021,483.844,415.021,484.472Z" transform="translate(-349.78 -409.71)" fill="none" stroke="#222" stroke-linejoin="round" stroke-width="0.459"/>
        <path id="패스_564114" data-name="패스 564114" d="M548.221,404.919a2.235,2.235,0,0,1-1.01,1.745c-.551.321-1.01.061-1.01-.582a2.235,2.235,0,0,1,1.01-1.745c.551-.321,1.01-.061,1.01.582" transform="translate(-462.59 -342.327)" fill="#222"/>
        <path id="패스_564115" data-name="패스 564115" d="M548.221,404.919a2.235,2.235,0,0,1-1.01,1.745c-.551.321-1.01.061-1.01-.582a2.235,2.235,0,0,1,1.01-1.745C547.761,404.016,548.221,404.277,548.221,404.919Z" transform="translate(-462.59 -342.327)" fill="none" stroke="#222" stroke-linejoin="round" stroke-width="0.459"/>
        <path id="패스_564116" data-name="패스 564116" d="M550.621,406.819a2.235,2.235,0,0,1-1.01,1.745c-.551.321-1.01.061-1.01-.582a2.235,2.235,0,0,1,1.01-1.745c.551-.321,1.01-.061,1.01.582" transform="translate(-464.623 -343.936)" fill="#e2e2e2"/>
        <path id="패스_564117" data-name="패스 564117" d="M550.621,406.819a2.235,2.235,0,0,1-1.01,1.745c-.551.321-1.01.061-1.01-.582a2.235,2.235,0,0,1,1.01-1.745C550.177,405.916,550.621,406.177,550.621,406.819Z" transform="translate(-464.623 -343.936)" fill="none" stroke="#222" stroke-linejoin="round" stroke-width="0.459"/>
        <g id="그룹_258054" data-name="그룹 258054" transform="translate(73.446 31.258)" opacity="0.1">
          <g id="그룹_258053" data-name="그룹 258053" clip-path="url(#clip-path-7)">
            <path id="패스_564118" data-name="패스 564118" d="M481.744,204.2l6.827,4.317-1.087,1.194-7.332-2.908-.352-.276Z" transform="translate(-479.8 -204.2)" fill="#222"/>
          </g>
        </g>
        <path id="패스_564119" data-name="패스 564119" d="M154.178,440.633a3.154,3.154,0,0,1-1.439,2.48c-.8.459-1.439.092-1.439-.827a3.154,3.154,0,0,1,1.439-2.48c.8-.459,1.439-.092,1.439.827" transform="translate(-128.14 -372.315)" fill="#fff"/>
        <path id="패스_564120" data-name="패스 564120" d="M154.178,440.633a3.154,3.154,0,0,1-1.439,2.48c-.8.459-1.439.092-1.439-.827a3.154,3.154,0,0,1,1.439-2.48C153.535,439.347,154.178,439.714,154.178,440.633Z" transform="translate(-128.14 -372.315)" fill="none" stroke="#222" stroke-linejoin="round" stroke-width="0.459"/>
        <path id="패스_564121" data-name="패스 564121" d="M161.578,444.833a3.154,3.154,0,0,1-1.439,2.48c-.8.459-1.439.092-1.439-.827a3.154,3.154,0,0,1,1.439-2.48c.8-.459,1.439-.092,1.439.827" transform="translate(-134.407 -375.872)" fill="#fff"/>
        <path id="패스_564122" data-name="패스 564122" d="M161.578,444.848a3.154,3.154,0,0,1-1.439,2.48c-.8.459-1.439.092-1.439-.827a3.154,3.154,0,0,1,1.439-2.48C160.935,443.562,161.578,443.945,161.578,444.848Z" transform="translate(-134.407 -375.888)" fill="none" stroke="#222" stroke-linejoin="round" stroke-width="0.459"/>
        <path id="패스_564123" data-name="패스 564123" d="M169.678,449.633a3.154,3.154,0,0,1-1.439,2.48c-.8.459-1.439.092-1.439-.827a3.154,3.154,0,0,1,1.439-2.48c.8-.459,1.439-.092,1.439.827" transform="translate(-141.267 -379.938)" fill="#fff"/>
        <path id="패스_564124" data-name="패스 564124" d="M169.678,449.633a3.154,3.154,0,0,1-1.439,2.48c-.8.459-1.439.092-1.439-.827a3.154,3.154,0,0,1,1.439-2.48C169.035,448.347,169.678,448.714,169.678,449.633Z" transform="translate(-141.267 -379.938)" fill="none" stroke="#222" stroke-linejoin="round" stroke-width="0.459"/>
        <path id="패스_564125" data-name="패스 564125" d="M177.863,454.427v.122l-1.209,1.362h0l-.168.964-.046.031a1.117,1.117,0,0,1-.873.168h0a.673.673,0,0,1-.26-.153h0a1,1,0,0,1-.291-.643A1.533,1.533,0,0,1,175,456.1a3.178,3.178,0,0,1,1.439-2.48l.184-.092a.9.9,0,0,1,.842,0,1.02,1.02,0,0,1,.4.9" transform="translate(-148.212 -384.012)" fill="#fff"/>
        <path id="패스_564126" data-name="패스 564126" d="M177.863,454.427v.122l-1.209,1.362h0l-.168.964-.046.031a1.117,1.117,0,0,1-.873.168h0a.673.673,0,0,1-.26-.153h0a1,1,0,0,1-.291-.643A1.533,1.533,0,0,1,175,456.1a3.178,3.178,0,0,1,1.439-2.48l.184-.092a.9.9,0,0,1,.842,0A.984.984,0,0,1,177.863,454.427Z" transform="translate(-148.212 -384.012)" fill="none" stroke="#222" stroke-linejoin="round" stroke-width="0.459"/>
        <path id="패스_564127" data-name="패스 564127" d="M206.887,462.223l-1.959,3.965-3.153,1.822-1.975-1.7.092-.536.367-2.036.245-1.362,1.5-1.7,1.347-1.5.352-.015,2.465-.061h.015Z" transform="translate(-169.216 -388.823)" fill="#e2e2e2"/>
        <path id="패스_564128" data-name="패스 564128" d="M206.887,462.223l-1.959,3.965-3.153,1.822-1.975-1.7.092-.536.367-2.036.245-1.362,1.5-1.7,1.347-1.5.352-.015,2.465-.061h.015Z" transform="translate(-169.216 -388.823)" fill="none" stroke="#222" stroke-linejoin="round" stroke-width="0.459"/>
        <path id="패스_564129" data-name="패스 564129" d="M191.41,450.453l-1.347,1.5-1.5,1.7-.168-.092-1.148-.658-1.01-.6L185.7,452l1.209-1.362.49-.551,1.148-1.286Z" transform="translate(-157.274 -380.1)" fill="#fff"/>
        <path id="패스_564130" data-name="패스 564130" d="M191.41,450.453l-1.347,1.5-1.5,1.7-.168-.092-1.148-.658-1.01-.6L185.7,452l1.209-1.362.49-.551,1.148-1.286Z" transform="translate(-157.274 -380.1)" fill="none" stroke="#222" stroke-linejoin="round" stroke-width="0.459"/>
        <path id="패스_564131" data-name="패스 564131" d="M209.979,449.953h0l-2.465.061-.352.015-2.863-1.653,2.832-.077h0Z" transform="translate(-173.027 -379.676)" fill="#fff"/>
        <path id="패스_564132" data-name="패스 564132" d="M209.979,449.953h0l-2.465.061-.352.015-2.863-1.653,2.832-.077h0Z" transform="translate(-173.027 -379.676)" fill="none" stroke="#222" stroke-linejoin="round" stroke-width="0.459"/>
        <path id="패스_564133" data-name="패스 564133" d="M184.667,471.353l-.245,1.362-.352,2.036-.995.582-1.975-1.7.536-2.97.168-.964h0l.536.306,1.01.6,1.148.658Z" transform="translate(-153.378 -397.8)" fill="#e2e2e2"/>
        <path id="패스_564134" data-name="패스 564134" d="M184.667,471.353l-.245,1.362-.352,2.036-.995.582-1.975-1.7.536-2.97.168-.964h0l.536.306,1.01.6,1.148.658Z" transform="translate(-153.378 -397.8)" fill="none" stroke="#222" stroke-linejoin="round" stroke-width="0.459"/>
        <path id="패스_564135" data-name="패스 564135" d="M167.5,440.3l.015.015,1.117.643,1.24.719,1.24.7.873.505h0" transform="translate(-141.86 -372.901)" fill="none" stroke="#222" stroke-linejoin="round" stroke-width="0.459"/>
        <path id="패스_564136" data-name="패스 564136" d="M152.8,462.4h.015l1.163.674,1.271.735,1.286.75.9.505v.015" transform="translate(-129.41 -391.618)" fill="none" stroke="#222" stroke-linejoin="round" stroke-width="0.459"/>
        <g id="그룹_258056" data-name="그룹 258056" transform="translate(23.558 70.874)" opacity="0.1">
          <g id="그룹_258055" data-name="그룹 258055" clip-path="url(#clip-path-8)">
            <path id="패스_564137" data-name="패스 564137" d="M153.9,463v.015h.015l1.1.628.077.061h.015l1.087.628.2.107,1.01.6h0l.26.153h.015l.689.4" transform="translate(-153.9 -463)" fill="#222"/>
          </g>
        </g>
        <path id="패스_564138" data-name="패스 564138" d="M196.863,504.935,194,503.282h0l.98-.582-.092.536Z" transform="translate(-164.303 -425.749)" fill="#e2e2e2"/>
        <path id="패스_564139" data-name="패스 564139" d="M196.863,504.935,194,503.282h0l.98-.582-.092.536Z" transform="translate(-164.303 -425.749)" fill="none" stroke="#222" stroke-linejoin="round" stroke-width="0.459"/>
        <path id="패스_564140" data-name="패스 564140" d="M81.938,48.241,90.3,61.85,95.133,54.5a4.557,4.557,0,0,1,3.306-2.327,1.638,1.638,0,0,1,.566.092l11.481,4.194v.367l1.852.674L110.5,56.431h-.015l1.852,1.072h0l25.426,14.68,7.439-8.266a6.383,6.383,0,0,1,7.118-8.633h0l1.531,1.225h0l-2.847,2.878-.337,3.107.995.9,2.893-.643,2.6-3.184,1.546,1.24a6.383,6.383,0,0,1-7.807,8.113l-6.429,7.149,3.261,1.9h0l2.174,1.255.077.046-2.25-1.3h0v.459l2.174.8V102.17a6.481,6.481,0,0,1-2.924,5.051L126.008,119.33a2.664,2.664,0,0,1-1.316.4,1.5,1.5,0,0,1-.811-.214,1.73,1.73,0,0,1-.735-1.133,2.189,2.189,0,0,1-.628.107,1.5,1.5,0,0,1-.8-.214h-.015L84.464,96.751h0a2.045,2.045,0,0,1-.811-1.852V71.953h0l1.684-2.541L75.141,52.8l6.8-4.562m0-.842a.842.842,0,0,0-.475.138l-6.8,4.577a.842.842,0,0,0-.245,1.133l9.9,16.134-1.378,2.1-.046.092a.857.857,0,0,0-.092.383V94.9a2.926,2.926,0,0,0,1.087,2.5l.138.107,37.259,21.492.2.077a2.357,2.357,0,0,0,1.026.23h.077a2.3,2.3,0,0,0,2.082,1.255,3.475,3.475,0,0,0,1.73-.52l20.971-12.108a7.26,7.26,0,0,0,3.352-5.771V79.637a.842.842,0,0,0-.337-1.1l-.077-.046-2.143-1.24h-.031l-2.373-1.362,5.4-6a7.225,7.225,0,0,0,8.343-9.353.842.842,0,0,0-.276-.4l-1.546-1.24a.842.842,0,0,0-1.179.122L154.1,61.972l-2.189.49-.352-.321.276-2.373,2.633-2.648a.842.842,0,0,0,.2-.873h0a.842.842,0,0,0-.276-.383l-1.531-1.225a.842.842,0,0,0-.459-.184,7.225,7.225,0,0,0-8.159,9.307L137.6,71.141,112.737,56.8h-.015l-1.837-1.056a.842.842,0,0,0-.306-.107L99.281,51.5a2.48,2.48,0,0,0-.857-.153,5.315,5.315,0,0,0-4.011,2.709l-4.1,6.245L82.657,47.813a.842.842,0,0,0-.536-.383h-.184" transform="translate(-62.926 -40.144)" fill="#222"/>
        <path id="패스_564141" data-name="패스 564141" d="M474.994,220.609,472.3,219.4l.918.077,13.272,4.378.49.612Z" transform="translate(-400.002 -185.815)" fill="#222"/>
        <path id="패스_564142" data-name="패스 564142" d="M230.294,79.809,227.6,78.6l.9.077,13.272,4.378.49.612Z" transform="translate(-192.76 -66.568)" fill="#222"/>
        <line id="선_77540" data-name="선 77540" x2="39.585" y2="22.854" transform="translate(20.726 31.809)" fill="none" stroke="#222" stroke-linejoin="round" stroke-width="0.765"/>
        <path id="패스_564143" data-name="패스 564143" d="M134.7,190.138l-1.5,2.556,5.281,2.8L134.93,190Z" transform="translate(-112.81 -160.916)" fill="#333"/>
        <path id="패스_564144" data-name="패스 564144" d="M134.7,190.138l-1.5,2.556,5.281,2.8L134.93,190Z" transform="translate(-112.81 -160.916)" fill="none" stroke="#333" stroke-miterlimit="10" stroke-width="0.153"/>
        <line id="선_77541" data-name="선 77541" x1="0.168" y1="0.092" transform="translate(28.258 71.808)" fill="none" stroke="#222" stroke-linejoin="round" stroke-width="0.459"/>
        <g id="그룹_258058" data-name="그룹 258058" transform="translate(23.114 69.389)" opacity="0.1">
          <g id="그룹_258057" data-name="그룹 258057" clip-path="url(#clip-path-9)">
            <path id="패스_564145" data-name="패스 564145" d="M156.245,456.27l-5.1-2.97a2.195,2.195,0,0,0,0,1.485c.306.674,5.021,2.832,5.021,2.832Z" transform="translate(-151.009 -453.3)" fill="#222"/>
          </g>
        </g>
        <path id="패스_564146" data-name="패스 564146" d="M221.387,370.518c0,.674-.306,1.072-.735,1.072a.98.98,0,0,1-.49-.153L209.524,365.3a2.9,2.9,0,0,1-1.225-2.327,1.913,1.913,0,0,1,.031-.367c.092-.444.352-.7.7-.7a.98.98,0,0,1,.49.153l10.639,6.138a2.879,2.879,0,0,1,1.194,1.929,2.618,2.618,0,0,1,.031.4" transform="translate(-176.413 -306.502)" fill="#fff"/>
        <path id="패스_564147" data-name="패스 564147" d="M221.387,370.518c0,.674-.306,1.072-.735,1.072a.98.98,0,0,1-.49-.153L209.524,365.3a2.9,2.9,0,0,1-1.225-2.327,1.913,1.913,0,0,1,.031-.367c.092-.444.352-.7.7-.7a.98.98,0,0,1,.49.153l10.639,6.138a2.879,2.879,0,0,1,1.194,1.929A2.618,2.618,0,0,1,221.387,370.518Z" transform="translate(-176.413 -306.502)" fill="none" stroke="#222" stroke-linejoin="round" stroke-width="0.459"/>
        <path id="패스_564148" data-name="패스 564148" d="M221.611,370.02c-.092.444-.352.7-.7.7a.979.979,0,0,1-.49-.153l-10.639-6.138A2.864,2.864,0,0,1,208.6,362.5c.092-.444.352-.7.7-.7a.98.98,0,0,1,.49.153l10.639,6.138a2.88,2.88,0,0,1,1.194,1.929" transform="translate(-176.668 -306.417)" fill="#c9c9c9"/>
        <path id="패스_564149" data-name="패스 564149" d="M221.611,370.02c-.092.444-.352.7-.7.7a.979.979,0,0,1-.49-.153l-10.639-6.138A2.864,2.864,0,0,1,208.6,362.5c.092-.444.352-.7.7-.7a.98.98,0,0,1,.49.153l10.639,6.138A2.957,2.957,0,0,1,221.611,370.02Z" transform="translate(-176.668 -306.417)" fill="none" stroke="#222" stroke-linejoin="round" stroke-width="0.459"/>
        <path id="패스_564150" data-name="패스 564150" d="M141.6,368.783l1.194-.383,34.871,20.221.52,1.791Z" transform="translate(-119.925 -312.007)" fill="#222"/>
        <path id="패스_564151" data-name="패스 564151" d="M151.542,437.906a.735.735,0,0,1,.4.107l2.786,1.607-.429-.245-1.24-.719-1.117-.643h-.015a.873.873,0,0,1,.367.612,1.1,1.1,0,0,1,.367-.061c.429,0,.719.306.781.827a1.163,1.163,0,0,1,.459-.107c.413,0,.719.291.781.827h0a1.163,1.163,0,0,1,.459-.107.735.735,0,0,1,.4.107,1.02,1.02,0,0,1,.4.9v.122l.475-.536-1.684-.98.827.475.873.505,1.148-1.3,2.847-.077h0l2.847,1.638h.015l.7,3.123-1.959,3.965-3.153,1.822-2.893-1.623h0l-1.959-1.7.4-2.189c-.781-.367,0,0-4.868-2.771a2.206,2.206,0,0,1,0-1.485h0a3.243,3.243,0,0,1,1.362-1.9,1.3,1.3,0,0,1,.643-.2m0-.306a1.592,1.592,0,0,0-.8.245,3.513,3.513,0,0,0-1.5,2.1h0a2.786,2.786,0,0,0-.122.52,2.082,2.082,0,0,0,.138,1.163.306.306,0,0,0,.122.138c2.434,1.378,3.46,1.99,3.965,2.281a8.118,8.118,0,0,0,.719.4l-.367,1.944a.306.306,0,0,0,.107.291l1.944,1.684.061.046,2.863,1.653.153.046.153-.046,3.153-1.822a.306.306,0,0,0,.122-.122l1.959-3.965a.306.306,0,0,0,.031-.2l-.7-3.123a.306.306,0,0,0-.153-.2h0l-2.832-1.638a.306.306,0,0,0-.168-.061h0l-2.832.077a.306.306,0,0,0-.214.107l-.98,1.1-.643-.383-.827-.475-2.786-1.607a1.041,1.041,0,0,0-.551-.153" transform="translate(-126.285 -370.614)" fill="#222"/>
        <path id="패스_564152" data-name="패스 564152" d="M471.806,350.9v-1.531l-1.072.628a2.051,2.051,0,0,0-.383-.842l.765-1.316-.949-.536-.765,1.316a2.082,2.082,0,0,0-.934.092v-1.24l-1.332.765v1.24a6.261,6.261,0,0,0-.934.98l-.765-.429-.949,1.623.765.429a6.2,6.2,0,0,0-.383,1.286l-1.072.628v1.531l1.072-.628a2.051,2.051,0,0,0,.383.842l-.765,1.316.949.536.765-1.316a2.1,2.1,0,0,0,.934-.092v1.24l1.332-.765v-1.24a6.246,6.246,0,0,0,.934-.98l.765.429.949-1.623-.765-.429a6.2,6.2,0,0,0,.383-1.286Zm-4,3.077c-.735.429-1.332.092-1.332-.765a2.9,2.9,0,0,1,1.332-2.3c.735-.413,1.332-.092,1.332.765a2.9,2.9,0,0,1-1.332,2.3" transform="translate(-392.804 -294.137)" fill="#fff"/>
        <path id="패스_564153" data-name="패스 564153" d="M476.347,257.1a4.8,4.8,0,0,1-2.174,3.75c-1.194.689-2.174.138-2.174-1.24a4.8,4.8,0,0,1,2.174-3.75c1.194-.689,2.174-.138,2.174,1.24" transform="translate(-399.748 -216.442)" fill="#fff"/>
        <path id="패스_564154" data-name="패스 564154" d="M476.347,257.1a4.8,4.8,0,0,1-2.174,3.75c-1.194.689-2.174.138-2.174-1.24a4.8,4.8,0,0,1,2.174-3.75C475.368,255.17,476.347,255.721,476.347,257.1Z" transform="translate(-399.748 -216.442)" fill="none" stroke="#222" stroke-linejoin="round" stroke-width="0.459"/>
        <path id="패스_564155" data-name="패스 564155" d="M481.747,261.3a4.8,4.8,0,0,1-2.174,3.75c-1.194.689-2.174.138-2.174-1.24a4.8,4.8,0,0,1,2.174-3.75c1.194-.689,2.174-.138,2.174,1.24" transform="translate(-404.322 -219.999)" fill="#3673ee"/>
        <path id="패스_564156" data-name="패스 564156" d="M481.747,261.3a4.8,4.8,0,0,1-2.174,3.75c-1.194.689-2.174.138-2.174-1.24a4.8,4.8,0,0,1,2.174-3.75C480.768,259.37,481.747,259.921,481.747,261.3Z" transform="translate(-404.322 -219.999)" fill="none" stroke="#222" stroke-linejoin="round" stroke-width="0.459"/>
        <line id="선_77542" data-name="선 77542" y1="15.522" x2="26.895" transform="translate(60.159 57.128)" fill="#fff"/>
        <line id="선_77543" data-name="선 77543" y1="15.522" x2="26.895" transform="translate(60.159 57.128)" fill="none" stroke="#222" stroke-linejoin="round" stroke-width="0.459"/>
        <path id="패스_564157" data-name="패스 564157" d="M396.787,256.882l-1.087-3.6,2.174-3.475L396.1,247.1l5.327,2.847Z" transform="translate(-335.128 -209.275)" fill="#333"/>
        <path id="패스_564158" data-name="패스 564158" d="M396.787,256.882l-1.087-3.6,2.174-3.475L396.1,247.1l5.327,2.847Z" transform="translate(-335.128 -209.275)" fill="none" stroke="#333" stroke-miterlimit="10" stroke-width="0.153"/>
        <path id="패스_564159" data-name="패스 564159" d="M353.5,220.4l.4,2.893.9.719,3.4-.811Z" transform="translate(-299.388 -186.662)" fill="#333"/>
        <path id="패스_564160" data-name="패스 564160" d="M353.5,220.4l.4,2.893.9.719,3.4-.811Z" transform="translate(-299.388 -186.662)" fill="none" stroke="#333" stroke-miterlimit="10" stroke-width="0.153"/>
        <path id="패스_564161" data-name="패스 564161" d="M301,283.074a5.8,5.8,0,0,1,1.531-3.674,8.438,8.438,0,0,1,4.73,7.256Z" transform="translate(-254.924 -236.631)" fill="#333"/>
        <path id="패스_564162" data-name="패스 564162" d="M301,283.074a5.8,5.8,0,0,1,1.531-3.674,8.438,8.438,0,0,1,4.73,7.256Z" transform="translate(-254.924 -236.631)" fill="none" stroke="#333" stroke-miterlimit="10" stroke-width="0.153"/>
        <path id="패스_564163" data-name="패스 564163" d="M530.8,232.186l1.163-1.286,1.607,2.143Z" transform="translate(-449.548 -195.555)" fill="#222"/>
        <path id="패스_564164" data-name="패스 564164" d="M151.147,453.3a2.195,2.195,0,0,0,0,1.485l4.868,2.771" transform="translate(-127.895 -383.911)" fill="none" stroke="#222" stroke-linejoin="round" stroke-width="0.306"/>
      </g>
    </g>
  </g>
</svg>
