<svg xmlns="http://www.w3.org/2000/svg" width="24" height="24" viewBox="0 0 24 24"><defs><style>.a{fill:#60584c;}.b{fill:#f8b500;}</style></defs><g transform="translate(-135 -506)"><circle class="a" cx="12" cy="12" r="12" transform="translate(135 506)"/><g transform="translate(139.901 512.549)"><path class="b" d="M233.842,415.17l-.13-.078a2.389,2.389,0,0,0-1.878-.559,3.634,3.634,0,0,0-1.642.542c0-.006,0-.012,0-.018a6.111,6.111,0,0,1,.048-.644,5.99,5.99,0,0,0,.049-.654,1.474,1.474,0,0,0-.1-.6.122.122,0,0,0-.118-.072,1.854,1.854,0,0,0-.757.237l-.057.12a4.676,4.676,0,0,1-.112.968s-.029.079-.029.079a11.344,11.344,0,0,0-.009,2.462c.01.07.151.177.261.215a1.714,1.714,0,0,0,.713-.132l.082-.012a.119.119,0,0,0,.1-.137s.005-.2.005-.2a2.074,2.074,0,0,1,1.54-1.445,1.1,1.1,0,0,1,1.022.316,1.288,1.288,0,0,1-.166.991,2.132,2.132,0,0,1-1.17.883,4.668,4.668,0,0,1-1.791.24l-.659-.425a9.6,9.6,0,0,0-1.879-1.07,2.242,2.242,0,0,1-.426-.291l-.065-.051c-.362-.279-1.051-.718-1.606-1.072l-.3-.191c0-.02,0-.06,0-.06.015-.017.363-.216.363-.216a3.777,3.777,0,0,0,.761-.476c-.01.011.065-.037.065-.037l1.208-.654a14.908,14.908,0,0,0,3.162-1.985s.034-.1.034-.1l.015-.093a.622.622,0,0,0,.011-.389.13.13,0,0,0-.094-.088,2.692,2.692,0,0,0-1.865.825,1.676,1.676,0,0,1-.39.257l-.1.052c-.7.38-2.268,1.312-3.09,1.816a25.636,25.636,0,0,1,.418-3.053l-.022-.12-.085-.152-.064-.109-.019,0a.532.532,0,0,0-.4-.023l-.165.057-.218.076a.118.118,0,0,0-.091.074,12.276,12.276,0,0,0-.8,3.6,19.206,19.206,0,0,0-1.865-.988l-.01-.005-.043-.009a1.361,1.361,0,0,1-.435-.193l-.3-.184-.456-.28s-.12-.026-.12-.026a1.425,1.425,0,0,0-.683.439.115.115,0,0,0-.021.07.352.352,0,0,0,.021.1l.02.089.021.054a6.549,6.549,0,0,0,1.31.85l.627.318.96.5s.164.123.164.123l.113.063.02.012L221,415.819l-.918.581a5.4,5.4,0,0,1-.529.243.748.748,0,0,0-.413.326l-.024.05.025.034.07.051s.094.059.094.059l.1.067.1.013a2.478,2.478,0,0,0,.847-.269c.411-.174,1.526-.818,2-1.092l.2-.117a.457.457,0,0,0,.259-.121,2.567,2.567,0,0,1,.43-.249l.143-.076c0,.021,0,.052,0,.052a17.941,17.941,0,0,0,.265,3.19l0,.014.016.031a3.4,3.4,0,0,1,.246.733l.182.582c0,.007.051.055.051.055a1.247,1.247,0,0,0,.63.16l.053-.006.033-.072a1.258,1.258,0,0,0,.024-.266c0-.107-.008-.224-.018-.367l-.014-.211c-.067-.974-.133-2.381-.133-3.315,0-.026,0-.049,0-.075l.929.561a22.3,22.3,0,0,0,4.406,2.326.178.178,0,0,0,.17-.037l.181-.111.033-.013a.306.306,0,0,0,.121-.258,4.5,4.5,0,0,0,3.11-1.3,1.8,1.8,0,0,0,.415-1.129.933.933,0,0,0-.242-.692" transform="translate(-219.112 -409.932)"/></g></g></svg>