<svg xmlns="http://www.w3.org/2000/svg" width="26.999" height="27"><defs><filter id="a" x="0" y="0" width="26.999" height="27" filterUnits="userSpaceOnUse"><feOffset dy="1"/><feGaussianBlur stdDeviation=".5" result="blur"/><feFlood flood-color="#111" flood-opacity=".078"/><feComposite operator="in" in2="blur"/><feComposite in="SourceGraphic"/></filter></defs><g filter="url(#a)"><g data-name="제외 1" fill="#fff"><path d="M13.5 24c-3.072 0-5.96-1.196-8.132-3.368A11.426 11.426 0 012 12.5c0-3.072 1.197-5.96 3.368-8.132A11.424 11.424 0 0113.5 1c3.072 0 5.96 1.196 8.132 3.368A11.424 11.424 0 0125 12.5c0 3.072-1.196 5.96-3.368 8.132A11.424 11.424 0 0113.5 24zm0-7.25l3.545 1.223.685.236-.022-.724-.11-3.61 2.293-2.86.472-.59-.727-.205-3.61-1.017-2.118-2.992-.408-.576-.408.576-2.118 2.992-3.61 1.017-.727.205.473.59 2.293 2.86-.11 3.61-.023.724.685-.236L13.5 16.75z"/><path d="M13.5 23.5c2.938 0 5.7-1.144 7.778-3.222A10.93 10.93 0 0024.5 12.5c0-2.938-1.144-5.7-3.222-7.778A10.928 10.928 0 0013.5 1.5c-2.938 0-5.7 1.144-7.778 3.222A10.928 10.928 0 002.5 12.5c0 2.938 1.145 5.7 3.222 7.778A10.927 10.927 0 0013.5 23.5m0-6.221l-3.382 1.166-1.37.473.045-1.448.104-3.426-2.177-2.717-.945-1.178 1.453-.41 3.44-.97 2.016-2.847.816-1.152.816 1.152 2.016 2.847 3.44.97 1.453.41-.944 1.178-2.178 2.717.105 3.426.044 1.448-1.37-.473L13.5 17.28m0 7.221a11.92 11.92 0 01-8.485-3.515A11.922 11.922 0 011.5 12.5c0-3.205 1.249-6.219 3.515-8.485A11.92 11.92 0 0113.5.5a11.92 11.92 0 018.485 3.515A11.921 11.921 0 0125.5 12.5c0 3.205-1.248 6.219-3.515 8.485A11.92 11.92 0 0113.5 24.5zm3.708-7l-.116-3.794 2.408-3.004-3.78-1.066L13.5 6.5l-2.22 3.136-3.78 1.066 2.408 3.004-.116 3.794 3.708-1.279 3.708 1.28z"/></g></g></svg>