<svg xmlns="http://www.w3.org/2000/svg" width="28" height="28"><defs><clipPath id="clip-path"><path id="사각형_239140" data-name="사각형 239140" fill="none" d="M0 0h28v28H0z"/></clipPath><style>.cls-2{clip-path:url(#clip-path)}.cls-4{fill:#fff}.cls-7{fill:#111}</style></defs><g id="공지사항_28x28" transform="translate(14 14)"><g id="그룹_309283" data-name="그룹 309283" class="cls-2" transform="translate(-14 -14)"><path id="사각형_239136" data-name="사각형 239136" fill="#fddb2b" d="M0 0h28v28H0z"/><g id="그룹_309282" data-name="그룹 309282" class="cls-2"><path id="패스_638138" data-name="패스 638138" class="cls-4" d="M1.9 24.3a.9.9 0 000 .6 1.7 1.7 0 010-.3.9.9 0 010-.3M2 24L13.5 5.4z"/><path id="패스_638139" data-name="패스 638139" class="cls-4" d="M27.9 24.9v.1h-.1v.2l-.2.2H2.3l-.3-.3v-.3a1.7 1.7 0 010-.3.9.9 0 010-.3L13.5 5.4l.5-.7a1.1 1.1 0 01.9-.5h.5l.4.4 12 19.4a1.1 1.1 0 01.1.9"/><path id="패스_638140" data-name="패스 638140" class="cls-7" d="M13 4.5L2 22.3h22L13 4.5m0-2.1a1.1 1.1 0 01.9.5l12 19.3a1.1 1.1 0 01-.9 1.6H1.1a1.1 1.1 0 01-.9-1.6l12-19.3a1.1 1.1 0 01.9-.5"/><path id="패스_638141" data-name="패스 638141" class="cls-7" d="M14.2 18.9a1 1 0 01-.3.8 1.217 1.217 0 01-1.6 0 1 1 0 01-.3-.8.9.9 0 01.3-.7 1.217 1.217 0 011.6 0 .9.9 0 01.3.7m-.1-7.9l-.2 5a.7.7 0 01-.8.8.7.7 0 01-.8-.8l-.3-5z"/></g></g></g></svg>