<svg xmlns="http://www.w3.org/2000/svg" xmlns:xlink="http://www.w3.org/1999/xlink" width="28" height="28" viewBox="0 0 28 28">
  <defs>
    <style>
      .cls-1, .cls-6, .cls-7, .cls-8, .cls-9 {
        fill: none;
      }

      .cls-2 {
        clip-path: url(#clip-path);
      }

      .cls-3 {
        opacity: 0;
      }

      .cls-4 {
        fill: #f0f;
      }

      .cls-5 {
        fill: #fff;
      }

      .cls-6, .cls-7, .cls-8, .cls-9 {
        stroke: #111;
        stroke-width: 1.5px;
      }

      .cls-6, .cls-8 {
        stroke-linecap: round;
      }

      .cls-6, .cls-9 {
        stroke-linejoin: round;
      }

      .cls-7 {
        stroke-linecap: square;
      }
    </style>
    <clipPath id="clip-path">
      <rect id="사각형_240137" data-name="사각형 240137" class="cls-1" width="28" height="28"/>
    </clipPath>
  </defs>
  <g id="이용약관2_28x28" transform="translate(14 14)">
    <g id="이용약관2_28x28-2" data-name="이용약관2_28x28" class="cls-2" transform="translate(-14 -14)">
      <g id="그룹_310379" data-name="그룹 310379" class="cls-2">
        <g id="그룹_310376" data-name="그룹 310376" class="cls-3">
          <g id="그룹_310375" data-name="그룹 310375" class="cls-2">
            <rect id="사각형_240132" data-name="사각형 240132" class="cls-4" width="28" height="28"/>
          </g>
        </g>
        <path id="패스_640165" data-name="패스 640165" class="cls-5" d="M11.3,17.2l1.3-1.7a1,1,0,0,0,.2-.6V4.3a1,1,0,0,0-1-1H8.2V15a1.1,1.1,0,0,0,.2.7l1.3,1.5a1,1,0,0,0,1.4.2l.2-.2"/>
        <path id="패스_640166" data-name="패스 640166" class="cls-5" d="M17.8,6.2h6.3a.7.7,0,0,1,.7.7V25.6a.7.7,0,0,1-.7.7H11.5A4.5,4.5,0,0,1,7,21.8V7.6A1.5,1.5,0,0,1,8.4,6.2Z"/>
        <path id="패스_640167" data-name="패스 640167" class="cls-6" d="M15.6,4.4h7v20H9.3a4.5,4.5,0,0,1-4.5-4.5V4.4H8.7"/>
        <line id="선_88129" data-name="선 88129" class="cls-7" x1="1.3" transform="translate(10.8 15.3)"/>
        <line id="선_88130" data-name="선 88130" class="cls-8" x1="4.6" transform="translate(12.1 15.3)"/>
        <path id="패스_640168" data-name="패스 640168" class="cls-9" d="M10.3,14.3,12,12.2V2.6H8.7v9.7Z"/>
        <line id="선_88131" data-name="선 88131" class="cls-7" x1="1.9" transform="translate(10.8 18.6)"/>
        <line id="선_88132" data-name="선 88132" class="cls-8" x1="4" transform="translate(12.7 18.6)"/>
        <g id="그룹_310378" data-name="그룹 310378" class="cls-3">
          <g id="그룹_310377" data-name="그룹 310377" class="cls-2">
            <rect id="사각형_240134" data-name="사각형 240134" class="cls-4" width="28" height="28"/>
          </g>
        </g>
      </g>
    </g>
  </g>
</svg>
