<svg xmlns="http://www.w3.org/2000/svg" width="40" height="40"><g data-name="그룹 262692"><g data-name="그룹 260106"><circle data-name="타원 7634" cx="15.622" cy="15.622" r="15.622" transform="translate(3.667 4.373)" fill="#fff"/><circle data-name="타원 7633" cx="15.622" cy="15.622" r="15.622" transform="translate(4.667 4.958)" fill="#c5c9d3"/><circle data-name="타원 7634" cx="15.622" cy="15.622" r="15.622" transform="translate(3.667 4.373)" fill="none" stroke="#717888" stroke-linejoin="round"/></g><g data-name="그룹 260168"><path data-name="Path 239343" d="M20.2 12.394a7.622 7.622 0 11-7.56 7.686v-.128a7.624 7.624 0 017.56-7.558" fill="#fff"/><path data-name="Path 239344" d="M13.119 16.814a7.436 7.436 0 011.421-2" fill="none" stroke="#111" stroke-linecap="square" stroke-linejoin="round"/><path data-name="Path 239345" d="M14.476 10.355s0 2.967 1.808 2.967h.129a7.623 7.623 0 11-3.294 3.493" fill="none" stroke="#111" stroke-linecap="round" stroke-linejoin="round"/><path data-name="Path 239346" d="M16.934 10.936s-.47 1.694.562 1.887" fill="none" stroke="#111" stroke-linecap="round" stroke-linejoin="round"/><path data-name="Path 239347" d="M20.289 20.885a1.486 1.486 0 01-2.907 0" fill="none" stroke="#111" stroke-linecap="square" stroke-miterlimit="10"/><path data-name="Line 26071" fill="none" stroke="#111" stroke-linecap="round" d="M21.13 18.13v.3"/><path data-name="Line 26071-2" fill="none" stroke="#111" d="M21.13 16.815v1.315"/><path data-name="Line 26072" fill="none" stroke="#111" stroke-linecap="round" d="M16.607 17.995v.435"/><path data-name="Line 26072-2" fill="none" stroke="#111" d="M16.607 16.815v1.18"/><path data-name="사각형 214890" fill="none" d="M11.343 10.129h19v19h-19z"/></g></g></svg>