<svg xmlns="http://www.w3.org/2000/svg" xmlns:xlink="http://www.w3.org/1999/xlink" width="20" height="20" viewBox="0 0 20 20">
  <defs>
    <style>
      .cls-1, .cls-3 {
        fill: none;
      }

      .cls-2 {
        clip-path: url(#clip-path);
      }

      .cls-3 {
        stroke: #111;
        stroke-width: 1.5px;
      }

      .cls-4 {
        fill: #111;
      }
    </style>
    <clipPath id="clip-path">
      <rect id="사각형_226309" data-name="사각형 226309" class="cls-1" width="20" height="20"/>
    </clipPath>
  </defs>
  <g id="고객지원_20x20" transform="translate(10 10)">
    <g id="그룹_294441" data-name="그룹 294441" class="cls-2" transform="translate(-10 -10)">
      <circle id="타원_8107" data-name="타원 8107" class="cls-3" cx="9.3" cy="9.3" r="9.3" transform="translate(0.7 0.7)"/>
      <path id="패스_596886" data-name="패스 596886" class="cls-4" d="M9.4,12.5a1.2,1.2,0,0,1,.8.3,1,1,0,0,1,.3.8,1,1,0,0,1-.3.8,1.217,1.217,0,0,1-1.6,0,1,1,0,0,1-.3-.8,1,1,0,0,1,.3-.8,1.2,1.2,0,0,1,.8-.3m-2-6.2,1.5-.6h1a3.2,3.2,0,0,1,1.8.5,1.8,1.8,0,0,1,.8,1.6,2.5,2.5,0,0,1-1.1,1.8l-.2.2-.9.7a.6.6,0,0,0-.3.5v.3q0,.7-.8.7t-.9-1a1.7,1.7,0,0,1,.6-1.3l1.1-1a1.2,1.2,0,0,0,.6-.9q0-.8-1-.8A2.6,2.6,0,0,0,8,7.6Z"/>
    </g>
  </g>
</svg>
