<svg xmlns="http://www.w3.org/2000/svg" xmlns:xlink="http://www.w3.org/1999/xlink" width="110" height="90.711" viewBox="0 0 110 90.711">
  <defs>
    <clipPath id="clip-path">
      <rect id="사각형_215523" data-name="사각형 215523" width="110" height="90.711" fill="none"/>
    </clipPath>
    <clipPath id="clip-path-3">
      <rect id="사각형_215515" data-name="사각형 215515" width="79.431" height="45.466" fill="none"/>
    </clipPath>
    <clipPath id="clip-path-4">
      <rect id="사각형_215516" data-name="사각형 215516" width="20.726" height="11.306" fill="none"/>
    </clipPath>
    <clipPath id="clip-path-5">
      <rect id="사각형_215517" data-name="사각형 215517" width="29.972" height="13.708" fill="none"/>
    </clipPath>
    <clipPath id="clip-path-6">
      <rect id="사각형_215518" data-name="사각형 215518" width="12.506" height="13.748" fill="none"/>
    </clipPath>
    <clipPath id="clip-path-7">
      <rect id="사각형_215519" data-name="사각형 215519" width="38.376" height="22.501" fill="none"/>
    </clipPath>
    <clipPath id="clip-path-8">
      <rect id="사각형_215520" data-name="사각형 215520" width="7.792" height="33.664" fill="none"/>
    </clipPath>
    <clipPath id="clip-path-9">
      <rect id="사각형_215521" data-name="사각형 215521" width="13.593" height="7.917" fill="none"/>
    </clipPath>
  </defs>
  <g id="오일교체서비스란_111x92" data-name="오일교체서비스란? 111x92" transform="translate(55 45.355)">
    <g id="그룹_271977" data-name="그룹 271977" transform="translate(-55 -45.355)" clip-path="url(#clip-path)">
      <g id="그룹_271976" data-name="그룹 271976" clip-path="url(#clip-path)">
        <path id="패스_566921" data-name="패스 566921" d="M102.363,147.521l-11.282,9.965-4.439,3.919h0l-1.393.811,1.393.8h0L56.058,180.907,7.9,153.093l1.393-.811L7.9,151.471l30.554-17.849h.015l15.69-13.884,8.894-.459a3.551,3.551,0,0,1,1.944.475l46.122,26.574a.383.383,0,0,1-.168.719Z" transform="translate(-6.691 -101.017)" fill="#fff"/>
        <path id="패스_566922" data-name="패스 566922" d="M102.363,147.521l-11.282,9.965-4.439,3.919h0l-1.393.811,1.393.8h0L56.058,180.907,7.9,153.093l1.393-.811L7.9,151.471l30.554-17.849h.015l15.69-13.884,8.894-.459a3.551,3.551,0,0,1,1.944.475l46.122,26.574a.383.383,0,0,1-.168.719Z" transform="translate(-6.691 -101.017)" fill="none" stroke="#222" stroke-linejoin="round" stroke-width="1.225"/>
        <g id="그룹_271963" data-name="그룹 271963" transform="translate(0.842 35.988)" opacity="0.15">
          <g id="그룹_271962" data-name="그룹 271962" clip-path="url(#clip-path-3)">
            <path id="패스_566923" data-name="패스 566923" d="M84.9,262.922,55.11,280.311a2.419,2.419,0,0,1-2.419,0l-47.04-27.14a.367.367,0,0,1,0-.643L36.067,235.2H36.1Z" transform="translate(-5.468 -235.185)" fill="#222"/>
          </g>
        </g>
        <path id="패스_566924" data-name="패스 566924" d="M86.642,251.314,56.058,269.178,7.9,241.364l30.554-17.849h0l.031-.015,48.158,27.814Z" transform="translate(-6.691 -189.288)" fill="#f4f4f4"/>
        <path id="패스_566925" data-name="패스 566925" d="M86.642,251.314,56.058,269.178,7.9,241.364l30.554-17.849h0l.031-.015,48.158,27.814Z" transform="translate(-6.691 -189.288)" fill="none" stroke="#222" stroke-linejoin="round" stroke-width="0.612"/>
        <g id="그룹_271965" data-name="그룹 271965" transform="translate(84.253 45.938)" opacity="0.15">
          <g id="그룹_271964" data-name="그룹 271964" clip-path="url(#clip-path-4)">
            <path id="패스_566926" data-name="패스 566926" d="M571.72,301.041,552.479,311.8l-1.179-.689,11.282-9.965h0l9.031-.475a.2.2,0,0,1,.107.383" transform="translate(-551.162 -300.582)"/>
            <path id="패스_566927" data-name="패스 566927" d="M571.72,301.067l-19.242,10.761-1.179-.689,11.282-9.965h0l9.031-.475a.2.2,0,0,1,.107.367Z" transform="translate(-551.162 -300.608)" fill="none" stroke="#222" stroke-miterlimit="10" stroke-width="0.153"/>
          </g>
        </g>
        <path id="패스_566928" data-name="패스 566928" d="M527.918,369.589l-5.618,3.245h0l4.439-3.934,1.179.689Z" transform="translate(-442.349 -312.43)" fill="#fff"/>
        <path id="패스_566929" data-name="패스 566929" d="M527.918,369.589l-5.618,3.245h0l4.439-3.934,1.179.689Z" transform="translate(-442.349 -312.43)" fill="none" stroke="#222" stroke-miterlimit="10" stroke-width="0.153"/>
        <path id="패스_566930" data-name="패스 566930" d="M86.642,240.714,56.058,258.578,7.9,230.764l30.554-17.849h0l.031-.015,48.158,27.814Z" transform="translate(-6.691 -180.31)" fill="#fff"/>
        <path id="패스_566931" data-name="패스 566931" d="M86.642,240.714,56.058,258.578,7.9,230.764l30.554-17.849h0l.031-.015,48.158,27.814Z" transform="translate(-6.691 -180.31)" fill="none" stroke="#222" stroke-linejoin="round" stroke-width="0.612"/>
        <path id="패스_566932" data-name="패스 566932" d="M207.6,136.084,223.306,122.2l48.173,27.783.015.015-11.282,9.965-4.439,3.919" transform="translate(-175.822 -103.494)" fill="#fff"/>
        <path id="패스_566933" data-name="패스 566933" d="M207.6,136.084,223.306,122.2l48.173,27.783.015.015-11.282,9.965-4.439,3.919" transform="translate(-175.822 -103.494)" fill="none" stroke="#222" stroke-linejoin="round" stroke-width="0.612"/>
        <path id="패스_566934" data-name="패스 566934" d="M255.773,240.7l-48.158-27.8H207.6" transform="translate(-175.822 -180.31)" fill="#f4f4f4"/>
        <path id="패스_566935" data-name="패스 566935" d="M255.773,240.7l-48.158-27.8H207.6" transform="translate(-175.822 -180.31)" fill="none" stroke="#222" stroke-linejoin="round" stroke-width="0.306"/>
        <line id="선_78305" data-name="선 78305" x1="0.015" y2="0.015" transform="translate(31.763 32.59)" fill="none" stroke="#222" stroke-linejoin="round" stroke-width="0.612"/>
        <line id="선_78306" data-name="선 78306" transform="translate(31.778 32.59)" fill="none" stroke="#222" stroke-linejoin="round" stroke-width="4"/>
        <line id="선_78307" data-name="선 78307" x1="5.296" y2="3.062" transform="translate(80.273 57.158)" fill="none" stroke="#222" stroke-miterlimit="10" stroke-width="0.153"/>
        <path id="패스_566936" data-name="패스 566936" d="M310.1,119.722l8.909-.444a3.536,3.536,0,0,1,1.944.475l46.106,26.574a.383.383,0,0,1-.168.719l-8.6.459" transform="translate(-262.631 -101.016)" fill="#f2f2f2"/>
        <path id="패스_566937" data-name="패스 566937" d="M310.1,119.722l8.909-.444a3.536,3.536,0,0,1,1.944.475l46.106,26.574a.383.383,0,0,1-.168.719l-8.6.459" transform="translate(-262.631 -101.016)" fill="none" stroke="#222" stroke-linejoin="round" stroke-width="0.612"/>
        <line id="선_78308" data-name="선 78308" x1="48.188" y1="27.783" transform="translate(47.469 18.706)" fill="#f4f4f4"/>
        <line id="선_78309" data-name="선 78309" x1="48.188" y1="27.783" transform="translate(47.469 18.706)" fill="none" stroke="#222" stroke-linejoin="round" stroke-width="0.306"/>
        <path id="패스_566938" data-name="패스 566938" d="M129.3,356.587l-.689.4a1.5,1.5,0,0,1-1.5,0l-17.435-10.149a.429.429,0,0,1,0-.75l1.225-.7a.429.429,0,0,1,.429,0L129.3,355.837a.429.429,0,0,1,0,.75" transform="translate(-92.701 -292.464)" fill="#e2e2e2"/>
        <path id="패스_566939" data-name="패스 566939" d="M281.313,179.673l15.216-13.455-1.9-1.117L279.4,178.571Z" transform="translate(-236.631 -139.827)" fill="#e2e2e2"/>
        <path id="패스_566940" data-name="패스 566940" d="M393.8,159.925l-8.832.459L382.9,159.19l8.8-.49Z" transform="translate(-324.287 -134.407)" fill="#e2e2e2"/>
        <path id="패스_566941" data-name="패스 566941" d="M314.551,164.612c3.337-13.838-13.3-22.2-13.3-22.2l-.337-.184a.413.413,0,0,0-.49.077l-.628.628a.612.612,0,0,0,.122.964c3.245,1.913,16.624,10.608,11.955,21.492" transform="translate(-253.75 -120.42)" fill="#e2e2e2"/>
        <path id="패스_566942" data-name="패스 566942" d="M115.605,270.507l-2.005-1.163L138.536,255l2.005,1.148Z" transform="translate(-96.211 -215.966)" fill="#e2e2e2"/>
        <path id="패스_566943" data-name="패스 566943" d="M608.2,296.6l1.669,2.266,1.026-1.179Z" transform="translate(-515.1 -251.198)" fill="#222"/>
        <path id="패스_566944" data-name="패스 566944" d="M173.211,259.581l-1.424-.122.184-1.515,1.332.122Zm-2.526-.291a14.47,14.47,0,0,1-1.424-.337l.429-1.47a12.061,12.061,0,0,0,1.271.291Zm-2.51-.7a7.529,7.529,0,0,1-1.347-.719l.857-1.271a6,6,0,0,0,1.072.566Zm-2.3-1.531a4.439,4.439,0,0,1-.873-1.393l1.424-.551a2.909,2.909,0,0,0,.582.918Zm-1.163-2.648c-.015-.168-.015-.321-.015-.49a6.337,6.337,0,0,1,.092-1.087l1.515.26a4.807,4.807,0,0,0-.077.811,2.71,2.71,0,0,0,.015.352Zm1.822-2.25-1.454-.475a11.844,11.844,0,0,1,.551-1.362l1.393.643a10.32,10.32,0,0,0-.475,1.194m.934-2.1-1.332-.75c.168-.306.352-.612.551-.934l.168-.276,1.3.8-.184.291c-.184.291-.352.582-.505.857m1.255-2.112-1.347-.735c.214-.4.413-.8.6-1.179l1.393.643c-.2.413-.413.842-.643,1.271m1.087-2.3-1.424-.566c.168-.413.306-.827.429-1.24l1.47.429c-.138.444-.291.9-.475,1.362m.75-2.465-1.5-.306a10.826,10.826,0,0,0,.184-1.271l1.531.138a12.354,12.354,0,0,1-.214,1.454m-1.286-2.541a8.678,8.678,0,0,0-.107-1.255l1.515-.245a10.225,10.225,0,0,1,.138,1.485Zm-.337-2.2a8.33,8.33,0,0,0-.444-1.179l1.393-.643a9.9,9.9,0,0,1,.52,1.393Zm-.9-2.051a9.692,9.692,0,0,0-.735-1.041l1.194-.964a11.219,11.219,0,0,1,.857,1.209Zm-1.408-1.806a12.311,12.311,0,0,0-.949-.873l.98-1.179a13.791,13.791,0,0,1,1.072.995Zm-1.76-1.5c-.352-.245-.719-.49-1.1-.719l.781-1.316c.413.245.827.505,1.209.781Zm-2.005-1.209a11.423,11.423,0,0,0-1.179-.52l.505-1.439a12.706,12.706,0,0,1,1.362.6Z" transform="translate(-136.948 -194.708)" fill="#3673ee"/>
        <g id="그룹_271967" data-name="그룹 271967" transform="translate(39.218 62.332)" opacity="0.2">
          <g id="그룹_271966" data-name="그룹 271966" clip-path="url(#clip-path-5)">
            <path id="패스_566945" data-name="패스 566945" d="M256.2,410.736a2.329,2.329,0,0,0,1.056,1.975c1.117.689,14.037,8.036,14.037,8.036a3.167,3.167,0,0,0,3.184-.689l11.695-7.1L269.606,407.2Z" transform="translate(-256.197 -407.2)"/>
          </g>
        </g>
        <path id="패스_566946" data-name="패스 566946" d="M276.883,383.751l-12.169-7.041A8.152,8.152,0,0,1,261.3,370.2c0-2.51,1.531-3.659,3.414-2.572l12.169,7.041a8.152,8.152,0,0,1,3.414,6.506c0,2.51-1.531,3.659-3.414,2.572" transform="translate(-221.301 -311.009)" fill="#e3e3e3"/>
        <path id="패스_566947" data-name="패스 566947" d="M276.883,383.751l-12.169-7.041A8.152,8.152,0,0,1,261.3,370.2c0-2.51,1.531-3.659,3.414-2.572l12.169,7.041a8.152,8.152,0,0,1,3.414,6.506C280.3,383.69,278.751,384.838,276.883,383.751Z" transform="translate(-221.301 -311.009)" fill="none" stroke="#222" stroke-linecap="round" stroke-linejoin="round" stroke-width="0.459"/>
        <path id="패스_566948" data-name="패스 566948" d="M347.478,343.631h0l-.245.138-.168-.291a4.286,4.286,0,0,0,.306-1.7v-.015a8.166,8.166,0,0,0-3.444-6.521l-12.261-7.087a2.162,2.162,0,0,0-2.266-.168h0l1.439-.827h0a1.714,1.714,0,0,1,.918-.26,2.725,2.725,0,0,1,1.347.413l12.169,7.041a8.152,8.152,0,0,1,3.414,6.506,2.971,2.971,0,0,1-1.225,2.786" transform="translate(-278.977 -276.859)" fill="#686868"/>
        <path id="패스_566949" data-name="패스 566949" d="M347.478,343.631h0l-.245.138-.168-.291a4.286,4.286,0,0,0,.306-1.7v-.015a8.166,8.166,0,0,0-3.444-6.521l-12.261-7.087a2.162,2.162,0,0,0-2.266-.168h0l1.439-.827h0a1.714,1.714,0,0,1,.918-.26,2.725,2.725,0,0,1,1.347.413l12.169,7.041a8.152,8.152,0,0,1,3.414,6.506A2.956,2.956,0,0,1,347.478,343.631Z" transform="translate(-278.977 -276.859)" fill="none" stroke="#222" stroke-miterlimit="10" stroke-width="0.459"/>
        <path id="패스_566950" data-name="패스 566950" d="M287.678,346.355a4.3,4.3,0,0,1-.306,1.7l.168.291-11.925,6.873L258.9,338.762l10.807-6.23h0a2.162,2.162,0,0,1,2.266.168l12.261,7.087a8.208,8.208,0,0,1,3.444,6.521Z" transform="translate(-219.269 -281.42)" fill="#fff"/>
        <path id="패스_566951" data-name="패스 566951" d="M287.678,346.355a4.3,4.3,0,0,1-.306,1.7l.168.291-11.925,6.873L258.9,338.762l10.807-6.23h0a2.162,2.162,0,0,1,2.266.168l12.261,7.087a8.208,8.208,0,0,1,3.444,6.521Z" transform="translate(-219.269 -281.42)" fill="none" stroke="#222" stroke-linecap="round" stroke-linejoin="round" stroke-width="0.459"/>
        <line id="선_78310" data-name="선 78310" x1="0.031" y2="0.015" transform="translate(51.862 50.27)" fill="none" stroke="#222" stroke-linecap="round" stroke-linejoin="round" stroke-width="0.459"/>
        <line id="선_78311" data-name="선 78311" x1="0.107" y2="0.046" transform="translate(68.501 66.726)" fill="none" stroke="#222" stroke-linecap="round" stroke-linejoin="round" stroke-width="0.459"/>
        <path id="패스_566952" data-name="패스 566952" d="M267.083,389.651l-12.17-7.041A8.152,8.152,0,0,1,251.5,376.1c0-2.51,1.531-3.659,3.414-2.572l12.17,7.041a8.152,8.152,0,0,1,3.414,6.506c0,2.51-1.531,3.659-3.414,2.572" transform="translate(-213.001 -316.006)" fill="#474747"/>
        <path id="패스_566953" data-name="패스 566953" d="M267.083,389.651l-12.17-7.041A8.152,8.152,0,0,1,251.5,376.1c0-2.51,1.531-3.659,3.414-2.572l12.17,7.041a8.152,8.152,0,0,1,3.414,6.506C270.5,389.59,268.966,390.738,267.083,389.651Z" transform="translate(-213.001 -316.006)" fill="none" stroke="#222" stroke-miterlimit="10" stroke-width="0.459"/>
        <path id="패스_566954" data-name="패스 566954" d="M262.136,392.319l-12.292-7.1a8.254,8.254,0,0,1-3.444-6.567c0-2.526,1.546-3.689,3.444-2.6l12.292,7.1a8.254,8.254,0,0,1,3.444,6.567c0,2.526-1.546,3.689-3.444,2.6" transform="translate(-208.682 -318.139)" fill="#616161"/>
        <path id="패스_566955" data-name="패스 566955" d="M262.136,392.319l-12.292-7.1a8.254,8.254,0,0,1-3.444-6.567c0-2.526,1.546-3.689,3.444-2.6l12.292,7.1a8.254,8.254,0,0,1,3.444,6.567C265.58,392.242,264.034,393.406,262.136,392.319Z" transform="translate(-208.682 -318.139)" fill="none" stroke="#222" stroke-miterlimit="10" stroke-width="0.459"/>
        <path id="패스_566956" data-name="패스 566956" d="M328.907,334l-.107.077" transform="translate(-278.469 -282.873)" fill="none" stroke="#222" stroke-linecap="round" stroke-linejoin="round" stroke-width="0.459"/>
        <path id="패스_566957" data-name="패스 566957" d="M275.465,405.36l-8.94-5.174A6.027,6.027,0,0,1,264,395.441c-.015-1.822,1.1-2.664,2.48-1.852l8.94,5.159a6.027,6.027,0,0,1,2.526,4.745c.015,1.822-1.1,2.664-2.48,1.852" transform="translate(-223.587 -333.078)" fill="#3a3a3a"/>
        <path id="패스_566958" data-name="패스 566958" d="M275.465,405.36l-8.94-5.174A6.027,6.027,0,0,1,264,395.441c-.015-1.822,1.1-2.664,2.48-1.852l8.94,5.159a6.027,6.027,0,0,1,2.526,4.745C277.96,405.314,276.842,406.156,275.465,405.36Z" transform="translate(-223.587 -333.078)" fill="none" stroke="#222" stroke-miterlimit="10" stroke-width="0.459"/>
        <path id="패스_566959" data-name="패스 566959" d="M273.063,408.562h0l-1.041.781-1.822-2.97.857-.643.153-.107h.046a.9.9,0,0,1,.811.122,2.755,2.755,0,0,1,1.24,2.128.964.964,0,0,1-.245.7" transform="translate(-228.839 -343.489)" fill="#acacad"/>
        <path id="패스_566960" data-name="패스 566960" d="M273.063,408.562h0l-1.041.781-1.822-2.97.857-.643.153-.107h.046a.9.9,0,0,1,.811.122,2.755,2.755,0,0,1,1.24,2.128A.964.964,0,0,1,273.063,408.562Z" transform="translate(-228.839 -343.489)" fill="none" stroke="#222" stroke-linecap="round" stroke-linejoin="round" stroke-width="0.459"/>
        <path id="패스_566961" data-name="패스 566961" d="M276.053,405.9l-.153.107.153-.107" transform="translate(-233.666 -343.767)" fill="#e3e3e3"/>
        <path id="패스_566962" data-name="패스 566962" d="M276.053,405.9l-.153.107Z" transform="translate(-233.666 -343.767)" fill="none" stroke="#222" stroke-linecap="round" stroke-linejoin="round" stroke-width="0.459"/>
        <path id="패스_566963" data-name="패스 566963" d="M270.88,412.281c0,.781-.551,1.1-1.24.7a2.714,2.714,0,0,1-1.24-2.128c0-.781.551-1.1,1.24-.7a2.714,2.714,0,0,1,1.24,2.128" transform="translate(-227.315 -347.224)" fill="#fff"/>
        <path id="패스_566964" data-name="패스 566964" d="M270.88,412.281c0,.781-.551,1.1-1.24.7a2.714,2.714,0,0,1-1.24-2.128c0-.781.551-1.1,1.24-.7A2.714,2.714,0,0,1,270.88,412.281Z" transform="translate(-227.315 -347.224)" fill="none" stroke="#222" stroke-linecap="round" stroke-linejoin="round" stroke-width="0.459"/>
        <path id="패스_566965" data-name="패스 566965" d="M276.846,405.631H276.8l.031-.031Z" transform="translate(-234.429 -343.513)" fill="#e3e3e3"/>
        <path id="패스_566966" data-name="패스 566966" d="M276.846,405.631H276.8l.031-.031Z" transform="translate(-234.429 -343.513)" fill="none" stroke="#222" stroke-linecap="round" stroke-linejoin="round" stroke-width="0.459"/>
        <path id="패스_566967" data-name="패스 566967" d="M329.263,441.262h0l-1.041.781-1.822-2.97.857-.643.153-.107h.046a.9.9,0,0,1,.811.122,2.755,2.755,0,0,1,1.24,2.128.964.964,0,0,1-.245.7" transform="translate(-276.436 -371.184)" fill="#acacad"/>
        <path id="패스_566968" data-name="패스 566968" d="M329.263,441.262h0l-1.041.781-1.822-2.97.857-.643.153-.107h.046a.9.9,0,0,1,.811.122,2.755,2.755,0,0,1,1.24,2.128A.964.964,0,0,1,329.263,441.262Z" transform="translate(-276.436 -371.184)" fill="none" stroke="#222" stroke-linecap="round" stroke-linejoin="round" stroke-width="0.459"/>
        <path id="패스_566969" data-name="패스 566969" d="M327.08,445.181c0,.781-.551,1.1-1.24.7a2.714,2.714,0,0,1-1.24-2.128c0-.781.551-1.1,1.24-.7a2.714,2.714,0,0,1,1.24,2.128" transform="translate(-274.912 -375.088)" fill="#fff"/>
        <path id="패스_566970" data-name="패스 566970" d="M327.08,445.181c0,.781-.551,1.1-1.24.7a2.714,2.714,0,0,1-1.24-2.128c0-.781.551-1.1,1.24-.7A2.714,2.714,0,0,1,327.08,445.181Z" transform="translate(-274.912 -375.088)" fill="none" stroke="#222" stroke-linecap="round" stroke-linejoin="round" stroke-width="0.459"/>
        <g id="그룹_271969" data-name="그룹 271969" transform="translate(56.087 59.699)" opacity="0.15">
          <g id="그룹_271968" data-name="그룹 271968" clip-path="url(#clip-path-6)">
            <path id="패스_566971" data-name="패스 566971" d="M366.315,396.873,378.332,390l.475,6.735-11.925,7.011c.765-1.3,1.148-2.755-.582-6.873" transform="translate(-366.315 -390)" fill="#222"/>
          </g>
        </g>
        <path id="패스_566972" data-name="패스 566972" d="M364.149,395.025a1.1,1.1,0,0,0,1.148.077q.214-.122.214-.276v-.475L360.2,392.3v.444Z" transform="translate(-305.062 -332.249)" fill="#222"/>
        <path id="패스_566973" data-name="패스 566973" d="M364.149,391.363a1.1,1.1,0,0,0,1.148.077q.505-.291-.153-.658L361.21,388.5l-1.01.582Z" transform="translate(-305.062 -329.03)" fill="#f8483b"/>
        <path id="패스_566974" data-name="패스 566974" d="M313.5,363.348l3.092.842,1.209-.689a1.347,1.347,0,0,1,.995-.184c.092.015.367-.2.444-.153,0,.582.031.459,0,.582a.582.582,0,0,1-.291.337l-.077.046-1.209.689,1.745.719v.475c0,.122-.092.23-.291.352a1.148,1.148,0,0,1-1.209-.015l-.092-.046-1.362-.781-1.745,1.01-1.072-.612v-.444l1.745-.566-1.883-1.087Z" transform="translate(-265.511 -307.567)" fill="#222"/>
        <path id="패스_566975" data-name="패스 566975" d="M314.709,359.8l1.883,1.087,1.209-.689a1.347,1.347,0,0,1,.995-.184l.245.092q.245.138.2.321a.582.582,0,0,1-.291.337l-.077.046-1.209.689,1.454.842q.6.352,0,.7a1.148,1.148,0,0,1-1.209-.015l-.092-.046-1.362-.781-1.745,1.01-1.072-.612,1.745-1.01L313.5,360.5Z" transform="translate(-265.511 -304.723)" fill="#3673ee"/>
        <path id="패스_566976" data-name="패스 566976" d="M258.006,323.328a2.725,2.725,0,0,1,1.347.413l12.169,7.041a8.152,8.152,0,0,1,3.414,6.506,2.971,2.971,0,0,1-1.225,2.786h0l-.245.138-11.909,6.873h0l-.092.046h0a1.776,1.776,0,0,1-1.454.75,2.771,2.771,0,0,1-1.362-.413l-12.292-7.1a8.255,8.255,0,0,1-3.444-6.567,2.933,2.933,0,0,1,1.684-2.97,1.408,1.408,0,0,1,.2-.168h.031l10.807-6.23,1.439-.827h.015a1.668,1.668,0,0,1,.9-.245m0-.612a2.266,2.266,0,0,0-1.24.337h0l-1.424.827-10.777,6.23h-.061a1.269,1.269,0,0,0-.245.184A3.521,3.521,0,0,0,242.3,333.8c0,2.771,1.638,5.893,3.75,7.1l12.292,7.1a3.352,3.352,0,0,0,1.669.49,2.388,2.388,0,0,0,1.867-.888h0l11.909-6.858.245-.138.52-.306-.046-.077a3.958,3.958,0,0,0,1.041-2.954,8.741,8.741,0,0,0-3.72-7.041l-12.169-7.041a3.322,3.322,0,0,0-1.653-.49" transform="translate(-205.21 -273.303)" fill="#222"/>
        <path id="패스_566977" data-name="패스 566977" d="M359.5,431.883l.689-.383s2.633,3.337,1.424,6.888l-.459-.061A8.19,8.19,0,0,0,359.5,431.9" transform="translate(-304.469 -365.448)" fill="#222"/>
        <g id="그룹_271971" data-name="그룹 271971" transform="translate(61.23 57.556)" opacity="0.2">
          <g id="그룹_271970" data-name="그룹 271970" clip-path="url(#clip-path-7)">
            <path id="패스_566978" data-name="패스 566978" d="M415.4,397.151l21.385-12.185a3.092,3.092,0,0,0-.015-5.388l-4.317-2.434a9.69,9.69,0,0,0-9.537.031L401.53,389.359a3.092,3.092,0,0,0,.015,5.388l4.317,2.434a9.69,9.69,0,0,0,9.537-.031" transform="translate(-399.969 -375.919)"/>
          </g>
        </g>
        <path id="패스_566979" data-name="패스 566979" d="M446.035,241.5v1.424l.429-.245v2.633l-.429.26V247l.429-.245v6.628h0a3.628,3.628,0,0,1-2.158,2.985l-19.93,11.511a11.543,11.543,0,0,1-10.409,0l-.107-.061c-1.531-.873-2.235-2.051-2.143-3.2H411.7v-3.475h0a3.683,3.683,0,0,0,2.158,2.954l.107.061a11.543,11.543,0,0,0,10.409,0l15.491-8.894V239.912l-15.491,8.909a11.543,11.543,0,0,1-10.409,0l-.107-.061A3.715,3.715,0,0,1,411.7,245.8h0V234.447l27.906-9.047,5.25,7.547a9.093,9.093,0,0,1,1.623,5.159v3.153Z" transform="translate(-348.679 -190.897)" fill="#e2e2e2"/>
        <path id="패스_566980" data-name="패스 566980" d="M438.426,320.2v15.353l-15.491,8.894a11.543,11.543,0,0,1-10.409,0l-.107-.061c-1.408-.811-2.388-1.913-2.419-2.985V326.017c.015,1.072.995,2.2,2.419,3.016l.107.061a11.543,11.543,0,0,0,10.409,0Z" transform="translate(-347.239 -271.185)" fill="#3673ee"/>
        <path id="패스_566981" data-name="패스 566981" d="M438.426,320.2v15.353l-15.491,8.894a11.543,11.543,0,0,1-10.409,0l-.107-.061c-1.408-.811-2.388-1.913-2.419-2.985V326.017c.015,1.072.995,2.2,2.419,3.016l.107.061a11.543,11.543,0,0,0,10.409,0Z" transform="translate(-347.239 -271.185)" fill="none" stroke="#222" stroke-linejoin="round" stroke-width="0.459"/>
        <path id="패스_566982" data-name="패스 566982" d="M437.983,214.917l-13.608,7.837a11.543,11.543,0,0,1-10.409,0l-.107-.061c-2.878-1.653-2.878-4.347,0-6.016l13.608-7.837a11.543,11.543,0,0,1,10.409,0l.107.061c2.878,1.653,2.878,4.347,0,6.016" transform="translate(-348.679 -175.822)" fill="#fff"/>
        <path id="패스_566983" data-name="패스 566983" d="M437.983,214.917l-13.608,7.837a11.543,11.543,0,0,1-10.409,0l-.107-.061c-2.878-1.653-2.878-4.347,0-6.016l13.608-7.837a11.543,11.543,0,0,1,10.409,0l.107.061C440.861,210.57,440.861,213.249,437.983,214.917Z" transform="translate(-348.679 -175.822)" fill="none" stroke="#222" stroke-linejoin="round" stroke-width="0.459"/>
        <path id="패스_566984" data-name="패스 566984" d="M441.969,255.189a8.4,8.4,0,0,1-7.593,0A2.691,2.691,0,0,1,432.8,253v4.026a2.64,2.64,0,0,0,1.577,2.189,8.4,8.4,0,0,0,7.593,0,2.691,2.691,0,0,0,1.577-2.189V253a2.64,2.64,0,0,1-1.577,2.189" transform="translate(-366.549 -214.272)" fill="#bcbcbc"/>
        <path id="패스_566985" data-name="패스 566985" d="M441.969,255.189a8.4,8.4,0,0,1-7.593,0A2.691,2.691,0,0,1,432.8,253v4.026a2.64,2.64,0,0,0,1.577,2.189,8.4,8.4,0,0,0,7.593,0,2.691,2.691,0,0,0,1.577-2.189V253A2.659,2.659,0,0,1,441.969,255.189Z" transform="translate(-366.549 -214.272)" fill="none" stroke="#222" stroke-linejoin="round" stroke-width="0.383"/>
        <path id="패스_566986" data-name="패스 566986" d="M441.99,238.06a8.4,8.4,0,0,1-7.593,0c-2.1-1.209-2.1-3.169,0-4.378a8.4,8.4,0,0,1,7.593,0c2.1,1.209,2.1,3.169,0,4.378" transform="translate(-366.57 -197.143)" fill="#bcbcbc"/>
        <path id="패스_566987" data-name="패스 566987" d="M441.99,238.06a8.4,8.4,0,0,1-7.593,0c-2.1-1.209-2.1-3.169,0-4.378a8.4,8.4,0,0,1,7.593,0C444.088,234.891,444.088,236.851,441.99,238.06Z" transform="translate(-366.57 -197.143)" fill="none" stroke="#222" stroke-linejoin="round" stroke-width="0.383"/>
        <path id="패스_566988" data-name="패스 566988" d="M428,239.7v3.337a3.037,3.037,0,0,0,1.791,2.5,9.534,9.534,0,0,0,8.633,0,3.037,3.037,0,0,0,1.791-2.5V239.7Z" transform="translate(-362.484 -203.008)" fill="#474747"/>
        <path id="패스_566989" data-name="패스 566989" d="M428,239.7v3.337a3.037,3.037,0,0,0,1.791,2.5,9.534,9.534,0,0,0,8.633,0,3.037,3.037,0,0,0,1.791-2.5V239.7Z" transform="translate(-362.484 -203.008)" fill="none" stroke="#222" stroke-miterlimit="10" stroke-width="0.459"/>
        <path id="패스_566990" data-name="패스 566990" d="M438.556,222.674a9.534,9.534,0,0,1-8.633,0c-2.373-1.378-2.388-3.613,0-4.99a9.534,9.534,0,0,1,8.633,0c2.373,1.378,2.388,3.613,0,4.99" transform="translate(-362.6 -183.486)" fill="#616161"/>
        <path id="패스_566991" data-name="패스 566991" d="M438.556,222.674a9.534,9.534,0,0,1-8.633,0c-2.373-1.378-2.388-3.613,0-4.99a9.534,9.534,0,0,1,8.633,0C440.929,219.061,440.929,221.3,438.556,222.674Z" transform="translate(-362.6 -183.486)" fill="none" stroke="#222" stroke-miterlimit="10" stroke-width="0.459"/>
        <path id="패스_566992" data-name="패스 566992" d="M618.3,336.945v.658l-2.847,1.638c-.429.245-.781.107-.857-.321a.7.7,0,0,0,.459-.107l2.817-1.623v-.49Z" transform="translate(-520.52 -285.159)" fill="#3673ee"/>
        <path id="패스_566993" data-name="패스 566993" d="M618.3,336.945v.658l-2.847,1.638c-.429.245-.781.107-.857-.321a.7.7,0,0,0,.459-.107l2.817-1.623v-.49Z" transform="translate(-520.52 -285.159)" fill="none" stroke="#222" stroke-linejoin="round" stroke-width="0.459"/>
        <path id="패스_566994" data-name="패스 566994" d="M617.707,330.6v1.424l-2.817,1.623a.245.245,0,1,1-.474-.077h0a1.944,1.944,0,0,1,.888-1.531Z" transform="translate(-520.351 -279.993)" fill="#bcbcbc"/>
        <path id="패스_566995" data-name="패스 566995" d="M617.707,330.6v1.424l-2.817,1.623a.245.245,0,1,1-.474-.077h0a1.944,1.944,0,0,1,.888-1.531Z" transform="translate(-520.351 -279.993)" fill="none" stroke="#222" stroke-linejoin="round" stroke-width="0.459"/>
        <path id="패스_566996" data-name="패스 566996" d="M618.3,363.53v.658l-2.847,1.638c-.429.245-.781.107-.857-.321a.7.7,0,0,0,.459-.107l2.817-1.607v-.49Z" transform="translate(-520.52 -307.688)" fill="#bcbcbc"/>
        <path id="패스_566997" data-name="패스 566997" d="M618.3,363.53v.658l-2.847,1.638c-.429.245-.781.107-.857-.321a.7.7,0,0,0,.459-.107l2.817-1.607v-.49Z" transform="translate(-520.52 -307.688)" fill="none" stroke="#222" stroke-linejoin="round" stroke-width="0.459"/>
        <path id="패스_566998" data-name="패스 566998" d="M617.707,357.2v1.424l-2.817,1.623a.245.245,0,1,1-.474-.077h0a1.944,1.944,0,0,1,.888-1.531Z" transform="translate(-520.351 -302.521)" fill="#bcbcbc"/>
        <path id="패스_566999" data-name="패스 566999" d="M617.707,357.2v1.424l-2.817,1.623a.245.245,0,1,1-.474-.077h0a1.944,1.944,0,0,1,.888-1.531Z" transform="translate(-520.351 -302.521)" fill="none" stroke="#222" stroke-linejoin="round" stroke-width="0.459"/>
        <path id="패스_567000" data-name="패스 567000" d="M514.8,369.8s-6.506,14.756,0,10.991,0-10.991,0-10.991" transform="translate(-433.55 -313.193)" fill="#fff"/>
        <path id="패스_567001" data-name="패스 567001" d="M517.245,417.2a2.587,2.587,0,0,1-.9,1.944c-.413.184-.689-.4-.612-1.286a2.587,2.587,0,0,1,.9-1.944c.413-.184.689.4.612,1.286" transform="translate(-436.773 -352.218)" fill="#3673ee"/>
        <path id="패스_567002" data-name="패스 567002" d="M498.261,301.335H498.2l.2-.092,9.016-5.2a2.2,2.2,0,0,0,.964-1.439v.046a1.806,1.806,0,0,1-.8,1.393l-9.016,5.2a.627.627,0,0,1-.306.092" transform="translate(-421.938 -249.504)" fill="#3673ee"/>
        <path id="패스_567003" data-name="패스 567003" d="M505.963,286.6a.964.964,0,0,1,.046.306v.643a1.99,1.99,0,0,1-.9,1.561l-9.016,5.2a.826.826,0,0,1-.4.122H495.6a.459.459,0,0,0,.459.337.811.811,0,0,0,.4-.122l9.016-5.2a1.99,1.99,0,0,0,.9-1.561v-.643c0-.352-.153-.582-.4-.628" transform="translate(-419.736 -242.729)" fill="#222"/>
        <path id="패스_567004" data-name="패스 567004" d="M505.67,286.767v.643a1.99,1.99,0,0,1-.9,1.561l-9.016,5.2a.735.735,0,0,1-.505.107.964.964,0,0,1-.046-.306v-.643a1.99,1.99,0,0,1,.9-1.561l9.016-5.2a.719.719,0,0,1,.49-.107.965.965,0,0,1,.046.306" transform="translate(-419.397 -242.605)" fill="#bcbcbc"/>
        <path id="패스_567005" data-name="패스 567005" d="M505.67,286.767v.643a1.99,1.99,0,0,1-.9,1.561l-9.016,5.2a.735.735,0,0,1-.505.107.964.964,0,0,1-.046-.306v-.643a1.99,1.99,0,0,1,.9-1.561l9.016-5.2a.719.719,0,0,1,.49-.107A.966.966,0,0,1,505.67,286.767Z" transform="translate(-419.397 -242.605)" fill="none" stroke="#222" stroke-linejoin="round" stroke-width="0.383"/>
        <line id="선_78312" data-name="선 78312" x1="0.015" transform="translate(97.586 45.341)" fill="#fff"/>
        <path id="패스_567006" data-name="패스 567006" d="M427.588,202.518a10.679,10.679,0,0,1,5.2,1.24l.107.061a4.975,4.975,0,0,1,1.623,1.424l5.25,7.547a9.062,9.062,0,0,1,1.623,5.174V221.1l-.429.245v.918l.429.245v.658h0v1.975l-.429.26v1.424h0v-.49l.429.245v.658h0V231.3h0v1.9h0a3.66,3.66,0,0,1-2.158,2.985l-19.946,11.542a11.543,11.543,0,0,1-10.409,0l-.107-.061c-1.531-.873-2.235-2.051-2.143-3.2h-.015v-29.85h0v-.321h.031a3.894,3.894,0,0,1,2.128-2.679l.429-.245a2.1,2.1,0,0,1-.077-.582v-3.352a3.037,3.037,0,0,1,1.791-2.5,9.6,9.6,0,0,1,8.633,0l.367.23,2.465-1.424a10.679,10.679,0,0,1,5.2-1.24m13.363,20.267h0M427.588,201.6a11.609,11.609,0,0,0-5.664,1.362l-1.99,1.148a10.444,10.444,0,0,0-9.491.046,3.825,3.825,0,0,0-2.25,3.276v3.429a4.8,4.8,0,0,0-2.434,3.061.919.919,0,0,0-.061.352v.321h0v29.85a.918.918,0,0,0,.015.122,4.519,4.519,0,0,0,2.6,3.873l.107.061a11.442,11.442,0,0,0,5.664,1.362,11.609,11.609,0,0,0,5.664-1.362L439.7,236.991c2.22-1.286,2.587-2.863,2.618-3.72v-.061h0v-6.628a.937.937,0,0,1,0-1.439v-2.618a.9.9,0,0,1,0-1.408v-3.153a9.934,9.934,0,0,0-1.776-5.694l-5.266-7.547a5.863,5.863,0,0,0-1.929-1.7l-.107-.061a11.442,11.442,0,0,0-5.664-1.362" transform="translate(-343.596 -170.74)" fill="#222"/>
        <g id="그룹_271973" data-name="그룹 271973" transform="translate(62.7 44.56)" opacity="0.1">
          <g id="그룹_271972" data-name="그룹 271972" clip-path="url(#clip-path-8)">
            <path id="패스_567007" data-name="패스 567007" d="M409.871,291.1s.337,3.215,7.577,3.628v30.033s-7.118-.444-7.577-3.72,0-29.942,0-29.942" transform="translate(-409.656 -291.1)" fill="#000001"/>
          </g>
        </g>
        <g id="그룹_271975" data-name="그룹 271975" transform="translate(19.67 39.432)" opacity="0.15">
          <g id="그룹_271974" data-name="그룹 271974" clip-path="url(#clip-path-9)">
            <path id="패스_567008" data-name="패스 567008" d="M140.528,259.222c2.618,1.515,2.6,3.965-.031,5.5a10.459,10.459,0,0,1-9.506.015c-2.618-1.515-2.6-3.965.031-5.5a10.459,10.459,0,0,1,9.506-.015" transform="translate(-128.955 -258.013)"/>
            <path id="패스_567009" data-name="패스 567009" d="M140.528,259.222c2.618,1.515,2.6,3.965-.031,5.5a10.459,10.459,0,0,1-9.506.015c-2.618-1.515-2.6-3.965.031-5.5A10.459,10.459,0,0,1,140.528,259.222Z" transform="translate(-128.955 -258.013)" fill="none" stroke="#222" stroke-miterlimit="10" stroke-width="0.153"/>
          </g>
        </g>
        <path id="패스_567010" data-name="패스 567010" d="M184.375,53.076,183.9,52.8a3.751,3.751,0,0,1,.475.276" transform="translate(-155.749 -44.718)" fill="#fff"/>
        <path id="패스_567011" data-name="패스 567011" d="M184.375,53.076,183.9,52.8a3.751,3.751,0,0,1,.475.276Z" transform="translate(-155.749 -44.718)" fill="none" stroke="#222" stroke-linejoin="round" stroke-width="1.225"/>
        <path id="패스_567012" data-name="패스 567012" d="M112.85,58.263c0,5.3-3.75,16.241-8.358,24.416L100.558,80.4h-.015C96.119,77.872,92.2,70.922,92.2,65.626s3.75-11.726,8.358-14.389c2.189-1.271,4.194-1.454,5.679-.719l.475.276,3.444,1.99h0c1.653.8,2.679,2.709,2.679,5.5" transform="translate(-78.086 -42.42)" fill="#fff"/>
        <path id="패스_567013" data-name="패스 567013" d="M112.85,58.263c0,5.3-3.75,16.241-8.358,24.416L100.558,80.4h-.015C96.119,77.872,92.2,70.922,92.2,65.626s3.75-11.726,8.358-14.389c2.189-1.271,4.194-1.454,5.679-.719l.475.276,3.444,1.99h0C111.824,53.579,112.85,55.492,112.85,58.263Z" transform="translate(-78.086 -42.42)" fill="none" stroke="#222" stroke-linejoin="round" stroke-width="1.225"/>
        <path id="패스_567014" data-name="패스 567014" d="M109.756,52.768h0a4.378,4.378,0,0,0-2.051-.413,7.676,7.676,0,0,0-3.613,1.148c-4.608,2.664-8.358,9.123-8.358,14.4,0,3.812,2.036,8.5,4.837,11.741a13.673,13.673,0,0,0,3.521,3.031L100.158,80.4h-.015C95.719,77.872,91.8,70.922,91.8,65.626s3.735-11.726,8.358-14.389c2.189-1.271,4.194-1.454,5.679-.719l.475.276Z" transform="translate(-77.748 -42.42)" fill="#fff"/>
        <path id="패스_567015" data-name="패스 567015" d="M109.756,52.768h0a4.378,4.378,0,0,0-2.051-.413,7.676,7.676,0,0,0-3.613,1.148c-4.608,2.664-8.358,9.123-8.358,14.4,0,3.812,2.036,8.5,4.837,11.741a13.673,13.673,0,0,0,3.521,3.031L100.158,80.4h-.015C95.719,77.872,91.8,70.922,91.8,65.626s3.735-11.726,8.358-14.389c2.189-1.271,4.194-1.454,5.679-.719l.475.276Z" transform="translate(-77.748 -42.42)" fill="none" stroke="#222" stroke-linejoin="round" stroke-width="0.612"/>
        <path id="패스_567016" data-name="패스 567016" d="M183.975,53.076,183.5,52.8a3.642,3.642,0,0,1,.475.276" transform="translate(-155.411 -44.718)" fill="#fff"/>
        <path id="패스_567017" data-name="패스 567017" d="M183.975,53.076,183.5,52.8A3.642,3.642,0,0,1,183.975,53.076Z" transform="translate(-155.411 -44.718)" fill="none" stroke="#222" stroke-linejoin="round" stroke-width="0.612"/>
        <path id="패스_567018" data-name="패스 567018" d="M131.522,65.391a4.378,4.378,0,0,0-2.051-.413,7.676,7.676,0,0,0-3.613,1.148c-4.608,2.664-8.358,9.123-8.358,14.4,0,3.812,2.036,8.5,4.837,11.741a13.673,13.673,0,0,0,3.521,3.031c4.608-8.174,8.358-19.119,8.358-24.416,0-2.786-1.026-4.7-2.679-5.5m-5.664,6.49.4-.2c1.653-.735,2.939.138,2.939,2.1a7.561,7.561,0,0,1-3.322,5.74c-1.837,1.056-3,.367-3.276-1.255a3.7,3.7,0,0,1-.046-.643,7.292,7.292,0,0,1,3.337-5.74" transform="translate(-99.514 -55.028)" fill="#3673ee"/>
        <path id="패스_567019" data-name="패스 567019" d="M131.522,65.391a4.378,4.378,0,0,0-2.051-.413,7.676,7.676,0,0,0-3.613,1.148c-4.608,2.664-8.358,9.123-8.358,14.4,0,3.812,2.036,8.5,4.837,11.741a13.673,13.673,0,0,0,3.521,3.031c4.608-8.174,8.358-19.119,8.358-24.416C134.216,68.086,133.175,66.187,131.522,65.391Zm-5.664,6.49.4-.2c1.653-.735,2.939.138,2.939,2.1a7.561,7.561,0,0,1-3.322,5.74c-1.837,1.056-3,.367-3.276-1.255a3.7,3.7,0,0,1-.046-.643A7.22,7.22,0,0,1,125.858,71.882Z" transform="translate(-99.514 -55.028)" fill="none" stroke="#222" stroke-linejoin="round" stroke-width="0.383"/>
        <path id="패스_567020" data-name="패스 567020" d="M157.041,109.467a7.317,7.317,0,0,1-3.322,5.74c-1.837,1.056-3,.367-3.276-1.255a3.7,3.7,0,0,1-.046-.643,7.292,7.292,0,0,1,3.337-5.74l.4-.2c1.653-.735,2.939.138,2.939,2.1" transform="translate(-127.375 -90.715)" fill="#fff"/>
        <path id="패스_567021" data-name="패스 567021" d="M157.041,109.467a7.317,7.317,0,0,1-3.322,5.74c-1.837,1.056-3,.367-3.276-1.255a3.7,3.7,0,0,1-.046-.643,7.292,7.292,0,0,1,3.337-5.74l.4-.2C155.77,106.635,157.041,107.508,157.041,109.467Z" transform="translate(-127.375 -90.715)" fill="none" stroke="#222" stroke-linejoin="round" stroke-width="0.612"/>
        <path id="패스_567022" data-name="패스 567022" d="M157.3,109.467a7.317,7.317,0,0,1-3.322,5.74c-1.837,1.056-3,.367-3.276-1.255l.4-.2a7.333,7.333,0,0,0,3.337-5.74,3.7,3.7,0,0,0-.046-.643c1.653-.735,2.939.138,2.939,2.1" transform="translate(-127.632 -90.715)" fill="#e2e2e2"/>
        <path id="패스_567023" data-name="패스 567023" d="M157.3,109.467a7.317,7.317,0,0,1-3.322,5.74c-1.837,1.056-3,.367-3.276-1.255l.4-.2a7.333,7.333,0,0,0,3.337-5.74,3.7,3.7,0,0,0-.046-.643C156.027,106.635,157.3,107.508,157.3,109.467Z" transform="translate(-127.632 -90.715)" fill="none" stroke="#222" stroke-linejoin="round" stroke-width="0.612"/>
      </g>
    </g>
  </g>
</svg>
