<svg xmlns="http://www.w3.org/2000/svg" width="20.162" height="20.162"><defs><clipPath id="a"><path data-name="사각형 250226" fill="none" d="M0 0h20v20H0z"/></clipPath></defs><g data-name="그룹 327909"><path data-name="선 91067" fill="none" stroke="#111" stroke-linecap="round" stroke-miterlimit="10" stroke-width="1.5" d="M13.662 12.963h-1.1"/><path data-name="선 91068" fill="none" stroke="#111" stroke-miterlimit="10" stroke-width="1.5" d="M16.162 12.963h-2.9"/><path data-name="사각형 250227" fill="none" stroke="#111" stroke-linejoin="round" stroke-width="1.5" d="M1.862 3.963h16.6v12.5h-16.6z"/><path data-name="사각형 250228" fill="none" d="M.162.162h20v20h-20z"/><path data-name="사각형 250229" fill="none" d="M.162.162h20v20h-20z"/><path data-name="사각형 250242" fill="#fff" d="M.162 1.162h10v10h-10z"/><path data-name="패스 653827" d="M3.819 6.583L2.738 5.262h-1.8a.24.24 0 01-.24-.36l.841-1.442a.24.24 0 000-.24l-.481-1.562a.255.255 0 01.36-.36l1.562.36h.24L4.541.697a.24.24 0 01.36.24v1.8l1.321.961a.24.24 0 010 .481l-1.562.6" fill="none" stroke="#3673ee" stroke-linecap="round" stroke-miterlimit="10" stroke-width="1.3"/><path data-name="선 91076" fill="none" stroke="#111" stroke-linecap="round" stroke-miterlimit="10" stroke-width="1.5" d="M17.662 7.062h-11"/><path data-name="선 91077" fill="none" stroke="#111" stroke-linecap="round" stroke-miterlimit="10" stroke-width="1.5" d="M17.662 3.963h-8"/><path data-name="선 91078" fill="none" stroke="#111" stroke-linecap="round" stroke-miterlimit="10" stroke-width="1.5" d="M1.862 12.662v-4"/></g></svg>