<svg xmlns="http://www.w3.org/2000/svg" xmlns:xlink="http://www.w3.org/1999/xlink" width="18" height="18" viewBox="0 0 18 18">
  <defs>
    <clipPath id="clip-path">
      <rect id="사각형_376999" data-name="사각형 376999" width="18" height="18" fill="none"/>
    </clipPath>
    <clipPath id="clip-path-3">
      <rect id="사각형_376994" data-name="사각형 376994" width="16" height="16" fill="none"/>
    </clipPath>
  </defs>
  <g id="icon_s_reservation_18" transform="translate(9 9)">
    <g id="그룹_509009" data-name="그룹 509009" transform="translate(-9 -9)" clip-path="url(#clip-path)">
      <g id="그룹_509008" data-name="그룹 509008" clip-path="url(#clip-path)">
        <g id="그룹_509005" data-name="그룹 509005" transform="translate(1 1)" opacity="0">
          <g id="그룹_509004" data-name="그룹 509004" clip-path="url(#clip-path-3)">
            <rect id="사각형_376993" data-name="사각형 376993" width="16" height="16" fill="#f0f"/>
          </g>
        </g>
        <g id="그룹_509007" data-name="그룹 509007" transform="translate(1 1)" opacity="0">
          <g id="그룹_509006" data-name="그룹 509006" clip-path="url(#clip-path-3)">
            <rect id="사각형_376995" data-name="사각형 376995" width="16" height="16" fill="#f0f"/>
          </g>
        </g>
        <path id="패스_1336006" data-name="패스 1336006" d="M3.6,4.5H16.4a.6.6,0,0,1,.6.6V16.9a.6.6,0,0,1-.6.6H6.3A3.3,3.3,0,0,1,3,14.1v-9a.6.6,0,0,1,.6-.6" fill="#fff"/>
        <rect id="사각형_376997" data-name="사각형 376997" width="3.7" height="1.36" transform="translate(6.6 1.7)" fill="#111"/>
        <path id="패스_1336007" data-name="패스 1336007" d="M15.8,16.5H5a4,4,0,0,1-4-4.1H1V2.3a.6.6,0,0,1,.2-.5H4.1A.7.7,0,0,1,4.1,3H2.3v9.4A2.7,2.7,0,0,0,5,15.1H15V3H11.5a.7.7,0,0,1,0-1.4h4.3a.7.7,0,0,1,.7.7V15.9a.7.7,0,0,1-.7.6" fill="#111"/>
        <path id="패스_1336008" data-name="패스 1336008" d="M8.3,11.3l-.4-.2-2.1-2a.677.677,0,0,1,.9-1h0L8.3,9.7l3-2.9a.721.721,0,0,1,.9,1L8.8,11.2l-.4.2" fill="#111"/>
        <line id="선_145162" data-name="선 145162" y2="1.4" transform="translate(6.6 2.4)" fill="none" stroke="#111" stroke-linecap="round" stroke-miterlimit="10" stroke-width="1.5"/>
        <line id="선_145163" data-name="선 145163" y2="1.9" transform="translate(6.6 0.5)" fill="none" stroke="#111" stroke-miterlimit="10" stroke-width="1.5"/>
        <line id="선_145164" data-name="선 145164" y2="1.4" transform="translate(11.5 2.4)" fill="none" stroke="#111" stroke-linecap="round" stroke-miterlimit="10" stroke-width="1.5"/>
        <line id="선_145165" data-name="선 145165" y2="1.9" transform="translate(11.5 0.5)" fill="none" stroke="#111" stroke-miterlimit="10" stroke-width="1.5"/>
      </g>
    </g>
  </g>
</svg>
