<svg xmlns="http://www.w3.org/2000/svg" width="40" height="40"><path data-name="패스 878636" d="M22.146 3.218a3.455 3.455 0 00-3.31-1.074c-2 .494-13.656 6.723-14.826 8.609s-.171 17.885-.171 17.885l2.2 1.8 1.8-.8 1-17z" fill="#fff"/><path data-name="패스 580131-4" d="M4.7 14v13.5a4.115 4.115 0 002.058 3.563l11.7 6.753a4.115 4.115 0 004.115 0l11.7-6.753a4.115 4.115 0 002.052-3.563V14a4.113 4.113 0 00-2.056-3.563l-11.7-6.753a4.115 4.115 0 00-4.115 0l-11.7 6.753A4.115 4.115 0 004.7 14z" fill="#a5a5ff"/><path data-name="패스 580132" d="M3.343 13v13.5A4.121 4.121 0 005.4 30.065l11.7 6.753a4.113 4.113 0 004.114 0l11.7-6.753a4.114 4.114 0 002.057-3.565V13a4.114 4.114 0 00-2.057-3.563l-11.7-6.757a4.113 4.113 0 00-4.114 0L5.4 9.433A4.119 4.119 0 003.343 13z" fill="none" stroke="#6955ff" stroke-linejoin="round"/><g data-name="그룹 262705"><g data-name="그룹 260169"><path data-name="Path 239343-2" d="M19.666 12.514a7.622 7.622 0 11-7.558 7.686v-.128a7.624 7.624 0 017.558-7.558" fill="#fff"/><path data-name="Path 239344-2" d="M12.587 16.934a7.436 7.436 0 011.421-2" fill="none" stroke="#111" stroke-linecap="square" stroke-linejoin="round"/><path data-name="Path 239345-2" d="M13.944 10.475s0 2.967 1.808 2.967h.129a7.622 7.622 0 11-3.294 3.493" fill="none" stroke="#111" stroke-linecap="round" stroke-linejoin="round"/><path data-name="Path 239346-2" d="M16.4 11.056s-.47 1.694.562 1.887" fill="none" stroke="#111" stroke-linecap="round" stroke-linejoin="round"/><path data-name="Path 239347-2" d="M19.757 21a1.486 1.486 0 01-2.907 0" fill="none" stroke="#111" stroke-linecap="square" stroke-miterlimit="10"/><path data-name="Line 26071-3" fill="none" stroke="#111" stroke-linecap="round" d="M20.598 18.25v.3"/><path data-name="Line 26071-4" fill="none" stroke="#111" d="M20.598 16.935v1.315"/><path data-name="Line 26072-3" fill="none" stroke="#111" stroke-linecap="round" d="M16.075 18.115v.435"/><path data-name="Line 26072-4" fill="none" stroke="#111" d="M16.075 16.935v1.18"/><path data-name="사각형 214890-2" fill="none" d="M10.811 10.249h19v19h-19z"/></g></g><path data-name="패스 878637" d="M29.207 12.973L26.8 16.3l-5.757-3.692 1.942-3.528.848 2.44 2.808-1.241.118 3.069z" fill="#fff" stroke="#111" stroke-linejoin="round"/></svg>