<svg xmlns="http://www.w3.org/2000/svg" width="20" height="18"><defs><style>.b{fill:#fff}</style></defs><path d="M10 0C4.478 0 0 3.468 0 7.746c0 2.784 1.9 5.224 4.744 6.59-.21.764-.758 2.771-.866 3.2-.136.533.2.525.418.382.172-.112 2.74-1.822 3.848-2.561a12.806 12.806 0 001.856.132c5.522 0 10-3.468 10-7.746S15.522 0 10 0z" fill="#222"/><path class="b" d="M6.248 6.184h-3.17c-.612 0-.61 1.024 0 1.024H4.12s.006 2.838 0 3.506c0 .486 1.084.482 1.082-.006V7.202H6.24a.512.512 0 00.008-1.018zM8.688 6.497c-.156-.334-1.048-.494-1.272 0-.256.564-1.182 3.232-1.49 3.94-.222.512.736.928.958.416l.208-.73H9s-.066.03.188.7c.206.542 1.2.166.99-.376-.292-.777-1.304-3.554-1.49-3.95zm-1.25 2.67l.628-1.818.58 1.818zM13.054 10.024c-.49 0-1.384-.006-1.384-.006V6.66c0-.636-1.13-.634-1.128 0 0 .906.006 3.828.006 3.828s-.084.582.414.582 1.6-.006 2.092-.006.49-1.04 0-1.04zM17.296 10.325l-1.46-1.922s.99-1.072 1.382-1.46c.228-.226-.478-.936-.706-.71l-1.768 1.772s.014-.976 0-1.514c-.012-.424-1.076-.394-1.064.028.01.4-.012 3.992-.012 4.258 0 .42 1.07.42 1.07 0V9.363l.314-.252 1.374 1.874c.274.37 1.148-.294.87-.66z"/></svg>