<svg xmlns="http://www.w3.org/2000/svg" width="20" height="20"><defs><clipPath id="a"><path transform="translate(29 15)" fill="#fff" stroke="#707070" d="M0 0h20v20H0z"/></clipPath></defs><g transform="translate(-29 -15)" clip-path="url(#a)"><g transform="translate(29 15)"><circle cx="10" cy="10" r="10" fill="rgba(229,24,38,0)"/><path d="M18.679 9.999c0 1.285.006 2.571 0 3.856a2.174 2.174 0 01-1.12 1.969q-3.277 1.933-6.566 3.843a2.152 2.152 0 01-2.308 0Q5.4 17.748 2.119 15.823a2.152 2.152 0 01-1.112-1.952q-.012-3.869 0-7.739a2.151 2.151 0 011.109-1.948Q5.403 2.243 8.704.327a2.139 2.139 0 012.284 0q3.286 1.915 6.566 3.843a2.174 2.174 0 011.124 1.967c.007 1.291.001 2.576.001 3.862zm-12.641.627c0 .661.008 1.321 0 1.982a.636.636 0 00.339.614c.436.259.864.532 1.3.8.086.053.169.155.285.081.1-.064.062-.178.062-.272v-3.749c0-.3.092-.4.372-.4h2.49c.151 0 .2.041.194.193a57.39 57.39 0 000 1.607c0 .259.083.3.305.162q1.971-1.257 3.936-2.522c.464-.3.465-.7 0-.99-1.312-.807-2.631-1.6-3.949-2.4-.207-.125-.288-.076-.29.17 0 .518-.011 1.036 0 1.553.005.2-.04.253-.246.252a271.508 271.508 0 00-3.829 0 .908.908 0 00-.964.972c-.007.644-.005 1.292-.005 1.947z" fill="#0061ac"/></g></g></svg>