<svg xmlns="http://www.w3.org/2000/svg" xmlns:xlink="http://www.w3.org/1999/xlink" width="28" height="28" viewBox="0 0 28 28"><defs><style>.a,.d,.e,.f{fill:none;}.b{clip-path:url(#a);}.c{fill:#4cccd9;}.d,.e{stroke:#2c9fac;stroke-linejoin:round;}.d{stroke-linecap:round;}.d,.e,.f{stroke-width:1.5px;}.f{stroke:#196e72;stroke-dasharray:2.3 1.5;}</style><clipPath id="a"><rect class="a" width="28" height="28"/></clipPath></defs><g transform="translate(14 14)"><g class="b" transform="translate(-14 -14)"><path class="c" d="M25.7,10.4V24.5a.8.8,0,0,1-.8.8H6.3a.8.8,0,0,1-.8-.8V20.8a3.4,3.4,0,1,0,0-6.8V10.4a.8.8,0,0,1,.8-.8H24.9a.8.8,0,0,1,.8.8"/><path class="d" d="M7.6,5.6,9.7,3.3a12.9,12.9,0,0,0,6.9,4.5"/><path class="e" d="M22.8,7.8V22.6H3.3V18.4a3.2,3.2,0,1,0,0-6.4V7.8Z"/><line class="f" y1="13.7" transform="translate(17.7 9.6)"/></g></g></svg>