<svg xmlns="http://www.w3.org/2000/svg" xmlns:xlink="http://www.w3.org/1999/xlink" width="124.49" height="98.11" viewBox="0 0 124.49 98.11">
  <defs>
    <linearGradient id="linear-gradient" x1="0.953" y1="0.938" x2="0" y2="0.048" gradientUnits="objectBoundingBox">
      <stop offset="0" stop-color="#5c8eff"/>
      <stop offset="1" stop-color="#3472ff"/>
    </linearGradient>
    <filter id="사각형_311718" x="29" y="4" width="64.49" height="64.49" filterUnits="userSpaceOnUse">
      <feOffset dy="6" input="SourceAlpha"/>
      <feGaussianBlur stdDeviation="3" result="blur"/>
      <feFlood flood-color="#3673ee" flood-opacity="0.102"/>
      <feComposite operator="in" in2="blur"/>
      <feComposite in="SourceGraphic"/>
    </filter>
    <filter id="사각형_311717" x="60" y="0" width="64.49" height="64.49" filterUnits="userSpaceOnUse">
      <feOffset dy="6" input="SourceAlpha"/>
      <feGaussianBlur stdDeviation="3" result="blur-2"/>
      <feFlood flood-color="#3673ee" flood-opacity="0.102"/>
      <feComposite operator="in" in2="blur-2"/>
      <feComposite in="SourceGraphic"/>
    </filter>
    <clipPath id="clip-path">
      <g transform="matrix(1, 0, 0, 1, 0, 0)" filter="url(#사각형_311718)">
        <rect id="사각형_311718-2" data-name="사각형 311718" width="46.49" height="46.49" rx="23.245" transform="translate(229 516)" stroke="rgba(54,115,238,0.3)" stroke-width="1" fill="url(#linear-gradient)"/>
      </g>
    </clipPath>
    <clipPath id="clip-path-2">
      <rect id="사각형_235353" data-name="사각형 235353" width="91.111" height="91.111" fill="none"/>
    </clipPath>
    <clipPath id="clip-path-4">
      <rect id="사각형_235341" data-name="사각형 235341" width="10.364" height="7.234" fill="none"/>
    </clipPath>
    <clipPath id="clip-path-5">
      <rect id="사각형_235342" data-name="사각형 235342" width="2.141" height="2.146" fill="none"/>
    </clipPath>
    <clipPath id="clip-path-6">
      <rect id="사각형_235343" data-name="사각형 235343" width="69.176" height="39.677" fill="none"/>
    </clipPath>
    <clipPath id="clip-path-8">
      <path id="패스_621247" data-name="패스 621247" d="M31,201.017a5,5,0,0,0,2.278,3.918c1.253.706,2.278.137,2.278-1.321a4.954,4.954,0,0,0-2.278-3.895,2.05,2.05,0,0,0-1-.319c-.752,0-1.253.592-1.253,1.617" transform="translate(-31 -199.4)" fill="none"/>
    </clipPath>
    <linearGradient id="linear-gradient-3" x1="-1.558" y1="7.29" x2="-1.508" y2="7.29" gradientUnits="objectBoundingBox">
      <stop offset="0" stop-color="#c2c1c1"/>
      <stop offset="1" stop-color="#dfdedd"/>
    </linearGradient>
    <clipPath id="clip-path-10">
      <path id="패스_621253" data-name="패스 621253" d="M186.9,290.94a5.032,5.032,0,0,0,2.255,3.918c1.23.706,2.278.137,2.278-1.321a4.96,4.96,0,0,0-2.278-3.918,2.049,2.049,0,0,0-1-.319c-.752,0-1.253.592-1.253,1.617" transform="translate(-186.9 -289.3)" fill="none"/>
    </clipPath>
    <linearGradient id="linear-gradient-4" x1="-9.392" y1="4.017" x2="-9.342" y2="4.017" xlink:href="#linear-gradient-3"/>
    <clipPath id="clip-path-12">
      <rect id="사각형_235349" data-name="사각형 235349" width="19.68" height="10.774" fill="none"/>
    </clipPath>
    <clipPath id="clip-path-13">
      <rect id="사각형_235350" data-name="사각형 235350" width="71.864" height="38.955" fill="none"/>
    </clipPath>
    <clipPath id="clip-path-14">
      <rect id="사각형_235351" data-name="사각형 235351" width="13.462" height="7.51" fill="none"/>
    </clipPath>
    <filter id="패스_132435" x="72.561" y="20.082" width="21.97" height="23.97" filterUnits="userSpaceOnUse">
      <feOffset dx="2" dy="4" input="SourceAlpha"/>
      <feGaussianBlur result="blur-3"/>
      <feFlood flood-opacity="0.078"/>
      <feComposite operator="in" in2="blur-3"/>
      <feComposite in="SourceGraphic"/>
    </filter>
  </defs>
  <g id="illust_visit_115" transform="translate(-203 -395)">
    <g id="그룹_403767" data-name="그룹 403767" opacity="0.8">
      <g id="그룹_403742" data-name="그룹 403742" transform="translate(-20 -96)">
        <path id="패스_807307" data-name="패스 807307" d="M1576.265,415.094l-2.6,1.5-4.434-2.56,2.6-1.5Z" transform="translate(-1346.232 116.465)" fill="#111"/>
        <path id="패스_807308" data-name="패스 807308" d="M1599.828,428.7l-2.6,1.5-4.434-2.56,2.6-1.5Z" transform="translate(-1362.242 107.223)" fill="#111"/>
        <path id="패스_807309" data-name="패스 807309" d="M1623.391,442.3l-2.6,1.5-4.434-2.56,2.6-1.5Z" transform="translate(-1378.251 97.979)" fill="#111"/>
        <path id="패스_807310" data-name="패스 807310" d="M1646.954,455.907l-2.6,1.5-4.434-2.56,2.6-1.5Z" transform="translate(-1394.261 88.736)" fill="#111"/>
        <path id="패스_807311" data-name="패스 807311" d="M1670.517,469.511l-2.6,1.5-4.434-2.56,2.6-1.5Z" transform="translate(-1410.27 79.492)" fill="#111"/>
        <path id="패스_807312" data-name="패스 807312" d="M1694.08,483.115l-2.6,1.5-4.434-2.56,2.6-1.5Z" transform="translate(-1426.279 70.25)" fill="#111"/>
      </g>
      <g id="그룹_403759" data-name="그룹 403759" transform="translate(38 -59)">
        <path id="패스_807307-2" data-name="패스 807307" d="M1576.265,415.094l-2.6,1.5-4.434-2.56,2.6-1.5Z" transform="translate(-1346.232 116.465)" fill="#111"/>
        <path id="패스_807308-2" data-name="패스 807308" d="M1599.828,428.7l-2.6,1.5-4.434-2.56,2.6-1.5Z" transform="translate(-1362.242 107.223)" fill="#111"/>
        <path id="패스_807309-2" data-name="패스 807309" d="M1623.391,442.3l-2.6,1.5-4.434-2.56,2.6-1.5Z" transform="translate(-1378.251 97.979)" fill="#111"/>
        <path id="패스_807310-2" data-name="패스 807310" d="M1646.954,455.907l-2.6,1.5-4.434-2.56,2.6-1.5Z" transform="translate(-1394.261 88.736)" fill="#111"/>
        <path id="패스_807311-2" data-name="패스 807311" d="M1670.517,469.511l-2.6,1.5-4.434-2.56,2.6-1.5Z" transform="translate(-1410.27 79.492)" fill="#111"/>
      </g>
    </g>
    <g id="그룹_403758" data-name="그룹 403758" transform="translate(12)">
      <g transform="matrix(1, 0, 0, 1, 191, 395)" filter="url(#사각형_311717)">
        <g id="사각형_311717-2" data-name="사각형 311717" transform="translate(69 3)" stroke="rgba(54,115,238,0.3)" stroke-width="1" fill="url(#linear-gradient)">
          <rect width="46.49" height="46.49" rx="23.245" stroke="none"/>
          <rect x="0.5" y="0.5" width="45.49" height="45.49" rx="22.745" fill="none"/>
        </g>
      </g>
      <rect id="사각형_311719" data-name="사각형 311719" width="17.047" height="22.161" transform="translate(235.313 414.969)" fill="none"/>
      <g id="img_illust_businesstrip" transform="translate(255.555 447.555)">
        <g id="출장세차" transform="translate(-45.556 -45.556)" style="isolation: isolate">
          <g id="Layer_1" data-name="Layer 1">
            <g id="그룹_300516" data-name="그룹 300516" clip-path="url(#clip-path-2)">
              <g id="그룹_300504" data-name="그룹 300504" clip-path="url(#clip-path-2)">
                <g id="그룹_300499" data-name="그룹 300499" transform="translate(71.34 65.896)" opacity="0.1">
                  <g id="그룹_300498" data-name="그룹 300498" clip-path="url(#clip-path-4)">
                    <path id="패스_621234" data-name="패스 621234" d="M315.16,295.7a.979.979,0,1,1-.957-1,.979.979,0,0,1,.957,1" transform="translate(-313.201 -293.469)" fill="#222"/>
                    <path id="패스_621235" data-name="패스 621235" d="M321.946,290.915a1.572,1.572,0,1,1-1.526-1.617,1.572,1.572,0,0,1,1.526,1.617" transform="translate(-317.527 -289.298)" fill="#222"/>
                    <path id="패스_621236" data-name="패스 621236" d="M323.046,295.215a1.572,1.572,0,1,1-1.526-1.617,1.572,1.572,0,0,1,1.526,1.617" transform="translate(-318.376 -292.618)" fill="#222"/>
                    <path id="패스_621237" data-name="패스 621237" d="M337.706,294.665a2.8,2.8,0,1,1-2.71-2.87,2.8,2.8,0,0,1,2.71,2.87" transform="translate(-327.798 -291.225)" fill="#222"/>
                    <path id="패스_621238" data-name="패스 621238" d="M346.655,307.32a1.777,1.777,0,1,1-1.731-1.822,1.777,1.777,0,0,1,1.731,1.822" transform="translate(-336.291 -301.808)" fill="#222"/>
                  </g>
                </g>
                <g id="그룹_300501" data-name="그룹 300501" transform="translate(86.601 69.723)" opacity="0.1">
                  <g id="그룹_300500" data-name="그룹 300500" clip-path="url(#clip-path-5)">
                    <path id="패스_621239" data-name="패스 621239" d="M382.442,307.292a1.071,1.071,0,1,1-1.048-1.093,1.071,1.071,0,0,1,1.048,1.093" transform="translate(-380.278 -306.176)" fill="#222"/>
                  </g>
                </g>
                <g id="그룹_300503" data-name="그룹 300503" transform="translate(5.649 37.469)" opacity="0.2" style="mix-blend-mode: multiply;isolation: isolate">
                  <g id="그룹_300502" data-name="그룹 300502" clip-path="url(#clip-path-6)">
                    <path id="패스_621240" data-name="패스 621240" d="M25.278,177.2a.727.727,0,0,0,0,1.367L69.4,203.892a2.6,2.6,0,0,0,2.346,0L93.5,191.227a.711.711,0,0,0,0-1.344L49.149,164.76a2.62,2.62,0,0,0-2.346,0Z" transform="translate(-24.8 -164.486)"/>
                    <path id="패스_621241" data-name="패스 621241" d="M25.278,177.2a.727.727,0,0,0,0,1.367L69.4,203.892a2.6,2.6,0,0,0,2.346,0L93.5,191.227a.711.711,0,0,0,0-1.344L49.149,164.76a2.62,2.62,0,0,0-2.346,0Z" transform="translate(-24.8 -164.486)"/>
                  </g>
                </g>
              </g>
              <path id="패스_621242" data-name="패스 621242" d="M306.734,265.1l1.048.615-1.435,3.007-2.847-1.663" transform="translate(-234.37 -204.716)" fill="#222"/>
              <g id="그룹_300505" data-name="그룹 300505" clip-path="url(#clip-path-2)">
                <path id="패스_621243" data-name="패스 621243" d="M23.771,186.267l2.369-1.367.638.342a11.57,11.57,0,0,1,5.171,8.542l1.048.5a1.985,1.985,0,0,1-.387.273l-2.847,1.64a2.8,2.8,0,0,1-2.961-.251,9.076,9.076,0,0,1-4.1-7.107,2.983,2.983,0,0,1,1.093-2.6" transform="translate(-17.529 -142.784)" fill="#222"/>
                <path id="패스_621244" data-name="패스 621244" d="M22.6,192.348a9.111,9.111,0,0,0,4.1,7.107c2.255,1.321,4.1.251,4.1-2.369a9.111,9.111,0,0,0-4.1-7.107c-2.255-1.321-4.1-.251-4.1,2.369" transform="translate(-17.452 -146.269)" fill="#222"/>
                <path id="패스_621245" data-name="패스 621245" d="M23.6,194.234a8.314,8.314,0,0,0,3.781,6.537c2.1,1.207,3.781.228,3.781-2.187a8.314,8.314,0,0,0-3.781-6.537c-2.1-1.207-3.781-.228-3.781,2.187" transform="translate(-18.224 -147.904)" fill="#222"/>
                <path id="패스_621246" data-name="패스 621246" d="M27.5,199.735a6.164,6.164,0,0,0,2.824,4.874c1.572.888,2.824.159,2.824-1.617a6.2,6.2,0,0,0-2.824-4.874c-1.572-.888-2.824-.159-2.824,1.64" transform="translate(-21.236 -152.699)" fill="#fff"/>
              </g>
              <g id="그룹_300506" data-name="그룹 300506" transform="translate(7.061 45.419)" clip-path="url(#clip-path-8)">
                <rect id="사각형_235346" data-name="사각형 235346" width="4.533" height="6.266" transform="translate(0 0)" fill="url(#linear-gradient-3)"/>
              </g>
              <g id="그룹_300507" data-name="그룹 300507" clip-path="url(#clip-path-2)">
                <path id="패스_621248" data-name="패스 621248" d="M23.04,182.89l-2.369,1.367a2.692,2.692,0,0,0-1.071,2.1l-.888.251V186.4c-.228-3.121,1.025-5.148,4.351-3.531" transform="translate(-14.43 -140.774)" fill="#212020"/>
                <path id="패스_621249" data-name="패스 621249" d="M179.671,276.267l2.369-1.367.638.342a11.57,11.57,0,0,1,5.171,8.542l1.048.5a1.979,1.979,0,0,1-.387.273l-2.847,1.64a2.8,2.8,0,0,1-2.961-.251,9.076,9.076,0,0,1-4.1-7.107,2.983,2.983,0,0,1,1.093-2.6" transform="translate(-137.919 -212.284)" fill="#222"/>
                <path id="패스_621250" data-name="패스 621250" d="M178.5,282.348a9.111,9.111,0,0,0,4.1,7.107c2.255,1.321,4.1.251,4.1-2.369a9.111,9.111,0,0,0-4.1-7.107c-2.255-1.321-4.1-.251-4.1,2.369" transform="translate(-137.842 -215.769)" fill="#222"/>
                <path id="패스_621251" data-name="패스 621251" d="M179.5,284.234a8.315,8.315,0,0,0,3.781,6.537c2.1,1.207,3.781.228,3.781-2.187a8.314,8.314,0,0,0-3.781-6.537c-2.1-1.207-3.781-.228-3.781,2.187" transform="translate(-138.614 -217.404)" fill="#222"/>
                <path id="패스_621252" data-name="패스 621252" d="M183.3,289.735a6.164,6.164,0,0,0,2.824,4.874c1.572.888,2.824.159,2.824-1.617a6.2,6.2,0,0,0-2.824-4.874c-1.572-.888-2.824-.159-2.824,1.64" transform="translate(-141.548 -222.199)" fill="#fff"/>
              </g>
              <g id="그룹_300508" data-name="그룹 300508" transform="translate(42.572 65.896)" clip-path="url(#clip-path-10)">
                <rect id="사각형_235348" data-name="사각형 235348" width="4.533" height="6.268" transform="translate(0 0.023)" fill="url(#linear-gradient-4)"/>
              </g>
              <g id="그룹_300515" data-name="그룹 300515" clip-path="url(#clip-path-2)">
                <path id="패스_621254" data-name="패스 621254" d="M178.94,272.99l-2.369,1.367a2.692,2.692,0,0,0-1.071,2.1l-.888.251v-.2c-.228-3.121,1.025-5.148,4.351-3.531" transform="translate(-134.819 -210.352)" fill="#212020"/>
                <path id="패스_621255" data-name="패스 621255" d="M25.405,103.36s-3.667,1.572-5.581,2.688c-1.5.888-6.127,3.781-8.268,5.216a4.578,4.578,0,0,0-1.572,1.822,10.455,10.455,0,0,0-1,3.326,13.95,13.95,0,0,0,.729,6.013,6.674,6.674,0,0,0,1.162,1.389,2.9,2.9,0,0,1-.023-.433c0-3.075,2.323-4.168,5.4-2.232a11.029,11.029,0,0,1,4.829,8.359,3.859,3.859,0,0,1-.023.524l.615.364,25.01,14.236v-.2c-.251-3.3,1.184-5.4,4.988-3.189a11.57,11.57,0,0,1,5.171,8.542l1.435.661c1.184.456,2.209-.456,4.761-1.754s12.414-7.494,14.441-8.769,2.87-2.437,3.075-3.394a43.452,43.452,0,0,0,.387-5.079,4.838,4.838,0,0,0-.752-2.05,14.051,14.051,0,0,1,0-1.686,25.992,25.992,0,0,0-.3-3.348l-.706-.706a24.159,24.159,0,0,0-1-3.417l-.114-.3a8.086,8.086,0,0,0-3.872-4.259L48.934,102.653a7.289,7.289,0,0,0-5.148-.592,19.111,19.111,0,0,0-3.075,1.071l-6.4-1.594a12.916,12.916,0,0,0-7.084,1.048Z" transform="translate(-6.887 -78.304)" fill="#fff"/>
                <path id="패스_621256" data-name="패스 621256" d="M25.405,103.36s-3.667,1.572-5.581,2.688c-1.5.888-6.127,3.781-8.268,5.216a4.578,4.578,0,0,0-1.572,1.822,10.455,10.455,0,0,0-1,3.326,13.95,13.95,0,0,0,.729,6.013,6.674,6.674,0,0,0,1.162,1.389,2.9,2.9,0,0,1-.023-.433c0-3.075,2.323-4.168,5.4-2.232a11.029,11.029,0,0,1,4.829,8.359,3.859,3.859,0,0,1-.023.524l.615.364,25.01,14.236v-.2c-.251-3.3,1.184-5.4,4.988-3.189a11.57,11.57,0,0,1,5.171,8.542l1.435.661c1.184.456,2.209-.456,4.761-1.754s12.414-7.494,14.441-8.769,2.87-2.437,3.075-3.394a43.452,43.452,0,0,0,.387-5.079,4.838,4.838,0,0,0-.752-2.05,14.051,14.051,0,0,1,0-1.686,25.992,25.992,0,0,0-.3-3.348l-.706-.706a24.159,24.159,0,0,0-1-3.417l-.114-.3a8.086,8.086,0,0,0-3.872-4.259L48.934,102.653a7.289,7.289,0,0,0-5.148-.592,19.111,19.111,0,0,0-3.075,1.071l-6.4-1.594a12.916,12.916,0,0,0-7.084,1.048Z" transform="translate(-6.887 -78.304)" fill="none" stroke="#222" stroke-linejoin="round" stroke-width="0.683"/>
                <g id="그룹_300510" data-name="그룹 300510" transform="translate(14.623 24.646)" opacity="0.18">
                  <g id="그룹_300509" data-name="그룹 300509" clip-path="url(#clip-path-12)">
                    <path id="패스_621257" data-name="패스 621257" d="M64.272,119.051a15.719,15.719,0,0,1,2.278-.888l4.123-2.551c2.027-1.3,13.234-6.674,13.234-6.674l-.114-.638-.387.182-.569-.137-1.845.478c-3.234.82-4.077,1.048-9.339,3.758-4.852,2.483-7.949,5.034-7.38,6.469" transform="translate(-64.204 -108.277)" fill="#222"/>
                  </g>
                </g>
                <path id="패스_621258" data-name="패스 621258" d="M64.4,114.729c3.781-1.868,8.974-2.1,10.592-2.118,1.367-1.025,3.69-2.665,6.537-4.464a55.417,55.417,0,0,1,9.749-4.738c-.524-.137-1.913-.638-2.323-.683a10.053,10.053,0,0,0-5.4,1.389l-.41-.091a53.765,53.765,0,0,0-11.753,5.148c-4.259,2.551-6.036,4.351-6.97,5.558" transform="translate(-49.731 -79.31)" fill="#222"/>
                <path id="패스_621259" data-name="패스 621259" d="M316.667,204.377a6.1,6.1,0,0,1,.342.524,3.185,3.185,0,0,1-1.367,1.367h0l-.342-7.2.2-.569.82.729a25.488,25.488,0,0,1,.342,3.417,12.952,12.952,0,0,0,0,1.731" transform="translate(-243.482 -153.286)" fill="#f8483b"/>
                <path id="패스_621260" data-name="패스 621260" d="M316.667,204.377a6.1,6.1,0,0,1,.342.524,3.185,3.185,0,0,1-1.367,1.367h0l-.342-7.2.2-.569.82.729a25.488,25.488,0,0,1,.342,3.417A12.952,12.952,0,0,0,316.667,204.377Z" transform="translate(-243.482 -153.286)" fill="none" stroke="#222" stroke-linejoin="round" stroke-width="0.683"/>
                <path id="패스_621261" data-name="패스 621261" d="M316.237,212.013l-.137-3.007a6.349,6.349,0,0,0,1.093-.706,13.068,13.068,0,0,1,.159,2c-.023.273-.023.547-.023.8a6.081,6.081,0,0,1-1.071.911" transform="translate(-244.099 -160.854)" fill="#fff"/>
                <path id="패스_621262" data-name="패스 621262" d="M316.237,212.013l-.137-3.007a6.349,6.349,0,0,0,1.093-.706,13.068,13.068,0,0,1,.159,2c-.023.273-.023.547-.023.8A6.081,6.081,0,0,1,316.237,212.013Z" transform="translate(-244.099 -160.854)" fill="none" stroke="#222" stroke-miterlimit="10" stroke-width="0.683"/>
                <path id="패스_621263" data-name="패스 621263" d="M214.145,241.574c.979-.364.3-1.959.3-1.959a3.1,3.1,0,0,0,.979.3,14.321,14.321,0,0,0,2-.569,20.2,20.2,0,0,1,.364,2.893c.091,1.731.251,1.845.251,1.845s5.6-3.029,7.79-4.373,5.444-3.348,7.517-4.715,2.346-1.959,2.528-2.551.41-4.419.41-4.419a2.938,2.938,0,0,0,1.184-1.321,3.782,3.782,0,0,1,.456,1.549,43.07,43.07,0,0,1-.387,5.079c-.2.934-1.048,2.118-3.075,3.394s-11.867,7.471-14.441,8.769-3.576,2.232-4.761,1.754l-1.435-.661a10.888,10.888,0,0,0-1.526-4.692,6.606,6.606,0,0,0,1.845-.319Z" transform="translate(-163.943 -175.063)" fill="none" stroke="#222" stroke-linejoin="round" stroke-width="0.683"/>
                <g id="그룹_300512" data-name="그룹 300512" transform="translate(2.118 33.301)" opacity="0.18">
                  <g id="그룹_300511" data-name="그룹 300511" clip-path="url(#clip-path-13)">
                    <path id="패스_621264" data-name="패스 621264" d="M80.946,164.9l-.911.661-.592.342-.319-7.084.319-.683-1.686-4.783-18.45,11.093c0-1.733-1.638-2.546-3.144-3.4L31.5,146.381c-6.287.023-9.554,1.937-9.554,1.937L15.915,148l-.8.478a7.653,7.653,0,0,1-3.166,1l-2.483.228a46.1,46.1,0,0,0,0,5.011,7.543,7.543,0,0,0,1.572,3.8c-.023-6.15,5.489-3.143,5.489-3.143,5.581,4.077,4.92,9.293,4.92,9.293l25.625,14.6c-.547-6.719,4.328-3.736,4.328-3.736a11.5,11.5,0,0,1,5.808,8.883l2.483.752s15.329-9.088,17.152-9.7,3.6-3.212,3.6-3.212l.524-1.458.319-4.692Zm-33.939,11.48-10.523-6.173v-.182a.433.433,0,0,1,.638-.364l10.387,5.877Z" transform="translate(-9.378 -146.2)" fill="#222"/>
                  </g>
                </g>
                <path id="패스_621265" data-name="패스 621265" d="M220.046,258.766a19.328,19.328,0,0,1-.478-5.4c.046-1.526.911-1.412,1.367-1.526s2.05-.342,2.05-.342l.068,6.947a14.32,14.32,0,0,1-2,.569,3.1,3.1,0,0,1-.979-.3" transform="translate(-169.548 -194.214)" fill="#f8483b"/>
                <path id="패스_621266" data-name="패스 621266" d="M220.046,258.766a19.328,19.328,0,0,1-.478-5.4c.046-1.526.911-1.412,1.367-1.526s2.05-.342,2.05-.342l.068,6.947a14.32,14.32,0,0,1-2,.569A3.1,3.1,0,0,1,220.046,258.766Z" transform="translate(-169.548 -194.214)" fill="none" stroke="#222" stroke-linejoin="round" stroke-width="0.683"/>
                <path id="패스_621267" data-name="패스 621267" d="M228.589,260.223v3.1c-.82.251-1.5.182-1.64-.046a4.694,4.694,0,0,1-.068-1.959c.114-.706,1.184-.957,1.686-1.116" transform="translate(-175.153 -200.932)" fill="#fff"/>
                <path id="패스_621268" data-name="패스 621268" d="M228.589,260.3v3.1c-.82.251-1.5.182-1.64-.046a4.693,4.693,0,0,1-.068-1.959C227,260.687,228.066,260.459,228.589,260.3Z" transform="translate(-175.153 -201.009)" fill="none" stroke="#222" stroke-linejoin="round" stroke-width="0.683"/>
                <path id="패스_621270" data-name="패스 621270" d="M254.494,187.04l1.162,4.51a1.845,1.845,0,0,1-.843,2.141l-14.828,8.587a.683.683,0,0,1-1.025-.569l-.159-5.877a.683.683,0,0,1,.342-.592l14.35-8.564a.683.683,0,0,1,1,.387" transform="translate(-184.407 -144.081)" fill="#222"/>
                <path id="패스_621271" data-name="패스 621271" d="M64.4,155.5h0" transform="translate(-49.731 -120.081)" fill="#141c1e"/>
                <path id="패스_621272" data-name="패스 621272" d="M109.594,207.481l-3.1-1.8c-.159-.091-.3,0-.3.228v1.071a.729.729,0,0,0,.3.569l3.1,1.8c.159.091.3,0,.3-.228v-1.071a.729.729,0,0,0-.3-.569" transform="translate(-82.01 -158.805)" fill="#bcbcbc"/>
                <path id="패스_621273" data-name="패스 621273" d="M109.594,207.481l-3.1-1.8c-.159-.091-.3,0-.3.228v1.071a.729.729,0,0,0,.3.569l3.1,1.8c.159.091.3,0,.3-.228v-1.071A.729.729,0,0,0,109.594,207.481Z" transform="translate(-82.01 -158.805)" fill="none" stroke="#111" stroke-miterlimit="10" stroke-width="0.683"/>
                <path id="패스_621274" data-name="패스 621274" d="M109.594,207.181l-3.1-1.8c-.159-.091-.3,0-.3.228a.729.729,0,0,0,.3.569l3.1,1.8c.159.091.3,0,.3-.228a.729.729,0,0,0-.3-.569" transform="translate(-82.01 -158.573)" fill="#222"/>
                <path id="패스_621275" data-name="패스 621275" d="M109.594,207.181l-3.1-1.8c-.159-.091-.3,0-.3.228a.729.729,0,0,0,.3.569l3.1,1.8c.159.091.3,0,.3-.228a.729.729,0,0,0-.3-.569Z" transform="translate(-82.01 -158.573)" fill="none" stroke="#111" stroke-miterlimit="10" stroke-width="0.683"/>
                <path id="패스_621276" data-name="패스 621276" d="M10.9,145.237h0l2.619-.319a6.173,6.173,0,0,0,2.574-.911l.342-.228a.524.524,0,0,0,.068-.82L14.385,141l-1.3.866a4.579,4.579,0,0,0-1.572,1.822,9.453,9.453,0,0,0-.615,1.549" transform="translate(-8.417 -108.883)" fill="#222"/>
                <path id="패스_621277" data-name="패스 621277" d="M102.287,101.469l-2.323.888a1.275,1.275,0,0,1-.547.046L96,101.742a10.718,10.718,0,0,1,6.287-.3" transform="translate(-74.133 -78.053)" fill="#222"/>
                <line id="선_85582" data-name="선 85582" x1="11.002" y1="6.241" transform="translate(29.361 57.446)" fill="#fff"/>
                <line id="선_85583" data-name="선 85583" x1="11.002" y1="6.241" transform="translate(29.361 57.446)" fill="none" stroke="#222" stroke-linecap="round" stroke-miterlimit="10" stroke-width="0.683"/>
                <path id="패스_621278" data-name="패스 621278" d="M259.044,217.065l-15.216,8.792a.352.352,0,0,1-.342-.615L258.7,216.45a.352.352,0,1,1,.342.615" transform="translate(-187.886 -167.113)" fill="#fff"/>
                <path id="패스_621279" data-name="패스 621279" d="M10.4,175.539s1.617-6.15,8.018-2.073,3.986,8.314,9.612,10.888c3.986,1.8,10.614,3.166,15.534,4.92a42.529,42.529,0,0,0,9.339,2.1,5.909,5.909,0,0,1,5.216,3.758l.319,1.549a1.207,1.207,0,0,0,1.5.911l.228-.068,1.23-.251s.661,4.9.8,4.806,15.99-8.838,17.266-11.047a8.111,8.111,0,0,0,.934-4.464.706.706,0,0,1,.182-.524l1.071-1.162.114.478a10.683,10.683,0,0,1,.273,4.123c-.228,1.754-.911,3.849-2.756,4.852L61.9,204.695a3.393,3.393,0,0,1-1.5.478,4.578,4.578,0,0,1-1.959-.3l-.114-.228a4.189,4.189,0,0,1-.3-.888,11.389,11.389,0,0,0-1.276-3.417c-1.276-2.232-3.736-5.558-6.856-5.262,0,0-2.6.159-2,4.6L22.29,184.81a11.275,11.275,0,0,0-5.307-9.179c-3.394-2.141-4.556.387-4.988,2.824a4.125,4.125,0,0,1-1.572-2.916" transform="translate(-8.031 -132.876)" fill="#3673ee"/>
                <path id="패스_621280" data-name="패스 621280" d="M10.4,175.539s1.617-6.15,8.018-2.073,3.986,8.314,9.612,10.888c3.986,1.8,10.614,3.166,15.534,4.92a42.529,42.529,0,0,0,9.339,2.1,5.909,5.909,0,0,1,5.216,3.758l.319,1.549a1.207,1.207,0,0,0,1.5.911l.228-.068,1.23-.251s.661,4.9.8,4.806,15.99-8.838,17.266-11.047a8.111,8.111,0,0,0,.934-4.464.706.706,0,0,1,.182-.524l1.071-1.162.114.478a10.683,10.683,0,0,1,.273,4.123c-.228,1.754-.911,3.849-2.756,4.852L61.9,204.695a3.393,3.393,0,0,1-1.5.478,4.578,4.578,0,0,1-1.959-.3l-.114-.228a4.189,4.189,0,0,1-.3-.888,11.389,11.389,0,0,0-1.276-3.417c-1.276-2.232-3.736-5.558-6.856-5.262,0,0-2.6.159-2,4.6L22.29,184.81a11.275,11.275,0,0,0-5.307-9.179c-3.394-2.141-4.556.387-4.988,2.824A3.955,3.955,0,0,1,10.4,175.539Z" transform="translate(-8.031 -132.876)" fill="none" stroke="#222" stroke-linejoin="round" stroke-width="0.569"/>
                <path id="패스_621281" data-name="패스 621281" d="M238.916,248.846c-.729.182-1-.046-1.116-.41.273-.137,5.535-3.007,7.722-4.351s5.444-3.348,7.517-4.715,2.346-1.959,2.528-2.551a42.866,42.866,0,0,0,.228-4.419l.182.068a3.646,3.646,0,0,1,.342,1.526c0,.866-.228,3.28-.228,3.28a3.075,3.075,0,0,1-1.321,2c-1.184.866-6.9,4.6-10.341,6.583s-4.783,2.756-5.535,2.938" transform="translate(-183.634 -179.465)" fill="#fff"/>
                <path id="패스_621282" data-name="패스 621282" d="M238.916,248.846c-.729.182-1-.046-1.116-.41.273-.137,5.535-3.007,7.722-4.351s5.444-3.348,7.517-4.715,2.346-1.959,2.528-2.551a42.866,42.866,0,0,0,.228-4.419l.182.068a3.646,3.646,0,0,1,.342,1.526c0,.866-.228,3.28-.228,3.28a3.075,3.075,0,0,1-1.321,2c-1.184.866-6.9,4.6-10.341,6.583S239.645,248.663,238.916,248.846Z" transform="translate(-183.634 -179.465)" fill="none" stroke="#222" stroke-linejoin="round" stroke-width="0.683"/>
                <path id="패스_621283" data-name="패스 621283" d="M316.868,269.231a2.2,2.2,0,0,1-.934,1.777c-.524.3-.934-.023-.934-.706a2.2,2.2,0,0,1,.934-1.777c.524-.3.934.023.934.706" transform="translate(-243.25 -207.275)" fill="#fff"/>
                <path id="패스_621284" data-name="패스 621284" d="M316.868,269.231a2.2,2.2,0,0,1-.934,1.777c-.524.3-.934-.023-.934-.706a2.2,2.2,0,0,1,.934-1.777C316.458,268.229,316.868,268.547,316.868,269.231Z" transform="translate(-243.25 -207.275)" fill="none" stroke="#222" stroke-miterlimit="10" stroke-width="0.569"/>
                <path id="패스_621285" data-name="패스 621285" d="M331.015,271a3.394,3.394,0,0,0-6.31-2.483,1.89,1.89,0,0,0-.251-.524V267.9a1.913,1.913,0,0,0-3.781-.387l-.364-.068a1.184,1.184,0,1,0,.706,2.118,1.913,1.913,0,0,0,3.326.683,3.394,3.394,0,0,0,3.189,3.166A2.164,2.164,0,1,0,330.992,271" transform="translate(-246.418 -205.425)" fill="#dbdbdb"/>
                <path id="패스_621286" data-name="패스 621286" d="M331.015,271a3.394,3.394,0,0,0-6.31-2.483,1.89,1.89,0,0,0-.251-.524V267.9a1.913,1.913,0,0,0-3.781-.387l-.364-.068a1.184,1.184,0,1,0,.706,2.118,1.913,1.913,0,0,0,3.326.683,3.394,3.394,0,0,0,3.189,3.166A2.164,2.164,0,1,0,330.992,271Z" transform="translate(-246.418 -205.425)" fill="none" stroke="#222" stroke-linejoin="round" stroke-width="0.569"/>
                <path id="패스_621287" data-name="패스 621287" d="M385.817,292.952a1.207,1.207,0,1,1-.329-.875,1.207,1.207,0,0,1,.329.875" transform="translate(-296.073 -225.257)" fill="#dbdbdb"/>
                <path id="패스_621288" data-name="패스 621288" d="M385.817,292.952a1.207,1.207,0,1,1-.329-.875A1.207,1.207,0,0,1,385.817,292.952Z" transform="translate(-296.073 -225.257)" fill="none" stroke="#222" stroke-linejoin="round" stroke-width="0.569"/>
                <path id="패스_621293" data-name="패스 621293" d="M23.873,168.721c6.173,1.389,8.519,7.175,8.519,7.175l-.364-1.321a9.749,9.749,0,0,0-1.731-3.531,7.665,7.665,0,0,0-5.307-3.029,4.92,4.92,0,0,0-2.118.251,2.6,2.6,0,0,0-.8.478l-.273.228a1.641,1.641,0,0,1,.615-.182,4.442,4.442,0,0,1,1.458-.046" transform="translate(-16.834 -129.726)" fill="#fff"/>
                <path id="패스_621294" data-name="패스 621294" d="M21.9,171.3l-.3.228.638-.205" transform="translate(-16.68 -132.282)" fill="#fff"/>
                <path id="패스_621295" data-name="패스 621295" d="M84.469,184.311a2.186,2.186,0,0,1-.319.387.907.907,0,0,1-.934.319h0L72.6,178.844l-.114-.091v-.046a2.192,2.192,0,0,1-.114-1.207Z" transform="translate(-55.86 -137.069)" fill="#fff"/>
                <path id="패스_621296" data-name="패스 621296" d="M133.424,161.035l-23.962-14.191a.342.342,0,1,0-.342.592l23.78,14.008,1.891,1.116a5.566,5.566,0,0,0-1.367-1.549" transform="translate(-84.133 -113.361)" fill="#fff"/>
                <path id="패스_621297" data-name="패스 621297" d="M92.248,146.956s-1.093-.638-5.148-.251a43.794,43.794,0,0,1,5.148-.524l.592.319Z" transform="translate(-67.261 -112.88)" fill="#fff"/>
                <path id="패스_621299" data-name="패스 621299" d="M361.2,274.752a.752.752,0,1,1-.752-.752.752.752,0,0,1,.752.752" transform="translate(-277.768 -211.589)" fill="#fff"/>
                <path id="패스_621300" data-name="패스 621300" d="M387.129,294.464a.364.364,0,1,1-.365-.365.364.364,0,0,1,.365.365" transform="translate(-298.387 -227.111)" fill="#fff"/>
                <path id="패스_621301" data-name="패스 621301" d="M335.666,270.633a.433.433,0,1,1-.433-.433.433.433,0,0,1,.433.433" transform="translate(-258.54 -208.654)" fill="#fff"/>
                <path id="패스_621302" data-name="패스 621302" d="M358.666,273.933a.433.433,0,1,1-.433-.433.433.433,0,0,1,.433.433" transform="translate(-276.301 -211.203)" fill="#fff"/>
                <g id="그룹_300514" data-name="그룹 300514" transform="translate(42.868 33.005)" opacity="0.3">
                  <g id="그룹_300513" data-name="그룹 300513" clip-path="url(#clip-path-14)">
                    <path id="패스_621303" data-name="패스 621303" d="M201.684,148.658c0,2.073-3.007,3.758-6.742,3.758s-6.742-1.686-6.742-3.758,3.007-3.758,6.742-3.758,6.742,1.686,6.742,3.758" transform="translate(-188.2 -144.9)" fill="#222"/>
                  </g>
                </g>
                <path id="패스_621304" data-name="패스 621304" d="M198.83,151.26c0,1.367-2.118,2.46-4.715,2.46s-4.715-1.093-4.715-2.46,2.118-2.46,4.715-2.46,4.715,1.093,4.715,2.46" transform="translate(-146.259 -114.907)" fill="#222"/>
                <path id="패스_621305" data-name="패스 621305" d="M25.405,103.36s-3.667,1.572-5.581,2.688c-1.5.888-6.127,3.781-8.268,5.216a4.578,4.578,0,0,0-1.572,1.822,10.455,10.455,0,0,0-1,3.326,13.95,13.95,0,0,0,.729,6.013,6.674,6.674,0,0,0,1.162,1.389,2.9,2.9,0,0,1-.023-.433c0-3.075,2.323-4.168,5.4-2.232a11.029,11.029,0,0,1,4.829,8.359,3.859,3.859,0,0,1-.023.524l.615.364,25.01,14.236v-.2c-.251-3.3,1.184-5.4,4.988-3.189a11.57,11.57,0,0,1,5.171,8.542l1.435.661c1.184.456,2.209-.456,4.761-1.754s12.414-7.494,14.441-8.769,2.87-2.437,3.075-3.394a43.452,43.452,0,0,0,.387-5.079,4.838,4.838,0,0,0-.752-2.05,14.051,14.051,0,0,1,0-1.686,25.992,25.992,0,0,0-.3-3.348l-.706-.706a24.159,24.159,0,0,0-1-3.417l-.114-.3a8.086,8.086,0,0,0-3.872-4.259L48.934,102.653a7.289,7.289,0,0,0-5.148-.592,19.111,19.111,0,0,0-3.075,1.071l-6.4-1.594a12.916,12.916,0,0,0-7.084,1.048Z" transform="translate(-6.887 -78.304)" fill="none" stroke="#222" stroke-linejoin="round" stroke-width="1.139"/>
                <path id="패스_621306" data-name="패스 621306" d="M85.525,164.034s-.688,5.067-.8,5.581c-.159.706-.364,1.162-.683,1.093a2.484,2.484,0,0,1-.82-.319l-1.321-.706-9.339-5.262a.683.683,0,0,1-.364-.592h0c0-.752.023-1.959.046-2.506s2.323-1.481,5.672-1.731a2.757,2.757,0,0,1,.729.068,18.6,18.6,0,0,1,6.15,3.007,1.47,1.47,0,0,1,.729,1.367" transform="translate(-55.754 -123.239)" fill="#222"/>
                <line id="선_85584" data-name="선 85584" x2="24.668" y2="14.259" transform="translate(31.798 31.297)" fill="#222"/>
                <path id="패스_621307" data-name="패스 621307" d="M163.09,151.012a.683.683,0,0,1-.615-.023l-24.691-14.259c-.182-.114-.2-.251-.046-.342a.683.683,0,0,1,.615.023l24.691,14.259c.182.114.2.251.046.342" transform="translate(-106.282 -105.275)" fill="#222"/>
                <line id="선_85585" data-name="선 85585" x2="24.691" y2="14.259" transform="translate(35.852 28.951)" fill="#222"/>
                <path id="패스_621308" data-name="패스 621308" d="M180.967,140.712a.683.683,0,0,1-.615-.023l-24.668-14.259c-.182-.114-.2-.251-.046-.342a.683.683,0,0,1,.615.023l24.668,14.259c.182.114.205.251.046.342" transform="translate(-120.105 -97.321)" fill="#222"/>
                <line id="선_85586" data-name="선 85586" x2="24.691" y2="14.236" transform="translate(39.702 26.741)" fill="#222"/>
                <path id="패스_621309" data-name="패스 621309" d="M197.867,131.012a.683.683,0,0,1-.615-.023l-24.668-14.259c-.182-.114-.2-.251-.046-.342a.683.683,0,0,1,.615.023l24.691,14.236c.182.114.2.251.046.342" transform="translate(-133.156 -89.83)" fill="#222"/>
                <path id="패스_621310" data-name="패스 621310" d="M179.8,123.5l2.255,7.79,1.777,1.663,1.936.205,1.982-.159,2.688-1.276.5-1.253,1.845-6.56-1.435.205-2.232.957-2.893.592-3.166-.433Z" transform="translate(-138.846 -95.369)" fill="#e8e9eb"/>
                <path id="패스_621311" data-name="패스 621311" d="M190.391,92.537c.159,2.847-3.052,5.353-7.129,5.558s-7.539-1.913-7.676-4.783,3.052-5.353,7.129-5.558S190.232,89.69,190.391,92.537Z" transform="translate(-135.588 -67.755)" fill="none" stroke="#000" stroke-miterlimit="10" stroke-width="1.025"/>
                <path id="패스_621312" data-name="패스 621312" d="M198.506,154.1c-.41,1.412-2.187,2.6-4.328,2.711s-4.032-.843-4.578-2.232" transform="translate(-146.413 -118.999)" fill="none" stroke="#222" stroke-miterlimit="10" stroke-width="0.683"/>
                <line id="선_85587" data-name="선 85587" x2="2.574" y2="8.018" transform="translate(40.613 27.538)" fill="none" stroke="#222" stroke-miterlimit="10" stroke-width="0.683"/>
                <line id="선_85588" data-name="선 85588" y1="9.043" x2="2.551" transform="translate(52.093 26.058)" fill="none" stroke="#222" stroke-miterlimit="10" stroke-width="0.683"/>
                <path id="패스_621313" data-name="패스 621313" d="M182.4,118.979s1.594,6.082,6.264,5.831S193.789,118,193.789,118" transform="translate(-140.853 -91.122)" fill="none" stroke="#222" stroke-linecap="round" stroke-miterlimit="10" stroke-width="0.683"/>
                <path id="패스_621314" data-name="패스 621314" d="M198.2,144.8a5.467,5.467,0,0,0,2.688.5,6.333,6.333,0,0,0,1.822-.364" transform="translate(-153.054 -111.818)" fill="none" stroke="#222" stroke-linecap="round" stroke-miterlimit="10" stroke-width="1.822"/>
                <path id="패스_621315" data-name="패스 621315" d="M176.1,72.69l2.392-2.619.8-.706-.228-.569,1.868-1.868,1.458-.342,1.23-.114,1.845-1.025,1.8-.251,1.549.273,1.253.433.5.228,1-.911.957-.114.934-.205,1.594.433.638,1.594-.068,1.253-.228.934.752.843.547,1.549-.661,1.071-1.093.866-.068,1.071-.387,1.412-1.458.068a4.01,4.01,0,0,0-.433.729,8.217,8.217,0,0,1-.433.843l-.911.547-1.754-.205h-.342l-1.253.957-1.276.569-1.663.661-2.027.364-2.916-.182a24.643,24.643,0,0,1-3.872-2.255,7.055,7.055,0,0,1-1.344-2.938l.387-1.184Z" transform="translate(-134.984 -50.117)" fill="#fff"/>
                <path id="패스_621316" data-name="패스 621316" d="M193.014,96.947l-.228.569-2.027,1.64-.5.774a5.08,5.08,0,0,1-1.458-.478,11.053,11.053,0,0,1,4.168-3.052Z" transform="translate(-145.796 -74.442)" fill="#d1a900"/>
                <path id="패스_621317" data-name="패스 621317" d="M152.146,93.346,152.1,93.3h.046Z" transform="translate(-117.455 -72.048)" fill="#ffd100"/>
                <path id="패스_621320" data-name="패스 621320" d="M269.132,110.039a1.115,1.115,0,0,0-1.686-.456,1.593,1.593,0,0,0-.41,1.868,2.847,2.847,0,0,0,1.435,1.389c.5.251,1.207.364,1.572-.091a1.116,1.116,0,0,0,.2-.638,2.278,2.278,0,0,0-.979-1.982" transform="translate(-206.106 -84.46)" fill="#fff"/>
                <path id="패스_621321" data-name="패스 621321" d="M268.361,108.949a1.412,1.412,0,0,0-1.845-.8,1.769,1.769,0,0,0-.957,2.05,3.074,3.074,0,0,0,1.708,1.913,2.164,2.164,0,0,0,1.207.228,1.116,1.116,0,0,0,.934-.8,2.536,2.536,0,0,0-1.071-2.665.3.3,0,0,0-.3.524,1.982,1.982,0,0,1,.82,1.64c0,.273-.068.569-.342.661a1.253,1.253,0,0,1-.82-.091,2.574,2.574,0,0,1-1.412-1.253,1.315,1.315,0,0,1,.25-1.526.794.794,0,0,1,1.253.251.307.307,0,1,0,.592-.159" transform="translate(-205.039 -83.438)"/>
                <path id="패스_621322" data-name="패스 621322" d="M196.193,71.974a1.982,1.982,0,0,1-1.276.911,2.505,2.505,0,0,1,.091.638,2.179,2.179,0,0,1-2.05,2.3h-.342a1.913,1.913,0,0,1-2.8,1.686,3.383,3.383,0,0,0-2.05.82h0a9.067,9.067,0,0,1-5.489,1.731c-4.237,0-7.676-2.551-7.676-5.717,0-2.323,1.845-4.3,4.51-5.193a2.346,2.346,0,0,1,.137-1.321c.547-1.3,2.278-1.868,4.123-1.5a4.947,4.947,0,0,1,3.963-1.686,5.58,5.58,0,0,1,3.143.888l.456-.41a3.077,3.077,0,0,1,4.328.182,2.608,2.608,0,0,1-.182,3.462A2.48,2.48,0,0,1,196.193,71.974Z" transform="translate(-134.83 -49.674)" fill="none" stroke="#222" stroke-linejoin="round" stroke-width="1"/>
                <path id="패스_621323" data-name="패스 621323" d="M164.573,81.179a11.053,11.053,0,0,0-4.168,3.052,3.6,3.6,0,0,1-.752-.456h-.023a3.471,3.471,0,0,0-3.166-1.754c-.387.023-.752-.114-1.139-.091a3.731,3.731,0,0,1-3.257-1.389h0L152,80.2l.091-1.481,1.276-1.025,1.184-.638a6.034,6.034,0,0,1,2.369-.3c.911.182,2.551.683,3.052,2.141l.3.433.866.137.729-.091.957.159.911.524.8.706Z" transform="translate(-117.378 -59.244)" fill="#ffda34"/>
                <path id="패스_621324" data-name="패스 621324" d="M162.254,97.076l-.251.706-1.025.638-1.139-.228-1.5-1.617-.866-.615-1.8.228-1.617-.046-.979-.456-.478-.433-.3-1.754a4.343,4.343,0,0,0,3.257,1.389c.387,0,.979-.114,1.367-.114a3.811,3.811,0,0,1,3.326,1.526l.547.273c.319.273.433.342,1.458.524" transform="translate(-117.609 -72.203)" fill="#d1a900"/>
                <path id="패스_621325" data-name="패스 621325" d="M192.8,102.819a6.03,6.03,0,0,1,5.33-4.419" transform="translate(-148.884 -75.987)" fill="none" stroke="#222" stroke-linecap="round" stroke-miterlimit="10" stroke-width="0.683"/>
                <path id="패스_621326" data-name="패스 621326" d="M161,82.785c-.979.342-1.731-.729-2.346-1.3a4.016,4.016,0,0,0-2.619-.911,14.65,14.65,0,0,1-3.166.046c-1.048-.228-1.617-.752-1.64-1.686,0-1.777,2.073-2.506,3.508-2.779a3.8,3.8,0,0,1,2.46.41,3.234,3.234,0,0,1,1.549,1.8c.205.524.615.569,1.093.478a5.171,5.171,0,0,1,1.731-.046c.911.182,1.959.934,1.754,2-.068.387.524.547.592.159a2.315,2.315,0,0,0-1.162-2.369,3.393,3.393,0,0,0-1.5-.456,10.585,10.585,0,0,0-1.708.114c-.569.046-.251-.205-.342-.41a3.277,3.277,0,0,0-.342-.638,3.873,3.873,0,0,0-.957-.934,4.533,4.533,0,0,0-2.642-.774,7.084,7.084,0,0,0-2.414.615,3.541,3.541,0,0,0-2.1,2.027,2.232,2.232,0,0,0,.706,2.506,4.349,4.349,0,0,0,3.052.661c1.048-.068,2.642-.319,3.667.592s1.708,1.913,2.984,1.481c.364-.137.205-.729-.159-.592" transform="translate(-116.306 -58.299)" fill="#222"/>
                <path id="패스_621327" data-name="패스 621327" d="M150.686,91.26a5.079,5.079,0,0,0,.342,2.05,2.588,2.588,0,0,0,2.164,1.23,7.016,7.016,0,0,0,1.549.091c.524-.023,1.025-.159,1.526-.228s.387.205.524.387l.524.592a4.92,4.92,0,0,0,1.048,1,1.942,1.942,0,0,0,2.574-.091c.273-.3-.159-.729-.433-.433a.979.979,0,0,1-.957.364,2.437,2.437,0,0,1-1.071-.5,7.537,7.537,0,0,1-.888-.957c-.251-.3-.524-.752-.888-.911a2.114,2.114,0,0,0-1.184.091,6.673,6.673,0,0,1-1.435.091,6.082,6.082,0,0,1-1.412-.228,1.6,1.6,0,0,1-.934-.524,4.781,4.781,0,0,1-.387-1.982.319.319,0,0,0-.615,0" transform="translate(-116.359 -70.327)" fill="#222"/>
              </g>
            </g>
          </g>
        </g>
      </g>
      <g id="그룹_403755" data-name="그룹 403755" transform="translate(298.16 414.711) rotate(109)">
        <g transform="matrix(-0.33, -0.95, 0.95, -0.33, 16.25, 107.74)" filter="url(#패스_132435)">
          <path id="패스_132435-2" data-name="패스 132435" d="M14.837,24.474A4.187,4.187,0,0,1,7.856,27.6a2.578,2.578,0,0,1-.351.021,3.589,3.589,0,0,1-2.016-.608H5.484a4.13,4.13,0,0,1-2.168.608,4.19,4.19,0,0,1,0-8.379c.058,0,.12,0,.178.005a3.149,3.149,0,0,1,2.964-2.1,3.251,3.251,0,0,1,.723.084,3.383,3.383,0,0,1,.592-.539,2.095,2.095,0,1,1,3.4-1.639,2.042,2.042,0,0,1-.429,1.262,3.148,3.148,0,0,1,2,2.928,3.116,3.116,0,0,1-.346,1.43A4.2,4.2,0,0,1,14.837,24.474Z" transform="translate(104.49 30.24) rotate(109)" fill="#fff" opacity="0.859"/>
        </g>
        <g id="그룹_25744" data-name="그룹 25744" transform="translate(9.95 7.332)">
          <g id="그룹_403756" data-name="그룹 403756">
            <path id="패스_132511" data-name="패스 132511" d="M12.571,0A1.571,1.571,0,1,1,11,1.571,1.571,1.571,0,0,1,12.571,0" transform="translate(-6.835 -1.565)" fill="#fff"/>
            <path id="패스_132513" data-name="패스 132513" d="M4.19,21A4.19,4.19,0,1,1,0,25.19,4.19,4.19,0,0,1,4.19,21" transform="translate(-0.946 -9.676)" fill="#fff"/>
            <path id="패스_132514" data-name="패스 132514" d="M18.19,23A4.19,4.19,0,1,1,14,27.19,4.19,4.19,0,0,1,18.19,23" transform="translate(-6.668 -10.955)" fill="#fff"/>
            <path id="패스_132515" data-name="패스 132515" d="M17.142,15A3.142,3.142,0,1,1,14,18.142,3.142,3.142,0,0,1,17.142,15" transform="translate(-6.668 -7.144)" fill="#fff"/>
            <rect id="사각형_37487" data-name="사각형 37487" width="15.711" height="20.424" fill="none"/>
          </g>
        </g>
      </g>
      <path id="패스_807334" data-name="패스 807334" d="M10414.063,23890.619s3.142-1.914,2.741-3.463" transform="translate(-10151 -23460)" fill="none" stroke="#222" stroke-linecap="round" stroke-width="0.7"/>
      <path id="패스_807335" data-name="패스 807335" d="M10414.643,23889.578s3.707,3.533,7.248.455a3.478,3.478,0,0,0,4.66.141" transform="translate(-10150 -23460)" fill="none" stroke="#222" stroke-width="0.7"/>
    </g>
    <path id="패스_807332" data-name="패스 807332" d="M1.5,0A1.5,1.5,0,1,1,0,1.5,1.5,1.5,0,0,1,1.5,0Z" transform="translate(295.001 431) rotate(180)" fill="#fff" opacity="0.7"/>
    <path id="패스_807333" data-name="패스 807333" d="M3.114,0c1.72,0,3.114.767,3.114,1.713S4.834,3.426,3.114,3.426,0,2.659,0,1.713,1.394,0,3.114,0Z" transform="translate(291.252 431.09) rotate(180)" fill="#fff" opacity="0.7"/>
  </g>
</svg>
