<svg xmlns="http://www.w3.org/2000/svg" xmlns:xlink="http://www.w3.org/1999/xlink" width="100" height="100" viewBox="0 0 100 100">
  <defs>
    <clipPath id="clip-path">
      <rect id="사각형_299417" data-name="사각형 299417" width="100" height="100" fill="none"/>
    </clipPath>
    <clipPath id="clip-path-4">
      <rect id="사각형_299414" data-name="사각형 299414" width="70.229" height="31.49" fill="none"/>
    </clipPath>
    <clipPath id="clip-path-7">
      <rect id="사각형_299439" data-name="사각형 299439" width="17.375" height="10.029" fill="none"/>
    </clipPath>
    <clipPath id="clip-path-8">
      <rect id="사각형_299441" data-name="사각형 299441" width="20.875" height="11.771" fill="none"/>
    </clipPath>
    <clipPath id="clip-path-9">
      <rect id="사각형_299442" data-name="사각형 299442" width="9.688" height="6.137" fill="none"/>
    </clipPath>
  </defs>
  <g id="그룹_419864" data-name="그룹 419864" transform="translate(-138 -50)">
    <g id="icon_certification_null_100" transform="translate(188 100)">
      <g id="icon_certification_null_100-2" data-name="icon_certification_null_100" transform="translate(-50 -50)" style="isolation: isolate">
        <g id="Layer_1" data-name="Layer 1">
          <g id="그룹_390383" data-name="그룹 390383" clip-path="url(#clip-path)">
            <g id="그룹_390377" data-name="그룹 390377" clip-path="url(#clip-path)">
              <path id="패스_787898" data-name="패스 787898" d="M50,0A50,50,0,1,1,0,50,50.013,50.013,0,0,1,50,0" fill="#f9f9f9"/>
              <path id="패스_787899" data-name="패스 787899" d="M50,100a50,50,0,1,1,50-50,50.066,50.066,0,0,1-50,50M50,1A49,49,0,1,0,99,50,49.053,49.053,0,0,0,50,1" fill="#f0f0f0"/>
            </g>
            <g id="그룹_390382" data-name="그룹 390382" clip-path="url(#clip-path)">
              <g id="그룹_390379" data-name="그룹 390379" transform="translate(18.771 49.813)" opacity="0.15">
                <g id="그룹_390378" data-name="그룹 390378" clip-path="url(#clip-path-4)">
                  <path id="패스_787900" data-name="패스 787900" d="M96.524,253.579l-6.437,3.458a1.647,1.647,0,0,0,.958,1.479L111,270.038a6.126,6.126,0,0,0,5.563-.229l42.417-24.479a2.5,2.5,0,0,0,1.354-1.625l-8.021-4.6" transform="translate(-90.087 -239.1)"/>
                </g>
              </g>
              <path id="패스_787901" data-name="패스 787901" d="M93.1,256.854v3.167a1.557,1.557,0,0,0,.938,1.417l19.229,11.1a5.993,5.993,0,0,0,5.375-.229l40.9-23.583a2.381,2.381,0,0,0,1.313-1.583V244" transform="translate(-73.7 -193.167)" fill="#efefef"/>
              <path id="패스_787902" data-name="패스 787902" d="M93.1,256.854v3.167a1.557,1.557,0,0,0,.938,1.417l19.229,11.1a5.993,5.993,0,0,0,5.375-.229l40.9-23.583a2.381,2.381,0,0,0,1.313-1.583V244" transform="translate(-73.7 -193.167)" fill="none" stroke="#222" stroke-linejoin="round" stroke-width="0.833"/>
              <path id="패스_787903" data-name="패스 787903" d="M94,208.115l19.25,11.1a5.993,5.993,0,0,0,5.375-.229l40.9-23.6c1.583-.917,1.771-2.312.4-3.1l-19.25-11.1a5.993,5.993,0,0,0-5.375.229l-40.9,23.6c-1.583.917-1.771,2.313-.4,3.1" transform="translate(-73.683 -143.011)" fill="#222"/>
              <path id="패스_787904" data-name="패스 787904" d="M94,208.115l19.25,11.1a5.993,5.993,0,0,0,5.375-.229l40.9-23.6c1.583-.917,1.771-2.312.4-3.1l-19.25-11.1a5.993,5.993,0,0,0-5.375.229l-40.9,23.6C92.808,205.928,92.621,207.324,94,208.115Z" transform="translate(-73.683 -143.011)" fill="none" stroke="#222" stroke-linejoin="round" stroke-width="0.833"/>
              <path id="패스_787905" data-name="패스 787905" d="M152.278,299.422c2.688,1.542,2.979,3.9.646,5.229s-6.375,1.167-9.042-.375-2.979-3.875-.646-5.229,6.375-1.167,9.042.375" transform="translate(-112.153 -236.026)" fill="#fff"/>
              <path id="패스_787906" data-name="패스 787906" d="M152.278,299.422c2.688,1.542,2.979,3.9.646,5.229s-6.375,1.167-9.042-.375-2.979-3.875-.646-5.229S149.591,297.88,152.278,299.422Z" transform="translate(-112.153 -236.026)" fill="none" stroke="#222" stroke-linejoin="round" stroke-width="0.833"/>
              <path id="패스_787907" data-name="패스 787907" d="M106.148,213.47l17.688,10.208a5.46,5.46,0,0,0,4.938-.208l37.563-21.687c1.458-.833,1.625-2.125.354-2.854L149,188.72a5.46,5.46,0,0,0-4.937.208L106.5,210.616c-1.458.833-1.625,2.125-.354,2.854" transform="translate(-83.357 -149.012)" fill="#fff"/>
              <path id="패스_787908" data-name="패스 787908" d="M330.019,200.871,337,204.913a2.176,2.176,0,0,0,1.958-.083l.188-.1c.583-.333.646-.833.146-1.125l-6.979-4.042a2.176,2.176,0,0,0-1.958.083l-.187.1c-.583.333-.646.833-.146,1.125" transform="translate(-260.998 -157.83)" fill="#222"/>
              <path id="패스_787909" data-name="패스 787909" d="M149.957,316.642l-8.687-5a1.021,1.021,0,0,0-.937.042c-.271.167-.312.4-.063.542l8.688,5.021a1.021,1.021,0,0,0,.938-.042c.271-.167.313-.4.063-.542" transform="translate(-110.915 -246.642)" fill="#111"/>
              <line id="선_113943" data-name="선 113943" y2="9.208" transform="translate(57.917 24.313)" fill="#3982f7"/>
            </g>
          </g>
        </g>
      </g>
    </g>
    <g id="icon_quotation_null_100" transform="translate(188 100)">
      <g id="그룹_390427" data-name="그룹 390427" transform="translate(-50 -50)" style="isolation: isolate">
        <g id="Layer_1-2" data-name="Layer 1">
          <g id="그룹_390426" data-name="그룹 390426" clip-path="url(#clip-path)">
            <g id="그룹_390425" data-name="그룹 390425" clip-path="url(#clip-path)">
              <g id="그룹_390453" data-name="그룹 390453">
                <g id="그룹_390418" data-name="그룹 390418" transform="translate(51.229 74.104)" opacity="0.15">
                  <g id="그룹_390417" data-name="그룹 390417" clip-path="url(#clip-path-7)">
                    <path id="패스_788000" data-name="패스 788000" d="M228.715,346.062h0a5.505,5.505,0,0,1-4.958-.208L213.4,339.875c-1.458-.854-1.625-2.125-.354-2.854a5.505,5.505,0,0,1,4.958.208l10.354,5.979c1.458.854,1.625,2.125.354,2.854" transform="translate(-212.215 -336.52)" fill="#222"/>
                  </g>
                </g>
                <g id="그룹_390420" data-name="그룹 390420" transform="translate(50.709 46.188)" opacity="0.15">
                  <g id="그룹_390452" data-name="그룹 390452">
                    <path id="패스_788001" data-name="패스 788001" d="M209.8,237.167" transform="translate(-209.8 -202.5)"/>
                  </g>
                </g>
                <g id="그룹_390422" data-name="그룹 390422" transform="translate(38.459 66.063)" opacity="0.15">
                  <g id="그룹_390421" data-name="그룹 390421" clip-path="url(#clip-path-8)">
                    <path id="패스_788006" data-name="패스 788006" d="M171.015,309.212h0a5.505,5.505,0,0,1-4.958-.208L152.2,301.275c-1.458-.854-1.625-2.125-.354-2.854a5.505,5.505,0,0,1,4.958.208l13.854,7.729c1.458.854,1.625,2.125.354,2.854" transform="translate(-150.994 -297.92)" fill="#222"/>
                  </g>
                </g>
                <path id="패스_788007" data-name="패스 788007" d="M180.167,305.654,154.458,290.8l-3.458.167,1.646,3.1L178.354,308.9" transform="translate(-112.541 -226.217)" fill="#fff"/>
                <path id="패스_788008" data-name="패스 788008" d="M180.167,305.654,154.458,290.8l-3.458.167,1.646,3.1L178.354,308.9" transform="translate(-112.541 -226.217)" fill="none" stroke="#222" stroke-linejoin="round" stroke-width="0.833"/>
                <line id="선_113953" data-name="선 113953" x1="21.167" y1="12.229" transform="translate(40.75 66.063)" fill="#fff"/>
                <line id="선_113954" data-name="선 113954" x1="21.167" y1="12.229" transform="translate(40.75 66.063)" fill="none" stroke="#222" stroke-linejoin="round" stroke-width="0.833"/>
                <path id="패스_788009" data-name="패스 788009" d="M282.825,362.568a2.917,2.917,0,0,1-1.312,2.271c-.729.417-1.312.083-1.312-.75a2.917,2.917,0,0,1,1.313-2.271c.729-.417,1.313-.083,1.313.75" transform="translate(-214.824 -282.297)" fill="#222"/>
                <path id="패스_788010" data-name="패스 788010" d="M282.825,362.568a2.917,2.917,0,0,1-1.312,2.271c-.729.417-1.312.083-1.312-.75a2.917,2.917,0,0,1,1.313-2.271C282.242,361.4,282.825,361.735,282.825,362.568Z" transform="translate(-214.824 -282.297)" fill="none" stroke="#222" stroke-linejoin="round" stroke-width="0.833"/>
                <path id="패스_788011" data-name="패스 788011" d="M162.75,292.643a.917.917,0,0,0-.937.083,2.917,2.917,0,0,0-1.312,2.292.9.9,0,0,0,.4.854" transform="translate(-120.063 -227.601)" fill="none" stroke="#222" stroke-linejoin="round" stroke-width="0.833"/>
                <path id="패스_788012" data-name="패스 788012" d="M263.971,351.143a.917.917,0,0,0-.937.083,2.917,2.917,0,0,0-1.333,2.292.9.9,0,0,0,.4.854" transform="translate(-200.18 -273.914)" fill="none" stroke="#222" stroke-linejoin="round" stroke-width="0.833"/>
                <path id="패스_788013" data-name="패스 788013" d="M154.49,291.378a.375.375,0,0,0-.375.042,1.146,1.146,0,0,0-.521.9.354.354,0,0,0,.167.333" transform="translate(-114.594 -226.649)" fill="none" stroke="#222" stroke-linejoin="round" stroke-width="0.833"/>
              </g>
              <path id="패스_788014" data-name="패스 788014" d="M208.9,109.717v-3.042c0-5.729-4.9-10.375-10.958-10.375A10.654,10.654,0,0,0,187,106.675v3.042" transform="translate(-148.042 -76.238)" fill="#fff"/>
              <path id="패스_788015" data-name="패스 788015" d="M208.9,109.717v-3.042c0-5.729-4.9-10.375-10.958-10.375A10.654,10.654,0,0,0,187,106.675v3.042" transform="translate(-148.042 -76.238)" fill="none" stroke="#000001" stroke-linejoin="round" stroke-width="0.833"/>
              <path id="패스_788016" data-name="패스 788016" d="M208.9,118.075c0,5.729-4.9,10.375-10.958,10.375A10.654,10.654,0,0,1,187,118.075c0-5.729,4.9-10.375,10.958-10.375s10.958,4.646,10.958,10.375" transform="translate(-148.042 -85.262)" fill="#3672ec"/>
              <path id="패스_788017" data-name="패스 788017" d="M208.9,118.075c0,5.729-4.9,10.375-10.958,10.375A10.654,10.654,0,0,1,187,118.075c0-5.729,4.9-10.375,10.958-10.375A10.654,10.654,0,0,1,208.9,118.075Z" transform="translate(-148.042 -85.262)" fill="none" stroke="#000001" stroke-linejoin="round" stroke-width="0.833"/>
              <path id="패스_788018" data-name="패스 788018" d="M225.4,147.629l2.563,2.5,5.229-5.229" transform="translate(-178.442 -114.712)" fill="none" stroke="#fff" stroke-linecap="round" stroke-linejoin="round" stroke-width="1.667"/>
              <line id="선_113955" data-name="선 113955" x2="0.729" y2="0.708" transform="translate(46.229 32.208)" fill="none" stroke="#fff" stroke-linecap="square" stroke-linejoin="round" stroke-width="1.667"/>
              <path id="패스_788019" data-name="패스 788019" d="M241,286.5l3.313,1.917L238.1,292l-4.5-2.6" transform="translate(-184.933 -226.813)" fill="none" stroke="#222" stroke-linejoin="bevel" stroke-width="0.833"/>
              <path id="패스_788020" data-name="패스 788020" d="M241.7,279.983l2.771-1.583,2.938,1.688" transform="translate(-191.346 -220.4)" fill="none" stroke="#222" stroke-linecap="round" stroke-linejoin="bevel" stroke-width="0.833"/>
              <path id="패스_788021" data-name="패스 788021" d="M230.154,293.979l-.062-1.75L223.3,292" transform="translate(-176.779 -231.167)" fill="none" stroke="#222" stroke-linecap="round" stroke-linejoin="round" stroke-width="1.042"/>
              <line id="선_113956" data-name="선 113956" y1="0.125" transform="translate(53.375 62.813)" fill="none" stroke="#222" stroke-linecap="square" stroke-linejoin="round" stroke-width="1.042"/>
              <path id="패스_788022" data-name="패스 788022" d="M282.471,257.9l3.4,1.771-6.042,3.854-4.625-2.4" transform="translate(-217.867 -204.171)" fill="none" stroke="#222" stroke-miterlimit="10" stroke-width="0.833"/>
              <path id="패스_788023" data-name="패스 788023" d="M282.7,252.129l2.708-1.729,3,1.563" transform="translate(-223.804 -198.233)" fill="none" stroke="#222" stroke-linecap="round" stroke-miterlimit="10" stroke-width="0.833"/>
              <path id="패스_788024" data-name="패스 788024" d="M271.517,266.771,271.392,265l-6.792.083" transform="translate(-209.475 -209.792)" fill="none" stroke="#222" stroke-linecap="round" stroke-linejoin="round" stroke-width="1.042"/>
              <line id="선_113957" data-name="선 113957" x1="0.021" y1="0.125" transform="translate(62.042 56.979)" fill="none" stroke="#222" stroke-linecap="square" stroke-linejoin="round" stroke-width="1.042"/>
              <g id="그룹_390424" data-name="그룹 390424" transform="translate(45.813 44.083)" opacity="0.2">
                <g id="그룹_390423" data-name="그룹 390423" clip-path="url(#clip-path-9)">
                  <path id="패스_788025" data-name="패스 788025" d="M229.57,212.95c.5,1.4-1.208,3.313-3.833,4.25s-5.167.583-5.667-.833,1.208-3.312,3.833-4.25,5.167-.583,5.667.833" transform="translate(-219.966 -211.596)"/>
                </g>
              </g>
            </g>
          </g>
        </g>
      </g>
    </g>
  </g>
</svg>
