<svg xmlns="http://www.w3.org/2000/svg" xmlns:xlink="http://www.w3.org/1999/xlink" width="29" height="29" viewBox="0 0 29 29">
  <defs>
    <clipPath id="clip-path">
      <rect id="사각형_340475" data-name="사각형 340475" width="16" height="16" fill="none"/>
    </clipPath>
  </defs>
  <g id="그룹_484423" data-name="그룹 484423" transform="translate(-251.5 -436.5)">
    <path id="패스_679708" data-name="패스 679708" d="M14,0A14,14,0,1,1,0,14,14,14,0,0,1,14,0" transform="translate(252 437)" fill="#f9f9f9" stroke="#e4e4e4" stroke-width="1"/>
    <g id="icon_mic_16" transform="translate(266 450.996)">
      <g id="그룹_471619" data-name="그룹 471619" transform="translate(-8 -8)" clip-path="url(#clip-path)">
        <line id="선_133100" data-name="선 133100" y2="4.1" transform="translate(8 10.8)" fill="none" stroke="#111" stroke-width="1.5"/>
        <path id="패스_868432" data-name="패스 868432" d="M4.5,14.7a18.5,18.5,0,0,0,8-.1" fill="none" stroke="#111" stroke-linecap="round" stroke-width="1.5"/>
        <line id="선_133101" data-name="선 133101" x2="0.6" y2="0.1" transform="translate(3.9 14.6)" fill="none" stroke="#111" stroke-linecap="square" stroke-width="1.5"/>
        <line id="선_133102" data-name="선 133102" x1="0.9" transform="translate(10.8 4.6)" fill="none" stroke="#111" stroke-linecap="round" stroke-linejoin="round" stroke-width="1.5"/>
        <line id="선_133103" data-name="선 133103" x1="1.5" transform="translate(11.3 4.6)" fill="none" stroke="#111" stroke-linejoin="round" stroke-width="1.5"/>
        <line id="선_133104" data-name="선 133104" x2="0.7" transform="translate(4.6 4.6)" fill="none" stroke="#111" stroke-linecap="round" stroke-linejoin="round" stroke-width="1.5"/>
        <line id="선_133105" data-name="선 133105" x2="1.2" transform="translate(3.7 4.6)" fill="none" stroke="#111" stroke-linejoin="round" stroke-width="1.5"/>
        <line id="선_133106" data-name="선 133106" x1="0.9" transform="translate(10.8 7.6)" fill="none" stroke="#111" stroke-linecap="round" stroke-linejoin="round" stroke-width="1.5"/>
        <line id="선_133107" data-name="선 133107" x1="1.5" transform="translate(11.3 7.6)" fill="none" stroke="#111" stroke-linejoin="round" stroke-width="1.5"/>
        <line id="선_133108" data-name="선 133108" x2="0.7" transform="translate(4.6 7.6)" fill="none" stroke="#111" stroke-linecap="round" stroke-linejoin="round" stroke-width="1.5"/>
        <line id="선_133109" data-name="선 133109" x2="1.2" transform="translate(3.7 7.6)" fill="none" stroke="#111" stroke-linejoin="round" stroke-width="1.5"/>
        <rect id="사각형_340474" data-name="사각형 340474" width="9" height="10.45" rx="1.8" transform="translate(3.5 0.8)" fill="none" stroke="#111" stroke-width="1.5"/>
      </g>
    </g>
  </g>
</svg>
