<svg xmlns="http://www.w3.org/2000/svg" width="37.772" height="10.291"><defs><clipPath id="a"><path fill="none" d="M0 0h37.772v10.291H0z"/></clipPath><style>.c{fill:#002a84}.d{fill:#fff}</style></defs><g clip-path="url(#a)"><path class="c" d="M0 8.12l2.9-3.627c.524-.627.944-1.071 1.468-1.643v-.04H.222V.556h7.62V2.27L5.08 5.747a21.228 21.228 0 01-1.508 1.7v.04h4.42v2.278H0zM11.905 6.072c.167 1.206 1.167 1.746 2.5 1.746a4.434 4.434 0 002.119-.587l1.056 1.691a6.187 6.187 0 01-3.508 1.016 4.491 4.491 0 01-4.8-4.683c0-2.548 1.389-4.905 4.659-4.905 2.643 0 4.1 2.1 4.1 4.588a6.8 6.8 0 01-.1 1.136zm3.6-1.96a1.81 1.81 0 00-3.619 0zM24.97.58a2.419 2.419 0 00-2.191.873V.556h-2.857v9.2h2.857V5.318a3.38 3.38 0 01.056-.643 1.849 1.849 0 011.96-1.452h2.167V.612l-2-.04M33.129 5c0 .214.2.278.389.278.421 0 .516-.325.516-.77a2.211 2.211 0 01-.54.143c-.19.048-.365.127-.365.341M30.602 2.881h-.6v.913h.6c.294 0 .508-.111.508-.444a.445.445 0 00-.508-.468"/><path class="c" d="M36.97 6.017c-.214.587-.532.706-1.127.706h-.365l-.048-.754h.31a.31.31 0 00.349-.3 3.2 3.2 0 00-.222-.706l-.691-1.865h.929l.508 1.643h.008l.508-1.643h.214a5.1 5.1 0 10.325 1.008zm-6.223-1.476h-.746v1.237h-.921V2.112h1.667c.683 0 1.278.294 1.278 1.175a1.126 1.126 0 01-1.278 1.262m3.357 1.23a1.057 1.057 0 01-.056-.254 1.22 1.22 0 01-.889.333c-.516 0-.913-.262-.913-.81 0-.873.952-.81 1.564-.929.151-.032.23-.079.23-.246s-.246-.278-.421-.278a.437.437 0 00-.437.333h-.825a.825.825 0 01.421-.722 1.77 1.77 0 01.857-.183c.635 0 1.254.143 1.254.9v1.165a1.576 1.576 0 00.1.691z"/><path class="d" d="M30.748 2.111h-1.667v3.667h.921V4.54h.746c.8 0 1.278-.341 1.278-1.262s-.6-1.175-1.278-1.175m-.143 1.683h-.6v-.9h.6c.294 0 .508.119.508.468s-.214.444-.508.444M34.883 3.912c0-.762-.619-.9-1.254-.9a1.77 1.77 0 00-.849.183.825.825 0 00-.421.722h.825a.388.388 0 01.437-.333c.238 0 .421.079.421.278s-.079.214-.23.246c-.611.127-1.564.056-1.564.929 0 .556.4.81.913.81a1.232 1.232 0 00.889-.333 1.059 1.059 0 00.056.254h.889a1.575 1.575 0 01-.1-.691zm-1.357 1.373c-.2 0-.389-.063-.389-.278s.167-.294.365-.341a2.03 2.03 0 00.54-.143c0 .437-.1.77-.516.77M36.621 4.738h-.008l-.508-1.643h-.936l.691 1.865a3.312 3.312 0 01.222.706.335.335 0 01-.349.3h-.31l.048.754h.365c.6 0 .913-.111 1.127-.706l.7-1.913a5.1 5.1 0 00-.327-1.006h-.214z"/></g></svg>