<svg xmlns="http://www.w3.org/2000/svg" xmlns:xlink="http://www.w3.org/1999/xlink" width="20" height="20" viewBox="0 0 20 20"><defs><style>.a,.b,.d{fill:none;}.b,.d{stroke:#111;stroke-linejoin:round;stroke-width:1.5px;}.c{clip-path:url(#a);}.d{stroke-linecap:round;}</style><clipPath id="a"><rect class="a" width="20" height="20" transform="translate(-0.409)"/></clipPath></defs><g transform="translate(10.409 10)"><g transform="translate(-10 -10)"><line class="b" y2="2" transform="translate(4.2 11.4)"/><g class="c"><path class="d" d="M4.2,16.4H15.8V9A5.8,5.8,0,1,0,4.2,9v2.5"/><path class="d" d="M12.8,17A2.5,2.5,0,0,1,10,19.2,2.5,2.5,0,0,1,7.3,17"/><path class="d" d="M11.3,6.6A2.1,2.1,0,0,1,13,8.5v.8"/><path class="d" d="M11.3,3.1V2.2a1.3,1.3,0,1,0-2.6,0v.9"/></g></g></g></svg>