<svg xmlns="http://www.w3.org/2000/svg" xmlns:xlink="http://www.w3.org/1999/xlink" width="20" height="20" viewBox="0 0 20 20">
  <defs>
    <clipPath id="clip-path">
      <rect id="사각형_284579" data-name="사각형 284579" width="20" height="20" fill="none"/>
    </clipPath>
  </defs>
  <g id="예약_내역리스트__20x20" data-name="예약(내역리스트)_20x20" transform="translate(10 10)">
    <g id="그룹_373188" data-name="그룹 373188" transform="translate(-10 -10)" clip-path="url(#clip-path)">
      <path id="패스_753301" data-name="패스 753301" d="M3.6,4.5H19.3a.7.7,0,0,1,.7.7V19.3a.7.7,0,0,1-.7.7H6.9a4,4,0,0,1-4-4V5.2a.7.7,0,0,1,.7-.7" fill="#fddb2b"/>
      <rect id="사각형_284578" data-name="사각형 284578" width="4.1" height="1.5" transform="translate(6.2 1.3)" fill="#111"/>
      <path id="패스_753302" data-name="패스 753302" d="M16.5,17.7H4.5A4.5,4.5,0,0,1,0,13.2V2a.7.7,0,0,1,.8-.7H3.5a.8.8,0,0,1,0,1.5h-2V13.2a3,3,0,0,0,3,3H15.7V2.8h-4a.8.8,0,0,1,0-1.5h4.8a.8.8,0,0,1,.8.8V17a.8.8,0,0,1-.7.8" fill="#111"/>
      <path id="패스_753303" data-name="패스 753303" d="M8.2,12l-.5-.2L5.4,9.6a.743.743,0,0,1,1-1.1l1.8,1.7L11.6,7a.8.8,0,0,1,1,1.1L8.7,11.8l-.5.2" fill="#111"/>
      <line id="선_105826" data-name="선 105826" y2="1.5" transform="translate(6.2 2.1)" fill="none" stroke="#111" stroke-linecap="round" stroke-miterlimit="10" stroke-width="1.5"/>
      <line id="선_105827" data-name="선 105827" y2="2.1" transform="translate(6.2)" fill="none" stroke="#111" stroke-miterlimit="10" stroke-width="1.5"/>
      <line id="선_105828" data-name="선 105828" y2="1.5" transform="translate(11.7 2.1)" fill="none" stroke="#111" stroke-linecap="round" stroke-miterlimit="10" stroke-width="1.5"/>
      <line id="선_105829" data-name="선 105829" y2="2.1" transform="translate(11.7)" fill="none" stroke="#111" stroke-miterlimit="10" stroke-width="1.5"/>
    </g>
  </g>
</svg>
