<svg xmlns="http://www.w3.org/2000/svg" width="40" height="40"><defs><clipPath id="a"><path data-name="사각형 259388" fill="none" d="M0 0h40v40H0z"/></clipPath></defs><g data-name="그룹 347095" clip-path="url(#a)"><path data-name="패스 698348" d="M3.8 4v22.4a4 4 0 002 3.5l11.4 6.6a4 4 0 004 0l11.4-6.6a4 4 0 002-3.5V4z" fill="#fff"/><path data-name="패스 698349" d="M5.1 6.2v20.5a4 4 0 002 3.4l11.4 6.5a4 4 0 004 0L34 30.1a4 4 0 002-3.4V6.2a.9.9 0 00-.9-.9H6a.9.9 0 00-.9.9z" fill="#fddb2b"/><path data-name="패스 698350" d="M3.8 4v22.4a4 4 0 002 3.5l11.4 6.6a4 4 0 004 0l11.4-6.6a4 4 0 002-3.5V4z" fill="none" stroke="#fccb3a" stroke-linejoin="round"/><path data-name="패스 698351" d="M20.2 12.4a7.6 7.6 0 11-7.6 7.7 7.6 7.6 0 017.6-7.6" fill="#fff"/><path data-name="패스 698352" d="M13.1 16.8a7.4 7.4 0 011.4-2" fill="none" stroke="#111" stroke-linecap="square" stroke-linejoin="round"/><path data-name="패스 698353" d="M14.5 10.4s0 3 1.8 3h.1a7.6 7.6 0 11-3.3 3.5" fill="none" stroke="#111" stroke-linecap="round" stroke-linejoin="round"/><path data-name="패스 698354" d="M16.9 10.9s-.5 1.7.6 1.9" fill="none" stroke="#111" stroke-linecap="round" stroke-linejoin="round"/><path data-name="패스 698355" d="M20.3 20.9a1.5 1.5 0 01-2.9 0" fill="none" stroke="#111" stroke-linecap="square" stroke-miterlimit="10"/><path data-name="선 95184" fill="none" stroke="#111" stroke-linecap="round" d="M21.1 18.1v.3"/><path data-name="선 95185" fill="none" stroke="#111" d="M21.1 16.8v1.3"/><path data-name="선 95186" fill="none" stroke="#111" stroke-linecap="round" d="M16.6 18v.4"/><path data-name="선 95187" fill="none" stroke="#111" d="M16.6 16.8V18"/><path data-name="패스 698356" d="M25 11.6l-2.6-.7 1.6 2.4-1.5 2.5 2.7-1.1 1.9 2.3-.1-2.9 2.5-1.3-2.5-.7-.4-2.8z" fill="#fff"/><path data-name="패스 698357" d="M25 11.6l-2.6-.7 1.6 2.4-1.5 2.5 2.7-1.1 1.9 2.3-.1-2.9 2.5-1.3-2.5-.7-.4-2.8z" fill="none" stroke="#111" stroke-linejoin="round"/></g></svg>