<svg xmlns="http://www.w3.org/2000/svg" xmlns:xlink="http://www.w3.org/1999/xlink" width="28" height="28" viewBox="0 0 28 28"><defs><style>.a,.d,.f,.g,.h{fill:none;}.b{clip-path:url(#a);}.c{fill:#fddb2b;}.d{stroke:#fccb3a;}.e{fill:#fff;}.f,.g,.h{stroke:#000001;}.f,.g{stroke-linecap:round;}.f{stroke-linejoin:round;}.g,.h{stroke-miterlimit:10;}.i{fill:#111;}</style><clipPath id="a"><rect class="a" width="28" height="28"/></clipPath></defs><g transform="translate(14 14)"><g transform="translate(-14 -14)"><g class="b"><path class="c" d="M14,0A14,14,0,1,1,0,14,14,14,0,0,1,14,0"/><circle class="d" cx="13.5" cy="13.5" r="13.5" transform="translate(0.5 0.5)"/></g><g class="b"><path class="e" d="M10.8,10.8H20a.3.3,0,0,1,.3.3v.2L18,13.5l2.4,2.4a.3.3,0,0,1,0,.4h-.1c-2,1-7.5,1.4-9.6-.2"/><path class="f" d="M11,10.5h8l-2.6,2.6L19,15.8a9.8,9.8,0,0,1-7.1,0"/><line class="g" y2="1.6" transform="translate(9.5 19)"/><line class="h" y2="10" transform="translate(9.5 9)"/><path class="i" d="M11,8a.5.5,0,0,1-.5.5h-2v-1h2A.5.5,0,0,1,11,8"/></g></g></g></svg>