<svg xmlns="http://www.w3.org/2000/svg" width="45" height="45"><defs><clipPath id="a"><path data-name="사각형 262213" fill="none" d="M0 0h32v32H0z"/></clipPath><clipPath id="b"><path data-name="사각형 262210" transform="translate(8 13)" fill="none" d="M0 0h5v5H0z"/></clipPath><clipPath id="c"><path data-name="사각형 262211" transform="translate(21 13)" fill="none" d="M0 0h5v5H0z"/></clipPath></defs><g data-name="그룹 348125"><g data-name="타원 8245" fill="#f9f9f9" stroke="rgba(0,0,0,0.03)"><circle cx="22.5" cy="22.5" r="22.5" stroke="none"/><circle cx="22.5" cy="22.5" r="22" fill="none"/></g><g data-name="그룹 351772" transform="translate(7 7)" clip-path="url(#a)"><g data-name="그룹 351771" clip-path="url(#a)"><path data-name="패스 702394" d="M3.5 16.9A10.8 10.8 0 1014.3 6.1h-.1A10.8 10.8 0 003.5 16.9" fill="#fff"/><path data-name="패스 702395" d="M17.7 17.9a2.9 2.9 0 002.9-2.9v-.7h-1.5v.7a1.45 1.45 0 01-2.9 0v-.7h-1.5v.7a2.9 2.9 0 002.9 2.9" fill="#111"/><path data-name="사각형 262208" fill="#111" d="M13.3 10h1.5v2.42h-1.5z"/><path data-name="사각형 262209" fill="#111" d="M20 10h1.5v2.42H20z"/><path data-name="패스 702396" d="M15.9 27.4h.1a3.3 3.3 0 00-.1-1.4 9.8 9.8 0 01-9.3-6.3 10.3 10.3 0 015.6-13.4 9.6 9.6 0 017.5 0 9.9 9.9 0 015.3 5.6 10.3 10.3 0 01.7 4.7 10.1 10.1 0 01-6.1 8.5l.6 1.4a11.6 11.6 0 007.1-9.7 11.9 11.9 0 00-.8-5.4A11.4 11.4 0 0020.2 5a11.1 11.1 0 00-8.6 0 11.8 11.8 0 00-7.1 11.9 11.9 11.9 0 00.8 3.2 11.3 11.3 0 0010.5 7.3" fill="#111"/><path data-name="선 91944" fill="none" stroke="#111" stroke-width="1.5" d="M11.8 26l-1.3 7.1"/><path data-name="선 91945" fill="none" stroke="#111" stroke-width="1.5" d="M20.5 25l1.3 7.5"/><g data-name="그룹 351768"><g data-name="그룹 351767" clip-path="url(#b)" opacity=".34"><path data-name="패스 702397" d="M10.5 13A2.5 2.5 0 118 15.5a2.5 2.5 0 012.5-2.5" fill="#ff8484"/></g></g><g data-name="그룹 351770"><g data-name="그룹 351769" clip-path="url(#c)" opacity=".34"><path data-name="패스 702398" d="M23.5 13a2.5 2.5 0 11-2.5 2.5 2.5 2.5 0 012.5-2.5" fill="#ff8484"/></g></g></g></g></g></svg>