<svg xmlns="http://www.w3.org/2000/svg" width="24" height="24"><defs><clipPath id="a"><path fill="none" d="M0 0h24v24H0z"/></clipPath><style>.b{clip-path:url(#a)}.e{fill:#111}</style></defs><g class="b"><g class="b"><path class="e" d="M21 .8H4a.8.8 0 00-.7.8v14.2H2a.8.8 0 00-.7.8v1c0 5.7 3.7 5.8 3.8 5.8h8a.711.711 0 00.6-1.2l-.5-.2H5c-.1 0-2.3-.1-2.3-4.2v-.2h11.6v.3a6.5 6.5 0 001.3 4.1 3.5 3.5 0 002.4 1.3 3.8 3.8 0 003.8-3.7V1.5a.8.8 0 00-.8-.7m-.7 18.8a2.3 2.3 0 01-2.3 2.2c-.1 0-2.3-.1-2.3-4.2v-1a.8.8 0 00-.7-.7H4.8V2.3h15.5z"/><path class="e" d="M13.8 5a.8.8 0 01-.7.8H7V4.3h6a.8.8 0 01.8.8M13.8 8a.8.8 0 01-.7.8H7V7.3h6a.8.8 0 01.8.8M11.8 11a.8.8 0 01-.7.8H7v-1.5h4a.8.8 0 01.8.8"/></g></g></svg>