<svg xmlns="http://www.w3.org/2000/svg" width="41.535" height="12.834" viewBox="0 0 41.535 12.834"><defs><style>.a{fill:#1b1412;fill-rule:evenodd;}</style></defs><g transform="translate(-85 -347.999)"><path class="a" d="M69.758,62.862c-.133-.388.1-.833.21-1.261s.246-.893.33-1.322c-1.581-1.075-3.125-2.146-3.125-4.6a4.831,4.831,0,0,1,2.043-3.815,7.654,7.654,0,0,1,4.327-1.5,8.194,8.194,0,0,1,4.987,1.352,4.857,4.857,0,0,1,2.193,4.747,5.076,5.076,0,0,1-2.433,3.4,7.783,7.783,0,0,1-4.6,1.232,4.642,4.642,0,0,0-.9-.09,2.77,2.77,0,0,0-.781.48c-.522.349-.963.646-1.473.992C70.31,62.627,70.082,62.9,69.758,62.862Z" transform="translate(17.826 297.648)"/><path class="a" d="M190.46,53.973c-.715,2-1.518,4.156-2.247,6.219s-1.562,4.044-3.289,5.145a9.673,9.673,0,0,1-1.368-1.205,8.988,8.988,0,0,0,1.791-2.214c-.944-2.649-1.961-5.225-2.866-7.913a12.022,12.022,0,0,1,2.15-.586q.909,3.162,1.824,6.317c.7-2.044,1.191-4.3,1.888-6.349A21.889,21.889,0,0,1,190.46,53.973Z" transform="translate(-63.925 295.496)"/><path class="a" d="M130.378,53.492c.08-.013.162-.023.247-.031,2.136-.188,3.222,1.412,3.386,3.355.244,2.887-.971,5.159-3.634,5.311v-1.72a2.055,2.055,0,0,0,.28-.106h0c1.323-.622,1.558-3.832.554-4.721a1.492,1.492,0,0,0-.833-.315Zm-1.413,8.533c-.075.934-.011,2.009-.033,3a14.674,14.674,0,0,1-2.181,0c.022-3.755-.043-7.6.033-11.3h1.465c.189.136.181.47.325.651a3.9,3.9,0,0,1,1.8-.881v1.772a1.921,1.921,0,0,0-1.413.347c-.054,1.531-.054,3.289,0,4.819a3.11,3.11,0,0,0,1.413-.023v1.72A5.947,5.947,0,0,1,128.965,62.024Z" transform="translate(-24.408 295.455)"/><path class="a" d="M162.594,61.9a7.025,7.025,0,0,1-1.5,0c-.166-.138-.177-.431-.26-.652a6.862,6.862,0,0,1-1.648.8V60.413a3.56,3.56,0,0,0,1.355-.6V58.348c-.426,0-.909-.061-1.355-.034V56.9a13.046,13.046,0,0,1,1.323.012c.222-1.136-.464-1.522-1.323-1.563v-1.9a2.93,2.93,0,0,1,3.407,2.872C162.728,57.98,162.495,59.982,162.594,61.9Zm-3.407.147a3.043,3.043,0,0,1-.5.081,2.49,2.49,0,0,1-2.768-3.19c.266-1.432,1.555-1.95,3.268-2.031v1.411a1.736,1.736,0,0,0-.892.262h0a1.19,1.19,0,0,0-.26,1.6,1.145,1.145,0,0,0,1.152.242v1.631Zm0-6.692a5.443,5.443,0,0,0-2.259.457,6.375,6.375,0,0,1-.587-1.4,5.255,5.255,0,0,1,2.736-.945l.11-.006Z" transform="translate(-45.045 295.453)"/></g></svg>