<svg xmlns="http://www.w3.org/2000/svg" width="29" height="29"><defs><clipPath id="a"><path data-name="사각형 340419" fill="none" d="M0 0h16v16H0z"/></clipPath><clipPath id="b"><path data-name="사각형 340417" transform="translate(.5 .3)" fill="none" d="M0 0h15.2v15.42H0z"/></clipPath><clipPath id="c"><path data-name="사각형 340416" transform="translate(.3 .3)" fill="none" d="M0 0h15.4v15.42H0z"/></clipPath><clipPath id="d"><path data-name="사각형 340418" transform="translate(.5 .3)" fill="none" d="M0 0h15.4v15.42H0z"/></clipPath></defs><g data-name="그룹 484421"><path data-name="패스 679708" d="M14.5.5a14 14 0 11-14 14 14 14 0 0114-14" fill="#f9f9f9" stroke="#e4e4e4"/><g data-name="그룹 471565" transform="translate(6.5 6.496)" clip-path="url(#a)"><g data-name="그룹 471564" clip-path="url(#d)" fill="none" stroke="#111"><path data-name="패스 868402" d="M13.1 7.1v7.3H4.5a1.8 1.8 0 01-1.8-1.8V7.1" stroke-linecap="round" stroke-linejoin="round" stroke-width="1.3"/><path data-name="패스 868403" d="M4.5 6.9H2.6a1.8 1.8 0 01-.8-1.5v-3a.4.4 0 01.4-.4h11.3a.4.4 0 01.4.4v3a1.8 1.8 0 01-.8 1.5h-2.8" stroke-linecap="round" stroke-linejoin="round" stroke-width="1.3"/><path data-name="선 133063" stroke-linecap="round" stroke-miterlimit="10" d="M6.1 7.2v1"/><path data-name="선 133064" stroke-miterlimit="10" d="M6.1 5.7v1.5"/><path data-name="선 133065" stroke-linecap="round" stroke-miterlimit="10" d="M10 7.1v1.1"/><path data-name="선 133066" stroke-miterlimit="10" d="M10 5.7v1.4"/><path data-name="선 133067" stroke-linecap="round" stroke-linejoin="round" stroke-width="1.3" d="M8.3 6.9H6.5"/><path data-name="패스 868404" d="M6.6 14v-2.9h2.6V14" stroke-linejoin="round"/></g></g></g></svg>