<svg xmlns="http://www.w3.org/2000/svg" width="24.003" height="23.999"><defs><style>.b{fill:#fff}</style></defs><path d="M24.003 12.001a12 12 0 11-12-12 12 12 0 0112 12z" fill="#df2534"/><path class="b" d="M5.935 9.291a1.888 1.888 0 00-1.26-.232 4.026 4.026 0 001.238-2.721A2.128 2.128 0 005.9 6.08a1.246 1.246 0 00-.727-1.169c-.417-.156-1.182-.077-2.4 1.165l-.729.817A5.994 5.994 0 00.933 9.508a15.291 15.291 0 00.438 5.923 1.392 1.392 0 00.727.915 1.649 1.649 0 001.4-.259l.113-.056.433-.194.421-.186.513-.225a3.647 3.647 0 001.052-.573 3.042 3.042 0 00.946-1.451 4.856 4.856 0 00.179-.979 4.569 4.569 0 00-.05-1.317 2.616 2.616 0 00-1.17-1.815zm-3.894 1.535l.023.27a.137.137 0 00.083.138.138.138 0 00.15-.029 1.945 1.945 0 011.7-.535c.435.151.731.6.886 1.337a2.229 2.229 0 01-1.4 2.591l-.023.01-.846.415a.13.13 0 01-.1 0c-.052-.027-.067-.061-.1-.152a17.9 17.9 0 01-.557-6.434 1.1 1.1 0 01.215-.5l.71-.757.079-.086c.385-.375.748-.563.944-.481.162.069.2.329.2.534.033 1.106-.585 2.237-1.881 3.455a.276.276 0 00-.08.224zM15.474 2.89c-.238-.815-.625-.986-.738-1.023a6.482 6.482 0 00-3.1-.213A6 6 0 007.881 3.93 5.618 5.618 0 006.87 8.3a5.466 5.466 0 002.313 3.691 7.057 7.057 0 005.443.842 6.7 6.7 0 003.005-1.411 1.224 1.224 0 00.415-.957 3.472 3.472 0 00-.15-.9c-.046-.167-.119-.217-.235-.217-.085 0-.175.1-.192.119a4.462 4.462 0 01-2.573 1.36c-2.84.546-5.024-.78-5.566-3.381a3.871 3.871 0 01.548-3.042 3.949 3.949 0 012.721-1.588 4.916 4.916 0 012.6.319s.35.096.275-.245z"/></svg>