<svg xmlns="http://www.w3.org/2000/svg" width="16" height="16"><defs><clipPath id="a"><path class="a" d="M0 0h16v16H0z"/></clipPath><clipPath id="d"><path class="a" transform="translate(6.5 .5)" d="M0 0h3v15H0z"/></clipPath><style>.a{fill:none}.b{clip-path:url(#a)}.c{opacity:0}.f{fill:#999}</style></defs><g class="b"><g class="b"><g class="c"><path fill="red" d="M0 0h16v16H0z"/></g><g clip-path="url(#d)"><path class="f" d="M6.5.5h3v15h-3z"/></g><path class="f" d="M6.5 14A1.5 1.5 0 118 15.5 1.5 1.5 0 016.5 14m0-6A1.5 1.5 0 118 9.5 1.5 1.5 0 016.5 8m0-6A1.5 1.5 0 118 3.5 1.5 1.5 0 016.5 2"/></g></g></svg>