<svg xmlns="http://www.w3.org/2000/svg" xmlns:xlink="http://www.w3.org/1999/xlink" width="28" height="28" viewBox="0 0 28 28"><defs><style>.a,.f,.g,.h{fill:none;}.b{clip-path:url(#a);}.c{opacity:0;}.d{fill:#f0f;}.e{fill:#56c6e4;}.f,.g,.h{stroke:#111;stroke-linejoin:round;stroke-width:1.5px;}.g{stroke-linecap:round;}.h{stroke-linecap:square;}.i{fill:#fff;}</style><clipPath id="a"><rect class="a" width="28" height="28"/></clipPath></defs><g transform="translate(14 14)"><g class="b" transform="translate(-14 -14)"><g class="b"><g class="c"><g class="b"><rect class="d" width="28" height="28"/></g></g><path class="e" d="M19.9,19.6a5.8,5.8,0,1,1-5.8-5.8,5.8,5.8,0,0,1,5.8,5.8"/><path class="f" d="M15.6,6.6H9.7v3.9a7,7,0,0,0-4,6.3V27.2h14V16.8a7,7,0,0,0-4-6.3Z"/><path class="f" d="M19.9,6.6V3.5L17.2.8,6.6,3.4V6.6Z"/><rect class="f" width="2.4" height="3.13" transform="translate(19.9 3.5)"/><path class="g" d="M21.3,10.7a4.8,4.8,0,0,1-2.7-2.2A5.5,5.5,0,0,1,18,6.6"/><line class="g" x2="3.1" transform="translate(12.3 19.6)"/><line class="h" x2="2.3" transform="translate(10 19.6)"/><line class="g" y2="2.4" transform="translate(12.7 19.9)"/><line class="h" y2="3" transform="translate(12.7 16.9)"/><line class="i" x2="3.1" transform="translate(9.7 10.5)"/><line class="f" x2="3.1" transform="translate(9.7 10.5)"/></g></g></g></svg>