<svg xmlns="http://www.w3.org/2000/svg" xmlns:xlink="http://www.w3.org/1999/xlink" width="50" height="50" viewBox="0 0 50 50">
  <defs>
    <clipPath id="clip-path">
      <rect id="사각형_337255" data-name="사각형 337255" width="50" height="50" fill="none"/>
    </clipPath>
  </defs>
  <g id="icon_membership_gold_40" transform="translate(25 25)">
    <g id="icon_membership_gold_40-2" data-name="icon_membership_gold_40" transform="translate(-25 -25)" clip-path="url(#clip-path)">
      <path id="패스_861312" data-name="패스 861312" d="M3.8,4V32a5,5,0,0,0,2.5,4.375l14.25,8.25a5,5,0,0,0,5,0l14.25-8.25A5,5,0,0,0,42.3,32V4Z" transform="translate(0.95 1)" fill="#fff"/>
      <path id="패스_861313" data-name="패스 861313" d="M5.1,6.425V32.05A5,5,0,0,0,7.6,36.3l14.25,8.125a5,5,0,0,0,5,0L41.225,36.3a5,5,0,0,0,2.5-4.25V6.425A1.125,1.125,0,0,0,42.6,5.3H6.225A1.125,1.125,0,0,0,5.1,6.425Z" transform="translate(1.275 1.325)" fill="#fddb2b"/>
      <path id="패스_861314" data-name="패스 861314" d="M3.8,4V32a5,5,0,0,0,2.5,4.375l14.25,8.25a5,5,0,0,0,5,0l14.25-8.25A5,5,0,0,0,42.3,32V4Z" transform="translate(0.95 1)" fill="none" stroke="#fccb3a" stroke-linejoin="round" stroke-width="1.25"/>
      <path id="패스_861315" data-name="패스 861315" d="M22.1,12.4a9.5,9.5,0,1,1-9.5,9.625h0a9.5,9.5,0,0,1,9.5-9.5" transform="translate(3.15 3.1)" fill="#fff"/>
      <path id="패스_861316" data-name="패스 861316" d="M13.1,17.3a9.25,9.25,0,0,1,1.75-2.5" transform="translate(3.275 3.7)" fill="none" stroke="#111" stroke-linecap="square" stroke-linejoin="round" stroke-width="1.25"/>
      <path id="패스_861317" data-name="패스 861317" d="M15.026,10.4s0,3.75,2.25,3.75H17.4a9.5,9.5,0,1,1-4.125,4.375" transform="translate(3.099 2.6)" fill="none" stroke="#111" stroke-linecap="round" stroke-linejoin="round" stroke-width="1.25"/>
      <path id="패스_861318" data-name="패스 861318" d="M16.928,10.9s-.625,2.125.75,2.375" transform="translate(4.197 2.725)" fill="none" stroke="#111" stroke-linecap="round" stroke-linejoin="round" stroke-width="1.25"/>
      <path id="패스_861319" data-name="패스 861319" d="M21.025,20.9a1.875,1.875,0,0,1-3.625,0" transform="translate(4.35 5.225)" fill="none" stroke="#111" stroke-linecap="square" stroke-miterlimit="10" stroke-width="1.25"/>
      <line id="선_131687" data-name="선 131687" y2="0.375" transform="translate(26.375 22.625)" fill="none" stroke="#111" stroke-linecap="round" stroke-width="1.25"/>
      <line id="선_131688" data-name="선 131688" y2="1.625" transform="translate(26.375 21)" fill="none" stroke="#111" stroke-width="1.25"/>
      <line id="선_131689" data-name="선 131689" y2="0.5" transform="translate(20.75 22.5)" fill="none" stroke="#111" stroke-linecap="round" stroke-width="1.25"/>
      <line id="선_131690" data-name="선 131690" y2="1.5" transform="translate(20.75 21)" fill="none" stroke="#111" stroke-width="1.25"/>
      <path id="패스_861320" data-name="패스 861320" d="M25.65,12.175,22.4,11.3l2,3-1.875,3.125L25.9,16.05l2.375,2.875L28.15,15.3l3.125-1.625L28.15,12.8l-.5-3.5Z" transform="translate(5.6 2.325)" fill="#fff"/>
      <path id="패스_861321" data-name="패스 861321" d="M25.65,12.175,22.4,11.3l2,3-1.875,3.125L25.9,16.05l2.375,2.875L28.15,15.3l3.125-1.625L28.15,12.8l-.5-3.5Z" transform="translate(5.6 2.325)" fill="none" stroke="#111" stroke-linejoin="round" stroke-width="1.25"/>
    </g>
  </g>
</svg>
