<svg xmlns="http://www.w3.org/2000/svg" xmlns:xlink="http://www.w3.org/1999/xlink" width="20" height="20" viewBox="0 0 20 20"><defs><style>.a,.e,.f{fill:none;}.b{clip-path:url(#a);}.c{opacity:0;}.d{fill:#f0f;}.e,.f{stroke:#000111;stroke-miterlimit:10;stroke-width:1.5px;}.e{stroke-linecap:round;}.f{stroke-linecap:square;}</style><clipPath id="a"><rect class="a" width="20" height="20"/></clipPath></defs><g transform="translate(10 10)"><g class="b" transform="translate(-10 -10)"><g class="b"><g class="c"><g class="b"><rect class="d" width="20" height="20"/></g></g><path class="e" d="M2.5,11.3a7.8,7.8,0,1,0,7.8-7.7H2.5"/><path class="e" d="M3.3,4.5l-1-.9L5.3.9"/><line class="f" x1="1.8" y1="1.6" transform="translate(3.3 4.5)"/><path d="M5.9,8.7H7.3L8,11.5h.8l.6-2.8h1.3l.7,2.8h.9L13,8.7h1.3l-.7,2.8h.7a.325.325,0,0,1,0,.6h-1l-.6,2.1a.7.7,0,0,1-.8.6l-.5-.2a.7.7,0,0,1-.3-.4l-.5-2.1H9.7l-.5,2.1a.7.7,0,0,1-.3.4l-.5.2a.7.7,0,0,1-.8-.6L7,12.1H6.1v-.9h.6Zm2.2,3.7v1.4h.1l.2-.9v-.5Zm2.3-.9-.3-1.4H10a12.4,12.4,0,0,1-.2,1.4Zm1.2.9.2,1.4h.1l.3-1.4Z"/></g></g></g></svg>