<svg xmlns="http://www.w3.org/2000/svg" width="28" height="28"><defs><clipPath id="clip-path"><path id="사각형_239159" data-name="사각형 239159" fill="none" d="M0 0h28v28H0z"/></clipPath><style>.cls-2{clip-path:url(#clip-path)}.cls-4{fill:#fff}</style></defs><g id="앱_이용안내_28x28" data-name="앱 이용안내_28x28" transform="translate(14 14)"><g id="그룹_309297" data-name="그룹 309297" class="cls-2" transform="translate(-14 -14)"><path id="사각형_239153" data-name="사각형 239153" fill="#fddb2b" d="M0 0h28v28H0z"/><g id="그룹_309295" data-name="그룹 309295" class="cls-2"><path id="패스_638150" data-name="패스 638150" class="cls-4" d="M7.8 20.9c0 5.3 3.2 5.3 3.2 5.3h1.1"/><path id="패스_638151" data-name="패스 638151" class="cls-4" d="M7.8 20.9V6a.5.5 0 01.5-.5h15.1a.5.5 0 01.6.5v19.6a.5.5 0 01-.5.5H12.1"/><path id="패스_638152" data-name="패스 638152" d="M5.9 19.1c0 5.3 3.2 5.3 3.2 5.3h1.1" stroke-linejoin="round" stroke="#111" stroke-width="1.5" fill="none"/><path id="패스_638153" data-name="패스 638153" d="M5.9 19.1V3.7h16.2v20.7H10.2" stroke-linecap="round" stroke-linejoin="round" stroke="#111" stroke-width="1.5" fill="none"/></g><text id="i" transform="translate(12.1 16.3)" fill="#111" font-size="12" font-family="MoebiusKorea-Bold,Moebius Korea" font-weight="700"><tspan x="0" y="0">i</tspan></text><g id="그룹_309296" data-name="그룹 309296" class="cls-2"><path id="사각형_239157" data-name="사각형 239157" transform="translate(11.9 9.4)" d="M0 0h1.8v1.5H0z"/><path id="선_87648" data-name="선 87648" stroke-miterlimit="10" stroke-linecap="round" stroke="#111" stroke-width="1.5" fill="none" d="M11.9 18.9h5.9"/><path id="선_87649" data-name="선 87649" stroke-linecap="square" stroke-miterlimit="10" stroke="#111" stroke-width="1.5" fill="none" d="M6 18.9h5.9"/></g></g></g></svg>