<svg xmlns="http://www.w3.org/2000/svg" xmlns:xlink="http://www.w3.org/1999/xlink" width="100" height="100" viewBox="0 0 100 100">
  <defs>
    <clipPath id="clip-path">
      <rect id="사각형_59828" data-name="사각형 59828" width="100" height="100" transform="translate(138 80)" fill="#d5d5d5"/>
    </clipPath>
    <clipPath id="clip-path-2">
      <rect id="사각형_434301" data-name="사각형 434301" width="100" height="100" fill="none"/>
    </clipPath>
    <clipPath id="clip-path-5">
      <rect id="사각형_434299" data-name="사각형 434299" width="15.313" height="8.206" fill="none"/>
    </clipPath>
  </defs>
  <g id="illust_member_pause" transform="translate(-138 -80)" clip-path="url(#clip-path)">
    <g id="null_100x100" transform="translate(188 130)">
      <g id="그룹_586864" data-name="그룹 586864" transform="translate(-50 -50)" clip-path="url(#clip-path-2)">
        <g id="그룹_586860" data-name="그룹 586860" clip-path="url(#clip-path-2)">
          <path id="패스_1457798" data-name="패스 1457798" d="M50,0A50,50,0,1,1,0,50,50.013,50.013,0,0,1,50,0" fill="#f9f9f9"/>
          <path id="패스_1457799" data-name="패스 1457799" d="M50,100a50,50,0,1,1,50-50,50.066,50.066,0,0,1-50,50M50,1A49,49,0,1,0,99,50,49.053,49.053,0,0,0,50,1" fill="#f0f0f0"/>
        </g>
        <g id="그룹_586863" data-name="그룹 586863" clip-path="url(#clip-path-2)">
          <path id="패스_1457800" data-name="패스 1457800" d="M209.608,119.892A10.87,10.87,0,1,1,198.754,109.6a10.578,10.578,0,0,1,10.854,10.292" transform="translate(-148.754 -86.767)" fill="#fff"/>
          <path id="패스_1457801" data-name="패스 1457801" d="M209.608,119.892A10.87,10.87,0,1,1,198.754,109.6,10.578,10.578,0,0,1,209.608,119.892Z" transform="translate(-148.754 -86.767)" fill="none" stroke="#000001" stroke-linejoin="round" stroke-width="0.833"/>
          <path id="패스_1457802" data-name="패스 1457802" d="M209.608,131.092A10.87,10.87,0,1,1,198.754,120.8a10.578,10.578,0,0,1,10.854,10.292" transform="translate(-148.754 -95.633)" fill="#3982f7"/>
          <path id="패스_1457803" data-name="패스 1457803" d="M209.608,131.092A10.87,10.87,0,1,1,198.754,120.8,10.578,10.578,0,0,1,209.608,131.092Z" transform="translate(-148.754 -95.633)" fill="none" stroke="#000001" stroke-linejoin="round" stroke-width="0.833"/>
          <path id="패스_1457804" data-name="패스 1457804" d="M238.485,184.367a.979.979,0,0,0-1.354,0,.958.958,0,1,0,1.354,0" transform="translate(-187.506 -145.742)" fill="#fff"/>
          <path id="패스_1457805" data-name="패스 1457805" d="M235.886,147.1a1.438,1.438,0,0,0-1.417,1.75l.438,4.021a.958.958,0,0,0,1.917,0l.437-4.021a1.437,1.437,0,0,0-1.4-1.75" transform="translate(-185.594 -116.454)" fill="#fff"/>
          <path id="패스_1457806" data-name="패스 1457806" d="M348.929,229.758l-.979.563-5.75.271h-1.1l2.583,1.5q.9.521.271.854a1.507,1.507,0,0,1-1.5-.167l-4.75-2.75.979-.562,5.729-.271h1.125l-2.917-1.687,1.229-.708Z" transform="translate(-267.346 -179.55)"/>
          <path id="패스_1457807" data-name="패스 1457807" d="M382.408,268.167l-1.042-.042-3.542-1.562-.667-.312.167,1.4q.062.479-.6.458t-.708-.5L375.7,265l1.063.042,3.521,1.563.667.313-.187-1.583,1.313.063Z" transform="translate(-297.429 -209.792)"/>
          <path id="패스_1457808" data-name="패스 1457808" d="M376.606,291.058l-.771-.146-2.1-1.5-.4-.292-.375.979q-.125.333-.6.25t-.354-.437l.687-1.812.792.167,2.083,1.5.4.292.417-1.1.979.188Z" transform="translate(-294.481 -228.079)"/>
          <path id="패스_1457809" data-name="패스 1457809" d="M262.373,256.153c-4.687,2.708-12.875,2.375-18.292-.75s-6-7.854-1.312-10.562,12.875-2.375,18.292.75S267.06,253.445,262.373,256.153Z" transform="translate(-189.685 -192.383)" fill="none" stroke="#000" stroke-miterlimit="10" stroke-width="0.208"/>
          <path id="패스_1457810" data-name="패스 1457810" d="M176.029,254.642c-.4-1.729-1.854-3.458-4.271-4.854-5.312-3.062-13.354-3.4-17.958-.75l-23.9,13.792a5.75,5.75,0,0,0-2.979,3.521,4.229,4.229,0,0,1-.125-1c0-1.687,1.021-3.292,3.1-4.5l23.875-13.792c4.6-2.667,12.646-2.333,17.958.75,3.375,1.958,4.854,4.542,4.271,6.854" transform="translate(-100.383 -194.163)" fill="#222"/>
          <path id="패스_1457811" data-name="패스 1457811" d="M176.029,254.642c-.4-1.729-1.854-3.458-4.271-4.854-5.312-3.062-13.354-3.4-17.958-.75l-23.9,13.792a5.75,5.75,0,0,0-2.979,3.521,4.229,4.229,0,0,1-.125-1c0-1.687,1.021-3.292,3.1-4.5l23.875-13.792c4.6-2.667,12.646-2.333,17.958.75C175.133,249.746,176.592,252.329,176.029,254.642Z" transform="translate(-100.383 -194.163)" fill="none" stroke="#222" stroke-linecap="round" stroke-linejoin="round" stroke-width="0.833"/>
          <path id="패스_1457812" data-name="패스 1457812" d="M176.5,262.084a5.873,5.873,0,0,1-2.979,3.521l-23.9,13.792c-4.6,2.667-12.646,2.333-17.958-.75-2.437-1.4-3.875-3.146-4.271-4.875a5.873,5.873,0,0,1,2.979-3.521l23.875-13.792c4.6-2.667,12.646-2.333,17.958.75,2.438,1.4,3.875,3.146,4.271,4.854" transform="translate(-100.858 -201.604)" fill="#e2e2e2"/>
          <path id="패스_1457813" data-name="패스 1457813" d="M176.5,262.084a5.873,5.873,0,0,1-2.979,3.521l-23.9,13.792c-4.6,2.667-12.646,2.333-17.958-.75-2.437-1.4-3.875-3.146-4.271-4.875a5.873,5.873,0,0,1,2.979-3.521l23.875-13.792c4.6-2.667,12.646-2.333,17.958.75C174.65,258.625,176.087,260.375,176.5,262.084Z" transform="translate(-100.858 -201.604)" fill="none" stroke="#222" stroke-linejoin="round" stroke-width="0.833"/>
          <path id="패스_1457814" data-name="패스 1457814" d="M165.632,329.3v2.875c0,1.5-1,3-3,4.146a15.888,15.888,0,0,1-14.375.021c-2-1.146-2.979-2.667-2.958-4.187V329.3" transform="translate(-115.028 -260.696)" fill="#222"/>
          <path id="패스_1457815" data-name="패스 1457815" d="M165.632,329.3v2.875c0,1.5-1,3-3,4.146a15.888,15.888,0,0,1-14.375.021c-2-1.146-2.979-2.667-2.958-4.187V329.3" transform="translate(-115.028 -260.696)" fill="none" stroke="#222" stroke-linejoin="round" stroke-width="0.833"/>
          <path id="패스_1457816" data-name="패스 1457816" d="M148.31,302.829a15.888,15.888,0,0,1,14.375-.021c3.958,2.292,3.938,6-.042,8.292a15.888,15.888,0,0,1-14.375.021c-3.958-2.292-3.937-6,.042-8.292" transform="translate(-115.039 -238.371)" fill="#fff"/>
          <path id="패스_1457817" data-name="패스 1457817" d="M148.31,302.829a15.888,15.888,0,0,1,14.375-.021c3.958,2.292,3.938,6-.042,8.292a15.888,15.888,0,0,1-14.375.021C144.31,308.829,144.331,305.142,148.31,302.829Z" transform="translate(-115.039 -238.371)" fill="none" stroke="#222" stroke-linecap="round" stroke-linejoin="round" stroke-width="0.833"/>
          <path id="패스_1457818" data-name="패스 1457818" d="M247.879,299.1a4.583,4.583,0,0,1,2.458-.708,5,5,0,0,1,2.417.563q1.208.625,1.229,1.438A1.565,1.565,0,0,1,253,301.77a4.625,4.625,0,0,1-2.458.708,5,5,0,0,1-2.417-.562q-1.229-.646-1.229-1.437a1.648,1.648,0,0,1,1-1.375m.979.521q-.75.479-.146,1.083a3.02,3.02,0,0,0,.646.417,3.437,3.437,0,0,0,1.5.438,2.042,2.042,0,0,0,1.146-.292q.75-.479.146-1.083a2.584,2.584,0,0,0-.625-.417,3.459,3.459,0,0,0-1.521-.437,2.021,2.021,0,0,0-1.146.313" transform="translate(-195.462 -236.229)" fill="#222"/>
          <path id="패스_1457819" data-name="패스 1457819" d="M263.412,281.983l-.312-.167-.542-.333q-.771-.583-.167-1.229a2.1,2.1,0,0,1,.438-.354,4,4,0,0,1,1.083-.5l.708.667a1.6,1.6,0,0,0-.583.229q-.5.313-.021.625l.25.146.333.167.625-.4a1.046,1.046,0,0,1,1.1-.1q.5.271-.1.646l-.625.4,3.333,1.75q.438.229.229.521a.625.625,0,0,1-.187.188,1.187,1.187,0,0,1-.6.188,1.229,1.229,0,0,1-.625-.125l-3.333-1.75-.667.438-1-.521Z" transform="translate(-207.516 -221.192)" fill="#222"/>
          <path id="패스_1457820" data-name="패스 1457820" d="M278.612,272.383l-.312-.167-.542-.333q-.771-.583-.167-1.229a2.1,2.1,0,0,1,.438-.354,4,4,0,0,1,1.083-.5l.708.667a1.6,1.6,0,0,0-.583.229q-.5.313-.021.625l.25.146.333.167.625-.4a1.046,1.046,0,0,1,1.1-.1q.5.271-.1.646l-.625.4,3.333,1.75q.438.229.229.521a.625.625,0,0,1-.187.188,1.209,1.209,0,0,1-.6.188,1.229,1.229,0,0,1-.625-.125l-3.333-1.75-.667.438-1-.521Z" transform="translate(-219.55 -213.592)" fill="#222"/>
          <g id="그룹_586862" data-name="그룹 586862" transform="translate(42.438 59.229)" opacity="0.2">
            <g id="그룹_586861" data-name="그룹 586861" clip-path="url(#clip-path-5)">
              <path id="패스_1457821" data-name="패스 1457821" d="M219.013,288.4c0,2.25-3.4,4.083-7.6,4.1-.542-2.4-3.75-4.208-7.6-4.208h-.1c.1-2.208,3.5-4,7.646-4s7.667,1.833,7.667,4.1" transform="translate(-203.7 -284.3)"/>
            </g>
          </g>
        </g>
      </g>
    </g>
  </g>
</svg>
