<svg xmlns="http://www.w3.org/2000/svg" width="48.974" height="50.965" viewBox="0 0 48.974 50.965"><defs><style>.a{fill:#fff;}.a,.b{stroke:#000111;}.a,.b,.d,.e,.f,.g{stroke-linecap:round;}.a,.b,.d,.g{stroke-linejoin:round;}.a,.b,.d,.f,.g,.h{stroke-width:1.5px;}.b,.f,.g,.h{fill:none;}.c{fill:#f9f9f9;}.d{fill:#fddb2b;stroke:#001;}.e,.i{fill:#111;}.e,.f,.g,.h{stroke:#111;}.e{stroke-width:0.5px;}.h{stroke-miterlimit:10;}</style></defs><g transform="translate(-291.645 -93)"><g transform="translate(273.3 13.217)"><g transform="translate(26.7 93.783)"><path class="a" d="M36.3,118.511l1.912-1.832,1.912,1.832,1.909-1.832,1.908,1.832,1.908-1.832,1.906,1.832,1.9-1.832,1.907,1.832,1.906-1.832V97.864a4.08,4.08,0,0,0-4.081-4.081H36.3Z" transform="translate(-36.297 -93.783)"/><line class="b" x1="9.846" transform="translate(3.664 13.585)"/><line class="b" x1="2.855" transform="translate(3.664 9.769)"/><line class="b" x1="4.243" transform="translate(9.266 9.769)"/><line class="b" x1="2.855" transform="translate(3.664 17.401)"/><line class="b" x1="4.243" transform="translate(9.266 17.401)"/><line class="b" x1="9.846" transform="translate(3.664 5.953)"/></g><g transform="translate(34.963 96.688)"><circle class="c" cx="8.909" cy="8.909" r="8.909"/><circle class="d" cx="6.869" cy="6.869" r="6.869" transform="translate(2.087 2.04)"/></g></g><path class="e" d="M1.113-5.278l.651,2.6q.119.469.21.987l.049.287h.014l.049-.308.063-.35q.035-.21.119-.616l.609-2.6H3.983l.679,2.6q.1.385.217,1.078a1.649,1.649,0,0,1,.028.2h.021q.112-.693.259-1.274l.658-2.6H6.888l-1.26,4.6a.65.65,0,0,1-.7.5.649.649,0,0,1-.707-.511L3.689-2.674q-.021-.091-.042-.189L3.6-3.073q-.049-.189-.091-.441l-.042-.2q-.014-.084-.021-.154H3.423q-.056.42-.189,1-.028.119-.042.182L2.667-.707a.645.645,0,0,1-.7.511.8.8,0,0,1-.444-.112.646.646,0,0,1-.249-.385L0-5.278Z" transform="translate(313.65 122)"/><line class="f" x2="7" transform="translate(313.7 119)"/><g transform="translate(242.174 14.652)"><line class="g" x1="2.828" y1="2.829" transform="translate(81.602 125.423)"/><line class="g" y1="2.829" x2="2.828" transform="translate(81.602 125.423)"/><circle class="h" cx="1.5" cy="1.5" r="1.5" transform="translate(50.221 102.739)"/><circle class="i" cx="1" cy="1" r="1" transform="translate(60.721 100.543)"/><line class="g" x1="2.829" y1="2.828" transform="translate(61.647 79.967)"/><line class="g" y1="2.828" x2="2.829" transform="translate(61.647 79.967)"/><line class="g" x1="2.21" y1="2.21" transform="translate(95.174 83.274)"/><line class="g" y1="2.21" x2="2.21" transform="translate(95.174 83.274)"/><circle class="i" cx="1" cy="1" r="1" transform="translate(70.294 84.723)"/><circle class="i" cx="1" cy="1" r="1" transform="translate(49.826 81.473)"/><circle class="i" cx="1" cy="1" r="1" transform="translate(86.293 78.348)"/></g></g></svg>