<svg xmlns="http://www.w3.org/2000/svg" width="20" height="20"><defs><clipPath id="a"><path fill="#d5d5d5" d="M0 0h20v20H0z"/></clipPath><clipPath id="b"><path fill="none" d="M0 0h20v20H0z"/></clipPath><style>.g,.h{fill:none}.d{clip-path:url(#b)}.e{opacity:0}.f{fill:#f0f}.g,.h{stroke:#111;stroke-width:1.5px;stroke-linecap:round;stroke-miterlimit:10}.h{stroke-linecap:square}.j{fill:#111}</style></defs><g class="d" clip-path="url(#a)"><g class="d"><g class="e"><g class="d"><path class="f" d="M0 0h20v20H0z"/></g></g></g><path class="g" d="M6.9 13.6l-.7-.7"/><path class="h" d="M7.6 14.3l-.7-.7"/><g class="d"><path d="M10.8 2L.9 11.9l5.7 5.7h0l.5.5s1.6 1.6 4.1-1l7.9-7.9-1.2-6.5-6.6-1.3-.5.5" stroke-linejoin="round" stroke-linecap="round" stroke="#111" stroke-width="1.5" fill="none"/><path class="j" d="M13.4 6.3a.8.8 0 11-.8.8.8.8 0 01.8-.8m0-1.5a2.3 2.3 0 102.3 2.3 2.3 2.3 0 00-2.3-2.3"/></g><g class="d"><g class="e"><g class="d"><path class="f" d="M0 0h20v20H0z"/></g></g></g><path class="g" d="M6.9 13.6l-.7-.7"/><path class="h" d="M7.6 14.3l-.7-.7"/><g class="d"><path class="j" d="M13.4 6.3a.8.8 0 11-.8.8.8.8 0 01.8-.8m0-1.5a2.3 2.3 0 102.3 2.3 2.3 2.3 0 00-2.3-2.3"/></g></g></svg>