<svg xmlns="http://www.w3.org/2000/svg" width="20" height="20"><defs><clipPath id="a"><path data-name="사각형 350944" fill="none" d="M0 0h20v20H0z"/></clipPath></defs><g data-name="그룹 473078" clip-path="url(#a)"><g data-name="그룹 473077" clip-path="url(#a)" fill="none" stroke="#111" stroke-width="1.5"><path data-name="패스 877789" d="M18.9 15.3v1.5a2.2 2.2 0 01-4.3 0v-1.5"/><path data-name="패스 877790" d="M8.1 15.3v1.5a2.2 2.2 0 01-4.3 0v-1.5"/><path data-name="패스 877791" d="M14.3 9.6h3a1.9 1.9 0 011.9 1.9v4.3h-8.8" stroke-linejoin="round"/><path data-name="패스 877792" d="M2.4 13.4a2.3 2.3 0 002.3 2.3h6.2" stroke-linecap="round" stroke-linejoin="round"/><path data-name="패스 877793" d="M10.9 15.7h3.9V7.6a1.5 1.5 0 00-1.5-1.5h-.8" stroke-linecap="square" stroke-linejoin="round"/><path data-name="패스 877794" d="M6.6 1.1A5.7 5.7 0 11.9 6.8a5.7 5.7 0 015.7-5.7z"/><path data-name="패스 877795" d="M4.5 4.4a3.2 3.2 0 011.3-.7" stroke-linecap="round"/><path data-name="패스 877796" d="M3.4 6.8a3.2 3.2 0 011.1-2.4"/></g></g></svg>