<svg xmlns="http://www.w3.org/2000/svg" width="40" height="40"><g transform="translate(-20.049 -94.049)"><rect data-name="사각형 352471" width="30" height="30" rx="15" transform="translate(23.048 98.049)" fill="#fff"/><rect data-name="사각형 304825" width="34" height="34" rx="17" transform="translate(24.048 98.048)" fill="#f0f0f0"/><g data-name="사각형 246055" transform="translate(22.048 97.048)" fill="none" stroke="#d7d7d7"><rect width="34" height="34" rx="17" stroke="none"/><rect x=".5" y=".5" width="33" height="33" rx="16.5"/></g><g data-name="그룹 422505"><path data-name="패스 694984" d="M40.287 106.85a8.345 8.345 0 11-8.235 8.345 8.345 8.345 0 018.235-8.235" fill="#fff"/><path data-name="패스 694986" d="M41.381 106.168a8.245 8.245 0 00-8.924 2.947 8.345 8.345 0 0011.3 11.986 8.47 8.47 0 003.631-7.7" fill="none" stroke="#111" stroke-linejoin="round" stroke-dasharray="1 1"/><g data-name="그룹 422507" fill="none" stroke="#111"><path data-name="패스 694988" d="M39.397 115.073a1.647 1.647 0 01-3.184 0" stroke-linecap="square" stroke-miterlimit="10"/><g data-name="그룹 422506"><path data-name="선 93127" stroke-linecap="round" d="M40.275 112.108v.329"/><path data-name="선 93128" d="M40.275 110.682v1.427"/><path data-name="선 93129" stroke-linecap="round" d="M35.333 111.999v.439"/><path data-name="선 93130" d="M35.333 110.682V112"/></g></g></g><path data-name="패스 837857" d="M46.549 105.072v2.2h1.4a.742.742 0 01.767.389.577.577 0 01.052.241.529.529 0 01-.215.446.874.874 0 01-.509.173h-1.495v1.691a.632.632 0 01-.7.714q-.682 0-.693-.714v-1.685h-2.033v-1.25h2.026v-2.2z" fill="#111"/></g></svg>