<svg xmlns="http://www.w3.org/2000/svg" width="40" height="50"><defs><clipPath id="a"><path data-name="사각형 257951" fill="none" d="M0 0h40v50H0z"/></clipPath></defs><g data-name="그룹 422183"><g data-name="그룹 343280" clip-path="url(#a)"><path data-name="패스 695049" d="M19.7 48.5A17.6 17.6 0 012.2 31V17.8a17.6 17.6 0 0135.1 0V31a17.6 17.6 0 01-17.6 17.5h-.1" fill="#fff"/><path data-name="패스 695050" d="M20.6 49.4A17.6 17.6 0 013.3 31.5V18.8A17.6 17.6 0 0121.7 2.1a17.6 17.6 0 0116.2 16.7v12.8a17.6 17.6 0 01-17.3 17.9" fill="#f0f0f0"/><path data-name="패스 695051" d="M19.5 48.7h0A17.2 17.2 0 012.2 31.6h0V18.8a17.25 17.25 0 1134.5 0h0v12.7a17.2 17.2 0 01-17.2 17.2z" fill="none" stroke="#d7d7d7" stroke-miterlimit="10"/></g><text transform="translate(19.9 36.5)" fill="#111" font-size="7.5" font-family="MoebiusKorea-Bold, Moebius Korea" font-weight="700" letter-spacing="-.03em"><tspan x="-9.9" y="0">준회원</tspan></text></g><g data-name="그룹 422505"><path data-name="패스 694984" d="M21.238 9.801a8.345 8.345 0 11-8.235 8.345 8.345 8.345 0 018.235-8.235" fill="#fff"/><path data-name="패스 694986" d="M22.332 9.119a8.245 8.245 0 00-8.924 2.947 8.345 8.345 0 0011.3 11.986 8.47 8.47 0 003.631-7.7" fill="none" stroke="#111" stroke-linejoin="round" stroke-dasharray="1 1"/><g data-name="그룹 422507" fill="none" stroke="#111"><path data-name="패스 694988" d="M20.348 18.024a1.647 1.647 0 01-3.184 0" stroke-linecap="square" stroke-miterlimit="10"/><g data-name="그룹 422506"><path data-name="선 93127" stroke-linecap="round" d="M21.226 15.059v.329"/><path data-name="선 93128" d="M21.226 13.633v1.427"/><path data-name="선 93129" stroke-linecap="round" d="M16.284 14.95v.439"/><path data-name="선 93130" d="M16.284 13.633v1.318"/></g></g></g><path data-name="패스 837857" d="M27.5 9.024v2.2h1.4a.742.742 0 01.767.389.577.577 0 01.052.241.529.529 0 01-.215.446.874.874 0 01-.509.173H27.5v1.691a.632.632 0 01-.7.714q-.682 0-.693-.714v-1.685h-2.033v-1.25H26.1v-2.2z" fill="#111"/></svg>