<svg xmlns="http://www.w3.org/2000/svg" xmlns:xlink="http://www.w3.org/1999/xlink" width="20" height="20" viewBox="0 0 20 20"><defs><style>.a{fill:#d5d5d5;}.b,.e,.f{fill:none;}.c{clip-path:url(#a);}.d{clip-path:url(#b);}.e,.f{stroke:#111;stroke-linejoin:round;stroke-width:1.5px;}.f{stroke-linecap:round;}.g{fill:#fff;}.h{fill:#111;}</style><clipPath id="a"><rect class="a" width="20" height="20"/></clipPath><clipPath id="b"><rect class="b" width="20" height="20"/></clipPath></defs><g class="c"><g transform="translate(10 10)"><g class="d" transform="translate(-10 -10)"><path class="e" d="M9.9,16.9h4.7v1.7h2.6A1.6,1.6,0,0,0,18.8,17V11.4a2.3,2.3,0,0,0-2.3-2.3H3.4a2.3,2.3,0,0,0-2.3,2.3V17a1.6,1.6,0,0,0,1.6,1.6H5.2V16.9Z"/><line class="e" x2="2.3" transform="translate(3.7 13)"/><line class="e" x2="2.3" transform="translate(13.8 13)"/><path class="f" d="M8.1,5.3H7.7A4.7,4.7,0,0,0,3.6,7.6L2.7,9.1"/><path class="g" d="M14.4,2.4,12.1,4.9l-.6,1.8,1.1,2.2,1.8,1,2.7-1L18.3,7l-.8-2.1L16.2,2.8Z"/><path class="h" d="M17.9,3.5,14.9.6l-3,2.9a4.2,4.2,0,1,0,6,0M16.7,8.3a2.546,2.546,0,1,1-3.6-3.6L14.9,3l1.8,1.8a2.5,2.5,0,0,1,0,3.6"/><path class="g" d="M16.7,8.3a2.546,2.546,0,1,1-3.6-3.6L14.9,3l1.8,1.8a2.5,2.5,0,0,1,0,3.6"/></g></g></g></svg>