<svg xmlns="http://www.w3.org/2000/svg" width="28" height="28"><defs><clipPath id="a"><path fill="none" d="M0 0h28v28H0z"/></clipPath><style>.b{clip-path:url(#a)}.c{opacity:0}.d{fill:#f0f}.e{fill:#56c6e4}.f{fill:#111}</style></defs><g class="b"><g class="b"><g class="c"><g class="b"><path class="d" d="M0 0h28v28H0z"/></g></g><path class="e" d="M15.8 26.2H12A2.2 2.2 0 019.8 24V9.2h5.9z"/><g class="c"><g class="b"><path class="d" d="M0 0h28v28H0z"/></g></g><path class="f" d="M5.6 27.2a5 5 0 01-5-5V5.8a5 5 0 1110 0v16.4a5 5 0 01-5 5m0-25a3.5 3.5 0 00-3.5 3.6v16.4a3.5 3.5 0 107 0V5.8a3.5 3.5 0 00-3.5-3.5"/><path class="f" d="M5.6 27.2a5 5 0 115-5 5 5 0 01-5 5m0-8.5a3.5 3.5 0 103.5 3.5 3.5 3.5 0 00-3.5-3.5"/><path class="f" d="M5.6 24.5a2.3 2.3 0 112.3-2.3 2.3 2.3 0 01-2.3 2.3m0-3.1a.8.8 0 10.8.8.8.8 0 00-.8-.8M9.8 6.5h15a.8.8 0 01.8.8V22c0 1.6-.6 4.2-2.8 4.2H11.9v-1.5h10.9c1.3 0 1.3-2.7 1.3-2.7V8H9.8"/><path class="e" d="M14.2 7.5v10.3"/><path stroke="#111" stroke-linecap="round" stroke-width="1.5" fill="none" d="M14.2 7.5v10.3"/></g></g></svg>