<svg xmlns="http://www.w3.org/2000/svg" width="42" height="42"><defs><clipPath id="a"><path data-name="사각형 338979" transform="translate(167 186)" fill="red" opacity=".338" d="M0 0h42v42H0z"/></clipPath></defs><g data-name="마스크 그룹 359641" transform="translate(-167 -186)" clip-path="url(#a)"><path data-name="사각형 224859" fill="#f9f9f9" opacity=".5" d="M20 171h335v115H20z"/><g data-name="그룹 279831"><g data-name="그룹 260107"><path data-name="패스 580158" d="M170.538 190.546v24.355a4.7 4.7 0 002.372 4.08l13.486 7.733a4.775 4.775 0 004.745 0l13.486-7.733a4.7 4.7 0 002.373-4.08v-24.355a1.071 1.071 0 00-1.075-1.068h-34.312a1.07 1.07 0 00-1.075 1.068z" fill="#fddb2b" style="isolation:isolate"/><path data-name="패스 580159" d="M169 188v26.616a4.765 4.765 0 002.375 4.124l13.5 7.818a4.737 4.737 0 004.749 0l13.5-7.818a4.766 4.766 0 002.375-4.124V188z" fill="none" stroke="#fccb3a" stroke-linejoin="round"/></g><g data-name="그룹 279821"><path data-name="패스 581213" d="M187.568 200.085a8.589 8.589 0 11-8.589 8.7 8.589 8.589 0 018.589-8.589" fill="#fff"/><path data-name="패스 581214" d="M179.543 205.058a8.363 8.363 0 011.582-2.26" fill="none" stroke="#111" stroke-linecap="square" stroke-linejoin="round"/><path data-name="패스 581215" d="M181.013 197.712s0 3.39 2.034 3.39h.113a8.589 8.589 0 11-3.729 3.955" fill="none" stroke="#111" stroke-linecap="round" stroke-linejoin="round"/><path data-name="패스 581216" d="M183.838 198.39s-.565 1.921.678 2.147" fill="none" stroke="#111" stroke-linecap="round" stroke-linejoin="round"/><path data-name="패스 581217" d="M187.568 209.691a1.7 1.7 0 01-3.277 0" fill="none" stroke="#111" stroke-linecap="square" stroke-miterlimit="10"/><path data-name="선 42863" fill="none" stroke="#111" stroke-linecap="round" d="M188.584 206.527v.339"/><path data-name="선 42864" fill="none" stroke="#111" d="M188.584 205.058v1.469"/><path data-name="선 42865" fill="none" stroke="#111" stroke-linecap="round" d="M183.499 206.414v.452"/><path data-name="선 42866" fill="none" stroke="#111" d="M183.499 205.058v1.356"/><path data-name="패스 581218" d="M192.992 199.068l-2.938-.678 1.7 2.712-1.7 2.712 3.051-1.13 2.26 2.6-.111-3.277 2.712-1.469-2.825-.791-.341-3.165z" fill="#fff"/><path data-name="패스 581219" d="M192.992 199.068l-2.938-.678 1.7 2.712-1.7 2.712 3.051-1.13 2.26 2.6-.111-3.277 2.712-1.469-2.825-.791-.341-3.165z" fill="none" stroke="#111" stroke-linejoin="round"/></g></g><g data-name="그룹 279832"><g data-name="그룹 260104"><path data-name="패스 580160" d="M61.125 200.294v15.137a4.6 4.6 0 002.333 3.993l13.268 7.568a4.71 4.71 0 004.666 0l13.269-7.568a4.6 4.6 0 002.333-3.993v-15.137a4.6 4.6 0 00-2.333-3.993l-13.269-7.568a4.714 4.714 0 00-4.666 0l-13.268 7.568a4.6 4.6 0 00-2.333 3.993z" fill="#a5a5ff" style="isolation:isolate"/><path data-name="패스 580161" d="M59.721 199.18v15.137a4.6 4.6 0 002.333 3.992l13.269 7.569a4.714 4.714 0 004.667 0l13.268-7.569a4.6 4.6 0 002.333-3.992V199.18a4.6 4.6 0 00-2.333-3.993l-13.268-7.569a4.717 4.717 0 00-4.667 0l-13.269 7.569a4.6 4.6 0 00-2.333 3.993z" fill="none" stroke="#6955ff" stroke-linejoin="round"/></g><g data-name="그룹 279820"><path data-name="패스 581203" d="M77.618 200.422a8.122 8.122 0 11-8.006 8.122 8.122 8.122 0 018.006-8.006" fill="#fff"/><path data-name="패스 581204" d="M70.076 205.064a7.89 7.89 0 011.508-2.089" fill="none" stroke="#111" stroke-linecap="square" stroke-linejoin="round"/><path data-name="패스 581205" d="M71.588 198.218s0 3.133 1.973 3.133h.116a8.122 8.122 0 11-3.489 3.713" fill="none" stroke="#111" stroke-linecap="round" stroke-linejoin="round"/><path data-name="패스 581206" d="M74.137 198.798s-.464 1.856.58 1.973" fill="none" stroke="#111" stroke-linecap="round" stroke-linejoin="round"/><path data-name="패스 581207" d="M77.735 209.357a1.624 1.624 0 01-3.133 0" fill="none" stroke="#111" stroke-linecap="square" stroke-miterlimit="10"/><path data-name="선 42859" fill="none" stroke="#111" stroke-linecap="round" d="M78.663 206.456v.348"/><path data-name="선 42860" fill="none" stroke="#111" d="M78.663 205.063v1.392"/><path data-name="선 42861" fill="none" stroke="#111" stroke-linecap="round" d="M73.789 206.34v.464"/><path data-name="선 42862" fill="none" stroke="#111" d="M73.789 205.063v1.276"/><path data-name="패스 581208" d="M88.062 200.306l-2.785 3.945-6.73-4.293 2.2-4.061 1.044 2.785 3.256-1.393.116 3.481z" fill="#fff"/><path data-name="패스 581209" d="M88.062 200.306l-2.785 3.945-6.73-4.293 2.2-4.061 1.044 2.785 3.256-1.393.116 3.481z" fill="none" stroke="#111" stroke-linejoin="round"/></g></g><g data-name="그룹 279810" fill="none" stroke="#f0f0f0"><path data-name="선 42856" d="M133 171v245"/><path data-name="선 42857" d="M243 171v245"/></g></g></svg>