<svg xmlns="http://www.w3.org/2000/svg" xmlns:xlink="http://www.w3.org/1999/xlink" width="20" height="20" viewBox="0 0 20 20"><defs><clipPath id="a"><rect width="20" height="20" transform="translate(29 15)" fill="#fff" stroke="#707070" stroke-width="1"/></clipPath></defs><g transform="translate(-29 -15)" clip-path="url(#a)"><g transform="translate(29 15)"><circle cx="10" cy="10" r="10" fill="rgba(229,24,38,0)"/><path d="M151.272,207.228c0,1.285.006,2.571,0,3.856a2.174,2.174,0,0,1-1.12,1.969q-3.277,1.933-6.566,3.843a2.152,2.152,0,0,1-2.308,0q-3.285-1.919-6.566-3.844A2.152,2.152,0,0,1,133.6,211.1q-.012-3.869,0-7.739a2.151,2.151,0,0,1,1.109-1.948q3.287-1.941,6.588-3.857a2.139,2.139,0,0,1,2.284,0q3.286,1.915,6.566,3.843a2.174,2.174,0,0,1,1.124,1.967C151.278,204.657,151.272,205.942,151.272,207.228Zm-12.641.627c0,.661.008,1.321,0,1.982a.636.636,0,0,0,.339.614c.436.259.864.532,1.3.8.086.053.169.155.285.081.1-.064.062-.178.062-.272q0-1.874,0-3.749c0-.3.092-.4.372-.4.83,0,1.66,0,2.49,0,.151,0,.2.041.194.193-.009.535-.006,1.071,0,1.607,0,.259.083.3.305.162q1.971-1.257,3.936-2.522c.464-.3.465-.7,0-.99-1.312-.807-2.631-1.6-3.949-2.4-.207-.125-.288-.076-.29.17,0,.518-.011,1.036,0,1.553.005.2-.04.253-.246.252-1.276-.011-2.553-.007-3.829,0a.908.908,0,0,0-.964.972C138.629,206.552,138.631,207.2,138.631,207.855Z" transform="translate(-132.593 -197.229)" fill="#0061ac"/></g></g></svg>