<svg xmlns="http://www.w3.org/2000/svg" width="24" height="24" viewBox="0 0 24 24">
  <g id="icon_barcode_24" transform="translate(-178 -1297)">
    <g id="패스_1408125" data-name="패스 1408125" transform="translate(178 1297)" fill="#fff">
      <path d="M12,0A12,12,0,1,1,0,12,12,12,0,0,1,12,0Z" stroke="none"/>
      <path d="M 12 1 C 9.061790466308594 1 6.299449920654297 2.144199371337891 4.221820831298828 4.221820831298828 C 2.144199371337891 6.299449920654297 1 9.061790466308594 1 12 C 1 14.93820953369141 2.144199371337891 17.7005500793457 4.221820831298828 19.77817916870117 C 6.299449920654297 21.85580062866211 9.061790466308594 23 12 23 C 14.93820953369141 23 17.7005500793457 21.85580062866211 19.77817916870117 19.77817916870117 C 21.85580062866211 17.7005500793457 23 14.93820953369141 23 12 C 23 9.061790466308594 21.85580062866211 6.299449920654297 19.77817916870117 4.221820831298828 C 17.7005500793457 2.144199371337891 14.93820953369141 1 12 1 M 12 0 C 18.62742042541504 0 24 5.372579574584961 24 12 C 24 18.62742042541504 18.62742042541504 24 12 24 C 5.372579574584961 24 0 18.62742042541504 0 12 C 0 5.372579574584961 5.372579574584961 0 12 0 Z" stroke="none" fill="rgba(17,17,17,0.05)"/>
    </g>
    <path id="합치기_226" data-name="합치기 226" d="M12.071,4.025H0V2.518H1.508V0H3.016V2.518H4.525V0H6.035V2.518H7.544V0H9.052V2.518H10.56V0h1.511V2.518h1.005V4.025Z" transform="translate(183.463 1303.969)" fill="#6f5ff8" stroke="#6f5ff8" stroke-width="0.2"/>
    <g id="그룹_547767" data-name="그룹 547767" transform="translate(184.971 1309.503)">
      <path id="패스_1405999" data-name="패스 1405999" d="M0,0H1.509V4.527H0Z" transform="translate(0 0)" fill="#6f5ff8" stroke="#6f5ff8" stroke-width="0.2"/>
      <path id="패스_1406001" data-name="패스 1406001" d="M0,0H1.509V3.018H0Z" transform="translate(3.018 0)" fill="#6f5ff8" stroke="#6f5ff8" stroke-width="0.2"/>
      <path id="패스_1406000" data-name="패스 1406000" d="M0,0H1.509V3.018H0Z" transform="translate(6.035 0)" fill="#6f5ff8" stroke="#6f5ff8" stroke-width="0.2"/>
      <path id="패스_1405998" data-name="패스 1405998" d="M0,0H1.509V4.527H0Z" transform="translate(9.053 0)" fill="#6f5ff8" stroke="#6f5ff8" stroke-width="0.2"/>
    </g>
  </g>
</svg>
