<svg xmlns="http://www.w3.org/2000/svg" xmlns:xlink="http://www.w3.org/1999/xlink" width="70" height="70" viewBox="0 0 70 70">
  <defs>
    <clipPath id="clip-path">
      <rect id="사각형_379364" data-name="사각형 379364" width="70" height="70" transform="translate(155 385)" fill="#fff" stroke="#707070" stroke-width="1"/>
    </clipPath>
    <clipPath id="clip-path-2">
      <rect id="사각형_368029" data-name="사각형 368029" width="70" height="57.725" fill="none"/>
    </clipPath>
    <clipPath id="clip-path-4">
      <rect id="사각형_368021" data-name="사각형 368021" width="50.547" height="28.933" fill="none"/>
    </clipPath>
    <clipPath id="clip-path-5">
      <rect id="사각형_368022" data-name="사각형 368022" width="13.19" height="7.195" fill="none"/>
    </clipPath>
    <clipPath id="clip-path-6">
      <rect id="사각형_368023" data-name="사각형 368023" width="19.073" height="8.723" fill="none"/>
    </clipPath>
    <clipPath id="clip-path-7">
      <rect id="사각형_368024" data-name="사각형 368024" width="7.959" height="8.749" fill="none"/>
    </clipPath>
    <clipPath id="clip-path-8">
      <rect id="사각형_368025" data-name="사각형 368025" width="24.421" height="14.319" fill="none"/>
    </clipPath>
    <clipPath id="clip-path-9">
      <rect id="사각형_368026" data-name="사각형 368026" width="4.958" height="21.423" fill="none"/>
    </clipPath>
    <clipPath id="clip-path-10">
      <rect id="사각형_368027" data-name="사각형 368027" width="8.65" height="5.038" fill="none"/>
    </clipPath>
  </defs>
  <g id="마스크_그룹_422699" data-name="마스크 그룹 422699" transform="translate(-155 -385)" clip-path="url(#clip-path)">
    <g id="오일교체서비스란_111x92" data-name="오일교체서비스란? 111x92" transform="translate(190 420.863)">
      <g id="오일교체서비스란_111x92-2" data-name="오일교체서비스란? 111x92" transform="translate(-35 -28.863)" clip-path="url(#clip-path-2)">
        <g id="그룹_497721" data-name="그룹 497721" clip-path="url(#clip-path-2)">
          <path id="패스_1324239" data-name="패스 1324239" d="M68.013,137.25l-7.179,6.341-2.825,2.494h0l-.886.516.886.507h0L38.546,158.5,7.9,140.8l.886-.516-.886-.516,19.443-11.358h.01l9.985-8.835,5.66-.292a2.26,2.26,0,0,1,1.237.3l29.35,16.911a.244.244,0,0,1-.107.458Z" transform="translate(-7.13 -107.656)" fill="#fff"/>
          <path id="패스_1324240" data-name="패스 1324240" d="M68.013,137.25l-7.179,6.341-2.825,2.494h0l-.886.516.886.507h0L38.546,158.5,7.9,140.8l.886-.516-.886-.516,19.443-11.358h.01l9.985-8.835,5.66-.292a2.26,2.26,0,0,1,1.237.3l29.35,16.911a.244.244,0,0,1-.107.458Z" transform="translate(-7.13 -107.656)" fill="none" stroke="#222" stroke-linejoin="round" stroke-width="0.779"/>
          <g id="그룹_497708" data-name="그룹 497708" transform="translate(0.536 22.901)" opacity="0.15">
            <g id="그룹_497707" data-name="그룹 497707" clip-path="url(#clip-path-4)">
              <path id="패스_1324241" data-name="패스 1324241" d="M56.012,252.841,37.056,263.907a1.539,1.539,0,0,1-1.539,0L5.582,246.636a.234.234,0,0,1,0-.409L24.938,235.2h.019Z" transform="translate(-5.466 -235.19)" fill="#222"/>
            </g>
          </g>
          <path id="패스_1324242" data-name="패스 1324242" d="M58.009,241.2,38.546,252.568,7.9,234.868,27.343,223.51h0l.019-.01,30.646,17.7Z" transform="translate(-7.13 -201.728)" fill="#f4f4f4"/>
          <path id="패스_1324243" data-name="패스 1324243" d="M58.009,241.2,38.546,252.568,7.9,234.868,27.343,223.51h0l.019-.01,30.646,17.7Z" transform="translate(-7.13 -201.728)" fill="none" stroke="#222" stroke-linejoin="round" stroke-width="0.39"/>
          <g id="그룹_497710" data-name="그룹 497710" transform="translate(53.615 29.233)" opacity="0.15">
            <g id="그룹_497709" data-name="그룹 497709" clip-path="url(#clip-path-5)">
              <path id="패스_1324244" data-name="패스 1324244" d="M564.295,300.906l-12.245,6.848-.75-.438,7.179-6.341h0l5.747-.3a.127.127,0,0,1,.068.244" transform="translate(-551.212 -300.613)"/>
              <path id="패스_1324245" data-name="패스 1324245" d="M564.295,300.934l-12.245,6.848-.75-.438L558.479,301h0l5.747-.3a.127.127,0,0,1,.068.234Z" transform="translate(-551.212 -300.642)" fill="none" stroke="#222" stroke-miterlimit="10" stroke-width="0.097"/>
            </g>
          </g>
          <path id="패스_1324246" data-name="패스 1324246" d="M525.875,369.338,522.3,371.4h0l2.825-2.5.75.438Z" transform="translate(-471.422 -332.965)" fill="#fff"/>
          <path id="패스_1324247" data-name="패스 1324247" d="M525.875,369.338,522.3,371.4h0l2.825-2.5.75.438Z" transform="translate(-471.422 -332.965)" fill="none" stroke="#222" stroke-miterlimit="10" stroke-width="0.097"/>
          <path id="패스_1324248" data-name="패스 1324248" d="M58.009,230.6,38.546,241.968,7.9,224.268,27.343,212.91h0l.019-.01,30.646,17.7Z" transform="translate(-7.13 -192.161)" fill="#fff"/>
          <path id="패스_1324249" data-name="패스 1324249" d="M58.009,230.6,38.546,241.968,7.9,224.268,27.343,212.91h0l.019-.01,30.646,17.7Z" transform="translate(-7.13 -192.161)" fill="none" stroke="#222" stroke-linejoin="round" stroke-width="0.39"/>
          <path id="패스_1324250" data-name="패스 1324250" d="M207.6,131.035l9.994-8.835,30.655,17.68.01.01-7.179,6.342-2.825,2.494" transform="translate(-187.377 -110.296)" fill="#fff"/>
          <path id="패스_1324251" data-name="패스 1324251" d="M207.6,131.035l9.994-8.835,30.655,17.68.01.01-7.179,6.342-2.825,2.494" transform="translate(-187.377 -110.296)" fill="none" stroke="#222" stroke-linejoin="round" stroke-width="0.39"/>
          <path id="패스_1324252" data-name="패스 1324252" d="M238.255,230.59,207.61,212.9h-.01" transform="translate(-187.377 -192.161)" fill="#f4f4f4"/>
          <path id="패스_1324253" data-name="패스 1324253" d="M238.255,230.59,207.61,212.9h-.01" transform="translate(-187.377 -192.161)" fill="none" stroke="#222" stroke-linejoin="round" stroke-width="0.195"/>
          <line id="선_140335" data-name="선 140335" x1="0.01" y2="0.01" transform="translate(20.213 20.739)" fill="none" stroke="#222" stroke-linejoin="round" stroke-width="0.39"/>
          <line id="선_140336" data-name="선 140336" transform="translate(20.223 20.739)" fill="none" stroke="#222" stroke-linejoin="round" stroke-width="4"/>
          <line id="선_140337" data-name="선 140337" x1="3.37" y2="1.948" transform="translate(51.083 36.374)" fill="none" stroke="#222" stroke-miterlimit="10" stroke-width="0.097"/>
          <path id="패스_1324254" data-name="패스 1324254" d="M310.1,119.559l5.669-.282a2.25,2.25,0,0,1,1.237.3l29.34,16.911a.244.244,0,0,1-.107.458l-5.475.292" transform="translate(-279.893 -107.655)" fill="#f2f2f2"/>
          <path id="패스_1324255" data-name="패스 1324255" d="M310.1,119.559l5.669-.282a2.25,2.25,0,0,1,1.237.3l29.34,16.911a.244.244,0,0,1-.107.458l-5.475.292" transform="translate(-279.893 -107.655)" fill="none" stroke="#222" stroke-linejoin="round" stroke-width="0.39"/>
          <line id="선_140338" data-name="선 140338" x1="30.665" y1="17.68" transform="translate(30.207 11.904)" fill="#f4f4f4"/>
          <line id="선_140339" data-name="선 140339" x1="30.665" y1="17.68" transform="translate(30.207 11.904)" fill="none" stroke="#222" stroke-linejoin="round" stroke-width="0.195"/>
          <path id="패스_1324256" data-name="패스 1324256" d="M122.084,352.492l-.438.253a.955.955,0,0,1-.955,0l-11.1-6.458a.273.273,0,0,1,0-.477l.779-.448a.273.273,0,0,1,.273,0l11.436,6.653a.273.273,0,0,1,0,.477" transform="translate(-98.793 -311.686)" fill="#e2e2e2"/>
          <path id="패스_1324257" data-name="패스 1324257" d="M280.618,174.374l9.683-8.562-1.208-.711-9.692,8.572Z" transform="translate(-252.183 -149.017)" fill="#e2e2e2"/>
          <path id="패스_1324258" data-name="패스 1324258" d="M389.836,159.479l-5.621.292-1.315-.76,5.6-.312Z" transform="translate(-345.601 -143.241)" fill="#e2e2e2"/>
          <path id="패스_1324259" data-name="패스 1324259" d="M309.119,156.457c2.124-8.806-8.465-14.125-8.465-14.125l-.214-.117a.263.263,0,0,0-.312.049l-.4.4a.39.39,0,0,0,.078.614c2.065,1.218,10.579,6.751,7.608,13.677" transform="translate(-270.427 -128.334)" fill="#e2e2e2"/>
          <path id="패스_1324260" data-name="패스 1324260" d="M114.876,264.868l-1.276-.74L129.468,255l1.276.731Z" transform="translate(-102.534 -230.16)" fill="#e2e2e2"/>
          <path id="패스_1324261" data-name="패스 1324261" d="M608.2,296.6l1.062,1.442.653-.75Z" transform="translate(-548.954 -267.708)" fill="#222"/>
          <path id="패스_1324262" data-name="패스 1324262" d="M169.025,248.788l-.906-.078.117-.964.848.078Zm-1.607-.185a9.208,9.208,0,0,1-.906-.214l.273-.935a7.674,7.674,0,0,0,.809.185Zm-1.6-.448a4.792,4.792,0,0,1-.857-.458l.546-.809a3.817,3.817,0,0,0,.682.36Zm-1.461-.974a2.825,2.825,0,0,1-.555-.886l.906-.351a1.851,1.851,0,0,0,.37.584Zm-.74-1.685c-.01-.107-.01-.2-.01-.312a4.033,4.033,0,0,1,.058-.692l.964.166a3.063,3.063,0,0,0-.049.516,1.723,1.723,0,0,0,.01.224Zm1.159-1.432-.925-.3a7.541,7.541,0,0,1,.351-.867l.886.409a6.565,6.565,0,0,0-.3.76m.594-1.335-.847-.477c.107-.195.224-.39.351-.594l.107-.175.828.507-.117.185c-.117.185-.224.37-.321.546m.8-1.344-.857-.468c.136-.253.263-.507.38-.75l.886.409c-.127.263-.263.536-.409.809m.692-1.461-.906-.36c.107-.263.195-.526.273-.789l.935.273c-.088.283-.185.575-.3.867m.477-1.568-.955-.195a6.891,6.891,0,0,0,.117-.809l.974.088a7.86,7.86,0,0,1-.136.925m-.818-1.617a5.524,5.524,0,0,0-.068-.8l.964-.156a6.507,6.507,0,0,1,.088.945Zm-.214-1.4a5.3,5.3,0,0,0-.282-.75l.886-.409a6.3,6.3,0,0,1,.331.886Zm-.575-1.305a6.171,6.171,0,0,0-.468-.662l.76-.614a7.139,7.139,0,0,1,.546.77Zm-.9-1.149a7.833,7.833,0,0,0-.6-.555l.623-.75a8.771,8.771,0,0,1,.682.633Zm-1.12-.955c-.224-.156-.458-.312-.7-.458l.5-.838c.263.156.526.321.77.5Zm-1.276-.77a7.268,7.268,0,0,0-.75-.331l.321-.916a8.083,8.083,0,0,1,.867.38Z" transform="translate(-145.949 -207.505)" fill="#3673ee"/>
          <g id="그룹_497712" data-name="그룹 497712" transform="translate(24.957 39.666)" opacity="0.2">
            <g id="그룹_497711" data-name="그룹 497711" clip-path="url(#clip-path-6)">
              <path id="패스_1324263" data-name="패스 1324263" d="M256.2,409.45a1.482,1.482,0,0,0,.672,1.257c.711.438,8.933,5.114,8.933,5.114a2.015,2.015,0,0,0,2.026-.438l7.442-4.52L264.73,407.2Z" transform="translate(-256.196 -407.2)"/>
            </g>
          </g>
          <path id="패스_1324264" data-name="패스 1324264" d="M271.217,377.74l-7.744-4.481a5.188,5.188,0,0,1-2.172-4.14c0-1.6.974-2.328,2.172-1.637l7.744,4.481a5.188,5.188,0,0,1,2.172,4.14c0,1.6-.974,2.328-2.172,1.637" transform="translate(-235.846 -331.45)" fill="#e3e3e3"/>
          <path id="패스_1324265" data-name="패스 1324265" d="M271.217,377.74l-7.744-4.481a5.188,5.188,0,0,1-2.172-4.14c0-1.6.974-2.328,2.172-1.637l7.744,4.481a5.188,5.188,0,0,1,2.172,4.14C273.389,377.7,272.4,378.432,271.217,377.74Z" transform="translate(-235.846 -331.45)" fill="none" stroke="#222" stroke-linecap="round" stroke-linejoin="round" stroke-width="0.292"/>
          <path id="패스_1324266" data-name="패스 1324266" d="M340.9,337.547h0l-.156.088-.107-.185a2.728,2.728,0,0,0,.195-1.081v-.01a5.2,5.2,0,0,0-2.192-4.15l-7.8-4.51a1.376,1.376,0,0,0-1.442-.107h0l.916-.526h0a1.092,1.092,0,0,1,.584-.166,1.735,1.735,0,0,1,.857.263l7.744,4.481a5.188,5.188,0,0,1,2.172,4.14,1.891,1.891,0,0,1-.779,1.773" transform="translate(-297.313 -295.056)" fill="#686868"/>
          <path id="패스_1324267" data-name="패스 1324267" d="M340.9,337.547h0l-.156.088-.107-.185a2.728,2.728,0,0,0,.195-1.081v-.01a5.2,5.2,0,0,0-2.192-4.15l-7.8-4.51a1.376,1.376,0,0,0-1.442-.107h0l.916-.526h0a1.092,1.092,0,0,1,.584-.166,1.735,1.735,0,0,1,.857.263l7.744,4.481a5.188,5.188,0,0,1,2.172,4.14A1.881,1.881,0,0,1,340.9,337.547Z" transform="translate(-297.313 -295.056)" fill="none" stroke="#222" stroke-miterlimit="10" stroke-width="0.292"/>
          <path id="패스_1324268" data-name="패스 1324268" d="M277.213,341.238a2.738,2.738,0,0,1-.195,1.081l.107.185-7.588,4.374L258.9,336.407l6.877-3.965h0a1.376,1.376,0,0,1,1.442.107l7.8,4.51a5.223,5.223,0,0,1,2.192,4.15Z" transform="translate(-233.68 -299.916)" fill="#fff"/>
          <path id="패스_1324269" data-name="패스 1324269" d="M277.213,341.238a2.738,2.738,0,0,1-.195,1.081l.107.185-7.588,4.374L258.9,336.407l6.877-3.965h0a1.376,1.376,0,0,1,1.442.107l7.8,4.51a5.223,5.223,0,0,1,2.192,4.15Z" transform="translate(-233.68 -299.916)" fill="none" stroke="#222" stroke-linecap="round" stroke-linejoin="round" stroke-width="0.292"/>
          <line id="선_140340" data-name="선 140340" x1="0.019" y2="0.01" transform="translate(33.003 31.99)" fill="none" stroke="#222" stroke-linecap="round" stroke-linejoin="round" stroke-width="0.292"/>
          <line id="선_140341" data-name="선 140341" x1="0.068" y2="0.029" transform="translate(43.592 42.462)" fill="none" stroke="#222" stroke-linecap="round" stroke-linejoin="round" stroke-width="0.292"/>
          <path id="패스_1324270" data-name="패스 1324270" d="M261.417,383.64l-7.744-4.481a5.188,5.188,0,0,1-2.172-4.14c0-1.6.974-2.328,2.172-1.637l7.744,4.481a5.188,5.188,0,0,1,2.172,4.14c0,1.6-.974,2.328-2.172,1.637" transform="translate(-227.001 -336.776)" fill="#474747"/>
          <path id="패스_1324271" data-name="패스 1324271" d="M261.417,383.64l-7.744-4.481a5.188,5.188,0,0,1-2.172-4.14c0-1.6.974-2.328,2.172-1.637l7.744,4.481a5.188,5.188,0,0,1,2.172,4.14C263.589,383.6,262.615,384.332,261.417,383.64Z" transform="translate(-227.001 -336.776)" fill="none" stroke="#222" stroke-miterlimit="10" stroke-width="0.292"/>
          <path id="패스_1324272" data-name="패스 1324272" d="M256.414,386.254l-7.822-4.52a5.253,5.253,0,0,1-2.192-4.179c0-1.607.984-2.348,2.192-1.656l7.822,4.52a5.253,5.253,0,0,1,2.192,4.179c0,1.607-.984,2.348-2.192,1.656" transform="translate(-222.398 -339.048)" fill="#616161"/>
          <path id="패스_1324273" data-name="패스 1324273" d="M256.414,386.254l-7.822-4.52a5.253,5.253,0,0,1-2.192-4.179c0-1.607.984-2.348,2.192-1.656l7.822,4.52a5.253,5.253,0,0,1,2.192,4.179C258.606,386.205,257.622,386.945,256.414,386.254Z" transform="translate(-222.398 -339.048)" fill="none" stroke="#222" stroke-miterlimit="10" stroke-width="0.292"/>
          <path id="패스_1324274" data-name="패스 1324274" d="M328.868,334l-.068.049" transform="translate(-296.771 -301.465)" fill="none" stroke="#222" stroke-linecap="round" stroke-linejoin="round" stroke-width="0.292"/>
          <path id="패스_1324275" data-name="패스 1324275" d="M271.3,400.967l-5.689-3.293a3.836,3.836,0,0,1-1.607-3.02c-.01-1.159.7-1.7,1.578-1.179l5.689,3.283a3.836,3.836,0,0,1,1.607,3.02c.01,1.159-.7,1.695-1.578,1.179" transform="translate(-238.282 -354.969)" fill="#3a3a3a"/>
          <path id="패스_1324276" data-name="패스 1324276" d="M271.3,400.967l-5.689-3.293a3.836,3.836,0,0,1-1.607-3.02c-.01-1.159.7-1.7,1.578-1.179l5.689,3.283a3.836,3.836,0,0,1,1.607,3.02C272.883,400.938,272.172,401.473,271.3,400.967Z" transform="translate(-238.282 -354.969)" fill="none" stroke="#222" stroke-miterlimit="10" stroke-width="0.292"/>
          <path id="패스_1324277" data-name="패스 1324277" d="M272.022,407.475h0l-.662.5-1.159-1.89.546-.409.1-.068h.029a.576.576,0,0,1,.516.078,1.753,1.753,0,0,1,.789,1.354.614.614,0,0,1-.156.448" transform="translate(-243.879 -366.065)" fill="#acacad"/>
          <path id="패스_1324278" data-name="패스 1324278" d="M272.022,407.475h0l-.662.5-1.159-1.89.546-.409.1-.068h.029a.576.576,0,0,1,.516.078,1.753,1.753,0,0,1,.789,1.354A.614.614,0,0,1,272.022,407.475Z" transform="translate(-243.879 -366.065)" fill="none" stroke="#222" stroke-linecap="round" stroke-linejoin="round" stroke-width="0.292"/>
          <path id="패스_1324279" data-name="패스 1324279" d="M276,405.9l-.1.068.1-.068" transform="translate(-249.024 -366.361)" fill="#e3e3e3"/>
          <path id="패스_1324280" data-name="패스 1324280" d="M276,405.9l-.1.068Z" transform="translate(-249.024 -366.361)" fill="none" stroke="#222" stroke-linecap="round" stroke-linejoin="round" stroke-width="0.292"/>
          <path id="패스_1324281" data-name="패스 1324281" d="M269.978,411.445c0,.5-.351.7-.789.448a1.727,1.727,0,0,1-.789-1.354c0-.5.351-.7.789-.448a1.727,1.727,0,0,1,.789,1.354" transform="translate(-242.255 -370.045)" fill="#fff"/>
          <path id="패스_1324282" data-name="패스 1324282" d="M269.978,411.445c0,.5-.351.7-.789.448a1.727,1.727,0,0,1-.789-1.354c0-.5.351-.7.789-.448A1.727,1.727,0,0,1,269.978,411.445Z" transform="translate(-242.255 -370.045)" fill="none" stroke="#222" stroke-linecap="round" stroke-linejoin="round" stroke-width="0.292"/>
          <path id="패스_1324283" data-name="패스 1324283" d="M276.829,405.619H276.8l.02-.02Z" transform="translate(-249.836 -366.09)" fill="#e3e3e3"/>
          <path id="패스_1324284" data-name="패스 1324284" d="M276.829,405.619H276.8l.02-.02Z" transform="translate(-249.836 -366.09)" fill="none" stroke="#222" stroke-linecap="round" stroke-linejoin="round" stroke-width="0.292"/>
          <path id="패스_1324285" data-name="패스 1324285" d="M328.222,440.175h0l-.662.5-1.159-1.89.546-.409.1-.068h.029a.576.576,0,0,1,.516.078,1.753,1.753,0,0,1,.789,1.354.614.614,0,0,1-.156.448" transform="translate(-294.605 -395.58)" fill="#acacad"/>
          <path id="패스_1324286" data-name="패스 1324286" d="M328.222,440.175h0l-.662.5-1.159-1.89.546-.409.1-.068h.029a.576.576,0,0,1,.516.078,1.753,1.753,0,0,1,.789,1.354A.614.614,0,0,1,328.222,440.175Z" transform="translate(-294.605 -395.58)" fill="none" stroke="#222" stroke-linecap="round" stroke-linejoin="round" stroke-width="0.292"/>
          <path id="패스_1324287" data-name="패스 1324287" d="M326.178,444.345c0,.5-.351.7-.789.448a1.727,1.727,0,0,1-.789-1.354c0-.5.351-.7.789-.448a1.727,1.727,0,0,1,.789,1.354" transform="translate(-292.98 -399.74)" fill="#fff"/>
          <path id="패스_1324288" data-name="패스 1324288" d="M326.178,444.345c0,.5-.351.7-.789.448a1.727,1.727,0,0,1-.789-1.354c0-.5.351-.7.789-.448A1.727,1.727,0,0,1,326.178,444.345Z" transform="translate(-292.98 -399.74)" fill="none" stroke="#222" stroke-linecap="round" stroke-linejoin="round" stroke-width="0.292"/>
          <g id="그룹_497714" data-name="그룹 497714" transform="translate(35.692 37.991)" opacity="0.15">
            <g id="그룹_497713" data-name="그룹 497713" clip-path="url(#clip-path-7)">
              <path id="패스_1324289" data-name="패스 1324289" d="M366.31,394.374,373.957,390l.3,4.286-7.588,4.461c.487-.828.731-1.753-.37-4.374" transform="translate(-366.31 -390)" fill="#222"/>
            </g>
          </g>
          <path id="패스_1324290" data-name="패스 1324290" d="M362.713,394.034a.7.7,0,0,0,.731.049q.136-.078.136-.175v-.3L360.2,392.3v.282Z" transform="translate(-325.112 -354.085)" fill="#222"/>
          <path id="패스_1324291" data-name="패스 1324291" d="M362.713,390.322a.7.7,0,0,0,.731.049q.321-.185-.1-.419l-2.5-1.451-.643.37Z" transform="translate(-325.112 -350.656)" fill="#f8483b"/>
          <path id="패스_1324292" data-name="패스 1324292" d="M313.5,363.279l1.968.536.77-.438a.857.857,0,0,1,.633-.117c.058.01.234-.127.283-.1,0,.37.02.292,0,.37a.37.37,0,0,1-.185.214l-.049.029-.77.438,1.111.458v.3c0,.078-.058.146-.185.224a.731.731,0,0,1-.77-.01l-.058-.029-.867-.5-1.111.643-.682-.39v-.283l1.11-.36-1.2-.692Z" transform="translate(-282.961 -327.782)" fill="#222"/>
          <path id="패스_1324293" data-name="패스 1324293" d="M314.27,359.8l1.2.692.77-.438a.857.857,0,0,1,.633-.117l.156.058q.156.088.127.2a.37.37,0,0,1-.185.214l-.049.029-.77.438.925.536q.38.224,0,.448a.731.731,0,0,1-.77-.01l-.058-.029-.867-.5-1.111.643-.682-.39,1.11-.643-1.2-.692Z" transform="translate(-282.961 -324.751)" fill="#3673ee"/>
          <path id="패스_1324294" data-name="패스 1324294" d="M252.294,323.1a1.733,1.733,0,0,1,.857.263l7.744,4.481a5.188,5.188,0,0,1,2.172,4.14,1.891,1.891,0,0,1-.779,1.773h0l-.156.088-7.579,4.374h0l-.058.029h0a1.13,1.13,0,0,1-.925.477,1.764,1.764,0,0,1-.867-.263l-7.822-4.52a5.253,5.253,0,0,1-2.192-4.179,1.867,1.867,0,0,1,1.072-1.89.9.9,0,0,1,.127-.107h.019l6.877-3.965.916-.526h.01a1.061,1.061,0,0,1,.575-.156m0-.39a1.441,1.441,0,0,0-.789.214h0l-.906.526-6.858,3.965h-.039a.806.806,0,0,0-.156.117,2.24,2.24,0,0,0-1.237,2.211,5.573,5.573,0,0,0,2.387,4.52l7.822,4.52a2.133,2.133,0,0,0,1.062.312,1.52,1.52,0,0,0,1.188-.565h0l7.579-4.364.156-.088.331-.195-.029-.049a2.519,2.519,0,0,0,.662-1.88,5.563,5.563,0,0,0-2.367-4.481l-7.744-4.481a2.114,2.114,0,0,0-1.052-.312" transform="translate(-218.697 -291.265)" fill="#222"/>
          <path id="패스_1324295" data-name="패스 1324295" d="M359.5,431.744l.438-.244a5.145,5.145,0,0,1,.906,4.384l-.292-.039a5.212,5.212,0,0,0-1.052-4.091" transform="translate(-324.481 -389.467)" fill="#222"/>
          <g id="그룹_497716" data-name="그룹 497716" transform="translate(38.965 36.627)" opacity="0.2">
            <g id="그룹_497715" data-name="그룹 497715" clip-path="url(#clip-path-8)">
              <path id="패스_1324296" data-name="패스 1324296" d="M409.786,389.425l13.608-7.754a1.968,1.968,0,0,0-.01-3.429l-2.747-1.549a6.166,6.166,0,0,0-6.069.019l-13.608,7.754a1.968,1.968,0,0,0,.01,3.429l2.747,1.549a6.166,6.166,0,0,0,6.069-.019" transform="translate(-399.967 -375.914)"/>
            </g>
          </g>
          <path id="패스_1324297" data-name="패스 1324297" d="M433.549,235.648v.906l.273-.156v1.675l-.273.166v.906l.273-.156v4.218h0a2.309,2.309,0,0,1-1.374,1.9l-12.683,7.325a7.346,7.346,0,0,1-6.624,0l-.068-.039a2.244,2.244,0,0,1-1.364-2.036h-.01v-2.211h0a2.344,2.344,0,0,0,1.374,1.88l.068.039a7.346,7.346,0,0,0,6.624,0l9.858-5.66v-9.77l-9.858,5.669a7.346,7.346,0,0,1-6.624,0l-.068-.039a2.364,2.364,0,0,1-1.374-1.88h0v-7.228l17.758-5.757,3.341,4.8a5.787,5.787,0,0,1,1.033,3.283v2.007Z" transform="translate(-371.596 -203.443)" fill="#e2e2e2"/>
          <path id="패스_1324298" data-name="패스 1324298" d="M428.089,320.2v9.77l-9.858,5.66a7.346,7.346,0,0,1-6.624,0l-.068-.039a2.646,2.646,0,0,1-1.539-1.9V323.9a2.625,2.625,0,0,0,1.539,1.919l.068.039a7.345,7.345,0,0,0,6.624,0Z" transform="translate(-370.061 -289.009)" fill="#3673ee"/>
          <path id="패스_1324299" data-name="패스 1324299" d="M428.089,320.2v9.77l-9.858,5.66a7.346,7.346,0,0,1-6.624,0l-.068-.039a2.646,2.646,0,0,1-1.539-1.9V323.9a2.625,2.625,0,0,0,1.539,1.919l.068.039a7.345,7.345,0,0,0,6.624,0Z" transform="translate(-370.061 -289.009)" fill="none" stroke="#222" stroke-linejoin="round" stroke-width="0.292"/>
          <path id="패스_1324300" data-name="패스 1324300" d="M428.426,212.256l-8.66,4.987a7.346,7.346,0,0,1-6.624,0l-.068-.039c-1.831-1.052-1.831-2.766,0-3.828l8.66-4.987a7.346,7.346,0,0,1,6.624,0l.068.039c1.831,1.052,1.831,2.766,0,3.828" transform="translate(-371.596 -187.377)" fill="#fff"/>
          <path id="패스_1324301" data-name="패스 1324301" d="M428.426,212.256l-8.66,4.987a7.346,7.346,0,0,1-6.624,0l-.068-.039c-1.831-1.052-1.831-2.766,0-3.828l8.66-4.987a7.346,7.346,0,0,1,6.624,0l.068.039C430.257,209.49,430.257,211.195,428.426,212.256Z" transform="translate(-371.596 -187.377)" fill="none" stroke="#222" stroke-linejoin="round" stroke-width="0.292"/>
          <path id="패스_1324302" data-name="패스 1324302" d="M438.635,254.393a5.345,5.345,0,0,1-4.832,0,1.712,1.712,0,0,1-1-1.393v2.562a1.68,1.68,0,0,0,1,1.393,5.344,5.344,0,0,0,4.832,0,1.712,1.712,0,0,0,1-1.393V253a1.68,1.68,0,0,1-1,1.393" transform="translate(-390.64 -228.355)" fill="#bcbcbc"/>
          <path id="패스_1324303" data-name="패스 1324303" d="M438.635,254.393a5.345,5.345,0,0,1-4.832,0,1.712,1.712,0,0,1-1-1.393v2.562a1.68,1.68,0,0,0,1,1.393,5.344,5.344,0,0,0,4.832,0,1.712,1.712,0,0,0,1-1.393V253A1.692,1.692,0,0,1,438.635,254.393Z" transform="translate(-390.64 -228.355)" fill="none" stroke="#222" stroke-linejoin="round" stroke-width="0.244"/>
          <path id="패스_1324304" data-name="패스 1324304" d="M438.658,236.138a5.344,5.344,0,0,1-4.832,0c-1.335-.77-1.335-2.016,0-2.786a5.345,5.345,0,0,1,4.832,0c1.335.77,1.335,2.016,0,2.786" transform="translate(-390.663 -210.1)" fill="#bcbcbc"/>
          <path id="패스_1324305" data-name="패스 1324305" d="M438.658,236.138a5.344,5.344,0,0,1-4.832,0c-1.335-.77-1.335-2.016,0-2.786a5.345,5.345,0,0,1,4.832,0C439.992,234.122,439.992,235.369,438.658,236.138Z" transform="translate(-390.663 -210.1)" fill="none" stroke="#222" stroke-linejoin="round" stroke-width="0.244"/>
          <path id="패스_1324306" data-name="패스 1324306" d="M428,239.7v2.124a1.933,1.933,0,0,0,1.14,1.588,6.067,6.067,0,0,0,5.494,0,1.932,1.932,0,0,0,1.14-1.588V239.7Z" transform="translate(-386.308 -216.35)" fill="#474747"/>
          <path id="패스_1324307" data-name="패스 1324307" d="M428,239.7v2.124a1.933,1.933,0,0,0,1.14,1.588,6.067,6.067,0,0,0,5.494,0,1.932,1.932,0,0,0,1.14-1.588V239.7Z" transform="translate(-386.308 -216.35)" fill="none" stroke="#222" stroke-miterlimit="10" stroke-width="0.292"/>
          <path id="패스_1324308" data-name="패스 1324308" d="M434.768,220.483a6.067,6.067,0,0,1-5.494,0c-1.51-.877-1.52-2.3,0-3.176a6.067,6.067,0,0,1,5.494,0c1.51.877,1.52,2.3,0,3.176" transform="translate(-386.432 -195.546)" fill="#616161"/>
          <path id="패스_1324309" data-name="패스 1324309" d="M434.768,220.483a6.067,6.067,0,0,1-5.494,0c-1.51-.877-1.52-2.3,0-3.176a6.067,6.067,0,0,1,5.494,0C436.277,218.184,436.277,219.606,434.768,220.483Z" transform="translate(-386.432 -195.546)" fill="none" stroke="#222" stroke-miterlimit="10" stroke-width="0.292"/>
          <path id="패스_1324310" data-name="패스 1324310" d="M616.957,336.856v.419l-1.812,1.042c-.273.156-.5.068-.545-.2a.448.448,0,0,0,.292-.068l1.792-1.033V336.7Z" transform="translate(-554.731 -303.901)" fill="#3673ee"/>
          <path id="패스_1324311" data-name="패스 1324311" d="M616.957,336.856v.419l-1.812,1.042c-.273.156-.5.068-.545-.2a.448.448,0,0,0,.292-.068l1.792-1.033V336.7Z" transform="translate(-554.731 -303.901)" fill="none" stroke="#222" stroke-linejoin="round" stroke-width="0.292"/>
          <path id="패스_1324312" data-name="패스 1324312" d="M616.5,330.6v.906l-1.792,1.033a.156.156,0,1,1-.3-.049h0a1.237,1.237,0,0,1,.565-.974Z" transform="translate(-554.551 -298.396)" fill="#bcbcbc"/>
          <path id="패스_1324313" data-name="패스 1324313" d="M616.5,330.6v.906l-1.792,1.033a.156.156,0,1,1-.3-.049h0a1.237,1.237,0,0,1,.565-.974Z" transform="translate(-554.551 -298.396)" fill="none" stroke="#222" stroke-linejoin="round" stroke-width="0.292"/>
          <path id="패스_1324314" data-name="패스 1324314" d="M616.957,363.446v.419l-1.812,1.042c-.273.156-.5.068-.545-.2a.448.448,0,0,0,.292-.068l1.792-1.023V363.3Z" transform="translate(-554.731 -327.91)" fill="#bcbcbc"/>
          <path id="패스_1324315" data-name="패스 1324315" d="M616.957,363.446v.419l-1.812,1.042c-.273.156-.5.068-.545-.2a.448.448,0,0,0,.292-.068l1.792-1.023V363.3Z" transform="translate(-554.731 -327.91)" fill="none" stroke="#222" stroke-linejoin="round" stroke-width="0.292"/>
          <path id="패스_1324316" data-name="패스 1324316" d="M616.5,357.2v.906l-1.792,1.033a.156.156,0,1,1-.3-.049h0a1.237,1.237,0,0,1,.565-.974Z" transform="translate(-554.551 -322.405)" fill="#bcbcbc"/>
          <path id="패스_1324317" data-name="패스 1324317" d="M616.5,357.2v.906l-1.792,1.033a.156.156,0,1,1-.3-.049h0a1.237,1.237,0,0,1,.565-.974Z" transform="translate(-554.551 -322.405)" fill="none" stroke="#222" stroke-linejoin="round" stroke-width="0.292"/>
          <path id="패스_1324318" data-name="패스 1324318" d="M513.751,369.8s-4.14,9.39,0,6.994,0-6.994,0-6.994" transform="translate(-462.045 -333.777)" fill="#fff"/>
          <path id="패스_1324319" data-name="패스 1324319" d="M516.689,416.718a1.646,1.646,0,0,1-.575,1.237c-.263.117-.438-.253-.39-.818a1.646,1.646,0,0,1,.575-1.237c.263-.117.438.253.39.818" transform="translate(-465.48 -375.367)" fill="#3673ee"/>
          <path id="패스_1324320" data-name="패스 1324320" d="M498.239,298.886H498.2l.127-.059,5.738-3.312a1.4,1.4,0,0,0,.614-.916v.029a1.149,1.149,0,0,1-.507.886l-5.738,3.312a.4.4,0,0,1-.195.059" transform="translate(-449.67 -265.903)" fill="#3673ee"/>
          <path id="패스_1324321" data-name="패스 1324321" d="M502.195,286.6a.613.613,0,0,1,.029.195v.409a1.266,1.266,0,0,1-.575.994l-5.738,3.312a.527.527,0,0,1-.253.078H495.6a.292.292,0,0,0,.292.214.517.517,0,0,0,.253-.078l5.738-3.312a1.266,1.266,0,0,0,.575-.994v-.409c0-.224-.1-.37-.253-.4" transform="translate(-447.323 -258.682)" fill="#222"/>
          <path id="패스_1324322" data-name="패스 1324322" d="M501.862,286.653v.409a1.266,1.266,0,0,1-.575.994l-5.738,3.312a.468.468,0,0,1-.321.068.613.613,0,0,1-.029-.195v-.409a1.266,1.266,0,0,1,.575-.994l5.738-3.312a.458.458,0,0,1,.312-.068.613.613,0,0,1,.029.195" transform="translate(-446.961 -258.55)" fill="#bcbcbc"/>
          <path id="패스_1324323" data-name="패스 1324323" d="M501.862,286.653v.409a1.266,1.266,0,0,1-.575.994l-5.738,3.312a.468.468,0,0,1-.321.068.613.613,0,0,1-.029-.195v-.409a1.266,1.266,0,0,1,.575-.994l5.738-3.312a.458.458,0,0,1,.312-.068A.611.611,0,0,1,501.862,286.653Z" transform="translate(-446.961 -258.55)" fill="none" stroke="#222" stroke-linejoin="round" stroke-width="0.244"/>
          <line id="선_140342" data-name="선 140342" x1="0.01" transform="translate(62.1 28.853)" fill="#fff"/>
          <path id="패스_1324324" data-name="패스 1324324" d="M419.628,202.184a6.8,6.8,0,0,1,3.312.789l.068.039a3.166,3.166,0,0,1,1.033.906l3.341,4.8a5.767,5.767,0,0,1,1.033,3.293v2l-.273.156v.584l.273.156v.419h0v1.257l-.273.166v.906h0v-.312l.273.156v.419h0V220.5h0v1.208h0a2.329,2.329,0,0,1-1.373,1.9l-12.693,7.345a7.346,7.346,0,0,1-6.624,0l-.068-.039a2.244,2.244,0,0,1-1.364-2.036h-.01v-19h0v-.2h.02a2.478,2.478,0,0,1,1.354-1.7l.273-.156a1.334,1.334,0,0,1-.049-.37v-2.133a1.932,1.932,0,0,1,1.14-1.588,6.107,6.107,0,0,1,5.494,0l.234.146,1.568-.906a6.8,6.8,0,0,1,3.312-.789m8.5,12.9h0m-8.5-13.472a7.387,7.387,0,0,0-3.6.867l-1.266.731a6.646,6.646,0,0,0-6.04.029,2.434,2.434,0,0,0-1.432,2.085v2.182a3.056,3.056,0,0,0-1.549,1.948.584.584,0,0,0-.039.224v.2h0v19a.582.582,0,0,0,.01.078,2.876,2.876,0,0,0,1.656,2.465l.068.039a7.281,7.281,0,0,0,3.6.867,7.387,7.387,0,0,0,3.6-.867l12.693-7.325A2.853,2.853,0,0,0,429,221.754v-.039h0V217.5a.6.6,0,0,1,0-.916v-1.666a.576.576,0,0,1,0-.9v-2.007a6.322,6.322,0,0,0-1.13-3.624l-3.351-4.8a3.731,3.731,0,0,0-1.227-1.081l-.068-.039a7.281,7.281,0,0,0-3.6-.867" transform="translate(-366.179 -181.962)" fill="#222"/>
          <g id="그룹_497718" data-name="그룹 497718" transform="translate(39.9 28.357)" opacity="0.1">
            <g id="그룹_497717" data-name="그룹 497717" clip-path="url(#clip-path-9)">
              <path id="패스_1324325" data-name="패스 1324325" d="M409.8,291.1s.214,2.046,4.822,2.309v19.112s-4.53-.283-4.822-2.367,0-19.054,0-19.054" transform="translate(-409.66 -291.1)" fill="#000001"/>
            </g>
          </g>
          <g id="그룹_497720" data-name="그룹 497720" transform="translate(12.517 25.093)" opacity="0.15">
            <g id="그룹_497719" data-name="그룹 497719" clip-path="url(#clip-path-10)">
              <path id="패스_1324326" data-name="패스 1324326" d="M136.349,258.81c1.666.964,1.656,2.523-.019,3.5a6.656,6.656,0,0,1-6.049.01c-1.666-.964-1.656-2.523.019-3.5a6.656,6.656,0,0,1,6.049-.01" transform="translate(-128.985 -258.04)"/>
              <path id="패스_1324327" data-name="패스 1324327" d="M136.349,258.81c1.666.964,1.656,2.523-.019,3.5a6.656,6.656,0,0,1-6.049.01c-1.666-.964-1.656-2.523.019-3.5A6.656,6.656,0,0,1,136.349,258.81Z" transform="translate(-128.985 -258.04)" fill="none" stroke="#222" stroke-miterlimit="10" stroke-width="0.097"/>
            </g>
          </g>
          <path id="패스_1324328" data-name="패스 1324328" d="M184.2,52.975l-.3-.175a2.388,2.388,0,0,1,.3.175" transform="translate(-165.986 -47.657)" fill="#fff"/>
          <path id="패스_1324329" data-name="패스 1324329" d="M184.2,52.975l-.3-.175A2.388,2.388,0,0,1,184.2,52.975Z" transform="translate(-165.986 -47.657)" fill="none" stroke="#222" stroke-linejoin="round" stroke-width="0.779"/>
          <path id="패스_1324330" data-name="패스 1324330" d="M105.341,55.29c0,3.37-2.387,10.335-5.319,15.537l-2.5-1.451h-.01c-2.815-1.607-5.309-6.03-5.309-9.4a11.7,11.7,0,0,1,5.319-9.157,3.834,3.834,0,0,1,3.614-.458l.3.175,2.192,1.266h0c1.052.507,1.7,1.724,1.7,3.5" transform="translate(-83.219 -45.208)" fill="#fff"/>
          <path id="패스_1324331" data-name="패스 1324331" d="M105.341,55.29c0,3.37-2.387,10.335-5.319,15.537l-2.5-1.451h-.01c-2.815-1.607-5.309-6.03-5.309-9.4a11.7,11.7,0,0,1,5.319-9.157,3.834,3.834,0,0,1,3.614-.458l.3.175,2.192,1.266h0C104.688,52.309,105.341,53.527,105.341,55.29Z" transform="translate(-83.219 -45.208)" fill="none" stroke="#222" stroke-linejoin="round" stroke-width="0.779"/>
          <path id="패스_1324332" data-name="패스 1324332" d="M103.226,51.793h0a2.786,2.786,0,0,0-1.305-.263,4.885,4.885,0,0,0-2.3.731A11.734,11.734,0,0,0,94.3,61.427,12.513,12.513,0,0,0,97.382,68.9a8.7,8.7,0,0,0,2.24,1.929l-2.5-1.451h-.01c-2.815-1.607-5.309-6.03-5.309-9.4a11.676,11.676,0,0,1,5.319-9.157,3.834,3.834,0,0,1,3.614-.458l.3.175Z" transform="translate(-82.858 -45.208)" fill="#fff"/>
          <path id="패스_1324333" data-name="패스 1324333" d="M103.226,51.793h0a2.786,2.786,0,0,0-1.305-.263,4.885,4.885,0,0,0-2.3.731A11.734,11.734,0,0,0,94.3,61.427,12.513,12.513,0,0,0,97.382,68.9a8.7,8.7,0,0,0,2.24,1.929l-2.5-1.451h-.01c-2.815-1.607-5.309-6.03-5.309-9.4a11.676,11.676,0,0,1,5.319-9.157,3.834,3.834,0,0,1,3.614-.458l.3.175Z" transform="translate(-82.858 -45.208)" fill="none" stroke="#222" stroke-linejoin="round" stroke-width="0.39"/>
          <path id="패스_1324334" data-name="패스 1324334" d="M183.8,52.975l-.3-.175a2.317,2.317,0,0,1,.3.175" transform="translate(-165.625 -47.657)" fill="#fff"/>
          <path id="패스_1324335" data-name="패스 1324335" d="M183.8,52.975l-.3-.175A2.317,2.317,0,0,1,183.8,52.975Z" transform="translate(-165.625 -47.657)" fill="none" stroke="#222" stroke-linejoin="round" stroke-width="0.39"/>
          <path id="패스_1324336" data-name="패스 1324336" d="M126.423,65.24a2.786,2.786,0,0,0-1.305-.263,4.885,4.885,0,0,0-2.3.731,11.734,11.734,0,0,0-5.319,9.166,12.513,12.513,0,0,0,3.078,7.471,8.7,8.7,0,0,0,2.24,1.929c2.932-5.2,5.319-12.167,5.319-15.537,0-1.773-.653-2.991-1.7-3.5m-3.6,4.13.253-.127c1.052-.468,1.87.088,1.87,1.335a4.811,4.811,0,0,1-2.114,3.653c-1.169.672-1.909.234-2.085-.8a2.359,2.359,0,0,1-.029-.409,4.641,4.641,0,0,1,2.124-3.653" transform="translate(-106.054 -58.645)" fill="#3673ee"/>
          <path id="패스_1324337" data-name="패스 1324337" d="M126.423,65.24a2.786,2.786,0,0,0-1.305-.263,4.885,4.885,0,0,0-2.3.731,11.734,11.734,0,0,0-5.319,9.166,12.513,12.513,0,0,0,3.078,7.471,8.7,8.7,0,0,0,2.24,1.929c2.932-5.2,5.319-12.167,5.319-15.537C128.137,66.954,127.475,65.746,126.423,65.24Zm-3.6,4.13.253-.127c1.052-.468,1.87.088,1.87,1.335a4.811,4.811,0,0,1-2.114,3.653c-1.169.672-1.909.234-2.085-.8a2.358,2.358,0,0,1-.029-.409A4.6,4.6,0,0,1,122.819,69.37Z" transform="translate(-106.054 -58.645)" fill="none" stroke="#222" stroke-linejoin="round" stroke-width="0.244"/>
          <path id="패스_1324338" data-name="패스 1324338" d="M154.625,108.61a4.656,4.656,0,0,1-2.114,3.653c-1.169.672-1.909.234-2.085-.8a2.359,2.359,0,0,1-.029-.409,4.641,4.641,0,0,1,2.124-3.653l.253-.127c1.052-.468,1.87.088,1.87,1.335" transform="translate(-135.747 -96.677)" fill="#fff"/>
          <path id="패스_1324339" data-name="패스 1324339" d="M154.625,108.61a4.656,4.656,0,0,1-2.114,3.653c-1.169.672-1.909.234-2.085-.8a2.359,2.359,0,0,1-.029-.409,4.641,4.641,0,0,1,2.124-3.653l.253-.127C153.816,106.808,154.625,107.363,154.625,108.61Z" transform="translate(-135.747 -96.677)" fill="none" stroke="#222" stroke-linejoin="round" stroke-width="0.39"/>
          <path id="패스_1324340" data-name="패스 1324340" d="M154.9,108.61a4.656,4.656,0,0,1-2.114,3.653c-1.169.672-1.909.234-2.085-.8l.253-.127a4.666,4.666,0,0,0,2.124-3.653,2.357,2.357,0,0,0-.029-.409c1.052-.468,1.87.088,1.87,1.335" transform="translate(-136.02 -96.677)" fill="#e2e2e2"/>
          <path id="패스_1324341" data-name="패스 1324341" d="M154.9,108.61a4.656,4.656,0,0,1-2.114,3.653c-1.169.672-1.909.234-2.085-.8l.253-.127a4.666,4.666,0,0,0,2.124-3.653,2.357,2.357,0,0,0-.029-.409C154.09,106.808,154.9,107.363,154.9,108.61Z" transform="translate(-136.02 -96.677)" fill="none" stroke="#222" stroke-linejoin="round" stroke-width="0.39"/>
        </g>
      </g>
    </g>
  </g>
</svg>
