<svg xmlns="http://www.w3.org/2000/svg" width="20" height="20"><defs><clipPath id="a"><path data-name="사각형 150995" transform="translate(-.052 -.052)" fill="none" d="M0 0h20v20H0z"/></clipPath></defs><g transform="translate(.052 .052)" clip-path="url(#a)"><g data-name="그룹 172577" clip-path="url(#a)"><path data-name="패스 395913" d="M9.949 5.543a.853.853 0 01.568.213.711.711 0 01.213.568.711.711 0 01-.213.568.865.865 0 01-1.137 0 .711.711 0 01-.213-.568.711.711 0 01.213-.568.853.853 0 01.568-.213m.782 2.487v5.187a.64.64 0 01-.426.711h-.355a.734.734 0 01-.781-.785V8.03z" fill="#fff"/><circle data-name="타원 5467" cx="8.669" cy="8.669" r="8.669" transform="translate(1.279 1.279)" fill="none" stroke="#fff" stroke-width="1.5"/></g></g></svg>