<svg xmlns="http://www.w3.org/2000/svg" xmlns:xlink="http://www.w3.org/1999/xlink" width="100" height="100" viewBox="0 0 100 100">
  <defs>
    <clipPath id="clip-path">
      <rect id="사각형_59828" data-name="사각형 59828" width="100" height="100" transform="translate(138 80)" fill="#d5d5d5"/>
    </clipPath>
    <clipPath id="clip-path-2">
      <rect id="사각형_248649" data-name="사각형 248649" width="100" height="100" fill="none"/>
    </clipPath>
    <clipPath id="clip-path-5">
      <rect id="사각형_248646" data-name="사각형 248646" width="3413.125" height="3413.125" fill="none"/>
    </clipPath>
    <clipPath id="clip-path-6">
      <rect id="사각형_248647" data-name="사각형 248647" width="10.104" height="5.412" fill="none"/>
    </clipPath>
  </defs>
  <g id="마스크_그룹_271" data-name="마스크 그룹 271" transform="translate(-138 -80)" clip-path="url(#clip-path)">
    <g id="null_100x100" transform="translate(188 130)">
      <g id="그룹_329096" data-name="그룹 329096" transform="translate(-50 -50)" style="isolation: isolate">
        <g id="Layer_1" data-name="Layer 1">
          <g id="그룹_329095" data-name="그룹 329095" clip-path="url(#clip-path-2)">
            <g id="그룹_329089" data-name="그룹 329089" clip-path="url(#clip-path-2)">
              <path id="패스_658629" data-name="패스 658629" d="M50,0A50,50,0,1,1,0,50,50.013,50.013,0,0,1,50,0" fill="#f9f9f9"/>
              <path id="패스_658630" data-name="패스 658630" d="M50,100a50,50,0,1,1,50-50,50.066,50.066,0,0,1-50,50M50,1A49,49,0,1,0,99,50,49.053,49.053,0,0,0,50,1" fill="#f0f0f0"/>
            </g>
            <g id="그룹_329094" data-name="그룹 329094" clip-path="url(#clip-path-2)">
              <g id="그룹_329091" data-name="그룹 329091" transform="translate(-1646.167 -1640.604)" opacity="0.15">
                <g id="그룹_329090" data-name="그룹 329090" clip-path="url(#clip-path-5)">
                  <path id="패스_658631" data-name="패스 658631" d="M117.867,231.6v6.208l-6.271,3.667c-3.417,1.979-5.4,4.9-5.4,8.021s1.979,6.083,5.438,8.083a22.505,22.505,0,0,0,11.042,2.688,22.193,22.193,0,0,0,10.938-2.646l3.9-2.292L140.679,253l2.833,1.625a1.437,1.437,0,0,0,1.438,0l15.229-8.792c2.208-1.271,3.313-2.9,3.271-4.437v-7.708Zm18.188,18.75a.292.292,0,0,1-.1-.1l-.771-.438-4.5,2.688c-4.333,2.5-11.687,2.479-16.062-.042-1.562-.9-2.479-2-2.479-2.958s.917-2.021,2.438-2.9l7.417-4.333.063-.042,13.125,7.583,1.333-.792c.354-.187-.771.792-.562,1.229l.125.083.208.125-.229-.083" transform="translate(1562.092 1457.254)" fill="#222"/>
                  <path id="패스_658632" data-name="패스 658632" d="M245.971,316.34l-.771-.437,1.333-.792c.333-.187-.771.792-.562,1.229" transform="translate(1452.05 1391.16)" fill="#222"/>
                </g>
              </g>
              <path id="패스_658633" data-name="패스 658633" d="M206.8,227.663v7.708c.042,1.542-1.083,3.167-3.271,4.438L188.3,248.6a1.438,1.438,0,0,1-1.437,0L161.2,233.808V225.6" transform="translate(-127.617 -178.6)" fill="#e2e2e2"/>
              <path id="패스_658634" data-name="패스 658634" d="M206.8,227.663v7.708c.042,1.542-1.083,3.167-3.271,4.438L188.3,248.6a1.438,1.438,0,0,1-1.437,0L161.2,233.808V225.6" transform="translate(-127.617 -178.6)" fill="none" stroke="#222" stroke-linecap="round" stroke-miterlimit="10" stroke-width="0.833"/>
              <path id="패스_658635" data-name="패스 658635" d="M190.092,173.707,204.446,182c3.438,1.979,3,5.438-.958,7.729l-15.229,8.792a1.438,1.438,0,0,1-1.437,0l-25.479-14.687a.4.4,0,0,1,0-.687L176.7,174.29c3.958-2.292,9.958-2.542,13.4-.562" transform="translate(-127.571 -136.478)" fill="#fff"/>
              <path id="패스_658636" data-name="패스 658636" d="M190.092,173.635l14.354,8.292c3.438,1.979,3,5.438-.958,7.729l-15.229,8.792a1.438,1.438,0,0,1-1.437,0L161.342,183.76a.4.4,0,0,1,0-.687l15.354-8.854C180.654,171.906,186.654,171.656,190.092,173.635Z" transform="translate(-127.571 -136.406)" fill="none" stroke="#222" stroke-linecap="round" stroke-miterlimit="10" stroke-width="0.833"/>
              <path id="패스_658637" data-name="패스 658637" d="M256.664,218.479l-2.1.9-2.146-1.25-2.792,2.333a4.229,4.229,0,0,0-2.146.5,2.083,2.083,0,0,0-.583.458c-.979-.708-.917-1.75.229-2.417a4.521,4.521,0,0,1,2.292-.521L252.372,216Z" transform="translate(-194.914 -171)" fill="#e2e2e2"/>
              <path id="패스_658638" data-name="패스 658638" d="M256.664,218.479l-2.1.9-2.146-1.25-2.792,2.333a4.229,4.229,0,0,0-2.146.5,2.083,2.083,0,0,0-.583.458c-.979-.708-.917-1.75.229-2.417a4.521,4.521,0,0,1,2.292-.521L252.372,216Z" transform="translate(-194.914 -171)" fill="none" stroke="#222" stroke-linecap="square" stroke-linejoin="round" stroke-width="0.833"/>
              <path id="패스_658639" data-name="패스 658639" d="M257.167,227.45l-2.083.875a1.188,1.188,0,0,1-.271.792l-.083.1a2.312,2.312,0,0,1-.562.438,4.9,4.9,0,0,1-4.437,0l-.229-.146a2.083,2.083,0,0,1,.583-.458,4.229,4.229,0,0,1,2.146-.5l2.792-2.354Z" transform="translate(-197.521 -179.075)" fill="#222"/>
              <path id="패스_658640" data-name="패스 658640" d="M257.167,227.45l-2.083.875a1.188,1.188,0,0,1-.271.792l-.083.1a2.312,2.312,0,0,1-.562.438,4.9,4.9,0,0,1-4.437,0l-.229-.146a2.083,2.083,0,0,1,.583-.458,4.229,4.229,0,0,1,2.146-.5l2.792-2.354Z" transform="translate(-197.521 -179.075)" fill="none" stroke="#222" stroke-linecap="square" stroke-linejoin="round" stroke-width="0.833"/>
              <path id="패스_658641" data-name="패스 658641" d="M352.475,227.775c0,.75-.979,1.375-2.187,1.375s-2.187-.6-2.187-1.375.979-1.375,2.188-1.375S352.475,227.025,352.475,227.775Z" transform="translate(-275.579 -179.233)" fill="none" stroke="#222" stroke-linecap="round" stroke-miterlimit="10" stroke-width="0.833"/>
              <path id="패스_658642" data-name="패스 658642" d="M352.475,224.975c0,.75-.979,1.375-2.187,1.375s-2.187-.6-2.187-1.375.979-1.375,2.188-1.375,2.188.6,2.188,1.375" transform="translate(-275.579 -177.017)" fill="#fff"/>
              <path id="패스_658643" data-name="패스 658643" d="M352.475,224.975c0,.75-.979,1.375-2.187,1.375s-2.187-.6-2.187-1.375.979-1.375,2.188-1.375S352.475,224.2,352.475,224.975Z" transform="translate(-275.579 -177.017)" fill="none" stroke="#222" stroke-linecap="round" stroke-miterlimit="10" stroke-width="0.833"/>
              <path id="패스_658644" data-name="패스 658644" d="M265.475,179.775c0,.75-.979,1.375-2.187,1.375s-2.187-.6-2.187-1.375.979-1.375,2.188-1.375S265.475,179.025,265.475,179.775Z" transform="translate(-206.704 -141.233)" fill="none" stroke="#222" stroke-linecap="round" stroke-miterlimit="10" stroke-width="0.833"/>
              <path id="패스_658645" data-name="패스 658645" d="M265.475,176.875c0,.75-.979,1.375-2.187,1.375s-2.187-.6-2.187-1.375.979-1.375,2.188-1.375,2.188.6,2.188,1.375" transform="translate(-206.704 -138.938)" fill="#fff"/>
              <path id="패스_658646" data-name="패스 658646" d="M265.475,176.875c0,.75-.979,1.375-2.187,1.375s-2.187-.6-2.187-1.375.979-1.375,2.188-1.375S265.475,176.125,265.475,176.875Z" transform="translate(-206.704 -138.938)" fill="none" stroke="#222" stroke-linecap="round" stroke-miterlimit="10" stroke-width="0.833"/>
              <path id="패스_658647" data-name="패스 658647" d="M209.317,94.317V91.275c0-5.729-4.9-10.375-10.958-10.375S187.4,85.546,187.4,91.275v3.042" transform="translate(-148.358 -64.046)" fill="#fff"/>
              <path id="패스_658648" data-name="패스 658648" d="M209.317,94.317V91.275c0-5.729-4.9-10.375-10.958-10.375S187.4,85.546,187.4,91.275v3.042" transform="translate(-148.358 -64.046)" fill="none" stroke="#000001" stroke-linejoin="round" stroke-width="0.833"/>
              <path id="패스_658649" data-name="패스 658649" d="M209.317,102.575c0,5.729-4.9,10.375-10.958,10.375S187.4,108.3,187.4,102.575,192.317,92.2,198.358,92.2s10.958,4.646,10.958,10.375" transform="translate(-148.358 -72.992)" fill="#45d49a"/>
              <path id="패스_658650" data-name="패스 658650" d="M209.317,102.575c0,5.729-4.9,10.375-10.958,10.375S187.4,108.3,187.4,102.575,192.317,92.2,198.358,92.2,209.317,96.846,209.317,102.575Z" transform="translate(-148.358 -72.992)" fill="none" stroke="#000001" stroke-linejoin="round" stroke-width="0.833"/>
              <path id="패스_658651" data-name="패스 658651" d="M225.8,132.208l2.563,2.521,5.229-5.229" transform="translate(-178.758 -102.521)" fill="none" stroke="#fff" stroke-linecap="round" stroke-linejoin="round" stroke-width="1.667"/>
              <line id="선_89594" data-name="선 89594" x2="0.729" y2="0.708" transform="translate(46.313 28.979)" fill="none" stroke="#fff" stroke-linecap="square" stroke-linejoin="round" stroke-width="1.667"/>
              <g id="그룹_329093" data-name="그룹 329093" transform="translate(44.958 42.354)" opacity="0.2">
                <g id="그룹_329092" data-name="그룹 329092" clip-path="url(#clip-path-6)">
                  <path id="패스_658652" data-name="패스 658652" d="M225.883,206.008c0,1.5-2.271,2.708-5.042,2.708s-5.042-1.208-5.042-2.708,2.271-2.708,5.042-2.708,5.042,1.208,5.042,2.708" transform="translate(-215.8 -203.3)"/>
                </g>
              </g>
              <path id="패스_658653" data-name="패스 658653" d="M258.033,293.516a2.146,2.146,0,0,1-.937,2.021,2.267,2.267,0,0,1-2.229-.229,6.964,6.964,0,0,1-3.167-5.458c0-2,1.167-2.646,2.708-2.021l.458.229a6.964,6.964,0,0,1,3.167,5.458" transform="translate(-199.262 -227.683)" fill="#e2e2e2"/>
              <path id="패스_658654" data-name="패스 658654" d="M258.033,293.516a2.146,2.146,0,0,1-.937,2.021,2.267,2.267,0,0,1-2.229-.229,6.964,6.964,0,0,1-3.167-5.458c0-2,1.167-2.646,2.708-2.021l.458.229A6.932,6.932,0,0,1,258.033,293.516Z" transform="translate(-199.262 -227.683)" fill="none" stroke="#222" stroke-linecap="square" stroke-linejoin="round" stroke-width="0.833"/>
              <path id="패스_658655" data-name="패스 658655" d="M167.433,241.516a2.146,2.146,0,0,1-.937,2.021,2.265,2.265,0,0,1-2.229-.229,6.964,6.964,0,0,1-3.167-5.458c0-2,1.167-2.646,2.708-2.021l.458.229a6.964,6.964,0,0,1,3.167,5.458" transform="translate(-127.538 -186.516)" fill="#e2e2e2"/>
              <path id="패스_658656" data-name="패스 658656" d="M167.433,241.516a2.146,2.146,0,0,1-.937,2.021,2.265,2.265,0,0,1-2.229-.229,6.964,6.964,0,0,1-3.167-5.458c0-2,1.167-2.646,2.708-2.021l.458.229A7,7,0,0,1,167.433,241.516Z" transform="translate(-127.538 -186.516)" fill="none" stroke="#222" stroke-linecap="square" stroke-linejoin="round" stroke-width="0.833"/>
              <path id="패스_658657" data-name="패스 658657" d="M119.837,242.316a1.508,1.508,0,0,1,1.479.167,4.61,4.61,0,0,1,2.1,3.625,1.436,1.436,0,0,1-.562,1.313h-.042l-.125.083-7.437,4.354c-1.521.875-2.437,1.958-2.437,2.9s.938,2.063,2.479,2.958c4.375,2.521,11.729,2.542,16.062.042l7.292-4.521a1.508,1.508,0,0,1,1.479.167,4.61,4.61,0,0,1,2.1,3.625,1.436,1.436,0,0,1-.562,1.313h-.042l-7.292,4.521A22.249,22.249,0,0,1,123.4,265.5a22.562,22.562,0,0,1-11.042-2.687c-3.458-2-5.458-4.937-5.458-8.083s1.958-6.042,5.4-8.021l7.417-4.333Z" transform="translate(-84.629 -191.733)" fill="#222"/>
            </g>
          </g>
        </g>
      </g>
    </g>
  </g>
</svg>
