<svg xmlns="http://www.w3.org/2000/svg" xmlns:xlink="http://www.w3.org/1999/xlink" width="22" height="22" viewBox="0 0 22 22">
  <defs>
    <clipPath id="clip-path">
      <rect id="사각형_155538" data-name="사각형 155538" width="22" height="22" fill="none"/>
    </clipPath>
  </defs>
  <g id="icon_bell_2_22" transform="translate(0.292)">
    <g id="그룹_198460" data-name="그룹 198460" transform="translate(-0.292)">
      <line id="선_39417" data-name="선 39417" y2="2.147" transform="translate(5.061 12.31)" fill="none" stroke="#fff" stroke-linejoin="round" stroke-width="1.5"/>
      <g id="그룹_198459" data-name="그룹 198459" transform="translate(0)" clip-path="url(#clip-path)">
        <path id="패스_406478" data-name="패스 406478" d="M4.2,17.369H16.652V9.426a6.226,6.226,0,1,0-12.452,0v2.684" transform="translate(0.861 0.308)" fill="none" stroke="#111" stroke-linecap="round" stroke-linejoin="round" stroke-width="1.5"/>
        <path id="패스_406479" data-name="패스 406479" d="M13.2,17A2.684,2.684,0,0,1,10.2,19.362,2.684,2.684,0,0,1,7.3,17" transform="translate(1.089 1.321)" fill="none" stroke="#111" stroke-linecap="round" stroke-linejoin="round" stroke-width="1.5"/>
        <path id="패스_406480" data-name="패스 406480" d="M11.3,6.6a2.254,2.254,0,0,1,1.825,2.04V9.5" transform="translate(1.382 0.558)" fill="none" stroke="#111" stroke-linecap="round" stroke-linejoin="round" stroke-width="1.5"/>
        <path id="패스_406481" data-name="패스 406481" d="M11.491,3.262V2.3A1.4,1.4,0,1,0,8.7,2.3v.966" transform="translate(1.191 0.139)" fill="none" stroke="#111" stroke-linecap="round" stroke-linejoin="round" stroke-width="1.5"/>
        <rect id="사각형_418197" data-name="사각형 418197" width="22" height="22" fill="#fff" opacity="0.003"/>
      </g>
    </g>
  </g>
</svg>
