<svg xmlns="http://www.w3.org/2000/svg" width="111.811" height="128.392"><defs><clipPath id="a"><path class="a" d="M0 0h111.811v111.811H0z"/></clipPath><clipPath id="c"><path class="a" d="M0 0h15.793v8.157H0z"/></clipPath><clipPath id="d"><path class="a" d="M0 0h16.408v8.154H0z"/></clipPath><clipPath id="e"><path class="a" d="M0 0h11.544v32.408H0z"/></clipPath><clipPath id="f"><path class="a" d="M0 0h1.593v2.801H0z"/></clipPath><clipPath id="g"><path class="a" d="M0 0h5.171v4.565H0z"/></clipPath><clipPath id="h"><path class="a" d="M0 0h4.892v1.848H0z"/></clipPath><clipPath id="i"><path class="a" d="M0 0h3.997v4.011H0z"/></clipPath><clipPath id="j"><path class="a" d="M0 0h4.64v5.68H0z"/></clipPath><clipPath id="k"><path class="a" d="M0 0h5.143v5.848H0z"/></clipPath><clipPath id="l"><path class="a" d="M0 0h3.047v5.389H0z"/></clipPath><clipPath id="m"><path class="a" d="M0 0h7.212v43.64H0z"/></clipPath><style>.a,.an,.n,.o{fill:none}.g{fill:#fff}.h{clip-path:url(#a)}.i{opacity:.2}.k{fill:#222}.an,.n,.o{stroke:#222;stroke-linecap:round;stroke-linejoin:round}.n,.o{stroke-width:.699px}.p{fill:#3673ee}.s{fill:#262626}.u{opacity:.15}.w{opacity:.1}.an{stroke-width:.699px}.at{fill:#e4eff5}</style></defs><g style="mix-blend-mode:luminosity;isolation:isolate"><path d="M101.82 48.243c0 14.7-6.659 25.388-17.023 34.237-8.427 7.2-17.541 13.208-29.49 13.208s-22.4-5.188-30.825-12.382C14.119 74.457 5.333 62.938 5.333 48.243c0-14.993 8.516-26.832 19.245-35.68C32.915 5.687 41.925 0 53.578 0c14.084 0 25.966 8.076 34.786 17.7 7.863 8.585 13.456 17.983 13.456 30.543z" fill="#e8ebef"/><path d="M87.473 22.941c7.684 10.262 8.625 21.211 6.015 32.809-2.122 9.43-5.343 18.395-13.687 24.643s-18.354 8.089-28 7.471c-11.863-.76-24.022-4.21-31.705-14.472-7.839-10.469-8.083-23.19-5.218-34.978 2.227-9.161 5.545-17.843 13.682-23.936 9.835-7.364 22.355-7.937 33.547-5.828 9.98 1.882 18.799 5.52 25.366 14.291z" fill="#617893"/><path d="M84.256 36.098c3.816 9.959 2.08 18.935-2.646 27.623-3.842 7.064-8.458 13.506-16.556 16.609s-16.527 2.3-24.106-.387c-9.321-3.306-18.267-8.831-22.083-18.79-3.893-10.161-1.2-20.4 3.777-29.179 3.865-6.825 8.495-13.019 16.391-16.045 9.545-3.657 19.695-1.27 28.172 2.963 7.559 3.777 13.789 8.694 17.051 17.206z" fill="#374a66"/><path d="M82.223 48.016c0 8.726-3.954 15.076-10.108 20.33-5 4.272-10.416 7.843-17.511 7.843s-13.3-3.08-18.3-7.353c-6.154-5.254-11.371-12.094-11.371-20.82 0-8.9 5.057-15.933 11.427-21.187 4.951-4.083 10.3-7.46 17.219-7.46 8.363 0 15.418 4.8 20.655 10.511 4.668 5.098 7.989 10.679 7.989 18.136z" fill="#091533"/><path class="g" d="M44.025 11.265l.486.164a.132.132 0 00.167-.167l-.164-.485a.132.132 0 01.019-.121l.307-.411a.131.131 0 00-.107-.21l-.513.007a.131.131 0 01-.109-.056l-.3-.418a.132.132 0 00-.234.037l-.153.489a.133.133 0 01-.087.087l-.49.152a.132.132 0 00-.037.233l.418.3a.131.131 0 01.055.109l-.007.512a.132.132 0 00.211.107l.411-.307a.132.132 0 01.127-.022zM71.169 24.072l-.307-.042a.079.079 0 01-.06-.043l-.139-.277a.08.08 0 00-.143 0l-.136.28a.082.082 0 01-.06.044l-.307.047a.08.08 0 00-.043.136l.223.215a.08.08 0 01.023.071l-.051.306a.08.08 0 00.116.083l.274-.147a.081.081 0 01.074 0l.275.142a.08.08 0 00.115-.085l-.054-.306a.081.081 0 01.022-.071l.221-.218a.08.08 0 00-.043-.135zM87.672 62.534l-.139-.278a.08.08 0 00-.143 0l-.135.279a.081.081 0 01-.06.044l-.307.047a.08.08 0 00-.043.136l.223.215a.081.081 0 01.023.07l-.05.307a.079.079 0 00.115.083l.274-.147a.08.08 0 01.074 0l.275.142a.08.08 0 00.115-.085l-.054-.306a.08.08 0 01.022-.071l.221-.219a.08.08 0 00-.045-.135l-.307-.042a.078.078 0 01-.059-.04zM48.06 21.03l-.227.463a.133.133 0 01-.1.073l-.509.075a.133.133 0 00-.073.226l.369.36a.133.133 0 01.038.117l-.086.508a.132.132 0 00.192.139l.455-.241a.132.132 0 01.124 0l.456.239a.132.132 0 00.192-.14l-.088-.508a.133.133 0 01.038-.118l.368-.361a.133.133 0 00-.073-.226l-.51-.074a.132.132 0 01-.1-.072l-.228-.462a.132.132 0 00-.238.002zM97.559 40.548l-.509-.073a.134.134 0 01-.1-.073l-.229-.462a.132.132 0 00-.237 0l-.227.463a.135.135 0 01-.1.073l-.509.075a.133.133 0 00-.074.227l.369.359a.133.133 0 01.039.117l-.086.509a.133.133 0 00.192.14l.455-.241a.132.132 0 01.123 0l.456.239a.132.132 0 00.192-.14l-.088-.508a.132.132 0 01.038-.117l.369-.361a.133.133 0 00-.074-.227zM83.451 78.461l-.485-.073a.126.126 0 01-.094-.073l-.218-.462a.123.123 0 00-.225 0l-.217.463a.126.126 0 01-.094.073l-.485.075a.135.135 0 00-.069.226l.351.36a.137.137 0 01.037.117l-.083.509a.128.128 0 00.183.14l.432-.241a.121.121 0 01.118 0l.434.239a.127.127 0 00.183-.14l-.083-.509a.135.135 0 01.036-.117l.35-.361a.135.135 0 00-.071-.226zM21.988 37.688l-.509-.073a.134.134 0 01-.1-.073l-.228-.462a.132.132 0 00-.237 0l-.227.463a.134.134 0 01-.1.073l-.509.075a.133.133 0 00-.073.227l.369.359a.133.133 0 01.038.118l-.086.508a.132.132 0 00.192.14l.455-.241a.131.131 0 01.123 0l.456.239a.133.133 0 00.192-.141l-.088-.508a.133.133 0 01.038-.117l.368-.36a.133.133 0 00-.074-.227zM84.244 17.23l-.2-.03a.052.052 0 01-.04-.029l-.092-.186a.053.053 0 00-.1 0l-.091.186a.053.053 0 01-.04.029l-.206.03a.053.053 0 00-.029.091l.148.145a.054.054 0 01.015.047l-.034.2a.053.053 0 00.077.056l.183-.1a.054.054 0 01.05 0l.183.1a.053.053 0 00.077-.057l-.035-.2a.052.052 0 01.015-.047l.148-.145a.053.053 0 00-.029-.09zM79.356 11.974l-.205-.03a.051.051 0 01-.04-.029l-.092-.186a.053.053 0 00-.1 0l-.091.186a.054.054 0 01-.04.029l-.2.03a.053.053 0 00-.03.091l.148.145a.053.053 0 01.015.047l-.035.2a.054.054 0 00.078.056l.183-.1a.053.053 0 01.05 0l.183.1a.053.053 0 00.077-.056l-.036-.2a.054.054 0 01.016-.047l.148-.145a.054.054 0 00-.029-.091zM94.458 33.177a.056.056 0 01.016.047l-.035.2a.053.053 0 00.077.056l.183-.1a.054.054 0 01.05 0l.183.1a.054.054 0 00.078-.057l-.035-.2a.052.052 0 01.015-.047l.148-.146a.053.053 0 00-.03-.091l-.2-.03a.053.053 0 01-.04-.029l-.093-.186a.053.053 0 00-.095 0l-.091.187a.055.055 0 01-.041.029l-.2.03a.053.053 0 00-.03.091zM65.641 79.692l-.2-.03a.053.053 0 01-.041-.029l-.092-.186a.053.053 0 00-.1 0l-.092.187a.051.051 0 01-.04.029l-.2.03a.054.054 0 00-.03.091l.148.145a.054.054 0 01.015.047l-.035.2a.054.054 0 00.077.057l.183-.1a.05.05 0 01.049 0l.184.1a.053.053 0 00.077-.056l-.035-.2a.053.053 0 01.015-.047l.148-.145a.054.054 0 00-.031-.093zM98.795 50.269a.058.058 0 00-.024-.091l-.165-.03a.047.047 0 01-.033-.029l-.073-.186a.04.04 0 00-.077 0l-.074.186a.047.047 0 01-.032.029l-.166.029a.058.058 0 00-.023.091l.119.146a.059.059 0 01.013.047l-.029.2c-.006.044.032.077.063.057l.147-.1a.035.035 0 01.04 0l.148.1c.031.021.067-.012.062-.056l-.027-.2a.061.061 0 01.013-.047zM8.525 51.241l-.035.2a.053.053 0 00.077.056l.183-.1a.054.054 0 01.049 0l.183.1a.053.053 0 00.077-.056l-.035-.2a.054.054 0 01.015-.047l.148-.145a.053.053 0 00-.03-.091l-.205-.03a.052.052 0 01-.04-.029l-.092-.186a.053.053 0 00-.1 0l-.091.187a.053.053 0 01-.04.03l-.205.03a.053.053 0 00-.029.091l.148.145a.054.054 0 01.022.045zM78.051 71.526l-.205-.03a.053.053 0 01-.04-.029l-.092-.186a.053.053 0 00-.1 0l-.091.186a.055.055 0 01-.04.03l-.205.03a.054.054 0 00-.029.091l.148.145a.052.052 0 01.016.047l-.035.205a.053.053 0 00.077.056l.183-.1a.053.053 0 01.049 0l.184.1a.054.054 0 00.078-.056l-.035-.2a.052.052 0 01.015-.047l.148-.145a.053.053 0 00-.026-.097zM52.966 15.504a.053.053 0 01.016.047l-.035.2a.053.053 0 00.077.056l.183-.1a.054.054 0 01.05 0l.183.1a.053.053 0 00.077-.056l-.035-.2a.053.053 0 01.015-.048l.148-.145a.053.053 0 00-.029-.091l-.205-.03a.053.053 0 01-.04-.029l-.092-.186a.053.053 0 00-.1 0l-.091.186a.054.054 0 01-.04.029l-.2.03a.053.053 0 00-.029.091zM85.104 31.496l-.2-.03a.054.054 0 01-.04-.029l-.092-.186a.053.053 0 00-.1 0l-.092.186a.053.053 0 01-.04.029l-.205.03a.054.054 0 00-.03.091l.149.145a.054.054 0 01.015.047l-.035.2a.053.053 0 00.077.056l.183-.1a.054.054 0 01.05 0l.183.1a.053.053 0 00.077-.056l-.035-.2a.054.054 0 01.015-.047l.148-.145a.054.054 0 00-.028-.091zM32.007 12.008l.183.1a.053.053 0 00.077-.056l-.035-.2a.053.053 0 01.015-.047l.148-.145a.053.053 0 00-.03-.091l-.205-.03a.053.053 0 01-.04-.029l-.092-.186a.053.053 0 00-.1 0l-.092.186a.053.053 0 01-.04.029l-.2.03a.053.053 0 00-.029.091l.149.145a.054.054 0 01.015.047l-.035.2a.053.053 0 00.077.056l.183-.1a.054.054 0 01.051 0zM65.246 33.857a.053.053 0 00-.03-.091l-.205-.029a.053.053 0 01-.04-.029l-.092-.186a.053.053 0 00-.1 0l-.091.187a.054.054 0 01-.04.029l-.205.03a.053.053 0 00-.029.091l.148.145a.053.053 0 01.016.047l-.035.2a.053.053 0 00.077.056l.183-.1a.055.055 0 01.05 0l.183.1a.053.053 0 00.077-.056l-.035-.2a.053.053 0 01.015-.047zM40.512 47.18l-.321-.046a.084.084 0 01-.063-.046l-.144-.291a.083.083 0 00-.149 0l-.143.292a.084.084 0 01-.062.046l-.321.047a.084.084 0 00-.046.143l.232.226a.084.084 0 01.024.074l-.054.32a.083.083 0 00.121.088l.287-.151a.082.082 0 01.078 0l.287.15a.083.083 0 00.121-.088l-.055-.32a.085.085 0 01.024-.074l.231-.227a.084.084 0 00-.047-.143zM21.846 25.622l-.2-.03a.053.053 0 01-.04-.029l-.092-.186a.053.053 0 00-.1 0l-.092.186a.054.054 0 01-.04.029l-.205.03a.054.054 0 00-.029.091l.149.145a.054.054 0 01.015.047l-.035.2a.053.053 0 00.077.056l.183-.1a.053.053 0 01.05 0l.183.1a.053.053 0 00.077-.056l-.035-.2a.054.054 0 01.015-.047l.148-.145a.054.054 0 00-.029-.091zM15.099 32.527l-.205-.03a.053.053 0 01-.04-.029l-.092-.186a.053.053 0 00-.1 0l-.091.187a.053.053 0 01-.04.029l-.2.03a.053.053 0 00-.029.091l.148.145a.054.054 0 01.016.047l-.035.2a.053.053 0 00.077.056l.183-.1a.052.052 0 01.05 0l.183.1a.053.053 0 00.077-.057l-.035-.2a.052.052 0 01.015-.047l.148-.145a.053.053 0 00-.03-.091zM67.683 62.073l-.206-.03a.054.054 0 01-.04-.029l-.092-.186a.053.053 0 00-.1 0l-.091.186a.053.053 0 01-.04.029l-.205.03a.054.054 0 00-.03.091l.149.145a.054.054 0 01.016.047l-.035.2a.053.053 0 00.077.056l.183-.1a.054.054 0 01.05 0l.183.1a.054.054 0 00.077-.056l-.035-.2a.054.054 0 01.015-.048l.148-.145a.053.053 0 00-.024-.09zM9.986 43.277l-.205-.03a.052.052 0 01-.04-.029l-.092-.186a.053.053 0 00-.1 0l-.091.186a.053.053 0 01-.04.029l-.2.03a.054.054 0 00-.029.091l.149.145a.053.053 0 01.015.047l-.035.205a.053.053 0 00.077.056l.183-.1a.051.051 0 01.05 0l.183.1a.053.053 0 00.077-.056l-.035-.2a.054.054 0 01.015-.048l.148-.145a.054.054 0 00-.03-.095zM21.342 51.648l-.165-.03a.044.044 0 01-.032-.029l-.073-.186a.04.04 0 00-.077 0l-.074.186a.044.044 0 01-.032.029l-.165.03a.057.057 0 00-.024.091l.119.145a.063.063 0 01.012.047l-.029.205c-.006.043.031.077.062.056l.148-.1a.034.034 0 01.04 0l.147.1c.032.021.068-.012.063-.056l-.028-.2a.063.063 0 01.012-.047l.12-.145a.057.057 0 00-.024-.096zM80.186 47.056l-.205-.03a.054.054 0 01-.04-.029l-.092-.186a.053.053 0 00-.1 0l-.091.187a.056.056 0 01-.04.029l-.205.03a.053.053 0 00-.029.091l.148.145a.052.052 0 01.015.047l-.034.2a.053.053 0 00.077.056l.183-.1a.053.053 0 01.05 0l.183.1a.053.053 0 00.077-.056l-.035-.2a.053.053 0 01.015-.047l.148-.145a.053.053 0 00-.025-.092zM10.852 59.153l-.205-.03a.053.053 0 01-.04-.029l-.092-.186a.053.053 0 00-.1 0l-.091.186a.053.053 0 01-.04.029l-.2.03a.054.054 0 00-.029.092l.149.145a.053.053 0 01.015.047l-.035.205a.053.053 0 00.077.056l.183-.1a.054.054 0 01.05 0l.183.1a.053.053 0 00.077-.057l-.035-.2a.053.053 0 01.015-.047l.148-.145a.053.053 0 00-.03-.096zM96.46 60.053l-.035-.2a.052.052 0 01.015-.047l.148-.145a.053.053 0 00-.03-.091l-.2-.029a.054.054 0 01-.041-.029l-.092-.186a.053.053 0 00-.1 0l-.091.187a.053.053 0 01-.04.029l-.2.03a.053.053 0 00-.03.091l.149.145a.053.053 0 01.015.047l-.034.2a.054.054 0 00.078.056l.183-.1a.054.054 0 01.05 0l.183.1a.054.054 0 00.072-.058zM39.507 63.313l-.205-.03a.054.054 0 01-.04-.029l-.092-.186a.053.053 0 00-.1 0l-.092.187a.055.055 0 01-.04.029l-.205.03a.053.053 0 00-.029.091l.149.145a.054.054 0 01.015.047l-.035.2a.053.053 0 00.077.056l.183-.1a.053.053 0 01.049 0l.184.1a.054.054 0 00.077-.057l-.035-.2a.055.055 0 01.015-.048l.148-.145a.053.053 0 00-.024-.09zM32.633 39.293l-.205-.03a.053.053 0 01-.04-.029l-.092-.186a.053.053 0 00-.1 0l-.091.186a.053.053 0 01-.04.029l-.2.03a.054.054 0 00-.03.091l.148.145a.053.053 0 01.016.047l-.035.205a.053.053 0 00.077.056l.183-.1a.052.052 0 01.05 0l.183.1a.053.053 0 00.077-.057l-.035-.2a.053.053 0 01.015-.047l.148-.145a.053.053 0 00-.029-.095zM91.18 47.305l-.205-.03a.054.054 0 01-.04-.029l-.092-.186a.053.053 0 00-.1 0l-.092.186a.051.051 0 01-.04.029l-.205.03a.054.054 0 00-.029.091l.149.145a.051.051 0 01.015.047l-.034.2a.053.053 0 00.077.056l.183-.1a.054.054 0 01.05 0l.184.1a.053.053 0 00.077-.056l-.035-.2a.054.054 0 01.016-.047l.147-.145a.053.053 0 00-.026-.091zM56.775 85.263l-.2-.029a.051.051 0 01-.04-.029l-.092-.186a.053.053 0 00-.1 0l-.091.187a.056.056 0 01-.04.029l-.205.03a.054.054 0 00-.03.091l.149.145a.053.053 0 01.015.047l-.034.2a.053.053 0 00.077.057l.183-.1a.052.052 0 01.05 0l.183.1a.054.054 0 00.078-.056l-.035-.2a.054.054 0 01.015-.047l.148-.145a.054.054 0 00-.031-.094zM44.931 89.717l-.2-.029a.051.051 0 01-.04-.03l-.092-.186a.053.053 0 00-.1 0l-.092.186a.054.054 0 01-.04.029l-.206.03a.054.054 0 00-.029.091l.148.145a.053.053 0 01.015.047l-.034.205a.053.053 0 00.077.056l.183-.1a.05.05 0 01.05 0l.184.1a.053.053 0 00.077-.056L44.797 90a.051.051 0 01.015-.047l.148-.145a.054.054 0 00-.029-.091zM72.779 85.597l-.2-.03a.051.051 0 01-.04-.029l-.092-.186a.053.053 0 00-.1 0l-.091.186a.057.057 0 01-.04.03l-.2.029a.054.054 0 00-.03.091l.149.145a.055.055 0 01.015.047l-.035.205a.053.053 0 00.077.056l.183-.1a.053.053 0 01.05 0l.183.1a.053.053 0 00.077-.057l-.035-.2a.053.053 0 01.015-.047l.148-.146a.053.053 0 00-.034-.094zM44.931 76.162l-.205-.029a.054.054 0 01-.04-.029l-.092-.186a.053.053 0 00-.1 0l-.092.186a.052.052 0 01-.04.029l-.206.031a.053.053 0 00-.029.091l.149.145a.055.055 0 01.015.048l-.035.2a.053.053 0 00.077.056l.183-.1a.054.054 0 01.049 0l.184.1a.053.053 0 00.077-.056l-.035-.2a.054.054 0 01.015-.047l.148-.145a.054.054 0 00-.023-.094zM62.954 89.304l-.205-.029a.054.054 0 01-.04-.029l-.092-.186a.053.053 0 00-.1 0l-.091.186a.053.053 0 01-.04.03l-.2.03a.053.053 0 00-.03.091l.148.145a.053.053 0 01.016.047l-.035.2a.053.053 0 00.077.057l.183-.1a.051.051 0 01.05 0l.183.1a.053.053 0 00.077-.056l-.035-.2a.054.054 0 01.015-.047l.148-.145a.054.054 0 00-.029-.094zM77.62 20.405l-.2-.03a.053.053 0 01-.04-.029l-.092-.186a.053.053 0 00-.1 0l-.092.186a.054.054 0 01-.04.029l-.205.03a.053.053 0 00-.03.091l.149.145a.055.055 0 01.015.047l-.035.2a.053.053 0 00.077.056l.183-.1a.052.052 0 01.049 0l.184.1a.053.053 0 00.077-.056l-.035-.2a.054.054 0 01.015-.047l.148-.145a.053.053 0 00-.028-.091zM31.075 71.114l-.205-.029a.053.053 0 01-.04-.029l-.092-.186a.053.053 0 00-.1 0l-.091.186a.055.055 0 01-.04.029l-.2.03a.053.053 0 00-.029.091l.148.145a.052.052 0 01.015.047l-.035.2a.053.053 0 00.078.056l.183-.1a.054.054 0 01.049 0l.183.1a.053.053 0 00.077-.056l-.035-.2a.053.053 0 01.015-.047l.148-.145a.054.054 0 00-.029-.092zM41.71 7.594a.053.053 0 01.015.047l-.035.2a.053.053 0 00.078.056l.183-.1a.052.052 0 01.05 0l.183.1a.053.053 0 00.077-.056l-.035-.2a.052.052 0 01.015-.047l.148-.145a.054.054 0 00-.03-.091l-.2-.03a.054.054 0 01-.04-.029l-.092-.186a.053.053 0 00-.1 0l-.091.186a.054.054 0 01-.04.029l-.2.03a.053.053 0 00-.029.091zM61.434 6.15a.054.054 0 01.015.047l-.034.2a.053.053 0 00.077.056l.183-.1a.052.052 0 01.049 0l.184.1a.053.053 0 00.077-.056l-.035-.2a.053.053 0 01.015-.047l.148-.145a.053.053 0 00-.03-.091l-.2-.029a.055.055 0 01-.041-.029l-.092-.186a.053.053 0 00-.1 0l-.091.186a.053.053 0 01-.04.029l-.205.03a.054.054 0 00-.029.091zM34.825 21.052a.055.055 0 01.016.047l-.035.2a.053.053 0 00.078.056l.183-.1a.055.055 0 01.05 0l.184.1a.053.053 0 00.077-.057l-.036-.2a.053.053 0 01.015-.047l.148-.145a.053.053 0 00-.03-.091l-.205-.03a.054.054 0 01-.04-.029l-.092-.186a.053.053 0 00-.1 0l-.091.186a.053.053 0 01-.04.029l-.2.03a.053.053 0 00-.029.091zM67.462 17.054a.053.053 0 01.016.047l-.035.2a.053.053 0 00.077.056l.183-.1a.054.054 0 01.05 0l.183.1a.053.053 0 00.077-.056l-.035-.2a.053.053 0 01.015-.047l.148-.145a.053.053 0 00-.03-.091l-.205-.029a.054.054 0 01-.04-.029l-.092-.186a.053.053 0 00-.1 0l-.091.186a.053.053 0 01-.04.029l-.2.03a.054.054 0 00-.03.091zM59.142 22.992l.134.131.014.014a.055.055 0 01.016.047l-.035.2a.054.054 0 00.078.056l.183-.1a.051.051 0 01.049 0l.184.1a.053.053 0 00.077-.056l-.035-.2a.053.053 0 01.016-.047l.147-.145a.053.053 0 00-.029-.091l-.205-.03a.054.054 0 01-.041-.029l-.092-.186a.053.053 0 00-.1 0l-.091.186a.055.055 0 01-.04.029l-.116.017-.089.013a.053.053 0 00-.025.091zM85.935 26.045l-.1-.562a.148.148 0 01.042-.13l.407-.4a.147.147 0 00-.081-.25l-.563-.081a.146.146 0 01-.11-.08l-.252-.511a.146.146 0 00-.262 0l-.251.512a.145.145 0 01-.11.08l-.563.083a.147.147 0 00-.081.25l.408.4a.147.147 0 01.042.13l-.1.562a.146.146 0 00.213.154l.5-.266a.145.145 0 01.136 0l.5.265a.146.146 0 00.225-.156zM24.675 17.226a.147.147 0 01.043.13l-.1.562a.146.146 0 00.213.154l.5-.266a.146.146 0 01.136 0l.5.265a.146.146 0 00.212-.155l-.1-.562a.146.146 0 01.042-.13l.407-.4a.147.147 0 00-.081-.25l-.563-.081a.146.146 0 01-.11-.08l-.253-.511a.146.146 0 00-.262 0l-.251.512a.147.147 0 01-.11.08l-.563.083a.147.147 0 00-.081.25zM92.603 69.738l-.563-.081a.149.149 0 01-.11-.08l-.252-.511a.146.146 0 00-.263 0l-.251.512a.146.146 0 01-.11.08l-.562.083a.147.147 0 00-.081.25l.408.4a.147.147 0 01.043.13l-.1.562a.147.147 0 00.213.155l.5-.267a.146.146 0 01.136 0l.5.265a.147.147 0 00.212-.155l-.1-.562a.145.145 0 01.042-.13l.407-.4a.147.147 0 00-.069-.251zM56.492 11.969a.146.146 0 01.042.13l-.1.562a.146.146 0 00.213.154l.5-.266a.146.146 0 01.136 0l.5.265a.146.146 0 00.212-.155l-.1-.562a.148.148 0 01.042-.13l.407-.4a.147.147 0 00-.082-.25l-.563-.081a.147.147 0 01-.111-.08l-.252-.511a.146.146 0 00-.263 0l-.251.512a.146.146 0 01-.11.08l-.563.083a.147.147 0 00-.08.25zM73.522 6.974l-.563-.081a.148.148 0 01-.111-.08l-.252-.511a.146.146 0 00-.262 0l-.251.512a.145.145 0 01-.11.08l-.563.083a.147.147 0 00-.081.25l.408.4a.149.149 0 01.042.13l-.1.562a.146.146 0 00.212.154l.5-.266a.146.146 0 01.136 0l.5.265a.146.146 0 00.212-.155l-.1-.562a.148.148 0 01.042-.13l.407-.4a.147.147 0 00-.066-.251zM22.773 69.246l-.563-.082a.146.146 0 01-.11-.08l-.252-.511a.146.146 0 00-.262 0l-.251.512a.145.145 0 01-.11.08l-.563.083a.147.147 0 00-.081.25l.408.4a.146.146 0 01.042.129l-.1.563a.146.146 0 00.212.154l.5-.266a.143.143 0 01.136 0l.5.264a.146.146 0 00.212-.155l-.1-.562a.147.147 0 01.042-.13l.407-.4a.146.146 0 00-.067-.249zM35.475 82.193l-.2-.03a.052.052 0 01-.04-.029l-.092-.186a.053.053 0 00-.1 0l-.091.187a.055.055 0 01-.04.029l-.2.03a.054.054 0 00-.03.091l.148.145a.053.053 0 01.016.047l-.035.205a.053.053 0 00.077.056l.183-.1a.053.053 0 01.05 0l.183.1a.053.053 0 00.077-.057l-.035-.2a.054.054 0 01.015-.047l.148-.145a.054.054 0 00-.034-.096zM53.185 70.7l-.205-.03a.053.053 0 01-.04-.029l-.092-.186a.053.053 0 00-.1 0l-.091.186a.055.055 0 01-.04.03l-.205.03a.054.054 0 00-.029.091l.149.145a.055.055 0 01.015.047l-.035.205a.053.053 0 00.077.056l.184-.1a.051.051 0 01.049 0l.184.1a.053.053 0 00.077-.057l-.035-.2a.052.052 0 01.015-.047l.148-.145a.054.054 0 00-.026-.096z"/><g><path class="a" d="M80.764 56.564l.037.213q.08-.223.156-.447l-.171.167a.076.076 0 00-.022.067z"/><path class="a" d="M80.705 56.933l-.26-.136a.076.076 0 00-.07 0l-.259.137a.075.075 0 01-.109-.079l.049-.289a.075.075 0 00-.022-.067l-.21-.2a.076.076 0 01.042-.129l.29-.043a.076.076 0 00.057-.041l.129-.263a.075.075 0 01.135 0l.13.263a.075.075 0 00.057.041l.29.042a.073.073 0 01.049.029 24.933 24.933 0 001.221-7.883c0-7.458-3.321-13.039-7.991-18.136-.918-1-1.893-1.976-2.92-2.9a.025.025 0 00-.014 0l-.089.047a.026.026 0 01-.037-.027l.017-.1a.026.026 0 00-.008-.023l-.072-.07a.026.026 0 01-.008-.018c-4.795-4.254-10.728-7.421-17.524-7.421-6.919 0-12.269 3.377-17.219 7.46a37.714 37.714 0 00-6.448 6.71h.028a.027.027 0 00.021-.016l.048-.1a.028.028 0 01.05 0l.048.1a.028.028 0 00.021.015l.107.016a.028.028 0 01.016.048l-.078.076a.028.028 0 00-.008.025l.019.107a.028.028 0 01-.04.03l-.1-.051a.027.027 0 00-.026 0l-.1.051a.028.028 0 01-.041-.029l.018-.107a.028.028 0 00-.008-.025l-.048-.047a24.123 24.123 0 00-4.915 14.389 22.8 22.8 0 003.936 12.6l.014-.085a.076.076 0 00-.022-.067l-.21-.2a.076.076 0 01.042-.129l.29-.043a.075.075 0 00.057-.041l.129-.263a.075.075 0 01.135 0l.13.263a.075.075 0 00.057.041l.29.042a.075.075 0 01.042.129l-.209.205a.077.077 0 00-.022.067l.05.289a.075.075 0 01-.109.08l-.259-.136a.075.075 0 00-.07 0l-.176.093a39.356 39.356 0 007.277 7.977c5 4.272 11.209 7.353 18.3 7.353s12.507-3.571 17.511-7.843a28.379 28.379 0 008.625-11.7.077.077 0 01-.026-.018zm-55.31-8.886l-.078.076a.028.028 0 00-.008.025l.018.107a.028.028 0 01-.04.029l-.1-.05a.029.029 0 00-.026 0l-.1.051a.028.028 0 01-.041-.029l.018-.107a.027.027 0 00-.008-.025l-.078-.076a.028.028 0 01.015-.048l.107-.016a.027.027 0 00.021-.015l.048-.1a.028.028 0 01.05 0l.048.1a.028.028 0 00.021.015l.107.016a.028.028 0 01.026.048zm3.349 8.54l-.077.076a.029.029 0 00-.008.025l.019.107a.028.028 0 01-.041.029l-.1-.05a.028.028 0 00-.026 0l-.1.051a.028.028 0 01-.04-.029l.018-.107a.027.027 0 00-.008-.025l-.078-.076a.028.028 0 01.015-.048l.107-.016a.029.029 0 00.021-.015l.048-.1a.028.028 0 01.05 0l.048.1a.029.029 0 00.021.015l.107.016a.028.028 0 01.024.049zm.909-13.615l-.078.076a.029.029 0 00-.008.025l.019.107a.028.028 0 01-.04.029l-.1-.05a.028.028 0 00-.026 0l-.1.051a.028.028 0 01-.04-.029l.018-.107a.028.028 0 00-.008-.025l-.078-.076a.028.028 0 01.016-.048l.107-.016a.027.027 0 00.021-.015l.048-.1a.028.028 0 01.05 0l.048.1a.028.028 0 00.021.015l.107.016a.028.028 0 01.024.047zm1.369 5.076l-.078.076a.028.028 0 00-.008.025l.019.107a.028.028 0 01-.04.029l-.1-.05a.028.028 0 00-.026 0l-.1.051a.028.028 0 01-.041-.029l.018-.107a.028.028 0 00-.008-.025l-.078-.076a.028.028 0 01.016-.048l.107-.016a.027.027 0 00.021-.015l.048-.1a.028.028 0 01.05 0l.048.1a.027.027 0 00.021.015l.107.016a.028.028 0 01.024.047zm1.844-10.328l-.1-.05a.029.029 0 00-.026 0l-.1.051a.028.028 0 01-.041-.029l.018-.107a.028.028 0 00-.008-.025l-.078-.076a.028.028 0 01.016-.048l.107-.016a.027.027 0 00.021-.015l.048-.1a.028.028 0 01.05 0l.048.1a.028.028 0 00.021.015l.107.016a.028.028 0 01.016.048l-.078.076a.028.028 0 00-.008.025l.018.107a.028.028 0 01-.031.028zm.548 27.568l-.078.076a.028.028 0 00-.008.025l.018.107a.028.028 0 01-.04.03l-.1-.051a.029.029 0 00-.026 0l-.1.051a.028.028 0 01-.041-.03l.018-.107a.027.027 0 00-.008-.025l-.078-.076a.028.028 0 01.015-.048l.108-.016a.028.028 0 00.021-.015l.048-.1a.028.028 0 01.05 0l.048.1a.028.028 0 00.021.015l.108.015a.028.028 0 01.024.05zm.451-9.425l-.078.076a.028.028 0 00-.008.025l.019.107a.028.028 0 01-.041.029l-.1-.05a.028.028 0 00-.026 0l-.1.051a.028.028 0 01-.04-.029l.018-.107a.029.029 0 00-.008-.025l-.078-.076a.028.028 0 01.015-.048l.107-.016a.027.027 0 00.021-.015l.048-.1a.028.028 0 01.05 0l.048.1a.028.028 0 00.021.015l.108.016a.028.028 0 01.023.046zm1.144 4.431l-.072.07a.026.026 0 00-.007.023l.017.1a.026.026 0 01-.037.027l-.089-.047a.026.026 0 00-.024 0l-.089.047a.026.026 0 01-.038-.027l.017-.1a.025.025 0 00-.007-.023l-.072-.07a.026.026 0 01.014-.044l.1-.015a.026.026 0 00.02-.014l.044-.09a.026.026 0 01.046 0l.045.09a.026.026 0 00.02.014l.1.014a.026.026 0 01.011.04zm.622-23.4l-.072.07a.026.026 0 00-.007.023l.017.1a.026.026 0 01-.038.027l-.089-.047a.025.025 0 00-.024 0l-.089.047a.026.026 0 01-.037-.027l.017-.1a.027.027 0 00-.007-.023l-.072-.07a.026.026 0 01.014-.044l.1-.015a.026.026 0 00.02-.014l.044-.09a.026.026 0 01.046 0l.045.09a.025.025 0 00.02.014l.1.014a.026.026 0 01.011.048zm.778 11.367l-.078.076a.027.027 0 00-.008.025l.019.107a.028.028 0 01-.041.03l-.1-.05a.027.027 0 00-.026 0l-.1.051a.028.028 0 01-.041-.029l.018-.107a.028.028 0 00-.008-.025l-.078-.076a.028.028 0 01.015-.048l.108-.016a.029.029 0 00.021-.015l.048-.1a.028.028 0 01.05 0l.048.1a.028.028 0 00.021.015l.107.015a.028.028 0 01.024.05zm.945-4.89l-.072.07a.027.027 0 00-.007.023l.017.1a.026.026 0 01-.037.027l-.089-.047a.026.026 0 00-.024 0l-.089.047a.026.026 0 01-.038-.027l.017-.1a.027.027 0 00-.008-.023l-.072-.07a.026.026 0 01.014-.044l.1-.015a.026.026 0 00.019-.014l.044-.09a.026.026 0 01.047 0l.044.09a.026.026 0 00.02.014l.1.014a.026.026 0 01.013.048zm.848 8.47l-.072.071a.025.025 0 00-.008.023l.017.1a.026.026 0 01-.037.027l-.089-.047a.026.026 0 00-.024 0l-.089.047a.026.026 0 01-.037-.027l.017-.1a.026.026 0 00-.008-.023l-.072-.07a.026.026 0 01.014-.044l.1-.015a.026.026 0 00.02-.014l.044-.09a.026.026 0 01.046 0l.045.09a.025.025 0 00.019.014l.1.014a.026.026 0 01.013.047zm0-11.556l-.078.076a.027.027 0 00-.008.025l.018.107a.028.028 0 01-.04.03l-.1-.05a.028.028 0 00-.026 0l-.1.051a.028.028 0 01-.041-.029l.018-.107a.029.029 0 00-.008-.025l-.078-.076a.028.028 0 01.015-.048l.108-.016a.029.029 0 00.021-.015l.048-.1a.028.028 0 01.05 0l.048.1a.027.027 0 00.021.015l.107.015a.029.029 0 01.026.051zm.278-12.658a.026.026 0 01-.037-.027l.017-.1a.025.025 0 00-.008-.023l-.072-.07a.026.026 0 01.014-.044l.1-.015a.026.026 0 00.019-.014l.044-.09a.026.026 0 01.046 0l.045.09a.025.025 0 00.019.014l.1.014a.026.026 0 01.014.044l-.072.071a.025.025 0 00-.007.023l.017.1a.026.026 0 01-.038.027l-.089-.047a.026.026 0 00-.024 0zm.123 4.03l.1-.015a.026.026 0 00.02-.014l.044-.09a.026.026 0 01.046 0l.045.09a.026.026 0 00.02.014l.1.014a.026.026 0 01.015.044l-.072.07a.026.026 0 00-.007.023l.017.1a.026.026 0 01-.037.027l-.089-.047a.026.026 0 00-.024 0l-.089.047a.026.026 0 01-.038-.027l.017-.1a.026.026 0 00-.008-.023l-.072-.07a.026.026 0 01.013-.04zm.092 33.344a.026.026 0 01-.037-.027l.017-.1a.025.025 0 00-.008-.023l-.072-.07a.026.026 0 01.014-.044l.1-.015a.026.026 0 00.02-.014l.044-.09a.026.026 0 01.046 0l.044.09a.026.026 0 00.02.014l.1.014a.026.026 0 01.014.044l-.072.071a.025.025 0 00-.007.023l.017.1a.026.026 0 01-.037.027l-.089-.047a.027.027 0 00-.024 0zm.51 4.074l-.072.07a.027.027 0 00-.008.023l.017.1a.026.026 0 01-.037.027l-.089-.047a.026.026 0 00-.024 0l-.089.047a.026.026 0 01-.038-.027l.017-.1a.027.027 0 00-.007-.023l-.072-.07a.026.026 0 01.014-.044l.1-.015a.025.025 0 00.019-.014l.045-.09a.026.026 0 01.046 0l.045.09a.025.025 0 00.02.014l.1.014a.026.026 0 01.014.047zm.126-29.575l.017.1a.026.026 0 01-.037.027l-.089-.047a.024.024 0 00-.024 0l-.089.047a.026.026 0 01-.037-.027l.017-.1a.026.026 0 00-.008-.023l-.072-.07a.026.026 0 01.014-.044l.1-.015a.026.026 0 00.02-.014l.044-.091a.026.026 0 01.047 0l.045.09a.026.026 0 00.02.014l.1.014a.026.026 0 01.014.044l-.072.07a.027.027 0 00-.011.027zm.494 19.482l-.072.071a.026.026 0 00-.007.023l.017.1a.026.026 0 01-.038.027l-.089-.047a.027.027 0 00-.024 0l-.089.047a.026.026 0 01-.038-.027l.017-.1a.026.026 0 00-.007-.023l-.072-.07a.026.026 0 01.014-.044l.1-.015a.026.026 0 00.019-.014l.044-.09a.026.026 0 01.046 0l.045.09a.026.026 0 00.019.014l.1.014a.026.026 0 01.02.046zm.526-.948l-.078.076a.029.029 0 00-.008.025l.019.107a.028.028 0 01-.041.029l-.1-.05a.028.028 0 00-.026 0l-.1.051a.028.028 0 01-.04-.03l.018-.107a.029.029 0 00-.008-.025l-.078-.076a.028.028 0 01.015-.048l.108-.016a.028.028 0 00.021-.015l.048-.1a.028.028 0 01.05 0l.048.1a.028.028 0 00.021.015l.108.016a.028.028 0 01.025.05zm.22-3.64l-.072.07a.025.025 0 00-.007.023l.017.1a.026.026 0 01-.037.027l-.089-.047a.027.027 0 00-.024 0l-.089.047a.026.026 0 01-.037-.027l.017-.1a.026.026 0 00-.007-.023l-.072-.07a.026.026 0 01.014-.044l.1-.015a.025.025 0 00.02-.014l.045-.09a.026.026 0 01.046 0l.045.09a.025.025 0 00.019.014l.1.014a.026.026 0 01.014.047zM43.05 28.41l-.089.047a.026.026 0 01-.038-.027l.017-.1a.026.026 0 00-.007-.023l-.072-.07a.026.026 0 01.014-.044l.1-.015a.026.026 0 00.019-.014l.044-.091a.026.026 0 01.046 0l.045.09a.027.027 0 00.02.014l.1.014a.026.026 0 01.015.044l-.072.071a.025.025 0 00-.007.023l.017.1a.026.026 0 01-.038.027l-.089-.047a.025.025 0 00-.023.003zm.427 37.2l-.072.07a.026.026 0 00-.008.023l.017.1a.026.026 0 01-.037.027l-.089-.047a.026.026 0 00-.024 0l-.089.047a.026.026 0 01-.038-.027l.017-.1a.026.026 0 00-.007-.023l-.072-.071a.026.026 0 01.014-.044l.1-.015a.026.026 0 00.02-.014l.044-.09a.026.026 0 01.046 0l.045.09a.026.026 0 00.02.014l.1.015a.026.026 0 01.016.047zm1.106-16.078l-.072.07a.026.026 0 00-.008.023l.017.1a.026.026 0 01-.038.027l-.089-.047a.025.025 0 00-.024 0l-.089.047a.026.026 0 01-.037-.027l.017-.1a.026.026 0 00-.007-.023l-.072-.07a.026.026 0 01.014-.044l.1-.015a.026.026 0 00.02-.014l.044-.091a.026.026 0 01.046 0l.045.09a.026.026 0 00.02.014l.1.014a.026.026 0 01.016.048zm.834-24.714l-.089.047a.026.026 0 01-.038-.027l.017-.1a.027.027 0 00-.007-.023l-.072-.07a.026.026 0 01.014-.044l.1-.015a.025.025 0 00.019-.014l.044-.09a.026.026 0 01.046 0l.045.09a.025.025 0 00.019.014l.1.014a.026.026 0 01.014.044l-.072.07a.027.027 0 00-.008.023l.017.1a.026.026 0 01-.038.027l-.089-.047a.025.025 0 00-.019.003zm.089 37.393l.017-.1a.026.026 0 00-.007-.023l-.072-.07a.026.026 0 01.014-.044l.1-.015a.025.025 0 00.019-.014l.045-.091a.026.026 0 01.046 0l.045.09a.026.026 0 00.019.014l.1.014a.026.026 0 01.014.044l-.072.07a.026.026 0 00-.008.023l.017.1a.026.026 0 01-.037.027l-.089-.047a.025.025 0 00-.024 0l-.089.047a.026.026 0 01-.035-.022zm1.206 4.9l-.209.205a.076.076 0 00-.022.067l.05.289a.075.075 0 01-.109.08l-.259-.136a.076.076 0 00-.07 0l-.259.137a.075.075 0 01-.109-.079l.049-.29a.076.076 0 00-.022-.067l-.21-.2a.076.076 0 01.041-.129l.29-.042a.076.076 0 00.057-.041l.129-.264a.075.075 0 01.135 0l.13.263a.076.076 0 00.057.041l.29.042a.075.075 0 01.044.125zm.067-30l-.209.205a.076.076 0 00-.022.067l.05.289a.075.075 0 01-.109.08l-.259-.136a.075.075 0 00-.07 0l-.259.137a.075.075 0 01-.109-.079l.049-.289a.077.077 0 00-.022-.067l-.21-.2a.075.075 0 01.042-.129l.29-.043a.076.076 0 00.057-.042l.129-.263a.075.075 0 01.135 0l.13.263a.076.076 0 00.057.041l.29.042a.075.075 0 01.043.129zm.621-1.512l-.072.047c-.015.01-.033-.006-.03-.027l.014-.1a.03.03 0 00-.006-.023l-.058-.071a.028.028 0 01.011-.044l.08-.014a.022.022 0 00.016-.014l.036-.09a.019.019 0 01.037 0l.036.09a.022.022 0 00.016.014l.08.015a.028.028 0 01.011.044l-.058.07a.03.03 0 00-.006.023l.014.1c0 .021-.015.037-.03.027l-.072-.047a.017.017 0 00-.016.005zm.387 37.2l-.058.07a.029.029 0 00-.006.023l.014.1c0 .021-.015.037-.03.027l-.072-.047a.018.018 0 00-.02 0l-.072.047c-.015.01-.033-.006-.03-.027l.014-.1a.029.029 0 00-.006-.023l-.058-.07a.028.028 0 01.012-.044l.08-.014a.021.021 0 00.016-.014l.036-.09a.019.019 0 01.037 0l.036.09a.022.022 0 00.016.014l.08.015a.028.028 0 01.014.049zm1.109-25.433l-.072.07a.025.025 0 00-.007.023l.017.1a.026.026 0 01-.038.027l-.089-.047a.026.026 0 00-.024 0l-.089.047a.026.026 0 01-.037-.027l.017-.1a.026.026 0 00-.007-.023l-.072-.07a.026.026 0 01.014-.044l.1-.015a.026.026 0 00.019-.014l.044-.09a.026.026 0 01.047 0l.045.09a.026.026 0 00.019.014l.1.014a.027.027 0 01.016.052zm.533-22.337l-.089.047a.026.026 0 01-.037-.027l.017-.1a.026.026 0 00-.007-.023l-.072-.07a.026.026 0 01.014-.044l.1-.015a.026.026 0 00.019-.014l.044-.091a.026.026 0 01.047 0l.044.09a.026.026 0 00.02.014l.1.014a.026.026 0 01.014.044l-.072.071a.026.026 0 00-.007.023l.017.1a.026.026 0 01-.037.027l-.089-.047a.026.026 0 00-.025.007zm.428 37.2l-.072.07a.027.027 0 00-.007.023l.017.1a.026.026 0 01-.037.027l-.089-.047a.026.026 0 00-.024 0l-.089.047a.026.026 0 01-.038-.027l.017-.1a.026.026 0 00-.008-.023l-.072-.07a.026.026 0 01.014-.044l.1-.015a.027.027 0 00.02-.014l.044-.091a.026.026 0 01.046 0l.045.09a.026.026 0 00.02.014l.1.014a.028.028 0 01.016.053zm.052-33.389l.1-.015a.026.026 0 00.02-.014l.044-.09a.026.026 0 01.046 0l.045.09a.025.025 0 00.02.014l.1.014a.026.026 0 01.014.044l-.072.071a.025.025 0 00-.007.023l.017.1a.026.026 0 01-.037.027l-.089-.047a.026.026 0 00-.024 0l-.089.047a.026.026 0 01-.037-.027l.017-.1a.026.026 0 00-.007-.023l-.072-.07a.026.026 0 01.014-.037zm.092 26.656a.026.026 0 01-.037-.027l.017-.1a.026.026 0 00-.008-.023l-.072-.07a.026.026 0 01.014-.044l.1-.015a.025.025 0 00.019-.014l.044-.09a.026.026 0 01.046 0l.045.09a.026.026 0 00.019.014l.1.014a.026.026 0 01.014.044l-.072.07a.026.026 0 00-.007.023l.017.1a.026.026 0 01-.037.027l-.089-.047a.026.026 0 00-.024 0zm.51 10.761l-.072.071a.025.025 0 00-.007.023l.017.1a.026.026 0 01-.037.027l-.089-.047a.025.025 0 00-.024 0l-.089.047a.026.026 0 01-.038-.027l.017-.1a.025.025 0 00-.007-.023l-.072-.07a.026.026 0 01.014-.044l.1-.015a.026.026 0 00.019-.014l.044-.09a.026.026 0 01.046 0l.045.09a.025.025 0 00.019.014l.1.014a.027.027 0 01.017.051zm.854-24.5l-.072.071a.026.026 0 00-.007.023l.017.1a.026.026 0 01-.037.027l-.089-.047a.027.027 0 00-.024 0l-.089.047a.026.026 0 01-.038-.027l.017-.1a.026.026 0 00-.008-.023l-.072-.07a.026.026 0 01.014-.044l.1-.015a.026.026 0 00.02-.014l.044-.09a.026.026 0 01.046 0l.045.09a.026.026 0 00.02.014l.1.014a.026.026 0 01.017.05zm1.238-18.021l-.089.047a.026.026 0 01-.038-.027l.017-.1a.026.026 0 00-.008-.023l-.072-.07a.026.026 0 01.014-.044l.1-.014a.026.026 0 00.019-.014l.044-.09a.026.026 0 01.046 0l.045.09a.026.026 0 00.02.014l.1.014a.026.026 0 01.015.044l-.072.07a.027.027 0 00-.007.023l.017.1a.026.026 0 01-.037.027l-.089-.047a.026.026 0 00-.021.006zm.428 37.2l-.072.07a.025.025 0 00-.008.023l.017.1a.026.026 0 01-.037.027l-.089-.047a.025.025 0 00-.024 0l-.089.047a.026.026 0 01-.037-.027l.017-.1a.026.026 0 00-.007-.023l-.072-.07a.026.026 0 01.014-.044l.1-.015a.026.026 0 00.019-.014l.045-.09a.026.026 0 01.046 0l.045.09a.026.026 0 00.02.014l.1.014a.026.026 0 01.011.051zm.534-4.318l-.072.07a.026.026 0 00-.007.023l.017.1a.026.026 0 01-.037.028l-.089-.047a.026.026 0 00-.024 0l-.089.047a.026.026 0 01-.038-.027l.017-.1a.027.027 0 00-.007-.023l-.072-.07a.026.026 0 01.014-.044l.1-.015a.026.026 0 00.019-.014l.044-.09a.026.026 0 01.046 0l.045.09a.025.025 0 00.019.014l.1.014a.027.027 0 01.018.05zm10.535-30.5l.1-.015a.026.026 0 00.02-.014l.044-.091a.026.026 0 01.046 0l.045.09a.027.027 0 00.02.014l.1.014a.026.026 0 01.014.044l-.072.07a.026.026 0 00-.007.023l.017.1a.026.026 0 01-.037.027l-.089-.047a.026.026 0 00-.024 0l-.089.047a.026.026 0 01-.037-.027l.017-.1a.027.027 0 00-.008-.023l-.072-.07a.026.026 0 01.016-.036zm-.209 8.863l.1-.015a.026.026 0 00.02-.014l.044-.091a.026.026 0 01.046 0l.044.09a.027.027 0 00.02.014l.1.014a.026.026 0 01.014.044l-.072.07a.026.026 0 00-.007.023l.017.1a.026.026 0 01-.037.027l-.089-.047a.026.026 0 00-.024 0l-.089.047a.026.026 0 01-.038-.027l.017-.1a.024.024 0 00-.008-.023l-.072-.07a.026.026 0 01.018-.034zm-9.4.417l-.089.047a.026.026 0 01-.037-.027l.017-.1a.026.026 0 00-.008-.023l-.072-.07a.026.026 0 01.014-.044l.1-.015a.026.026 0 00.019-.014l.044-.09a.026.026 0 01.047 0l.044.09a.026.026 0 00.02.014l.1.014a.026.026 0 01.014.044l-.072.07a.027.027 0 00-.007.023l.017.1a.026.026 0 01-.038.027l-.089-.047a.026.026 0 00-.017.007zm.428 37.2l-.072.07a.026.026 0 00-.007.023l.017.1a.026.026 0 01-.037.027l-.089-.047a.026.026 0 00-.024 0l-.089.047a.026.026 0 01-.037-.027l.017-.1a.026.026 0 00-.007-.023l-.072-.07a.026.026 0 01.014-.044l.1-.015a.026.026 0 00.02-.014l.044-.09a.026.026 0 01.046 0l.045.09a.026.026 0 00.02.014l.1.014a.028.028 0 01.022.051zm.848-44.61l.1-.015a.026.026 0 00.02-.014l.044-.09a.026.026 0 01.046 0l.045.09a.026.026 0 00.02.014l.1.014a.026.026 0 01.015.044l-.072.07a.026.026 0 00-.007.023l.017.1a.026.026 0 01-.038.027l-.089-.047a.026.026 0 00-.024 0l-.089.047a.026.026 0 01-.038-.027l.017-.1a.026.026 0 00-.008-.023l-.072-.07a.026.026 0 01.019-.037zm.092 24.471a.026.026 0 01-.037-.027l.017-.1a.026.026 0 00-.008-.023l-.072-.07a.026.026 0 01.014-.044l.1-.015a.025.025 0 00.019-.014l.044-.09a.026.026 0 01.046 0l.045.09a.026.026 0 00.019.014l.1.014a.026.026 0 01.015.044l-.072.07a.026.026 0 00-.007.023l.017.1a.026.026 0 01-.037.028l-.089-.047a.025.025 0 00-.024 0zm.51 12.946l-.072.071a.026.026 0 00-.007.023l.017.1a.026.026 0 01-.037.027l-.089-.047a.026.026 0 00-.024 0l-.089.047a.026.026 0 01-.037-.027l.017-.1a.026.026 0 00-.008-.023l-.072-.07a.026.026 0 01.014-.044l.1-.015a.026.026 0 00.019-.014l.044-.09a.026.026 0 01.046 0l.045.09a.025.025 0 00.019.014l.1.014a.027.027 0 01.021.05zm.9-17.839l-.072.07a.026.026 0 00-.007.023l.017.1a.026.026 0 01-.037.027l-.089-.047a.025.025 0 00-.024 0l-.089.047a.026.026 0 01-.038-.027l.017-.1a.026.026 0 00-.007-.023l-.072-.07a.026.026 0 01.014-.044l.1-.015a.026.026 0 00.019-.014l.044-.091a.026.026 0 01.047 0l.044.09a.026.026 0 00.02.014l.1.014a.029.029 0 01.023.053zm3.1 7.909l-.072.07a.027.027 0 00-.008.023l.017.1a.026.026 0 01-.037.027l-.089-.047a.025.025 0 00-.024 0l-.089.047a.026.026 0 01-.037-.027l.017-.1a.027.027 0 00-.008-.023l-.072-.07a.026.026 0 01.014-.044l.1-.015a.025.025 0 00.019-.014l.045-.09a.026.026 0 01.046 0l.045.09a.027.027 0 00.02.014l.1.014a.03.03 0 01.026.052zm1.716-12.552l.1-.015a.026.026 0 00.019-.014l.044-.091a.026.026 0 01.046 0l.045.09a.026.026 0 00.02.014l.1.014a.026.026 0 01.014.044l-.072.07a.026.026 0 00-.007.023l.017.1a.026.026 0 01-.037.027l-.089-.047a.026.026 0 00-.024 0l-.089.047a.026.026 0 01-.037-.027l.017-.1a.026.026 0 00-.007-.023l-.072-.07a.026.026 0 01.025-.035zm.394 4.643l-.072.07a.026.026 0 00-.007.023l.017.1a.026.026 0 01-.037.027l-.089-.047a.025.025 0 00-.024 0l-.089.047a.026.026 0 01-.037-.027l.017-.1a.026.026 0 00-.007-.023l-.072-.07a.026.026 0 01.014-.044l.1-.015a.025.025 0 00.02-.014l.044-.091a.026.026 0 01.046 0l.045.09a.026.026 0 00.02.014l.1.014a.03.03 0 01.024.053zm.487-18.662a.075.075 0 01-.109-.079l.049-.289a.075.075 0 00-.022-.067l-.21-.2a.076.076 0 01.042-.129l.29-.043a.077.077 0 00.057-.042l.129-.263a.075.075 0 01.135 0l.13.263a.075.075 0 00.057.041l.29.042a.075.075 0 01.042.129l-.209.205a.076.076 0 00-.021.067l.05.289a.075.075 0 01-.109.08l-.26-.136a.075.075 0 00-.07 0zm.867 38.219l-.259.137a.075.075 0 01-.109-.079l.049-.289a.076.076 0 00-.022-.067l-.21-.2a.076.076 0 01.042-.129l.29-.043a.075.075 0 00.057-.041l.129-.264a.075.075 0 01.135 0l.13.263a.075.075 0 00.057.041l.29.042a.076.076 0 01.042.129l-.209.205a.076.076 0 00-.022.067l.05.289a.075.075 0 01-.109.08l-.26-.136a.075.075 0 00-.058.002zm.652 5.274l-.072.07a.025.025 0 00-.007.023l.017.1a.026.026 0 01-.037.027l-.089-.046a.024.024 0 00-.024 0l-.089.047a.026.026 0 01-.037-.027l.017-.1a.025.025 0 00-.007-.023l-.072-.07a.026.026 0 01.014-.044l.1-.015a.026.026 0 00.02-.014l.044-.091a.026.026 0 01.046 0l.045.09a.025.025 0 00.019.014l.1.015a.028.028 0 01.025.051zm.209-8.863l-.072.071a.026.026 0 00-.007.023l.017.1a.026.026 0 01-.038.027l-.089-.047a.026.026 0 00-.024 0l-.089.047a.026.026 0 01-.038-.027l.017-.1a.027.027 0 00-.007-.023l-.072-.07a.026.026 0 01.014-.044l.1-.015a.026.026 0 00.019-.014l.044-.09a.026.026 0 01.046 0l.045.09a.025.025 0 00.02.014l.1.014a.029.029 0 01.026.051zm.209-4.917l-.072.071a.026.026 0 00-.007.023l.017.1a.026.026 0 01-.037.027l-.089-.047a.026.026 0 00-.024 0l-.089.047a.026.026 0 01-.038-.027l.017-.1a.025.025 0 00-.008-.023l-.072-.07a.026.026 0 01.014-.044l.1-.015a.027.027 0 00.02-.014l.044-.09a.026.026 0 01.046 0l.045.09a.026.026 0 00.02.014l.1.014a.028.028 0 01.025.051zm2.564-10.851l-.072.07a.027.027 0 00-.007.023l.017.1a.026.026 0 01-.037.027l-.089-.047a.026.026 0 00-.024 0l-.089.047a.026.026 0 01-.038-.027l.017-.1a.026.026 0 00-.008-.023l-.072-.07a.026.026 0 01.014-.044l.1-.015a.027.027 0 00.02-.014l.044-.091a.026.026 0 01.046 0l.045.09a.026.026 0 00.02.014l.1.014a.03.03 0 01.026.053zm.357-16.455l-.089.047a.026.026 0 01-.037-.027l.017-.1a.025.025 0 00-.007-.023l-.072-.07a.026.026 0 01.014-.044l.1-.015a.026.026 0 00.02-.014l.044-.09a.026.026 0 01.046 0l.045.09a.025.025 0 00.019.014l.1.014a.026.026 0 01.014.044l-.072.07a.026.026 0 00-.007.023l.017.1a.026.026 0 01-.037.027l-.089-.047a.027.027 0 00-.013.008zm.428 37.2l-.072.071a.025.025 0 00-.007.023l.017.1a.026.026 0 01-.037.027l-.089-.047a.025.025 0 00-.024 0l-.089.047a.026.026 0 01-.038-.027l.017-.1a.026.026 0 00-.008-.023l-.072-.07a.026.026 0 01.014-.044l.1-.015a.026.026 0 00.019-.014l.044-.09a.026.026 0 01.047 0l.044.09a.026.026 0 00.02.014l.1.014a.03.03 0 01.027.052zm.862-30.89l-.072.07a.026.026 0 00-.007.023l.017.1a.026.026 0 01-.037.027l-.089-.047a.026.026 0 00-.024 0l-.089.047a.026.026 0 01-.037-.027l.017-.1a.026.026 0 00-.008-.023l-.072-.07a.026.026 0 01.014-.044l.1-.015a.027.027 0 00.02-.014l.044-.09a.026.026 0 01.046 0l.045.09a.026.026 0 00.02.014l.1.014a.03.03 0 01.028.053zm.555 24.7l-.072.07a.026.026 0 00-.007.023l.017.1a.026.026 0 01-.037.027l-.089-.047a.025.025 0 00-.024 0l-.089.047a.026.026 0 01-.037-.027l.017-.1a.027.027 0 00-.008-.023l-.072-.07a.026.026 0 01.014-.044l.1-.015a.026.026 0 00.02-.014l.044-.09a.026.026 0 01.047 0l.044.09a.027.027 0 00.02.014l.1.014a.032.032 0 01.025.058zm.622-23.4l-.072.071a.026.026 0 00-.007.023l.017.1a.026.026 0 01-.037.027l-.089-.047a.027.027 0 00-.024 0l-.089.047a.026.026 0 01-.038-.027l.017-.1a.027.027 0 00-.008-.023l-.072-.07a.026.026 0 01.014-.044l.1-.015a.026.026 0 00.02-.014l.044-.09a.026.026 0 01.047 0l.044.09a.027.027 0 00.02.014l.1.014a.032.032 0 01.026.059zm.831 17.888l-.072.071a.026.026 0 00-.008.023l.017.1a.026.026 0 01-.037.027l-.089-.047a.025.025 0 00-.024 0l-.089.047a.026.026 0 01-.037-.027l.017-.1a.027.027 0 00-.007-.023l-.072-.07a.026.026 0 01.014-.044l.1-.015a.026.026 0 00.02-.014l.044-.091a.026.026 0 01.046 0l.045.09a.026.026 0 00.02.014l.1.014a.032.032 0 01.02.06zm.892-11.41l-.072.07a.025.025 0 00-.007.023l.017.1a.026.026 0 01-.037.027l-.089-.047a.025.025 0 00-.024 0l-.089.047a.026.026 0 01-.037-.027l.017-.1a.026.026 0 00-.007-.023l-.072-.07a.026.026 0 01.014-.044l.1-.015a.026.026 0 00.019-.014l.044-.091a.026.026 0 01.046 0l.045.09a.025.025 0 00.019.014l.1.015a.033.033 0 01.029.06zm.848 8.47l-.072.07a.027.027 0 00-.007.023l.017.1a.026.026 0 01-.037.027l-.089-.047a.025.025 0 00-.024 0l-.089.047a.026.026 0 01-.037-.027l.017-.1a.025.025 0 00-.007-.023l-.072-.071a.026.026 0 01.014-.044l.1-.015a.025.025 0 00.02-.014l.044-.09a.026.026 0 01.046 0l.045.09a.027.027 0 00.02.014l.1.014a.035.035 0 01.024.066zm.28-24.214a.026.026 0 01-.038-.027l.017-.1a.026.026 0 00-.008-.023l-.072-.07a.026.026 0 01.014-.044l.1-.015a.026.026 0 00.02-.014l.044-.09a.026.026 0 01.046 0l.045.09a.026.026 0 00.019.014l.1.014a.026.026 0 01.015.044l-.072.07a.027.027 0 00-.007.023l.017.1a.026.026 0 01-.037.027l-.089-.047a.026.026 0 00-.024 0zm.123 4.03l.1-.015a.026.026 0 00.019-.014l.044-.091a.026.026 0 01.046 0l.045.09a.025.025 0 00.019.014l.1.014a.026.026 0 01.015.044l-.072.07a.025.025 0 00-.007.023l.017.1a.026.026 0 01-.037.027l-.089-.047a.025.025 0 00-.024 0l-.089.047a.026.026 0 01-.038-.027l.017-.1a.025.025 0 00-.008-.023l-.072-.07a.026.026 0 01.026-.027zm.394 33.123l-.072.07a.026.026 0 00-.008.023l.017.1a.026.026 0 01-.037.027l-.089-.047a.025.025 0 00-.024 0l-.089.047a.026.026 0 01-.038-.027l.017-.1a.025.025 0 00-.007-.023l-.072-.07a.026.026 0 01.014-.044l.1-.015a.026.026 0 00.019-.014l.045-.091a.026.026 0 01.046 0l.045.09a.026.026 0 00.019.014l.1.014a.033.033 0 01.026.061zm.335-25.281l.017.1a.026.026 0 01-.037.027l-.089-.047a.025.025 0 00-.024 0l-.089.047a.026.026 0 01-.037-.027l.017-.1a.026.026 0 00-.008-.023l-.072-.07a.026.026 0 01.014-.044l.1-.015a.025.025 0 00.019-.014l.044-.091a.026.026 0 01.047 0l.044.09a.026.026 0 00.02.014l.1.014a.026.026 0 01.014.044l-.072.071a.026.026 0 00.004.039zm.494 19.482l-.072.07a.026.026 0 00-.007.023l.017.1a.026.026 0 01-.037.027l-.089-.047a.026.026 0 00-.024 0l-.089.047a.026.026 0 01-.038-.027l.017-.1a.026.026 0 00-.008-.023l-.072-.07a.026.026 0 01.014-.044l.1-.015a.026.026 0 00.019-.014l.044-.09a.026.026 0 01.047 0l.044.09a.026.026 0 00.019.014l.1.014a.033.033 0 01.028.06zm.746-4.588l-.072.07a.026.026 0 00-.007.023l.017.1a.026.026 0 01-.037.027l-.089-.047a.026.026 0 00-.024 0l-.089.047a.026.026 0 01-.038-.027l.017-.1a.026.026 0 00-.007-.023l-.072-.07a.026.026 0 01.014-.044l.1-.015a.026.026 0 00.019-.014l.044-.09a.026.026 0 01.046 0l.045.09a.026.026 0 00.02.014l.1.014a.033.033 0 01.026.06zm.888-18.736l-.209.205a.075.075 0 00-.022.067l.05.289a.075.075 0 01-.109.08l-.26-.136a.075.075 0 00-.07 0l-.259.137a.075.075 0 01-.109-.079l.049-.29a.075.075 0 00-.022-.067l-.21-.2a.076.076 0 01.042-.129l.29-.043a.075.075 0 00.057-.041l.129-.264a.075.075 0 01.135 0l.13.263a.074.074 0 00.057.041l.29.042a.075.075 0 01.049.14zm3.125 13.874l-.072.071a.027.027 0 00-.007.023l.017.1a.026.026 0 01-.037.027l-.089-.047a.026.026 0 00-.024 0l-.089.047a.026.026 0 01-.037-.027l.017-.1a.026.026 0 00-.007-.023l-.072-.07a.026.026 0 01.014-.044l.1-.015a.025.025 0 00.019-.014l.044-.091a.026.026 0 01.047 0l.044.09a.026.026 0 00.02.014l.1.014a.032.032 0 01.024.06z"/><path class="g" d="M35.351 32.124a.028.028 0 01.008-.025l.078-.076a.028.028 0 00-.016-.048l-.107-.015a.027.027 0 01-.021-.015l-.048-.1a.028.028 0 00-.05 0l-.048.1a.028.028 0 01-.021.015l-.107.016a.028.028 0 00-.016.048l.078.075a.029.029 0 01.008.025l-.018.107a.028.028 0 00.041.029l.1-.051a.028.028 0 01.026 0l.1.05a.028.028 0 00.041-.03zM29.901 33.993l-.018.107a.028.028 0 00.041.03l.1-.051a.029.029 0 01.026 0l.1.051a.028.028 0 00.041-.029l-.019-.107a.029.029 0 01.008-.025l.077-.076a.028.028 0 00-.015-.048l-.107-.016a.027.027 0 01-.021-.015l-.048-.1a.028.028 0 00-.05 0l-.048.1a.027.027 0 01-.021.015h-.028l-.065.089.048.047a.028.028 0 01-.001.028zM38.188 40.24l-.108-.016a.027.027 0 01-.021-.015l-.048-.1a.028.028 0 00-.05 0l-.048.1a.028.028 0 01-.021.015l-.107.016a.028.028 0 00-.015.047l.078.076a.028.028 0 01.008.025l-.018.107a.028.028 0 00.041.03l.1-.051a.029.029 0 01.026 0l.1.051a.028.028 0 00.04-.03l-.018-.107a.027.027 0 01.008-.025l.078-.076a.028.028 0 00-.025-.047zM29.639 42.926l-.107-.016a.027.027 0 01-.021-.015l-.048-.1a.028.028 0 00-.05 0l-.048.1a.027.027 0 01-.021.015l-.108.016a.028.028 0 00-.015.048l.078.075a.029.029 0 01.008.025l-.018.107a.028.028 0 00.041.029l.1-.051a.029.029 0 01.026 0l.1.051a.028.028 0 00.041-.03l-.019-.108a.027.027 0 01.008-.024l.078-.077a.027.027 0 00-.025-.045zM73.336 33.814a.026.026 0 01.008.023l-.017.1a.026.026 0 00.037.027l.089-.047a.026.026 0 01.024 0l.089.047a.026.026 0 00.037-.028l-.017-.1a.027.027 0 01.008-.023l.072-.071a.026.026 0 00-.014-.044l-.1-.014a.026.026 0 01-.02-.014l-.045-.09a.026.026 0 00-.046 0l-.044.09a.026.026 0 01-.02.014l-.1.015a.026.026 0 00-.015.044zM70.29 38.891l-.1-.014a.025.025 0 01-.019-.014l-.045-.09a.026.026 0 00-.046 0l-.044.09a.024.024 0 01-.02.014l-.1.015a.026.026 0 00-.015.044l.072.07a.026.026 0 01.008.023l-.017.1a.026.026 0 00.037.027l.089-.047a.023.023 0 01.024 0l.089.046a.026.026 0 00.037-.027l-.017-.1a.026.026 0 01.008-.023l.072-.07a.026.026 0 00-.013-.044zM73.268 29.622l.089.047a.026.026 0 00.038-.027l-.017-.1a.024.024 0 01.007-.023l.072-.07a.026.026 0 00-.014-.044l-.1-.014a.025.025 0 01-.019-.014l-.045-.09a.026.026 0 00-.046 0l-.045.091a.025.025 0 01-.019.014l-.1.015a.026.026 0 00-.014.044l.072.07a.027.027 0 01.007.023l-.017.1a.026.026 0 00.037.027l.089-.047a.024.024 0 01.025-.002zM79.051 40.507a.026.026 0 00-.015-.044l-.1-.014a.026.026 0 01-.02-.014l-.045-.09a.025.025 0 00-.046 0l-.044.09a.027.027 0 01-.02.014l-.1.014a.026.026 0 00-.014.044l.072.07a.028.028 0 01.008.023l-.017.1a.026.026 0 00.037.028l.089-.047a.026.026 0 01.024 0l.09.046a.025.025 0 00.037-.027l-.017-.1a.028.028 0 01.008-.023zM75.442 47.729l-.1-.014a.026.026 0 01-.019-.014l-.045-.09a.026.026 0 00-.046 0l-.044.091a.026.026 0 01-.02.014l-.1.014a.026.026 0 00-.014.044l.072.07a.025.025 0 01.007.023l-.017.1a.026.026 0 00.038.028l.089-.047a.029.029 0 01.024 0l.089.047a.026.026 0 00.037-.028l-.017-.1a.025.025 0 01.007-.023l.072-.07a.026.026 0 00-.013-.045zM55.832 28.108a.026.026 0 01.008.023l-.017.1a.026.026 0 00.038.027l.089-.047a.026.026 0 01.024 0l.089.047a.026.026 0 00.038-.027l-.017-.1a.026.026 0 01.008-.023l.072-.071a.026.026 0 00-.014-.044l-.1-.014a.028.028 0 01-.02-.014l-.044-.09a.026.026 0 00-.047 0l-.044.09a.026.026 0 01-.02.014l-.1.015a.026.026 0 00-.014.044zM64.163 26.233a.027.027 0 01.007.023l-.017.1a.025.025 0 00.037.027l.089-.047a.026.026 0 01.024 0l.089.047a.026.026 0 00.037-.027l-.017-.1a.025.025 0 01.007-.023l.072-.071a.026.026 0 00-.014-.044l-.1-.014a.026.026 0 01-.02-.014l-.045-.09a.026.026 0 00-.046 0l-.044.09a.026.026 0 01-.02.014l-.1.015a.026.026 0 00-.014.044zM52.716 23.788a.026.026 0 00.038-.027l-.017-.1a.024.024 0 01.007-.023l.072-.07a.026.026 0 00-.015-.044l-.1-.015a.026.026 0 01-.02-.014l-.044-.091a.026.026 0 00-.046 0l-.044.091a.025.025 0 01-.02.014l-.1.015a.026.026 0 00-.014.044l.072.07a.026.026 0 01.008.023l-.017.1a.026.026 0 00.037.027l.089-.047a.026.026 0 01.024 0zM45.534 24.867a.026.026 0 00.037-.027l-.017-.1a.024.024 0 01.007-.023l.072-.071a.026.026 0 00-.014-.044l-.1-.014a.026.026 0 01-.019-.014l-.045-.09a.026.026 0 00-.046 0l-.044.09a.025.025 0 01-.019.014l-.1.015a.026.026 0 00-.014.044l.072.07a.028.028 0 01.007.023l-.017.1a.026.026 0 00.037.027l.089-.047a.025.025 0 01.024 0zM43.166 28.458a.026.026 0 00.038-.027l-.017-.1a.026.026 0 01.008-.023l.072-.071a.026.026 0 00-.015-.044l-.1-.014a.026.026 0 01-.02-.014l-.045-.09a.026.026 0 00-.046 0l-.044.091a.025.025 0 01-.02.014l-.1.015a.026.026 0 00-.015.044l.072.07a.026.026 0 01.008.023l-.017.1a.026.026 0 00.037.027l.089-.047a.027.027 0 01.025 0zM49.97 28.961a.027.027 0 01.007.023l-.017.1a.026.026 0 00.038.027l.089-.047a.027.027 0 01.024 0l.089.047a.026.026 0 00.038-.027l-.018-.1a.025.025 0 01.008-.023l.072-.071a.026.026 0 00-.014-.044l-.1-.014a.025.025 0 01-.019-.014l-.045-.09a.026.026 0 00-.046 0l-.044.091a.026.026 0 01-.019.014l-.1.015a.026.026 0 00-.014.044zM46.067 32.095a.025.025 0 01.008.023l-.017.1a.026.026 0 00.038.027l.089-.047a.026.026 0 01.024 0l.089.047a.026.026 0 00.038-.027l-.017-.1a.026.026 0 01.007-.023l.072-.07a.026.026 0 00-.015-.044l-.1-.014a.024.024 0 01-.019-.014l-.045-.09a.026.026 0 00-.046 0l-.044.09a.027.027 0 01-.02.014l-.1.015a.026.026 0 00-.014.044zM54.612 35.451a.026.026 0 00.037-.028l-.017-.1a.025.025 0 01.008-.023l.072-.07a.026.026 0 00-.014-.044l-.1-.014a.028.028 0 01-.02-.014l-.044-.091a.026.026 0 00-.046 0l-.044.091a.026.026 0 01-.02.014l-.1.015a.026.026 0 00-.015.044l.072.07a.025.025 0 01.008.023l-.017.1a.026.026 0 00.037.027l.089-.047a.026.026 0 01.024 0zM63.881 35.031l.072.07a.026.026 0 01.008.023l-.017.1a.026.026 0 00.037.027l.089-.047a.026.026 0 01.024 0l.089.047a.026.026 0 00.037-.027l-.017-.1a.027.027 0 01.008-.023l.072-.07a.026.026 0 00-.014-.044l-.1-.014a.027.027 0 01-.02-.014l-.045-.091a.026.026 0 00-.046 0l-.044.09a.027.027 0 01-.02.014l-.1.015a.026.026 0 00-.013.044zM47.525 35.624l-.013-.1a.03.03 0 01.006-.023l.058-.07a.028.028 0 00-.011-.044l-.08-.015a.021.021 0 01-.016-.014l-.036-.09a.019.019 0 00-.037 0l-.036.09a.022.022 0 01-.015.014l-.08.015a.028.028 0 00-.011.044l.058.071a.032.032 0 01.006.023l-.014.1c0 .021.015.037.03.027l.072-.047a.017.017 0 01.019 0l.071.047c.014.009.032-.007.029-.028zM67.95 31.365a.026.026 0 00.037-.027l-.017-.1a.027.027 0 01.008-.023l.072-.07a.026.026 0 00-.014-.044l-.1-.014a.026.026 0 01-.019-.014l-.044-.09a.026.026 0 00-.047 0l-.044.09a.027.027 0 01-.02.014l-.1.015a.026.026 0 00-.014.044l.072.07a.024.024 0 01.007.023l-.017.1a.026.026 0 00.037.027l.089-.047a.026.026 0 01.024 0zM35.615 36.852l-.1-.014a.026.026 0 01-.019-.014l-.045-.09a.026.026 0 00-.046 0l-.044.091a.025.025 0 01-.019.014l-.1.015a.026.026 0 00-.014.044l.072.07a.026.026 0 01.008.023l-.017.1a.026.026 0 00.037.027l.089-.047a.026.026 0 01.024 0l.089.047a.026.026 0 00.038-.028l-.017-.1a.026.026 0 01.007-.023l.072-.071a.026.026 0 00-.015-.044zM38.595 27.583l.089.047a.026.026 0 00.038-.027l-.017-.1a.025.025 0 01.007-.023l.072-.07a.026.026 0 00-.015-.044l-.1-.014a.026.026 0 01-.02-.014l-.045-.09a.026.026 0 00-.046 0l-.044.09a.027.027 0 01-.02.014l-.1.015a.026.026 0 00-.014.044l.072.07a.026.026 0 01.008.023l-.017.1a.026.026 0 00.038.027l.089-.047a.027.027 0 01.025-.001zM41.424 35.23a.026.026 0 00-.014-.044l-.1-.014a.027.027 0 01-.02-.014l-.044-.091a.026.026 0 00-.046 0l-.044.091a.026.026 0 01-.019.014l-.1.015a.026.026 0 00-.014.044l.072.07a.026.026 0 01.007.023l-.017.1a.026.026 0 00.037.027l.089-.047a.026.026 0 01.024 0l.089.047a.026.026 0 00.037-.028l-.017-.1a.027.027 0 01.007-.023zM51.355 41.718l-.1-.014a.026.026 0 01-.02-.014l-.045-.09a.026.026 0 00-.046 0l-.044.091a.025.025 0 01-.02.014l-.1.015a.026.026 0 00-.014.044l.072.07a.026.026 0 01.008.023l-.017.1a.026.026 0 00.038.027l.089-.047a.027.027 0 01.025 0l.089.046a.026.026 0 00.038-.027l-.018-.1a.028.028 0 01.008-.023l.072-.07a.026.026 0 00-.015-.045zM69.113 37.585l-.1-.014a.027.027 0 01-.02-.014l-.044-.09a.026.026 0 00-.046 0l-.044.091a.027.027 0 01-.02.014l-.1.015a.026.026 0 00-.015.044l.072.07a.025.025 0 01.008.023l-.017.1a.026.026 0 00.037.027l.089-.047a.028.028 0 01.024 0l.089.047a.026.026 0 00.038-.028l-.017-.1a.024.024 0 01.007-.023l.072-.071a.026.026 0 00-.013-.044zM62.157 43.045a.027.027 0 01.007.023l-.017.1a.026.026 0 00.038.027l.089-.047a.024.024 0 01.024 0l.089.047a.026.026 0 00.038-.028l-.018-.1a.026.026 0 01.008-.023l.072-.07a.026.026 0 00-.014-.044l-.1-.014a.027.027 0 01-.02-.014l-.044-.09a.026.026 0 00-.046 0l-.044.09a.026.026 0 01-.019.014l-.1.014a.026.026 0 00-.014.044zM37.339 43.33l-.1-.014a.027.027 0 01-.02-.014l-.045-.09a.026.026 0 00-.046 0l-.044.09a.025.025 0 01-.019.014l-.1.015a.026.026 0 00-.014.044l.072.07a.026.026 0 01.007.023l-.017.1a.026.026 0 00.038.027l.089-.047a.025.025 0 01.024 0l.089.046a.026.026 0 00.037-.027l-.017-.1a.026.026 0 01.008-.023l.072-.071a.026.026 0 00-.014-.043zM44.448 17.565a.026.026 0 00.038-.027l-.017-.1a.025.025 0 01.007-.023l.072-.07a.026.026 0 00-.014-.044l-.1-.014a.025.025 0 01-.019-.014l-.045-.09a.026.026 0 00-.046 0l-.044.09a.026.026 0 01-.019.014l-.1.015a.026.026 0 00-.014.044l.073.07a.03.03 0 01.007.023l-.017.1a.026.026 0 00.037.027l.089-.047a.026.026 0 01.024 0zM28.728 56.539l-.107-.015a.029.029 0 01-.021-.016l-.048-.1a.028.028 0 00-.05 0l-.048.1a.027.027 0 01-.021.015l-.107.015a.028.028 0 00-.015.048l.078.076a.028.028 0 01.008.025l-.018.107a.028.028 0 00.041.029l.1-.051a.028.028 0 01.026 0l.1.051a.028.028 0 00.041-.03l-.019-.107a.027.027 0 01.008-.025l.078-.076a.028.028 0 00-.026-.046zM31.007 48l-.108-.015a.028.028 0 01-.021-.016l-.048-.1a.028.028 0 00-.05 0l-.048.1a.028.028 0 01-.021.015l-.107.016a.028.028 0 00-.015.048l.078.076a.029.029 0 01.008.025l-.018.107a.028.028 0 00.041.029l.1-.051a.029.029 0 01.026 0l.1.051a.028.028 0 00.041-.03l-.019-.106a.029.029 0 01.008-.025l.078-.076a.028.028 0 00-.025-.048zM33.849 55.814l-.107-.015a.029.029 0 01-.021-.016l-.048-.1a.027.027 0 00-.05 0l-.048.1a.028.028 0 01-.021.015l-.107.016a.028.028 0 00-.015.048l.078.076a.028.028 0 01.008.025l-.018.107a.028.028 0 00.041.029l.1-.05a.029.029 0 01.026 0l.1.05a.028.028 0 00.041-.03l-.019-.107a.027.027 0 01.008-.024l.078-.076a.028.028 0 00-.026-.048zM33.399 65.241l-.107-.016a.028.028 0 01-.021-.015l-.048-.1a.028.028 0 00-.05 0l-.048.1a.027.027 0 01-.021.015l-.107.016a.028.028 0 00-.016.047l.078.076a.028.028 0 01.008.025l-.018.107a.028.028 0 00.041.03l.1-.051a.03.03 0 01.026 0l.1.051a.028.028 0 00.04-.03l-.018-.107a.027.027 0 01.008-.025l.078-.076a.028.028 0 00-.025-.047zM40.335 57.987l-.107-.016a.028.028 0 01-.021-.015l-.048-.1a.028.028 0 00-.05 0l-.048.1a.027.027 0 01-.021.015l-.107.016a.028.028 0 00-.016.047l.078.076a.028.028 0 01.008.025l-.018.107a.028.028 0 00.04.03l.1-.051a.028.028 0 01.026 0l.1.051a.028.028 0 00.041-.029l-.019-.107a.028.028 0 01.008-.025l.078-.076a.028.028 0 00-.024-.048zM25.38 48l-.107-.015a.028.028 0 01-.021-.016l-.048-.1a.028.028 0 00-.05 0l-.048.1a.028.028 0 01-.021.015l-.108.016a.028.028 0 00-.015.048l.078.076a.029.029 0 01.008.025l-.018.107a.028.028 0 00.041.029l.1-.051a.029.029 0 01.026 0l.1.051a.028.028 0 00.04-.03l-.018-.106a.028.028 0 01.008-.025l.077-.076A.028.028 0 0025.38 48zM36.392 48.216l-.107-.015a.029.029 0 01-.021-.016l-.048-.1a.028.028 0 00-.05 0l-.048.1a.029.029 0 01-.021.016l-.108.016a.028.028 0 00-.015.048l.078.075a.029.029 0 01.008.025l-.018.107a.028.028 0 00.04.029l.1-.05a.027.027 0 01.026 0l.1.05a.028.028 0 00.04-.03l-.018-.107a.028.028 0 01.008-.025l.078-.076a.028.028 0 00-.024-.047zM75.232 56.391l-.1-.014a.028.028 0 01-.02-.014l-.044-.091a.026.026 0 00-.046 0l-.044.091a.027.027 0 01-.02.014l-.1.014a.026.026 0 00-.015.044l.072.07a.026.026 0 01.007.023l-.017.1a.025.025 0 00.038.027l.089-.047a.025.025 0 01.024 0l.089.046a.026.026 0 00.038-.027l-.017-.1a.027.027 0 01.007-.023l.072-.07a.026.026 0 00-.013-.043zM72.86 53.839l-.1-.014a.026.026 0 01-.019-.014l-.045-.09a.026.026 0 00-.046 0l-.044.091a.028.028 0 01-.02.014l-.1.015a.026.026 0 00-.014.044l.072.07a.025.025 0 01.007.023l-.017.1a.026.026 0 00.037.027l.089-.047a.027.027 0 01.024 0l.089.047a.026.026 0 00.038-.028l-.017-.1a.024.024 0 01.007-.023l.072-.071a.026.026 0 00-.013-.044zM74.487 60.979l-.1-.014a.025.025 0 01-.019-.014l-.045-.09a.026.026 0 00-.046 0l-.044.091a.026.026 0 01-.02.014l-.1.015a.026.026 0 00-.015.044l.073.07a.027.027 0 01.007.023l-.017.1a.025.025 0 00.037.027l.089-.047a.025.025 0 01.024 0l.089.047a.026.026 0 00.037-.028l-.017-.1a.028.028 0 01.007-.023l.072-.071a.026.026 0 00-.012-.044zM79.245 51.53l-.1-.014a.025.025 0 01-.02-.014l-.045-.091a.026.026 0 00-.046 0l-.044.091a.026.026 0 01-.019.014l-.1.014a.026.026 0 00-.014.044l.072.07a.026.026 0 01.008.023l-.017.1a.026.026 0 00.038.027l.089-.047a.027.027 0 01.024 0l.089.046a.026.026 0 00.038-.027l-.017-.1a.028.028 0 01.008-.023l.072-.07a.026.026 0 00-.016-.043zM73.069 65.46l-.1-.014a.025.025 0 01-.019-.014l-.044-.09a.026.026 0 00-.047 0l-.044.091a.028.028 0 01-.02.014l-.1.014a.026.026 0 00-.014.044l.072.07a.027.027 0 01.007.023l-.017.1a.026.026 0 00.037.027l.089-.047a.027.027 0 01.024 0l.089.047a.025.025 0 00.037-.027l-.017-.1a.027.027 0 01.007-.023l.072-.07a.026.026 0 00-.012-.045zM60.368 55.438l-.1-.014a.028.028 0 01-.02-.014l-.044-.09a.026.026 0 00-.047 0l-.044.091a.026.026 0 01-.02.014l-.1.015a.026.026 0 00-.014.044l.072.07a.026.026 0 01.008.023l-.017.1a.026.026 0 00.037.027l.089-.047a.024.024 0 01.024 0l.089.046a.026.026 0 00.037-.027l-.017-.1a.026.026 0 01.007-.023l.072-.071a.026.026 0 00-.012-.044zM53.555 56.58l-.1-.015a.026.026 0 01-.02-.014l-.044-.09a.026.026 0 00-.046 0l-.044.091a.028.028 0 01-.02.014l-.1.015a.026.026 0 00-.014.044l.072.07a.025.025 0 01.007.023l-.017.1a.026.026 0 00.038.027l.089-.047a.023.023 0 01.024 0l.089.047a.026.026 0 00.037-.028l-.017-.1a.027.027 0 01.007-.023l.072-.071a.025.025 0 00-.013-.043zM50.117 55.455l.089.047a.026.026 0 00.037-.027l-.017-.1a.027.027 0 01.007-.023l.072-.071a.026.026 0 00-.014-.044l-.1-.014a.026.026 0 01-.02-.014l-.044-.09a.026.026 0 00-.046 0l-.044.091a.026.026 0 01-.02.014l-.1.015a.026.026 0 00-.015.044l.072.07a.027.027 0 01.008.023l-.017.1a.026.026 0 00.038.027l.089-.047a.026.026 0 01.025-.001zM60.159 62.763l-.1-.015a.026.026 0 01-.019-.014l-.045-.09a.026.026 0 00-.046 0l-.044.091a.028.028 0 01-.02.014l-.1.015a.025.025 0 00-.014.044l.072.07a.025.025 0 01.007.023l-.017.1a.026.026 0 00.038.027l.089-.047a.023.023 0 01.024 0l.089.047A.026.026 0 0060.11 63l-.017-.1a.027.027 0 01.007-.023l.072-.071a.026.026 0 00-.013-.043zM55.979 52.419l.089.047a.026.026 0 00.037-.028l-.017-.1a.026.026 0 01.008-.023l.072-.07a.026.026 0 00-.014-.044l-.1-.014a.025.025 0 01-.02-.014l-.045-.091a.025.025 0 00-.046 0l-.044.09a.026.026 0 01-.02.014l-.1.015a.026.026 0 00-.015.044l.072.07a.026.026 0 01.008.023l-.017.1a.025.025 0 00.037.027l.089-.047a.025.025 0 01.026.001zM64.901 58.58l-.1-.014a.026.026 0 01-.019-.014l-.045-.09a.026.026 0 00-.046 0l-.044.091a.025.025 0 01-.02.014l-.1.015a.026.026 0 00-.015.044l.072.07a.027.027 0 01.008.023l-.017.1a.026.026 0 00.037.028l.089-.047a.027.027 0 01.024 0l.089.047a.026.026 0 00.037-.027l-.017-.1a.025.025 0 01.008-.023l.072-.071a.026.026 0 00-.013-.046zM64.692 63.497l-.1-.015a.025.025 0 01-.02-.014l-.045-.091a.026.026 0 00-.046 0l-.044.09a.024.024 0 01-.02.014l-.1.015a.026.026 0 00-.015.044l.072.07a.027.027 0 01.008.023l-.017.1a.025.025 0 00.037.027l.089-.047a.026.026 0 01.024 0l.089.047a.026.026 0 00.038-.027l-.018-.1a.026.026 0 01.008-.023l.072-.07a.026.026 0 00-.012-.043zM67.055 53.839l-.1-.014a.026.026 0 01-.019-.014l-.045-.09a.026.026 0 00-.046 0l-.044.091a.026.026 0 01-.019.014l-.1.015a.026.026 0 00-.014.044l.072.07a.026.026 0 01.007.023l-.017.1a.026.026 0 00.038.027l.089-.047a.027.027 0 01.024 0l.089.047a.026.026 0 00.037-.028l-.017-.1a.025.025 0 01.007-.023l.072-.071a.026.026 0 00-.014-.044zM53.021 60.898l-.1-.014a.027.027 0 01-.02-.015l-.045-.09a.026.026 0 00-.046 0l-.044.09a.025.025 0 01-.02.015l-.1.015a.026.026 0 00-.014.044l.072.07a.027.027 0 01.008.023l-.017.1a.026.026 0 00.038.027l.089-.047a.024.024 0 01.024 0l.089.047a.026.026 0 00.038-.028l-.017-.1a.027.027 0 01.008-.023l.072-.07a.027.027 0 00-.015-.044zM40.56 54.351l-.1-.014a.025.025 0 01-.019-.014l-.045-.09a.026.026 0 00-.046 0l-.044.091a.026.026 0 01-.02.014l-.1.015a.026.026 0 00-.015.044l.072.07a.027.027 0 01.007.023l-.017.1a.026.026 0 00.037.028l.089-.047a.029.029 0 01.024 0l.089.047a.026.026 0 00.037-.028l-.017-.1a.025.025 0 01.007-.023l.072-.071a.026.026 0 00-.011-.045zM38.187 51.8l-.1-.014a.026.026 0 01-.02-.014l-.045-.09a.026.026 0 00-.046 0l-.044.091a.026.026 0 01-.02.014l-.1.015a.026.026 0 00-.014.044l.072.07a.026.026 0 01.007.023l-.017.1a.026.026 0 00.038.027l.089-.047a.027.027 0 01.024 0l.089.047a.026.026 0 00.037-.028l-.017-.1a.024.024 0 01.007-.023l.072-.071a.026.026 0 00-.012-.044zM34.994 60.25l-.1-.015a.025.025 0 01-.019-.014l-.044-.09a.026.026 0 00-.047 0l-.044.09a.025.025 0 01-.019.014l-.1.014a.026.026 0 00-.014.044l.072.07a.026.026 0 01.007.023l-.017.1a.026.026 0 00.038.027l.089-.047a.023.023 0 01.024 0l.089.046a.026.026 0 00.038-.027l-.017-.1a.027.027 0 01.007-.023l.072-.07a.026.026 0 00-.015-.042zM45.546 62.24l.089-.046a.025.025 0 01.024 0l.089.046a.026.026 0 00.038-.027l-.017-.1a.027.027 0 01.008-.023l.072-.071a.026.026 0 00-.014-.044l-.1-.015a.025.025 0 01-.019-.014l-.045-.09a.026.026 0 00-.047 0l-.044.09a.027.027 0 01-.02.014l-.1.015a.026.026 0 00-.014.044l.072.07a.025.025 0 01.007.023l-.017.1a.026.026 0 00.038.028zM39.813 58.94l-.1-.014a.027.027 0 01-.019-.014l-.044-.091a.026.026 0 00-.047 0l-.044.091a.025.025 0 01-.019.014l-.1.015a.026.026 0 00-.014.044l.072.07a.025.025 0 01.007.023l-.017.1a.026.026 0 00.038.027l.089-.047a.025.025 0 01.024 0l.089.046a.026.026 0 00.037-.027l-.017-.1a.028.028 0 01.007-.023l.072-.07a.026.026 0 00-.014-.044zM43.46 69.558l-.1-.014a.026.026 0 01-.02-.014l-.045-.091a.026.026 0 00-.046 0l-.044.09a.025.025 0 01-.02.014l-.1.015a.026.026 0 00-.015.044l.072.07a.025.025 0 01.007.023l-.017.1a.026.026 0 00.037.027l.089-.047a.027.027 0 01.024 0l.089.047a.026.026 0 00.038-.027l-.017-.1a.025.025 0 01.007-.023l.072-.07a.026.026 0 00-.011-.044zM54.188 66.779l-.1-.015a.027.027 0 01-.02-.014l-.044-.09a.026.026 0 00-.046 0l-.044.09a.027.027 0 01-.02.014l-.1.014a.026.026 0 00-.014.044l.072.07a.027.027 0 01.008.023l-.017.1a.025.025 0 00.037.027l.089-.046a.025.025 0 01.024 0l.089.046a.026.026 0 00.037-.027l-.017-.1a.025.025 0 01.007-.023l.072-.071a.026.026 0 00-.013-.042zM39.192 69.033l-.1-.015a.025.025 0 01-.02-.014l-.045-.09a.026.026 0 00-.046 0l-.044.091a.026.026 0 01-.02.014l-.1.015a.026.026 0 00-.014.044l.072.07a.027.027 0 01.008.023l-.017.1a.025.025 0 00.037.027l.089-.047a.024.024 0 01.024 0l.089.047a.026.026 0 00.037-.027l-.017-.1a.027.027 0 01.008-.023l.072-.071a.026.026 0 00-.013-.044zM57.265 47.529l-.1-.014a.026.026 0 01-.019-.014l-.045-.09a.026.026 0 00-.046 0l-.044.09a.026.026 0 01-.02.014l-.1.015a.026.026 0 00-.014.044l.072.07a.026.026 0 01.007.023l-.017.1a.026.026 0 00.038.027l.088-.047a.024.024 0 01.024 0l.089.046a.026.026 0 00.038-.027l-.017-.1a.025.025 0 01.007-.023l.072-.07a.026.026 0 00-.013-.044zM44.571 49.486l-.1-.014a.026.026 0 01-.02-.014l-.045-.09a.026.026 0 00-.046 0l-.044.091a.026.026 0 01-.02.014l-.1.015a.026.026 0 00-.015.044l.072.07a.027.027 0 01.008.023l-.017.1a.026.026 0 00.038.028l.089-.047a.025.025 0 01.024 0l.089.047a.026.026 0 00.038-.028l-.017-.1a.026.026 0 01.007-.023l.072-.071a.026.026 0 00-.013-.045zM59.312 71.598l-.1-.014a.026.026 0 01-.02-.014l-.045-.091a.026.026 0 00-.046 0l-.044.09a.026.026 0 01-.02.015l-.1.014a.026.026 0 00-.015.045l.072.07a.025.025 0 01.008.023l-.017.1a.026.026 0 00.037.027l.089-.047a.027.027 0 01.024 0l.089.047a.026.026 0 00.037-.027l-.017-.1a.027.027 0 01.008-.023l.072-.07a.026.026 0 00-.012-.045zM67.465 47.729l-.1-.014a.028.028 0 01-.02-.014l-.044-.09a.026.026 0 00-.046 0l-.044.091a.026.026 0 01-.02.014l-.1.014a.026.026 0 00-.014.044l.072.07a.024.024 0 01.008.023l-.017.1a.026.026 0 00.038.028l.089-.047a.029.029 0 01.024 0l.089.047a.026.026 0 00.038-.028l-.018-.1a.026.026 0 01.008-.023l.072-.07a.026.026 0 00-.015-.045zM48.885 47.329l-.1-.014a.025.025 0 01-.019-.014l-.044-.09a.026.026 0 00-.047 0l-.044.09a.026.026 0 01-.019.014l-.1.014a.026.026 0 00-.014.044l.072.07a.028.028 0 01.008.023l-.017.1a.026.026 0 00.038.027l.089-.047a.025.025 0 01.024 0l.089.047a.026.026 0 00.038-.027l-.018-.1a.027.027 0 01.008-.023l.072-.07a.026.026 0 00-.016-.044zM64.488 72.36l-.1-.014a.027.027 0 01-.02-.015l-.044-.09a.026.026 0 00-.046 0l-.044.091a.028.028 0 01-.02.014l-.1.015a.026.026 0 00-.014.044l.072.07a.025.025 0 01.007.023l-.017.1a.026.026 0 00.038.027l.089-.047a.025.025 0 01.024 0l.089.047a.026.026 0 00.038-.028l-.017-.1a.024.024 0 01.008-.023l.071-.071a.026.026 0 00-.014-.043zM47.778 72.761l-.08-.015a.02.02 0 01-.015-.014l-.037-.09a.019.019 0 00-.037 0l-.036.09a.023.023 0 01-.016.014l-.08.014a.028.028 0 00-.012.044l.058.071a.026.026 0 01.006.023l-.014.1c0 .021.015.038.031.028l.071-.047a.02.02 0 01.02 0l.072.047c.015.01.033-.006.03-.028l-.013-.1a.03.03 0 01.006-.023l.058-.07a.028.028 0 00-.012-.044zM68.251 68.475l-.1-.014a.027.027 0 01-.02-.015l-.044-.09a.026.026 0 00-.046 0l-.044.091a.026.026 0 01-.02.014l-.1.015a.026.026 0 00-.014.044l.072.07a.027.027 0 01.008.023l-.017.1a.026.026 0 00.037.027l.089-.047a.025.025 0 01.024 0l.089.047a.027.027 0 00.038-.028l-.017-.1a.024.024 0 01.007-.023l.072-.071a.026.026 0 00-.014-.043zM38.81 64.955l.089.047a.026.026 0 00.038-.027l-.017-.1a.025.025 0 01.007-.023l.072-.071a.026.026 0 00-.014-.044l-.1-.014a.025.025 0 01-.02-.014l-.045-.091a.026.026 0 00-.046 0l-.044.091a.025.025 0 01-.02.014l-.1.015a.026.026 0 00-.015.044l.072.07a.027.027 0 01.008.023l-.017.1a.026.026 0 00.037.027l.089-.047a.027.027 0 01.026 0zM49.845 62.192l-.1-.015a.025.025 0 01-.019-.014l-.045-.091a.026.026 0 00-.047 0l-.044.091a.026.026 0 01-.02.014l-.1.015a.025.025 0 00-.014.044l.072.07a.026.026 0 01.008.023l-.017.1a.026.026 0 00.038.027l.089-.047a.028.028 0 01.024 0l.089.047a.026.026 0 00.038-.027l-.017-.1a.025.025 0 01.007-.023l.072-.071a.026.026 0 00-.014-.043zM76.093 37.572l-.29-.042a.074.074 0 01-.057-.041l-.13-.263a.075.075 0 00-.135 0l-.129.263a.074.074 0 01-.056.042l-.29.042a.076.076 0 00-.042.129l.21.2a.076.076 0 01.021.067l-.049.29a.075.075 0 00.11.079l.259-.137a.074.074 0 01.07 0l.26.136a.075.075 0 00.109-.08l-.05-.289a.077.077 0 01.021-.067l.21-.2a.076.076 0 00-.042-.129zM46.74 36.987l-.29-.042a.076.076 0 01-.057-.041l-.13-.263a.075.075 0 00-.135 0l-.129.263a.077.077 0 01-.057.042l-.289.042a.075.075 0 00-.042.129l.21.2a.076.076 0 01.022.067l-.049.29a.075.075 0 00.109.079l.259-.137a.075.075 0 01.07 0l.259.136a.075.075 0 00.109-.08l-.05-.289a.075.075 0 01.022-.066l.209-.206a.075.075 0 00-.041-.124zM64.285 67.186l-.05-.289a.076.076 0 01.021-.067l.209-.205a.076.076 0 00-.042-.129l-.29-.042a.074.074 0 01-.057-.041l-.13-.263a.075.075 0 00-.135 0l-.129.263a.074.074 0 01-.056.042l-.29.042a.076.076 0 00-.042.129l.21.2a.076.076 0 01.022.067l-.049.29a.075.075 0 00.11.079l.259-.137a.072.072 0 01.07 0l.259.136a.075.075 0 00.11-.075zM63.308 28.773l.26.136a.075.075 0 00.109-.079l-.05-.289a.075.075 0 01.021-.067l.209-.205a.076.076 0 00-.042-.129l-.29-.042a.076.076 0 01-.057-.041l-.13-.263a.075.075 0 00-.135 0l-.129.264a.076.076 0 01-.057.041l-.29.043a.076.076 0 00-.042.129l.21.2a.077.077 0 01.022.067l-.05.289a.075.075 0 00.109.079l.259-.137a.075.075 0 01.073.004zM80.953 56.164l-.29-.042a.076.076 0 01-.057-.041l-.13-.263a.075.075 0 00-.135 0l-.129.263a.077.077 0 01-.057.041l-.29.043a.075.075 0 00-.042.128l.21.2a.077.077 0 01.022.067l-.049.289a.075.075 0 00.109.08l.259-.137a.076.076 0 01.07 0l.26.136a.063.063 0 00.035.009l.06-.165-.037-.212a.074.074 0 01.021-.067l.171-.167.046-.138a.072.072 0 00-.047-.024zM29.269 61.059l.259.136a.075.075 0 00.109-.08l-.05-.289a.076.076 0 01.021-.067l.209-.205a.076.076 0 00-.042-.129l-.29-.042a.074.074 0 01-.057-.041l-.13-.263a.075.075 0 00-.135 0l-.129.264a.076.076 0 01-.057.041l-.29.043a.075.075 0 00-.042.128l.21.2a.077.077 0 01.022.067l-.014.085c.052.081.1.16.158.24l.176-.093a.074.074 0 01.072.005zM46.673 66.983l-.29-.042a.077.077 0 01-.057-.042l-.13-.263a.076.076 0 00-.135 0l-.129.264a.076.076 0 01-.056.041l-.29.043a.076.076 0 00-.041.129l.21.2a.076.076 0 01.021.067l-.049.29a.075.075 0 00.109.079l.259-.137a.075.075 0 01.07 0l.259.136a.076.076 0 00.109-.08l-.05-.289a.075.075 0 01.021-.067l.209-.2a.076.076 0 00-.04-.129z"/></g></g><g class="h"><g class="h"><g clip-path="url(#c)" transform="translate(32.536 111.563)"><path class="k" d="M15.765 4.081c0 2.264-3.522 4.081-7.883 4.081S-.001 6.345-.001 4.081 3.521 0 7.882 0s7.883 1.817 7.883 4.081"/></g><g clip-path="url(#d)" transform="translate(66.918 99.712)"><path class="k" d="M16.408 4.081c0 2.264-3.662 4.081-8.218 4.081S0 6.317 0 4.081 3.662 0 8.218 0s8.218 1.817 8.218 4.081"/></g><path class="g" d="M79.441 62.282l-3.606-4.445h-.056l-.531.224.727-1.565-4.249-2.879c-.671 2.041.056 4.472-.252 4.109l-1.09-.28a3.578 3.578 0 01-1.481-.894l-.727-.755h-.028a.587.587 0 01.2.419c0 .475-.727.867-1.649.922h-.28l.839 8.442.95 9.644h.028a5.979 5.979 0 004.444 1.817 6.048 6.048 0 004.808-2.292h.084a13.467 13.467 0 00-.2-2.544v-.056l.643.056a2.823 2.823 0 002.823-2.823v-3.159a6.261 6.261 0 00-1.4-3.941m-2.907 6.4a1.789 1.789 0 01-2.348.978h-.028l-3.634-4.5 3.047-1.006 2.711 2.711a1.789 1.789 0 01.252 1.789"/><path class="g" d="M76.534 68.684a1.789 1.789 0 01-2.348.978h-.028l-3.634-4.5 3.047-1.006 2.711 2.711a1.789 1.789 0 01.252 1.789"/><path d="M78.35 68.963l-2.18-2.18-.084-.084.084.084.112.112" stroke-width=".699" stroke-linejoin="round" stroke-linecap="round" stroke="#222" fill="none"/><path class="n" d="M76.31 66.923l-.028-.028"/><path class="o" d="M74.242 69.802l-.084-.112"/><path class="g" d="M68.12 55.826a.587.587 0 01.2.419c0 .475-.727.867-1.649.922h-.224l-3.55-2.488-1.845-2.516a13.044 13.044 0 01-1.593-4.025 5.9 5.9 0 01-.168-1.314c0-.755.14-1.174.7-1.342a.894.894 0 01.811.168 1.482 1.482 0 01.5.671c.2.531.447 1.062.671 1.537a21.216 21.216 0 003.522 5.032l2.683 2.879"/><path class="p" d="M77.093 95.77l-.2.643a1.873 1.873 0 01-1.537.727c-.978 0-2.1-.755-2.1-1.509H73.2c-.028.14.112.28.028.391a1.873 1.873 0 01-1.537.727 1.956 1.956 0 01-1.37-.531 1.174 1.174 0 01-.363-.839l-3.04-21.217 1.286.922c.978 1.09 2.572 1.062 4.417 1.062a6.048 6.048 0 004.808-2.292h.084c.224 5.339.475 16.129-.447 21.943"/><path class="g" d="M73.319 98.118a1.139 1.139 0 01-1.23.922 1.1 1.1 0 01-1.2-.811.644.644 0 01-.028-.168l-.559-1.9a1.957 1.957 0 001.37.531 1.873 1.873 0 001.537-.727h.084z"/><path d="M76.282 98.202a.811.811 0 01-.028.2" stroke-width=".699" stroke-linejoin="round" stroke-linecap="round" stroke="#222" fill="none"/><path class="o" d="M73.319 98.425v-.307"/><path class="g" d="M76.897 96.413l-.391 1.2-.252.811a1.3 1.3 0 01-1.342.867c-.671 0-1.454-.587-1.454-1.174h-.112v-2.068h-.111c.084-.14.252.224.28.056h.056c0 .755.811 1.034 1.789 1.034a1.873 1.873 0 001.537-.727"/><path d="M77.097 95.77a1.118 1.118 0 01-.2.643" stroke-width=".699" stroke-linejoin="round" stroke-linecap="round" stroke="#222" fill="none"/><path class="s" d="M77.009 102.032l-.084.307-.727 2.292a1.509 1.509 0 01-1.789 1.006l-4.864-1.23a.475.475 0 01-.363-.475 1.118 1.118 0 01.28-.727 4.25 4.25 0 00.727-1.2 4.306 4.306 0 00.307-1.37 9.081 9.081 0 01.307-1.985l.112-.363a1.288 1.288 0 002.432-.112h.112a1.439 1.439 0 001.454 1.174 1.255 1.255 0 001.342-.866l.252-.811h.084l.224.615a6.289 6.289 0 01.2 3.774"/><path d="M68.008 55.63a1.649 1.649 0 01-.7 1.23 2.14 2.14 0 01-2.488-.28" stroke-width=".699" stroke-linejoin="round" stroke-linecap="round" stroke="#222" fill="none"/><path class="k" d="M70.915 79.446l1.454 2.544-.28-2.069z"/><g clip-path="url(#e)" transform="translate(66.191 64.743)"><path class="k" d="M10.706 31.67l-1.537.727s.531-9.616.252-18.085c-.112-3.746-5.786-4-8.693-6.373l-.7-7.1L3.354 0 9.28 6.4v.056l1.9 1.09s1.146 18.141-.447 24.151"/></g><g clip-path="url(#f)" transform="translate(75.304 96.469)"><path class="k" d="M.084.587L0 2.823l.894-.727.7-2.1z"/></g><path class="k" d="M77.316 67.594l1.034.2a.475.475 0 01.391.587l-.14.643z"/><g clip-path="url(#g)" transform="translate(73.571 63.68)"><path class="k" d="M1.37 0l3.774 4.556-1.482-.419L0 .5z"/></g><g clip-path="url(#h)" transform="translate(70.608 64.295)"><path class="k" d="M0 1.146l4.892.7-1.9-1.845z"/></g><g clip-path="url(#i)" transform="translate(76.086 68.181)"><path class="k" d="M3.997 2.013A2.013 2.013 0 111.984 0a2.013 2.013 0 012.013 2.013"/></g><path d="M76.087 58.285a2.386 2.386 0 01-2.851 1.705 2.432 2.432 0 01-2.013-2.264" stroke-width=".699" stroke-miterlimit="10" stroke-linecap="round" stroke="#222" fill="none"/><path d="M75.835 57.866l3.606 4.444a6.261 6.261 0 011.4 3.941v3.215a2.823 2.823 0 01-2.823 2.823 3.158 3.158 0 01-2.236-.922l-1.509-1.509" stroke-width=".699" stroke-linejoin="round" stroke-linecap="round" stroke="#222" fill="none"/><path d="M74.186 69.662a1.789 1.789 0 001.9-2.991l2.264 2.264" stroke-width=".699" stroke-linejoin="round" stroke-linecap="round" stroke="#222" fill="none"/><path class="o" d="M70.524 65.19l3.718 4.612"/><path class="n" d="M73.571 64.184l2.739 2.739"/><path d="M65.269 57.866l-4.221-5.646a13.044 13.044 0 01-1.593-4.025 6.009 6.009 0 01-.168-1.314c0-.755.14-1.174.7-1.342a.894.894 0 01.811.168 1.482 1.482 0 01.5.7c.2.531.447 1.062.671 1.537a21.243 21.243 0 003.522 5.032l3.41 3.634a3.55 3.55 0 001.481.894l.922.28.252-.95" stroke-width=".699" stroke-linejoin="round" stroke-linecap="round" stroke="#222" fill="none"/><path class="n" d="M66.89 73.827l.335-8.19M69.937 95.351l-3.047-21.44"/><path d="M77.345 72.262s1.062 15.234-.252 23.508M73.04 95.491c0 .755-.587 1.23-1.565 1.23a1.411 1.411 0 01-1.565-1.37" stroke-width=".699" stroke-linejoin="round" stroke-linecap="round" stroke="#222" fill="none"/><path d="M73.319 98.09a1.271 1.271 0 01-2.46 0l-.559-1.761M76.282 98.202a1.247 1.247 0 01-1.37 1.062 1.417 1.417 0 01-1.453-1.174M73.039 95.547l-.559-14.172a2.348 2.348 0 00-1.341-2.041" stroke-width=".699" stroke-linejoin="round" stroke-linecap="round" stroke="#222" fill="none"/><path class="o" d="M73.319 98.426V96.05"/><path d="M76.254 98.426l.839-2.655a1.6 1.6 0 01-1.761 1.37c-.978 0-2.208-.839-2.208-1.593" stroke-width=".699" stroke-linejoin="round" stroke-linecap="round" stroke="#222" fill="none"/><path d="M70.888 98.258l-.112.363a9.141 9.141 0 00-.307 1.985 4.277 4.277 0 01-1.034 2.572 1.118 1.118 0 00-.28.727.475.475 0 00.363.475l4.864 1.23a1.509 1.509 0 001.789-1.006l.727-2.292.084-.307a6.289 6.289 0 00-.2-3.774l-.2-.587" stroke-width=".699" stroke-linejoin="round" stroke-linecap="round" stroke="#222" fill="none"/><path d="M65.744 59.348a.867.867 0 01-.783-.5l-9.756-19.735a.875.875 0 011.565-.783l9.756 19.763a.867.867 0 01-.783 1.258" fill="#9faeb7"/><path class="an" d="M65.744 59.348a.867.867 0 01-.783-.5l-9.756-19.735a.875.875 0 011.565-.783l9.756 19.763a.867.867 0 01-.783 1.258z"/><path d="M66.918 73.66a4.986 4.986 0 004.612 2.376c2.348 0 4.668-.671 5.758-1.873" stroke-width=".699" stroke-linejoin="round" stroke-linecap="round" stroke="#222" fill="none"/><path class="k" d="M75.835 63.037l.615 1.761"/><path stroke-miterlimit="10" stroke-width=".699" stroke-linecap="round" stroke="#222" fill="none" d="M75.835 63.037l.615 1.761"/><path class="k" d="M76.646 54.875l-1.342-.531 1.649-4.249 2.739 1.062-1.118 2.879a1.509 1.509 0 01-1.929.867M76.561 49.537a2.46 2.46 0 11-1.4-3.187 2.46 2.46 0 011.4 3.187"/><path class="k" d="M79.636 51.27a2.292 2.292 0 11-1.314-2.963 2.292 2.292 0 011.314 2.963"/><path class="g" d="M75.444 58.285l2.432-6.289a2.6 2.6 0 00-4.836-1.873l-1.733 4.472a1.957 1.957 0 001.118 2.516l1.509.587"/><path d="M75.444 58.285l2.432-6.289a2.6 2.6 0 00-4.836-1.873l-1.733 4.472a1.957 1.957 0 001.118 2.516l1.509.587" stroke-width=".699" stroke-miterlimit="10" stroke-linecap="round" stroke="#222" fill="none"/><path class="g" d="M77.009 53.142a.885.885 0 01-.643 1.649"/><path d="M77.009 53.142a.885.885 0 01-.643 1.649" stroke-width=".699" stroke-miterlimit="10" stroke-linecap="round" stroke="#222" fill="none"/><path class="k" d="M72.319 49.72l3.811-1.683.4.906-3.811 1.683zM76.53 48.936l.895-.395 1.363 3.087-.895.395zM72.732 57.783l-.811-.307a.811.811 0 01-.475-1.062l.7-1.817a.811.811 0 011.062-.475l.811.307a.811.811 0 01.475 1.062l-.7 1.817a.811.811 0 01-1.062.475"/><path stroke="#fff" stroke-width=".839" stroke-miterlimit="10" stroke-linecap="round" fill="none" d="M72.76 54.931l.727.28"/><path class="at" d="M63.284 38.942l-13.725 1.509a2.77 2.77 0 01-.615-5.507l13.725-1.509a2.77 2.77 0 11.615 5.507"/><path d="M63.284 38.942l-13.725 1.509a2.77 2.77 0 01-.615-5.507l13.725-1.509a2.77 2.77 0 11.615 5.507z" stroke-width=".699" stroke-linejoin="round" stroke-linecap="round" stroke="#222" fill="none"/><path fill="#00a4ff" d="M65.8 37.013l-16.716 1.873"/><path stroke-width=".699" stroke-linejoin="round" stroke="#222" fill="none" d="M65.8 37.013l-16.716 1.873"/><path class="k" d="M49.866 34.833s2.124 5.171 2.739 5.423l-3.159.252-2.263-5.423z"/><path d="M84.64 68.712a31.2 31.2 0 01-14.368 4.025c-16.548.587-30.58-11.908-31.2-27.757a28.232 28.232 0 016.993-19.652.783.783 0 011.37.419c1.817 20.35 17.079 36.7 36.954 41.37a.867.867 0 01.252 1.593" fill="#ffdd50"/><path d="M84.64 68.712a31.2 31.2 0 01-14.368 4.025c-16.548.587-30.58-11.908-31.2-27.757a28.232 28.232 0 016.993-19.652.783.783 0 011.37.419c1.817 20.35 17.079 36.7 36.954 41.37a.867.867 0 01.252 1.593z" stroke-width="1.398" stroke-linejoin="round" stroke-linecap="round" stroke="#222" fill="none"/><path d="M85.087 68.069a.839.839 0 01-.447.615 31.223 31.223 0 01-14.368 4.025c-16.548.587-30.58-11.908-31.2-27.757a28.232 28.232 0 016.988-19.651.783.783 0 01.615-.28 28.959 28.959 0 00-4.277 16.52c.755 16.548 15.4 29.35 32.677 28.54a32.564 32.564 0 0010.007-2.041" fill="#e0b603"/><path d="M85.087 68.069a.839.839 0 01-.447.615 31.223 31.223 0 01-14.368 4.025c-16.548.587-30.58-11.908-31.2-27.757a28.232 28.232 0 016.988-19.651.783.783 0 01.615-.28 28.959 28.959 0 00-4.277 16.52c.755 16.548 15.4 29.35 32.677 28.54a32.565 32.565 0 0010.007-2.013z" stroke-width=".839" stroke-linejoin="round" stroke-linecap="round" stroke="#222" fill="none"/><g clip-path="url(#j)" transform="translate(53.389 65.497)"><path class="k" d="M.643 0l2.963 1.873s2.264 3.746 0 3.8-2.6-.978-2.6-.978L0 1.817z"/></g><path class="k" d="M57.33 66.056s5.646 2.628 2.32 5.479l-3.382-.922z"/><path class="k" d="M59.371 66.196a2.1 2.1 0 11-1.817-2.041 1.939 1.939 0 011.817 2.041"/><path class="at" d="M57.666 70.529a1.963 1.963 0 01-2.8 2.572 1.957 1.957 0 01-3.774.363 1.957 1.957 0 01-2.991-1.677 1.844 1.844 0 01.035-.364h-.028a1.957 1.957 0 01-1.342-3.41 1.957 1.957 0 011.23-3.41 1.973 1.973 0 012.907-2.432 1.957 1.957 0 013.634-.447 1.957 1.957 0 012.711 1.817 1.957 1.957 0 011.146 3.215 1.957 1.957 0 01-.7 3.718"/><path class="an" d="M57.666 70.529a1.963 1.963 0 01-2.8 2.572 1.957 1.957 0 01-3.774.363 1.957 1.957 0 01-2.991-1.677 1.844 1.844 0 01.035-.364h-.028a1.957 1.957 0 01-1.342-3.41 1.957 1.957 0 011.23-3.41 1.973 1.973 0 012.907-2.432 1.957 1.957 0 013.634-.447 1.957 1.957 0 012.711 1.817 1.957 1.957 0 011.146 3.215 1.957 1.957 0 01-.7 3.718z"/><path class="g" d="M56.156 67.79a3.662 3.662 0 11-3.662-3.662 3.662 3.662 0 013.662 3.662"/><path d="M56.156 67.79a3.662 3.662 0 11-3.662-3.662 3.662 3.662 0 013.662 3.662z" stroke-width=".699" stroke-linejoin="round" stroke-linecap="round" stroke="#222" fill="none"/><path d="M54.005 67.677a1.649 1.649 0 11-1.649-1.649 1.649 1.649 0 011.649 1.649" fill="#c1c1c1"/><path d="M54.005 67.677a1.649 1.649 0 11-1.649-1.649 1.649 1.649 0 011.649 1.649z" stroke-width=".699" stroke-miterlimit="10" stroke="#222" fill="none"/><g clip-path="url(#k)" transform="translate(49.671 68.991)"><path d="M2.404.42l2.739 3.913L3.717 5.87 1.76 5.087.614 3.997H.028l.755-2.879.084-.447a.839.839 0 011.537-.28" fill="#111"/></g><path class="p" d="M41.171 89.65l-1.174 21.048a1.37 1.37 0 01-.056.419 1.817 1.817 0 01-3.41-.084 1.426 1.426 0 01-.056-.335l-.2-1.845c0 .084.084.252.056.336a1.873 1.873 0 01-3.55.028v-.252L31.02 89.51l-.056-.559.252.307c.14 1.761 2.488 2.767 5.087 2.767s4.5-1.258 4.836-2.879z"/><path class="g" d="M31.055 82.073l-.224-4.528"/><path class="s" d="M44.388 113.995a1.509 1.509 0 01-.643 1.2h-.056l-4.5 2.823h-.028a1.9 1.9 0 01-.895.224 1.7 1.7 0 01-1.76-1.484v-2.9a2.152 2.152 0 01.28-1.09h.056l.14.783a1.286 1.286 0 001.314 1.062 1.258 1.258 0 001.342-1.174l.056-.391h.056l2.516-.587h.363a1.667 1.667 0 011.761 1.565"/><path class="g" d="M39.943 111.116l-.28 1.929-.056.391a1.258 1.258 0 01-1.342 1.174 1.286 1.286 0 01-1.314-1.062l-.14-.783-.28-1.733a1.817 1.817 0 003.41.084M36.338 109.187l-.252 2.879a1.288 1.288 0 01-1.37 1.174 1.342 1.342 0 01-1.342-.923v-.2l-.559-2.879a1.873 1.873 0 003.55-.028"/><path class="s" d="M36.533 110.837l.28 1.733h-.054a2.152 2.152 0 00-.28 1.09v2.264h-.14a1.9 1.9 0 01-1.118.363 1.679 1.679 0 01-1.761-1.509v-.224a10.873 10.873 0 01-.084-2.432h.028a1.342 1.342 0 001.342.922 1.288 1.288 0 001.37-1.174"/><path class="g" d="M41.401 87.441l.112 1.286c-.307 1.621-2.739 3.27-5.227 3.27s-4.752-1.4-4.864-3.131h-.028l-.335-6.737a8.162 8.162 0 01-1.593-5.367v-.5a3.3 3.3 0 012.711-3.019l1.09-.2.811.056c-.307-1.509.112-1.426 2.068-1.258s1.537 1.454 1.873.839c.112-.2-.028 1.118.168 1.146l.5-.056h.084l.112.056 5.143 3.41.419.28a2.348 2.348 0 01-1.509 4.137h-.028l-1.034-.391-.587-.28z"/><path class="g" d="M51.125 71.395l-.168.5c-.5.671-.419 1.537-.839 2.264l-3.354 6.094a3.1 3.1 0 01-3.83 1.4h-.027a2.348 2.348 0 001.537-4.137h.056l3.857-4.892a2.907 2.907 0 00.559-1.2l.335-1.37c.224-.755.363-.671 1.286-1.258.028-.028.419.224.475.224a1.1 1.1 0 01.335.615v.391c.168.727.224.783-.224 1.37M34.018 73.771l-.7-7.24a2.6 2.6 0 015.171-.5l.447 4.78a1.957 1.957 0 01-1.76 2.124"/><path d="M34.018 73.771l-.7-7.24a2.6 2.6 0 015.171-.5l.447 4.78a1.957 1.957 0 01-1.76 2.124" stroke-width=".699" stroke-miterlimit="10" stroke-linecap="round" stroke="#222" fill="none"/><path class="k" d="M38.183 64.77l-5.9.559-.14-1.454a1.482 1.482 0 011.314-1.593l4.417-.419a1.481 1.481 0 01.28 2.935"/><path class="k" d="M36.645 69.662l-1.258.112a2.684 2.684 0 01-2.907-2.4l-.2-2.068 2.236-.224a1.677 1.677 0 011.817 1.509z"/><path class="k" d="M36.533 64.211a2.18 2.18 0 11-2.376-1.957 2.18 2.18 0 012.376 1.957"/><path class="g" d="M36.645 67.622a.884.884 0 10.168 1.761"/><path d="M36.645 67.622a.884.884 0 10.168 1.761" stroke-width=".699" stroke-miterlimit="10" stroke-linecap="round" stroke="#222" fill="none"/><g clip-path="url(#l)" transform="translate(38.127 80.061)"><path class="k" d="M0 .028a4.752 4.752 0 013.047.727v4.64z"/></g><path class="k" d="M34.716 95.239l1.37 1.565-.307-1.454z"/><g clip-path="url(#m)" transform="translate(29.433 69.495)"><path class="k" d="M5.143.084l.168 4.92-.587 17.079s-.307 2.348.95 3.382l.755.95.419 13.641.363 1.9-1.9 1.649H4.305a31.6 31.6 0 01-1.509-10.37L1.538 17.917v-5.926S-.279 10.482.057 6.959 3.3 3.549 3.3 3.549l1.37-.2L4.279.19c.028-.2.839-.28.867-.084"/></g><path class="n" d="M44.5 77.545l-.056-.028"/><path d="M44.444 77.518l-.419-.28zM38.406 80.033c.95-.224 1.677.391 2.572.755" stroke-width=".699" stroke-linejoin="round" stroke-linecap="round" stroke="#222" fill="none"/><path class="n" d="M39.999 110.697l1.509-21.971M32.76 108.796l-1.817-19.874"/><path class="o" d="M31.055 82.073l-.224-4.528"/><path d="M33.487 114.973v-.224a10.874 10.874 0 01-.084-2.432M41.343 87.328a2.711 2.711 0 01.168.95 2.488 2.488 0 01-.056.5c-.335 1.817-2.572 3.215-5.227 3.215s-5.143-1.565-5.283-3.522v-.2M40 110.697a1.667 1.667 0 01-1.761 1.565 1.8 1.8 0 01-1.901-1.565M36.282 109.439a1.817 1.817 0 01-1.705 1.062 1.723 1.723 0 01-1.817-1.593M36.198 111.871a1.475 1.475 0 01-2.851.14M39.608 113.436a1.258 1.258 0 01-1.342 1.174 1.286 1.286 0 01-1.314-1.062M39.161 118.076a1.9 1.9 0 01-.895.224 1.667 1.667 0 01-1.761-1.565 1.4 1.4 0 01.028-.28M42.403 112.458h.224a1.667 1.667 0 011.761 1.565 1.51 1.51 0 01-.643 1.2" stroke-width=".699" stroke-linejoin="round" stroke-linecap="round" stroke="#222" fill="none"/><path d="M36.337 115.924a1.873 1.873 0 01-1.118.363 1.679 1.679 0 01-1.761-1.509" stroke-width=".699" stroke-linejoin="round" stroke-linecap="round" stroke="#222" fill="none"/><path class="o" d="M39.943 111.116l-.335 2.32"/><path d="M36.365 110.669l-.5-14.619a.978.978 0 00-1.006-.95" stroke-width=".699" stroke-linejoin="round" stroke-linecap="round" stroke="#222" fill="none"/><path class="o" d="M39.189 118.076l4.5-2.823M42.264 112.486l-2.544.559"/><path d="M36.506 116.818v-2.963a2.152 2.152 0 01.28-1.09" stroke-width=".699" stroke-linejoin="round" stroke-linecap="round" stroke="#222" fill="none"/><path class="o" d="M36.98 113.604l-.335-2.013M33.347 112.123l-.587-3.075M36.198 112.067l.084-3.019"/><path d="M30.915 88.446l.112-6.345h0a8.162 8.162 0 01-1.565-5.367v-.5a3.3 3.3 0 012.711-3.019h1.734c.307.587-.447 1.2 1.509 1.37a3.1 3.1 0 002.739-.643c.867-.447 5.87 3.3 5.87 3.3l.419.28a2.348 2.348 0 01.727 2.488 2.124 2.124 0 01-2.963 1.342l-1.2-.531.391 6.625" stroke-width=".699" stroke-linejoin="round" stroke-linecap="round" stroke="#222" fill="none"/><path d="M41.649 81.095l1.314.559a3.1 3.1 0 003.83-1.4l3.634-7.212s1.761-3.047.419-4.109-2.013 2.879-2.739 3.578l-3.858 4.724" stroke-width=".699" stroke-linejoin="round" stroke-linecap="round" stroke="#222" fill="none"/><path class="g" d="M38.183 73.771l-.084-1.062"/><path stroke-miterlimit="10" stroke-width=".699" stroke-linecap="round" stroke="#222" fill="none" d="M38.183 73.771l-.084-1.062"/><path class="k" d="M55.485 39.892l2.488.811-.7-1.2z"/></g></g></svg>