<svg xmlns="http://www.w3.org/2000/svg" xmlns:xlink="http://www.w3.org/1999/xlink" width="80" height="80" viewBox="0 0 80 80">
  <defs>
    <clipPath id="clip-path">
      <rect id="사각형_235353" data-name="사각형 235353" width="80" height="80" fill="none"/>
    </clipPath>
    <clipPath id="clip-path-3">
      <rect id="사각형_235341" data-name="사각형 235341" width="9.1" height="6.352" fill="none"/>
    </clipPath>
    <clipPath id="clip-path-4">
      <rect id="사각형_235342" data-name="사각형 235342" width="1.88" height="1.884" fill="none"/>
    </clipPath>
    <clipPath id="clip-path-5">
      <rect id="사각형_235343" data-name="사각형 235343" width="60.74" height="34.838" fill="none"/>
    </clipPath>
    <clipPath id="clip-path-7">
      <path id="패스_621247" data-name="패스 621247" d="M31,200.82a4.386,4.386,0,0,0,2,3.44c1.1.62,2,.12,2-1.16a4.35,4.35,0,0,0-2-3.42,1.8,1.8,0,0,0-.88-.28c-.66,0-1.1.52-1.1,1.42" transform="translate(-31 -199.4)" fill="none"/>
    </clipPath>
    <linearGradient id="linear-gradient" x1="-1.558" y1="7.29" x2="-1.508" y2="7.29" gradientUnits="objectBoundingBox">
      <stop offset="0" stop-color="#c2c1c1"/>
      <stop offset="1" stop-color="#dfdedd"/>
    </linearGradient>
    <clipPath id="clip-path-9">
      <path id="패스_621253" data-name="패스 621253" d="M186.9,290.74a4.419,4.419,0,0,0,1.98,3.44c1.08.62,2,.12,2-1.16a4.355,4.355,0,0,0-2-3.44,1.8,1.8,0,0,0-.88-.28c-.66,0-1.1.52-1.1,1.42" transform="translate(-186.9 -289.3)" fill="none"/>
    </clipPath>
    <linearGradient id="linear-gradient-2" x1="-9.392" y1="4.017" x2="-9.342" y2="4.017" xlink:href="#linear-gradient"/>
    <clipPath id="clip-path-11">
      <rect id="사각형_235349" data-name="사각형 235349" width="17.28" height="9.46" fill="none"/>
    </clipPath>
    <clipPath id="clip-path-12">
      <rect id="사각형_235350" data-name="사각형 235350" width="63.1" height="34.204" fill="none"/>
    </clipPath>
    <clipPath id="clip-path-13">
      <rect id="사각형_235351" data-name="사각형 235351" width="11.82" height="6.594" fill="none"/>
    </clipPath>
  </defs>
  <g id="img_illust_businesstrip" transform="translate(40 40)">
    <g id="출장세차" transform="translate(-40 -40)" style="isolation: isolate">
      <g id="Layer_1" data-name="Layer 1">
        <g id="그룹_300516" data-name="그룹 300516" clip-path="url(#clip-path)">
          <g id="그룹_300504" data-name="그룹 300504" clip-path="url(#clip-path)">
            <g id="그룹_300499" data-name="그룹 300499" transform="translate(62.64 57.86)" opacity="0.1">
              <g id="그룹_300498" data-name="그룹 300498" clip-path="url(#clip-path-3)">
                <path id="패스_621234" data-name="패스 621234" d="M314.921,295.579a.86.86,0,1,1-.84-.88.86.86,0,0,1,.84.88" transform="translate(-313.201 -293.619)" fill="#222"/>
                <path id="패스_621235" data-name="패스 621235" d="M321.562,290.718a1.38,1.38,0,1,1-1.34-1.42,1.38,1.38,0,0,1,1.34,1.42" transform="translate(-317.682 -289.298)" fill="#222"/>
                <path id="패스_621236" data-name="패스 621236" d="M322.662,295.018a1.38,1.38,0,1,1-1.34-1.42,1.38,1.38,0,0,1,1.34,1.42" transform="translate(-318.562 -292.738)" fill="#222"/>
                <path id="패스_621237" data-name="패스 621237" d="M337.023,294.315a2.46,2.46,0,1,1-2.38-2.52,2.46,2.46,0,0,1,2.38,2.52" transform="translate(-328.323 -291.295)" fill="#222"/>
                <path id="패스_621238" data-name="패스 621238" d="M346.222,307.1a1.56,1.56,0,1,1-1.52-1.6,1.56,1.56,0,0,1,1.52,1.6" transform="translate(-337.122 -302.258)" fill="#222"/>
              </g>
            </g>
            <g id="그룹_300501" data-name="그룹 300501" transform="translate(76.04 61.22)" opacity="0.1">
              <g id="그룹_300500" data-name="그룹 300500" clip-path="url(#clip-path-4)">
                <path id="패스_621239" data-name="패스 621239" d="M382.181,307.159a.94.94,0,1,1-.92-.96.94.94,0,0,1,.92.96" transform="translate(-380.281 -306.179)" fill="#222"/>
              </g>
            </g>
            <g id="그룹_300503" data-name="그룹 300503" transform="translate(4.96 32.9)" opacity="0.2" style="mix-blend-mode: multiply;isolation: isolate">
              <g id="그룹_300502" data-name="그룹 300502" clip-path="url(#clip-path-5)">
                <path id="패스_621240" data-name="패스 621240" d="M25.22,175.646a.639.639,0,0,0,0,1.2l38.74,22.24a2.28,2.28,0,0,0,2.06,0l19.1-11.12a.624.624,0,0,0,0-1.18l-38.94-22.06a2.3,2.3,0,0,0-2.06,0Z" transform="translate(-24.8 -164.486)"/>
                <path id="패스_621241" data-name="패스 621241" d="M25.22,175.646a.639.639,0,0,0,0,1.2l38.74,22.24a2.28,2.28,0,0,0,2.06,0l19.1-11.12a.624.624,0,0,0,0-1.18l-38.94-22.06a2.3,2.3,0,0,0-2.06,0Z" transform="translate(-24.8 -164.486)"/>
              </g>
            </g>
          </g>
          <path id="패스_621242" data-name="패스 621242" d="M306.34,265.1l.92.54L306,268.28l-2.5-1.46" transform="translate(-242.8 -212.08)" fill="#222"/>
          <g id="그룹_300505" data-name="그룹 300505" clip-path="url(#clip-path)">
            <path id="패스_621243" data-name="패스 621243" d="M23.64,186.1l2.08-1.2.56.3a10.159,10.159,0,0,1,4.54,7.5l.92.44a1.741,1.741,0,0,1-.34.24l-2.5,1.44a2.455,2.455,0,0,1-2.6-.22,7.969,7.969,0,0,1-3.6-6.24,2.619,2.619,0,0,1,.96-2.28" transform="translate(-18.16 -147.92)" fill="#222"/>
            <path id="패스_621244" data-name="패스 621244" d="M22.6,191.99a8,8,0,0,0,3.6,6.24c1.98,1.16,3.6.22,3.6-2.08a8,8,0,0,0-3.6-6.24c-1.98-1.16-3.6-.22-3.6,2.08" transform="translate(-18.08 -151.53)" fill="#222"/>
            <path id="패스_621245" data-name="패스 621245" d="M23.6,193.9a7.3,7.3,0,0,0,3.32,5.74c1.84,1.06,3.32.2,3.32-1.92a7.3,7.3,0,0,0-3.32-5.74c-1.84-1.06-3.32-.2-3.32,1.92" transform="translate(-18.88 -153.224)" fill="#222"/>
            <path id="패스_621246" data-name="패스 621246" d="M27.5,199.492a5.412,5.412,0,0,0,2.48,4.28c1.38.78,2.48.14,2.48-1.42a5.443,5.443,0,0,0-2.48-4.28c-1.38-.78-2.48-.14-2.48,1.44" transform="translate(-22 -158.192)" fill="#fff"/>
          </g>
          <g id="그룹_300506" data-name="그룹 300506" transform="translate(6.2 39.88)" clip-path="url(#clip-path-7)">
            <rect id="사각형_235346" data-name="사각형 235346" width="3.98" height="5.502" transform="translate(0 0)" fill="url(#linear-gradient)"/>
          </g>
          <g id="그룹_300507" data-name="그룹 300507" clip-path="url(#clip-path)">
            <path id="패스_621248" data-name="패스 621248" d="M22.509,182.818l-2.08,1.2a2.364,2.364,0,0,0-.94,1.84l-.78.22v-.18c-.2-2.74.9-4.52,3.82-3.1" transform="translate(-14.949 -145.838)" fill="#212020"/>
            <path id="패스_621249" data-name="패스 621249" d="M179.54,276.1l2.08-1.2.56.3a10.159,10.159,0,0,1,4.54,7.5l.92.44a1.741,1.741,0,0,1-.34.24l-2.5,1.44a2.455,2.455,0,0,1-2.6-.22,7.969,7.969,0,0,1-3.6-6.24,2.619,2.619,0,0,1,.96-2.28" transform="translate(-142.88 -219.92)" fill="#222"/>
            <path id="패스_621250" data-name="패스 621250" d="M178.5,281.99a8,8,0,0,0,3.6,6.24c1.98,1.16,3.6.22,3.6-2.08a8,8,0,0,0-3.6-6.24c-1.98-1.16-3.6-.22-3.6,2.08" transform="translate(-142.8 -223.53)" fill="#222"/>
            <path id="패스_621251" data-name="패스 621251" d="M179.5,283.9a7.3,7.3,0,0,0,3.32,5.74c1.84,1.06,3.32.2,3.32-1.92a7.3,7.3,0,0,0-3.32-5.74c-1.84-1.06-3.32-.2-3.32,1.92" transform="translate(-143.6 -225.224)" fill="#222"/>
            <path id="패스_621252" data-name="패스 621252" d="M183.3,289.492a5.412,5.412,0,0,0,2.48,4.28c1.38.78,2.48.14,2.48-1.42a5.443,5.443,0,0,0-2.48-4.28c-1.38-.78-2.48-.14-2.48,1.44" transform="translate(-146.64 -230.192)" fill="#fff"/>
          </g>
          <g id="그룹_300508" data-name="그룹 300508" transform="translate(37.38 57.86)" clip-path="url(#clip-path-9)">
            <rect id="사각형_235348" data-name="사각형 235348" width="3.98" height="5.504" transform="translate(0 0.02)" fill="url(#linear-gradient-2)"/>
          </g>
          <g id="그룹_300515" data-name="그룹 300515" clip-path="url(#clip-path)">
            <path id="패스_621254" data-name="패스 621254" d="M178.409,272.918l-2.08,1.2a2.364,2.364,0,0,0-.94,1.84l-.78.22V276c-.2-2.74.9-4.52,3.82-3.1" transform="translate(-139.669 -217.918)" fill="#212020"/>
            <path id="패스_621255" data-name="패스 621255" d="M23.394,103.121s-3.22,1.38-4.9,2.36c-1.32.78-5.38,3.32-7.26,4.58a4.02,4.02,0,0,0-1.38,1.6,9.18,9.18,0,0,0-.88,2.92,12.249,12.249,0,0,0,.64,5.28,5.86,5.86,0,0,0,1.02,1.22,2.55,2.55,0,0,1-.02-.38c0-2.7,2.04-3.66,4.74-1.96a9.684,9.684,0,0,1,4.24,7.34,3.39,3.39,0,0,1-.02.46l.54.32,21.96,12.5v-.18c-.22-2.9,1.04-4.74,4.38-2.8a10.159,10.159,0,0,1,4.54,7.5l1.26.58c1.04.4,1.94-.4,4.18-1.54s10.9-6.58,12.68-7.7,2.52-2.14,2.7-2.98a38.154,38.154,0,0,0,.34-4.46,4.248,4.248,0,0,0-.66-1.8,12.339,12.339,0,0,1,0-1.48,22.823,22.823,0,0,0-.26-2.94l-.62-.62a21.211,21.211,0,0,0-.88-3l-.1-.26a7.1,7.1,0,0,0-3.4-3.74L44.054,102.5a6.4,6.4,0,0,0-4.52-.52,16.78,16.78,0,0,0-2.7.94l-5.62-1.4a11.341,11.341,0,0,0-6.22.92Z" transform="translate(-7.134 -81.121)" fill="#fff"/>
            <path id="패스_621256" data-name="패스 621256" d="M23.394,103.121s-3.22,1.38-4.9,2.36c-1.32.78-5.38,3.32-7.26,4.58a4.02,4.02,0,0,0-1.38,1.6,9.18,9.18,0,0,0-.88,2.92,12.249,12.249,0,0,0,.64,5.28,5.86,5.86,0,0,0,1.02,1.22,2.55,2.55,0,0,1-.02-.38c0-2.7,2.04-3.66,4.74-1.96a9.684,9.684,0,0,1,4.24,7.34,3.39,3.39,0,0,1-.02.46l.54.32,21.96,12.5v-.18c-.22-2.9,1.04-4.74,4.38-2.8a10.159,10.159,0,0,1,4.54,7.5l1.26.58c1.04.4,1.94-.4,4.18-1.54s10.9-6.58,12.68-7.7,2.52-2.14,2.7-2.98a38.154,38.154,0,0,0,.34-4.46,4.248,4.248,0,0,0-.66-1.8,12.339,12.339,0,0,1,0-1.48,22.823,22.823,0,0,0-.26-2.94l-.62-.62a21.211,21.211,0,0,0-.88-3l-.1-.26a7.1,7.1,0,0,0-3.4-3.74L44.054,102.5a6.4,6.4,0,0,0-4.52-.52,16.78,16.78,0,0,0-2.7.94l-5.62-1.4a11.341,11.341,0,0,0-6.22.92Z" transform="translate(-7.134 -81.121)" fill="none" stroke="#222" stroke-linejoin="round" stroke-width="0.6"/>
            <g id="그룹_300510" data-name="그룹 300510" transform="translate(12.84 21.64)" opacity="0.18">
              <g id="그룹_300509" data-name="그룹 300509" clip-path="url(#clip-path-11)">
                <path id="패스_621257" data-name="패스 621257" d="M64.264,117.74a13.8,13.8,0,0,1,2-.78l3.62-2.24c1.78-1.14,11.62-5.86,11.62-5.86l-.1-.56-.34.16-.5-.12-1.62.42c-2.84.72-3.58.92-8.2,3.3-4.26,2.18-6.98,4.42-6.48,5.68" transform="translate(-64.204 -108.28)" fill="#222"/>
              </g>
            </g>
            <path id="패스_621258" data-name="패스 621258" d="M64.4,113.263c3.32-1.64,7.88-1.84,9.3-1.86,1.2-.9,3.24-2.34,5.74-3.92a48.659,48.659,0,0,1,8.56-4.16c-.46-.12-1.68-.56-2.04-.6a8.827,8.827,0,0,0-4.74,1.22l-.36-.08a47.208,47.208,0,0,0-10.32,4.52c-3.74,2.24-5.3,3.82-6.12,4.88" transform="translate(-51.52 -82.163)" fill="#222"/>
            <path id="패스_621259" data-name="패스 621259" d="M316.5,203.66a5.363,5.363,0,0,1,.3.46,2.8,2.8,0,0,1-1.2,1.2h0l-.3-6.32.18-.5.72.64a22.374,22.374,0,0,1,.3,3,11.36,11.36,0,0,0,0,1.52" transform="translate(-252.24 -158.8)" fill="#f8483b"/>
            <path id="패스_621260" data-name="패스 621260" d="M316.5,203.66a5.363,5.363,0,0,1,.3.46,2.8,2.8,0,0,1-1.2,1.2h0l-.3-6.32.18-.5.72.64a22.374,22.374,0,0,1,.3,3A11.36,11.36,0,0,0,316.5,203.66Z" transform="translate(-252.24 -158.8)" fill="none" stroke="#222" stroke-linejoin="round" stroke-width="0.6"/>
            <path id="패스_621261" data-name="패스 621261" d="M316.22,211.56l-.12-2.64a5.578,5.578,0,0,0,.96-.62,11.476,11.476,0,0,1,.14,1.76c-.02.24-.02.48-.02.7a5.339,5.339,0,0,1-.94.8" transform="translate(-252.88 -166.64)" fill="#fff"/>
            <path id="패스_621262" data-name="패스 621262" d="M316.22,211.56l-.12-2.64a5.578,5.578,0,0,0,.96-.62,11.476,11.476,0,0,1,.14,1.76c-.02.24-.02.48-.02.7A5.339,5.339,0,0,1,316.22,211.56Z" transform="translate(-252.88 -166.64)" fill="none" stroke="#222" stroke-miterlimit="10" stroke-width="0.6"/>
            <path id="패스_621263" data-name="패스 621263" d="M213.92,239.76c.86-.32.26-1.72.26-1.72a2.72,2.72,0,0,0,.86.26,12.574,12.574,0,0,0,1.76-.5,17.74,17.74,0,0,1,.32,2.54c.08,1.52.22,1.62.22,1.62s4.92-2.66,6.84-3.84,4.78-2.94,6.6-4.14,2.06-1.72,2.22-2.24.36-3.88.36-3.88a2.58,2.58,0,0,0,1.04-1.16,3.32,3.32,0,0,1,.4,1.36,37.82,37.82,0,0,1-.34,4.46c-.18.82-.92,1.86-2.7,2.98s-10.42,6.56-12.68,7.7-3.14,1.96-4.18,1.54l-1.26-.58a9.56,9.56,0,0,0-1.34-4.12,5.8,5.8,0,0,0,1.62-.28Z" transform="translate(-169.84 -181.36)" fill="none" stroke="#222" stroke-linejoin="round" stroke-width="0.6"/>
            <g id="그룹_300512" data-name="그룹 300512" transform="translate(1.86 29.24)" opacity="0.18">
              <g id="그룹_300511" data-name="그룹 300511" clip-path="url(#clip-path-12)">
                <path id="패스_621264" data-name="패스 621264" d="M72.221,162.62l-.8.58-.52.3-.28-6.22.28-.6-1.48-4.2-16.2,9.74a4.24,4.24,0,0,0-2.14-3.68L29.541,146.2a21.881,21.881,0,0,0-9.12,1.86l-5.3-.28-.7.42a6.72,6.72,0,0,1-2.78.88l-2.18.2a40.479,40.479,0,0,0,0,4.4,6.623,6.623,0,0,0,1.38,3.34c-.02-5.4,4.82-2.76,4.82-2.76,4.9,3.58,4.32,8.16,4.32,8.16l22.5,12.82c-.48-5.9,3.8-3.28,3.8-3.28a10.1,10.1,0,0,1,5.1,7.8l2.18.66s13.46-7.98,15.06-8.52,3.16-2.82,3.16-2.82l.46-1.28.28-4.12Zm-29.8,10.08-9.24-5.42v-.16a.38.38,0,0,1,.56-.32l9.12,5.16Z" transform="translate(-9.381 -146.2)" fill="#222"/>
              </g>
            </g>
            <path id="패스_621265" data-name="패스 621265" d="M219.987,257.88a16.973,16.973,0,0,1-.42-4.74c.04-1.34.8-1.24,1.2-1.34s1.8-.3,1.8-.3l.06,6.1a12.574,12.574,0,0,1-1.76.5,2.719,2.719,0,0,1-.86-.26" transform="translate(-175.647 -201.2)" fill="#f8483b"/>
            <path id="패스_621266" data-name="패스 621266" d="M219.987,257.88a16.973,16.973,0,0,1-.42-4.74c.04-1.34.8-1.24,1.2-1.34s1.8-.3,1.8-.3l.06,6.1a12.574,12.574,0,0,1-1.76.5A2.72,2.72,0,0,1,219.987,257.88Z" transform="translate(-175.647 -201.2)" fill="none" stroke="#222" stroke-linejoin="round" stroke-width="0.6"/>
            <path id="패스_621267" data-name="패스 621267" d="M228.373,260.22v2.72c-.72.22-1.32.16-1.44-.04a4.122,4.122,0,0,1-.06-1.72c.1-.62,1.04-.84,1.48-.98" transform="translate(-181.453 -208.16)" fill="#fff"/>
            <path id="패스_621268" data-name="패스 621268" d="M228.373,260.3v2.72c-.72.22-1.32.16-1.44-.04a4.122,4.122,0,0,1-.06-1.72C226.973,260.64,227.913,260.44,228.373,260.3Z" transform="translate(-181.453 -208.24)" fill="none" stroke="#222" stroke-linejoin="round" stroke-width="0.6"/>
            <path id="패스_621269" data-name="패스 621269" d="M133.7,166.34c0-.88.04-2.58.06-3.76a6.22,6.22,0,0,0-3.22-5.66L110.1,144.9" transform="translate(-88.08 -115.92)" fill="none" stroke="#000" stroke-linecap="round" stroke-miterlimit="10" stroke-width="0.6"/>
            <path id="패스_621270" data-name="패스 621270" d="M252.58,186.984l1.02,3.96a1.62,1.62,0,0,1-.74,1.88l-13.02,7.54a.6.6,0,0,1-.9-.5l-.14-5.16a.6.6,0,0,1,.3-.52l12.6-7.52a.6.6,0,0,1,.88.34" transform="translate(-191.04 -149.264)" fill="#222"/>
            <path id="패스_621271" data-name="패스 621271" d="M64.4,155.5h0" transform="translate(-51.52 -124.4)" fill="#141c1e"/>
            <path id="패스_621272" data-name="패스 621272" d="M109.18,207.257l-2.72-1.58c-.14-.08-.26,0-.26.2v.94a.64.64,0,0,0,.26.5l2.72,1.58c.14.08.26,0,.26-.2v-.94a.64.64,0,0,0-.26-.5" transform="translate(-84.96 -164.517)" fill="#bcbcbc"/>
            <path id="패스_621273" data-name="패스 621273" d="M109.18,207.257l-2.72-1.58c-.14-.08-.26,0-.26.2v.94a.64.64,0,0,0,.26.5l2.72,1.58c.14.08.26,0,.26-.2v-.94A.64.64,0,0,0,109.18,207.257Z" transform="translate(-84.96 -164.517)" fill="none" stroke="#111" stroke-miterlimit="10" stroke-width="0.6"/>
            <path id="패스_621274" data-name="패스 621274" d="M109.18,206.957l-2.72-1.58c-.14-.08-.26,0-.26.2a.64.64,0,0,0,.26.5l2.72,1.58c.14.08.26,0,.26-.2a.64.64,0,0,0-.26-.5" transform="translate(-84.96 -164.277)" fill="#222"/>
            <path id="패스_621275" data-name="패스 621275" d="M109.18,206.957l-2.72-1.58c-.14-.08-.26,0-.26.2a.64.64,0,0,0,.26.5l2.72,1.58c.14.08.26,0,.26-.2a.64.64,0,0,0-.26-.5Z" transform="translate(-84.96 -164.277)" fill="none" stroke="#111" stroke-miterlimit="10" stroke-width="0.6"/>
            <path id="패스_621276" data-name="패스 621276" d="M10.9,144.72h0l2.3-.28a5.42,5.42,0,0,0,2.26-.8l.3-.2a.46.46,0,0,0,.06-.72L13.96,141l-1.14.76a4.02,4.02,0,0,0-1.38,1.6,8.3,8.3,0,0,0-.54,1.36" transform="translate(-8.72 -112.8)" fill="#222"/>
            <path id="패스_621277" data-name="패스 621277" d="M101.52,101.421l-2.04.78a1.12,1.12,0,0,1-.48.04l-3-.58a9.411,9.411,0,0,1,5.52-.26" transform="translate(-76.8 -80.861)" fill="#222"/>
            <line id="선_85582" data-name="선 85582" x1="9.66" y1="5.48" transform="translate(25.78 50.44)" fill="#fff"/>
            <line id="선_85583" data-name="선 85583" x1="9.66" y1="5.48" transform="translate(25.78 50.44)" fill="none" stroke="#222" stroke-linecap="round" stroke-miterlimit="10" stroke-width="0.6"/>
            <path id="패스_621278" data-name="패스 621278" d="M257.124,216.984l-13.36,7.72a.309.309,0,0,1-.3-.54l13.36-7.72a.309.309,0,1,1,.3.54" transform="translate(-194.644 -173.124)" fill="#fff"/>
            <path id="패스_621279" data-name="패스 621279" d="M10.4,175.116s1.42-5.4,7.04-1.82,3.5,7.3,8.44,9.56c3.5,1.58,9.32,2.78,13.64,4.32a37.34,37.34,0,0,0,8.2,1.84,5.188,5.188,0,0,1,4.58,3.3l.28,1.36a1.06,1.06,0,0,0,1.32.8l.2-.06,1.08-.22s.58,4.3.7,4.22,14.04-7.76,15.16-9.7a7.122,7.122,0,0,0,.82-3.92.62.62,0,0,1,.16-.46l.94-1.02.1.42a9.38,9.38,0,0,1,.24,3.62,5.418,5.418,0,0,1-2.42,4.26l-15.26,9.1a2.98,2.98,0,0,1-1.32.42,4.02,4.02,0,0,1-1.72-.26l-.1-.2a3.68,3.68,0,0,1-.26-.78,10,10,0,0,0-1.12-3c-1.12-1.96-3.28-4.88-6.02-4.62,0,0-2.28.14-1.76,4.04l-22.48-13.06a9.9,9.9,0,0,0-4.66-8.06c-2.98-1.88-4,.34-4.38,2.48a3.622,3.622,0,0,1-1.38-2.56" transform="translate(-8.32 -137.656)" fill="#3673ee"/>
            <path id="패스_621280" data-name="패스 621280" d="M10.4,175.116s1.42-5.4,7.04-1.82,3.5,7.3,8.44,9.56c3.5,1.58,9.32,2.78,13.64,4.32a37.34,37.34,0,0,0,8.2,1.84,5.188,5.188,0,0,1,4.58,3.3l.28,1.36a1.06,1.06,0,0,0,1.32.8l.2-.06,1.08-.22s.58,4.3.7,4.22,14.04-7.76,15.16-9.7a7.122,7.122,0,0,0,.82-3.92.62.62,0,0,1,.16-.46l.94-1.02.1.42a9.38,9.38,0,0,1,.24,3.62,5.418,5.418,0,0,1-2.42,4.26l-15.26,9.1a2.98,2.98,0,0,1-1.32.42,4.02,4.02,0,0,1-1.72-.26l-.1-.2a3.68,3.68,0,0,1-.26-.78,10,10,0,0,0-1.12-3c-1.12-1.96-3.28-4.88-6.02-4.62,0,0-2.28.14-1.76,4.04l-22.48-13.06a9.9,9.9,0,0,0-4.66-8.06c-2.98-1.88-4,.34-4.38,2.48A3.473,3.473,0,0,1,10.4,175.116Z" transform="translate(-8.32 -137.656)" fill="none" stroke="#222" stroke-linejoin="round" stroke-width="0.5"/>
            <path id="패스_621281" data-name="패스 621281" d="M238.78,246.84c-.64.16-.88-.04-.98-.36.24-.12,4.86-2.64,6.78-3.82s4.78-2.94,6.6-4.14,2.06-1.72,2.22-2.24a37.648,37.648,0,0,0,.2-3.88l.16.06a3.2,3.2,0,0,1,.3,1.34c0,.76-.2,2.88-.2,2.88a2.7,2.7,0,0,1-1.16,1.76c-1.04.76-6.06,4.04-9.08,5.78s-4.2,2.42-4.86,2.58" transform="translate(-190.24 -185.92)" fill="#fff"/>
            <path id="패스_621282" data-name="패스 621282" d="M238.78,246.84c-.64.16-.88-.04-.98-.36.24-.12,4.86-2.64,6.78-3.82s4.78-2.94,6.6-4.14,2.06-1.72,2.22-2.24a37.648,37.648,0,0,0,.2-3.88l.16.06a3.2,3.2,0,0,1,.3,1.34c0,.76-.2,2.88-.2,2.88a2.7,2.7,0,0,1-1.16,1.76c-1.04.76-6.06,4.04-9.08,5.78A33.513,33.513,0,0,1,238.78,246.84Z" transform="translate(-190.24 -185.92)" fill="none" stroke="#222" stroke-linejoin="round" stroke-width="0.6"/>
            <path id="패스_621283" data-name="패스 621283" d="M316.64,269.131a1.935,1.935,0,0,1-.82,1.56c-.46.26-.82-.02-.82-.62a1.935,1.935,0,0,1,.82-1.56c.46-.26.82.02.82.62" transform="translate(-252 -214.731)" fill="#fff"/>
            <path id="패스_621284" data-name="패스 621284" d="M316.64,269.131a1.935,1.935,0,0,1-.82,1.56c-.46.26-.82-.02-.82-.62a1.935,1.935,0,0,1,.82-1.56C316.28,268.251,316.64,268.531,316.64,269.131Z" transform="translate(-252 -214.731)" fill="none" stroke="#222" stroke-miterlimit="10" stroke-width="0.5"/>
            <path id="패스_621285" data-name="패스 621285" d="M329.562,270.394a2.98,2.98,0,0,0-5.54-2.18,1.659,1.659,0,0,0-.22-.46v-.08a1.68,1.68,0,0,0-3.32-.34l-.32-.06a1.04,1.04,0,1,0,.62,1.86,1.68,1.68,0,0,0,2.92.6,2.98,2.98,0,0,0,2.8,2.78,1.9,1.9,0,1,0,3.04-2.12" transform="translate(-255.282 -212.814)" fill="#dbdbdb"/>
            <path id="패스_621286" data-name="패스 621286" d="M329.562,270.394a2.98,2.98,0,0,0-5.54-2.18,1.659,1.659,0,0,0-.22-.46v-.08a1.68,1.68,0,0,0-3.32-.34l-.32-.06a1.04,1.04,0,1,0,.62,1.86,1.68,1.68,0,0,0,2.92.6,2.98,2.98,0,0,0,2.8,2.78,1.9,1.9,0,1,0,3.04-2.12Z" transform="translate(-255.282 -212.814)" fill="none" stroke="#222" stroke-linejoin="round" stroke-width="0.5"/>
            <path id="패스_621287" data-name="패스 621287" d="M385.523,292.8a1.06,1.06,0,1,1-.289-.768,1.06,1.06,0,0,1,.289.768" transform="translate(-306.723 -233.359)" fill="#dbdbdb"/>
            <path id="패스_621288" data-name="패스 621288" d="M385.523,292.8a1.06,1.06,0,1,1-.289-.768,1.06,1.06,0,0,1,.289.768Z" transform="translate(-306.723 -233.359)" fill="none" stroke="#222" stroke-linejoin="round" stroke-width="0.5"/>
            <path id="패스_621289" data-name="패스 621289" d="M176.6,206.68c0,1.32-.8,1.94-1.8,1.36a4.313,4.313,0,0,1-1.8-3.44,4.82,4.82,0,0,1,1.8-3.3,16.749,16.749,0,0,1,1.8,5.38" transform="translate(-138.4 -161.04)" fill="#3673ee"/>
            <path id="패스_621290" data-name="패스 621290" d="M176.6,206.68c0,1.32-.8,1.94-1.8,1.36a4.313,4.313,0,0,1-1.8-3.44,4.82,4.82,0,0,1,1.8-3.3C175.44,202.56,176.6,205.36,176.6,206.68Z" transform="translate(-138.4 -161.04)" fill="none" stroke="#222" stroke-linejoin="round" stroke-width="0.5"/>
            <path id="패스_621291" data-name="패스 621291" d="M156.1,221.68c0,.58-.36.86-.8.6a1.926,1.926,0,0,1-.8-1.52,2.156,2.156,0,0,1,.8-1.46,7.279,7.279,0,0,1,.8,2.38" transform="translate(-123.6 -175.44)" fill="#3673ee"/>
            <path id="패스_621292" data-name="패스 621292" d="M156.1,221.68c0,.58-.36.86-.8.6a1.926,1.926,0,0,1-.8-1.52,2.156,2.156,0,0,1,.8-1.46A7.439,7.439,0,0,1,156.1,221.68Z" transform="translate(-123.6 -175.44)" fill="none" stroke="#222" stroke-linejoin="round" stroke-width="0.5"/>
            <path id="패스_621293" data-name="패스 621293" d="M23.62,168.632a11.31,11.31,0,0,1,7.48,6.3l-.32-1.16a8.56,8.56,0,0,0-1.52-3.1,6.73,6.73,0,0,0-4.66-2.66,4.32,4.32,0,0,0-1.86.22,2.28,2.28,0,0,0-.7.42l-.24.2a1.44,1.44,0,0,1,.54-.16,3.9,3.9,0,0,1,1.28-.04" transform="translate(-17.44 -134.392)" fill="#fff"/>
            <path id="패스_621294" data-name="패스 621294" d="M21.86,171.3l-.26.2.56-.18" transform="translate(-17.28 -137.04)" fill="#fff"/>
            <path id="패스_621295" data-name="패스 621295" d="M82.989,183.48a1.92,1.92,0,0,1-.28.34.8.8,0,0,1-.82.28h0l-9.32-5.42-.1-.08v-.04a1.925,1.925,0,0,1-.1-1.06Z" transform="translate(-57.869 -142)" fill="#fff"/>
            <path id="패스_621296" data-name="패스 621296" d="M130.439,159.3l-21.04-12.46a.3.3,0,0,0-.3.52l20.88,12.3,1.66.98a4.887,4.887,0,0,0-1.2-1.36" transform="translate(-87.159 -117.439)" fill="#fff"/>
            <path id="패스_621297" data-name="패스 621297" d="M91.62,146.861s-.96-.56-4.52-.22a38.454,38.454,0,0,1,4.52-.46l.52.28Z" transform="translate(-69.68 -116.941)" fill="#fff"/>
            <path id="패스_621298" data-name="패스 621298" d="M175.484,202.7s-2.12,2.18-1.24,4.16a9.46,9.46,0,0,1,1.24-4.16" transform="translate(-139.225 -162.16)" fill="#fff"/>
            <path id="패스_621299" data-name="패스 621299" d="M361.02,274.66a.66.66,0,1,1-.66-.66.66.66,0,0,1,.66.66" transform="translate(-287.76 -219.2)" fill="#fff"/>
            <path id="패스_621300" data-name="패스 621300" d="M387.04,294.42a.32.32,0,1,1-.32-.32.32.32,0,0,1,.32.32" transform="translate(-309.12 -235.28)" fill="#fff"/>
            <path id="패스_621301" data-name="패스 621301" d="M335.56,270.58a.38.38,0,1,1-.38-.38.38.38,0,0,1,.38.38" transform="translate(-267.84 -216.16)" fill="#fff"/>
            <path id="패스_621302" data-name="패스 621302" d="M358.56,273.88a.38.38,0,1,1-.38-.38.38.38,0,0,1,.38.38" transform="translate(-286.24 -218.8)" fill="#fff"/>
            <g id="그룹_300514" data-name="그룹 300514" transform="translate(37.64 28.98)" opacity="0.3">
              <g id="그룹_300513" data-name="그룹 300513" clip-path="url(#clip-path-13)">
                <path id="패스_621303" data-name="패스 621303" d="M200.04,148.2c0,1.82-2.64,3.3-5.92,3.3s-5.92-1.48-5.92-3.3,2.64-3.3,5.92-3.3,5.92,1.48,5.92,3.3" transform="translate(-188.2 -144.9)" fill="#222"/>
              </g>
            </g>
            <path id="패스_621304" data-name="패스 621304" d="M197.68,150.96c0,1.2-1.86,2.16-4.14,2.16s-4.14-.96-4.14-2.16,1.86-2.16,4.14-2.16,4.14.96,4.14,2.16" transform="translate(-151.52 -119.04)" fill="#222"/>
            <path id="패스_621305" data-name="패스 621305" d="M23.394,103.121s-3.22,1.38-4.9,2.36c-1.32.78-5.38,3.32-7.26,4.58a4.02,4.02,0,0,0-1.38,1.6,9.18,9.18,0,0,0-.88,2.92,12.249,12.249,0,0,0,.64,5.28,5.86,5.86,0,0,0,1.02,1.22,2.55,2.55,0,0,1-.02-.38c0-2.7,2.04-3.66,4.74-1.96a9.684,9.684,0,0,1,4.24,7.34,3.39,3.39,0,0,1-.02.46l.54.32,21.96,12.5v-.18c-.22-2.9,1.04-4.74,4.38-2.8a10.159,10.159,0,0,1,4.54,7.5l1.26.58c1.04.4,1.94-.4,4.18-1.54s10.9-6.58,12.68-7.7,2.52-2.14,2.7-2.98a38.154,38.154,0,0,0,.34-4.46,4.248,4.248,0,0,0-.66-1.8,12.339,12.339,0,0,1,0-1.48,22.823,22.823,0,0,0-.26-2.94l-.62-.62a21.211,21.211,0,0,0-.88-3l-.1-.26a7.1,7.1,0,0,0-3.4-3.74L44.054,102.5a6.4,6.4,0,0,0-4.52-.52,16.78,16.78,0,0,0-2.7.94l-5.62-1.4a11.341,11.341,0,0,0-6.22.92Z" transform="translate(-7.134 -81.121)" fill="none" stroke="#222" stroke-linejoin="round" stroke-width="1"/>
            <path id="패스_621306" data-name="패스 621306" d="M83.9,163.492a4.979,4.979,0,0,0-.12.6c-.1.94-.34,3.24-.58,4.3-.14.62-.32,1.02-.6.96a2.18,2.18,0,0,1-.72-.28l-1.16-.62-8.2-4.62a.6.6,0,0,1-.32-.52h0c0-.66.02-1.72.04-2.2s2.04-1.3,4.98-1.52a2.42,2.42,0,0,1,.64.06,18.664,18.664,0,0,1,5.4,2.64c.94.48.72.9.64,1.2" transform="translate(-57.76 -127.672)" fill="#222"/>
            <line id="선_85584" data-name="선 85584" x2="21.66" y2="12.52" transform="translate(27.92 27.48)" fill="#222"/>
            <path id="패스_621307" data-name="패스 621307" d="M159.986,149.221a.6.6,0,0,1-.54-.02l-21.68-12.52c-.16-.1-.18-.22-.04-.3a.6.6,0,0,1,.54.02l21.68,12.52c.16.1.18.22.04.3" transform="translate(-110.106 -109.061)" fill="#222"/>
            <line id="선_85585" data-name="선 85585" x2="21.68" y2="12.52" transform="translate(31.48 25.42)" fill="#222"/>
            <path id="패스_621308" data-name="패스 621308" d="M177.866,138.921a.6.6,0,0,1-.54-.02l-21.66-12.52c-.16-.1-.18-.22-.04-.3a.6.6,0,0,1,.54.02l21.66,12.52c.16.1.18.22.04.3" transform="translate(-124.426 -100.821)" fill="#222"/>
            <line id="선_85586" data-name="선 85586" x2="21.68" y2="12.5" transform="translate(34.86 23.48)" fill="#222"/>
            <path id="패스_621309" data-name="패스 621309" d="M194.766,129.221a.6.6,0,0,1-.54-.02l-21.66-12.52c-.16-.1-.18-.22-.04-.3a.6.6,0,0,1,.54.02l21.68,12.5c.16.1.18.22.04.3" transform="translate(-137.946 -93.061)" fill="#222"/>
            <path id="패스_621310" data-name="패스 621310" d="M179.8,123.5l1.98,6.84,1.56,1.46,1.7.18,1.74-.14,2.36-1.12.44-1.1,1.62-5.76-1.26.18-1.96.84-2.54.52-2.78-.38Z" transform="translate(-143.84 -98.8)" fill="#fff"/>
            <path id="패스_621311" data-name="패스 621311" d="M188.585,91.952c.14,2.5-2.68,4.7-6.26,4.88s-6.62-1.68-6.74-4.2,2.68-4.7,6.26-4.88S188.445,89.452,188.585,91.952Z" transform="translate(-140.465 -70.192)" fill="none" stroke="#000" stroke-miterlimit="10" stroke-width="0.9"/>
            <path id="패스_621312" data-name="패스 621312" d="M197.42,154.1c-.36,1.24-1.92,2.28-3.8,2.38s-3.54-.74-4.02-1.96" transform="translate(-151.68 -123.28)" fill="none" stroke="#222" stroke-miterlimit="10" stroke-width="0.6"/>
            <line id="선_85587" data-name="선 85587" x2="2.26" y2="7.04" transform="translate(35.66 24.18)" fill="none" stroke="#222" stroke-miterlimit="10" stroke-width="0.6"/>
            <line id="선_85588" data-name="선 85588" y1="7.94" x2="2.24" transform="translate(45.74 22.88)" fill="none" stroke="#222" stroke-miterlimit="10" stroke-width="0.6"/>
            <path id="패스_621313" data-name="패스 621313" d="M182.4,118.86s1.4,5.34,5.5,5.12,4.5-5.98,4.5-5.98" transform="translate(-145.92 -94.4)" fill="none" stroke="#000" stroke-linecap="round" stroke-miterlimit="10" stroke-width="0.6"/>
            <path id="패스_621314" data-name="패스 621314" d="M198.2,144.8a4.8,4.8,0,0,0,2.36.44,5.561,5.561,0,0,0,1.6-.32" transform="translate(-158.56 -115.84)" fill="none" stroke="#000" stroke-linecap="round" stroke-miterlimit="10" stroke-width="1.6"/>
            <path id="패스_621315" data-name="패스 621315" d="M175.94,71.74l2.1-2.3.7-.62-.2-.5,1.64-1.64,1.28-.3,1.08-.1,1.62-.9,1.58-.22,1.36.24,1.1.38.44.2.88-.8.84-.1.82-.18,1.4.38.56,1.4-.06,1.1-.2.82.66.74.48,1.36-.58.94-.96.76-.06.94-.34,1.24-1.28.06a3.52,3.52,0,0,0-.38.64,7.22,7.22,0,0,1-.38.74l-.8.48-1.54-.18h-.3l-1.1.84-1.12.5-1.46.58-1.78.32-2.56-.16a21.638,21.638,0,0,1-3.4-1.98,6.2,6.2,0,0,1-1.18-2.58l.34-1.04Z" transform="translate(-139.84 -51.92)" fill="#a3d8ff"/>
            <path id="패스_621316" data-name="패스 621316" d="M192.5,96.88l-.2.5-1.78,1.44-.44.68a4.46,4.46,0,0,1-1.28-.42,9.7,9.7,0,0,1,3.66-2.68Z" transform="translate(-151.04 -77.12)" fill="#d1a900"/>
            <path id="패스_621317" data-name="패스 621317" d="M152.14,93.34l-.04-.04h.04Z" transform="translate(-121.68 -74.64)" fill="#ffd100"/>
            <path id="패스_621318" data-name="패스 621318" d="M295.112,125.086a.693.693,0,0,0-.92.52.96.96,0,0,0,.62.96,1.7,1.7,0,0,0,1.2-.02c.32-.12.68-.36.64-.7a.66.66,0,0,0-.18-.36,1.38,1.38,0,0,0-1.26-.42" transform="translate(-235.352 -100.026)" fill="#a3d8ff"/>
            <path id="패스_621319" data-name="패스 621319" d="M294.164,123.762a.94.94,0,0,0-1.26.5,1.173,1.173,0,0,0,.52,1.38,1.926,1.926,0,0,0,1.66.06,1.28,1.28,0,0,0,.62-.48.76.76,0,0,0,0-.8,1.64,1.64,0,0,0-1.66-.68.272.272,0,0,0,.16.52,1.1,1.1,0,0,1,.92.28c.1.1.22.24.18.36a.62.62,0,0,1-.28.26,1.48,1.48,0,0,1-1.1.12.74.74,0,0,1-.52-.64.42.42,0,0,1,.18-.34l.18-.08h.14a.264.264,0,1,0,.26-.46" transform="translate(-234.264 -98.942)"/>
            <path id="패스_621320" data-name="패스 621320" d="M268.86,109.958a.979.979,0,0,0-1.48-.4,1.4,1.4,0,0,0-.36,1.64,2.5,2.5,0,0,0,1.26,1.22c.44.22,1.06.32,1.38-.08a.98.98,0,0,0,.18-.56,2,2,0,0,0-.86-1.74" transform="translate(-213.52 -87.498)" fill="#a3d8ff"/>
            <path id="패스_621321" data-name="패스 621321" d="M268.014,108.839a1.24,1.24,0,0,0-1.62-.7,1.554,1.554,0,0,0-.84,1.8,2.7,2.7,0,0,0,1.5,1.68,1.9,1.9,0,0,0,1.06.2.98.98,0,0,0,.82-.7,2.227,2.227,0,0,0-.94-2.34.264.264,0,1,0-.26.46,1.74,1.74,0,0,1,.72,1.44c0,.24-.06.5-.3.58a1.1,1.1,0,0,1-.72-.08,2.26,2.26,0,0,1-1.24-1.1,1.155,1.155,0,0,1,.22-1.34.7.7,0,0,1,1.1.22.27.27,0,1,0,.52-.14" transform="translate(-212.414 -86.439)"/>
            <path id="패스_621322" data-name="패스 621322" d="M193.56,71.041a1.74,1.74,0,0,1-1.12.8,2.2,2.2,0,0,1,.08.56,1.913,1.913,0,0,1-1.8,2.02h-.3a1.68,1.68,0,0,1-2.46,1.48,2.97,2.97,0,0,0-1.8.72h0a7.962,7.962,0,0,1-4.82,1.52c-3.72,0-6.74-2.24-6.74-5.02,0-2.04,1.62-3.78,3.96-4.56a2.06,2.06,0,0,1,.12-1.16c.48-1.14,2-1.64,3.62-1.32a4.344,4.344,0,0,1,3.48-1.48,4.9,4.9,0,0,1,2.76.78l.4-.36a2.7,2.7,0,0,1,3.8.16,2.29,2.29,0,0,1-.16,3.04A2.178,2.178,0,0,1,193.56,71.041Z" transform="translate(-139.68 -51.461)" fill="none" stroke="#222" stroke-linejoin="round" stroke-width="0.6"/>
            <path id="패스_621323" data-name="패스 621323" d="M163.04,80.635a9.7,9.7,0,0,0-3.66,2.68,3.16,3.16,0,0,1-.66-.4h-.02a3.048,3.048,0,0,0-2.78-1.54c-.34.02-.66-.1-1-.08a3.276,3.276,0,0,1-2.86-1.22h0l-.06-.3.08-1.3,1.12-.9,1.04-.56a5.3,5.3,0,0,1,2.08-.26,3.372,3.372,0,0,1,2.68,1.88l.26.38.76.12.64-.08.84.14.8.46.7.62Z" transform="translate(-121.6 -61.375)" fill="#ffda34"/>
            <path id="패스_621324" data-name="패스 621324" d="M161.04,96.64l-.22.62-.9.56-1-.2L157.6,96.2l-.76-.54-1.58.2-1.42-.04-.86-.4-.42-.38-.26-1.54a3.813,3.813,0,0,0,2.86,1.22c.34,0,.86-.1,1.2-.1a3.346,3.346,0,0,1,2.92,1.34l.48.24c.28.24.38.3,1.28.46" transform="translate(-121.84 -74.8)" fill="#d1a900"/>
            <path id="패스_621325" data-name="패스 621325" d="M192.8,102.28a5.294,5.294,0,0,1,4.68-3.88" transform="translate(-154.24 -78.72)" fill="none" stroke="#000" stroke-linecap="round" stroke-miterlimit="10" stroke-width="0.6"/>
            <path id="패스_621326" data-name="패스 621326" d="M159.73,81.9c-.86.3-1.52-.64-2.06-1.14a3.526,3.526,0,0,0-2.3-.8,12.864,12.864,0,0,1-2.78.04c-.92-.2-1.42-.66-1.44-1.48,0-1.56,1.82-2.2,3.08-2.44a3.34,3.34,0,0,1,2.16.36,2.84,2.84,0,0,1,1.36,1.58c.18.46.54.5.96.42a4.54,4.54,0,0,1,1.52-.04c.8.16,1.72.82,1.54,1.76-.06.34.46.48.52.14a2.032,2.032,0,0,0-1.02-2.08,2.98,2.98,0,0,0-1.32-.4,9.3,9.3,0,0,0-1.5.1c-.5.04-.22-.18-.3-.36a2.88,2.88,0,0,0-.3-.56,3.4,3.4,0,0,0-.84-.82,3.98,3.98,0,0,0-2.32-.68,6.22,6.22,0,0,0-2.12.54,3.109,3.109,0,0,0-1.84,1.78,1.96,1.96,0,0,0,.62,2.2,3.819,3.819,0,0,0,2.68.58c.92-.06,2.32-.28,3.22.52s1.5,1.68,2.62,1.3c.32-.12.18-.64-.14-.52" transform="translate(-120.49 -60.396)" fill="#222"/>
            <path id="패스_621327" data-name="패스 621327" d="M150.685,91.237a4.46,4.46,0,0,0,.3,1.8,2.272,2.272,0,0,0,1.9,1.08,6.16,6.16,0,0,0,1.36.08c.46-.02.9-.14,1.34-.2s.34.18.46.34l.46.52a4.32,4.32,0,0,0,.92.88,1.705,1.705,0,0,0,2.26-.08c.24-.26-.14-.64-.38-.38a.86.86,0,0,1-.84.32,2.14,2.14,0,0,1-.94-.44,6.619,6.619,0,0,1-.78-.84c-.22-.26-.46-.66-.78-.8a1.856,1.856,0,0,0-1.04.08,5.86,5.86,0,0,1-1.26.08,5.34,5.34,0,0,1-1.24-.2,1.406,1.406,0,0,1-.82-.46,4.2,4.2,0,0,1-.34-1.74.28.28,0,0,0-.54,0" transform="translate(-120.545 -72.857)" fill="#222"/>
          </g>
        </g>
      </g>
    </g>
  </g>
</svg>
