<svg xmlns="http://www.w3.org/2000/svg" xmlns:xlink="http://www.w3.org/1999/xlink" width="20" height="20" viewBox="0 0 20 20">
  <defs>
    <clipPath id="clip-path">
      <rect id="사각형_350944" data-name="사각형 350944" width="20" height="20" fill="none"/>
    </clipPath>
  </defs>
  <g id="icon_visit_20" transform="translate(10 10)">
    <g id="그룹_473078" data-name="그룹 473078" transform="translate(-10 -10)" clip-path="url(#clip-path)">
      <g id="그룹_473072" data-name="그룹 473072" clip-path="url(#clip-path)">
        <g id="그룹_473071" data-name="그룹 473071" opacity="0">
          <g id="그룹_473070" data-name="그룹 473070" clip-path="url(#clip-path)">
            <rect id="사각형_350936" data-name="사각형 350936" width="20" height="20" fill="#f0f"/>
          </g>
        </g>
      </g>
      <g id="그룹_473077" data-name="그룹 473077" clip-path="url(#clip-path)">
        <g id="그룹_473074" data-name="그룹 473074" opacity="0">
          <g id="그룹_473073" data-name="그룹 473073" clip-path="url(#clip-path)">
            <rect id="사각형_350939" data-name="사각형 350939" width="20" height="20" fill="#f0f"/>
          </g>
        </g>
        <g id="그룹_473076" data-name="그룹 473076" opacity="0">
          <g id="그룹_473075" data-name="그룹 473075" clip-path="url(#clip-path)">
            <rect id="사각형_350941" data-name="사각형 350941" width="20" height="20" fill="#f0f"/>
          </g>
        </g>
        <path id="패스_877789" data-name="패스 877789" d="M18.9,15.3v1.5a2.2,2.2,0,0,1-4.3,0V15.3" fill="none" stroke="#111" stroke-width="1.5"/>
        <path id="패스_877790" data-name="패스 877790" d="M8.1,15.3v1.5a2.2,2.2,0,0,1-4.3,0V15.3" fill="none" stroke="#111" stroke-width="1.5"/>
        <path id="패스_877791" data-name="패스 877791" d="M14.3,9.6h3a1.9,1.9,0,0,1,1.9,1.9v4.3H10.4" fill="none" stroke="#111" stroke-linejoin="round" stroke-width="1.5"/>
        <path id="패스_877792" data-name="패스 877792" d="M2.4,13.4a2.3,2.3,0,0,0,2.3,2.3h6.2" fill="none" stroke="#111" stroke-linecap="round" stroke-linejoin="round" stroke-width="1.5"/>
        <path id="패스_877793" data-name="패스 877793" d="M10.9,15.7h3.9V7.6a1.5,1.5,0,0,0-1.5-1.5h-.8" fill="none" stroke="#111" stroke-linecap="square" stroke-linejoin="round" stroke-width="1.5"/>
        <path id="패스_877794" data-name="패스 877794" d="M6.6,1.1A5.7,5.7,0,1,1,.9,6.8,5.7,5.7,0,0,1,6.6,1.1Z" fill="none" stroke="#111" stroke-width="1.5"/>
        <path id="패스_877795" data-name="패스 877795" d="M4.5,4.4a3.2,3.2,0,0,1,1.3-.7" fill="none" stroke="#111" stroke-linecap="round" stroke-width="1.5"/>
        <path id="패스_877796" data-name="패스 877796" d="M3.4,6.8A3.2,3.2,0,0,1,4.5,4.4" fill="none" stroke="#111" stroke-width="1.5"/>
      </g>
    </g>
  </g>
</svg>
