<svg xmlns="http://www.w3.org/2000/svg" xmlns:xlink="http://www.w3.org/1999/xlink" width="28" height="28" viewBox="0 0 28 28"><defs><style>.a,.d,.f,.g,.h{fill:none;}.b{clip-path:url(#a);}.c{fill:#fddb2b;}.d{stroke:#fccb3a;}.e{fill:#fff;}.f,.g,.h{stroke:#111;}.f,.g{stroke-linecap:round;}.f{stroke-linejoin:round;}.g,.h{stroke-miterlimit:10;}</style><clipPath id="a"><rect class="a" width="28" height="28"/></clipPath></defs><g transform="translate(14 14)"><g transform="translate(-14 -14)"><g class="b"><path class="c" d="M14,0A14,14,0,1,1,0,14,14,14,0,0,1,14,0"/><circle class="d" cx="13.5" cy="13.5" r="13.5" transform="translate(0.5 0.5)"/></g><g class="b"><path class="e" d="M18.5,20.3H12.8a.4.4,0,0,1-.4-.3l-1.3-6.8a.4.4,0,0,1,.4-.5h8.4a.4.4,0,0,1,.3.4L18.9,20a.4.4,0,0,1-.3.3"/><path class="f" d="M15.2,14.2s-1.3,4.1-4.7,3c0,0-2.5-.8-.2-3.8L10,11.9h8.8l-1.5,7.6H11.5L11,17.3"/><line class="g" x2="1.1" transform="translate(14.9 14)"/><line class="h" x2="1" transform="translate(14 14)"/><path class="g" d="M13,9.7a3,3,0,0,1,3.3-1.5,2.8,2.8,0,0,1,2.1,1.9"/><path class="g" d="M10.4,10a2.2,2.2,0,0,1,2.9-1"/></g></g></g></svg>