<svg xmlns="http://www.w3.org/2000/svg" width="24" height="24"><defs><clipPath id="a"><path data-name="사각형 296089" fill="none" d="M0 0h24v24H0z"/></clipPath></defs><g data-name="그룹 385534" clip-path="url(#a)"><g data-name="그룹 385533" clip-path="url(#a)"><path data-name="패스 779842" d="M11 22.5H5.3a2.9 2.9 0 01-2.9-2.9V9.2l8.9-6.9a1 1 0 011.3 0l8.9 6.9v13.3z" fill="#cbdbfa"/><path data-name="선 113869" fill="none" stroke="#3673ee" stroke-linecap="round" stroke-linejoin="round" stroke-width="1.5" d="M12 18v-1"/><path data-name="패스 779843" d="M11 22.5H5a3 3 0 01-3-3V9l9.3-7.3a1 1 0 011.4 0L22 9v13.5h-7s-3 .5-3-4.5" fill="none" stroke="#3673ee" stroke-linejoin="round" stroke-width="1.5"/><path data-name="선 113870" fill="none" stroke="#3673ee" stroke-linecap="round" stroke-width="1.5" d="M12.4 12h1.1"/><path data-name="선 113871" fill="none" stroke="#3673ee" stroke-width="1.5" d="M9.5 12h3.9"/></g></g></svg>