<svg xmlns="http://www.w3.org/2000/svg" xmlns:xlink="http://www.w3.org/1999/xlink" width="16" height="16" viewBox="0 0 16 16">
  <defs>
    <clipPath id="clip-path">
      <rect id="사각형_213230" data-name="사각형 213230" width="16" height="16" fill="none"/>
    </clipPath>
  </defs>
  <g id="eyes_16x16" transform="translate(8 8)">
    <g id="그룹_277383" data-name="그룹 277383" transform="translate(-8 -8)" clip-path="url(#clip-path)">
      <g id="그룹_277386" data-name="그룹 277386" transform="translate(-1 -1.303)">
        <path id="패스_482041" data-name="패스 482041" d="M10.818,6.318a3.638,3.638,0,0,1,3.636,3.636,3.588,3.588,0,0,1-.2,1.126l2.319,2.1a8.631,8.631,0,0,0,2.241-3.23A8.592,8.592,0,0,0,7.667,5.1L9.354,6.631A3.607,3.607,0,0,1,10.818,6.318Z" transform="translate(-1.818 -0.054)" fill="#111"/>
        <path id="패스_482042" data-name="패스 482042" d="M11.931,9c-.063,0-.123.013-.185.019l2.365,2.145A2.178,2.178,0,0,0,11.931,9Z" transform="translate(-2.931 -1.281)" fill="#111"/>
        <path id="패스_482043" data-name="패스 482043" d="M15.426,15.208,3.408,4.3l-.733.809L3.85,6.177A8.626,8.626,0,0,0,1,9.9a8.585,8.585,0,0,0,11.919,4.5l1.774,1.61ZM9,13.537A3.638,3.638,0,0,1,5.364,9.9a3.562,3.562,0,0,1,.529-1.869L7.008,9.043a2.121,2.121,0,0,0-.19.857A2.179,2.179,0,0,0,9,12.083a2.156,2.156,0,0,0,1.054-.276l1.105,1A3.581,3.581,0,0,1,9,13.537Z" fill="#111"/>
      </g>
    </g>
  </g>
</svg>
