<svg xmlns="http://www.w3.org/2000/svg" width="20" height="20"><defs><clipPath id="a"><path fill="none" d="M0 0h20v20H0z"/></clipPath><style>.b{fill:#666}.c{clip-path:url(#a)}.e{fill:#111}</style></defs><g class="c"><path class="b" d="M10 19.5a.7.7 0 01-.7-.7V10a.75.75 0 011.5 0v8.8a.7.7 0 01-.7.7M10 1.2V10"/><path class="b" d="M9.3.5h1.5v10.23H9.3zM10 10h8.8"/><path class="b" d="M18.8 10.7H10a.75.75 0 110-1.5h8.8a.75.75 0 110 1.5M1.2 10H10"/><path class="b" d="M.5 9.3h10.2v1.46H.5z"/></g></svg>