<svg xmlns="http://www.w3.org/2000/svg" xmlns:xlink="http://www.w3.org/1999/xlink" width="28" height="28" viewBox="0 0 28 28">
  <defs>
    <style>
      .cls-1, .cls-10, .cls-7, .cls-8, .cls-9 {
        fill: none;
      }

      .cls-2 {
        clip-path: url(#clip-path);
      }

      .cls-3 {
        fill: #fddb2b;
      }

      .cls-4 {
        fill: #fff;
      }

      .cls-5 {
        opacity: 0;
      }

      .cls-6 {
        fill: #f0f;
      }

      .cls-7, .cls-8, .cls-9 {
        stroke: #111;
      }

      .cls-7 {
        stroke-linecap: square;
      }

      .cls-10, .cls-7 {
        stroke-miterlimit: 10;
      }

      .cls-10, .cls-7, .cls-8, .cls-9 {
        stroke-width: 1.5px;
      }

      .cls-9 {
        stroke-linejoin: round;
      }

      .cls-10 {
        stroke: #000;
      }
    </style>
    <clipPath id="clip-path">
      <rect id="사각형_239095" data-name="사각형 239095" class="cls-1" width="28" height="28"/>
    </clipPath>
  </defs>
  <g id="전화문의_28x28" transform="translate(14 14)">
    <g id="그룹_309246" data-name="그룹 309246" class="cls-2" transform="translate(-14 -14)">
      <rect id="사각형_239091" data-name="사각형 239091" class="cls-3" width="28" height="28"/>
      <g id="그룹_309245" data-name="그룹 309245" class="cls-2">
        <path id="패스_638102" data-name="패스 638102" class="cls-4" d="M26.6,14.9A10.8,10.8,0,1,1,15.8,4.1,10.8,10.8,0,0,1,26.6,14.9"/>
        <g id="그룹_309244" data-name="그룹 309244" class="cls-5">
          <g id="그룹_309243" data-name="그룹 309243" class="cls-2">
            <rect id="사각형_239092" data-name="사각형 239092" class="cls-6" width="28" height="28"/>
          </g>
        </g>
        <path id="패스_638103" data-name="패스 638103" class="cls-7" d="M14.5,13a2.2,2.2,0,0,1-4.4,0"/>
        <line id="선_87642" data-name="선 87642" class="cls-8" y2="2.5" transform="translate(15.9 7.9)"/>
        <line id="선_87643" data-name="선 87643" class="cls-8" y2="2.5" transform="translate(8.2 7.9)"/>
        <path id="패스_638104" data-name="패스 638104" class="cls-9" d="M10.1,23.9a10.9,10.9,0,0,1-6.6-9.2,11.2,11.2,0,0,1,.7-5.1A10.6,10.6,0,0,1,18.1,3.5a11,11,0,0,1,6.6,11.2,11.2,11.2,0,0,1-.7,3,10.7,10.7,0,0,1-10,6.9s-2.4,0-2.8-3.7"/>
        <path id="패스_638105" data-name="패스 638105" class="cls-10" d="M3.6,15.2a2.8,2.8,0,1,1,0-5.6"/>
        <path id="패스_638106" data-name="패스 638106" class="cls-10" d="M24.7,15.2a2.7,2.7,0,1,0,0-5.4"/>
        <path id="패스_638107" data-name="패스 638107" class="cls-8" d="M13.5,18.7v2a1.25,1.25,0,1,1-2.5,0v-2a1.3,1.3,0,0,1,2.5,0Z"/>
      </g>
    </g>
  </g>
</svg>
