<svg xmlns="http://www.w3.org/2000/svg" xmlns:xlink="http://www.w3.org/1999/xlink" width="24" height="24" viewBox="0 0 24 24">
  <defs>
    <clipPath id="clip-path">
      <rect id="사각형_293003" data-name="사각형 293003" width="24" height="24" fill="none"/>
    </clipPath>
    <clipPath id="clip-path-3">
      <rect id="사각형_293001" data-name="사각형 293001" width="20" height="20" transform="translate(2 2)" fill="none"/>
    </clipPath>
  </defs>
  <g id="icon_membership_on_24" transform="translate(12 12)">
    <g id="icon_membership_on_24-2" data-name="icon_membership_on_24" transform="translate(-12 -12)" clip-path="url(#clip-path)">
      <g id="그룹_382459" data-name="그룹 382459" clip-path="url(#clip-path)">
        <path id="패스_776803" data-name="패스 776803" d="M11.8,1.4a.3.3,0,0,1,.5,0l4.3,7.2h.3l4.8-4.8H22V18.2H2V4.1a.2.2,0,0,1,.2-.2h.2L7.2,8.7h.3Z" fill="#cbdbfa"/>
        <line id="선_110500" data-name="선 110500" x2="1.1" transform="translate(12.6 13.3)" fill="#cbdbfa"/>
        <line id="선_110501" data-name="선 110501" x2="3.9" transform="translate(9.7 13.3)" fill="#cbdbfa"/>
        <g id="그룹_382458" data-name="그룹 382458" opacity="0">
          <g id="그룹_382457" data-name="그룹 382457" clip-path="url(#clip-path-3)">
            <rect id="사각형_293000" data-name="사각형 293000" width="20" height="20" transform="translate(2 2)" fill="#f0f"/>
          </g>
        </g>
        <line id="선_110502" data-name="선 110502" x2="5.5" transform="translate(16.6 22.5)" fill="none" stroke="#3673ee" stroke-linecap="round" stroke-miterlimit="10" stroke-width="1.5"/>
        <line id="선_110503" data-name="선 110503" x2="15.4" transform="translate(1.2 22.5)" fill="none" stroke="#3673ee" stroke-miterlimit="10" stroke-width="1.5"/>
        <path id="패스_776804" data-name="패스 776804" d="M11.8,1.4a.3.3,0,0,1,.5,0l4.3,7.2h.3l4.8-4.8H22V18.2H2V4.1a.2.2,0,0,1,.2-.2h.2L7.2,8.7h.3Z" fill="none" stroke="#3673ee" stroke-linejoin="round" stroke-width="1.5"/>
        <line id="선_110504" data-name="선 110504" x2="1.1" transform="translate(12.6 13.3)" fill="none" stroke="#3673ee" stroke-linecap="round" stroke-width="1.5"/>
        <line id="선_110505" data-name="선 110505" x2="3.9" transform="translate(9.7 13.3)" fill="none" stroke="#3673ee" stroke-width="1.5"/>
      </g>
    </g>
  </g>
</svg>
