<svg xmlns="http://www.w3.org/2000/svg" xmlns:xlink="http://www.w3.org/1999/xlink" width="26.771" height="20.952" viewBox="0 0 26.771 20.952"><defs><style>.a{fill-rule:evenodd;fill:url(#a);}</style><linearGradient id="a" x1="-0.158" y1="0.5" x2="1.382" y2="0.5" gradientUnits="objectBoundingBox"><stop offset="0" stop-color="#ddd"/><stop offset="1" stop-color="#a8a7a1"/></linearGradient></defs><path class="a" d="M90.7,213.481H82.279v3.845H90.7Zm0-12.7h-5.91a2.374,2.374,0,0,0-2.513,2.206v1.057H90.7Zm-8.423,18.746a2.374,2.374,0,0,0,2.513,2.205h21.746a2.374,2.374,0,0,0,2.513-2.205v-1.918H82.279Zm8.423-15.2H82.279v4.269H90.7Zm0,4.549H82.279V213.2H90.7Zm9.444-8.092H91.021v16.548h9.125V208.59h8.9v-4.269h-8.9Zm.319,16.548h8.585v-3.845h-8.585Zm6.072-16.548h-6.072v3.262h8.585v-1.057A2.374,2.374,0,0,0,106.538,200.778ZM100.465,213.2h8.585V208.87h-8.585Z" transform="translate(-82.279 -200.778)"/></svg>