<svg xmlns="http://www.w3.org/2000/svg" xmlns:xlink="http://www.w3.org/1999/xlink" width="70" height="70" viewBox="0 0 70 70">
  <defs>
    <clipPath id="clip-path">
      <rect id="사각형_317814" data-name="사각형 317814" width="70" height="70" fill="none"/>
    </clipPath>
    <clipPath id="clip-path-3">
      <rect id="사각형_317805" data-name="사각형 317805" width="53.06" height="30.646" fill="none"/>
    </clipPath>
    <clipPath id="clip-path-4">
      <path id="패스_837402" data-name="패스 837402" d="M504.05,303.633a3.864,3.864,0,0,0-1.75,3.033c0,1.12.782,1.575,1.75,1.015a3.864,3.864,0,0,0,1.75-3.033c0-.793-.4-1.248-.968-1.248a1.587,1.587,0,0,0-.782.233" transform="translate(-502.3 -303.4)" fill="none"/>
    </clipPath>
    <linearGradient id="linear-gradient" x1="-16.743" y1="7.15" x2="-16.71" y2="7.15" gradientUnits="objectBoundingBox">
      <stop offset="0" stop-color="#c2c1c1"/>
      <stop offset="1" stop-color="#dfdedd"/>
    </linearGradient>
    <clipPath id="clip-path-6">
      <path id="패스_837408" data-name="패스 837408" d="M269.05,439.333a3.864,3.864,0,0,0-1.75,3.033c0,1.12.782,1.575,1.75,1.015a3.864,3.864,0,0,0,1.75-3.033c0-.793-.4-1.248-.968-1.248a1.587,1.587,0,0,0-.782.233" transform="translate(-267.3 -439.1)" fill="none"/>
    </clipPath>
    <linearGradient id="linear-gradient-2" x1="-8.91" y1="3.879" x2="-8.877" y2="3.879" xlink:href="#linear-gradient"/>
    <clipPath id="clip-path-8">
      <rect id="사각형_317810" data-name="사각형 317810" width="15.202" height="8.321" fill="none"/>
    </clipPath>
    <clipPath id="clip-path-9">
      <rect id="사각형_317811" data-name="사각형 317811" width="55.51" height="30.087" fill="none"/>
    </clipPath>
    <clipPath id="clip-path-10">
      <rect id="사각형_317812" data-name="사각형 317812" width="10.407" height="5.801" fill="none"/>
    </clipPath>
  </defs>
  <g id="illust_visit_tmap_110" transform="translate(35 35)">
    <g id="그룹_421257" data-name="그룹 421257" transform="translate(-35 -35)" clip-path="url(#clip-path)">
      <g id="그룹_421246" data-name="그룹 421246" clip-path="url(#clip-path)">
        <g id="그룹_421245" data-name="그룹 421245" transform="translate(12.087 28.642)" opacity="0.2">
          <g id="그룹_421244" data-name="그룹 421244" clip-path="url(#clip-path-3)">
            <path id="패스_837397" data-name="패스 837397" d="M156.671,255.367h0a1.75,1.75,0,0,1-.875,1.54L122.6,275.993a1.978,1.978,0,0,1-1.808,0l-16.812-9.777a.557.557,0,0,1,0-1.05l34.253-19.39a2.014,2.014,0,0,1,1.808,0c10.383,1.12,16.287,4.153,16.613,9.59" transform="translate(-103.611 -245.555)"/>
          </g>
        </g>
        <path id="패스_837398" data-name="패스 837398" d="M483.917,282.55l-1.832-1.05-.49.268a8.921,8.921,0,0,0-3.99,6.6l-.8.385a1.54,1.54,0,0,0,.3.21l2.2,1.26a2.2,2.2,0,0,0,2.287-.187,7,7,0,0,0,3.162-5.483,2.277,2.277,0,0,0-.84-1.995" transform="translate(-421.173 -248.658)" fill="#222"/>
        <path id="패스_837399" data-name="패스 837399" d="M497.035,290.485a6.993,6.993,0,0,1-3.173,5.483c-1.75,1-3.162.187-3.162-1.832a7.012,7.012,0,0,1,3.162-5.483c1.738-1,3.173-.187,3.173,1.832" transform="translate(-433.452 -254.598)" fill="#222"/>
        <path id="패스_837400" data-name="패스 837400" d="M499.333,293.554a6.462,6.462,0,0,1-2.917,5.052c-1.61.933-2.917.175-2.917-1.68a6.462,6.462,0,0,1,2.917-5.052c1.61-.933,2.917-.175,2.917,1.68" transform="translate(-435.925 -257.469)" fill="#222"/>
        <path id="패스_837401" data-name="패스 837401" d="M504.563,302.233A4.805,4.805,0,0,1,502.382,306c-1.2.688-2.182.128-2.182-1.26a4.805,4.805,0,0,1,2.182-3.768c1.2-.688,2.182-.128,2.182,1.26" transform="translate(-441.843 -265.6)" fill="#fff"/>
      </g>
      <g id="그룹_421247" data-name="그룹 421247" transform="translate(58.602 35.397)" clip-path="url(#clip-path-4)">
        <rect id="사각형_317807" data-name="사각형 317807" width="3.5" height="4.841" transform="translate(0 -0.012)" fill="url(#linear-gradient)"/>
      </g>
      <g id="그룹_421248" data-name="그룹 421248" clip-path="url(#clip-path)">
        <path id="패스_837403" data-name="패스 837403" d="M522,278.167l1.832,1.05a2.133,2.133,0,0,1,.828,1.622l.688.2v-.152c.175-2.4-.782-3.967-3.348-2.718" transform="translate(-461.1 -245.325)" fill="#212020"/>
        <path id="패스_837404" data-name="패스 837404" d="M248.817,418.25l-1.832-1.05-.49.268a8.921,8.921,0,0,0-3.99,6.6l-.8.385a1.539,1.539,0,0,0,.3.21l2.205,1.26a2.2,2.2,0,0,0,2.287-.187,7,7,0,0,0,3.162-5.483,2.277,2.277,0,0,0-.84-2" transform="translate(-213.502 -368.527)" fill="#222"/>
        <path id="패스_837405" data-name="패스 837405" d="M262.123,426.269a7.012,7.012,0,0,1-3.162,5.483c-1.738,1-3.162.187-3.162-1.832a7.012,7.012,0,0,1,3.162-5.483c1.738-1,3.162-.2,3.162,1.832" transform="translate(-225.957 -374.539)" fill="#222"/>
        <path id="패스_837406" data-name="패스 837406" d="M264.333,429.354a6.462,6.462,0,0,1-2.917,5.052c-1.61.933-2.917.175-2.917-1.68a6.462,6.462,0,0,1,2.917-5.052c1.61-.933,2.917-.175,2.917,1.68" transform="translate(-228.342 -377.425)" fill="#222"/>
        <path id="패스_837407" data-name="패스 837407" d="M269.563,437.933a4.805,4.805,0,0,1-2.182,3.768c-1.2.688-2.182.128-2.182-1.26a4.805,4.805,0,0,1,2.182-3.768c1.2-.688,2.182-.128,2.182,1.26" transform="translate(-234.26 -385.468)" fill="#fff"/>
      </g>
      <g id="그룹_421249" data-name="그룹 421249" transform="translate(31.185 51.228)" clip-path="url(#clip-path-6)">
        <rect id="사각형_317809" data-name="사각형 317809" width="3.5" height="4.841" transform="translate(0 -0.012)" fill="url(#linear-gradient-2)"/>
      </g>
      <g id="그룹_421256" data-name="그룹 421256" clip-path="url(#clip-path)">
        <path id="패스_837409" data-name="패스 837409" d="M287,413.867l1.832,1.05a2.133,2.133,0,0,1,.828,1.622l.688.2v-.152c.175-2.4-.782-3.967-3.348-2.718" transform="translate(-253.517 -365.193)" fill="#212020"/>
        <path id="패스_837410" data-name="패스 837410" d="M131.963,156.938s2.835,1.2,4.317,2.077c1.155.688,4.737,2.917,6.382,4.037a3.523,3.523,0,0,1,1.213,1.412,8.074,8.074,0,0,1,.782,2.567,10.857,10.857,0,0,1-.56,4.643,5.156,5.156,0,0,1-.9,1.073,3.277,3.277,0,0,0,.012-.338c0-2.38-1.8-3.22-4.165-1.715a8.532,8.532,0,0,0-3.733,6.463c0,.14.012.28.012.408l-.478.28-19.308,11v-.152c.187-2.543-.91-4.165-3.85-2.462a8.921,8.921,0,0,0-3.99,6.6,12.061,12.061,0,0,1-1.108.513c-.922.362-1.7-.362-3.687-1.365s-9.578-5.787-11.142-6.767-2.217-1.878-2.368-2.613a35.079,35.079,0,0,1-.292-3.932,3.734,3.734,0,0,1,.583-1.587,10.874,10.874,0,0,0,0-1.295,20.952,20.952,0,0,1,.233-2.578l.548-.548a17.538,17.538,0,0,1,.782-2.637l.082-.222a6.242,6.242,0,0,1,2.987-3.3l19.46-10.115a5.623,5.623,0,0,1,3.978-.467,14.771,14.771,0,0,1,2.368.828l4.935-1.225a10.024,10.024,0,0,1,5.472.817Z" transform="translate(-78.705 -137.291)" fill="#fff"/>
        <path id="패스_837411" data-name="패스 837411" d="M131.963,156.938s2.835,1.2,4.317,2.077c1.155.688,4.737,2.917,6.382,4.037a3.523,3.523,0,0,1,1.213,1.412,8.074,8.074,0,0,1,.782,2.567,10.857,10.857,0,0,1-.56,4.643,5.156,5.156,0,0,1-.9,1.073,3.277,3.277,0,0,0,.012-.338c0-2.38-1.8-3.22-4.165-1.715a8.532,8.532,0,0,0-3.733,6.463c0,.14.012.28.012.408l-.478.28-19.308,11v-.152c.187-2.543-.91-4.165-3.85-2.462a8.921,8.921,0,0,0-3.99,6.6,12.061,12.061,0,0,1-1.108.513c-.922.362-1.7-.362-3.687-1.365s-9.578-5.787-11.142-6.767-2.217-1.878-2.368-2.613a35.079,35.079,0,0,1-.292-3.932,3.734,3.734,0,0,1,.583-1.587,10.874,10.874,0,0,0,0-1.295,20.952,20.952,0,0,1,.233-2.578l.548-.548a17.538,17.538,0,0,1,.782-2.637l.082-.222a6.242,6.242,0,0,1,2.987-3.3l19.46-10.115a5.623,5.623,0,0,1,3.978-.467,14.771,14.771,0,0,1,2.368.828l4.935-1.225a10.024,10.024,0,0,1,5.472.817Z" transform="translate(-78.705 -137.291)" fill="none" stroke="#222" stroke-linejoin="round" stroke-width="0.35"/>
        <g id="그룹_421251" data-name="그룹 421251" transform="translate(41.055 19.343)" opacity="0.18">
          <g id="그룹_421250" data-name="그룹 421250" clip-path="url(#clip-path-8)">
            <path id="패스_837412" data-name="패스 837412" d="M367.143,174.207a12.132,12.132,0,0,0-1.75-.688c-1.027-.63-2.333-1.435-3.173-1.972-1.563-1-10.22-5.157-10.22-5.157l.082-.49.3.128.443-.117,1.423.373c2.508.63,3.162.8,7.21,2.9,3.733,1.937,6.125,3.908,5.682,5.017" transform="translate(-351.988 -165.888)" fill="#222"/>
          </g>
        </g>
        <path id="패스_837413" data-name="패스 837413" d="M324.843,166.748a21.319,21.319,0,0,0-8.178-1.645c-1.062-.782-2.858-2.053-5.04-3.442A43.183,43.183,0,0,0,304.1,158c.408-.1,1.482-.5,1.785-.525a7.788,7.788,0,0,1,4.177,1.073l.315-.082a41.5,41.5,0,0,1,9.088,3.978,18.43,18.43,0,0,1,5.39,4.293" transform="translate(-268.622 -139.086)" fill="#333"/>
        <path id="패스_837414" data-name="패스 837414" d="M92.557,306.438a4.694,4.694,0,0,0-.257.408,2.426,2.426,0,0,0,1.062,1.05h0l.257-5.565-.163-.432-.63.56a20.6,20.6,0,0,0-.268,2.648,9.975,9.975,0,0,1,0,1.33" transform="translate(-81.532 -266.678)" fill="#f8483b"/>
        <path id="패스_837415" data-name="패스 837415" d="M92.557,306.438a4.694,4.694,0,0,0-.257.408,2.426,2.426,0,0,0,1.062,1.05h0l.257-5.565-.163-.432-.63.56a20.6,20.6,0,0,0-.268,2.648A9.976,9.976,0,0,1,92.557,306.438Z" transform="translate(-81.532 -266.678)" fill="none" stroke="#222" stroke-linejoin="round" stroke-width="0.233"/>
        <path id="패스_837416" data-name="패스 837416" d="M95.017,319.57l.105-2.333a4.911,4.911,0,0,1-.84-.537,10.771,10.771,0,0,0-.117,1.552c.023.315.023.42.023.618a4.69,4.69,0,0,0,.828.7" transform="translate(-83.175 -279.752)" fill="#fff"/>
        <path id="패스_837417" data-name="패스 837417" d="M95.017,319.57l.105-2.333a4.911,4.911,0,0,1-.84-.537,10.771,10.771,0,0,0-.117,1.552c.023.315.023.42.023.618A4.69,4.69,0,0,0,95.017,319.57Z" transform="translate(-83.175 -279.752)" fill="none" stroke="#222" stroke-linejoin="round" stroke-width="0.233"/>
        <path id="패스_837418" data-name="패스 837418" d="M107.587,356.068c-.758-.28-.222-1.505-.222-1.505a2.381,2.381,0,0,1-.758.222,10.665,10.665,0,0,1-1.552-.443,19.214,19.214,0,0,1-.28,2.24c-.268,1.307-.187,1.435-.187,1.435-.2-.1-4.328-2.345-6.02-3.383s-4.2-2.578-5.81-3.628-1.82-1.505-1.96-1.972-.315-3.407-.315-3.407a2.258,2.258,0,0,1-.922-1.027,2.952,2.952,0,0,0-.362,1.19,32.522,32.522,0,0,0,.292,3.932c.163.735.805,1.633,2.368,2.613S101.018,358.1,103,359.1s2.765,1.715,3.687,1.365c.163-.07.56-.257,1.108-.513a8.491,8.491,0,0,1,1.167-3.628,5.1,5.1,0,0,1-1.377-.257Z" transform="translate(-78.793 -304.397)" fill="none" stroke="#222" stroke-linejoin="round" stroke-width="0.233"/>
        <g id="그룹_421253" data-name="그룹 421253" transform="translate(10.418 26.028)" opacity="0.18">
          <g id="그룹_421252" data-name="그룹 421252" clip-path="url(#clip-path-9)">
            <path id="패스_837419" data-name="패스 837419" d="M89.433,237.532l.7.5.455.257.245-5.472-.245-.525,1.307-3.7,14.257,8.563a3.733,3.733,0,0,1,1.878-3.243L126.977,223.1A19.431,19.431,0,0,1,135,224.733l4.667-.245.618.362a5.915,5.915,0,0,0,2.45.782l1.913.175a35.1,35.1,0,0,1,0,3.873,5.8,5.8,0,0,1-1.225,2.928c.023-4.748-4.235-2.427-4.235-2.427-4.3,3.15-3.792,7.175-3.792,7.175l-19.775,11.27c.42-5.192-3.337-2.882-3.337-2.882a8.862,8.862,0,0,0-4.48,6.86l-1.925.583s-11.842-7.023-13.253-7.5a7.442,7.442,0,0,1-2.777-2.473l-.408-1.12-.245-3.628Zm26.215,8.867,8.143-4.76v-.14a.327.327,0,0,0-.49-.28l-8.027,4.527Z" transform="translate(-89.212 -223.1)" fill="#222"/>
          </g>
        </g>
        <path id="패스_837420" data-name="패스 837420" d="M227.4,387.688a14.963,14.963,0,0,0,.373-4.165c-.035-1.178-.7-1.085-1.05-1.167s-1.575-.257-1.575-.257l-.047,5.378a10.665,10.665,0,0,0,1.552.443,2.381,2.381,0,0,0,.758-.222" transform="translate(-198.838 -337.522)" fill="#f8483b"/>
        <path id="패스_837421" data-name="패스 837421" d="M227.4,387.688a14.963,14.963,0,0,0,.373-4.165c-.035-1.178-.7-1.085-1.05-1.167s-1.575-.257-1.575-.257l-.047,5.378a10.665,10.665,0,0,0,1.552.443A2.2,2.2,0,0,0,227.4,387.688Z" transform="translate(-198.838 -337.522)" fill="none" stroke="#222" stroke-linejoin="round" stroke-width="0.233"/>
        <path id="패스_837422" data-name="패스 837422" d="M225.223,395.1l-.023,2.4c.63.187,1.155.14,1.272-.035a3.538,3.538,0,0,0,.058-1.517c-.082-.548-.91-.735-1.307-.852" transform="translate(-198.927 -349.005)" fill="#fff"/>
        <path id="패스_837423" data-name="패스 837423" d="M225.223,395.1l-.023,2.4c.63.187,1.155.14,1.272-.035a3.538,3.538,0,0,0,.058-1.517C226.448,395.4,225.62,395.228,225.223,395.1Z" transform="translate(-198.927 -349.005)" fill="none" stroke="#222" stroke-linejoin="round" stroke-width="0.233"/>
        <path id="패스_837424" data-name="패스 837424" d="M234.639,241.013c0-.77-.035-2.275-.058-3.313a5.472,5.472,0,0,1,2.847-4.97l17.722-10.43" transform="translate(-207.21 -196.365)" fill="none" stroke="#222" stroke-linecap="round" stroke-miterlimit="10" stroke-width="0.233"/>
        <path id="패스_837425" data-name="패스 837425" d="M111.474,284.064l-.467,3.663a1.56,1.56,0,0,0,.653,1.645l11.013,6.44a.525.525,0,0,0,.782-.443l.117-4.538a.525.525,0,0,0-.257-.467l-11.072-6.615a.525.525,0,0,0-.77.3" transform="translate(-98.046 -250.581)" fill="#333"/>
        <path id="패스_837426" data-name="패스 837426" d="M481.9,237.1h0" transform="translate(-425.678 -209.438)" fill="#141c1e"/>
        <path id="패스_837427" data-name="패스 837427" d="M394.633,314.085l2.4-1.388c.128-.07.233,0,.233.175v.828a.56.56,0,0,1-.233.443l-2.4,1.388c-.128.07-.233,0-.233-.175v-.828a.56.56,0,0,1,.233-.443" transform="translate(-348.387 -276.192)" fill="#bcbcbc"/>
        <path id="패스_837428" data-name="패스 837428" d="M394.633,314.085l2.4-1.388c.128-.07.233,0,.233.175v.828a.56.56,0,0,1-.233.443l-2.4,1.388c-.128.07-.233,0-.233-.175v-.828A.56.56,0,0,1,394.633,314.085Z" transform="translate(-348.387 -276.192)" fill="none" stroke="#222" stroke-miterlimit="10" stroke-width="0.35"/>
        <path id="패스_837429" data-name="패스 837429" d="M394.633,313.685l2.4-1.388c.128-.07.233,0,.233.175a.56.56,0,0,1-.233.443l-2.4,1.388c-.128.07-.233,0-.233-.175a.56.56,0,0,1,.233-.443" transform="translate(-348.387 -275.839)" fill="#222"/>
        <path id="패스_837430" data-name="패스 837430" d="M394.633,313.685l2.4-1.388c.128-.07.233,0,.233.175a.56.56,0,0,1-.233.443l-2.4,1.388c-.128.07-.233,0-.233-.175A.56.56,0,0,1,394.633,313.685Z" transform="translate(-348.387 -275.839)" fill="none" stroke="#222" stroke-miterlimit="10" stroke-width="0.35"/>
        <path id="패스_837431" data-name="패스 837431" d="M528.9,218.467h0l-2.018-.245a4.76,4.76,0,0,1-1.983-.712l-.268-.163a.408.408,0,0,1-.058-.63l1.633-1.517.992.665a3.535,3.535,0,0,1,1.213,1.412,7.3,7.3,0,0,1,.478,1.2" transform="translate(-463.267 -190.093)" fill="#222"/>
        <path id="패스_837432" data-name="패스 837432" d="M392.7,155.376l1.8.688a.992.992,0,0,0,.42.035l2.637-.49a8.326,8.326,0,0,0-4.853-.233" transform="translate(-346.885 -137.001)" fill="#222"/>
        <line id="선_125839" data-name="선 125839" y1="4.83" x2="8.493" transform="translate(36.388 44.672)" fill="#fff"/>
        <line id="선_125840" data-name="선 125840" y1="4.83" x2="8.493" transform="translate(36.388 44.672)" fill="none" stroke="#222" stroke-linecap="round" stroke-miterlimit="10" stroke-width="0.35"/>
        <path id="패스_837433" data-name="패스 837433" d="M106.978,329.5l11.748,6.79a.269.269,0,1,0,.268-.467l-11.748-6.79a.269.269,0,1,0-.268.467" transform="translate(-94.378 -290.61)" fill="#fff"/>
        <path id="패스_837434" data-name="패스 837434" d="M144.013,264.69s-1.248-4.76-6.2-1.6-3.068,6.417-7.42,8.4c-3.08,1.4-8.2,2.45-11.993,3.8a32.947,32.947,0,0,1-7.21,1.622,4.56,4.56,0,0,0-4.037,2.917l-.257,1.19a.933.933,0,0,1-1.155.712l-.175-.047-.945-.187s-.513,3.78-.618,3.722S91.665,278.41,90.673,276.7a6.224,6.224,0,0,1-.712-3.453.537.537,0,0,0-.14-.408l-.828-.91-.093.373a8.248,8.248,0,0,0-.21,3.173,4.778,4.778,0,0,0,2.123,3.733l13.428,8a2.613,2.613,0,0,0,1.167.362,3.535,3.535,0,0,0,1.517-.233l.082-.175a3.232,3.232,0,0,0,.222-.688,8.785,8.785,0,0,1,.992-2.648c.992-1.727,2.893-4.293,5.3-4.06,0,0,1.995.117,1.552,3.547l19.763-11.445a8.7,8.7,0,0,1,4.107-7.093c2.613-1.657,3.523.3,3.862,2.193a3.162,3.162,0,0,0,1.213-2.263" transform="translate(-78.283 -231.44)" fill="#3673ee"/>
        <path id="패스_837435" data-name="패스 837435" d="M144.013,264.69s-1.248-4.76-6.2-1.6-3.068,6.417-7.42,8.4c-3.08,1.4-8.2,2.45-11.993,3.8a32.947,32.947,0,0,1-7.21,1.622,4.56,4.56,0,0,0-4.037,2.917l-.257,1.19a.933.933,0,0,1-1.155.712l-.175-.047-.945-.187s-.513,3.78-.618,3.722S91.665,278.41,90.673,276.7a6.224,6.224,0,0,1-.712-3.453.537.537,0,0,0-.14-.408l-.828-.91-.093.373a8.248,8.248,0,0,0-.21,3.173,4.778,4.778,0,0,0,2.123,3.733l13.428,8a2.613,2.613,0,0,0,1.167.362,3.535,3.535,0,0,0,1.517-.233l.082-.175a3.232,3.232,0,0,0,.222-.688,8.785,8.785,0,0,1,.992-2.648c.992-1.727,2.893-4.293,5.3-4.06,0,0,1.995.117,1.552,3.547l19.763-11.445a8.7,8.7,0,0,1,4.107-7.093c2.613-1.657,3.523.3,3.862,2.193A3.242,3.242,0,0,0,144.013,264.69Z" transform="translate(-78.283 -231.44)" fill="none" stroke="#222" stroke-linejoin="round" stroke-width="0.233"/>
        <path id="패스_837436" data-name="패스 837436" d="M111.352,365.982c.572.152.782-.035.863-.315-.2-.1-4.27-2.322-5.962-3.36s-4.2-2.578-5.81-3.628-1.82-1.505-1.96-1.972a31.745,31.745,0,0,1-.175-3.407l-.14.047a2.811,2.811,0,0,0-.268,1.178c0,.677.175,2.543.175,2.543a2.4,2.4,0,0,0,1.015,1.552c.922.665,5.332,3.547,7.992,5.087a27.329,27.329,0,0,0,4.27,2.275" transform="translate(-86.478 -312.082)" fill="#fff"/>
        <path id="패스_837437" data-name="패스 837437" d="M111.352,365.982c.572.152.782-.035.863-.315-.2-.1-4.27-2.322-5.962-3.36s-4.2-2.578-5.81-3.628-1.82-1.505-1.96-1.972a31.745,31.745,0,0,1-.175-3.407l-.14.047a2.811,2.811,0,0,0-.268,1.178c0,.677.175,2.543.175,2.543a2.4,2.4,0,0,0,1.015,1.552c.922.665,5.332,3.547,7.992,5.087A27.326,27.326,0,0,0,111.352,365.982Z" transform="translate(-86.478 -312.082)" fill="none" stroke="#222" stroke-linejoin="round" stroke-width="0.233"/>
        <path id="패스_837438" data-name="패스 837438" d="M482.78,256.423a9.938,9.938,0,0,0-6.58,5.542l.28-1.027a7.525,7.525,0,0,1,1.33-2.73,5.963,5.963,0,0,1,4.107-2.345,3.792,3.792,0,0,1,1.633.2,2,2,0,0,1,.618.362l.21.175a1.14,1.14,0,0,0-.478-.152,3.429,3.429,0,0,0-1.132-.035" transform="translate(-420.643 -225.996)" fill="#fff"/>
        <path id="패스_837439" data-name="패스 837439" d="M389.7,275.55a1.681,1.681,0,0,0,.245.3.707.707,0,0,0,.723.245h0l8.2-4.76.082-.07.023-.035a1.747,1.747,0,0,0,.082-.933Z" transform="translate(-344.235 -238.765)" fill="#fff"/>
        <path id="패스_837440" data-name="패스 837440" d="M244.662,235.174l18.515-10.955a.268.268,0,0,1,.257.455L245.07,235.5l-1.47.863a4.136,4.136,0,0,1,1.062-1.19" transform="translate(-215.18 -198.051)" fill="#fff"/>
        <path id="패스_837441" data-name="패스 837441" d="M410.255,223.656s.84-.49,3.967-.2a33.226,33.226,0,0,0-3.967-.4l-.455.257Z" transform="translate(-361.99 -197.033)" fill="#fff"/>
        <path id="패스_837442" data-name="패스 837442" d="M68.5,410.338a.338.338,0,1,0,.338-.338.338.338,0,0,0-.338.338" transform="translate(-60.508 -362.167)" fill="#fff"/>
        <g id="그룹_421255" data-name="그룹 421255" transform="translate(24.045 25.795)" opacity="0.3">
          <g id="그룹_421254" data-name="그룹 421254" clip-path="url(#clip-path-10)">
            <path id="패스_837443" data-name="패스 837443" d="M206.1,224.005c0,1.6,2.333,2.9,5.2,2.9s5.2-1.295,5.2-2.9-2.333-2.9-5.2-2.9-5.2,1.295-5.2,2.9" transform="translate(-206.1 -221.1)" fill="#222"/>
          </g>
        </g>
        <path id="패스_837444" data-name="패스 837444" d="M231.1,228.8c0,1.05,1.633,1.9,3.64,1.9s3.64-.852,3.64-1.9-1.633-1.9-3.64-1.9-3.64.852-3.64,1.9" transform="translate(-204.138 -200.428)" fill="#222"/>
        <path id="패스_837445" data-name="패스 837445" d="M131.963,156.938s2.835,1.2,4.317,2.077c1.155.688,4.737,2.917,6.382,4.037a3.523,3.523,0,0,1,1.213,1.412,8.074,8.074,0,0,1,.782,2.567,10.857,10.857,0,0,1-.56,4.643,5.156,5.156,0,0,1-.9,1.073,3.277,3.277,0,0,0,.012-.338c0-2.38-1.8-3.22-4.165-1.715a8.532,8.532,0,0,0-3.733,6.463c0,.14.012.28.012.408l-.478.28-19.308,11v-.152c.187-2.543-.91-4.165-3.85-2.462a8.921,8.921,0,0,0-3.99,6.6,12.061,12.061,0,0,1-1.108.513c-.922.362-1.7-.362-3.687-1.365s-9.578-5.787-11.142-6.767-2.217-1.878-2.368-2.613a35.079,35.079,0,0,1-.292-3.932,3.734,3.734,0,0,1,.583-1.587,10.874,10.874,0,0,0,0-1.295,20.952,20.952,0,0,1,.233-2.578l.548-.548a17.538,17.538,0,0,1,.782-2.637l.082-.222a6.242,6.242,0,0,1,2.987-3.3l19.46-10.115a5.623,5.623,0,0,1,3.978-.467,14.771,14.771,0,0,1,2.368.828l4.935-1.225a10.024,10.024,0,0,1,5.472.817Z" transform="translate(-78.705 -137.291)" fill="none" stroke="#222" stroke-linejoin="round" stroke-width="0.642"/>
        <path id="패스_837446" data-name="패스 837446" d="M381.818,246.7a4.367,4.367,0,0,1,.093.537c.082.817.3,2.847.513,3.78.128.548.28.9.525.84a1.914,1.914,0,0,0,.63-.245l1.027-.548,7.222-4.072a.537.537,0,0,0,.28-.455h0c0-.572-.012-1.505-.047-1.925-.047-.653-1.785-1.143-4.375-1.33a2.136,2.136,0,0,0-.56.047,16.426,16.426,0,0,0-4.737,2.322.9.9,0,0,0-.572,1.05" transform="translate(-337.251 -214.896)" fill="#333"/>
        <line id="선_125841" data-name="선 125841" x1="19.063" y2="11.013" transform="translate(23.94 24.477)" fill="#222"/>
        <path id="패스_837447" data-name="패스 837447" d="M202.4,219.474a.525.525,0,0,0,.467-.023l19.063-11.013c.14-.082.152-.2.035-.268a.525.525,0,0,0-.467.023l-19.063,11.013c-.14.082-.152.2-.035.268" transform="translate(-178.714 -183.844)" fill="#222"/>
        <line id="선_125842" data-name="선 125842" x1="19.063" y2="11.002" transform="translate(20.802 22.668)" fill="#222"/>
        <path id="패스_837448" data-name="패스 837448" d="M175.5,203.974a.525.525,0,0,0,.467-.023l19.063-11.013c.14-.082.152-.2.035-.268a.525.525,0,0,0-.467.023l-19.063,11.013c-.14.082-.152.2-.035.268" transform="translate(-154.953 -170.152)" fill="#222"/>
        <line id="선_125843" data-name="선 125843" x1="19.063" y2="11.013" transform="translate(17.827 20.942)" fill="#222"/>
        <path id="패스_837449" data-name="패스 837449" d="M150,189.274a.525.525,0,0,0,.467-.023l19.063-11.013c.14-.082.152-.2.035-.268a.525.525,0,0,0-.467.023l-19.063,11c-.14.082-.152.2-.035.268" transform="translate(-132.428 -157.167)" fill="#222"/>
        <path id="패스_837450" data-name="패스 837450" d="M232.033,188.8l-1.75,6.02-.572.537a3.2,3.2,0,0,1-1.878.852l-.42.047-1.528-.117-1.132-.537a2.625,2.625,0,0,1-1.33-1.423L222,189.127l1.108.152,1.727.735,2.24.455,2.438-.327Z" transform="translate(-196.1 -166.773)" fill="#fff"/>
        <path id="패스_837451" data-name="패스 837451" d="M216.27,138.7c-.117,2.2,2.345,4.13,5.507,4.293s5.81-1.482,5.927-3.687-2.345-4.13-5.507-4.293S216.387,136.5,216.27,138.7Z" transform="translate(-191.035 -119.254)" fill="none" stroke="#000" stroke-miterlimit="10" stroke-width="0.525"/>
        <path id="패스_837452" data-name="패스 837452" d="M234.3,234.9a3.562,3.562,0,0,0,3.348,2.088c1.657.082,3.115-.653,3.523-1.727" transform="translate(-206.965 -207.495)" fill="none" stroke="#222" stroke-miterlimit="10" stroke-width="0.35"/>
        <line id="선_125844" data-name="선 125844" x1="1.983" y2="6.207" transform="translate(34.207 21.56)" fill="none" stroke="#222" stroke-miterlimit="10" stroke-width="0.35"/>
        <line id="선_125845" data-name="선 125845" x1="1.972" y1="6.977" transform="translate(25.363 20.428)" fill="none" stroke="#222" stroke-miterlimit="10" stroke-width="0.35"/>
        <path id="패스_837453" data-name="패스 837453" d="M237.585,181.258s-1.237,4.7-4.83,4.5S228.8,180.5,228.8,180.5" transform="translate(-202.107 -159.442)" fill="none" stroke="#000" stroke-linecap="round" stroke-miterlimit="10" stroke-width="0.35"/>
        <path id="패스_837454" data-name="패스 837454" d="M253.877,220.9a4.235,4.235,0,0,1-2.065.4,4.888,4.888,0,0,1-1.412-.28" transform="translate(-221.187 -195.128)" fill="none" stroke="#000" stroke-linecap="round" stroke-miterlimit="10" stroke-width="0.933"/>
        <path id="패스_837455" data-name="패스 837455" d="M186.5,106.52l-1.843-2.042-.618-.537.187-.432-1.447-1.447-1.12-.268-.957-.093-1.435-.793-1.4-.187-1.19.222-.968.338-.385.175-.77-.712-.747-.082-.723-.163-1.237.327-.49,1.237.058.968.175.712-.572.653-.42,1.2.513.828.84.665.058.828.3,1.1,1.12.047a3.08,3.08,0,0,1,.338.56,6.382,6.382,0,0,0,.327.642l.712.42,1.365-.163h.268l.968.747.992.443,1.283.5,1.563.28,2.252-.14a18.8,18.8,0,0,0,2.987-1.738,5.553,5.553,0,0,0,1.038-2.263l-.3-.922Z" transform="translate(-150.697 -88.775)" fill="#e5f0ff"/>
        <path id="패스_837456" data-name="패스 837456" d="M266.5,148.243l.175.432,1.563,1.26.385.6a3.932,3.932,0,0,0,1.12-.362,8.634,8.634,0,0,0-3.22-2.368Z" transform="translate(-235.408 -130.557)" fill="#d1a900"/>
        <path id="패스_837457" data-name="패스 837457" d="M349.4,143.423l.035-.023H349.4Z" transform="translate(-308.637 -126.67)" fill="#ffd100"/>
        <path id="패스_837458" data-name="패스 837458" d="M103.033,176.129a.6.6,0,0,1,.805.467.844.844,0,0,1-.537.852,1.505,1.505,0,0,1-1.062-.023c-.28-.093-.6-.315-.56-.618a.583.583,0,0,1,.163-.315,1.213,1.213,0,0,1,1.108-.373" transform="translate(-89.815 -155.538)" fill="#e5f0ff"/>
        <path id="패스_837459" data-name="패스 837459" d="M102,175.219a.446.446,0,0,1,.56.315.734.734,0,0,1-.385.688,1.546,1.546,0,0,1-1.05-.012.782.782,0,0,1-.338-.233.292.292,0,0,1,.035-.385,1.05,1.05,0,0,1,.98-.362c.2.035.28-.268.082-.3a1.377,1.377,0,0,0-1.248.408.671.671,0,0,0-.2.642.84.84,0,0,0,.408.455,1.668,1.668,0,0,0,1.412.105.99.99,0,0,0,.607-1.027.772.772,0,0,0-1.027-.56c-.187.093-.023.362.163.268" transform="translate(-88.696 -154.487)" fill="#222"/>
        <path id="패스_837460" data-name="패스 837460" d="M138.827,167.331a.873.873,0,0,1,1.307-.35,1.224,1.224,0,0,1,.315,1.435,2.254,2.254,0,0,1-1.108,1.073c-.467.233-.945.28-1.213-.07a.852.852,0,0,1-.14-.478,1.762,1.762,0,0,1,.758-1.528" transform="translate(-121.887 -147.358)" fill="#e5f0ff"/>
        <path id="패스_837461" data-name="패스 837461" d="M137.727,166.224a.726.726,0,0,1,.968-.327,1.152,1.152,0,0,1,.408,1.2,2.123,2.123,0,0,1-1.05,1.1c-.455.233-1.015.315-1.143-.245a1.6,1.6,0,0,1,.653-1.552c.163-.117.012-.385-.163-.268a1.925,1.925,0,0,0-.828,1.7.854.854,0,0,0,.49.77,1.26,1.26,0,0,0,.863-.023,2.371,2.371,0,0,0,1.435-1.283,1.335,1.335,0,0,0-.432-1.622,1.027,1.027,0,0,0-1.5.467c-.07.187.233.28.3.082" transform="translate(-120.636 -146.204)" fill="#222"/>
        <path id="패스_837462" data-name="패스 837462" d="M171.37,105.489a1.528,1.528,0,0,0,.992.712,1.925,1.925,0,0,0-.07.5,1.687,1.687,0,0,0,1.575,1.773l.268-.023a1.482,1.482,0,0,0,2.158,1.295,2.581,2.581,0,0,1,1.587.63h0a7.046,7.046,0,0,0,4.235,1.33c3.267,0,5.915-1.972,5.915-4.41,0-1.785-1.423-3.325-3.477-4.013a1.808,1.808,0,0,0-.105-1.027c-.432-1-1.75-1.447-3.185-1.155a3.818,3.818,0,0,0-3.057-1.295,4.3,4.3,0,0,0-2.415.688,3.127,3.127,0,0,0-.35-.315,2.373,2.373,0,0,0-3.337.14,2.217,2.217,0,0,0,.14,2.672A1.943,1.943,0,0,0,171.37,105.489Z" transform="translate(-151.21 -87.954)" fill="none" stroke="#222" stroke-linejoin="round" stroke-width="0.642"/>
        <path id="패스_837463" data-name="패스 837463" d="M266.7,121.821a8.633,8.633,0,0,1,3.22,2.368,2.777,2.777,0,0,0,.572-.362h.012a2.716,2.716,0,0,1,2.45-1.353c.292.012.583-.082.875-.07a2.9,2.9,0,0,0,2.52-1.062h0l.047-.268-.07-1.143-.98-.793-.922-.49a4.482,4.482,0,0,0-1.832-.222,2.933,2.933,0,0,0-2.345,1.657l-.233.327-.665.117-.56-.058-.747.128-.712.4-.607.537Z" transform="translate(-235.585 -104.577)" fill="#ffda34"/>
        <path id="패스_837464" data-name="패스 837464" d="M283.6,146.442l.187.548.782.49.875-.175,1.155-1.248.665-.467,1.4.175,1.26-.035.758-.362.373-.327.233-1.342a3.329,3.329,0,0,1-2.52,1.062c-.292,0-.758-.082-1.05-.093a2.971,2.971,0,0,0-2.567,1.167l-.432.222c-.245.21-.327.268-1.12.4" transform="translate(-250.513 -126.935)" fill="#d1a900"/>
        <path id="패스_837465" data-name="패스 837465" d="M257.218,154.318A4.659,4.659,0,0,0,253.1,150.9" transform="translate(-223.572 -133.295)" fill="none" stroke="#000" stroke-linecap="round" stroke-miterlimit="10" stroke-width="0.35"/>
        <path id="패스_837466" data-name="패스 837466" d="M266.438,123.157c.817.292,1.493-.408,2.018-.922a2.368,2.368,0,0,1,1.05-.653,3.873,3.873,0,0,1,1.237-.093,5.814,5.814,0,0,0,2.578-.117,1.592,1.592,0,0,0,1.167-1.622c-.058-1.517-1.692-2.205-2.975-2.462A3.255,3.255,0,0,0,268,119.027l-.082.233a.187.187,0,0,1-.21.128c-.2-.012-.408-.058-.607-.082a3.652,3.652,0,0,0-1.26.07,1.931,1.931,0,0,0-1.482,1.47,1.459,1.459,0,0,0,.012.525c.035.2.338.117.3-.082a1.471,1.471,0,0,1,1.062-1.552,3,3,0,0,1,1.167-.128l.572.058a.857.857,0,0,0,.513-.012.548.548,0,0,0,.257-.35,2.5,2.5,0,0,1,.2-.455,2.426,2.426,0,0,1,.63-.688,3.162,3.162,0,0,1,1.843-.63,4.769,4.769,0,0,1,1.645.385,2.61,2.61,0,0,1,1.54,1.4,1.4,1.4,0,0,1-.012.98,1.458,1.458,0,0,1-.688.7,4.123,4.123,0,0,1-2.345.2,3.471,3.471,0,0,0-2.45.49c-.7.548-1.2,1.47-2.065,1.167-.187-.07-.268.233-.082.3" transform="translate(-233.503 -103.557)" fill="#222"/>
        <path id="패스_837467" data-name="패스 837467" d="M291.629,140.291a3.426,3.426,0,0,1-.233,1.412.98.98,0,0,1-.56.513,4.4,4.4,0,0,1-1.073.257,5.215,5.215,0,0,1-1.108.012l-.525-.082a2.251,2.251,0,0,0-.537-.093c-.327.012-.525.35-.712.583a9.521,9.521,0,0,1-.723.8,2.019,2.019,0,0,1-.945.5.84.84,0,0,1-.828-.3c-.14-.152-.362.07-.222.222a1.143,1.143,0,0,0,.817.408,1.913,1.913,0,0,0,.9-.257c.677-.338,1.05-1.038,1.563-1.563.14-.14.315-.058.49-.023l.583.093a5.285,5.285,0,0,0,1.213.012,4.947,4.947,0,0,0,1.178-.268,1.342,1.342,0,0,0,.677-.513,2.334,2.334,0,0,0,.28-.852,5.1,5.1,0,0,0,.07-.863.163.163,0,0,0-.315,0" transform="translate(-250.97 -123.818)" fill="#222"/>
        <line id="선_125846" data-name="선 125846" x2="0.56" y2="2.007" transform="translate(25.55 21.747)" fill="none" stroke="#222" stroke-miterlimit="10" stroke-width="0.642"/>
        <path id="패스_837468" data-name="패스 837468" d="M300.978,122.505a1.251,1.251,0,0,0,.758-.677,3.388,3.388,0,0,0,.35-1.715h0a1.529,1.529,0,0,0,.012-.245c-.035-1.528-1.668-2.228-2.963-2.485a3.279,3.279,0,0,0-3.535,1.727" transform="translate(-261.113 -103.64)" fill="none" stroke="#222" stroke-miterlimit="10" stroke-width="0.642"/>
        <path id="패스_837469" data-name="패스 837469" d="M271.586,318.6c1.773,1.062,1.855,4.188.175,6.977s-4.468,4.177-6.242,3.115-1.855-4.188-.175-6.977,4.468-4.177,6.242-3.115" transform="translate(-233.319 -281.115)" fill="#3673ee"/>
        <path id="패스_837470" data-name="패스 837470" d="M352.847,353.014c.758.455.758,1.855,0,3.115s-1.995,1.925-2.753,1.47-.758-1.855,0-3.115,1.995-1.925,2.753-1.47" transform="translate(-308.747 -311.703)" fill="#3673ee"/>
        <path id="패스_837471" data-name="패스 837471" d="M339.861,284.1c.5.3.548,1.167.093,1.925s-1.237,1.132-1.738.828-.548-1.167-.093-1.925,1.237-1.132,1.738-.828" transform="translate(-298.397 -250.863)" fill="#3673ee"/>
      </g>
    </g>
  </g>
</svg>
