<svg xmlns="http://www.w3.org/2000/svg" width="24" height="24"><defs><clipPath id="a"><path data-name="사각형 293003" fill="none" d="M0 0h24v24H0z"/></clipPath><clipPath id="b"><path data-name="사각형 293001" transform="translate(2 2)" fill="none" d="M0 0h20v20H0z"/></clipPath></defs><g data-name="icon_membership_on_24" clip-path="url(#a)"><g data-name="그룹 382459" clip-path="url(#a)"><path data-name="패스 776803" d="M11.8 1.4a.3.3 0 01.5 0l4.3 7.2h.3l4.8-4.8h.3v14.4H2V4.1a.2.2 0 01.2-.2h.2l4.8 4.8h.3z" fill="#cbdbfa"/><path data-name="선 110500" fill="#cbdbfa" d="M12.6 13.3h1.1"/><path data-name="선 110501" fill="#cbdbfa" d="M9.7 13.3h3.9"/><path data-name="선 110502" fill="none" stroke="#3673ee" stroke-linecap="round" stroke-miterlimit="10" stroke-width="1.5" d="M16.6 22.5h5.5"/><path data-name="선 110503" fill="none" stroke="#3673ee" stroke-miterlimit="10" stroke-width="1.5" d="M1.2 22.5h15.4"/><path data-name="패스 776804" d="M11.8 1.4a.3.3 0 01.5 0l4.3 7.2h.3l4.8-4.8h.3v14.4H2V4.1a.2.2 0 01.2-.2h.2l4.8 4.8h.3z" fill="none" stroke="#3673ee" stroke-linejoin="round" stroke-width="1.5"/><path data-name="선 110504" fill="none" stroke="#3673ee" stroke-linecap="round" stroke-width="1.5" d="M12.6 13.3h1.1"/><path data-name="선 110505" fill="none" stroke="#3673ee" stroke-width="1.5" d="M9.7 13.3h3.9"/></g></g></svg>