<svg xmlns="http://www.w3.org/2000/svg" xmlns:xlink="http://www.w3.org/1999/xlink" width="28" height="28" viewBox="0 0 28 28"><defs><style>.a,.f,.g{fill:none;}.b{clip-path:url(#a);}.c{opacity:0;}.d{fill:#f0f;}.e{fill:#ff8d8d;}.f,.g{stroke:#111;stroke-linejoin:round;stroke-width:1.5px;}.g{stroke-linecap:round;}</style><clipPath id="a"><rect class="a" width="28" height="28"/></clipPath></defs><g transform="translate(14 14)"><g class="b" transform="translate(-14 -14)"><g class="b"><g class="c"><g class="b"><rect class="d" width="28" height="28"/></g></g><path class="e" d="M15,6h6a1,1,0,0,1,1,1v3a1,1,0,0,1-1,1H15a1,1,0,0,1-1-1V7a1,1,0,0,1,1-1"/><path class="f" d="M21.5,23v3h-10V23"/><path class="f" d="M10,20H9a2,2,0,0,1-2-2V14A7,7,0,0,1,4,7h6"/><line class="g" x2="3" transform="translate(7 10)"/><path class="f" d="M12,3h9a2,2,0,0,1,2,2V23H10V5A2,2,0,0,1,12,3Z"/><rect class="f" width="7" height="3.5" transform="translate(13 7)"/></g></g></g></svg>