<svg xmlns="http://www.w3.org/2000/svg" xmlns:xlink="http://www.w3.org/1999/xlink" width="87.001" height="91" viewBox="0 0 87.001 91">
  <defs>
    <linearGradient id="linear-gradient" x1="0.317" y1="0.038" x2="0.669" y2="1" gradientUnits="objectBoundingBox">
      <stop offset="0" stop-color="#04a0f3"/>
      <stop offset="1" stop-color="#45d49a"/>
    </linearGradient>
    <filter id="타원_1500" x="21.952" y="0" width="64.492" height="64.492" filterUnits="userSpaceOnUse">
      <feOffset dy="6" input="SourceAlpha"/>
      <feGaussianBlur stdDeviation="3" result="blur"/>
      <feFlood flood-color="#18b2d9" flood-opacity="0.102"/>
      <feComposite operator="in" in2="blur"/>
      <feComposite in="SourceGraphic"/>
    </filter>
    <filter id="패스_132435" x="44.314" y="22.084" width="19.047" height="21.047" filterUnits="userSpaceOnUse">
      <feOffset dx="2" dy="4" input="SourceAlpha"/>
      <feGaussianBlur result="blur-2"/>
      <feFlood flood-opacity="0.078"/>
      <feComposite operator="in" in2="blur-2"/>
      <feComposite in="SourceGraphic"/>
    </filter>
    <clipPath id="clip-path">
      <rect id="사각형_37487" data-name="사각형 37487" width="17.047" height="22.161" fill="none"/>
    </clipPath>
    <clipPath id="clip-path-2">
      <rect id="사각형_235245" data-name="사각형 235245" width="86.496" height="86.496" fill="none"/>
    </clipPath>
    <clipPath id="clip-path-4">
      <rect id="사각형_235221" data-name="사각형 235221" width="26.814" height="12.477" fill="none"/>
    </clipPath>
    <clipPath id="clip-path-5">
      <rect id="사각형_235222" data-name="사각형 235222" width="12.607" height="8.221" fill="none"/>
    </clipPath>
    <clipPath id="clip-path-7">
      <rect id="사각형_235224" data-name="사각형 235224" width="4.303" height="11.562" fill="none"/>
    </clipPath>
    <clipPath id="clip-path-8">
      <rect id="사각형_235225" data-name="사각형 235225" width="74.322" height="45.467" fill="none"/>
    </clipPath>
    <clipPath id="clip-path-9">
      <path id="패스_620633" data-name="패스 620633" d="M200.2,276.011a6.288,6.288,0,0,0,2.854,4.952c1.622.973,2.876.022,2.854-1.665a6.572,6.572,0,0,0-2.854-4.952,2.227,2.227,0,0,0-1.146-.346,1.776,1.776,0,0,0-1.708,2.011" transform="translate(-200.198 -274)" fill="none"/>
    </clipPath>
    <linearGradient id="linear-gradient-2" x1="-4.328" y1="2.916" x2="-4.305" y2="2.916" gradientUnits="objectBoundingBox">
      <stop offset="0" stop-color="#c1c0c0"/>
      <stop offset="1" stop-color="#dedddc"/>
    </linearGradient>
    <clipPath id="clip-path-11">
      <rect id="사각형_235228" data-name="사각형 235228" width="4.628" height="6.954" fill="none"/>
    </clipPath>
    <clipPath id="clip-path-12">
      <path id="패스_620640" data-name="패스 620640" d="M37.6,184.011a6.288,6.288,0,0,0,2.854,4.952c1.622.973,2.876.022,2.854-1.665a6.572,6.572,0,0,0-2.854-4.952A2.227,2.227,0,0,0,39.307,182a1.776,1.776,0,0,0-1.708,2.011" transform="translate(-37.598 -182)" fill="none"/>
    </clipPath>
    <linearGradient id="linear-gradient-3" x1="-0.649" y1="4.979" x2="-0.627" y2="4.979" xlink:href="#linear-gradient-2"/>
    <clipPath id="clip-path-15">
      <rect id="사각형_235232" data-name="사각형 235232" width="70.992" height="34.51" fill="none"/>
    </clipPath>
    <clipPath id="clip-path-16">
      <rect id="사각형_235233" data-name="사각형 235233" width="3.979" height="1.302" fill="none"/>
    </clipPath>
    <clipPath id="clip-path-17">
      <rect id="사각형_235234" data-name="사각형 235234" width="13.407" height="9.305" fill="none"/>
    </clipPath>
    <clipPath id="clip-path-18">
      <rect id="사각형_235235" data-name="사각형 235235" width="20.802" height="3.845" fill="none"/>
    </clipPath>
    <clipPath id="clip-path-19">
      <rect id="사각형_235236" data-name="사각형 235236" width="3.373" height="5.112" fill="none"/>
    </clipPath>
    <clipPath id="clip-path-20">
      <rect id="사각형_235237" data-name="사각형 235237" width="3.006" height="5.823" fill="none"/>
    </clipPath>
    <clipPath id="clip-path-21">
      <rect id="사각형_235238" data-name="사각형 235238" width="9.861" height="11.978" fill="none"/>
    </clipPath>
    <clipPath id="clip-path-22">
      <rect id="사각형_235239" data-name="사각형 235239" width="4.909" height="4.465" fill="none"/>
    </clipPath>
    <clipPath id="clip-path-23">
      <rect id="사각형_235240" data-name="사각형 235240" width="3.979" height="3.222" fill="none"/>
    </clipPath>
  </defs>
  <g id="손체차_일러스트" transform="translate(0.001 3)">
    <g id="그룹_300750" data-name="그룹 300750" transform="translate(30.951 0)">
      <g transform="matrix(1, 0, 0, 1, -30.95, -3)" filter="url(#타원_1500)">
        <g id="타원_1500-2" data-name="타원 1500" transform="translate(30.95 3)" stroke="rgba(4,160,243,0.3)" stroke-width="1" fill="url(#linear-gradient)">
          <circle cx="23.246" cy="23.246" r="23.246" stroke="none"/>
          <circle cx="23.246" cy="23.246" r="22.746" fill="none"/>
        </g>
      </g>
      <g id="그룹_25870" data-name="그룹 25870" transform="translate(2.566 6.014)">
        <g transform="matrix(1, 0, 0, 1, -33.52, -9.01)" filter="url(#패스_132435)">
          <path id="패스_132435-2" data-name="패스 132435" d="M16.173,25.453A4.543,4.543,0,0,1,8.6,28.84a2.8,2.8,0,0,1-.381.023A3.894,3.894,0,0,1,6.03,28.2H6.024a4.481,4.481,0,0,1-2.352.659,4.546,4.546,0,0,1,0-9.092c.063,0,.131,0,.193.006A3.417,3.417,0,0,1,7.081,17.5a3.527,3.527,0,0,1,.784.091A3.67,3.67,0,0,1,8.507,17,2.273,2.273,0,1,1,12.2,15.225a2.215,2.215,0,0,1-.466,1.369A3.416,3.416,0,0,1,13.9,19.771a3.381,3.381,0,0,1-.375,1.551A4.552,4.552,0,0,1,16.173,25.453Z" transform="translate(45.19 9.13)" fill="#fff"/>
        </g>
        <g id="그룹_25744" data-name="그룹 25744" transform="translate(10.796 7.955)">
          <g id="그룹_25869" data-name="그룹 25869" transform="translate(0 0)" clip-path="url(#clip-path)">
            <path id="패스_132510" data-name="패스 132510" d="M17.273,9A2.273,2.273,0,1,1,15,11.273,2.273,2.273,0,0,1,17.273,9" transform="translate(-6.477 -3.886)" fill="#fff"/>
            <path id="패스_132511" data-name="패스 132511" d="M12.7,0A1.7,1.7,0,1,1,11,1.7,1.7,1.7,0,0,1,12.7,0" transform="translate(-4.749)" fill="#fff"/>
            <path id="패스_132512" data-name="패스 132512" d="M11.409,17A3.409,3.409,0,1,1,8,20.409,3.409,3.409,0,0,1,11.409,17" transform="translate(-3.454 -7.34)" fill="#fff"/>
            <path id="패스_132513" data-name="패스 132513" d="M4.546,21A4.546,4.546,0,1,1,0,25.546,4.546,4.546,0,0,1,4.546,21" transform="translate(0 -9.067)" fill="#fff"/>
            <path id="패스_132514" data-name="패스 132514" d="M18.546,23A4.546,4.546,0,1,1,14,27.546,4.546,4.546,0,0,1,18.546,23" transform="translate(-6.045 -9.931)" fill="#fff"/>
            <path id="패스_132515" data-name="패스 132515" d="M17.409,15A3.409,3.409,0,1,1,14,18.409,3.409,3.409,0,0,1,17.409,15" transform="translate(-6.045 -6.477)" fill="#fff"/>
          </g>
        </g>
        <ellipse id="타원_2440" data-name="타원 2440" cx="3.978" cy="3.978" rx="3.978" ry="3.978" transform="translate(0 0)" fill="#fff"/>
      </g>
    </g>
    <g id="손세차" transform="translate(43.247 44.142)">
      <g id="손세차-2" data-name="손세차" transform="translate(-43.248 -43.248)" style="isolation: isolate">
        <g id="Layer_1" data-name="Layer 1">
          <g id="그룹_300350" data-name="그룹 300350" clip-path="url(#clip-path-2)">
            <g id="그룹_300318" data-name="그룹 300318" clip-path="url(#clip-path-2)">
              <g id="그룹_300315" data-name="그룹 300315" transform="translate(6.206 61.521)" opacity="0.05">
                <g id="그룹_300314" data-name="그룹 300314" clip-path="url(#clip-path-4)">
                  <path id="패스_620616" data-name="패스 620616" d="M54.654,284.834l-.259-.151a1.73,1.73,0,0,0-1.708,0l-7.893,4.282a4.822,4.822,0,0,0-3.568-1.47,4.649,4.649,0,0,0-3.849,1.838,1.73,1.73,0,0,0-.865.216L29.527,293.7a1.643,1.643,0,0,0,0,2.876l.259.151a1.73,1.73,0,0,0,1.708,0l6.012-3.568a4.725,4.725,0,0,0,3.741,1.687,4.911,4.911,0,0,0,4.13-2.292,1.73,1.73,0,0,0,.822-.216l8.455-4.606a1.643,1.643,0,0,0,0-2.876" transform="translate(-28.684 -284.466)"/>
                </g>
              </g>
              <g id="그룹_300317" data-name="그룹 300317" transform="translate(71.338 46.665)" opacity="0.05">
                <g id="그룹_300316" data-name="그룹 300316" clip-path="url(#clip-path-5)">
                  <path id="패스_620617" data-name="패스 620617" d="M342.428,219.909c0,2.271-2.833,4.109-6.314,4.109s-6.314-1.838-6.314-4.109,2.833-4.109,6.314-4.109,6.314,1.838,6.314,4.109" transform="translate(-329.822 -215.8)"/>
                </g>
              </g>
            </g>
            <path id="패스_620618" data-name="패스 620618" d="M360.8,233.5l2.141.043v1.189h-2.054Z" transform="translate(-282.78 -183.008)" fill="#fff"/>
            <g id="그룹_300323" data-name="그룹 300323" clip-path="url(#clip-path-2)">
              <path id="패스_620619" data-name="패스 620619" d="M337.488,166.145c-.065.432-.151,2.1-.757,2.1s-.865.195-1.06-.065l-.454-.281-.8-.368v-1.492l-.238-8.2a2.033,2.033,0,0,0-1.384-1.579l-2.638,11.115-2.357-3.092,1.06-11.591.13-.108a3.609,3.609,0,0,0,2.854,1.168,4.363,4.363,0,0,0,4.238-2.617A1.3,1.3,0,0,0,336,150.1h0a13.463,13.463,0,0,1,1.989,6.228Z" transform="translate(-256.916 -117.642)" fill="#3673ee"/>
              <g id="그룹_300320" data-name="그룹 300320" transform="translate(71.338 35.031)" opacity="0.2">
                <g id="그룹_300319" data-name="그룹 300319" clip-path="url(#clip-path-7)">
                  <path id="패스_620620" data-name="패스 620620" d="M334.2,165.525l-.411-2.487L330.484,162l-.584,6.639,2.746,4.93Z" transform="translate(-329.9 -162)"/>
                </g>
              </g>
              <path id="패스_620621" data-name="패스 620621" d="M328.838,162,327.8,173.591l2.487,3.092,2.487-10.985" transform="translate(-256.916 -126.969)" fill="none" stroke="#222" stroke-linecap="round" stroke-miterlimit="10" stroke-width="0.541"/>
              <path id="패스_620622" data-name="패스 620622" d="M346.2,179.873l.562-1.514-1.06-.259Z" transform="translate(-270.945 -139.587)" fill="#222"/>
              <path id="패스_620623" data-name="패스 620623" d="M366.3,151.6a8.575,8.575,0,0,1,1.86,5.882,5.291,5.291,0,0,0-.043.584l-.541,10.228" transform="translate(-287.091 -118.818)" fill="none" stroke="#222" stroke-linecap="round" stroke-miterlimit="10" stroke-width="0.541"/>
              <path id="패스_620624" data-name="패스 620624" d="M354.286,234.022l.173,1.341a.5.5,0,0,1-.195.454l-2.292,1.708a1.319,1.319,0,0,1-1.47.087l-.519-.3a.519.519,0,0,1-.259-.368l-.043-.3a.692.692,0,0,1,.281-.649l2.227-1.708a.96.96,0,0,0,1.146.649c.584-.065.995-.476.93-.93" transform="translate(-274.06 -183.4)" fill="#222"/>
              <path id="패스_620625" data-name="패스 620625" d="M361.8,229a1.5,1.5,0,0,1-2.9,0" transform="translate(-281.291 -179.481)" fill="none" stroke="#222" stroke-linecap="round" stroke-miterlimit="10" stroke-width="0.541"/>
              <path id="패스_620626" data-name="패스 620626" d="M363.141,232.622v.605a.957.957,0,0,1-1.038.8.941.941,0,0,1-1.038-.8L361,232.6" transform="translate(-282.937 -182.302)" fill="none" stroke="#222" stroke-linecap="round" stroke-miterlimit="10" stroke-width="0.432"/>
              <path id="패스_620627" data-name="패스 620627" d="M352.336,233.105l-2.271,1.73a.714.714,0,0,0-.281.649l.043.3a.519.519,0,0,0,.26.368l.519.3a1.319,1.319,0,0,0,1.47-.087l2.271-1.73a.5.5,0,0,0,.195-.454l-.216-1.687" transform="translate(-274.143 -182.224)" fill="none" stroke="#222" stroke-miterlimit="10" stroke-width="0.432"/>
              <g id="그룹_300322" data-name="그룹 300322" transform="translate(2.162 24.889)" opacity="0.1" style="mix-blend-mode: multiply;isolation: isolate">
                <g id="그룹_300321" data-name="그룹 300321" clip-path="url(#clip-path-8)">
                  <path id="패스_620628" data-name="패스 620628" d="M11.678,127.577c4.065-2.79,22.813-12.477,22.813-12.477l48.135,29.863s3.568,2.249.173,4.26c-4.692,2.768-16.218,9.623-18.748,11.072-2.033,1.146-9.19-1.514-9.19-1.514L12.846,134.475s-5.622-3.849-1.168-6.876" transform="translate(-9.97 -115.1)"/>
                </g>
              </g>
              <path id="패스_620629" data-name="패스 620629" d="M188.646,261.322l.8,1.968.778.368,3.568-5.1-3.568-.454-1.925,1.514Z" transform="translate(-147.582 -202.288)"/>
              <path id="패스_620630" data-name="패스 620630" d="M196.154,258.946l3.2-1.838a3,3,0,0,1,2.984.3,9.362,9.362,0,0,1,4.238,7.352,3,3,0,0,1-1.254,2.768l-3.2,1.838a3,3,0,0,1-2.984-.3,9.42,9.42,0,0,1-4.238-7.352,2.941,2.941,0,0,1,1.254-2.746" transform="translate(-152.755 -201.296)" fill="#222"/>
              <path id="패스_620631" data-name="패스 620631" d="M194.9,268.354a9.42,9.42,0,0,0,4.238,7.352,2.583,2.583,0,0,0,4.238-2.444,9.42,9.42,0,0,0-4.238-7.352,2.583,2.583,0,0,0-4.238,2.444" transform="translate(-152.755 -207.958)" fill="#222"/>
              <path id="패스_620632" data-name="패스 620632" d="M195.6,270.111a8.663,8.663,0,0,0,3.936,6.812,2.742,2.742,0,0,0,2.768.281,2.777,2.777,0,0,0,1.168-2.552,8.663,8.663,0,0,0-3.936-6.812,2.742,2.742,0,0,0-2.768-.281,2.777,2.777,0,0,0-1.168,2.552" transform="translate(-153.303 -209.499)" fill="#222"/>
            </g>
            <g id="그룹_300324" data-name="그룹 300324" transform="translate(43.291 59.25)" clip-path="url(#clip-path-9)">
              <rect id="사각형_235227" data-name="사각형 235227" width="9.558" height="9.651" transform="translate(-3.911 3.632) rotate(-43.2)" fill="url(#linear-gradient-2)"/>
            </g>
            <g id="그룹_300327" data-name="그룹 300327" clip-path="url(#clip-path-2)">
              <path id="패스_620634" data-name="패스 620634" d="M200.7,277.093a6,6,0,0,0,2.7,4.714c1.535.93,2.746.022,2.7-1.579a5.968,5.968,0,0,0-2.7-4.714,1.689,1.689,0,0,0-2.7,1.579" transform="translate(-157.297 -215.681)" fill="#cccbca"/>
              <g id="그룹_300326" data-name="그룹 300326" transform="translate(43.4 59.488)" opacity="0.5">
                <g id="그룹_300325" data-name="그룹 300325" clip-path="url(#clip-path-11)">
                  <path id="패스_620635" data-name="패스 620635" d="M202.333,275.1a1.707,1.707,0,0,0-1.254,1.86,5.891,5.891,0,0,0,2.681,4.649,1.86,1.86,0,0,0,1.643.216,1.8,1.8,0,0,1-1.9-.108A5.884,5.884,0,0,1,200.8,277a1.681,1.681,0,0,1,1.557-1.9" transform="translate(-200.777 -275.1)" fill="#fff"/>
                </g>
              </g>
              <path id="패스_620636" data-name="패스 620636" d="M26.046,169.222l.8,1.989.778.368,3.568-5.125L27.625,166,25.7,167.514Z" transform="translate(-20.143 -130.104)"/>
              <path id="패스_620637" data-name="패스 620637" d="M33.554,166.846l3.2-1.838a3,3,0,0,1,2.984.3,9.362,9.362,0,0,1,4.238,7.352,3,3,0,0,1-1.254,2.768l-3.2,1.838a3,3,0,0,1-2.984-.3,9.42,9.42,0,0,1-4.238-7.352,2.941,2.941,0,0,1,1.254-2.746" transform="translate(-25.315 -129.112)" fill="#222"/>
              <path id="패스_620638" data-name="패스 620638" d="M32.3,176.176a9.42,9.42,0,0,0,4.238,7.352,3,3,0,0,0,2.984.3,3,3,0,0,0,1.254-2.768,9.42,9.42,0,0,0-4.238-7.352,3,3,0,0,0-2.984-.3,2.986,2.986,0,0,0-1.254,2.746" transform="translate(-25.315 -135.695)" fill="#222"/>
              <path id="패스_620639" data-name="패스 620639" d="M33,178.011a8.663,8.663,0,0,0,3.936,6.812,2.742,2.742,0,0,0,2.768.281,2.777,2.777,0,0,0,1.168-2.552,8.663,8.663,0,0,0-3.936-6.812,2.742,2.742,0,0,0-2.768-.281A2.777,2.777,0,0,0,33,178.011" transform="translate(-25.864 -137.314)" fill="#222"/>
            </g>
            <g id="그룹_300328" data-name="그룹 300328" transform="translate(8.13 39.356)" clip-path="url(#clip-path-12)">
              <rect id="사각형_235230" data-name="사각형 235230" width="9.558" height="9.651" transform="translate(-3.906 3.647) rotate(-43.2)" fill="url(#linear-gradient-3)"/>
            </g>
            <g id="그룹_300349" data-name="그룹 300349" clip-path="url(#clip-path-2)">
              <path id="패스_620641" data-name="패스 620641" d="M38.1,184.993a6,6,0,0,0,2.7,4.714c1.535.93,2.746.022,2.7-1.579a5.968,5.968,0,0,0-2.7-4.714,1.689,1.689,0,0,0-2.7,1.579" transform="translate(-29.858 -143.496)" fill="#cccbca"/>
              <g id="그룹_300330" data-name="그룹 300330" transform="translate(8.239 39.594)" opacity="0.5">
                <g id="그룹_300329" data-name="그룹 300329" clip-path="url(#clip-path-11)">
                  <path id="패스_620642" data-name="패스 620642" d="M39.734,183.1a1.707,1.707,0,0,0-1.254,1.86,5.9,5.9,0,0,0,2.681,4.649,1.86,1.86,0,0,0,1.643.216,1.8,1.8,0,0,1-1.9-.108A5.884,5.884,0,0,1,38.2,185a1.682,1.682,0,0,1,1.557-1.9" transform="translate(-38.177 -183.1)" fill="#fff"/>
                </g>
              </g>
              <path id="패스_620643" data-name="패스 620643" d="M20.879,99.21c.714-.908,3.33-3.438,3.33-3.438a13.45,13.45,0,0,1,2.963-2.746c1.881-1.3,8.109-4.93,12.65-5.947a16.607,16.607,0,0,1,4.109-.584,9.385,9.385,0,0,1,3.481.605l5.276,2.054a32.752,32.752,0,0,1,5.168.735A39.871,39.871,0,0,1,64.905,92.7c2.292,1.124,7.59,4.844,10.877,6.963a63.6,63.6,0,0,1,8.282,6.876l2.162,2.119a24.339,24.339,0,0,1,2.508,2.444,21.523,21.523,0,0,1,1.254,3.222,21.408,21.408,0,0,1,1.1,3.287,5.791,5.791,0,0,1,0,1.989,2.919,2.919,0,0,1-.324,2.4c-.735,1.124-5.406,4.39-8.671,6.444a99.138,99.138,0,0,1-10.6,5.406,7.849,7.849,0,0,1-3.871.108,11.648,11.648,0,0,0-5.19-8.758c-2.725-1.579-5.493-.714-4.541,3.222L33.053,114.368c-.519-3.2-2.984-8.066-5.709-9.644s-5.709-.324-4.13,4a19.169,19.169,0,0,1-2.054-3.092,2.833,2.833,0,0,1-.173-2.011s-.8-3.5-.108-4.411" transform="translate(-16.143 -67.79)" fill="#fff"/>
              <path id="패스_620644" data-name="패스 620644" d="M20.844,99.21c.714-.908,3.33-3.438,3.33-3.438a13.45,13.45,0,0,1,2.963-2.746c1.881-1.3,8.109-4.93,12.65-5.947a16.607,16.607,0,0,1,4.109-.584,9.385,9.385,0,0,1,3.481.605l5.276,2.054a32.752,32.752,0,0,1,5.168.735A39.871,39.871,0,0,1,64.871,92.7c2.292,1.124,7.59,4.844,10.877,6.963a63.6,63.6,0,0,1,8.282,6.876l2.162,2.119A24.341,24.341,0,0,1,88.7,111.1a21.522,21.522,0,0,1,1.254,3.222,21.409,21.409,0,0,1,1.1,3.287,5.791,5.791,0,0,1,0,1.989,2.919,2.919,0,0,1-.324,2.4c-.735,1.124-5.406,4.39-8.671,6.444a99.136,99.136,0,0,1-10.6,5.406,7.849,7.849,0,0,1-3.871.108,11.648,11.648,0,0,0-5.19-8.758c-2.725-1.579-5.493-.714-4.541,3.222L33.018,114.368c-.519-3.2-2.984-8.066-5.709-9.644s-5.709-.324-4.13,4a19.169,19.169,0,0,1-2.054-3.092,2.833,2.833,0,0,1-.173-2.011S20.13,100.14,20.844,99.21Z" transform="translate(-16.108 -67.79)" fill="none" stroke="#222" stroke-miterlimit="10" stroke-width="1.081"/>
              <g id="그룹_300332" data-name="그룹 300332" transform="translate(4.238 32.242)" opacity="0.18" style="mix-blend-mode: multiply;isolation: isolate">
                <g id="그룹_300331" data-name="그룹 300331" clip-path="url(#clip-path-15)">
                  <path id="패스_620645" data-name="패스 620645" d="M89.9,171.77c-.735,1.124-5.644,4-8.909,6.055a99.143,99.143,0,0,1-10.6,5.406,7.871,7.871,0,0,1-3.871.108,11.648,11.648,0,0,0-5.19-8.758c-2.725-1.579-5.493-.714-4.541,3.222l-24.8-14.034c-.519-3.2-2.984-8.066-5.709-9.644s-5.709-.324-4.13,4a21.9,21.9,0,0,1-2.054-3.092,2.833,2.833,0,0,1-.195-2.011A11.964,11.964,0,0,1,19.623,149a3.784,3.784,0,0,0,.259.605,6.336,6.336,0,0,0,.995,1.384,5.124,5.124,0,0,0,.627.584.476.476,0,0,0,.757-.476l-.346-1.6,2.681.93c1.081.151,3.7.562,5.709,1.016,2.595.605,3.892-.5,6.466-.822a26.581,26.581,0,0,1,11.007.541c4.736,1.449,10.617,5.73,12.693,7.568a30.1,30.1,0,0,1,4.065,4.779l2.227,4.822,1.579-.13,17.407-9.752A4.134,4.134,0,0,1,87.89,160.4a8,8,0,0,1-.108,1.708,40.376,40.376,0,0,1-.519,4.411c.627-.3,1.6-1.579,2.227-1.881a10.206,10.206,0,0,1,.692,2.141c.238,1.254.281,2.184.324,2.4Z" transform="translate(-19.536 -149.022)"/>
                </g>
              </g>
              <path id="패스_620646" data-name="패스 620646" d="M225.1,176.217A18.346,18.346,0,0,0,226.246,180c.692,1.384,1.643,3.244,2.184,3.568a5.636,5.636,0,0,0,3.936.065c1.665-.562,5.925-3.049,8.671-4.519s6.4-4.476,6.466-5.666-2.184-3.049-2.357-3.222L241.08,166.4l-9.19,5.752Z" transform="translate(-176.424 -130.417)" fill="#222"/>
              <path id="패스_620647" data-name="패스 620647" d="M231.182,184.726a6.034,6.034,0,0,0,1.925-.3,60.67,60.67,0,0,0,6.185-3.157l2.444-1.341c2.919-1.557,6.314-4.5,6.357-5.514.022-.454-.346-1.319-2.184-2.963l-.13-.108-3.957-3.741-9.039,5.644-6.682,4a17.543,17.543,0,0,0,1.1,3.611,15.534,15.534,0,0,0,2.1,3.5,3.211,3.211,0,0,0,1.86.346" transform="translate(-177.208 -131.358)" fill="#222"/>
              <path id="패스_620648" data-name="패스 620648" d="M85.76,109.608s-3.806-.065-6.228.022-5.449.692-6.228.605-1.665-.389-1.708-1.038,1.341-4.433,5.536-6.79A29,29,0,0,1,88.225,98.45a13.742,13.742,0,0,1,4.282.087s3.265.368,4.779.692a26.316,26.316,0,0,1,3.5,1.189,75.1,75.1,0,0,0-7.158,3.244,35.8,35.8,0,0,0-7.893,5.925" transform="translate(-56.114 -77.086)" fill="#222"/>
              <path id="패스_620649" data-name="패스 620649" d="M82.317,102.771A35.7,35.7,0,0,1,93.3,99.7l.519.087h.043c.043,0,3.287.368,4.757.692a16.369,16.369,0,0,1,2.876,1.06c-1.06.432-3.979,1.643-6.574,3.027a36.362,36.362,0,0,0-7.893,5.9h-2.7l-3.46.043c-1.276.043-2.725.238-3.892.389a18.551,18.551,0,0,1-2.119.216h-.173a2.544,2.544,0,0,1-1.384-.541c.5-1.211,2.552-5.06,9.039-7.806" transform="translate(-57.45 -78.141)" fill="#222"/>
              <g id="그룹_300334" data-name="그룹 300334" transform="translate(39.334 23.462)" opacity="0.7">
                <g id="그룹_300333" data-name="그룹 300333" clip-path="url(#clip-path-16)">
                  <path id="패스_620650" data-name="패스 620650" d="M181.985,108.5c.541,0,2.919.173,3.892.238l-2.465,1.06c-.822-.562-1.86-1.3-1.449-1.3" transform="translate(-181.877 -108.5)" fill="#222"/>
                </g>
              </g>
              <path id="패스_620651" data-name="패스 620651" d="M173.335,182.938c0,.432-.67,1.427-2.271,1.838a6.335,6.335,0,0,1-1.579.173,11.785,11.785,0,0,1-2.444-.281,18.789,18.789,0,0,1-2.746-.843l-1.665-.865a.649.649,0,0,1-.324-.757,52.727,52.727,0,0,1,1.816-5.384,1.319,1.319,0,0,1,1.989-.541h.022c3.222,2.465,7.2,6.012,7.2,6.66" transform="translate(-127.189 -137.96)" fill="#222"/>
              <path id="패스_620652" data-name="패스 620652" d="M173.335,182.938c0,.432-.67,1.427-2.271,1.838a6.335,6.335,0,0,1-1.579.173,11.785,11.785,0,0,1-2.444-.281,18.789,18.789,0,0,1-2.746-.843l-1.665-.865a.649.649,0,0,1-.324-.757,52.727,52.727,0,0,1,1.816-5.384,1.319,1.319,0,0,1,1.989-.541h.022C169.356,178.743,173.335,182.289,173.335,182.938Z" transform="translate(-127.189 -137.96)" fill="none" stroke="#222" stroke-miterlimit="10" stroke-width="0.649"/>
              <g id="그룹_300336" data-name="그룹 300336" transform="translate(57.477 36.199)" opacity="0.2">
                <g id="그룹_300335" data-name="그룹 300335" clip-path="url(#clip-path-17)">
                  <path id="패스_620653" data-name="패스 620653" d="M273.036,167.4l3.957,3.741.13.108c1.838,1.643,2.184,2.53,2.184,2.963s-.843,1.449-2.011,2.465a29.311,29.311,0,0,0-11.4-4.822Z" transform="translate(-265.878 -167.4)" fill="#222"/>
                </g>
              </g>
              <g id="그룹_300338" data-name="그룹 300338" transform="translate(23.224 21.559)" opacity="0.2">
                <g id="그룹_300337" data-name="그룹 300337" clip-path="url(#clip-path-18)">
                  <path id="패스_620654" data-name="패스 620654" d="M107.4,103.449c.519-.259,1.06-.519,1.643-.778A35.7,35.7,0,0,1,120.028,99.6l.519.087h.043c.043,0,3.287.368,4.757.692a16.369,16.369,0,0,1,2.876,1.06c-.67.281-2.1.865-3.719,1.622-2.876-.476-8.412-.887-17.1.368" transform="translate(-107.4 -99.622)" fill="#222"/>
                </g>
              </g>
              <path id="패스_620655" data-name="패스 620655" d="M233.578,252.153a.822.822,0,0,0,.3-1.254,6.6,6.6,0,0,0-2.314-2.119c-1.146-.346-2.53-.519-3.265-.865s-2.681-1.319-2.9-.649.93,2.962,2.271,4.152a4.227,4.227,0,0,0,3.784,1.341,6.921,6.921,0,0,0,2.119-.605" transform="translate(-176.642 -193.616)" fill="#f8483b"/>
              <path id="패스_620656" data-name="패스 620656" d="M233.578,252.153a.822.822,0,0,0,.3-1.254,6.6,6.6,0,0,0-2.314-2.119c-1.146-.346-2.53-.519-3.265-.865s-2.681-1.319-2.9-.649.93,2.962,2.271,4.152a4.227,4.227,0,0,0,3.784,1.341A6.921,6.921,0,0,0,233.578,252.153Z" transform="translate(-176.642 -193.616)" fill="none" stroke="#222" stroke-linejoin="round" stroke-width="0.649"/>
              <path id="패스_620657" data-name="패스 620657" d="M232.025,259.365l.5.108a1.016,1.016,0,0,1,.8.541l.541,1.081a4.3,4.3,0,0,1-3.741-1.341A8.2,8.2,0,0,1,228.5,257.7a25.178,25.178,0,0,0,3.5,1.643" transform="translate(-179.089 -201.975)" fill="#fff"/>
              <path id="패스_620658" data-name="패스 620658" d="M232.025,259.365l.5.108a1.016,1.016,0,0,1,.8.541l.541,1.081a4.3,4.3,0,0,1-3.741-1.341A8.2,8.2,0,0,1,228.5,257.7,24.347,24.347,0,0,0,232.025,259.365Z" transform="translate(-179.089 -201.975)" fill="none" stroke="#222" stroke-linejoin="round" stroke-width="0.649"/>
              <path id="패스_620659" data-name="패스 620659" d="M333.511,202.638a2.383,2.383,0,0,1-.324,1.492,13.559,13.559,0,0,1-1.535,1.492.151.151,0,0,1-.26-.13l.562-4.39a15.989,15.989,0,0,0,.108-1.9l.195.259a20.942,20.942,0,0,1,1.254,3.222" transform="translate(-259.729 -156.125)" fill="#f8483b"/>
              <path id="패스_620660" data-name="패스 620660" d="M333.511,202.638a2.383,2.383,0,0,1-.324,1.492,13.559,13.559,0,0,1-1.535,1.492.151.151,0,0,1-.26-.13l.562-4.39a15.989,15.989,0,0,0,.108-1.9l.195.259A20.78,20.78,0,0,1,333.511,202.638Z" transform="translate(-259.729 -156.125)" fill="none" stroke="#222" stroke-linejoin="round" stroke-width="0.649"/>
              <path id="패스_620661" data-name="패스 620661" d="M338.481,211.1l.281.865a2.383,2.383,0,0,1-.324,1.492l-.13.151-.216-1.73a.519.519,0,0,1,.108-.368l.3-.389" transform="translate(-264.981 -165.451)" fill="#fff"/>
              <path id="패스_620662" data-name="패스 620662" d="M338.481,211.1l.281.865a2.383,2.383,0,0,1-.324,1.492l-.13.151-.216-1.73a.519.519,0,0,1,.108-.368Z" transform="translate(-264.981 -165.451)" fill="none" stroke="#222" stroke-miterlimit="10" stroke-width="0.432"/>
              <path id="패스_620663" data-name="패스 620663" d="M30.581,131a2.9,2.9,0,0,0,.714,1.146l2.487,2.66a1.939,1.939,0,0,1-1.795,1.06c-1.449.108-2.9-.346-3.049-1.492-.216-1.665,1.665-3.352,1.665-3.352" transform="translate(-22.666 -102.672)" fill="#222"/>
              <path id="패스_620664" data-name="패스 620664" d="M273.483,239.6S261.266,249.115,253.2,251" transform="translate(-198.448 -187.789)" fill="none" stroke="#222" stroke-linecap="round" stroke-miterlimit="10" stroke-width="0.649"/>
              <path id="패스_620665" data-name="패스 620665" d="M312.057,193.3s.605.822.5,1.233.13,1.038-4.455,4.433l5.3-4.13a.259.259,0,0,0,.022-.368Z" transform="translate(-241.476 -151.501)" fill="#fff"/>
              <path id="패스_620666" data-name="패스 620666" d="M266.2,234.674s8.606-2.984,13.8-8.174l-.043.389a.562.562,0,0,0,.173.368s-1.643,3.2-13.753,8.217" transform="translate(-208.637 -177.521)" fill="#fff"/>
              <path id="패스_620667" data-name="패스 620667" d="M233.8,235.7s1.038,2.595,1.86,3.179,4.519-1.319,4.519-1.319a5.882,5.882,0,0,1-3.784.584l-.368-.043c-.324-.022-1.189-.281-2.227-2.4" transform="translate(-183.243 -184.732)" fill="#fff"/>
              <path id="패스_620668" data-name="패스 620668" d="M185.6,225.3s5.514,2.941,8.5,4.325c0,0-4.282.432-8.5-4.325" transform="translate(-145.466 -176.581)" fill="#fff"/>
              <path id="패스_620669" data-name="패스 620669" d="M143.62,167.391a2.206,2.206,0,0,1,.13.735c0,.822-.519,1.3-1.168,1.06a1.579,1.579,0,0,1-.627-.476c-.086.67-.562,1.016-1.146.8a1.885,1.885,0,0,1-1.1-1.341.843.843,0,0,1-.605-.022,2.133,2.133,0,0,1-1.189-1.86,1.47,1.47,0,0,1,.022-.259h-.022a2.061,2.061,0,0,1-1.189-1.838,1.1,1.1,0,0,1,.368-.908,2.1,2.1,0,0,1-.389-1.146c0-.757.476-1.211,1.1-1.06a1.925,1.925,0,0,1-.108-.627c0-.778.519-1.254,1.168-1.081a1.471,1.471,0,0,1,.67.454.9.9,0,0,1,1.146-.757,1.73,1.73,0,0,1,1.038,1.06.908.908,0,0,1,.454.022,1.965,1.965,0,0,1,1.189,1.838h0a2.074,2.074,0,0,1,.973,1.773,1.341,1.341,0,0,1-.281.887,2.249,2.249,0,0,1,.649,1.557c0,.778-.476,1.276-1.06,1.124" transform="translate(-107.14 -124.64)" fill="#e4eff5"/>
              <path id="패스_620670" data-name="패스 620670" d="M143.62,167.391a2.206,2.206,0,0,1,.13.735c0,.822-.519,1.3-1.168,1.06a1.579,1.579,0,0,1-.627-.476c-.086.67-.562,1.016-1.146.8a1.885,1.885,0,0,1-1.1-1.341.843.843,0,0,1-.605-.022,2.133,2.133,0,0,1-1.189-1.86,1.47,1.47,0,0,1,.022-.259h-.022a2.061,2.061,0,0,1-1.189-1.838,1.1,1.1,0,0,1,.368-.908,2.1,2.1,0,0,1-.389-1.146c0-.757.476-1.211,1.1-1.06a1.925,1.925,0,0,1-.108-.627c0-.778.519-1.254,1.168-1.081a1.471,1.471,0,0,1,.67.454.9.9,0,0,1,1.146-.757,1.73,1.73,0,0,1,1.038,1.06.908.908,0,0,1,.454.022,1.965,1.965,0,0,1,1.189,1.838h0a2.074,2.074,0,0,1,.973,1.773,1.341,1.341,0,0,1-.281.887,2.249,2.249,0,0,1,.649,1.557C144.7,167.045,144.225,167.521,143.62,167.391Z" transform="translate(-107.14 -124.64)" fill="none" stroke="#111" stroke-linecap="round" stroke-linejoin="round" stroke-width="0.432"/>
              <g id="그룹_300340" data-name="그룹 300340" transform="translate(33.193 39.81)" opacity="0.15">
                <g id="그룹_300339" data-name="그룹 300339" clip-path="url(#clip-path-19)">
                  <path id="패스_620671" data-name="패스 620671" d="M153.759,184.1a8.958,8.958,0,0,0,3.114,4.3l-3.373.8Z" transform="translate(-153.5 -184.1)" fill="#111"/>
                </g>
              </g>
              <path id="패스_620672" data-name="패스 620672" d="M83.428,212.986v.108a1.256,1.256,0,0,1-.022.238c-.324,1.189-1.276,5.19-4.844,5.709a3.567,3.567,0,0,1-1.146-.065c-1.579-.259-2.465-.778-2.941-1.752a5.082,5.082,0,0,1-.5-1.708h0A5.666,5.666,0,0,1,74,214.111a24.6,24.6,0,0,1,4.065-8.563c.411-.541,1.406-.627,2.054-.995a1.254,1.254,0,0,1,1.06-.108h.108l-.065.411s-1.016.951-.238,1.406,2.271-.757,2.271-.757l1.146.216.476.087a8.412,8.412,0,0,0-1.427,7.179" transform="translate(-57.955 -160.18)" fill="#fff"/>
              <path id="패스_620673" data-name="패스 620673" d="M117.912,189.012l-1.146,2.746-.043.087v-.108a8.412,8.412,0,0,1,1.427-7.179h.108l2.963.432h.173a1.038,1.038,0,0,0,1.016-.908l.692-3.135a5.132,5.132,0,0,0,.043-.605,4.844,4.844,0,0,0-.281-1.622c-.173-.5.238-.8.67-1.1l.259-.195a.735.735,0,0,1,1.016.173c.3.432.216.692.216,1.189a2.422,2.422,0,0,1-.346,1.233.757.757,0,0,0-.108.432l.13,5.947a1.233,1.233,0,0,1-1.168,1.341l-4.541.173-.843.151Z" transform="translate(-91.271 -138.952)" fill="#fff"/>
              <path id="패스_620674" data-name="패스 620674" d="M123.584,286.922a.736.736,0,0,1-.022.195,1.423,1.423,0,0,1-1.47.908c-.735,0-1.492-.5-1.492-1.1a1,1,0,0,1,.5-.822,2.076,2.076,0,0,0,1.233.368,2.184,2.184,0,0,0,.951-.216.93.93,0,0,1,.3.67" transform="translate(-94.521 -224.233)" fill="#fff"/>
              <path id="패스_620675" data-name="패스 620675" d="M37.065,305.627l-.086.108-.951.281-.822.259-.735-1.016-.67-.93h0l1.276-.995h0l.951-.735c.605,0,1.189.67,1.341,1.557a2.076,2.076,0,0,1-.281,1.492" transform="translate(-26.491 -237.165)" fill="#fff"/>
              <path id="패스_620676" data-name="패스 620676" d="M66.63,241.607l-2.292,6.185a.972.972,0,0,1,.022.195,1.227,1.227,0,0,1-.843,1.081l-2.314-.151a1.168,1.168,0,0,1-.562-.865.647.647,0,0,1,0-.065l.086-.389h0l.605-2.941-1.189,1.492a3.849,3.849,0,0,1-5.017.865h-.065l-.908,2.335a3.979,3.979,0,0,1-1.535,1.925l-6.833,4.39h-.216a2.292,2.292,0,0,0,.3-1.643c-.151-.973-.8-1.708-1.47-1.708l4.433-3.006a4.433,4.433,0,0,0,1.86-3.59v-3.373a5.146,5.146,0,0,0,.519,1.708c.5.951,1.86,1.211,3.46,1.47v.065h.93c3.481-.389,4.26-4.152,4.606-5.32l4.26-1.514a1.665,1.665,0,0,1,2.033.8,2.616,2.616,0,0,1,.13,2.1" transform="translate(-34.799 -187.049)" fill="#3673ee"/>
              <path id="패스_620677" data-name="패스 620677" d="M106.014,204.3l-.714,1.3.043.67h1.384l1.319-.995.086-.822Z" transform="translate(-82.53 -160.122)" fill="#fff"/>
              <g id="그룹_300342" data-name="그룹 300342" transform="translate(25.884 56.136)" opacity="0.2">
                <g id="그룹_300341" data-name="그룹 300341" clip-path="url(#clip-path-20)">
                  <path id="패스_620678" data-name="패스 620678" d="M122.057,259.6l.649,5.817L120,265.4l-.3-.93.562-2.422Z" transform="translate(-119.7 -259.6)"/>
                </g>
              </g>
              <path id="패스_620679" data-name="패스 620679" d="M121.359,261.243l1.795-1.643.238.086-2.292,3.763Z" transform="translate(-94.913 -203.464)" fill="#222"/>
              <path id="패스_620680" data-name="패스 620680" d="M88.189,274.3l-.389,3.849,1.319-3.179Z" transform="translate(-68.814 -214.985)" fill="#222"/>
              <g id="그룹_300344" data-name="그룹 300344" transform="translate(9.579 56.374)" opacity="0.2">
                <g id="그룹_300343" data-name="그룹 300343" clip-path="url(#clip-path-21)">
                  <path id="패스_620681" data-name="패스 620681" d="M50.857,260.7l2.206,1.946,1.254.454-.454,4.39L45.8,272.68l-.173-1.9L44.5,269.133l5.536-3.611s1.211-2.9.822-4.822" transform="translate(-44.457 -260.7)"/>
                </g>
              </g>
              <path id="패스_620682" data-name="패스 620682" d="M124.86,285.481h0l-3.676,2.011a1.492,1.492,0,0,1-1.254.108,1.427,1.427,0,0,1-.93-1.341v-.086l.108-1.838h.065v.108c0,.605.692,1.1,1.579,1.1s1.427-.389,1.535-.908h.108l-.043-.951.843-.411a1.665,1.665,0,0,1,2.141.173,1.211,1.211,0,0,1,.216.3,1.324,1.324,0,0,1-.692,1.73" transform="translate(-93.267 -221.777)" fill="#222"/>
              <path id="패스_620683" data-name="패스 620683" d="M80.4,204.345h0a1.254,1.254,0,0,0-1.06.108l-1.362.562a3.676,3.676,0,0,0-1.665,1.622l-2.768,6.12A6.12,6.12,0,0,0,73,214.919" transform="translate(-57.214 -160.102)" fill="none" stroke="#222" stroke-linecap="round" stroke-linejoin="round" stroke-width="0.541"/>
              <line id="선_85474" data-name="선 85474" x2="1.47" y2="1.146" transform="translate(15.548 60.699)" fill="none" stroke="#222" stroke-linecap="round" stroke-linejoin="round" stroke-width="0.541"/>
              <path id="패스_620684" data-name="패스 620684" d="M89.8,262.8l.822.562a3.849,3.849,0,0,0,5.147-.8l2.854-2.962" transform="translate(-70.382 -203.464)" fill="none" stroke="#222" stroke-linecap="round" stroke-linejoin="round" stroke-width="0.541"/>
              <path id="패스_620685" data-name="패스 620685" d="M118,239.923l4.152-1.47a1.665,1.665,0,0,1,2.033.8,2.617,2.617,0,0,1,.13,2.1l-2.573,6.963" transform="translate(-92.484 -186.814)" fill="none" stroke="#222" stroke-linecap="round" stroke-linejoin="round" stroke-width="0.541"/>
              <path id="패스_620686" data-name="패스 620686" d="M124.087,289.9a.757.757,0,0,1-.022.195,1.563,1.563,0,0,1-1.622.973c-.822,0-1.643-.519-1.643-1.168" transform="translate(-94.678 -227.212)" fill="#fff"/>
              <path id="패스_620687" data-name="패스 620687" d="M124.087,289.9a.757.757,0,0,1-.022.195,1.563,1.563,0,0,1-1.622.973c-.822,0-1.643-.519-1.643-1.168" transform="translate(-94.678 -227.212)" fill="none" stroke="#222" stroke-linecap="round" stroke-linejoin="round" stroke-width="0.541"/>
              <line id="선_85475" data-name="선 85475" y1="3.006" x2="0.627" transform="translate(25.884 57.931)" fill="none" stroke="#222" stroke-linecap="round" stroke-linejoin="round" stroke-width="0.541"/>
              <path id="패스_620688" data-name="패스 620688" d="M29.217,314.817l-.238.087h0l-1.233.562A1.578,1.578,0,0,1,26.3,315.4a2.53,2.53,0,0,1-1.254-2.141L25,311.4v-.389h0a1.3,1.3,0,0,1,1.233-1.211,1.124,1.124,0,0,1,.476.108l.735,1.038.8,1.124.065.432a1.3,1.3,0,0,1,1.6.584,1.324,1.324,0,0,1-.692,1.73" transform="translate(-19.594 -242.808)" fill="#222"/>
              <path id="패스_620689" data-name="패스 620689" d="M35.738,305.635l-.951.281-1.081.324L32.3,304.446l1.557-1.211h0l.93-.735c.605,0,1.189.67,1.319,1.557a1.968,1.968,0,0,1-.368,1.6" transform="translate(-25.315 -237.087)" fill="#fff"/>
              <path id="패스_620690" data-name="패스 620690" d="M35.738,305.635l-.951.281-1.081.324L32.3,304.446l1.557-1.211h0l.93-.735c.605,0,1.189.67,1.319,1.557a1.968,1.968,0,0,1-.368,1.579Z" transform="translate(-25.315 -237.087)" fill="none" stroke="#222" stroke-miterlimit="10" stroke-width="0.541"/>
              <line id="선_85476" data-name="선 85476" x1="0.043" y1="0.93" transform="translate(26.1 61.65)" fill="none" stroke="#222" stroke-linecap="round" stroke-linejoin="round" stroke-width="0.541"/>
              <line id="선_85477" data-name="선 85477" x2="1.341" y2="0.13" transform="translate(30.101 46.081)" fill="none" stroke="#222" stroke-linecap="round" stroke-linejoin="round" stroke-width="0.541"/>
              <path id="패스_620691" data-name="패스 620691" d="M123.2,282.608c-.022.605-.843,1.081-1.795,1.06s-1.73-.562-1.708-1.168" transform="translate(-93.814 -221.412)" fill="none" stroke="#222" stroke-linecap="round" stroke-linejoin="round" stroke-width="0.541"/>
              <path id="패스_620692" data-name="패스 620692" d="M59.72,278.8l-.8,2.076a3.979,3.979,0,0,1-1.557,1.9l-6.963,4.3" transform="translate(-39.501 -218.512)" fill="none" stroke="#222" stroke-linecap="round" stroke-linejoin="round" stroke-width="0.541"/>
              <path id="패스_620693" data-name="패스 620693" d="M50.644,259.6l-.065,2.552a4.433,4.433,0,0,1-1.9,3.568L44.2,268.66" transform="translate(-34.642 -203.464)" fill="none" stroke="#222" stroke-linecap="round" stroke-linejoin="round" stroke-width="0.541"/>
              <path id="패스_620694" data-name="패스 620694" d="M117.1,192.261l1.643-4.152,5.276-.173a1.233,1.233,0,0,0,1.168-1.341l-.13-5.947a.779.779,0,0,1,.108-.432,2.019,2.019,0,0,0,.108-2.422.735.735,0,0,0-1.016-.173l-.26.195c-.432.3-.843.605-.67,1.1a4.865,4.865,0,0,1,.238,2.227l-.649,3.135a1.038,1.038,0,0,1-1.189.887l-2.963-.432" transform="translate(-91.778 -139.109)" fill="none" stroke="#222" stroke-linecap="round" stroke-linejoin="round" stroke-width="0.541"/>
              <path id="패스_620695" data-name="패스 620695" d="M80.439,206.5s-1.016.951-.238,1.406,2.271-.757,2.271-.757l1.622.324a8.412,8.412,0,0,0-1.427,7.179l-1.643,4.065a1.708,1.708,0,0,1-.476.67,4.865,4.865,0,0,1-3.114,1.081c-2.444,0-4.433-1.665-4.433-3.719" transform="translate(-57.214 -161.846)" fill="none" stroke="#222" stroke-linecap="round" stroke-linejoin="round" stroke-width="0.541"/>
              <path id="패스_620696" data-name="패스 620696" d="M106.9,180.353l1.276-5.428a2.145,2.145,0,0,1,4.173.995l-.908,3.849a1.622,1.622,0,0,1-1.946,1.189l-.368-.086" transform="translate(-83.784 -135.808)" fill="#fff"/>
              <path id="패스_620697" data-name="패스 620697" d="M106.9,180.353l1.276-5.428a2.145,2.145,0,0,1,4.173.995l-.908,3.849a1.622,1.622,0,0,1-1.946,1.189l-.368-.086" transform="translate(-83.784 -135.808)" fill="none" stroke="#222" stroke-linecap="round" stroke-miterlimit="10" stroke-width="0.541"/>
              <path id="패스_620698" data-name="패스 620698" d="M115.2,169.606l-4.8-1.124.281-1.233a1.168,1.168,0,0,1,1.406-.865l3.676.865a1.168,1.168,0,0,1,.865,1.406v.087a1.168,1.168,0,0,1-1.406.865" transform="translate(-86.527 -130.38)" fill="#222"/>
              <path id="패스_620699" data-name="패스 620699" d="M111.085,179.884l-1.146-.281a2.076,2.076,0,0,1-1.535-2.487l.432-1.816,1.9.454a1.3,1.3,0,0,1,.973,1.557Z" transform="translate(-84.92 -137.393)" fill="#222"/>
              <path id="패스_620700" data-name="패스 620700" d="M114.364,169.293a1.795,1.795,0,1,1-.221-1.36,1.795,1.795,0,0,1,.221,1.36" transform="translate(-86.858 -130.953)" fill="#222"/>
              <path id="패스_620701" data-name="패스 620701" d="M119.744,188.766a.735.735,0,1,0-.324,1.406" transform="translate(-93.038 -147.897)" fill="#fff"/>
              <path id="패스_620702" data-name="패스 620702" d="M119.744,188.766a.735.735,0,1,0-.324,1.406" transform="translate(-93.038 -147.897)" fill="none" stroke="#222" stroke-linecap="round" stroke-miterlimit="10" stroke-width="0.541"/>
              <g id="그룹_300346" data-name="그룹 300346" transform="translate(56.05 36.718)" opacity="0.15">
                <g id="그룹_300345" data-name="그룹 300345" clip-path="url(#clip-path-22)">
                  <path id="패스_620703" data-name="패스 620703" d="M259.357,169.8a8.323,8.323,0,0,0,.324,4.476l4.39-2.746Z" transform="translate(-259.184 -169.8)" fill="#111"/>
                </g>
              </g>
              <path id="패스_620704" data-name="패스 620704" d="M265.386,150.1a1.47,1.47,0,0,1,.26.605,1.073,1.073,0,0,1-1.168,1.276,1.6,1.6,0,0,1-.778-.216,1.168,1.168,0,0,1-1.233,1.1,1.6,1.6,0,0,1-1.406-.865,1.3,1.3,0,0,1-.714.195,1.535,1.535,0,0,1-1.514-1.384,1.254,1.254,0,0,1,0-.238h-.022a1.535,1.535,0,0,1-1.47-1.406,1.254,1.254,0,0,1,.346-.995,1.557,1.557,0,0,1-.5-1.016,1.153,1.153,0,0,1,1.124-1.3,1.557,1.557,0,0,1-.173-.584A1.1,1.1,0,0,1,259.288,144a1.406,1.406,0,0,1,.735.281.995.995,0,0,1,1.1-.908,1.644,1.644,0,0,1,1.189.778,1.081,1.081,0,0,1,.454-.065,1.73,1.73,0,0,1,1.47,1.406h0a1.773,1.773,0,0,1,1.276,1.341,1.059,1.059,0,0,1-.151.822,1.73,1.73,0,0,1,.952,1.189,1.016,1.016,0,0,1-.995,1.254" transform="translate(-201.573 -112.368)" fill="#e4eff5"/>
              <path id="패스_620705" data-name="패스 620705" d="M265.386,150.1a1.47,1.47,0,0,1,.26.605,1.073,1.073,0,0,1-1.168,1.276,1.6,1.6,0,0,1-.778-.216,1.168,1.168,0,0,1-1.233,1.1,1.6,1.6,0,0,1-1.406-.865,1.3,1.3,0,0,1-.714.195,1.535,1.535,0,0,1-1.514-1.384,1.254,1.254,0,0,1,0-.238h-.022a1.535,1.535,0,0,1-1.47-1.406,1.254,1.254,0,0,1,.346-.995,1.557,1.557,0,0,1-.5-1.016,1.153,1.153,0,0,1,1.124-1.3,1.557,1.557,0,0,1-.173-.584A1.1,1.1,0,0,1,259.288,144a1.406,1.406,0,0,1,.735.281.995.995,0,0,1,1.1-.908,1.644,1.644,0,0,1,1.189.778,1.081,1.081,0,0,1,.454-.065,1.73,1.73,0,0,1,1.47,1.406h0a1.773,1.773,0,0,1,1.276,1.341,1.059,1.059,0,0,1-.151.822,1.73,1.73,0,0,1,.952,1.189,1.016,1.016,0,0,1-.93,1.254Z" transform="translate(-201.573 -112.368)" fill="none" stroke="#111" stroke-linecap="round" stroke-linejoin="round" stroke-width="0.432"/>
              <g id="그룹_300348" data-name="그룹 300348" transform="translate(60.742 35.291)" opacity="0.15">
                <g id="그룹_300347" data-name="그룹 300347" clip-path="url(#clip-path-23)">
                  <path id="패스_620706" data-name="패스 620706" d="M280.9,164.087l3.114,2.335.865-2.227-1.038-.995Z" transform="translate(-280.9 -163.2)" fill="#111"/>
                </g>
              </g>
              <line id="선_85478" data-name="선 85478" x1="0.022" y2="0.022" transform="translate(70.581 32.263)" fill="none" stroke="#222" stroke-linecap="round" stroke-miterlimit="10" stroke-width="0.541"/>
              <path id="패스_620707" data-name="패스 620707" d="M304.563,110.973l.281-.173,2.941,1.3a7.136,7.136,0,0,1,3.2,2.811l2.53,4.3.043.087a1.3,1.3,0,0,1,.087,1.038,4.363,4.363,0,0,1-4.238,2.617,3.609,3.609,0,0,1-2.854-1.168,6.291,6.291,0,0,1-1.319-2.53l-.086-.151h-.065l-.043-.086a1.763,1.763,0,0,0,.043-1.535,1.254,1.254,0,0,0-.865-.822,1.189,1.189,0,0,0-.995.173l.216-.173-.389-.108a1.189,1.189,0,0,0-1.189.3h-.043l-.087.108-.605.8a1.211,1.211,0,0,0-.259-1.47,1.167,1.167,0,0,0-1.622-.13H299.2l2.076-3.417Z" transform="translate(-234.501 -86.84)" fill="#fff"/>
              <line id="선_85479" data-name="선 85479" x1="1.427" y2="1.038" transform="translate(70.884 27.398)" fill="none" stroke="#222" stroke-linecap="round" stroke-miterlimit="10" stroke-width="0.541"/>
              <path id="패스_620708" data-name="패스 620708" d="M287.582,140.184a.649.649,0,0,1-.3.216l-6.617,2.984-2.335.843a1.039,1.039,0,0,1-.368.065,1.081,1.081,0,0,1-1.016-.714.693.693,0,0,1-.043-.238.714.714,0,0,1,.195-.5,1.535,1.535,0,0,1,1.276-.476l.3.043h.238a1.082,1.082,0,0,0,.519-.173l3.481-2.357,2.768-1.86h.043a1.189,1.189,0,0,1,.995-.173,1.254,1.254,0,0,1,.865.822,1.763,1.763,0,0,1-.043,1.535" transform="translate(-217.023 -108.007)" fill="#fff"/>
              <path id="패스_620709" data-name="패스 620709" d="M290.252,136.316l-.108.151-.627.8h0l-3.481,2.357a1.081,1.081,0,0,1-.519.173l-.216-.13,3.027-4.952h.043a1.166,1.166,0,0,1,1.622.13,1.211,1.211,0,0,1,.259,1.47" transform="translate(-223.606 -105.372)" fill="#fff"/>
              <line id="선_85480" data-name="선 85480" transform="translate(67.359 30.036)" fill="none" stroke="#222" stroke-linecap="round" stroke-miterlimit="10" stroke-width="2.5"/>
              <path id="패스_620710" data-name="패스 620710" d="M364.624,147.962l-.324-.562" transform="translate(-285.523 -115.526)" fill="none" stroke="#222" stroke-linecap="round" stroke-miterlimit="10" stroke-width="0.541"/>
              <path id="패스_620711" data-name="패스 620711" d="M345.9,177.2l.476.13a2.984,2.984,0,0,1,2.162,2.9l.151,8.174" transform="translate(-271.102 -138.882)" fill="none" stroke="#222" stroke-linecap="round" stroke-miterlimit="10" stroke-width="0.541"/>
              <path id="패스_620712" data-name="패스 620712" d="M304.376,120.3c.065,1.535.649,2.119,2.184,1.038l1.427.368-3.027,2.184h-1.276l-.951.5-2.033-1.211,1.492-2.53.281-.151Z" transform="translate(-235.676 -94.286)" fill="#dbdbdb"/>
              <path id="패스_620713" data-name="패스 620713" d="M326.672,143.576,330,142.3l1.081.432c.108.043,1.9,4.5,1.9,4.5s-2.811,1.06-4.671-.541-1.643-3.114-1.643-3.114" transform="translate(-256.026 -111.529)" fill="#dbdbdb"/>
              <path id="패스_620714" data-name="패스 620714" d="M325.4,110.8l2.941,1.3a7.136,7.136,0,0,1,3.2,2.811l2.53,4.3a1.319,1.319,0,0,1,.13,1.1,4.363,4.363,0,0,1-4.238,2.617c-2.444,0-3.46-1.535-4.173-3.7" transform="translate(-255.035 -86.84)" fill="none" stroke="#222" stroke-linecap="round" stroke-miterlimit="10" stroke-width="0.541"/>
              <path id="패스_620715" data-name="패스 620715" d="M326.4,143.92l2.66-1.319a1.6,1.6,0,0,1,1.535.065l.281.173" transform="translate(-255.819 -111.635)" fill="none" stroke="#222" stroke-linecap="round" stroke-miterlimit="10" stroke-width="0.541"/>
              <line id="선_85481" data-name="선 85481" y1="2.617" x2="3.611" transform="translate(68.7 27.398)" fill="none" stroke="#222" stroke-linecap="round" stroke-miterlimit="10" stroke-width="0.541"/>
              <path id="패스_620716" data-name="패스 620716" d="M280.819,143.306l6.617-2.984c.541-.173.627-.951.346-1.752a1.254,1.254,0,0,0-.865-.822,1.189,1.189,0,0,0-.995.173l-6.293,4.238a1.081,1.081,0,0,1-.714.173l-.346-.043a1.535,1.535,0,0,0-1.276.476.714.714,0,0,0-.151.735,1.081,1.081,0,0,0,1.362.649Z" transform="translate(-217.179 -107.929)" fill="none" stroke="#222" stroke-linecap="round" stroke-miterlimit="10" stroke-width="0.541"/>
              <path id="패스_620717" data-name="패스 620717" d="M316.1,116.549l.151.541a1.427,1.427,0,0,0,1.124.995.973.973,0,0,0,.714-.173h0a5.882,5.882,0,0,0,1.643-2.141l.3-.67" transform="translate(-247.746 -90.211)" fill="none" stroke="#222" stroke-linecap="round" stroke-miterlimit="10" stroke-width="0.541"/>
              <line id="선_85482" data-name="선 85482" x1="5.125" y2="8.39" transform="translate(61.672 25.884)" fill="none" stroke="#222" stroke-linecap="round" stroke-miterlimit="10" stroke-width="0.541"/>
              <path id="패스_620718" data-name="패스 620718" d="M299.5,134.716a1.255,1.255,0,0,1,1.752,1.752" transform="translate(-234.736 -105.372)" fill="none" stroke="#222" stroke-linecap="round" stroke-miterlimit="10" stroke-width="0.541"/>
              <path id="패스_620719" data-name="패스 620719" d="M304.9,139.361l1.341-1.73a1.189,1.189,0,0,1,1.319-.432l.389.108" transform="translate(-238.968 -107.487)" fill="none" stroke="#222" stroke-linecap="round" stroke-miterlimit="10" stroke-width="0.541"/>
              <path id="패스_620720" data-name="패스 620720" d="M311.5,133.649s.778-.714.649-1.449" transform="translate(-244.141 -103.613)" fill="none" stroke="#222" stroke-linecap="round" stroke-miterlimit="10" stroke-width="0.541"/>
              <path id="패스_620721" data-name="패스 620721" d="M310.062,93.215l-.8.519L307.1,90.4l.692-.454a1.3,1.3,0,0,1,1.795.389l.822,1.254a1.168,1.168,0,0,1-.346,1.6" transform="translate(-240.692 -70.336)" fill="#222"/>
              <path id="패스_620722" data-name="패스 620722" d="M293.7,91.594a1.773,1.773,0,1,1-2.443-.519,1.773,1.773,0,0,1,2.443.519" transform="translate(-227.635 -71.159)" fill="#222"/>
              <path id="패스_620723" data-name="패스 620723" d="M304.263,87.811a1.643,1.643,0,1,1-2.271-.476,1.643,1.643,0,0,1,2.271.476" transform="translate(-236.104 -68.241)" fill="#222"/>
              <path id="패스_620724" data-name="패스 620724" d="M305.954,97.686l-2.638-4.044a1.859,1.859,0,1,0-3.114,2.033l1.882,2.876a1.406,1.406,0,0,0,1.946.411l.973-.627" transform="translate(-235.049 -72.732)" fill="#fff"/>
              <path id="패스_620725" data-name="패스 620725" d="M305.954,97.686l-2.638-4.044a1.859,1.859,0,1,0-3.114,2.033l1.882,2.876a1.406,1.406,0,0,0,1.946.411l.973-.627" transform="translate(-235.049 -72.732)" fill="none" stroke="#222" stroke-linecap="round" stroke-miterlimit="10" stroke-width="0.541"/>
              <path id="패스_620726" data-name="패스 620726" d="M317.2,100.827a.633.633,0,0,1,.692,1.06" transform="translate(-248.608 -78.943)" fill="#fff"/>
              <path id="패스_620727" data-name="패스 620727" d="M317.2,100.827a.633.633,0,0,1,.692,1.06" transform="translate(-248.608 -78.943)" fill="none" stroke="#222" stroke-linecap="round" stroke-miterlimit="10" stroke-width="0.541"/>
              <rect id="사각형_235241" data-name="사각형 235241" width="3.006" height="0.711" transform="translate(64.412 23) rotate(-78.1)" fill="#222"/>
              <rect id="사각형_235242" data-name="사각형 235242" width="1.016" height="3.54" transform="translate(65.361 20.921) rotate(-78.1)" fill="#222"/>
              <path id="패스_620728" data-name="패스 620728" d="M308.537,113.8l-.908.584a.324.324,0,1,1-.346-.519l.908-.584a.324.324,0,1,1,.346.519" transform="translate(-240.659 -88.699)" fill="#222"/>
              <rect id="사각형_235243" data-name="사각형 235243" width="0.562" height="1.721" transform="matrix(0.838, -0.546, 0.546, 0.838, 67.479, 24.999)" fill="#222"/>
              <path id="패스_620729" data-name="패스 620729" d="M309.643,114.186l-.757.476a.627.627,0,0,1-.865-.216l-.951-1.535a.627.627,0,0,1,.216-.865l.757-.476a.627.627,0,0,1,.865.216l.951,1.535a.627.627,0,0,1-.216.865" transform="translate(-240.597 -87.372)" fill="#222"/>
              <line id="선_85483" data-name="선 85483" y1="0.346" x2="0.584" transform="translate(67.273 24.976)" fill="none" stroke="#fff" stroke-linecap="round" stroke-miterlimit="10" stroke-width="0.649"/>
            </g>
          </g>
        </g>
      </g>
    </g>
    <g id="사각형_421973" data-name="사각형 421973" fill="#fff" stroke="#707070" stroke-width="1" opacity="0">
      <rect width="87" height="88" stroke="none"/>
      <rect x="0.5" y="0.5" width="86" height="87" fill="none"/>
    </g>
  </g>
</svg>
