<svg xmlns="http://www.w3.org/2000/svg" width="28" height="28"><defs><clipPath id="a"><path fill="none" d="M0 0h28v28H0z"/></clipPath><style>.e,.g,.h{fill:none}.e{stroke:#2c9fac;stroke-linejoin:round}.g,.h{stroke-width:1.4px}.e,.g{stroke-linecap:round}.e{stroke-width:1.5px}.g,.h{stroke:#196e72}</style></defs><g clip-path="url(#a)"><path d="M15.4 5.9A11 11 0 114.5 17v-.2A11 11 0 0115.4 5.9" fill="#4cccd9"/><path d="M3.2 10.3a10.7 10.7 0 012-2.9" stroke-width="1.4" stroke-linecap="square" stroke="#2c9fac" stroke-linejoin="round" fill="none"/><path class="e" d="M5.1.9s0 4.3 2.6 4.3h.2a11 11 0 11-4.8 5M8.7 1.8s-.7 2.4.8 2.7"/><path d="M13.5 16.1a2.1 2.1 0 11-4.2 0" stroke-miterlimit="10" stroke="#196e72" stroke-width="1.4" stroke-linecap="square" fill="none"/><path class="g" d="M14.7 12.2v.4"/><path class="h" d="M14.7 10.3v1.9"/><path class="g" d="M8.2 12v.6"/><path class="h" d="M8.2 10.3V12"/></g></svg>