<svg xmlns="http://www.w3.org/2000/svg" xmlns:xlink="http://www.w3.org/1999/xlink" width="20" height="20" viewBox="0 0 20 20"><defs><style>.a{fill:none;}.b{fill:#666;}.c{clip-path:url(#a);}.d{opacity:0;}.e{fill:#111;}</style><clipPath id="a"><rect class="a" width="20" height="20"/></clipPath></defs><g transform="translate(10 10)"><g transform="translate(-10 -10)"><path class="b" d="M10,18.8Z"/><g class="c"><path class="b" d="M10,19.5a.7.7,0,0,1-.7-.7V10a.75.75,0,0,1,1.5,0v8.8a.7.7,0,0,1-.7.7"/><line class="b" y2="8.8" transform="translate(10 1.2)"/><rect class="b" width="1.5" height="10.23" transform="translate(9.3 0.5)"/><line class="b" x2="8.8" transform="translate(10 10)"/><path class="b" d="M18.8,10.7H10a.75.75,0,1,1,0-1.5h8.8a.75.75,0,1,1,0,1.5"/><line class="b" x2="8.8" transform="translate(1.2 10)"/><rect class="b" width="10.2" height="1.46" transform="translate(0.5 9.3)"/></g></g></g><g class="d" transform="translate(10 10)"><g transform="translate(-10 -10)"><path class="e" d="M10,18.8Z"/><g class="c"><path class="e" d="M10,19.5a.7.7,0,0,1-.7-.7V10a.75.75,0,0,1,1.5,0v8.8a.7.7,0,0,1-.7.7"/><line class="e" y2="8.8" transform="translate(10 1.2)"/><rect class="e" width="1.5" height="10.23" transform="translate(9.3 0.5)"/><line class="e" x2="8.8" transform="translate(10 10)"/><path class="e" d="M18.8,10.7H10a.75.75,0,1,1,0-1.5h8.8a.75.75,0,1,1,0,1.5"/><line class="e" x2="8.8" transform="translate(1.2 10)"/><rect class="e" width="10.2" height="1.46" transform="translate(0.5 9.3)"/></g></g></g></svg>