<svg xmlns="http://www.w3.org/2000/svg" xmlns:xlink="http://www.w3.org/1999/xlink" width="28" height="28" viewBox="0 0 28 28"><defs><style>.a,.d,.f,.g{fill:none;}.b{clip-path:url(#a);}.c{fill:#fddb2b;}.d{stroke:#fccb3a;}.e{fill:#fff;}.f,.g{stroke:#111;stroke-linejoin:round;}.f{stroke-linecap:square;}.g{stroke-linecap:round;}.h{fill:#111;}</style><clipPath id="a"><rect class="a" width="28" height="28"/></clipPath></defs><g transform="translate(14 14)"><g transform="translate(-14 -14)"><g class="b"><path class="c" d="M14,0A14,14,0,1,1,0,14,14,14,0,0,1,14,0"/><circle class="d" cx="13.5" cy="13.5" r="13.5" transform="translate(0.5 0.5)"/></g><g class="b"><path class="e" d="M19.1,13.6H11.4a2.1,2.1,0,0,0-2.1,2.1v3.1a1,1,0,0,0,1,1h1.5a1,1,0,0,0,1-1h4.7a1,1,0,0,0,1,1H20a1,1,0,0,0,1-1V15.7a2.1,2.1,0,0,0-2.1-2.1"/><line class="f" x1="3.7" y2="1.8" transform="translate(8.4 8.6)"/><path class="g" d="M19.6,10.5,14,7.6l-1.9,1"/><path class="h" d="M18.1,13.6H9.9a2.1,2.1,0,0,0-2.1,2.1v3.1a1,1,0,0,0,1,1h1.5a1,1,0,0,0,1-1h5.2a1,1,0,0,0,1,1H19a1,1,0,0,0,1-1V15.7a2.1,2.1,0,0,0-2.1-2.1m1,5.2H17.6v-1H10.4v1H8.8V15.7a1,1,0,0,1,1-1H18a1,1,0,0,1,1,1Zm-9-2.1h1.5v-1H9.9Zm6.7,0h1.5v-1H16.6Z"/><path class="g" d="M10.1,13.8l.5-1.2a1.9,1.9,0,0,1,1.7-1.2h3.4a1.9,1.9,0,0,1,1.7,1.2l.5,1.2"/></g></g></g></svg>