<svg xmlns="http://www.w3.org/2000/svg" width="16" height="16" viewBox="0 0 16 16">
  <g id="그룹_83042" data-name="그룹 83042" transform="translate(-2520 -4882)">
    <rect id="사각형_81255" data-name="사각형 81255" width="16" height="16" transform="translate(2520 4882)" fill="#fff" opacity="0"/>
    <g id="그룹_82655" data-name="그룹 82655" transform="translate(2491.631 3712.833)">
      <path id="패스_267763" data-name="패스 267763" d="M10.335-3.9a.84.84,0,0,1-.253.592.792.792,0,0,1-.592.266A.8.8,0,0,1,8.9-3.309a.83.83,0,0,1-.26-.592.808.808,0,0,1,.26-.585.808.808,0,0,1,.585-.26.808.808,0,0,1,.585.26A.808.808,0,0,1,10.335-3.9ZM6.695-7.488a.83.83,0,0,1-.26.591.8.8,0,0,1-.585.266A.8.8,0,0,1,5.265-6.9a.83.83,0,0,1-.26-.591.818.818,0,0,1,.253-.585.8.8,0,0,1,.591-.26.808.808,0,0,1,.585.26A.808.808,0,0,1,6.695-7.488ZM10.088.13a.426.426,0,0,1-.13.312.426.426,0,0,1-.312.13A.692.692,0,0,1,9.139.325L5.85-3.172,2.561.325a.692.692,0,0,1-.507.247.426.426,0,0,1-.312-.13A.426.426,0,0,1,1.612.13a.8.8,0,0,1,.273-.507L5.174-3.9,1.664-7.631l.715-.7L5.85-4.615,9.334-8.333l.7.7L6.526-3.9,9.815-.377A.8.8,0,0,1,10.088.13ZM6.695-.325a.84.84,0,0,1-.253.592.779.779,0,0,1-.579.266.813.813,0,0,1-.6-.266.83.83,0,0,1-.26-.592.808.808,0,0,1,.26-.585.808.808,0,0,1,.585-.26.808.808,0,0,1,.585.26A.808.808,0,0,1,6.695-.325ZM3.055-3.9a.84.84,0,0,1-.254.592.779.779,0,0,1-.578.266.813.813,0,0,1-.6-.266.83.83,0,0,1-.26-.592.808.808,0,0,1,.26-.585.808.808,0,0,1,.585-.26.808.808,0,0,1,.585.26A.808.808,0,0,1,3.055-3.9Z" transform="translate(30.504 1181)" fill="#ea002c"/>
    </g>
  </g>
</svg>
