<svg xmlns="http://www.w3.org/2000/svg" xmlns:xlink="http://www.w3.org/1999/xlink" width="70.5" height="58.137" viewBox="0 0 70.5 58.137">
  <defs>
    <style>
      .cls-1, .cls-11, .cls-12, .cls-13, .cls-14, .cls-15, .cls-16, .cls-17, .cls-18, .cls-20, .cls-21, .cls-27, .cls-29, .cls-30, .cls-32, .cls-34, .cls-35, .cls-37, .cls-39, .cls-4, .cls-40, .cls-41, .cls-42, .cls-43, .cls-44, .cls-48, .cls-49, .cls-51, .cls-52, .cls-53, .cls-54, .cls-55, .cls-56, .cls-57, .cls-58, .cls-63, .cls-64, .cls-65, .cls-66, .cls-67, .cls-68, .cls-9 {
        fill: none;
      }

      .cls-2 {
        clip-path: url(#clip-path);
      }

      .cls-3 {
        fill: #fff;
      }

      .cls-11, .cls-12, .cls-13, .cls-14, .cls-15, .cls-16, .cls-17, .cls-18, .cls-20, .cls-21, .cls-27, .cls-29, .cls-30, .cls-32, .cls-34, .cls-35, .cls-37, .cls-39, .cls-4, .cls-40, .cls-41, .cls-42, .cls-43, .cls-44, .cls-48, .cls-49, .cls-51, .cls-52, .cls-53, .cls-54, .cls-55, .cls-56, .cls-57, .cls-58, .cls-63, .cls-64, .cls-65, .cls-66, .cls-67, .cls-68, .cls-9 {
        stroke: #222;
      }

      .cls-13, .cls-14, .cls-15, .cls-16, .cls-17, .cls-20, .cls-21, .cls-27, .cls-30, .cls-35, .cls-39, .cls-4, .cls-40, .cls-41, .cls-42, .cls-43, .cls-44, .cls-48, .cls-49, .cls-51, .cls-52, .cls-54, .cls-55, .cls-56, .cls-57, .cls-58, .cls-64, .cls-65, .cls-66, .cls-67, .cls-68, .cls-9 {
        stroke-linejoin: round;
      }

      .cls-4 {
        stroke-width: 0.785px;
      }

      .cls-5 {
        opacity: 0.15;
      }

      .cls-6 {
        clip-path: url(#clip-path-3);
      }

      .cls-7 {
        fill: #222;
      }

      .cls-8 {
        fill: #f4f4f4;
      }

      .cls-9 {
        stroke-width: 0.392px;
      }

      .cls-10 {
        clip-path: url(#clip-path-4);
      }

      .cls-11, .cls-12, .cls-18, .cls-29, .cls-32, .cls-34, .cls-37, .cls-53, .cls-63 {
        stroke-miterlimit: 10;
      }

      .cls-11 {
        stroke-width: 0.098px;
      }

      .cls-12 {
        stroke-width: 0.098px;
      }

      .cls-13 {
        stroke-width: 0.392px;
      }

      .cls-14 {
        stroke-width: 0.392px;
      }

      .cls-15 {
        stroke-width: 0.196px;
      }

      .cls-16 {
        stroke-width: 0.392px;
      }

      .cls-17 {
        stroke-width: 4px;
      }

      .cls-18 {
        stroke-width: 0.098px;
      }

      .cls-19 {
        fill: #f2f2f2;
      }

      .cls-20 {
        stroke-width: 0.392px;
      }

      .cls-21 {
        stroke-width: 0.196px;
      }

      .cls-22 {
        fill: #e2e2e2;
      }

      .cls-23 {
        fill: #3673ee;
      }

      .cls-24 {
        opacity: 0.2;
      }

      .cls-25 {
        clip-path: url(#clip-path-5);
      }

      .cls-26 {
        fill: #e3e3e3;
      }

      .cls-27, .cls-30, .cls-35, .cls-39, .cls-40, .cls-41, .cls-42, .cls-43, .cls-44 {
        stroke-linecap: round;
      }

      .cls-27, .cls-48 {
        stroke-width: 0.294px;
      }

      .cls-28 {
        fill: #686868;
      }

      .cls-29 {
        stroke-width: 0.294px;
      }

      .cls-30 {
        stroke-width: 0.294px;
      }

      .cls-31 {
        fill: #474747;
      }

      .cls-32 {
        stroke-width: 0.294px;
      }

      .cls-33 {
        fill: #616161;
      }

      .cls-34 {
        stroke-width: 0.294px;
      }

      .cls-35 {
        stroke-width: 0.294px;
      }

      .cls-36 {
        fill: #3a3a3a;
      }

      .cls-37 {
        stroke-width: 0.294px;
      }

      .cls-38 {
        fill: #acacad;
      }

      .cls-39 {
        stroke-width: 0.294px;
      }

      .cls-40 {
        stroke-width: 0.294px;
      }

      .cls-41 {
        stroke-width: 0.294px;
      }

      .cls-42 {
        stroke-width: 0.294px;
      }

      .cls-43, .cls-57 {
        stroke-width: 0.294px;
      }

      .cls-44 {
        stroke-width: 0.294px;
      }

      .cls-45 {
        clip-path: url(#clip-path-6);
      }

      .cls-46 {
        fill: #f8483b;
      }

      .cls-47 {
        clip-path: url(#clip-path-7);
      }

      .cls-49 {
        stroke-width: 0.294px;
      }

      .cls-50 {
        fill: #bcbcbc;
      }

      .cls-51 {
        stroke-width: 0.245px;
      }

      .cls-52 {
        stroke-width: 0.245px;
      }

      .cls-53 {
        stroke-width: 0.294px;
      }

      .cls-54 {
        stroke-width: 0.294px;
      }

      .cls-55 {
        stroke-width: 0.294px;
      }

      .cls-56 {
        stroke-width: 0.294px;
      }

      .cls-58 {
        stroke-width: 0.245px;
      }

      .cls-59 {
        opacity: 0.1;
      }

      .cls-60 {
        clip-path: url(#clip-path-8);
      }

      .cls-61 {
        fill: #000001;
      }

      .cls-62 {
        clip-path: url(#clip-path-9);
      }

      .cls-63 {
        stroke-width: 0.098px;
      }

      .cls-64 {
        stroke-width: 0.785px;
      }

      .cls-65 {
        stroke-width: 0.392px;
      }

      .cls-66 {
        stroke-width: 0.245px;
      }

      .cls-67 {
        stroke-width: 0.392px;
      }

      .cls-68 {
        stroke-width: 0.392px;
      }
    </style>
    <clipPath id="clip-path">
      <rect id="사각형_215523" data-name="사각형 215523" class="cls-1" width="70.5" height="58.137"/>
    </clipPath>
    <clipPath id="clip-path-3">
      <rect id="사각형_215515" data-name="사각형 215515" class="cls-1" width="50.908" height="29.14"/>
    </clipPath>
    <clipPath id="clip-path-4">
      <rect id="사각형_215516" data-name="사각형 215516" class="cls-1" width="13.284" height="7.246"/>
    </clipPath>
    <clipPath id="clip-path-5">
      <rect id="사각형_215517" data-name="사각형 215517" class="cls-1" width="19.209" height="8.786"/>
    </clipPath>
    <clipPath id="clip-path-6">
      <rect id="사각형_215518" data-name="사각형 215518" class="cls-1" width="8.015" height="8.811"/>
    </clipPath>
    <clipPath id="clip-path-7">
      <rect id="사각형_215519" data-name="사각형 215519" class="cls-1" width="24.596" height="14.421"/>
    </clipPath>
    <clipPath id="clip-path-8">
      <rect id="사각형_215520" data-name="사각형 215520" class="cls-1" width="4.994" height="21.576"/>
    </clipPath>
    <clipPath id="clip-path-9">
      <rect id="사각형_215521" data-name="사각형 215521" class="cls-1" width="8.712" height="5.074"/>
    </clipPath>
  </defs>
  <g id="그룹_271977" data-name="그룹 271977" class="cls-2">
    <g id="그룹_271976" data-name="그룹 271976" class="cls-2">
      <path id="패스_566921" data-name="패스 566921" class="cls-3" d="M68.442,137.378l-7.231,6.387-2.845,2.512h0l-.893.52.893.51h0l-19.6,11.469L7.9,140.95l.893-.52-.893-.52L27.482,128.47h.01l10.056-8.9,5.7-.294a2.276,2.276,0,0,1,1.246.3l29.56,17.031a.245.245,0,0,1-.108.461Z" transform="translate(-7.125 -107.573)"/>
      <path id="패스_566922" data-name="패스 566922" class="cls-4" d="M68.442,137.378l-7.231,6.387-2.845,2.512h0l-.893.52.893.51h0l-19.6,11.469L7.9,140.95l.893-.52-.893-.52L27.482,128.47h.01l10.056-8.9,5.7-.294a2.276,2.276,0,0,1,1.246.3l29.56,17.031a.245.245,0,0,1-.108.461Z" transform="translate(-7.125 -107.573)"/>
      <g id="그룹_271963" data-name="그룹 271963" class="cls-5" transform="translate(0.54 23.065)">
        <g id="그룹_271962" data-name="그룹 271962" class="cls-6">
          <path id="패스_566923" data-name="패스 566923" class="cls-7" d="M56.374,252.967,37.282,264.112a1.55,1.55,0,0,1-1.55,0L5.583,246.718a.235.235,0,0,1,0-.412L25.077,235.2h.02Z" transform="translate(-5.466 -235.19)"/>
        </g>
      </g>
      <path id="패스_566924" data-name="패스 566924" class="cls-8" d="M58.366,241.326l-19.6,11.449L7.9,234.949,27.482,223.51h0l.02-.01,30.865,17.826Z" transform="translate(-7.125 -201.573)"/>
      <path id="패스_566925" data-name="패스 566925" class="cls-9" d="M58.366,241.326l-19.6,11.449L7.9,234.949,27.482,223.51h0l.02-.01,30.865,17.826Z" transform="translate(-7.125 -201.573)"/>
      <g id="그룹_271965" data-name="그룹 271965" class="cls-5" transform="translate(53.998 29.442)">
        <g id="그룹_271964" data-name="그룹 271964" class="cls-10">
          <path id="패스_566926" data-name="패스 566926" d="M564.388,300.907l-12.332,6.9-.755-.441,7.231-6.387h0l5.788-.3a.128.128,0,0,1,.069.245" transform="translate(-551.212 -300.613)"/>
          <path id="패스_566927" data-name="패스 566927" class="cls-11" d="M564.388,300.935l-12.332,6.9-.755-.442L558.531,301h0l5.788-.3a.128.128,0,0,1,.069.235Z" transform="translate(-551.212 -300.641)"/>
        </g>
      </g>
      <path id="패스_566928" data-name="패스 566928" class="cls-3" d="M525.9,369.341l-3.6,2.08h0l2.845-2.521.755.441Z" transform="translate(-471.058 -332.708)"/>
      <path id="패스_566929" data-name="패스 566929" class="cls-12" d="M525.9,369.341l-3.6,2.08h0l2.845-2.521.755.441Z" transform="translate(-471.058 -332.708)"/>
      <path id="패스_566930" data-name="패스 566930" class="cls-3" d="M58.366,230.726l-19.6,11.449L7.9,224.349,27.482,212.91h0l.02-.01,30.865,17.826Z" transform="translate(-7.125 -192.013)"/>
      <path id="패스_566931" data-name="패스 566931" class="cls-13" d="M58.366,230.726l-19.6,11.449L7.9,224.349,27.482,212.91h0l.02-.01,30.865,17.826Z" transform="translate(-7.125 -192.013)"/>
      <path id="패스_566932" data-name="패스 566932" class="cls-3" d="M207.6,131.1l10.066-8.9,30.874,17.807.01.01-7.23,6.387-2.845,2.512" transform="translate(-187.233 -110.211)"/>
      <path id="패스_566933" data-name="패스 566933" class="cls-14" d="M207.6,131.1l10.066-8.9,30.874,17.807.01.01-7.23,6.387-2.845,2.512" transform="translate(-187.233 -110.211)"/>
      <path id="패스_566934" data-name="패스 566934" class="cls-8" d="M238.474,230.716,207.61,212.9h-.01" transform="translate(-187.233 -192.013)"/>
      <path id="패스_566935" data-name="패스 566935" class="cls-15" d="M238.474,230.716,207.61,212.9h-.01" transform="translate(-187.233 -192.013)"/>
      <line id="선_78305" data-name="선 78305" class="cls-16" x1="0.01" y2="0.01" transform="translate(20.357 20.887)"/>
      <line id="선_78306" data-name="선 78306" class="cls-17" transform="translate(20.367 20.887)"/>
      <line id="선_78307" data-name="선 78307" class="cls-18" x1="3.395" y2="1.962" transform="translate(51.448 36.633)"/>
      <path id="패스_566936" data-name="패스 566936" class="cls-19" d="M310.1,119.561l5.71-.285a2.267,2.267,0,0,1,1.246.3l29.55,17.031a.245.245,0,0,1-.108.461l-5.514.294" transform="translate(-279.677 -107.572)"/>
      <path id="패스_566937" data-name="패스 566937" class="cls-20" d="M310.1,119.561l5.71-.285a2.267,2.267,0,0,1,1.246.3l29.55,17.031a.245.245,0,0,1-.108.461l-5.514.294" transform="translate(-279.677 -107.572)"/>
      <line id="선_78308" data-name="선 78308" class="cls-8" x1="30.884" y1="17.806" transform="translate(30.423 11.989)"/>
      <line id="선_78309" data-name="선 78309" class="cls-21" x1="30.884" y1="17.806" transform="translate(30.423 11.989)"/>
      <path id="패스_566938" data-name="패스 566938" class="cls-22" d="M122.175,352.543l-.441.255a.961.961,0,0,1-.961,0l-11.174-6.5a.275.275,0,0,1,0-.481l.785-.451a.275.275,0,0,1,.275,0l11.518,6.7a.275.275,0,0,1,0,.481" transform="translate(-98.717 -311.446)"/>
      <path id="패스_566939" data-name="패스 566939" class="cls-22" d="M280.626,174.44l9.752-8.624-1.217-.716-9.762,8.633Z" transform="translate(-251.989 -148.902)"/>
      <path id="패스_566940" data-name="패스 566940" class="cls-22" d="M389.885,159.485l-5.661.294-1.324-.765,5.641-.314Z" transform="translate(-345.335 -143.13)"/>
      <path id="패스_566941" data-name="패스 566941" class="cls-22" d="M309.187,156.559c2.139-8.869-8.526-14.226-8.526-14.226l-.216-.118a.265.265,0,0,0-.314.049l-.4.4a.392.392,0,0,0,.078.618c2.08,1.226,10.654,6.8,7.662,13.774" transform="translate(-270.219 -128.235)"/>
      <path id="패스_566942" data-name="패스 566942" class="cls-22" d="M114.885,264.938l-1.285-.746L129.582,255l1.285.736Z" transform="translate(-102.455 -229.983)"/>
      <path id="패스_566943" data-name="패스 566943" class="cls-7" d="M608.2,296.6l1.069,1.452.657-.755Z" transform="translate(-548.531 -267.501)"/>
      <path id="패스_566944" data-name="패스 566944" class="cls-23" d="M169.078,248.923l-.912-.078.118-.971.854.078Zm-1.619-.186a9.272,9.272,0,0,1-.912-.216l.275-.942a7.733,7.733,0,0,0,.814.186Zm-1.609-.451a4.826,4.826,0,0,1-.863-.461l.549-.814a3.847,3.847,0,0,0,.687.363Zm-1.472-.981a2.845,2.845,0,0,1-.559-.893l.912-.353a1.864,1.864,0,0,0,.373.589Zm-.746-1.7c-.01-.108-.01-.206-.01-.314a4.061,4.061,0,0,1,.059-.7l.971.167a3.079,3.079,0,0,0-.049.52,1.737,1.737,0,0,0,.01.226Zm1.167-1.442-.932-.3a7.591,7.591,0,0,1,.353-.873l.893.412a6.618,6.618,0,0,0-.3.765m.6-1.344-.854-.481c.108-.2.226-.392.353-.6l.108-.177.834.51-.118.186c-.118.186-.226.373-.324.549m.8-1.354-.863-.471c.137-.255.265-.51.383-.755l.893.412c-.128.265-.265.54-.412.814m.7-1.472-.912-.363c.108-.265.2-.53.275-.795l.942.275c-.088.285-.186.579-.3.873m.481-1.58-.961-.2a6.936,6.936,0,0,0,.118-.814l.981.088a7.916,7.916,0,0,1-.137.932m-.824-1.629a5.561,5.561,0,0,0-.069-.8l.971-.157a6.553,6.553,0,0,1,.088.952Zm-.216-1.413a5.338,5.338,0,0,0-.285-.755l.893-.412a6.346,6.346,0,0,1,.334.893Zm-.579-1.315a6.21,6.21,0,0,0-.471-.667l.765-.618a7.191,7.191,0,0,1,.549.775Zm-.9-1.158a7.889,7.889,0,0,0-.608-.559l.628-.755a8.841,8.841,0,0,1,.687.638Zm-1.128-.961c-.226-.157-.461-.314-.706-.461l.5-.844c.265.157.53.324.775.5Zm-1.285-.775a7.322,7.322,0,0,0-.755-.334l.324-.922a8.142,8.142,0,0,1,.873.383Z" transform="translate(-145.836 -207.345)"/>
      <g id="그룹_271967" data-name="그룹 271967" class="cls-24" transform="translate(25.135 39.949)">
        <g id="그룹_271966" data-name="그룹 271966" class="cls-25">
          <path id="패스_566945" data-name="패스 566945" d="M256.2,409.466a1.492,1.492,0,0,0,.677,1.266c.716.441,9,5.151,9,5.151a2.03,2.03,0,0,0,2.041-.441l7.5-4.552L264.791,407.2Z" transform="translate(-256.197 -407.2)"/>
        </g>
      </g>
      <path id="패스_566946" data-name="패스 566946" class="cls-26" d="M271.287,377.816l-7.8-4.513a5.225,5.225,0,0,1-2.188-4.17c0-1.609.981-2.345,2.188-1.648l7.8,4.513a5.225,5.225,0,0,1,2.188,4.17c0,1.609-.981,2.345-2.188,1.648" transform="translate(-235.665 -331.195)"/>
      <path id="패스_566947" data-name="패스 566947" class="cls-27" d="M271.287,377.816l-7.8-4.513a5.225,5.225,0,0,1-2.188-4.17c0-1.609.981-2.345,2.188-1.648l7.8,4.513a5.225,5.225,0,0,1,2.188,4.17C273.475,377.776,272.484,378.512,271.287,377.816Z" transform="translate(-235.665 -331.195)"/>
      <path id="패스_566948" data-name="패스 566948" class="cls-28" d="M340.986,337.623h0l-.157.088-.108-.186a2.747,2.747,0,0,0,.2-1.089v-.01a5.234,5.234,0,0,0-2.207-4.179l-7.858-4.542a1.386,1.386,0,0,0-1.452-.108h0l.922-.53h0a1.1,1.1,0,0,1,.589-.167,1.746,1.746,0,0,1,.863.265l7.8,4.513a5.225,5.225,0,0,1,2.188,4.17,1.9,1.9,0,0,1-.785,1.786" transform="translate(-297.083 -294.828)"/>
      <path id="패스_566949" data-name="패스 566949" class="cls-29" d="M340.986,337.623h0l-.157.088-.108-.186a2.747,2.747,0,0,0,.2-1.089v-.01a5.234,5.234,0,0,0-2.207-4.179l-7.858-4.542a1.386,1.386,0,0,0-1.452-.108h0l.922-.53h0a1.1,1.1,0,0,1,.589-.167,1.746,1.746,0,0,1,.863.265l7.8,4.513a5.225,5.225,0,0,1,2.188,4.17A1.9,1.9,0,0,1,340.986,337.623Z" transform="translate(-297.083 -294.828)"/>
      <path id="패스_566950" data-name="패스 566950" class="cls-3" d="M277.344,341.3a2.756,2.756,0,0,1-.2,1.089l.108.186-7.643,4.405L258.9,336.436l6.926-3.993h0a1.386,1.386,0,0,1,1.452.108l7.858,4.542a5.261,5.261,0,0,1,2.207,4.179Z" transform="translate(-233.5 -299.685)"/>
      <path id="패스_566951" data-name="패스 566951" class="cls-27" d="M277.344,341.3a2.756,2.756,0,0,1-.2,1.089l.108.186-7.643,4.405L258.9,336.436l6.926-3.993h0a1.386,1.386,0,0,1,1.452.108l7.858,4.542a5.261,5.261,0,0,1,2.207,4.179Z" transform="translate(-233.5 -299.685)"/>
      <line id="선_78310" data-name="선 78310" class="cls-30" x1="0.02" y2="0.01" transform="translate(33.239 32.218)"/>
      <line id="선_78311" data-name="선 78311" class="cls-30" x1="0.069" y2="0.029" transform="translate(43.903 42.765)"/>
      <path id="패스_566952" data-name="패스 566952" class="cls-31" d="M261.487,383.716l-7.8-4.513a5.225,5.225,0,0,1-2.188-4.17c0-1.609.981-2.345,2.188-1.648l7.8,4.513a5.225,5.225,0,0,1,2.188,4.17c0,1.609-.981,2.345-2.188,1.648" transform="translate(-226.826 -336.516)"/>
      <path id="패스_566953" data-name="패스 566953" class="cls-32" d="M261.487,383.716l-7.8-4.513a5.225,5.225,0,0,1-2.188-4.17c0-1.609.981-2.345,2.188-1.648l7.8,4.513a5.225,5.225,0,0,1,2.188,4.17C263.675,383.676,262.694,384.412,261.487,383.716Z" transform="translate(-226.826 -336.516)"/>
      <path id="패스_566954" data-name="패스 566954" class="cls-33" d="M256.485,386.33l-7.878-4.552a5.29,5.29,0,0,1-2.207-4.209c0-1.619.991-2.364,2.207-1.668l7.878,4.552a5.29,5.29,0,0,1,2.207,4.209c0,1.619-.991,2.364-2.207,1.668" transform="translate(-222.226 -338.787)"/>
      <path id="패스_566955" data-name="패스 566955" class="cls-34" d="M256.485,386.33l-7.878-4.552a5.29,5.29,0,0,1-2.207-4.209c0-1.619.991-2.364,2.207-1.668l7.878,4.552a5.29,5.29,0,0,1,2.207,4.209C258.693,386.281,257.7,387.026,256.485,386.33Z" transform="translate(-222.226 -338.787)"/>
      <path id="패스_566956" data-name="패스 566956" class="cls-35" d="M328.869,334l-.069.049" transform="translate(-296.542 -301.232)"/>
      <path id="패스_566957" data-name="패스 566957" class="cls-36" d="M271.347,401.022l-5.729-3.316A3.863,3.863,0,0,1,264,394.664c-.01-1.167.706-1.707,1.589-1.187l5.729,3.306a3.863,3.863,0,0,1,1.619,3.041c.01,1.167-.706,1.707-1.589,1.187" transform="translate(-238.099 -354.695)"/>
      <path id="패스_566958" data-name="패스 566958" class="cls-37" d="M271.347,401.022l-5.729-3.316A3.863,3.863,0,0,1,264,394.664c-.01-1.167.706-1.707,1.589-1.187l5.729,3.306a3.863,3.863,0,0,1,1.619,3.041C272.946,400.992,272.23,401.532,271.347,401.022Z" transform="translate(-238.099 -354.695)"/>
      <path id="패스_566959" data-name="패스 566959" class="cls-38" d="M272.035,407.488h0l-.667.5-1.167-1.9.549-.412.1-.069h.029a.58.58,0,0,1,.52.078,1.766,1.766,0,0,1,.795,1.364.618.618,0,0,1-.157.451" transform="translate(-243.691 -365.783)"/>
      <path id="패스_566960" data-name="패스 566960" class="cls-39" d="M272.035,407.488h0l-.667.5-1.167-1.9.549-.412.1-.069h.029a.58.58,0,0,1,.52.078,1.766,1.766,0,0,1,.795,1.364A.618.618,0,0,1,272.035,407.488Z" transform="translate(-243.691 -365.783)"/>
      <path id="패스_566961" data-name="패스 566961" class="cls-26" d="M276,405.9l-.1.069.1-.069" transform="translate(-248.832 -366.078)"/>
      <path id="패스_566962" data-name="패스 566962" class="cls-40" d="M276,405.9l-.1.069Z" transform="translate(-248.832 -366.078)"/>
      <path id="패스_566963" data-name="패스 566963" class="cls-3" d="M269.989,411.456c0,.5-.353.706-.795.451a1.739,1.739,0,0,1-.795-1.364c0-.5.353-.706.795-.451a1.739,1.739,0,0,1,.795,1.364" transform="translate(-242.068 -369.76)"/>
      <path id="패스_566964" data-name="패스 566964" class="cls-41" d="M269.989,411.456c0,.5-.353.706-.795.451a1.739,1.739,0,0,1-.795-1.364c0-.5.353-.706.795-.451A1.739,1.739,0,0,1,269.989,411.456Z" transform="translate(-242.068 -369.76)"/>
      <path id="패스_566965" data-name="패스 566965" class="cls-26" d="M276.829,405.62H276.8l.02-.02Z" transform="translate(-249.644 -365.808)"/>
      <path id="패스_566966" data-name="패스 566966" class="cls-42" d="M276.829,405.62H276.8l.02-.02Z" transform="translate(-249.644 -365.808)"/>
      <path id="패스_566967" data-name="패스 566967" class="cls-38" d="M328.235,440.188h0l-.667.5-1.167-1.9.549-.412.1-.069h.029a.58.58,0,0,1,.52.078,1.766,1.766,0,0,1,.795,1.364.618.618,0,0,1-.157.451" transform="translate(-294.378 -395.275)"/>
      <path id="패스_566968" data-name="패스 566968" class="cls-43" d="M328.235,440.188h0l-.667.5-1.167-1.9.549-.412.1-.069h.029a.58.58,0,0,1,.52.078,1.766,1.766,0,0,1,.795,1.364A.618.618,0,0,1,328.235,440.188Z" transform="translate(-294.378 -395.275)"/>
      <path id="패스_566969" data-name="패스 566969" class="cls-3" d="M326.189,444.356c0,.5-.353.706-.795.451a1.739,1.739,0,0,1-.795-1.364c0-.5.353-.706.795-.451a1.739,1.739,0,0,1,.795,1.364" transform="translate(-292.754 -399.432)"/>
      <path id="패스_566970" data-name="패스 566970" class="cls-44" d="M326.189,444.356c0,.5-.353.706-.795.451a1.739,1.739,0,0,1-.795-1.364c0-.5.353-.706.795-.451A1.739,1.739,0,0,1,326.189,444.356Z" transform="translate(-292.754 -399.432)"/>
      <g id="그룹_271969" data-name="그룹 271969" class="cls-5" transform="translate(35.947 38.262)">
        <g id="그룹_271968" data-name="그룹 271968" class="cls-45">
          <path id="패스_566971" data-name="패스 566971" class="cls-7" d="M366.31,394.405l7.7-4.405.3,4.317-7.643,4.493c.491-.834.736-1.766-.373-4.405" transform="translate(-366.31 -390)"/>
        </g>
      </g>
      <path id="패스_566972" data-name="패스 566972" class="cls-7" d="M362.731,394.046a.7.7,0,0,0,.736.049q.137-.079.137-.177v-.3l-3.4-1.315v.285Z" transform="translate(-324.862 -353.812)"/>
      <path id="패스_566973" data-name="패스 566973" class="cls-46" d="M362.731,390.335a.7.7,0,0,0,.736.049q.324-.186-.1-.422l-2.521-1.462-.648.373Z" transform="translate(-324.862 -350.385)"/>
      <path id="패스_566974" data-name="패스 566974" class="cls-7" d="M313.5,363.28l1.982.54.775-.441a.864.864,0,0,1,.638-.118c.059.01.235-.128.284-.1,0,.373.02.294,0,.373a.373.373,0,0,1-.186.216l-.049.029-.775.441,1.118.461v.3c0,.078-.059.147-.186.226a.736.736,0,0,1-.775-.01l-.059-.029-.873-.5-1.118.648-.687-.392v-.285l1.118-.363-1.207-.7Z" transform="translate(-282.743 -327.529)"/>
      <path id="패스_566975" data-name="패스 566975" class="cls-23" d="M314.275,359.8l1.207.7.775-.441a.864.864,0,0,1,.638-.118l.157.059q.157.088.128.206a.373.373,0,0,1-.186.216l-.049.029-.775.441.932.54q.383.226,0,.451a.736.736,0,0,1-.775-.01l-.059-.029-.873-.5-1.118.648-.687-.392,1.118-.647-1.207-.7Z" transform="translate(-282.743 -324.501)"/>
      <path id="패스_566976" data-name="패스 566976" class="cls-7" d="M252.366,323.1a1.746,1.746,0,0,1,.863.265l7.8,4.513a5.225,5.225,0,0,1,2.188,4.17,1.9,1.9,0,0,1-.785,1.786h0l-.157.088-7.633,4.405h0l-.059.029h0a1.138,1.138,0,0,1-.932.481,1.776,1.776,0,0,1-.873-.265l-7.878-4.552a5.29,5.29,0,0,1-2.207-4.209,1.88,1.88,0,0,1,1.079-1.9.9.9,0,0,1,.128-.108h.02l6.926-3.993.922-.53h.01a1.069,1.069,0,0,1,.579-.157m0-.392a1.452,1.452,0,0,0-.795.216h0l-.912.53-6.907,3.993H243.7a.814.814,0,0,0-.157.118,2.256,2.256,0,0,0-1.246,2.227,5.613,5.613,0,0,0,2.4,4.552l7.878,4.552a2.149,2.149,0,0,0,1.069.314,1.531,1.531,0,0,0,1.2-.569h0l7.633-4.4.157-.088.334-.2-.029-.049a2.537,2.537,0,0,0,.667-1.893,5.6,5.6,0,0,0-2.384-4.513l-7.8-4.513a2.129,2.129,0,0,0-1.06-.314" transform="translate(-218.529 -291.041)"/>
      <path id="패스_566977" data-name="패스 566977" class="cls-7" d="M359.5,431.745l.441-.245a5.182,5.182,0,0,1,.912,4.415l-.294-.039a5.249,5.249,0,0,0-1.06-4.121" transform="translate(-324.23 -389.167)"/>
      <g id="그룹_271971" data-name="그룹 271971" class="cls-24" transform="translate(39.243 36.888)">
        <g id="그룹_271970" data-name="그룹 271970" class="cls-47">
          <path id="패스_566978" data-name="패스 566978" d="M409.856,389.522l13.706-7.809a1.982,1.982,0,0,0-.01-3.453l-2.767-1.56a6.21,6.21,0,0,0-6.112.02l-13.706,7.809a1.982,1.982,0,0,0,.01,3.453l2.767,1.56a6.21,6.21,0,0,0,6.112-.02" transform="translate(-399.967 -375.914)"/>
        </g>
      </g>
      <path id="패스_566979" data-name="패스 566979" class="cls-22" d="M433.705,235.721v.912l.275-.157v1.687l-.275.167v.912l.275-.157v4.248h0a2.326,2.326,0,0,1-1.383,1.913l-12.774,7.378a7.4,7.4,0,0,1-6.671,0l-.069-.039a2.26,2.26,0,0,1-1.374-2.05h-.01v-2.227h0a2.36,2.36,0,0,0,1.383,1.893l.069.039a7.4,7.4,0,0,0,6.671,0l9.928-5.7V234.7l-9.928,5.71a7.4,7.4,0,0,1-6.671,0l-.069-.039a2.381,2.381,0,0,1-1.383-1.893h0V231.2l17.885-5.8,3.365,4.837a5.828,5.828,0,0,1,1.04,3.306v2.021Z" transform="translate(-371.309 -203.287)"/>
      <path id="패스_566980" data-name="패스 566980" class="cls-23" d="M428.219,320.2v9.84l-9.928,5.7a7.4,7.4,0,0,1-6.671,0l-.069-.039a2.665,2.665,0,0,1-1.55-1.913v-9.86a2.644,2.644,0,0,0,1.55,1.933l.069.039a7.4,7.4,0,0,0,6.671,0Z" transform="translate(-369.776 -288.786)"/>
      <path id="패스_566981" data-name="패스 566981" class="cls-48" d="M428.219,320.2v9.84l-9.928,5.7a7.4,7.4,0,0,1-6.671,0l-.069-.039a2.665,2.665,0,0,1-1.55-1.913v-9.86a2.644,2.644,0,0,0,1.55,1.933l.069.039a7.4,7.4,0,0,0,6.671,0Z" transform="translate(-369.776 -288.786)"/>
      <path id="패스_566982" data-name="패스 566982" class="cls-3" d="M428.545,212.29l-8.722,5.023a7.4,7.4,0,0,1-6.671,0l-.069-.039c-1.844-1.06-1.844-2.786,0-3.856l8.722-5.023a7.4,7.4,0,0,1,6.671,0l.069.039c1.844,1.06,1.844,2.786,0,3.856" transform="translate(-371.309 -187.233)"/>
      <path id="패스_566983" data-name="패스 566983" class="cls-49" d="M428.545,212.29l-8.722,5.023a7.4,7.4,0,0,1-6.671,0l-.069-.039c-1.844-1.06-1.844-2.786,0-3.856l8.722-5.023a7.4,7.4,0,0,1,6.671,0l.069.039C430.389,209.5,430.389,211.22,428.545,212.29Z" transform="translate(-371.309 -187.233)"/>
      <path id="패스_566984" data-name="패스 566984" class="cls-50" d="M438.677,254.4a5.383,5.383,0,0,1-4.866,0,1.724,1.724,0,0,1-1.01-1.4v2.58a1.692,1.692,0,0,0,1.01,1.4,5.383,5.383,0,0,0,4.866,0,1.724,1.724,0,0,0,1.011-1.4V253a1.692,1.692,0,0,1-1.011,1.4" transform="translate(-390.339 -228.179)"/>
      <path id="패스_566985" data-name="패스 566985" class="cls-51" d="M438.677,254.4a5.383,5.383,0,0,1-4.866,0,1.724,1.724,0,0,1-1.01-1.4v2.58a1.692,1.692,0,0,0,1.01,1.4,5.383,5.383,0,0,0,4.866,0,1.724,1.724,0,0,0,1.011-1.4V253A1.7,1.7,0,0,1,438.677,254.4Z" transform="translate(-390.339 -228.179)"/>
      <path id="패스_566986" data-name="패스 566986" class="cls-50" d="M438.7,236.162a5.383,5.383,0,0,1-4.866,0c-1.344-.775-1.344-2.031,0-2.806a5.383,5.383,0,0,1,4.866,0c1.344.775,1.344,2.031,0,2.806" transform="translate(-390.362 -209.938)"/>
      <path id="패스_566987" data-name="패스 566987" class="cls-52" d="M438.7,236.162a5.383,5.383,0,0,1-4.866,0c-1.344-.775-1.344-2.031,0-2.806a5.383,5.383,0,0,1,4.866,0C440.043,234.131,440.043,235.387,438.7,236.162Z" transform="translate(-390.362 -209.938)"/>
      <path id="패스_566988" data-name="패스 566988" class="cls-31" d="M428,239.7v2.139a1.946,1.946,0,0,0,1.148,1.6,6.11,6.11,0,0,0,5.533,0,1.946,1.946,0,0,0,1.148-1.6V239.7Z" transform="translate(-386.01 -216.184)"/>
      <path id="패스_566989" data-name="패스 566989" class="cls-53" d="M428,239.7v2.139a1.946,1.946,0,0,0,1.148,1.6,6.11,6.11,0,0,0,5.533,0,1.946,1.946,0,0,0,1.148-1.6V239.7Z" transform="translate(-386.01 -216.184)"/>
      <path id="패스_566990" data-name="패스 566990" class="cls-33" d="M434.815,220.511a6.11,6.11,0,0,1-5.533,0c-1.521-.883-1.531-2.315,0-3.2a6.11,6.11,0,0,1,5.533,0c1.521.883,1.53,2.315,0,3.2" transform="translate(-386.134 -195.395)"/>
      <path id="패스_566991" data-name="패스 566991" class="cls-29" d="M434.815,220.511a6.11,6.11,0,0,1-5.533,0c-1.521-.883-1.531-2.315,0-3.2a6.11,6.11,0,0,1,5.533,0C436.336,218.2,436.336,219.628,434.815,220.511Z" transform="translate(-386.134 -195.395)"/>
      <path id="패스_566992" data-name="패스 566992" class="cls-23" d="M616.974,336.857v.422l-1.825,1.05c-.275.157-.5.069-.549-.206a.451.451,0,0,0,.294-.069l1.805-1.04V336.7Z" transform="translate(-554.303 -303.667)"/>
      <path id="패스_566993" data-name="패스 566993" class="cls-54" d="M616.974,336.857v.422l-1.825,1.05c-.275.157-.5.069-.549-.206a.451.451,0,0,0,.294-.069l1.805-1.04V336.7Z" transform="translate(-554.303 -303.667)"/>
      <path id="패스_566994" data-name="패스 566994" class="cls-50" d="M616.52,330.6v.912l-1.805,1.04a.157.157,0,1,1-.3-.049h0a1.246,1.246,0,0,1,.569-.981Z" transform="translate(-554.124 -298.166)"/>
      <path id="패스_566995" data-name="패스 566995" class="cls-55" d="M616.52,330.6v.912l-1.805,1.04a.157.157,0,1,1-.3-.049h0a1.246,1.246,0,0,1,.569-.981Z" transform="translate(-554.124 -298.166)"/>
      <path id="패스_566996" data-name="패스 566996" class="cls-50" d="M616.974,363.447v.422l-1.825,1.05c-.275.157-.5.069-.549-.206a.451.451,0,0,0,.294-.069l1.805-1.03V363.3Z" transform="translate(-554.303 -327.658)"/>
      <path id="패스_566997" data-name="패스 566997" class="cls-56" d="M616.974,363.447v.422l-1.825,1.05c-.275.157-.5.069-.549-.206a.451.451,0,0,0,.294-.069l1.805-1.03V363.3Z" transform="translate(-554.303 -327.658)"/>
      <path id="패스_566998" data-name="패스 566998" class="cls-50" d="M616.52,357.2v.912l-1.805,1.04a.157.157,0,1,1-.3-.049h0a1.246,1.246,0,0,1,.569-.981Z" transform="translate(-554.124 -322.156)"/>
      <path id="패스_566999" data-name="패스 566999" class="cls-57" d="M616.52,357.2v.912l-1.805,1.04a.157.157,0,1,1-.3-.049h0a1.246,1.246,0,0,1,.569-.981Z" transform="translate(-554.124 -322.156)"/>
      <path id="패스_567000" data-name="패스 567000" class="cls-3" d="M513.764,369.8s-4.17,9.458,0,7.044,0-7.044,0-7.044" transform="translate(-461.689 -333.52)"/>
      <path id="패스_567001" data-name="패스 567001" class="cls-23" d="M516.7,416.724a1.658,1.658,0,0,1-.579,1.246c-.265.118-.442-.255-.392-.824a1.658,1.658,0,0,1,.579-1.246c.265-.118.442.255.392.824" transform="translate(-465.121 -375.078)"/>
      <path id="패스_567002" data-name="패스 567002" class="cls-23" d="M498.239,298.917H498.2l.128-.059,5.779-3.336a1.413,1.413,0,0,0,.618-.922v.029a1.158,1.158,0,0,1-.51.893l-5.779,3.336a.4.4,0,0,1-.2.059" transform="translate(-449.323 -265.698)"/>
      <path id="패스_567003" data-name="패스 567003" class="cls-7" d="M502.242,286.6a.617.617,0,0,1,.029.2v.412a1.275,1.275,0,0,1-.579,1l-5.779,3.336a.529.529,0,0,1-.255.078H495.6a.294.294,0,0,0,.294.216.52.52,0,0,0,.255-.078l5.779-3.336a1.275,1.275,0,0,0,.579-1v-.412c0-.226-.1-.373-.255-.4" transform="translate(-446.978 -258.482)"/>
      <path id="패스_567004" data-name="패스 567004" class="cls-50" d="M501.91,286.654v.412a1.276,1.276,0,0,1-.579,1l-5.779,3.336a.471.471,0,0,1-.324.069.618.618,0,0,1-.029-.2v-.412a1.275,1.275,0,0,1,.579-1l5.779-3.336a.461.461,0,0,1,.314-.069.619.619,0,0,1,.029.2" transform="translate(-446.617 -258.35)"/>
      <path id="패스_567005" data-name="패스 567005" class="cls-58" d="M501.91,286.654v.412a1.276,1.276,0,0,1-.579,1l-5.779,3.336a.471.471,0,0,1-.324.069.618.618,0,0,1-.029-.2v-.412a1.275,1.275,0,0,1,.579-1l5.779-3.336a.461.461,0,0,1,.314-.069A.621.621,0,0,1,501.91,286.654Z" transform="translate(-446.617 -258.35)"/>
      <line id="선_78312" data-name="선 78312" class="cls-3" x1="0.01" transform="translate(62.543 29.059)"/>
      <path id="패스_567006" data-name="패스 567006" class="cls-7" d="M419.728,202.189a6.844,6.844,0,0,1,3.336.795l.069.039a3.188,3.188,0,0,1,1.04.912l3.365,4.837a5.808,5.808,0,0,1,1.04,3.316V214.1l-.275.157v.589l.275.157v.422h0v1.266l-.275.167v.912h0v-.314l.275.157v.422h0v2.6h0v1.217h0a2.345,2.345,0,0,1-1.383,1.913l-12.783,7.4a7.4,7.4,0,0,1-6.671,0l-.069-.039a2.26,2.26,0,0,1-1.373-2.05h-.01V209.939h0v-.206h.02a2.5,2.5,0,0,1,1.364-1.717l.275-.157a1.345,1.345,0,0,1-.049-.373v-2.149a1.946,1.946,0,0,1,1.148-1.6,6.151,6.151,0,0,1,5.533,0l.235.147,1.58-.912a6.844,6.844,0,0,1,3.336-.795m8.565,12.989h0M419.728,201.6a7.44,7.44,0,0,0-3.63.873l-1.275.736a6.694,6.694,0,0,0-6.083.029,2.451,2.451,0,0,0-1.442,2.1v2.2a3.078,3.078,0,0,0-1.56,1.962.588.588,0,0,0-.039.226v.206h0V229.06a.585.585,0,0,0,.01.078,2.9,2.9,0,0,0,1.668,2.482l.069.039a7.334,7.334,0,0,0,3.63.873,7.44,7.44,0,0,0,3.63-.873l12.783-7.378a2.873,2.873,0,0,0,1.678-2.384v-.039h0v-4.248a.6.6,0,0,1,0-.922v-1.678a.58.58,0,0,1,0-.9v-2.021a6.367,6.367,0,0,0-1.138-3.65l-3.375-4.837a3.757,3.757,0,0,0-1.236-1.089l-.069-.039a7.333,7.333,0,0,0-3.63-.873" transform="translate(-365.896 -181.822)"/>
      <g id="그룹_271973" data-name="그룹 271973" class="cls-59" transform="translate(40.185 28.559)">
        <g id="그룹_271972" data-name="그룹 271972" class="cls-60">
          <path id="패스_567007" data-name="패스 567007" class="cls-61" d="M409.8,291.1s.216,2.06,4.856,2.325v19.249s-4.562-.284-4.856-2.384,0-19.19,0-19.19" transform="translate(-409.66 -291.1)"/>
        </g>
      </g>
      <g id="그룹_271975" data-name="그룹 271975" class="cls-5" transform="translate(12.607 25.272)">
        <g id="그룹_271974" data-name="그룹 271974" class="cls-62">
          <path id="패스_567008" data-name="패스 567008" d="M136.4,258.815c1.678.971,1.668,2.541-.02,3.522a6.7,6.7,0,0,1-6.092.01c-1.678-.971-1.668-2.541.02-3.522a6.7,6.7,0,0,1,6.092-.01" transform="translate(-128.985 -258.04)"/>
          <path id="패스_567009" data-name="패스 567009" class="cls-63" d="M136.4,258.815c1.678.971,1.668,2.541-.02,3.522a6.7,6.7,0,0,1-6.092.01c-1.678-.971-1.668-2.541.02-3.522A6.7,6.7,0,0,1,136.4,258.815Z" transform="translate(-128.985 -258.04)"/>
        </g>
      </g>
      <path id="패스_567010" data-name="패스 567010" class="cls-3" d="M184.2,52.977l-.3-.177a2.4,2.4,0,0,1,.3.177" transform="translate(-165.858 -47.62)"/>
      <path id="패스_567011" data-name="패스 567011" class="cls-64" d="M184.2,52.977l-.3-.177A2.4,2.4,0,0,1,184.2,52.977Z" transform="translate(-165.858 -47.62)"/>
      <path id="패스_567012" data-name="패스 567012" class="cls-3" d="M105.435,55.327c0,3.395-2.4,10.409-5.357,15.648l-2.521-1.462h-.01c-2.835-1.619-5.347-6.073-5.347-9.467a11.785,11.785,0,0,1,5.357-9.222,3.861,3.861,0,0,1,3.64-.461l.3.177,2.207,1.275h0c1.06.51,1.717,1.737,1.717,3.522" transform="translate(-83.154 -45.173)"/>
      <path id="패스_567013" data-name="패스 567013" class="cls-4" d="M105.435,55.327c0,3.395-2.4,10.409-5.357,15.648l-2.521-1.462h-.01c-2.835-1.619-5.347-6.073-5.347-9.467a11.785,11.785,0,0,1,5.357-9.222,3.861,3.861,0,0,1,3.64-.461l.3.177,2.207,1.275h0C104.777,52.325,105.435,53.551,105.435,55.327Z" transform="translate(-83.154 -45.173)"/>
      <path id="패스_567014" data-name="패스 567014" class="cls-3" d="M103.308,51.8h0a2.806,2.806,0,0,0-1.315-.265,4.919,4.919,0,0,0-2.315.736,11.818,11.818,0,0,0-5.357,9.232,12.6,12.6,0,0,0,3.1,7.525,8.763,8.763,0,0,0,2.256,1.943l-2.521-1.462h-.01c-2.835-1.619-5.347-6.073-5.347-9.467a11.759,11.759,0,0,1,5.357-9.222,3.861,3.861,0,0,1,3.64-.461l.3.177Z" transform="translate(-82.794 -45.173)"/>
      <path id="패스_567015" data-name="패스 567015" class="cls-9" d="M103.308,51.8h0a2.806,2.806,0,0,0-1.315-.265,4.919,4.919,0,0,0-2.315.736,11.818,11.818,0,0,0-5.357,9.232,12.6,12.6,0,0,0,3.1,7.525,8.763,8.763,0,0,0,2.256,1.943l-2.521-1.462h-.01c-2.835-1.619-5.347-6.073-5.347-9.467a11.759,11.759,0,0,1,5.357-9.222,3.861,3.861,0,0,1,3.64-.461l.3.177Z" transform="translate(-82.794 -45.173)"/>
      <path id="패스_567016" data-name="패스 567016" class="cls-3" d="M183.8,52.977l-.3-.177a2.335,2.335,0,0,1,.3.177" transform="translate(-165.497 -47.62)"/>
      <path id="패스_567017" data-name="패스 567017" class="cls-65" d="M183.8,52.977l-.3-.177A2.335,2.335,0,0,1,183.8,52.977Z" transform="translate(-165.497 -47.62)"/>
      <path id="패스_567018" data-name="패스 567018" class="cls-23" d="M126.487,65.242a2.806,2.806,0,0,0-1.315-.265,4.919,4.919,0,0,0-2.315.736,11.818,11.818,0,0,0-5.357,9.232,12.6,12.6,0,0,0,3.1,7.525,8.763,8.763,0,0,0,2.256,1.943c2.953-5.239,5.357-12.254,5.357-15.648,0-1.786-.657-3.012-1.717-3.522m-3.63,4.16.255-.128c1.06-.471,1.884.088,1.884,1.344a4.846,4.846,0,0,1-2.129,3.679c-1.177.677-1.923.235-2.1-.8a2.374,2.374,0,0,1-.029-.412,4.674,4.674,0,0,1,2.139-3.679" transform="translate(-105.972 -58.6)"/>
      <path id="패스_567019" data-name="패스 567019" class="cls-66" d="M126.487,65.242a2.806,2.806,0,0,0-1.315-.265,4.919,4.919,0,0,0-2.315.736,11.818,11.818,0,0,0-5.357,9.232,12.6,12.6,0,0,0,3.1,7.525,8.763,8.763,0,0,0,2.256,1.943c2.953-5.239,5.357-12.254,5.357-15.648C128.213,66.968,127.546,65.752,126.487,65.242Zm-3.63,4.16.255-.128c1.06-.471,1.884.088,1.884,1.344a4.846,4.846,0,0,1-2.129,3.679c-1.177.677-1.923.235-2.1-.8a2.375,2.375,0,0,1-.029-.412A4.628,4.628,0,0,1,122.857,69.4Z" transform="translate(-105.972 -58.6)"/>
      <path id="패스_567020" data-name="패스 567020" class="cls-3" d="M154.655,108.621a4.689,4.689,0,0,1-2.129,3.679c-1.177.677-1.923.235-2.1-.8a2.374,2.374,0,0,1-.029-.412,4.674,4.674,0,0,1,2.139-3.679l.255-.128c1.06-.471,1.884.088,1.884,1.344" transform="translate(-135.642 -96.603)"/>
      <path id="패스_567021" data-name="패스 567021" class="cls-67" d="M154.655,108.621a4.689,4.689,0,0,1-2.129,3.679c-1.177.677-1.923.235-2.1-.8a2.374,2.374,0,0,1-.029-.412,4.674,4.674,0,0,1,2.139-3.679l.255-.128C153.841,106.806,154.655,107.365,154.655,108.621Z" transform="translate(-135.642 -96.603)"/>
      <path id="패스_567022" data-name="패스 567022" class="cls-22" d="M154.928,108.621A4.689,4.689,0,0,1,152.8,112.3c-1.177.677-1.923.235-2.1-.8l.255-.128a4.7,4.7,0,0,0,2.139-3.679,2.374,2.374,0,0,0-.029-.412c1.06-.471,1.884.088,1.884,1.344" transform="translate(-135.915 -96.603)"/>
      <path id="패스_567023" data-name="패스 567023" class="cls-68" d="M154.928,108.621A4.689,4.689,0,0,1,152.8,112.3c-1.177.677-1.923.235-2.1-.8l.255-.128a4.7,4.7,0,0,0,2.139-3.679,2.374,2.374,0,0,0-.029-.412C154.114,106.806,154.928,107.365,154.928,108.621Z" transform="translate(-135.915 -96.603)"/>
    </g>
  </g>
</svg>
