<svg xmlns="http://www.w3.org/2000/svg" xmlns:xlink="http://www.w3.org/1999/xlink" width="28" height="28" viewBox="0 0 28 28"><defs><style>.a,.c,.d,.e,.g,.h{fill:none;}.b{clip-path:url(#a);}.c,.d,.e,.g,.h{stroke:#111;stroke-width:1.5px;}.c,.g,.h{stroke-linecap:round;}.c,.d{stroke-miterlimit:10;}.f{fill:#fff;}.g{stroke-linejoin:round;}.i{fill:#fafafa;}.j,.k{stroke:none;}.k{fill:#111;}</style><clipPath id="a"><rect class="a" width="28" height="28"/></clipPath></defs><g transform="translate(10 10)"><g class="b" transform="translate(-10 -10)"><g class="b"><line class="c" y2="1.951" transform="translate(10.451 4.041)"/><line class="d" y2="2.926" transform="translate(10.451 1.115)"/><line class="e" x1="4.181" transform="translate(10.451 4.041)"/><line class="c" y2="2.09" transform="translate(16.583 3.902)"/><line class="d" y2="2.787" transform="translate(16.583 1.115)"/><rect class="f" width="15" height="20" rx="2" transform="translate(9 7)"/><path class="g" d="M15.8,2.8h5.3V23.7H7.3a5.3,5.3,0,0,1-5.3-5.3V2.8H5.762" transform="translate(0.787 1.102)"/><line class="h" x1="3.484" transform="translate(6.968 12.542)"/><line class="h" x1="5.574" transform="translate(6.968 17.419)"/></g><g class="i" transform="translate(23.998 5.574) rotate(45)"><path class="j" d="M 2.787011623382568 14.26790142059326 L 0.7500016093254089 12.23089218139648 L 0.7500016093254089 1.393501877784729 C 0.7500016093254089 1.038671851158142 1.038671612739563 0.750001847743988 1.39350163936615 0.750001847743988 L 4.180521488189697 0.750001847743988 C 4.535351753234863 0.750001847743988 4.824021816253662 1.038671851158142 4.824021816253662 1.393501877784729 L 4.824021816253662 12.23089218139648 L 2.787011623382568 14.26790142059326 Z"/><path class="k" d="M 1.500001430511475 1.500001907348633 L 1.500001430511475 11.92023181915283 L 2.787011623382568 13.20724201202393 L 4.074021339416504 11.92023181915283 L 4.074021339416504 1.500001907348633 L 1.500001430511475 1.500001907348633 M 1.393501758575439 1.9073486328125e-06 L 4.180521488189697 1.9073486328125e-06 C 4.950131416320801 1.9073486328125e-06 5.574021816253662 0.6238918304443359 5.574021816253662 1.393502235412598 L 5.574021816253662 12.54155158996582 L 2.787011623382568 15.32856178283691 L 1.430511474609375e-06 12.54155158996582 L 1.430511474609375e-06 1.393502235412598 C 1.430511474609375e-06 0.6238918304443359 0.6238918304443359 1.9073486328125e-06 1.393501758575439 1.9073486328125e-06 Z"/></g></g></g></svg>