<svg xmlns="http://www.w3.org/2000/svg" width="28" height="28"><defs><clipPath id="a"><path data-name="사각형 290772" fill="none" d="M0 0h28v28H0z"/></clipPath></defs><g data-name="그룹 380088" clip-path="url(#a)"><path data-name="사각형 290770" fill="none" stroke="#111" stroke-linecap="round" stroke-linejoin="round" stroke-width="1.5" d="M3.5 9.7h20v5h-20z"/><g data-name="그룹 380087" clip-path="url(#a)"><path data-name="패스 769932" d="M9.5 26.2v-5h8v5" fill="none" stroke="#111" stroke-linecap="round" stroke-linejoin="round" stroke-width="1.5"/><path data-name="패스 769933" d="M23 15.2v11H7a3 3 0 01-3-3v-8" fill="none" stroke="#111" stroke-linecap="round" stroke-linejoin="round" stroke-width="1.5"/><path data-name="패스 769934" d="M17.1 1h3a3 3 0 010 6h-3a3 3 0 010-6" fill="#ff8d8d"/><path data-name="패스 769935" d="M17.1 2.2h2a2.5 2.5 0 110 5h-4A2.5 2.5 0 0113 3.3" fill="none" stroke="#111" stroke-linecap="square" stroke-linejoin="round" stroke-width="1.5"/><path data-name="선 108658" fill="none" stroke="#111" stroke-linecap="round" stroke-linejoin="round" stroke-width="1.5" d="M15.4 2.2h1.7"/><path data-name="선 108659" fill="none" stroke="#111" stroke-linecap="round" stroke-linejoin="round" stroke-width="1.5" d="M17.1 7.2V9"/></g></g></svg>