<svg xmlns="http://www.w3.org/2000/svg" xmlns:xlink="http://www.w3.org/1999/xlink" width="40" height="50" viewBox="0 0 40 50">
  <defs>
    <clipPath id="clip-path">
      <rect id="사각형_257951" data-name="사각형 257951" width="40" height="50" fill="none"/>
    </clipPath>
  </defs>
  <g id="icon_membership_40" transform="translate(-30 -146)">
    <g id="그룹_422183" data-name="그룹 422183" transform="translate(-80 -50)">
      <g id="icon_membership_silver_40" transform="translate(-17945 -11517)">
        <g id="멤버십아이콘_실버_40x50" transform="translate(18075 11738)">
          <g id="그룹_343280" data-name="그룹 343280" transform="translate(-20 -25)" clip-path="url(#clip-path)">
            <path id="패스_695049" data-name="패스 695049" d="M19.7,48.5h0A17.6,17.6,0,0,1,2.2,31V17.8a17.6,17.6,0,0,1,35.1,0V31A17.6,17.6,0,0,1,19.7,48.5h-.1" fill="#fff"/>
            <path id="패스_695050" data-name="패스 695050" d="M20.6,49.4h0A17.6,17.6,0,0,1,3.3,31.5V18.8A17.6,17.6,0,0,1,21.7,2.1,17.6,17.6,0,0,1,37.9,18.8V31.6A17.6,17.6,0,0,1,20.6,49.5" fill="#f0f0f0"/>
            <path id="패스_695051" data-name="패스 695051" d="M19.5,48.7h0A17.2,17.2,0,0,1,2.2,31.6h0V18.8a17.25,17.25,0,1,1,34.5,0h0V31.5A17.2,17.2,0,0,1,19.5,48.7Z" fill="none" stroke="#d7d7d7" stroke-miterlimit="10" stroke-width="1"/>
          </g>
        </g>
        <text id="준회원" transform="translate(18074.9 11749.5)" fill="#111" font-size="7.5" font-family="MoebiusKorea-Bold, Moebius Korea" font-weight="700" letter-spacing="-0.03em"><tspan x="-9.9" y="0">준회원</tspan></text>
      </g>
    </g>
    <g id="그룹_422505" data-name="그룹 422505" transform="translate(41.668 152.605)">
      <path id="패스_694984" data-name="패스 694984" d="M21.035,12.4A8.345,8.345,0,1,1,12.8,20.745h0a8.345,8.345,0,0,1,8.235-8.235" transform="translate(-11.465 -9.204)" fill="#fff"/>
      <path id="패스_694986" data-name="패스 694986" d="M23.159,12.914a8.245,8.245,0,0,0-8.924,2.947,8.345,8.345,0,0,0,11.3,11.986,8.47,8.47,0,0,0,3.631-7.7" transform="translate(-12.495 -10.4)" fill="none" stroke="#111" stroke-linejoin="round" stroke-width="1" stroke-dasharray="1 1"/>
      <g id="그룹_422507" data-name="그룹 422507">
        <path id="패스_694988" data-name="패스 694988" d="M20.684,20.8a1.647,1.647,0,0,1-3.184,0" transform="translate(-12.004 -9.381)" fill="none" stroke="#111" stroke-linecap="square" stroke-miterlimit="10" stroke-width="1"/>
        <g id="그룹_422506" data-name="그룹 422506">
          <line id="선_93127" data-name="선 93127" y2="0.329" transform="translate(9.558 8.454)" fill="none" stroke="#111" stroke-linecap="round" stroke-width="1"/>
          <line id="선_93128" data-name="선 93128" y2="1.427" transform="translate(9.558 7.028)" fill="none" stroke="#111" stroke-width="1"/>
          <line id="선_93129" data-name="선 93129" y2="0.439" transform="translate(4.616 8.345)" fill="none" stroke="#111" stroke-linecap="round" stroke-width="1"/>
          <line id="선_93130" data-name="선 93130" y2="1.318" transform="translate(4.616 7.028)" fill="none" stroke="#111" stroke-width="1"/>
        </g>
      </g>
    </g>
    <path id="패스_837857" data-name="패스 837857" d="M.5-6.976v2.2h1.4a.742.742,0,0,1,.767.389.577.577,0,0,1,.052.241.529.529,0,0,1-.215.446.874.874,0,0,1-.509.173H.5v1.691a.632.632,0,0,1-.7.714q-.682,0-.693-.714V-3.521H-2.926v-1.25H-.9v-2.2Z" transform="translate(57 162)" fill="#111"/>
  </g>
</svg>
