<svg xmlns="http://www.w3.org/2000/svg" width="20" height="20"><defs><clipPath id="a"><path transform="translate(38 15)" stroke="#707070" fill="#fff" d="M0 0h20v20H0z"/></clipPath><style>.d{fill:#fff}</style></defs><g transform="translate(-38 -15)" clip-path="url(#a)"><g transform="translate(38 15)"><circle cx="10" cy="10" r="10" fill="#e51826"/><path class="d" d="M10.483 14.324v-2.143c0-.571.159-1.066.578-1.218l1.787-.636a1.6 1.6 0 00.122-.65 2.187 2.187 0 00-1.438-2.141L6.641 6.007l1.276-.457a.726.726 0 01.229-.037.853.853 0 01.238.037l4.991 1.56a2.046 2.046 0 011.192 1.889 1.148 1.148 0 01-.64 1.158c-.43.157-1.722.62-1.722.62a1.862 1.862 0 00-.126.782v1.932c0 .608-.293 1.16-.855 1.16a1.106 1.106 0 01-.739-.324"/><path class="d" d="M9.204 9.452a2.452 2.452 0 01.387 1.3v1.8a2.223 2.223 0 001.362 2.28l-1.308.452a.793.793 0 01-.674-.1 2.178 2.178 0 01-.974-2.013v-1.888a2.441 2.441 0 00-.5-1.391 1.713 1.713 0 00-.823-.6A2.064 2.064 0 015.51 7.405c0-.705.359-1.15.836-1.184a.723.723 0 01.274.036c.282.086.511.165.511.165A2.27 2.27 0 008.41 8.83a1.478 1.478 0 01.793.634"/></g></g></svg>