<svg xmlns="http://www.w3.org/2000/svg" width="20.096" height="20" viewBox="0 0 20.096 20"><defs><style>.a{fill:rgba(0,0,0,0);}.b,.e{fill:#fff;}.b,.c,.d,.e{stroke:#111;}.b,.c,.d{stroke-linecap:round;stroke-width:1.5px;}.c,.g{fill:none;}.d{fill:rgba(255,255,255,0);stroke-linejoin:round;}.f{stroke:none;}</style></defs><rect class="a" width="20" height="20"/><path class="b" d="M15,7v7h2.419a1.965,1.965,0,0,0,1.927-2V2a1.965,1.965,0,0,0-1.927-2H3.453" transform="translate(0 3)"/><path class="b" d="M17.058,0H5.921A1.935,1.935,0,0,0,4.058,2V12a1.935,1.935,0,0,0,1.863,2h7.747" transform="translate(-3.058 3)"/><line class="c" y2="2" transform="translate(15 3.5)"/><g transform="translate(0 0.5)"><path class="d" d="M16.855,11.8l-4.25,4.25" transform="translate(-7.105 -4.55)"/><g class="e" transform="translate(4.5 6.5)"><circle class="f" cx="1" cy="1" r="1"/><circle class="g" cx="1" cy="1" r="0.5"/></g><g class="e" transform="translate(8.5 10.5)"><circle class="f" cx="1" cy="1" r="1"/><circle class="g" cx="1" cy="1" r="0.5"/></g></g></svg>