<svg xmlns="http://www.w3.org/2000/svg" width="25" height="22" viewBox="0 0 25 22">
  <g id="icon_sale_25" transform="translate(-219 -442.677)">
    <g id="sale_frag" data-name="sale frag" transform="translate(1 1)">
      <rect id="사각형_368504" data-name="사각형 368504" width="25" height="22" transform="translate(218 441.677)" fill="red" opacity="0"/>
      <path id="패스_882556" data-name="패스 882556" d="M290.995,318.314h-3.344a.258.258,0,0,1-.26-.257v-8.1a.774.774,0,0,0-.779-.77h-13.44a.774.774,0,0,0-.779.77v8.1a.258.258,0,0,1-.26.257h-3.345c-.43,0-.526.237-.214.53l10.751,10.079a.837.837,0,0,0,1.13,0l10.752-10.079C291.521,318.552,291.425,318.314,290.995,318.314Z" transform="translate(-49.392 133.49)" fill="#f4473a" stroke="#de4135" stroke-width="1"/>
    </g>
    <g id="icon_percent" transform="translate(1.5 3.176)">
      <path id="패스_882557" data-name="패스 882557" d="M-.57-10.374-.693-1.067a.692.692,0,0,1-.473.715.776.776,0,0,1-.308.066.742.742,0,0,1-.556-.22.77.77,0,0,1-.214-.561l.123-9.307Z" transform="matrix(0.766, 0.643, -0.643, 0.766, 227.734, 453.389)" fill="#fff"/>
      <g id="타원_10155" data-name="타원 10155" transform="translate(231 448.5)" fill="none" stroke="#fff" stroke-width="1.5">
        <circle cx="2" cy="2" r="2" stroke="none"/>
        <circle cx="2" cy="2" r="1.25" fill="none"/>
      </g>
      <g id="타원_10156" data-name="타원 10156" transform="translate(225.5 444)" fill="none" stroke="#fff" stroke-width="1.5">
        <circle cx="2" cy="2" r="2" stroke="none"/>
        <circle cx="2" cy="2" r="1.25" fill="none"/>
      </g>
    </g>
  </g>
</svg>
