<svg xmlns="http://www.w3.org/2000/svg" xmlns:xlink="http://www.w3.org/1999/xlink" width="20" height="20" viewBox="0 0 20 20">
  <defs>
    <clipPath id="clip-path">
      <rect id="사각형_291990" data-name="사각형 291990" width="20" height="20" fill="none"/>
    </clipPath>
  </defs>
  <g id="icon_detailing_20" transform="translate(10 10)">
    <g id="그룹_381453" data-name="그룹 381453" transform="translate(-10 -10)" clip-path="url(#clip-path)">
      <g id="그룹_381452" data-name="그룹 381452" clip-path="url(#clip-path)">
        <g id="그룹_381449" data-name="그룹 381449" opacity="0">
          <g id="그룹_381448" data-name="그룹 381448" clip-path="url(#clip-path)">
            <rect id="사각형_291985" data-name="사각형 291985" width="20" height="20" fill="#f0f"/>
          </g>
        </g>
        <g id="그룹_381451" data-name="그룹 381451" opacity="0">
          <g id="그룹_381450" data-name="그룹 381450" clip-path="url(#clip-path)">
            <rect id="사각형_291987" data-name="사각형 291987" width="20" height="20" fill="#f0f"/>
          </g>
        </g>
        <path id="패스_772464" data-name="패스 772464" d="M19.3,14.3a3.1,3.1,0,0,1-5.5,1.9.5.5,0,0,0-.6-.1A7.9,7.9,0,0,1,8,17.4a8,8,0,1,1,8.8-7.9,7.9,7.9,0,0,1-.2,1.8,3.1,3.1,0,0,1,2.7,3Z" fill="none" stroke="#111" stroke-width="1.5"/>
        <path id="패스_772465" data-name="패스 772465" d="M13.3,13.2a3.1,3.1,0,0,1,2.9-2h.3" fill="none" stroke="#111" stroke-width="1.5"/>
        <path id="패스_772466" data-name="패스 772466" d="M4.9,5.7A3.2,3.2,0,0,1,7.6,4.2" fill="none" stroke="#111" stroke-linecap="round" stroke-width="1.5"/>
        <path id="패스_772467" data-name="패스 772467" d="M4.3,6.7l.6-1" fill="none" stroke="#111" stroke-width="1.5"/>
      </g>
    </g>
  </g>
</svg>
