<svg xmlns="http://www.w3.org/2000/svg" xmlns:xlink="http://www.w3.org/1999/xlink" width="28" height="28" viewBox="0 0 28 28"><defs><style>.a,.c,.d{fill:none;}.b{clip-path:url(#a);}.c,.d{stroke:#111;stroke-linejoin:round;stroke-width:1.5px;}.d{stroke-linecap:round;}.e{fill:#56c6e4;}.f{fill:#111;}</style><clipPath id="a"><rect class="a" width="28" height="28"/></clipPath></defs><g transform="translate(14 14)"><g transform="translate(-14 -14)"><g class="b"><path class="c" d="M27,27.2V9.4L15.8,2a3.3,3.3,0,0,0-3.7,0L1,9.4V27.2"/></g><g class="b"><path class="c" d="M14,25.1h4.7v1.7h2.6a1.6,1.6,0,0,0,1.6-1.6V19.6a2.3,2.3,0,0,0-2.3-2.3H7.5a2.3,2.3,0,0,0-2.3,2.3v5.6a1.6,1.6,0,0,0,1.6,1.6H9.3V25.1Z"/><line class="c" x2="2.3" transform="translate(7.8 21.2)"/><line class="c" x2="2.3" transform="translate(17.9 21.2)"/><path class="d" d="M12.2,13.5h-.4a4.7,4.7,0,0,0-4.1,2.3l-.9,1.5"/><path class="e" d="M24.7,15.1A3.9,3.9,0,0,1,20.9,19a3.8,3.8,0,0,1-2.7-1.1,3.9,3.9,0,0,1,0-5.4l2.7-2.7,2.7,2.7a3.9,3.9,0,0,1,1.1,2.7"/><path class="f" d="M21.9,11.7l-3-2.9-3,2.9a4.2,4.2,0,1,0,6,0m-1.2,4.8a2.546,2.546,0,1,1-3.6-3.6l1.8-1.7L20.7,13a2.5,2.5,0,0,1,0,3.6"/></g></g></g></svg>