<svg xmlns="http://www.w3.org/2000/svg" width="16" height="16"><defs><clipPath id="a"><path fill="none" d="M0 0h16v16H0z"/></clipPath><style>.b{opacity:0}.c{clip-path:url(#a)}.e{fill:#111}</style></defs><g class="b"><g class="c"><g class="c"><g class="b"><path stroke="#111" stroke-width="1.5" fill="none" d="M.8.8h14.5v14.5H.8z"/></g></g><path class="e" d="M6.3 10.2l.3-.9-.7-.6-1.5-1.4h2.7l.4-1 .7-1.7.8 1.8.4.9h2.5l-1.6 1.4-.7.6.3.9.5 1.6-1.5-1.1-.9-.6-.9.6-1.2.9zM6 5.8H.5l4.4 4-1.7 5.7L8 11.9l5.1 3.6-1.7-5.7 4.1-4h-5.3L8 .5z"/></g></g><g class="c"><g class="c"><g class="b"><path fill="#f0f" d="M0 0h16v16H0z"/></g></g><path class="e" d="M6 5.8H.5l4.4 4-1.7 5.7L8 11.9l5.1 3.6-1.7-5.7 4.1-4h-5.3L8 .5z"/></g></svg>