<svg xmlns="http://www.w3.org/2000/svg" xmlns:xlink="http://www.w3.org/1999/xlink" width="38" height="38" viewBox="0 0 38 38">
  <defs>
    <clipPath id="clip-path">
      <rect id="사각형_127039" data-name="사각형 127039" width="24" height="24" fill="none"/>
    </clipPath>
  </defs>
  <g id="그룹_134216" data-name="그룹 134216" transform="translate(-90 -15)">
    <g id="그룹_124234" data-name="그룹 124234" transform="translate(90 15)">
      <g id="타원_4810" data-name="타원 4810" fill="#6257ff" stroke="#493cff" stroke-width="1">
        <circle cx="19" cy="19" r="19" stroke="none"/>
        <circle cx="19" cy="19" r="18.5" fill="none"/>
      </g>
      <rect id="사각형_106165" data-name="사각형 106165" width="8" height="8" transform="translate(15 15)" fill="red" opacity="0"/>
    </g>
    <g id="알림함_이벤트_28x28" transform="translate(109 34)">
      <g id="그룹_141873" data-name="그룹 141873" transform="translate(-12 -12)" clip-path="url(#clip-path)">
        <g id="그룹_141872" data-name="그룹 141872" clip-path="url(#clip-path)">
          <g id="그룹_141871" data-name="그룹 141871" opacity="0">
            <g id="그룹_141870" data-name="그룹 141870" clip-path="url(#clip-path)">
              <rect id="사각형_127036" data-name="사각형 127036" width="24" height="24" fill="#f0f"/>
            </g>
          </g>
          <path id="패스_313009" data-name="패스 313009" d="M5.2,25.729c0-.771,1.029-.686,1.029-1.457s-.943-.857-.857-1.543S6.4,21.871,6.4,21.1" transform="translate(-0.743 -3.014)" fill="none" stroke="#fff" stroke-linecap="round" stroke-linejoin="round" stroke-width="1.286"/>
          <path id="패스_313010" data-name="패스 313010" d="M9.771,18.414l-1.2,3.857L4.8,18.243,8.829,17.3" transform="translate(-0.686 -2.471)" fill="none" stroke="#fff" stroke-linecap="round" stroke-linejoin="round" stroke-width="1.286"/>
          <path id="패스_313011" data-name="패스 313011" d="M13.8,3.814A1.457,1.457,0,0,1,12.687,2.1l4.114.771a7.629,7.629,0,0,1-2.143,14.914,5.829,5.829,0,0,1-1.8-.343A7.629,7.629,0,0,1,11.23,3.9" transform="translate(-1.115 -0.3)" fill="none" stroke="#fff" stroke-linecap="round" stroke-linejoin="round" stroke-width="1.286"/>
          <path id="패스_313012" data-name="패스 313012" d="M16.44,12.04,15.5,11.011H13.868a.257.257,0,0,1-.171-.343l.686-1.286a.257.257,0,0,0,0-.171l-.429-1.457a.257.257,0,0,1,.257-.257l1.371.257h.171L16.868,6.9a.257.257,0,0,1,.343.171l.171,1.457V8.7l1.2.857a.257.257,0,0,1,0,.343l-1.2.514" transform="translate(-1.954 -0.983)" fill="none" stroke="#fff" stroke-linecap="round" stroke-miterlimit="10" stroke-width="1.286"/>
        </g>
      </g>
    </g>
  </g>
</svg>
