<svg xmlns="http://www.w3.org/2000/svg" width="20" height="20"><defs><clipPath id="a"><path data-name="사각형 247937" fill="none" d="M0 0h20v20H0z"/></clipPath></defs><g data-name="그룹 324743" clip-path="url(#a)"><g data-name="그룹 324742" clip-path="url(#a)"><path data-name="패스 644792" d="M2.5 11.3a7.8 7.8 0 107.8-7.7H2.5" fill="none" stroke="#000111" stroke-linecap="round" stroke-miterlimit="10" stroke-width="1.5"/><path data-name="패스 644793" d="M3.3 4.5l-1-.9 3-2.7" fill="none" stroke="#000111" stroke-linecap="round" stroke-miterlimit="10" stroke-width="1.5"/><path data-name="선 89290" fill="none" stroke="#000111" stroke-linecap="square" stroke-miterlimit="10" stroke-width="1.5" d="M5.1 6.1L3.3 4.5"/><path data-name="패스 644794" d="M5.9 8.7h1.4l.7 2.8h.8l.6-2.8h1.3l.7 2.8h.9l.7-2.8h1.3l-.7 2.8h.7a.325.325 0 010 .6h-1l-.6 2.1a.7.7 0 01-.8.6l-.5-.2a.7.7 0 01-.3-.4l-.5-2.1h-.9l-.5 2.1a.7.7 0 01-.3.4l-.5.2a.7.7 0 01-.8-.6L7 12.1h-.9v-.9h.6zm2.2 3.7v1.4h.1l.2-.9v-.5zm2.3-.9l-.3-1.4H10a12.4 12.4 0 01-.2 1.4zm1.2.9l.2 1.4h.1l.3-1.4z"/></g></g></svg>