<svg xmlns="http://www.w3.org/2000/svg" width="27" height="27"><defs><clipPath id="a"><path data-name="사각형 292995" fill="none" d="M0 0h27v27H0z"/></clipPath></defs><g data-name="그룹 382452" clip-path="url(#a)"><g data-name="그룹 382451" clip-path="url(#a)"><path data-name="패스 776789" d="M24.8 19.1a3.9 3.9 0 01-6.9 2.4.6.6 0 00-.8-.1 9.9 9.9 0 01-6.4 1.6 10 10 0 1111-10 9.9 9.9 0 01-.3 2.3 3.9 3.9 0 013.3 3.8" fill="#cbdbfa"/><path data-name="패스 776790" d="M25.7 5a2 2 0 11-2-2 2 2 0 012 2" fill="#cbdbfa"/><path data-name="패스 776791" d="M24.8 19.1a3.9 3.9 0 01-6.9 2.4.6.6 0 00-.8-.1 9.9 9.9 0 01-6.4 1.6 10 10 0 1111-10 9.9 9.9 0 01-.3 2.3 3.9 3.9 0 013.4 3.8z" fill="none" stroke="#3673ee" stroke-linejoin="round" stroke-width="1.5"/><path data-name="패스 776792" d="M17.3 17.7a3.9 3.9 0 013.7-2.5h.3" fill="none" stroke="#3673ee" stroke-linejoin="round" stroke-width="1.5"/><path data-name="패스 776793" d="M6.8 8.3a4 4 0 013.4-1.9" fill="none" stroke="#3673ee" stroke-linecap="round" stroke-linejoin="round" stroke-width="1.5"/><path data-name="패스 776794" d="M6.1 9.6a6.2 6.2 0 01.7-1.3" fill="none" stroke="#3673ee" stroke-linejoin="round" stroke-width="1.5"/><path data-name="패스 776795" d="M25.7 5a2 2 0 11-2-2 2 2 0 012 2z" fill="none" stroke="#3673ee" stroke-width="1.5"/></g></g></svg>