<svg xmlns="http://www.w3.org/2000/svg" width="24" height="24" viewBox="0 0 24 24">
  <g id="그룹_573765" data-name="그룹 573765" transform="translate(-178 -1297)">
    <g id="패스_1408125" data-name="패스 1408125" transform="translate(178 1297)" fill="#fff">
      <path d="M12,0A12,12,0,1,1,0,12,12,12,0,0,1,12,0Z" stroke="none"/>
      <path d="M 12 1 C 9.061790466308594 1 6.299449920654297 2.144199371337891 4.221820831298828 4.221820831298828 C 2.144199371337891 6.299449920654297 1 9.061790466308594 1 12 C 1 14.93820953369141 2.144199371337891 17.7005500793457 4.221820831298828 19.77817916870117 C 6.299449920654297 21.85580062866211 9.061790466308594 23 12 23 C 14.93820953369141 23 17.7005500793457 21.85580062866211 19.77817916870117 19.77817916870117 C 21.85580062866211 17.7005500793457 23 14.93820953369141 23 12 C 23 9.061790466308594 21.85580062866211 6.299449920654297 19.77817916870117 4.221820831298828 C 17.7005500793457 2.144199371337891 14.93820953369141 1 12 1 M 12 0 C 18.62742042541504 0 24 5.372579574584961 24 12 C 24 18.62742042541504 18.62742042541504 24 12 24 C 5.372579574584961 24 0 18.62742042541504 0 12 C 0 5.372579574584961 5.372579574584961 0 12 0 Z" stroke="none" fill="rgba(17,17,17,0.05)"/>
    </g>
    <g id="icon_qr" transform="translate(183.707 1303.205)">
      <g id="사각형_211803" data-name="사각형 211803" transform="translate(1 6.324)" fill="none" stroke="#21ccb9" stroke-width="1.6">
        <rect width="4.765" height="4.765" stroke="none"/>
        <rect x="0.8" y="0.8" width="3.165" height="3.165" fill="none"/>
      </g>
      <g id="사각형_211809" data-name="사각형 211809" transform="translate(1 0.5)" fill="none" stroke="#21ccb9" stroke-width="1.6">
        <rect width="4.765" height="4.765" stroke="none"/>
        <rect x="0.8" y="0.8" width="3.165" height="3.165" fill="none"/>
      </g>
      <g id="사각형_211810" data-name="사각형 211810" transform="translate(6.824 0.5)" fill="none" stroke="#21ccb9" stroke-width="1.6">
        <rect width="4.765" height="4.765" stroke="none"/>
        <rect x="0.8" y="0.8" width="3.165" height="3.165" fill="none"/>
      </g>
      <g id="사각형_211804" data-name="사각형 211804" transform="translate(6.824 6.324)" fill="#31d4c1" stroke="#21ccb9" stroke-width="1">
        <rect width="1.588" height="1.588" stroke="none"/>
        <rect x="0.5" y="0.5" width="0.588" height="0.588" fill="none"/>
      </g>
      <g id="사각형_211805" data-name="사각형 211805" transform="translate(10.001 6.324)" fill="#31d4c1" stroke="#21ccb9" stroke-width="1.5">
        <rect width="1.588" height="1.588" stroke="none"/>
        <rect x="0.75" y="0.75" width="0.088" height="0.088" fill="none"/>
      </g>
      <g id="사각형_211806" data-name="사각형 211806" transform="translate(8.413 7.913)" fill="#31d4c1" stroke="#21ccb9" stroke-width="1">
        <rect width="1.588" height="1.588" stroke="none"/>
        <rect x="0.5" y="0.5" width="0.588" height="0.588" fill="none"/>
      </g>
      <g id="사각형_211807" data-name="사각형 211807" transform="translate(6.824 9.501)" fill="#31d4c1" stroke="#21ccb9" stroke-width="1">
        <rect width="1.588" height="1.588" stroke="none"/>
        <rect x="0.5" y="0.5" width="0.588" height="0.588" fill="none"/>
      </g>
      <g id="사각형_211808" data-name="사각형 211808" transform="translate(10.001 9.501)" fill="#31d4c1" stroke="#21ccb9" stroke-width="1.5">
        <rect width="1.588" height="1.588" stroke="none"/>
        <rect x="0.75" y="0.75" width="0.088" height="0.088" fill="none"/>
      </g>
    </g>
  </g>
</svg>
