<svg xmlns="http://www.w3.org/2000/svg" width="24" height="24" viewBox="0 0 24 24"><defs><style>.a{fill:#008375;}.b{fill:#fff;}</style></defs><g transform="translate(-135 -571)"><circle class="a" cx="12" cy="12" r="12" transform="translate(135 571)"/><g transform="translate(140.655 576.592)"><path class="b" d="M62.314,204.454a2.216,2.216,0,0,0-.159-.541,2.659,2.659,0,0,0-1.071-1.24,2.407,2.407,0,0,0-2.48.015,2.182,2.182,0,0,0-.818.875,2.542,2.542,0,0,0-.154.384,2.69,2.69,0,0,0,.17,2.094,1.064,1.064,0,0,0,.5.437.726.726,0,0,0,.649-.051.689.689,0,0,0,.243-.726,1.9,1.9,0,0,1,.023-1.013.8.8,0,0,1,.18-.289.674.674,0,0,1,.171-.117.72.72,0,0,1,.428-.07.823.823,0,0,1,.576.47,1.9,1.9,0,0,1,.156.75,11.3,11.3,0,0,1-.5,3.356c-.029.111-.059.221-.091.331-.025.086-.068.194-.014.277a.212.212,0,0,0,.1.076c.166.067.3-.035.413-.147A5.982,5.982,0,0,0,62,206.937a7.594,7.594,0,0,0,.262-1,4.365,4.365,0,0,0,.05-1.483" transform="translate(-53.407 -197.121)"/><path class="b" d="M63.608,196.5a.285.285,0,0,0-.309-.273,1.494,1.494,0,0,0-.462.146,18.686,18.686,0,0,1-9.191.868c-.521-.076-1.049-.18-1.573-.262-.327-.051-.652-.125-.982-.15a1.185,1.185,0,0,0-.86.164.909.909,0,0,0-.109,1.076,2.429,2.429,0,0,0,.935.9,2.269,2.269,0,0,0,1.226.418q1.744-.11,3.48-.337a23.288,23.288,0,0,0,5.892-1.263,7.436,7.436,0,0,0,1.723-.966c.094-.072.229-.19.229-.326" transform="translate(-50 -194.345)"/><path class="b" d="M59.756,193.943a1.137,1.137,0,0,0,2.273,0,.635.635,0,0,0-.062-.272c-.1-.207-.207-.307-.2-.554.014-.334-.414-.339-.644-.339a1.671,1.671,0,0,0-.745.149,1.153,1.153,0,0,0-.446.4,1.131,1.131,0,0,0-.181.588c0,.009,0,.017,0,.026" transform="translate(-54.433 -192.778)"/></g></g></svg>