<svg xmlns="http://www.w3.org/2000/svg" xmlns:xlink="http://www.w3.org/1999/xlink" width="20" height="20" viewBox="0 0 20 20">
  <defs>
    <clipPath id="clip-path">
      <rect id="사각형_247937" data-name="사각형 247937" width="20" height="20" fill="none"/>
    </clipPath>
  </defs>
  <g id="환불_20x20" transform="translate(10 10)">
    <g id="그룹_324743" data-name="그룹 324743" transform="translate(-10 -10)" clip-path="url(#clip-path)">
      <g id="그룹_324742" data-name="그룹 324742" clip-path="url(#clip-path)">
        <g id="그룹_324741" data-name="그룹 324741" opacity="0">
          <g id="그룹_324740" data-name="그룹 324740" clip-path="url(#clip-path)">
            <rect id="사각형_247934" data-name="사각형 247934" width="20" height="20" fill="#f0f"/>
          </g>
        </g>
        <path id="패스_644792" data-name="패스 644792" d="M2.5,11.3a7.8,7.8,0,1,0,7.8-7.7H2.5" fill="none" stroke="#000111" stroke-linecap="round" stroke-miterlimit="10" stroke-width="1.5"/>
        <path id="패스_644793" data-name="패스 644793" d="M3.3,4.5l-1-.9L5.3.9" fill="none" stroke="#000111" stroke-linecap="round" stroke-miterlimit="10" stroke-width="1.5"/>
        <line id="선_89290" data-name="선 89290" x1="1.8" y1="1.6" transform="translate(3.3 4.5)" fill="none" stroke="#000111" stroke-linecap="square" stroke-miterlimit="10" stroke-width="1.5"/>
        <path id="패스_644794" data-name="패스 644794" d="M5.9,8.7H7.3L8,11.5h.8l.6-2.8h1.3l.7,2.8h.9L13,8.7h1.3l-.7,2.8h.7a.325.325,0,0,1,0,.6h-1l-.6,2.1a.7.7,0,0,1-.8.6l-.5-.2a.7.7,0,0,1-.3-.4l-.5-2.1H9.7l-.5,2.1a.7.7,0,0,1-.3.4l-.5.2a.7.7,0,0,1-.8-.6L7,12.1H6.1v-.9h.6Zm2.2,3.7v1.4h.1l.2-.9v-.5Zm2.3-.9-.3-1.4H10a12.4,12.4,0,0,1-.2,1.4Zm1.2.9.2,1.4h.1l.3-1.4Z"/>
      </g>
    </g>
  </g>
</svg>
