<svg xmlns="http://www.w3.org/2000/svg" xmlns:xlink="http://www.w3.org/1999/xlink" width="28" height="28.343" viewBox="0 0 28 28.343"><defs><style>.a,.b{fill:#fff;}.a{opacity:0;}.c{clip-path:url(#a);}.d,.e,.g{fill:none;}.d,.e{stroke:#111;stroke-width:1.5px;}.d{stroke-linecap:round;}.f{stroke:none;}</style><clipPath id="a"><rect class="a" width="28" height="28" transform="translate(6973 -3223.992)"/></clipPath></defs><g transform="translate(-6973 3223.992)"><path class="b" d="M2,0H20a2,2,0,0,1,2,2V23.343L17,18H2a2,2,0,0,1-2-2V2A2,2,0,0,1,2,0Z" transform="translate(6979 -3218.992)"/><g class="c"><path class="d" d="M6.4,2H23.6A2.407,2.407,0,0,1,26,4.4V26l-4.8-4.8H4.4A2.407,2.407,0,0,1,2,18.8V6.4" transform="translate(6973 -3223.992)"/><g transform="translate(-0.5)"><g class="e" transform="translate(6978 -3213.992)"><circle class="f" cx="2" cy="2" r="2"/><circle class="g" cx="2" cy="2" r="1.25"/></g><g class="e" transform="translate(6985 -3213.992)"><circle class="f" cx="2" cy="2" r="2"/><circle class="g" cx="2" cy="2" r="1.25"/></g><g class="e" transform="translate(6992 -3213.992)"><circle class="f" cx="2" cy="2" r="2"/><circle class="g" cx="2" cy="2" r="1.25"/></g></g></g></g></svg>