<svg xmlns="http://www.w3.org/2000/svg" xmlns:xlink="http://www.w3.org/1999/xlink" width="99" height="98" viewBox="0 0 99 98">
  <defs>
    <clipPath id="clip-path">
      <rect id="사각형_318396" data-name="사각형 318396" width="86.496" height="86.496" fill="none"/>
    </clipPath>
    <clipPath id="clip-path-3">
      <rect id="사각형_318382" data-name="사각형 318382" width="12.218" height="6.31" fill="none"/>
    </clipPath>
    <clipPath id="clip-path-4">
      <rect id="사각형_318383" data-name="사각형 318383" width="12.693" height="6.308" fill="none"/>
    </clipPath>
    <clipPath id="clip-path-5">
      <rect id="사각형_318384" data-name="사각형 318384" width="8.931" height="25.071" fill="none"/>
    </clipPath>
    <clipPath id="clip-path-6">
      <rect id="사각형_318385" data-name="사각형 318385" width="1.233" height="2.167" fill="none"/>
    </clipPath>
    <clipPath id="clip-path-7">
      <rect id="사각형_318386" data-name="사각형 318386" width="4" height="3.531" fill="none"/>
    </clipPath>
    <clipPath id="clip-path-8">
      <rect id="사각형_318387" data-name="사각형 318387" width="3.784" height="1.429" fill="none"/>
    </clipPath>
    <clipPath id="clip-path-9">
      <rect id="사각형_318388" data-name="사각형 318388" width="3.092" height="3.103" fill="none"/>
    </clipPath>
    <clipPath id="clip-path-10">
      <rect id="사각형_318391" data-name="사각형 318391" width="3.59" height="4.394" fill="none"/>
    </clipPath>
    <clipPath id="clip-path-11">
      <rect id="사각형_318392" data-name="사각형 318392" width="3.979" height="4.524" fill="none"/>
    </clipPath>
    <clipPath id="clip-path-12">
      <rect id="사각형_318393" data-name="사각형 318393" width="2.357" height="4.169" fill="none"/>
    </clipPath>
    <clipPath id="clip-path-13">
      <rect id="사각형_318394" data-name="사각형 318394" width="5.579" height="33.76" fill="none"/>
    </clipPath>
  </defs>
  <g id="새벽세차_일러스트" transform="translate(0.001 0)">
    <ellipse id="타원_7390" data-name="타원 7390" cx="23.246" cy="23.246" rx="23.246" ry="23.246" transform="translate(12.609 0)" fill="#111"/>
    <g id="그룹_16287" data-name="그룹 16287" transform="translate(0 6.097)">
      <path id="패스_34865" data-name="패스 34865" d="M2062.134,1038.552l.525.177a.143.143,0,0,0,.181-.181l-.177-.524a.143.143,0,0,1,.021-.131l.332-.444a.142.142,0,0,0-.116-.227l-.554.008a.142.142,0,0,1-.118-.06l-.32-.452a.143.143,0,0,0-.253.04l-.165.529a.145.145,0,0,1-.094.094l-.53.165a.142.142,0,0,0-.04.252l.452.319a.142.142,0,0,1,.06.118l-.008.554a.143.143,0,0,0,.228.116l.445-.332A.143.143,0,0,1,2062.134,1038.552Z" transform="translate(-2023.556 -1032.47)" fill="#fff"/>
      <path id="패스_34866" data-name="패스 34866" d="M3069.357,1561.386l-.332-.046a.085.085,0,0,1-.065-.047l-.15-.3a.086.086,0,0,0-.155,0l-.147.3a.089.089,0,0,1-.065.048l-.332.051a.086.086,0,0,0-.047.148l.241.232a.086.086,0,0,1,.025.076l-.055.331a.086.086,0,0,0,.125.09l.3-.159a.087.087,0,0,1,.08,0l.3.154a.087.087,0,0,0,.125-.092l-.059-.331a.088.088,0,0,1,.024-.077l.239-.236A.086.086,0,0,0,3069.357,1561.386Z" transform="translate(-3001.431 -1541.457)" fill="#fff"/>
      <path id="패스_34867" data-name="패스 34867" d="M3693.859,2989.234l-.151-.3a.086.086,0,0,0-.155,0l-.146.3a.088.088,0,0,1-.065.048l-.332.051a.086.086,0,0,0-.047.147l.241.232a.088.088,0,0,1,.025.076l-.054.332a.086.086,0,0,0,.125.09l.3-.159a.086.086,0,0,1,.081,0l.3.153a.087.087,0,0,0,.125-.092l-.059-.331a.086.086,0,0,1,.024-.077l.24-.236a.086.086,0,0,0-.049-.146l-.332-.046A.084.084,0,0,1,3693.859,2989.234Z" transform="translate(-3608.091 -2927.719)" fill="#fff"/>
      <path id="패스_34868" data-name="패스 34868" d="M2223.028,1460.665l-.245.5a.144.144,0,0,1-.108.079l-.55.081a.144.144,0,0,0-.08.245l.4.389a.144.144,0,0,1,.041.127l-.093.55a.143.143,0,0,0,.207.151l.492-.26a.142.142,0,0,1,.134,0l.493.259a.143.143,0,0,0,.207-.152l-.095-.549a.144.144,0,0,1,.041-.127l.4-.39a.143.143,0,0,0-.08-.244l-.551-.08a.144.144,0,0,1-.108-.078l-.247-.5A.143.143,0,0,0,2223.028,1460.665Z" transform="translate(-2180.087 -1444.024)" fill="#fff"/>
      <path id="패스_34869" data-name="패스 34869" d="M4018.014,2161.809l-.551-.079a.145.145,0,0,1-.108-.079l-.247-.5a.142.142,0,0,0-.256,0l-.245.5a.145.145,0,0,1-.108.079l-.55.081a.144.144,0,0,0-.08.245l.4.389a.146.146,0,0,1,.042.127l-.094.55a.143.143,0,0,0,.208.151l.492-.26a.142.142,0,0,1,.133,0l.493.259a.143.143,0,0,0,.208-.152l-.095-.549a.14.14,0,0,1,.041-.127l.4-.39A.144.144,0,0,0,4018.014,2161.809Z" transform="translate(-3921.555 -2124.066)" fill="#fff"/>
      <path id="패스_34870" data-name="패스 34870" d="M3498.912,3566.323l-.524-.079a.136.136,0,0,1-.1-.079l-.235-.5a.133.133,0,0,0-.244,0l-.234.5a.137.137,0,0,1-.1.078l-.524.081a.146.146,0,0,0-.075.245l.379.389a.148.148,0,0,1,.04.127l-.089.55a.138.138,0,0,0,.2.151l.467-.26a.132.132,0,0,1,.127,0l.469.259a.138.138,0,0,0,.2-.151l-.09-.55a.148.148,0,0,1,.039-.127l.378-.39A.146.146,0,0,0,3498.912,3566.323Z" transform="translate(-3417.707 -3487.587)" fill="#fff"/>
      <path id="패스_34871" data-name="패스 34871" d="M1218.462,2055.894l-.551-.079a.144.144,0,0,1-.108-.079l-.247-.5a.143.143,0,0,0-.257,0l-.245.5a.146.146,0,0,1-.108.079l-.55.081a.144.144,0,0,0-.079.245l.4.388a.144.144,0,0,1,.042.127l-.093.55a.143.143,0,0,0,.208.151l.492-.26a.14.14,0,0,1,.133,0l.493.259a.143.143,0,0,0,.207-.152l-.095-.549a.143.143,0,0,1,.041-.127l.4-.39A.144.144,0,0,0,1218.462,2055.894Z" transform="translate(-1203.713 -2021.243)" fill="#fff"/>
      <path id="패스_34872" data-name="패스 34872" d="M3568.266,1312.689l-.221-.032a.057.057,0,0,1-.044-.031l-.1-.2a.058.058,0,0,0-.1,0l-.1.2a.058.058,0,0,1-.043.032l-.222.033a.057.057,0,0,0-.031.1l.16.156a.057.057,0,0,1,.016.051l-.037.221a.057.057,0,0,0,.084.061l.2-.1a.059.059,0,0,1,.054,0l.2.1a.058.058,0,0,0,.083-.061l-.038-.221a.056.056,0,0,1,.016-.051l.16-.157A.058.058,0,0,0,3568.266,1312.689Z" transform="translate(-3486.204 -1300.157)" fill="#fff"/>
      <path id="패스_34873" data-name="패스 34873" d="M3387.183,1117.956l-.222-.032a.055.055,0,0,1-.043-.031l-.1-.2a.058.058,0,0,0-.1,0l-.1.2a.058.058,0,0,1-.043.032l-.221.032a.058.058,0,0,0-.032.1l.16.157a.058.058,0,0,1,.017.051l-.038.221a.058.058,0,0,0,.084.061l.2-.1a.057.057,0,0,1,.053,0l.2.1a.058.058,0,0,0,.084-.061l-.039-.221a.059.059,0,0,1,.017-.051l.16-.157A.058.058,0,0,0,3387.183,1117.956Z" transform="translate(-3310.406 -1111.107)" fill="#fff"/>
      <path id="패스_34874" data-name="패스 34874" d="M3970.116,1894.927a.061.061,0,0,1,.017.051l-.038.221a.057.057,0,0,0,.083.061l.2-.1a.059.059,0,0,1,.054,0l.2.1a.058.058,0,0,0,.084-.061l-.038-.221a.056.056,0,0,1,.016-.051l.16-.157a.058.058,0,0,0-.032-.1l-.221-.032a.058.058,0,0,1-.043-.031l-.1-.2a.057.057,0,0,0-.1,0l-.1.2a.06.06,0,0,1-.044.032l-.221.032a.058.058,0,0,0-.032.1Z" transform="translate(-3877.007 -1865.152)" fill="#fff"/>
      <path id="패스_34875" data-name="패스 34875" d="M2879.167,3626.6l-.221-.032a.057.057,0,0,1-.044-.031l-.1-.2a.057.057,0,0,0-.1,0l-.1.2a.055.055,0,0,1-.043.031l-.221.032a.058.058,0,0,0-.032.1l.16.156a.058.058,0,0,1,.016.051l-.037.221a.058.058,0,0,0,.083.061l.2-.1a.054.054,0,0,1,.053,0l.2.1a.057.057,0,0,0,.083-.061l-.038-.221a.056.056,0,0,1,.016-.051l.16-.157A.058.058,0,0,0,2879.167,3626.6Z" transform="translate(-2817.217 -3546.529)" fill="#fff"/>
      <path id="패스_34876" data-name="패스 34876" d="M4112.182,2533.32a.062.062,0,0,0-.026-.1l-.178-.032a.051.051,0,0,1-.036-.031l-.079-.2a.043.043,0,0,0-.083,0l-.08.2a.051.051,0,0,1-.035.031l-.179.032a.063.063,0,0,0-.025.1l.129.157a.066.066,0,0,1,.014.051l-.031.221c-.006.047.034.084.067.061l.16-.1a.038.038,0,0,1,.042,0l.16.1c.034.022.073-.014.066-.061l-.029-.221a.064.064,0,0,1,.014-.051Z" transform="translate(-4014.385 -2485.065)" fill="#fff"/>
      <path id="패스_34877" data-name="패스 34877" d="M786.109,2562.4l-.037.221a.057.057,0,0,0,.084.061l.2-.1a.059.059,0,0,1,.054,0l.2.1a.057.057,0,0,0,.083-.061l-.038-.221a.058.058,0,0,1,.016-.051l.16-.157a.058.058,0,0,0-.032-.1l-.222-.032a.056.056,0,0,1-.043-.031l-.1-.2a.057.057,0,0,0-.1,0l-.1.2a.059.059,0,0,1-.043.032l-.222.033a.057.057,0,0,0-.032.1l.161.156A.059.059,0,0,1,786.109,2562.4Z" transform="translate(-785.914 -2513.092)" fill="#fff"/>
      <path id="패스_34878" data-name="패스 34878" d="M3338.852,3324.085l-.222-.032a.057.057,0,0,1-.043-.031l-.1-.2a.058.058,0,0,0-.1,0l-.1.2a.06.06,0,0,1-.043.032l-.222.032a.058.058,0,0,0-.032.1l.161.156a.057.057,0,0,1,.017.051l-.037.221a.057.057,0,0,0,.083.061l.2-.1a.057.057,0,0,1,.053,0l.2.1a.058.058,0,0,0,.084-.061l-.038-.221a.056.056,0,0,1,.016-.051l.16-.157A.058.058,0,0,0,3338.852,3324.085Z" transform="translate(-3263.486 -3252.847)" fill="#fff"/>
      <path id="패스_34879" data-name="패스 34879" d="M2432.93,1240.2a.057.057,0,0,1,.017.051l-.038.221a.057.057,0,0,0,.083.061l.2-.1a.058.058,0,0,1,.054,0l.2.1a.058.058,0,0,0,.084-.061l-.038-.221a.058.058,0,0,1,.017-.052l.16-.157a.058.058,0,0,0-.032-.1l-.222-.032a.057.057,0,0,1-.044-.031l-.1-.2a.058.058,0,0,0-.1,0l-.1.2a.058.058,0,0,1-.043.032l-.221.032a.058.058,0,0,0-.032.1Z" transform="translate(-2384.686 -1229.535)" fill="#fff"/>
      <path id="패스_34880" data-name="패스 34880" d="M3600.133,1841.167l-.221-.032a.058.058,0,0,1-.043-.031l-.1-.2a.057.057,0,0,0-.1,0l-.1.2a.058.058,0,0,1-.043.031l-.222.033a.058.058,0,0,0-.032.1l.161.157a.058.058,0,0,1,.017.051l-.038.221a.058.058,0,0,0,.083.061l.2-.1a.058.058,0,0,1,.054,0l.2.1a.057.057,0,0,0,.083-.061l-.038-.221a.057.057,0,0,1,.016-.051l.16-.157A.058.058,0,0,0,3600.133,1841.167Z" transform="translate(-3517.141 -1813.21)" fill="#fff"/>
      <path id="패스_34881" data-name="패스 34881" d="M1646.066,1103.146l.2.1a.058.058,0,0,0,.083-.061l-.038-.221a.057.057,0,0,1,.016-.051l.16-.157a.058.058,0,0,0-.032-.1l-.222-.032a.057.057,0,0,1-.043-.032l-.1-.2a.058.058,0,0,0-.1,0l-.1.2a.057.057,0,0,1-.043.031l-.222.033a.058.058,0,0,0-.032.1l.161.156a.058.058,0,0,1,.016.051l-.038.221a.058.058,0,0,0,.084.061l.2-.1A.058.058,0,0,1,1646.066,1103.146Z" transform="translate(-1620.483 -1096.26)" fill="#fff"/>
      <path id="패스_34882" data-name="패스 34882" d="M2863.264,1925.358a.058.058,0,0,0-.032-.1l-.222-.032a.057.057,0,0,1-.043-.032l-.1-.2a.058.058,0,0,0-.1,0l-.1.2a.058.058,0,0,1-.043.032l-.221.032a.058.058,0,0,0-.032.1l.16.156a.058.058,0,0,1,.017.051l-.038.221a.058.058,0,0,0,.084.061l.2-.105a.059.059,0,0,1,.054,0l.2.1a.058.058,0,0,0,.083-.061l-.038-.221a.056.056,0,0,1,.016-.051Z" transform="translate(-2801.747 -1894.848)" fill="#fff"/>
      <path id="패스_34883" data-name="패스 34883" d="M1931.737,2416.573l-.347-.05a.092.092,0,0,1-.068-.05l-.155-.314a.09.09,0,0,0-.162,0l-.154.315a.092.092,0,0,1-.068.05l-.347.051a.091.091,0,0,0-.05.154l.251.244a.092.092,0,0,1,.026.08l-.059.346a.09.09,0,0,0,.131.095l.31-.163a.089.089,0,0,1,.084,0l.31.163a.09.09,0,0,0,.13-.1l-.06-.346a.091.091,0,0,1,.026-.08l.25-.245A.09.09,0,0,0,1931.737,2416.573Z" transform="translate(-1896.958 -2371.658)" fill="#fff"/>
      <path id="패스_34884" data-name="패스 34884" d="M1256.748,1623.587l-.222-.032a.057.057,0,0,1-.043-.031l-.1-.2a.057.057,0,0,0-.1,0l-.1.2a.058.058,0,0,1-.043.032l-.222.032a.058.058,0,0,0-.032.1l.161.156a.058.058,0,0,1,.016.051l-.037.221a.057.057,0,0,0,.083.061l.2-.1a.057.057,0,0,1,.053,0l.2.1a.058.058,0,0,0,.083-.061l-.038-.221a.059.059,0,0,1,.016-.051l.16-.157A.058.058,0,0,0,1256.748,1623.587Z" transform="translate(-1242.151 -1601.98)" fill="#fff"/>
      <path id="패스_34885" data-name="패스 34885" d="M1006.82,1879.377l-.222-.032a.057.057,0,0,1-.044-.031l-.1-.2a.057.057,0,0,0-.1,0l-.1.2a.058.058,0,0,1-.043.031l-.222.033a.057.057,0,0,0-.032.1l.16.157a.058.058,0,0,1,.017.051l-.037.221a.058.058,0,0,0,.083.061l.2-.1a.056.056,0,0,1,.054,0l.2.1a.058.058,0,0,0,.083-.061l-.038-.221a.056.056,0,0,1,.016-.051l.16-.157A.058.058,0,0,0,1006.82,1879.377Z" transform="translate(-999.518 -1850.305)" fill="#fff"/>
      <path id="패스_34886" data-name="패스 34886" d="M2954.752,2973.889l-.222-.032a.058.058,0,0,1-.043-.032l-.1-.2a.057.057,0,0,0-.1,0l-.1.2a.057.057,0,0,1-.043.032l-.222.033a.058.058,0,0,0-.032.1l.161.156a.057.057,0,0,1,.017.051l-.038.221a.058.058,0,0,0,.083.061l.2-.1a.06.06,0,0,1,.054,0l.2.1a.058.058,0,0,0,.083-.061l-.038-.221a.059.059,0,0,1,.017-.052l.16-.157A.058.058,0,0,0,2954.752,2973.889Z" transform="translate(-2890.597 -2912.872)" fill="#fff"/>
      <path id="패스_34887" data-name="패스 34887" d="M817.393,2277.61l-.222-.032a.056.056,0,0,1-.043-.032l-.1-.2a.058.058,0,0,0-.1,0l-.1.2a.058.058,0,0,1-.043.032l-.221.033a.058.058,0,0,0-.032.1l.161.156a.058.058,0,0,1,.017.051l-.038.222a.058.058,0,0,0,.084.06l.2-.1a.055.055,0,0,1,.054,0l.2.1a.058.058,0,0,0,.083-.061l-.038-.221a.059.059,0,0,1,.016-.052l.16-.157A.058.058,0,0,0,817.393,2277.61Z" transform="translate(-815.619 -2236.915)" fill="#fff"/>
      <path id="패스_34888" data-name="패스 34888" d="M1243.752,2587.66l-.178-.033a.048.048,0,0,1-.035-.031l-.079-.2a.043.043,0,0,0-.083,0l-.08.2a.047.047,0,0,1-.035.031l-.178.032a.062.062,0,0,0-.026.1l.129.157a.067.067,0,0,1,.013.051l-.031.222c-.006.046.033.083.067.06l.16-.1a.038.038,0,0,1,.043,0l.159.1c.034.023.074-.013.068-.061l-.031-.221a.069.069,0,0,1,.013-.051l.129-.156A.062.062,0,0,0,1243.752,2587.66Z" transform="translate(-1229.701 -2537.914)" fill="#fff"/>
      <path id="패스_34889" data-name="패스 34889" d="M3417.943,2417.6l-.222-.032a.058.058,0,0,1-.043-.031l-.1-.2a.058.058,0,0,0-.1,0l-.1.2a.061.061,0,0,1-.044.032l-.222.032a.058.058,0,0,0-.031.1l.16.156a.056.056,0,0,1,.016.051l-.037.221a.057.057,0,0,0,.083.061l.2-.1a.056.056,0,0,1,.054,0l.2.1a.057.057,0,0,0,.083-.061l-.038-.221a.057.057,0,0,1,.017-.051l.16-.157A.058.058,0,0,0,3417.943,2417.6Z" transform="translate(-3340.267 -2372.823)" fill="#fff"/>
      <path id="패스_34890" data-name="패스 34890" d="M849.487,2865.715l-.222-.032a.056.056,0,0,1-.043-.031l-.1-.2a.057.057,0,0,0-.1,0l-.1.2a.057.057,0,0,1-.043.031l-.222.032a.058.058,0,0,0-.032.1l.161.156a.057.057,0,0,1,.016.051l-.037.222a.057.057,0,0,0,.084.06l.2-.1a.058.058,0,0,1,.054,0l.2.1a.058.058,0,0,0,.083-.061l-.038-.221a.058.058,0,0,1,.017-.051l.16-.157A.058.058,0,0,0,849.487,2865.715Z" transform="translate(-846.776 -2807.854)" fill="#fff"/>
      <path id="패스_34891" data-name="패스 34891" d="M4024.326,2881.536l-.038-.221a.057.057,0,0,1,.016-.051l.16-.157a.058.058,0,0,0-.032-.1l-.221-.032a.058.058,0,0,1-.043-.031l-.1-.2a.058.058,0,0,0-.1,0l-.1.2a.058.058,0,0,1-.043.031l-.221.033a.058.058,0,0,0-.033.1l.162.157a.058.058,0,0,1,.016.051l-.037.221a.058.058,0,0,0,.084.061l.2-.105a.059.059,0,0,1,.054,0l.2.1A.058.058,0,0,0,4024.326,2881.536Z" transform="translate(-3929.056 -2822.702)" fill="#fff"/>
      <path id="패스_34892" data-name="패스 34892" d="M1911.068,3019.72l-.222-.032a.06.06,0,0,1-.043-.031l-.1-.2a.057.057,0,0,0-.1,0l-.1.2a.059.059,0,0,1-.043.032l-.222.032a.058.058,0,0,0-.032.1l.161.156a.058.058,0,0,1,.017.051l-.038.221a.058.058,0,0,0,.084.061l.2-.1a.058.058,0,0,1,.053,0l.2.1a.058.058,0,0,0,.083-.061l-.038-.221a.06.06,0,0,1,.017-.052l.16-.157A.057.057,0,0,0,1911.068,3019.72Z" transform="translate(-1877.374 -2957.365)" fill="#fff"/>
      <path id="패스_34893" data-name="패스 34893" d="M1656.382,2130.011l-.222-.032a.057.057,0,0,1-.043-.031l-.1-.2a.058.058,0,0,0-.1,0l-.1.2a.057.057,0,0,1-.043.032l-.221.033a.058.058,0,0,0-.032.1l.161.156a.057.057,0,0,1,.017.051l-.038.222a.057.057,0,0,0,.084.06l.2-.1a.057.057,0,0,1,.054,0l.2.1a.058.058,0,0,0,.083-.061l-.038-.221a.058.058,0,0,1,.016-.051l.16-.157A.058.058,0,0,0,1656.382,2130.011Z" transform="translate(-1630.121 -2093.624)" fill="#fff"/>
      <path id="패스_34894" data-name="패스 34894" d="M3825.22,2426.809l-.222-.032a.058.058,0,0,1-.043-.031l-.1-.2a.058.058,0,0,0-.1,0l-.1.2a.056.056,0,0,1-.043.032l-.222.032a.058.058,0,0,0-.032.1l.161.156a.055.055,0,0,1,.016.051l-.037.221a.058.058,0,0,0,.083.061l.2-.1a.057.057,0,0,1,.054,0l.2.1a.057.057,0,0,0,.083-.061l-.038-.221a.057.057,0,0,1,.017-.051l.159-.157A.057.057,0,0,0,3825.22,2426.809Z" transform="translate(-3735.659 -2381.759)" fill="#fff"/>
      <path id="패스_34895" data-name="패스 34895" d="M2550.706,3833.013l-.221-.032a.054.054,0,0,1-.043-.031l-.1-.2a.057.057,0,0,0-.1,0l-.1.2a.061.061,0,0,1-.044.031l-.222.033a.058.058,0,0,0-.032.1l.161.156a.057.057,0,0,1,.016.051l-.037.221a.057.057,0,0,0,.083.061l.2-.1a.057.057,0,0,1,.054,0l.2.1a.057.057,0,0,0,.083-.061l-.038-.221a.058.058,0,0,1,.016-.051l.16-.157A.058.058,0,0,0,2550.706,3833.013Z" transform="translate(-2498.343 -3746.921)" fill="#fff"/>
      <path id="패스_34896" data-name="패스 34896" d="M2111.95,3997.95l-.222-.031a.053.053,0,0,1-.043-.033l-.1-.2a.057.057,0,0,0-.1,0l-.1.2a.057.057,0,0,1-.043.032l-.222.033a.058.058,0,0,0-.031.1l.16.156a.058.058,0,0,1,.017.05l-.037.222a.057.057,0,0,0,.083.06l.2-.1a.055.055,0,0,1,.053,0l.2.1a.057.057,0,0,0,.083-.061l-.038-.222a.055.055,0,0,1,.016-.05l.16-.157A.058.058,0,0,0,2111.95,3997.95Z" transform="translate(-2072.393 -3907.044)" fill="#fff"/>
      <path id="패스_34897" data-name="패스 34897" d="M3143.463,3845.3l-.221-.032a.057.057,0,0,1-.043-.031l-.1-.2a.057.057,0,0,0-.1,0l-.1.2a.063.063,0,0,1-.043.032l-.221.032a.058.058,0,0,0-.032.1l.161.156a.06.06,0,0,1,.017.051l-.038.222a.058.058,0,0,0,.084.06l.2-.1a.057.057,0,0,1,.054,0l.2.1a.058.058,0,0,0,.084-.062l-.038-.22a.057.057,0,0,1,.016-.051l.16-.157A.058.058,0,0,0,3143.463,3845.3Z" transform="translate(-3073.8 -3758.851)" fill="#fff"/>
      <path id="패스_34898" data-name="패스 34898" d="M2111.951,3495.778l-.222-.032a.058.058,0,0,1-.043-.031l-.1-.2a.058.058,0,0,0-.1,0l-.1.2a.057.057,0,0,1-.043.031l-.222.033a.058.058,0,0,0-.031.1l.161.156a.061.061,0,0,1,.017.052l-.038.221a.058.058,0,0,0,.084.061l.2-.1a.057.057,0,0,1,.053,0l.2.1a.057.057,0,0,0,.083-.061l-.038-.221a.059.059,0,0,1,.016-.051l.16-.157A.058.058,0,0,0,2111.951,3495.778Z" transform="translate(-2072.393 -3419.529)" fill="#fff"/>
      <path id="패스_34899" data-name="패스 34899" d="M2779.668,3982.655l-.222-.031a.057.057,0,0,1-.043-.032l-.1-.2a.057.057,0,0,0-.1,0l-.1.2a.056.056,0,0,1-.043.032l-.221.033a.057.057,0,0,0-.032.1l.16.156a.059.059,0,0,1,.017.051l-.038.221a.058.058,0,0,0,.083.062l.2-.1a.054.054,0,0,1,.053,0l.2.1a.057.057,0,0,0,.083-.061l-.038-.221a.059.059,0,0,1,.016-.051l.16-.157A.058.058,0,0,0,2779.668,3982.655Z" transform="translate(-2720.622 -3892.196)" fill="#fff"/>
      <path id="패스_34900" data-name="패스 34900" d="M3322.918,1430.294l-.221-.032a.057.057,0,0,1-.044-.032l-.1-.2a.057.057,0,0,0-.1,0l-.1.2a.059.059,0,0,1-.043.031l-.222.033a.058.058,0,0,0-.032.1l.161.156a.06.06,0,0,1,.017.051l-.038.221a.057.057,0,0,0,.083.061l.2-.1a.057.057,0,0,1,.053,0l.2.1a.058.058,0,0,0,.083-.061l-.038-.221a.057.057,0,0,1,.016-.051l.16-.157A.057.057,0,0,0,3322.918,1430.294Z" transform="translate(-3248.017 -1414.329)" fill="#fff"/>
      <path id="패스_34901" data-name="패스 34901" d="M1598.653,3308.791l-.222-.032a.058.058,0,0,1-.043-.031l-.1-.2a.057.057,0,0,0-.1,0l-.1.2a.059.059,0,0,1-.043.032l-.222.033a.057.057,0,0,0-.032.1l.16.156a.057.057,0,0,1,.017.051l-.038.222a.058.058,0,0,0,.084.061l.2-.1a.058.058,0,0,1,.053,0l.2.1a.057.057,0,0,0,.083-.061l-.038-.221a.058.058,0,0,1,.017-.051l.16-.157A.058.058,0,0,0,1598.653,3308.791Z" transform="translate(-1574.077 -3237.999)" fill="#fff"/>
      <path id="패스_34902" data-name="패스 34902" d="M2015.991,947.231a.057.057,0,0,1,.016.051l-.038.221a.058.058,0,0,0,.084.061l.2-.1a.057.057,0,0,1,.054,0l.2.1a.058.058,0,0,0,.083-.061l-.038-.221a.057.057,0,0,1,.017-.051l.16-.157a.058.058,0,0,0-.032-.1l-.221-.032a.058.058,0,0,1-.044-.032l-.1-.2a.058.058,0,0,0-.1,0l-.1.2a.058.058,0,0,1-.043.032l-.222.033a.058.058,0,0,0-.031.1Z" transform="translate(-1979.916 -945.116)" fill="#fff"/>
      <path id="패스_34903" data-name="패스 34903" d="M2746.631,893.728a.058.058,0,0,1,.016.051l-.037.221a.058.058,0,0,0,.084.061l.2-.1a.057.057,0,0,1,.053,0l.2.1a.057.057,0,0,0,.083-.061l-.038-.221a.056.056,0,0,1,.016-.051l.16-.157a.058.058,0,0,0-.032-.1l-.221-.032a.059.059,0,0,1-.044-.032l-.1-.2a.057.057,0,0,0-.1,0l-.1.2a.058.058,0,0,1-.043.032l-.221.033a.058.058,0,0,0-.032.1Z" transform="translate(-2689.231 -893.175)" fill="#fff"/>
      <path id="패스_34904" data-name="패스 34904" d="M1760.944,1445.844a.059.059,0,0,1,.017.051l-.038.221a.058.058,0,0,0,.084.061l.2-.1a.059.059,0,0,1,.054,0l.2.1a.058.058,0,0,0,.083-.061l-.039-.221a.058.058,0,0,1,.017-.051l.16-.157a.058.058,0,0,0-.032-.1l-.222-.032a.058.058,0,0,1-.043-.032l-.1-.2a.058.058,0,0,0-.1,0l-.1.2a.058.058,0,0,1-.044.032l-.221.033a.058.058,0,0,0-.032.1Z" transform="translate(-1732.314 -1429.177)" fill="#fff"/>
      <path id="패스_34905" data-name="패스 34905" d="M2969.983,1297.652a.057.057,0,0,1,.017.051l-.038.221a.058.058,0,0,0,.084.061l.2-.1a.059.059,0,0,1,.054,0l.2.1a.058.058,0,0,0,.084-.061l-.038-.221a.058.058,0,0,1,.017-.051l.16-.157a.058.058,0,0,0-.032-.1l-.222-.032a.058.058,0,0,1-.043-.031l-.1-.2a.058.058,0,0,0-.1,0l-.1.2a.057.057,0,0,1-.043.031l-.221.033a.058.058,0,0,0-.032.1Z" transform="translate(-2906.065 -1285.31)" fill="#fff"/>
      <path id="패스_34906" data-name="패스 34906" d="M2667.09,1522.8l.145.141.015.015a.059.059,0,0,1,.017.051l-.038.221a.058.058,0,0,0,.084.061l.2-.1a.055.055,0,0,1,.053,0l.2.1a.057.057,0,0,0,.083-.061l-.038-.221a.058.058,0,0,1,.017-.051l.159-.157a.058.058,0,0,0-.032-.1l-.222-.032a.059.059,0,0,1-.044-.031l-.1-.2a.057.057,0,0,0-.1,0l-.1.2a.058.058,0,0,1-.043.032l-.125.018-.1.014A.058.058,0,0,0,2667.09,1522.8Z" transform="translate(-2612.168 -1504.034)" fill="#fff"/>
      <path id="패스_34907" data-name="패스 34907" d="M3589.475,1573.792l-.105-.608a.161.161,0,0,1,.045-.141l.44-.431a.159.159,0,0,0-.088-.27l-.609-.088a.157.157,0,0,1-.119-.086l-.273-.553a.158.158,0,0,0-.284,0l-.272.553a.157.157,0,0,1-.119.087l-.608.089a.159.159,0,0,0-.087.271l.441.43a.159.159,0,0,1,.046.14l-.1.608a.158.158,0,0,0,.23.167l.544-.288a.158.158,0,0,1,.147,0l.545.286A.158.158,0,0,0,3589.475,1573.792Z" transform="translate(-3505.584 -1551.729)" fill="#fff"/>
      <path id="패스_34908" data-name="패스 34908" d="M1374.562,1271.9a.159.159,0,0,1,.046.14l-.1.608a.158.158,0,0,0,.23.167l.544-.288a.157.157,0,0,1,.147,0l.545.286a.158.158,0,0,0,.229-.167l-.1-.608a.158.158,0,0,1,.045-.14l.44-.431a.159.159,0,0,0-.088-.27l-.609-.088a.159.159,0,0,1-.119-.087l-.273-.553a.158.158,0,0,0-.284,0l-.271.553a.158.158,0,0,1-.119.087l-.609.089a.159.159,0,0,0-.087.271Z" transform="translate(-1356.907 -1259.369)" fill="#fff"/>
      <path id="패스_34909" data-name="패스 34909" d="M3826.758,3240.574l-.609-.088a.161.161,0,0,1-.119-.086l-.273-.552a.158.158,0,0,0-.284,0l-.271.553a.158.158,0,0,1-.119.087l-.608.09a.159.159,0,0,0-.088.271l.441.43a.159.159,0,0,1,.046.14l-.1.608a.159.159,0,0,0,.23.167l.544-.288a.158.158,0,0,1,.147,0l.545.286a.159.159,0,0,0,.23-.168l-.105-.607a.158.158,0,0,1,.045-.14l.44-.431A.159.159,0,0,0,3826.758,3240.574Z" transform="translate(-3735.658 -3171.269)" fill="#fff"/>
      <path id="패스_34910" data-name="패스 34910" d="M2553.226,1077.163a.158.158,0,0,1,.046.14l-.1.608a.158.158,0,0,0,.229.167l.544-.288a.157.157,0,0,1,.147,0l.545.286a.158.158,0,0,0,.229-.167l-.1-.608a.159.159,0,0,1,.045-.14l.44-.431a.159.159,0,0,0-.088-.27l-.609-.088a.16.16,0,0,1-.12-.087l-.273-.552a.158.158,0,0,0-.284,0l-.271.553a.158.158,0,0,1-.119.087l-.609.089a.159.159,0,0,0-.087.271Z" transform="translate(-2501.17 -1070.318)" fill="#fff"/>
      <path id="패스_34911" data-name="패스 34911" d="M3119.88,915.53l-.609-.088a.16.16,0,0,1-.12-.087l-.273-.553a.158.158,0,0,0-.283,0l-.272.553a.156.156,0,0,1-.119.087l-.609.09a.158.158,0,0,0-.087.27l.441.43a.161.161,0,0,1,.045.141l-.1.608a.158.158,0,0,0,.23.167l.544-.288a.158.158,0,0,1,.147,0l.545.286a.158.158,0,0,0,.229-.167l-.1-.608a.159.159,0,0,1,.045-.14l.44-.431A.159.159,0,0,0,3119.88,915.53Z" transform="translate(-3049.411 -914.086)" fill="#fff"/>
      <path id="패스_34912" data-name="패스 34912" d="M1239.908,3222.337l-.609-.088a.158.158,0,0,1-.119-.087l-.273-.553a.158.158,0,0,0-.284,0l-.271.553a.157.157,0,0,1-.119.086l-.609.09a.159.159,0,0,0-.087.271l.441.43a.158.158,0,0,1,.046.14l-.1.609a.158.158,0,0,0,.23.167l.544-.288a.155.155,0,0,1,.147,0l.545.285a.158.158,0,0,0,.229-.167l-.105-.607a.159.159,0,0,1,.046-.14l.44-.431A.158.158,0,0,0,1239.908,3222.337Z" transform="translate(-1224.309 -3153.565)" fill="#fff"/>
      <path id="패스_34913" data-name="패스 34913" d="M1761.646,3719.234l-.221-.032a.057.057,0,0,1-.044-.031l-.1-.2a.058.058,0,0,0-.1,0l-.1.2a.059.059,0,0,1-.043.031l-.221.032a.058.058,0,0,0-.032.1l.161.156a.057.057,0,0,1,.017.051l-.037.221a.057.057,0,0,0,.083.06l.2-.1a.055.055,0,0,1,.054,0l.2.1a.058.058,0,0,0,.083-.061l-.038-.22a.058.058,0,0,1,.016-.051l.16-.157A.058.058,0,0,0,1761.646,3719.234Z" transform="translate(-1732.313 -3636.463)" fill="#fff"/>
      <path id="패스_34914" data-name="패스 34914" d="M2417.7,3293.5l-.222-.032a.057.057,0,0,1-.043-.031l-.1-.2a.058.058,0,0,0-.1,0l-.1.2a.059.059,0,0,1-.043.032l-.221.032a.058.058,0,0,0-.032.1l.161.156a.06.06,0,0,1,.016.051l-.037.222a.057.057,0,0,0,.083.06l.2-.1a.055.055,0,0,1,.053,0l.2.1a.058.058,0,0,0,.083-.061l-.038-.221a.055.055,0,0,1,.016-.051l.16-.156A.058.058,0,0,0,2417.7,3293.5Z" transform="translate(-2369.217 -3223.152)" fill="#fff"/>
    </g>
    <g id="새벽세차" transform="translate(54.776 49.735)">
      <g id="그룹_422748" data-name="그룹 422748" transform="translate(-43.248 -43.248)" clip-path="url(#clip-path)">
        <g id="그룹_422747" data-name="그룹 422747" clip-path="url(#clip-path)">
          <g id="그룹_422726" data-name="그룹 422726" transform="translate(25.17 73.479)" opacity="0.2">
            <g id="그룹_422725" data-name="그룹 422725" clip-path="url(#clip-path-3)">
              <path id="패스_840156" data-name="패스 840156" d="M128.6,342.957c0,1.752-2.725,3.157-6.1,3.157s-6.1-1.406-6.1-3.157,2.725-3.157,6.1-3.157,6.1,1.406,6.1,3.157" transform="translate(-116.4 -339.8)" fill="#222"/>
            </g>
          </g>
          <g id="그룹_422728" data-name="그룹 422728" transform="translate(51.768 64.31)" opacity="0.2">
            <g id="그룹_422727" data-name="그룹 422727" clip-path="url(#clip-path-4)">
              <path id="패스_840157" data-name="패스 840157" d="M252.093,300.557c0,1.752-2.833,3.157-6.357,3.157s-6.336-1.427-6.336-3.157,2.833-3.157,6.357-3.157,6.357,1.406,6.357,3.157" transform="translate(-239.4 -297.4)" fill="#222"/>
            </g>
          </g>
          <path id="패스_840158" data-name="패스 840158" d="M247.677,139.2l-2.79-3.438h-.043l-.411.173.562-1.211-3.287-2.227c-.519,1.579.043,3.46-.195,3.179l-.843-.216a2.768,2.768,0,0,1-1.146-.692l-.562-.584h-.022a.454.454,0,0,1,.151.324c0,.368-.562.67-1.276.714H237.6l.649,6.53.735,7.46h.022a4.625,4.625,0,0,0,3.438,1.406,4.679,4.679,0,0,0,3.719-1.773h.065a10.416,10.416,0,0,0-.151-1.968v-.043l.5.043a2.184,2.184,0,0,0,2.184-2.184v-2.444a4.844,4.844,0,0,0-1.081-3.049m-2.249,4.952a1.384,1.384,0,0,1-1.816.757h-.022l-2.811-3.481,2.357-.778,2.1,2.1a1.384,1.384,0,0,1,.195,1.384" transform="translate(-186.221 -103.848)" fill="#fff"/>
          <path id="패스_840159" data-name="패스 840159" d="M256.949,173.7a1.384,1.384,0,0,1-1.816.757h-.022l-2.811-3.481,2.357-.778,2.1,2.1a1.384,1.384,0,0,1,.195,1.384" transform="translate(-197.742 -133.396)" fill="#fff"/>
          <path id="패스_840160" data-name="패스 840160" d="M273.952,181.052l-1.687-1.687-.065-.065.065.065.086.087" transform="translate(-213.339 -140.528)" fill="none" stroke="#222" stroke-linecap="round" stroke-linejoin="round" stroke-width="0.541"/>
          <line id="선_126299" data-name="선 126299" x1="0.022" y1="0.022" transform="translate(59.012 38.923)" fill="none" stroke="#222" stroke-linecap="round" stroke-linejoin="round" stroke-width="0.541"/>
          <line id="선_126300" data-name="선 126300" x1="0.065" y1="0.086" transform="translate(57.369 41.086)" fill="none" stroke="#222" stroke-linecap="round" stroke-linejoin="round" stroke-width="0.541"/>
          <path id="패스_840161" data-name="패스 840161" d="M218.933,111.305a.454.454,0,0,1,.151.324c0,.368-.562.67-1.276.714h-.173l-2.746-1.925-1.427-1.946a10.091,10.091,0,0,1-1.233-3.114,4.562,4.562,0,0,1-.13-1.016c0-.584.108-.908.541-1.038a.692.692,0,0,1,.627.13,1.146,1.146,0,0,1,.389.519c.151.411.346.822.519,1.189a16.413,16.413,0,0,0,2.725,3.892l2.076,2.227" transform="translate(-166.235 -80.945)" fill="#fff"/>
          <path id="패스_840162" data-name="패스 840162" d="M247.271,221.853l-.151.5a1.449,1.449,0,0,1-1.189.562c-.757,0-1.622-.584-1.622-1.168h-.043c-.022.108.087.216.022.3a1.449,1.449,0,0,1-1.189.562,1.514,1.514,0,0,1-1.06-.411h0a.908.908,0,0,1-.281-.649L239.4,205.138l.995.714c.757.843,1.989.822,3.417.822a4.679,4.679,0,0,0,3.719-1.773h.065c.173,4.13.368,12.477-.346,16.975" transform="translate(-187.632 -160.592)" fill="#3673ee"/>
          <path id="패스_840163" data-name="패스 840163" d="M253.835,285.665a.881.881,0,0,1-.951.714.848.848,0,0,1-.93-.627.5.5,0,0,1-.022-.13l-.432-1.47a1.514,1.514,0,0,0,1.06.411,1.449,1.449,0,0,0,1.189-.562h.065Z" transform="translate(-197.115 -222.587)" fill="#fff"/>
          <path id="패스_840164" data-name="패스 840164" d="M272.822,292a.627.627,0,0,1-.022.151" transform="translate(-213.809 -228.858)" fill="none" stroke="#222" stroke-linecap="round" stroke-linejoin="round" stroke-width="0.541"/>
          <line id="선_126301" data-name="선 126301" y1="0.238" transform="translate(56.72 63.078)" fill="none" stroke="#222" stroke-linecap="round" stroke-linejoin="round" stroke-width="0.541"/>
          <path id="패스_840165" data-name="패스 840165" d="M264.833,284.489l-.3.93-.195.627h0a1,1,0,0,1-1.038.67c-.519,0-1.124-.454-1.124-.908h-.087v-1.6H262c.065-.108.195.173.216.043h.043c0,.584.627.8,1.384.8a1.449,1.449,0,0,0,1.189-.562" transform="translate(-205.345 -222.731)" fill="#fff"/>
          <path id="패스_840166" data-name="패스 840166" d="M275.251,283.3a.865.865,0,0,1-.151.5" transform="translate(-215.612 -222.039)" fill="none" stroke="#222" stroke-linecap="round" stroke-linejoin="round" stroke-width="0.541"/>
          <path id="패스_840167" data-name="패스 840167" d="M253.554,293.473l-.065.238-.562,1.773a1.168,1.168,0,0,1-1.384.778l-3.763-.951a.368.368,0,0,1-.281-.368.865.865,0,0,1,.216-.562,3.287,3.287,0,0,0,.562-.93,3.33,3.33,0,0,0,.238-1.06,7.028,7.028,0,0,1,.238-1.535l.086-.281a1,1,0,0,0,1.881-.086h.086a1.113,1.113,0,0,0,1.124.908.971.971,0,0,0,1.038-.67h0l.195-.627h.065l.173.476a4.865,4.865,0,0,1,.151,2.919" transform="translate(-193.98 -227.368)" fill="#262626"/>
          <path id="패스_840168" data-name="패스 840168" d="M234.365,139.7a1.276,1.276,0,0,1-.541.951,1.656,1.656,0,0,1-1.925-.216" transform="translate(-181.754 -109.491)" fill="none" stroke="#222" stroke-linecap="round" stroke-linejoin="round" stroke-width="0.541"/>
          <path id="패스_840169" data-name="패스 840169" d="M253.7,224.9l1.124,1.968-.216-1.6Z" transform="translate(-198.84 -176.267)" fill="#222"/>
          <g id="그룹_422730" data-name="그룹 422730" transform="translate(51.206 37.258)" opacity="0.15">
            <g id="그룹_422729" data-name="그룹 422729" clip-path="url(#clip-path-5)">
              <path id="패스_840170" data-name="패스 840170" d="M245.16,196.8l-1.189.562s.411-7.439.195-13.991c-.087-2.9-4.476-3.092-6.725-4.93l-.541-5.493,2.573-.649,4.584,4.952v.043l1.47.843s.887,14.034-.346,18.683" transform="translate(-236.878 -172.3)" fill="#222"/>
            </g>
          </g>
          <g id="그룹_422732" data-name="그룹 422732" transform="translate(58.255 61.802)" opacity="0.1">
            <g id="그룹_422731" data-name="그룹 422731" clip-path="url(#clip-path-6)">
              <path id="패스_840171" data-name="패스 840171" d="M269.465,286.254l-.065,1.73.692-.562.541-1.622Z" transform="translate(-269.4 -285.8)" fill="#222"/>
            </g>
          </g>
          <path id="패스_840172" data-name="패스 840172" d="M276.6,182.5l.8.151a.368.368,0,0,1,.3.454l-.108.5Z" transform="translate(-216.788 -143.036)" fill="#222"/>
          <g id="그룹_422734" data-name="그룹 422734" transform="translate(56.915 36.437)" opacity="0.15">
            <g id="그룹_422733" data-name="그룹 422733" clip-path="url(#clip-path-7)">
              <path id="패스_840173" data-name="패스 840173" d="M264.26,168.5l2.919,3.525-1.146-.324-2.833-2.811Z" transform="translate(-263.2 -168.5)" fill="#222"/>
            </g>
          </g>
          <g id="그룹_422736" data-name="그룹 422736" transform="translate(54.623 36.912)" opacity="0.15">
            <g id="그룹_422735" data-name="그룹 422735" clip-path="url(#clip-path-8)">
              <path id="패스_840174" data-name="패스 840174" d="M252.6,171.587l3.784.541-1.47-1.427Z" transform="translate(-252.6 -170.7)" fill="#222"/>
            </g>
          </g>
          <g id="그룹_422738" data-name="그룹 422738" transform="translate(58.861 39.918)" opacity="0.15">
            <g id="그룹_422737" data-name="그룹 422737" clip-path="url(#clip-path-9)">
              <path id="패스_840175" data-name="패스 840175" d="M275.214,186.157a1.557,1.557,0,1,1-1.557-1.557,1.557,1.557,0,0,1,1.557,1.557" transform="translate(-272.122 -184.6)" fill="#222"/>
            </g>
          </g>
          <path id="패스_840176" data-name="패스 840176" d="M258.563,147.632a1.846,1.846,0,0,1-2.206,1.319A1.881,1.881,0,0,1,254.8,147.2" transform="translate(-199.702 -115.369)" fill="none" stroke="#222" stroke-linecap="round" stroke-miterlimit="10" stroke-width="0.541"/>
          <path id="패스_840177" data-name="패스 840177" d="M266.911,147.7l2.79,3.438a4.844,4.844,0,0,1,1.081,3.049v2.487a2.184,2.184,0,0,1-2.184,2.184,2.443,2.443,0,0,1-1.73-.714l-1.168-1.168" transform="translate(-208.245 -115.761)" fill="none" stroke="#222" stroke-linecap="round" stroke-linejoin="round" stroke-width="0.541"/>
          <path id="패스_840178" data-name="패스 840178" d="M265.4,181.514a1.384,1.384,0,0,0,1.47-2.314l1.752,1.752" transform="translate(-208.01 -140.45)" fill="none" stroke="#222" stroke-linecap="round" stroke-linejoin="round" stroke-width="0.541"/>
          <line id="선_126302" data-name="선 126302" x2="2.876" y2="3.568" transform="translate(54.558 37.604)" fill="none" stroke="#222" stroke-linecap="round" stroke-linejoin="round" stroke-width="0.541"/>
          <line id="선_126303" data-name="선 126303" x2="2.119" y2="2.119" transform="translate(56.915 36.826)" fill="none" stroke="#222" stroke-linecap="round" stroke-linejoin="round" stroke-width="0.541"/>
          <path id="패스_840179" data-name="패스 840179" d="M216.728,113.041l-3.265-4.368a10.091,10.091,0,0,1-1.233-3.114,4.65,4.65,0,0,1-.13-1.016c0-.584.108-.908.541-1.038a.692.692,0,0,1,.627.13,1.146,1.146,0,0,1,.389.541c.151.411.346.822.519,1.189a16.435,16.435,0,0,0,2.725,3.892l2.638,2.811a2.746,2.746,0,0,0,1.146.692l.714.216.195-.735" transform="translate(-166.235 -81.102)" fill="none" stroke="#222" stroke-linecap="round" stroke-linejoin="round" stroke-width="0.541"/>
          <line id="선_126304" data-name="선 126304" y1="6.336" x2="0.259" transform="translate(51.747 37.95)" fill="none" stroke="#222" stroke-linecap="round" stroke-linejoin="round" stroke-width="0.541"/>
          <line id="선_126305" data-name="선 126305" x1="2.357" y1="16.586" transform="translate(51.747 44.351)" fill="none" stroke="#222" stroke-linecap="round" stroke-linejoin="round" stroke-width="0.541"/>
          <path id="패스_840180" data-name="패스 840180" d="M275.995,199.2s.822,11.785-.195,18.186" transform="translate(-216.161 -156.125)" fill="none" stroke="#222" stroke-linecap="round" stroke-linejoin="round" stroke-width="0.541"/>
          <path id="패스_840181" data-name="패스 840181" d="M252.522,281.908c0,.584-.454.951-1.211.951a1.091,1.091,0,0,1-1.211-1.06" transform="translate(-196.018 -220.863)" fill="none" stroke="#222" stroke-linecap="round" stroke-linejoin="round" stroke-width="0.541"/>
          <path id="패스_840182" data-name="패스 840182" d="M253.835,286.662a.983.983,0,0,1-1.9,0L251.5,285.3" transform="translate(-197.115 -223.606)" fill="none" stroke="#222" stroke-linecap="round" stroke-linejoin="round" stroke-width="0.541"/>
          <path id="패스_840183" data-name="패스 840183" d="M264.984,291.686a.964.964,0,0,1-1.06.822,1.1,1.1,0,0,1-1.124-.908" transform="translate(-205.972 -228.544)" fill="none" stroke="#222" stroke-linecap="round" stroke-linejoin="round" stroke-width="0.541"/>
          <path id="패스_840184" data-name="패스 840184" d="M255.97,237.042l-.432-10.963A1.816,1.816,0,0,0,254.5,224.5" transform="translate(-199.467 -175.954)" fill="none" stroke="#222" stroke-linecap="round" stroke-linejoin="round" stroke-width="0.541"/>
          <line id="선_126306" data-name="선 126306" y1="1.838" transform="translate(56.72 61.477)" fill="none" stroke="#222" stroke-linecap="round" stroke-linejoin="round" stroke-width="0.541"/>
          <path id="패스_840185" data-name="패스 840185" d="M264.022,284.727l.649-2.054a1.238,1.238,0,0,1-1.362,1.06c-.757,0-1.708-.649-1.708-1.233" transform="translate(-205.031 -221.412)" fill="none" stroke="#222" stroke-linecap="round" stroke-linejoin="round" stroke-width="0.541"/>
          <path id="패스_840186" data-name="패스 840186" d="M248.74,290.476l-.087.281a7.072,7.072,0,0,0-.238,1.535,3.309,3.309,0,0,1-.8,1.989.865.865,0,0,0-.216.562.368.368,0,0,0,.281.368l3.763.951a1.168,1.168,0,0,0,1.384-.779l.562-1.773.065-.238a4.865,4.865,0,0,0-.151-2.919l-.151-.454" transform="translate(-193.901 -227.29)" fill="none" stroke="#222" stroke-linecap="round" stroke-linejoin="round" stroke-width="0.541"/>
          <path id="패스_840187" data-name="패스 840187" d="M205.393,92.7a.67.67,0,0,1-.605-.389L197.24,77.049a.677.677,0,0,1,1.211-.605L206,91.731a.67.67,0,0,1-.605.973" transform="translate(-154.533 -59.62)" fill="#9faeb7"/>
          <path id="패스_840188" data-name="패스 840188" d="M205.393,92.7a.67.67,0,0,1-.605-.389L197.24,77.049a.677.677,0,0,1,1.211-.605L206,91.731a.67.67,0,0,1-.605.973Z" transform="translate(-154.533 -59.62)" fill="none" stroke="#222" stroke-linecap="round" stroke-linejoin="round" stroke-width="0.541"/>
          <path id="패스_840189" data-name="패스 840189" d="M239.4,204.2a3.857,3.857,0,0,0,3.568,1.838,6.334,6.334,0,0,0,4.455-1.449" transform="translate(-187.632 -160.044)" fill="none" stroke="#222" stroke-linecap="round" stroke-linejoin="round" stroke-width="0.541"/>
          <line id="선_126307" data-name="선 126307" x2="0.476" y2="1.362" transform="translate(58.666 35.939)" fill="#222"/>
          <line id="선_126308" data-name="선 126308" x2="0.476" y2="1.362" transform="translate(58.666 35.939)" fill="none" stroke="#222" stroke-linecap="round" stroke-miterlimit="10" stroke-width="0.541"/>
          <path id="패스_840190" data-name="패스 840190" d="M270.438,123.6l-1.038-.411,1.276-3.287,2.119.822-.865,2.227a1.168,1.168,0,0,1-1.492.67" transform="translate(-211.145 -93.973)" fill="#222"/>
          <path id="패스_840191" data-name="패스 840191" d="M260.577,108.492a1.9,1.9,0,1,1-1.081-2.465,1.9,1.9,0,0,1,1.081,2.465" transform="translate(-201.348 -82.997)" fill="#222"/>
          <path id="패스_840192" data-name="패스 840192" d="M272.475,115.36a1.773,1.773,0,1,1-1.016-2.292,1.773,1.773,0,0,1,1.016,2.292" transform="translate(-210.868 -88.524)" fill="#222"/>
          <path id="패스_840193" data-name="패스 840193" d="M257.943,122.137l1.881-4.865a2.011,2.011,0,0,0-3.741-1.449l-1.341,3.46a1.514,1.514,0,0,0,.865,1.946l1.168.454" transform="translate(-199.58 -89.874)" fill="#fff"/>
          <path id="패스_840194" data-name="패스 840194" d="M257.943,122.137l1.881-4.865a2.011,2.011,0,0,0-3.741-1.449l-1.341,3.46a1.514,1.514,0,0,0,.865,1.946l1.168.454" transform="translate(-199.58 -89.874)" fill="none" stroke="#222" stroke-linecap="round" stroke-miterlimit="10" stroke-width="0.541"/>
          <path id="패스_840195" data-name="패스 840195" d="M273.7,130.8a.685.685,0,1,1-.5,1.276" transform="translate(-214.123 -102.516)" fill="#fff"/>
          <path id="패스_840196" data-name="패스 840196" d="M273.7,130.8a.685.685,0,1,1-.5,1.276" transform="translate(-214.123 -102.516)" fill="none" stroke="#222" stroke-linecap="round" stroke-miterlimit="10" stroke-width="0.541"/>
          <rect id="사각형_318389" data-name="사각형 318389" width="3.222" height="0.765" transform="matrix(0.915, -0.404, 0.404, 0.915, 55.946, 25.637)" fill="#222"/>
          <rect id="사각형_318390" data-name="사각형 318390" width="0.757" height="2.61" transform="matrix(0.915, -0.404, 0.404, 0.915, 59.204, 25.03)" fill="#222"/>
          <path id="패스_840197" data-name="패스 840197" d="M256.433,136.971l-.627-.238a.627.627,0,0,1-.368-.822l.541-1.406a.627.627,0,0,1,.822-.368l.627.238a.627.627,0,0,1,.368.822l-.541,1.406a.627.627,0,0,1-.822.368" transform="translate(-200.167 -105.097)" fill="#222"/>
          <line id="선_126309" data-name="선 126309" x2="0.562" y2="0.216" transform="translate(56.288 29.668)" fill="none" stroke="#fff" stroke-linecap="round" stroke-miterlimit="10" stroke-width="0.649"/>
          <path id="패스_840198" data-name="패스 840198" d="M179.287,64.511l-10.617,1.168a2.143,2.143,0,0,1-.476-4.26l10.617-1.168a2.143,2.143,0,0,1,.476,4.26" transform="translate(-130.33 -47.212)" fill="#e4eff5"/>
          <path id="패스_840199" data-name="패스 840199" d="M179.287,64.511l-10.617,1.168a2.143,2.143,0,0,1-.476-4.26l10.617-1.168a2.143,2.143,0,0,1,.476,4.26Z" transform="translate(-130.33 -47.212)" fill="none" stroke="#222" stroke-linecap="round" stroke-linejoin="round" stroke-width="0.541"/>
          <line id="선_126310" data-name="선 126310" x1="12.931" y2="1.449" transform="translate(37.972 15.807)" fill="#00a4ff"/>
          <line id="선_126311" data-name="선 126311" x1="12.931" y2="1.449" transform="translate(37.972 15.807)" fill="none" stroke="#222" stroke-linejoin="round" stroke-width="0.541"/>
          <path id="패스_840200" data-name="패스 840200" d="M170.876,65.3s1.643,4,2.119,4.2l-2.444.195-1.752-4.2Z" transform="translate(-132.298 -51.179)" fill="#222"/>
          <path id="패스_840201" data-name="패스 840201" d="M174.994,64.1a24.133,24.133,0,0,1-11.115,3.114c-12.8.454-23.657-9.212-24.133-21.473a21.84,21.84,0,0,1,5.406-15.2.605.605,0,0,1,1.06.324c1.406,15.742,13.212,28.392,28.587,32a.67.67,0,0,1,.195,1.233" transform="translate(-109.516 -23.771)" fill="#ffdd50"/>
          <path id="패스_840202" data-name="패스 840202" d="M174.994,64.1a24.133,24.133,0,0,1-11.115,3.114c-12.8.454-23.657-9.212-24.133-21.473a21.84,21.84,0,0,1,5.406-15.2.605.605,0,0,1,1.06.324c1.406,15.742,13.212,28.392,28.587,32a.67.67,0,0,1,.195,1.233Z" transform="translate(-109.516 -23.771)" fill="none" stroke="#222" stroke-linecap="round" stroke-linejoin="round" stroke-width="0.865"/>
          <path id="패스_840203" data-name="패스 840203" d="M175.34,63.5a.649.649,0,0,1-.346.476,24.154,24.154,0,0,1-11.115,3.114c-12.8.454-23.657-9.212-24.133-21.473a21.84,21.84,0,0,1,5.406-15.2.605.605,0,0,1,.476-.216,22.4,22.4,0,0,0-3.309,12.78c.584,12.8,11.915,22.705,25.279,22.078a25.192,25.192,0,0,0,7.741-1.579" transform="translate(-109.516 -23.669)" fill="#e0b603"/>
          <path id="패스_840204" data-name="패스 840204" d="M175.34,63.5a.649.649,0,0,1-.346.476,24.154,24.154,0,0,1-11.115,3.114c-12.8.454-23.657-9.212-24.133-21.473a21.84,21.84,0,0,1,5.406-15.2.605.605,0,0,1,.476-.216,22.4,22.4,0,0,0-3.309,12.78c.584,12.8,11.915,22.705,25.279,22.078A25.192,25.192,0,0,0,175.34,63.5Z" transform="translate(-109.516 -23.669)" fill="none" stroke="#222" stroke-linecap="round" stroke-linejoin="round" stroke-width="0.649"/>
          <g id="그룹_422740" data-name="그룹 422740" transform="translate(41.302 37.842)" opacity="0.15">
            <g id="그룹_422739" data-name="그룹 422739" clip-path="url(#clip-path-10)">
              <path id="패스_840205" data-name="패스 840205" d="M191.5,175l2.292,1.449s1.752,2.9,0,2.941-2.011-.757-2.011-.757L191,176.406Z" transform="translate(-191 -175)" fill="#222"/>
            </g>
          </g>
          <path id="패스_840206" data-name="패스 840206" d="M202.122,177s4.368,2.033,1.795,4.238l-2.617-.714Z" transform="translate(-157.771 -138.725)" fill="#222"/>
          <path id="패스_840207" data-name="패스 840207" d="M200.836,171.706a1.623,1.623,0,1,1-1.406-1.579,1.5,1.5,0,0,1,1.406,1.579" transform="translate(-154.906 -133.324)" fill="#222"/>
          <path id="패스_840208" data-name="패스 840208" d="M173.915,165.375a1.518,1.518,0,0,1-2.162,1.989,1.514,1.514,0,0,1-2.919.281,1.514,1.514,0,0,1-2.314-1.3,1.427,1.427,0,0,1,.022-.281h-.022a1.514,1.514,0,0,1-1.038-2.638,1.514,1.514,0,0,1,.951-2.638,1.526,1.526,0,0,1,2.249-1.881,1.514,1.514,0,0,1,2.811-.346,1.514,1.514,0,0,1,2.1,1.406h0a1.514,1.514,0,0,1,.887,2.487,1.514,1.514,0,0,1-.541,2.876" transform="translate(-129.304 -123.64)" fill="#e4eff5"/>
          <path id="패스_840209" data-name="패스 840209" d="M173.915,165.375a1.518,1.518,0,0,1-2.162,1.989,1.514,1.514,0,0,1-2.919.281,1.514,1.514,0,0,1-2.314-1.3,1.427,1.427,0,0,1,.022-.281h-.022a1.514,1.514,0,0,1-1.038-2.638,1.514,1.514,0,0,1,.951-2.638,1.526,1.526,0,0,1,2.249-1.881,1.514,1.514,0,0,1,2.811-.346,1.514,1.514,0,0,1,2.1,1.406h0a1.514,1.514,0,0,1,.887,2.487,1.514,1.514,0,0,1-.541,2.876Z" transform="translate(-129.304 -123.64)" fill="none" stroke="#222" stroke-linecap="round" stroke-linejoin="round" stroke-width="0.541"/>
          <path id="패스_840210" data-name="패스 840210" d="M180.366,172.933a2.833,2.833,0,1,1-2.833-2.833,2.833,2.833,0,0,1,2.833,2.833" transform="translate(-136.923 -133.317)" fill="#fff"/>
          <path id="패스_840211" data-name="패스 840211" d="M180.366,172.933a2.833,2.833,0,1,1-2.833-2.833A2.833,2.833,0,0,1,180.366,172.933Z" transform="translate(-136.923 -133.317)" fill="none" stroke="#222" stroke-linecap="round" stroke-linejoin="round" stroke-width="0.541"/>
          <path id="패스_840212" data-name="패스 840212" d="M183.952,178.176a1.276,1.276,0,1,1-1.276-1.276,1.276,1.276,0,0,1,1.276,1.276" transform="translate(-142.174 -138.647)" fill="#c1c1c1"/>
          <path id="패스_840213" data-name="패스 840213" d="M183.952,178.176a1.276,1.276,0,1,1-1.276-1.276A1.276,1.276,0,0,1,183.952,178.176Z" transform="translate(-142.174 -138.647)" fill="none" stroke="#222" stroke-miterlimit="10" stroke-width="0.541"/>
          <g id="그룹_422742" data-name="그룹 422742" transform="translate(38.426 40.545)" opacity="0.1">
            <g id="그룹_422741" data-name="그룹 422741" clip-path="url(#clip-path-11)">
              <path id="패스_840214" data-name="패스 840214" d="M179.638,187.8l2.119,3.027-1.1,1.189-1.514-.605-.887-.843H177.8l.584-2.227.065-.346a.649.649,0,0,1,1.189-.216" transform="translate(-177.778 -187.478)" fill="#111"/>
            </g>
          </g>
          <path id="패스_840215" data-name="패스 840215" d="M118.693,259.441l-.908,16.283a1.06,1.06,0,0,1-.043.324h0a1.406,1.406,0,0,1-2.638-.065h0a1.1,1.1,0,0,1-.043-.26l-.151-1.427c0,.065.065.195.043.26h0a1.449,1.449,0,0,1-2.746.022v-.195h0l-1.362-15.05-.043-.432.195.238c.108,1.362,1.925,2.141,3.936,2.141s3.481-.973,3.741-2.227Z" transform="translate(-86.84 -202.915)" fill="#3673ee"/>
          <line id="선_126312" data-name="선 126312" x1="0.173" y1="3.503" transform="translate(23.851 47.162)" fill="#fff"/>
          <path id="패스_840216" data-name="패스 840216" d="M136.7,344.189a1.168,1.168,0,0,1-.5.93h-.043l-3.481,2.184h-.022a1.47,1.47,0,0,1-.692.173,1.311,1.311,0,0,1-1.362-1.146v-2.249a1.665,1.665,0,0,1,.216-.843h.043l.108.605h0a1,1,0,0,0,1.016.822.973.973,0,0,0,1.038-.908l.043-.3h.043l1.946-.454h.281a1.289,1.289,0,0,1,1.362,1.211" transform="translate(-102.358 -268.829)" fill="#262626"/>
          <path id="패스_840217" data-name="패스 840217" d="M133.338,337.965l-.216,1.492-.043.3a.973.973,0,0,1-1.038.908,1,1,0,0,1-1.016-.822h0l-.108-.605L130.7,337.9a1.406,1.406,0,0,0,2.638.065" transform="translate(-102.437 -264.832)" fill="#fff"/>
          <path id="패스_840218" data-name="패스 840218" d="M120.125,331.3l-.195,2.227a1,1,0,0,1-1.06.908,1.038,1.038,0,0,1-1.038-.714h0v-.151l-.432-2.227a1.449,1.449,0,0,0,2.746-.022" transform="translate(-92.013 -259.659)" fill="#fff"/>
          <path id="패스_840219" data-name="패스 840219" d="M121.752,337.2h0l.216,1.341h-.043a1.665,1.665,0,0,0-.216.843v1.752H121.6a1.471,1.471,0,0,1-.865.281,1.3,1.3,0,0,1-1.362-1.168h0v-.173a8.412,8.412,0,0,1-.065-1.881h.022a1.038,1.038,0,0,0,1.038.714,1,1,0,0,0,1.06-.908" transform="translate(-93.489 -264.283)" fill="#262626"/>
          <path id="패스_840220" data-name="패스 840220" d="M114.59,209.519l.086.995c-.238,1.254-2.119,2.53-4.044,2.53s-3.676-1.081-3.763-2.422h-.022l-.259-5.211h0a6.314,6.314,0,0,1-1.233-4.152v-.389a2.552,2.552,0,0,1,2.1-2.335l.843-.151.627.043c-.238-1.168.087-1.1,1.6-.973s1.189,1.124,1.449.649c.086-.151-.022.865.13.887l.389-.043h.065l.086.043,3.979,2.638.324.216a1.816,1.816,0,0,1-1.168,3.2h-.022l-.8-.3h0l-.454-.216Z" transform="translate(-82.565 -154.702)" fill="#fff"/>
          <path id="패스_840221" data-name="패스 840221" d="M159.857,188.8l-.13.389c-.389.519-.324,1.189-.649,1.752l-2.595,4.714a2.4,2.4,0,0,1-2.963,1.081H153.5a1.816,1.816,0,0,0,1.189-3.2h.043l2.984-3.784a2.249,2.249,0,0,0,.432-.93l.259-1.06c.173-.584.281-.519.995-.973.022-.022.324.173.368.173a.853.853,0,0,1,.259.476v.3c.13.562.173.605-.173,1.06" transform="translate(-120.307 -146.4)" fill="#fff"/>
          <path id="패스_840222" data-name="패스 840222" d="M119.727,176.573l-.541-5.6a2.011,2.011,0,0,1,4-.389l.346,3.7a1.514,1.514,0,0,1-1.362,1.643" transform="translate(-93.411 -132.33)" fill="#fff"/>
          <path id="패스_840223" data-name="패스 840223" d="M119.727,176.573l-.541-5.6a2.011,2.011,0,0,1,4-.389l.346,3.7a1.514,1.514,0,0,1-1.362,1.643" transform="translate(-93.411 -132.33)" fill="none" stroke="#222" stroke-linecap="round" stroke-miterlimit="10" stroke-width="0.541"/>
          <path id="패스_840224" data-name="패스 840224" d="M119.657,164.249l-4.563.432-.108-1.124A1.146,1.146,0,0,1,116,162.324l3.417-.324a1.146,1.146,0,0,1,.216,2.271" transform="translate(-90.118 -126.969)" fill="#222"/>
          <path id="패스_840225" data-name="패스 840225" d="M118.873,177.028l-.973.086a2.076,2.076,0,0,1-2.249-1.86l-.151-1.6,1.73-.173a1.3,1.3,0,0,1,1.406,1.168Z" transform="translate(-90.524 -135.964)" fill="#222"/>
          <path id="패스_840226" data-name="패스 840226" d="M118.5,164.886a1.687,1.687,0,1,1-1.838-1.514,1.687,1.687,0,0,1,1.838,1.514" transform="translate(-90.24 -128.038)" fill="#222"/>
          <path id="패스_840227" data-name="패스 840227" d="M128.855,182.6a.684.684,0,1,0,.13,1.362" transform="translate(-100.506 -143.114)" fill="#fff"/>
          <path id="패스_840228" data-name="패스 840228" d="M128.855,182.6a.684.684,0,1,0,.13,1.362" transform="translate(-100.506 -143.114)" fill="none" stroke="#222" stroke-linecap="round" stroke-miterlimit="10" stroke-width="0.541"/>
          <g id="그룹_422744" data-name="그룹 422744" transform="translate(29.495 49.108)" opacity="0.15">
            <g id="그룹_422743" data-name="그룹 422743" clip-path="url(#clip-path-12)">
              <path id="패스_840229" data-name="패스 840229" d="M136.4,227.131h0a3.676,3.676,0,0,1,2.357.562v3.59Z" transform="translate(-136.4 -227.11)" fill="#222"/>
            </g>
          </g>
          <path id="패스_840230" data-name="패스 840230" d="M124.2,281.4l1.06,1.211-.238-1.124Z" transform="translate(-97.343 -220.55)" fill="#222"/>
          <g id="그룹_422746" data-name="그룹 422746" transform="translate(22.77 40.934)" opacity="0.15">
            <g id="그룹_422745" data-name="그룹 422745" clip-path="url(#clip-path-13)">
              <path id="패스_840231" data-name="패스 840231" d="M109.32,189.366l.13,3.806L109,206.384s-.238,1.816.735,2.617l.584.735.324,10.553.281,1.47-1.47,1.276h-.778a24.447,24.447,0,0,1-1.168-8.023l-.973-11.85v-4.584a4.493,4.493,0,0,1-1.146-3.892c.259-2.725,2.508-2.638,2.508-2.638l1.06-.151-.3-2.444c.022-.151.649-.216.67-.065" transform="translate(-105.341 -189.301)" fill="#222"/>
            </g>
          </g>
          <line id="선_126313" data-name="선 126313" x1="0.043" y1="0.022" transform="translate(34.382 47.141)" fill="none" stroke="#222" stroke-linecap="round" stroke-linejoin="round" stroke-width="0.541"/>
          <path id="패스_840232" data-name="패스 840232" d="M157.824,217.216,157.5,217Z" transform="translate(-123.442 -170.076)" fill="none" stroke="#222" stroke-linecap="round" stroke-linejoin="round" stroke-width="0.541"/>
          <path id="패스_840233" data-name="패스 840233" d="M137.4,226.866c.735-.173,1.3.3,1.989.584" transform="translate(-107.688 -177.779)" fill="none" stroke="#222" stroke-linecap="round" stroke-linejoin="round" stroke-width="0.541"/>
          <line id="선_126314" data-name="선 126314" y1="16.997" x2="1.168" transform="translate(30.944 55.812)" fill="none" stroke="#222" stroke-linecap="round" stroke-linejoin="round" stroke-width="0.541"/>
          <line id="선_126315" data-name="선 126315" x1="1.406" y1="15.375" transform="translate(23.938 55.963)" fill="none" stroke="#222" stroke-linecap="round" stroke-linejoin="round" stroke-width="0.541"/>
          <line id="선_126316" data-name="선 126316" x1="0.173" y1="3.503" transform="translate(23.851 47.162)" fill="none" stroke="#222" stroke-linecap="round" stroke-linejoin="round" stroke-width="0.541"/>
          <path id="패스_840234" data-name="패스 840234" d="M119.473,344.554v-.173a8.412,8.412,0,0,1-.065-1.881" transform="translate(-93.567 -268.437)" fill="none" stroke="#222" stroke-linecap="round" stroke-linejoin="round" stroke-width="0.541"/>
          <path id="패스_840235" data-name="패스 840235" d="M118.744,253.1a2.1,2.1,0,0,1,.13.735,1.924,1.924,0,0,1-.043.389c-.259,1.406-1.989,2.487-4.044,2.487s-3.979-1.211-4.087-2.725v-.151" transform="translate(-86.762 -198.369)" fill="none" stroke="#222" stroke-linecap="round" stroke-linejoin="round" stroke-width="0.541"/>
          <path id="패스_840236" data-name="패스 840236" d="M132.833,336.7a1.29,1.29,0,0,1-1.362,1.211A1.4,1.4,0,0,1,130,336.7" transform="translate(-101.889 -263.892)" fill="none" stroke="#222" stroke-linecap="round" stroke-linejoin="round" stroke-width="0.541"/>
          <path id="패스_840237" data-name="패스 840237" d="M119.925,330.711a1.406,1.406,0,0,1-1.319.822A1.333,1.333,0,0,1,117.2,330.3" transform="translate(-91.857 -258.876)" fill="none" stroke="#222" stroke-linecap="round" stroke-linejoin="round" stroke-width="0.541"/>
          <path id="패스_840238" data-name="패스 840238" d="M121.506,340.9a1.141,1.141,0,0,1-2.206.108" transform="translate(-93.502 -267.183)" fill="none" stroke="#222" stroke-linecap="round" stroke-linejoin="round" stroke-width="0.541"/>
          <path id="패스_840239" data-name="패스 840239" d="M134.254,346.5a.973.973,0,0,1-1.038.908,1,1,0,0,1-1.016-.822" transform="translate(-103.613 -271.572)" fill="none" stroke="#222" stroke-linecap="round" stroke-linejoin="round" stroke-width="0.541"/>
          <path id="패스_840240" data-name="패스 840240" d="M132.654,358.554a1.47,1.47,0,0,1-.692.173,1.289,1.289,0,0,1-1.362-1.211,1.081,1.081,0,0,1,.022-.216" transform="translate(-102.359 -280.037)" fill="none" stroke="#222" stroke-linecap="round" stroke-linejoin="round" stroke-width="0.541"/>
          <path id="패스_840241" data-name="패스 840241" d="M151.7,343h.173a1.29,1.29,0,0,1,1.362,1.211,1.168,1.168,0,0,1-.5.93" transform="translate(-118.896 -268.829)" fill="none" stroke="#222" stroke-linecap="round" stroke-linejoin="round" stroke-width="0.541"/>
          <path id="패스_840242" data-name="패스 840242" d="M121.927,352.187a1.449,1.449,0,0,1-.865.281A1.3,1.3,0,0,1,119.7,351.3" transform="translate(-93.816 -275.334)" fill="none" stroke="#222" stroke-linecap="round" stroke-linejoin="round" stroke-width="0.541"/>
          <line id="선_126317" data-name="선 126317" x1="0.259" y2="1.795" transform="translate(30.641 73.133)" fill="none" stroke="#222" stroke-linecap="round" stroke-linejoin="round" stroke-width="0.541"/>
          <path id="패스_840243" data-name="패스 840243" d="M125.868,292.944l-.389-11.309a.757.757,0,0,0-.778-.735" transform="translate(-97.735 -220.157)" fill="none" stroke="#222" stroke-linecap="round" stroke-linejoin="round" stroke-width="0.541"/>
          <line id="선_126318" data-name="선 126318" y1="2.184" x2="3.481" transform="translate(30.317 76.333)" fill="none" stroke="#222" stroke-linecap="round" stroke-linejoin="round" stroke-width="0.541"/>
          <line id="선_126319" data-name="선 126319" x1="1.968" y2="0.432" transform="translate(30.728 74.192)" fill="none" stroke="#222" stroke-linecap="round" stroke-linejoin="round" stroke-width="0.541"/>
          <path id="패스_840244" data-name="패스 840244" d="M130.6,347.236v-2.292a1.665,1.665,0,0,1,.216-.843" transform="translate(-102.358 -269.691)" fill="none" stroke="#222" stroke-linecap="round" stroke-linejoin="round" stroke-width="0.541"/>
          <line id="선_126320" data-name="선 126320" x1="0.259" y1="1.557" transform="translate(28.349 73.5)" fill="none" stroke="#222" stroke-linecap="round" stroke-linejoin="round" stroke-width="0.541"/>
          <line id="선_126321" data-name="선 126321" x1="0.454" y1="2.379" transform="translate(25.343 71.533)" fill="none" stroke="#222" stroke-linecap="round" stroke-linejoin="round" stroke-width="0.541"/>
          <line id="선_126322" data-name="선 126322" y1="2.335" x2="0.065" transform="translate(28.003 71.533)" fill="none" stroke="#222" stroke-linecap="round" stroke-linejoin="round" stroke-width="0.541"/>
          <path id="패스_840245" data-name="패스 840245" d="M106.475,214.385l.087-4.909h0a6.314,6.314,0,0,1-1.211-4.152v-.389a2.552,2.552,0,0,1,2.1-2.335h1.341c.238.454-.346.93,1.168,1.06a2.4,2.4,0,0,0,2.119-.5c.67-.346,4.541,2.552,4.541,2.552l.324.216a1.816,1.816,0,0,1,.562,1.925,1.643,1.643,0,0,1-2.292,1.038l-.93-.411.3,5.125" transform="translate(-82.559 -158.79)" fill="none" stroke="#222" stroke-linecap="round" stroke-linejoin="round" stroke-width="0.541"/>
          <path id="패스_840246" data-name="패스 840246" d="M149,196.2l1.016.432a2.4,2.4,0,0,0,2.963-1.081l2.811-5.579s1.362-2.357.324-3.179-1.557,2.227-2.119,2.768l-2.984,3.654" transform="translate(-116.78 -146.292)" fill="none" stroke="#222" stroke-linecap="round" stroke-linejoin="round" stroke-width="0.541"/>
          <line id="선_126323" data-name="선 126323" x1="0.065" y1="0.822" transform="translate(29.474 43.421)" fill="#fff"/>
          <line id="선_126324" data-name="선 126324" x1="0.065" y1="0.822" transform="translate(29.474 43.421)" fill="none" stroke="#222" stroke-linecap="round" stroke-miterlimit="10" stroke-width="0.541"/>
          <path id="패스_840247" data-name="패스 840247" d="M198.5,82.3l1.925.627-.541-.93Z" transform="translate(-155.576 -64.268)" fill="#222"/>
        </g>
      </g>
    </g>
    <g id="사각형_422059" data-name="사각형 422059" transform="translate(-0.001)" fill="#fff" stroke="#707070" stroke-width="1" opacity="0">
      <rect width="99" height="98" stroke="none"/>
      <rect x="0.5" y="0.5" width="98" height="97" fill="none"/>
    </g>
  </g>
</svg>
