<svg xmlns="http://www.w3.org/2000/svg" xmlns:xlink="http://www.w3.org/1999/xlink" width="16" height="16" viewBox="0 0 16 16"><defs><style>.a{fill:none;}.b{clip-path:url(#a);}.c{opacity:0;}.d{fill:#f0f;}.e{fill:#111;}</style><clipPath id="a"><rect class="a" width="16" height="16"/></clipPath></defs><g transform="translate(8 8)"><g class="b" transform="translate(-8 -8)"><g class="b"><g class="c"><g class="b"><rect class="d" width="16" height="16"/></g></g><path class="e" d="M2.8,13.4a1,1,0,0,1-1-1.1l.4-2.7a.7.7,0,0,1,.2-.4l8-8a1.2,1.2,0,0,1,1.7,0l2,2a1.2,1.2,0,0,1,0,1.7h0l-8,8-.4.2L3,13.5H2.8M3.6,10l-.3,1.8,1.8-.3L12.7,4,11.2,2.5Z"/><path class="e" d="M14.8,14.4a.7.7,0,0,1-.7.8H5.5V13.7h8.6a.7.7,0,0,1,.8.7"/></g></g></g></svg>