<svg id="icon_membership_p_fold_40" xmlns="http://www.w3.org/2000/svg" width="40" height="40" viewBox="0 0 40 40">
  <path id="패스_878636" data-name="패스 878636" d="M22.146,3.218a3.455,3.455,0,0,0-3.31-1.074c-2,.494-13.656,6.723-14.826,8.609s-.171,17.885-.171,17.885l2.2,1.8,1.8-.8,1-17Z" fill="#fff"/>
  <path id="패스_580131-4" data-name="패스 580131-4" d="M4.7,14V27.5a4.115,4.115,0,0,0,2.058,3.563l11.7,6.753a4.115,4.115,0,0,0,4.115,0l11.7-6.753A4.115,4.115,0,0,0,36.325,27.5V14a4.113,4.113,0,0,0-2.056-3.563l-11.7-6.753a4.115,4.115,0,0,0-4.115,0l-11.7,6.753A4.115,4.115,0,0,0,4.7,14Z" fill="#a5a5ff"/>
  <path id="패스_580132" data-name="패스 580132" d="M3.343,13V26.5A4.121,4.121,0,0,0,5.4,30.065l11.7,6.753a4.113,4.113,0,0,0,4.114,0l11.7-6.753A4.114,4.114,0,0,0,34.971,26.5V13a4.114,4.114,0,0,0-2.057-3.563L21.214,2.68a4.113,4.113,0,0,0-4.114,0L5.4,9.433A4.119,4.119,0,0,0,3.343,13Z" fill="none" stroke="#6955ff" stroke-linejoin="round" stroke-width="1"/>
  <g id="그룹_262705" data-name="그룹 262705">
    <g id="그룹_260169" data-name="그룹 260169">
      <path id="Path_239343-2" data-name="Path 239343-2" d="M19.666,12.514A7.622,7.622,0,1,1,12.108,20.2v-.128a7.624,7.624,0,0,1,7.558-7.558" fill="#fff"/>
      <path id="Path_239344-2" data-name="Path 239344-2" d="M12.587,16.934a7.436,7.436,0,0,1,1.421-2" fill="none" stroke="#111" stroke-linecap="square" stroke-linejoin="round" stroke-width="1"/>
      <path id="Path_239345-2" data-name="Path 239345-2" d="M13.944,10.475s0,2.967,1.808,2.967h.129a7.622,7.622,0,1,1-3.294,3.493" fill="none" stroke="#111" stroke-linecap="round" stroke-linejoin="round" stroke-width="1"/>
      <path id="Path_239346-2" data-name="Path 239346-2" d="M16.4,11.056s-.47,1.694.562,1.887" fill="none" stroke="#111" stroke-linecap="round" stroke-linejoin="round" stroke-width="1"/>
      <path id="Path_239347-2" data-name="Path 239347-2" d="M19.757,21a1.486,1.486,0,0,1-2.907,0" fill="none" stroke="#111" stroke-linecap="square" stroke-miterlimit="10" stroke-width="1"/>
      <line id="Line_26071-3" data-name="Line 26071-3" y2="0.3" transform="translate(20.598 18.25)" fill="none" stroke="#111" stroke-linecap="round" stroke-width="1"/>
      <line id="Line_26071-4" data-name="Line 26071-4" y2="1.315" transform="translate(20.598 16.935)" fill="none" stroke="#111" stroke-width="1"/>
      <line id="Line_26072-3" data-name="Line 26072-3" y2="0.435" transform="translate(16.075 18.115)" fill="none" stroke="#111" stroke-linecap="round" stroke-width="1"/>
      <line id="Line_26072-4" data-name="Line 26072-4" y2="1.18" transform="translate(16.075 16.935)" fill="none" stroke="#111" stroke-width="1"/>
      <rect id="사각형_214890-2" data-name="사각형 214890-2" width="19" height="19" transform="translate(10.811 10.249)" fill="none"/>
    </g>
  </g>
  <path id="패스_878637" data-name="패스 878637" d="M29.207,12.973,26.8,16.3l-5.757-3.692,1.942-3.528.848,2.44,2.808-1.241.118,3.069Z" fill="#fff" stroke="#111" stroke-linejoin="round" stroke-width="1"/>
  <rect id="사각형_352456" data-name="사각형 352456" width="40" height="40" fill="#f0f" opacity="0"/>
</svg>
