<svg xmlns="http://www.w3.org/2000/svg" width="48" height="54" viewBox="0 0 48 54">
  <g id="그룹_577353" data-name="그룹 577353" transform="translate(-177 -267)">
    <g id="사각형_427853" data-name="사각형 427853" transform="translate(177 267)" fill="red" stroke="red" stroke-width="1" opacity="0">
      <rect width="48" height="54" stroke="none"/>
      <rect x="0.5" y="0.5" width="47" height="53" fill="none"/>
    </g>
    <g id="그룹_577340" data-name="그룹 577340" transform="translate(0 79)">
      <circle id="타원_13550" data-name="타원 13550" cx="24" cy="24" r="24" transform="translate(177 192)" fill="#fff"/>
      <circle id="타원_13480" data-name="타원 13480" cx="23" cy="23" r="23" transform="translate(178.8 193.8)" fill="#d7d7d7"/>
      <g id="타원_13481" data-name="타원 13481" transform="translate(177 192)" fill="none" stroke="#c1c1c1" stroke-linecap="round" stroke-linejoin="round" stroke-width="1.25">
        <circle cx="24" cy="24" r="24" stroke="none"/>
        <circle cx="24" cy="24" r="23.375" fill="none"/>
      </g>
    </g>
    <g id="그룹_577343" data-name="그룹 577343" transform="translate(189.8 280.461)">
      <g id="그룹_577332" data-name="그룹 577332" transform="translate(0 0)">
        <path id="패스_694850" data-name="패스 694850" d="M36.912,26.858a11.656,11.656,0,1,0,0,.2" transform="translate(-13.201 -11.872)" fill="#fff"/>
        <path id="패스_694851" data-name="패스 694851" d="M14.4,21.836A11.264,11.264,0,0,1,16.555,18.8" transform="translate(-13.218 -11.944)" fill="none" stroke="#111" stroke-linecap="square" stroke-linejoin="round" stroke-width="1.55"/>
        <path id="패스_694852" data-name="패스 694852" d="M16.334,11.8s0,4.6,2.743,4.6h.2a11.558,11.558,0,1,1-5,5.289" transform="translate(-13.193 -11.8)" fill="none" stroke="#111" stroke-linecap="round" stroke-linejoin="round" stroke-width="1.55"/>
        <path id="패스_694853" data-name="패스 694853" d="M20.3,12.7s-.784,2.547.882,2.938" transform="translate(-13.335 -11.818)" fill="none" stroke="#111" stroke-linecap="round" stroke-linejoin="round" stroke-width="1.55"/>
        <path id="패스_694854" data-name="패스 694854" d="M25.308,28.3a2.253,2.253,0,0,1-4.408,0" transform="translate(-13.351 -12.139)" fill="none" stroke="#111" stroke-linecap="square" stroke-miterlimit="10" stroke-width="1.55"/>
        <line id="선_93099" data-name="선 93099" y2="0.49" transform="translate(13.328 11.852)" fill="none" stroke="#111" stroke-linecap="round" stroke-width="1.55"/>
        <line id="선_93100" data-name="선 93100" y2="1.959" transform="translate(13.328 9.893)" fill="none" stroke="#111" stroke-width="1.55"/>
        <line id="선_93101" data-name="선 93101" y2="0.588" transform="translate(6.471 11.755)" fill="none" stroke="#111" stroke-linecap="round" stroke-width="1.55"/>
        <line id="선_93102" data-name="선 93102" y2="1.861" transform="translate(6.471 9.893)" fill="none" stroke="#111" stroke-width="1.55"/>
      </g>
    </g>
  </g>
</svg>
