<svg xmlns="http://www.w3.org/2000/svg" width="20" height="20"><defs><clipPath id="clip-path"><path id="사각형_226341" data-name="사각형 226341" fill="none" d="M0 0h20v20H0z"/></clipPath><style>.cls-6,.cls-7{fill:none}.cls-2{clip-path:url(#clip-path)}.cls-3{opacity:0}.cls-6,.cls-7{stroke:#111;stroke-linejoin:round;stroke-width:1.5px}.cls-7{stroke-linecap:round}</style></defs><g id="예약_이용내역_20x20" data-name="예약/이용내역_20x20" transform="translate(10 10)"><g id="그룹_294475" data-name="그룹 294475" class="cls-2" transform="translate(-10 -10)"><g id="그룹_294474" data-name="그룹 294474" class="cls-2"><g id="그룹_294471" data-name="그룹 294471" class="cls-3"><g id="그룹_294470" data-name="그룹 294470" class="cls-2"><path id="사각형_226336" data-name="사각형 226336" fill="#f0f" d="M0 0h20v20H0z"/></g></g><g id="그룹_294473" data-name="그룹 294473" class="cls-3"><g id="그룹_294472" data-name="그룹 294472" class="cls-2"><path id="사각형_226338" data-name="사각형 226338" fill="#ff00f3" d="M0 0h20v20H0z"/></g></g><path id="패스_596898" data-name="패스 596898" class="cls-6" d="M9.6 19.1H4s-2.6 0-2.6-4.3v-.9h11.2v.9c0 4.3 2.6 4.3 2.6 4.3a2.6 2.6 0 002.6-2.6V.9H3.1v12.6"/><path id="선_77321" data-name="선 77321" class="cls-7" transform="translate(9.6 19.1)" d="M1.3 0H0"/><path id="선_77322" data-name="선 77322" class="cls-7" transform="translate(10.3 4.4)" d="M0 0h1.5"/><path id="선_77323" data-name="선 77323" class="cls-6" transform="translate(6.6 4.4)" d="M0 0h4.6"/><path id="선_77324" data-name="선 77324" class="cls-7" transform="translate(8 7.4)" d="M0 0h2.1"/><path id="선_77325" data-name="선 77325" class="cls-6" transform="translate(6.6 7.4)" d="M0 0h2.3"/></g></g></g></svg>