<svg xmlns="http://www.w3.org/2000/svg" width="100" height="100"><defs><clipPath id="a"><path data-name="사각형 59828" transform="translate(138 80)" fill="#d5d5d5" d="M0 0h100v100H0z"/></clipPath><clipPath id="b"><path data-name="사각형 247687" fill="none" d="M0 0h100v100H0z"/></clipPath><clipPath id="c"><path data-name="사각형 247682" fill="none" d="M0 0h43.042v34.652H0z"/></clipPath><clipPath id="d"><path data-name="사각형 247685" fill="none" d="M0 0h9.688v6.137H0z"/></clipPath></defs><g data-name="마스크 그룹 269" transform="translate(-138 -80)" clip-path="url(#a)"><g data-name="그룹 324440"><g data-name="Layer 1"><g data-name="그룹 324439" clip-path="url(#b)" transform="translate(138 80)"><g data-name="그룹 324433" clip-path="url(#b)"><path data-name="패스 643754" d="M50 0A50 50 0 110 50 50.013 50.013 0 0150 0" fill="#f9f9f9"/><path data-name="패스 643755" d="M50 100a50 50 0 1150-50 50.066 50.066 0 01-50 50m0-99a49 49 0 1049 49A49.053 49.053 0 0050 1" fill="#f0f0f0"/></g><g data-name="그룹 324438" clip-path="url(#b)"><g data-name="그룹 324435"><g data-name="그룹 324434" clip-path="url(#c)" transform="translate(43.708 42.188)" opacity=".15"><path data-name="패스 643756" d="M26.229 0l16.438 8.9a.729.729 0 01.021 1.271L0 34.671"/></g></g><path data-name="패스 643757" d="M79.333 44.938l4.188 2.1a.958.958 0 01.333 1.479c-11.6 12.792-25.1 20.625-40.146 28.563l-9.583-5.521c2.229-1.292 1.958-3.542-.625-5.042s-6.5-1.646-8.729-.354l-9.584-5.538 8.021-3.042" fill="#fff"/><path data-name="패스 643758" d="M79.333 44.938l4.188 2.1a.958.958 0 01.333 1.479c-11.6 12.792-25.1 20.625-40.146 28.563l-9.583-5.521c2.229-1.292 1.958-3.542-.625-5.042s-6.5-1.646-8.729-.354l-9.584-5.538 8.021-3.042" fill="none" stroke="#222" stroke-linejoin="round" stroke-width=".833"/><path data-name="패스 643759" d="M82.999 44.875c-9.875 15.313-24.292 23.1-39.292 31.021l-9.583-5.521c2.229-1.292 1.958-3.542-.625-5.042s-6.479-1.646-8.729-.354l-9.583-5.521c18.625-6.9 33.333-16.646 40.042-32.208l9.583 5.521.458.271c-.333 3.292-.042 6.625 3.188 7.167 1.479.25 3.833-1.271 4.854-2.542l.875.5L82.541 43a1.354 1.354 0 01.458 1.9" fill="#fff"/><path data-name="패스 643760" d="M82.999 44.875c-9.875 15.313-24.292 23.1-39.292 31.021l-9.583-5.521c2.229-1.292 1.958-3.542-.625-5.042s-6.479-1.646-8.729-.354l-9.583-5.521c18.625-6.9 33.333-16.646 40.042-32.208l9.583 5.521.458.271c-.333 3.292-.042 6.625 3.188 7.167 1.479.25 3.833-1.271 4.854-2.542l.875.5L82.541 43a1.354 1.354 0 01.458 1.875z" fill="none" stroke="#222" stroke-linejoin="round" stroke-width=".833"/><path data-name="선 89109" fill="#fff" d="M26.479 54.896l26.792 15.479"/><path data-name="사각형 247683" d="M26.309 55.168l.313-.541.72.416-.312.541z"/><path data-name="패스 643761" d="M50.917 69.375l-1.5-.854.313-.542 1.5.854zm-3-1.729l-1.5-.854.313-.542 1.5.854zm-2.979-1.729l-1.5-.854.313-.542 1.5.854zm-2.979-1.729l-1.5-.854.313-.542 1.5.854zm-2.979-1.729l-1.5-.854.313-.542 1.5.854zm-2.979-1.729l-1.5-.854.313-.542 1.5.854zm-2.979-1.729l-1.5-.854.313-.542 1.5.854zm-2.98-1.726l-1.5-.854.313-.542 1.5.854z"/><path data-name="사각형 247684" d="M52.395 70.235l.313-.541.72.416-.312.541z"/><path data-name="패스 643762" d="M55.77 55.291a9.749 9.749 0 003 .125 6.479 6.479 0 002.458-.771 3.487 3.487 0 001.542-1.5 2.312 2.312 0 00.146-1.6l2.229 1.292a.646.646 0 01.313.688 2.729 2.729 0 01-.437.979 5.272 5.272 0 01-1.708 1.4 9.458 9.458 0 01-2.792 1.042 13.458 13.458 0 01-3.229.271 14.52 14.52 0 01-3.354-.521 13.27 13.27 0 01-3.167-1.312 8.208 8.208 0 01-2.271-1.812 3.646 3.646 0 01-.9-1.937 2.875 2.875 0 01.479-1.875 5.084 5.084 0 011.813-1.6 8.875 8.875 0 012.417-.979 11.127 11.127 0 011.792-.25 2.375 2.375 0 011.333.313l2 1.146a11.625 11.625 0 00-2.771.083 7.229 7.229 0 00-2.583.9 2.824 2.824 0 00-1.333 1.417 2 2 0 00.188 1.729 4.937 4.937 0 001.9 1.708 9.229 9.229 0 002.938 1.083" fill="#222"/><path data-name="패스 643763" d="M60.854 30.625A10.87 10.87 0 1150 20.333a10.578 10.578 0 0110.854 10.292" fill="#fff"/><path data-name="패스 643764" d="M60.854 30.625A10.87 10.87 0 1150 20.333a10.578 10.578 0 0110.854 10.292z" fill="none" stroke="#000001" stroke-linejoin="round" stroke-width=".833"/><path data-name="패스 643765" d="M60.854 32.959A10.87 10.87 0 1150 22.667a10.578 10.578 0 0110.854 10.292" fill="#ea002c"/><path data-name="패스 643766" d="M60.854 32.959A10.87 10.87 0 1150 22.667a10.578 10.578 0 0110.854 10.292z" fill="none" stroke="#000001" stroke-linejoin="round" stroke-width=".833"/><path data-name="선 89110" fill="#ea002c" d="M52.584 30.354l-5.167 5.188"/><path data-name="선 89111" fill="none" stroke="#fff" stroke-linecap="round" stroke-linejoin="round" stroke-width="1.667" d="M52.584 30.354l-5.167 5.188"/><path data-name="선 89112" fill="#ea002c" d="M47.417 30.354l5.167 5.188"/><path data-name="선 89113" fill="none" stroke="#fff" stroke-linecap="round" stroke-linejoin="round" stroke-width="1.667" d="M47.417 30.354l5.167 5.188"/><g data-name="그룹 324437"><g data-name="그룹 324436" clip-path="url(#d)" transform="translate(45.812 44.083)" opacity=".2"><path data-name="패스 643767" d="M9.604 1.354c.5 1.4-1.208 3.313-3.833 4.25S.604 6.187.104 4.771 1.312 1.459 3.937.521s5.167-.583 5.667.833"/></g></g></g></g></g></g></g></svg>