<svg xmlns="http://www.w3.org/2000/svg" xmlns:xlink="http://www.w3.org/1999/xlink" width="16" height="16" viewBox="0 0 16 16"><defs><style>.a,.c{fill:none;}.b{clip-path:url(#a);}.c{stroke:#000111;stroke-linecap:round;stroke-miterlimit:10;stroke-width:1.5px;}.d{fill:#000111;}.e{opacity:0;}.f{fill:#f0f;}</style><clipPath id="a"><rect class="a" width="16" height="16"/></clipPath></defs><g transform="translate(8 8)"><g class="b" transform="translate(-8 -8)"><g class="b"><path class="c" d="M2.5,14.5,3,12.1a6.5,6.5,0,1,1,2.2,1.8l-2.6.7"/><path class="d" d="M6,8a.8.8,0,1,1-.8-.8A.8.8,0,0,1,6,8Z"/><path class="d" d="M8.8,8A.8.8,0,1,1,8,7.2.8.8,0,0,1,8.8,8Z"/><path class="d" d="M11.7,8a.8.8,0,1,1-.8-.8.8.8,0,0,1,.8.8Z"/><g class="e"><g class="b"><rect class="f" width="16" height="16"/></g></g></g></g></g></svg>