<svg xmlns="http://www.w3.org/2000/svg" width="52.683" height="15.176"><defs><style>.a{fill:#ea002c}</style></defs><path class="a" d="M52.684 2.46l-5.576 12.124a1.017 1.017 0 01-.924.592h-1.509l2.15-4.706-4.021-8.01h2.316l2.778 5.9 2.637-5.9zM19.605 8.844l1.006 1.393a4.355 4.355 0 011.94-.531v5.469h1.117a.893.893 0 00.894-.894v-3.778a5.133 5.133 0 002.951.994 4.33 4.33 0 004.346-4.5 4.48 4.48 0 00-4.334-4.678 4 4 0 00-3 1.021v-.884h-1.978v4.738a4.247 4.247 0 011.893.314c-.08-2.262.97-3.346 2.753-3.346a2.652 2.652 0 012.717 2.755v.012a2.509 2.509 0 01-2.657 2.695 4.359 4.359 0 01-2.115-.91s-2.145-1.756-5.538.126M40.007 2.46v.884a4 4 0 00-3-1.021 4.48 4.48 0 00-4.334 4.678 4.33 4.33 0 004.346 4.5 5.133 5.133 0 002.951-.994v.857h2.01v-8.9zm-2.676 7.173a2.735 2.735 0 112.735-2.735 2.735 2.735 0 01-2.735 2.735M4.962 4.573c-.938-.439-1.709-.795-1.709-1.51 0-.548.44-.947 1.3-.947a4.424 4.424 0 01.851.087 2.512 2.512 0 00.414.046c.756 0 1.183-.45 1.469-1.308l.117-.348A7.9 7.9 0 004.436.001C1.875.001.522 1.645.522 3.35a2.87 2.87 0 00.692 1.973 6.147 6.147 0 002.042 1.4c1.057.519 2.009.9 2.009 1.67 0 .683-.706 1.07-1.646 1.07a5.137 5.137 0 01-2.56-.826L0 10.622a7.324 7.324 0 003.8.971c2.392 0 4.2-1.373 4.2-3.481S6.321 5.234 4.963 4.576M18.657.233h-3.093l-3.459 4.588h-.053V.233H9.505v11.266h.15a2.189 2.189 0 002.413-2.351V6.563h.054l3.526 4.8h3.243l-4.572-5.809z"/></svg>