<svg xmlns="http://www.w3.org/2000/svg" xmlns:xlink="http://www.w3.org/1999/xlink" width="20" height="20" viewBox="0 0 20 20"><defs><style>.a,.d{fill:#fff;}.a{stroke:#707070;}.b{clip-path:url(#a);}.c{fill:#e51826;}</style><clipPath id="a"><rect class="a" width="20" height="20" transform="translate(38 15)"/></clipPath></defs><g class="b" transform="translate(-38 -15)"><g transform="translate(38 15)"><circle class="c" cx="10" cy="10" r="10"/><g transform="translate(5.511 5.511)"><path class="d" d="M584.058,514.266v-2.143c0-.571.159-1.066.578-1.218l1.787-.636a1.6,1.6,0,0,0,.122-.65,2.187,2.187,0,0,0-1.438-2.141l-4.891-1.529,1.276-.457a.726.726,0,0,1,.229-.037.853.853,0,0,1,.238.037l4.991,1.56a2.046,2.046,0,0,1,1.192,1.889,1.148,1.148,0,0,1-.64,1.158c-.43.157-1.722.62-1.722.62a1.862,1.862,0,0,0-.126.782v1.932c0,.608-.293,1.16-.855,1.16a1.106,1.106,0,0,1-.739-.324" transform="translate(-579.086 -505.453)"/><path class="d" d="M543.975,533.334a2.452,2.452,0,0,1,.387,1.3v1.8a2.223,2.223,0,0,0,1.362,2.28l-1.308.452a.793.793,0,0,1-.674-.1,2.178,2.178,0,0,1-.974-2.013c0-.457,0-1.082,0-1.888a2.441,2.441,0,0,0-.5-1.391,1.713,1.713,0,0,0-.823-.6,2.064,2.064,0,0,1-1.164-1.887c0-.705.359-1.15.836-1.184a.723.723,0,0,1,.274.036c.282.086.511.165.511.165a2.27,2.27,0,0,0,1.279,2.408,1.478,1.478,0,0,1,.793.634" transform="translate(-540.282 -529.393)"/></g></g></g></svg>