<svg id="icon_membership_g_fold_40" xmlns="http://www.w3.org/2000/svg" width="40" height="40" viewBox="0 0 40 40">
  <g id="그룹_260107" data-name="그룹 260107">
    <path id="패스_580159" data-name="패스 580159" d="M3.758,3.96V26.409a4.017,4.017,0,0,0,2.008,3.479l11.42,6.593a4.015,4.015,0,0,0,4.017,0l11.421-6.593a4.019,4.019,0,0,0,2.008-3.479V3.96Z" fill="#fff"/>
    <path id="패스_580158" data-name="패스 580158" d="M5.138,6.154V26.687a3.965,3.965,0,0,0,2.007,3.439l11.4,6.519a4.05,4.05,0,0,0,4.012,0l11.406-6.519a3.965,3.965,0,0,0,2.007-3.439V6.154a.905.905,0,0,0-.91-.9H6.047a.9.9,0,0,0-.909.9Z" fill="#fddb2b"/>
    <path id="패스_580159-2" data-name="패스 580159" d="M3.758,3.96V26.409a4.017,4.017,0,0,0,2.008,3.479l11.42,6.593a4.015,4.015,0,0,0,4.017,0l11.421-6.593a4.019,4.019,0,0,0,2.008-3.479V3.96Z" fill="none" stroke="#fccb3a" stroke-linejoin="round" stroke-width="1"/>
  </g>
  <g id="그룹_262705" data-name="그룹 262705">
    <g id="그룹_260169" data-name="그룹 260169">
      <path id="Path_239343-2" data-name="Path 239343-2" d="M20.2,12.394A7.622,7.622,0,1,1,12.64,20.08v-.128A7.624,7.624,0,0,1,20.2,12.394" fill="#fff"/>
      <path id="Path_239344-2" data-name="Path 239344-2" d="M13.119,16.814a7.436,7.436,0,0,1,1.421-2" fill="none" stroke="#111" stroke-linecap="square" stroke-linejoin="round" stroke-width="1"/>
      <path id="Path_239345-2" data-name="Path 239345-2" d="M14.476,10.355s0,2.967,1.808,2.967h.129a7.623,7.623,0,1,1-3.294,3.493" fill="none" stroke="#111" stroke-linecap="round" stroke-linejoin="round" stroke-width="1"/>
      <path id="Path_239346-2" data-name="Path 239346-2" d="M16.934,10.936s-.47,1.694.562,1.887" fill="none" stroke="#111" stroke-linecap="round" stroke-linejoin="round" stroke-width="1"/>
      <path id="Path_239347-2" data-name="Path 239347-2" d="M20.289,20.885a1.486,1.486,0,0,1-2.907,0" fill="none" stroke="#111" stroke-linecap="square" stroke-miterlimit="10" stroke-width="1"/>
      <line id="Line_26071-3" data-name="Line 26071-3" y2="0.3" transform="translate(21.13 18.13)" fill="none" stroke="#111" stroke-linecap="round" stroke-width="1"/>
      <line id="Line_26071-4" data-name="Line 26071-4" y2="1.315" transform="translate(21.13 16.815)" fill="none" stroke="#111" stroke-width="1"/>
      <line id="Line_26072-3" data-name="Line 26072-3" y2="0.435" transform="translate(16.607 17.995)" fill="none" stroke="#111" stroke-linecap="round" stroke-width="1"/>
      <line id="Line_26072-4" data-name="Line 26072-4" y2="1.18" transform="translate(16.607 16.815)" fill="none" stroke="#111" stroke-width="1"/>
      <rect id="사각형_214890-2" data-name="사각형 214890-2" width="19" height="19" transform="translate(11.343 10.129)" fill="none"/>
    </g>
  </g>
  <path id="패스_585529" data-name="패스 585529" d="M25,11.578l-2.582-.7,1.559,2.435-1.518,2.46,2.708-1.083L27.1,17.029l-.079-2.891,2.433-1.358-2.487-.67L26.6,9.343Z" fill="#fff" stroke="#111" stroke-linejoin="round" stroke-width="1"/>
  <rect id="사각형_352455" data-name="사각형 352455" width="40" height="40" fill="#f0f" opacity="0"/>
</svg>
