<svg xmlns="http://www.w3.org/2000/svg" width="28" height="28"><defs><clipPath id="a"><path fill="none" d="M0 0h28v28H0z"/></clipPath><style>.f,.g{fill:none}.b{clip-path:url(#a)}.f,.g{stroke:#111;stroke-miterlimit:10}.f{stroke-linecap:round}</style></defs><g class="b"><path d="M14 0A14 14 0 110 14 14 14 0 0114 0" fill="#fddb2b"/><circle cx="13.5" cy="13.5" r="13.5" transform="translate(.5 .5)" stroke="#fccb3a" fill="none"/></g><g class="b"><path d="M19.4 16.9a3.5 3.5 0 11-3.5-3.5 3.5 3.5 0 013.5 3.5" fill="#fff"/><path class="f" d="M16.1 19.3a3.312 3.312 0 01-3.2-5.8l.5-.2V9.2a1.2 1.2 0 012.3 0v4.1a3.3 3.3 0 01.8 5.8"/></g><path class="f" d="M9.8 8.8h1.1"/><path class="g" d="M8.9 8.8h1"/><path class="f" d="M9.8 10.8h1.1"/><path class="g" d="M8.9 10.8h1"/></svg>