<svg xmlns="http://www.w3.org/2000/svg" xmlns:xlink="http://www.w3.org/1999/xlink" width="100" height="100" viewBox="0 0 100 100">
  <defs>
    <clipPath id="clip-path">
      <rect id="사각형_59828" data-name="사각형 59828" width="100" height="100" transform="translate(138 80)" fill="#d5d5d5"/>
    </clipPath>
    <clipPath id="clip-path-2">
      <rect id="사각형_434297" data-name="사각형 434297" width="100" height="100" fill="none"/>
    </clipPath>
    <clipPath id="clip-path-5">
      <rect id="사각형_434293" data-name="사각형 434293" width="59.063" height="36.731" fill="none"/>
    </clipPath>
    <clipPath id="clip-path-7">
      <rect id="사각형_434295" data-name="사각형 434295" width="10.104" height="5.412" fill="none"/>
    </clipPath>
  </defs>
  <g id="마스크_그룹_271" data-name="마스크 그룹 271" transform="translate(-138 -80)" clip-path="url(#clip-path)">
    <g id="null_100x100" transform="translate(188 130)">
      <g id="그룹_586859" data-name="그룹 586859" transform="translate(-50 -50)" style="isolation: isolate">
        <g id="Layer_1" data-name="Layer 1">
          <g id="그룹_586858" data-name="그룹 586858" clip-path="url(#clip-path-2)">
            <g id="그룹_586851" data-name="그룹 586851" clip-path="url(#clip-path-2)">
              <path id="패스_1457749" data-name="패스 1457749" d="M50,0A50,50,0,1,1,0,50,50.013,50.013,0,0,1,50,0" fill="#f9f9f9"/>
              <path id="패스_1457750" data-name="패스 1457750" d="M50,100a50,50,0,1,1,50-50,50.066,50.066,0,0,1-50,50M50,1A49,49,0,1,0,99,50,49.053,49.053,0,0,0,50,1" fill="#f0f0f0"/>
            </g>
            <g id="그룹_586854" data-name="그룹 586854" clip-path="url(#clip-path-2)">
              <path id="패스_1457751" data-name="패스 1457751" d="M299.408,190.1a38.934,38.934,0,0,0,3.917,1.563c.667.1,1.292,0,1.188-.458s-3.312-2.875-4.792-3.812a60.237,60.237,0,0,0-6.75-3.729A18.406,18.406,0,0,0,289.7,182.6s2.938,1.438,4.583,2.479a26.558,26.558,0,0,1,4.688,3.729,5.084,5.084,0,0,1,.458,1.292" transform="translate(-229.346 -144.558)" fill="#141c1e"/>
              <g id="그룹_586853" data-name="그룹 586853" transform="translate(20.667 44.854)" opacity="0.15" style="mix-blend-mode: multiply;isolation: isolate">
                <g id="그룹_586852" data-name="그룹 586852" clip-path="url(#clip-path-5)">
                  <path id="패스_1457752" data-name="패스 1457752" d="M157.16,225.658c-5.771-3.542-18.1-10.458-18.1-10.458L99.869,238.617s-3.187,4.708,4.667,9.125c11.375,6.375,15.563,3.625,15.563,3.625L156.14,230.6s4.063-3.042,1.021-4.917" transform="translate(-99.223 -215.221)"/>
                </g>
              </g>
              <path id="패스_1457753" data-name="패스 1457753" d="M222.063,337.321l-.792.792-.6.375L218,334.3l3.563.042Z" transform="translate(-172.583 -264.654)"/>
              <path id="패스_1457754" data-name="패스 1457754" d="M195.779,333.259l-2.6-1.5a2.462,2.462,0,0,0-2.437.25,7.639,7.639,0,0,0-3.437,5.979,2.408,2.408,0,0,0,1.021,2.229l2.6,1.5a2.421,2.421,0,0,0,2.417-.25,7.638,7.638,0,0,0,3.438-5.979,2.408,2.408,0,0,0-1.021-2.229" transform="translate(-148.279 -262.468)" fill="#222"/>
              <path id="패스_1457755" data-name="패스 1457755" d="M206.775,341.189a7.638,7.638,0,0,1-3.437,5.979,2.423,2.423,0,0,1-2.417.25,2.452,2.452,0,0,1-1.021-2.229,7.639,7.639,0,0,1,3.438-5.979,2.46,2.46,0,0,1,2.438-.25,2.408,2.408,0,0,1,1.021,2.229" transform="translate(-158.254 -268.168)" fill="#222"/>
              <path id="패스_1457756" data-name="패스 1457756" d="M208.075,342.695a7.034,7.034,0,0,1-3.187,5.521,1.943,1.943,0,0,1-3.187-1.854,7.034,7.034,0,0,1,3.188-5.521,2.254,2.254,0,0,1,2.25-.229,2.221,2.221,0,0,1,.938,2.063" transform="translate(-159.679 -269.486)" fill="#222"/>
              <path id="패스_1457757" data-name="패스 1457757" d="M210.824,347.681a5.083,5.083,0,0,1-2.312,4.021,1.448,1.448,0,0,1-2.312-1.354,5.083,5.083,0,0,1,2.313-4.021,1.448,1.448,0,0,1,2.313,1.354" transform="translate(-163.241 -273.952)" fill="#fff"/>
              <path id="패스_1457758" data-name="패스 1457758" d="M211.216,348.582a4.854,4.854,0,0,1-2.208,3.833,1.383,1.383,0,0,1-2.208-1.292,4.854,4.854,0,0,1,2.208-3.833,1.383,1.383,0,0,1,2.208,1.292" transform="translate(-163.716 -274.728)" fill="#fff"/>
              <path id="패스_1457759" data-name="패스 1457759" d="M212.479,347a1.377,1.377,0,0,1,1.021,1.5,4.792,4.792,0,0,1-2.167,3.771,1.521,1.521,0,0,1-1.333.188,1.482,1.482,0,0,0,1.542-.083,4.854,4.854,0,0,0,2.208-3.812,1.369,1.369,0,0,0-1.271-1.542" transform="translate(-166.25 -274.708)" fill="#ddd"/>
              <path id="패스_1457760" data-name="패스 1457760" d="M111.861,194.2c-1.229,1.146-3.208,2.875-3.208,2.875l-3.729,2.583A9.9,9.9,0,0,0,101.278,204a18.1,18.1,0,0,0-1.667,3.208,12.458,12.458,0,0,0,.25,3.479c-.021.1-.458,1.542,1.188,3.271s5.667,4.021,7.042,4.854,4.5,2.479,7.167,2.6a7.2,7.2,0,0,0,3.854-.687v-.042c.521-2.6,1.583-6.083,4.958-7.937,2.271-1.25,4.438-.458,3.438,2.958v.1l20.146-11.9c.438-2.479,2.375-6,4.583-7.271s3.792-.521,3.521,2.521a5.1,5.1,0,0,0,.938-1.479,2.792,2.792,0,0,0,.042-1.771,7.459,7.459,0,0,0,0-1.771,6.972,6.972,0,0,0-.958-1.937,18.344,18.344,0,0,0-1.021-2.521c-.417-.688-2.083-2.083-5.583-4.4a44.528,44.528,0,0,0-8.521-4.417,10.73,10.73,0,0,0-2.375-.479,5.231,5.231,0,0,0-1.75-.6,1.708,1.708,0,0,0-1.062.292,58.678,58.678,0,0,0-7.062,2.771,95.718,95.718,0,0,0-8.562,4.979c-1.458,1-4.312,3.229-6,4.625h0Z" transform="translate(-78.799 -142.33)" fill="none" stroke="#222" stroke-linejoin="round" stroke-width="0.625"/>
              <path id="패스_1457761" data-name="패스 1457761" d="M358.063,258.821l-.792.813-.6.354L354,255.8l3.563.063Z" transform="translate(-280.25 -202.508)"/>
              <path id="패스_1457762" data-name="패스 1457762" d="M331.779,254.759l-2.6-1.5a2.462,2.462,0,0,0-2.437.25,7.638,7.638,0,0,0-3.437,5.979,2.408,2.408,0,0,0,1.021,2.229l2.6,1.5a2.421,2.421,0,0,0,2.417-.25,7.638,7.638,0,0,0,3.438-5.979,2.408,2.408,0,0,0-1.021-2.229" transform="translate(-255.946 -200.322)" fill="#222"/>
              <path id="패스_1457763" data-name="패스 1457763" d="M342.775,262.789a7.671,7.671,0,0,1-3.437,5.979,2.423,2.423,0,0,1-2.417.25,2.452,2.452,0,0,1-1.021-2.229,7.638,7.638,0,0,1,3.438-5.979,2.46,2.46,0,0,1,2.438-.25,2.408,2.408,0,0,1,1.021,2.229" transform="translate(-265.921 -206.101)" fill="#222"/>
              <path id="패스_1457764" data-name="패스 1457764" d="M344.075,264.195a7.034,7.034,0,0,1-3.187,5.521,1.943,1.943,0,0,1-3.187-1.854,7.034,7.034,0,0,1,3.188-5.521,2.254,2.254,0,0,1,2.25-.229,2.221,2.221,0,0,1,.938,2.063" transform="translate(-267.346 -207.341)" fill="#222"/>
              <path id="패스_1457765" data-name="패스 1457765" d="M346.824,269.281a5.083,5.083,0,0,1-2.312,4.021,1.448,1.448,0,0,1-2.312-1.354,5.083,5.083,0,0,1,2.313-4.021,1.448,1.448,0,0,1,2.313,1.354" transform="translate(-270.907 -211.885)" fill="#fff"/>
              <path id="패스_1457766" data-name="패스 1457766" d="M347.216,270.082a4.854,4.854,0,0,1-2.208,3.833,1.383,1.383,0,0,1-2.208-1.292,4.854,4.854,0,0,1,2.208-3.833,1.383,1.383,0,0,1,2.208,1.292" transform="translate(-271.382 -212.582)" fill="#fff"/>
              <path id="패스_1457767" data-name="패스 1457767" d="M348.479,268.6a1.377,1.377,0,0,1,1.021,1.5,4.792,4.792,0,0,1-2.167,3.771,1.521,1.521,0,0,1-1.333.188,1.482,1.482,0,0,0,1.542-.083,4.854,4.854,0,0,0,2.208-3.833,1.369,1.369,0,0,0-1.271-1.542" transform="translate(-273.917 -212.642)" fill="#ddd"/>
              <path id="패스_1457768" data-name="패스 1457768" d="M160.368,236.531a1.981,1.981,0,0,0-.271-.9,1.2,1.2,0,0,0-1.25,0,1.485,1.485,0,0,0-.5,1.4,9.113,9.113,0,0,1,.063,1.229" transform="translate(-125.347 -186.406)" fill="#fff"/>
              <path id="패스_1457769" data-name="패스 1457769" d="M160.368,236.531a1.981,1.981,0,0,0-.271-.9,1.2,1.2,0,0,0-1.25,0,1.485,1.485,0,0,0-.5,1.4,9.113,9.113,0,0,1,.063,1.229" transform="translate(-125.347 -186.406)" fill="none" stroke="#222" stroke-linejoin="round" stroke-width="0.625"/>
              <path id="패스_1457770" data-name="패스 1457770" d="M111.761,194.146c-1.229,1.146-3.208,2.875-3.208,2.875l-3.729,2.583a9.9,9.9,0,0,0-3.646,4.333,18.105,18.105,0,0,0-1.667,3.208,12.459,12.459,0,0,0,.25,3.479c-.021.1-.458,1.542,1.188,3.271s5.667,4.021,7.042,4.854,4.5,2.479,7.146,2.583a7.2,7.2,0,0,0,3.854-.687V220.6c.521-2.6,1.583-6.083,4.958-7.937,2.271-1.25,4.438-.458,3.438,2.958v.1l20.146-11.9c.438-2.479,2.375-6,4.583-7.271s3.792-.521,3.521,2.521a5.1,5.1,0,0,0,.938-1.479,2.792,2.792,0,0,0,.042-1.771,7.458,7.458,0,0,0,0-1.771,6.972,6.972,0,0,0-.958-1.937,18.346,18.346,0,0,0-1.021-2.521c-.417-.687-2.083-2.083-5.583-4.4a45.632,45.632,0,0,0-8.521-4.437,10.729,10.729,0,0,0-2.375-.479,5.231,5.231,0,0,0-1.75-.6,1.708,1.708,0,0,0-1.062.292,58.676,58.676,0,0,0-7.062,2.771,96.27,96.27,0,0,0-8.583,4.979c-1.458,1-4.312,3.229-6,4.625h0Z" transform="translate(-78.72 -142.251)" fill="#fff"/>
              <path id="패스_1457771" data-name="패스 1457771" d="M111.761,194.146c-1.229,1.146-3.208,2.875-3.208,2.875l-3.729,2.583a9.9,9.9,0,0,0-3.646,4.333,18.105,18.105,0,0,0-1.667,3.208,12.459,12.459,0,0,0,.25,3.479c-.021.1-.458,1.542,1.188,3.271s5.667,4.021,7.042,4.854,4.5,2.479,7.146,2.583a7.2,7.2,0,0,0,3.854-.687V220.6c.521-2.6,1.583-6.083,4.958-7.937,2.271-1.25,4.438-.458,3.438,2.958v.1l20.146-11.9c.438-2.479,2.375-6,4.583-7.271s3.792-.521,3.521,2.521a5.1,5.1,0,0,0,.938-1.479,2.792,2.792,0,0,0,.042-1.771,7.458,7.458,0,0,0,0-1.771,6.972,6.972,0,0,0-.958-1.937,18.346,18.346,0,0,0-1.021-2.521c-.417-.687-2.083-2.083-5.583-4.4a45.632,45.632,0,0,0-8.521-4.437,10.729,10.729,0,0,0-2.375-.479,5.231,5.231,0,0,0-1.75-.6,1.708,1.708,0,0,0-1.062.292,58.676,58.676,0,0,0-7.062,2.771,96.27,96.27,0,0,0-8.583,4.979c-1.458,1-4.312,3.229-6,4.625h0Z" transform="translate(-78.72 -142.251)" fill="none" stroke="#222" stroke-linejoin="round" stroke-width="0.833"/>
              <path id="패스_1457772" data-name="패스 1457772" d="M157.007,239.108a3.312,3.312,0,0,0,2.458-1.1c.375-.417.813-.917,1.146-1.375.646-.875,3.667-5.917,5.146-8.021a.75.75,0,0,0-.271-1.1c-1.479-.771-4.646-2.479-6.25-3.479-2.1-1.333-5.458-3.625-5.458-3.625s-5.375,3.979-7.021,5.417-4.125,3.417-4.125,3.417a2.974,2.974,0,0,0,.375,2.75c.958,1.542,3.542,3.4,5.667,4.521,1.75.938,5.5,2.583,8.313,2.6" transform="translate(-112.778 -174.483)" fill="#222"/>
              <path id="패스_1457773" data-name="패스 1457773" d="M159.425,329.4a.417.417,0,0,1-.042-.792l4.417-1.625c1.479-.521,3.771-1.5,4.479-1.75s1.229-.437,1.083.229a6.57,6.57,0,0,1-3.646,3.771,8.875,8.875,0,0,1-6.292.146" transform="translate(-125.967 -257.291)" fill="#222"/>
              <path id="패스_1457774" data-name="패스 1457774" d="M159.425,329.4a.417.417,0,0,1-.042-.792l4.417-1.625c1.479-.521,3.771-1.5,4.479-1.75s1.229-.437,1.083.229a6.57,6.57,0,0,1-3.646,3.771A8.988,8.988,0,0,1,159.425,329.4Z" transform="translate(-125.967 -257.291)" fill="none" stroke="#222" stroke-miterlimit="10" stroke-width="0.625"/>
              <path id="패스_1457775" data-name="패스 1457775" d="M110.4,275.021h-.042a10.132,10.132,0,0,0-3.542,4.083l-.063.125h0a5.653,5.653,0,0,0-.312,2.438,4.433,4.433,0,0,0,1.208,2.229.188.188,0,0,0,.333-.146,13.4,13.4,0,0,1-.021-3.771A19.119,19.119,0,0,1,110.4,275" transform="translate(-84.232 -217.708)" fill="#222"/>
              <path id="패스_1457776" data-name="패스 1457776" d="M110.4,275.1h-.042a10.132,10.132,0,0,0-3.542,4.083l-.063.125h0a5.653,5.653,0,0,0-.312,2.438,4.433,4.433,0,0,0,1.208,2.229.187.187,0,0,0,.333-.146,13.4,13.4,0,0,1-.021-3.771A20,20,0,0,1,110.4,275.1Z" transform="translate(-84.232 -217.788)" fill="none" stroke="#222" stroke-miterlimit="10" stroke-width="0.625"/>
              <path id="패스_1457777" data-name="패스 1457777" d="M107.291,323.8a16.719,16.719,0,0,1-2.271-1.812,6.141,6.141,0,0,1-1.167-2.75c-.1-.625-.146-1.271.021-1.417s.708.458,1.354,1.063,1.833,1.542,1.833,1.542a3.23,3.23,0,0,0,.875.938,33.961,33.961,0,0,0,3.4,2,4.733,4.733,0,0,0,2.042.563s1.542.625,2.708,1.021,2.4.6,2.458,1.229-.479,1.021-1.187,1.438a3.913,3.913,0,0,1-2.9.042,7.147,7.147,0,0,1-1.729-.729" transform="translate(-82.145 -251.587)" fill="#222"/>
              <path id="패스_1457778" data-name="패스 1457778" d="M256.161,224.371c-.312-.417-4.021.375-6.271,1.458a37.734,37.734,0,0,0-6.312,4.063c-1.333,1.083-4.875,6.708-5.917,8.4,0,0-1.333,2.188-.9,2.875s1.125.188,1.979-.333l.167-.1a.666.666,0,0,1,.021-.312,21.5,21.5,0,0,1,1.854-1.875,1.215,1.215,0,0,1,1.292.083l8.875-5.875s3.563-2.875,4.583-4.9.938-3.083.6-3.479" transform="translate(-187.369 -177.537)" fill="#222"/>
              <path id="패스_1457779" data-name="패스 1457779" d="M252.917,249.517a1.238,1.238,0,0,1,1.146.021l7.6-5.042c-.271-1.271-1.083-4.771-1.646-6.4a41.146,41.146,0,0,0-4.208,2.9A31.283,31.283,0,0,0,252,246.121l.208,4.042a5.5,5.5,0,0,1,.708-.646" transform="translate(-199.5 -188.496)" fill="#222"/>
              <path id="패스_1457780" data-name="패스 1457780" d="M239.593,284.167l.813-.875-.292-3.792c-.625.958-1.187,1.875-1.646,2.625s-1.167,2.271-.9,2.729a.458.458,0,0,0,.417.271,3.03,3.03,0,0,0,1.187-.542l.188-.1.25-.146v-.125" transform="translate(-188.031 -221.271)" fill="#222"/>
              <path id="패스_1457781" data-name="패스 1457781" d="M303.475,225.063s-.062-.062-.375-.062a17.263,17.263,0,0,0-5.708,1.563l-.792.417c.354,1,1.292,3.771,1.958,6.042.833-.687,3.438-2.979,4.292-4.646s.938-2.917.625-3.312" transform="translate(-234.808 -178.125)" fill="#222"/>
              <path id="패스_1457782" data-name="패스 1457782" d="M299.6,189.071a63.984,63.984,0,0,0-6.646-3.75L290,184.3c.688.333,2.958,1.479,4.333,2.354a27.7,27.7,0,0,1,4.625,3.688,4.77,4.77,0,0,1,.417,1.167,35.85,35.85,0,0,0,3.917,1.5l.417.042a.792.792,0,0,0,.563-.146.146.146,0,0,0,.021-.146c-.1-.375-3.083-2.667-4.667-3.687" transform="translate(-229.583 -145.904)" fill="#222"/>
              <path id="패스_1457783" data-name="패스 1457783" d="M244.6,292.315l2.479-1.125a.646.646,0,0,1,.833.292l.25.521a1.667,1.667,0,0,1,.125,1.25c-.1.354-.333.6-.562.521l-.917-.292a3.688,3.688,0,0,0-1.9-.1h-.021a.542.542,0,0,1-.292-1.042" transform="translate(-193.353 -230.482)" fill="#fff"/>
              <path id="패스_1457784" data-name="패스 1457784" d="M244.6,292.315l2.479-1.125a.646.646,0,0,1,.833.292l.25.521a1.667,1.667,0,0,1,.125,1.25c-.1.354-.333.6-.562.521l-.917-.292a3.688,3.688,0,0,0-1.9-.1h-.021a.542.542,0,0,1-.292-1.042Z" transform="translate(-193.353 -230.482)" fill="none" stroke="#222" stroke-miterlimit="10" stroke-width="0.625"/>
              <path id="패스_1457785" data-name="패스 1457785" d="M110.4,275.1h-.042a10.132,10.132,0,0,0-3.542,4.083l-.063.125h0a5.653,5.653,0,0,0-.312,2.438,4.433,4.433,0,0,0,1.208,2.229.187.187,0,0,0,.333-.146,13.4,13.4,0,0,1-.021-3.771A20,20,0,0,1,110.4,275.1Z" transform="translate(-84.232 -217.788)" fill="none" stroke="#222" stroke-miterlimit="10" stroke-width="0.625"/>
              <path id="패스_1457786" data-name="패스 1457786" d="M159.425,329.4a.417.417,0,0,1-.042-.792l4.417-1.625c1.479-.521,3.771-1.5,4.479-1.75s1.229-.437,1.083.229a6.57,6.57,0,0,1-3.646,3.771A8.988,8.988,0,0,1,159.425,329.4Z" transform="translate(-125.967 -257.291)" fill="none" stroke="#222" stroke-miterlimit="10" stroke-width="0.625"/>
              <line id="선_169442" data-name="선 169442" y1="7.229" x2="12.229" transform="translate(57.188 59.375)" fill="#fff"/>
              <line id="선_169443" data-name="선 169443" y1="7.229" x2="12.229" transform="translate(57.188 59.375)" fill="none" stroke="#222" stroke-linecap="round" stroke-linejoin="round" stroke-width="0.625"/>
              <path id="패스_1457787" data-name="패스 1457787" d="M159.688,237.963a42.7,42.7,0,0,1-8.542-3.812c-3.25-1.958-4.937-3.75-5.646-4.958a1.832,1.832,0,0,1,.188-.292c.021-.021,1.958-1.958,3.583-3.375s5.75-5.1,6.458-5.625c.542.375,3.958,2.667,5.854,3.854,1.583,1,4.75,2.688,6.229,3.479a.625.625,0,0,1,.229.917l-.833,1.229q-2.062,3.188-4.271,6.271a6.042,6.042,0,0,1-3.229,2.313" transform="translate(-115.188 -174.088)" fill="#222"/>
              <path id="패스_1457788" data-name="패스 1457788" d="M155.063,220.4c.542.375,3.813,2.563,5.708,3.75,1.583,1,4.75,2.688,6.229,3.479a.625.625,0,0,1,.229.917l-.833,1.25q-2.062,3.188-4.271,6.271a6.042,6.042,0,0,1-3.229,2.313,42.7,42.7,0,0,1-8.542-3.813,17.617,17.617,0,0,1-5.854-5.25" transform="translate(-114.396 -174.483)" fill="none" stroke="#222" stroke-linecap="round" stroke-linejoin="round" stroke-width="0.625"/>
              <path id="패스_1457789" data-name="패스 1457789" d="M119.1,337.7a16.313,16.313,0,0,0,5.5,3.188" transform="translate(-94.287 -267.346)" fill="none" stroke="#fff" stroke-linecap="round" stroke-linejoin="round" stroke-width="0.625"/>
              <path id="패스_1457790" data-name="패스 1457790" d="M256.862,113.9v.021l-.062.042Z" transform="translate(-203.3 -90.171)" fill="#ea002c"/>
              <line id="선_169444" data-name="선 169444" x1="0.021" y2="0.021" transform="translate(53.563 23.729)" fill="#ea002c"/>
              <line id="선_169445" data-name="선 169445" x1="0.021" transform="translate(51.063 37.062)" fill="#ea002c"/>
            </g>
            <g id="그룹_586857" data-name="그룹 586857" clip-path="url(#clip-path-2)">
              <path id="패스_1457791" data-name="패스 1457791" d="M235.688,92.892A10.859,10.859,0,1,1,224.833,82.6c5.979,0,10.854,4.6,10.854,10.292" transform="translate(-169.417 -65.392)" fill="#fff"/>
              <path id="패스_1457792" data-name="패스 1457792" d="M235.688,92.892A10.859,10.859,0,1,1,224.833,82.6C230.813,82.6,235.688,87.2,235.688,92.892Z" transform="translate(-169.417 -65.392)" fill="none" stroke="#000001" stroke-linejoin="round" stroke-width="0.833"/>
              <g id="그룹_586856" data-name="그룹 586856" transform="translate(51.042 41.313)" opacity="0.2">
                <g id="그룹_586855" data-name="그룹 586855" clip-path="url(#clip-path-7)">
                  <path id="패스_1457793" data-name="패스 1457793" d="M255.183,201.008c0,1.5-2.271,2.708-5.042,2.708s-5.042-1.208-5.042-2.708,2.271-2.708,5.042-2.708,5.042,1.208,5.042,2.708" transform="translate(-245.079 -198.3)"/>
                </g>
              </g>
              <path id="패스_1457794" data-name="패스 1457794" d="M235.688,104.092A10.859,10.859,0,1,1,224.833,93.8c5.979,0,10.854,4.6,10.854,10.292" transform="translate(-169.417 -74.258)" fill="#3982f7"/>
              <path id="패스_1457795" data-name="패스 1457795" d="M235.688,104.092A10.859,10.859,0,1,1,224.833,93.8C230.813,93.8,235.688,98.4,235.688,104.092Z" transform="translate(-169.417 -74.258)" fill="none" stroke="#000001" stroke-linejoin="round" stroke-width="0.833"/>
              <path id="패스_1457796" data-name="패스 1457796" d="M264.485,157.367a.979.979,0,0,0-1.354,0,.958.958,0,1,0,1.354,0" transform="translate(-208.09 -124.367)" fill="#fff"/>
              <path id="패스_1457797" data-name="패스 1457797" d="M261.886,120.1a1.438,1.438,0,0,0-1.417,1.75l.438,4.021a.958.958,0,0,0,1.917,0l.438-4.021a1.438,1.438,0,0,0-1.4-1.75" transform="translate(-206.178 -95.079)" fill="#fff"/>
            </g>
          </g>
        </g>
      </g>
    </g>
  </g>
</svg>
