<svg xmlns="http://www.w3.org/2000/svg" xmlns:xlink="http://www.w3.org/1999/xlink" width="20" height="21" viewBox="0 0 20 21">
  <defs>
    <clipPath id="clip-path">
      <rect id="사각형_383717" data-name="사각형 383717" width="20" height="21" fill="none"/>
    </clipPath>
  </defs>
  <g id="icon_smile_4cccd9_20" transform="translate(10 12)">
    <g id="icon_smile_4cccd9_20-2" data-name="icon_smile_4cccd9_20" transform="translate(-10 -12)" clip-path="url(#clip-path)">
      <path id="패스_1363191" data-name="패스 1363191" d="M10.759,4.2A7.656,7.656,0,1,1,3.2,11.856h0A7.656,7.656,0,0,1,10.76,4.2" transform="translate(-1.261 0.646)" fill="#fff"/>
      <path id="패스_1363192" data-name="패스 1363192" d="M2.3,7.238A7.365,7.365,0,0,1,3.657,5.3" transform="translate(-0.071 1.775)" fill="none" stroke="#3938a0" stroke-linecap="square" stroke-linejoin="round" stroke-width="1.5"/>
      <path id="패스_1363193" data-name="패스 1363193" d="M3.632.7s0,3,1.841,3h.1A7.656,7.656,0,1,1,2.275,7.1" transform="translate(-0.046 1.917)" fill="none" stroke="#3938a0" stroke-linecap="round" stroke-linejoin="round" stroke-width="1.5"/>
      <path id="패스_1363194" data-name="패스 1363194" d="M6.2,1.3s-.485,1.648.581,1.841" transform="translate(-0.188 1.898)" fill="none" stroke="#3938a0" stroke-linecap="round" stroke-linejoin="round" stroke-width="1.5"/>
      <path id="패스_1363195" data-name="패스 1363195" d="M9.607,11.5a1.454,1.454,0,0,1-2.907,0" transform="translate(-0.207 1.583)" fill="none" stroke="#3938a0" stroke-linecap="square" stroke-miterlimit="10" stroke-width="1.4"/>
      <line id="선_151975" data-name="선 151975" y2="0.291" transform="translate(10.176 10.37)" fill="none" stroke="#3938a0" stroke-linecap="round" stroke-width="1.4"/>
      <line id="선_151976" data-name="선 151976" y2="1.357" transform="translate(10.176 9.013)" fill="none" stroke="#3d3eb0" stroke-width="1.4"/>
      <line id="선_151977" data-name="선 151977" y2="0.388" transform="translate(5.718 10.273)" fill="none" stroke="#3938a0" stroke-linecap="round" stroke-width="1.4"/>
      <line id="선_151978" data-name="선 151978" y2="1.26" transform="translate(5.718 9.013)" fill="none" stroke="#3938a0" stroke-width="1.4"/>
      <path id="패스_694088" data-name="패스 694088" d="M32.61,12.718,30,12.066l1.5,2.479L30,16.958l2.675-.979,2.088,2.283-.13-2.936,2.414-1.3L34.5,13.305,34.24,10.5Z" transform="translate(-18.414 -8.937)" fill="#fff" stroke="#3938a0" stroke-linejoin="round" stroke-width="1.5"/>
    </g>
  </g>
</svg>
