<svg xmlns="http://www.w3.org/2000/svg" xmlns:xlink="http://www.w3.org/1999/xlink" width="16" height="16" viewBox="0 0 16 16">
  <defs>
    <clipPath id="clip-path">
      <rect id="사각형_226381" data-name="사각형 226381" width="16" height="16" fill="none"/>
    </clipPath>
  </defs>
  <g id="패턴정보_20x20" transform="translate(8 8)">
    <g id="그룹_294510" data-name="그룹 294510" transform="translate(-8 -8)" clip-path="url(#clip-path)">
      <g id="그룹_294508" data-name="그룹 294508" clip-path="url(#clip-path)">
        <g id="그룹_294507" data-name="그룹 294507" opacity="0">
          <g id="그룹_294506" data-name="그룹 294506" clip-path="url(#clip-path)">
            <rect id="사각형_226377" data-name="사각형 226377" width="16" height="16" fill="#f0f"/>
          </g>
        </g>
      </g>
      <line id="선_77344" data-name="선 77344" y2="9.638" transform="translate(13.333 2.57)" fill="none" stroke="#3673ee" stroke-linecap="round" stroke-width="1.205"/>
      <line id="선_77345" data-name="선 77345" x1="10.843" y2="9.799" transform="translate(2.57 3.132)" fill="none" stroke="#3673ee" stroke-linecap="round" stroke-width="1.205"/>
      <line id="선_77346" data-name="선 77346" y2="9.638" transform="translate(2.731 2.57)" fill="none" stroke="#3673ee" stroke-linecap="round" stroke-width="1.205"/>
      <g id="그룹_294509" data-name="그룹 294509" clip-path="url(#clip-path)">
        <path id="패스_596903" data-name="패스 596903" d="M3.045,2a1.446,1.446,0,1,1-1.052.451A1.446,1.446,0,0,1,3.045,2" transform="translate(-0.314 -0.394)" fill="#3673ee"/>
        <path id="패스_596904" data-name="패스 596904" d="M3.046,14.3A1.446,1.446,0,1,1,1.6,15.746,1.446,1.446,0,0,1,3.046,14.3" transform="translate(-0.315 -2.815)" fill="#3673ee"/>
        <path id="패스_596905" data-name="패스 596905" d="M16.246,2A1.446,1.446,0,1,1,14.8,3.446,1.446,1.446,0,0,1,16.246,2" transform="translate(-2.913 -0.394)" fill="#3673ee"/>
        <path id="패스_596906" data-name="패스 596906" d="M16.246,14.3A1.446,1.446,0,1,1,14.8,15.746,1.446,1.446,0,0,1,16.246,14.3" transform="translate(-2.913 -2.815)" fill="#3673ee"/>
      </g>
    </g>
  </g>
</svg>
