<svg xmlns="http://www.w3.org/2000/svg" width="20" height="20"><defs><clipPath id="clip-path"><path id="사각형_226325" data-name="사각형 226325" fill="none" d="M0 0h20v20H0z"/></clipPath><style>.cls-6,.cls-7{fill:none}.cls-2{clip-path:url(#clip-path)}.cls-6,.cls-7{stroke:#111;stroke-width:1.4px}.cls-6{stroke-linecap:round}</style></defs><g id="smile_20x20" transform="translate(10 10)"><g id="그룹_294457" data-name="그룹 294457" class="cls-2" transform="translate(-10 -10)"><g id="그룹_294456" data-name="그룹 294456" class="cls-2"><path id="패스_596892" data-name="패스 596892" d="M10.4 10.7a1.9 1.9 0 01-3.7 0" stroke-linecap="square" stroke-miterlimit="10" stroke="#111" stroke-width="1.4" fill="none"/><path id="선_77315" data-name="선 77315" class="cls-6" transform="translate(11.5 7.2)" d="M0 0v.4"/><path id="선_77316" data-name="선 77316" class="cls-7" transform="translate(11.5 5.5)" d="M0 0v1.7"/><path id="선_77317" data-name="선 77317" class="cls-6" transform="translate(5.8 7)" d="M0 0v.6"/><path id="선_77318" data-name="선 77318" class="cls-7" transform="translate(5.8 5.5)" d="M0 0v1.5"/><path id="패스_596893" data-name="패스 596893" d="M10 1.5A8.5 8.5 0 111.5 10 8.5 8.5 0 0110 1.5M10 0a10 10 0 1010 10A10 10 0 0010 0" fill="#111"/></g></g></g></svg>