<svg xmlns="http://www.w3.org/2000/svg" xmlns:xlink="http://www.w3.org/1999/xlink" width="92.415" height="108.822" viewBox="0 0 92.415 108.822">
  <defs>
    <clipPath id="clip-path">
      <ellipse id="타원_9724" data-name="타원 9724" cx="26.746" cy="26.746" rx="26.746" ry="26.746" transform="translate(5.609 -7)" fill="#111"/>
    </clipPath>
    <clipPath id="clip-path-2">
      <rect id="사각형_312080" data-name="사각형 312080" width="86.496" height="86.496" fill="none"/>
    </clipPath>
    <clipPath id="clip-path-4">
      <rect id="사각형_312066" data-name="사각형 312066" width="12.218" height="6.31" fill="none"/>
    </clipPath>
    <clipPath id="clip-path-5">
      <rect id="사각형_312067" data-name="사각형 312067" width="12.693" height="6.308" fill="none"/>
    </clipPath>
    <clipPath id="clip-path-6">
      <rect id="사각형_312068" data-name="사각형 312068" width="8.931" height="25.071" fill="none"/>
    </clipPath>
    <clipPath id="clip-path-7">
      <rect id="사각형_312069" data-name="사각형 312069" width="1.233" height="2.167" fill="none"/>
    </clipPath>
    <clipPath id="clip-path-8">
      <rect id="사각형_312070" data-name="사각형 312070" width="4" height="3.531" fill="none"/>
    </clipPath>
    <clipPath id="clip-path-9">
      <rect id="사각형_312071" data-name="사각형 312071" width="3.784" height="1.429" fill="none"/>
    </clipPath>
    <clipPath id="clip-path-10">
      <rect id="사각형_312072" data-name="사각형 312072" width="3.092" height="3.103" fill="none"/>
    </clipPath>
    <clipPath id="clip-path-11">
      <rect id="사각형_312075" data-name="사각형 312075" width="3.59" height="4.394" fill="none"/>
    </clipPath>
    <clipPath id="clip-path-12">
      <rect id="사각형_312076" data-name="사각형 312076" width="3.979" height="4.524" fill="none"/>
    </clipPath>
    <clipPath id="clip-path-13">
      <rect id="사각형_312077" data-name="사각형 312077" width="2.357" height="4.169" fill="none"/>
    </clipPath>
    <clipPath id="clip-path-14">
      <rect id="사각형_312078" data-name="사각형 312078" width="5.579" height="33.76" fill="none"/>
    </clipPath>
  </defs>
  <g id="그룹_419863" data-name="그룹 419863" transform="translate(-39.806 -562.434)">
    <g id="img_illust_dawn" transform="translate(34.197 569.434)">
      <ellipse id="타원_7390" data-name="타원 7390" cx="26.746" cy="26.746" rx="26.746" ry="26.746" transform="translate(5.609 -7)" fill="#111"/>
      <g id="마스크_그룹_359636" data-name="마스크 그룹 359636" clip-path="url(#clip-path)">
        <g id="그룹_16287" data-name="그룹 16287" transform="translate(-6 -2.903)">
          <path id="패스_34865" data-name="패스 34865" d="M2062.134,1038.552l.525.177a.143.143,0,0,0,.181-.181l-.177-.524a.143.143,0,0,1,.021-.131l.332-.444a.142.142,0,0,0-.116-.227l-.554.008a.142.142,0,0,1-.118-.06l-.32-.452a.143.143,0,0,0-.253.04l-.165.529a.145.145,0,0,1-.094.094l-.53.165a.142.142,0,0,0-.04.252l.452.319a.142.142,0,0,1,.06.118l-.008.554a.143.143,0,0,0,.228.116l.445-.332A.143.143,0,0,1,2062.134,1038.552Z" transform="translate(-2023.556 -1032.47)" fill="#fff"/>
          <path id="패스_34866" data-name="패스 34866" d="M3069.357,1561.386l-.332-.046a.085.085,0,0,1-.065-.047l-.15-.3a.086.086,0,0,0-.155,0l-.147.3a.089.089,0,0,1-.065.048l-.332.051a.086.086,0,0,0-.047.148l.241.232a.086.086,0,0,1,.025.076l-.055.331a.086.086,0,0,0,.125.09l.3-.159a.087.087,0,0,1,.08,0l.3.154a.087.087,0,0,0,.125-.092l-.059-.331a.088.088,0,0,1,.024-.077l.239-.236A.086.086,0,0,0,3069.357,1561.386Z" transform="translate(-3001.431 -1541.457)" fill="#fff"/>
          <path id="패스_34867" data-name="패스 34867" d="M3693.859,2989.234l-.151-.3a.086.086,0,0,0-.155,0l-.146.3a.088.088,0,0,1-.065.048l-.332.051a.086.086,0,0,0-.047.147l.241.232a.088.088,0,0,1,.025.076l-.054.332a.086.086,0,0,0,.125.09l.3-.159a.086.086,0,0,1,.081,0l.3.153a.087.087,0,0,0,.125-.092l-.059-.331a.086.086,0,0,1,.024-.077l.24-.236a.086.086,0,0,0-.049-.146l-.332-.046A.084.084,0,0,1,3693.859,2989.234Z" transform="translate(-3608.091 -2927.719)" fill="#fff"/>
          <path id="패스_34868" data-name="패스 34868" d="M2223.028,1460.665l-.245.5a.144.144,0,0,1-.108.079l-.55.081a.144.144,0,0,0-.08.245l.4.389a.144.144,0,0,1,.041.127l-.093.55a.143.143,0,0,0,.207.151l.492-.26a.142.142,0,0,1,.134,0l.493.259a.143.143,0,0,0,.207-.152l-.095-.549a.144.144,0,0,1,.041-.127l.4-.39a.143.143,0,0,0-.08-.244l-.551-.08a.144.144,0,0,1-.108-.078l-.247-.5A.143.143,0,0,0,2223.028,1460.665Z" transform="translate(-2180.087 -1444.024)" fill="#fff"/>
          <path id="패스_34869" data-name="패스 34869" d="M4018.014,2161.809l-.551-.079a.145.145,0,0,1-.108-.079l-.247-.5a.142.142,0,0,0-.256,0l-.245.5a.145.145,0,0,1-.108.079l-.55.081a.144.144,0,0,0-.08.245l.4.389a.146.146,0,0,1,.042.127l-.094.55a.143.143,0,0,0,.208.151l.492-.26a.142.142,0,0,1,.133,0l.493.259a.143.143,0,0,0,.208-.152l-.095-.549a.14.14,0,0,1,.041-.127l.4-.39A.144.144,0,0,0,4018.014,2161.809Z" transform="translate(-3921.555 -2124.066)" fill="#fff"/>
          <path id="패스_34870" data-name="패스 34870" d="M3498.912,3566.323l-.524-.079a.136.136,0,0,1-.1-.079l-.235-.5a.133.133,0,0,0-.244,0l-.234.5a.137.137,0,0,1-.1.078l-.524.081a.146.146,0,0,0-.075.245l.379.389a.148.148,0,0,1,.04.127l-.089.55a.138.138,0,0,0,.2.151l.467-.26a.132.132,0,0,1,.127,0l.469.259a.138.138,0,0,0,.2-.151l-.09-.55a.148.148,0,0,1,.039-.127l.378-.39A.146.146,0,0,0,3498.912,3566.323Z" transform="translate(-3417.707 -3487.587)" fill="#fff"/>
          <path id="패스_34871" data-name="패스 34871" d="M1218.462,2055.894l-.551-.079a.144.144,0,0,1-.108-.079l-.247-.5a.143.143,0,0,0-.257,0l-.245.5a.146.146,0,0,1-.108.079l-.55.081a.144.144,0,0,0-.079.245l.4.388a.144.144,0,0,1,.042.127l-.093.55a.143.143,0,0,0,.208.151l.492-.26a.14.14,0,0,1,.133,0l.493.259a.143.143,0,0,0,.207-.152l-.095-.549a.143.143,0,0,1,.041-.127l.4-.39A.144.144,0,0,0,1218.462,2055.894Z" transform="translate(-1203.713 -2021.243)" fill="#fff"/>
          <path id="패스_34872" data-name="패스 34872" d="M3568.266,1312.689l-.221-.032a.057.057,0,0,1-.044-.031l-.1-.2a.058.058,0,0,0-.1,0l-.1.2a.058.058,0,0,1-.043.032l-.222.033a.057.057,0,0,0-.031.1l.16.156a.057.057,0,0,1,.016.051l-.037.221a.057.057,0,0,0,.084.061l.2-.1a.059.059,0,0,1,.054,0l.2.1a.058.058,0,0,0,.083-.061l-.038-.221a.056.056,0,0,1,.016-.051l.16-.157A.058.058,0,0,0,3568.266,1312.689Z" transform="translate(-3486.204 -1300.157)" fill="#fff"/>
          <path id="패스_34873" data-name="패스 34873" d="M3387.183,1117.956l-.222-.032a.055.055,0,0,1-.043-.031l-.1-.2a.058.058,0,0,0-.1,0l-.1.2a.058.058,0,0,1-.043.032l-.221.032a.058.058,0,0,0-.032.1l.16.157a.058.058,0,0,1,.017.051l-.038.221a.058.058,0,0,0,.084.061l.2-.1a.057.057,0,0,1,.053,0l.2.1a.058.058,0,0,0,.084-.061l-.039-.221a.059.059,0,0,1,.017-.051l.16-.157A.058.058,0,0,0,3387.183,1117.956Z" transform="translate(-3310.406 -1111.107)" fill="#fff"/>
          <path id="패스_34874" data-name="패스 34874" d="M3970.116,1894.927a.061.061,0,0,1,.017.051l-.038.221a.057.057,0,0,0,.083.061l.2-.1a.059.059,0,0,1,.054,0l.2.1a.058.058,0,0,0,.084-.061l-.038-.221a.056.056,0,0,1,.016-.051l.16-.157a.058.058,0,0,0-.032-.1l-.221-.032a.058.058,0,0,1-.043-.031l-.1-.2a.057.057,0,0,0-.1,0l-.1.2a.06.06,0,0,1-.044.032l-.221.032a.058.058,0,0,0-.032.1Z" transform="translate(-3877.007 -1865.152)" fill="#fff"/>
          <path id="패스_34875" data-name="패스 34875" d="M2879.167,3626.6l-.221-.032a.057.057,0,0,1-.044-.031l-.1-.2a.057.057,0,0,0-.1,0l-.1.2a.055.055,0,0,1-.043.031l-.221.032a.058.058,0,0,0-.032.1l.16.156a.058.058,0,0,1,.016.051l-.037.221a.058.058,0,0,0,.083.061l.2-.1a.054.054,0,0,1,.053,0l.2.1a.057.057,0,0,0,.083-.061l-.038-.221a.056.056,0,0,1,.016-.051l.16-.157A.058.058,0,0,0,2879.167,3626.6Z" transform="translate(-2817.217 -3546.529)" fill="#fff"/>
          <path id="패스_34876" data-name="패스 34876" d="M4112.182,2533.32a.062.062,0,0,0-.026-.1l-.178-.032a.051.051,0,0,1-.036-.031l-.079-.2a.043.043,0,0,0-.083,0l-.08.2a.051.051,0,0,1-.035.031l-.179.032a.063.063,0,0,0-.025.1l.129.157a.066.066,0,0,1,.014.051l-.031.221c-.006.047.034.084.067.061l.16-.1a.038.038,0,0,1,.042,0l.16.1c.034.022.073-.014.066-.061l-.029-.221a.064.064,0,0,1,.014-.051Z" transform="translate(-4014.385 -2485.065)" fill="#fff"/>
          <path id="패스_34877" data-name="패스 34877" d="M786.109,2562.4l-.037.221a.057.057,0,0,0,.084.061l.2-.1a.059.059,0,0,1,.054,0l.2.1a.057.057,0,0,0,.083-.061l-.038-.221a.058.058,0,0,1,.016-.051l.16-.157a.058.058,0,0,0-.032-.1l-.222-.032a.056.056,0,0,1-.043-.031l-.1-.2a.057.057,0,0,0-.1,0l-.1.2a.059.059,0,0,1-.043.032l-.222.033a.057.057,0,0,0-.032.1l.161.156A.059.059,0,0,1,786.109,2562.4Z" transform="translate(-785.914 -2513.092)" fill="#fff"/>
          <path id="패스_34878" data-name="패스 34878" d="M3338.852,3324.085l-.222-.032a.057.057,0,0,1-.043-.031l-.1-.2a.058.058,0,0,0-.1,0l-.1.2a.06.06,0,0,1-.043.032l-.222.032a.058.058,0,0,0-.032.1l.161.156a.057.057,0,0,1,.017.051l-.037.221a.057.057,0,0,0,.083.061l.2-.1a.057.057,0,0,1,.053,0l.2.1a.058.058,0,0,0,.084-.061l-.038-.221a.056.056,0,0,1,.016-.051l.16-.157A.058.058,0,0,0,3338.852,3324.085Z" transform="translate(-3263.486 -3252.847)" fill="#fff"/>
          <path id="패스_34879" data-name="패스 34879" d="M2432.93,1240.2a.057.057,0,0,1,.017.051l-.038.221a.057.057,0,0,0,.083.061l.2-.1a.058.058,0,0,1,.054,0l.2.1a.058.058,0,0,0,.084-.061l-.038-.221a.058.058,0,0,1,.017-.052l.16-.157a.058.058,0,0,0-.032-.1l-.222-.032a.057.057,0,0,1-.044-.031l-.1-.2a.058.058,0,0,0-.1,0l-.1.2a.058.058,0,0,1-.043.032l-.221.032a.058.058,0,0,0-.032.1Z" transform="translate(-2384.686 -1229.535)" fill="#fff"/>
          <path id="패스_34880" data-name="패스 34880" d="M3600.133,1841.167l-.221-.032a.058.058,0,0,1-.043-.031l-.1-.2a.057.057,0,0,0-.1,0l-.1.2a.058.058,0,0,1-.043.031l-.222.033a.058.058,0,0,0-.032.1l.161.157a.058.058,0,0,1,.017.051l-.038.221a.058.058,0,0,0,.083.061l.2-.1a.058.058,0,0,1,.054,0l.2.1a.057.057,0,0,0,.083-.061l-.038-.221a.057.057,0,0,1,.016-.051l.16-.157A.058.058,0,0,0,3600.133,1841.167Z" transform="translate(-3517.141 -1813.21)" fill="#fff"/>
          <path id="패스_34881" data-name="패스 34881" d="M1646.066,1103.146l.2.1a.058.058,0,0,0,.083-.061l-.038-.221a.057.057,0,0,1,.016-.051l.16-.157a.058.058,0,0,0-.032-.1l-.222-.032a.057.057,0,0,1-.043-.032l-.1-.2a.058.058,0,0,0-.1,0l-.1.2a.057.057,0,0,1-.043.031l-.222.033a.058.058,0,0,0-.032.1l.161.156a.058.058,0,0,1,.016.051l-.038.221a.058.058,0,0,0,.084.061l.2-.1A.058.058,0,0,1,1646.066,1103.146Z" transform="translate(-1620.483 -1096.26)" fill="#fff"/>
          <path id="패스_34882" data-name="패스 34882" d="M2863.264,1925.358a.058.058,0,0,0-.032-.1l-.222-.032a.057.057,0,0,1-.043-.032l-.1-.2a.058.058,0,0,0-.1,0l-.1.2a.058.058,0,0,1-.043.032l-.221.032a.058.058,0,0,0-.032.1l.16.156a.058.058,0,0,1,.017.051l-.038.221a.058.058,0,0,0,.084.061l.2-.105a.059.059,0,0,1,.054,0l.2.1a.058.058,0,0,0,.083-.061l-.038-.221a.056.056,0,0,1,.016-.051Z" transform="translate(-2801.747 -1894.848)" fill="#fff"/>
          <path id="패스_34883" data-name="패스 34883" d="M1931.737,2416.573l-.347-.05a.092.092,0,0,1-.068-.05l-.155-.314a.09.09,0,0,0-.162,0l-.154.315a.092.092,0,0,1-.068.05l-.347.051a.091.091,0,0,0-.05.154l.251.244a.092.092,0,0,1,.026.08l-.059.346a.09.09,0,0,0,.131.095l.31-.163a.089.089,0,0,1,.084,0l.31.163a.09.09,0,0,0,.13-.1l-.06-.346a.091.091,0,0,1,.026-.08l.25-.245A.09.09,0,0,0,1931.737,2416.573Z" transform="translate(-1896.958 -2371.658)" fill="#fff"/>
          <path id="패스_34884" data-name="패스 34884" d="M1256.748,1623.587l-.222-.032a.057.057,0,0,1-.043-.031l-.1-.2a.057.057,0,0,0-.1,0l-.1.2a.058.058,0,0,1-.043.032l-.222.032a.058.058,0,0,0-.032.1l.161.156a.058.058,0,0,1,.016.051l-.037.221a.057.057,0,0,0,.083.061l.2-.1a.057.057,0,0,1,.053,0l.2.1a.058.058,0,0,0,.083-.061l-.038-.221a.059.059,0,0,1,.016-.051l.16-.157A.058.058,0,0,0,1256.748,1623.587Z" transform="translate(-1242.151 -1601.98)" fill="#fff"/>
          <path id="패스_34885" data-name="패스 34885" d="M1006.82,1879.377l-.222-.032a.057.057,0,0,1-.044-.031l-.1-.2a.057.057,0,0,0-.1,0l-.1.2a.058.058,0,0,1-.043.031l-.222.033a.057.057,0,0,0-.032.1l.16.157a.058.058,0,0,1,.017.051l-.037.221a.058.058,0,0,0,.083.061l.2-.1a.056.056,0,0,1,.054,0l.2.1a.058.058,0,0,0,.083-.061l-.038-.221a.056.056,0,0,1,.016-.051l.16-.157A.058.058,0,0,0,1006.82,1879.377Z" transform="translate(-999.518 -1850.305)" fill="#fff"/>
          <path id="패스_34886" data-name="패스 34886" d="M2954.752,2973.889l-.222-.032a.058.058,0,0,1-.043-.032l-.1-.2a.057.057,0,0,0-.1,0l-.1.2a.057.057,0,0,1-.043.032l-.222.033a.058.058,0,0,0-.032.1l.161.156a.057.057,0,0,1,.017.051l-.038.221a.058.058,0,0,0,.083.061l.2-.1a.06.06,0,0,1,.054,0l.2.1a.058.058,0,0,0,.083-.061l-.038-.221a.059.059,0,0,1,.017-.052l.16-.157A.058.058,0,0,0,2954.752,2973.889Z" transform="translate(-2890.597 -2912.872)" fill="#fff"/>
          <path id="패스_34887" data-name="패스 34887" d="M817.393,2277.61l-.222-.032a.056.056,0,0,1-.043-.032l-.1-.2a.058.058,0,0,0-.1,0l-.1.2a.058.058,0,0,1-.043.032l-.221.033a.058.058,0,0,0-.032.1l.161.156a.058.058,0,0,1,.017.051l-.038.222a.058.058,0,0,0,.084.06l.2-.1a.055.055,0,0,1,.054,0l.2.1a.058.058,0,0,0,.083-.061l-.038-.221a.059.059,0,0,1,.016-.052l.16-.157A.058.058,0,0,0,817.393,2277.61Z" transform="translate(-815.619 -2236.915)" fill="#fff"/>
          <path id="패스_34888" data-name="패스 34888" d="M1243.752,2587.66l-.178-.033a.048.048,0,0,1-.035-.031l-.079-.2a.043.043,0,0,0-.083,0l-.08.2a.047.047,0,0,1-.035.031l-.178.032a.062.062,0,0,0-.026.1l.129.157a.067.067,0,0,1,.013.051l-.031.222c-.006.046.033.083.067.06l.16-.1a.038.038,0,0,1,.043,0l.159.1c.034.023.074-.013.068-.061l-.031-.221a.069.069,0,0,1,.013-.051l.129-.156A.062.062,0,0,0,1243.752,2587.66Z" transform="translate(-1229.701 -2537.914)" fill="#fff"/>
          <path id="패스_34889" data-name="패스 34889" d="M3417.943,2417.6l-.222-.032a.058.058,0,0,1-.043-.031l-.1-.2a.058.058,0,0,0-.1,0l-.1.2a.061.061,0,0,1-.044.032l-.222.032a.058.058,0,0,0-.031.1l.16.156a.056.056,0,0,1,.016.051l-.037.221a.057.057,0,0,0,.083.061l.2-.1a.056.056,0,0,1,.054,0l.2.1a.057.057,0,0,0,.083-.061l-.038-.221a.057.057,0,0,1,.017-.051l.16-.157A.058.058,0,0,0,3417.943,2417.6Z" transform="translate(-3340.267 -2372.823)" fill="#fff"/>
          <path id="패스_34890" data-name="패스 34890" d="M849.487,2865.715l-.222-.032a.056.056,0,0,1-.043-.031l-.1-.2a.057.057,0,0,0-.1,0l-.1.2a.057.057,0,0,1-.043.031l-.222.032a.058.058,0,0,0-.032.1l.161.156a.057.057,0,0,1,.016.051l-.037.222a.057.057,0,0,0,.084.06l.2-.1a.058.058,0,0,1,.054,0l.2.1a.058.058,0,0,0,.083-.061l-.038-.221a.058.058,0,0,1,.017-.051l.16-.157A.058.058,0,0,0,849.487,2865.715Z" transform="translate(-846.776 -2807.854)" fill="#fff"/>
          <path id="패스_34891" data-name="패스 34891" d="M4024.326,2881.536l-.038-.221a.057.057,0,0,1,.016-.051l.16-.157a.058.058,0,0,0-.032-.1l-.221-.032a.058.058,0,0,1-.043-.031l-.1-.2a.058.058,0,0,0-.1,0l-.1.2a.058.058,0,0,1-.043.031l-.221.033a.058.058,0,0,0-.033.1l.162.157a.058.058,0,0,1,.016.051l-.037.221a.058.058,0,0,0,.084.061l.2-.105a.059.059,0,0,1,.054,0l.2.1A.058.058,0,0,0,4024.326,2881.536Z" transform="translate(-3929.056 -2822.702)" fill="#fff"/>
          <path id="패스_34892" data-name="패스 34892" d="M1911.068,3019.72l-.222-.032a.06.06,0,0,1-.043-.031l-.1-.2a.057.057,0,0,0-.1,0l-.1.2a.059.059,0,0,1-.043.032l-.222.032a.058.058,0,0,0-.032.1l.161.156a.058.058,0,0,1,.017.051l-.038.221a.058.058,0,0,0,.084.061l.2-.1a.058.058,0,0,1,.053,0l.2.1a.058.058,0,0,0,.083-.061l-.038-.221a.06.06,0,0,1,.017-.052l.16-.157A.057.057,0,0,0,1911.068,3019.72Z" transform="translate(-1877.374 -2957.365)" fill="#fff"/>
          <path id="패스_34893" data-name="패스 34893" d="M1656.382,2130.011l-.222-.032a.057.057,0,0,1-.043-.031l-.1-.2a.058.058,0,0,0-.1,0l-.1.2a.057.057,0,0,1-.043.032l-.221.033a.058.058,0,0,0-.032.1l.161.156a.057.057,0,0,1,.017.051l-.038.222a.057.057,0,0,0,.084.06l.2-.1a.057.057,0,0,1,.054,0l.2.1a.058.058,0,0,0,.083-.061l-.038-.221a.058.058,0,0,1,.016-.051l.16-.157A.058.058,0,0,0,1656.382,2130.011Z" transform="translate(-1630.121 -2093.624)" fill="#fff"/>
          <path id="패스_34894" data-name="패스 34894" d="M3825.22,2426.809l-.222-.032a.058.058,0,0,1-.043-.031l-.1-.2a.058.058,0,0,0-.1,0l-.1.2a.056.056,0,0,1-.043.032l-.222.032a.058.058,0,0,0-.032.1l.161.156a.055.055,0,0,1,.016.051l-.037.221a.058.058,0,0,0,.083.061l.2-.1a.057.057,0,0,1,.054,0l.2.1a.057.057,0,0,0,.083-.061l-.038-.221a.057.057,0,0,1,.017-.051l.159-.157A.057.057,0,0,0,3825.22,2426.809Z" transform="translate(-3735.659 -2381.759)" fill="#fff"/>
          <path id="패스_34895" data-name="패스 34895" d="M2550.706,3833.013l-.221-.032a.054.054,0,0,1-.043-.031l-.1-.2a.057.057,0,0,0-.1,0l-.1.2a.061.061,0,0,1-.044.031l-.222.033a.058.058,0,0,0-.032.1l.161.156a.057.057,0,0,1,.016.051l-.037.221a.057.057,0,0,0,.083.061l.2-.1a.057.057,0,0,1,.054,0l.2.1a.057.057,0,0,0,.083-.061l-.038-.221a.058.058,0,0,1,.016-.051l.16-.157A.058.058,0,0,0,2550.706,3833.013Z" transform="translate(-2498.343 -3746.921)" fill="#fff"/>
          <path id="패스_34896" data-name="패스 34896" d="M2111.95,3997.95l-.222-.031a.053.053,0,0,1-.043-.033l-.1-.2a.057.057,0,0,0-.1,0l-.1.2a.057.057,0,0,1-.043.032l-.222.033a.058.058,0,0,0-.031.1l.16.156a.058.058,0,0,1,.017.05l-.037.222a.057.057,0,0,0,.083.06l.2-.1a.055.055,0,0,1,.053,0l.2.1a.057.057,0,0,0,.083-.061l-.038-.222a.055.055,0,0,1,.016-.05l.16-.157A.058.058,0,0,0,2111.95,3997.95Z" transform="translate(-2072.393 -3907.044)" fill="#fff"/>
          <path id="패스_34897" data-name="패스 34897" d="M3143.463,3845.3l-.221-.032a.057.057,0,0,1-.043-.031l-.1-.2a.057.057,0,0,0-.1,0l-.1.2a.063.063,0,0,1-.043.032l-.221.032a.058.058,0,0,0-.032.1l.161.156a.06.06,0,0,1,.017.051l-.038.222a.058.058,0,0,0,.084.06l.2-.1a.057.057,0,0,1,.054,0l.2.1a.058.058,0,0,0,.084-.062l-.038-.22a.057.057,0,0,1,.016-.051l.16-.157A.058.058,0,0,0,3143.463,3845.3Z" transform="translate(-3073.8 -3758.851)" fill="#fff"/>
          <path id="패스_34898" data-name="패스 34898" d="M2111.951,3495.778l-.222-.032a.058.058,0,0,1-.043-.031l-.1-.2a.058.058,0,0,0-.1,0l-.1.2a.057.057,0,0,1-.043.031l-.222.033a.058.058,0,0,0-.031.1l.161.156a.061.061,0,0,1,.017.052l-.038.221a.058.058,0,0,0,.084.061l.2-.1a.057.057,0,0,1,.053,0l.2.1a.057.057,0,0,0,.083-.061l-.038-.221a.059.059,0,0,1,.016-.051l.16-.157A.058.058,0,0,0,2111.951,3495.778Z" transform="translate(-2072.393 -3419.529)" fill="#fff"/>
          <path id="패스_34899" data-name="패스 34899" d="M2779.668,3982.655l-.222-.031a.057.057,0,0,1-.043-.032l-.1-.2a.057.057,0,0,0-.1,0l-.1.2a.056.056,0,0,1-.043.032l-.221.033a.057.057,0,0,0-.032.1l.16.156a.059.059,0,0,1,.017.051l-.038.221a.058.058,0,0,0,.083.062l.2-.1a.054.054,0,0,1,.053,0l.2.1a.057.057,0,0,0,.083-.061l-.038-.221a.059.059,0,0,1,.016-.051l.16-.157A.058.058,0,0,0,2779.668,3982.655Z" transform="translate(-2720.622 -3892.196)" fill="#fff"/>
          <path id="패스_34900" data-name="패스 34900" d="M3322.918,1430.294l-.221-.032a.057.057,0,0,1-.044-.032l-.1-.2a.057.057,0,0,0-.1,0l-.1.2a.059.059,0,0,1-.043.031l-.222.033a.058.058,0,0,0-.032.1l.161.156a.06.06,0,0,1,.017.051l-.038.221a.057.057,0,0,0,.083.061l.2-.1a.057.057,0,0,1,.053,0l.2.1a.058.058,0,0,0,.083-.061l-.038-.221a.057.057,0,0,1,.016-.051l.16-.157A.057.057,0,0,0,3322.918,1430.294Z" transform="translate(-3248.017 -1414.329)" fill="#fff"/>
          <path id="패스_34901" data-name="패스 34901" d="M1598.653,3308.791l-.222-.032a.058.058,0,0,1-.043-.031l-.1-.2a.057.057,0,0,0-.1,0l-.1.2a.059.059,0,0,1-.043.032l-.222.033a.057.057,0,0,0-.032.1l.16.156a.057.057,0,0,1,.017.051l-.038.222a.058.058,0,0,0,.084.061l.2-.1a.058.058,0,0,1,.053,0l.2.1a.057.057,0,0,0,.083-.061l-.038-.221a.058.058,0,0,1,.017-.051l.16-.157A.058.058,0,0,0,1598.653,3308.791Z" transform="translate(-1574.077 -3237.999)" fill="#fff"/>
          <path id="패스_34902" data-name="패스 34902" d="M2015.991,947.231a.057.057,0,0,1,.016.051l-.038.221a.058.058,0,0,0,.084.061l.2-.1a.057.057,0,0,1,.054,0l.2.1a.058.058,0,0,0,.083-.061l-.038-.221a.057.057,0,0,1,.017-.051l.16-.157a.058.058,0,0,0-.032-.1l-.221-.032a.058.058,0,0,1-.044-.032l-.1-.2a.058.058,0,0,0-.1,0l-.1.2a.058.058,0,0,1-.043.032l-.222.033a.058.058,0,0,0-.031.1Z" transform="translate(-1979.916 -945.116)" fill="#fff"/>
          <path id="패스_34903" data-name="패스 34903" d="M2746.631,893.728a.058.058,0,0,1,.016.051l-.037.221a.058.058,0,0,0,.084.061l.2-.1a.057.057,0,0,1,.053,0l.2.1a.057.057,0,0,0,.083-.061l-.038-.221a.056.056,0,0,1,.016-.051l.16-.157a.058.058,0,0,0-.032-.1l-.221-.032a.059.059,0,0,1-.044-.032l-.1-.2a.057.057,0,0,0-.1,0l-.1.2a.058.058,0,0,1-.043.032l-.221.033a.058.058,0,0,0-.032.1Z" transform="translate(-2689.231 -893.175)" fill="#fff"/>
          <path id="패스_34904" data-name="패스 34904" d="M1760.944,1445.844a.059.059,0,0,1,.017.051l-.038.221a.058.058,0,0,0,.084.061l.2-.1a.059.059,0,0,1,.054,0l.2.1a.058.058,0,0,0,.083-.061l-.039-.221a.058.058,0,0,1,.017-.051l.16-.157a.058.058,0,0,0-.032-.1l-.222-.032a.058.058,0,0,1-.043-.032l-.1-.2a.058.058,0,0,0-.1,0l-.1.2a.058.058,0,0,1-.044.032l-.221.033a.058.058,0,0,0-.032.1Z" transform="translate(-1732.314 -1429.177)" fill="#fff"/>
          <path id="패스_34905" data-name="패스 34905" d="M2969.983,1297.652a.057.057,0,0,1,.017.051l-.038.221a.058.058,0,0,0,.084.061l.2-.1a.059.059,0,0,1,.054,0l.2.1a.058.058,0,0,0,.084-.061l-.038-.221a.058.058,0,0,1,.017-.051l.16-.157a.058.058,0,0,0-.032-.1l-.222-.032a.058.058,0,0,1-.043-.031l-.1-.2a.058.058,0,0,0-.1,0l-.1.2a.057.057,0,0,1-.043.031l-.221.033a.058.058,0,0,0-.032.1Z" transform="translate(-2906.065 -1285.31)" fill="#fff"/>
          <path id="패스_34906" data-name="패스 34906" d="M2667.09,1522.8l.145.141.015.015a.059.059,0,0,1,.017.051l-.038.221a.058.058,0,0,0,.084.061l.2-.1a.055.055,0,0,1,.053,0l.2.1a.057.057,0,0,0,.083-.061l-.038-.221a.058.058,0,0,1,.017-.051l.159-.157a.058.058,0,0,0-.032-.1l-.222-.032a.059.059,0,0,1-.044-.031l-.1-.2a.057.057,0,0,0-.1,0l-.1.2a.058.058,0,0,1-.043.032l-.125.018-.1.014A.058.058,0,0,0,2667.09,1522.8Z" transform="translate(-2612.168 -1504.034)" fill="#fff"/>
          <path id="패스_34907" data-name="패스 34907" d="M3589.475,1573.792l-.105-.608a.161.161,0,0,1,.045-.141l.44-.431a.159.159,0,0,0-.088-.27l-.609-.088a.157.157,0,0,1-.119-.086l-.273-.553a.158.158,0,0,0-.284,0l-.272.553a.157.157,0,0,1-.119.087l-.608.089a.159.159,0,0,0-.087.271l.441.43a.159.159,0,0,1,.046.14l-.1.608a.158.158,0,0,0,.23.167l.544-.288a.158.158,0,0,1,.147,0l.545.286A.158.158,0,0,0,3589.475,1573.792Z" transform="translate(-3505.584 -1551.729)" fill="#fff"/>
          <path id="패스_34908" data-name="패스 34908" d="M1374.562,1271.9a.159.159,0,0,1,.046.14l-.1.608a.158.158,0,0,0,.23.167l.544-.288a.157.157,0,0,1,.147,0l.545.286a.158.158,0,0,0,.229-.167l-.1-.608a.158.158,0,0,1,.045-.14l.44-.431a.159.159,0,0,0-.088-.27l-.609-.088a.159.159,0,0,1-.119-.087l-.273-.553a.158.158,0,0,0-.284,0l-.271.553a.158.158,0,0,1-.119.087l-.609.089a.159.159,0,0,0-.087.271Z" transform="translate(-1356.907 -1259.369)" fill="#fff"/>
          <path id="패스_34909" data-name="패스 34909" d="M3826.758,3240.574l-.609-.088a.161.161,0,0,1-.119-.086l-.273-.552a.158.158,0,0,0-.284,0l-.271.553a.158.158,0,0,1-.119.087l-.608.09a.159.159,0,0,0-.088.271l.441.43a.159.159,0,0,1,.046.14l-.1.608a.159.159,0,0,0,.23.167l.544-.288a.158.158,0,0,1,.147,0l.545.286a.159.159,0,0,0,.23-.168l-.105-.607a.158.158,0,0,1,.045-.14l.44-.431A.159.159,0,0,0,3826.758,3240.574Z" transform="translate(-3735.658 -3171.269)" fill="#fff"/>
          <path id="패스_34910" data-name="패스 34910" d="M2553.226,1077.163a.158.158,0,0,1,.046.14l-.1.608a.158.158,0,0,0,.229.167l.544-.288a.157.157,0,0,1,.147,0l.545.286a.158.158,0,0,0,.229-.167l-.1-.608a.159.159,0,0,1,.045-.14l.44-.431a.159.159,0,0,0-.088-.27l-.609-.088a.16.16,0,0,1-.12-.087l-.273-.552a.158.158,0,0,0-.284,0l-.271.553a.158.158,0,0,1-.119.087l-.609.089a.159.159,0,0,0-.087.271Z" transform="translate(-2501.17 -1070.318)" fill="#fff"/>
          <path id="패스_34911" data-name="패스 34911" d="M3119.88,915.53l-.609-.088a.16.16,0,0,1-.12-.087l-.273-.553a.158.158,0,0,0-.283,0l-.272.553a.156.156,0,0,1-.119.087l-.609.09a.158.158,0,0,0-.087.27l.441.43a.161.161,0,0,1,.045.141l-.1.608a.158.158,0,0,0,.23.167l.544-.288a.158.158,0,0,1,.147,0l.545.286a.158.158,0,0,0,.229-.167l-.1-.608a.159.159,0,0,1,.045-.14l.44-.431A.159.159,0,0,0,3119.88,915.53Z" transform="translate(-3049.411 -914.086)" fill="#fff"/>
          <path id="패스_34912" data-name="패스 34912" d="M1239.908,3222.337l-.609-.088a.158.158,0,0,1-.119-.087l-.273-.553a.158.158,0,0,0-.284,0l-.271.553a.157.157,0,0,1-.119.086l-.609.09a.159.159,0,0,0-.087.271l.441.43a.158.158,0,0,1,.046.14l-.1.609a.158.158,0,0,0,.23.167l.544-.288a.155.155,0,0,1,.147,0l.545.285a.158.158,0,0,0,.229-.167l-.105-.607a.159.159,0,0,1,.046-.14l.44-.431A.158.158,0,0,0,1239.908,3222.337Z" transform="translate(-1224.309 -3153.565)" fill="#fff"/>
          <path id="패스_34913" data-name="패스 34913" d="M1761.646,3719.234l-.221-.032a.057.057,0,0,1-.044-.031l-.1-.2a.058.058,0,0,0-.1,0l-.1.2a.059.059,0,0,1-.043.031l-.221.032a.058.058,0,0,0-.032.1l.161.156a.057.057,0,0,1,.017.051l-.037.221a.057.057,0,0,0,.083.06l.2-.1a.055.055,0,0,1,.054,0l.2.1a.058.058,0,0,0,.083-.061l-.038-.22a.058.058,0,0,1,.016-.051l.16-.157A.058.058,0,0,0,1761.646,3719.234Z" transform="translate(-1732.313 -3636.463)" fill="#fff"/>
          <path id="패스_34914" data-name="패스 34914" d="M2417.7,3293.5l-.222-.032a.057.057,0,0,1-.043-.031l-.1-.2a.058.058,0,0,0-.1,0l-.1.2a.059.059,0,0,1-.043.032l-.221.032a.058.058,0,0,0-.032.1l.161.156a.06.06,0,0,1,.016.051l-.037.222a.057.057,0,0,0,.083.06l.2-.1a.055.055,0,0,1,.053,0l.2.1a.058.058,0,0,0,.083-.061l-.038-.221a.055.055,0,0,1,.016-.051l.16-.156A.058.058,0,0,0,2417.7,3293.5Z" transform="translate(-2369.217 -3223.152)" fill="#fff"/>
        </g>
      </g>
      <g id="새벽세차" transform="translate(54.776 49.735)">
        <g id="그룹_404142" data-name="그룹 404142" transform="translate(-43.248 -43.248)" clip-path="url(#clip-path-2)">
          <g id="그룹_404141" data-name="그룹 404141" clip-path="url(#clip-path-2)">
            <g id="그룹_404120" data-name="그룹 404120" transform="translate(25.17 73.479)" opacity="0.2">
              <g id="그룹_404119" data-name="그룹 404119" clip-path="url(#clip-path-4)">
                <path id="패스_807541" data-name="패스 807541" d="M128.6,342.957c0,1.752-2.725,3.157-6.1,3.157s-6.1-1.406-6.1-3.157,2.725-3.157,6.1-3.157,6.1,1.406,6.1,3.157" transform="translate(-116.4 -339.8)" fill="#222"/>
              </g>
            </g>
            <g id="그룹_404122" data-name="그룹 404122" transform="translate(51.768 64.31)" opacity="0.2">
              <g id="그룹_404121" data-name="그룹 404121" clip-path="url(#clip-path-5)">
                <path id="패스_807542" data-name="패스 807542" d="M252.093,300.557c0,1.752-2.833,3.157-6.357,3.157s-6.336-1.427-6.336-3.157,2.833-3.157,6.357-3.157,6.357,1.406,6.357,3.157" transform="translate(-239.4 -297.4)" fill="#222"/>
              </g>
            </g>
            <path id="패스_807543" data-name="패스 807543" d="M247.677,139.2l-2.79-3.438h-.043l-.411.173.562-1.211-3.287-2.227c-.519,1.579.043,3.46-.195,3.179l-.843-.216a2.768,2.768,0,0,1-1.146-.692l-.562-.584h-.022a.454.454,0,0,1,.151.324c0,.368-.562.67-1.276.714H237.6l.649,6.53.735,7.46h.022a4.625,4.625,0,0,0,3.438,1.406,4.679,4.679,0,0,0,3.719-1.773h.065a10.416,10.416,0,0,0-.151-1.968v-.043l.5.043a2.184,2.184,0,0,0,2.184-2.184v-2.444a4.844,4.844,0,0,0-1.081-3.049m-2.249,4.952a1.384,1.384,0,0,1-1.816.757h-.022l-2.811-3.481,2.357-.778,2.1,2.1a1.384,1.384,0,0,1,.195,1.384" transform="translate(-186.221 -103.848)" fill="#fff"/>
            <path id="패스_807544" data-name="패스 807544" d="M256.949,173.7a1.384,1.384,0,0,1-1.816.757h-.022l-2.811-3.481,2.357-.778,2.1,2.1a1.384,1.384,0,0,1,.195,1.384" transform="translate(-197.742 -133.396)" fill="#fff"/>
            <path id="패스_807545" data-name="패스 807545" d="M273.952,181.052l-1.687-1.687-.065-.065.065.065.086.087" transform="translate(-213.339 -140.528)" fill="none" stroke="#222" stroke-linecap="round" stroke-linejoin="round" stroke-width="0.541"/>
            <line id="선_119836" data-name="선 119836" x1="0.022" y1="0.022" transform="translate(59.012 38.923)" fill="none" stroke="#222" stroke-linecap="round" stroke-linejoin="round" stroke-width="0.541"/>
            <line id="선_119837" data-name="선 119837" x1="0.065" y1="0.086" transform="translate(57.369 41.086)" fill="none" stroke="#222" stroke-linecap="round" stroke-linejoin="round" stroke-width="0.541"/>
            <path id="패스_807546" data-name="패스 807546" d="M218.933,111.305a.454.454,0,0,1,.151.324c0,.368-.562.67-1.276.714h-.173l-2.746-1.925-1.427-1.946a10.091,10.091,0,0,1-1.233-3.114,4.562,4.562,0,0,1-.13-1.016c0-.584.108-.908.541-1.038a.692.692,0,0,1,.627.13,1.146,1.146,0,0,1,.389.519c.151.411.346.822.519,1.189a16.413,16.413,0,0,0,2.725,3.892l2.076,2.227" transform="translate(-166.235 -80.945)" fill="#fff"/>
            <path id="패스_807547" data-name="패스 807547" d="M247.271,221.853l-.151.5a1.449,1.449,0,0,1-1.189.562c-.757,0-1.622-.584-1.622-1.168h-.043c-.022.108.087.216.022.3a1.449,1.449,0,0,1-1.189.562,1.514,1.514,0,0,1-1.06-.411h0a.908.908,0,0,1-.281-.649L239.4,205.138l.995.714c.757.843,1.989.822,3.417.822a4.679,4.679,0,0,0,3.719-1.773h.065c.173,4.13.368,12.477-.346,16.975" transform="translate(-187.632 -160.592)" fill="#3673ee"/>
            <path id="패스_807548" data-name="패스 807548" d="M253.835,285.665a.881.881,0,0,1-.951.714.848.848,0,0,1-.93-.627.5.5,0,0,1-.022-.13l-.432-1.47a1.514,1.514,0,0,0,1.06.411,1.449,1.449,0,0,0,1.189-.562h.065Z" transform="translate(-197.115 -222.587)" fill="#fff"/>
            <path id="패스_807549" data-name="패스 807549" d="M272.822,292a.627.627,0,0,1-.022.151" transform="translate(-213.809 -228.858)" fill="none" stroke="#222" stroke-linecap="round" stroke-linejoin="round" stroke-width="0.541"/>
            <line id="선_119838" data-name="선 119838" y1="0.238" transform="translate(56.72 63.078)" fill="none" stroke="#222" stroke-linecap="round" stroke-linejoin="round" stroke-width="0.541"/>
            <path id="패스_807550" data-name="패스 807550" d="M264.833,284.489l-.3.93-.195.627h0a1,1,0,0,1-1.038.67c-.519,0-1.124-.454-1.124-.908h-.087v-1.6H262c.065-.108.195.173.216.043h.043c0,.584.627.8,1.384.8a1.449,1.449,0,0,0,1.189-.562" transform="translate(-205.345 -222.731)" fill="#fff"/>
            <path id="패스_807551" data-name="패스 807551" d="M275.251,283.3a.865.865,0,0,1-.151.5" transform="translate(-215.612 -222.039)" fill="none" stroke="#222" stroke-linecap="round" stroke-linejoin="round" stroke-width="0.541"/>
            <path id="패스_807552" data-name="패스 807552" d="M253.554,293.473l-.065.238-.562,1.773a1.168,1.168,0,0,1-1.384.778l-3.763-.951a.368.368,0,0,1-.281-.368.865.865,0,0,1,.216-.562,3.287,3.287,0,0,0,.562-.93,3.33,3.33,0,0,0,.238-1.06,7.028,7.028,0,0,1,.238-1.535l.086-.281a1,1,0,0,0,1.881-.086h.086a1.113,1.113,0,0,0,1.124.908.971.971,0,0,0,1.038-.67h0l.195-.627h.065l.173.476a4.865,4.865,0,0,1,.151,2.919" transform="translate(-193.98 -227.368)" fill="#262626"/>
            <path id="패스_807553" data-name="패스 807553" d="M234.365,139.7a1.276,1.276,0,0,1-.541.951,1.656,1.656,0,0,1-1.925-.216" transform="translate(-181.754 -109.491)" fill="none" stroke="#222" stroke-linecap="round" stroke-linejoin="round" stroke-width="0.541"/>
            <path id="패스_807554" data-name="패스 807554" d="M253.7,224.9l1.124,1.968-.216-1.6Z" transform="translate(-198.84 -176.267)" fill="#222"/>
            <g id="그룹_404124" data-name="그룹 404124" transform="translate(51.206 37.258)" opacity="0.15">
              <g id="그룹_404123" data-name="그룹 404123" clip-path="url(#clip-path-6)">
                <path id="패스_807555" data-name="패스 807555" d="M245.16,196.8l-1.189.562s.411-7.439.195-13.991c-.087-2.9-4.476-3.092-6.725-4.93l-.541-5.493,2.573-.649,4.584,4.952v.043l1.47.843s.887,14.034-.346,18.683" transform="translate(-236.878 -172.3)" fill="#222"/>
              </g>
            </g>
            <g id="그룹_404126" data-name="그룹 404126" transform="translate(58.255 61.802)" opacity="0.1">
              <g id="그룹_404125" data-name="그룹 404125" clip-path="url(#clip-path-7)">
                <path id="패스_807556" data-name="패스 807556" d="M269.465,286.254l-.065,1.73.692-.562.541-1.622Z" transform="translate(-269.4 -285.8)" fill="#222"/>
              </g>
            </g>
            <path id="패스_807557" data-name="패스 807557" d="M276.6,182.5l.8.151a.368.368,0,0,1,.3.454l-.108.5Z" transform="translate(-216.788 -143.036)" fill="#222"/>
            <g id="그룹_404128" data-name="그룹 404128" transform="translate(56.915 36.437)" opacity="0.15">
              <g id="그룹_404127" data-name="그룹 404127" clip-path="url(#clip-path-8)">
                <path id="패스_807558" data-name="패스 807558" d="M264.26,168.5l2.919,3.525-1.146-.324-2.833-2.811Z" transform="translate(-263.2 -168.5)" fill="#222"/>
              </g>
            </g>
            <g id="그룹_404130" data-name="그룹 404130" transform="translate(54.623 36.912)" opacity="0.15">
              <g id="그룹_404129" data-name="그룹 404129" clip-path="url(#clip-path-9)">
                <path id="패스_807559" data-name="패스 807559" d="M252.6,171.587l3.784.541-1.47-1.427Z" transform="translate(-252.6 -170.7)" fill="#222"/>
              </g>
            </g>
            <g id="그룹_404132" data-name="그룹 404132" transform="translate(58.861 39.918)" opacity="0.15">
              <g id="그룹_404131" data-name="그룹 404131" clip-path="url(#clip-path-10)">
                <path id="패스_807560" data-name="패스 807560" d="M275.214,186.157a1.557,1.557,0,1,1-1.557-1.557,1.557,1.557,0,0,1,1.557,1.557" transform="translate(-272.122 -184.6)" fill="#222"/>
              </g>
            </g>
            <path id="패스_807561" data-name="패스 807561" d="M258.563,147.632a1.846,1.846,0,0,1-2.206,1.319A1.881,1.881,0,0,1,254.8,147.2" transform="translate(-199.702 -115.369)" fill="none" stroke="#222" stroke-linecap="round" stroke-miterlimit="10" stroke-width="0.541"/>
            <path id="패스_807562" data-name="패스 807562" d="M266.911,147.7l2.79,3.438a4.844,4.844,0,0,1,1.081,3.049v2.487a2.184,2.184,0,0,1-2.184,2.184,2.443,2.443,0,0,1-1.73-.714l-1.168-1.168" transform="translate(-208.245 -115.761)" fill="none" stroke="#222" stroke-linecap="round" stroke-linejoin="round" stroke-width="0.541"/>
            <path id="패스_807563" data-name="패스 807563" d="M265.4,181.514a1.384,1.384,0,0,0,1.47-2.314l1.752,1.752" transform="translate(-208.01 -140.45)" fill="none" stroke="#222" stroke-linecap="round" stroke-linejoin="round" stroke-width="0.541"/>
            <line id="선_119839" data-name="선 119839" x2="2.876" y2="3.568" transform="translate(54.558 37.604)" fill="none" stroke="#222" stroke-linecap="round" stroke-linejoin="round" stroke-width="0.541"/>
            <line id="선_119840" data-name="선 119840" x2="2.119" y2="2.119" transform="translate(56.915 36.826)" fill="none" stroke="#222" stroke-linecap="round" stroke-linejoin="round" stroke-width="0.541"/>
            <path id="패스_807564" data-name="패스 807564" d="M216.728,113.041l-3.265-4.368a10.091,10.091,0,0,1-1.233-3.114,4.65,4.65,0,0,1-.13-1.016c0-.584.108-.908.541-1.038a.692.692,0,0,1,.627.13,1.146,1.146,0,0,1,.389.541c.151.411.346.822.519,1.189a16.435,16.435,0,0,0,2.725,3.892l2.638,2.811a2.746,2.746,0,0,0,1.146.692l.714.216.195-.735" transform="translate(-166.235 -81.102)" fill="none" stroke="#222" stroke-linecap="round" stroke-linejoin="round" stroke-width="0.541"/>
            <line id="선_119841" data-name="선 119841" y1="6.336" x2="0.259" transform="translate(51.747 37.95)" fill="none" stroke="#222" stroke-linecap="round" stroke-linejoin="round" stroke-width="0.541"/>
            <line id="선_119842" data-name="선 119842" x1="2.357" y1="16.586" transform="translate(51.747 44.351)" fill="none" stroke="#222" stroke-linecap="round" stroke-linejoin="round" stroke-width="0.541"/>
            <path id="패스_807565" data-name="패스 807565" d="M275.995,199.2s.822,11.785-.195,18.186" transform="translate(-216.161 -156.125)" fill="none" stroke="#222" stroke-linecap="round" stroke-linejoin="round" stroke-width="0.541"/>
            <path id="패스_807566" data-name="패스 807566" d="M252.522,281.908c0,.584-.454.951-1.211.951a1.091,1.091,0,0,1-1.211-1.06" transform="translate(-196.018 -220.863)" fill="none" stroke="#222" stroke-linecap="round" stroke-linejoin="round" stroke-width="0.541"/>
            <path id="패스_807567" data-name="패스 807567" d="M253.835,286.662a.983.983,0,0,1-1.9,0L251.5,285.3" transform="translate(-197.115 -223.606)" fill="none" stroke="#222" stroke-linecap="round" stroke-linejoin="round" stroke-width="0.541"/>
            <path id="패스_807568" data-name="패스 807568" d="M264.984,291.686a.964.964,0,0,1-1.06.822,1.1,1.1,0,0,1-1.124-.908" transform="translate(-205.972 -228.544)" fill="none" stroke="#222" stroke-linecap="round" stroke-linejoin="round" stroke-width="0.541"/>
            <path id="패스_807569" data-name="패스 807569" d="M255.97,237.042l-.432-10.963A1.816,1.816,0,0,0,254.5,224.5" transform="translate(-199.467 -175.954)" fill="none" stroke="#222" stroke-linecap="round" stroke-linejoin="round" stroke-width="0.541"/>
            <line id="선_119843" data-name="선 119843" y1="1.838" transform="translate(56.72 61.477)" fill="none" stroke="#222" stroke-linecap="round" stroke-linejoin="round" stroke-width="0.541"/>
            <path id="패스_807570" data-name="패스 807570" d="M264.022,284.727l.649-2.054a1.238,1.238,0,0,1-1.362,1.06c-.757,0-1.708-.649-1.708-1.233" transform="translate(-205.031 -221.412)" fill="none" stroke="#222" stroke-linecap="round" stroke-linejoin="round" stroke-width="0.541"/>
            <path id="패스_807571" data-name="패스 807571" d="M248.74,290.476l-.087.281a7.072,7.072,0,0,0-.238,1.535,3.309,3.309,0,0,1-.8,1.989.865.865,0,0,0-.216.562.368.368,0,0,0,.281.368l3.763.951a1.168,1.168,0,0,0,1.384-.779l.562-1.773.065-.238a4.865,4.865,0,0,0-.151-2.919l-.151-.454" transform="translate(-193.901 -227.29)" fill="none" stroke="#222" stroke-linecap="round" stroke-linejoin="round" stroke-width="0.541"/>
            <path id="패스_807572" data-name="패스 807572" d="M205.393,92.7a.67.67,0,0,1-.605-.389L197.24,77.049a.677.677,0,0,1,1.211-.605L206,91.731a.67.67,0,0,1-.605.973" transform="translate(-154.533 -59.62)" fill="#9faeb7"/>
            <path id="패스_807573" data-name="패스 807573" d="M205.393,92.7a.67.67,0,0,1-.605-.389L197.24,77.049a.677.677,0,0,1,1.211-.605L206,91.731a.67.67,0,0,1-.605.973Z" transform="translate(-154.533 -59.62)" fill="none" stroke="#222" stroke-linecap="round" stroke-linejoin="round" stroke-width="0.541"/>
            <path id="패스_807574" data-name="패스 807574" d="M239.4,204.2a3.857,3.857,0,0,0,3.568,1.838,6.334,6.334,0,0,0,4.455-1.449" transform="translate(-187.632 -160.044)" fill="none" stroke="#222" stroke-linecap="round" stroke-linejoin="round" stroke-width="0.541"/>
            <line id="선_119844" data-name="선 119844" x2="0.476" y2="1.362" transform="translate(58.666 35.939)" fill="#222"/>
            <line id="선_119845" data-name="선 119845" x2="0.476" y2="1.362" transform="translate(58.666 35.939)" fill="none" stroke="#222" stroke-linecap="round" stroke-miterlimit="10" stroke-width="0.541"/>
            <path id="패스_807575" data-name="패스 807575" d="M270.438,123.6l-1.038-.411,1.276-3.287,2.119.822-.865,2.227a1.168,1.168,0,0,1-1.492.67" transform="translate(-211.145 -93.973)" fill="#222"/>
            <path id="패스_807576" data-name="패스 807576" d="M260.577,108.492a1.9,1.9,0,1,1-1.081-2.465,1.9,1.9,0,0,1,1.081,2.465" transform="translate(-201.348 -82.997)" fill="#222"/>
            <path id="패스_807577" data-name="패스 807577" d="M272.475,115.36a1.773,1.773,0,1,1-1.016-2.292,1.773,1.773,0,0,1,1.016,2.292" transform="translate(-210.868 -88.524)" fill="#222"/>
            <path id="패스_807578" data-name="패스 807578" d="M257.943,122.137l1.881-4.865a2.011,2.011,0,0,0-3.741-1.449l-1.341,3.46a1.514,1.514,0,0,0,.865,1.946l1.168.454" transform="translate(-199.58 -89.874)" fill="#fff"/>
            <path id="패스_807579" data-name="패스 807579" d="M257.943,122.137l1.881-4.865a2.011,2.011,0,0,0-3.741-1.449l-1.341,3.46a1.514,1.514,0,0,0,.865,1.946l1.168.454" transform="translate(-199.58 -89.874)" fill="none" stroke="#222" stroke-linecap="round" stroke-miterlimit="10" stroke-width="0.541"/>
            <path id="패스_807580" data-name="패스 807580" d="M273.7,130.8a.685.685,0,1,1-.5,1.276" transform="translate(-214.123 -102.516)" fill="#fff"/>
            <path id="패스_807581" data-name="패스 807581" d="M273.7,130.8a.685.685,0,1,1-.5,1.276" transform="translate(-214.123 -102.516)" fill="none" stroke="#222" stroke-linecap="round" stroke-miterlimit="10" stroke-width="0.541"/>
            <rect id="사각형_312073" data-name="사각형 312073" width="3.222" height="0.765" transform="matrix(0.915, -0.404, 0.404, 0.915, 55.946, 25.637)" fill="#222"/>
            <rect id="사각형_312074" data-name="사각형 312074" width="0.757" height="2.61" transform="matrix(0.915, -0.404, 0.404, 0.915, 59.204, 25.03)" fill="#222"/>
            <path id="패스_807582" data-name="패스 807582" d="M256.433,136.971l-.627-.238a.627.627,0,0,1-.368-.822l.541-1.406a.627.627,0,0,1,.822-.368l.627.238a.627.627,0,0,1,.368.822l-.541,1.406a.627.627,0,0,1-.822.368" transform="translate(-200.167 -105.097)" fill="#222"/>
            <line id="선_119846" data-name="선 119846" x2="0.562" y2="0.216" transform="translate(56.288 29.668)" fill="none" stroke="#fff" stroke-linecap="round" stroke-miterlimit="10" stroke-width="0.649"/>
            <path id="패스_807583" data-name="패스 807583" d="M179.287,64.511l-10.617,1.168a2.143,2.143,0,0,1-.476-4.26l10.617-1.168a2.143,2.143,0,0,1,.476,4.26" transform="translate(-130.33 -47.212)" fill="#e4eff5"/>
            <path id="패스_807584" data-name="패스 807584" d="M179.287,64.511l-10.617,1.168a2.143,2.143,0,0,1-.476-4.26l10.617-1.168a2.143,2.143,0,0,1,.476,4.26Z" transform="translate(-130.33 -47.212)" fill="none" stroke="#222" stroke-linecap="round" stroke-linejoin="round" stroke-width="0.541"/>
            <line id="선_119847" data-name="선 119847" x1="12.931" y2="1.449" transform="translate(37.972 15.807)" fill="#00a4ff"/>
            <line id="선_119848" data-name="선 119848" x1="12.931" y2="1.449" transform="translate(37.972 15.807)" fill="none" stroke="#222" stroke-linejoin="round" stroke-width="0.541"/>
            <path id="패스_807585" data-name="패스 807585" d="M170.876,65.3s1.643,4,2.119,4.2l-2.444.195-1.752-4.2Z" transform="translate(-132.298 -51.179)" fill="#222"/>
            <path id="패스_807586" data-name="패스 807586" d="M174.994,64.1a24.133,24.133,0,0,1-11.115,3.114c-12.8.454-23.657-9.212-24.133-21.473a21.84,21.84,0,0,1,5.406-15.2.605.605,0,0,1,1.06.324c1.406,15.742,13.212,28.392,28.587,32a.67.67,0,0,1,.195,1.233" transform="translate(-109.516 -23.771)" fill="#ffdd50"/>
            <path id="패스_807587" data-name="패스 807587" d="M174.994,64.1a24.133,24.133,0,0,1-11.115,3.114c-12.8.454-23.657-9.212-24.133-21.473a21.84,21.84,0,0,1,5.406-15.2.605.605,0,0,1,1.06.324c1.406,15.742,13.212,28.392,28.587,32a.67.67,0,0,1,.195,1.233Z" transform="translate(-109.516 -23.771)" fill="none" stroke="#222" stroke-linecap="round" stroke-linejoin="round" stroke-width="0.865"/>
            <path id="패스_807588" data-name="패스 807588" d="M175.34,63.5a.649.649,0,0,1-.346.476,24.154,24.154,0,0,1-11.115,3.114c-12.8.454-23.657-9.212-24.133-21.473a21.84,21.84,0,0,1,5.406-15.2.605.605,0,0,1,.476-.216,22.4,22.4,0,0,0-3.309,12.78c.584,12.8,11.915,22.705,25.279,22.078a25.192,25.192,0,0,0,7.741-1.579" transform="translate(-109.516 -23.669)" fill="#e0b603"/>
            <path id="패스_807589" data-name="패스 807589" d="M175.34,63.5a.649.649,0,0,1-.346.476,24.154,24.154,0,0,1-11.115,3.114c-12.8.454-23.657-9.212-24.133-21.473a21.84,21.84,0,0,1,5.406-15.2.605.605,0,0,1,.476-.216,22.4,22.4,0,0,0-3.309,12.78c.584,12.8,11.915,22.705,25.279,22.078A25.192,25.192,0,0,0,175.34,63.5Z" transform="translate(-109.516 -23.669)" fill="none" stroke="#222" stroke-linecap="round" stroke-linejoin="round" stroke-width="0.649"/>
            <g id="그룹_404134" data-name="그룹 404134" transform="translate(41.302 37.842)" opacity="0.15">
              <g id="그룹_404133" data-name="그룹 404133" clip-path="url(#clip-path-11)">
                <path id="패스_807590" data-name="패스 807590" d="M191.5,175l2.292,1.449s1.752,2.9,0,2.941-2.011-.757-2.011-.757L191,176.406Z" transform="translate(-191 -175)" fill="#222"/>
              </g>
            </g>
            <path id="패스_807591" data-name="패스 807591" d="M202.122,177s4.368,2.033,1.795,4.238l-2.617-.714Z" transform="translate(-157.771 -138.725)" fill="#222"/>
            <path id="패스_807592" data-name="패스 807592" d="M200.836,171.706a1.623,1.623,0,1,1-1.406-1.579,1.5,1.5,0,0,1,1.406,1.579" transform="translate(-154.906 -133.324)" fill="#222"/>
            <path id="패스_807593" data-name="패스 807593" d="M173.915,165.375a1.518,1.518,0,0,1-2.162,1.989,1.514,1.514,0,0,1-2.919.281,1.514,1.514,0,0,1-2.314-1.3,1.427,1.427,0,0,1,.022-.281h-.022a1.514,1.514,0,0,1-1.038-2.638,1.514,1.514,0,0,1,.951-2.638,1.526,1.526,0,0,1,2.249-1.881,1.514,1.514,0,0,1,2.811-.346,1.514,1.514,0,0,1,2.1,1.406h0a1.514,1.514,0,0,1,.887,2.487,1.514,1.514,0,0,1-.541,2.876" transform="translate(-129.304 -123.64)" fill="#e4eff5"/>
            <path id="패스_807594" data-name="패스 807594" d="M173.915,165.375a1.518,1.518,0,0,1-2.162,1.989,1.514,1.514,0,0,1-2.919.281,1.514,1.514,0,0,1-2.314-1.3,1.427,1.427,0,0,1,.022-.281h-.022a1.514,1.514,0,0,1-1.038-2.638,1.514,1.514,0,0,1,.951-2.638,1.526,1.526,0,0,1,2.249-1.881,1.514,1.514,0,0,1,2.811-.346,1.514,1.514,0,0,1,2.1,1.406h0a1.514,1.514,0,0,1,.887,2.487,1.514,1.514,0,0,1-.541,2.876Z" transform="translate(-129.304 -123.64)" fill="none" stroke="#222" stroke-linecap="round" stroke-linejoin="round" stroke-width="0.541"/>
            <path id="패스_807595" data-name="패스 807595" d="M180.366,172.933a2.833,2.833,0,1,1-2.833-2.833,2.833,2.833,0,0,1,2.833,2.833" transform="translate(-136.923 -133.317)" fill="#fff"/>
            <path id="패스_807596" data-name="패스 807596" d="M180.366,172.933a2.833,2.833,0,1,1-2.833-2.833A2.833,2.833,0,0,1,180.366,172.933Z" transform="translate(-136.923 -133.317)" fill="none" stroke="#222" stroke-linecap="round" stroke-linejoin="round" stroke-width="0.541"/>
            <path id="패스_807597" data-name="패스 807597" d="M183.952,178.176a1.276,1.276,0,1,1-1.276-1.276,1.276,1.276,0,0,1,1.276,1.276" transform="translate(-142.174 -138.647)" fill="#c1c1c1"/>
            <path id="패스_807598" data-name="패스 807598" d="M183.952,178.176a1.276,1.276,0,1,1-1.276-1.276A1.276,1.276,0,0,1,183.952,178.176Z" transform="translate(-142.174 -138.647)" fill="none" stroke="#222" stroke-miterlimit="10" stroke-width="0.541"/>
            <g id="그룹_404136" data-name="그룹 404136" transform="translate(38.426 40.545)" opacity="0.1">
              <g id="그룹_404135" data-name="그룹 404135" clip-path="url(#clip-path-12)">
                <path id="패스_807599" data-name="패스 807599" d="M179.638,187.8l2.119,3.027-1.1,1.189-1.514-.605-.887-.843H177.8l.584-2.227.065-.346a.649.649,0,0,1,1.189-.216" transform="translate(-177.778 -187.478)" fill="#111"/>
              </g>
            </g>
            <path id="패스_807600" data-name="패스 807600" d="M118.693,259.441l-.908,16.283a1.06,1.06,0,0,1-.043.324h0a1.406,1.406,0,0,1-2.638-.065h0a1.1,1.1,0,0,1-.043-.26l-.151-1.427c0,.065.065.195.043.26h0a1.449,1.449,0,0,1-2.746.022v-.195h0l-1.362-15.05-.043-.432.195.238c.108,1.362,1.925,2.141,3.936,2.141s3.481-.973,3.741-2.227Z" transform="translate(-86.84 -202.915)" fill="#3673ee"/>
            <line id="선_119849" data-name="선 119849" x1="0.173" y1="3.503" transform="translate(23.851 47.162)" fill="#fff"/>
            <path id="패스_807601" data-name="패스 807601" d="M136.7,344.189a1.168,1.168,0,0,1-.5.93h-.043l-3.481,2.184h-.022a1.47,1.47,0,0,1-.692.173,1.311,1.311,0,0,1-1.362-1.146v-2.249a1.665,1.665,0,0,1,.216-.843h.043l.108.605h0a1,1,0,0,0,1.016.822.973.973,0,0,0,1.038-.908l.043-.3h.043l1.946-.454h.281a1.289,1.289,0,0,1,1.362,1.211" transform="translate(-102.358 -268.829)" fill="#262626"/>
            <path id="패스_807602" data-name="패스 807602" d="M133.338,337.965l-.216,1.492-.043.3a.973.973,0,0,1-1.038.908,1,1,0,0,1-1.016-.822h0l-.108-.605L130.7,337.9a1.406,1.406,0,0,0,2.638.065" transform="translate(-102.437 -264.832)" fill="#fff"/>
            <path id="패스_807603" data-name="패스 807603" d="M120.125,331.3l-.195,2.227a1,1,0,0,1-1.06.908,1.038,1.038,0,0,1-1.038-.714h0v-.151l-.432-2.227a1.449,1.449,0,0,0,2.746-.022" transform="translate(-92.013 -259.659)" fill="#fff"/>
            <path id="패스_807604" data-name="패스 807604" d="M121.752,337.2h0l.216,1.341h-.043a1.665,1.665,0,0,0-.216.843v1.752H121.6a1.471,1.471,0,0,1-.865.281,1.3,1.3,0,0,1-1.362-1.168h0v-.173a8.412,8.412,0,0,1-.065-1.881h.022a1.038,1.038,0,0,0,1.038.714,1,1,0,0,0,1.06-.908" transform="translate(-93.489 -264.283)" fill="#262626"/>
            <path id="패스_807605" data-name="패스 807605" d="M114.59,209.519l.086.995c-.238,1.254-2.119,2.53-4.044,2.53s-3.676-1.081-3.763-2.422h-.022l-.259-5.211h0a6.314,6.314,0,0,1-1.233-4.152v-.389a2.552,2.552,0,0,1,2.1-2.335l.843-.151.627.043c-.238-1.168.087-1.1,1.6-.973s1.189,1.124,1.449.649c.086-.151-.022.865.13.887l.389-.043h.065l.086.043,3.979,2.638.324.216a1.816,1.816,0,0,1-1.168,3.2h-.022l-.8-.3h0l-.454-.216Z" transform="translate(-82.565 -154.702)" fill="#fff"/>
            <path id="패스_807606" data-name="패스 807606" d="M159.857,188.8l-.13.389c-.389.519-.324,1.189-.649,1.752l-2.595,4.714a2.4,2.4,0,0,1-2.963,1.081H153.5a1.816,1.816,0,0,0,1.189-3.2h.043l2.984-3.784a2.249,2.249,0,0,0,.432-.93l.259-1.06c.173-.584.281-.519.995-.973.022-.022.324.173.368.173a.853.853,0,0,1,.259.476v.3c.13.562.173.605-.173,1.06" transform="translate(-120.307 -146.4)" fill="#fff"/>
            <path id="패스_807607" data-name="패스 807607" d="M119.727,176.573l-.541-5.6a2.011,2.011,0,0,1,4-.389l.346,3.7a1.514,1.514,0,0,1-1.362,1.643" transform="translate(-93.411 -132.33)" fill="#fff"/>
            <path id="패스_807608" data-name="패스 807608" d="M119.727,176.573l-.541-5.6a2.011,2.011,0,0,1,4-.389l.346,3.7a1.514,1.514,0,0,1-1.362,1.643" transform="translate(-93.411 -132.33)" fill="none" stroke="#222" stroke-linecap="round" stroke-miterlimit="10" stroke-width="0.541"/>
            <path id="패스_807609" data-name="패스 807609" d="M119.657,164.249l-4.563.432-.108-1.124A1.146,1.146,0,0,1,116,162.324l3.417-.324a1.146,1.146,0,0,1,.216,2.271" transform="translate(-90.118 -126.969)" fill="#222"/>
            <path id="패스_807610" data-name="패스 807610" d="M118.873,177.028l-.973.086a2.076,2.076,0,0,1-2.249-1.86l-.151-1.6,1.73-.173a1.3,1.3,0,0,1,1.406,1.168Z" transform="translate(-90.524 -135.964)" fill="#222"/>
            <path id="패스_807611" data-name="패스 807611" d="M118.5,164.886a1.687,1.687,0,1,1-1.838-1.514,1.687,1.687,0,0,1,1.838,1.514" transform="translate(-90.24 -128.038)" fill="#222"/>
            <path id="패스_807612" data-name="패스 807612" d="M128.855,182.6a.684.684,0,1,0,.13,1.362" transform="translate(-100.506 -143.114)" fill="#fff"/>
            <path id="패스_807613" data-name="패스 807613" d="M128.855,182.6a.684.684,0,1,0,.13,1.362" transform="translate(-100.506 -143.114)" fill="none" stroke="#222" stroke-linecap="round" stroke-miterlimit="10" stroke-width="0.541"/>
            <g id="그룹_404138" data-name="그룹 404138" transform="translate(29.495 49.108)" opacity="0.15">
              <g id="그룹_404137" data-name="그룹 404137" clip-path="url(#clip-path-13)">
                <path id="패스_807614" data-name="패스 807614" d="M136.4,227.131h0a3.676,3.676,0,0,1,2.357.562v3.59Z" transform="translate(-136.4 -227.11)" fill="#222"/>
              </g>
            </g>
            <path id="패스_807615" data-name="패스 807615" d="M124.2,281.4l1.06,1.211-.238-1.124Z" transform="translate(-97.343 -220.55)" fill="#222"/>
            <g id="그룹_404140" data-name="그룹 404140" transform="translate(22.77 40.934)" opacity="0.15">
              <g id="그룹_404139" data-name="그룹 404139" clip-path="url(#clip-path-14)">
                <path id="패스_807616" data-name="패스 807616" d="M109.32,189.366l.13,3.806L109,206.384s-.238,1.816.735,2.617l.584.735.324,10.553.281,1.47-1.47,1.276h-.778a24.447,24.447,0,0,1-1.168-8.023l-.973-11.85v-4.584a4.493,4.493,0,0,1-1.146-3.892c.259-2.725,2.508-2.638,2.508-2.638l1.06-.151-.3-2.444c.022-.151.649-.216.67-.065" transform="translate(-105.341 -189.301)" fill="#222"/>
              </g>
            </g>
            <line id="선_119850" data-name="선 119850" x1="0.043" y1="0.022" transform="translate(34.382 47.141)" fill="none" stroke="#222" stroke-linecap="round" stroke-linejoin="round" stroke-width="0.541"/>
            <path id="패스_807617" data-name="패스 807617" d="M157.824,217.216,157.5,217Z" transform="translate(-123.442 -170.076)" fill="none" stroke="#222" stroke-linecap="round" stroke-linejoin="round" stroke-width="0.541"/>
            <path id="패스_807618" data-name="패스 807618" d="M137.4,226.866c.735-.173,1.3.3,1.989.584" transform="translate(-107.688 -177.779)" fill="none" stroke="#222" stroke-linecap="round" stroke-linejoin="round" stroke-width="0.541"/>
            <line id="선_119851" data-name="선 119851" y1="16.997" x2="1.168" transform="translate(30.944 55.812)" fill="none" stroke="#222" stroke-linecap="round" stroke-linejoin="round" stroke-width="0.541"/>
            <line id="선_119852" data-name="선 119852" x1="1.406" y1="15.375" transform="translate(23.938 55.963)" fill="none" stroke="#222" stroke-linecap="round" stroke-linejoin="round" stroke-width="0.541"/>
            <line id="선_119853" data-name="선 119853" x1="0.173" y1="3.503" transform="translate(23.851 47.162)" fill="none" stroke="#222" stroke-linecap="round" stroke-linejoin="round" stroke-width="0.541"/>
            <path id="패스_807619" data-name="패스 807619" d="M119.473,344.554v-.173a8.412,8.412,0,0,1-.065-1.881" transform="translate(-93.567 -268.437)" fill="none" stroke="#222" stroke-linecap="round" stroke-linejoin="round" stroke-width="0.541"/>
            <path id="패스_807620" data-name="패스 807620" d="M118.744,253.1a2.1,2.1,0,0,1,.13.735,1.924,1.924,0,0,1-.043.389c-.259,1.406-1.989,2.487-4.044,2.487s-3.979-1.211-4.087-2.725v-.151" transform="translate(-86.762 -198.369)" fill="none" stroke="#222" stroke-linecap="round" stroke-linejoin="round" stroke-width="0.541"/>
            <path id="패스_807621" data-name="패스 807621" d="M132.833,336.7a1.29,1.29,0,0,1-1.362,1.211A1.4,1.4,0,0,1,130,336.7" transform="translate(-101.889 -263.892)" fill="none" stroke="#222" stroke-linecap="round" stroke-linejoin="round" stroke-width="0.541"/>
            <path id="패스_807622" data-name="패스 807622" d="M119.925,330.711a1.406,1.406,0,0,1-1.319.822A1.333,1.333,0,0,1,117.2,330.3" transform="translate(-91.857 -258.876)" fill="none" stroke="#222" stroke-linecap="round" stroke-linejoin="round" stroke-width="0.541"/>
            <path id="패스_807623" data-name="패스 807623" d="M121.506,340.9a1.141,1.141,0,0,1-2.206.108" transform="translate(-93.502 -267.183)" fill="none" stroke="#222" stroke-linecap="round" stroke-linejoin="round" stroke-width="0.541"/>
            <path id="패스_807624" data-name="패스 807624" d="M134.254,346.5a.973.973,0,0,1-1.038.908,1,1,0,0,1-1.016-.822" transform="translate(-103.613 -271.572)" fill="none" stroke="#222" stroke-linecap="round" stroke-linejoin="round" stroke-width="0.541"/>
            <path id="패스_807625" data-name="패스 807625" d="M132.654,358.554a1.47,1.47,0,0,1-.692.173,1.289,1.289,0,0,1-1.362-1.211,1.081,1.081,0,0,1,.022-.216" transform="translate(-102.359 -280.037)" fill="none" stroke="#222" stroke-linecap="round" stroke-linejoin="round" stroke-width="0.541"/>
            <path id="패스_807626" data-name="패스 807626" d="M151.7,343h.173a1.29,1.29,0,0,1,1.362,1.211,1.168,1.168,0,0,1-.5.93" transform="translate(-118.896 -268.829)" fill="none" stroke="#222" stroke-linecap="round" stroke-linejoin="round" stroke-width="0.541"/>
            <path id="패스_807627" data-name="패스 807627" d="M121.927,352.187a1.449,1.449,0,0,1-.865.281A1.3,1.3,0,0,1,119.7,351.3" transform="translate(-93.816 -275.334)" fill="none" stroke="#222" stroke-linecap="round" stroke-linejoin="round" stroke-width="0.541"/>
            <line id="선_119854" data-name="선 119854" x1="0.259" y2="1.795" transform="translate(30.641 73.133)" fill="none" stroke="#222" stroke-linecap="round" stroke-linejoin="round" stroke-width="0.541"/>
            <path id="패스_807628" data-name="패스 807628" d="M125.868,292.944l-.389-11.309a.757.757,0,0,0-.778-.735" transform="translate(-97.735 -220.157)" fill="none" stroke="#222" stroke-linecap="round" stroke-linejoin="round" stroke-width="0.541"/>
            <line id="선_119855" data-name="선 119855" y1="2.184" x2="3.481" transform="translate(30.317 76.333)" fill="none" stroke="#222" stroke-linecap="round" stroke-linejoin="round" stroke-width="0.541"/>
            <line id="선_119856" data-name="선 119856" x1="1.968" y2="0.432" transform="translate(30.728 74.192)" fill="none" stroke="#222" stroke-linecap="round" stroke-linejoin="round" stroke-width="0.541"/>
            <path id="패스_807629" data-name="패스 807629" d="M130.6,347.236v-2.292a1.665,1.665,0,0,1,.216-.843" transform="translate(-102.358 -269.691)" fill="none" stroke="#222" stroke-linecap="round" stroke-linejoin="round" stroke-width="0.541"/>
            <line id="선_119857" data-name="선 119857" x1="0.259" y1="1.557" transform="translate(28.349 73.5)" fill="none" stroke="#222" stroke-linecap="round" stroke-linejoin="round" stroke-width="0.541"/>
            <line id="선_119858" data-name="선 119858" x1="0.454" y1="2.379" transform="translate(25.343 71.533)" fill="none" stroke="#222" stroke-linecap="round" stroke-linejoin="round" stroke-width="0.541"/>
            <line id="선_119859" data-name="선 119859" y1="2.335" x2="0.065" transform="translate(28.003 71.533)" fill="none" stroke="#222" stroke-linecap="round" stroke-linejoin="round" stroke-width="0.541"/>
            <path id="패스_807630" data-name="패스 807630" d="M106.475,214.385l.087-4.909h0a6.314,6.314,0,0,1-1.211-4.152v-.389a2.552,2.552,0,0,1,2.1-2.335h1.341c.238.454-.346.93,1.168,1.06a2.4,2.4,0,0,0,2.119-.5c.67-.346,4.541,2.552,4.541,2.552l.324.216a1.816,1.816,0,0,1,.562,1.925,1.643,1.643,0,0,1-2.292,1.038l-.93-.411.3,5.125" transform="translate(-82.559 -158.79)" fill="none" stroke="#222" stroke-linecap="round" stroke-linejoin="round" stroke-width="0.541"/>
            <path id="패스_807631" data-name="패스 807631" d="M149,196.2l1.016.432a2.4,2.4,0,0,0,2.963-1.081l2.811-5.579s1.362-2.357.324-3.179-1.557,2.227-2.119,2.768l-2.984,3.654" transform="translate(-116.78 -146.292)" fill="none" stroke="#222" stroke-linecap="round" stroke-linejoin="round" stroke-width="0.541"/>
            <line id="선_119860" data-name="선 119860" x1="0.065" y1="0.822" transform="translate(29.474 43.421)" fill="#fff"/>
            <line id="선_119861" data-name="선 119861" x1="0.065" y1="0.822" transform="translate(29.474 43.421)" fill="none" stroke="#222" stroke-linecap="round" stroke-miterlimit="10" stroke-width="0.541"/>
            <path id="패스_807632" data-name="패스 807632" d="M198.5,82.3l1.925.627-.541-.93Z" transform="translate(-155.576 -64.268)" fill="#222"/>
          </g>
        </g>
      </g>
    </g>
    <g id="그룹_124854" data-name="그룹 124854" transform="translate(46 654.199)">
      <ellipse id="타원_9933" data-name="타원 9933" cx="5.5" cy="2" rx="5.5" ry="2" transform="translate(6 11.805)" fill="#cdcdcd"/>
      <path id="패스_330370" data-name="패스 330370" d="M605.227,57.314a.363.363,0,0,1,0-.043V55.933h1.96l2.853-1.647a1.7,1.7,0,0,1,1.531.063l2.743,1.584h1.96v1.39h0a.445.445,0,0,1-.263.41l-4.55,2.627a1.7,1.7,0,0,1-1.531-.063L605.6,57.8a.651.651,0,0,1-.373-.475h0Z" transform="translate(-605.225 -44.055)" fill="#0f67f5"/>
      <path id="패스_330371" data-name="패스 330371" d="M611.459,57.139l4.549-2.627c.393-.227.345-.623-.11-.884l-4.329-2.5a1.7,1.7,0,0,0-1.531-.063l-4.55,2.627c-.393.227-.345.623.11.884l4.329,2.5A1.7,1.7,0,0,0,611.459,57.139Z" transform="translate(-605.222 -42.224)" fill="#0f67f5"/>
      <path id="패스_330372" data-name="패스 330372" d="M621.663,58.223l.341-2.5h2.13l1.112.642c.453.262.5.658.11.884l-1.7.979Z" transform="translate(-614.57 -44.956)" fill="#3f4f5c"/>
      <path id="패스_330373" data-name="패스 330373" d="M611.4,55.158l.248-1.964h5.188l.248,1.963a.982.982,0,0,1,.03.241h0a1.427,1.427,0,0,1-.841,1.172,4.488,4.488,0,0,1-4.062,0C611.548,56.186,611.277,55.658,611.4,55.158Z" transform="translate(-608.72 -43.521)" fill="#fff"/>
      <path id="패스_330374" data-name="패스 330374" d="M621.166,53.194h1.241l.248,1.963a.985.985,0,0,1,.03.241h0a1.427,1.427,0,0,1-.841,1.172,3.163,3.163,0,0,1-.463.216Z" transform="translate(-614.287 -43.521)" fill="#e2e1e0"/>
      <path id="패스_330375" data-name="패스 330375" d="M612.045,50.072l.251-1.987h4.632l.251,1.987a.888.888,0,0,1,.028.216h0a1.289,1.289,0,0,1-.76,1.059,4.056,4.056,0,0,1-3.667,0C612.175,51,611.931,50.524,612.045,50.072Z" transform="translate(-609.086 -40.616)" fill="#0f67f5"/>
      <path id="패스_330376" data-name="패스 330376" d="M620.862,48.085h1.094l.251,1.987a.885.885,0,0,1,.028.216h0a1.289,1.289,0,0,1-.76,1.059,2.845,2.845,0,0,1-.406.192Z" transform="translate(-614.114 -40.616)" fill="#3f4f5c"/>
      <path id="패스_330377" data-name="패스 330377" d="M612.663,45.18h0a.777.777,0,0,1,.025-.194l.254-2.011h4.075l.254,2.011a.819.819,0,0,1,.025.194h0a1.151,1.151,0,0,1-.678.945,3.619,3.619,0,0,1-3.275,0,1.15,1.15,0,0,1-.678-.945Z" transform="translate(-609.453 -37.71)" fill="#fff"/>
      <path id="패스_330378" data-name="패스 330378" d="M620.558,42.975h.947l.254,2.011a.822.822,0,0,1,.025.194h0a1.151,1.151,0,0,1-.678.945,2.566,2.566,0,0,1-.349.165Z" transform="translate(-613.942 -37.71)" fill="#e2e1e0"/>
      <path id="패스_330379" data-name="패스 330379" d="M613.329,39.9l.257-2.034H617.1l.257,2.034a.7.7,0,0,1,.022.173h0a1.012,1.012,0,0,1-.6.832,3.184,3.184,0,0,1-2.882,0C613.43,40.628,613.239,40.254,613.329,39.9Z" transform="translate(-609.819 -34.805)" fill="#0f67f5"/>
      <path id="패스_330380" data-name="패스 330380" d="M621.054,37.865l.257,2.034a.7.7,0,0,1,.022.173h0a1.012,1.012,0,0,1-.6.832,2.24,2.24,0,0,1-.292.139l-.189-3.175Z" transform="translate(-613.769 -34.805)" fill="#3f4f5c"/>
      <path id="패스_330381" data-name="패스 330381" d="M613.951,34.965h0a.6.6,0,0,1,.016-.129l.261-2.071h2.963l.261,2.071a.608.608,0,0,1,.016.132h0a.875.875,0,0,1-.515.718,2.751,2.751,0,0,1-2.488,0,.874.874,0,0,1-.515-.718Z" transform="translate(-610.185 -31.905)" fill="#fff"/>
      <path id="패스_330382" data-name="패스 330382" d="M620.657,32.755l.261,2.071a.608.608,0,0,1,.016.132h0a.875.875,0,0,1-.515.718,1.927,1.927,0,0,1-.235.113l-.139-2.343v-.69Z" transform="translate(-613.65 -31.9)" fill="#e2e1e0"/>
      <ellipse id="타원_4800" data-name="타원 4800" cx="1.481" cy="0.855" rx="1.481" ry="0.855" transform="translate(4.045 0)" fill="#fff"/>
      <path id="패스_330383" data-name="패스 330383" d="M626.29,59.693l1.129-1.389h.83v1.39h0a.445.445,0,0,1-.263.41l-1.7.979Z" transform="translate(-617.2 -46.426)" fill="#3f4f5c"/>
      <path id="패스_338162" data-name="패스 338162" d="M612,53.436l-.069.039.035-.272A.872.872,0,0,0,612,53.436Z" transform="translate(-609.038 -43.526)" fill="#fff"/>
      <g id="패스_338163" data-name="패스 338163" transform="translate(-605.223 -30.773)" fill="none" stroke-miterlimit="10">
        <path d="M616.269,42.633a.771.771,0,0,0-.017-.086c-.009-.022-.022-.047-.03-.069a.626.626,0,0,0-.1-.125,1,1,0,0,0-.228-.177l-1.109-.639-1.411-.815-.034-.276a.723.723,0,0,0-.03-.216l-.25-1.989a1.02,1.02,0,0,0-.022-.194l-.255-2.006v0a.719.719,0,0,0-.021-.168l-.259-2.032v0a.443.443,0,0,0-.018-.134l-.173-1.384-.085-.683v0c0-.47-.664-.854-1.48-.854s-1.484.384-1.484.854v0L609,33.7a.665.665,0,0,0-.013.129v0l-.259,2.032a.751.751,0,0,0-.022.168l-.25,2.011a.732.732,0,0,0-.026.194l-.25,1.989a.931.931,0,0,0-.03.216v0a.869.869,0,0,0,.035.233l-.07.039-2.631,1.519a.459.459,0,0,0-.263.41v1.381l0,.009a.644.644,0,0,0,.371.475l4.327,2.5a1.7,1.7,0,0,0,1.532.065l2.856-1.648,1.7-.979a.447.447,0,0,0,.263-.41V42.663A.064.064,0,0,0,616.269,42.633Z" stroke="none"/>
        <path d="M 610.7591552734375 47.22917556762695 C 610.9971923828125 47.22917938232422 611.2353515625 47.17890167236328 611.45849609375 47.07713317871094 L 614.3146362304688 45.42903137207031 L 616.01025390625 44.44966125488281 C 616.1697998046875 44.38063430786133 616.2734375 44.21668243408203 616.2734375 44.03979110717773 L 616.2734375 42.70232391357422 L 616.2734375 42.69370269775391 L 616.2734375 42.66350173950195 C 616.2734375 42.65055465698242 616.2734375 42.64193344116211 616.2691040039062 42.63329315185547 C 616.2643432617188 42.60309219360352 616.260009765625 42.57721328735352 616.2518310546875 42.54701232910156 C 616.2431640625 42.52543258666992 616.230224609375 42.49955368041992 616.2216796875 42.47798156738281 C 616.1957397460938 42.43483352661133 616.16552734375 42.39169311523438 616.126220703125 42.35286331176758 C 616.0662841796875 42.28814315795898 615.9924926757812 42.23206329345703 615.8980712890625 42.17597198486328 L 614.7892456054688 41.53743362426758 L 613.3780517578125 40.72202301025391 L 613.3438720703125 40.44589233398438 C 613.3438720703125 40.37255477905273 613.3353271484375 40.29920196533203 613.313720703125 40.23017120361328 L 613.0634765625 38.24123382568359 C 613.0634765625 38.176513671875 613.054443359375 38.11180114746094 613.0418701171875 38.04709243774414 L 612.7869262695312 36.0408935546875 L 612.7869262695312 36.03657150268555 C 612.7869262695312 35.97617340087891 612.7786865234375 35.92440414428711 612.7657470703125 35.86831283569336 L 612.5068359375 33.83622360229492 L 612.5068359375 33.83191299438477 C 612.5068359375 33.78446197509766 612.5025634765625 33.74131393432617 612.4892578125 33.69817352294922 L 612.316162109375 32.31424331665039 L 612.230712890625 31.63157272338867 L 612.230712890625 31.62725257873535 C 612.230712890625 31.156982421875 611.5663452148438 30.77300262451172 610.7509765625 30.77300262451172 C 609.93115234375 30.77300262451172 609.2667236328125 31.156982421875 609.2667236328125 31.62725257873535 L 609.2667236328125 31.63157272338867 L 609.0035400390625 33.70248413085938 C 608.9949951171875 33.74563217163086 608.9906005859375 33.78877258300781 608.9906005859375 33.83191299438477 L 608.9906005859375 33.83622360229492 L 608.7318115234375 35.86831283569336 C 608.7188720703125 35.92440414428711 608.709716796875 35.98049163818359 608.709716796875 36.03657150268555 L 608.4599609375 38.04709243774414 C 608.4422607421875 38.11180114746094 608.43408203125 38.176513671875 608.43408203125 38.24123382568359 L 608.183837890625 40.23017120361328 C 608.1666259765625 40.30352401733398 608.1536865234375 40.37255477905273 608.1536865234375 40.44589233398438 L 608.1536865234375 40.45020294189453 C 608.1536865234375 40.52786254882812 608.1666259765625 40.60552215576172 608.188232421875 40.68319320678711 L 608.1187133789062 40.72202301025391 L 605.4873657226562 42.24069213867188 C 605.3018798828125 42.35286331176758 605.2155151367188 42.49955368041992 605.22412109375 42.65055465698242 L 605.22412109375 44.03116226196289 L 605.228515625 44.03979110717773 C 605.267333984375 44.25120162963867 605.4053955078125 44.42809295654297 605.5994873046875 44.51438140869141 L 609.9264526367188 47.01242446899414 C 610.1859741210938 47.15621566772461 610.4724731445312 47.22917175292969 610.7591552734375 47.22917556762695 M 610.7592163085938 47.82917404174805 C 610.368896484375 47.82917404174805 609.9803466796875 47.72822189331055 609.6356811523438 47.53725433349609 L 609.6310424804688 47.53469467163086 L 609.62646484375 47.53204345703125 L 605.3223876953125 45.04722595214844 C 604.9954833984375 44.8901252746582 604.7545776367188 44.59745788574219 604.66064453125 44.2469596862793 L 604.6241455078125 44.17529296875 L 604.6241455078125 44.03116226196289 L 604.6241455078125 42.66377258300781 C 604.6106567382812 42.28881454467773 604.8111572265625 41.94843673706055 605.1768798828125 41.72727203369141 L 605.18212890625 41.72409439086914 L 605.1874389648438 41.72103118896484 L 607.5572509765625 40.35329818725586 C 607.5635986328125 40.26762008666992 607.5774536132812 40.19209289550781 607.59228515625 40.12563705444336 L 607.8347778320312 38.19813537597656 C 607.8375854492188 38.10983657836914 607.8490600585938 38.02228927612305 607.8690185546875 37.93680953979492 L 608.1105346679688 35.99280548095703 C 608.11328125 35.92044067382812 608.1228637695312 35.84669876098633 608.1400756835938 35.76557922363281 L 608.3912963867188 33.7925910949707 C 608.3933715820312 33.7303352355957 608.3997802734375 33.66955184936523 608.4105224609375 33.60945510864258 L 608.6676025390625 31.58679962158203 C 608.6990966796875 30.77591896057129 609.5841674804688 30.17300224304199 610.7509765625 30.17300224304199 C 611.9183959960938 30.17300224304199 612.8031616210938 30.77911186218262 612.830078125 31.58914566040039 L 612.9114990234375 32.23972320556641 L 613.0797119140625 33.58435440063477 C 613.0952758789062 33.65068435668945 613.1040649414062 33.71986770629883 613.1062622070312 33.79365539550781 L 613.3575439453125 35.76572799682617 C 613.3749389648438 35.84808731079102 613.3840942382812 35.92221832275391 613.3863525390625 35.99858093261719 L 613.634765625 37.95336532592773 C 613.6512451171875 38.04227828979492 613.6602783203125 38.12148284912109 613.6627807617188 38.19806289672852 L 613.9035034179688 40.11161041259766 C 613.9232788085938 40.18892288208008 613.935791015625 40.27012252807617 613.9410400390625 40.35437774658203 L 615.0894165039062 41.01792144775391 L 616.197509765625 41.65602111816406 L 616.2009887695312 41.65804290771484 L 616.2044677734375 41.66011428833008 C 616.3486938476562 41.74579238891602 616.4613647460938 41.83368301391602 616.5578002929688 41.93596649169922 C 616.6234130859375 42.00246047973633 616.6817626953125 42.07878494262695 616.7359008789062 42.16884231567383 L 616.7612915039062 42.21108245849609 L 616.7794799804688 42.25689315795898 L 616.7833862304688 42.26523208618164 C 616.79248046875 42.28526306152344 616.8013305664062 42.30534362792969 616.8086547851562 42.32355117797852 L 616.82177734375 42.356201171875 L 616.8309326171875 42.39015197753906 C 616.8424682617188 42.43270492553711 616.8500366210938 42.47021102905273 616.8557739257812 42.50341796875 C 616.8734130859375 42.5782585144043 616.8734130859375 42.63770294189453 616.8734130859375 42.66350173950195 L 616.8734130859375 42.69370269775391 L 616.8734130859375 42.70232391357422 L 616.8734130859375 44.03979110717773 C 616.8734130859375 44.44476318359375 616.64453125 44.81035232543945 616.2868041992188 44.98281860351562 L 614.61474609375 45.94859313964844 L 611.7583618164062 47.59682464599609 L 611.7335815429688 47.61114120483398 L 611.7074584960938 47.62303161621094 C 611.4075927734375 47.75981140136719 611.0885620117188 47.82917404174805 610.7592163085938 47.82917404174805 Z" stroke="none" fill="#222"/>
      </g>
    </g>
  </g>
</svg>
