<svg xmlns="http://www.w3.org/2000/svg" width="16" height="16" viewBox="0 0 16 16"><defs><style>.a{opacity:0;}.b{fill:#e63430;}</style></defs><g transform="translate(-11 -587)"><rect class="a" width="16" height="16" transform="translate(11 587)"/><g transform="translate(13 588.5)"><path class="b" d="M112.186,51.472v-2.84c0-.757.211-1.413.766-1.615l2.367-.843a2.113,2.113,0,0,0,.161-.861,2.9,2.9,0,0,0-1.906-2.837l-6.481-2.026,1.69-.606a.96.96,0,0,1,.3-.05,1.114,1.114,0,0,1,.316.049l6.613,2.067a2.71,2.71,0,0,1,1.58,2.5,1.521,1.521,0,0,1-.847,1.534c-.571.208-2.283.821-2.283.821A2.471,2.471,0,0,0,114.3,47.8v2.56c0,.805-.388,1.536-1.132,1.536a1.468,1.468,0,0,1-.979-.429" transform="translate(-105.597 -39.794)"/><path class="b" d="M98.266,52.559a3.251,3.251,0,0,1,.513,1.719v2.383a2.945,2.945,0,0,0,1.805,3.02l-1.734.6a1.048,1.048,0,0,1-.893-.136,2.886,2.886,0,0,1-1.289-2.668c0-.606,0-1.434,0-2.5A3.234,3.234,0,0,0,96,53.131a2.267,2.267,0,0,0-1.09-.8,2.735,2.735,0,0,1-1.542-2.5c0-.935.476-1.525,1.108-1.57a.965.965,0,0,1,.362.048c.376.115.678.219.678.219a3.01,3.01,0,0,0,1.694,3.191,1.954,1.954,0,0,1,1.051.84" transform="translate(-93.373 -47.336)"/></g></g></svg>