<svg xmlns="http://www.w3.org/2000/svg" width="16" height="16" viewBox="0 0 16 16">
  <g id="그룹_574269" data-name="그룹 574269" transform="translate(-57 -1104)">
    <g id="그룹_574270" data-name="그룹 574270" transform="translate(57.511 1104.511)">
      <rect id="사각형_426736" data-name="사각형 426736" width="16" height="16" transform="translate(-0.511 -0.511)" fill="#f0f" opacity="0.001"/>
    </g>
    <rect id="사각형_426738" data-name="사각형 426738" width="14" height="14" transform="translate(58 1105)" fill="none"/>
    <path id="패스_1439813" data-name="패스 1439813" d="M7.612,12.716A5.776,5.776,0,0,1,1.7,8.911,5.1,5.1,0,0,0,9.243,4.086,5.029,5.029,0,0,0,8.088,1.3a5.776,5.776,0,0,1-.476,11.416Z" transform="translate(58.649 1104.767)" fill="none" stroke="#111" stroke-linecap="round" stroke-linejoin="round" stroke-width="1.5"/>
    <line id="선_166018" data-name="선 166018" y2="1.357" transform="translate(60.875 1107.554)" fill="none" stroke="#111" stroke-linecap="round" stroke-width="1.5"/>
    <line id="선_166019" data-name="선 166019" x2="1.658" transform="translate(60.725 1107.478)" fill="none" stroke="#111" stroke-linecap="round" stroke-width="1.5"/>
    <line id="선_166020" data-name="선 166020" x2="1.884" transform="translate(58.991 1107.478)" fill="none" stroke="#111" stroke-width="1.5"/>
    <line id="선_166021" data-name="선 166021" y2="1.96" transform="translate(60.875 1105.519)" fill="none" stroke="#111" stroke-width="1.5"/>
    <rect id="사각형_426741" data-name="사각형 426741" width="14" height="14" transform="translate(58 1105)" fill="none"/>
    <rect id="사각형_426742" data-name="사각형 426742" width="14" height="14" transform="translate(58 1105)" fill="none"/>
  </g>
</svg>
