<svg xmlns="http://www.w3.org/2000/svg" width="20" height="20"><defs><clipPath id="a"><path data-name="사각형 249781" fill="none" d="M0 0h20v20H0z"/></clipPath></defs><g data-name="그룹 345415" clip-path="url(#a)"><g data-name="그룹 345414" clip-path="url(#a)"><path data-name="패스 647794" d="M11.8 3.7a8.2 8.2 0 11-8.2 8.2 8.2 8.2 0 018.2-8.2" fill="#fff"/><path data-name="패스 647795" d="M2.5 11A7.5 7.5 0 1010 3.5H2.5" fill="none" stroke="#000111" stroke-linecap="round" stroke-miterlimit="10" stroke-width="1.5"/><path data-name="패스 647796" d="M3.3 4.4l-1-.9L5.2.9" fill="none" stroke="#000111" stroke-linecap="round" stroke-miterlimit="10" stroke-width="1.5"/><path data-name="선 89855" fill="none" stroke="#000111" stroke-linecap="square" stroke-miterlimit="10" stroke-width="1.5" d="M5 5.9L3.3 4.4"/><path data-name="패스 647797" d="M5.8 8.4h1.3l.6 2.7h.8l.6-2.7h1.3l.7 2.7h.9l.7-2.7h1.2l-.7 2.7h.7a.325.325 0 010 .6H13l-.5 2a.7.7 0 01-.8.5l-.5-.2a.7.7 0 01-.3-.4l-.5-2h-1l-.5 2a.7.7 0 01-.3.4l-.5.2a.7.7 0 01-.8-.5l-.5-2h-.9v-.9h.6zm2.1 3.5v1.4H8l.2-.9v-.5zm2.2-.8l-.3-1.3a12.1 12.1 0 01-.2 1.3zm1.2.8l.2 1.3h.1l.2-1.3z"/></g></g></svg>