<svg xmlns="http://www.w3.org/2000/svg" xmlns:xlink="http://www.w3.org/1999/xlink" width="28" height="28" viewBox="0 0 28 28"><defs><style>.a,.c{fill:#fff;}.a{stroke:#707070;}.b{clip-path:url(#a);}.d{fill:none;stroke:#111;stroke-linecap:round;stroke-width:1.5px;}.e{fill:#111;}</style><clipPath id="a"><rect class="a" width="28" height="28"/></clipPath></defs><g class="b"><g transform="translate(-1.791 -1.79)"><circle class="c" cx="11.5" cy="11.5" r="11.5" transform="translate(5.791 6.791)"/><path class="d" d="M11.034,0A11.034,11.034,0,1,1,0,11.034,11.231,11.231,0,0,1,2.284,4.312,10.606,10.606,0,0,1,6.218,1.086" transform="translate(0 16.4) rotate(-48)"/><path class="e" d="M12.05,16.339H10.43v-1.62h1.62Zm1.677-6.277L13,10.807A2.757,2.757,0,0,0,12.05,13.1H10.43v-.4a3.26,3.26,0,0,1,.948-2.292l1-1.021A1.584,1.584,0,0,0,12.86,8.24a1.62,1.62,0,0,0-3.24,0H8a3.24,3.24,0,0,1,6.48,0A2.577,2.577,0,0,1,13.726,10.062Z" transform="translate(4.411 4.653)"/></g></g></svg>