<svg xmlns="http://www.w3.org/2000/svg" xmlns:xlink="http://www.w3.org/1999/xlink" width="28" height="28" viewBox="0 0 28 28"><defs><style>.a,.f,.g{fill:none;}.b{clip-path:url(#a);}.c{opacity:0;}.d{fill:#f0f;}.e{fill:#56c6e4;}.f,.g{stroke:#111;stroke-width:1.5px;}.f{stroke-miterlimit:10;}.g{stroke-linecap:round;stroke-linejoin:round;}</style><clipPath id="a"><rect class="a" width="28" height="28"/></clipPath></defs><g transform="translate(14 14)"><g class="b" transform="translate(-14 -14)"><g class="b"><g class="c"><g class="b"><rect class="d" width="28" height="28"/></g></g><path class="e" d="M15.2,12.5a.5.5,0,0,1,.3.5v5.7a3.1,3.1,0,0,1-3.7,3.1,3.2,3.2,0,0,1-2.5-3.2V13a.5.5,0,0,1,.3-.5,5.7,5.7,0,0,1,5.7,0"/><path class="f" d="M11,11V6A5.3,5.3,0,0,1,21.5,6V24.8"/><path class="f" d="M17,27.3H5v-10a6,6,0,1,1,12,0Z"/><path class="f" d="M5.5,21.3h-3a1,1,0,0,0-1,1v4a1,1,0,0,0,1,1h3"/><path class="f" d="M17.5,24.3h8a1,1,0,0,1,1,1v2h-9"/><path class="g" d="M14.3,12.5v5.9a3.3,3.3,0,0,1-3.9,3.2,3.4,3.4,0,0,1-2.6-3.3v-3"/></g></g></g></svg>