<svg xmlns="http://www.w3.org/2000/svg" width="40" height="50"><defs><clipPath id="a"><path data-name="사각형 257945" fill="none" d="M0 0h40v50H0z"/></clipPath></defs><g data-name="그룹 348338"><g clip-path="url(#a)"><path data-name="패스 694991" d="M2.2 2.8v34.8a4.4 4.4 0 002.2 3.8L17 48.8a4.4 4.4 0 004.4 0L34 41.5a4.4 4.4 0 002.2-3.8V2.8z" fill="#fff"/><path data-name="패스 694992" d="M3.7 4.3v33.6A4.4 4.4 0 006 41.7l12.6 7.2a4.5 4.5 0 004.4 0l12.6-7.2a4.4 4.4 0 002.2-3.8V4.3a1 1 0 00-1-1H4.7a1 1 0 00-1 1z" fill="#fddb2b"/><path data-name="패스 694993" d="M2.2 1.8v35.8a4.4 4.4 0 002.2 3.8L17 48.8a4.4 4.4 0 004.4 0L34 41.5a4.4 4.4 0 002.2-3.8V1.8z" fill="none" stroke="#fccb3a" stroke-linejoin="round"/><g data-name="그룹 343297"><g data-name="그룹 343294"><path data-name="패스 694984" d="M20.238 9.801a8.345 8.345 0 11-8.235 8.345 8.345 8.345 0 018.235-8.235" fill="#fff"/><path data-name="패스 694985" d="M12.552 14.636a8.125 8.125 0 011.537-2.2" fill="none" stroke="#111" stroke-linecap="square" stroke-linejoin="round"/><path data-name="패스 694986" d="M13.979 7.605s0 3.184 1.976 3.184h.11a8.345 8.345 0 11-3.623 3.843" fill="none" stroke="#111" stroke-linecap="round" stroke-linejoin="round"/><path data-name="패스 694987" d="M16.615 8.154s-.549 1.867.659 2.086" fill="none" stroke="#111" stroke-linecap="round" stroke-linejoin="round"/><path data-name="패스 694988" d="M20.348 19.024a1.647 1.647 0 01-3.184 0" fill="none" stroke="#111" stroke-linecap="square" stroke-miterlimit="10"/><path data-name="선 93127" fill="none" stroke="#111" stroke-linecap="round" d="M21.225 16.059v.329"/><path data-name="선 93128" fill="none" stroke="#111" d="M21.225 14.633v1.427"/><path data-name="선 93129" fill="none" stroke="#111" stroke-linecap="round" d="M16.285 15.95v.439"/><path data-name="선 93130" fill="none" stroke="#111" d="M16.285 14.633v1.318"/></g><g data-name="그룹 343295"><path data-name="패스 694999" d="M25.618 9.803l-2.777-.766 1.628 2.586-1.528 2.586 2.777-1.149 2.107 2.49-.1-3.065 2.586-1.437-2.682-.766-.382-2.873z" fill="#fff"/><path data-name="패스 695000" d="M25.618 9.803l-2.777-.766 1.628 2.586-1.528 2.586 2.777-1.149 2.107 2.49-.1-3.065 2.586-1.437-2.682-.766-.382-2.873z" fill="none" stroke="#111" stroke-linejoin="round"/></g></g></g><text transform="translate(19.9 37.5)" fill="#111" font-size="7.5" font-family="MoebiusKorea-Bold, Moebius Korea" font-weight="700" letter-spacing="-.03em"><tspan x="-6.637" y="0">골드</tspan></text></g></svg>