<svg xmlns="http://www.w3.org/2000/svg" xmlns:xlink="http://www.w3.org/1999/xlink" width="28" height="28" viewBox="0 0 28 28"><defs><style>.a,.g{fill:none;}.b{clip-path:url(#a);}.c{opacity:0;}.d{fill:#f0f;}.e{fill:#56c6e4;}.f{fill:#111;}.g{stroke:#111;stroke-linecap:round;stroke-width:1.5px;}</style><clipPath id="a"><rect class="a" width="28" height="28"/></clipPath></defs><g transform="translate(14 14)"><g class="b" transform="translate(-14 -14)"><g class="b"><g class="c"><g class="b"><rect class="d" width="28" height="28"/></g></g><path class="e" d="M15.8,26.2H12A2.2,2.2,0,0,1,9.8,24V9.2h5.9Z"/><g class="c"><g class="b"><rect class="d" width="28" height="28"/></g></g><path class="f" d="M5.6,27.2a5,5,0,0,1-5-5V5.8a5,5,0,1,1,10,0V22.2a5,5,0,0,1-5,5m0-25A3.5,3.5,0,0,0,2.1,5.8V22.2a3.5,3.5,0,1,0,7,0V5.8A3.5,3.5,0,0,0,5.6,2.3"/><path class="f" d="M5.6,27.2a5,5,0,1,1,5-5,5,5,0,0,1-5,5m0-8.5a3.5,3.5,0,1,0,3.5,3.5,3.5,3.5,0,0,0-3.5-3.5"/><path class="f" d="M5.6,24.5a2.3,2.3,0,1,1,2.3-2.3,2.3,2.3,0,0,1-2.3,2.3m0-3.1a.8.8,0,1,0,.8.8.8.8,0,0,0-.8-.8"/><path class="f" d="M9.8,6.5h15a.8.8,0,0,1,.8.8V22c0,1.6-.6,4.2-2.8,4.2H11.9V24.7H22.8c1.3,0,1.3-2.7,1.3-2.7V8H9.8"/><line class="e" y2="10.3" transform="translate(14.2 7.5)"/><line class="g" y2="10.3" transform="translate(14.2 7.5)"/></g></g></g></svg>