<svg xmlns="http://www.w3.org/2000/svg" width="100" height="100"><defs><clipPath id="a"><path data-name="사각형 59828" transform="translate(138 80)" fill="#d5d5d5" d="M0 0h100v100H0z"/></clipPath><clipPath id="b"><path data-name="사각형 251754" fill="none" d="M0 0h100v100H0z"/></clipPath><clipPath id="c"><path data-name="사각형 251748" fill="none" d="M0 0h20.438v12.417H0z"/></clipPath><clipPath id="d"><path data-name="사각형 251749" fill="none" d="M0 0h43.042v34.652H0z"/></clipPath><clipPath id="e"><path data-name="사각형 251751" fill="none" d="M0 0h22.708v38.3H0z"/></clipPath><clipPath id="f"><path data-name="사각형 251752" fill="none" d="M0 0h16.5v9.919H0z"/></clipPath></defs><g data-name="마스크 그룹 384" transform="translate(-138 -80)" clip-path="url(#a)"><g data-name="그룹 333046"><g data-name="Layer 1"><g data-name="그룹 333045" clip-path="url(#b)" transform="translate(138 80)"><g data-name="그룹 333035" clip-path="url(#b)"><path data-name="패스 675963" d="M50 0A50 50 0 110 50 50.013 50.013 0 0150 0" fill="#f9f9f9"/><path data-name="패스 675964" d="M50 100a50 50 0 1150-50 50.066 50.066 0 01-50 50m0-99a49 49 0 1049 49A49.053 49.053 0 0050 1" fill="#f0f0f0"/></g><g data-name="그룹 333044" clip-path="url(#b)"><g data-name="그룹 333037"><g data-name="그룹 333036" clip-path="url(#c)" transform="translate(19.229 65.146)" opacity=".15"><path data-name="패스 675965" d="M20.084 6.775l-9.625 5.563a.729.729 0 01-.729 0L.355 6.921a.729.729 0 010-1.25L9.98.109a.729.729 0 01.729 0l9.375 5.417a.729.729 0 010 1.25" fill="#222"/></g></g><g data-name="그룹 333039"><g data-name="그룹 333038" clip-path="url(#d)" transform="translate(41.688 45.271)" opacity=".15"><path data-name="패스 675966" d="M26.25 0l16.417 8.9a.729.729 0 01.021 1.271L0 34.646"/></g></g><path data-name="패스 675967" d="M77.312 48l4.188 2.1a.958.958 0 01.333 1.479C70.25 64.371 56.75 72.204 41.708 80.142l-9.583-5.521-9.354-5.4-9.584-5.513 8.021-3.042" fill="#fff"/><path data-name="패스 675968" d="M77.312 48l4.188 2.1a.958.958 0 01.333 1.479C70.25 64.371 56.75 72.204 41.708 80.142l-9.583-5.521-9.354-5.4-9.584-5.513 8.021-3.042" fill="none" stroke="#222" stroke-linejoin="round" stroke-width=".833"/><path data-name="패스 675969" d="M58.229 33.187l4.583 2.646.458.271 8.042 4.646.875.5 8.354 4.833a1.354 1.354 0 01.458 1.9c-9.875 15.313-24.292 23.1-39.292 31.021l-9.583-5.521-9.354-5.4-9.583-5.521c15.833-5.854 28.854-13.792 36.521-25.6" fill="#fff"/><path data-name="패스 675970" d="M58.229 33.187l4.583 2.646.458.271 8.042 4.646.875.5 8.354 4.833a1.354 1.354 0 01.458 1.9c-9.875 15.313-24.292 23.1-39.292 31.021l-9.583-5.521-9.354-5.4-9.583-5.521c15.833-5.854 28.854-13.792 36.521-25.6" fill="none" stroke="#222" stroke-linejoin="round" stroke-width=".833"/><path data-name="패스 675971" d="M22.541 76.729a4.823 4.823 0 01-3.292-.958c-.812-.687-.75-.958-.646-1.458s.542-.854 1.229-1.062h.063l1.188-.083L26 72.231l.125.6-4.937.938h-.042l-1.167.083a1.007 1.007 0 00-.75.6.992.992 0 00.438.875 4.192 4.192 0 003.375.708l.542-.5h.042l4.458-2.125.292.542-4.437 2.083-.562.521-.083.042a3.711 3.711 0 01-.771.146" fill="#222"/><path data-name="패스 675972" d="M26.291 72.625c.021.146-.083.208-.187.167a.458.458 0 01-.25-.354c-.021-.146.083-.208.188-.167a.458.458 0 01.25.354" fill="#222"/><path data-name="패스 675973" d="M28.458 73.75c.021.146-.083.208-.187.167a.458.458 0 01-.25-.354c-.021-.146.083-.208.188-.167a.458.458 0 01.25.354" fill="#222"/><path data-name="선 91270" fill="#fff" d="M28.958 76.354l3.104-1.708"/><path data-name="선 91271" fill="none" stroke="#222" stroke-linejoin="round" stroke-width=".833" d="M28.958 76.354l3.104-1.708"/><path data-name="패스 675974" d="M19.333 65.125l8.625 2.333 8.292 4.313-7.292-1.083v5.667l-9.625-5.563v-5.667l9.625 5.563" fill="#fff"/><path data-name="패스 675975" d="M19.333 65.125l8.625 2.333 8.292 4.313-7.292-1.083v5.667l-9.625-5.563v-5.667l9.625 5.563" fill="none" stroke="#222" stroke-linejoin="round" stroke-width=".833"/><path data-name="패스 675976" d="M36.333 72.187l-3.75.542a2 2 0 00-1.687 1.5l.792.875s-2.6 1.292-2.625 1.208-.042-5.6-.042-5.6z" fill="#222"/><path data-name="패스 675977" d="M36.812 69.479l-7.354-3.812a.583.583 0 00-.521.083 1.729 1.729 0 00-.792 1.354.542.542 0 00.25.521h.021l7.1 3.688" fill="#fff"/><path data-name="패스 675978" d="M36.812 69.479l-7.354-3.812h0a.583.583 0 00-.521.083 1.729 1.729 0 00-.792 1.354.542.542 0 00.25.521h.021l7.1 3.688" fill="none" stroke="#222" stroke-linejoin="round" stroke-width=".833"/><path data-name="패스 675979" d="M37.021 69.979a1.729 1.729 0 01-.792 1.354c-.437.25-.792.042-.792-.458a1.729 1.729 0 01.792-1.354c.438-.25.792-.042.792.458" fill="#fff"/><path data-name="패스 675980" d="M37.021 69.979a1.729 1.729 0 01-.792 1.354c-.437.25-.792.042-.792-.458a1.729 1.729 0 01.792-1.354c.438-.251.792-.042.792.458z" fill="none" stroke="#222" stroke-linejoin="round" stroke-width=".833"/><path data-name="패스 675981" d="M32.291 69.979l.479-4.812c.292-.25.479-.312.479-.917a3.771 3.771 0 00-1.771-3.125c-.979-.562-1.771-.208-1.771 1.083a2.889 2.889 0 00.479 1.479l.479 5.375" fill="none" stroke="#222" stroke-linejoin="round" stroke-width=".833"/><g data-name="그룹 333041" transform="translate(36.167 14)" clip-path="url(#e)"><g data-name="그룹 333040" clip-path="url(#e)"><path data-name="패스 675982" d="M1.875 38a1.229 1.229 0 01-.646-.167 1.724 1.724 0 01-.708-1.6V20.437a.313.313 0 01.167-.271l3.979-2.292.167-.042.167.042a.312.312 0 01.167.271v15.772a4.188 4.188 0 01-1.312 3.042 3.813 3.813 0 01-.854.708 2.208 2.208 0 01-1.1.354m-.146-22.042a1.458 1.458 0 01-.6-.125 1.586 1.586 0 01-.812-1.6 4.271 4.271 0 01.688-2.271 4.833 4.833 0 011.667-1.667 2.542 2.542 0 011.25-.4 1.5 1.5 0 01.625.125 1.593 1.593 0 01.833 1.646 4.146 4.146 0 01-.708 2.229 4.938 4.938 0 01-1.687 1.667 2.562 2.562 0 01-1.25.4" fill="#fff"/><path data-name="패스 675983" d="M3.916 10.209a1.188 1.188 0 01.479.1q.646.292.646 1.354a3.812 3.812 0 01-.646 2.063 4.6 4.6 0 01-1.583 1.563 2.25 2.25 0 01-1.1.354 1.146 1.146 0 01-.479-.1 1.284 1.284 0 01-.646-1.312 3.938 3.938 0 01.646-2.1 4.521 4.521 0 011.563-1.562 2.229 2.229 0 011.1-.354m.917 7.938v15.771a3.875 3.875 0 01-1.208 2.813 3.5 3.5 0 01-.792.646 1.938 1.938 0 01-.938.312.917.917 0 01-.479-.125 1.445 1.445 0 01-.542-1.333V20.438l3.979-2.292m-.917-8.562a2.854 2.854 0 00-1.417.438 5.146 5.146 0 00-1.771 1.771 4.583 4.583 0 00-.75 2.438 1.861 1.861 0 001 1.9 1.771 1.771 0 00.729.146 2.833 2.833 0 001.417-.437 5.25 5.25 0 001.792-1.771 4.458 4.458 0 00.75-2.4 1.9 1.9 0 00-1.021-1.937 1.813 1.813 0 00-.75-.146m.917 7.937a.625.625 0 00-.312.083L.521 19.898a.625.625 0 00-.312.542v15.771a2.022 2.022 0 00.854 1.875 1.542 1.542 0 00.813.229 2.521 2.521 0 001.25-.4 4.145 4.145 0 00.938-.75 4.5 4.5 0 001.4-3.25V18.146a.625.625 0 00-.625-.625" fill="#222"/><path data-name="패스 675984" d="M10.838 32.25a3.333 3.333 0 01-1.792-.5c-1.4-.9-2.1-2.9-2.1-5.979a17.125 17.125 0 012.187-8.458 14.568 14.568 0 015.4-5.6 6.624 6.624 0 013.229-1.042V2.933a.312.312 0 01.167-.271L21.908.37l.167-.042.167.042a.313.313 0 01.167.271v22.963a4.25 4.25 0 01-2.146 4 2.458 2.458 0 01-1.187.4 1.063 1.063 0 01-.979-.6 2.167 2.167 0 01-.208-.667c-.021 1.167-.771 2.333-2.208 3.479a8.792 8.792 0 01-1.167.813 7.636 7.636 0 01-3.646 1.208m5.9-17.083l-.4.042a4.042 4.042 0 00-1.125.479 6.988 6.988 0 00-3.205 4.804 12.9 12.9 0 00-.271 2.792c0 1.708.271 2.833.813 3.354a1.187 1.187 0 00.854.354 2.458 2.458 0 001.188-.4l.688-.458.708-.479a1.917 1.917 0 01.938-.312.894.894 0 01.875.792v-9.081c0-1.9-.771-1.9-1.042-1.9" fill="#fff"/><path data-name="패스 675985" d="M22.062.625V23.6a3.949 3.949 0 01-1.979 3.729 2.187 2.187 0 01-1.042.354q-.937 0-.937-1.75v-8.9q0-2.208-1.354-2.208l-.479.063a4.334 4.334 0 00-1.208.5 7.275 7.275 0 00-3.333 5 13.146 13.146 0 00-.292 2.854q0 2.687.917 3.583a1.5 1.5 0 001.083.438 2.75 2.75 0 001.333-.437l.708-.479.688-.458a1.646 1.646 0 01.771-.271q.6 0 .6 1.063 0 1.625-2.083 3.292a8.438 8.438 0 01-1.125.792 7.18 7.18 0 01-3.479 1.167 3.021 3.021 0 01-1.625-.437q-1.958-1.25-1.958-5.729a16.729 16.729 0 012.125-8.312 14.262 14.262 0 015.292-5.479 6.328 6.328 0 013.083-1h.292V2.937L22.039.645m0-.625a.625.625 0 00-.312.083L17.75 2.4a.625.625 0 00-.312.542v7.417a7.569 7.569 0 00-3.083 1.063 15.075 15.075 0 00-5.521 5.729 17.438 17.438 0 00-2.229 8.625c0 3.25.729 5.292 2.25 6.25a3.646 3.646 0 001.958.542 7.774 7.774 0 003.792-1.25 9.106 9.106 0 001.208-.833 6.342 6.342 0 002.125-2.646 1.292 1.292 0 001.083.5 2.75 2.75 0 001.354-.438 4.57 4.57 0 002.292-4.271v-23a.625.625 0 00-.625-.625m-8.6 26.646a.875.875 0 01-.646-.271c-.333-.312-.729-1.125-.729-3.125a12.6 12.6 0 01.271-2.729 6.579 6.579 0 013.042-4.6 3.75 3.75 0 011.042-.438l.333-.042c.208 0 .729 0 .729 1.583v8.125a1.208 1.208 0 00-.562-.125 2.208 2.208 0 00-1.083.354l-.729.5-.646.438a2.167 2.167 0 01-1.021.354" fill="#222"/></g></g><g data-name="그룹 333043"><g data-name="그룹 333042" clip-path="url(#f)" transform="translate(41.813 51.771)" opacity=".15"><path data-name="패스 675986" d="M.354 7.961a52 52 0 0012.5-7.708A2.428 2.428 0 0115 .274l.958.458c.646.354.729.9.188 1.229-4.292 3.75-8.479 6.438-12.5 7.708A2.428 2.428 0 011.5 9.648L.542 9.19c-.646-.354-.729-.9-.187-1.229"/></g></g><path data-name="패스 675987" d="M58.229 14.625l2.021.854L58 16.525z" fill="#fff"/><path data-name="패스 675988" d="M53 39.813l.125-.167h.125l1.667.792-1.625.75-.438-.729z" fill="#fff"/><path data-name="패스 675989" d="M40.334 53.08a1.229 1.229 0 01-.646-.167 1.724 1.724 0 01-.708-1.6V35.542a.312.312 0 01.167-.271l3.979-2.292.167-.042.167.042a.312.312 0 01.167.271v15.771a4.187 4.187 0 01-1.312 3.042 3.812 3.812 0 01-.854.708 2.208 2.208 0 01-1.1.354m-.167-22.083a1.458 1.458 0 01-.6-.125 1.586 1.586 0 01-.812-1.6 4.271 4.271 0 01.688-2.271 4.833 4.833 0 011.667-1.667 2.542 2.542 0 011.25-.4 1.5 1.5 0 01.625.125 1.593 1.593 0 01.833 1.646 4.146 4.146 0 01-.708 2.229 4.937 4.937 0 01-1.687 1.667 2.562 2.562 0 01-1.25.4" fill="#3982f7"/><path data-name="패스 675990" d="M42.375 25.289a1.187 1.187 0 01.479.1q.646.292.646 1.354a3.812 3.812 0 01-.646 2.063 4.6 4.6 0 01-1.583 1.563 2.25 2.25 0 01-1.1.354 1.146 1.146 0 01-.479-.1 1.284 1.284 0 01-.646-1.312 3.938 3.938 0 01.646-2.1 4.521 4.521 0 011.563-1.562 2.229 2.229 0 011.1-.354m.917 7.937v15.771a3.875 3.875 0 01-1.208 2.813 3.521 3.521 0 01-.792.646 1.938 1.938 0 01-.937.313.917.917 0 01-.479-.125 1.445 1.445 0 01-.542-1.333V35.542l3.979-2.292m-.917-8.562a2.854 2.854 0 00-1.417.438 5.146 5.146 0 00-1.771 1.771 4.583 4.583 0 00-.75 2.438 1.861 1.861 0 001 1.9 1.771 1.771 0 00.729.146 2.833 2.833 0 001.417-.437 5.25 5.25 0 001.792-1.771 4.458 4.458 0 00.75-2.4 1.9 1.9 0 00-1.021-1.937 1.833 1.833 0 00-.75-.146m.917 7.938a.625.625 0 00-.312.083l-3.979 2.292a.625.625 0 00-.312.542v15.771a2.022 2.022 0 00.854 1.875 1.542 1.542 0 00.813.229 2.521 2.521 0 001.25-.4 4.146 4.146 0 00.938-.75 4.5 4.5 0 001.4-3.25V33.23a.625.625 0 00-.625-.625" fill="#222"/><path data-name="패스 675991" d="M49.297 47.334a3.333 3.333 0 01-1.792-.5c-1.4-.9-2.1-2.9-2.1-5.979a17.125 17.125 0 012.188-8.458 14.568 14.568 0 015.4-5.6 6.624 6.624 0 013.229-1.042v-7.738a.313.313 0 01.167-.271l3.979-2.292.167-.042.167.042a.313.313 0 01.167.271v22.984a4.25 4.25 0 01-2.146 4 2.458 2.458 0 01-1.188.4 1.063 1.063 0 01-.979-.6 2.167 2.167 0 01-.208-.667c-.021 1.167-.771 2.333-2.208 3.479a8.792 8.792 0 01-1.167.813 7.636 7.636 0 01-3.646 1.208m5.9-17.1l-.4.042a4.041 4.041 0 00-1.125.479 6.988 6.988 0 00-3.205 4.8 12.9 12.9 0 00-.271 2.792c0 1.708.271 2.833.812 3.354a1.188 1.188 0 00.854.354 2.458 2.458 0 001.188-.4l.687-.458.708-.479a1.917 1.917 0 01.942-.309.894.894 0 01.875.792v-9.084c0-1.9-.771-1.9-1.042-1.9" fill="#3982f7"/><path data-name="패스 675992" d="M60.521 15.729v22.975a3.949 3.949 0 01-1.979 3.729 2.188 2.188 0 01-1.042.354q-.937 0-.937-1.75v-8.912q0-2.208-1.354-2.208l-.479.063a4.313 4.313 0 00-1.208.5 7.275 7.275 0 00-3.333 5 13.145 13.145 0 00-.292 2.854q0 2.688.917 3.583a1.5 1.5 0 001.083.438 2.75 2.75 0 001.333-.438l.708-.479.688-.458a1.646 1.646 0 01.771-.271q.6 0 .6 1.063 0 1.625-2.083 3.292a8.459 8.459 0 01-1.125.792 7.18 7.18 0 01-3.479 1.167 3.021 3.021 0 01-1.625-.437q-1.958-1.25-1.958-5.729a16.729 16.729 0 012.146-8.312 14.262 14.262 0 015.292-5.479 6.328 6.328 0 013.083-1h.292v-8.045l3.979-2.292m0-.625a.625.625 0 00-.312.083l-3.979 2.292a.625.625 0 00-.312.542v7.417a7.569 7.569 0 00-3.083 1.063 15.075 15.075 0 00-5.521 5.729 17.438 17.438 0 00-2.228 8.624c0 3.25.729 5.292 2.25 6.25a3.646 3.646 0 001.958.542 7.774 7.774 0 003.792-1.25 9.1 9.1 0 001.208-.833 6.342 6.342 0 002.125-2.646 1.292 1.292 0 001.083.5 2.75 2.75 0 001.354-.437 4.57 4.57 0 002.292-4.271v-22.98a.625.625 0 00-.625-.625M51.896 41.75a.875.875 0 01-.646-.271c-.333-.312-.729-1.125-.729-3.125a12.582 12.582 0 01.271-2.729 6.579 6.579 0 013.042-4.6 3.729 3.729 0 011.042-.437l.333-.042c.208 0 .729 0 .729 1.583v8.125a1.208 1.208 0 00-.563-.125 2.208 2.208 0 00-1.083.354l-.729.5-.646.438a2.167 2.167 0 01-1.021.354" fill="#222"/><path data-name="선 91272" fill="#3982f7" d="M58.333 14.333l2.292 1.083"/><path data-name="선 91273" fill="none" stroke="#222" stroke-linejoin="round" stroke-width=".625" d="M58.333 14.333l2.292 1.083"/><path data-name="선 91274" fill="#3982f7" d="M53.937 16.792l2.292 1.083"/><path data-name="선 91275" fill="none" stroke="#222" stroke-linejoin="round" stroke-width=".625" d="M53.937 16.792l2.292 1.083"/><path data-name="선 91276" fill="#3982f7" d="M53.75 24.563l2.292 1.083"/><path data-name="선 91277" fill="none" stroke="#222" stroke-linejoin="round" stroke-width=".625" d="M53.75 24.563l2.292 1.083"/><path data-name="선 91278" fill="#3982f7" d="M45.292 45.833l2.313 1.104"/><path data-name="선 91279" fill="none" stroke="#222" stroke-linejoin="round" stroke-width=".625" d="M45.292 45.833l2.313 1.104"/><path data-name="선 91280" fill="#3982f7" d="M53.292 39.333l2.292 1.083"/><path data-name="선 91281" fill="none" stroke="#222" stroke-linejoin="round" stroke-width=".625" d="M53.292 39.333l2.292 1.083"/><path data-name="선 91282" fill="#3982f7" d="M40.625 23.958l2.292 1.083"/><path data-name="선 91283" fill="none" stroke="#222" stroke-linejoin="round" stroke-width=".625" d="M40.625 23.958l2.292 1.083"/><path data-name="선 91284" fill="#3982f7" d="M37.083 29.729l2.292 1.083"/><path data-name="선 91285" fill="none" stroke="#222" stroke-linejoin="round" stroke-width=".625" d="M37.083 29.729l2.292 1.083"/><path data-name="선 91286" fill="#3982f7" d="M41.104 31.833l2.292 1.083"/><path data-name="선 91287" fill="none" stroke="#222" stroke-linejoin="round" stroke-width=".625" d="M41.104 31.833l2.292 1.083"/><path data-name="선 91288" fill="#3982f7" d="M36.708 34.292L39 35.396"/><path data-name="선 91289" fill="none" stroke="#222" stroke-linejoin="round" stroke-width=".625" d="M36.708 34.292L39 35.396"/><path data-name="선 91290" fill="#3982f7" d="M37.375 51.833l2.292 1.104"/><path data-name="선 91291" fill="none" stroke="#222" stroke-linejoin="round" stroke-width=".625" d="M37.375 51.833l2.292 1.104"/><path data-name="패스 675993" d="M41 32.146l1.6.75-1.75 1.042z" fill="#fff"/></g></g></g></g></g></svg>