<svg id="icon_membership_p_40" xmlns="http://www.w3.org/2000/svg" xmlns:xlink="http://www.w3.org/1999/xlink" width="40" height="50" viewBox="0 0 40 50">
  <defs>
    <clipPath id="clip-path">
      <rect id="사각형_352459" data-name="사각형 352459" width="40" height="50" fill="none"/>
    </clipPath>
  </defs>
  <g id="멤버십아이콘_플레_40x50" data-name="멤버십아이콘 플레 40x50">
    <g id="그룹_476482" data-name="그룹 476482">
      <g id="그룹_476481" data-name="그룹 476481" clip-path="url(#clip-path)">
        <g id="멤버십아이콘_플레_40x50-2" data-name="멤버십아이콘 플레 40x50-2">
          <path id="패스_694981" data-name="패스 694981" d="M22.3,1.8A3.8,3.8,0,0,0,18.7.6c-2.1.5-14.8,7.3-16,9.3s-.2,19.4-.2,19.4l2.4,2,2-.9L7.9,12Z" fill="#fff"/>
          <path id="패스_694982" data-name="패스 694982" d="M3.4,13.5V38.1A4.5,4.5,0,0,0,5.6,42l12.7,7.3a4.5,4.5,0,0,0,4.5,0L35.5,42a4.5,4.5,0,0,0,2.2-3.9V13.5a4.5,4.5,0,0,0-2.2-3.9L22.8,2.3a4.5,4.5,0,0,0-4.5,0L5.6,9.6a4.5,4.5,0,0,0-2.2,3.9" fill="#a5a5ff"/>
          <path id="패스_694983" data-name="패스 694983" d="M1.9,12.4V37a4.5,4.5,0,0,0,2.2,3.9l12.7,7.3a4.5,4.5,0,0,0,4.5,0L34,40.9A4.5,4.5,0,0,0,36.3,37V12.4A4.5,4.5,0,0,0,34,8.5L21.3,1.2a4.5,4.5,0,0,0-4.5,0L4.2,8.5A4.5,4.5,0,0,0,1.9,12.4Z" fill="none" stroke="#6955ff" stroke-linejoin="round" stroke-width="1"/>
          <g id="그룹_343281" data-name="그룹 343281">
            <g id="그룹_343300" data-name="그룹 343300">
              <path id="패스_694984" data-name="패스 694984" d="M20.238,9.8A8.345,8.345,0,1,1,12,18.255c0-.036,0-.073,0-.109h0a8.345,8.345,0,0,1,8.235-8.235" fill="#fff"/>
              <path id="패스_694985" data-name="패스 694985" d="M12.552,14.636a8.129,8.129,0,0,1,1.537-2.2" fill="none" stroke="#111" stroke-linecap="square" stroke-linejoin="round" stroke-width="1"/>
              <path id="패스_694986" data-name="패스 694986" d="M13.979,7.605s0,3.184,1.976,3.184h.11a8.344,8.344,0,1,1-3.623,3.843" fill="none" stroke="#111" stroke-linecap="round" stroke-linejoin="round" stroke-width="1"/>
              <path id="패스_694987" data-name="패스 694987" d="M16.615,8.154s-.549,1.867.659,2.086" fill="none" stroke="#111" stroke-linecap="round" stroke-linejoin="round" stroke-width="1"/>
              <path id="패스_694988" data-name="패스 694988" d="M20.348,19.024a1.647,1.647,0,0,1-3.184,0" fill="none" stroke="#111" stroke-linecap="square" stroke-miterlimit="10" stroke-width="1"/>
              <line id="선_93127" data-name="선 93127" y2="0.329" transform="translate(21.225 16.059)" fill="none" stroke="#111" stroke-linecap="round" stroke-width="1"/>
              <line id="선_93128" data-name="선 93128" y2="1.427" transform="translate(21.225 14.633)" fill="none" stroke="#111" stroke-width="1"/>
              <line id="선_93129" data-name="선 93129" y2="0.439" transform="translate(16.285 15.95)" fill="none" stroke="#111" stroke-linecap="round" stroke-width="1"/>
              <line id="선_93130" data-name="선 93130" y2="1.318" transform="translate(16.285 14.633)" fill="none" stroke="#111" stroke-width="1"/>
            </g>
            <g id="그룹_343299" data-name="그룹 343299">
              <path id="패스_694989" data-name="패스 694989" d="M29.42,10.356l-2.261,3.131L21.68,10.008l1.826-3.392.87,2.348,2.609-1.218.087,2.957Z" fill="#fff"/>
              <path id="패스_694990" data-name="패스 694990" d="M29.42,10.356l-2.261,3.131L21.68,10.008l1.826-3.392.87,2.348,2.609-1.218.087,2.957Z" fill="none" stroke="#111" stroke-linejoin="round" stroke-width="1"/>
            </g>
          </g>
        </g>
      </g>
    </g>
  </g>
  <g id="플레티넘" style="isolation: isolate">
    <text id="플레티넘-2" data-name="플레티넘" transform="translate(6.702 37)" fill="#111" font-size="7.52" font-family="MoebiusKorea-Bold, Moebius Korea" font-weight="700" letter-spacing="-0.029em" style="isolation: isolate"><tspan x="0" y="0">플레티넘</tspan></text>
  </g>
</svg>
