<svg xmlns="http://www.w3.org/2000/svg" width="24" height="24"><defs><style>.b{fill:#fff}</style></defs><g transform="translate(-1 -1)"><circle cx="12" cy="12" r="12" transform="translate(1 1)" fill="#e30413"/><path class="b" d="M10.908 18.208a.637.637 0 11.027 0h-.027M12.627 8.541a.885.885 0 00-.669.27 3.335 3.335 0 00-.564 2.283c.022 1.329.328 3.94 1.337 5.283a2.3 2.3 0 00.524.517 1.141 1.141 0 00.689.24 1.5 1.5 0 00.27-.026 3.687 3.687 0 001.844-1.7.442.442 0 01.379-.216.435.435 0 01.237.071.459.459 0 01.2.289.473.473 0 01-.057.348 4.42 4.42 0 01-2.411 2.112h-.021a2.413 2.413 0 01-.443.043 2.018 2.018 0 01-1.177-.393 3.194 3.194 0 01-.736-.72c-1.422-1.892-1.52-5.438-1.526-5.836a4.282 4.282 0 01.828-2.954 1.741 1.741 0 011.293-.537h.083a1.743 1.743 0 011.3.537 4.285 4.285 0 01.828 2.954 9.8 9.8 0 01-1.175 4.6.446.446 0 01-.383.225.432.432 0 01-.229-.066.472.472 0 01-.154-.634 8.236 8.236 0 001.048-4.137 3.337 3.337 0 00-.564-2.283.883.883 0 00-.667-.27z"/></g></svg>