<svg xmlns="http://www.w3.org/2000/svg" width="12" height="12"><g stroke="#fff"><g data-name="사각형 211803" fill="none" stroke-width="1.5"><path stroke="none" d="M.5 7H5v4.5H.5z"/><path d="M1.25 7.75h3v3h-3z"/></g><g data-name="사각형 211809" fill="none" stroke-width="1.5"><path stroke="none" d="M.5 1H5v4.5H.5z"/><path d="M1.25 1.75h3v3h-3z"/></g><g data-name="사각형 211810" fill="none" stroke-width="1.5"><path stroke="none" d="M6.5 1H11v4.5H6.5z"/><path d="M7.25 1.75h3v3h-3z"/></g><g data-name="사각형 211804" fill="#fff"><path stroke="none" d="M6.5 7H8v1.5H6.5z"/><path fill="none" d="M7 7.5h.5V8H7z"/></g><g data-name="사각형 211805" transform="translate(9.5 7)" fill="#fff" stroke-width="1.5"><path stroke="none" d="M0 0h1.5v1.5H0z"/><rect x=".75" y=".75" fill="none"/></g><g data-name="사각형 211806" fill="#fff"><path stroke="none" d="M8 8.5h1.5V10H8z"/><path fill="none" d="M8.5 9H9v.5h-.5z"/></g><g data-name="사각형 211807" fill="#fff"><path stroke="none" d="M6.5 10H8v1.5H6.5z"/><path fill="none" d="M7 10.5h.5v.5H7z"/></g><g data-name="사각형 211808" transform="translate(9.5 10)" fill="#fff" stroke-width="1.5"><path stroke="none" d="M0 0h1.5v1.5H0z"/><rect x=".75" y=".75" fill="none"/></g></g></svg>