<svg xmlns="http://www.w3.org/2000/svg" xmlns:xlink="http://www.w3.org/1999/xlink" width="28" height="28" viewBox="0 0 28 28"><defs><style>.a,.f,.g{fill:none;}.b{clip-path:url(#a);}.c{opacity:0;}.d{fill:#f0f;}.e{fill:#ff8d8d;}.f,.g{stroke:#111;stroke-linejoin:round;stroke-width:1.5px;}.g{stroke-linecap:round;}</style><clipPath id="a"><rect class="a" width="28" height="28"/></clipPath></defs><g transform="translate(14 14)"><g class="b" transform="translate(-14 -14)"><g class="b"><g class="c"><g class="b"><rect class="d" width="28" height="28"/></g></g><path class="e" d="M13.2,10.2a2.6,2.6,0,0,1-1.8-.6,6.5,6.5,0,0,1,12.3.1H15.4a6.5,6.5,0,0,1-2.2.4"/><path class="e" d="M17.6,5.7A6,6,0,0,1,23,9.2H15.2a6,6,0,0,1-2,.4A2.5,2.5,0,0,1,12,9.4a6,6,0,0,1,5.5-3.7h0m0-1h0a7,7,0,0,0-6.7,5,2.8,2.8,0,0,0,2.4,1,6.9,6.9,0,0,0,2.3-.5h8.8a7,7,0,0,0-6.8-5.5"/><path class="f" d="M19.5,22.2v4H9.5v-4"/><path class="f" d="M5,11v3.2a9.5,9.5,0,1,0,19,0v-3H15"/><path class="g" d="M12.6,11.2c-3.5,1.3-4.7-.5-4.7-.5a7,7,0,0,1,13.5.5"/><line class="f" x1="5.4" y1="4.3" transform="translate(2.6 4.7)"/><line class="f" x1="4.5" y1="5.2" transform="translate(5.5 1.8)"/></g></g></g></svg>