<svg xmlns="http://www.w3.org/2000/svg" xmlns:xlink="http://www.w3.org/1999/xlink" width="24" height="24" viewBox="0 0 24 24"><defs><style>.a,.e,.f,.g,.h{fill:none;}.b{clip-path:url(#a);}.c{opacity:0;}.d{fill:#ff00f3;}.e,.f,.g,.h{stroke:#111;stroke-width:1.5px;}.e,.g{stroke-linecap:round;}.g,.h{stroke-miterlimit:10;}</style><clipPath id="a"><rect class="a" width="24" height="24"/></clipPath></defs><g transform="translate(12 12)"><g class="b" transform="translate(-12 -12)"><g class="b"><g class="c"><g class="b"><rect class="d" width="24" height="24"/></g></g></g><g class="b"><line class="e" x2="1.4" transform="translate(21.8 2.8)"/><line class="f" x2="7.8" transform="translate(14 2.8)"/><line class="g" x2="1.4" transform="translate(21.8 9.7)"/><line class="h" x2="4.4" transform="translate(17.4 9.7)"/><line class="e" x2="1.4" transform="translate(21.8 15.9)"/><line class="f" x2="4.8" transform="translate(17 15.9)"/><path class="h" d="M17.4,9.4A8.2,8.2,0,1,1,9.2,1.2a8.2,8.2,0,0,1,8.2,8.2Z"/><line class="h" x2="1.7" transform="translate(4 6.8)"/><line class="h" x2="1.7" transform="translate(10.8 6.8)"/><path class="h" d="M11.7,9.5a3.4,3.4,0,0,1-6.8,0"/><path class="f" d="M21.4,22.3A51.8,51.8,0,0,1,4,22"/><path class="e" d="M23,22l-1.6.3"/></g></g></g></svg>