<svg xmlns="http://www.w3.org/2000/svg" xmlns:xlink="http://www.w3.org/1999/xlink" width="45" height="45" viewBox="0 0 45 45">
  <defs>
    <clipPath id="clip-path">
      <rect id="사각형_262213" data-name="사각형 262213" width="32" height="32" fill="none"/>
    </clipPath>
    <clipPath id="clip-path-3">
      <rect id="사각형_262210" data-name="사각형 262210" width="5" height="5" transform="translate(8 13)" fill="none"/>
    </clipPath>
    <clipPath id="clip-path-4">
      <rect id="사각형_262211" data-name="사각형 262211" width="5" height="5" transform="translate(21 13)" fill="none"/>
    </clipPath>
  </defs>
  <g id="그룹_348125" data-name="그룹 348125" transform="translate(-49 -446)">
    <g id="타원_8245" data-name="타원 8245" transform="translate(49 446)" fill="#f9f9f9" stroke="rgba(0,0,0,0.03)" stroke-width="1">
      <circle cx="22.5" cy="22.5" r="22.5" stroke="none"/>
      <circle cx="22.5" cy="22.5" r="22" fill="none"/>
    </g>
    <g id="icon_smile_withneck_32" transform="translate(72 469)">
      <g id="그룹_351772" data-name="그룹 351772" transform="translate(-16 -16)" clip-path="url(#clip-path)">
        <g id="그룹_351771" data-name="그룹 351771" clip-path="url(#clip-path)">
          <path id="패스_702394" data-name="패스 702394" d="M3.5,16.9A10.8,10.8,0,1,0,14.3,6.1h-.1A10.8,10.8,0,0,0,3.5,16.9" fill="#fff"/>
          <path id="패스_702395" data-name="패스 702395" d="M17.7,17.9A2.9,2.9,0,0,0,20.6,15v-.7H19.1V15a1.45,1.45,0,0,1-2.9,0v-.7H14.7V15a2.9,2.9,0,0,0,2.9,2.9" fill="#111"/>
          <rect id="사각형_262208" data-name="사각형 262208" width="1.5" height="2.42" transform="translate(13.3 10)" fill="#111"/>
          <rect id="사각형_262209" data-name="사각형 262209" width="1.5" height="2.42" transform="translate(20 10)" fill="#111"/>
          <path id="패스_702396" data-name="패스 702396" d="M15.9,27.4H16a3.3,3.3,0,0,0-.1-1.4,9.8,9.8,0,0,1-9.3-6.3A10.3,10.3,0,0,1,12.2,6.3a9.6,9.6,0,0,1,7.5,0A9.9,9.9,0,0,1,25,11.9a10.3,10.3,0,0,1,.7,4.7,10.1,10.1,0,0,1-6.1,8.5l.6,1.4a11.6,11.6,0,0,0,7.1-9.7,11.9,11.9,0,0,0-.8-5.4A11.4,11.4,0,0,0,20.2,5a11.1,11.1,0,0,0-8.6,0A11.8,11.8,0,0,0,4.5,16.9a11.9,11.9,0,0,0,.8,3.2,11.3,11.3,0,0,0,10.5,7.3" fill="#111"/>
          <line id="선_91944" data-name="선 91944" x1="1.3" y2="7.1" transform="translate(10.5 26)" fill="none" stroke="#111" stroke-width="1.5"/>
          <line id="선_91945" data-name="선 91945" x2="1.3" y2="7.5" transform="translate(20.5 25)" fill="none" stroke="#111" stroke-width="1.5"/>
          <g id="그룹_351768" data-name="그룹 351768" opacity="0.34" style="isolation: isolate">
            <g id="그룹_351767" data-name="그룹 351767" clip-path="url(#clip-path-3)">
              <path id="패스_702397" data-name="패스 702397" d="M10.5,13A2.5,2.5,0,1,1,8,15.5,2.5,2.5,0,0,1,10.5,13" fill="#ff8484"/>
            </g>
          </g>
          <g id="그룹_351770" data-name="그룹 351770" opacity="0.34" style="isolation: isolate">
            <g id="그룹_351769" data-name="그룹 351769" clip-path="url(#clip-path-4)">
              <path id="패스_702398" data-name="패스 702398" d="M23.5,13A2.5,2.5,0,1,1,21,15.5,2.5,2.5,0,0,1,23.5,13" fill="#ff8484"/>
            </g>
          </g>
        </g>
      </g>
    </g>
  </g>
</svg>
