<svg xmlns="http://www.w3.org/2000/svg" xmlns:xlink="http://www.w3.org/1999/xlink" width="113.919" height="74" viewBox="0 0 113.919 74">
  <defs>
    <clipPath id="clip-path">
      <rect id="사각형_352452" data-name="사각형 352452" width="45" height="45" fill="none"/>
    </clipPath>
    <clipPath id="clip-path-2">
      <rect id="사각형_352449" data-name="사각형 352449" width="50" height="50" fill="none"/>
    </clipPath>
  </defs>
  <g id="그룹_573766" data-name="그룹 573766" transform="translate(-30 -234)">
    <g id="그룹_572875" data-name="그룹 572875" transform="translate(-152 -1759)">
      <text id="up" transform="translate(212 2005)" fill="#111" font-size="13" font-family="MoebiusKorea-Bold, Moebius Korea" font-weight="700" letter-spacing="-0.03em"><tspan x="0" y="0">up</tspan></text>
    </g>
    <g id="그룹_572876" data-name="그룹 572876" transform="translate(-1 -1305)" opacity="0.4" style="mix-blend-mode: luminosity;isolation: isolate">
      <g id="icon_membership_g_fold_50" transform="translate(31 1549)">
        <g id="그룹_476471" data-name="그룹 476471">
          <g id="그룹_476470" data-name="그룹 476470" clip-path="url(#clip-path)">
            <g id="icon_membership_gold_40-2" data-name="icon membership gold 40-2" transform="translate(4.256 4.48)">
              <path id="패스_861312" data-name="패스 861312" d="M4.75,5V30.088a4.481,4.481,0,0,0,2.24,3.92L19.758,41.4a4.481,4.481,0,0,0,4.48,0l12.768-7.392a4.481,4.481,0,0,0,2.24-3.92V5Z" transform="translate(-4.75 -5)" fill="#fff"/>
              <path id="패스_861313" data-name="패스 861313" d="M6.375,7.633v22.96A4.48,4.48,0,0,0,8.615,34.4l12.768,7.28a4.481,4.481,0,0,0,4.48,0l12.88-7.28a4.48,4.48,0,0,0,2.24-3.808V7.633a1.008,1.008,0,0,0-1.008-1.008H7.383A1.008,1.008,0,0,0,6.375,7.633Z" transform="translate(-4.919 -5.169)" fill="#c5c9d3"/>
              <path id="패스_861314" data-name="패스 861314" d="M4.75,5V30.088a4.481,4.481,0,0,0,2.24,3.92L19.758,41.4a4.481,4.481,0,0,0,4.48,0l12.768-7.392a4.481,4.481,0,0,0,2.24-3.92V5Z" transform="translate(-4.75 -5)" fill="none" stroke="#717888" stroke-linejoin="round" stroke-width="1.25"/>
              <path id="패스_861315" data-name="패스 861315" d="M24.262,15.5a8.512,8.512,0,1,1-8.512,8.624h0a8.512,8.512,0,0,1,8.512-8.512" transform="translate(-5.894 -6.092)" fill="#fff"/>
              <path id="패스_861316" data-name="패스 861316" d="M16.375,20.74a8.3,8.3,0,0,1,1.568-2.24" transform="translate(-5.959 -6.404)" fill="none" stroke="#111" stroke-linecap="square" stroke-linejoin="round" stroke-width="1.25"/>
              <path id="패스_861317" data-name="패스 861317" d="M17.851,13s0,3.36,2.016,3.36h.111a8.512,8.512,0,1,1-3.7,3.92" transform="translate(-5.867 -5.832)" fill="none" stroke="#111" stroke-linecap="round" stroke-linejoin="round" stroke-width="1.25"/>
              <path id="패스_861318" data-name="패스 861318" d="M21.11,13.625s-.56,1.9.672,2.128" transform="translate(-6.438 -5.897)" fill="none" stroke="#111" stroke-linecap="round" stroke-linejoin="round" stroke-width="1.25"/>
              <path id="패스_861319" data-name="패스 861319" d="M25,26.125a1.68,1.68,0,0,1-3.248,0" transform="translate(-6.518 -7.197)" fill="none" stroke="#111" stroke-linecap="square" stroke-miterlimit="10" stroke-width="1.25"/>
              <line id="선_131687" data-name="선 131687" y2="0.336" transform="translate(19.377 15.792)" fill="none" stroke="#111" stroke-linecap="round" stroke-width="1.25"/>
              <line id="선_131688" data-name="선 131688" y2="1.456" transform="translate(19.377 14.336)" fill="none" stroke="#111" stroke-width="1.25"/>
              <line id="선_131689" data-name="선 131689" y2="0.448" transform="translate(14.336 15.68)" fill="none" stroke="#111" stroke-linecap="round" stroke-width="1.25"/>
              <line id="선_131690" data-name="선 131690" y2="1.344" transform="translate(14.336 14.336)" fill="none" stroke="#111" stroke-width="1.25"/>
              <path id="패스_861320" data-name="패스 861320" d="M30.912,14.2,28,13.417l1.792,2.688-1.68,2.8,3.024-1.232,2.128,2.576L33.152,17l2.8-1.456-2.8-.784L32.7,11.625Z" transform="translate(-7.167 -5.689)" fill="#fff"/>
              <path id="패스_861321" data-name="패스 861321" d="M30.912,14.2,28,13.417l1.792,2.688-1.68,2.8,3.024-1.232,2.128,2.576L33.152,17l2.8-1.456-2.8-.784L32.7,11.625Z" transform="translate(-7.167 -5.689)" fill="none" stroke="#111" stroke-linejoin="round" stroke-width="1.25"/>
            </g>
          </g>
        </g>
      </g>
      <text id="골드" transform="translate(53 1610)" fill="#111" font-size="11" font-family="MoebiusKorea-Regular, Moebius Korea" letter-spacing="-0.03em" text-decoration="line-through"><tspan x="-9.735" y="0">골드</tspan></text>
    </g>
    <g id="그룹_572874" data-name="그룹 572874" transform="translate(-254.898 -630.662)">
      <path id="패스_1409297" data-name="패스 1409297" d="M355.148,881.662a39.818,39.818,0,0,1,56.311,0" transform="translate(-44.562)" fill="none" stroke="#111" stroke-linecap="round" stroke-linejoin="round" stroke-width="1.3" stroke-dasharray="5 20 200"/>
    </g>
    <g id="그룹_573765" data-name="그룹 573765">
      <text id="플래티넘" transform="translate(111 305)" fill="#111" font-size="11" font-family="MoebiusKorea-Regular, Moebius Korea" letter-spacing="-0.03em"><tspan x="-19.305" y="0">플래티넘</tspan></text>
      <g id="icon_membership_p_fold_50" transform="translate(86 242)">
        <g id="그룹_476468" data-name="그룹 476468">
          <g id="그룹_476467" data-name="그룹 476467" clip-path="url(#clip-path-2)">
            <g id="icon_membership_platinum_40-2" data-name="icon membership platinum 40-2">
              <path id="패스_861276" data-name="패스 861276" d="M27.625,4A4.373,4.373,0,0,0,23.5,2.625C21,3.25,6.5,11.125,5,13.5s-.248,22.375-.248,22.375L7.5,38l2.25-1L11,15.75Z" fill="#fff"/>
              <path id="패스_861277" data-name="패스 861277" d="M5.875,17.5V34.375a5.126,5.126,0,0,0,2.625,4.5l14.625,8.5a5.127,5.127,0,0,0,5.125,0l14.625-8.5a5.126,5.126,0,0,0,2.625-4.5V17.5A5.126,5.126,0,0,0,42.875,13L28.25,4.625a5.127,5.127,0,0,0-5.125,0L8.5,13a5.126,5.126,0,0,0-2.625,4.5" fill="#a5a5ff"/>
              <path id="패스_861278" data-name="패스 861278" d="M4.125,16.25V33.125a5.126,5.126,0,0,0,2.625,4.5l14.625,8.5a5.127,5.127,0,0,0,5.125,0l14.625-8.5a5.126,5.126,0,0,0,2.625-4.5V16.25a5.126,5.126,0,0,0-2.625-4.5L26.5,3.375a5.127,5.127,0,0,0-5.125,0L6.75,11.75A5.126,5.126,0,0,0,4.125,16.25Z" fill="none" stroke="#6955ff" stroke-linejoin="round" stroke-width="1.25"/>
              <path id="패스_861279" data-name="패스 861279" d="M24.625,15.625a9.5,9.5,0,1,1-9.5,9.625h0a9.5,9.5,0,0,1,9.5-9.5" fill="#fff"/>
              <path id="패스_861280" data-name="패스 861280" d="M15.75,21.125a9.258,9.258,0,0,1,1.75-2.5" fill="none" stroke="#111" stroke-linecap="square" stroke-linejoin="round" stroke-width="1.25"/>
              <path id="패스_861281" data-name="패스 861281" d="M17.375,13.125s0,3.75,2.25,3.75h.124a9.5,9.5,0,1,1-4.125,4.375" fill="none" stroke="#111" stroke-linecap="round" stroke-linejoin="round" stroke-width="1.25"/>
              <path id="패스_861282" data-name="패스 861282" d="M20.5,13.875s-.625,2.125.75,2.375" fill="none" stroke="#111" stroke-linecap="round" stroke-linejoin="round" stroke-width="1.25"/>
              <path id="패스_861283" data-name="패스 861283" d="M24.75,26.25a1.875,1.875,0,0,1-3.625,0" fill="none" stroke="#111" stroke-linecap="square" stroke-miterlimit="10" stroke-width="1.25"/>
              <line id="선_131671" data-name="선 131671" y2="0.375" transform="translate(25.75 22.875)" fill="none" stroke="#111" stroke-linecap="round" stroke-width="1.25"/>
              <line id="선_131672" data-name="선 131672" y2="1.625" transform="translate(25.75 21.125)" fill="none" stroke="#111" stroke-width="1.25"/>
              <line id="선_131673" data-name="선 131673" y2="0.625" transform="translate(20.125 22.625)" fill="none" stroke="#111" stroke-linecap="round" stroke-width="1.25"/>
              <line id="선_131674" data-name="선 131674" y2="1.5" transform="translate(20.125 21.125)" fill="none" stroke="#111" stroke-width="1.25"/>
              <path id="패스_861284" data-name="패스 861284" d="M36.5,16.25l-3,4.125L26.25,15.75l2.5-4.375,1,3,3.5-1.5.25,3.875Z" fill="#fff"/>
              <path id="패스_861285" data-name="패스 861285" d="M36.5,16.25l-3,4.125L26.25,15.75l2.5-4.375,1,3,3.5-1.5.25,3.875Z" fill="none" stroke="#111" stroke-linejoin="round" stroke-width="1.25"/>
            </g>
          </g>
        </g>
      </g>
      <g id="그룹_572873" data-name="그룹 572873" transform="translate(125 235)">
        <line id="선_143169" data-name="선 143169" y1="3.844" x2="3.844" transform="translate(9.747 4.409)" fill="none" stroke="#111" stroke-linecap="round" stroke-linejoin="round" stroke-width="1.5"/>
        <line id="선_143170" data-name="선 143170" y1="0.703" x2="2.625" transform="translate(15.375 17.297)" fill="none" stroke="#111" stroke-linecap="round" stroke-linejoin="round" stroke-width="1.5"/>
        <line id="선_143171" data-name="선 143171" y1="2.625" x2="0.703" transform="translate(0)" fill="none" stroke="#111" stroke-linecap="round" stroke-linejoin="round" stroke-width="1.5"/>
      </g>
    </g>
  </g>
</svg>
