<svg xmlns="http://www.w3.org/2000/svg" width="24" height="24"><defs><style>.b{fill:#fff}</style></defs><g transform="translate(-135 -571)"><circle cx="12" cy="12" r="12" transform="translate(135 571)" fill="#008375"/><path class="b" d="M149.562 583.925a2.216 2.216 0 00-.159-.541 2.659 2.659 0 00-1.071-1.24 2.407 2.407 0 00-2.48.015 2.182 2.182 0 00-.818.875 2.542 2.542 0 00-.154.384 2.69 2.69 0 00.17 2.094 1.064 1.064 0 00.5.437.726.726 0 00.649-.051.689.689 0 00.243-.726 1.9 1.9 0 01.023-1.013.8.8 0 01.18-.289.674.674 0 01.171-.117.72.72 0 01.428-.07.823.823 0 01.576.47 1.9 1.9 0 01.156.75 11.3 11.3 0 01-.5 3.356 12.44 12.44 0 01-.091.331c-.025.086-.068.194-.014.277a.212.212 0 00.1.076c.166.067.3-.035.413-.147a5.982 5.982 0 001.364-2.388 7.594 7.594 0 00.262-1 4.365 4.365 0 00.05-1.483M154.263 578.747a.285.285 0 00-.309-.273 1.494 1.494 0 00-.462.146 18.686 18.686 0 01-9.191.868c-.521-.076-1.049-.18-1.573-.262-.327-.051-.652-.125-.982-.15a1.185 1.185 0 00-.86.164.909.909 0 00-.109 1.076 2.429 2.429 0 00.935.9 2.269 2.269 0 001.226.418q1.744-.11 3.48-.337a23.288 23.288 0 005.892-1.263 7.436 7.436 0 001.723-.966c.094-.072.229-.19.229-.326"/><path class="b" d="M145.978 577.757a1.137 1.137 0 002.273 0 .635.635 0 00-.062-.272c-.1-.207-.207-.307-.2-.554.014-.334-.414-.339-.644-.339a1.671 1.671 0 00-.745.149 1.153 1.153 0 00-.446.4 1.131 1.131 0 00-.181.588v.026"/></g></svg>