<svg xmlns="http://www.w3.org/2000/svg" width="38" height="38"><defs><clipPath id="a"><path data-name="사각형 127039" fill="none" d="M0 0h24v24H0z"/></clipPath></defs><g data-name="그룹 134216"><g data-name="그룹 124234"><g data-name="타원 4810" fill="#6257ff" stroke="#493cff"><circle cx="19" cy="19" r="19" stroke="none"/><circle cx="19" cy="19" r="18.5" fill="none"/></g></g><g data-name="그룹 141873" transform="translate(7 7)" clip-path="url(#a)"><g data-name="그룹 141872" clip-path="url(#a)" fill="none" stroke="#fff" stroke-linecap="round" stroke-width="1.286"><path data-name="패스 313009" d="M4.457 22.715c0-.771 1.029-.686 1.029-1.457s-.943-.857-.857-1.543 1.028-.858 1.028-1.629" stroke-linejoin="round"/><path data-name="패스 313010" d="M9.085 15.943l-1.2 3.857-3.771-4.028 4.029-.943" stroke-linejoin="round"/><path data-name="패스 313011" d="M12.685 3.514A1.457 1.457 0 0111.572 1.8l4.114.771a7.629 7.629 0 01-2.143 14.914 5.829 5.829 0 01-1.8-.343A7.629 7.629 0 0110.115 3.6" stroke-linejoin="round"/><path data-name="패스 313012" d="M14.486 11.057l-.94-1.029h-1.632a.257.257 0 01-.171-.343l.686-1.286a.257.257 0 000-.171L12 6.771a.257.257 0 01.257-.257l1.371.257h.171l1.115-.854a.257.257 0 01.343.171l.171 1.457v.172l1.2.857a.257.257 0 010 .343l-1.2.514" stroke-miterlimit="10"/></g></g></g></svg>