<svg xmlns="http://www.w3.org/2000/svg" xmlns:xlink="http://www.w3.org/1999/xlink" width="28" height="28" viewBox="0 0 28 28">
  <defs>
    <clipPath id="clip-path">
      <rect id="사각형_340403" data-name="사각형 340403" width="16" height="16" fill="none"/>
    </clipPath>
    <clipPath id="clip-path-3">
      <rect id="사각형_340399" data-name="사각형 340399" width="15.5" height="15.5" transform="translate(0.1 0.3)" fill="none"/>
    </clipPath>
  </defs>
  <g id="그룹_484420" data-name="그룹 484420" transform="translate(-20 -436.996)">
    <g id="icon_service_carwash_g_28" transform="translate(20 436.996)" fill="#f9f9f9" stroke="#e4e4e4" stroke-width="1">
      <circle cx="14" cy="14" r="14" stroke="none"/>
      <circle cx="14" cy="14" r="13.5" fill="none"/>
    </g>
    <g id="icon_detailing_16" transform="translate(34 450.996)">
      <g id="그룹_471549" data-name="그룹 471549" transform="translate(-8 -8)" clip-path="url(#clip-path)">
        <g id="그룹_471548" data-name="그룹 471548" clip-path="url(#clip-path)">
          <g id="그룹_471545" data-name="그룹 471545" opacity="0">
            <g id="그룹_471544" data-name="그룹 471544" clip-path="url(#clip-path-3)">
              <rect id="사각형_340398" data-name="사각형 340398" width="15.5" height="15.5" transform="translate(0.1 0.3)" fill="#f0f"/>
            </g>
          </g>
          <g id="그룹_471547" data-name="그룹 471547" opacity="0">
            <g id="그룹_471546" data-name="그룹 471546" clip-path="url(#clip-path-3)">
              <rect id="사각형_340400" data-name="사각형 340400" width="15.5" height="15.5" transform="translate(0.1 0.3)" fill="#f0f"/>
            </g>
          </g>
          <path id="패스_868393" data-name="패스 868393" d="M15.2,11.4a2.4,2.4,0,0,1-4.3,1.5.4.4,0,0,0-.5-.1,6.2,6.2,0,0,1-4.1,1A6.2,6.2,0,1,1,13.1,9a2.4,2.4,0,0,1,2.1,2.3Z" fill="none" stroke="#111" stroke-width="1.3"/>
          <path id="패스_868394" data-name="패스 868394" d="M10.5,10.5a2.4,2.4,0,0,1,2.3-1.6H13" fill="none" stroke="#111" stroke-width="1.3"/>
          <path id="패스_868395" data-name="패스 868395" d="M4.3,5.3A2.5,2.5,0,0,1,6.4,4.1" fill="none" stroke="#111" stroke-linecap="round" stroke-width="1"/>
          <line id="선_133056" data-name="선 133056" y1="0.8" x2="0.5" transform="translate(3.8 5.3)" fill="none" stroke="#111" stroke-width="1"/>
        </g>
      </g>
    </g>
  </g>
</svg>
