<svg xmlns="http://www.w3.org/2000/svg" xmlns:xlink="http://www.w3.org/1999/xlink" width="38" height="38" viewBox="0 0 38 38">
  <defs>
    <clipPath id="clip-path">
      <rect id="사각형_127028" data-name="사각형 127028" width="24" height="24" fill="none"/>
    </clipPath>
  </defs>
  <g id="그룹_134216" data-name="그룹 134216" transform="translate(-90 -15)">
    <g id="그룹_124234" data-name="그룹 124234" transform="translate(90 15)">
      <g id="타원_4810" data-name="타원 4810" fill="#ff2d5d" stroke="#ef2242" stroke-width="1">
        <circle cx="19" cy="19" r="19" stroke="none"/>
        <circle cx="19" cy="19" r="18.5" fill="none"/>
      </g>
      <rect id="사각형_106165" data-name="사각형 106165" width="8" height="8" transform="translate(15 15)" fill="red" opacity="0"/>
    </g>
    <g id="알림함_쿠폰_28x28" transform="translate(109 34)">
      <g id="그룹_141858" data-name="그룹 141858" transform="translate(-12 -12)" clip-path="url(#clip-path)">
        <g id="그룹_141856" data-name="그룹 141856" clip-path="url(#clip-path)">
          <g id="그룹_141855" data-name="그룹 141855" opacity="0">
            <g id="그룹_141854" data-name="그룹 141854" clip-path="url(#clip-path)">
              <rect id="사각형_127024" data-name="사각형 127024" width="24" height="24" fill="#f0f"/>
            </g>
          </g>
        </g>
        <line id="선_43128" data-name="선 43128" x1="0.6" y1="0.6" transform="translate(7.886 15.6)" fill="none" stroke="#fff" stroke-linecap="round" stroke-miterlimit="10" stroke-width="1.286"/>
        <line id="선_43129" data-name="선 43129" x1="0.6" y1="0.514" transform="translate(8.486 16.2)" fill="none" stroke="#fff" stroke-linecap="square" stroke-miterlimit="10" stroke-width="1.286"/>
        <g id="그룹_141857" data-name="그룹 141857" clip-path="url(#clip-path)">
          <path id="패스_312982" data-name="패스 312982" d="M13.029,4.2,2.4,14.743l6.171,6.171h0l.6.6s1.714,1.714,4.371-1.029l8.4-8.4L20.657,4.971,13.629,3.6l-.6.6" transform="translate(-0.343 -0.514)" fill="none" stroke="#fff" stroke-linecap="round" stroke-linejoin="round" stroke-width="1.286"/>
          <path id="패스_312983" data-name="패스 312983" d="M17.9,8.986A1.114,1.114,0,1,1,16.786,10.1,1.114,1.114,0,0,1,17.9,8.986m0-1.286a2.4,2.4,0,1,0,2.4,2.4,2.4,2.4,0,0,0-2.4-2.4" transform="translate(-2.214 -1.1)" fill="#fff"/>
        </g>
      </g>
    </g>
  </g>
</svg>
