<svg xmlns="http://www.w3.org/2000/svg" xmlns:xlink="http://www.w3.org/1999/xlink" width="20" height="20" viewBox="0 0 20 20">
  <defs>
    <clipPath id="clip-path">
      <rect id="사각형_299997" data-name="사각형 299997" width="20" height="20" fill="none"/>
    </clipPath>
  </defs>
  <g id="icon_repeat_bg_20" transform="translate(10 10) rotate(90)">
    <g id="그룹_390485" data-name="그룹 390485" transform="translate(-10 -10)" clip-path="url(#clip-path)">
      <g id="그룹_390479" data-name="그룹 390479" clip-path="url(#clip-path)">
        <g id="그룹_390478" data-name="그룹 390478" opacity="0">
          <g id="그룹_390477" data-name="그룹 390477" clip-path="url(#clip-path)">
            <rect id="사각형_299989" data-name="사각형 299989" width="20" height="20" fill="#f0f"/>
          </g>
        </g>
      </g>
      <g id="그룹_390484" data-name="그룹 390484" clip-path="url(#clip-path)">
        <path id="패스_781678" data-name="패스 781678" d="M19.1,10.8a7.9,7.9,0,1,1-7.9-7.9,7.9,7.9,0,0,1,7.9,7.9" fill="#fff"/>
        <g id="그룹_390481" data-name="그룹 390481" opacity="0">
          <g id="그룹_390480" data-name="그룹 390480" clip-path="url(#clip-path)">
            <rect id="사각형_299992" data-name="사각형 299992" width="20" height="20" fill="#f0f"/>
          </g>
        </g>
        <g id="그룹_390483" data-name="그룹 390483" opacity="0">
          <g id="그룹_390482" data-name="그룹 390482" clip-path="url(#clip-path)">
            <rect id="사각형_299994" data-name="사각형 299994" width="20" height="20" fill="#f0f"/>
          </g>
        </g>
        <path id="패스_781679" data-name="패스 781679" d="M13.4,3.4A7.2,7.2,0,0,1,8.5,16.8" fill="none" stroke="#111" stroke-width="1.5"/>
        <path id="패스_781680" data-name="패스 781680" d="M4.5,15.2A7.1,7.1,0,0,1,9.4,2.8h.4" fill="none" stroke="#111" stroke-width="1.5"/>
        <path id="패스_781681" data-name="패스 781681" d="M9.1,3.7l.7-.8L7.6.8" fill="none" stroke="#111" stroke-linecap="round" stroke-miterlimit="10" stroke-width="1.5"/>
        <line id="선_114706" data-name="선 114706" y1="1.2" x2="1.3" transform="translate(7.8 3.7)" fill="none" stroke="#111" stroke-linecap="square" stroke-miterlimit="10" stroke-width="1.5"/>
        <path id="패스_781682" data-name="패스 781682" d="M9.2,17.6l-.7-.7,2.2-2.1" fill="none" stroke="#111" stroke-linecap="round" stroke-miterlimit="10" stroke-width="1.5"/>
        <line id="선_114707" data-name="선 114707" x1="1.3" y1="1.3" transform="translate(9.2 17.6)" fill="none" stroke="#111" stroke-linecap="square" stroke-miterlimit="10" stroke-width="1.5"/>
      </g>
    </g>
  </g>
</svg>
