<svg xmlns="http://www.w3.org/2000/svg" width="28" height="28"><defs><clipPath id="a"><path fill="none" d="M0 0h28v28H0z"/></clipPath></defs><g clip-path="url(#a)"><path d="M25.7 10.4v14.1a.8.8 0 01-.8.8H6.3a.8.8 0 01-.8-.8v-3.7a3.4 3.4 0 100-6.8v-3.6a.8.8 0 01.8-.8h18.6a.8.8 0 01.8.8" fill="#4cccd9"/><path d="M7.6 5.6l2.1-2.3a12.9 12.9 0 006.9 4.5" stroke-width="1.5" stroke-linecap="round" stroke="#2c9fac" stroke-linejoin="round" fill="none"/><path d="M22.8 7.8v14.8H3.3v-4.2a3.2 3.2 0 100-6.4V7.8z" stroke-width="1.5" stroke="#2c9fac" stroke-linejoin="round" fill="none"/><path stroke="#196e72" stroke-dasharray="2.3 1.5" stroke-width="1.5" fill="none" d="M17.7 23.3V9.6"/></g></svg>