<svg xmlns="http://www.w3.org/2000/svg" width="20" height="20"><defs><clipPath id="a"><path transform="translate(20 84)" fill="#d5d5d5" d="M0 0h20v20H0z"/></clipPath><clipPath id="b"><path fill="none" d="M0 0h20v20H0z"/></clipPath><style>.h,.i,.j{fill:none}.d{clip-path:url(#b)}.h,.i,.j{stroke:#111;stroke-width:1.5px}.h{stroke-linejoin:round}.h,.i{stroke-linecap:round}.i,.j{stroke-miterlimit:10}</style></defs><g transform="translate(-20 -84)" clip-path="url(#a)"><g class="d"><g class="d"><path d="M28.2 102.4v-4.1h3.6v4.1" stroke-linejoin="round" stroke="#111" stroke-width="1.5" fill="none"/><path class="h" d="M37.3 92.7v10.2H25.2a2.5 2.5 0 01-2.5-2.5v-7.7M30.5 92.4h-2.4M25.2 92.4h-2.6a2.5 2.5 0 01-1.1-2.1v-4.4a.5.5 0 01.5-.5h15.9a.5.5 0 01.5.5v4.4a2.5 2.5 0 01-1.1 2.1h-4.4"/><path class="i" d="M27.5 92.9v1.4"/><path class="j" d="M27.5 90.8v2.1"/><path class="i" d="M32.9 92.8v1.5"/><path class="j" d="M32.9 90.8v2"/></g></g></g></svg>