<svg xmlns="http://www.w3.org/2000/svg" xmlns:xlink="http://www.w3.org/1999/xlink" width="100" height="100" viewBox="0 0 100 100">
  <defs>
    <clipPath id="clip-path">
      <rect id="사각형_282469" data-name="사각형 282469" width="100" height="100" fill="none"/>
    </clipPath>
    <clipPath id="clip-path-4">
      <rect id="사각형_282467" data-name="사각형 282467" width="24.714" height="10.271" fill="none"/>
    </clipPath>
  </defs>
  <g id="icon_blind_null_70" transform="translate(50 50)">
    <g id="icon_blind_null_70-2" data-name="icon_blind_null_70" transform="translate(-50 -50)" clip-path="url(#clip-path)">
      <g id="그룹_370684" data-name="그룹 370684" clip-path="url(#clip-path)">
        <path id="패스_748228" data-name="패스 748228" d="M50,0A50,50,0,1,1,0,50,50,50,0,0,1,50,0" fill="#f9f9f9"/>
        <path id="패스_748229" data-name="패스 748229" d="M50,100a50,50,0,1,1,50-50,50,50,0,0,1-50,50M50,1A49,49,0,1,0,99,50,49,49,0,0,0,50,1" fill="#f0f0f0"/>
      </g>
      <g id="그룹_370687" data-name="그룹 370687" clip-path="url(#clip-path)">
        <path id="패스_748230" data-name="패스 748230" d="M41.6,13.4c-12.143,0-22,9.286-22,20.714s9.857,20.571,22,20.571,22-9.286,22-20.571S53.743,13.4,41.6,13.4" transform="translate(8.4 5.743)" fill="#fff"/>
        <path id="패스_748231" data-name="패스 748231" d="M41.6,13.4c-12.143,0-22,9.286-22,20.714s9.857,20.571,22,20.571,22-9.286,22-20.571S53.743,13.4,41.6,13.4Z" transform="translate(8.4 5.743)" fill="none" stroke="#111" stroke-miterlimit="10" stroke-width="1.143"/>
        <path id="패스_748232" data-name="패스 748232" d="M41.6,13.4c-12.143,0-22,9.286-22,20.714s9.857,20.571,22,20.571,22-9.286,22-20.571S53.743,13.4,41.6,13.4" transform="translate(8.4 5.743)" fill="#fff"/>
        <path id="패스_748233" data-name="패스 748233" d="M41.6,13.4c-12.143,0-22,9.286-22,20.714s9.857,20.571,22,20.571,22-9.286,22-20.571S53.743,13.4,41.6,13.4Z" transform="translate(8.4 5.743)" fill="none" stroke="#111" stroke-miterlimit="10" stroke-width="1.143"/>
        <path id="패스_748234" data-name="패스 748234" d="M40.657,53.957C30.229,53.957,21.8,46.1,21.8,36.529S30.229,19.1,40.657,19.1s18.857,7.857,18.857,17.429S51.086,53.957,40.657,53.957" transform="translate(9.343 8.186)" fill="#fff"/>
        <path id="패스_748235" data-name="패스 748235" d="M41.6,23.229c8.571,0,15.571,6.429,15.571,14.286s-7,14.143-15.571,14.143S26.029,45.229,26.029,37.514s7-14.286,15.571-14.286m0-6.429c-12.143,0-22,9.286-22,20.714s9.857,20.571,22,20.571,22-9.286,22-20.571S53.743,16.8,41.6,16.8" transform="translate(8.4 7.2)" fill="#ff0037"/>
        <line id="선_104728" data-name="선 104728" x2="33.429" y2="23.143" transform="translate(33.286 33.143)" fill="#111"/>
        <line id="선_104729" data-name="선 104729" x2="33.429" y2="23.143" transform="translate(33.286 33.143)" fill="none" stroke="#ff0037" stroke-miterlimit="10" stroke-width="6.429"/>
        <path id="패스_748236" data-name="패스 748236" d="M41.6,16.8c-12.143,0-22,9.286-22,20.714s9.857,20.571,22,20.571,22-9.286,22-20.571S53.743,16.8,41.6,16.8Z" transform="translate(8.4 7.2)" fill="none" stroke="#111" stroke-miterlimit="10" stroke-width="1.143"/>
        <path id="패스_748237" data-name="패스 748237" d="M41.6,16.8c-12.143,0-22,9.286-22,20.714s9.857,20.571,22,20.571,22-9.286,22-20.571S53.743,16.8,41.6,16.8Z" transform="translate(8.4 7.2)" fill="none" stroke="#111" stroke-miterlimit="10" stroke-width="1.143"/>
        <g id="그룹_370686" data-name="그룹 370686" transform="translate(37.571 70.143)" opacity="0.12">
          <g id="그룹_370685" data-name="그룹 370685" clip-path="url(#clip-path-4)">
            <path id="패스_748238" data-name="패스 748238" d="M51.157,54.243c0,2.857-5.571,5.143-12.429,5.143S26.3,57.1,26.3,54.243,31.871,49.1,38.729,49.1s12.429,2.286,12.429,5.143" transform="translate(-26.3 -49.1)"/>
          </g>
        </g>
        <line id="선_104730" data-name="선 104730" y2="6" transform="translate(72 39.143)" fill="none" stroke="#111" stroke-miterlimit="10" stroke-width="1.143"/>
        <line id="선_104731" data-name="선 104731" y2="6" transform="translate(28 39.143)" fill="none" stroke="#111" stroke-miterlimit="10" stroke-width="1.143"/>
      </g>
    </g>
  </g>
</svg>
