<svg xmlns="http://www.w3.org/2000/svg" width="24" height="24"><g transform="translate(-232 -292)"><circle cx="12" cy="12" r="12" transform="translate(232 292)" fill="#eee"/><path d="M251.924 304.468a.274.274 0 00.059-.16v-.8h-.706v.3h.165v.35a.159.159 0 01-.177.167s-.169 0-.169-.16v-1.068c0-.16.169-.16.169-.16a.159.159 0 01.177.167v.123h.541v-.271c0-.183-.228-.311-.228-.311a.888.888 0 00-.372-.088h-.275a.641.641 0 00-.376.12.37.37 0 00-.173.295v1.315a.371.371 0 00.173.295.642.642 0 00.376.12h.261a31.872 31.872 0 01-6.854 1.816c-5.884.939-10.884.417-11.169-1.166-.151-.838 1.051-1.806 3.088-2.67a.372.372 0 00-.168.291v.295a.448.448 0 00.186.362c.055.036.494.263.494.263a.3.3 0 01.207.211.176.176 0 01-.186.2.184.184 0 01-.178-.2v-.131h-.579v.143a.5.5 0 00.194.447 1.254 1.254 0 00.6.135 1.042 1.042 0 00.549-.159.426.426 0 00.177-.3v-.295a.484.484 0 00-.279-.414l-.486-.239c-.182-.068-.161-.195-.161-.195 0-.16.169-.16.169-.16a.159.159 0 01.177.167v.123h.541v-.271c0-.183-.228-.311-.228-.311a.889.889 0 00-.372-.088h-.275a.661.661 0 00-.119.015 32.046 32.046 0 016.789-1.789c5.884-.939 10.885-.417 11.169 1.167.141.788-.912 1.69-2.731 2.513zm-6.9-1.507c0-.183-.228-.311-.228-.311a.889.889 0 00-.372-.088h-.271a.64.64 0 00-.376.12.37.37 0 00-.173.295v.295a.448.448 0 00.186.362c.055.036.494.263.494.263a.3.3 0 01.207.211.176.176 0 01-.186.2.184.184 0 01-.177-.2v-.131h-.579v.143a.5.5 0 00.194.447 1.253 1.253 0 00.6.135 1.042 1.042 0 00.549-.159.426.426 0 00.178-.3v-.295a.484.484 0 00-.279-.414l-.486-.239c-.182-.068-.161-.195-.161-.195 0-.16.169-.16.169-.16a.159.159 0 01.177.167v.123h.541v-.271zm-5.456-.347h-.93l-.355 1.976h.58l.245-1.554.245 1.554h.583l-.363-1.976zm1.547 1.976v-1.49l.338 1.49h.575l.338-1.482v1.482c-.034.008.524 0 .524 0v-1.976c0 .008-.888 0-.888 0l-.262 1.123-.262-1.123h-.887v1.976zm8.672-1.976h-.524v1.2l-.583-1.2h-.668v1.976h.524v-1.179l.575 1.179h.676m-3.457-.454v-1.522h-.6v1.506s-.034.582.752.582c.82 0 .769-.582.769-.582v-1.506h-.6v1.522s0 .176-.161.176a.161.161 0 01-.161-.176z" fill="#003189"/></g></svg>