<svg xmlns="http://www.w3.org/2000/svg" width="100" height="100"><defs><clipPath id="clip-path"><path id="사각형_59828" data-name="사각형 59828" transform="translate(138 80)" fill="#d5d5d5" d="M0 0h100v100H0z"/></clipPath><clipPath id="clip-path-2"><path id="사각형_250573" data-name="사각형 250573" class="cls-2" d="M0 0h100v100H0z"/></clipPath><clipPath id="clip-path-5"><path id="사각형_250569" data-name="사각형 250569" class="cls-2" d="M0 0h3413.125v3413.125H0z"/></clipPath><clipPath id="clip-path-6"><path id="사각형_250570" data-name="사각형 250570" class="cls-2" d="M0 0h10.104v5.412H0z"/></clipPath><style>.cls-17,.cls-2{fill:none}.cls-5{clip-path:url(#clip-path-2)}.cls-10{fill:#222}.cls-11{fill:#e2e2e2}.cls-17{stroke:#222;stroke-linecap:round;stroke-miterlimit:10}.cls-13{fill:#fff}.cls-17{stroke-width:.833px}</style></defs><g id="마스크_그룹_267" data-name="마스크 그룹 267" transform="translate(-138 -80)" clip-path="url(#clip-path)"><g id="null_100x100" transform="translate(188 130)"><g id="그룹_331614" data-name="그룹 331614" transform="translate(-50 -50)" style="isolation:isolate"><g id="Layer_1" data-name="Layer 1"><g id="그룹_331613" data-name="그룹 331613" class="cls-5"><g id="그룹_331606" data-name="그룹 331606" class="cls-5"><path id="패스_666657" data-name="패스 666657" d="M50 0A50 50 0 110 50 50.013 50.013 0 0150 0" fill="#f9f9f9"/><path id="패스_666658" data-name="패스 666658" d="M50 100a50 50 0 1150-50 50.066 50.066 0 01-50 50m0-99a49 49 0 1049 49A49.053 49.053 0 0050 1" fill="#f0f0f0"/></g><g id="그룹_331611" data-name="그룹 331611" class="cls-5"><g id="그룹_331608" data-name="그룹 331608" transform="translate(-1646.167 -1640.604)" opacity=".15"><g id="그룹_331607" data-name="그룹 331607" clip-path="url(#clip-path-5)"><path id="패스_666659" data-name="패스 666659" class="cls-10" d="M163.471 233.683v7.708c.042 1.542-1.083 3.167-3.271 4.437l-15.229 8.792a1.438 1.438 0 01-1.438 0l-7.458-4.313-14.042-8.1-.062.042-7.417 4.333c-1.521.875-2.437 1.958-2.437 2.9s.938 2.063 2.479 2.958c4.375 2.521 11.729 2.542 16.063.042l3.9-2.292a1.508 1.508 0 011.479.167 4.61 4.61 0 012.1 3.625 1.436 1.436 0 01-.562 1.313h-.042l-3.9 2.271A22.249 22.249 0 01122.7 260.2a22.562 22.562 0 01-11.042-2.687c-3.458-2-5.458-4.937-5.458-8.083s1.958-6.042 5.4-8.021l6.271-3.667V231.6z" transform="translate(1562.092 1457.254)"/></g></g><path id="패스_666660" data-name="패스 666660" class="cls-11" d="M206.8 227.663v7.708c.042 1.542-1.083 3.167-3.271 4.438L188.3 248.6a1.438 1.438 0 01-1.437 0L161.2 233.808V225.6" transform="translate(-127.617 -178.6)"/><path id="패스_666661" data-name="패스 666661" d="M79.183 49.063v7.708c.042 1.542-1.083 3.167-3.271 4.438L60.683 70a1.438 1.438 0 01-1.437 0L33.583 55.208V47" stroke-width=".833" stroke-linecap="round" stroke-miterlimit="10" stroke="#222" fill="none"/><path id="패스_666662" data-name="패스 666662" class="cls-13" d="M190.092 173.707L204.446 182c3.438 1.979 3 5.438-.958 7.729l-15.229 8.792a1.438 1.438 0 01-1.437 0l-25.479-14.687a.4.4 0 010-.687l15.357-8.857c3.958-2.292 9.958-2.542 13.4-.562" transform="translate(-127.571 -136.478)"/><path id="패스_666663" data-name="패스 666663" d="M62.521 37.229l14.354 8.292c3.438 1.979 3 5.438-.958 7.729l-15.229 8.792a1.438 1.438 0 01-1.437 0l-25.48-14.688a.4.4 0 010-.687l15.354-8.854c3.958-2.313 9.958-2.563 13.396-.584z" stroke-width=".833" stroke-linecap="round" stroke-miterlimit="10" stroke="#222" fill="none"/><path id="패스_666664" data-name="패스 666664" class="cls-11" d="M256.664 218.479l-2.1.9-2.146-1.25-2.792 2.333a4.229 4.229 0 00-2.146.5 2.083 2.083 0 00-.583.458c-.979-.708-.917-1.75.229-2.417a4.521 4.521 0 012.292-.521l2.954-2.482z" transform="translate(-194.914 -171)"/><path id="패스_666665" data-name="패스 666665" d="M61.75 47.479l-2.1.9-2.146-1.25-2.792 2.333a4.229 4.229 0 00-2.146.5 2.083 2.083 0 00-.583.458c-.979-.708-.917-1.75.229-2.417a4.521 4.521 0 012.292-.521L57.458 45z" stroke-width=".833" stroke-linejoin="round" stroke-linecap="square" stroke="#222" fill="none"/><path id="패스_666666" data-name="패스 666666" class="cls-10" d="M257.167 227.45l-2.083.875a1.188 1.188 0 01-.271.792l-.083.1a2.312 2.312 0 01-.562.438 4.9 4.9 0 01-4.437 0l-.229-.146a2.083 2.083 0 01.583-.458 4.229 4.229 0 012.146-.5l2.792-2.354z" transform="translate(-197.521 -179.075)"/><path id="패스_666667" data-name="패스 666667" d="M59.646 48.375l-2.083.875a1.188 1.188 0 01-.271.792l-.083.1a2.312 2.312 0 01-.562.438 4.9 4.9 0 01-4.437 0l-.229-.146a2.083 2.083 0 01.583-.458 4.229 4.229 0 012.146-.5l2.792-2.354z" stroke-width=".833" stroke-linejoin="round" stroke-linecap="square" stroke="#222" fill="none"/><path id="패스_666668" data-name="패스 666668" class="cls-17" d="M352.475 227.775c0 .75-.979 1.375-2.187 1.375s-2.187-.6-2.187-1.375.979-1.375 2.188-1.375 2.186.625 2.186 1.375z" transform="translate(-275.579 -179.233)"/><path id="패스_666669" data-name="패스 666669" class="cls-13" d="M352.475 224.975c0 .75-.979 1.375-2.187 1.375s-2.187-.6-2.187-1.375.979-1.375 2.188-1.375 2.188.6 2.188 1.375" transform="translate(-275.579 -177.017)"/><path id="패스_666670" data-name="패스 666670" class="cls-17" d="M352.475 224.975c0 .75-.979 1.375-2.187 1.375s-2.187-.6-2.187-1.375.979-1.375 2.188-1.375 2.186.6 2.186 1.375z" transform="translate(-275.579 -177.017)"/><path id="패스_666671" data-name="패스 666671" class="cls-17" d="M265.475 179.775c0 .75-.979 1.375-2.187 1.375s-2.187-.6-2.187-1.375.979-1.375 2.188-1.375 2.186.625 2.186 1.375z" transform="translate(-206.704 -141.233)"/><path id="패스_666672" data-name="패스 666672" class="cls-13" d="M265.475 176.875c0 .75-.979 1.375-2.187 1.375s-2.187-.6-2.187-1.375.979-1.375 2.188-1.375 2.188.6 2.188 1.375" transform="translate(-206.704 -138.938)"/><path id="패스_666673" data-name="패스 666673" class="cls-17" d="M265.475 176.875c0 .75-.979 1.375-2.187 1.375s-2.187-.6-2.187-1.375.979-1.375 2.188-1.375 2.186.625 2.186 1.375z" transform="translate(-206.704 -138.938)"/><path id="패스_666674" data-name="패스 666674" class="cls-13" d="M209.608 91.671a10.87 10.87 0 01-21.708 0c0-5.687 4.854-10.271 10.854-10.271a10.578 10.578 0 0110.854 10.292" transform="translate(-148.754 -64.442)"/><path id="패스_666675" data-name="패스 666675" d="M60.854 27.229a10.87 10.87 0 01-21.708 0C39.146 21.542 44 16.958 50 16.958s10.854 4.6 10.854 10.271z" stroke-width=".833" stroke="#000001" stroke-linejoin="round" fill="none"/><path id="패스_666676" data-name="패스 666676" d="M209.608 102.871a10.87 10.87 0 01-21.708 0c0-5.687 4.854-10.271 10.854-10.271a10.578 10.578 0 0110.854 10.292" transform="translate(-148.754 -73.308)" fill="#ea002c"/><path id="패스_666677" data-name="패스 666677" d="M60.854 29.563a10.87 10.87 0 01-21.708 0C39.146 23.876 44 19.292 50 19.292s10.854 4.6 10.854 10.271z" stroke-width=".833" stroke="#000001" stroke-linejoin="round" fill="none"/><g id="그룹_331610" data-name="그룹 331610" transform="translate(45.604 43.146)" opacity=".2"><g id="그룹_331609" data-name="그룹 331609" clip-path="url(#clip-path-6)"><path id="패스_666678" data-name="패스 666678" d="M229.083 209.808c0 1.5-2.271 2.708-5.042 2.708S219 211.308 219 209.808s2.271-2.708 5.042-2.708 5.042 1.208 5.042 2.708" transform="translate(-218.979 -207.1)"/></g></g></g><text id="_" data-name="!" transform="translate(47.708 33.563)" font-size="14" font-family="Jost-Medium,'Jost*'" font-weight="500" fill="#fff"><tspan x="0" y="0">!</tspan></text><g id="그룹_331612" data-name="그룹 331612" class="cls-5"><path id="패스_666679" data-name="패스 666679" class="cls-11" d="M261.308 296.95a1.611 1.611 0 01-.687 1.5 1.7 1.7 0 01-1.667-.167 5.2 5.2 0 01-2.354-4.062c0-1.5.875-1.979 2-1.5l.333.167a5.2 5.2 0 012.354 4.063" transform="translate(-203.142 -231.596)"/><path id="패스_666680" data-name="패스 666680" d="M58.166 65.354a1.611 1.611 0 01-.687 1.5 1.7 1.7 0 01-1.667-.167 5.2 5.2 0 01-2.354-4.062c0-1.5.875-1.979 2-1.5l.333.167a5.231 5.231 0 012.375 4.062z" stroke-width=".833" stroke-linejoin="round" stroke-linecap="square" stroke="#222" fill="none"/><path id="패스_666681" data-name="패스 666681" class="cls-10" d="M266.375 297.629a1.611 1.611 0 01-.687 1.5l-.333-.167A5.2 5.2 0 01263 294.9a1.611 1.611 0 01.688-1.5l.333.167a5.2 5.2 0 012.354 4.063" transform="translate(-208.208 -232.275)"/><path id="패스_666682" data-name="패스 666682" class="cls-10" d="M119.917 242.316a1.508 1.508 0 011.479.167 4.61 4.61 0 012.1 3.625 1.436 1.436 0 01-.562 1.313h-.034l-.125.083-7.437 4.354c-1.521.875-2.437 1.958-2.437 2.9s.938 2.063 2.479 2.958c4.375 2.521 11.729 2.542 16.063.042l3.271-1.979a1.508 1.508 0 011.479.167 4.61 4.61 0 012.1 3.625 1.436 1.436 0 01-.562 1.313h-.042l-3.25 1.979A22.249 22.249 0 01123.5 265.5a22.562 22.562 0 01-11.042-2.687c-3.458-2-5.458-4.937-5.458-8.083s1.958-6.042 5.4-8.021l7.417-4.333z" transform="translate(-84.708 -191.733)"/></g></g></g></g></g></g></svg>