<svg xmlns="http://www.w3.org/2000/svg" xmlns:xlink="http://www.w3.org/1999/xlink" width="20" height="20" viewBox="0 0 20 20"><defs><style>.a{fill:#d5d5d5;}.b,.g,.h,.i,.j{fill:none;}.c{clip-path:url(#a);}.d{clip-path:url(#b);}.e{opacity:0;}.f{fill:#f0f;}.g,.h,.i,.j{stroke:#111;stroke-width:1.5px;}.g,.h{stroke-linejoin:round;}.h,.i{stroke-linecap:round;}.i,.j{stroke-miterlimit:10;}</style><clipPath id="a"><rect class="a" width="20" height="20" transform="translate(20 84)"/></clipPath><clipPath id="b"><rect class="b" width="20" height="20"/></clipPath></defs><g class="c" transform="translate(-20 -84)"><g transform="translate(30 94)"><g class="d" transform="translate(-10 -10)"><g class="d"><g class="e"><g class="d"><rect class="f" width="20" height="20"/></g></g></g><g class="d"><path class="g" d="M8.2,18.4V14.3h3.6v4.1"/><path class="h" d="M17.3,8.7V18.9H5.2a2.5,2.5,0,0,1-2.5-2.5V8.7"/><line class="h" x1="2.4" transform="translate(8.1 8.4)"/><path class="h" d="M5.2,8.4H2.6A2.5,2.5,0,0,1,1.5,6.3V1.9A.5.5,0,0,1,2,1.4H17.9a.5.5,0,0,1,.5.5V6.3a2.5,2.5,0,0,1-1.1,2.1H12.9"/><line class="i" y2="1.4" transform="translate(7.5 8.9)"/><line class="j" y2="2.1" transform="translate(7.5 6.8)"/><line class="i" y2="1.5" transform="translate(12.9 8.8)"/><line class="j" y2="2" transform="translate(12.9 6.8)"/></g></g></g></g></svg>