<svg xmlns="http://www.w3.org/2000/svg" xmlns:xlink="http://www.w3.org/1999/xlink" width="100" height="100" viewBox="0 0 100 100">
  <defs>
    <style>
      .cls-1, .cls-11, .cls-12, .cls-13, .cls-14, .cls-15, .cls-16, .cls-17, .cls-18, .cls-19, .cls-21, .cls-23 {
        fill: none;
      }

      .cls-2 {
        clip-path: url(#clip-path);
      }

      .cls-3 {
        fill: #f9f9f9;
      }

      .cls-4 {
        fill: #f0f0f0;
      }

      .cls-5 {
        fill: #141c1e;
      }

      .cls-6 {
        opacity: 0.15;
        mix-blend-mode: multiply;
        isolation: isolate;
      }

      .cls-7 {
        clip-path: url(#clip-path-4);
      }

      .cls-8 {
        fill: #222;
      }

      .cls-9 {
        fill: #fff;
      }

      .cls-10 {
        fill: #ddd;
      }

      .cls-11, .cls-12, .cls-13, .cls-14, .cls-15, .cls-16, .cls-17, .cls-18 {
        stroke: #222;
      }

      .cls-11, .cls-12, .cls-13, .cls-17, .cls-18, .cls-19, .cls-21, .cls-23 {
        stroke-linejoin: round;
      }

      .cls-11 {
        stroke-width: 0.625px;
      }

      .cls-12 {
        stroke-width: 0.625px;
      }

      .cls-13, .cls-21 {
        stroke-width: 0.833px;
      }

      .cls-14, .cls-15, .cls-16 {
        stroke-miterlimit: 10;
      }

      .cls-14 {
        stroke-width: 0.625px;
      }

      .cls-15 {
        stroke-width: 0.625px;
      }

      .cls-16 {
        stroke-width: 0.625px;
      }

      .cls-17, .cls-18, .cls-19, .cls-23 {
        stroke-linecap: round;
      }

      .cls-17 {
        stroke-width: 0.625px;
      }

      .cls-18 {
        stroke-width: 0.625px;
      }

      .cls-19, .cls-23 {
        stroke: #fff;
      }

      .cls-19 {
        stroke-width: 0.625px;
      }

      .cls-20 {
        fill: #ea002c;
      }

      .cls-21 {
        stroke: #000001;
      }

      .cls-22 {
        fill: #45d49a;
      }

      .cls-23 {
        stroke-width: 1.667px;
      }

      .cls-24 {
        opacity: 0.2;
      }

      .cls-25 {
        clip-path: url(#clip-path-6);
      }
    </style>
    <clipPath id="clip-path">
      <rect id="사각형_252973" data-name="사각형 252973" class="cls-1" width="100" height="100"/>
    </clipPath>
    <clipPath id="clip-path-4">
      <rect id="사각형_252969" data-name="사각형 252969" class="cls-1" width="59.063" height="36.731"/>
    </clipPath>
    <clipPath id="clip-path-6">
      <rect id="사각형_252971" data-name="사각형 252971" class="cls-1" width="10.104" height="5.412"/>
    </clipPath>
  </defs>
  <g id="그룹_334521" data-name="그룹 334521" class="cls-2">
    <g id="그룹_334514" data-name="그룹 334514" class="cls-2">
      <path id="패스_673498" data-name="패스 673498" class="cls-3" d="M50,0A50,50,0,1,1,0,50,50.013,50.013,0,0,1,50,0"/>
      <path id="패스_673499" data-name="패스 673499" class="cls-4" d="M50,100a50,50,0,1,1,50-50,50.066,50.066,0,0,1-50,50M50,1A49,49,0,1,0,99,50,49.053,49.053,0,0,0,50,1"/>
    </g>
    <g id="그룹_334517" data-name="그룹 334517" class="cls-2">
      <path id="패스_673500" data-name="패스 673500" class="cls-5" d="M299.408,190.1a38.934,38.934,0,0,0,3.917,1.563c.667.1,1.292,0,1.188-.458s-3.312-2.875-4.792-3.812a60.237,60.237,0,0,0-6.75-3.729A18.406,18.406,0,0,0,289.7,182.6s2.938,1.438,4.583,2.479a26.558,26.558,0,0,1,4.688,3.729,5.084,5.084,0,0,1,.458,1.292" transform="translate(-229.346 -144.558)"/>
      <g id="그룹_334516" data-name="그룹 334516" class="cls-6" transform="translate(20.667 44.854)">
        <g id="그룹_334515" data-name="그룹 334515" class="cls-7">
          <path id="패스_673501" data-name="패스 673501" d="M157.16,225.658c-5.771-3.542-18.1-10.458-18.1-10.458L99.869,238.617s-3.187,4.708,4.667,9.125c11.375,6.375,15.563,3.625,15.563,3.625L156.14,230.6s4.063-3.042,1.021-4.917" transform="translate(-99.223 -215.221)"/>
        </g>
      </g>
      <path id="패스_673502" data-name="패스 673502" d="M222.063,337.321l-.792.792-.6.375L218,334.3l3.563.042Z" transform="translate(-172.583 -264.654)"/>
      <path id="패스_673503" data-name="패스 673503" class="cls-8" d="M195.779,333.259l-2.6-1.5a2.462,2.462,0,0,0-2.437.25,7.639,7.639,0,0,0-3.437,5.979,2.408,2.408,0,0,0,1.021,2.229l2.6,1.5a2.421,2.421,0,0,0,2.417-.25,7.638,7.638,0,0,0,3.438-5.979,2.408,2.408,0,0,0-1.021-2.229" transform="translate(-148.279 -262.468)"/>
      <path id="패스_673504" data-name="패스 673504" class="cls-8" d="M206.775,341.189a7.638,7.638,0,0,1-3.437,5.979,2.423,2.423,0,0,1-2.417.25,2.452,2.452,0,0,1-1.021-2.229,7.639,7.639,0,0,1,3.438-5.979,2.46,2.46,0,0,1,2.438-.25,2.408,2.408,0,0,1,1.021,2.229" transform="translate(-158.254 -268.168)"/>
      <path id="패스_673505" data-name="패스 673505" class="cls-8" d="M208.075,342.695a7.034,7.034,0,0,1-3.187,5.521,1.943,1.943,0,0,1-3.187-1.854,7.034,7.034,0,0,1,3.188-5.521,2.254,2.254,0,0,1,2.25-.229,2.221,2.221,0,0,1,.938,2.063" transform="translate(-159.679 -269.486)"/>
      <path id="패스_673506" data-name="패스 673506" class="cls-9" d="M210.824,347.681a5.083,5.083,0,0,1-2.312,4.021,1.448,1.448,0,0,1-2.312-1.354,5.083,5.083,0,0,1,2.313-4.021,1.448,1.448,0,0,1,2.313,1.354" transform="translate(-163.241 -273.952)"/>
      <path id="패스_673507" data-name="패스 673507" class="cls-9" d="M211.216,348.582a4.854,4.854,0,0,1-2.208,3.833,1.383,1.383,0,0,1-2.208-1.292,4.854,4.854,0,0,1,2.208-3.833,1.383,1.383,0,0,1,2.208,1.292" transform="translate(-163.716 -274.728)"/>
      <path id="패스_673508" data-name="패스 673508" class="cls-10" d="M212.479,347a1.377,1.377,0,0,1,1.021,1.5,4.792,4.792,0,0,1-2.167,3.771,1.521,1.521,0,0,1-1.333.188,1.482,1.482,0,0,0,1.542-.083,4.854,4.854,0,0,0,2.208-3.812,1.369,1.369,0,0,0-1.271-1.542" transform="translate(-166.25 -274.708)"/>
      <path id="패스_673509" data-name="패스 673509" class="cls-11" d="M111.861,194.2c-1.229,1.146-3.208,2.875-3.208,2.875l-3.729,2.583A9.9,9.9,0,0,0,101.278,204a18.1,18.1,0,0,0-1.667,3.208,12.458,12.458,0,0,0,.25,3.479c-.021.1-.458,1.542,1.188,3.271s5.667,4.021,7.042,4.854,4.5,2.479,7.167,2.6a7.2,7.2,0,0,0,3.854-.687v-.042c.521-2.6,1.583-6.083,4.958-7.937,2.271-1.25,4.438-.458,3.438,2.958v.1l20.146-11.9c.438-2.479,2.375-6,4.583-7.271s3.792-.521,3.521,2.521a5.1,5.1,0,0,0,.938-1.479,2.792,2.792,0,0,0,.042-1.771,7.459,7.459,0,0,0,0-1.771,6.972,6.972,0,0,0-.958-1.937,18.344,18.344,0,0,0-1.021-2.521c-.417-.688-2.083-2.083-5.583-4.4a44.528,44.528,0,0,0-8.521-4.417,10.73,10.73,0,0,0-2.375-.479,5.231,5.231,0,0,0-1.75-.6,1.708,1.708,0,0,0-1.062.292,58.678,58.678,0,0,0-7.062,2.771,95.718,95.718,0,0,0-8.562,4.979c-1.458,1-4.312,3.229-6,4.625h0Z" transform="translate(-78.799 -142.33)"/>
      <path id="패스_673510" data-name="패스 673510" d="M358.063,258.821l-.792.813-.6.354L354,255.8l3.563.063Z" transform="translate(-280.25 -202.508)"/>
      <path id="패스_673511" data-name="패스 673511" class="cls-8" d="M331.779,254.759l-2.6-1.5a2.462,2.462,0,0,0-2.437.25,7.638,7.638,0,0,0-3.437,5.979,2.408,2.408,0,0,0,1.021,2.229l2.6,1.5a2.421,2.421,0,0,0,2.417-.25,7.638,7.638,0,0,0,3.438-5.979,2.408,2.408,0,0,0-1.021-2.229" transform="translate(-255.946 -200.322)"/>
      <path id="패스_673512" data-name="패스 673512" class="cls-8" d="M342.775,262.789a7.671,7.671,0,0,1-3.437,5.979,2.423,2.423,0,0,1-2.417.25,2.452,2.452,0,0,1-1.021-2.229,7.638,7.638,0,0,1,3.438-5.979,2.46,2.46,0,0,1,2.438-.25,2.408,2.408,0,0,1,1.021,2.229" transform="translate(-265.921 -206.101)"/>
      <path id="패스_673513" data-name="패스 673513" class="cls-8" d="M344.075,264.195a7.034,7.034,0,0,1-3.187,5.521,1.943,1.943,0,0,1-3.187-1.854,7.034,7.034,0,0,1,3.188-5.521,2.254,2.254,0,0,1,2.25-.229,2.221,2.221,0,0,1,.938,2.063" transform="translate(-267.346 -207.341)"/>
      <path id="패스_673514" data-name="패스 673514" class="cls-9" d="M346.824,269.281a5.083,5.083,0,0,1-2.312,4.021,1.448,1.448,0,0,1-2.312-1.354,5.083,5.083,0,0,1,2.313-4.021,1.448,1.448,0,0,1,2.313,1.354" transform="translate(-270.907 -211.885)"/>
      <path id="패스_673515" data-name="패스 673515" class="cls-9" d="M347.216,270.082a4.854,4.854,0,0,1-2.208,3.833,1.383,1.383,0,0,1-2.208-1.292,4.854,4.854,0,0,1,2.208-3.833,1.383,1.383,0,0,1,2.208,1.292" transform="translate(-271.382 -212.582)"/>
      <path id="패스_673516" data-name="패스 673516" class="cls-10" d="M348.479,268.6a1.377,1.377,0,0,1,1.021,1.5,4.792,4.792,0,0,1-2.167,3.771,1.521,1.521,0,0,1-1.333.188,1.482,1.482,0,0,0,1.542-.083,4.854,4.854,0,0,0,2.208-3.833,1.369,1.369,0,0,0-1.271-1.542" transform="translate(-273.917 -212.642)"/>
      <path id="패스_673517" data-name="패스 673517" class="cls-9" d="M160.368,236.531a1.98,1.98,0,0,0-.271-.9,1.2,1.2,0,0,0-1.25,0,1.485,1.485,0,0,0-.5,1.4,9.113,9.113,0,0,1,.063,1.229" transform="translate(-125.347 -186.406)"/>
      <path id="패스_673518" data-name="패스 673518" class="cls-12" d="M160.368,236.531a1.98,1.98,0,0,0-.271-.9,1.2,1.2,0,0,0-1.25,0,1.485,1.485,0,0,0-.5,1.4,9.113,9.113,0,0,1,.063,1.229" transform="translate(-125.347 -186.406)"/>
      <path id="패스_673519" data-name="패스 673519" class="cls-9" d="M111.761,194.146c-1.229,1.146-3.208,2.875-3.208,2.875l-3.729,2.583a9.9,9.9,0,0,0-3.646,4.333,18.105,18.105,0,0,0-1.667,3.208,12.459,12.459,0,0,0,.25,3.479c-.021.1-.458,1.542,1.188,3.271s5.667,4.021,7.042,4.854,4.5,2.479,7.146,2.583a7.2,7.2,0,0,0,3.854-.687V220.6c.521-2.6,1.583-6.083,4.958-7.937,2.271-1.25,4.438-.458,3.438,2.958v.1l20.146-11.9c.438-2.479,2.375-6,4.583-7.271s3.792-.521,3.521,2.521a5.1,5.1,0,0,0,.938-1.479,2.792,2.792,0,0,0,.042-1.771,7.458,7.458,0,0,0,0-1.771,6.972,6.972,0,0,0-.958-1.937,18.346,18.346,0,0,0-1.021-2.521c-.417-.687-2.083-2.083-5.583-4.4a45.632,45.632,0,0,0-8.521-4.437,10.729,10.729,0,0,0-2.375-.479,5.231,5.231,0,0,0-1.75-.6,1.708,1.708,0,0,0-1.062.292,58.676,58.676,0,0,0-7.062,2.771,96.27,96.27,0,0,0-8.583,4.979c-1.458,1-4.312,3.229-6,4.625h0Z" transform="translate(-78.72 -142.251)"/>
      <path id="패스_673520" data-name="패스 673520" class="cls-13" d="M111.761,194.146c-1.229,1.146-3.208,2.875-3.208,2.875l-3.729,2.583a9.9,9.9,0,0,0-3.646,4.333,18.105,18.105,0,0,0-1.667,3.208,12.459,12.459,0,0,0,.25,3.479c-.021.1-.458,1.542,1.188,3.271s5.667,4.021,7.042,4.854,4.5,2.479,7.146,2.583a7.2,7.2,0,0,0,3.854-.687V220.6c.521-2.6,1.583-6.083,4.958-7.937,2.271-1.25,4.438-.458,3.438,2.958v.1l20.146-11.9c.438-2.479,2.375-6,4.583-7.271s3.792-.521,3.521,2.521a5.1,5.1,0,0,0,.938-1.479,2.792,2.792,0,0,0,.042-1.771,7.458,7.458,0,0,0,0-1.771,6.972,6.972,0,0,0-.958-1.937,18.346,18.346,0,0,0-1.021-2.521c-.417-.687-2.083-2.083-5.583-4.4a45.632,45.632,0,0,0-8.521-4.437,10.729,10.729,0,0,0-2.375-.479,5.231,5.231,0,0,0-1.75-.6,1.708,1.708,0,0,0-1.062.292,58.676,58.676,0,0,0-7.062,2.771,96.27,96.27,0,0,0-8.583,4.979c-1.458,1-4.312,3.229-6,4.625h0Z" transform="translate(-78.72 -142.251)"/>
      <path id="패스_673521" data-name="패스 673521" class="cls-8" d="M157.007,239.108a3.312,3.312,0,0,0,2.458-1.1c.375-.417.813-.917,1.146-1.375.646-.875,3.667-5.917,5.146-8.021a.75.75,0,0,0-.271-1.1c-1.479-.771-4.646-2.479-6.25-3.479-2.1-1.333-5.458-3.625-5.458-3.625s-5.375,3.979-7.021,5.417-4.125,3.417-4.125,3.417a2.974,2.974,0,0,0,.375,2.75c.958,1.542,3.542,3.4,5.667,4.521,1.75.938,5.5,2.583,8.313,2.6" transform="translate(-112.778 -174.483)"/>
      <path id="패스_673522" data-name="패스 673522" class="cls-8" d="M159.425,329.4a.417.417,0,0,1-.042-.792l4.417-1.625c1.479-.521,3.771-1.5,4.479-1.75s1.229-.437,1.083.229a6.57,6.57,0,0,1-3.646,3.771,8.875,8.875,0,0,1-6.292.146" transform="translate(-125.967 -257.291)"/>
      <path id="패스_673523" data-name="패스 673523" class="cls-14" d="M159.425,329.4a.417.417,0,0,1-.042-.792l4.417-1.625c1.479-.521,3.771-1.5,4.479-1.75s1.229-.437,1.083.229a6.57,6.57,0,0,1-3.646,3.771A8.988,8.988,0,0,1,159.425,329.4Z" transform="translate(-125.967 -257.291)"/>
      <path id="패스_673524" data-name="패스 673524" class="cls-8" d="M110.4,275.021h-.042a10.132,10.132,0,0,0-3.542,4.083l-.063.125h0a5.653,5.653,0,0,0-.312,2.438,4.433,4.433,0,0,0,1.208,2.229.188.188,0,0,0,.333-.146,13.4,13.4,0,0,1-.021-3.771A19.119,19.119,0,0,1,110.4,275" transform="translate(-84.232 -217.708)"/>
      <path id="패스_673525" data-name="패스 673525" class="cls-15" d="M110.4,275.1h-.042a10.132,10.132,0,0,0-3.542,4.083l-.063.125h0a5.653,5.653,0,0,0-.312,2.438,4.433,4.433,0,0,0,1.208,2.229.187.187,0,0,0,.333-.146,13.4,13.4,0,0,1-.021-3.771A20,20,0,0,1,110.4,275.1Z" transform="translate(-84.232 -217.788)"/>
      <path id="패스_673526" data-name="패스 673526" class="cls-8" d="M107.291,323.8a16.719,16.719,0,0,1-2.271-1.812,6.141,6.141,0,0,1-1.167-2.75c-.1-.625-.146-1.271.021-1.417s.708.458,1.354,1.063,1.833,1.542,1.833,1.542a3.23,3.23,0,0,0,.875.938,33.961,33.961,0,0,0,3.4,2,4.733,4.733,0,0,0,2.042.563s1.542.625,2.708,1.021,2.4.6,2.458,1.229-.479,1.021-1.187,1.438a3.913,3.913,0,0,1-2.9.042,7.147,7.147,0,0,1-1.729-.729" transform="translate(-82.145 -251.587)"/>
      <path id="패스_673527" data-name="패스 673527" class="cls-8" d="M256.161,224.371c-.312-.417-4.021.375-6.271,1.458a37.734,37.734,0,0,0-6.312,4.063c-1.333,1.083-4.875,6.708-5.917,8.4,0,0-1.333,2.188-.9,2.875s1.125.188,1.979-.333l.167-.1a.666.666,0,0,1,.021-.312,21.5,21.5,0,0,1,1.854-1.875,1.215,1.215,0,0,1,1.292.083l8.875-5.875s3.563-2.875,4.583-4.9.938-3.083.6-3.479" transform="translate(-187.369 -177.537)"/>
      <path id="패스_673528" data-name="패스 673528" class="cls-8" d="M252.917,249.517a1.238,1.238,0,0,1,1.146.021l7.6-5.042c-.271-1.271-1.083-4.771-1.646-6.4a41.151,41.151,0,0,0-4.208,2.9A31.283,31.283,0,0,0,252,246.121l.208,4.042a5.5,5.5,0,0,1,.708-.646" transform="translate(-199.5 -188.496)"/>
      <path id="패스_673529" data-name="패스 673529" class="cls-8" d="M239.593,284.167l.813-.875-.292-3.792c-.625.958-1.187,1.875-1.646,2.625s-1.167,2.271-.9,2.729a.458.458,0,0,0,.417.271,3.03,3.03,0,0,0,1.187-.542l.188-.1.25-.146v-.125" transform="translate(-188.031 -221.271)"/>
      <path id="패스_673530" data-name="패스 673530" class="cls-8" d="M303.475,225.063s-.062-.062-.375-.062a17.263,17.263,0,0,0-5.708,1.563l-.792.417c.354,1,1.292,3.771,1.958,6.042.833-.687,3.438-2.979,4.292-4.646s.938-2.917.625-3.312" transform="translate(-234.808 -178.125)"/>
      <path id="패스_673531" data-name="패스 673531" class="cls-8" d="M299.6,189.071a63.984,63.984,0,0,0-6.646-3.75L290,184.3c.688.333,2.958,1.479,4.333,2.354a27.7,27.7,0,0,1,4.625,3.688,4.77,4.77,0,0,1,.417,1.167,35.85,35.85,0,0,0,3.917,1.5l.417.042a.792.792,0,0,0,.563-.146.146.146,0,0,0,.021-.146c-.1-.375-3.083-2.667-4.667-3.687" transform="translate(-229.583 -145.904)"/>
      <path id="패스_673532" data-name="패스 673532" class="cls-9" d="M244.6,292.315l2.479-1.125a.646.646,0,0,1,.833.292l.25.521a1.667,1.667,0,0,1,.125,1.25c-.1.354-.333.6-.562.521l-.917-.292a3.688,3.688,0,0,0-1.9-.1h-.021a.542.542,0,0,1-.292-1.042" transform="translate(-193.353 -230.482)"/>
      <path id="패스_673533" data-name="패스 673533" class="cls-16" d="M244.6,292.315l2.479-1.125a.646.646,0,0,1,.833.292l.25.521a1.667,1.667,0,0,1,.125,1.25c-.1.354-.333.6-.562.521l-.917-.292a3.688,3.688,0,0,0-1.9-.1h-.021a.542.542,0,0,1-.292-1.042Z" transform="translate(-193.353 -230.482)"/>
      <path id="패스_673534" data-name="패스 673534" class="cls-15" d="M110.4,275.1h-.042a10.132,10.132,0,0,0-3.542,4.083l-.063.125h0a5.653,5.653,0,0,0-.312,2.438,4.433,4.433,0,0,0,1.208,2.229.187.187,0,0,0,.333-.146,13.4,13.4,0,0,1-.021-3.771A20,20,0,0,1,110.4,275.1Z" transform="translate(-84.232 -217.788)"/>
      <path id="패스_673535" data-name="패스 673535" class="cls-14" d="M159.425,329.4a.417.417,0,0,1-.042-.792l4.417-1.625c1.479-.521,3.771-1.5,4.479-1.75s1.229-.437,1.083.229a6.57,6.57,0,0,1-3.646,3.771A8.988,8.988,0,0,1,159.425,329.4Z" transform="translate(-125.967 -257.291)"/>
      <line id="선_91407" data-name="선 91407" class="cls-9" y1="7.229" x2="12.229" transform="translate(57.188 59.375)"/>
      <line id="선_91408" data-name="선 91408" class="cls-17" y1="7.229" x2="12.229" transform="translate(57.188 59.375)"/>
      <path id="패스_673536" data-name="패스 673536" class="cls-8" d="M159.688,237.963a42.7,42.7,0,0,1-8.542-3.812c-3.25-1.958-4.937-3.75-5.646-4.958a1.834,1.834,0,0,1,.188-.292c.021-.021,1.958-1.958,3.583-3.375s5.75-5.1,6.458-5.625c.542.375,3.958,2.667,5.854,3.854,1.583,1,4.75,2.688,6.229,3.479a.625.625,0,0,1,.229.917l-.833,1.229q-2.062,3.188-4.271,6.271a6.042,6.042,0,0,1-3.229,2.313" transform="translate(-115.188 -174.088)"/>
      <path id="패스_673537" data-name="패스 673537" class="cls-18" d="M155.063,220.4c.542.375,3.813,2.563,5.708,3.75,1.583,1,4.75,2.688,6.229,3.479a.625.625,0,0,1,.229.917l-.833,1.25q-2.062,3.188-4.271,6.271a6.042,6.042,0,0,1-3.229,2.313,42.7,42.7,0,0,1-8.542-3.813,17.617,17.617,0,0,1-5.854-5.25" transform="translate(-114.396 -174.483)"/>
      <path id="패스_673538" data-name="패스 673538" class="cls-19" d="M119.1,337.7a16.313,16.313,0,0,0,5.5,3.188" transform="translate(-94.287 -267.346)"/>
      <path id="패스_673539" data-name="패스 673539" class="cls-20" d="M256.862,113.9v.021l-.062.042Z" transform="translate(-203.3 -90.171)"/>
      <line id="선_91409" data-name="선 91409" class="cls-20" x1="0.021" y2="0.021" transform="translate(53.563 23.729)"/>
      <line id="선_91410" data-name="선 91410" class="cls-20" x1="0.021" transform="translate(51.063 37.063)"/>
    </g>
    <g id="그룹_334520" data-name="그룹 334520" class="cls-2">
      <path id="패스_673540" data-name="패스 673540" class="cls-9" d="M235.688,92.892A10.859,10.859,0,1,1,224.833,82.6c5.979,0,10.854,4.6,10.854,10.292" transform="translate(-169.417 -65.392)"/>
      <path id="패스_673541" data-name="패스 673541" class="cls-21" d="M235.688,92.892A10.859,10.859,0,1,1,224.833,82.6C230.813,82.6,235.688,87.2,235.688,92.892Z" transform="translate(-169.417 -65.392)"/>
      <path id="패스_673542" data-name="패스 673542" class="cls-22" d="M235.688,104.092A10.859,10.859,0,1,1,224.833,93.8c5.979,0,10.854,4.6,10.854,10.292" transform="translate(-169.417 -74.258)"/>
      <path id="패스_673543" data-name="패스 673543" class="cls-21" d="M235.688,104.092A10.859,10.859,0,1,1,224.833,93.8C230.813,93.8,235.688,98.4,235.688,104.092Z" transform="translate(-169.417 -74.258)"/>
      <line id="선_91411" data-name="선 91411" class="cls-20" x1="5.188" y2="5.188" transform="translate(52.833 27.229)"/>
      <line id="선_91413" data-name="선 91413" class="cls-20" x2="5.188" y2="5.188" transform="translate(52.833 27.229)"/>
      <g id="그룹_334540" data-name="그룹 334540" transform="translate(37.322 -30.458) rotate(45)">
        <line id="선_91412" data-name="선 91412" class="cls-23" x1="5.188" y2="5.188" transform="translate(58.021 27.229) rotate(90)"/>
        <line id="선_91414" data-name="선 91414" class="cls-23" x2="5.188" y2="5.188" transform="translate(58.021 27.229) rotate(90)"/>
      </g>
      <g id="그룹_334519" data-name="그룹 334519" class="cls-24" transform="translate(51.042 41.313)">
        <g id="그룹_334518" data-name="그룹 334518" class="cls-25">
          <path id="패스_673544" data-name="패스 673544" d="M255.183,201.008c0,1.5-2.271,2.708-5.042,2.708s-5.042-1.208-5.042-2.708,2.271-2.708,5.042-2.708,5.042,1.208,5.042,2.708" transform="translate(-245.079 -198.3)"/>
        </g>
      </g>
    </g>
  </g>
</svg>
