<svg xmlns="http://www.w3.org/2000/svg" xmlns:xlink="http://www.w3.org/1999/xlink" width="28" height="28" viewBox="0 0 28 28"><defs><style>.a,.b,.d{fill:none;}.b,.d{stroke:#111;stroke-linejoin:round;stroke-width:1.5px;}.c{clip-path:url(#a);}.d{stroke-linecap:round;}.e{fill:#fff;}</style><clipPath id="a"><rect class="a" width="28" height="28" transform="translate(-0.085 -0.085)"/></clipPath></defs><g transform="translate(10.085 10.085)"><g transform="translate(-10 -10)"><line class="b" y2="2" transform="translate(5.844 15.359)"/><g class="c"><path class="d" d="M12.318,3.961V2.709a1.809,1.809,0,1,0-3.618,0V3.961" transform="translate(3.406 0.352)"/><rect class="e" width="15" height="22" rx="6" transform="translate(8.915 4.915)"/><path class="d" d="M11.3,6.6a2.922,2.922,0,0,1,2.366,2.644v1.113" transform="translate(4.424 2.584)"/><path class="d" d="M14.953,17a3.479,3.479,0,0,1-3.9,3.061A3.479,3.479,0,0,1,7.3,17" transform="translate(2.858 6.655)"/><path class="d" d="M4.2,21.568H20.341v-10.3a8.071,8.071,0,1,0-16.141,0v3.479" transform="translate(1.645 1.253)"/></g></g></g></svg>