<svg xmlns="http://www.w3.org/2000/svg" width="48.974" height="50.965"><defs><style>.b{stroke:#000111}.b,.g{stroke-linecap:round;stroke-linejoin:round;stroke-width:1.5px;fill:none}.i{fill:#111}.g{stroke:#111}</style></defs><path d="M8.358 38.728l1.912-1.832 1.912 1.832 1.909-1.832 1.908 1.832 1.908-1.832 1.906 1.832 1.9-1.832 1.907 1.832 1.906-1.832V18.081A4.08 4.08 0 0021.445 14H8.358z" stroke-width="1.5" stroke-linejoin="round" stroke-linecap="round" stroke="#000111" fill="#fff"/><path class="b" d="M21.865 27.585h-9.846M14.874 23.769h-2.855M21.864 23.769h-4.243M14.874 31.401h-2.855M21.864 31.401h-4.243M21.865 19.953h-9.846"/><g transform="translate(16.618 16.905)"><circle cx="8.909" cy="8.909" r="8.909" fill="#f9f9f9"/><circle cx="6.869" cy="6.869" r="6.869" transform="translate(2.087 2.04)" fill="#fddb2b" stroke="#001" stroke-width="1.5" stroke-linejoin="round" stroke-linecap="round"/></g><path d="M23.118 23.722l.651 2.6q.119.469.21.987l.049.287h.014l.049-.308.063-.35q.035-.21.119-.616l.609-2.6h1.106l.679 2.6q.1.385.217 1.078a1.649 1.649 0 01.028.2h.021q.112-.693.259-1.274l.658-2.6h1.043l-1.26 4.6a.65.65 0 01-.7.5.649.649 0 01-.707-.511l-.532-1.989-.042-.189-.047-.21q-.049-.189-.091-.441l-.042-.2q-.014-.084-.021-.154h-.023q-.056.42-.189 1l-.042.182-.525 1.979a.645.645 0 01-.7.511.8.8 0 01-.444-.112.646.646 0 01-.249-.385l-1.274-4.585z" stroke-width=".5" stroke="#111" fill="#111" stroke-linecap="round"/><path stroke="#111" fill="none" stroke-width="1.5" stroke-linecap="round" d="M22.055 26h7"/><g transform="translate(-49.471 -78.348)"><path class="g" d="M84.43 128.252l-2.828-2.829M81.602 128.252l2.828-2.829"/><circle cx="1.5" cy="1.5" r="1.5" transform="translate(50.221 102.739)" stroke-miterlimit="10" stroke="#111" fill="none" stroke-width="1.5"/><circle class="i" cx="1" cy="1" r="1" transform="translate(60.721 100.543)"/><path class="g" d="M64.476 82.795l-2.829-2.828M61.647 82.795l2.829-2.828M97.384 85.484l-2.21-2.21M95.174 85.484l2.21-2.21"/><circle class="i" cx="1" cy="1" r="1" transform="translate(70.294 84.723)"/><circle class="i" cx="1" cy="1" r="1" transform="translate(49.826 81.473)"/><circle class="i" cx="1" cy="1" r="1" transform="translate(86.293 78.348)"/></g></svg>