<svg xmlns="http://www.w3.org/2000/svg" width="52.683" height="15.176" viewBox="0 0 52.683 15.176"><defs><style>.a{fill:#ea002c;}</style></defs><g transform="translate(-161 -232.999)"><path class="a" d="M322.664,355.586l-5.576,12.124a1.017,1.017,0,0,1-.924.592h-1.509l2.15-4.706-4.021-8.01H315.1l2.778,5.9,2.637-5.9Z" transform="translate(-108.98 -120.127)"/><path class="a" d="M238.923,361.669l1.006,1.393a4.355,4.355,0,0,1,1.94-.531V368h1.117a.893.893,0,0,0,.894-.894v-3.778a5.133,5.133,0,0,0,2.951.994,4.33,4.33,0,0,0,4.346-4.5,4.48,4.48,0,0,0-4.334-4.678,4,4,0,0,0-3,1.021v-.884h-1.978v4.738a4.247,4.247,0,0,1,1.893.314c-.08-2.262.97-3.346,2.753-3.346a2.652,2.652,0,0,1,2.717,2.755h0v.012h0a2.509,2.509,0,0,1-2.657,2.695,4.359,4.359,0,0,1-2.115-.91s-2.145-1.756-5.538.126" transform="translate(-58.318 -119.826)"/><path class="a" d="M287.878,355.285v.884a4,4,0,0,0-3-1.021,4.48,4.48,0,0,0-4.334,4.678,4.33,4.33,0,0,0,4.346,4.5,5.133,5.133,0,0,0,2.951-.994v.857h2.01v-8.9Zm-2.676,7.173a2.735,2.735,0,1,1,2.735-2.735,2.735,2.735,0,0,1-2.735,2.735" transform="translate(-86.871 -119.826)"/><path class="a" d="M181.464,352.33c-.938-.439-1.709-.795-1.709-1.51,0-.548.44-.947,1.3-.947a4.424,4.424,0,0,1,.851.087,2.512,2.512,0,0,0,.414.046c.756,0,1.183-.45,1.469-1.308l.117-.348a7.9,7.9,0,0,0-2.968-.592c-2.561,0-3.914,1.644-3.914,3.349a2.87,2.87,0,0,0,.692,1.973,6.147,6.147,0,0,0,2.042,1.4c1.057.519,2.009.9,2.009,1.67,0,.683-.706,1.07-1.646,1.07a5.137,5.137,0,0,1-2.56-.826l-1.059,1.985a7.324,7.324,0,0,0,3.8.971c2.392,0,4.2-1.373,4.2-3.481s-1.679-2.878-3.037-3.536" transform="translate(-15.502 -114.758)"/><path class="a" d="M215.918,348.5h-3.093l-3.459,4.588h-.053V348.5h-2.547v11.266h.15a2.189,2.189,0,0,0,2.413-2.351v-2.585h.054l3.526,4.8h3.243l-4.572-5.809Z" transform="translate(-36.261 -115.268)"/></g></svg>