<svg xmlns="http://www.w3.org/2000/svg" xmlns:xlink="http://www.w3.org/1999/xlink" width="100" height="100" viewBox="0 0 100 100">
  <defs>
    <style>
      .cls-1, .cls-10, .cls-12, .cls-15, .cls-16, .cls-17, .cls-18, .cls-7, .cls-9 {
        fill: none;
      }

      .cls-2 {
        isolation: isolate;
      }

      .cls-3 {
        clip-path: url(#clip-path);
      }

      .cls-4 {
        fill: #f9f9f9;
      }

      .cls-5 {
        fill: #f0f0f0;
      }

      .cls-6 {
        fill: #222;
      }

      .cls-10, .cls-12, .cls-7, .cls-9 {
        stroke: #222;
      }

      .cls-12, .cls-17, .cls-7 {
        stroke-linecap: round;
      }

      .cls-10, .cls-12, .cls-15, .cls-16, .cls-17, .cls-18, .cls-7, .cls-9 {
        stroke-linejoin: round;
      }

      .cls-7 {
        stroke-width: 0.833px;
      }

      .cls-8 {
        fill: #45d49a;
      }

      .cls-9 {
        stroke-width: 0.833px;
      }

      .cls-10 {
        stroke-width: 0.833px;
      }

      .cls-11 {
        fill: #fff;
      }

      .cls-12 {
        stroke-width: 0.833px;
      }

      .cls-13 {
        opacity: 0.2;
      }

      .cls-14 {
        clip-path: url(#clip-path-4);
      }

      .cls-15, .cls-16 {
        stroke: #000001;
      }

      .cls-15 {
        stroke-width: 0.833px;
      }

      .cls-16 {
        stroke-width: 0.833px;
      }

      .cls-17, .cls-18 {
        stroke: #fff;
      }

      .cls-17 {
        stroke-width: 1.667px;
      }

      .cls-18 {
        stroke-linecap: square;
        stroke-width: 1.667px;
      }
    </style>
    <clipPath id="clip-path">
      <rect id="사각형_255019" data-name="사각형 255019" class="cls-1" width="100" height="100"/>
    </clipPath>
    <clipPath id="clip-path-4">
      <rect id="사각형_255017" data-name="사각형 255017" class="cls-1" width="15.313" height="8.206"/>
    </clipPath>
  </defs>
  <g id="null_100x100" transform="translate(50 50)">
    <g id="null_100x100-2" data-name="null_100x100" class="cls-2" transform="translate(-50 -50)">
      <g id="Layer_1" data-name="Layer 1">
        <g id="그룹_335980" data-name="그룹 335980" class="cls-3">
          <g id="그룹_335976" data-name="그룹 335976" class="cls-3">
            <path id="패스_681152" data-name="패스 681152" class="cls-4" d="M50,0A50,50,0,1,1,0,50,50.013,50.013,0,0,1,50,0"/>
            <path id="패스_681153" data-name="패스 681153" class="cls-5" d="M50,100a50,50,0,1,1,50-50,50.066,50.066,0,0,1-50,50M50,1A49,49,0,1,0,99,50,49.053,49.053,0,0,0,50,1"/>
          </g>
          <g id="그룹_335979" data-name="그룹 335979" class="cls-3">
            <path id="패스_681154" data-name="패스 681154" class="cls-6" d="M176.029,254.642c-.4-1.729-1.854-3.458-4.271-4.854-5.312-3.062-13.354-3.4-17.958-.75l-23.9,13.792a5.75,5.75,0,0,0-2.979,3.521,4.229,4.229,0,0,1-.125-1c0-1.687,1.021-3.292,3.1-4.5l23.875-13.792c4.6-2.667,12.646-2.333,17.958.75,3.375,1.958,4.854,4.542,4.271,6.854" transform="translate(-100.383 -194.163)"/>
            <path id="패스_681155" data-name="패스 681155" class="cls-7" d="M176.029,254.642c-.4-1.729-1.854-3.458-4.271-4.854-5.312-3.062-13.354-3.4-17.958-.75l-23.9,13.792a5.75,5.75,0,0,0-2.979,3.521,4.229,4.229,0,0,1-.125-1c0-1.687,1.021-3.292,3.1-4.5l23.875-13.792c4.6-2.667,12.646-2.333,17.958.75C175.133,249.746,176.592,252.329,176.029,254.642Z" transform="translate(-100.383 -194.163)"/>
            <path id="패스_681156" data-name="패스 681156" class="cls-8" d="M176.5,262.084a5.873,5.873,0,0,1-2.979,3.521l-23.9,13.792c-4.6,2.667-12.646,2.333-17.958-.75-2.437-1.4-3.875-3.146-4.271-4.875a5.873,5.873,0,0,1,2.979-3.521l23.875-13.792c4.6-2.667,12.646-2.333,17.958.75,2.438,1.4,3.875,3.146,4.271,4.854" transform="translate(-100.858 -201.604)"/>
            <path id="패스_681157" data-name="패스 681157" class="cls-9" d="M176.5,262.084a5.873,5.873,0,0,1-2.979,3.521l-23.9,13.792c-4.6,2.667-12.646,2.333-17.958-.75-2.437-1.4-3.875-3.146-4.271-4.875a5.873,5.873,0,0,1,2.979-3.521l23.875-13.792c4.6-2.667,12.646-2.333,17.958.75C174.65,258.625,176.087,260.375,176.5,262.084Z" transform="translate(-100.858 -201.604)"/>
            <path id="패스_681158" data-name="패스 681158" class="cls-6" d="M165.632,329.3v2.875c0,1.5-1,3-3,4.146a15.888,15.888,0,0,1-14.375.021c-2-1.146-2.979-2.667-2.958-4.187V329.3" transform="translate(-115.028 -260.696)"/>
            <path id="패스_681159" data-name="패스 681159" class="cls-10" d="M165.632,329.3v2.875c0,1.5-1,3-3,4.146a15.888,15.888,0,0,1-14.375.021c-2-1.146-2.979-2.667-2.958-4.187V329.3" transform="translate(-115.028 -260.696)"/>
            <path id="패스_681160" data-name="패스 681160" class="cls-11" d="M148.31,302.829a15.888,15.888,0,0,1,14.375-.021c3.958,2.292,3.938,6-.042,8.292a15.888,15.888,0,0,1-14.375.021c-3.958-2.292-3.937-6,.042-8.292" transform="translate(-115.039 -238.371)"/>
            <path id="패스_681161" data-name="패스 681161" class="cls-12" d="M148.31,302.829a15.888,15.888,0,0,1,14.375-.021c3.958,2.292,3.938,6-.042,8.292a15.888,15.888,0,0,1-14.375.021C144.31,308.829,144.331,305.142,148.31,302.829Z" transform="translate(-115.039 -238.371)"/>
            <g id="그룹_335978" data-name="그룹 335978" class="cls-13" transform="translate(42.438 59.229)">
              <g id="그룹_335977" data-name="그룹 335977" class="cls-14">
                <path id="패스_681162" data-name="패스 681162" d="M219.013,288.4c0,2.25-3.4,4.083-7.6,4.1-.542-2.4-3.75-4.208-7.6-4.208h-.1c.1-2.208,3.5-4,7.646-4s7.667,1.833,7.667,4.1" transform="translate(-203.7 -284.3)"/>
              </g>
            </g>
            <path id="패스_681163" data-name="패스 681163" class="cls-11" d="M250.486,290.467a5.208,5.208,0,0,1,2.833-.687,5.687,5.687,0,0,1,2.729.771q1.354.771,1.333,1.688a1.816,1.816,0,0,1-1.187,1.521,5.271,5.271,0,0,1-2.833.688,5.688,5.688,0,0,1-2.729-.771q-1.354-.792-1.333-1.687t1.208-1.521m1.083.625q-.9.521-.229,1.229a3.458,3.458,0,0,0,.708.5,3.937,3.937,0,0,0,1.688.563,2.312,2.312,0,0,0,1.333-.292q.9-.521.208-1.229a2.937,2.937,0,0,0-.687-.5,3.958,3.958,0,0,0-1.708-.562,2.292,2.292,0,0,0-1.313.292" transform="translate(-197.361 -229.404)"/>
            <path id="패스_681164" data-name="패스 681164" class="cls-11" d="M274.708,273.862l.583.333q-.083-.792.958-1.4a3.584,3.584,0,0,1,1.854-.5,4.188,4.188,0,0,1,2.063.6l2.9,1.688q.312.188.313.417t-.312.417a1.354,1.354,0,0,1-.708.188,1.4,1.4,0,0,1-.687-.187l-2.812-1.625a1.9,1.9,0,0,0-1.458-.25l-.4.167q-.6.354-.479.833a.521.521,0,0,0,.1.208l3.083,1.771q.313.188.313.417t-.312.417a1.354,1.354,0,0,1-.708.188,1.4,1.4,0,0,1-.687-.187L273.5,274.57Z" transform="translate(-216.521 -215.57)"/>
            <path id="패스_681165" data-name="패스 681165" class="cls-11" d="M209.317,118.017v-3.042c0-5.729-4.9-10.375-10.958-10.375S187.4,109.246,187.4,114.975v3.042" transform="translate(-148.358 -82.808)"/>
            <path id="패스_681166" data-name="패스 681166" class="cls-15" d="M209.317,118.017v-3.042c0-5.729-4.9-10.375-10.958-10.375S187.4,109.246,187.4,114.975v3.042" transform="translate(-148.358 -82.808)"/>
            <path id="패스_681167" data-name="패스 681167" class="cls-8" d="M209.317,126.275c0,5.729-4.9,10.375-10.958,10.375S187.4,132,187.4,126.275s4.917-10.375,10.958-10.375,10.958,4.646,10.958,10.375" transform="translate(-148.358 -91.754)"/>
            <path id="패스_681168" data-name="패스 681168" class="cls-16" d="M209.317,126.275c0,5.729-4.9,10.375-10.958,10.375S187.4,132,187.4,126.275s4.917-10.375,10.958-10.375S209.317,120.546,209.317,126.275Z" transform="translate(-148.358 -91.754)"/>
            <path id="패스_681169" data-name="패스 681169" class="cls-17" d="M225.8,155.929l2.563,2.5,5.229-5.229" transform="translate(-178.758 -121.283)"/>
            <line id="선_93174" data-name="선 93174" class="cls-18" x2="0.729" y2="0.708" transform="translate(46.313 33.938)"/>
          </g>
        </g>
      </g>
    </g>
  </g>
</svg>
