<svg xmlns="http://www.w3.org/2000/svg" width="100" height="100"><defs><clipPath id="a"><path data-name="사각형 59828" transform="translate(138 80)" fill="#d5d5d5" d="M0 0h100v100H0z"/></clipPath><clipPath id="b"><path data-name="사각형 247576" fill="none" d="M0 0h100v100H0z"/></clipPath><clipPath id="c"><path data-name="사각형 247572" fill="none" d="M0 0h59.063v36.731H0z"/></clipPath><clipPath id="d"><path data-name="사각형 247574" fill="none" d="M0 0h10.104v5.412H0z"/></clipPath></defs><g data-name="마스크 그룹 271" transform="translate(-138 -80)" clip-path="url(#a)"><g data-name="그룹 324295"><g data-name="Layer 1"><g data-name="그룹 324294" clip-path="url(#b)" transform="translate(138 80)"><g data-name="그룹 324287" clip-path="url(#b)"><path data-name="패스 643359" d="M50 0A50 50 0 110 50 50.013 50.013 0 0150 0" fill="#f9f9f9"/><path data-name="패스 643360" d="M50 100a50 50 0 1150-50 50.066 50.066 0 01-50 50m0-99a49 49 0 1049 49A49.053 49.053 0 0050 1" fill="#f0f0f0"/></g><g data-name="그룹 324290" clip-path="url(#b)"><path data-name="패스 643361" d="M70.062 45.542a38.934 38.934 0 003.917 1.563c.667.1 1.292 0 1.188-.458s-3.312-2.875-4.792-3.812a60.237 60.237 0 00-6.75-3.729 18.406 18.406 0 00-3.271-1.064s2.938 1.438 4.583 2.479a26.558 26.558 0 014.688 3.729 5.084 5.084 0 01.458 1.292" fill="#141c1e"/><g data-name="그룹 324289"><g data-name="그룹 324288" clip-path="url(#c)" transform="translate(20.667 44.854)" opacity=".15"><path data-name="패스 643362" d="M57.937 10.437c-5.771-3.542-18.1-10.458-18.1-10.458L.646 23.396s-3.187 4.708 4.667 9.125c11.375 6.375 15.563 3.625 15.563 3.625l36.041-20.767s4.063-3.042 1.021-4.917"/></g></g><path data-name="패스 643363" d="M49.48 72.667l-.792.792-.6.375-2.671-4.188 3.563.042z"/><path data-name="패스 643364" d="M47.5 70.791l-2.6-1.5a2.462 2.462 0 00-2.437.25 7.639 7.639 0 00-3.437 5.979 2.408 2.408 0 001.021 2.229l2.6 1.5a2.421 2.421 0 002.417-.25 7.638 7.638 0 003.438-5.979 2.408 2.408 0 00-1.021-2.229" fill="#222"/><path data-name="패스 643365" d="M48.521 73.021A7.638 7.638 0 0145.084 79a2.423 2.423 0 01-2.417.25 2.452 2.452 0 01-1.021-2.229 7.639 7.639 0 013.438-5.979 2.46 2.46 0 012.438-.25 2.408 2.408 0 011.021 2.229" fill="#222"/><path data-name="패스 643366" d="M48.396 73.209a7.034 7.034 0 01-3.187 5.521 1.943 1.943 0 01-3.187-1.854 7.034 7.034 0 013.188-5.521 2.254 2.254 0 012.25-.229 2.221 2.221 0 01.938 2.063" fill="#222"/><path data-name="패스 643367" d="M47.583 73.729a5.083 5.083 0 01-2.312 4.021 1.448 1.448 0 01-2.312-1.354 5.083 5.083 0 012.313-4.021 1.448 1.448 0 012.313 1.354" fill="#fff"/><path data-name="패스 643368" d="M47.5 73.854a4.854 4.854 0 01-2.208 3.833 1.383 1.383 0 01-2.208-1.292 4.854 4.854 0 012.208-3.833 1.383 1.383 0 012.208 1.292" fill="#fff"/><path data-name="패스 643369" d="M46.229 72.292a1.377 1.377 0 011.021 1.5 4.792 4.792 0 01-2.167 3.771 1.521 1.521 0 01-1.333.188 1.482 1.482 0 001.542-.083 4.854 4.854 0 002.208-3.812 1.369 1.369 0 00-1.271-1.542" fill="#ddd"/><path data-name="패스 643370" d="M33.062 51.87c-1.229 1.146-3.208 2.875-3.208 2.875l-3.729 2.583a9.9 9.9 0 00-3.646 4.342 18.1 18.1 0 00-1.667 3.208 12.458 12.458 0 00.25 3.479c-.021.1-.458 1.542 1.188 3.271s5.667 4.021 7.042 4.854 4.5 2.479 7.167 2.6a7.2 7.2 0 003.854-.687v-.042c.521-2.6 1.583-6.083 4.958-7.937 2.271-1.25 4.438-.458 3.438 2.958v.1l20.146-11.9c.438-2.479 2.375-6 4.583-7.271s3.792-.521 3.521 2.521a5.1 5.1 0 00.938-1.479 2.792 2.792 0 00.042-1.771 7.459 7.459 0 000-1.771 6.972 6.972 0 00-.958-1.937 18.344 18.344 0 00-1.021-2.521c-.417-.688-2.083-2.083-5.583-4.4a44.528 44.528 0 00-8.521-4.417 10.73 10.73 0 00-2.375-.479 5.231 5.231 0 00-1.75-.6 1.708 1.708 0 00-1.062.292 58.678 58.678 0 00-7.062 2.771 95.718 95.718 0 00-8.562 4.979c-1.458 1-4.312 3.229-6 4.625h0z" fill="none" stroke="#222" stroke-linejoin="round" stroke-width=".625"/><path data-name="패스 643371" d="M77.813 56.313l-.792.813-.6.354-2.671-4.188 3.563.063z"/><path data-name="패스 643372" d="M75.833 54.437l-2.6-1.5a2.462 2.462 0 00-2.437.25 7.638 7.638 0 00-3.437 5.979 2.408 2.408 0 001.021 2.229l2.6 1.5a2.421 2.421 0 002.417-.25 7.638 7.638 0 003.438-5.979 2.408 2.408 0 00-1.021-2.229" fill="#222"/><path data-name="패스 643373" d="M76.854 56.688a7.671 7.671 0 01-3.437 5.979 2.423 2.423 0 01-2.417.25 2.452 2.452 0 01-1.021-2.229 7.638 7.638 0 013.438-5.979 2.46 2.46 0 012.438-.25 2.408 2.408 0 011.021 2.229" fill="#222"/><path data-name="패스 643374" d="M76.729 56.854a7.034 7.034 0 01-3.187 5.521 1.943 1.943 0 01-3.187-1.854A7.034 7.034 0 0173.543 55a2.254 2.254 0 012.25-.229 2.221 2.221 0 01.938 2.063" fill="#222"/><path data-name="패스 643375" d="M75.917 57.396a5.083 5.083 0 01-2.312 4.021 1.448 1.448 0 01-2.312-1.354 5.083 5.083 0 012.313-4.021 1.448 1.448 0 012.313 1.354" fill="#fff"/><path data-name="패스 643376" d="M75.834 57.5a4.854 4.854 0 01-2.208 3.833 1.383 1.383 0 01-2.208-1.292 4.854 4.854 0 012.208-3.833 1.383 1.383 0 012.208 1.292" fill="#fff"/><path data-name="패스 643377" d="M74.562 55.958a1.377 1.377 0 011.021 1.5 4.792 4.792 0 01-2.167 3.771 1.521 1.521 0 01-1.333.188 1.482 1.482 0 001.542-.083 4.854 4.854 0 002.208-3.833 1.369 1.369 0 00-1.271-1.542" fill="#ddd"/><path data-name="패스 643378" d="M35.021 50.125a1.981 1.981 0 00-.271-.9 1.2 1.2 0 00-1.25 0 1.485 1.485 0 00-.5 1.4 9.113 9.113 0 01.063 1.229" fill="#fff"/><path data-name="패스 643379" d="M35.021 50.125a1.981 1.981 0 00-.271-.9 1.2 1.2 0 00-1.25 0 1.485 1.485 0 00-.5 1.4 9.113 9.113 0 01.063 1.229" fill="none" stroke="#222" stroke-linejoin="round" stroke-width=".625"/><path data-name="패스 643380" d="M33.041 51.895c-1.229 1.146-3.208 2.875-3.208 2.875l-3.729 2.583a9.9 9.9 0 00-3.646 4.333 18.105 18.105 0 00-1.667 3.208 12.459 12.459 0 00.25 3.479c-.021.1-.458 1.542 1.188 3.271s5.667 4.021 7.042 4.854 4.5 2.479 7.146 2.583a7.2 7.2 0 003.854-.687v-.045c.521-2.6 1.583-6.083 4.958-7.937 2.271-1.25 4.438-.458 3.438 2.958v.1l20.146-11.9c.438-2.479 2.375-6 4.583-7.271s3.792-.521 3.521 2.521a5.1 5.1 0 00.938-1.479 2.792 2.792 0 00.042-1.771 7.458 7.458 0 000-1.771 6.972 6.972 0 00-.958-1.937 18.346 18.346 0 00-1.021-2.521c-.417-.687-2.083-2.083-5.583-4.4a45.632 45.632 0 00-8.521-4.437 10.729 10.729 0 00-2.375-.479 5.231 5.231 0 00-1.75-.6 1.708 1.708 0 00-1.062.292 58.676 58.676 0 00-7.062 2.771 96.27 96.27 0 00-8.583 4.979c-1.458 1-4.312 3.229-6 4.625z" fill="#fff"/><path data-name="패스 643381" d="M33.041 51.895c-1.229 1.146-3.208 2.875-3.208 2.875l-3.729 2.583a9.9 9.9 0 00-3.646 4.333 18.105 18.105 0 00-1.667 3.208 12.459 12.459 0 00.25 3.479c-.021.1-.458 1.542 1.188 3.271s5.667 4.021 7.042 4.854 4.5 2.479 7.146 2.583a7.2 7.2 0 003.854-.687v-.045c.521-2.6 1.583-6.083 4.958-7.937 2.271-1.25 4.438-.458 3.438 2.958v.1l20.146-11.9c.438-2.479 2.375-6 4.583-7.271s3.792-.521 3.521 2.521a5.1 5.1 0 00.938-1.479 2.792 2.792 0 00.042-1.771 7.458 7.458 0 000-1.771 6.972 6.972 0 00-.958-1.937 18.346 18.346 0 00-1.021-2.521c-.417-.687-2.083-2.083-5.583-4.4a45.632 45.632 0 00-8.521-4.437 10.729 10.729 0 00-2.375-.479 5.231 5.231 0 00-1.75-.6 1.708 1.708 0 00-1.062.292 58.676 58.676 0 00-7.062 2.771 96.27 96.27 0 00-8.583 4.979c-1.458 1-4.312 3.229-6 4.625h0z" fill="none" stroke="#222" stroke-linejoin="round" stroke-width=".833"/><path data-name="패스 643382" d="M44.229 64.625a3.312 3.312 0 002.458-1.1c.375-.417.813-.917 1.146-1.375.646-.875 3.667-5.917 5.146-8.021a.75.75 0 00-.271-1.1c-1.479-.771-4.646-2.479-6.25-3.479-2.1-1.333-5.458-3.625-5.458-3.625s-5.375 3.979-7.021 5.417-4.125 3.417-4.125 3.417a2.974 2.974 0 00.375 2.75c.958 1.542 3.542 3.4 5.667 4.521 1.75.938 5.5 2.583 8.313 2.6" fill="#222"/><path data-name="패스 643383" d="M33.458 72.109a.417.417 0 01-.042-.792l4.417-1.625c1.479-.521 3.771-1.5 4.479-1.75s1.229-.437 1.083.229a6.57 6.57 0 01-3.646 3.771 8.875 8.875 0 01-6.292.146" fill="#222"/><path data-name="패스 643384" d="M33.458 72.109a.417.417 0 01-.042-.792l4.417-1.625c1.479-.521 3.771-1.5 4.479-1.75s1.229-.437 1.083.229a6.57 6.57 0 01-3.646 3.771 8.988 8.988 0 01-6.291.167z" fill="none" stroke="#222" stroke-miterlimit="10" stroke-width=".625"/><path data-name="패스 643385" d="M26.168 57.313h-.042a10.132 10.132 0 00-3.542 4.083l-.063.125a5.653 5.653 0 00-.312 2.438 4.433 4.433 0 001.208 2.229.188.188 0 00.333-.146 13.4 13.4 0 01-.021-3.771 19.119 19.119 0 012.439-4.979" fill="#222"/><path data-name="패스 643386" d="M26.168 57.312h-.042a10.132 10.132 0 00-3.542 4.083l-.063.125h0a5.653 5.653 0 00-.312 2.438 4.433 4.433 0 001.208 2.229.187.187 0 00.333-.146 13.4 13.4 0 01-.021-3.771 20 20 0 012.439-4.958z" fill="none" stroke="#222" stroke-miterlimit="10" stroke-width=".625"/><path data-name="패스 643387" d="M25.146 72.213a16.719 16.719 0 01-2.271-1.812 6.141 6.141 0 01-1.167-2.75c-.1-.625-.146-1.271.021-1.417s.708.458 1.354 1.063 1.833 1.542 1.833 1.542a3.23 3.23 0 00.875.938 33.961 33.961 0 003.4 2 4.733 4.733 0 002.042.563s1.542.625 2.708 1.021 2.4.6 2.458 1.229-.479 1.021-1.187 1.438a3.913 3.913 0 01-2.9.042 7.147 7.147 0 01-1.729-.729" fill="#222"/><path data-name="패스 643388" d="M68.792 46.834c-.312-.417-4.021.375-6.271 1.458a37.734 37.734 0 00-6.312 4.063c-1.333 1.083-4.875 6.708-5.917 8.4 0 0-1.333 2.188-.9 2.875s1.125.188 1.979-.333l.167-.1a.666.666 0 01.021-.312 21.5 21.5 0 011.854-1.875 1.215 1.215 0 011.292.083l8.875-5.875s3.563-2.875 4.583-4.9.938-3.083.6-3.479" fill="#222"/><path data-name="패스 643389" d="M53.417 61.021a1.238 1.238 0 011.146.021l7.6-5.042c-.271-1.271-1.083-4.771-1.646-6.4a41.146 41.146 0 00-4.208 2.9 31.283 31.283 0 00-3.809 5.125l.208 4.042a5.5 5.5 0 01.708-.646" fill="#222"/><path data-name="패스 643390" d="M51.562 62.896l.813-.875-.292-3.792c-.625.958-1.187 1.875-1.646 2.625s-1.167 2.271-.9 2.729a.458.458 0 00.417.271 3.03 3.03 0 001.187-.542l.188-.1.25-.146v-.125" fill="#222"/><path data-name="패스 643391" d="M68.667 46.938s-.062-.062-.375-.062a17.263 17.263 0 00-5.708 1.563l-.792.417c.354 1 1.292 3.771 1.958 6.042.833-.687 3.438-2.979 4.292-4.646s.938-2.917.625-3.312" fill="#222"/><path data-name="패스 643392" d="M70.017 43.167a63.984 63.984 0 00-6.646-3.75l-2.954-1.021c.688.333 2.958 1.479 4.333 2.354a27.7 27.7 0 014.625 3.688 4.77 4.77 0 01.417 1.167 35.85 35.85 0 003.917 1.5l.417.042a.792.792 0 00.563-.146.146.146 0 00.021-.146c-.1-.375-3.083-2.667-4.667-3.687" fill="#222"/><path data-name="패스 643393" d="M51.247 61.833l2.479-1.125a.646.646 0 01.833.292l.25.521a1.667 1.667 0 01.125 1.25c-.1.354-.333.6-.562.521L53.455 63a3.688 3.688 0 00-1.9-.1h-.021a.542.542 0 01-.292-1.042" fill="#fff"/><path data-name="패스 643394" d="M51.247 61.833l2.479-1.125a.646.646 0 01.833.292l.25.521a1.667 1.667 0 01.125 1.25c-.1.354-.333.6-.562.521L53.455 63a3.688 3.688 0 00-1.9-.1h-.021a.542.542 0 01-.292-1.042z" fill="none" stroke="#222" stroke-miterlimit="10" stroke-width=".625"/><path data-name="패스 643395" d="M26.168 57.312h-.042a10.132 10.132 0 00-3.542 4.083l-.063.125h0a5.653 5.653 0 00-.312 2.438 4.433 4.433 0 001.208 2.229.187.187 0 00.333-.146 13.4 13.4 0 01-.021-3.771 20 20 0 012.439-4.958z" fill="none" stroke="#222" stroke-miterlimit="10" stroke-width=".625"/><path data-name="패스 643396" d="M33.458 72.109a.417.417 0 01-.042-.792l4.417-1.625c1.479-.521 3.771-1.5 4.479-1.75s1.229-.437 1.083.229a6.57 6.57 0 01-3.646 3.771 8.988 8.988 0 01-6.291.167z" fill="none" stroke="#222" stroke-miterlimit="10" stroke-width=".625"/><path data-name="선 89032" fill="#fff" d="M57.188 66.604l12.229-7.229"/><path data-name="선 89033" fill="none" stroke="#222" stroke-linecap="round" stroke-linejoin="round" stroke-width=".625" d="M57.188 66.604l12.229-7.229"/><path data-name="패스 643397" d="M44.5 63.875a42.7 42.7 0 01-8.542-3.812c-3.25-1.958-4.937-3.75-5.646-4.958a1.832 1.832 0 01.188-.292c.021-.021 1.958-1.958 3.583-3.375s5.75-5.1 6.458-5.625c.542.375 3.958 2.667 5.854 3.854 1.583 1 4.75 2.688 6.229 3.479a.625.625 0 01.229.917l-.833 1.229q-2.062 3.188-4.271 6.271a6.042 6.042 0 01-3.229 2.313" fill="#222"/><path data-name="패스 643398" d="M40.667 45.917c.542.375 3.813 2.563 5.708 3.75 1.583 1 4.75 2.688 6.229 3.479a.625.625 0 01.229.917L52 55.313q-2.062 3.188-4.271 6.271a6.042 6.042 0 01-3.229 2.313 42.7 42.7 0 01-8.542-3.813 17.617 17.617 0 01-5.854-5.25" fill="none" stroke="#222" stroke-linecap="round" stroke-linejoin="round" stroke-width=".625"/><path data-name="패스 643399" d="M24.813 70.354a16.313 16.313 0 005.5 3.188" fill="none" stroke="#fff" stroke-linecap="round" stroke-linejoin="round" stroke-width=".625"/><path data-name="패스 643400" d="M53.562 23.729v.021l-.062.042z" fill="#ea002c"/><path data-name="선 89034" fill="#ea002c" d="M53.584 23.729l-.021.021"/><path data-name="선 89035" fill="#ea002c" d="M51.084 37.062h-.021"/></g><g data-name="그룹 324293" clip-path="url(#b)"><path data-name="패스 643401" d="M66.271 27.5a10.859 10.859 0 11-10.855-10.292c5.979 0 10.854 4.6 10.854 10.292" fill="#fff"/><path data-name="패스 643402" d="M66.271 27.5a10.859 10.859 0 11-10.855-10.292c5.98 0 10.855 4.6 10.855 10.292z" fill="none" stroke="#000001" stroke-linejoin="round" stroke-width=".833"/><path data-name="패스 643403" d="M66.271 29.834a10.859 10.859 0 11-10.855-10.292c5.979 0 10.854 4.6 10.854 10.292" fill="#ea002c"/><path data-name="패스 643404" d="M66.271 29.834a10.859 10.859 0 11-10.855-10.292c5.98 0 10.855 4.6 10.855 10.292z" fill="none" stroke="#000001" stroke-linejoin="round" stroke-width=".833"/><path data-name="선 89036" fill="#ea002c" d="M58.021 27.229l-5.188 5.188"/><path data-name="선 89037" fill="none" stroke="#fff" stroke-linecap="round" stroke-linejoin="round" stroke-width="1.667" d="M58.021 27.229l-5.188 5.188"/><path data-name="선 89038" fill="#ea002c" d="M52.833 27.229l5.188 5.188"/><path data-name="선 89039" fill="none" stroke="#fff" stroke-linecap="round" stroke-linejoin="round" stroke-width="1.667" d="M52.833 27.229l5.188 5.188"/><g data-name="그룹 324292"><g data-name="그룹 324291" clip-path="url(#d)" transform="translate(51.042 41.313)" opacity=".2"><path data-name="패스 643405" d="M10.104 2.708c0 1.5-2.271 2.708-5.042 2.708S.02 4.208.02 2.708 2.291 0 5.062 0s5.042 1.208 5.042 2.708"/></g></g></g></g></g></g></g></svg>