<svg xmlns="http://www.w3.org/2000/svg" xmlns:xlink="http://www.w3.org/1999/xlink" width="20" height="20" viewBox="0 0 20 20">
  <defs>
    <style>
      .cls-1, .cls-5, .cls-6, .cls-7 {
        fill: none;
      }

      .cls-2 {
        clip-path: url(#clip-path);
      }

      .cls-3 {
        opacity: 0;
      }

      .cls-4 {
        fill: #ff00f3;
      }

      .cls-5, .cls-6, .cls-7 {
        stroke: #111;
        stroke-width: 1.4px;
      }

      .cls-5 {
        stroke-linecap: square;
        stroke-miterlimit: 10;
      }

      .cls-6 {
        stroke-linecap: round;
      }

      .cls-8 {
        fill: #111;
      }
    </style>
    <clipPath id="clip-path">
      <rect id="사각형_226325" data-name="사각형 226325" class="cls-1" width="20" height="20"/>
    </clipPath>
  </defs>
  <g id="smile_20x20" transform="translate(10 10)">
    <g id="그룹_294457" data-name="그룹 294457" class="cls-2" transform="translate(-10 -10)">
      <g id="그룹_294456" data-name="그룹 294456" class="cls-2">
        <g id="그룹_294455" data-name="그룹 294455" class="cls-3">
          <g id="그룹_294454" data-name="그룹 294454" class="cls-2">
            <rect id="사각형_226322" data-name="사각형 226322" class="cls-4" width="20" height="20"/>
          </g>
        </g>
        <path id="패스_596892" data-name="패스 596892" class="cls-5" d="M10.4,10.7a1.9,1.9,0,0,1-3.7,0"/>
        <line id="선_77315" data-name="선 77315" class="cls-6" y2="0.4" transform="translate(11.5 7.2)"/>
        <line id="선_77316" data-name="선 77316" class="cls-7" y2="1.7" transform="translate(11.5 5.5)"/>
        <line id="선_77317" data-name="선 77317" class="cls-6" y2="0.6" transform="translate(5.8 7)"/>
        <line id="선_77318" data-name="선 77318" class="cls-7" y2="1.5" transform="translate(5.8 5.5)"/>
        <path id="패스_596893" data-name="패스 596893" class="cls-8" d="M10,1.5A8.5,8.5,0,1,1,1.5,10,8.5,8.5,0,0,1,10,1.5M10,0A10,10,0,1,0,20,10,10,10,0,0,0,10,0"/>
      </g>
    </g>
  </g>
</svg>
