<svg xmlns="http://www.w3.org/2000/svg" width="335.001" height="117.997" viewBox="0 0 335.001 117.997"><defs><style>.a{fill:#6257ff;}.b{fill:#fff;opacity:0.633;}.c,.d{stroke:none;}.d{fill:#4538ff;}</style></defs><g transform="translate(-20 -627.001)"><g class="a" transform="translate(-7295 -2898)"><path class="c" d="M 7634.23974609375 3642.497802734375 L 7633.56982421875 3642.497802734375 L 7590.30126953125 3642.497802734375 C 7586.626953125 3642.497802734375 7583.162109375 3640.7392578125 7581.0322265625 3637.793701171875 C 7579.18603515625 3635.23828125 7576.1181640625 3633.71240234375 7572.826171875 3633.71240234375 C 7569.5380859375 3633.71240234375 7566.47119140625 3635.238037109375 7564.62255859375 3637.793701171875 C 7562.49072265625 3640.7392578125 7559.025390625 3642.497802734375 7555.353515625 3642.497802734375 L 7332.49365234375 3642.497802734375 L 7330.76025390625 3642.497802734375 C 7326.67138671875 3642.43603515625 7322.83642578125 3640.796875 7319.96240234375 3637.882080078125 C 7317.08447265625 3634.96337890625 7315.49951171875 3631.0986328125 7315.49951171875 3626.999267578125 L 7315.49951171875 3540.99951171875 C 7315.49951171875 3536.85986328125 7317.11181640625 3532.968017578125 7320.0400390625 3530.04052734375 C 7322.9677734375 3527.113037109375 7326.8603515625 3525.5009765625 7331 3525.5009765625 L 7555.353515625 3525.5009765625 C 7559.025390625 3525.5009765625 7562.49072265625 3527.259521484375 7564.623046875 3530.205322265625 C 7566.47265625 3532.7607421875 7569.53955078125 3534.286376953125 7572.826171875 3534.286376953125 C 7576.11669921875 3534.286376953125 7579.18408203125 3532.7607421875 7581.0322265625 3530.205078125 C 7583.162109375 3527.259521484375 7586.626953125 3525.5009765625 7590.30126953125 3525.5009765625 L 7634 3525.5009765625 C 7638.140625 3525.5009765625 7642.033203125 3527.113037109375 7644.9609375 3530.04052734375 C 7647.88818359375 3532.9677734375 7649.50048828125 3536.85986328125 7649.50048828125 3540.99951171875 L 7649.50048828125 3626.999267578125 C 7649.50048828125 3631.098876953125 7647.916015625 3634.963623046875 7645.03857421875 3637.882080078125 C 7642.16455078125 3640.796875 7638.32958984375 3642.43603515625 7634.23974609375 3642.497802734375 Z"/><path class="d" d="M 7634.23779296875 3641.997802734375 C 7638.193359375 3641.9365234375 7641.90234375 3640.3505859375 7644.6826171875 3637.531005859375 C 7647.466796875 3634.706787109375 7649.00048828125 3630.966552734375 7649.00048828125 3626.999267578125 L 7649.00048828125 3540.99951171875 C 7649.00048828125 3536.993408203125 7647.4404296875 3533.226806640625 7644.607421875 3530.39404296875 C 7641.77392578125 3527.56103515625 7638.0068359375 3526.0009765625 7634 3526.0009765625 L 7590.30126953125 3526.0009765625 C 7586.787109375 3526.0009765625 7583.4736328125 3527.68212890625 7581.4375 3530.498046875 C 7579.49560546875 3533.183349609375 7576.2763671875 3534.786376953125 7572.826171875 3534.786376953125 C 7569.37939453125 3534.786376953125 7566.16162109375 3533.183349609375 7564.2177734375 3530.49853515625 C 7562.17919921875 3527.682373046875 7558.865234375 3526.0009765625 7555.353515625 3526.0009765625 L 7331 3526.0009765625 C 7326.99365234375 3526.0009765625 7323.22705078125 3527.56103515625 7320.3935546875 3530.39404296875 C 7317.56005859375 3533.22705078125 7315.99951171875 3536.99365234375 7315.99951171875 3540.99951171875 L 7315.99951171875 3626.999267578125 C 7315.99951171875 3630.96630859375 7317.533203125 3634.70654296875 7320.318359375 3637.531005859375 C 7323.0986328125 3640.3505859375 7326.80712890625 3641.9365234375 7330.76220703125 3641.997802734375 L 7332.49365234375 3641.997802734375 L 7555.353515625 3641.997802734375 C 7558.865234375 3641.997802734375 7562.17919921875 3640.31640625 7564.2177734375 3637.50048828125 C 7566.15966796875 3634.8154296875 7569.3779296875 3633.21240234375 7572.826171875 3633.21240234375 C 7576.2783203125 3633.21240234375 7579.49755859375 3634.815673828125 7581.4375 3637.500732421875 C 7583.4736328125 3640.316650390625 7586.787109375 3641.997802734375 7590.30126953125 3641.997802734375 L 7633.56982421875 3641.997802734375 L 7634.23779296875 3641.997802734375 M 7634.24462890625 3642.997802734375 C 7634.03173828125 3642.997802734375 7633.8076171875 3642.997802734375 7633.56982421875 3642.997802734375 L 7590.30126953125 3642.997802734375 C 7586.392578125 3642.997802734375 7582.8134765625 3641.110595703125 7580.626953125 3638.086669921875 C 7578.9375 3635.748291015625 7576.07275390625 3634.21240234375 7572.826171875 3634.21240234375 C 7569.57958984375 3634.21240234375 7566.71923828125 3635.748291015625 7565.02783203125 3638.086669921875 C 7562.8388671875 3641.110595703125 7559.26220703125 3642.997802734375 7555.353515625 3642.997802734375 L 7332.49365234375 3642.997802734375 C 7331.82568359375 3642.997802734375 7331.25146484375 3642.997802734375 7330.75537109375 3642.997802734375 C 7322.0322265625 3642.867431640625 7314.99951171875 3635.755126953125 7314.99951171875 3626.999267578125 L 7314.99951171875 3540.99951171875 C 7314.99951171875 3532.1640625 7322.16455078125 3525.0009765625 7331 3525.0009765625 L 7555.353515625 3525.0009765625 C 7559.26220703125 3525.0009765625 7562.8388671875 3526.88818359375 7565.02783203125 3529.912109375 C 7566.71923828125 3532.24853515625 7569.57958984375 3533.786376953125 7572.826171875 3533.786376953125 C 7576.07275390625 3533.786376953125 7578.9375 3532.24853515625 7580.626953125 3529.912109375 C 7582.8134765625 3526.88818359375 7586.392578125 3525.0009765625 7590.30126953125 3525.0009765625 L 7634 3525.0009765625 C 7642.83740234375 3525.0009765625 7650.00048828125 3532.1640625 7650.00048828125 3540.99951171875 L 7650.00048828125 3626.999267578125 C 7650.00048828125 3635.755126953125 7642.9697265625 3642.867431640625 7634.24462890625 3642.997802734375 Z"/></g><path class="b" d="M8.208-.612a.826.826,0,0,0,.24.588.794.794,0,0,0,.6.252.814.814,0,0,0,.606-.252A.815.815,0,0,0,9.9-.612a.809.809,0,0,0-.246-.594.824.824,0,0,0-.606-.246.8.8,0,0,0-.6.246A.82.82,0,0,0,8.208-.612Zm-3.6,0a.826.826,0,0,0,.24.588.794.794,0,0,0,.6.252.814.814,0,0,0,.606-.252A.815.815,0,0,0,6.3-.612a.809.809,0,0,0-.246-.594.824.824,0,0,0-.606-.246.8.8,0,0,0-.6.246A.82.82,0,0,0,4.608-.612Zm-3.6,0a.826.826,0,0,0,.24.588.794.794,0,0,0,.6.252.814.814,0,0,0,.606-.252A.815.815,0,0,0,2.7-.612a.809.809,0,0,0-.246-.594.824.824,0,0,0-.606-.246.8.8,0,0,0-.6.246A.82.82,0,0,0,1.008-.612Zm18.72,0a.826.826,0,0,0,.24.588.794.794,0,0,0,.6.252.814.814,0,0,0,.606-.252.815.815,0,0,0,.246-.588.809.809,0,0,0-.246-.594.824.824,0,0,0-.606-.246.8.8,0,0,0-.6.246A.82.82,0,0,0,19.728-.612Zm-3.6,0a.826.826,0,0,0,.24.588.794.794,0,0,0,.6.252.814.814,0,0,0,.606-.252.815.815,0,0,0,.246-.588.809.809,0,0,0-.246-.594.824.824,0,0,0-.606-.246.8.8,0,0,0-.6.246A.82.82,0,0,0,16.128-.612Zm-3.6,0a.826.826,0,0,0,.24.588.794.794,0,0,0,.6.252.814.814,0,0,0,.606-.252.815.815,0,0,0,.246-.588.809.809,0,0,0-.246-.594.824.824,0,0,0-.606-.246.8.8,0,0,0-.6.246A.82.82,0,0,0,12.528-.612Zm18.72,0a.826.826,0,0,0,.24.588.794.794,0,0,0,.6.252.814.814,0,0,0,.606-.252.815.815,0,0,0,.246-.588.809.809,0,0,0-.246-.594.824.824,0,0,0-.606-.246.8.8,0,0,0-.6.246A.82.82,0,0,0,31.248-.612Zm-3.6,0a.826.826,0,0,0,.24.588.794.794,0,0,0,.6.252.814.814,0,0,0,.606-.252.815.815,0,0,0,.246-.588.809.809,0,0,0-.246-.594.824.824,0,0,0-.606-.246.8.8,0,0,0-.6.246A.82.82,0,0,0,27.648-.612Zm-3.6,0a.826.826,0,0,0,.24.588.794.794,0,0,0,.6.252.814.814,0,0,0,.606-.252.815.815,0,0,0,.246-.588.809.809,0,0,0-.246-.594.824.824,0,0,0-.606-.246.8.8,0,0,0-.6.246A.82.82,0,0,0,24.048-.612Zm18.72,0a.826.826,0,0,0,.24.588.794.794,0,0,0,.6.252.814.814,0,0,0,.606-.252.815.815,0,0,0,.246-.588.809.809,0,0,0-.246-.594.824.824,0,0,0-.606-.246.8.8,0,0,0-.6.246A.82.82,0,0,0,42.768-.612Zm-3.6,0a.826.826,0,0,0,.24.588.794.794,0,0,0,.6.252.814.814,0,0,0,.606-.252.815.815,0,0,0,.246-.588.809.809,0,0,0-.246-.594.824.824,0,0,0-.606-.246.8.8,0,0,0-.6.246A.82.82,0,0,0,39.168-.612Zm-3.6,0a.826.826,0,0,0,.24.588.794.794,0,0,0,.6.252.814.814,0,0,0,.606-.252.815.815,0,0,0,.246-.588.809.809,0,0,0-.246-.594.824.824,0,0,0-.606-.246.8.8,0,0,0-.6.246A.82.82,0,0,0,35.568-.612Zm18.72,0a.826.826,0,0,0,.24.588.794.794,0,0,0,.6.252.814.814,0,0,0,.606-.252.815.815,0,0,0,.246-.588.809.809,0,0,0-.246-.594.824.824,0,0,0-.606-.246.8.8,0,0,0-.6.246A.82.82,0,0,0,54.288-.612Zm-3.6,0a.826.826,0,0,0,.24.588.794.794,0,0,0,.6.252.814.814,0,0,0,.606-.252.815.815,0,0,0,.246-.588.809.809,0,0,0-.246-.594.824.824,0,0,0-.606-.246.8.8,0,0,0-.6.246A.82.82,0,0,0,50.688-.612Zm-3.6,0a.826.826,0,0,0,.24.588.794.794,0,0,0,.6.252.814.814,0,0,0,.606-.252.815.815,0,0,0,.246-.588.809.809,0,0,0-.246-.594.824.824,0,0,0-.606-.246.8.8,0,0,0-.6.246A.82.82,0,0,0,47.088-.612Zm18.72,0a.826.826,0,0,0,.24.588.794.794,0,0,0,.6.252.814.814,0,0,0,.606-.252A.815.815,0,0,0,67.5-.612a.809.809,0,0,0-.246-.594.824.824,0,0,0-.606-.246.8.8,0,0,0-.6.246A.82.82,0,0,0,65.808-.612Zm-3.6,0a.826.826,0,0,0,.24.588.794.794,0,0,0,.6.252.814.814,0,0,0,.606-.252A.815.815,0,0,0,63.9-.612a.809.809,0,0,0-.246-.594.824.824,0,0,0-.606-.246.8.8,0,0,0-.6.246A.82.82,0,0,0,62.208-.612Zm-3.6,0a.826.826,0,0,0,.24.588.794.794,0,0,0,.6.252.814.814,0,0,0,.606-.252A.815.815,0,0,0,60.3-.612a.809.809,0,0,0-.246-.594.824.824,0,0,0-.606-.246.8.8,0,0,0-.6.246A.82.82,0,0,0,58.608-.612Zm11.52,0a.826.826,0,0,0,.24.588.794.794,0,0,0,.6.252.814.814,0,0,0,.606-.252.816.816,0,0,0,.246-.588.809.809,0,0,0-.246-.594.824.824,0,0,0-.606-.246.8.8,0,0,0-.6.246A.82.82,0,0,0,70.128-.612Zm4.308,0a.826.826,0,0,0,.24.588.794.794,0,0,0,.6.252.814.814,0,0,0,.606-.252.816.816,0,0,0,.246-.588.809.809,0,0,0-.246-.594.824.824,0,0,0-.606-.246.8.8,0,0,0-.6.246A.82.82,0,0,0,74.436-.612Zm11.508,0a.826.826,0,0,0,.24.588.794.794,0,0,0,.6.252.814.814,0,0,0,.606-.252.815.815,0,0,0,.246-.588.809.809,0,0,0-.246-.594.824.824,0,0,0-.606-.246.8.8,0,0,0-.6.246A.82.82,0,0,0,85.944-.612Zm-3.6,0a.826.826,0,0,0,.24.588.794.794,0,0,0,.6.252.814.814,0,0,0,.606-.252.815.815,0,0,0,.246-.588.809.809,0,0,0-.246-.594.824.824,0,0,0-.606-.246.8.8,0,0,0-.6.246A.82.82,0,0,0,82.344-.612Zm-3.6,0a.826.826,0,0,0,.24.588.794.794,0,0,0,.6.252.814.814,0,0,0,.606-.252.816.816,0,0,0,.246-.588.809.809,0,0,0-.246-.594.824.824,0,0,0-.606-.246.8.8,0,0,0-.6.246A.82.82,0,0,0,78.744-.612Zm18.72,0a.826.826,0,0,0,.24.588.794.794,0,0,0,.6.252.814.814,0,0,0,.606-.252.815.815,0,0,0,.246-.588.809.809,0,0,0-.246-.594.824.824,0,0,0-.606-.246.8.8,0,0,0-.6.246A.82.82,0,0,0,97.464-.612Zm-3.6,0a.826.826,0,0,0,.24.588.794.794,0,0,0,.6.252.814.814,0,0,0,.606-.252.815.815,0,0,0,.246-.588.809.809,0,0,0-.246-.594.824.824,0,0,0-.606-.246.8.8,0,0,0-.6.246A.82.82,0,0,0,93.864-.612Zm-3.6,0a.826.826,0,0,0,.24.588.794.794,0,0,0,.6.252.814.814,0,0,0,.606-.252.816.816,0,0,0,.246-.588.809.809,0,0,0-.246-.594.824.824,0,0,0-.606-.246.8.8,0,0,0-.6.246A.82.82,0,0,0,90.264-.612Z" transform="translate(277.229 635.992) rotate(90)"/></g></svg>