<svg xmlns="http://www.w3.org/2000/svg" width="335" height="120.001"><defs><style>.cls-1{fill:#493cff}.cls-2{fill:#6257ff}</style></defs><g id="그룹_321973" data-name="그룹 321973" transform="translate(-20 -657.003)"><path id="빼기_24" data-name="빼기 24" class="cls-1" d="M35 129H6a2 2 0 00-2-2v-4a2 2 0 100-4v-4a2 2 0 100-4v-4a2 2 0 000-4v-4a2 2 0 000-4v-4a2 2 0 000-4v-4a2 2 0 000-4v-4a2 2 0 000-4v-4a2 2 0 100-4v-4a2 2 0 100-4v-4a2 2 0 100-4v-4a2 2 0 100-4v-4a2 2 0 100-4v-4a2 2 0 000-4v-4a2 2 0 000-4v-4a2 2 0 002-2h29a9 9 0 1018 0h30a1 1 0 011 1v118a1 1 0 01-1 1H53a9 9 0 10-18 0z" transform="translate(271 648.004)"/><path id="빼기_23" data-name="빼기 23" class="cls-2" d="M35.049 127H7.828A3.006 3.006 0 005 125v-2a3 3 0 000-6v-2a3 3 0 000-6v-2a3 3 0 000-6v-2a3 3 0 000-6v-2a3 3 0 000-6v-2a3 3 0 000-6v-2a3 3 0 000-6v-2a3 3 0 000-6v-2a3 3 0 000-6v-2a3 3 0 000-6v-2a3 3 0 000-6v-2a3 3 0 000-6v-2a3 3 0 000-6v-2a3 3 0 000-6v-2a3.006 3.006 0 002.828-2H35.05a10 10 0 0019.9 0H83a1 1 0 011 1v116a1 1 0 01-1 1H54.95a10 10 0 00-19.9 0z" transform="translate(270 649.004)"/><g id="그룹_321790" data-name="그룹 321790"><path id="빼기_25" data-name="빼기 25" class="cls-1" d="M253.867 124H2a1 1 0 01-1-1V5a1 1 0 011-1h251.867a1.927 1.927 0 00.626 1.414A2.192 2.192 0 00256 6v4a2.073 2.073 0 00-2.134 2A2.072 2.072 0 00256 14v4a2 2 0 100 4v4a2 2 0 100 4v4a2 2 0 100 4v4a2 2 0 100 4v4a2 2 0 100 4v4a2 2 0 100 4v4a2 2 0 100 4v4a2 2 0 100 4v4a2 2 0 100 4v4a2 2 0 100 4v4a2 2 0 100 4v4a2 2 0 100 4v4a2 2 0 100 4v4a2.073 2.073 0 00-2.134 2z" transform="translate(19 653.004)"/><path id="빼기_26" data-name="빼기 26" class="cls-2" d="M236.17 124H-14a1 1 0 01-1-1V7a1 1 0 011-1h250.171A3 3 0 00239 8v2a3 3 0 100 6v2a3 3 0 100 6v2a3 3 0 100 6v2a3 3 0 100 6v2a3 3 0 100 6v2a3 3 0 100 6v2a3 3 0 100 6v2a3 3 0 100 6v2a3 3 0 100 6v2a3 3 0 100 6v2a3 3 0 100 6v2a3 3 0 100 6v2a3 3 0 100 6v2a3 3 0 100 6v2a3.006 3.006 0 00-2.83 2z" transform="translate(36 652.004)"/></g></g></svg>