<svg xmlns="http://www.w3.org/2000/svg" xmlns:xlink="http://www.w3.org/1999/xlink" width="80" height="30" viewBox="0 0 80 30">
  <defs>
    <clipPath id="clip-path">
      <rect id="사각형_422510" data-name="사각형 422510" width="80" height="30" transform="translate(734.667 344.895)" fill="#fff" stroke="#707070" stroke-width="1" opacity="0.072"/>
    </clipPath>
  </defs>
  <g id="마스크_그룹_422680" data-name="마스크 그룹 422680" transform="translate(-734.667 -344.895)" clip-path="url(#clip-path)">
    <g id="그룹_583336" data-name="그룹 583336">
      <g id="그룹_583332" data-name="그룹 583332" transform="translate(734.705 365.255)">
        <path id="패스_1455660" data-name="패스 1455660" d="M739.35,421.433a1.6,1.6,0,0,0-1.33-.73,1.056,1.056,0,0,0-1.083,1c0,1.495,3.518.871,3.518,3.847a2.8,2.8,0,0,1-2.917,3.036,3.144,3.144,0,0,1-2.73-1.729l1.118-1.095a1.822,1.822,0,0,0,1.6,1.295,1.186,1.186,0,0,0,1.141-1.283c0-.919-.847-1.177-1.542-1.447-1.141-.471-1.977-1.047-1.977-2.424a2.582,2.582,0,0,1,2.589-2.659,3.638,3.638,0,0,1,2.423.988Z" transform="translate(-734.808 -419.245)" fill="#fff"/>
        <path id="패스_1455661" data-name="패스 1455661" d="M780.7,421.624v1.953h2.753v1.506H780.7v2.4h2.859v1.505h-4.588v-8.871h4.588v1.505Z" transform="translate(-767.068 -419.883)" fill="#fff"/>
        <path id="패스_1455662" data-name="패스 1455662" d="M826.126,428.99h-2.095l-2.154-3.577h-.023v3.577h-1.73v-8.871h2.342c1.753,0,2.965.776,2.965,2.671a2.345,2.345,0,0,1-1.812,2.459Zm-4.271-4.788h.223c.954,0,1.624-.282,1.624-1.365s-.693-1.306-1.612-1.306h-.235Z" transform="translate(-797.123 -419.883)" fill="#fff"/>
        <path id="패스_1455663" data-name="패스 1455663" d="M865.358,426.1h.023l1.976-5.977h1.86l-3.447,9.106h-1.012l-3.389-9.106h1.859Z" transform="translate(-827.248 -419.883)" fill="#fff"/>
        <path id="패스_1455664" data-name="패스 1455664" d="M913.811,428.99h-1.729v-8.871h1.729Z" transform="translate(-864.289 -419.883)" fill="#fff"/>
        <path id="패스_1455665" data-name="패스 1455665" d="M947.8,421.833a2.559,2.559,0,0,0-1.953-.941,3.057,3.057,0,0,0-.012,6.048A2.706,2.706,0,0,0,947.8,426v2.059a4.665,4.665,0,0,1-2.012.529,4.682,4.682,0,0,1,.036-9.342,4.124,4.124,0,0,1,1.976.518Z" transform="translate(-885.739 -419.245)" fill="#fff"/>
        <path id="패스_1455666" data-name="패스 1455666" d="M990.838,421.624v1.953h2.753v1.506h-2.753v2.4H993.7v1.505h-4.589v-8.871H993.7v1.505Z" transform="translate(-920.548 -419.883)" fill="#fff"/>
      </g>
      <g id="그룹_583334" data-name="그룹 583334" transform="translate(734.667 345.327)">
        <path id="패스_1455667" data-name="패스 1455667" d="M1004.978,348.082a1.773,1.773,0,1,0,1.777-1.755,1.762,1.762,0,0,0-1.777,1.755Zm.32,0a1.454,1.454,0,1,1,1.457,1.514,1.452,1.452,0,0,1-1.457-1.514Zm.769,1.038h.32v-.887h.339l.562.887h.344l-.59-.91a.531.531,0,0,0,.543-.561c0-.4-.231-.589-.722-.589h-.8v2.061Zm.32-1.8h.425c.217,0,.453.043.453.316,0,.325-.259.339-.543.339h-.335v-.655Z" transform="translate(-932.102 -346.057)" fill="#d9000d" fill-rule="evenodd"/>
        <g id="그룹_583333" data-name="그룹 583333">
          <path id="패스_1455668" data-name="패스 1455668" d="M744.071,351.531c-2.144-.587-4.309-.817-4.394-1.886,0-.839,1.04-1.006,1.677-1.006a2.441,2.441,0,0,1,1.379.377,1.14,1.14,0,0,1,.552,1.195H747.7c-.128-3.647-3.036-4.884-6.326-4.884-3.121,0-6.114,1.488-6.114,4.947,0,3.018,2.738,3.667,5.137,4.338,2.611.733,3.269.943,3.269,1.718,0,1.112-1.168,1.362-1.932,1.362-.87,0-1.889-.188-2.228-1.089a2.727,2.727,0,0,1-.17-.985h-4.67c.042,4.779,4.946,5.386,6.666,5.386,3.375,0,7.005-1.257,7.005-5.156C748.338,353.1,746.215,352.118,744.071,351.531Z" transform="translate(-734.667 -345.327)" fill="#d9000d"/>
          <path id="패스_1455669" data-name="패스 1455669" d="M794.394,345.327c-4.607,0-7.685,3.27-7.685,7.839s3.078,7.839,7.685,7.839,7.685-3.27,7.685-7.839S799,345.327,794.394,345.327Zm0,11.947c-1.19,0-3.015-.775-3.015-4.108s1.825-4.108,3.015-4.108,3.014.775,3.014,4.108S795.582,357.274,794.394,357.274Z" transform="translate(-772.678 -345.327)" fill="#d9000d"/>
          <path id="패스_1455670" data-name="패스 1455670" d="M856.551,354.657h-.042l-4.416-8.007h-4.777v14.966h4.415v-8.175h.043l4.649,8.175h4.543V346.65h-4.416Z" transform="translate(-816.946 -346.294)" fill="#d9000d"/>
          <path id="패스_1455671" data-name="패스 1455671" d="M921.992,353.692l4.86-7.042h-5.179l-2.25,4.066-2.293-4.066h-5.477l4.989,7-3.8,5.531-4.622-12.531h-4.564l-5.583,14.966h4.692l.679-2.138h4.819l.637,2.138h7.618l2.675-4.465,2.59,4.465H927.4Zm-17.532,2.579,1.465-4.612h.042l1.359,4.612Z" transform="translate(-854.016 -346.293)" fill="#d9000d"/>
        </g>
      </g>
    </g>
  </g>
</svg>
