<svg xmlns="http://www.w3.org/2000/svg" xmlns:xlink="http://www.w3.org/1999/xlink" width="62" height="62" viewBox="0 0 62 62">
  <defs>
    <clipPath id="clip-path">
      <rect id="사각형_299358" data-name="사각형 299358" width="40.622" height="28.392" fill="none"/>
    </clipPath>
  </defs>
  <g id="logo" transform="translate(-219 -161)">
    <g id="W_100_H_100" data-name="W 100 H 100" transform="translate(219 161)" fill="#f9f9f9" stroke="#f0f0f0" stroke-width="1" opacity="0">
      <rect width="62" height="62" stroke="none"/>
      <rect x="0.5" y="0.5" width="61" height="61" fill="none"/>
    </g>
    <g id="그룹_390303" data-name="그룹 390303" transform="translate(229.463 178.849)">
      <g id="그룹_390302" data-name="그룹 390302" clip-path="url(#clip-path)">
        <path id="패스_787715" data-name="패스 787715" d="M38.695,1.066S28.758,1.01,27.906,9.584c0,0-.738,8.007,10.959,8.347,0,0,6.077.113,8.858-2.783h2.272s-1.931,3.18-9.086,3.8c0,0-10.562,1.306-14.2-5.736,0,0-3.634-6.36,3.974-11.186,0,0,4.372-3.01,12.152-1.7,0,0,2.012.159.681,1.817l-6.3,8.915s-.965,1.419,1.59,1.306H48.973s.965.113,1.079-1.477c0,0,1.874-5.735-5.395-9.2l.511-.738s6.587,2.214,7.041,7.722c0,0,.341,3.918-1.419,5.338a1.5,1.5,0,0,1-1.307.511H37.673s-3.5.139-4.486-1.362c0,0-1.192-.965.682-3.748l5.395-7.5s1.136-.965-.568-.852" transform="translate(-18.847 0)" fill="#231815"/>
        <path id="패스_787716" data-name="패스 787716" d="M40.582,88.761c-.2-1.137-2.287-1.108-2.287-1.108H34.261A1.388,1.388,0,0,1,35.3,86.645h4.887V85.593H34.63c-2.33.029-2.557,3.112-2.557,3.112H38.1c.469,0,.426.525.426.525a.41.41,0,0,1-.426.44H31.591V85.611H29.659V89.7H26.278c-1.022,0-.994-.8-.994-.8V85.6H22.1L19.46,87.283l-2.3-1.648h-7.5a3.441,3.441,0,0,0-2.925,2.5H8.069A2.469,2.469,0,0,0,6.96,89.585H2.955c-1.165.057-1.108-.88-1.108-.88V85.636H0v3.239c0,1.92,2.387,1.931,2.387,1.931H16.236l2.656-1.874L21.317,90.8h2.869l-3.76-2.865L23.352,86.2v2.94c0,1.579,2.415,1.64,2.415,1.64H38.512a2.345,2.345,0,0,0,1.672-.617,1.466,1.466,0,0,0,.4-1.406m-24.815.8H9.233a1.132,1.132,0,0,1,1.051-.938h4.2V87.483H9.2c.085-.739.966-.853.966-.853h4.773v-.511L17.9,88.25Z" transform="translate(0 -62.413)" fill="#231815"/>
      </g>
    </g>
  </g>
</svg>
