<svg id="그룹_422778" data-name="그룹 422778" xmlns="http://www.w3.org/2000/svg" width="117" height="38" viewBox="0 0 117 38">
  <rect id="사각형_318401" data-name="사각형 318401" width="117" height="38" fill="#fff" opacity="0.005"/>
  <g id="그룹_422780" data-name="그룹 422780" transform="translate(0.06 0.989)">
    <g id="그룹_422776" data-name="그룹 422776" transform="translate(42.625 5.543)">
      <path id="패스_840249" data-name="패스 840249" d="M409.953,296.374v-6.388c0-2.068-.687-3.5-2.03-4.264a7.823,7.823,0,0,0-4.459-1.164,5.623,5.623,0,0,0-4.551,1.706,6.852,6.852,0,0,0-1.42,4.492,6.292,6.292,0,0,0,1.069,3.818,5.449,5.449,0,0,0,2.562,1.981,5.509,5.509,0,0,0,3.008.22,3.8,3.8,0,0,0,2.395-1.544l.178-.251v1.073a3.583,3.583,0,0,1-.809,2.238,2.893,2.893,0,0,1-1.576.915,3.446,3.446,0,0,1-.548.049,3.035,3.035,0,0,1-1.172-.24,2.613,2.613,0,0,1-1.26-.966h-3.52c.754,2.463,2.654,3.706,5.643,3.706a9.118,9.118,0,0,0,4.459-1.138C409.267,299.865,409.953,298.439,409.953,296.374Zm-3.35-4.447a3.294,3.294,0,0,1-.681,1.609,2.707,2.707,0,0,1-2.2.947,5.2,5.2,0,0,1-.876-.079c-1.393-.232-2.1-1.431-2.1-3.552a5.492,5.492,0,0,1,.618-2.63,2.5,2.5,0,0,1,2.415-1.18,2.44,2.44,0,0,1,2,.849,4.085,4.085,0,0,1,.855,1.9A6,6,0,0,1,406.6,291.927Z" transform="translate(-397.493 -281.297)" fill="#fff"/>
      <path id="패스_840250" data-name="패스 840250" d="M419.988,286.2a4.831,4.831,0,0,0-1.162,2,8.089,8.089,0,0,0-.377,2.417,9.211,9.211,0,0,0,.449,2.847,4.407,4.407,0,0,0,1.487,2.153,6.176,6.176,0,0,0,2.668,1.137,7.586,7.586,0,0,0,3.323-.07,5.04,5.04,0,0,0,3.035-1.825,5.876,5.876,0,0,0,.891-1.735,7.53,7.53,0,0,0,.354-2.459,6.842,6.842,0,0,0-.846-3.444,4.924,4.924,0,0,0-2.782-2.311,7.939,7.939,0,0,0-2.449-.364,10.12,10.12,0,0,0-1.255.076A5.4,5.4,0,0,0,419.988,286.2Zm2.7,1.453a3.152,3.152,0,0,1,2.732-.523,2.728,2.728,0,0,1,1.4,1.081,4.323,4.323,0,0,1,.593,2.5,4.747,4.747,0,0,1-.671,2.683,2.709,2.709,0,0,1-1.448,1.056,2.994,2.994,0,0,1-.731.089,2.734,2.734,0,0,1-.87-.138,2.377,2.377,0,0,1-1.105-.641,4.652,4.652,0,0,1-.882-2.934A3.987,3.987,0,0,1,422.686,287.652Z" transform="translate(-404.547 -281.292)" fill="#fff"/>
      <path id="패스_840251" data-name="패스 840251" d="M463.487,293.16h-2.4a1.464,1.464,0,0,0-.85.2,2.22,2.22,0,0,0-.385.345l-.015.015-.276.252a1.037,1.037,0,0,1-.3.177,3.324,3.324,0,0,1-1.509.317,2.632,2.632,0,0,1-2.05-.752,4.045,4.045,0,0,1-.934-3.007,4.212,4.212,0,0,1,.938-3.054,2.747,2.747,0,0,1,1.9-.665,2.678,2.678,0,0,1,1.936.665,2.594,2.594,0,0,1,.5.653h3.359a6.046,6.046,0,0,0-1.263-2.157,6.391,6.391,0,0,0-4.634-1.594,5.882,5.882,0,0,0-4.433,1.645,6.2,6.2,0,0,0-1.546,4.463,6.268,6.268,0,0,0,1.593,4.6,5.908,5.908,0,0,0,4.434,1.649,6.951,6.951,0,0,0,3.9-1.024A4.878,4.878,0,0,0,463.487,293.16Z" transform="translate(-415.678 -281.297)" fill="#fff"/>
      <path id="패스_840252" data-name="패스 840252" d="M478,285.43a2.636,2.636,0,0,1,2.156.986,3.147,3.147,0,0,1,.6,1.192,5.725,5.725,0,0,1,.128,1.27v6.152h3.2V288.1a4.965,4.965,0,0,0-.941-3.2,5.372,5.372,0,0,0-5.473-1.872,3.953,3.953,0,0,0-2.52,1.682l-.18.269v-3.9a1.32,1.32,0,0,0-.478-1.021,1.676,1.676,0,0,0-1.144-.423h-1.627v15.389h3.249v-6.11a3.876,3.876,0,0,1,.781-2.551A2.8,2.8,0,0,1,478,285.43Z" transform="translate(-422.48 -279.642)" fill="#fff"/>
      <path id="패스_840253" data-name="패스 840253" d="M502.568,294.755a4.669,4.669,0,0,0,.722-2.775v-4.12a2.764,2.764,0,0,0-1.43-2.459,8.3,8.3,0,0,0-4.2-.843,6.276,6.276,0,0,0-3.835,1.019,3.344,3.344,0,0,0-1.367,2.143h3.215a1.438,1.438,0,0,1,.844-.675,4.921,4.921,0,0,1,2.768.02.975.975,0,0,1,.852.972c0,.667-.754,1.083-2.315,1.274a7.707,7.707,0,0,0-.8.115,3.579,3.579,0,0,1-.616.068,7.485,7.485,0,0,0-3.115,1.073A2.913,2.913,0,0,0,492.1,293.2a3.151,3.151,0,0,0,1.313,2.842,5.69,5.69,0,0,0,3.136.869c.6,0,1.3-.04,2.091-.113a6.665,6.665,0,0,0,2.218-.6A4.233,4.233,0,0,0,502.568,294.755Zm-2.376-2.91a2.624,2.624,0,0,1-.847,2.06,3.33,3.33,0,0,1-2.293.747,2.2,2.2,0,0,1-1.379-.382,1.5,1.5,0,0,1-.492-1.157,1.811,1.811,0,0,1,.374-1.048l.016-.02a3.293,3.293,0,0,1,1.362-.608l1.167-.224a10.138,10.138,0,0,0,1.954-.588l.137-.056Z" transform="translate(-429.338 -281.297)" fill="#fff"/>
      <path id="패스_840254" data-name="패스 840254" d="M441.213,293.829a6.3,6.3,0,0,0,2.156.977,10.443,10.443,0,0,0,2.569.314h.216v-2.672h-.864c-1.152,0-2.871-.586-2.871-2.208v-4.47h1.688a1.731,1.731,0,0,0,1.156-.406,1.307,1.307,0,0,0,.472-1.038V283.3h-3.316v-2.216a1.314,1.314,0,0,0-.47-1.021,1.614,1.614,0,0,0-1.095-.423h-1.722v9.37a6.947,6.947,0,0,0,.552,2.923A4.956,4.956,0,0,0,441.213,293.829Z" transform="translate(-411.509 -279.642)" fill="#fff"/>
    </g>
    <g id="그룹_422777" data-name="그룹 422777" transform="translate(60.447 24.312)">
      <path id="패스_840255" data-name="패스 840255" d="M427.484,313.989h-.33l-1.486-3.516q-.309-.727-.617-1.58h-.035q.06,1.227.062,2.25v2.846h-.719V308.1H425.4l1.388,3.331c.16.381.333.84.525,1.377h.022q.316-.893.525-1.377l1.388-3.331h1.036v5.888h-.718v-2.846q0-1,.06-2.25h-.034q-.326.9-.617,1.58Z" transform="translate(-424.359 -307.99)" fill="#fff"/>
      <path id="패스_840256" data-name="패스 840256" d="M438.986,313.342h3.022v.647h-3.743V308.1h3.581v.647h-2.861v1.9h2.542v.647h-2.542Z" transform="translate(-429.04 -307.99)" fill="#fff"/>
      <path id="패스_840257" data-name="패스 840257" d="M451.619,313.989h-.332l-1.485-3.516c-.206-.485-.411-1.011-.617-1.58h-.035q.061,1.227.061,2.25v2.846h-.718V308.1h1.037l1.387,3.331q.238.571.523,1.377h.024q.318-.893.525-1.377l1.387-3.331h1.037v5.888h-.719v-2.846q0-1,.062-2.25h-.035q-.326.9-.618,1.58Z" transform="translate(-432.483 -307.99)" fill="#fff"/>
      <path id="패스_840258" data-name="패스 840258" d="M465.268,310.944a1.692,1.692,0,0,1,.49.145,1.252,1.252,0,0,1,.375.271,1.136,1.136,0,0,1,.24.391,1.489,1.489,0,0,1,.084.517,1.694,1.694,0,0,1-.061.433,1.468,1.468,0,0,1-.2.44,1.679,1.679,0,0,1-.37.394,1.877,1.877,0,0,1-.569.294,2.748,2.748,0,0,1-.581.124,7.318,7.318,0,0,1-.763.035H462.4V308.1h1.457c.133,0,.253,0,.364.007s.209.011.3.02.176.019.253.032.153.029.223.047a2.055,2.055,0,0,1,.5.2,1.489,1.489,0,0,1,.381.31,1.327,1.327,0,0,1,.241.41,1.408,1.408,0,0,1,.086.5,1.665,1.665,0,0,1-.051.414,1.132,1.132,0,0,1-.164.365,1.159,1.159,0,0,1-.29.3,1.624,1.624,0,0,1-.433.22Zm-1.055-.295a3.031,3.031,0,0,0,.366-.019,1.563,1.563,0,0,0,.277-.06.882.882,0,0,0,.483-.343.977.977,0,0,0,.152-.551.849.849,0,0,0-.159-.533.953.953,0,0,0-.5-.308,2.073,2.073,0,0,0-.387-.068c-.147-.013-.318-.019-.519-.019h-.807v1.9Zm-1.094.647v2.047h.868a5.52,5.52,0,0,0,.574-.029,2.149,2.149,0,0,0,.45-.091,1.193,1.193,0,0,0,.343-.169.935.935,0,0,0,.227-.228.859.859,0,0,0,.123-.267,1.061,1.061,0,0,0,.037-.286,1.125,1.125,0,0,0-.04-.314.772.772,0,0,0-.128-.264.871.871,0,0,0-.238-.205,1.313,1.313,0,0,0-.369-.137,2.134,2.134,0,0,0-.3-.043c-.112-.009-.252-.013-.419-.013Z" transform="translate(-437.164 -307.99)" fill="#fff"/>
      <path id="패스_840259" data-name="패스 840259" d="M473.919,313.342h3.024v.647H473.2V308.1h3.579v.647h-2.861v1.9h2.543v.647h-2.543Z" transform="translate(-440.8 -307.99)" fill="#fff"/>
      <path id="패스_840260" data-name="패스 840260" d="M484.144,311.551v2.438h-.718V308.1h1.527a6.583,6.583,0,0,1,.66.028,3.488,3.488,0,0,1,.495.09,1.756,1.756,0,0,1,.942.571,1.551,1.551,0,0,1,.326,1.006,1.653,1.653,0,0,1-.115.638,1.471,1.471,0,0,1-.321.489,1.706,1.706,0,0,1-.5.338,2.571,2.571,0,0,1-.642.194v.018l1.747,2.517h-.72l-1.816-2.438Zm0-2.8V310.9h.71c.222,0,.409-.008.565-.022a2.051,2.051,0,0,0,.419-.079,1.149,1.149,0,0,0,.577-.365,1.013,1.013,0,0,0,.2-.655.95.95,0,0,0-.193-.61,1.041,1.041,0,0,0-.525-.332,1.952,1.952,0,0,0-.379-.071c-.145-.015-.334-.022-.56-.022Z" transform="translate(-444.242 -307.99)" fill="#fff"/>
      <path id="패스_840261" data-name="패스 840261" d="M494.351,309.6a.807.807,0,0,0,.1.429.889.889,0,0,0,.284.28,1.738,1.738,0,0,0,.413.18c.157.046.32.09.49.131.228.056.453.118.675.184a2.173,2.173,0,0,1,.591.28,1.345,1.345,0,0,1,.42.465,1.478,1.478,0,0,1,.161.733,1.689,1.689,0,0,1-.174.791,1.5,1.5,0,0,1-.481.545,2.111,2.111,0,0,1-.725.316,3.74,3.74,0,0,1-.916.1,3.948,3.948,0,0,1-.47-.029c-.161-.02-.312-.045-.459-.078a3.358,3.358,0,0,1-.393-.11,1.522,1.522,0,0,1-.279-.122v-.656a2.685,2.685,0,0,0,.357.144c.133.044.269.081.409.112s.284.056.428.073a3.314,3.314,0,0,0,1-.026,1.522,1.522,0,0,0,.49-.176.923.923,0,0,0,.336-.337,1.052,1.052,0,0,0,.123-.535.816.816,0,0,0-.108-.435.906.906,0,0,0-.289-.284,1.737,1.737,0,0,0-.417-.182c-.159-.046-.322-.091-.495-.132q-.344-.079-.673-.179a2.08,2.08,0,0,1-.587-.274,1.346,1.346,0,0,1-.414-.453,1.439,1.439,0,0,1-.157-.709,1.661,1.661,0,0,1,.166-.772,1.51,1.51,0,0,1,.445-.535,1.9,1.9,0,0,1,.646-.312,2.908,2.908,0,0,1,.781-.1,4.049,4.049,0,0,1,.878.09,4.24,4.24,0,0,1,.748.235v.665a5.112,5.112,0,0,0-.755-.25,3.572,3.572,0,0,0-.836-.1,2.093,2.093,0,0,0-.582.073,1.119,1.119,0,0,0-.409.207.814.814,0,0,0-.244.326A1.093,1.093,0,0,0,494.351,309.6Z" transform="translate(-447.664 -307.934)" fill="#fff"/>
    </g>
    <path id="패스_840262" data-name="패스 840262" d="M350.556,286.59a4.547,4.547,0,1,0,4.75,4.543A4.655,4.655,0,0,0,350.556,286.59Z" transform="translate(-337.47 -276.438)" fill="#fff"/>
    <path id="패스_840263" data-name="패스 840263" d="M351.994,271.286c-10.359,0-18.755,8.031-18.755,17.938s8.4,17.939,18.755,17.939,18.751-8.031,18.751-17.939S362.349,271.286,351.994,271.286Zm-5.668,31.521a8.128,8.128,0,0,1-8.291-7.929h3.542a4.754,4.754,0,0,0,9.5,0h3.541A8.127,8.127,0,0,1,346.326,302.807Zm8.431-22.659c-1.105,0-1.421,1.142-1.494,1.5a7.636,7.636,0,0,1,1.354,4.33,8.3,8.3,0,1,1-8.291-7.928,8.521,8.521,0,0,1,4.191,1.1,4.757,4.757,0,0,1,4.24-2.39Zm10.034,1.735a4.546,4.546,0,1,0,0,9.084v3.389a7.938,7.938,0,1,1,0-15.86Z" transform="translate(-333.239 -271.286)" fill="#fff"/>
  </g>
</svg>
