<svg xmlns="http://www.w3.org/2000/svg" width="146" height="25" viewBox="0 0 146 25">
  <defs>
    <style>
      .cls-1 {
        fill: #1a1919;
      }

      .cls-2 {
        fill: #1b1a1a;
      }

      .cls-3 {
        fill: #1e1d1d;
      }

      .cls-4 {
        font-size: 18px;
        font-family: MoebiusKorea-Regular, Moebius Korea;
      }

      .cls-5 {
        fill: #ec6300;
      }

      .cls-6 {
        fill: #da0026;
      }

      .cls-7 {
        fill: #ccc;
      }
    </style>
  </defs>
  <g id="_Navigation" data-name="#Navigation" transform="translate(-25 -16)">
    <g id="그룹_277886" data-name="그룹 277886">
      <g id="그룹_17582" data-name="그룹 17582" transform="translate(82 -29.174)">
        <path id="패스_44214" data-name="패스 44214" class="cls-1" d="M337.219,482.48c0,.837,0,1.675,0,2.512.006.894.091,1.848-1.2,1.908-.938.044-1.261-.479-1.262-1.969s0-2.969,0-4.453c0-1.888-.664-2.781-2.077-2.8s-2.135.906-2.135,2.742c0,1.637-.017,3.273.006,4.91.013.866-.185,1.55-1.2,1.563-1.079.013-1.3-.713-1.293-1.614q.017-2.626,0-5.252c-.008-1.5-.741-2.329-2.043-2.346-1.331-.017-2.127.868-2.133,2.39-.006,1.789-.016,3.578,0,5.366.01.849-.275,1.438-1.2,1.458-.984.022-1.311-.593-1.308-1.483.006-1.9-.032-3.807.01-5.709a4.42,4.42,0,0,1,2.44-3.981,4.186,4.186,0,0,1,4.648.227,1.226,1.226,0,0,0,1.709-.019,4.2,4.2,0,0,1,4.651-.193,4.347,4.347,0,0,1,2.386,4C337.221,480.653,337.22,481.566,337.219,482.48Z" transform="translate(-291.364 -421.724)"/>
        <path id="패스_44215" data-name="패스 44215" class="cls-1" d="M382.687,476.977c0-1.484-.034-2.968.005-4.451a4.555,4.555,0,0,1,6.175-4.1c.748.306,1.42.744,1.081,1.7-.325.916-1.048.993-1.872.68a2.006,2.006,0,0,0-1.962.15c-.551.386-1.059.948-.86,1.606.165.545.861.207,1.318.253.567.057,1.145,0,1.711.061a1.12,1.12,0,0,1,1.1,1.321,1.105,1.105,0,0,1-1.211,1.1c-.724,0-1.451.046-2.173,0-.661-.046-.846.2-.832.84.039,1.825-.006,3.652.022,5.478.014.908-.3,1.512-1.276,1.5-.914-.012-1.23-.619-1.228-1.455Q382.692,479.317,382.687,476.977Z" transform="translate(-324.476 -417.931)"/>
        <path id="패스_44216" data-name="패스 44216" class="cls-1" d="M425.33,484.9c0-.647-.008-1.294,0-1.941a4.547,4.547,0,0,1,4.482-4.541,4.608,4.608,0,0,1,4.673,4.375c.055,1.482.009,2.969.01,4.453,0,.842-.338,1.428-1.251,1.43s-1.263-.536-1.249-1.41c.022-1.332.012-2.664,0-4-.009-1.461-.78-2.329-2.069-2.351a2.036,2.036,0,0,0-2.117,2.288c-.014,1.332,0,2.665,0,4,0,.889-.329,1.5-1.321,1.466-.947-.033-1.186-.657-1.163-1.486C425.347,486.425,425.33,485.663,425.33,484.9Z" transform="translate(-345.512 -423.5)"/>
        <path id="패스_44217" data-name="패스 44217" class="cls-1" d="M368.449,482.344c0,.647.011,1.295,0,1.941a4.562,4.562,0,0,1-4.524,4.5,4.609,4.609,0,0,1-4.625-4.307c-.072-1.519-.018-3.044-.012-4.567,0-.848.373-1.406,1.289-1.388s1.22.6,1.205,1.45q-.035,2.055,0,4.11a2.1,2.1,0,1,0,4.191-.022c.023-1.37.007-2.741,0-4.111,0-.842.315-1.425,1.244-1.427s1.253.56,1.235,1.418C368.435,480.746,368.449,481.545,368.449,482.344Z" transform="translate(-311.832 -423.559)"/>
        <path id="패스_44218" data-name="패스 44218" class="cls-1" d="M399.268,476.968c0-1.483-.029-2.967.006-4.45a4.523,4.523,0,0,1,6.161-4.092c.728.3,1.422.719,1.075,1.69-.329.923-1.027.956-1.865.692a2.039,2.039,0,0,0-2.822,1.31c-.134.493-.035.717.508.707.762-.014,1.525-.02,2.287.011.781.032,1.361.4,1.348,1.235-.015.874-.575,1.271-1.445,1.228-.076,0-.152,0-.229,0-2.552.039-2.552.039-2.552,2.646,0,1.255-.011,2.51,0,3.765.01.869-.348,1.4-1.262,1.39-.861-.009-1.2-.544-1.2-1.342,0-1.6,0-3.195,0-4.792Z" transform="translate(-332.433 -417.927)"/>
        <path id="패스_44219" data-name="패스 44219" class="cls-2" d="M416.426,483.636c0-1.251.01-2.5,0-3.754-.009-.814.332-1.324,1.179-1.353.9-.032,1.317.489,1.32,1.344q.015,3.754,0,7.507c0,.854-.409,1.381-1.312,1.354-.844-.025-1.2-.528-1.188-1.345C416.435,486.139,416.426,484.888,416.426,483.636Z" transform="translate(-340.704 -423.559)"/>
        <path id="패스_44220" data-name="패스 44220" class="cls-3" d="M418.918,471.064c-.061.609-.061,1.467-1.176,1.541-.864.057-1.29-.495-1.341-1.563-.044-.915.2-1.635,1.223-1.66C418.553,469.359,418.943,469.981,418.918,471.064Z" transform="translate(-340.69 -418.619)"/>
      </g>
      <text id="map" class="cls-4" transform="translate(52 36)"><tspan x="0" y="0">map</tspan></text>
      <g id="그룹_277675" data-name="그룹 277675" transform="translate(-262.389 -382.506)">
        <path id="패스_569175" data-name="패스 569175" class="cls-5" d="M299.469,419.92v-5.209c0-1.387.387-2.59,1.4-2.96l4.339-1.546a3.889,3.889,0,0,0,.295-1.578,5.312,5.312,0,0,0-3.495-5.2l-11.884-3.717,3.1-1.11a1.777,1.777,0,0,1,.557-.091,2.05,2.05,0,0,1,.578.089l12.127,3.79c2.11.7,2.9,3.226,2.9,4.59a2.789,2.789,0,0,1-1.555,2.813c-1.046.381-4.186,1.505-4.186,1.505a4.591,4.591,0,0,0-.3,1.9c0,.638-.01,4.077-.01,4.693,0,1.476-.711,2.817-2.077,2.817a2.692,2.692,0,0,1-1.8-.786"/>
        <path id="패스_569176" data-name="패스 569176" class="cls-6" d="M296.36,408.082a5.969,5.969,0,0,1,.94,3.153V415.6c0,2.7,1.25,4.909,3.31,5.538l-3.179,1.1a1.913,1.913,0,0,1-1.638-.249,5.293,5.293,0,0,1-2.363-4.891c0-1.111-.007-2.63-.007-4.586a5.92,5.92,0,0,0-1.208-3.381,4.147,4.147,0,0,0-2-1.469,5.016,5.016,0,0,1-2.827-4.584c0-1.715.872-2.8,2.032-2.878a1.769,1.769,0,0,1,.663.089c.689.21,1.245.4,1.245.4-.385,1.984.772,5.027,3.106,5.851a3.589,3.589,0,0,1,1.925,1.54"/>
      </g>
      <path id="합치기_227" data-name="합치기 227" class="cls-7" d="M.148,9.309,4.3,5.013,0,.864.691.148,4.988,4.3,9.137,0l.716.692L5.7,4.988,10,9.137l-.692.716L5.012,5.7.864,10Z" transform="translate(96 26)"/>
    </g>
  </g>
</svg>
